%TF.GenerationSoftware,KiCad,Pcbnew,9.0.0*%
%TF.CreationDate,2026-01-13T23:39:09-06:00*%
%TF.ProjectId,SuppChargerPCB,53757070-4368-4617-9267-65725043422e,rev?*%
%TF.SameCoordinates,Original*%
%TF.FileFunction,Copper,L4,Bot*%
%TF.FilePolarity,Positive*%
%FSLAX46Y46*%
G04 Gerber Fmt 4.6, Leading zero omitted, Abs format (unit mm)*
G04 Created by KiCad (PCBNEW 9.0.0) date 2026-01-13 23:39:09*
%MOMM*%
%LPD*%
G01*
G04 APERTURE LIST*
G04 Aperture macros list*
%AMRoundRect*
0 Rectangle with rounded corners*
0 $1 Rounding radius*
0 $2 $3 $4 $5 $6 $7 $8 $9 X,Y pos of 4 corners*
0 Add a 4 corners polygon primitive as box body*
4,1,4,$2,$3,$4,$5,$6,$7,$8,$9,$2,$3,0*
0 Add four circle primitives for the rounded corners*
1,1,$1+$1,$2,$3*
1,1,$1+$1,$4,$5*
1,1,$1+$1,$6,$7*
1,1,$1+$1,$8,$9*
0 Add four rect primitives between the rounded corners*
20,1,$1+$1,$2,$3,$4,$5,0*
20,1,$1+$1,$4,$5,$6,$7,0*
20,1,$1+$1,$6,$7,$8,$9,0*
20,1,$1+$1,$8,$9,$2,$3,0*%
G04 Aperture macros list end*
%TA.AperFunction,SMDPad,CuDef*%
%ADD10RoundRect,0.250000X-0.300000X-0.300000X0.300000X-0.300000X0.300000X0.300000X-0.300000X0.300000X0*%
%TD*%
%TA.AperFunction,SMDPad,CuDef*%
%ADD11RoundRect,0.250000X0.300000X0.300000X-0.300000X0.300000X-0.300000X-0.300000X0.300000X-0.300000X0*%
%TD*%
%TA.AperFunction,ComponentPad*%
%ADD12C,3.600000*%
%TD*%
%TA.AperFunction,ConnectorPad*%
%ADD13C,6.400000*%
%TD*%
%TA.AperFunction,SMDPad,CuDef*%
%ADD14R,0.550000X1.500000*%
%TD*%
%TA.AperFunction,SMDPad,CuDef*%
%ADD15R,1.500000X0.550000*%
%TD*%
%TA.AperFunction,ComponentPad*%
%ADD16R,1.000000X1.000000*%
%TD*%
%TA.AperFunction,SMDPad,CuDef*%
%ADD17R,0.600000X1.250000*%
%TD*%
%TA.AperFunction,SMDPad,CuDef*%
%ADD18RoundRect,0.237500X-0.250000X-0.237500X0.250000X-0.237500X0.250000X0.237500X-0.250000X0.237500X0*%
%TD*%
%TA.AperFunction,SMDPad,CuDef*%
%ADD19RoundRect,0.237500X0.237500X-0.250000X0.237500X0.250000X-0.237500X0.250000X-0.237500X-0.250000X0*%
%TD*%
%TA.AperFunction,SMDPad,CuDef*%
%ADD20RoundRect,0.237500X-0.237500X0.300000X-0.237500X-0.300000X0.237500X-0.300000X0.237500X0.300000X0*%
%TD*%
%TA.AperFunction,SMDPad,CuDef*%
%ADD21RoundRect,0.237500X-0.237500X0.250000X-0.237500X-0.250000X0.237500X-0.250000X0.237500X0.250000X0*%
%TD*%
%TA.AperFunction,SMDPad,CuDef*%
%ADD22RoundRect,0.237500X-0.300000X-0.237500X0.300000X-0.237500X0.300000X0.237500X-0.300000X0.237500X0*%
%TD*%
%TA.AperFunction,SMDPad,CuDef*%
%ADD23RoundRect,0.250000X-0.250000X-0.475000X0.250000X-0.475000X0.250000X0.475000X-0.250000X0.475000X0*%
%TD*%
%TA.AperFunction,SMDPad,CuDef*%
%ADD24R,0.254000X0.812800*%
%TD*%
%TA.AperFunction,SMDPad,CuDef*%
%ADD25R,0.812800X0.254000*%
%TD*%
%TA.AperFunction,SMDPad,CuDef*%
%ADD26R,4.699000X3.708400*%
%TD*%
%TA.AperFunction,SMDPad,CuDef*%
%ADD27RoundRect,0.237500X0.250000X0.237500X-0.250000X0.237500X-0.250000X-0.237500X0.250000X-0.237500X0*%
%TD*%
%TA.AperFunction,SMDPad,CuDef*%
%ADD28R,1.250000X0.600000*%
%TD*%
%TA.AperFunction,SMDPad,CuDef*%
%ADD29RoundRect,0.237500X0.237500X-0.300000X0.237500X0.300000X-0.237500X0.300000X-0.237500X-0.300000X0*%
%TD*%
%TA.AperFunction,SMDPad,CuDef*%
%ADD30RoundRect,0.237500X0.300000X0.237500X-0.300000X0.237500X-0.300000X-0.237500X0.300000X-0.237500X0*%
%TD*%
%TA.AperFunction,ViaPad*%
%ADD31C,0.600000*%
%TD*%
%TA.AperFunction,Conductor*%
%ADD32C,0.250000*%
%TD*%
%TA.AperFunction,Conductor*%
%ADD33C,0.400000*%
%TD*%
%TA.AperFunction,Conductor*%
%ADD34C,0.200000*%
%TD*%
%TA.AperFunction,Conductor*%
%ADD35C,0.500000*%
%TD*%
%TA.AperFunction,Conductor*%
%ADD36C,0.350000*%
%TD*%
G04 APERTURE END LIST*
D10*
%TO.P,D12,1,K*%
%TO.N,/BTST2*%
X102186700Y-100771731D03*
%TO.P,D12,2,A*%
%TO.N,Net-(D11-A)*%
X104986700Y-100771731D03*
%TD*%
D11*
%TO.P,D11,1,K*%
%TO.N,/BTST1*%
X111493300Y-100781731D03*
%TO.P,D11,2,A*%
%TO.N,Net-(D11-A)*%
X108693300Y-100781731D03*
%TD*%
D12*
%TO.P,H1,1*%
%TO.N,N/C*%
X87490000Y-98890000D03*
D13*
X87490000Y-98890000D03*
%TD*%
D12*
%TO.P,H3,1*%
%TO.N,N/C*%
X127510000Y-114120000D03*
D13*
X127510000Y-114120000D03*
%TD*%
D14*
%TO.P,J1,1,1*%
%TO.N,PGND*%
X126270000Y-76970000D03*
%TO.P,J1,2,2*%
X126270000Y-80770000D03*
%TO.P,J1,3,3*%
X125470000Y-76970000D03*
%TO.P,J1,4,4*%
X125470000Y-80770000D03*
%TO.P,J1,5,5*%
X124670000Y-76970000D03*
%TO.P,J1,6,6*%
X124670000Y-80770000D03*
%TO.P,J1,7,7*%
X123870000Y-76970000D03*
%TO.P,J1,8,8*%
X123870000Y-80770000D03*
%TO.P,J1,9,9*%
X123070000Y-76970000D03*
%TO.P,J1,10,10*%
X123070000Y-80770000D03*
%TO.P,J1,11,11*%
%TO.N,+24V*%
X122270000Y-76970000D03*
%TO.P,J1,12,12*%
X122270000Y-80770000D03*
%TO.P,J1,13,13*%
X121470000Y-76970000D03*
%TO.P,J1,14,14*%
X121470000Y-80770000D03*
%TO.P,J1,15,15*%
X120670000Y-76970000D03*
%TO.P,J1,16,16*%
X120670000Y-80770000D03*
%TO.P,J1,17,17*%
X119870000Y-76970000D03*
%TO.P,J1,18,18*%
X119870000Y-80770000D03*
%TO.P,J1,19,19*%
X119070000Y-76970000D03*
%TO.P,J1,20,20*%
X119070000Y-80770000D03*
%TO.P,J1,21,21*%
X118270000Y-76970000D03*
%TO.P,J1,22,22*%
X118270000Y-80770000D03*
%TO.P,J1,23,23*%
X117470000Y-76970000D03*
%TO.P,J1,24,24*%
X117470000Y-80770000D03*
%TD*%
D15*
%TO.P,J2,1,1*%
%TO.N,OUT*%
X80662500Y-111000000D03*
%TO.P,J2,2,2*%
X76862500Y-111000000D03*
%TO.P,J2,3,3*%
X80662500Y-110200000D03*
%TO.P,J2,4,4*%
X76862500Y-110200000D03*
%TO.P,J2,5,5*%
X80662500Y-109400000D03*
%TO.P,J2,6,6*%
X76862500Y-109400000D03*
%TO.P,J2,7,7*%
X80662500Y-108600000D03*
%TO.P,J2,8,8*%
X76862500Y-108600000D03*
%TO.P,J2,9,9*%
%TO.N,/SDA*%
X80662500Y-107800000D03*
%TO.P,J2,10,10*%
%TO.N,OUT*%
X76862500Y-107800000D03*
%TO.P,J2,11,11*%
%TO.N,/SCL*%
X80662500Y-107000000D03*
%TO.P,J2,12,12*%
%TO.N,OUT*%
X76862500Y-107000000D03*
%TO.P,J2,13,13*%
%TO.N,/\u002AINT*%
X80662500Y-106200000D03*
%TO.P,J2,14,14*%
%TO.N,OUT*%
X76862500Y-106200000D03*
%TO.P,J2,15,15*%
%TO.N,/STAT1*%
X80662500Y-105400000D03*
%TO.P,J2,16,16*%
%TO.N,OUT*%
X76862500Y-105400000D03*
%TO.P,J2,17,17*%
%TO.N,/STAT2*%
X80662500Y-104600000D03*
%TO.P,J2,18,18*%
%TO.N,PGND*%
X76862500Y-104600000D03*
%TO.P,J2,19,19*%
%TO.N,/\u002ACE*%
X80662500Y-103800000D03*
%TO.P,J2,20,20*%
%TO.N,PGND*%
X76862500Y-103800000D03*
%TO.P,J2,21,21*%
X80662500Y-103000000D03*
%TO.P,J2,22,22*%
X76862500Y-103000000D03*
%TO.P,J2,23,23*%
X80662500Y-102200000D03*
%TO.P,J2,24,24*%
%TO.N,+3V3*%
X76862500Y-102200000D03*
%TD*%
D16*
%TO.P,OUT4,1,1*%
%TO.N,+3V3*%
X112810000Y-114970000D03*
%TD*%
%TO.P,OUT2,1,1*%
%TO.N,OUT*%
X84930000Y-103790000D03*
%TD*%
%TO.P,+24V2,1,1*%
%TO.N,+24V*%
X118740000Y-89860000D03*
%TD*%
%TO.P,PGND3,1,1*%
%TO.N,PGND*%
X128310000Y-75510000D03*
%TD*%
D17*
%TO.P,Q4,1,D*%
%TO.N,Net-(D4-K)*%
X77980000Y-98900000D03*
%TO.P,Q4,2,G*%
%TO.N,/\u002ACE*%
X76080000Y-98900000D03*
%TO.P,Q4,3,S*%
%TO.N,PGND*%
X77030000Y-96800000D03*
%TD*%
D18*
%TO.P,R41,1*%
%TO.N,/FB*%
X93635000Y-111890000D03*
%TO.P,R41,2*%
%TO.N,/FBG*%
X95460000Y-111890000D03*
%TD*%
D19*
%TO.P,R42,1*%
%TO.N,/DRV_SUP*%
X106835000Y-102708146D03*
%TO.P,R42,2*%
%TO.N,Net-(D11-A)*%
X106835000Y-100883146D03*
%TD*%
%TO.P,R51,1*%
%TO.N,+3V3*%
X100110000Y-115985000D03*
%TO.P,R51,2*%
%TO.N,/\u002ACE*%
X100110000Y-114160000D03*
%TD*%
D20*
%TO.P,C26,1*%
%TO.N,/ACN*%
X115150000Y-104155000D03*
%TO.P,C26,2*%
%TO.N,PGND*%
X115150000Y-105880000D03*
%TD*%
D19*
%TO.P,R48,1*%
%TO.N,+3V3*%
X95490000Y-115985000D03*
%TO.P,R48,2*%
%TO.N,/STAT1*%
X95490000Y-114160000D03*
%TD*%
D18*
%TO.P,R6,1*%
%TO.N,+3V3*%
X83155000Y-115830000D03*
%TO.P,R6,2*%
%TO.N,Net-(D3-A)*%
X84980000Y-115830000D03*
%TD*%
D21*
%TO.P,R2,1*%
%TO.N,/ACUV*%
X117810000Y-108650000D03*
%TO.P,R2,2*%
%TO.N,/ACOV*%
X117810000Y-110475000D03*
%TD*%
D19*
%TO.P,R7,1*%
%TO.N,+3V3*%
X74470000Y-99055000D03*
%TO.P,R7,2*%
%TO.N,Net-(D4-A)*%
X74470000Y-97230000D03*
%TD*%
D22*
%TO.P,C3,1*%
%TO.N,/ACN*%
X115348510Y-102515000D03*
%TO.P,C3,2*%
%TO.N,/ACP*%
X117073510Y-102515000D03*
%TD*%
D23*
%TO.P,C7,1*%
%TO.N,+24V*%
X121740000Y-83730000D03*
%TO.P,C7,2*%
%TO.N,PGND*%
X123640000Y-83730000D03*
%TD*%
D22*
%TO.P,C30,1*%
%TO.N,/SRN*%
X90235000Y-108270000D03*
%TO.P,C30,2*%
%TO.N,/SRP*%
X91960000Y-108270000D03*
%TD*%
D17*
%TO.P,Q2,1,D*%
%TO.N,Net-(D2-K)*%
X83110000Y-98900000D03*
%TO.P,Q2,2,G*%
%TO.N,/STAT2*%
X81210000Y-98900000D03*
%TO.P,Q2,3,S*%
%TO.N,PGND*%
X82160000Y-96800000D03*
%TD*%
D18*
%TO.P,R33,1*%
%TO.N,/HIDRV1*%
X111155000Y-106918000D03*
%TO.P,R33,2*%
%TO.N,/Converter/BUCK_HIGH*%
X112980000Y-106918000D03*
%TD*%
%TO.P,R4,1*%
%TO.N,+3V3*%
X93325000Y-101125000D03*
%TO.P,R4,2*%
%TO.N,Net-(D1-A)*%
X95150000Y-101125000D03*
%TD*%
D24*
%TO.P,U1,1,SCL*%
%TO.N,/SCL*%
X109120378Y-112338000D03*
%TO.P,U1,2,SDA*%
%TO.N,/SDA*%
X108620252Y-112338000D03*
%TO.P,U1,3,\u002AINT*%
%TO.N,/\u002AINT*%
X108120126Y-112338000D03*
%TO.P,U1,4,STAT1*%
%TO.N,/STAT1*%
X107620000Y-112338000D03*
%TO.P,U1,5,STAT2*%
%TO.N,/STAT2*%
X107119874Y-112338000D03*
%TO.P,U1,6,\u002APG*%
%TO.N,/\u002APG*%
X106619748Y-112338000D03*
%TO.P,U1,7,\u002ACE*%
%TO.N,/\u002ACE*%
X106119622Y-112338000D03*
%TO.P,U1,8,TS*%
%TO.N,PGND*%
X105619496Y-112338000D03*
%TO.P,U1,9,ICHG*%
%TO.N,Net-(U1-ICHG)*%
X105119370Y-112338000D03*
%TO.P,U1,10,ILIM_HIZ*%
%TO.N,Net-(U1-ILIM_HIZ)*%
X104619244Y-112338000D03*
D25*
%TO.P,U1,11,FBG*%
%TO.N,/FBG*%
X103923411Y-111637341D03*
%TO.P,U1,12,FB*%
%TO.N,/FB*%
X103923411Y-111137215D03*
%TO.P,U1,13,SRN*%
%TO.N,/SRN*%
X103923411Y-110637089D03*
%TO.P,U1,14,SRP*%
%TO.N,/SRP*%
X103923411Y-110136963D03*
%TO.P,U1,15,NC*%
%TO.N,unconnected-(U1-NC-Pad15)*%
X103923411Y-109636837D03*
%TO.P,U1,16,NC*%
%TO.N,unconnected-(U1-NC-Pad16)*%
X103923411Y-109136711D03*
%TO.P,U1,17,PGND*%
%TO.N,PGND*%
X103923411Y-108636585D03*
%TO.P,U1,18,SW2*%
%TO.N,/SW2*%
X103923411Y-108136459D03*
D24*
%TO.P,U1,19,HIDRV2*%
%TO.N,/HIDRV2*%
X104619244Y-107435800D03*
%TO.P,U1,20,BTST2*%
%TO.N,/BTST2*%
X105119370Y-107435800D03*
%TO.P,U1,21,LODRV2*%
%TO.N,/LODRV2*%
X105619496Y-107435800D03*
%TO.P,U1,22,PGND*%
%TO.N,PGND*%
X106119622Y-107435800D03*
%TO.P,U1,23,DRV_SUP*%
%TO.N,/DRV_SUP*%
X106619748Y-107435800D03*
%TO.P,U1,24,REGN*%
%TO.N,/REGN*%
X107119874Y-107435800D03*
%TO.P,U1,25,LODRV1*%
%TO.N,/LODRV1*%
X107620000Y-107435800D03*
%TO.P,U1,26,BTST1*%
%TO.N,/BTST1*%
X108120126Y-107435800D03*
%TO.P,U1,27,HIDRV1*%
%TO.N,/HIDRV1*%
X108620252Y-107435800D03*
%TO.P,U1,28,SW1*%
%TO.N,/SW1*%
X109120378Y-107435800D03*
D25*
%TO.P,U1,29,ACN*%
%TO.N,/ACN*%
X109816211Y-108136459D03*
%TO.P,U1,30,ACP*%
%TO.N,/ACP*%
X109816211Y-108636585D03*
%TO.P,U1,31,NC*%
%TO.N,unconnected-(U1-NC-Pad31)*%
X109816211Y-109136711D03*
%TO.P,U1,32,VAC*%
%TO.N,+24V*%
X109816211Y-109636837D03*
%TO.P,U1,33,VAC*%
X109816211Y-110136963D03*
%TO.P,U1,34,ACUV*%
%TO.N,/ACUV*%
X109816211Y-110637089D03*
%TO.P,U1,35,ACOV*%
%TO.N,/ACOV*%
X109816211Y-111137215D03*
%TO.P,U1,36,FSW_SYNC*%
%TO.N,Net-(U1-FSW_SYNC)*%
X109816211Y-111637341D03*
D26*
%TO.P,U1,37,EPAD*%
%TO.N,PGND*%
X106869811Y-109886900D03*
%TD*%
D27*
%TO.P,R29,1*%
%TO.N,PGND*%
X113145000Y-112430000D03*
%TO.P,R29,2*%
%TO.N,Net-(U1-FSW_SYNC)*%
X111320000Y-112430000D03*
%TD*%
D21*
%TO.P,R38,1*%
%TO.N,/Converter/BOOST_OUT*%
X92030000Y-104915000D03*
%TO.P,R38,2*%
%TO.N,/SRP*%
X92030000Y-106740000D03*
%TD*%
%TO.P,R22,1*%
%TO.N,+24V*%
X116980000Y-99185000D03*
%TO.P,R22,2*%
%TO.N,/ACP*%
X116980000Y-101010000D03*
%TD*%
%TO.P,R39,1*%
%TO.N,OUT*%
X90170000Y-104925000D03*
%TO.P,R39,2*%
%TO.N,/SRN*%
X90170000Y-106750000D03*
%TD*%
%TO.P,R3,1*%
%TO.N,/ACOV*%
X116310000Y-110000000D03*
%TO.P,R3,2*%
%TO.N,PGND*%
X116310000Y-111825000D03*
%TD*%
D28*
%TO.P,Q3,1,D*%
%TO.N,Net-(D3-K)*%
X86890000Y-115790000D03*
%TO.P,Q3,2,G*%
%TO.N,/\u002APG*%
X86890000Y-113890000D03*
%TO.P,Q3,3,S*%
%TO.N,PGND*%
X88990000Y-114840000D03*
%TD*%
D19*
%TO.P,R45,1*%
%TO.N,+3V3*%
X92410000Y-115995000D03*
%TO.P,R45,2*%
%TO.N,/SDA*%
X92410000Y-114170000D03*
%TD*%
D20*
%TO.P,C9,1*%
%TO.N,+24V*%
X120810000Y-106975000D03*
%TO.P,C9,2*%
%TO.N,PGND*%
X120810000Y-108700000D03*
%TD*%
D27*
%TO.P,R9,1*%
%TO.N,+24V*%
X118090000Y-86930000D03*
%TO.P,R9,2*%
%TO.N,Net-(D5-A)*%
X116265000Y-86930000D03*
%TD*%
%TO.P,R30,1*%
%TO.N,/REGN*%
X107670000Y-104588000D03*
%TO.P,R30,2*%
%TO.N,/DRV_SUP*%
X105845000Y-104588000D03*
%TD*%
D18*
%TO.P,R40,1*%
%TO.N,OUT*%
X84285000Y-109725000D03*
%TO.P,R40,2*%
%TO.N,/FB*%
X86110000Y-109725000D03*
%TD*%
D17*
%TO.P,Q5,1,D*%
%TO.N,Net-(D7-K)*%
X100175000Y-99475000D03*
%TO.P,Q5,2,G*%
%TO.N,/\u002AINT*%
X98275000Y-99475000D03*
%TO.P,Q5,3,S*%
%TO.N,PGND*%
X99225000Y-97375000D03*
%TD*%
D19*
%TO.P,R46,1*%
%TO.N,+3V3*%
X93950000Y-115995000D03*
%TO.P,R46,2*%
%TO.N,/SCL*%
X93950000Y-114170000D03*
%TD*%
%TO.P,R10,1*%
%TO.N,OUT*%
X74300000Y-108340000D03*
%TO.P,R10,2*%
%TO.N,Net-(D6-A)*%
X74300000Y-106515000D03*
%TD*%
D21*
%TO.P,R1,1*%
%TO.N,+24V*%
X119310000Y-106925000D03*
%TO.P,R1,2*%
%TO.N,/ACUV*%
X119310000Y-108750000D03*
%TD*%
D18*
%TO.P,R8,1*%
%TO.N,+3V3*%
X98325000Y-101125000D03*
%TO.P,R8,2*%
%TO.N,Net-(D7-A)*%
X100150000Y-101125000D03*
%TD*%
%TO.P,R12,1*%
%TO.N,Net-(U1-ILIM_HIZ)*%
X105270000Y-115470000D03*
%TO.P,R12,2*%
%TO.N,PGND*%
X107095000Y-115470000D03*
%TD*%
D20*
%TO.P,C2,1*%
%TO.N,+24V*%
X122310000Y-106975000D03*
%TO.P,C2,2*%
%TO.N,PGND*%
X122310000Y-108700000D03*
%TD*%
D18*
%TO.P,R35,1*%
%TO.N,/Converter/BOOST_HIGH*%
X100785000Y-106948000D03*
%TO.P,R35,2*%
%TO.N,/HIDRV2*%
X102610000Y-106948000D03*
%TD*%
D19*
%TO.P,R5,1*%
%TO.N,+3V3*%
X79600000Y-98985000D03*
%TO.P,R5,2*%
%TO.N,Net-(D2-A)*%
X79600000Y-97160000D03*
%TD*%
D29*
%TO.P,C31,1*%
%TO.N,/SRN*%
X88660000Y-108220000D03*
%TO.P,C31,2*%
%TO.N,PGND*%
X88660000Y-106495000D03*
%TD*%
D19*
%TO.P,R49,1*%
%TO.N,+3V3*%
X97030000Y-115985000D03*
%TO.P,R49,2*%
%TO.N,/STAT2*%
X97030000Y-114160000D03*
%TD*%
D27*
%TO.P,R47,1*%
%TO.N,Net-(U1-ICHG)*%
X103450000Y-114400000D03*
%TO.P,R47,2*%
%TO.N,PGND*%
X101625000Y-114400000D03*
%TD*%
D30*
%TO.P,C33,1*%
%TO.N,/SW2*%
X105268789Y-102833146D03*
%TO.P,C33,2*%
%TO.N,/BTST2*%
X103543789Y-102833146D03*
%TD*%
D22*
%TO.P,C32,1*%
%TO.N,/SW1*%
X108405000Y-102831731D03*
%TO.P,C32,2*%
%TO.N,/BTST1*%
X110130000Y-102831731D03*
%TD*%
D29*
%TO.P,C28,1*%
%TO.N,/SRP*%
X93550000Y-108250000D03*
%TO.P,C28,2*%
%TO.N,PGND*%
X93550000Y-106525000D03*
%TD*%
D17*
%TO.P,Q1,1,D*%
%TO.N,Net-(D1-K)*%
X95170000Y-99470000D03*
%TO.P,Q1,2,G*%
%TO.N,/STAT1*%
X93270000Y-99470000D03*
%TO.P,Q1,3,S*%
%TO.N,PGND*%
X94220000Y-97370000D03*
%TD*%
D21*
%TO.P,R31,1*%
%TO.N,/Converter/BUCK_IN*%
X115450000Y-99195000D03*
%TO.P,R31,2*%
%TO.N,/ACN*%
X115450000Y-101020000D03*
%TD*%
D20*
%TO.P,C22,1*%
%TO.N,/ACP*%
X117283510Y-104155000D03*
%TO.P,C22,2*%
%TO.N,PGND*%
X117283510Y-105880000D03*
%TD*%
D19*
%TO.P,R50,1*%
%TO.N,+3V3*%
X98570000Y-115985000D03*
%TO.P,R50,2*%
%TO.N,/\u002APG*%
X98570000Y-114160000D03*
%TD*%
D31*
%TO.N,+24V*%
X119350000Y-105750000D03*
X115400000Y-96850000D03*
%TO.N,/ACOV*%
X117810000Y-111580000D03*
X117860000Y-112690000D03*
%TO.N,/ACUV*%
X120390000Y-110730000D03*
X121320000Y-112590000D03*
%TO.N,/Converter/BUCK_IN*%
X114920000Y-97950000D03*
%TO.N,PGND*%
X100510000Y-96390000D03*
X112330000Y-116740000D03*
X91210000Y-96390000D03*
X113360000Y-95440000D03*
X108500000Y-116730000D03*
X76270000Y-115640000D03*
X114140000Y-116720000D03*
X113340000Y-77640000D03*
X113360000Y-88790000D03*
X119990000Y-116740000D03*
X113340000Y-84290000D03*
X129560000Y-108440000D03*
X120410000Y-73670000D03*
X116130000Y-116740000D03*
X129540000Y-89630000D03*
X113370000Y-82620000D03*
X113390000Y-93770000D03*
X127970000Y-106790000D03*
X104720000Y-116730000D03*
X127940000Y-101850000D03*
X129550000Y-106770000D03*
X127810000Y-87850000D03*
X73490000Y-112430000D03*
X129530000Y-87850000D03*
X118000000Y-116720000D03*
X113350000Y-79280000D03*
X127820000Y-89630000D03*
X129540000Y-105180000D03*
X98820000Y-96370000D03*
X95030000Y-96390000D03*
X114780000Y-73650000D03*
X127820000Y-86390000D03*
X129580000Y-81020000D03*
X125350000Y-73640000D03*
X127720000Y-97980000D03*
X129530000Y-103610000D03*
X102730000Y-116710000D03*
X106510000Y-116710000D03*
X110340000Y-116720000D03*
X105607599Y-109463000D03*
X129570000Y-79350000D03*
X127960000Y-105200000D03*
X127210000Y-73640000D03*
X73440000Y-115640000D03*
X127750000Y-94480000D03*
X122000000Y-73660000D03*
X74890000Y-113960000D03*
X97150000Y-96370000D03*
X121590000Y-116720000D03*
X73470000Y-113960000D03*
X129570000Y-94460000D03*
X113360000Y-80990000D03*
X113330000Y-74640000D03*
X93000000Y-96370000D03*
X129540000Y-96130000D03*
X129550000Y-82690000D03*
X113330000Y-75960000D03*
X129530000Y-110110000D03*
X129560000Y-77760000D03*
X105626456Y-108643544D03*
X77640000Y-115630000D03*
X123580000Y-116740000D03*
X113370000Y-90430000D03*
X127980000Y-108460000D03*
X76230000Y-113970000D03*
X118740000Y-73680000D03*
X117070000Y-73650000D03*
X129540000Y-97960000D03*
X129520000Y-101830000D03*
X123570000Y-73650000D03*
X127720000Y-96150000D03*
X113380000Y-92140000D03*
X127950000Y-110130000D03*
X113350000Y-85630000D03*
X129540000Y-86390000D03*
X74890000Y-115640000D03*
X127950000Y-103630000D03*
%TO.N,/DRV_SUP*%
X106560000Y-103778000D03*
%TO.N,/Converter/BOOST_OUT*%
X91580000Y-103920000D03*
%TO.N,/Converter/BUCK_HIGH*%
X113300000Y-106038000D03*
%TO.N,OUT*%
X90610000Y-103910000D03*
X82070000Y-110760000D03*
X78430000Y-107290000D03*
X78430000Y-105960000D03*
%TO.N,/SW1*%
X107404902Y-101795645D03*
X112220578Y-107695001D03*
X111694687Y-99615313D03*
%TO.N,/SW2*%
X102011690Y-106057074D03*
X106265098Y-101795647D03*
%TO.N,Net-(D1-A)*%
X94553035Y-100481697D03*
%TO.N,/STAT1*%
X82074065Y-105209911D03*
X107889977Y-113776696D03*
X96635000Y-113095000D03*
X92390000Y-99460000D03*
%TO.N,/STAT2*%
X82068890Y-104409925D03*
X97840000Y-113090000D03*
X107092319Y-113843064D03*
X82120000Y-99010000D03*
%TO.N,Net-(D2-A)*%
X79590322Y-97997500D03*
%TO.N,/\u002APG*%
X105984819Y-113849065D03*
X99170000Y-113160000D03*
X84800523Y-113489001D03*
%TO.N,Net-(D4-A)*%
X75004632Y-98036887D03*
%TO.N,/\u002ACE*%
X100160000Y-113180000D03*
X76970000Y-99060000D03*
X82080000Y-103610000D03*
X105110587Y-113830587D03*
%TO.N,Net-(D5-A)*%
X116270000Y-86100000D03*
%TO.N,/\u002AINT*%
X108687930Y-113837242D03*
X97360000Y-99500000D03*
X82113159Y-106008958D03*
%TO.N,/FB*%
X90920000Y-111985000D03*
X87100000Y-107450000D03*
%TO.N,/FBG*%
X94639882Y-112615000D03*
X84890000Y-107440000D03*
X88870000Y-111985000D03*
%TO.N,+3V3*%
X80274265Y-100955735D03*
X101170000Y-115990000D03*
X91400000Y-116065000D03*
X92080000Y-101110000D03*
X81738058Y-115221942D03*
%TO.N,/SCL*%
X82070000Y-106850000D03*
X93339461Y-113018183D03*
X109950000Y-113100000D03*
%TO.N,/SDA*%
X83040000Y-107800000D03*
X91920002Y-112610000D03*
X110719299Y-113319495D03*
%TO.N,/HIDRV1*%
X124860000Y-107110000D03*
X110310000Y-106810800D03*
%TO.N,/HIDRV2*%
X103210000Y-107511459D03*
X96790000Y-102960000D03*
%TO.N,/LODRV1*%
X121910000Y-110040000D03*
X108000000Y-105598000D03*
%TO.N,/LODRV2*%
X97992110Y-102817890D03*
X105623178Y-106692484D03*
%TO.N,/Converter/BOOST_HIGH*%
X101627314Y-103112686D03*
%TO.N,Net-(U1-ILIM_HIZ)*%
X102620000Y-113590000D03*
X104160000Y-115670000D03*
%TO.N,Net-(D1-K)*%
X94560000Y-98860000D03*
%TO.N,Net-(D2-K)*%
X82006746Y-98218055D03*
%TO.N,Net-(D4-K)*%
X77028029Y-98262104D03*
%TO.N,Net-(D3-A)*%
X84142500Y-115836019D03*
X75320000Y-104010000D03*
%TO.N,Net-(D3-K)*%
X84410000Y-114890000D03*
X74482857Y-104055214D03*
%TO.N,Net-(D6-A)*%
X74165000Y-105390000D03*
%TO.N,Net-(D7-K)*%
X99660000Y-98560000D03*
%TO.N,Net-(D7-A)*%
X99545747Y-100476289D03*
%TO.N,/REGN*%
X107531869Y-103538000D03*
X112232499Y-112999902D03*
X114300000Y-114920000D03*
%TD*%
D32*
%TO.N,/ACUV*%
X119310000Y-109840000D02*
X119310000Y-108750000D01*
X120200000Y-110730000D02*
X119310000Y-109840000D01*
X120390000Y-110730000D02*
X120200000Y-110730000D01*
D33*
%TO.N,/BTST2*%
X102186700Y-101476057D02*
X103543789Y-102833146D01*
X102186700Y-100771731D02*
X102186700Y-101476057D01*
%TO.N,/BTST1*%
X111493300Y-101468431D02*
X110130000Y-102831731D01*
X111493300Y-100781731D02*
X111493300Y-101468431D01*
D32*
%TO.N,+24V*%
X119310000Y-106925000D02*
X119310000Y-105790000D01*
D34*
X116980000Y-99185000D02*
X116980000Y-98430000D01*
D32*
X109816211Y-109930000D02*
X109816211Y-110136963D01*
X109816211Y-110136963D02*
X110023037Y-110136963D01*
X119310000Y-106925000D02*
X122260000Y-106925000D01*
D35*
X119310000Y-106925000D02*
X119140000Y-106755000D01*
D32*
X114170000Y-109940000D02*
X109826211Y-109940000D01*
X119310000Y-105790000D02*
X119350000Y-105750000D01*
X122260000Y-106925000D02*
X122310000Y-106975000D01*
D34*
X116980000Y-98430000D02*
X115400000Y-96850000D01*
D32*
X109826211Y-109940000D02*
X109816211Y-109930000D01*
X109816211Y-109636837D02*
X109916837Y-109636837D01*
X109816211Y-109636837D02*
X109816211Y-109930000D01*
X119310000Y-106925000D02*
X117185000Y-106925000D01*
X117185000Y-106925000D02*
X114170000Y-109940000D01*
%TO.N,/ACOV*%
X115535000Y-110000000D02*
X116310000Y-110000000D01*
X114397785Y-111137215D02*
X109816211Y-111137215D01*
X115535000Y-110000000D02*
X114397785Y-111137215D01*
X117810000Y-110475000D02*
X117810000Y-111580000D01*
X116310000Y-110000000D02*
X117335000Y-110000000D01*
X117335000Y-110000000D02*
X117810000Y-110475000D01*
%TO.N,/ACUV*%
X116150000Y-108650000D02*
X117810000Y-108650000D01*
X116110000Y-108650000D02*
X116150000Y-108650000D01*
X119210000Y-108650000D02*
X119310000Y-108750000D01*
X114162911Y-110637089D02*
X109816211Y-110637089D01*
X116150000Y-108650000D02*
X114162911Y-110637089D01*
X117810000Y-108650000D02*
X119210000Y-108650000D01*
D36*
X117910000Y-108750000D02*
X117810000Y-108650000D01*
D34*
%TO.N,/Converter/BUCK_IN*%
X115460000Y-98500000D02*
X114920000Y-97960000D01*
X115450000Y-99195000D02*
X115450000Y-98510000D01*
X114920000Y-97960000D02*
X114920000Y-97950000D01*
X115450000Y-98510000D02*
X115460000Y-98500000D01*
D32*
%TO.N,PGND*%
X106869811Y-109886900D02*
X107766711Y-108990000D01*
X106031499Y-109886900D02*
X105607599Y-109463000D01*
X107766711Y-108990000D02*
X108280000Y-108990000D01*
X105619496Y-112338000D02*
X105619496Y-111137215D01*
X105781456Y-108798544D02*
X105626456Y-108643544D01*
X106119622Y-109136711D02*
X106869811Y-109886900D01*
X105626456Y-108643544D02*
X105572370Y-108589459D01*
X106869811Y-109886900D02*
X108506082Y-109886900D01*
X108506082Y-109886900D02*
X108573610Y-109954428D01*
X105572370Y-108589459D02*
X103970537Y-108589459D01*
X106119622Y-107435800D02*
X106119622Y-109136711D01*
X106869811Y-109886900D02*
X106031499Y-109886900D01*
X105619496Y-111137215D02*
X106869811Y-109886900D01*
X105781456Y-108798544D02*
X106869811Y-109886900D01*
X103970537Y-108589459D02*
X103923411Y-108636585D01*
D34*
%TO.N,/ACN*%
X115150000Y-104155000D02*
X115926000Y-104931000D01*
X115926000Y-104931000D02*
X115926000Y-106514000D01*
X115450000Y-101020000D02*
X115450000Y-102413510D01*
X115348510Y-103956490D02*
X115150000Y-104155000D01*
X115348510Y-102515000D02*
X115348510Y-103956490D01*
D32*
X109816211Y-108136459D02*
X109849752Y-108170000D01*
D34*
X110649127Y-108296001D02*
X110489585Y-108136459D01*
X115926000Y-106514000D02*
X114143999Y-108296001D01*
X115450000Y-102413510D02*
X115348510Y-102515000D01*
X110489585Y-108136459D02*
X109816211Y-108136459D01*
X114143999Y-108296001D02*
X110649127Y-108296001D01*
%TO.N,/ACP*%
X117283510Y-104155000D02*
X116327000Y-105111510D01*
X114450000Y-108746000D02*
X110532026Y-108746000D01*
X110422611Y-108636585D02*
X109816211Y-108636585D01*
X117073510Y-102515000D02*
X117073510Y-103945000D01*
D32*
X110342331Y-108636585D02*
X109816211Y-108636585D01*
D34*
X116327000Y-105111510D02*
X116327000Y-106869000D01*
X117073510Y-103945000D02*
X117283510Y-104155000D01*
X116327000Y-106869000D02*
X114450000Y-108746000D01*
X116980000Y-101010000D02*
X116980000Y-102421490D01*
X110532026Y-108746000D02*
X110422611Y-108636585D01*
X116980000Y-102421490D02*
X117073510Y-102515000D01*
D32*
%TO.N,/DRV_SUP*%
X106508789Y-103034357D02*
X106835000Y-102708146D01*
X106508789Y-103924211D02*
X105845000Y-104588000D01*
X105845000Y-104943000D02*
X105845000Y-104588000D01*
X106619748Y-107435800D02*
X106619748Y-105717748D01*
X106835000Y-103503000D02*
X106560000Y-103778000D01*
X106619748Y-105717748D02*
X105845000Y-104943000D01*
X106508789Y-103924211D02*
X106508789Y-103829211D01*
X106508789Y-103829211D02*
X106560000Y-103778000D01*
X106835000Y-102708146D02*
X106835000Y-103503000D01*
%TO.N,/Converter/BOOST_OUT*%
X92030000Y-104370000D02*
X91580000Y-103920000D01*
X92030000Y-104915000D02*
X92030000Y-104370000D01*
D35*
%TO.N,/Converter/BUCK_HIGH*%
X112980000Y-106358000D02*
X113300000Y-106038000D01*
X113177200Y-106720800D02*
X112980000Y-106918000D01*
X112980000Y-106918000D02*
X112980000Y-106358000D01*
D34*
%TO.N,/SRP*%
X93126189Y-110209089D02*
X91960000Y-109042900D01*
X103851285Y-110209089D02*
X93126189Y-110209089D01*
X103923411Y-110136963D02*
X103851285Y-110209089D01*
X93530000Y-108270000D02*
X93550000Y-108250000D01*
X91960000Y-108270000D02*
X93530000Y-108270000D01*
X92030000Y-108200000D02*
X91960000Y-108270000D01*
X91960000Y-109042900D02*
X91960000Y-108270000D01*
X92030000Y-106740000D02*
X92030000Y-108200000D01*
D32*
%TO.N,OUT*%
X90205000Y-104890000D02*
X90170000Y-104925000D01*
D35*
X80662500Y-109400000D02*
X83960000Y-109400000D01*
D32*
X90170000Y-104925000D02*
X90170000Y-104350000D01*
D35*
X83960000Y-109400000D02*
X84285000Y-109725000D01*
D32*
X90170000Y-104350000D02*
X90610000Y-103910000D01*
D34*
%TO.N,/SRN*%
X90170000Y-106750000D02*
X90170000Y-108205000D01*
X92987089Y-110637089D02*
X90620000Y-108270000D01*
X103923411Y-110637089D02*
X92987089Y-110637089D01*
X88710000Y-108270000D02*
X88660000Y-108220000D01*
X90235000Y-108270000D02*
X88710000Y-108270000D01*
X90620000Y-108270000D02*
X90235000Y-108270000D01*
D35*
%TO.N,/BTST1*%
X108838789Y-103953146D02*
X109960204Y-102831731D01*
D32*
X109960204Y-102831731D02*
X110130000Y-102831731D01*
D35*
X108838789Y-105426789D02*
X108870000Y-105458000D01*
X108838789Y-103953146D02*
X108838789Y-105426789D01*
D32*
X108120126Y-106661631D02*
X108870000Y-105911757D01*
X108870000Y-105911757D02*
X108870000Y-105458000D01*
X108120126Y-107435800D02*
X108120126Y-106661631D01*
D35*
%TO.N,/SW1*%
X108405000Y-102795743D02*
X108405000Y-102831731D01*
D32*
X111889894Y-107695001D02*
X111864895Y-107720000D01*
X110381810Y-107435800D02*
X109120378Y-107435800D01*
X112220578Y-107695001D02*
X111889894Y-107695001D01*
X111864895Y-107720000D02*
X110650000Y-107720000D01*
X110640000Y-107693990D02*
X110381810Y-107435800D01*
X110650000Y-107720000D02*
X110640000Y-107710000D01*
X110640000Y-107710000D02*
X110640000Y-107693990D01*
D35*
X107404902Y-101795645D02*
X108405000Y-102795743D01*
D34*
%TO.N,/BTST2*%
X105119370Y-107435800D02*
X105047244Y-107363674D01*
X105047244Y-106897244D02*
X104450000Y-106300000D01*
D35*
X104450000Y-103720000D02*
X104450000Y-106300000D01*
X103543789Y-102833146D02*
X103563146Y-102833146D01*
X103563146Y-102833146D02*
X104450000Y-103720000D01*
D34*
X105047244Y-107363674D02*
X105047244Y-106897244D01*
D32*
%TO.N,/SW2*%
X102507469Y-108136459D02*
X101796500Y-107425490D01*
X101796500Y-107425490D02*
X101796500Y-106272264D01*
X101796500Y-106272264D02*
X102011690Y-106057074D01*
X103923411Y-108136459D02*
X102507469Y-108136459D01*
D35*
X105268789Y-102791956D02*
X105268789Y-102833146D01*
X106265098Y-101795647D02*
X105268789Y-102791956D01*
D32*
%TO.N,Net-(D1-A)*%
X95150000Y-101125000D02*
X95150000Y-101078662D01*
X95150000Y-101078662D02*
X94553035Y-100481697D01*
%TO.N,/STAT1*%
X95570000Y-114160000D02*
X96635000Y-113095000D01*
X92400000Y-99470000D02*
X92390000Y-99460000D01*
X95490000Y-114160000D02*
X95570000Y-114160000D01*
X81883976Y-105400000D02*
X82074065Y-105209911D01*
X93270000Y-99470000D02*
X92400000Y-99470000D01*
X107620000Y-113508133D02*
X107620000Y-112338000D01*
X80662500Y-105400000D02*
X81883976Y-105400000D01*
%TO.N,/STAT2*%
X107092319Y-113843064D02*
X107092463Y-113843064D01*
D34*
X81320000Y-99010000D02*
X81210000Y-98900000D01*
D32*
X107119874Y-113815653D02*
X107119874Y-112338000D01*
X81878815Y-104600000D02*
X82068890Y-104409925D01*
X80662500Y-104600000D02*
X81878815Y-104600000D01*
X97030000Y-114160000D02*
X97030000Y-113900000D01*
X97030000Y-113900000D02*
X97840000Y-113090000D01*
X107092463Y-113843064D02*
X107119874Y-113815653D01*
D34*
X82120000Y-99010000D02*
X81320000Y-99010000D01*
D32*
%TO.N,Net-(D2-A)*%
X79590322Y-97169678D02*
X79600000Y-97160000D01*
X79590322Y-97997500D02*
X79590322Y-97169678D01*
D34*
%TO.N,/\u002APG*%
X85201522Y-113890000D02*
X86890000Y-113890000D01*
X106619748Y-113214136D02*
X105984819Y-113849065D01*
X84800523Y-113489001D02*
X85201522Y-113890000D01*
D32*
X98570000Y-113760000D02*
X99170000Y-113160000D01*
X98570000Y-114160000D02*
X98570000Y-113760000D01*
D34*
X106619748Y-112338000D02*
X106619748Y-113214136D01*
D32*
%TO.N,Net-(D4-A)*%
X75004632Y-98036887D02*
X75004632Y-97704632D01*
X75004632Y-97704632D02*
X74470000Y-97170000D01*
D34*
%TO.N,/\u002ACE*%
X81890000Y-103800000D02*
X82080000Y-103610000D01*
D32*
X105504413Y-113445587D02*
X106119622Y-112830378D01*
D34*
X76240000Y-99060000D02*
X76080000Y-98900000D01*
D32*
X105110587Y-113830587D02*
X105495587Y-113445587D01*
X100110000Y-114160000D02*
X100110000Y-113230000D01*
D34*
X80662500Y-103800000D02*
X81890000Y-103800000D01*
D32*
X100110000Y-113230000D02*
X100160000Y-113180000D01*
X105495587Y-113445587D02*
X105504413Y-113445587D01*
D34*
X76970000Y-99060000D02*
X76240000Y-99060000D01*
D32*
X106119622Y-112830378D02*
X106119622Y-112338000D01*
D34*
%TO.N,Net-(D5-A)*%
X116265000Y-86930000D02*
X116265000Y-86105000D01*
X116265000Y-86105000D02*
X116270000Y-86100000D01*
D32*
%TO.N,/\u002AINT*%
X98275000Y-99475000D02*
X97385000Y-99475000D01*
X108120126Y-113122961D02*
X108687930Y-113690765D01*
X108120126Y-112338000D02*
X108120126Y-113122961D01*
X108687930Y-113690765D02*
X108687930Y-113837242D01*
X97385000Y-99475000D02*
X97360000Y-99500000D01*
X81922117Y-106200000D02*
X82113159Y-106008958D01*
X80662500Y-106200000D02*
X81922117Y-106200000D01*
D35*
%TO.N,Net-(D11-A)*%
X107050000Y-100781731D02*
X106835000Y-100996731D01*
X105225000Y-100771731D02*
X106610000Y-100771731D01*
X108455000Y-100781731D02*
X107050000Y-100781731D01*
X106610000Y-100771731D02*
X106835000Y-100996731D01*
D32*
%TO.N,/FB*%
X93635000Y-111887454D02*
X93635000Y-111890000D01*
D34*
X103900196Y-111114000D02*
X94411000Y-111114000D01*
D32*
X91472546Y-109725000D02*
X93635000Y-111887454D01*
X86110000Y-109725000D02*
X91472546Y-109725000D01*
D34*
X103923411Y-111137215D02*
X103900196Y-111114000D01*
X94411000Y-111114000D02*
X93635000Y-111890000D01*
X93635000Y-111890000D02*
X91015000Y-111890000D01*
X91015000Y-111890000D02*
X90920000Y-111985000D01*
D32*
%TO.N,/FBG*%
X95364882Y-111890000D02*
X94639882Y-112615000D01*
X95460000Y-111890000D02*
X95364882Y-111890000D01*
D34*
X103670752Y-111890000D02*
X103923411Y-111637341D01*
D32*
X95460000Y-111890000D02*
X103670752Y-111890000D01*
D34*
%TO.N,+3V3*%
X76862500Y-102200000D02*
X76580000Y-102200000D01*
D33*
X94460000Y-102260000D02*
X97190000Y-102260000D01*
X92420000Y-115985000D02*
X92410000Y-115995000D01*
X101165000Y-115985000D02*
X101170000Y-115990000D01*
X92095000Y-101125000D02*
X92080000Y-101110000D01*
X83155000Y-115830000D02*
X82346116Y-115830000D01*
X74440000Y-102200000D02*
X76862500Y-102200000D01*
X73370000Y-109334500D02*
X73370000Y-103270000D01*
X79600000Y-98985000D02*
X79600000Y-100680000D01*
X79600000Y-100680000D02*
X78080000Y-102200000D01*
X93325000Y-101125000D02*
X94460000Y-102260000D01*
X74470000Y-99807500D02*
X76862500Y-102200000D01*
X91470000Y-115995000D02*
X91400000Y-116065000D01*
X83155000Y-115830000D02*
X79865500Y-115830000D01*
X78080000Y-102200000D02*
X76862500Y-102200000D01*
X93325000Y-101125000D02*
X92095000Y-101125000D01*
X79865500Y-115830000D02*
X73370000Y-109334500D01*
X74470000Y-99055000D02*
X74470000Y-99807500D01*
X79600000Y-100281470D02*
X80274265Y-100955735D01*
X100110000Y-115985000D02*
X101165000Y-115985000D01*
X73370000Y-103270000D02*
X74440000Y-102200000D01*
X82346116Y-115830000D02*
X81738058Y-115221942D01*
X100110000Y-115985000D02*
X92420000Y-115985000D01*
X97190000Y-102260000D02*
X98325000Y-101125000D01*
X79600000Y-98985000D02*
X79600000Y-100281470D01*
X92410000Y-115995000D02*
X91470000Y-115995000D01*
D32*
%TO.N,/SCL*%
X109940933Y-112979799D02*
X109940933Y-113090933D01*
X93309998Y-113047646D02*
X93309998Y-113210000D01*
X109120378Y-112338000D02*
X109299134Y-112338000D01*
X93309998Y-113210000D02*
X93950000Y-113850002D01*
X80662500Y-107000000D02*
X81920000Y-107000000D01*
X81920000Y-107000000D02*
X82070000Y-106850000D01*
X93950000Y-113850002D02*
X93950000Y-114170000D01*
X93339461Y-113018183D02*
X93309998Y-113047646D01*
X109940933Y-113090933D02*
X109950000Y-113100000D01*
X109299134Y-112338000D02*
X109940933Y-112979799D01*
%TO.N,/SDA*%
X110719299Y-113319495D02*
X110719299Y-113550701D01*
X92370002Y-113060000D02*
X92380000Y-113060000D01*
X83040000Y-107800000D02*
X80662500Y-107800000D01*
X110543735Y-113726265D02*
X109462251Y-113726265D01*
X92410000Y-113090000D02*
X92410000Y-114170000D01*
X91920002Y-112610000D02*
X92370002Y-113060000D01*
X92380000Y-113060000D02*
X92410000Y-113090000D01*
X110719299Y-113550701D02*
X110543735Y-113726265D01*
X108620252Y-112884266D02*
X108620252Y-112338000D01*
X109462251Y-113726265D02*
X108620252Y-112884266D01*
%TO.N,/HIDRV1*%
X110755000Y-106518000D02*
X111155000Y-106918000D01*
X111155000Y-106918000D02*
X110417200Y-106918000D01*
X108620252Y-106799315D02*
X108901567Y-106518000D01*
X110417200Y-106918000D02*
X110310000Y-106810800D01*
X108620252Y-107435800D02*
X108620252Y-106799315D01*
X108901567Y-106518000D02*
X110755000Y-106518000D01*
%TO.N,/HIDRV2*%
X102610000Y-106948000D02*
X102646541Y-106948000D01*
X102646541Y-106948000D02*
X103210000Y-107511459D01*
X104131444Y-106948000D02*
X104619244Y-107435800D01*
X102610000Y-106948000D02*
X104131444Y-106948000D01*
%TO.N,/LODRV1*%
X107651541Y-106276459D02*
X108000000Y-105928000D01*
X107620000Y-106276459D02*
X107620000Y-107435800D01*
X107620000Y-106276459D02*
X107651541Y-106276459D01*
X108000000Y-105598000D02*
X108000000Y-105928000D01*
%TO.N,/LODRV2*%
X105623178Y-106692484D02*
X105619496Y-106696166D01*
X105619496Y-106696166D02*
X105619496Y-107435800D01*
D35*
%TO.N,/Converter/BOOST_HIGH*%
X101189491Y-103112686D02*
X100785000Y-103517177D01*
X100785000Y-103517177D02*
X100785000Y-106948000D01*
X101627314Y-103112686D02*
X101189491Y-103112686D01*
D32*
%TO.N,Net-(U1-FSW_SYNC)*%
X110527341Y-111637341D02*
X111320000Y-112430000D01*
X109816211Y-111637341D02*
X110527341Y-111637341D01*
D34*
%TO.N,Net-(U1-ILIM_HIZ)*%
X104022000Y-112338000D02*
X103535000Y-112825000D01*
X103535000Y-112825000D02*
X103450000Y-112910000D01*
D32*
X104360000Y-115470000D02*
X104160000Y-115670000D01*
D34*
X102770000Y-113590000D02*
X102620000Y-113590000D01*
D32*
X105270000Y-115470000D02*
X104360000Y-115470000D01*
D34*
X103535000Y-112825000D02*
X102770000Y-113590000D01*
X104619244Y-112338000D02*
X104022000Y-112338000D01*
%TO.N,Net-(U1-ICHG)*%
X105119370Y-112338000D02*
X105119370Y-112973274D01*
X105119370Y-112973274D02*
X103692644Y-114400000D01*
X103692644Y-114400000D02*
X103450000Y-114400000D01*
D32*
%TO.N,Net-(D1-K)*%
X95170000Y-99470000D02*
X94560000Y-98860000D01*
%TO.N,Net-(D2-K)*%
X83110000Y-98900000D02*
X82428055Y-98218055D01*
X82428055Y-98218055D02*
X82006746Y-98218055D01*
%TO.N,Net-(D4-K)*%
X77980000Y-98900000D02*
X77342104Y-98262104D01*
X77342104Y-98262104D02*
X77028029Y-98262104D01*
%TO.N,Net-(D3-A)*%
X84148519Y-115830000D02*
X84142500Y-115836019D01*
X84980000Y-115830000D02*
X84148519Y-115830000D01*
%TO.N,Net-(D3-K)*%
X85990000Y-114890000D02*
X86890000Y-115790000D01*
X84410000Y-114890000D02*
X85990000Y-114890000D01*
%TO.N,Net-(D6-A)*%
X74165000Y-105390000D02*
X74165000Y-105799654D01*
X74300000Y-105934654D02*
X74300000Y-106515000D01*
X74165000Y-105799654D02*
X74300000Y-105934654D01*
%TO.N,Net-(D7-K)*%
X100175000Y-99475000D02*
X100175000Y-99075000D01*
X100175000Y-99075000D02*
X99660000Y-98560000D01*
%TO.N,Net-(D7-A)*%
X100150000Y-101080542D02*
X99545747Y-100476289D01*
X100150000Y-101125000D02*
X100150000Y-101080542D01*
%TO.N,/REGN*%
X107119874Y-105138126D02*
X107670000Y-104588000D01*
X107531869Y-103538000D02*
X107531869Y-103668000D01*
X107405000Y-104341731D02*
X107670000Y-104341731D01*
X107531869Y-103668000D02*
X107531869Y-104449869D01*
X107531869Y-104449869D02*
X107670000Y-104588000D01*
X107119874Y-107435800D02*
X107119874Y-105138126D01*
%TD*%
%TA.AperFunction,Conductor*%
%TO.N,+24V*%
G36*
X122237539Y-76099685D02*
G01*
X122283294Y-76152489D01*
X122294500Y-76204000D01*
X122294500Y-77767870D01*
X122294501Y-77767876D01*
X122300908Y-77827483D01*
X122351202Y-77962328D01*
X122351206Y-77962335D01*
X122437452Y-78077544D01*
X122437455Y-78077547D01*
X122552664Y-78163793D01*
X122552671Y-78163797D01*
X122569330Y-78170010D01*
X122625265Y-78211880D01*
X122649684Y-78277343D01*
X122650000Y-78286193D01*
X122650000Y-79453806D01*
X122630315Y-79520845D01*
X122577511Y-79566600D01*
X122569337Y-79569987D01*
X122552667Y-79576204D01*
X122552663Y-79576207D01*
X122437455Y-79662452D01*
X122437452Y-79662455D01*
X122351206Y-79777664D01*
X122351202Y-79777671D01*
X122300908Y-79912517D01*
X122294501Y-79972116D01*
X122294500Y-79972135D01*
X122294500Y-81567870D01*
X122294501Y-81567876D01*
X122300908Y-81627483D01*
X122351202Y-81762328D01*
X122351206Y-81762335D01*
X122437452Y-81877544D01*
X122437455Y-81877547D01*
X122552664Y-81963793D01*
X122552671Y-81963797D01*
X122569330Y-81970010D01*
X122625265Y-82011880D01*
X122649684Y-82077343D01*
X122650000Y-82086193D01*
X122650000Y-83095894D01*
X122649358Y-83108497D01*
X122639500Y-83204983D01*
X122639500Y-84255001D01*
X122639501Y-84255017D01*
X122649358Y-84351501D01*
X122650000Y-84364103D01*
X122650000Y-96606000D01*
X122630315Y-96673039D01*
X122577511Y-96718794D01*
X122526000Y-96730000D01*
X115824000Y-96730000D01*
X115756961Y-96710315D01*
X115711206Y-96657511D01*
X115700000Y-96606000D01*
X115700000Y-88012302D01*
X115719685Y-87945263D01*
X115772489Y-87899508D01*
X115841647Y-87889564D01*
X115862997Y-87894594D01*
X115864747Y-87895174D01*
X115965823Y-87905500D01*
X116564176Y-87905499D01*
X116564184Y-87905498D01*
X116564187Y-87905498D01*
X116622825Y-87899508D01*
X116665253Y-87895174D01*
X116829016Y-87840908D01*
X116975850Y-87750340D01*
X117097840Y-87628350D01*
X117188408Y-87481516D01*
X117242674Y-87317753D01*
X117253000Y-87216677D01*
X117252999Y-86643324D01*
X117242674Y-86542247D01*
X117188408Y-86378484D01*
X117097840Y-86231650D01*
X117097839Y-86231649D01*
X117097836Y-86231644D01*
X117097230Y-86230878D01*
X117096978Y-86230253D01*
X117094048Y-86225503D01*
X117094859Y-86225002D01*
X117071093Y-86166081D01*
X117070500Y-86153972D01*
X117070500Y-86021155D01*
X117070499Y-86021153D01*
X117039738Y-85866510D01*
X117039737Y-85866503D01*
X117039735Y-85866498D01*
X116979397Y-85720827D01*
X116979390Y-85720814D01*
X116891789Y-85589711D01*
X116891786Y-85589707D01*
X116780292Y-85478213D01*
X116780288Y-85478210D01*
X116649185Y-85390609D01*
X116649172Y-85390602D01*
X116503501Y-85330264D01*
X116503489Y-85330261D01*
X116348845Y-85299500D01*
X116348842Y-85299500D01*
X116191158Y-85299500D01*
X116191155Y-85299500D01*
X116036510Y-85330261D01*
X116036498Y-85330264D01*
X115890827Y-85390602D01*
X115885446Y-85393479D01*
X115884564Y-85391830D01*
X115826208Y-85410100D01*
X115758828Y-85391612D01*
X115712141Y-85339631D01*
X115700000Y-85286120D01*
X115700000Y-80458188D01*
X115719685Y-80391149D01*
X115772489Y-80345394D01*
X115841647Y-80335450D01*
X115905203Y-80364475D01*
X115938561Y-80410736D01*
X115971376Y-80489961D01*
X115971386Y-80489979D01*
X116045301Y-80600601D01*
X116045307Y-80600609D01*
X116139390Y-80694692D01*
X116139398Y-80694698D01*
X116250020Y-80768613D01*
X116250023Y-80768614D01*
X116250031Y-80768620D01*
X116372964Y-80819540D01*
X116372968Y-80819540D01*
X116372969Y-80819541D01*
X116503466Y-80845500D01*
X116503469Y-80845500D01*
X116636533Y-80845500D01*
X116724325Y-80828035D01*
X116767036Y-80819540D01*
X116889969Y-80768620D01*
X117000606Y-80694695D01*
X117094695Y-80600606D01*
X117168620Y-80489969D01*
X117219540Y-80367036D01*
X117245500Y-80236531D01*
X117245500Y-80103469D01*
X117245500Y-80103466D01*
X117219541Y-79972969D01*
X117219540Y-79972968D01*
X117219540Y-79972964D01*
X117168620Y-79850031D01*
X117120269Y-79777669D01*
X117094698Y-79739398D01*
X117094692Y-79739390D01*
X117000609Y-79645307D01*
X117000601Y-79645301D01*
X116889979Y-79571386D01*
X116889972Y-79571382D01*
X116889969Y-79571380D01*
X116889965Y-79571378D01*
X116889961Y-79571376D01*
X116767040Y-79520461D01*
X116767030Y-79520458D01*
X116636533Y-79494500D01*
X116636531Y-79494500D01*
X116503469Y-79494500D01*
X116503467Y-79494500D01*
X116372969Y-79520458D01*
X116372959Y-79520461D01*
X116250038Y-79571376D01*
X116250020Y-79571386D01*
X116139398Y-79645301D01*
X116139390Y-79645307D01*
X116045307Y-79739390D01*
X116045301Y-79739398D01*
X115971386Y-79850020D01*
X115971378Y-79850034D01*
X115938561Y-79929264D01*
X115894720Y-79983667D01*
X115828426Y-80005732D01*
X115760727Y-79988453D01*
X115713116Y-79937316D01*
X115700000Y-79881811D01*
X115700000Y-76204000D01*
X115719685Y-76136961D01*
X115772489Y-76091206D01*
X115824000Y-76080000D01*
X122170500Y-76080000D01*
X122237539Y-76099685D01*
G37*
%TD.AperFunction*%
%TD*%
%TA.AperFunction,Conductor*%
%TO.N,OUT*%
G36*
X75964357Y-105361616D02*
G01*
X75997346Y-105367814D01*
X75997466Y-105367307D01*
X76005009Y-105369089D01*
X76005012Y-105369089D01*
X76005017Y-105369091D01*
X76064627Y-105375500D01*
X76929392Y-105375499D01*
X76931045Y-105375511D01*
X79289783Y-105409415D01*
X79356532Y-105430061D01*
X79401523Y-105483517D01*
X79412000Y-105533401D01*
X79412000Y-105722869D01*
X79412001Y-105722879D01*
X79418867Y-105786751D01*
X79418867Y-105813257D01*
X79418409Y-105817516D01*
X79418409Y-105817517D01*
X79412000Y-105877127D01*
X79412000Y-105877132D01*
X79412000Y-105877133D01*
X79412000Y-106522870D01*
X79412001Y-106522879D01*
X79418867Y-106586751D01*
X79418867Y-106613257D01*
X79418409Y-106617516D01*
X79418409Y-106617517D01*
X79412000Y-106677127D01*
X79412000Y-106677132D01*
X79412000Y-106677133D01*
X79412000Y-107322870D01*
X79412001Y-107322879D01*
X79418867Y-107386751D01*
X79418867Y-107413257D01*
X79418409Y-107417516D01*
X79418409Y-107417517D01*
X79412000Y-107477127D01*
X79412000Y-107477132D01*
X79412000Y-107477133D01*
X79412000Y-108122870D01*
X79412001Y-108122876D01*
X79418408Y-108182483D01*
X79468702Y-108317328D01*
X79468706Y-108317335D01*
X79554952Y-108432544D01*
X79554955Y-108432547D01*
X79670164Y-108518793D01*
X79670171Y-108518797D01*
X79805017Y-108569091D01*
X79805016Y-108569091D01*
X79811007Y-108569735D01*
X79864627Y-108575500D01*
X81460372Y-108575499D01*
X81519983Y-108569091D01*
X81654831Y-108518796D01*
X81713319Y-108475011D01*
X81746420Y-108450233D01*
X81811885Y-108425816D01*
X81820731Y-108425500D01*
X82497650Y-108425500D01*
X82564689Y-108445185D01*
X82566541Y-108446398D01*
X82660821Y-108509394D01*
X82660823Y-108509395D01*
X82660827Y-108509397D01*
X82804943Y-108569091D01*
X82806503Y-108569737D01*
X82961153Y-108600499D01*
X82961156Y-108600500D01*
X83120100Y-108600500D01*
X83187139Y-108620185D01*
X83232894Y-108672989D01*
X83244091Y-108726007D01*
X83211491Y-111407507D01*
X83190993Y-111474303D01*
X83137636Y-111519412D01*
X83087500Y-111530000D01*
X78093970Y-111530000D01*
X78026931Y-111510315D01*
X77990869Y-111474893D01*
X77987192Y-111469390D01*
X77893109Y-111375307D01*
X77893101Y-111375301D01*
X77782479Y-111301386D01*
X77782472Y-111301382D01*
X77782469Y-111301380D01*
X77782465Y-111301378D01*
X77782461Y-111301376D01*
X77659540Y-111250461D01*
X77659530Y-111250458D01*
X77529033Y-111224500D01*
X77529031Y-111224500D01*
X77395969Y-111224500D01*
X77395967Y-111224500D01*
X77265469Y-111250458D01*
X77265459Y-111250461D01*
X77142538Y-111301376D01*
X77142520Y-111301386D01*
X77031898Y-111375301D01*
X77031890Y-111375307D01*
X76937807Y-111469390D01*
X76934131Y-111474893D01*
X76928040Y-111479982D01*
X76924743Y-111487203D01*
X76901612Y-111502067D01*
X76880517Y-111519697D01*
X76871144Y-111521648D01*
X76865965Y-111524977D01*
X76831030Y-111530000D01*
X76607519Y-111530000D01*
X76540480Y-111510315D01*
X76519838Y-111493681D01*
X75799314Y-110773157D01*
X75765829Y-110711834D01*
X75763000Y-110686515D01*
X75750000Y-109120000D01*
X74197519Y-109120000D01*
X74168078Y-109111355D01*
X74138092Y-109104832D01*
X74133076Y-109101077D01*
X74130480Y-109100315D01*
X74109838Y-109083681D01*
X74106819Y-109080662D01*
X74073334Y-109019339D01*
X74070500Y-108992981D01*
X74070500Y-107626999D01*
X74090185Y-107559960D01*
X74142989Y-107514205D01*
X74194500Y-107502999D01*
X74586670Y-107502999D01*
X74586676Y-107502999D01*
X74687753Y-107492674D01*
X74851516Y-107438408D01*
X74998350Y-107347840D01*
X75120340Y-107225850D01*
X75210908Y-107079016D01*
X75265174Y-106915253D01*
X75275500Y-106814177D01*
X75275499Y-106215824D01*
X75265174Y-106114747D01*
X75210908Y-105950984D01*
X75120340Y-105804150D01*
X74998350Y-105682160D01*
X74998348Y-105682159D01*
X74992810Y-105677780D01*
X74984571Y-105666145D01*
X74972889Y-105657973D01*
X74964780Y-105638199D01*
X74952431Y-105620760D01*
X74951278Y-105605270D01*
X74946381Y-105593327D01*
X74947921Y-105560154D01*
X74947766Y-105558060D01*
X74947923Y-105557203D01*
X74965500Y-105468842D01*
X74965500Y-105461731D01*
X74967549Y-105450602D01*
X74978403Y-105429109D01*
X74985185Y-105406014D01*
X74993866Y-105398491D01*
X74999047Y-105388234D01*
X75019798Y-105376021D01*
X75037989Y-105360259D01*
X75051348Y-105357453D01*
X75059262Y-105352796D01*
X75071275Y-105353267D01*
X75091276Y-105349067D01*
X75964357Y-105361616D01*
G37*
%TD.AperFunction*%
%TD*%
%TA.AperFunction,Conductor*%
%TO.N,PGND*%
G36*
X85080991Y-95870185D02*
G01*
X85126746Y-95922989D01*
X85136690Y-95992147D01*
X85107665Y-96055703D01*
X85092617Y-96070353D01*
X85001893Y-96144807D01*
X84744807Y-96401893D01*
X84514150Y-96682950D01*
X84514140Y-96682964D01*
X84312151Y-96985261D01*
X84312140Y-96985279D01*
X84140756Y-97305916D01*
X84140754Y-97305921D01*
X84001612Y-97641840D01*
X83941513Y-97839957D01*
X83903216Y-97898395D01*
X83839403Y-97926852D01*
X83770336Y-97916291D01*
X83748542Y-97903227D01*
X83652335Y-97831206D01*
X83652328Y-97831202D01*
X83517482Y-97780908D01*
X83517483Y-97780908D01*
X83457883Y-97774501D01*
X83457881Y-97774500D01*
X83457873Y-97774500D01*
X83457865Y-97774500D01*
X82920454Y-97774500D01*
X82853415Y-97754815D01*
X82847211Y-97750557D01*
X82839512Y-97744921D01*
X82826788Y-97732197D01*
X82775564Y-97697970D01*
X82773368Y-97696503D01*
X82773359Y-97696496D01*
X82749692Y-97680682D01*
X82724341Y-97663743D01*
X82724338Y-97663741D01*
X82724337Y-97663741D01*
X82724336Y-97663740D01*
X82632355Y-97625641D01*
X82632349Y-97625639D01*
X82624089Y-97622218D01*
X82610507Y-97616592D01*
X82550084Y-97604573D01*
X82546917Y-97603943D01*
X82546897Y-97603938D01*
X82544905Y-97603542D01*
X82544222Y-97603259D01*
X82543753Y-97603140D01*
X82543328Y-97602888D01*
X82500219Y-97585029D01*
X82385931Y-97508664D01*
X82385918Y-97508657D01*
X82240247Y-97448319D01*
X82240235Y-97448316D01*
X82085591Y-97417555D01*
X82085588Y-97417555D01*
X81927904Y-97417555D01*
X81927901Y-97417555D01*
X81773256Y-97448316D01*
X81773244Y-97448319D01*
X81627573Y-97508657D01*
X81627560Y-97508664D01*
X81496457Y-97596265D01*
X81496453Y-97596268D01*
X81384963Y-97707759D01*
X81384955Y-97707767D01*
X81377186Y-97719395D01*
X81323572Y-97764198D01*
X81274087Y-97774500D01*
X80862129Y-97774500D01*
X80862123Y-97774501D01*
X80802515Y-97780909D01*
X80690696Y-97822614D01*
X80621005Y-97827598D01*
X80559682Y-97794112D01*
X80526197Y-97732789D01*
X80529657Y-97667433D01*
X80565174Y-97560253D01*
X80575500Y-97459177D01*
X80575499Y-96860824D01*
X80574550Y-96851538D01*
X80565174Y-96759747D01*
X80544854Y-96698426D01*
X80510908Y-96595984D01*
X80420340Y-96449150D01*
X80298350Y-96327160D01*
X80177023Y-96252325D01*
X80151518Y-96236593D01*
X80151513Y-96236591D01*
X80126221Y-96228210D01*
X79987753Y-96182326D01*
X79987751Y-96182325D01*
X79886678Y-96172000D01*
X79313330Y-96172000D01*
X79313312Y-96172001D01*
X79212247Y-96182325D01*
X79048484Y-96236592D01*
X79048481Y-96236593D01*
X78901648Y-96327161D01*
X78779661Y-96449148D01*
X78689093Y-96595981D01*
X78689091Y-96595986D01*
X78682290Y-96616510D01*
X78634826Y-96759747D01*
X78634826Y-96759748D01*
X78634825Y-96759748D01*
X78624500Y-96860815D01*
X78624500Y-97459169D01*
X78624501Y-97459187D01*
X78634825Y-97560252D01*
X78649302Y-97603938D01*
X78671751Y-97671684D01*
X78674153Y-97741512D01*
X78638422Y-97801554D01*
X78575901Y-97832747D01*
X78510712Y-97826870D01*
X78387482Y-97780908D01*
X78387483Y-97780908D01*
X78327883Y-97774501D01*
X78327881Y-97774500D01*
X78327873Y-97774500D01*
X78327865Y-97774500D01*
X77775840Y-97774500D01*
X77757695Y-97769172D01*
X77738789Y-97768835D01*
X77710572Y-97755335D01*
X77708801Y-97754815D01*
X77706951Y-97753603D01*
X77674961Y-97732228D01*
X77674934Y-97732211D01*
X77674915Y-97732198D01*
X77638390Y-97707792D01*
X77638330Y-97707767D01*
X77605533Y-97694182D01*
X77565306Y-97667303D01*
X77538318Y-97640315D01*
X77538317Y-97640314D01*
X77538316Y-97640313D01*
X77407214Y-97552713D01*
X77407201Y-97552706D01*
X77261530Y-97492368D01*
X77261518Y-97492365D01*
X77106874Y-97461604D01*
X77106871Y-97461604D01*
X76949187Y-97461604D01*
X76949184Y-97461604D01*
X76794539Y-97492365D01*
X76794527Y-97492368D01*
X76648856Y-97552706D01*
X76648843Y-97552713D01*
X76517741Y-97640313D01*
X76490754Y-97667301D01*
X76419872Y-97738182D01*
X76358552Y-97771666D01*
X76332193Y-97774500D01*
X75845256Y-97774500D01*
X75778217Y-97754815D01*
X75732462Y-97702011D01*
X75730712Y-97697993D01*
X75714026Y-97657708D01*
X75703423Y-97641840D01*
X75626421Y-97526598D01*
X75626418Y-97526594D01*
X75612287Y-97512463D01*
X75607655Y-97505531D01*
X75603417Y-97502589D01*
X75585407Y-97472236D01*
X75575500Y-97448318D01*
X75575499Y-97448316D01*
X75558947Y-97408354D01*
X75558946Y-97408353D01*
X75558944Y-97408347D01*
X75534657Y-97371999D01*
X75490490Y-97305899D01*
X75490487Y-97305895D01*
X75481818Y-97297226D01*
X75448333Y-97235903D01*
X75445499Y-97209545D01*
X75445499Y-96930830D01*
X75445498Y-96930813D01*
X75435174Y-96829747D01*
X75415759Y-96771158D01*
X75380908Y-96665984D01*
X75290340Y-96519150D01*
X75168350Y-96397160D01*
X75021516Y-96306592D01*
X74857753Y-96252326D01*
X74857751Y-96252325D01*
X74756678Y-96242000D01*
X74183330Y-96242000D01*
X74183312Y-96242001D01*
X74082247Y-96252325D01*
X73918484Y-96306592D01*
X73918481Y-96306593D01*
X73771648Y-96397161D01*
X73649661Y-96519148D01*
X73559093Y-96665981D01*
X73559091Y-96665986D01*
X73550297Y-96692525D01*
X73504826Y-96829747D01*
X73504826Y-96829748D01*
X73504825Y-96829748D01*
X73494500Y-96930815D01*
X73494500Y-97529169D01*
X73494501Y-97529187D01*
X73504825Y-97630252D01*
X73533409Y-97716510D01*
X73557848Y-97790263D01*
X73559092Y-97794015D01*
X73559093Y-97794018D01*
X73582030Y-97831204D01*
X73648033Y-97938213D01*
X73649661Y-97940851D01*
X73763629Y-98054819D01*
X73797114Y-98116142D01*
X73792130Y-98185834D01*
X73763629Y-98230181D01*
X73649661Y-98344148D01*
X73559093Y-98490981D01*
X73559091Y-98490986D01*
X73532316Y-98571789D01*
X73504826Y-98654747D01*
X73504826Y-98654748D01*
X73504825Y-98654748D01*
X73494500Y-98755815D01*
X73494500Y-99354169D01*
X73494501Y-99354187D01*
X73504825Y-99455252D01*
X73518222Y-99495679D01*
X73551217Y-99595252D01*
X73559092Y-99619015D01*
X73559093Y-99619018D01*
X73588285Y-99666345D01*
X73649660Y-99765850D01*
X73698668Y-99814858D01*
X73745185Y-99861375D01*
X73778669Y-99922699D01*
X73779120Y-99924863D01*
X73796418Y-100011824D01*
X73796420Y-100011830D01*
X73849222Y-100139307D01*
X73925887Y-100254045D01*
X73925888Y-100254046D01*
X74959662Y-101287819D01*
X74993147Y-101349142D01*
X74988163Y-101418834D01*
X74946291Y-101474767D01*
X74880827Y-101499184D01*
X74871981Y-101499500D01*
X74371005Y-101499500D01*
X74235677Y-101526418D01*
X74235667Y-101526421D01*
X74108192Y-101579222D01*
X73993454Y-101655887D01*
X72825887Y-102823454D01*
X72749222Y-102938192D01*
X72696421Y-103065667D01*
X72696418Y-103065679D01*
X72673178Y-103182517D01*
X72671386Y-103191528D01*
X72669500Y-103201007D01*
X72669500Y-109265506D01*
X72669500Y-109403494D01*
X72669500Y-109403496D01*
X72669499Y-109403496D01*
X72696418Y-109538822D01*
X72696421Y-109538832D01*
X72749222Y-109666307D01*
X72825887Y-109781045D01*
X79418954Y-116374112D01*
X79533690Y-116450776D01*
X79614649Y-116484310D01*
X79661171Y-116503580D01*
X79661172Y-116503580D01*
X79661177Y-116503582D01*
X79688045Y-116508925D01*
X79688051Y-116508926D01*
X79688091Y-116508934D01*
X79778437Y-116526905D01*
X79796506Y-116530500D01*
X79796507Y-116530500D01*
X82272948Y-116530500D01*
X82339987Y-116550185D01*
X82360629Y-116566819D01*
X82444150Y-116650340D01*
X82590984Y-116740908D01*
X82754747Y-116795174D01*
X82855823Y-116805500D01*
X83454176Y-116805499D01*
X83454184Y-116805498D01*
X83454187Y-116805498D01*
X83509530Y-116799844D01*
X83555253Y-116795174D01*
X83719016Y-116740908D01*
X83865850Y-116650340D01*
X83865856Y-116650333D01*
X83871513Y-116645862D01*
X83872912Y-116647632D01*
X83924628Y-116619380D01*
X83975202Y-116618924D01*
X84063655Y-116636519D01*
X84211576Y-116636519D01*
X84276672Y-116654979D01*
X84415984Y-116740908D01*
X84579747Y-116795174D01*
X84680823Y-116805500D01*
X85279176Y-116805499D01*
X85279184Y-116805498D01*
X85279187Y-116805498D01*
X85334530Y-116799844D01*
X85380253Y-116795174D01*
X85544016Y-116740908D01*
X85690850Y-116650340D01*
X85812840Y-116528350D01*
X85812845Y-116528340D01*
X85813252Y-116527828D01*
X85813628Y-116527561D01*
X85817947Y-116523243D01*
X85818684Y-116523980D01*
X85870273Y-116487450D01*
X85940072Y-116484310D01*
X85984832Y-116505471D01*
X86022668Y-116533795D01*
X86022671Y-116533797D01*
X86157517Y-116584091D01*
X86157516Y-116584091D01*
X86164444Y-116584835D01*
X86217127Y-116590500D01*
X87562872Y-116590499D01*
X87622483Y-116584091D01*
X87757331Y-116533796D01*
X87872546Y-116447546D01*
X87958796Y-116332331D01*
X88009091Y-116197483D01*
X88015500Y-116137873D01*
X88015499Y-115442128D01*
X88009091Y-115382517D01*
X88006473Y-115375499D01*
X87958797Y-115247671D01*
X87958793Y-115247664D01*
X87872547Y-115132455D01*
X87872544Y-115132452D01*
X87757335Y-115046206D01*
X87757328Y-115046202D01*
X87622482Y-114995908D01*
X87622483Y-114995908D01*
X87562883Y-114989501D01*
X87562881Y-114989500D01*
X87562873Y-114989500D01*
X87562865Y-114989500D01*
X87025452Y-114989500D01*
X86996011Y-114980855D01*
X86966025Y-114974332D01*
X86961009Y-114970577D01*
X86958413Y-114969815D01*
X86937771Y-114953181D01*
X86886770Y-114902180D01*
X86853285Y-114840857D01*
X86858269Y-114771165D01*
X86900141Y-114715232D01*
X86965605Y-114690815D01*
X86974451Y-114690499D01*
X87562871Y-114690499D01*
X87562872Y-114690499D01*
X87622483Y-114684091D01*
X87757331Y-114633796D01*
X87872546Y-114547546D01*
X87958796Y-114432331D01*
X88009091Y-114297483D01*
X88015500Y-114237873D01*
X88015499Y-113542128D01*
X88009091Y-113482517D01*
X88008600Y-113481201D01*
X87958797Y-113347671D01*
X87958793Y-113347664D01*
X87872547Y-113232455D01*
X87872544Y-113232452D01*
X87757335Y-113146206D01*
X87757328Y-113146202D01*
X87622482Y-113095908D01*
X87622483Y-113095908D01*
X87562883Y-113089501D01*
X87562881Y-113089500D01*
X87562873Y-113089500D01*
X87562864Y-113089500D01*
X86217129Y-113089500D01*
X86217123Y-113089501D01*
X86157516Y-113095908D01*
X86022671Y-113146202D01*
X86022664Y-113146206D01*
X85907457Y-113232451D01*
X85907451Y-113232457D01*
X85901948Y-113239809D01*
X85898291Y-113242546D01*
X85896393Y-113246703D01*
X85870575Y-113263294D01*
X85846015Y-113281681D01*
X85840385Y-113282696D01*
X85837615Y-113284477D01*
X85802680Y-113289500D01*
X85667196Y-113289500D01*
X85600157Y-113269815D01*
X85554402Y-113217011D01*
X85552635Y-113212952D01*
X85509920Y-113109828D01*
X85509913Y-113109815D01*
X85422312Y-112978712D01*
X85422309Y-112978708D01*
X85310815Y-112867214D01*
X85310811Y-112867211D01*
X85179708Y-112779610D01*
X85179695Y-112779603D01*
X85034024Y-112719265D01*
X85034012Y-112719262D01*
X84879368Y-112688501D01*
X84879365Y-112688501D01*
X84721681Y-112688501D01*
X84721678Y-112688501D01*
X84567033Y-112719262D01*
X84567021Y-112719265D01*
X84421350Y-112779603D01*
X84421337Y-112779610D01*
X84290234Y-112867211D01*
X84290230Y-112867214D01*
X84178736Y-112978708D01*
X84178733Y-112978712D01*
X84091132Y-113109815D01*
X84091125Y-113109828D01*
X84030787Y-113255499D01*
X84030784Y-113255511D01*
X84000023Y-113410154D01*
X84000023Y-113567847D01*
X84030784Y-113722490D01*
X84030787Y-113722502D01*
X84091125Y-113868173D01*
X84091132Y-113868186D01*
X84157615Y-113967684D01*
X84178493Y-114034362D01*
X84160009Y-114101742D01*
X84108030Y-114148432D01*
X84101966Y-114151136D01*
X84030824Y-114180604D01*
X84030814Y-114180609D01*
X83899711Y-114268210D01*
X83899707Y-114268213D01*
X83788213Y-114379707D01*
X83788210Y-114379711D01*
X83700609Y-114510814D01*
X83700602Y-114510827D01*
X83640264Y-114656498D01*
X83640261Y-114656508D01*
X83619962Y-114758558D01*
X83587577Y-114820469D01*
X83526861Y-114855043D01*
X83485745Y-114857724D01*
X83454191Y-114854501D01*
X83454182Y-114854500D01*
X83454177Y-114854500D01*
X83454171Y-114854500D01*
X82855830Y-114854500D01*
X82855812Y-114854501D01*
X82754747Y-114864825D01*
X82754744Y-114864826D01*
X82602019Y-114915435D01*
X82532191Y-114917837D01*
X82472149Y-114882105D01*
X82450338Y-114848119D01*
X82450320Y-114848129D01*
X82450198Y-114847902D01*
X82448455Y-114845185D01*
X82447450Y-114842759D01*
X82359847Y-114711653D01*
X82359844Y-114711649D01*
X82248350Y-114600155D01*
X82248346Y-114600152D01*
X82117243Y-114512551D01*
X82117230Y-114512544D01*
X81971559Y-114452206D01*
X81971547Y-114452203D01*
X81816903Y-114421442D01*
X81816900Y-114421442D01*
X81659216Y-114421442D01*
X81659213Y-114421442D01*
X81504568Y-114452203D01*
X81504556Y-114452206D01*
X81358885Y-114512544D01*
X81358872Y-114512551D01*
X81227769Y-114600152D01*
X81227765Y-114600155D01*
X81116271Y-114711649D01*
X81116268Y-114711653D01*
X81028667Y-114842756D01*
X81028660Y-114842769D01*
X80968322Y-114988440D01*
X80968319Y-114988450D01*
X80960116Y-115029692D01*
X80927731Y-115091603D01*
X80867015Y-115126177D01*
X80838499Y-115129500D01*
X80207019Y-115129500D01*
X80139980Y-115109815D01*
X80119338Y-115093181D01*
X77731477Y-112705320D01*
X77697992Y-112643997D01*
X77702976Y-112574305D01*
X77744848Y-112518372D01*
X77771702Y-112503079D01*
X77782469Y-112498620D01*
X77893106Y-112424695D01*
X77987195Y-112330606D01*
X78061120Y-112219969D01*
X78105822Y-112112048D01*
X78149663Y-112057644D01*
X78215957Y-112035579D01*
X78220383Y-112035500D01*
X83087492Y-112035500D01*
X83087500Y-112035500D01*
X83191951Y-112024591D01*
X83242087Y-112014003D01*
X83342017Y-111981752D01*
X83462861Y-111906153D01*
X88069500Y-111906153D01*
X88069500Y-112063846D01*
X88100261Y-112218489D01*
X88100264Y-112218501D01*
X88160602Y-112364172D01*
X88160609Y-112364185D01*
X88248210Y-112495288D01*
X88248213Y-112495292D01*
X88359707Y-112606786D01*
X88359711Y-112606789D01*
X88490814Y-112694390D01*
X88490827Y-112694397D01*
X88569976Y-112727181D01*
X88636503Y-112754737D01*
X88773266Y-112781941D01*
X88791153Y-112785499D01*
X88791156Y-112785500D01*
X88791158Y-112785500D01*
X88948844Y-112785500D01*
X88948845Y-112785499D01*
X89103497Y-112754737D01*
X89249179Y-112694394D01*
X89380289Y-112606789D01*
X89491789Y-112495289D01*
X89579394Y-112364179D01*
X89582574Y-112356503D01*
X89630636Y-112240469D01*
X89639737Y-112218497D01*
X89670500Y-112063842D01*
X89670500Y-111906158D01*
X89670500Y-111906155D01*
X89670499Y-111906153D01*
X89665417Y-111880606D01*
X89639737Y-111751503D01*
X89630518Y-111729247D01*
X89579397Y-111605827D01*
X89579390Y-111605814D01*
X89491789Y-111474711D01*
X89491786Y-111474707D01*
X89380292Y-111363213D01*
X89380288Y-111363210D01*
X89249185Y-111275609D01*
X89249172Y-111275602D01*
X89103501Y-111215264D01*
X89103489Y-111215261D01*
X88948845Y-111184500D01*
X88948842Y-111184500D01*
X88791158Y-111184500D01*
X88791155Y-111184500D01*
X88636510Y-111215261D01*
X88636498Y-111215264D01*
X88490827Y-111275602D01*
X88490814Y-111275609D01*
X88359711Y-111363210D01*
X88359707Y-111363213D01*
X88248213Y-111474707D01*
X88248210Y-111474711D01*
X88160609Y-111605814D01*
X88160602Y-111605827D01*
X88100264Y-111751498D01*
X88100261Y-111751510D01*
X88069500Y-111906153D01*
X83462861Y-111906153D01*
X83463994Y-111905444D01*
X83517351Y-111860335D01*
X83517358Y-111860329D01*
X83612894Y-111752745D01*
X83674250Y-111622602D01*
X83694748Y-111555806D01*
X83716954Y-111413652D01*
X83724326Y-110807224D01*
X83744824Y-110740429D01*
X83798180Y-110695320D01*
X83867455Y-110686218D01*
X83878120Y-110688799D01*
X83878130Y-110688757D01*
X83884745Y-110690173D01*
X83884747Y-110690174D01*
X83985823Y-110700500D01*
X84584176Y-110700499D01*
X84584184Y-110700498D01*
X84584187Y-110700498D01*
X84639530Y-110694844D01*
X84685253Y-110690174D01*
X84849016Y-110635908D01*
X84995850Y-110545340D01*
X85109819Y-110431371D01*
X85171142Y-110397886D01*
X85240834Y-110402870D01*
X85285181Y-110431371D01*
X85399150Y-110545340D01*
X85545984Y-110635908D01*
X85709747Y-110690174D01*
X85810823Y-110700500D01*
X86409176Y-110700499D01*
X86409184Y-110700498D01*
X86409187Y-110700498D01*
X86464530Y-110694844D01*
X86510253Y-110690174D01*
X86674016Y-110635908D01*
X86820850Y-110545340D01*
X86942840Y-110423350D01*
X86951442Y-110409404D01*
X87003390Y-110362679D01*
X87056981Y-110350500D01*
X91162094Y-110350500D01*
X91229133Y-110370185D01*
X91249775Y-110386819D01*
X91940775Y-111077819D01*
X91974260Y-111139142D01*
X91969276Y-111208834D01*
X91927404Y-111264767D01*
X91861940Y-111289184D01*
X91853094Y-111289500D01*
X91356233Y-111289500D01*
X91305301Y-111276743D01*
X91304807Y-111277937D01*
X91153501Y-111215264D01*
X91153489Y-111215261D01*
X90998845Y-111184500D01*
X90998842Y-111184500D01*
X90841158Y-111184500D01*
X90841155Y-111184500D01*
X90686510Y-111215261D01*
X90686498Y-111215264D01*
X90540827Y-111275602D01*
X90540814Y-111275609D01*
X90409711Y-111363210D01*
X90409707Y-111363213D01*
X90298213Y-111474707D01*
X90298210Y-111474711D01*
X90210609Y-111605814D01*
X90210602Y-111605827D01*
X90150264Y-111751498D01*
X90150261Y-111751510D01*
X90119500Y-111906153D01*
X90119500Y-112063846D01*
X90150261Y-112218489D01*
X90150264Y-112218501D01*
X90210602Y-112364172D01*
X90210609Y-112364185D01*
X90298210Y-112495288D01*
X90298213Y-112495292D01*
X90409707Y-112606786D01*
X90409711Y-112606789D01*
X90540814Y-112694390D01*
X90540827Y-112694397D01*
X90619976Y-112727181D01*
X90686503Y-112754737D01*
X90823266Y-112781941D01*
X90841153Y-112785499D01*
X90841156Y-112785500D01*
X90841158Y-112785500D01*
X90998842Y-112785500D01*
X91016733Y-112781941D01*
X91086324Y-112788167D01*
X91141502Y-112831029D01*
X91155487Y-112856105D01*
X91210606Y-112989176D01*
X91210611Y-112989185D01*
X91298212Y-113120288D01*
X91298215Y-113120292D01*
X91409709Y-113231786D01*
X91409717Y-113231792D01*
X91537030Y-113316860D01*
X91581836Y-113370472D01*
X91590543Y-113439797D01*
X91573679Y-113485058D01*
X91499095Y-113605977D01*
X91499092Y-113605984D01*
X91444826Y-113769747D01*
X91444826Y-113769748D01*
X91444825Y-113769748D01*
X91434500Y-113870815D01*
X91434500Y-114469169D01*
X91434501Y-114469187D01*
X91444825Y-114570252D01*
X91479140Y-114673806D01*
X91499092Y-114734016D01*
X91579776Y-114864826D01*
X91589661Y-114880851D01*
X91703628Y-114994818D01*
X91707965Y-115002762D01*
X91715214Y-115008188D01*
X91724450Y-115032950D01*
X91737113Y-115056141D01*
X91736467Y-115065169D01*
X91739631Y-115073652D01*
X91734014Y-115099474D01*
X91732129Y-115125833D01*
X91726311Y-115134885D01*
X91724780Y-115141925D01*
X91703629Y-115170180D01*
X91634531Y-115239279D01*
X91573208Y-115272764D01*
X91522658Y-115273215D01*
X91478846Y-115264500D01*
X91478842Y-115264500D01*
X91321158Y-115264500D01*
X91321155Y-115264500D01*
X91166510Y-115295261D01*
X91166498Y-115295264D01*
X91020827Y-115355602D01*
X91020814Y-115355609D01*
X90889711Y-115443210D01*
X90889707Y-115443213D01*
X90778213Y-115554707D01*
X90778210Y-115554711D01*
X90690609Y-115685814D01*
X90690602Y-115685827D01*
X90630264Y-115831498D01*
X90630261Y-115831510D01*
X90599500Y-115986153D01*
X90599500Y-116143846D01*
X90630261Y-116298489D01*
X90630264Y-116298501D01*
X90690602Y-116444172D01*
X90690609Y-116444185D01*
X90778210Y-116575288D01*
X90778213Y-116575292D01*
X90889707Y-116686786D01*
X90889711Y-116686789D01*
X91020814Y-116774390D01*
X91020827Y-116774397D01*
X91162232Y-116832968D01*
X91166503Y-116834737D01*
X91319610Y-116865192D01*
X91321153Y-116865499D01*
X91321156Y-116865500D01*
X91321158Y-116865500D01*
X91478844Y-116865500D01*
X91478845Y-116865499D01*
X91633497Y-116834737D01*
X91633507Y-116834732D01*
X91639328Y-116832968D01*
X91640131Y-116835617D01*
X91697733Y-116829379D01*
X91740908Y-116845887D01*
X91812364Y-116889961D01*
X91859089Y-116941909D01*
X91870312Y-117010871D01*
X91842469Y-117074953D01*
X91784400Y-117113810D01*
X91747268Y-117119500D01*
X74743751Y-117119500D01*
X74736264Y-117119274D01*
X74446205Y-117101728D01*
X74431340Y-117099923D01*
X74149201Y-117048219D01*
X74134663Y-117044635D01*
X73860832Y-116959306D01*
X73846831Y-116953997D01*
X73585263Y-116836275D01*
X73572004Y-116829316D01*
X73539764Y-116809826D01*
X73326537Y-116680926D01*
X73314217Y-116672422D01*
X73286031Y-116650340D01*
X73133067Y-116530500D01*
X73088426Y-116495526D01*
X73077218Y-116485596D01*
X72874403Y-116282781D01*
X72864473Y-116271573D01*
X72783603Y-116168350D01*
X72687573Y-116045776D01*
X72679075Y-116033465D01*
X72530680Y-115787989D01*
X72523727Y-115774743D01*
X72406000Y-115513163D01*
X72400693Y-115499167D01*
X72394630Y-115479711D01*
X72315363Y-115225335D01*
X72311780Y-115210798D01*
X72289937Y-115091603D01*
X72260075Y-114928657D01*
X72258271Y-114913794D01*
X72257568Y-114902180D01*
X72241335Y-114633797D01*
X72240726Y-114623736D01*
X72240500Y-114616249D01*
X72240500Y-98353750D01*
X72240726Y-98346263D01*
X72245139Y-98273310D01*
X72258271Y-98056201D01*
X72260076Y-98041340D01*
X72262367Y-98028842D01*
X72311780Y-97759197D01*
X72315364Y-97744663D01*
X72319239Y-97732228D01*
X72400696Y-97470822D01*
X72405998Y-97456841D01*
X72523731Y-97195249D01*
X72530676Y-97182016D01*
X72679080Y-96936526D01*
X72687567Y-96924230D01*
X72864480Y-96698417D01*
X72874395Y-96687226D01*
X73077226Y-96484395D01*
X73088417Y-96474480D01*
X73314230Y-96297567D01*
X73326526Y-96289080D01*
X73572016Y-96140676D01*
X73585249Y-96133731D01*
X73846841Y-96015998D01*
X73860822Y-96010696D01*
X74134668Y-95925362D01*
X74149197Y-95921780D01*
X74431344Y-95870075D01*
X74446201Y-95868271D01*
X74736264Y-95850726D01*
X74743751Y-95850500D01*
X74805892Y-95850500D01*
X85013952Y-95850500D01*
X85080991Y-95870185D01*
G37*
%TD.AperFunction*%
%TA.AperFunction,Conductor*%
G36*
X128123736Y-72770726D02*
G01*
X128413796Y-72788271D01*
X128428659Y-72790076D01*
X128710798Y-72841780D01*
X128725335Y-72845363D01*
X128999172Y-72930695D01*
X129013163Y-72936000D01*
X129274743Y-73053727D01*
X129287989Y-73060680D01*
X129533465Y-73209075D01*
X129545776Y-73217573D01*
X129771573Y-73394473D01*
X129782781Y-73404403D01*
X129985596Y-73607218D01*
X129995526Y-73618426D01*
X130115481Y-73771538D01*
X130172422Y-73844217D01*
X130180928Y-73856540D01*
X130329316Y-74102004D01*
X130336275Y-74115263D01*
X130453997Y-74376831D01*
X130459306Y-74390832D01*
X130544635Y-74664663D01*
X130548219Y-74679201D01*
X130599923Y-74961340D01*
X130601728Y-74976205D01*
X130619274Y-75266263D01*
X130619500Y-75273750D01*
X130619500Y-111729247D01*
X130599815Y-111796286D01*
X130547011Y-111842041D01*
X130477853Y-111851985D01*
X130414297Y-111822960D01*
X130399647Y-111807912D01*
X130255192Y-111631893D01*
X129998106Y-111374807D01*
X129717049Y-111144150D01*
X129717048Y-111144149D01*
X129717044Y-111144146D01*
X129414732Y-110942147D01*
X129414727Y-110942144D01*
X129414720Y-110942140D01*
X129094083Y-110770756D01*
X129094078Y-110770754D01*
X129048659Y-110751941D01*
X128924470Y-110700500D01*
X128758165Y-110631614D01*
X128410223Y-110526067D01*
X128410212Y-110526064D01*
X128053630Y-110455137D01*
X127781111Y-110428296D01*
X127691794Y-110419500D01*
X127328206Y-110419500D01*
X127245679Y-110427628D01*
X126966369Y-110455137D01*
X126609787Y-110526064D01*
X126609776Y-110526067D01*
X126261834Y-110631614D01*
X125925921Y-110770754D01*
X125925916Y-110770756D01*
X125605279Y-110942140D01*
X125605261Y-110942151D01*
X125302964Y-111144140D01*
X125302950Y-111144150D01*
X125021893Y-111374807D01*
X124764807Y-111631893D01*
X124534150Y-111912950D01*
X124534140Y-111912964D01*
X124332151Y-112215261D01*
X124332140Y-112215279D01*
X124160756Y-112535916D01*
X124160754Y-112535921D01*
X124021614Y-112871834D01*
X123916067Y-113219776D01*
X123916064Y-113219787D01*
X123845137Y-113576369D01*
X123820369Y-113827853D01*
X123809500Y-113938206D01*
X123809500Y-114301794D01*
X123814185Y-114349359D01*
X123845137Y-114663630D01*
X123916064Y-115020212D01*
X123916067Y-115020223D01*
X124021614Y-115368165D01*
X124086034Y-115523689D01*
X124159469Y-115700977D01*
X124160754Y-115704078D01*
X124160756Y-115704083D01*
X124332140Y-116024720D01*
X124332151Y-116024738D01*
X124534140Y-116327035D01*
X124534150Y-116327049D01*
X124764807Y-116608106D01*
X125021893Y-116865192D01*
X125063876Y-116899647D01*
X125103210Y-116957393D01*
X125105081Y-117027238D01*
X125068893Y-117087006D01*
X125006137Y-117117722D01*
X124985211Y-117119500D01*
X100756520Y-117119500D01*
X100725070Y-117110265D01*
X100693292Y-117102169D01*
X100691707Y-117100468D01*
X100689481Y-117099815D01*
X100668023Y-117075051D01*
X100645660Y-117051052D01*
X100645246Y-117048765D01*
X100643726Y-117047011D01*
X100639059Y-117014560D01*
X100633225Y-116982298D01*
X100634112Y-116980152D01*
X100633782Y-116977853D01*
X100647403Y-116948026D01*
X100659935Y-116917735D01*
X100662115Y-116915812D01*
X100662807Y-116914297D01*
X100685756Y-116893674D01*
X100688537Y-116891740D01*
X100808350Y-116817840D01*
X100839040Y-116787149D01*
X100848125Y-116780836D01*
X100871192Y-116773147D01*
X100892527Y-116761497D01*
X100906522Y-116761371D01*
X100914410Y-116758743D01*
X100924111Y-116761214D01*
X100943078Y-116761045D01*
X101003919Y-116773147D01*
X101091155Y-116790500D01*
X101091158Y-116790500D01*
X101248844Y-116790500D01*
X101248845Y-116790499D01*
X101403497Y-116759737D01*
X101549179Y-116699394D01*
X101680289Y-116611789D01*
X101791789Y-116500289D01*
X101879394Y-116369179D01*
X101879682Y-116368485D01*
X101896997Y-116326681D01*
X101939737Y-116223497D01*
X101970500Y-116068842D01*
X101970500Y-115911158D01*
X101970500Y-115911155D01*
X101970499Y-115911153D01*
X101959877Y-115857753D01*
X101939737Y-115756503D01*
X101921442Y-115712335D01*
X101879397Y-115610827D01*
X101879390Y-115610814D01*
X101791789Y-115479711D01*
X101791786Y-115479707D01*
X101680292Y-115368213D01*
X101680288Y-115368210D01*
X101549185Y-115280609D01*
X101549172Y-115280602D01*
X101403501Y-115220264D01*
X101403489Y-115220261D01*
X101248845Y-115189500D01*
X101248842Y-115189500D01*
X101091158Y-115189500D01*
X101091155Y-115189500D01*
X100951421Y-115217295D01*
X100943514Y-115216587D01*
X100936076Y-115219362D01*
X100909212Y-115213518D01*
X100881830Y-115211068D01*
X100873820Y-115205819D01*
X100867803Y-115204510D01*
X100839549Y-115183359D01*
X100816371Y-115160181D01*
X100782886Y-115098858D01*
X100787870Y-115029166D01*
X100816371Y-114984819D01*
X100872531Y-114928659D01*
X100930340Y-114870850D01*
X101020908Y-114724016D01*
X101075174Y-114560253D01*
X101085500Y-114459177D01*
X101085499Y-113860824D01*
X101081686Y-113823501D01*
X101075174Y-113759747D01*
X101020908Y-113595984D01*
X101020904Y-113595978D01*
X101020903Y-113595975D01*
X100950109Y-113481201D01*
X100931668Y-113413809D01*
X100934029Y-113391918D01*
X100952434Y-113299394D01*
X100960500Y-113258844D01*
X100960500Y-113101155D01*
X100960499Y-113101153D01*
X100956042Y-113078746D01*
X100929737Y-112946503D01*
X100920208Y-112923497D01*
X100869397Y-112800827D01*
X100869390Y-112800814D01*
X100807635Y-112708391D01*
X100786757Y-112641713D01*
X100805242Y-112574333D01*
X100857221Y-112527643D01*
X100910737Y-112515500D01*
X102695902Y-112515500D01*
X102717147Y-112521738D01*
X102739236Y-112523318D01*
X102750019Y-112531390D01*
X102762941Y-112535185D01*
X102777440Y-112551918D01*
X102795169Y-112565190D01*
X102799876Y-112577810D01*
X102808696Y-112587989D01*
X102811847Y-112609906D01*
X102819586Y-112630654D01*
X102816723Y-112643814D01*
X102818640Y-112657147D01*
X102809440Y-112677290D01*
X102804734Y-112698927D01*
X102791465Y-112716652D01*
X102789615Y-112720703D01*
X102783583Y-112727181D01*
X102757583Y-112753181D01*
X102696260Y-112786666D01*
X102669902Y-112789500D01*
X102541155Y-112789500D01*
X102386510Y-112820261D01*
X102386498Y-112820264D01*
X102240827Y-112880602D01*
X102240814Y-112880609D01*
X102109711Y-112968210D01*
X102109707Y-112968213D01*
X101998213Y-113079707D01*
X101998210Y-113079711D01*
X101910609Y-113210814D01*
X101910602Y-113210827D01*
X101850264Y-113356498D01*
X101850261Y-113356510D01*
X101819500Y-113511153D01*
X101819500Y-113668846D01*
X101850261Y-113823489D01*
X101850264Y-113823501D01*
X101910602Y-113969172D01*
X101910609Y-113969185D01*
X101998210Y-114100288D01*
X101998213Y-114100292D01*
X102109707Y-114211786D01*
X102109711Y-114211789D01*
X102240814Y-114299390D01*
X102240818Y-114299392D01*
X102240821Y-114299394D01*
X102385456Y-114359303D01*
X102439855Y-114403141D01*
X102461921Y-114469435D01*
X102462000Y-114473861D01*
X102462000Y-114686668D01*
X102462001Y-114686687D01*
X102472325Y-114787752D01*
X102499862Y-114870850D01*
X102526592Y-114951516D01*
X102617160Y-115098350D01*
X102739150Y-115220340D01*
X102885984Y-115310908D01*
X103049747Y-115365174D01*
X103150823Y-115375500D01*
X103251303Y-115375499D01*
X103318340Y-115395183D01*
X103364096Y-115447986D01*
X103374040Y-115517145D01*
X103372920Y-115523689D01*
X103359500Y-115591158D01*
X103359500Y-115748846D01*
X103390261Y-115903489D01*
X103390264Y-115903501D01*
X103450602Y-116049172D01*
X103450609Y-116049185D01*
X103538210Y-116180288D01*
X103538213Y-116180292D01*
X103649707Y-116291786D01*
X103649711Y-116291789D01*
X103780814Y-116379390D01*
X103780827Y-116379397D01*
X103915484Y-116435173D01*
X103926503Y-116439737D01*
X104081153Y-116470499D01*
X104081156Y-116470500D01*
X104081158Y-116470500D01*
X104238844Y-116470500D01*
X104238845Y-116470499D01*
X104393497Y-116439737D01*
X104539179Y-116379394D01*
X104551854Y-116370924D01*
X104618528Y-116350044D01*
X104685842Y-116368484D01*
X104705984Y-116380908D01*
X104869747Y-116435174D01*
X104970823Y-116445500D01*
X105569176Y-116445499D01*
X105569184Y-116445498D01*
X105569187Y-116445498D01*
X105625603Y-116439735D01*
X105670253Y-116435174D01*
X105834016Y-116380908D01*
X105980850Y-116290340D01*
X106102840Y-116168350D01*
X106193408Y-116021516D01*
X106247674Y-115857753D01*
X106258000Y-115756677D01*
X106257999Y-115183324D01*
X106256656Y-115170180D01*
X106247674Y-115082247D01*
X106230259Y-115029692D01*
X106193408Y-114918484D01*
X106125174Y-114807859D01*
X106106735Y-114740470D01*
X106127657Y-114673806D01*
X106181299Y-114629036D01*
X106206521Y-114621148D01*
X106218316Y-114618802D01*
X106363998Y-114558459D01*
X106474170Y-114484843D01*
X106540845Y-114463967D01*
X106608225Y-114482451D01*
X106611950Y-114484845D01*
X106713133Y-114552454D01*
X106713146Y-114552461D01*
X106858817Y-114612799D01*
X106858822Y-114612801D01*
X106984203Y-114637741D01*
X107013472Y-114643563D01*
X107013475Y-114643564D01*
X107013477Y-114643564D01*
X107171163Y-114643564D01*
X107171164Y-114643563D01*
X107325816Y-114612801D01*
X107471498Y-114552458D01*
X107492743Y-114538261D01*
X107559417Y-114517383D01*
X107609086Y-114526801D01*
X107656480Y-114546433D01*
X107811130Y-114577195D01*
X107811133Y-114577196D01*
X107811135Y-114577196D01*
X107968821Y-114577196D01*
X107968822Y-114577195D01*
X108123474Y-114546433D01*
X108176427Y-114524498D01*
X108245895Y-114517030D01*
X108292771Y-114535959D01*
X108308743Y-114546631D01*
X108308745Y-114546632D01*
X108308751Y-114546636D01*
X108308753Y-114546637D01*
X108308757Y-114546639D01*
X108437951Y-114600152D01*
X108454433Y-114606979D01*
X108609083Y-114637741D01*
X108609086Y-114637742D01*
X108609088Y-114637742D01*
X108766774Y-114637742D01*
X108766775Y-114637741D01*
X108921427Y-114606979D01*
X109067109Y-114546636D01*
X109198219Y-114459031D01*
X109274407Y-114382842D01*
X109335728Y-114349359D01*
X109386278Y-114348908D01*
X109400639Y-114351764D01*
X109400643Y-114351765D01*
X109400644Y-114351765D01*
X110605343Y-114351765D01*
X110605343Y-114351764D01*
X110686168Y-114335688D01*
X110726187Y-114327728D01*
X110781260Y-114304916D01*
X110840021Y-114280577D01*
X110906771Y-114235975D01*
X110942468Y-114212123D01*
X111029593Y-114124998D01*
X111029594Y-114124996D01*
X111036660Y-114117930D01*
X111036663Y-114117926D01*
X111110961Y-114043627D01*
X111110969Y-114043621D01*
X111118029Y-114036560D01*
X111118032Y-114036559D01*
X111171892Y-113982697D01*
X111190672Y-113967285D01*
X111229588Y-113941284D01*
X111341088Y-113829784D01*
X111428693Y-113698674D01*
X111466192Y-113608142D01*
X111510031Y-113553741D01*
X111576325Y-113531675D01*
X111644024Y-113548953D01*
X111668433Y-113567915D01*
X111722206Y-113621688D01*
X111722210Y-113621691D01*
X111853313Y-113709292D01*
X111853326Y-113709299D01*
X111975120Y-113759747D01*
X111999002Y-113769639D01*
X112026724Y-113775153D01*
X112064113Y-113782591D01*
X112126024Y-113814976D01*
X112160598Y-113875692D01*
X112156859Y-113945461D01*
X112115992Y-114002133D01*
X112083257Y-114020389D01*
X112067673Y-114026201D01*
X112067664Y-114026206D01*
X111952455Y-114112452D01*
X111952452Y-114112455D01*
X111866206Y-114227664D01*
X111866202Y-114227671D01*
X111815908Y-114362517D01*
X111809501Y-114422116D01*
X111809500Y-114422135D01*
X111809500Y-115517870D01*
X111809501Y-115517876D01*
X111815908Y-115577483D01*
X111866202Y-115712328D01*
X111866206Y-115712335D01*
X111952452Y-115827544D01*
X111952455Y-115827547D01*
X112067664Y-115913793D01*
X112067671Y-115913797D01*
X112202517Y-115964091D01*
X112202516Y-115964091D01*
X112209444Y-115964835D01*
X112262127Y-115970500D01*
X113357872Y-115970499D01*
X113417483Y-115964091D01*
X113552331Y-115913796D01*
X113667546Y-115827546D01*
X113753796Y-115712331D01*
X113758031Y-115700974D01*
X113799898Y-115645042D01*
X113865362Y-115620621D01*
X113921665Y-115629743D01*
X114066503Y-115689737D01*
X114221153Y-115720499D01*
X114221156Y-115720500D01*
X114221158Y-115720500D01*
X114378844Y-115720500D01*
X114378845Y-115720499D01*
X114533497Y-115689737D01*
X114679179Y-115629394D01*
X114810289Y-115541789D01*
X114921789Y-115430289D01*
X115009394Y-115299179D01*
X115014737Y-115286281D01*
X115034797Y-115237851D01*
X115069737Y-115153497D01*
X115100500Y-114998842D01*
X115100500Y-114841158D01*
X115100500Y-114841155D01*
X115100499Y-114841153D01*
X115077198Y-114724013D01*
X115069737Y-114686503D01*
X115045934Y-114629036D01*
X115009397Y-114540827D01*
X115009390Y-114540814D01*
X114921789Y-114409711D01*
X114921786Y-114409707D01*
X114810292Y-114298213D01*
X114810288Y-114298210D01*
X114679185Y-114210609D01*
X114679172Y-114210602D01*
X114533501Y-114150264D01*
X114533489Y-114150261D01*
X114378845Y-114119500D01*
X114378842Y-114119500D01*
X114221158Y-114119500D01*
X114221155Y-114119500D01*
X114066510Y-114150261D01*
X114066498Y-114150264D01*
X113920827Y-114210602D01*
X113920813Y-114210610D01*
X113898691Y-114225391D01*
X113832013Y-114246267D01*
X113764633Y-114227781D01*
X113730537Y-114196598D01*
X113667547Y-114112455D01*
X113667544Y-114112452D01*
X113552335Y-114026206D01*
X113552328Y-114026202D01*
X113417482Y-113975908D01*
X113417483Y-113975908D01*
X113357883Y-113969501D01*
X113357881Y-113969500D01*
X113357873Y-113969500D01*
X113357865Y-113969500D01*
X112606878Y-113969500D01*
X112539839Y-113949815D01*
X112494084Y-113897011D01*
X112484140Y-113827853D01*
X112513165Y-113764297D01*
X112559424Y-113730940D01*
X112611678Y-113709296D01*
X112742788Y-113621691D01*
X112854288Y-113510191D01*
X112941893Y-113379081D01*
X112949906Y-113359737D01*
X112966616Y-113319394D01*
X113002236Y-113233399D01*
X113032999Y-113078744D01*
X113032999Y-112921060D01*
X113032999Y-112921057D01*
X113032998Y-112921055D01*
X113021152Y-112861503D01*
X113002236Y-112766405D01*
X112999058Y-112758733D01*
X112941896Y-112620729D01*
X112941889Y-112620716D01*
X112854288Y-112489613D01*
X112854285Y-112489609D01*
X112742791Y-112378115D01*
X112742787Y-112378112D01*
X112611684Y-112290511D01*
X112611671Y-112290504D01*
X112466000Y-112230166D01*
X112465990Y-112230163D01*
X112403632Y-112217759D01*
X112388216Y-112209695D01*
X112371129Y-112206422D01*
X112357898Y-112193835D01*
X112341721Y-112185373D01*
X112332956Y-112170107D01*
X112320507Y-112158264D01*
X112313193Y-112135685D01*
X112307353Y-112125513D01*
X112305333Y-112117229D01*
X112297674Y-112042247D01*
X112257483Y-111920960D01*
X112256295Y-111916086D01*
X112257693Y-111886001D01*
X112256658Y-111855891D01*
X112259300Y-111851451D01*
X112259540Y-111846291D01*
X112276983Y-111821736D01*
X112292389Y-111795849D01*
X112297012Y-111793542D01*
X112300004Y-111789331D01*
X112327954Y-111778104D01*
X112354910Y-111764656D01*
X112363291Y-111763911D01*
X112364839Y-111763290D01*
X112366566Y-111763620D01*
X112376766Y-111762715D01*
X114459392Y-111762715D01*
X114519814Y-111750696D01*
X114580237Y-111738678D01*
X114628236Y-111718796D01*
X114694071Y-111691527D01*
X114768781Y-111641606D01*
X114796518Y-111623073D01*
X114883643Y-111535948D01*
X114883644Y-111535946D01*
X114890710Y-111528880D01*
X114890712Y-111528876D01*
X115526921Y-110892667D01*
X115588243Y-110859184D01*
X115657935Y-110864168D01*
X115679691Y-110874808D01*
X115758484Y-110923408D01*
X115922247Y-110977674D01*
X116023323Y-110988000D01*
X116596676Y-110987999D01*
X116596684Y-110987998D01*
X116596687Y-110987998D01*
X116620165Y-110985599D01*
X116697753Y-110977674D01*
X116743148Y-110962630D01*
X116812976Y-110960228D01*
X116873018Y-110995959D01*
X116894926Y-111032990D01*
X116896040Y-111032471D01*
X116899090Y-111039012D01*
X116899091Y-111039013D01*
X116899092Y-111039016D01*
X116989660Y-111185850D01*
X116989661Y-111185851D01*
X117013908Y-111210098D01*
X117047393Y-111271421D01*
X117042409Y-111341113D01*
X117040794Y-111345217D01*
X117040266Y-111346491D01*
X117040261Y-111346505D01*
X117009500Y-111501153D01*
X117009500Y-111658846D01*
X117040261Y-111813489D01*
X117040264Y-111813501D01*
X117100602Y-111959172D01*
X117100609Y-111959185D01*
X117188210Y-112090288D01*
X117190365Y-112092914D01*
X117191063Y-112094558D01*
X117191595Y-112095354D01*
X117191444Y-112095454D01*
X117217677Y-112157224D01*
X117205886Y-112226091D01*
X117197613Y-112240469D01*
X117150609Y-112310814D01*
X117150602Y-112310827D01*
X117090264Y-112456498D01*
X117090261Y-112456510D01*
X117059500Y-112611153D01*
X117059500Y-112768846D01*
X117090261Y-112923489D01*
X117090264Y-112923501D01*
X117150602Y-113069172D01*
X117150609Y-113069185D01*
X117238210Y-113200288D01*
X117238213Y-113200292D01*
X117349707Y-113311786D01*
X117349711Y-113311789D01*
X117480814Y-113399390D01*
X117480827Y-113399397D01*
X117625086Y-113459150D01*
X117626503Y-113459737D01*
X117781153Y-113490499D01*
X117781156Y-113490500D01*
X117781158Y-113490500D01*
X117938844Y-113490500D01*
X117938845Y-113490499D01*
X118093497Y-113459737D01*
X118239179Y-113399394D01*
X118370289Y-113311789D01*
X118481789Y-113200289D01*
X118569394Y-113069179D01*
X118629737Y-112923497D01*
X118660500Y-112768842D01*
X118660500Y-112611158D01*
X118660500Y-112611155D01*
X118644209Y-112529258D01*
X118644209Y-112529257D01*
X118640608Y-112511153D01*
X120519500Y-112511153D01*
X120519500Y-112668846D01*
X120550261Y-112823489D01*
X120550264Y-112823501D01*
X120610602Y-112969172D01*
X120610609Y-112969185D01*
X120698210Y-113100288D01*
X120698213Y-113100292D01*
X120809707Y-113211786D01*
X120809711Y-113211789D01*
X120940814Y-113299390D01*
X120940827Y-113299397D01*
X121078683Y-113356498D01*
X121086503Y-113359737D01*
X121241153Y-113390499D01*
X121241156Y-113390500D01*
X121241158Y-113390500D01*
X121398844Y-113390500D01*
X121398845Y-113390499D01*
X121553497Y-113359737D01*
X121699179Y-113299394D01*
X121830289Y-113211789D01*
X121941789Y-113100289D01*
X122029394Y-112969179D01*
X122089737Y-112823497D01*
X122120500Y-112668842D01*
X122120500Y-112511158D01*
X122120500Y-112511155D01*
X122120499Y-112511153D01*
X122103301Y-112424692D01*
X122089737Y-112356503D01*
X122089735Y-112356498D01*
X122029397Y-112210827D01*
X122029390Y-112210814D01*
X121941789Y-112079711D01*
X121941786Y-112079707D01*
X121830292Y-111968213D01*
X121830288Y-111968210D01*
X121699185Y-111880609D01*
X121699172Y-111880602D01*
X121553501Y-111820264D01*
X121553489Y-111820261D01*
X121398845Y-111789500D01*
X121398842Y-111789500D01*
X121241158Y-111789500D01*
X121241155Y-111789500D01*
X121086510Y-111820261D01*
X121086498Y-111820264D01*
X120940827Y-111880602D01*
X120940814Y-111880609D01*
X120809711Y-111968210D01*
X120809707Y-111968213D01*
X120698213Y-112079707D01*
X120698210Y-112079711D01*
X120610609Y-112210814D01*
X120610602Y-112210827D01*
X120550264Y-112356498D01*
X120550261Y-112356510D01*
X120519500Y-112511153D01*
X118640608Y-112511153D01*
X118629738Y-112456510D01*
X118629737Y-112456503D01*
X118591498Y-112364185D01*
X118569397Y-112310827D01*
X118569390Y-112310814D01*
X118481788Y-112179709D01*
X118479636Y-112177087D01*
X118478938Y-112175443D01*
X118478405Y-112174646D01*
X118478556Y-112174544D01*
X118452322Y-112112777D01*
X118464112Y-112043910D01*
X118472383Y-112029535D01*
X118519394Y-111959179D01*
X118579737Y-111813497D01*
X118610500Y-111658842D01*
X118610500Y-111501158D01*
X118610500Y-111501155D01*
X118610499Y-111501153D01*
X118579739Y-111346511D01*
X118579738Y-111346508D01*
X118579737Y-111346505D01*
X118579737Y-111346503D01*
X118579211Y-111345234D01*
X118579134Y-111344518D01*
X118577970Y-111340680D01*
X118578697Y-111340459D01*
X118571740Y-111275769D01*
X118603013Y-111213288D01*
X118606073Y-111210116D01*
X118630340Y-111185850D01*
X118720908Y-111039016D01*
X118775174Y-110875253D01*
X118785500Y-110774177D01*
X118785499Y-110499449D01*
X118805183Y-110432412D01*
X118857987Y-110386657D01*
X118927146Y-110376713D01*
X118990701Y-110405738D01*
X118997180Y-110411770D01*
X119653277Y-111067867D01*
X119677408Y-111103979D01*
X119677734Y-111103806D01*
X119679499Y-111107109D01*
X119680155Y-111108090D01*
X119680606Y-111109179D01*
X119680607Y-111109181D01*
X119768207Y-111240284D01*
X119768213Y-111240292D01*
X119879707Y-111351786D01*
X119879711Y-111351789D01*
X120010814Y-111439390D01*
X120010827Y-111439397D01*
X120096084Y-111474711D01*
X120156503Y-111499737D01*
X120302974Y-111528872D01*
X120311153Y-111530499D01*
X120311156Y-111530500D01*
X120311158Y-111530500D01*
X120468844Y-111530500D01*
X120468845Y-111530499D01*
X120623497Y-111499737D01*
X120769179Y-111439394D01*
X120900289Y-111351789D01*
X121011789Y-111240289D01*
X121099394Y-111109179D01*
X121100252Y-111107109D01*
X121146291Y-110995959D01*
X121159737Y-110963497D01*
X121190500Y-110808842D01*
X121190500Y-110751941D01*
X121210185Y-110684902D01*
X121262989Y-110639147D01*
X121332147Y-110629203D01*
X121395703Y-110658228D01*
X121398165Y-110660521D01*
X121399711Y-110661789D01*
X121530814Y-110749390D01*
X121530827Y-110749397D01*
X121670438Y-110807225D01*
X121676503Y-110809737D01*
X121792649Y-110832840D01*
X121831153Y-110840499D01*
X121831156Y-110840500D01*
X121831158Y-110840500D01*
X121988844Y-110840500D01*
X121988845Y-110840499D01*
X122143497Y-110809737D01*
X122289179Y-110749394D01*
X122420289Y-110661789D01*
X122531789Y-110550289D01*
X122619394Y-110419179D01*
X122679737Y-110273497D01*
X122710500Y-110118842D01*
X122710500Y-109961158D01*
X122710500Y-109961155D01*
X122710499Y-109961153D01*
X122680773Y-109811713D01*
X122679737Y-109806503D01*
X122638100Y-109705981D01*
X122619397Y-109660827D01*
X122619390Y-109660814D01*
X122531789Y-109529711D01*
X122531786Y-109529707D01*
X122420292Y-109418213D01*
X122420288Y-109418210D01*
X122289185Y-109330609D01*
X122289172Y-109330602D01*
X122143501Y-109270264D01*
X122143489Y-109270261D01*
X121988845Y-109239500D01*
X121988842Y-109239500D01*
X121831158Y-109239500D01*
X121831155Y-109239500D01*
X121676510Y-109270261D01*
X121676498Y-109270264D01*
X121530827Y-109330602D01*
X121530814Y-109330609D01*
X121399711Y-109418210D01*
X121399707Y-109418213D01*
X121288213Y-109529707D01*
X121288210Y-109529711D01*
X121200609Y-109660814D01*
X121200602Y-109660827D01*
X121140264Y-109806498D01*
X121140261Y-109806510D01*
X121109500Y-109961153D01*
X121109500Y-110018059D01*
X121089815Y-110085098D01*
X121037011Y-110130853D01*
X120967853Y-110140797D01*
X120904297Y-110111772D01*
X120901834Y-110109478D01*
X120900288Y-110108210D01*
X120769185Y-110020609D01*
X120769172Y-110020602D01*
X120623501Y-109960264D01*
X120623489Y-109960261D01*
X120468845Y-109929500D01*
X120468842Y-109929500D01*
X120335452Y-109929500D01*
X120268413Y-109909815D01*
X120247771Y-109893181D01*
X120060571Y-109705981D01*
X120027086Y-109644658D01*
X120032070Y-109574966D01*
X120060571Y-109530619D01*
X120091510Y-109499680D01*
X120130340Y-109460850D01*
X120220908Y-109314016D01*
X120275174Y-109150253D01*
X120285500Y-109049177D01*
X120285499Y-108450824D01*
X120281408Y-108410779D01*
X120275174Y-108349747D01*
X120272839Y-108342700D01*
X120220908Y-108185984D01*
X120216706Y-108179172D01*
X120205923Y-108161689D01*
X120187483Y-108094297D01*
X120208406Y-108027633D01*
X120262048Y-107982864D01*
X120331379Y-107974203D01*
X120350451Y-107978883D01*
X120422247Y-108002674D01*
X120523323Y-108013000D01*
X121096676Y-108012999D01*
X121096684Y-108012998D01*
X121096687Y-108012998D01*
X121152030Y-108007344D01*
X121197753Y-108002674D01*
X121361516Y-107948408D01*
X121494903Y-107866133D01*
X121562295Y-107847693D01*
X121625096Y-107866133D01*
X121647151Y-107879737D01*
X121758475Y-107948403D01*
X121758478Y-107948404D01*
X121758484Y-107948408D01*
X121922247Y-108002674D01*
X122023323Y-108013000D01*
X122596676Y-108012999D01*
X122596684Y-108012998D01*
X122596687Y-108012998D01*
X122652030Y-108007344D01*
X122697753Y-108002674D01*
X122861516Y-107948408D01*
X123008350Y-107857840D01*
X123130340Y-107735850D01*
X123220908Y-107589016D01*
X123275174Y-107425253D01*
X123285500Y-107324177D01*
X123285499Y-107031153D01*
X124059500Y-107031153D01*
X124059500Y-107188846D01*
X124090261Y-107343489D01*
X124090264Y-107343501D01*
X124150602Y-107489172D01*
X124150609Y-107489185D01*
X124238210Y-107620288D01*
X124238213Y-107620292D01*
X124349707Y-107731786D01*
X124349711Y-107731789D01*
X124480814Y-107819390D01*
X124480827Y-107819397D01*
X124624342Y-107878842D01*
X124626503Y-107879737D01*
X124768605Y-107908003D01*
X124781153Y-107910499D01*
X124781156Y-107910500D01*
X124781158Y-107910500D01*
X124938844Y-107910500D01*
X124938845Y-107910499D01*
X125093497Y-107879737D01*
X125239179Y-107819394D01*
X125370289Y-107731789D01*
X125481789Y-107620289D01*
X125569394Y-107489179D01*
X125629737Y-107343497D01*
X125660500Y-107188842D01*
X125660500Y-107031158D01*
X125660500Y-107031155D01*
X125660499Y-107031153D01*
X125640148Y-106928842D01*
X125629737Y-106876503D01*
X125605592Y-106818211D01*
X125569397Y-106730827D01*
X125569390Y-106730814D01*
X125481789Y-106599711D01*
X125481786Y-106599707D01*
X125370292Y-106488213D01*
X125370288Y-106488210D01*
X125239185Y-106400609D01*
X125239172Y-106400602D01*
X125093501Y-106340264D01*
X125093489Y-106340261D01*
X124938845Y-106309500D01*
X124938842Y-106309500D01*
X124781158Y-106309500D01*
X124781155Y-106309500D01*
X124626510Y-106340261D01*
X124626498Y-106340264D01*
X124480827Y-106400602D01*
X124480814Y-106400609D01*
X124349711Y-106488210D01*
X124349707Y-106488213D01*
X124238213Y-106599707D01*
X124238210Y-106599711D01*
X124150609Y-106730814D01*
X124150602Y-106730827D01*
X124090264Y-106876498D01*
X124090261Y-106876510D01*
X124059500Y-107031153D01*
X123285499Y-107031153D01*
X123285499Y-106939711D01*
X123285499Y-106625830D01*
X123285498Y-106625812D01*
X123275174Y-106524747D01*
X123258693Y-106475011D01*
X123220908Y-106360984D01*
X123130340Y-106214150D01*
X123008350Y-106092160D01*
X122894520Y-106021949D01*
X122861518Y-106001593D01*
X122861513Y-106001591D01*
X122818983Y-105987498D01*
X122697753Y-105947326D01*
X122697751Y-105947325D01*
X122596678Y-105937000D01*
X122023330Y-105937000D01*
X122023312Y-105937001D01*
X121922247Y-105947325D01*
X121758484Y-106001592D01*
X121758481Y-106001593D01*
X121694859Y-106040836D01*
X121638745Y-106075448D01*
X121625097Y-106083866D01*
X121557704Y-106102306D01*
X121494903Y-106083866D01*
X121481255Y-106075448D01*
X121419069Y-106037091D01*
X121361518Y-106001593D01*
X121361513Y-106001591D01*
X121318983Y-105987498D01*
X121197753Y-105947326D01*
X121197751Y-105947325D01*
X121096678Y-105937000D01*
X120523330Y-105937000D01*
X120523312Y-105937001D01*
X120422247Y-105947325D01*
X120422244Y-105947326D01*
X120308265Y-105985096D01*
X120238437Y-105987498D01*
X120178395Y-105951766D01*
X120147202Y-105889246D01*
X120147645Y-105843194D01*
X120150500Y-105828844D01*
X120150500Y-105671155D01*
X120150499Y-105671153D01*
X120148045Y-105658814D01*
X120119737Y-105516503D01*
X120112449Y-105498908D01*
X120059397Y-105370827D01*
X120059390Y-105370814D01*
X119971789Y-105239711D01*
X119971786Y-105239707D01*
X119860292Y-105128213D01*
X119860288Y-105128210D01*
X119729185Y-105040609D01*
X119729172Y-105040602D01*
X119583501Y-104980264D01*
X119583489Y-104980261D01*
X119428845Y-104949500D01*
X119428842Y-104949500D01*
X119271158Y-104949500D01*
X119271155Y-104949500D01*
X119116510Y-104980261D01*
X119116498Y-104980264D01*
X118970827Y-105040602D01*
X118970814Y-105040609D01*
X118839711Y-105128210D01*
X118839707Y-105128213D01*
X118728213Y-105239707D01*
X118728210Y-105239711D01*
X118640609Y-105370814D01*
X118640602Y-105370827D01*
X118580264Y-105516498D01*
X118580261Y-105516510D01*
X118549500Y-105671153D01*
X118549500Y-105828846D01*
X118580260Y-105983488D01*
X118580262Y-105983494D01*
X118580263Y-105983497D01*
X118589576Y-106005981D01*
X118591293Y-106021949D01*
X118597868Y-106036604D01*
X118594951Y-106055972D01*
X118597045Y-106075448D01*
X118589737Y-106090591D01*
X118587463Y-106105694D01*
X118571286Y-106128829D01*
X118568184Y-106135258D01*
X118565529Y-106138280D01*
X118489660Y-106214150D01*
X118467867Y-106249481D01*
X118460978Y-106257326D01*
X118439925Y-106270657D01*
X118421400Y-106287321D01*
X118409254Y-106290081D01*
X118401950Y-106294707D01*
X118389270Y-106294622D01*
X118367809Y-106299500D01*
X117123388Y-106299500D01*
X117094517Y-106305243D01*
X117094513Y-106305244D01*
X117075687Y-106308988D01*
X117006095Y-106302758D01*
X116950920Y-106259893D01*
X116927678Y-106194002D01*
X116927500Y-106187370D01*
X116927500Y-105411607D01*
X116947185Y-105344568D01*
X116963819Y-105323926D01*
X117058427Y-105229318D01*
X117119750Y-105195833D01*
X117146108Y-105192999D01*
X117570180Y-105192999D01*
X117570186Y-105192999D01*
X117671263Y-105182674D01*
X117835026Y-105128408D01*
X117981860Y-105037840D01*
X118103850Y-104915850D01*
X118194418Y-104769016D01*
X118248684Y-104605253D01*
X118259010Y-104504177D01*
X118259009Y-103805824D01*
X118258870Y-103804468D01*
X118248684Y-103704747D01*
X118243414Y-103688844D01*
X118194418Y-103540984D01*
X118103850Y-103394150D01*
X118012975Y-103303275D01*
X117979490Y-103241952D01*
X117984474Y-103172260D01*
X117995118Y-103150497D01*
X118022390Y-103106283D01*
X118046918Y-103066516D01*
X118101184Y-102902753D01*
X118111510Y-102801677D01*
X118111509Y-102228324D01*
X118108217Y-102196101D01*
X118101184Y-102127247D01*
X118096945Y-102114456D01*
X118046918Y-101963484D01*
X117956350Y-101816650D01*
X117892638Y-101752938D01*
X117859154Y-101691614D01*
X117864139Y-101621923D01*
X117874779Y-101600163D01*
X117890908Y-101574016D01*
X117945174Y-101410253D01*
X117955500Y-101309177D01*
X117955499Y-100710824D01*
X117954534Y-100701380D01*
X117945174Y-100609747D01*
X117941847Y-100599707D01*
X117890908Y-100445984D01*
X117800340Y-100299150D01*
X117686371Y-100185181D01*
X117652886Y-100123858D01*
X117657870Y-100054166D01*
X117686371Y-100009819D01*
X117740000Y-99956190D01*
X117800340Y-99895850D01*
X117890908Y-99749016D01*
X117945174Y-99585253D01*
X117955500Y-99484177D01*
X117955499Y-98885824D01*
X117954721Y-98878211D01*
X117945174Y-98784747D01*
X117927120Y-98730264D01*
X117890908Y-98620984D01*
X117800340Y-98474150D01*
X117678350Y-98352160D01*
X117678349Y-98352159D01*
X117603443Y-98305956D01*
X117556719Y-98254008D01*
X117548766Y-98232510D01*
X117539578Y-98198217D01*
X117539576Y-98198213D01*
X117460524Y-98061290D01*
X117460521Y-98061286D01*
X117460520Y-98061284D01*
X117348716Y-97949480D01*
X117348715Y-97949479D01*
X117344385Y-97945149D01*
X117344374Y-97945139D01*
X116846416Y-97447181D01*
X116812931Y-97385858D01*
X116817915Y-97316166D01*
X116859787Y-97260233D01*
X116925251Y-97235816D01*
X116934097Y-97235500D01*
X122525990Y-97235500D01*
X122526000Y-97235500D01*
X122633456Y-97223947D01*
X122684967Y-97212741D01*
X122719197Y-97201347D01*
X122787497Y-97178616D01*
X122787501Y-97178613D01*
X122787504Y-97178613D01*
X122908543Y-97100825D01*
X122961347Y-97055070D01*
X123055567Y-96946336D01*
X123115338Y-96815459D01*
X123135023Y-96748420D01*
X123135024Y-96748416D01*
X123155500Y-96606000D01*
X123155500Y-84364103D01*
X123154845Y-84338384D01*
X123154203Y-84325782D01*
X123152241Y-84300129D01*
X123145642Y-84235530D01*
X123145000Y-84222929D01*
X123145000Y-83237058D01*
X123145642Y-83224455D01*
X123152240Y-83159877D01*
X123154203Y-83134214D01*
X123154845Y-83121611D01*
X123155500Y-83095894D01*
X123155500Y-82086193D01*
X123155500Y-82086174D01*
X123155179Y-82068169D01*
X123154862Y-82059292D01*
X123153895Y-82041266D01*
X123123308Y-81900681D01*
X123123307Y-81900679D01*
X123123306Y-81900673D01*
X123098887Y-81835210D01*
X123044463Y-81735548D01*
X123029610Y-81667277D01*
X123037112Y-81632788D01*
X123039091Y-81627483D01*
X123045500Y-81567873D01*
X123045499Y-80236533D01*
X126494499Y-80236533D01*
X126520458Y-80367030D01*
X126520461Y-80367040D01*
X126571376Y-80489961D01*
X126571386Y-80489979D01*
X126645301Y-80600601D01*
X126645307Y-80600609D01*
X126739390Y-80694692D01*
X126739398Y-80694698D01*
X126850020Y-80768613D01*
X126850023Y-80768614D01*
X126850031Y-80768620D01*
X126972964Y-80819540D01*
X126972968Y-80819540D01*
X126972969Y-80819541D01*
X127103466Y-80845500D01*
X127103469Y-80845500D01*
X127236533Y-80845500D01*
X127324325Y-80828035D01*
X127367036Y-80819540D01*
X127489969Y-80768620D01*
X127600606Y-80694695D01*
X127694695Y-80600606D01*
X127768620Y-80489969D01*
X127819540Y-80367036D01*
X127845500Y-80236531D01*
X127845500Y-80103469D01*
X127845500Y-80103466D01*
X127819541Y-79972969D01*
X127819540Y-79972968D01*
X127819540Y-79972964D01*
X127768620Y-79850031D01*
X127731276Y-79794142D01*
X127694698Y-79739398D01*
X127694692Y-79739390D01*
X127600609Y-79645307D01*
X127600601Y-79645301D01*
X127489979Y-79571386D01*
X127489972Y-79571382D01*
X127489969Y-79571380D01*
X127489965Y-79571378D01*
X127489961Y-79571376D01*
X127367040Y-79520461D01*
X127367030Y-79520458D01*
X127236533Y-79494500D01*
X127236531Y-79494500D01*
X127103469Y-79494500D01*
X127103467Y-79494500D01*
X126972969Y-79520458D01*
X126972959Y-79520461D01*
X126850038Y-79571376D01*
X126850020Y-79571386D01*
X126739398Y-79645301D01*
X126739390Y-79645307D01*
X126645307Y-79739390D01*
X126645301Y-79739398D01*
X126571386Y-79850020D01*
X126571376Y-79850038D01*
X126520461Y-79972959D01*
X126520458Y-79972969D01*
X126494500Y-80103466D01*
X126494500Y-80103469D01*
X126494500Y-80236531D01*
X126494500Y-80236533D01*
X126494499Y-80236533D01*
X123045499Y-80236533D01*
X123045499Y-79972128D01*
X123039091Y-79912517D01*
X123032477Y-79894785D01*
X123031322Y-79876460D01*
X123035144Y-79859572D01*
X123033909Y-79842301D01*
X123043046Y-79824666D01*
X123046748Y-79808314D01*
X123052465Y-79802691D01*
X123050772Y-79801603D01*
X123055564Y-79794144D01*
X123055567Y-79794142D01*
X123115338Y-79663265D01*
X123135023Y-79596226D01*
X123135024Y-79596222D01*
X123155500Y-79453806D01*
X123155500Y-78286193D01*
X123155500Y-78286174D01*
X123155179Y-78268169D01*
X123154862Y-78259292D01*
X123153895Y-78241266D01*
X123123308Y-78100681D01*
X123123307Y-78100679D01*
X123123306Y-78100673D01*
X123098887Y-78035210D01*
X123044463Y-77935548D01*
X123029610Y-77867277D01*
X123037112Y-77832788D01*
X123039091Y-77827483D01*
X123045500Y-77767873D01*
X123045499Y-76172128D01*
X123039091Y-76112517D01*
X123020094Y-76061584D01*
X122988797Y-75977671D01*
X122988793Y-75977664D01*
X122902547Y-75862455D01*
X122902544Y-75862452D01*
X122787335Y-75776206D01*
X122787328Y-75776202D01*
X122652483Y-75725908D01*
X122597195Y-75719964D01*
X122532644Y-75693225D01*
X122529250Y-75690388D01*
X122510839Y-75674435D01*
X122510831Y-75674430D01*
X122379965Y-75614664D01*
X122379960Y-75614662D01*
X122379959Y-75614662D01*
X122312920Y-75594977D01*
X122312922Y-75594977D01*
X122312917Y-75594976D01*
X122250847Y-75586052D01*
X122170500Y-75574500D01*
X115824000Y-75574500D01*
X115823991Y-75574500D01*
X115823990Y-75574501D01*
X115716549Y-75586052D01*
X115716537Y-75586054D01*
X115665027Y-75597260D01*
X115562502Y-75631383D01*
X115562496Y-75631386D01*
X115441462Y-75709171D01*
X115441451Y-75709179D01*
X115388659Y-75754923D01*
X115294433Y-75863664D01*
X115294430Y-75863668D01*
X115234664Y-75994534D01*
X115214976Y-76061582D01*
X115194500Y-76204001D01*
X115194500Y-79881804D01*
X115194501Y-79881824D01*
X115208048Y-79998059D01*
X115208048Y-79998060D01*
X115221163Y-80053562D01*
X115249304Y-80131115D01*
X115253666Y-80200848D01*
X115245535Y-80224921D01*
X115234662Y-80248728D01*
X115214976Y-80315770D01*
X115194500Y-80458189D01*
X115194500Y-85286124D01*
X115207028Y-85397966D01*
X115207030Y-85397979D01*
X115219167Y-85451472D01*
X115219170Y-85451481D01*
X115256131Y-85557772D01*
X115336057Y-85677404D01*
X115336059Y-85677406D01*
X115336061Y-85677409D01*
X115382748Y-85729390D01*
X115382751Y-85729394D01*
X115451338Y-85786719D01*
X115452180Y-85787449D01*
X115470468Y-85815940D01*
X115489262Y-85844070D01*
X115489329Y-85845324D01*
X115489922Y-85846248D01*
X115489916Y-85856286D01*
X115492543Y-85905309D01*
X115469500Y-86021153D01*
X115469500Y-86142947D01*
X115449815Y-86209986D01*
X115433188Y-86230621D01*
X115432158Y-86231651D01*
X115341596Y-86378475D01*
X115341592Y-86378484D01*
X115287326Y-86542247D01*
X115287326Y-86542248D01*
X115287325Y-86542248D01*
X115277000Y-86643315D01*
X115277000Y-87216669D01*
X115277001Y-87216687D01*
X115287325Y-87317752D01*
X115323609Y-87427249D01*
X115341592Y-87481516D01*
X115342809Y-87483489D01*
X115343229Y-87485026D01*
X115344646Y-87488064D01*
X115344126Y-87488306D01*
X115361248Y-87550882D01*
X115340324Y-87617545D01*
X115330982Y-87629787D01*
X115294432Y-87671966D01*
X115294430Y-87671970D01*
X115234664Y-87802836D01*
X115214976Y-87869884D01*
X115194500Y-88012303D01*
X115194500Y-95985811D01*
X115174815Y-96052850D01*
X115122011Y-96098605D01*
X115117953Y-96100372D01*
X115020824Y-96140604D01*
X115020814Y-96140609D01*
X114889711Y-96228210D01*
X114889707Y-96228213D01*
X114778213Y-96339707D01*
X114778210Y-96339711D01*
X114690609Y-96470814D01*
X114690602Y-96470827D01*
X114630264Y-96616498D01*
X114630261Y-96616510D01*
X114599500Y-96771153D01*
X114599500Y-96928846D01*
X114631451Y-97089472D01*
X114630058Y-97089748D01*
X114630613Y-97152486D01*
X114593359Y-97211596D01*
X114558788Y-97233163D01*
X114540823Y-97240604D01*
X114540814Y-97240609D01*
X114409711Y-97328210D01*
X114409707Y-97328213D01*
X114298213Y-97439707D01*
X114298210Y-97439711D01*
X114210609Y-97570814D01*
X114210602Y-97570827D01*
X114150264Y-97716498D01*
X114150261Y-97716510D01*
X114119500Y-97871153D01*
X114119500Y-98028846D01*
X114150261Y-98183489D01*
X114150264Y-98183501D01*
X114210602Y-98329172D01*
X114210609Y-98329185D01*
X114298210Y-98460288D01*
X114298213Y-98460292D01*
X114409710Y-98571789D01*
X114453178Y-98600833D01*
X114497983Y-98654445D01*
X114506690Y-98723770D01*
X114501993Y-98742939D01*
X114484826Y-98794745D01*
X114474500Y-98895815D01*
X114474500Y-99494169D01*
X114474501Y-99494187D01*
X114484825Y-99595252D01*
X114517378Y-99693489D01*
X114535778Y-99749016D01*
X114539092Y-99759015D01*
X114539093Y-99759018D01*
X114562470Y-99796918D01*
X114629426Y-99905471D01*
X114629661Y-99905851D01*
X114743629Y-100019819D01*
X114777114Y-100081142D01*
X114772130Y-100150834D01*
X114743629Y-100195181D01*
X114629661Y-100309148D01*
X114539093Y-100455981D01*
X114539091Y-100455986D01*
X114528413Y-100488210D01*
X114484826Y-100619747D01*
X114484826Y-100619748D01*
X114484825Y-100619748D01*
X114474500Y-100720815D01*
X114474500Y-101319169D01*
X114474501Y-101319187D01*
X114484825Y-101420252D01*
X114507666Y-101489179D01*
X114537504Y-101579225D01*
X114539092Y-101584015D01*
X114539094Y-101584020D01*
X114548360Y-101599042D01*
X114566799Y-101666434D01*
X114545876Y-101733098D01*
X114530502Y-101751818D01*
X114465669Y-101816651D01*
X114375103Y-101963481D01*
X114375101Y-101963486D01*
X114362321Y-102002053D01*
X114320836Y-102127247D01*
X114320836Y-102127248D01*
X114320835Y-102127248D01*
X114310510Y-102228315D01*
X114310510Y-102801669D01*
X114310511Y-102801687D01*
X114320835Y-102902752D01*
X114357119Y-103012249D01*
X114374822Y-103065672D01*
X114375102Y-103066515D01*
X114375105Y-103066522D01*
X114431285Y-103157604D01*
X114449725Y-103224996D01*
X114428802Y-103291659D01*
X114413428Y-103310380D01*
X114329661Y-103394148D01*
X114239093Y-103540981D01*
X114239091Y-103540986D01*
X114213442Y-103618389D01*
X114184826Y-103704747D01*
X114184826Y-103704748D01*
X114184825Y-103704748D01*
X114174500Y-103805815D01*
X114174500Y-104504169D01*
X114174501Y-104504187D01*
X114184825Y-104605252D01*
X114198841Y-104647547D01*
X114238574Y-104767454D01*
X114239092Y-104769015D01*
X114239093Y-104769018D01*
X114270761Y-104820359D01*
X114329660Y-104915850D01*
X114451650Y-105037840D01*
X114598484Y-105128408D01*
X114762247Y-105182674D01*
X114863323Y-105193000D01*
X115201500Y-105192999D01*
X115268539Y-105212683D01*
X115314294Y-105265487D01*
X115325500Y-105316999D01*
X115325500Y-106213903D01*
X115305815Y-106280942D01*
X115289181Y-106301584D01*
X114165309Y-107425455D01*
X114103986Y-107458940D01*
X114034294Y-107453956D01*
X113978361Y-107412084D01*
X113953944Y-107346620D01*
X113956377Y-107311811D01*
X113957673Y-107305755D01*
X113957674Y-107305753D01*
X113968000Y-107204677D01*
X113967999Y-106631324D01*
X113959048Y-106543701D01*
X113971817Y-106475011D01*
X113979305Y-106462210D01*
X114009389Y-106417186D01*
X114009394Y-106417179D01*
X114016258Y-106400609D01*
X114023067Y-106384166D01*
X114069737Y-106271497D01*
X114100500Y-106116842D01*
X114100500Y-105959158D01*
X114100500Y-105959155D01*
X114100499Y-105959153D01*
X114096203Y-105937558D01*
X114069737Y-105804503D01*
X114069735Y-105804498D01*
X114009397Y-105658827D01*
X114009390Y-105658814D01*
X113921789Y-105527711D01*
X113921786Y-105527707D01*
X113810292Y-105416213D01*
X113810288Y-105416210D01*
X113679185Y-105328609D01*
X113679172Y-105328602D01*
X113533501Y-105268264D01*
X113533489Y-105268261D01*
X113378845Y-105237500D01*
X113378842Y-105237500D01*
X113221158Y-105237500D01*
X113221155Y-105237500D01*
X113066510Y-105268261D01*
X113066498Y-105268264D01*
X112920827Y-105328602D01*
X112920814Y-105328609D01*
X112789711Y-105416210D01*
X112789707Y-105416213D01*
X112678213Y-105527707D01*
X112678210Y-105527711D01*
X112590609Y-105658814D01*
X112590603Y-105658826D01*
X112580806Y-105682478D01*
X112553928Y-105722704D01*
X112397047Y-105879585D01*
X112362503Y-105931283D01*
X112362504Y-105931284D01*
X112314915Y-106002505D01*
X112289430Y-106064032D01*
X112284797Y-106070965D01*
X112283701Y-106076004D01*
X112262551Y-106104259D01*
X112155179Y-106211630D01*
X112093859Y-106245114D01*
X112024167Y-106240130D01*
X111979819Y-106211629D01*
X111865851Y-106097661D01*
X111865850Y-106097660D01*
X111754776Y-106029149D01*
X111719018Y-106007093D01*
X111719013Y-106007091D01*
X111702415Y-106001591D01*
X111555253Y-105952826D01*
X111555251Y-105952825D01*
X111454184Y-105942500D01*
X111454177Y-105942500D01*
X111024799Y-105942500D01*
X110990475Y-105937655D01*
X110983781Y-105935726D01*
X110944134Y-105919305D01*
X110937452Y-105916537D01*
X110877029Y-105904518D01*
X110871907Y-105903499D01*
X110871903Y-105903498D01*
X110816610Y-105892500D01*
X110816607Y-105892500D01*
X110816606Y-105892500D01*
X109687938Y-105892500D01*
X109620899Y-105872815D01*
X109575144Y-105820011D01*
X109565200Y-105750853D01*
X109573377Y-105721048D01*
X109591251Y-105677895D01*
X109591658Y-105676912D01*
X109607209Y-105598733D01*
X109620500Y-105531919D01*
X109620500Y-105384080D01*
X109591672Y-105239157D01*
X109589289Y-105214965D01*
X109589289Y-104315374D01*
X109608974Y-104248335D01*
X109625604Y-104227697D01*
X110009752Y-103843548D01*
X110071075Y-103810064D01*
X110097433Y-103807230D01*
X110479170Y-103807230D01*
X110479176Y-103807230D01*
X110580253Y-103796905D01*
X110744016Y-103742639D01*
X110890850Y-103652071D01*
X111012840Y-103530081D01*
X111103408Y-103383247D01*
X111157674Y-103219484D01*
X111168000Y-103118408D01*
X111167999Y-102835748D01*
X111187683Y-102768710D01*
X111204313Y-102748073D01*
X112037413Y-101914974D01*
X112040403Y-101910500D01*
X112114075Y-101800242D01*
X112117973Y-101790830D01*
X112161810Y-101736426D01*
X112167414Y-101732755D01*
X112261956Y-101674443D01*
X112386012Y-101550387D01*
X112478114Y-101401065D01*
X112533299Y-101234528D01*
X112543800Y-101131740D01*
X112543799Y-100431723D01*
X112543035Y-100424248D01*
X112533299Y-100328934D01*
X112533298Y-100328931D01*
X112526743Y-100309150D01*
X112478114Y-100162397D01*
X112476428Y-100159663D01*
X112425504Y-100077101D01*
X112407064Y-100009709D01*
X112416482Y-99964552D01*
X112418476Y-99959738D01*
X112464424Y-99848810D01*
X112495187Y-99694155D01*
X112495187Y-99536471D01*
X112495187Y-99536468D01*
X112495186Y-99536466D01*
X112486774Y-99494176D01*
X112464424Y-99381816D01*
X112464422Y-99381811D01*
X112404084Y-99236140D01*
X112404077Y-99236127D01*
X112316476Y-99105024D01*
X112316473Y-99105020D01*
X112204979Y-98993526D01*
X112204975Y-98993523D01*
X112073872Y-98905922D01*
X112073859Y-98905915D01*
X111928188Y-98845577D01*
X111928176Y-98845574D01*
X111773532Y-98814813D01*
X111773529Y-98814813D01*
X111615845Y-98814813D01*
X111615842Y-98814813D01*
X111461197Y-98845574D01*
X111461185Y-98845577D01*
X111315514Y-98905915D01*
X111315501Y-98905922D01*
X111184398Y-98993523D01*
X111184394Y-98993526D01*
X111072900Y-99105020D01*
X111072897Y-99105024D01*
X110985296Y-99236127D01*
X110985289Y-99236140D01*
X110924951Y-99381811D01*
X110924948Y-99381823D01*
X110894187Y-99536466D01*
X110894187Y-99694156D01*
X110894784Y-99700218D01*
X110892451Y-99700447D01*
X110887140Y-99759688D01*
X110844268Y-99814858D01*
X110836855Y-99819807D01*
X110724642Y-99889020D01*
X110600589Y-100013073D01*
X110508487Y-100162394D01*
X110508486Y-100162397D01*
X110453301Y-100328934D01*
X110453301Y-100328935D01*
X110453300Y-100328935D01*
X110442800Y-100431714D01*
X110442800Y-101131732D01*
X110442801Y-101131750D01*
X110453300Y-101234527D01*
X110453301Y-101234530D01*
X110499740Y-101374672D01*
X110502142Y-101444500D01*
X110469715Y-101501357D01*
X110151160Y-101819912D01*
X110089837Y-101853397D01*
X110063479Y-101856231D01*
X109780831Y-101856231D01*
X109780812Y-101856232D01*
X109679747Y-101866556D01*
X109679744Y-101866557D01*
X109543133Y-101911826D01*
X109473304Y-101914228D01*
X109413263Y-101878496D01*
X109382070Y-101815976D01*
X109389631Y-101746516D01*
X109433543Y-101692171D01*
X109438989Y-101688608D01*
X109461956Y-101674443D01*
X109586012Y-101550387D01*
X109678114Y-101401065D01*
X109733299Y-101234528D01*
X109743800Y-101131740D01*
X109743799Y-100431723D01*
X109743035Y-100424248D01*
X109733299Y-100328934D01*
X109733298Y-100328931D01*
X109726743Y-100309150D01*
X109678114Y-100162397D01*
X109586012Y-100013075D01*
X109461956Y-99889019D01*
X109362613Y-99827744D01*
X109312636Y-99796918D01*
X109312631Y-99796916D01*
X109292433Y-99790223D01*
X109146097Y-99741732D01*
X109146095Y-99741731D01*
X109043310Y-99731231D01*
X108343298Y-99731231D01*
X108343280Y-99731232D01*
X108240503Y-99741731D01*
X108240500Y-99741732D01*
X108073968Y-99796916D01*
X108073963Y-99796918D01*
X107924645Y-99889018D01*
X107818750Y-99994913D01*
X107791816Y-100009619D01*
X107766004Y-100026208D01*
X107759803Y-100027099D01*
X107757427Y-100028397D01*
X107731069Y-100031231D01*
X107537592Y-100031231D01*
X107472496Y-100012770D01*
X107386522Y-99959741D01*
X107386517Y-99959739D01*
X107386516Y-99959738D01*
X107222753Y-99905472D01*
X107222751Y-99905471D01*
X107121678Y-99895146D01*
X106548330Y-99895146D01*
X106548312Y-99895147D01*
X106447247Y-99905471D01*
X106283484Y-99959738D01*
X106283477Y-99959741D01*
X106213717Y-100002770D01*
X106197159Y-100007465D01*
X106183556Y-100016208D01*
X106148621Y-100021231D01*
X105948931Y-100021231D01*
X105881892Y-100001546D01*
X105861250Y-99984913D01*
X105809244Y-99932907D01*
X105755356Y-99879019D01*
X105675457Y-99829737D01*
X105606036Y-99786918D01*
X105606031Y-99786916D01*
X105563380Y-99772783D01*
X105439497Y-99731732D01*
X105439495Y-99731731D01*
X105336710Y-99721231D01*
X104636698Y-99721231D01*
X104636680Y-99721232D01*
X104533903Y-99731731D01*
X104533900Y-99731732D01*
X104367368Y-99786916D01*
X104367363Y-99786918D01*
X104218042Y-99879020D01*
X104093989Y-100003073D01*
X104001887Y-100152394D01*
X104001885Y-100152399D01*
X103988096Y-100194011D01*
X103946701Y-100318934D01*
X103946701Y-100318935D01*
X103946700Y-100318935D01*
X103936200Y-100421714D01*
X103936200Y-101121732D01*
X103936201Y-101121750D01*
X103946700Y-101224527D01*
X103946701Y-101224530D01*
X104001885Y-101391062D01*
X104001887Y-101391067D01*
X104032081Y-101440019D01*
X104093988Y-101540387D01*
X104218044Y-101664443D01*
X104367366Y-101756545D01*
X104476660Y-101792761D01*
X104534103Y-101832532D01*
X104560927Y-101897048D01*
X104548612Y-101965824D01*
X104521248Y-102002053D01*
X104512650Y-102009899D01*
X104507939Y-102012806D01*
X104491966Y-102028778D01*
X104489882Y-102030681D01*
X104460922Y-102044820D01*
X104432647Y-102060260D01*
X104429727Y-102060051D01*
X104427096Y-102061336D01*
X104395099Y-102057574D01*
X104362955Y-102055276D01*
X104360137Y-102053465D01*
X104357704Y-102053179D01*
X104350590Y-102047329D01*
X104318608Y-102026775D01*
X104304640Y-102012807D01*
X104304639Y-102012806D01*
X104157805Y-101922238D01*
X103994042Y-101867972D01*
X103994040Y-101867971D01*
X103892973Y-101857646D01*
X103892966Y-101857646D01*
X103610308Y-101857646D01*
X103543269Y-101837961D01*
X103522627Y-101821327D01*
X103205897Y-101504597D01*
X103172412Y-101443274D01*
X103175872Y-101377912D01*
X103176946Y-101374672D01*
X103226699Y-101224528D01*
X103237200Y-101121740D01*
X103237199Y-100421723D01*
X103235041Y-100400602D01*
X103226699Y-100318934D01*
X103226698Y-100318931D01*
X103223456Y-100309148D01*
X103171514Y-100152397D01*
X103079412Y-100003075D01*
X102955356Y-99879019D01*
X102862588Y-99821800D01*
X102806036Y-99786918D01*
X102806031Y-99786916D01*
X102763380Y-99772783D01*
X102639497Y-99731732D01*
X102639495Y-99731731D01*
X102536710Y-99721231D01*
X101836698Y-99721231D01*
X101836680Y-99721232D01*
X101733903Y-99731731D01*
X101733900Y-99731732D01*
X101567368Y-99786916D01*
X101567363Y-99786918D01*
X101418042Y-99879020D01*
X101293989Y-100003073D01*
X101205038Y-100147286D01*
X101153090Y-100194011D01*
X101084127Y-100205232D01*
X101020045Y-100177389D01*
X100981189Y-100119320D01*
X100975499Y-100082195D01*
X100975499Y-98802128D01*
X100969091Y-98742517D01*
X100943822Y-98674768D01*
X100918797Y-98607671D01*
X100918793Y-98607664D01*
X100832547Y-98492455D01*
X100832544Y-98492452D01*
X100717335Y-98406206D01*
X100717328Y-98406202D01*
X100582482Y-98355908D01*
X100582483Y-98355908D01*
X100522883Y-98349501D01*
X100522881Y-98349500D01*
X100522873Y-98349500D01*
X100522865Y-98349500D01*
X100522117Y-98349500D01*
X100521949Y-98349450D01*
X100519548Y-98349322D01*
X100519578Y-98348754D01*
X100455078Y-98329815D01*
X100409323Y-98277011D01*
X100407556Y-98272952D01*
X100369397Y-98180827D01*
X100369390Y-98180814D01*
X100281789Y-98049711D01*
X100281786Y-98049707D01*
X100170292Y-97938213D01*
X100170288Y-97938210D01*
X100039185Y-97850609D01*
X100039172Y-97850602D01*
X99893501Y-97790264D01*
X99893489Y-97790261D01*
X99738845Y-97759500D01*
X99738842Y-97759500D01*
X99581158Y-97759500D01*
X99581155Y-97759500D01*
X99426510Y-97790261D01*
X99426498Y-97790264D01*
X99280827Y-97850602D01*
X99280814Y-97850609D01*
X99149711Y-97938210D01*
X99149707Y-97938213D01*
X99038213Y-98049707D01*
X99038210Y-98049711D01*
X98950609Y-98180814D01*
X98950602Y-98180827D01*
X98897696Y-98308557D01*
X98853855Y-98362961D01*
X98787561Y-98385026D01*
X98739803Y-98377287D01*
X98682488Y-98355910D01*
X98682484Y-98355909D01*
X98682483Y-98355909D01*
X98622873Y-98349500D01*
X98622863Y-98349500D01*
X97927129Y-98349500D01*
X97927123Y-98349501D01*
X97867516Y-98355908D01*
X97732671Y-98406202D01*
X97732664Y-98406206D01*
X97617455Y-98492452D01*
X97617452Y-98492455D01*
X97531207Y-98607663D01*
X97531203Y-98607671D01*
X97527039Y-98618835D01*
X97485168Y-98674768D01*
X97419703Y-98699184D01*
X97410858Y-98699500D01*
X97281155Y-98699500D01*
X97126510Y-98730261D01*
X97126498Y-98730264D01*
X96980827Y-98790602D01*
X96980814Y-98790609D01*
X96849711Y-98878210D01*
X96849707Y-98878213D01*
X96738213Y-98989707D01*
X96738210Y-98989711D01*
X96650609Y-99120814D01*
X96650602Y-99120827D01*
X96590264Y-99266498D01*
X96590261Y-99266510D01*
X96559500Y-99421153D01*
X96559500Y-99578846D01*
X96590261Y-99733489D01*
X96590264Y-99733501D01*
X96650602Y-99879172D01*
X96650609Y-99879185D01*
X96738210Y-100010288D01*
X96738213Y-100010292D01*
X96849707Y-100121786D01*
X96849711Y-100121789D01*
X96980814Y-100209390D01*
X96980827Y-100209397D01*
X97126498Y-100269735D01*
X97126503Y-100269737D01*
X97256147Y-100295525D01*
X97281153Y-100300499D01*
X97281156Y-100300500D01*
X97347795Y-100300500D01*
X97414834Y-100320185D01*
X97460589Y-100372989D01*
X97470533Y-100442147D01*
X97453334Y-100489596D01*
X97401595Y-100573477D01*
X97401591Y-100573486D01*
X97384687Y-100624500D01*
X97347326Y-100737247D01*
X97347326Y-100737248D01*
X97347325Y-100737248D01*
X97337000Y-100838315D01*
X97337000Y-101070981D01*
X97317315Y-101138020D01*
X97300681Y-101158662D01*
X96936162Y-101523181D01*
X96874839Y-101556666D01*
X96848481Y-101559500D01*
X96260212Y-101559500D01*
X96193173Y-101539815D01*
X96147418Y-101487011D01*
X96136854Y-101422899D01*
X96137999Y-101411689D01*
X96137999Y-101411686D01*
X96138000Y-101411677D01*
X96137999Y-100838324D01*
X96127674Y-100737247D01*
X96073408Y-100573484D01*
X95982840Y-100426650D01*
X95964637Y-100408447D01*
X95931152Y-100347124D01*
X95936135Y-100277434D01*
X95964091Y-100202483D01*
X95970500Y-100142873D01*
X95970499Y-98797128D01*
X95964674Y-98742939D01*
X95964091Y-98737516D01*
X95913797Y-98602671D01*
X95913793Y-98602664D01*
X95827547Y-98487455D01*
X95827544Y-98487452D01*
X95712335Y-98401206D01*
X95712328Y-98401202D01*
X95577482Y-98350908D01*
X95577483Y-98350908D01*
X95517883Y-98344501D01*
X95517881Y-98344500D01*
X95517873Y-98344500D01*
X95517865Y-98344500D01*
X95227940Y-98344500D01*
X95160901Y-98324815D01*
X95140263Y-98308185D01*
X95070289Y-98238211D01*
X95070288Y-98238210D01*
X95070287Y-98238209D01*
X94939185Y-98150609D01*
X94939172Y-98150602D01*
X94793501Y-98090264D01*
X94793489Y-98090261D01*
X94638845Y-98059500D01*
X94638842Y-98059500D01*
X94481158Y-98059500D01*
X94481155Y-98059500D01*
X94326510Y-98090261D01*
X94326498Y-98090264D01*
X94180827Y-98150602D01*
X94180814Y-98150609D01*
X94049711Y-98238210D01*
X94049707Y-98238213D01*
X93938213Y-98349707D01*
X93934347Y-98354419D01*
X93932715Y-98353080D01*
X93886445Y-98391745D01*
X93817120Y-98400448D01*
X93793629Y-98394228D01*
X93677486Y-98350910D01*
X93677485Y-98350909D01*
X93677483Y-98350909D01*
X93617873Y-98344500D01*
X93617863Y-98344500D01*
X92922129Y-98344500D01*
X92922123Y-98344501D01*
X92862516Y-98350908D01*
X92727671Y-98401202D01*
X92727664Y-98401206D01*
X92612456Y-98487452D01*
X92612455Y-98487453D01*
X92612454Y-98487454D01*
X92526204Y-98602669D01*
X92526202Y-98602671D01*
X92520890Y-98609769D01*
X92517875Y-98607512D01*
X92480895Y-98644404D01*
X92421600Y-98659500D01*
X92311155Y-98659500D01*
X92156510Y-98690261D01*
X92156498Y-98690264D01*
X92010827Y-98750602D01*
X92010814Y-98750609D01*
X91879711Y-98838210D01*
X91879707Y-98838213D01*
X91768213Y-98949707D01*
X91768210Y-98949711D01*
X91680609Y-99080814D01*
X91680602Y-99080827D01*
X91620264Y-99226498D01*
X91620261Y-99226510D01*
X91589500Y-99381153D01*
X91589500Y-99538846D01*
X91620261Y-99693489D01*
X91620264Y-99693501D01*
X91680602Y-99839172D01*
X91680609Y-99839185D01*
X91768210Y-99970288D01*
X91768213Y-99970292D01*
X91879708Y-100081787D01*
X91879711Y-100081789D01*
X91921275Y-100109561D01*
X91966079Y-100163172D01*
X91974787Y-100232497D01*
X91944633Y-100295525D01*
X91885191Y-100332244D01*
X91876578Y-100334280D01*
X91846505Y-100340262D01*
X91846498Y-100340264D01*
X91700827Y-100400602D01*
X91700814Y-100400609D01*
X91569711Y-100488210D01*
X91569707Y-100488213D01*
X91458213Y-100599707D01*
X91458210Y-100599711D01*
X91370609Y-100730814D01*
X91370602Y-100730827D01*
X91310264Y-100876498D01*
X91310261Y-100876510D01*
X91279500Y-101031153D01*
X91279500Y-101188846D01*
X91310261Y-101343489D01*
X91310264Y-101343501D01*
X91370602Y-101489172D01*
X91370609Y-101489185D01*
X91458210Y-101620288D01*
X91458213Y-101620292D01*
X91569707Y-101731786D01*
X91569711Y-101731789D01*
X91700814Y-101819390D01*
X91700827Y-101819397D01*
X91843507Y-101878496D01*
X91846503Y-101879737D01*
X92001148Y-101910498D01*
X92001153Y-101910499D01*
X92001156Y-101910500D01*
X92001158Y-101910500D01*
X92158844Y-101910500D01*
X92158845Y-101910499D01*
X92235152Y-101895320D01*
X92313488Y-101879739D01*
X92313489Y-101879738D01*
X92313497Y-101879737D01*
X92403157Y-101842598D01*
X92472625Y-101835130D01*
X92535104Y-101866405D01*
X92538289Y-101869479D01*
X92614150Y-101945340D01*
X92760984Y-102035908D01*
X92924747Y-102090174D01*
X93025823Y-102100500D01*
X93258479Y-102100499D01*
X93325519Y-102120183D01*
X93346161Y-102136818D01*
X93648048Y-102438704D01*
X93915886Y-102706542D01*
X93978054Y-102768710D01*
X94013459Y-102804115D01*
X94128182Y-102880771D01*
X94128186Y-102880773D01*
X94128189Y-102880775D01*
X94202866Y-102911707D01*
X94255671Y-102933580D01*
X94278843Y-102938189D01*
X94324705Y-102947311D01*
X94391005Y-102960500D01*
X94391007Y-102960500D01*
X95872152Y-102960500D01*
X95939191Y-102980185D01*
X95984946Y-103032989D01*
X95993769Y-103060308D01*
X96020261Y-103193491D01*
X96020264Y-103193501D01*
X96080602Y-103339172D01*
X96080609Y-103339185D01*
X96168210Y-103470288D01*
X96168213Y-103470292D01*
X96279707Y-103581786D01*
X96279711Y-103581789D01*
X96410814Y-103669390D01*
X96410827Y-103669397D01*
X96556498Y-103729735D01*
X96556503Y-103729737D01*
X96711153Y-103760499D01*
X96711156Y-103760500D01*
X96711158Y-103760500D01*
X96868844Y-103760500D01*
X96868845Y-103760499D01*
X97023497Y-103729737D01*
X97169179Y-103669394D01*
X97300289Y-103581789D01*
X97386232Y-103495845D01*
X97447553Y-103462362D01*
X97517245Y-103467346D01*
X97542803Y-103480426D01*
X97612931Y-103527284D01*
X97612933Y-103527285D01*
X97612937Y-103527287D01*
X97744521Y-103581790D01*
X97758613Y-103587627D01*
X97913263Y-103618389D01*
X97913266Y-103618390D01*
X97913268Y-103618390D01*
X98070954Y-103618390D01*
X98070955Y-103618389D01*
X98225607Y-103587627D01*
X98361944Y-103531155D01*
X98371282Y-103527287D01*
X98371282Y-103527286D01*
X98371289Y-103527284D01*
X98502399Y-103439679D01*
X98613899Y-103328179D01*
X98701504Y-103197069D01*
X98761847Y-103051387D01*
X98792610Y-102896732D01*
X98792610Y-102739048D01*
X98792610Y-102739045D01*
X98792609Y-102739043D01*
X98765428Y-102602397D01*
X98761847Y-102584393D01*
X98749615Y-102554862D01*
X98701507Y-102438717D01*
X98701500Y-102438704D01*
X98613899Y-102307601D01*
X98613896Y-102307597D01*
X98611466Y-102305167D01*
X98610599Y-102303579D01*
X98610034Y-102302891D01*
X98610164Y-102302783D01*
X98577981Y-102243844D01*
X98582965Y-102174152D01*
X98624837Y-102118219D01*
X98686546Y-102094128D01*
X98704227Y-102092321D01*
X98725253Y-102090174D01*
X98889016Y-102035908D01*
X99035850Y-101945340D01*
X99149819Y-101831371D01*
X99211142Y-101797886D01*
X99280834Y-101802870D01*
X99325181Y-101831371D01*
X99439150Y-101945340D01*
X99585984Y-102035908D01*
X99749747Y-102090174D01*
X99850823Y-102100500D01*
X100449176Y-102100499D01*
X100449184Y-102100498D01*
X100449187Y-102100498D01*
X100511545Y-102094128D01*
X100550253Y-102090174D01*
X100714016Y-102035908D01*
X100860850Y-101945340D01*
X100982840Y-101823350D01*
X101073408Y-101676516D01*
X101098956Y-101599415D01*
X101138727Y-101541973D01*
X101203243Y-101515150D01*
X101272019Y-101527465D01*
X101304342Y-101550741D01*
X101418044Y-101664443D01*
X101502754Y-101716692D01*
X101549478Y-101768640D01*
X101552217Y-101774776D01*
X101561790Y-101797886D01*
X101565925Y-101807867D01*
X101565928Y-101807874D01*
X101642585Y-101922600D01*
X101824075Y-102104090D01*
X101857560Y-102165413D01*
X101852576Y-102235105D01*
X101810704Y-102291038D01*
X101745240Y-102315455D01*
X101712204Y-102313389D01*
X101706156Y-102312186D01*
X101548472Y-102312186D01*
X101548469Y-102312186D01*
X101393825Y-102342946D01*
X101393820Y-102342948D01*
X101393818Y-102342948D01*
X101393817Y-102342949D01*
X101370158Y-102352748D01*
X101322710Y-102362186D01*
X101115567Y-102362186D01*
X101086733Y-102367920D01*
X101086734Y-102367921D01*
X100970583Y-102391025D01*
X100970577Y-102391027D01*
X100897861Y-102421148D01*
X100833994Y-102447602D01*
X100833993Y-102447602D01*
X100766701Y-102492565D01*
X100766702Y-102492566D01*
X100711073Y-102529735D01*
X100711070Y-102529738D01*
X100202052Y-103038755D01*
X100202049Y-103038758D01*
X100158278Y-103104266D01*
X100158279Y-103104267D01*
X100119914Y-103161685D01*
X100063343Y-103298259D01*
X100063340Y-103298269D01*
X100034500Y-103443256D01*
X100034500Y-106115948D01*
X100014815Y-106182987D01*
X99998181Y-106203629D01*
X99952161Y-106249648D01*
X99861593Y-106396481D01*
X99861591Y-106396486D01*
X99854734Y-106417179D01*
X99807326Y-106560247D01*
X99807326Y-106560248D01*
X99807325Y-106560248D01*
X99797000Y-106661315D01*
X99797000Y-107234669D01*
X99797001Y-107234687D01*
X99807325Y-107335752D01*
X99837050Y-107425455D01*
X99858164Y-107489172D01*
X99861592Y-107499515D01*
X99861593Y-107499518D01*
X99873515Y-107518846D01*
X99952160Y-107646350D01*
X100074150Y-107768340D01*
X100220984Y-107858908D01*
X100384747Y-107913174D01*
X100485823Y-107923500D01*
X101084176Y-107923499D01*
X101084184Y-107923498D01*
X101084187Y-107923498D01*
X101160642Y-107915688D01*
X101185253Y-107913174D01*
X101273643Y-107883883D01*
X101289173Y-107883349D01*
X101303730Y-107877911D01*
X101323376Y-107882173D01*
X101343469Y-107881482D01*
X101357774Y-107889635D01*
X101372012Y-107892724D01*
X101392434Y-107908003D01*
X101392937Y-107907389D01*
X101392948Y-107907398D01*
X101399261Y-107913111D01*
X101400208Y-107913820D01*
X101400278Y-107913860D01*
X101402059Y-107915639D01*
X101402061Y-107915643D01*
X101402086Y-107915668D01*
X101402108Y-107915688D01*
X102018485Y-108532065D01*
X102018514Y-108532096D01*
X102108730Y-108622312D01*
X102108736Y-108622317D01*
X102133967Y-108639176D01*
X102133969Y-108639177D01*
X102211183Y-108690771D01*
X102211188Y-108690773D01*
X102284937Y-108721320D01*
X102284939Y-108721320D01*
X102291676Y-108724111D01*
X102325017Y-108737922D01*
X102383225Y-108749500D01*
X102445860Y-108761958D01*
X102445861Y-108761959D01*
X102445862Y-108761959D01*
X102445863Y-108761959D01*
X102899955Y-108761959D01*
X102966994Y-108781644D01*
X103012749Y-108834448D01*
X103023244Y-108899214D01*
X103022659Y-108904660D01*
X103016512Y-108961834D01*
X103016511Y-108961847D01*
X103016511Y-109311580D01*
X103016512Y-109311587D01*
X103023170Y-109373524D01*
X103023530Y-109396093D01*
X103023093Y-109401889D01*
X103022920Y-109402354D01*
X103016511Y-109461964D01*
X103016511Y-109489259D01*
X103016161Y-109493905D01*
X103005405Y-109522409D01*
X102996826Y-109551628D01*
X102993192Y-109554776D01*
X102991495Y-109559276D01*
X102967037Y-109577439D01*
X102944022Y-109597383D01*
X102938594Y-109598563D01*
X102935403Y-109600934D01*
X102924217Y-109601691D01*
X102892511Y-109608589D01*
X93426286Y-109608589D01*
X93359247Y-109588904D01*
X93338605Y-109572270D01*
X93266015Y-109499680D01*
X93232530Y-109438357D01*
X93237514Y-109368665D01*
X93279386Y-109312732D01*
X93344850Y-109288315D01*
X93353672Y-109287999D01*
X93836676Y-109287999D01*
X93836684Y-109287998D01*
X93836687Y-109287998D01*
X93892030Y-109282344D01*
X93937753Y-109277674D01*
X94101516Y-109223408D01*
X94248350Y-109132840D01*
X94370340Y-109010850D01*
X94460908Y-108864016D01*
X94515174Y-108700253D01*
X94525500Y-108599177D01*
X94525499Y-107900824D01*
X94523158Y-107877911D01*
X94515174Y-107799747D01*
X94460908Y-107635984D01*
X94370340Y-107489150D01*
X94248350Y-107367160D01*
X94148797Y-107305755D01*
X94101518Y-107276593D01*
X94101513Y-107276591D01*
X94070016Y-107266154D01*
X93937753Y-107222326D01*
X93937751Y-107222325D01*
X93836678Y-107212000D01*
X93263330Y-107212000D01*
X93263312Y-107212001D01*
X93162247Y-107222325D01*
X93155622Y-107223744D01*
X93155355Y-107222497D01*
X93092634Y-107224651D01*
X93032595Y-107188915D01*
X93001407Y-107126392D01*
X93000109Y-107091945D01*
X93005500Y-107039177D01*
X93005499Y-106440824D01*
X93003084Y-106417186D01*
X92995174Y-106339747D01*
X92994617Y-106338065D01*
X92940908Y-106175984D01*
X92850340Y-106029150D01*
X92736371Y-105915181D01*
X92702886Y-105853858D01*
X92707870Y-105784166D01*
X92736371Y-105739819D01*
X92770927Y-105705263D01*
X92850340Y-105625850D01*
X92940908Y-105479016D01*
X92995174Y-105315253D01*
X93005500Y-105214177D01*
X93005499Y-104615824D01*
X93004374Y-104604815D01*
X92995174Y-104514747D01*
X92956316Y-104397483D01*
X92940908Y-104350984D01*
X92850340Y-104204150D01*
X92728350Y-104082160D01*
X92581516Y-103991592D01*
X92541609Y-103978368D01*
X92530513Y-103971524D01*
X92521190Y-103969496D01*
X92492937Y-103948346D01*
X92428733Y-103884142D01*
X92428729Y-103884139D01*
X92405793Y-103861203D01*
X92372308Y-103799880D01*
X92371887Y-103797864D01*
X92349737Y-103686503D01*
X92321524Y-103618390D01*
X92289397Y-103540827D01*
X92289390Y-103540814D01*
X92201789Y-103409711D01*
X92201786Y-103409707D01*
X92090292Y-103298213D01*
X92090288Y-103298210D01*
X91959185Y-103210609D01*
X91959172Y-103210602D01*
X91813501Y-103150264D01*
X91813489Y-103150261D01*
X91658845Y-103119500D01*
X91658842Y-103119500D01*
X91501158Y-103119500D01*
X91501155Y-103119500D01*
X91346510Y-103150261D01*
X91346498Y-103150264D01*
X91200828Y-103210602D01*
X91200812Y-103210611D01*
X91171372Y-103230282D01*
X91104694Y-103251159D01*
X91037314Y-103232673D01*
X91033593Y-103230282D01*
X90989182Y-103200608D01*
X90989181Y-103200607D01*
X90989179Y-103200606D01*
X90989176Y-103200604D01*
X90989171Y-103200602D01*
X90843501Y-103140264D01*
X90843489Y-103140261D01*
X90688845Y-103109500D01*
X90688842Y-103109500D01*
X90531158Y-103109500D01*
X90531155Y-103109500D01*
X90376510Y-103140261D01*
X90376498Y-103140264D01*
X90230827Y-103200602D01*
X90230814Y-103200609D01*
X90099711Y-103288210D01*
X90099707Y-103288213D01*
X89988213Y-103399707D01*
X89988210Y-103399711D01*
X89900609Y-103530814D01*
X89900602Y-103530827D01*
X89840264Y-103676498D01*
X89840261Y-103676508D01*
X89818141Y-103787714D01*
X89809376Y-103804468D01*
X89805358Y-103822945D01*
X89786610Y-103847991D01*
X89785756Y-103849625D01*
X89784209Y-103851200D01*
X89771270Y-103864139D01*
X89771267Y-103864142D01*
X89727703Y-103907705D01*
X89684140Y-103951268D01*
X89683284Y-103952550D01*
X89682662Y-103953069D01*
X89680278Y-103955975D01*
X89679726Y-103955522D01*
X89629668Y-103997351D01*
X89619203Y-104001353D01*
X89618488Y-104001589D01*
X89618487Y-104001590D01*
X89471648Y-104092161D01*
X89349661Y-104214148D01*
X89259093Y-104360981D01*
X89259091Y-104360986D01*
X89249751Y-104389172D01*
X89204826Y-104524747D01*
X89204826Y-104524748D01*
X89204825Y-104524748D01*
X89194500Y-104625815D01*
X89194500Y-105224169D01*
X89194501Y-105224187D01*
X89204825Y-105325252D01*
X89224319Y-105384080D01*
X89259092Y-105489016D01*
X89345915Y-105629779D01*
X89349661Y-105635851D01*
X89463629Y-105749819D01*
X89497114Y-105811142D01*
X89492130Y-105880834D01*
X89463629Y-105925181D01*
X89349661Y-106039148D01*
X89259093Y-106185981D01*
X89259091Y-106185986D01*
X89247936Y-106219650D01*
X89204826Y-106349747D01*
X89204826Y-106349748D01*
X89204825Y-106349748D01*
X89194500Y-106450815D01*
X89194500Y-107049169D01*
X89194502Y-107049192D01*
X89195414Y-107058120D01*
X89182643Y-107126812D01*
X89134762Y-107177696D01*
X89066971Y-107194615D01*
X89053669Y-107192930D01*
X88946678Y-107182000D01*
X88373330Y-107182000D01*
X88373312Y-107182001D01*
X88272247Y-107192325D01*
X88108484Y-107246592D01*
X88108479Y-107246595D01*
X88052077Y-107281383D01*
X87984684Y-107299822D01*
X87918021Y-107278898D01*
X87873253Y-107225256D01*
X87872099Y-107222116D01*
X87872068Y-107222130D01*
X87809397Y-107070827D01*
X87809390Y-107070814D01*
X87721789Y-106939711D01*
X87721786Y-106939707D01*
X87610292Y-106828213D01*
X87610288Y-106828210D01*
X87479185Y-106740609D01*
X87479172Y-106740602D01*
X87333501Y-106680264D01*
X87333489Y-106680261D01*
X87178845Y-106649500D01*
X87178842Y-106649500D01*
X87021158Y-106649500D01*
X87021155Y-106649500D01*
X86866510Y-106680261D01*
X86866498Y-106680264D01*
X86720827Y-106740602D01*
X86720814Y-106740609D01*
X86589711Y-106828210D01*
X86589707Y-106828213D01*
X86478213Y-106939707D01*
X86478210Y-106939711D01*
X86390609Y-107070814D01*
X86390602Y-107070827D01*
X86330264Y-107216498D01*
X86330261Y-107216510D01*
X86299500Y-107371153D01*
X86299500Y-107528846D01*
X86330261Y-107683489D01*
X86330264Y-107683501D01*
X86390602Y-107829172D01*
X86390609Y-107829185D01*
X86478210Y-107960288D01*
X86478213Y-107960292D01*
X86589707Y-108071786D01*
X86589711Y-108071789D01*
X86720814Y-108159390D01*
X86720827Y-108159397D01*
X86842363Y-108209738D01*
X86866503Y-108219737D01*
X86987033Y-108243712D01*
X87021153Y-108250499D01*
X87021156Y-108250500D01*
X87021158Y-108250500D01*
X87178844Y-108250500D01*
X87178845Y-108250499D01*
X87333497Y-108219737D01*
X87446166Y-108173067D01*
X87479172Y-108159397D01*
X87479173Y-108159396D01*
X87479179Y-108159394D01*
X87491606Y-108151090D01*
X87558281Y-108130210D01*
X87625662Y-108148691D01*
X87672354Y-108200668D01*
X87684500Y-108254190D01*
X87684500Y-108569168D01*
X87684501Y-108569187D01*
X87694825Y-108670252D01*
X87731109Y-108779749D01*
X87742489Y-108814091D01*
X87749092Y-108834015D01*
X87749095Y-108834022D01*
X87796208Y-108910404D01*
X87814648Y-108977796D01*
X87793725Y-109044460D01*
X87740083Y-109089229D01*
X87690669Y-109099500D01*
X87056981Y-109099500D01*
X86989942Y-109079815D01*
X86951442Y-109040596D01*
X86950266Y-109038690D01*
X86942840Y-109026650D01*
X86820850Y-108904660D01*
X86674016Y-108814092D01*
X86510253Y-108759826D01*
X86510251Y-108759825D01*
X86409178Y-108749500D01*
X85810830Y-108749500D01*
X85810812Y-108749501D01*
X85709747Y-108759825D01*
X85545984Y-108814092D01*
X85545981Y-108814093D01*
X85399148Y-108904661D01*
X85285181Y-109018629D01*
X85223858Y-109052114D01*
X85154166Y-109047130D01*
X85109819Y-109018629D01*
X84995851Y-108904661D01*
X84995850Y-108904660D01*
X84849016Y-108814092D01*
X84685253Y-108759826D01*
X84685251Y-108759825D01*
X84584184Y-108749500D01*
X84584177Y-108749500D01*
X84373840Y-108749500D01*
X84321479Y-108736385D01*
X84321122Y-108737247D01*
X84315495Y-108734916D01*
X84178913Y-108678342D01*
X84178907Y-108678340D01*
X84033920Y-108649500D01*
X84033918Y-108649500D01*
X83843862Y-108649500D01*
X83824902Y-108643932D01*
X83805153Y-108643303D01*
X83792066Y-108634291D01*
X83776823Y-108629815D01*
X83763884Y-108614883D01*
X83747609Y-108603675D01*
X83736396Y-108583160D01*
X83731068Y-108577011D01*
X83729483Y-108573391D01*
X83727518Y-108568699D01*
X83727484Y-108568535D01*
X83692713Y-108462996D01*
X83665588Y-108420789D01*
X83661397Y-108410779D01*
X83658683Y-108386413D01*
X83651776Y-108362890D01*
X83654884Y-108352303D01*
X83653663Y-108341338D01*
X83664553Y-108319372D01*
X83671460Y-108295850D01*
X83672593Y-108294119D01*
X83749394Y-108179179D01*
X83809737Y-108033497D01*
X83840500Y-107878842D01*
X83840500Y-107721158D01*
X83840500Y-107721155D01*
X83840499Y-107721153D01*
X83835396Y-107695501D01*
X83809737Y-107566503D01*
X83803444Y-107551310D01*
X83749397Y-107420827D01*
X83749395Y-107420823D01*
X83749394Y-107420821D01*
X83709525Y-107361153D01*
X84089500Y-107361153D01*
X84089500Y-107518846D01*
X84120261Y-107673489D01*
X84120264Y-107673501D01*
X84180602Y-107819172D01*
X84180609Y-107819185D01*
X84268210Y-107950288D01*
X84268213Y-107950292D01*
X84379707Y-108061786D01*
X84379711Y-108061789D01*
X84510814Y-108149390D01*
X84510827Y-108149397D01*
X84632382Y-108199746D01*
X84656503Y-108209737D01*
X84779215Y-108234146D01*
X84811153Y-108240499D01*
X84811156Y-108240500D01*
X84811158Y-108240500D01*
X84968844Y-108240500D01*
X84968845Y-108240499D01*
X85123497Y-108209737D01*
X85239496Y-108161689D01*
X85269172Y-108149397D01*
X85269172Y-108149396D01*
X85269179Y-108149394D01*
X85400289Y-108061789D01*
X85511789Y-107950289D01*
X85599394Y-107819179D01*
X85659737Y-107673497D01*
X85690500Y-107518842D01*
X85690500Y-107361158D01*
X85690500Y-107361155D01*
X85690499Y-107361153D01*
X85680684Y-107311811D01*
X85659737Y-107206503D01*
X85652423Y-107188846D01*
X85599397Y-107060827D01*
X85599390Y-107060814D01*
X85511789Y-106929711D01*
X85511786Y-106929707D01*
X85400292Y-106818213D01*
X85400288Y-106818210D01*
X85269185Y-106730609D01*
X85269172Y-106730602D01*
X85123501Y-106670264D01*
X85123489Y-106670261D01*
X84968845Y-106639500D01*
X84968842Y-106639500D01*
X84811158Y-106639500D01*
X84811155Y-106639500D01*
X84656510Y-106670261D01*
X84656498Y-106670264D01*
X84510827Y-106730602D01*
X84510814Y-106730609D01*
X84379711Y-106818210D01*
X84379707Y-106818213D01*
X84268213Y-106929707D01*
X84268210Y-106929711D01*
X84180609Y-107060814D01*
X84180602Y-107060827D01*
X84120264Y-107206498D01*
X84120261Y-107206510D01*
X84089500Y-107361153D01*
X83709525Y-107361153D01*
X83661789Y-107289711D01*
X83661786Y-107289707D01*
X83550292Y-107178213D01*
X83550288Y-107178210D01*
X83419185Y-107090609D01*
X83419172Y-107090602D01*
X83273501Y-107030264D01*
X83273489Y-107030261D01*
X83118845Y-106999500D01*
X83118842Y-106999500D01*
X82994500Y-106999500D01*
X82927461Y-106979815D01*
X82881706Y-106927011D01*
X82870500Y-106875500D01*
X82870500Y-106771155D01*
X82870499Y-106771153D01*
X82850431Y-106670264D01*
X82839737Y-106616503D01*
X82800130Y-106520884D01*
X82792662Y-106451416D01*
X82811592Y-106404540D01*
X82822553Y-106388137D01*
X82882896Y-106242455D01*
X82913659Y-106087800D01*
X82913659Y-105930116D01*
X82913659Y-105930113D01*
X82913658Y-105930111D01*
X82897212Y-105847434D01*
X82882896Y-105775461D01*
X82853819Y-105705263D01*
X82822556Y-105629786D01*
X82822555Y-105629785D01*
X82822553Y-105629779D01*
X82822549Y-105629773D01*
X82819680Y-105624405D01*
X82821735Y-105623306D01*
X82803959Y-105566495D01*
X82813378Y-105516856D01*
X82843802Y-105443408D01*
X82874565Y-105288753D01*
X82874565Y-105131069D01*
X82874565Y-105131066D01*
X82874564Y-105131064D01*
X82873997Y-105128213D01*
X82843802Y-104976414D01*
X82791904Y-104851122D01*
X82784436Y-104781654D01*
X82791903Y-104756223D01*
X82838627Y-104643422D01*
X82869390Y-104488767D01*
X82869390Y-104331083D01*
X82869390Y-104331080D01*
X82869389Y-104331078D01*
X82846130Y-104214148D01*
X82838627Y-104176428D01*
X82794884Y-104070823D01*
X82787416Y-104001358D01*
X82794883Y-103975925D01*
X82849737Y-103843497D01*
X82880500Y-103688842D01*
X82880500Y-103531158D01*
X82880500Y-103531155D01*
X82880499Y-103531153D01*
X82867807Y-103467346D01*
X82849737Y-103376503D01*
X82841233Y-103355972D01*
X82812357Y-103286258D01*
X82794081Y-103242135D01*
X83929500Y-103242135D01*
X83929500Y-104337870D01*
X83929501Y-104337876D01*
X83935908Y-104397483D01*
X83986202Y-104532328D01*
X83986206Y-104532335D01*
X84072452Y-104647544D01*
X84072455Y-104647547D01*
X84187664Y-104733793D01*
X84187671Y-104733797D01*
X84322517Y-104784091D01*
X84322516Y-104784091D01*
X84329444Y-104784835D01*
X84382127Y-104790500D01*
X85477872Y-104790499D01*
X85537483Y-104784091D01*
X85672331Y-104733796D01*
X85787546Y-104647546D01*
X85873796Y-104532331D01*
X85924091Y-104397483D01*
X85930500Y-104337873D01*
X85930499Y-103242128D01*
X85924091Y-103182517D01*
X85920265Y-103172260D01*
X85873797Y-103047671D01*
X85873793Y-103047664D01*
X85787547Y-102932455D01*
X85787544Y-102932452D01*
X85672335Y-102846206D01*
X85672328Y-102846202D01*
X85537482Y-102795908D01*
X85537483Y-102795908D01*
X85477883Y-102789501D01*
X85477881Y-102789500D01*
X85477873Y-102789500D01*
X85477864Y-102789500D01*
X84382129Y-102789500D01*
X84382123Y-102789501D01*
X84322516Y-102795908D01*
X84187671Y-102846202D01*
X84187664Y-102846206D01*
X84072455Y-102932452D01*
X84072452Y-102932455D01*
X83986206Y-103047664D01*
X83986202Y-103047671D01*
X83935908Y-103182517D01*
X83929700Y-103240263D01*
X83929501Y-103242123D01*
X83929500Y-103242135D01*
X82794081Y-103242135D01*
X82789397Y-103230827D01*
X82789390Y-103230814D01*
X82701789Y-103099711D01*
X82701786Y-103099707D01*
X82590292Y-102988213D01*
X82590288Y-102988210D01*
X82459185Y-102900609D01*
X82459172Y-102900602D01*
X82313501Y-102840264D01*
X82313489Y-102840261D01*
X82158845Y-102809500D01*
X82158842Y-102809500D01*
X82001158Y-102809500D01*
X82001155Y-102809500D01*
X81846510Y-102840261D01*
X81846498Y-102840264D01*
X81700827Y-102900602D01*
X81700814Y-102900609D01*
X81569714Y-102988208D01*
X81569711Y-102988210D01*
X81568273Y-102989649D01*
X81567335Y-102990160D01*
X81565007Y-102992072D01*
X81564644Y-102991630D01*
X81506947Y-103023129D01*
X81467348Y-103025249D01*
X81460373Y-103024500D01*
X81460369Y-103024500D01*
X79864629Y-103024500D01*
X79864623Y-103024501D01*
X79805016Y-103030908D01*
X79670171Y-103081202D01*
X79670164Y-103081206D01*
X79554955Y-103167452D01*
X79554952Y-103167455D01*
X79468706Y-103282664D01*
X79468702Y-103282671D01*
X79421320Y-103409711D01*
X79418409Y-103417517D01*
X79412000Y-103477127D01*
X79412000Y-103477134D01*
X79412000Y-103477135D01*
X79412000Y-104122870D01*
X79412001Y-104122879D01*
X79418867Y-104186751D01*
X79418867Y-104213257D01*
X79418409Y-104217516D01*
X79418409Y-104217517D01*
X79412000Y-104277127D01*
X79412000Y-104277132D01*
X79412000Y-104779823D01*
X79392315Y-104846862D01*
X79339511Y-104892617D01*
X79286218Y-104903810D01*
X78119869Y-104887046D01*
X78053119Y-104866400D01*
X78022387Y-104837373D01*
X77970046Y-104767454D01*
X77970044Y-104767452D01*
X77970043Y-104767451D01*
X77854835Y-104681206D01*
X77854828Y-104681202D01*
X77719982Y-104630908D01*
X77719983Y-104630908D01*
X77660383Y-104624501D01*
X77660381Y-104624500D01*
X77660373Y-104624500D01*
X77660365Y-104624500D01*
X76104145Y-104624500D01*
X76037106Y-104604815D01*
X75991351Y-104552011D01*
X75981407Y-104482853D01*
X76001044Y-104431608D01*
X76029389Y-104389187D01*
X76029390Y-104389184D01*
X76029394Y-104389179D01*
X76089737Y-104243497D01*
X76120500Y-104088842D01*
X76120500Y-103931158D01*
X76120500Y-103931155D01*
X76120499Y-103931153D01*
X76110806Y-103882423D01*
X76089737Y-103776503D01*
X76089735Y-103776498D01*
X76029397Y-103630827D01*
X76029390Y-103630814D01*
X75941789Y-103499711D01*
X75941786Y-103499707D01*
X75830292Y-103388213D01*
X75830288Y-103388210D01*
X75699185Y-103300609D01*
X75699172Y-103300602D01*
X75553501Y-103240264D01*
X75553489Y-103240261D01*
X75398845Y-103209500D01*
X75398842Y-103209500D01*
X75241158Y-103209500D01*
X75241155Y-103209500D01*
X75086510Y-103240261D01*
X75086498Y-103240264D01*
X74940828Y-103300602D01*
X74940816Y-103300609D01*
X74924004Y-103311842D01*
X74921920Y-103312494D01*
X74920464Y-103314121D01*
X74888732Y-103322884D01*
X74857326Y-103332717D01*
X74854561Y-103332321D01*
X74853116Y-103332721D01*
X74843712Y-103330771D01*
X74818267Y-103327135D01*
X74812872Y-103325456D01*
X74716354Y-103285477D01*
X74627877Y-103267877D01*
X74621632Y-103265934D01*
X74597771Y-103250050D01*
X74572380Y-103236768D01*
X74569059Y-103230935D01*
X74563471Y-103227216D01*
X74551985Y-103200952D01*
X74537806Y-103176052D01*
X74538165Y-103169351D01*
X74535475Y-103163200D01*
X74540011Y-103134901D01*
X74541545Y-103106283D01*
X74545640Y-103099782D01*
X74546534Y-103094211D01*
X74555375Y-103084333D01*
X74570798Y-103059858D01*
X74693839Y-102936816D01*
X74755161Y-102903334D01*
X74781519Y-102900500D01*
X75805013Y-102900500D01*
X75864442Y-102915669D01*
X75870169Y-102918796D01*
X76005017Y-102969091D01*
X76005016Y-102969091D01*
X76011944Y-102969835D01*
X76064627Y-102975500D01*
X77660372Y-102975499D01*
X77719983Y-102969091D01*
X77854831Y-102918796D01*
X77854833Y-102918793D01*
X77860558Y-102915669D01*
X77919987Y-102900500D01*
X78148996Y-102900500D01*
X78256130Y-102879189D01*
X78284328Y-102873580D01*
X78364763Y-102840263D01*
X78411807Y-102820777D01*
X78411808Y-102820776D01*
X78411811Y-102820775D01*
X78526543Y-102744114D01*
X79649551Y-101621104D01*
X79710872Y-101587621D01*
X79780563Y-101592605D01*
X79806121Y-101605685D01*
X79895079Y-101665125D01*
X79895092Y-101665132D01*
X80019571Y-101716692D01*
X80040768Y-101725472D01*
X80178848Y-101752938D01*
X80195418Y-101756234D01*
X80195421Y-101756235D01*
X80195423Y-101756235D01*
X80353109Y-101756235D01*
X80353110Y-101756234D01*
X80507762Y-101725472D01*
X80630965Y-101674440D01*
X80653437Y-101665132D01*
X80653437Y-101665131D01*
X80653444Y-101665129D01*
X80784554Y-101577524D01*
X80896054Y-101466024D01*
X80983659Y-101334914D01*
X81044002Y-101189232D01*
X81074765Y-101034577D01*
X81074765Y-100876893D01*
X81074765Y-100876890D01*
X81074764Y-100876888D01*
X81058422Y-100794732D01*
X81044002Y-100722238D01*
X81035365Y-100701386D01*
X80983662Y-100576562D01*
X80983655Y-100576549D01*
X80896054Y-100445446D01*
X80896051Y-100445442D01*
X80784557Y-100333948D01*
X80784553Y-100333945D01*
X80653450Y-100246344D01*
X80653437Y-100246337D01*
X80509079Y-100186543D01*
X80468850Y-100159663D01*
X80336819Y-100027632D01*
X80303334Y-99966309D01*
X80300500Y-99939951D01*
X80300500Y-99918535D01*
X80320185Y-99851496D01*
X80372989Y-99805741D01*
X80442147Y-99795797D01*
X80505703Y-99824822D01*
X80523762Y-99844219D01*
X80552454Y-99882546D01*
X80552455Y-99882546D01*
X80552456Y-99882548D01*
X80667664Y-99968793D01*
X80667671Y-99968797D01*
X80710881Y-99984913D01*
X80802517Y-100019091D01*
X80862127Y-100025500D01*
X81557872Y-100025499D01*
X81617483Y-100019091D01*
X81752331Y-99968796D01*
X81867546Y-99882546D01*
X81890164Y-99852330D01*
X81946096Y-99810459D01*
X82013624Y-99805023D01*
X82017234Y-99805741D01*
X82041157Y-99810500D01*
X82041158Y-99810500D01*
X82198843Y-99810500D01*
X82222767Y-99805741D01*
X82296008Y-99791172D01*
X82365597Y-99797399D01*
X82419463Y-99838477D01*
X82452454Y-99882546D01*
X82469287Y-99895147D01*
X82567664Y-99968793D01*
X82567671Y-99968797D01*
X82610881Y-99984913D01*
X82702517Y-100019091D01*
X82762127Y-100025500D01*
X83457872Y-100025499D01*
X83517483Y-100019091D01*
X83652331Y-99968796D01*
X83753489Y-99893068D01*
X83818950Y-99868652D01*
X83887223Y-99883503D01*
X83936629Y-99932907D01*
X83946457Y-99956336D01*
X83982076Y-100073756D01*
X84001614Y-100138165D01*
X84088168Y-100347124D01*
X84128892Y-100445442D01*
X84140754Y-100474078D01*
X84140756Y-100474083D01*
X84312140Y-100794720D01*
X84312151Y-100794738D01*
X84514140Y-101097035D01*
X84514150Y-101097049D01*
X84744807Y-101378106D01*
X85001893Y-101635192D01*
X85001898Y-101635196D01*
X85001899Y-101635197D01*
X85282956Y-101865854D01*
X85585268Y-102067853D01*
X85585277Y-102067858D01*
X85585279Y-102067859D01*
X85905916Y-102239243D01*
X85905918Y-102239243D01*
X85905924Y-102239247D01*
X86241836Y-102378386D01*
X86589767Y-102483930D01*
X86589773Y-102483931D01*
X86589776Y-102483932D01*
X86589787Y-102483935D01*
X86946369Y-102554862D01*
X87308206Y-102590500D01*
X87308209Y-102590500D01*
X87671791Y-102590500D01*
X87671794Y-102590500D01*
X88033631Y-102554862D01*
X88103045Y-102541054D01*
X88390212Y-102483935D01*
X88390223Y-102483932D01*
X88390223Y-102483931D01*
X88390233Y-102483930D01*
X88738164Y-102378386D01*
X89074076Y-102239247D01*
X89394732Y-102067853D01*
X89697044Y-101865854D01*
X89978101Y-101635197D01*
X90235197Y-101378101D01*
X90465854Y-101097044D01*
X90667853Y-100794732D01*
X90839247Y-100474076D01*
X90978386Y-100138164D01*
X91083930Y-99790233D01*
X91083932Y-99790223D01*
X91083935Y-99790212D01*
X91154862Y-99433630D01*
X91162662Y-99354436D01*
X91190500Y-99071794D01*
X91190500Y-98708206D01*
X91154862Y-98346369D01*
X91147266Y-98308181D01*
X91083935Y-97989787D01*
X91083932Y-97989776D01*
X91083931Y-97989773D01*
X91083930Y-97989767D01*
X90978386Y-97641836D01*
X90839247Y-97305924D01*
X90839231Y-97305895D01*
X90667859Y-96985279D01*
X90667858Y-96985277D01*
X90667853Y-96985268D01*
X90465854Y-96682956D01*
X90235197Y-96401899D01*
X90235196Y-96401898D01*
X90235192Y-96401893D01*
X89978106Y-96144807D01*
X89943929Y-96116759D01*
X89887382Y-96070352D01*
X89848049Y-96012608D01*
X89846178Y-95942763D01*
X89882365Y-95882995D01*
X89945121Y-95852279D01*
X89966048Y-95850500D01*
X108591966Y-95850500D01*
X108591969Y-95850500D01*
X108934250Y-95816789D01*
X109271578Y-95749690D01*
X109600705Y-95649850D01*
X109918462Y-95518231D01*
X110112263Y-95414642D01*
X110170716Y-95400000D01*
X110400000Y-95400000D01*
X110400000Y-95303300D01*
X110419685Y-95236261D01*
X110455105Y-95200201D01*
X110507760Y-95165019D01*
X110773627Y-94946828D01*
X111016828Y-94703627D01*
X111235019Y-94437760D01*
X111426100Y-94151787D01*
X111588231Y-93848462D01*
X111719850Y-93530705D01*
X111819690Y-93201578D01*
X111886789Y-92864250D01*
X111920500Y-92521969D01*
X111920500Y-92350000D01*
X111920500Y-92284108D01*
X111920500Y-75273750D01*
X111920726Y-75266263D01*
X111938271Y-74976205D01*
X111940076Y-74961340D01*
X111991780Y-74679201D01*
X111995364Y-74664663D01*
X112072096Y-74418422D01*
X112080696Y-74390822D01*
X112085998Y-74376841D01*
X112203731Y-74115249D01*
X112210676Y-74102016D01*
X112359080Y-73856526D01*
X112367567Y-73844230D01*
X112544480Y-73618417D01*
X112554395Y-73607226D01*
X112757226Y-73404395D01*
X112768417Y-73394480D01*
X112994230Y-73217567D01*
X113006526Y-73209080D01*
X113252016Y-73060676D01*
X113265249Y-73053731D01*
X113526841Y-72935998D01*
X113540822Y-72930696D01*
X113814668Y-72845362D01*
X113829197Y-72841780D01*
X114111344Y-72790075D01*
X114126201Y-72788271D01*
X114416264Y-72770726D01*
X114423751Y-72770500D01*
X114485892Y-72770500D01*
X128054108Y-72770500D01*
X128116249Y-72770500D01*
X128123736Y-72770726D01*
G37*
%TD.AperFunction*%
%TA.AperFunction,Conductor*%
G36*
X106179048Y-108234146D02*
G01*
X106193932Y-108243711D01*
X106250417Y-108285996D01*
X106250418Y-108285996D01*
X106250419Y-108285997D01*
X106271866Y-108293996D01*
X106385265Y-108336291D01*
X106444875Y-108342700D01*
X106794620Y-108342699D01*
X106854231Y-108336291D01*
X106854233Y-108336289D01*
X106856559Y-108336040D01*
X106883070Y-108336041D01*
X106885389Y-108336290D01*
X106885391Y-108336291D01*
X106945001Y-108342700D01*
X107294746Y-108342699D01*
X107354357Y-108336291D01*
X107354359Y-108336289D01*
X107356685Y-108336040D01*
X107383196Y-108336041D01*
X107385515Y-108336290D01*
X107385517Y-108336291D01*
X107445127Y-108342700D01*
X107794872Y-108342699D01*
X107854483Y-108336291D01*
X107854485Y-108336289D01*
X107856811Y-108336040D01*
X107883322Y-108336041D01*
X107885641Y-108336290D01*
X107885643Y-108336291D01*
X107945253Y-108342700D01*
X108294998Y-108342699D01*
X108354609Y-108336291D01*
X108354611Y-108336289D01*
X108356937Y-108336040D01*
X108383448Y-108336041D01*
X108385767Y-108336290D01*
X108385769Y-108336291D01*
X108445379Y-108342700D01*
X108785311Y-108342699D01*
X108852350Y-108362383D01*
X108898105Y-108415187D01*
X108909311Y-108466699D01*
X108909311Y-108811454D01*
X108909312Y-108811461D01*
X108915970Y-108873398D01*
X108915970Y-108899905D01*
X108915720Y-108902227D01*
X108915720Y-108902228D01*
X108909311Y-108961838D01*
X108909311Y-108961841D01*
X108909311Y-108961844D01*
X108909311Y-109311580D01*
X108909312Y-109311587D01*
X108915970Y-109373524D01*
X108915970Y-109400031D01*
X108915720Y-109402353D01*
X108915720Y-109402354D01*
X108909311Y-109461964D01*
X108909311Y-109461967D01*
X108909311Y-109461970D01*
X108909311Y-109811706D01*
X108909312Y-109811713D01*
X108915970Y-109873650D01*
X108915970Y-109900157D01*
X108915720Y-109902479D01*
X108915720Y-109902480D01*
X108909311Y-109962090D01*
X108909311Y-109962093D01*
X108909311Y-109962096D01*
X108909311Y-110311832D01*
X108909312Y-110311839D01*
X108915970Y-110373776D01*
X108915970Y-110400283D01*
X108915720Y-110402605D01*
X108915720Y-110402606D01*
X108909311Y-110462216D01*
X108909311Y-110462219D01*
X108909311Y-110462222D01*
X108909311Y-110811958D01*
X108909312Y-110811965D01*
X108915970Y-110873902D01*
X108915970Y-110900409D01*
X108915720Y-110902731D01*
X108915720Y-110902732D01*
X108909311Y-110962342D01*
X108909311Y-110962344D01*
X108909311Y-110962348D01*
X108909311Y-111307100D01*
X108889626Y-111374139D01*
X108836822Y-111419894D01*
X108785311Y-111431100D01*
X108445382Y-111431100D01*
X108445372Y-111431101D01*
X108383437Y-111437759D01*
X108356931Y-111437759D01*
X108354610Y-111437509D01*
X108354609Y-111437509D01*
X108294999Y-111431100D01*
X108294990Y-111431100D01*
X107945256Y-111431100D01*
X107945246Y-111431101D01*
X107883311Y-111437759D01*
X107856805Y-111437759D01*
X107854484Y-111437509D01*
X107854483Y-111437509D01*
X107794873Y-111431100D01*
X107794864Y-111431100D01*
X107445130Y-111431100D01*
X107445120Y-111431101D01*
X107383185Y-111437759D01*
X107356679Y-111437759D01*
X107354358Y-111437509D01*
X107354357Y-111437509D01*
X107294747Y-111431100D01*
X107294738Y-111431100D01*
X106945004Y-111431100D01*
X106944994Y-111431101D01*
X106883059Y-111437759D01*
X106856553Y-111437759D01*
X106854232Y-111437509D01*
X106854231Y-111437509D01*
X106794621Y-111431100D01*
X106794612Y-111431100D01*
X106444878Y-111431100D01*
X106444868Y-111431101D01*
X106382933Y-111437759D01*
X106356427Y-111437759D01*
X106354106Y-111437509D01*
X106354105Y-111437509D01*
X106294495Y-111431100D01*
X106294486Y-111431100D01*
X105944752Y-111431100D01*
X105944745Y-111431101D01*
X105885138Y-111437508D01*
X105750293Y-111487802D01*
X105750291Y-111487804D01*
X105693807Y-111530088D01*
X105628343Y-111554505D01*
X105560070Y-111539654D01*
X105545185Y-111530088D01*
X105543561Y-111528872D01*
X105488701Y-111487804D01*
X105488699Y-111487803D01*
X105488698Y-111487802D01*
X105353856Y-111437510D01*
X105353855Y-111437509D01*
X105353853Y-111437509D01*
X105294243Y-111431100D01*
X105294234Y-111431100D01*
X104954310Y-111431100D01*
X104887271Y-111411415D01*
X104841516Y-111358611D01*
X104830310Y-111307104D01*
X104830310Y-110962343D01*
X104823902Y-110902732D01*
X104823901Y-110902729D01*
X104823651Y-110900402D01*
X104823652Y-110873892D01*
X104823901Y-110871574D01*
X104823902Y-110871572D01*
X104830311Y-110811962D01*
X104830310Y-110462217D01*
X104823902Y-110402606D01*
X104823901Y-110402603D01*
X104823651Y-110400276D01*
X104823652Y-110373766D01*
X104823901Y-110371448D01*
X104823902Y-110371446D01*
X104830311Y-110311836D01*
X104830310Y-109962091D01*
X104823902Y-109902480D01*
X104823901Y-109902477D01*
X104823651Y-109900150D01*
X104823652Y-109873640D01*
X104823901Y-109871322D01*
X104823902Y-109871320D01*
X104830311Y-109811710D01*
X104830310Y-109461965D01*
X104823902Y-109402354D01*
X104823901Y-109402351D01*
X104823651Y-109400024D01*
X104823652Y-109373514D01*
X104823901Y-109371196D01*
X104823902Y-109371194D01*
X104830311Y-109311584D01*
X104830310Y-108961839D01*
X104824164Y-108904661D01*
X104823902Y-108902227D01*
X104773608Y-108767382D01*
X104773607Y-108767381D01*
X104773607Y-108767380D01*
X104731322Y-108710895D01*
X104706906Y-108645432D01*
X104720927Y-108578706D01*
X104725480Y-108570079D01*
X104773607Y-108505790D01*
X104807808Y-108414089D01*
X104811535Y-108407030D01*
X104830542Y-108387475D01*
X104846886Y-108365643D01*
X104854540Y-108362787D01*
X104860235Y-108356930D01*
X104886797Y-108350756D01*
X104912350Y-108341225D01*
X104926700Y-108341481D01*
X104928290Y-108341112D01*
X104929463Y-108341530D01*
X104934451Y-108341619D01*
X104944497Y-108342700D01*
X105294242Y-108342699D01*
X105353853Y-108336291D01*
X105353855Y-108336289D01*
X105356181Y-108336040D01*
X105382692Y-108336041D01*
X105385011Y-108336290D01*
X105385013Y-108336291D01*
X105444623Y-108342700D01*
X105794368Y-108342699D01*
X105853979Y-108336291D01*
X105988827Y-108285996D01*
X106045311Y-108243711D01*
X106110775Y-108219295D01*
X106179048Y-108234146D01*
G37*
%TD.AperFunction*%
%TD*%
M02*
