%TF.GenerationSoftware,KiCad,Pcbnew,9.0.5*%
%TF.CreationDate,2026-01-13T20:57:06-06:00*%
%TF.ProjectId,Supplemental Monitoring PCB,53757070-6c65-46d6-956e-74616c204d6f,rev?*%
%TF.SameCoordinates,Original*%
%TF.FileFunction,Copper,L3,Inr*%
%TF.FilePolarity,Positive*%
%FSLAX46Y46*%
G04 Gerber Fmt 4.6, Leading zero omitted, Abs format (unit mm)*
G04 Created by KiCad (PCBNEW 9.0.5) date 2026-01-13 20:57:06*
%MOMM*%
%LPD*%
G01*
G04 APERTURE LIST*
%TA.AperFunction,ComponentPad*%
%ADD10C,3.600000*%
%TD*%
%TA.AperFunction,ViaPad*%
%ADD11C,0.600000*%
%TD*%
%TA.AperFunction,Conductor*%
%ADD12C,0.400000*%
%TD*%
%TA.AperFunction,Conductor*%
%ADD13C,0.290000*%
%TD*%
%TA.AperFunction,Conductor*%
%ADD14C,0.200000*%
%TD*%
G04 APERTURE END LIST*
D10*
%TO.N,N/C*%
%TO.C,H4*%
X135330000Y-126550000D03*
%TD*%
%TO.N,N/C*%
%TO.C,H2*%
X170000000Y-103610000D03*
%TD*%
D11*
%TO.N,+3.3V*%
X165555292Y-113100000D03*
X155200000Y-108760000D03*
X155817500Y-114950000D03*
X144285000Y-111870000D03*
X155817500Y-113140000D03*
X166550000Y-105250000D03*
X158242000Y-121736530D03*
X156267900Y-102409999D03*
X140510000Y-118090000D03*
X165555292Y-109600000D03*
X145590000Y-103270000D03*
%TO.N,/SRCLK*%
X154820000Y-107740000D03*
X164747706Y-108347470D03*
X147260000Y-117320000D03*
X145924473Y-107481305D03*
X140420000Y-102530000D03*
%TO.N,/RCLK*%
X144579296Y-106919874D03*
X164750000Y-107488999D03*
X136510000Y-102200000D03*
X147240000Y-116440000D03*
X155030374Y-106968155D03*
%TO.N,/SER*%
X145990000Y-106270000D03*
X144930000Y-101380000D03*
X147451839Y-118101679D03*
%TO.N,GND*%
X160870000Y-128260000D03*
X147380000Y-103925000D03*
X137440000Y-112510000D03*
X142525000Y-106953509D03*
X157342537Y-110373914D03*
X164427256Y-110205094D03*
X141340765Y-114980765D03*
X147040000Y-100870000D03*
X163590000Y-101280000D03*
X152410000Y-121980000D03*
X166950000Y-110760000D03*
X140510000Y-109350000D03*
X169710000Y-120150000D03*
%TO.N,/Status_LED1*%
X139890000Y-118800000D03*
%TO.N,/Status_LED2*%
X139352503Y-115316359D03*
%TO.N,/SUPPMON_I1*%
X147310000Y-120490000D03*
X144190000Y-128290000D03*
X157505735Y-104935735D03*
X149740000Y-120390000D03*
%TO.N,/I_SNS_Reg_In*%
X147028575Y-127009000D03*
X136170000Y-121710000D03*
X148980000Y-111670000D03*
%TO.N,Net-(R25-Pad2)*%
X150290000Y-112200000D03*
X149050000Y-101400000D03*
%TO.N,Net-(R26-Pad2)*%
X150933561Y-103409456D03*
X152980000Y-111130000D03*
X156660000Y-114630000D03*
%TO.N,/SUPPMON_V2*%
X147250000Y-121970000D03*
X156610000Y-119520000D03*
X147020000Y-128270000D03*
%TO.N,Net-(R30-Pad1)*%
X157665000Y-114715000D03*
X153350000Y-102133803D03*
%TO.N,Net-(R16-Pad2)*%
X134180000Y-108270000D03*
X138790000Y-123170000D03*
%TO.N,Net-(R39-Pad1)*%
X160506998Y-101880000D03*
X171250000Y-115410000D03*
%TO.N,Net-(R17-Pad2)*%
X135540000Y-105500000D03*
X138722998Y-124162998D03*
%TO.N,Net-(R18-Pad2)*%
X138920000Y-125070000D03*
X136480000Y-103400000D03*
%TO.N,Net-(R19-Pad2)*%
X142175834Y-110025255D03*
X139830000Y-125980000D03*
%TO.N,Net-(R31-Pad1)*%
X159150000Y-114920000D03*
X151005531Y-101266571D03*
%TO.N,Net-(R32-Pad2)*%
X161990000Y-125740000D03*
X160000000Y-107080000D03*
%TO.N,Net-(R33-Pad2)*%
X159972594Y-106207739D03*
X162617140Y-127030002D03*
%TO.N,Net-(R34-Pad2)*%
X169280000Y-129130000D03*
X160604804Y-105127052D03*
%TO.N,Net-(R35-Pad2)*%
X170370000Y-128980000D03*
X164855292Y-112180000D03*
%TO.N,Net-(U5-QH')*%
X154058779Y-108860000D03*
X145876000Y-108675304D03*
X154440000Y-105860000D03*
%TO.N,Net-(U6-QH')*%
X164570000Y-109180000D03*
X157069872Y-108759999D03*
X165695971Y-107129941D03*
%TO.N,/I_SNS_Reg_Out*%
X142890000Y-110620000D03*
X134900000Y-116240000D03*
%TO.N,/SUPP_IN+*%
X168060000Y-129230000D03*
X148174883Y-127061203D03*
X135159717Y-119470283D03*
%TO.N,/SUPP_REG+*%
X135220000Y-114060000D03*
%TO.N,/SUPPMON_V1*%
X147180000Y-124600000D03*
X145630000Y-127430000D03*
X159200000Y-119930000D03*
%TO.N,/SUPPMON_I2*%
X141570000Y-128290000D03*
X150340000Y-118880000D03*
X147400000Y-118900000D03*
%TD*%
D12*
%TO.N,+3.3V*%
X155817500Y-113140000D02*
X165515292Y-113140000D01*
D13*
X155200000Y-112522500D02*
X155817500Y-113140000D01*
D12*
X144575000Y-113120000D02*
X155797500Y-113120000D01*
X165515292Y-113140000D02*
X165555292Y-113100000D01*
X144285000Y-111870000D02*
X144285000Y-112830000D01*
X155797500Y-113120000D02*
X155817500Y-113140000D01*
D13*
X155200000Y-108760000D02*
X155200000Y-112522500D01*
D12*
X144285000Y-112830000D02*
X144575000Y-113120000D01*
D14*
%TO.N,/SRCLK*%
X164747706Y-108347470D02*
X164577470Y-108347470D01*
X153070000Y-107470000D02*
X145935778Y-107470000D01*
X154489415Y-107409415D02*
X153149415Y-107409415D01*
X153140000Y-107400000D02*
X153070000Y-107470000D01*
X155330816Y-107740000D02*
X154820000Y-107740000D01*
X154820000Y-107740000D02*
X154489415Y-107409415D01*
X164577470Y-108347470D02*
X164390000Y-108160000D01*
X155750816Y-108160000D02*
X155330816Y-107740000D01*
X153149415Y-107409415D02*
X153140000Y-107400000D01*
X145935778Y-107470000D02*
X145924473Y-107481305D01*
X164390000Y-108160000D02*
X155750816Y-108160000D01*
%TO.N,/RCLK*%
X144766675Y-106870000D02*
X144716801Y-106919874D01*
X155030374Y-106968155D02*
X154932219Y-106870000D01*
X144716801Y-106919874D02*
X144579296Y-106919874D01*
X154932219Y-106870000D02*
X144766675Y-106870000D01*
X156990000Y-107680000D02*
X156278155Y-106968155D01*
X156278155Y-106968155D02*
X155030374Y-106968155D01*
X164750000Y-107488999D02*
X164750000Y-107508028D01*
X164578028Y-107680000D02*
X156990000Y-107680000D01*
X164750000Y-107508028D02*
X164578028Y-107680000D01*
%TO.N,/SUPPMON_I1*%
X147310000Y-120490000D02*
X149640000Y-120490000D01*
X149640000Y-120490000D02*
X149740000Y-120390000D01*
%TO.N,/SUPPMON_V2*%
X147250000Y-122090000D02*
X148330000Y-123170000D01*
X156610000Y-121090000D02*
X156610000Y-119520000D01*
X147250000Y-121970000D02*
X147250000Y-122090000D01*
X154530000Y-123170000D02*
X156610000Y-121090000D01*
X148330000Y-123170000D02*
X154530000Y-123170000D01*
%TO.N,Net-(U5-QH')*%
X153670998Y-107871000D02*
X146680304Y-107871000D01*
X146680304Y-107871000D02*
X145876000Y-108675304D01*
X154058779Y-108860000D02*
X154058779Y-108258781D01*
X154058779Y-108258781D02*
X153670998Y-107871000D01*
%TO.N,Net-(U6-QH')*%
X164200000Y-109180000D02*
X163779999Y-108759999D01*
X163779999Y-108759999D02*
X157069872Y-108759999D01*
X164570000Y-109180000D02*
X164200000Y-109180000D01*
%TO.N,/SUPP_IN+*%
X148174883Y-127061203D02*
X150353680Y-129240000D01*
X150353680Y-129240000D02*
X168050000Y-129240000D01*
X168050000Y-129240000D02*
X168060000Y-129230000D01*
%TO.N,/SUPPMON_V1*%
X147180000Y-124600000D02*
X148030000Y-123750000D01*
X148030000Y-123750000D02*
X155380000Y-123750000D01*
X155380000Y-123750000D02*
X159200000Y-119930000D01*
%TO.N,/SUPPMON_I2*%
X147400000Y-118900000D02*
X150320000Y-118900000D01*
X150320000Y-118900000D02*
X150340000Y-118880000D01*
%TD*%
%TA.AperFunction,Conductor*%
%TO.N,GND*%
G36*
X150786244Y-100280185D02*
G01*
X150831999Y-100332989D01*
X150841943Y-100402147D01*
X150812918Y-100465703D01*
X150766657Y-100499061D01*
X150626358Y-100557173D01*
X150626345Y-100557180D01*
X150495242Y-100644781D01*
X150495238Y-100644784D01*
X150383744Y-100756278D01*
X150383741Y-100756282D01*
X150296140Y-100887385D01*
X150296133Y-100887398D01*
X150235795Y-101033069D01*
X150235792Y-101033081D01*
X150205031Y-101187724D01*
X150205031Y-101345417D01*
X150235792Y-101500060D01*
X150235795Y-101500072D01*
X150296133Y-101645743D01*
X150296140Y-101645756D01*
X150383741Y-101776859D01*
X150383744Y-101776863D01*
X150495238Y-101888357D01*
X150495242Y-101888360D01*
X150626345Y-101975961D01*
X150626358Y-101975968D01*
X150758799Y-102030826D01*
X150772034Y-102036308D01*
X150901070Y-102061975D01*
X150926684Y-102067070D01*
X150926687Y-102067071D01*
X150926689Y-102067071D01*
X151084375Y-102067071D01*
X151084376Y-102067070D01*
X151145278Y-102054956D01*
X152549500Y-102054956D01*
X152549500Y-102212649D01*
X152580261Y-102367292D01*
X152580264Y-102367304D01*
X152640602Y-102512975D01*
X152640609Y-102512988D01*
X152728210Y-102644091D01*
X152728213Y-102644095D01*
X152839707Y-102755589D01*
X152839711Y-102755592D01*
X152970814Y-102843193D01*
X152970827Y-102843200D01*
X153116498Y-102903538D01*
X153116503Y-102903540D01*
X153271153Y-102934302D01*
X153271156Y-102934303D01*
X153271158Y-102934303D01*
X153428844Y-102934303D01*
X153428845Y-102934302D01*
X153583497Y-102903540D01*
X153729179Y-102843197D01*
X153860289Y-102755592D01*
X153971789Y-102644092D01*
X154059394Y-102512982D01*
X154064032Y-102501786D01*
X154085004Y-102451153D01*
X154119737Y-102367300D01*
X154122658Y-102352615D01*
X154126928Y-102331152D01*
X155467400Y-102331152D01*
X155467400Y-102488845D01*
X155498161Y-102643488D01*
X155498164Y-102643500D01*
X155558502Y-102789171D01*
X155558509Y-102789184D01*
X155646110Y-102920287D01*
X155646113Y-102920291D01*
X155757607Y-103031785D01*
X155757611Y-103031788D01*
X155888714Y-103119389D01*
X155888727Y-103119396D01*
X155987318Y-103160233D01*
X156034403Y-103179736D01*
X156189053Y-103210498D01*
X156189056Y-103210499D01*
X156189058Y-103210499D01*
X156346744Y-103210499D01*
X156346745Y-103210498D01*
X156501397Y-103179736D01*
X156647079Y-103119393D01*
X156778189Y-103031788D01*
X156889689Y-102920288D01*
X156977294Y-102789178D01*
X157037637Y-102643496D01*
X157068400Y-102488841D01*
X157068400Y-102331157D01*
X157068400Y-102331154D01*
X157068399Y-102331152D01*
X157061506Y-102296498D01*
X157037637Y-102176502D01*
X157014711Y-102121153D01*
X156977297Y-102030826D01*
X156977290Y-102030813D01*
X156889689Y-101899710D01*
X156889686Y-101899706D01*
X156791133Y-101801153D01*
X159706498Y-101801153D01*
X159706498Y-101958846D01*
X159737259Y-102113489D01*
X159737262Y-102113501D01*
X159797600Y-102259172D01*
X159797607Y-102259185D01*
X159885208Y-102390288D01*
X159885211Y-102390292D01*
X159996705Y-102501786D01*
X159996709Y-102501789D01*
X160127812Y-102589390D01*
X160127825Y-102589397D01*
X160259880Y-102644095D01*
X160273501Y-102649737D01*
X160428151Y-102680499D01*
X160428154Y-102680500D01*
X160428156Y-102680500D01*
X160585842Y-102680500D01*
X160585843Y-102680499D01*
X160740495Y-102649737D01*
X160883898Y-102590338D01*
X160886170Y-102589397D01*
X160886170Y-102589396D01*
X160886177Y-102589394D01*
X161017287Y-102501789D01*
X161128787Y-102390289D01*
X161216392Y-102259179D01*
X161276735Y-102113497D01*
X161307498Y-101958842D01*
X161307498Y-101801158D01*
X161307498Y-101801155D01*
X161307497Y-101801153D01*
X161287497Y-101700608D01*
X161276735Y-101646503D01*
X161274149Y-101640260D01*
X161216395Y-101500827D01*
X161216388Y-101500814D01*
X161128787Y-101369711D01*
X161128784Y-101369707D01*
X161017290Y-101258213D01*
X161017286Y-101258210D01*
X160886183Y-101170609D01*
X160886170Y-101170602D01*
X160740499Y-101110264D01*
X160740487Y-101110261D01*
X160585843Y-101079500D01*
X160585840Y-101079500D01*
X160428156Y-101079500D01*
X160428153Y-101079500D01*
X160273508Y-101110261D01*
X160273496Y-101110264D01*
X160127825Y-101170602D01*
X160127812Y-101170609D01*
X159996709Y-101258210D01*
X159996705Y-101258213D01*
X159885211Y-101369707D01*
X159885208Y-101369711D01*
X159797607Y-101500814D01*
X159797600Y-101500827D01*
X159737262Y-101646498D01*
X159737259Y-101646510D01*
X159706498Y-101801153D01*
X156791133Y-101801153D01*
X156778192Y-101788212D01*
X156778188Y-101788209D01*
X156647085Y-101700608D01*
X156647072Y-101700601D01*
X156501401Y-101640263D01*
X156501389Y-101640260D01*
X156346745Y-101609499D01*
X156346742Y-101609499D01*
X156189058Y-101609499D01*
X156189055Y-101609499D01*
X156034410Y-101640260D01*
X156034398Y-101640263D01*
X155888727Y-101700601D01*
X155888714Y-101700608D01*
X155757611Y-101788209D01*
X155757607Y-101788212D01*
X155646113Y-101899706D01*
X155646110Y-101899710D01*
X155558509Y-102030813D01*
X155558502Y-102030826D01*
X155498164Y-102176497D01*
X155498161Y-102176509D01*
X155467400Y-102331152D01*
X154126928Y-102331152D01*
X154132951Y-102300873D01*
X154132951Y-102300872D01*
X154150499Y-102212649D01*
X154150500Y-102212647D01*
X154150500Y-102054958D01*
X154150499Y-102054956D01*
X154134787Y-101975968D01*
X154119737Y-101900306D01*
X154119490Y-101899710D01*
X154059397Y-101754630D01*
X154059390Y-101754617D01*
X153971789Y-101623514D01*
X153971786Y-101623510D01*
X153860292Y-101512016D01*
X153860288Y-101512013D01*
X153729185Y-101424412D01*
X153729172Y-101424405D01*
X153583501Y-101364067D01*
X153583489Y-101364064D01*
X153428845Y-101333303D01*
X153428842Y-101333303D01*
X153271158Y-101333303D01*
X153271155Y-101333303D01*
X153116510Y-101364064D01*
X153116498Y-101364067D01*
X152970827Y-101424405D01*
X152970814Y-101424412D01*
X152839711Y-101512013D01*
X152839707Y-101512016D01*
X152728213Y-101623510D01*
X152728210Y-101623514D01*
X152640609Y-101754617D01*
X152640602Y-101754630D01*
X152580264Y-101900301D01*
X152580261Y-101900313D01*
X152549500Y-102054956D01*
X151145278Y-102054956D01*
X151239028Y-102036308D01*
X151384710Y-101975965D01*
X151384716Y-101975961D01*
X151429905Y-101945767D01*
X151483002Y-101910288D01*
X151515820Y-101888360D01*
X151627320Y-101776860D01*
X151714925Y-101645750D01*
X151775268Y-101500068D01*
X151806031Y-101345413D01*
X151806031Y-101187729D01*
X151806031Y-101187726D01*
X151806030Y-101187724D01*
X151797832Y-101146510D01*
X151775268Y-101033074D01*
X151761911Y-101000827D01*
X151714928Y-100887398D01*
X151714921Y-100887385D01*
X151627320Y-100756282D01*
X151627317Y-100756278D01*
X151515823Y-100644784D01*
X151515819Y-100644781D01*
X151384716Y-100557180D01*
X151384703Y-100557173D01*
X151244405Y-100499061D01*
X151190001Y-100455221D01*
X151167936Y-100388926D01*
X151185215Y-100321227D01*
X151236352Y-100273616D01*
X151291857Y-100260500D01*
X170452405Y-100260500D01*
X170496519Y-100260500D01*
X170503472Y-100260695D01*
X170795306Y-100277084D01*
X170809103Y-100278638D01*
X171059761Y-100321227D01*
X171093827Y-100327015D01*
X171107382Y-100330108D01*
X171246141Y-100370084D01*
X171384899Y-100410060D01*
X171398025Y-100414653D01*
X171664841Y-100525172D01*
X171677355Y-100531198D01*
X171820412Y-100610263D01*
X171930125Y-100670899D01*
X171941899Y-100678297D01*
X172177430Y-100845415D01*
X172188302Y-100854085D01*
X172403642Y-101046524D01*
X172413475Y-101056357D01*
X172605914Y-101271697D01*
X172614584Y-101282569D01*
X172781702Y-101518100D01*
X172789100Y-101529874D01*
X172928797Y-101782637D01*
X172934830Y-101795165D01*
X173045346Y-102061975D01*
X173049939Y-102075100D01*
X173129890Y-102352615D01*
X173132984Y-102366172D01*
X173181359Y-102650885D01*
X173182916Y-102664703D01*
X173199305Y-102956527D01*
X173199500Y-102963480D01*
X173199500Y-127096519D01*
X173199305Y-127103472D01*
X173182916Y-127395296D01*
X173181359Y-127409114D01*
X173132984Y-127693827D01*
X173129890Y-127707384D01*
X173049939Y-127984899D01*
X173045346Y-127998024D01*
X172934830Y-128264834D01*
X172928797Y-128277362D01*
X172789100Y-128530125D01*
X172781702Y-128541899D01*
X172614584Y-128777430D01*
X172605914Y-128788302D01*
X172413475Y-129003642D01*
X172403642Y-129013475D01*
X172188302Y-129205914D01*
X172177430Y-129214584D01*
X171941899Y-129381702D01*
X171930125Y-129389100D01*
X171677362Y-129528797D01*
X171664834Y-129534830D01*
X171398024Y-129645346D01*
X171384899Y-129649939D01*
X171107384Y-129729890D01*
X171093827Y-129732984D01*
X171062081Y-129738378D01*
X170992692Y-129730201D01*
X170938738Y-129685808D01*
X170917350Y-129619292D01*
X170935319Y-129551773D01*
X170953630Y-129528448D01*
X170991786Y-129490292D01*
X170991789Y-129490289D01*
X171079394Y-129359179D01*
X171139737Y-129213497D01*
X171170500Y-129058842D01*
X171170500Y-128901158D01*
X171170500Y-128901155D01*
X171170499Y-128901153D01*
X171150436Y-128800289D01*
X171139737Y-128746503D01*
X171099427Y-128649185D01*
X171079397Y-128600827D01*
X171079390Y-128600814D01*
X170991789Y-128469711D01*
X170991786Y-128469707D01*
X170880292Y-128358213D01*
X170880288Y-128358210D01*
X170749185Y-128270609D01*
X170749172Y-128270602D01*
X170603501Y-128210264D01*
X170603489Y-128210261D01*
X170448845Y-128179500D01*
X170448842Y-128179500D01*
X170291158Y-128179500D01*
X170291155Y-128179500D01*
X170136510Y-128210261D01*
X170136498Y-128210264D01*
X169990827Y-128270602D01*
X169990814Y-128270609D01*
X169859711Y-128358210D01*
X169859707Y-128358213D01*
X169813944Y-128403977D01*
X169752621Y-128437462D01*
X169682929Y-128432478D01*
X169664724Y-128423160D01*
X169664554Y-128423479D01*
X169659172Y-128420602D01*
X169513501Y-128360264D01*
X169513489Y-128360261D01*
X169358845Y-128329500D01*
X169358842Y-128329500D01*
X169201158Y-128329500D01*
X169201155Y-128329500D01*
X169046510Y-128360261D01*
X169046498Y-128360264D01*
X168900827Y-128420602D01*
X168900814Y-128420609D01*
X168769711Y-128508210D01*
X168769707Y-128508213D01*
X168701846Y-128576075D01*
X168640523Y-128609560D01*
X168570831Y-128604576D01*
X168545274Y-128591496D01*
X168439185Y-128520609D01*
X168439172Y-128520602D01*
X168293501Y-128460264D01*
X168293489Y-128460261D01*
X168138845Y-128429500D01*
X168138842Y-128429500D01*
X167981158Y-128429500D01*
X167981155Y-128429500D01*
X167826510Y-128460261D01*
X167826498Y-128460264D01*
X167680827Y-128520602D01*
X167680814Y-128520609D01*
X167549710Y-128608210D01*
X167545882Y-128611353D01*
X167481572Y-128638666D01*
X167467217Y-128639500D01*
X150653777Y-128639500D01*
X150586738Y-128619815D01*
X150566096Y-128603181D01*
X149009457Y-127046542D01*
X148975972Y-126985219D01*
X148975521Y-126983052D01*
X148944621Y-126827713D01*
X148944620Y-126827706D01*
X148925067Y-126780500D01*
X148884280Y-126682030D01*
X148884273Y-126682017D01*
X148796672Y-126550914D01*
X148796669Y-126550910D01*
X148685175Y-126439416D01*
X148685171Y-126439413D01*
X148554068Y-126351812D01*
X148554055Y-126351805D01*
X148408384Y-126291467D01*
X148408372Y-126291464D01*
X148253728Y-126260703D01*
X148253725Y-126260703D01*
X148096041Y-126260703D01*
X148096038Y-126260703D01*
X147941393Y-126291464D01*
X147941381Y-126291467D01*
X147795710Y-126351805D01*
X147795697Y-126351812D01*
X147705132Y-126412327D01*
X147638455Y-126433205D01*
X147571074Y-126414721D01*
X147548560Y-126396906D01*
X147538867Y-126387213D01*
X147538863Y-126387210D01*
X147407760Y-126299609D01*
X147407747Y-126299602D01*
X147262076Y-126239264D01*
X147262064Y-126239261D01*
X147107420Y-126208500D01*
X147107417Y-126208500D01*
X146949733Y-126208500D01*
X146949730Y-126208500D01*
X146795085Y-126239261D01*
X146795073Y-126239264D01*
X146649402Y-126299602D01*
X146649389Y-126299609D01*
X146518286Y-126387210D01*
X146518282Y-126387213D01*
X146406788Y-126498707D01*
X146406785Y-126498711D01*
X146319184Y-126629814D01*
X146319179Y-126629824D01*
X146280349Y-126723568D01*
X146236508Y-126777971D01*
X146170213Y-126800036D01*
X146102514Y-126782756D01*
X146096897Y-126779217D01*
X146009185Y-126720609D01*
X146009172Y-126720602D01*
X145863501Y-126660264D01*
X145863489Y-126660261D01*
X145708845Y-126629500D01*
X145708842Y-126629500D01*
X145551158Y-126629500D01*
X145551155Y-126629500D01*
X145396510Y-126660261D01*
X145396498Y-126660264D01*
X145250827Y-126720602D01*
X145250814Y-126720609D01*
X145119711Y-126808210D01*
X145119707Y-126808213D01*
X145008213Y-126919707D01*
X145008210Y-126919711D01*
X144920609Y-127050814D01*
X144920602Y-127050827D01*
X144860264Y-127196498D01*
X144860261Y-127196510D01*
X144829500Y-127351153D01*
X144829500Y-127508849D01*
X144829707Y-127510953D01*
X144829500Y-127512043D01*
X144829500Y-127514934D01*
X144828952Y-127514934D01*
X144816682Y-127579598D01*
X144768612Y-127630303D01*
X144700759Y-127646971D01*
X144637412Y-127626197D01*
X144569185Y-127580609D01*
X144569172Y-127580602D01*
X144423501Y-127520264D01*
X144423489Y-127520261D01*
X144268845Y-127489500D01*
X144268842Y-127489500D01*
X144111158Y-127489500D01*
X144111155Y-127489500D01*
X143956510Y-127520261D01*
X143956498Y-127520264D01*
X143810827Y-127580602D01*
X143810814Y-127580609D01*
X143679711Y-127668210D01*
X143679707Y-127668213D01*
X143568213Y-127779707D01*
X143568210Y-127779711D01*
X143480609Y-127910814D01*
X143480602Y-127910827D01*
X143420264Y-128056498D01*
X143420261Y-128056510D01*
X143389500Y-128211153D01*
X143389500Y-128368846D01*
X143420261Y-128523489D01*
X143420264Y-128523501D01*
X143480602Y-128669172D01*
X143480609Y-128669185D01*
X143568210Y-128800288D01*
X143568213Y-128800292D01*
X143679707Y-128911786D01*
X143679711Y-128911789D01*
X143810814Y-128999390D01*
X143810827Y-128999397D01*
X143954342Y-129058842D01*
X143956503Y-129059737D01*
X144111153Y-129090499D01*
X144111156Y-129090500D01*
X144111158Y-129090500D01*
X144268844Y-129090500D01*
X144268845Y-129090499D01*
X144423497Y-129059737D01*
X144546386Y-129008835D01*
X144569172Y-128999397D01*
X144569172Y-128999396D01*
X144569179Y-128999394D01*
X144700289Y-128911789D01*
X144811789Y-128800289D01*
X144899394Y-128669179D01*
X144959737Y-128523497D01*
X144990500Y-128368842D01*
X144990500Y-128211158D01*
X144990499Y-128211153D01*
X144990293Y-128209060D01*
X144990500Y-128207968D01*
X144990500Y-128205066D01*
X144991050Y-128205066D01*
X145003311Y-128140414D01*
X145051375Y-128089703D01*
X145119226Y-128073027D01*
X145182587Y-128093802D01*
X145250814Y-128139390D01*
X145250827Y-128139397D01*
X145342412Y-128177332D01*
X145396503Y-128199737D01*
X145551153Y-128230499D01*
X145551156Y-128230500D01*
X145551158Y-128230500D01*
X145708844Y-128230500D01*
X145708845Y-128230499D01*
X145863497Y-128199737D01*
X145976166Y-128153067D01*
X146009172Y-128139397D01*
X146009172Y-128139396D01*
X146009179Y-128139394D01*
X146026608Y-128127747D01*
X146093285Y-128106870D01*
X146160666Y-128125354D01*
X146207356Y-128177332D01*
X146219500Y-128230850D01*
X146219500Y-128348846D01*
X146250261Y-128503489D01*
X146250264Y-128503501D01*
X146310602Y-128649172D01*
X146310609Y-128649185D01*
X146398210Y-128780288D01*
X146398213Y-128780292D01*
X146509707Y-128891786D01*
X146509711Y-128891789D01*
X146640814Y-128979390D01*
X146640827Y-128979397D01*
X146711898Y-129008835D01*
X146786503Y-129039737D01*
X146941153Y-129070499D01*
X146941156Y-129070500D01*
X146941158Y-129070500D01*
X147098844Y-129070500D01*
X147098845Y-129070499D01*
X147253497Y-129039737D01*
X147399179Y-128979394D01*
X147530289Y-128891789D01*
X147641789Y-128780289D01*
X147729394Y-128649179D01*
X147789737Y-128503497D01*
X147820500Y-128348842D01*
X147820500Y-128191158D01*
X147820500Y-128191155D01*
X147820499Y-128191153D01*
X147807411Y-128125354D01*
X147789737Y-128036503D01*
X147770108Y-127989116D01*
X147762640Y-127919647D01*
X147793915Y-127857168D01*
X147854004Y-127821516D01*
X147911597Y-127820623D01*
X147922141Y-127822968D01*
X147941386Y-127830940D01*
X148096041Y-127861703D01*
X148096258Y-127861703D01*
X148099468Y-127862417D01*
X148128883Y-127878658D01*
X148158643Y-127894226D01*
X148160222Y-127895777D01*
X149852264Y-129587819D01*
X149885749Y-129649142D01*
X149880765Y-129718834D01*
X149838893Y-129774767D01*
X149773429Y-129799184D01*
X149764583Y-129799500D01*
X134753481Y-129799500D01*
X134746528Y-129799305D01*
X134454703Y-129782916D01*
X134440885Y-129781359D01*
X134156172Y-129732984D01*
X134142615Y-129729890D01*
X133865100Y-129649939D01*
X133851975Y-129645346D01*
X133585165Y-129534830D01*
X133572637Y-129528797D01*
X133319874Y-129389100D01*
X133308100Y-129381702D01*
X133072569Y-129214584D01*
X133061697Y-129205914D01*
X132910167Y-129070499D01*
X132846355Y-129013473D01*
X132836524Y-129003642D01*
X132832730Y-128999397D01*
X132644085Y-128788302D01*
X132635415Y-128777430D01*
X132468297Y-128541899D01*
X132460899Y-128530125D01*
X132409686Y-128437462D01*
X132321198Y-128277355D01*
X132315172Y-128264841D01*
X132204653Y-127998024D01*
X132200060Y-127984899D01*
X132120109Y-127707384D01*
X132117015Y-127693827D01*
X132112663Y-127668211D01*
X132068638Y-127409103D01*
X132067084Y-127395306D01*
X132050695Y-127103472D01*
X132050500Y-127096519D01*
X132050500Y-126399223D01*
X133029500Y-126399223D01*
X133029500Y-126700776D01*
X133029501Y-126700793D01*
X133068861Y-126999766D01*
X133146913Y-127291060D01*
X133262314Y-127569661D01*
X133262318Y-127569671D01*
X133413099Y-127830831D01*
X133596679Y-128070078D01*
X133596685Y-128070085D01*
X133809914Y-128283314D01*
X133809921Y-128283320D01*
X134049168Y-128466900D01*
X134310328Y-128617681D01*
X134310329Y-128617681D01*
X134310332Y-128617683D01*
X134434669Y-128669185D01*
X134588939Y-128733086D01*
X134588940Y-128733086D01*
X134588942Y-128733087D01*
X134880232Y-128811138D01*
X135179217Y-128850500D01*
X135179224Y-128850500D01*
X135480776Y-128850500D01*
X135480783Y-128850500D01*
X135779768Y-128811138D01*
X136071058Y-128733087D01*
X136349668Y-128617683D01*
X136610832Y-128466900D01*
X136850080Y-128283319D01*
X136922246Y-128211153D01*
X140769500Y-128211153D01*
X140769500Y-128368846D01*
X140800261Y-128523489D01*
X140800264Y-128523501D01*
X140860602Y-128669172D01*
X140860609Y-128669185D01*
X140948210Y-128800288D01*
X140948213Y-128800292D01*
X141059707Y-128911786D01*
X141059711Y-128911789D01*
X141190814Y-128999390D01*
X141190827Y-128999397D01*
X141334342Y-129058842D01*
X141336503Y-129059737D01*
X141491153Y-129090499D01*
X141491156Y-129090500D01*
X141491158Y-129090500D01*
X141648844Y-129090500D01*
X141648845Y-129090499D01*
X141803497Y-129059737D01*
X141926386Y-129008835D01*
X141949172Y-128999397D01*
X141949172Y-128999396D01*
X141949179Y-128999394D01*
X142080289Y-128911789D01*
X142191789Y-128800289D01*
X142279394Y-128669179D01*
X142339737Y-128523497D01*
X142370500Y-128368842D01*
X142370500Y-128211158D01*
X142370500Y-128211155D01*
X142370499Y-128211153D01*
X142364203Y-128179500D01*
X142339737Y-128056503D01*
X142331453Y-128036503D01*
X142279397Y-127910827D01*
X142279390Y-127910814D01*
X142191789Y-127779711D01*
X142191786Y-127779707D01*
X142080292Y-127668213D01*
X142080288Y-127668210D01*
X141949185Y-127580609D01*
X141949172Y-127580602D01*
X141803501Y-127520264D01*
X141803489Y-127520261D01*
X141648845Y-127489500D01*
X141648842Y-127489500D01*
X141491158Y-127489500D01*
X141491155Y-127489500D01*
X141336510Y-127520261D01*
X141336498Y-127520264D01*
X141190827Y-127580602D01*
X141190814Y-127580609D01*
X141059711Y-127668210D01*
X141059707Y-127668213D01*
X140948213Y-127779707D01*
X140948210Y-127779711D01*
X140860609Y-127910814D01*
X140860602Y-127910827D01*
X140800264Y-128056498D01*
X140800261Y-128056510D01*
X140769500Y-128211153D01*
X136922246Y-128211153D01*
X136928333Y-128205066D01*
X137016015Y-128117385D01*
X137063314Y-128070085D01*
X137063319Y-128070080D01*
X137246900Y-127830832D01*
X137397683Y-127569668D01*
X137513087Y-127291058D01*
X137591138Y-126999768D01*
X137630500Y-126700783D01*
X137630500Y-126399217D01*
X137591138Y-126100232D01*
X137513087Y-125808942D01*
X137397683Y-125530332D01*
X137383929Y-125506510D01*
X137246900Y-125269168D01*
X137063320Y-125029921D01*
X137063314Y-125029914D01*
X136850085Y-124816685D01*
X136850078Y-124816679D01*
X136610831Y-124633099D01*
X136349671Y-124482318D01*
X136349661Y-124482314D01*
X136071060Y-124366913D01*
X135779766Y-124288861D01*
X135480793Y-124249501D01*
X135480788Y-124249500D01*
X135480783Y-124249500D01*
X135179217Y-124249500D01*
X135179211Y-124249500D01*
X135179206Y-124249501D01*
X134880233Y-124288861D01*
X134588939Y-124366913D01*
X134310338Y-124482314D01*
X134310328Y-124482318D01*
X134049168Y-124633099D01*
X133809921Y-124816679D01*
X133809914Y-124816685D01*
X133596685Y-125029914D01*
X133596679Y-125029921D01*
X133413099Y-125269168D01*
X133262318Y-125530328D01*
X133262314Y-125530338D01*
X133146913Y-125808939D01*
X133068861Y-126100233D01*
X133029501Y-126399206D01*
X133029500Y-126399223D01*
X132050500Y-126399223D01*
X132050500Y-124084151D01*
X137922498Y-124084151D01*
X137922498Y-124241844D01*
X137953259Y-124396487D01*
X137953262Y-124396499D01*
X138013600Y-124542170D01*
X138013607Y-124542183D01*
X138101208Y-124673286D01*
X138101211Y-124673290D01*
X138125113Y-124697192D01*
X138158598Y-124758515D01*
X138153614Y-124828207D01*
X138151996Y-124832318D01*
X138150264Y-124836498D01*
X138150260Y-124836511D01*
X138119500Y-124991153D01*
X138119500Y-125148846D01*
X138150261Y-125303489D01*
X138150264Y-125303501D01*
X138210602Y-125449172D01*
X138210609Y-125449185D01*
X138298210Y-125580288D01*
X138298213Y-125580292D01*
X138409707Y-125691786D01*
X138409711Y-125691789D01*
X138540814Y-125779390D01*
X138540827Y-125779397D01*
X138636062Y-125818844D01*
X138686503Y-125839737D01*
X138841153Y-125870499D01*
X138841156Y-125870500D01*
X138905500Y-125870500D01*
X138972539Y-125890185D01*
X139018294Y-125942989D01*
X139029500Y-125994500D01*
X139029500Y-126058846D01*
X139060261Y-126213489D01*
X139060264Y-126213501D01*
X139120602Y-126359172D01*
X139120609Y-126359185D01*
X139208210Y-126490288D01*
X139208213Y-126490292D01*
X139319707Y-126601786D01*
X139319711Y-126601789D01*
X139450814Y-126689390D01*
X139450827Y-126689397D01*
X139596498Y-126749735D01*
X139596503Y-126749737D01*
X139726037Y-126775503D01*
X139751153Y-126780499D01*
X139751156Y-126780500D01*
X139751158Y-126780500D01*
X139908844Y-126780500D01*
X139908845Y-126780499D01*
X140063497Y-126749737D01*
X140209179Y-126689394D01*
X140340289Y-126601789D01*
X140451789Y-126490289D01*
X140539394Y-126359179D01*
X140542446Y-126351812D01*
X140555369Y-126320611D01*
X140599737Y-126213497D01*
X140630500Y-126058842D01*
X140630500Y-125901158D01*
X140630500Y-125901155D01*
X140630499Y-125901153D01*
X140624402Y-125870500D01*
X140599737Y-125746503D01*
X140564384Y-125661153D01*
X161189500Y-125661153D01*
X161189500Y-125818846D01*
X161220261Y-125973489D01*
X161220264Y-125973501D01*
X161280602Y-126119172D01*
X161280609Y-126119185D01*
X161368210Y-126250288D01*
X161368213Y-126250292D01*
X161479707Y-126361786D01*
X161479711Y-126361789D01*
X161610814Y-126449390D01*
X161610827Y-126449397D01*
X161756498Y-126509735D01*
X161756503Y-126509737D01*
X161777497Y-126513913D01*
X161802033Y-126518794D01*
X161863944Y-126551179D01*
X161898518Y-126611894D01*
X161894779Y-126681664D01*
X161892403Y-126687863D01*
X161847404Y-126796500D01*
X161847401Y-126796512D01*
X161816640Y-126951155D01*
X161816640Y-127108848D01*
X161847401Y-127263491D01*
X161847404Y-127263503D01*
X161907742Y-127409174D01*
X161907749Y-127409187D01*
X161995350Y-127540290D01*
X161995353Y-127540294D01*
X162106847Y-127651788D01*
X162106851Y-127651791D01*
X162237954Y-127739392D01*
X162237967Y-127739399D01*
X162383638Y-127799737D01*
X162383643Y-127799739D01*
X162493123Y-127821516D01*
X162538293Y-127830501D01*
X162538296Y-127830502D01*
X162538298Y-127830502D01*
X162695984Y-127830502D01*
X162695985Y-127830501D01*
X162850637Y-127799739D01*
X162996319Y-127739396D01*
X163127429Y-127651791D01*
X163238929Y-127540291D01*
X163326534Y-127409181D01*
X163386877Y-127263499D01*
X163417640Y-127108844D01*
X163417640Y-126951160D01*
X163417640Y-126951157D01*
X163417639Y-126951155D01*
X163411384Y-126919711D01*
X163386877Y-126796505D01*
X163367505Y-126749737D01*
X163326537Y-126650829D01*
X163326530Y-126650816D01*
X163238929Y-126519713D01*
X163238926Y-126519709D01*
X163127432Y-126408215D01*
X163127428Y-126408212D01*
X162996325Y-126320611D01*
X162996312Y-126320604D01*
X162850641Y-126260266D01*
X162850632Y-126260263D01*
X162805104Y-126251207D01*
X162743193Y-126218821D01*
X162708620Y-126158105D01*
X162712361Y-126088335D01*
X162714721Y-126082175D01*
X162759737Y-125973497D01*
X162790500Y-125818842D01*
X162790500Y-125661158D01*
X162790500Y-125661155D01*
X162790499Y-125661153D01*
X162778497Y-125600814D01*
X162759737Y-125506503D01*
X162759735Y-125506498D01*
X162699397Y-125360827D01*
X162699390Y-125360814D01*
X162611789Y-125229711D01*
X162611786Y-125229707D01*
X162500292Y-125118213D01*
X162500288Y-125118210D01*
X162369185Y-125030609D01*
X162369172Y-125030602D01*
X162223501Y-124970264D01*
X162223489Y-124970261D01*
X162068845Y-124939500D01*
X162068842Y-124939500D01*
X161911158Y-124939500D01*
X161911155Y-124939500D01*
X161756510Y-124970261D01*
X161756498Y-124970264D01*
X161610827Y-125030602D01*
X161610814Y-125030609D01*
X161479711Y-125118210D01*
X161479707Y-125118213D01*
X161368213Y-125229707D01*
X161368210Y-125229711D01*
X161280609Y-125360814D01*
X161280602Y-125360827D01*
X161220264Y-125506498D01*
X161220261Y-125506510D01*
X161189500Y-125661153D01*
X140564384Y-125661153D01*
X140559929Y-125650398D01*
X140539397Y-125600827D01*
X140539390Y-125600814D01*
X140451789Y-125469711D01*
X140451786Y-125469707D01*
X140340292Y-125358213D01*
X140340288Y-125358210D01*
X140209185Y-125270609D01*
X140209172Y-125270602D01*
X140063501Y-125210264D01*
X140063489Y-125210261D01*
X139908845Y-125179500D01*
X139908842Y-125179500D01*
X139844500Y-125179500D01*
X139777461Y-125159815D01*
X139731706Y-125107011D01*
X139720500Y-125055500D01*
X139720500Y-124991155D01*
X139720499Y-124991153D01*
X139716343Y-124970261D01*
X139689737Y-124836503D01*
X139681526Y-124816679D01*
X139629397Y-124690827D01*
X139629390Y-124690814D01*
X139613429Y-124666927D01*
X144720499Y-124666927D01*
X144746611Y-124798197D01*
X144746614Y-124798207D01*
X144797831Y-124921857D01*
X144797838Y-124921870D01*
X144872197Y-125033155D01*
X144872200Y-125033159D01*
X144966840Y-125127799D01*
X144966844Y-125127802D01*
X145078129Y-125202161D01*
X145078142Y-125202168D01*
X145201792Y-125253385D01*
X145201797Y-125253387D01*
X145201801Y-125253387D01*
X145201802Y-125253388D01*
X145333072Y-125279500D01*
X145333075Y-125279500D01*
X145466927Y-125279500D01*
X145555244Y-125261932D01*
X145598203Y-125253387D01*
X145721864Y-125202165D01*
X145833156Y-125127802D01*
X145927802Y-125033156D01*
X146002165Y-124921864D01*
X146053387Y-124798203D01*
X146061932Y-124755244D01*
X146079500Y-124666927D01*
X146079500Y-124533079D01*
X146079500Y-124533075D01*
X146077129Y-124521153D01*
X146379500Y-124521153D01*
X146379500Y-124678846D01*
X146410261Y-124833489D01*
X146410264Y-124833501D01*
X146470602Y-124979172D01*
X146470609Y-124979185D01*
X146558210Y-125110288D01*
X146558213Y-125110292D01*
X146669707Y-125221786D01*
X146669711Y-125221789D01*
X146800814Y-125309390D01*
X146800827Y-125309397D01*
X146924992Y-125360827D01*
X146946503Y-125369737D01*
X147101153Y-125400499D01*
X147101156Y-125400500D01*
X147101158Y-125400500D01*
X147258844Y-125400500D01*
X147258845Y-125400499D01*
X147413497Y-125369737D01*
X147559179Y-125309394D01*
X147690289Y-125221789D01*
X147801789Y-125110289D01*
X147889394Y-124979179D01*
X147949737Y-124833497D01*
X147978119Y-124690814D01*
X147980638Y-124678150D01*
X148013023Y-124616239D01*
X148014460Y-124614774D01*
X148242418Y-124386816D01*
X148303740Y-124353334D01*
X148330098Y-124350500D01*
X155293331Y-124350500D01*
X155293347Y-124350501D01*
X155300943Y-124350501D01*
X155459054Y-124350501D01*
X155459057Y-124350501D01*
X155611785Y-124309577D01*
X155681200Y-124269500D01*
X155748716Y-124230520D01*
X155860520Y-124118716D01*
X155860520Y-124118714D01*
X155870724Y-124108511D01*
X155870728Y-124108506D01*
X157593337Y-122385896D01*
X157654658Y-122352413D01*
X157724350Y-122357397D01*
X157749905Y-122370476D01*
X157862821Y-122445924D01*
X157862823Y-122445925D01*
X157862827Y-122445927D01*
X157945793Y-122480292D01*
X158008503Y-122506267D01*
X158143808Y-122533181D01*
X158163153Y-122537029D01*
X158163156Y-122537030D01*
X158163158Y-122537030D01*
X158320844Y-122537030D01*
X158320845Y-122537029D01*
X158475497Y-122506267D01*
X158621179Y-122445924D01*
X158752289Y-122358319D01*
X158863789Y-122246819D01*
X158951394Y-122115709D01*
X159011737Y-121970027D01*
X159042500Y-121815372D01*
X159042500Y-121657688D01*
X159042500Y-121657685D01*
X159042499Y-121657683D01*
X159011738Y-121503040D01*
X159011737Y-121503033D01*
X158993791Y-121459707D01*
X158951397Y-121357357D01*
X158951395Y-121357353D01*
X158951394Y-121357351D01*
X158875946Y-121244436D01*
X158855069Y-121177760D01*
X158873553Y-121110380D01*
X158891363Y-121087870D01*
X159214662Y-120764572D01*
X159275983Y-120731089D01*
X159278150Y-120730638D01*
X159336085Y-120719113D01*
X159433497Y-120699737D01*
X159579179Y-120639394D01*
X159710289Y-120551789D01*
X159821789Y-120440289D01*
X159909394Y-120309179D01*
X159969737Y-120163497D01*
X160000500Y-120008842D01*
X160000500Y-119851158D01*
X160000500Y-119851155D01*
X160000499Y-119851153D01*
X159985895Y-119777736D01*
X159969737Y-119696503D01*
X159969735Y-119696498D01*
X159909397Y-119550827D01*
X159909390Y-119550814D01*
X159821789Y-119419711D01*
X159821786Y-119419707D01*
X159710292Y-119308213D01*
X159710288Y-119308210D01*
X159579185Y-119220609D01*
X159579172Y-119220602D01*
X159433501Y-119160264D01*
X159433489Y-119160261D01*
X159278845Y-119129500D01*
X159278842Y-119129500D01*
X159121158Y-119129500D01*
X159121155Y-119129500D01*
X158966510Y-119160261D01*
X158966498Y-119160264D01*
X158820827Y-119220602D01*
X158820814Y-119220609D01*
X158689711Y-119308210D01*
X158689707Y-119308213D01*
X158578213Y-119419707D01*
X158578210Y-119419711D01*
X158490609Y-119550814D01*
X158490602Y-119550827D01*
X158430264Y-119696498D01*
X158430261Y-119696508D01*
X158399361Y-119851850D01*
X158366976Y-119913761D01*
X158365425Y-119915339D01*
X157422181Y-120858584D01*
X157360858Y-120892069D01*
X157291167Y-120887085D01*
X157235233Y-120845213D01*
X157210816Y-120779749D01*
X157210500Y-120770903D01*
X157210500Y-120099765D01*
X157230185Y-120032726D01*
X157231398Y-120030874D01*
X157265010Y-119980571D01*
X157319394Y-119899179D01*
X157379737Y-119753497D01*
X157410500Y-119598842D01*
X157410500Y-119441158D01*
X157410500Y-119441155D01*
X157410499Y-119441153D01*
X157404360Y-119410289D01*
X157379737Y-119286503D01*
X157376703Y-119279179D01*
X157319397Y-119140827D01*
X157319390Y-119140814D01*
X157231789Y-119009711D01*
X157231786Y-119009707D01*
X157120292Y-118898213D01*
X157120288Y-118898210D01*
X156989185Y-118810609D01*
X156989172Y-118810602D01*
X156843501Y-118750264D01*
X156843489Y-118750261D01*
X156688845Y-118719500D01*
X156688842Y-118719500D01*
X156531158Y-118719500D01*
X156531155Y-118719500D01*
X156376510Y-118750261D01*
X156376498Y-118750264D01*
X156230827Y-118810602D01*
X156230814Y-118810609D01*
X156099711Y-118898210D01*
X156099707Y-118898213D01*
X155988213Y-119009707D01*
X155988210Y-119009711D01*
X155900609Y-119140814D01*
X155900602Y-119140827D01*
X155840264Y-119286498D01*
X155840261Y-119286510D01*
X155809500Y-119441153D01*
X155809500Y-119598846D01*
X155840261Y-119753489D01*
X155840264Y-119753501D01*
X155900602Y-119899172D01*
X155900609Y-119899185D01*
X155988602Y-120030874D01*
X156009480Y-120097551D01*
X156009500Y-120099765D01*
X156009500Y-120789903D01*
X155989815Y-120856942D01*
X155973181Y-120877584D01*
X154317584Y-122533181D01*
X154256261Y-122566666D01*
X154229903Y-122569500D01*
X148630098Y-122569500D01*
X148563059Y-122549815D01*
X148542417Y-122533181D01*
X148086819Y-122077583D01*
X148053334Y-122016260D01*
X148050500Y-121989902D01*
X148050500Y-121891155D01*
X148050499Y-121891153D01*
X148035426Y-121815376D01*
X148019737Y-121736503D01*
X147976100Y-121631153D01*
X147959397Y-121590827D01*
X147959390Y-121590814D01*
X147871789Y-121459711D01*
X147871786Y-121459707D01*
X147760292Y-121348213D01*
X147757666Y-121346058D01*
X147756659Y-121344580D01*
X147755982Y-121343903D01*
X147756110Y-121343774D01*
X147742489Y-121323777D01*
X147724472Y-121303719D01*
X147723113Y-121295332D01*
X147718331Y-121288312D01*
X147717609Y-121261362D01*
X147713297Y-121234749D01*
X147716687Y-121226959D01*
X147716460Y-121218467D01*
X147730423Y-121195405D01*
X147741183Y-121170686D01*
X147750404Y-121162403D01*
X147752647Y-121158699D01*
X147767434Y-121147105D01*
X147813842Y-121116097D01*
X147820876Y-121111397D01*
X147887554Y-121090520D01*
X147889766Y-121090500D01*
X149314684Y-121090500D01*
X149362136Y-121099939D01*
X149503997Y-121158699D01*
X149506503Y-121159737D01*
X149661153Y-121190499D01*
X149661156Y-121190500D01*
X149661158Y-121190500D01*
X149818844Y-121190500D01*
X149818845Y-121190499D01*
X149973497Y-121159737D01*
X150119179Y-121099394D01*
X150250289Y-121011789D01*
X150361789Y-120900289D01*
X150449394Y-120769179D01*
X150451302Y-120764574D01*
X150478157Y-120699738D01*
X150509737Y-120623497D01*
X150540500Y-120468842D01*
X150540500Y-120311158D01*
X150540500Y-120311155D01*
X150540499Y-120311153D01*
X150526350Y-120240021D01*
X150509737Y-120156503D01*
X150486236Y-120099765D01*
X150449397Y-120010827D01*
X150449390Y-120010814D01*
X150361792Y-119879715D01*
X150360496Y-119878136D01*
X150360075Y-119877146D01*
X150358405Y-119874646D01*
X150358879Y-119874329D01*
X150333182Y-119813826D01*
X150344972Y-119744959D01*
X150392123Y-119693397D01*
X150432157Y-119677852D01*
X150499360Y-119664483D01*
X150573497Y-119649737D01*
X150719179Y-119589394D01*
X150850289Y-119501789D01*
X150961789Y-119390289D01*
X151049394Y-119259179D01*
X151058672Y-119236781D01*
X151082534Y-119179172D01*
X151109737Y-119113497D01*
X151140500Y-118958842D01*
X151140500Y-118801158D01*
X151140500Y-118801155D01*
X151140499Y-118801153D01*
X151140148Y-118799390D01*
X151109737Y-118646503D01*
X151057679Y-118520823D01*
X151049397Y-118500827D01*
X151049390Y-118500814D01*
X150961789Y-118369711D01*
X150961786Y-118369707D01*
X150850292Y-118258213D01*
X150850288Y-118258210D01*
X150719185Y-118170609D01*
X150719172Y-118170602D01*
X150573501Y-118110264D01*
X150573489Y-118110261D01*
X150418845Y-118079500D01*
X150418842Y-118079500D01*
X150261158Y-118079500D01*
X150261155Y-118079500D01*
X150106510Y-118110261D01*
X150106498Y-118110264D01*
X149960827Y-118170602D01*
X149960814Y-118170609D01*
X149829711Y-118258210D01*
X149829707Y-118258213D01*
X149824740Y-118263181D01*
X149763417Y-118296666D01*
X149737059Y-118299500D01*
X148376339Y-118299500D01*
X148309300Y-118279815D01*
X148263545Y-118227011D01*
X148252339Y-118175500D01*
X148252339Y-118022834D01*
X148252338Y-118022832D01*
X148235501Y-117938189D01*
X148221576Y-117868182D01*
X148216741Y-117856508D01*
X148161236Y-117722506D01*
X148161229Y-117722493D01*
X148073628Y-117591390D01*
X148069763Y-117586680D01*
X148071900Y-117584925D01*
X148044113Y-117534036D01*
X148043662Y-117483491D01*
X148060500Y-117398842D01*
X148060500Y-117241158D01*
X148060500Y-117241155D01*
X148060499Y-117241153D01*
X148029738Y-117086510D01*
X148029737Y-117086503D01*
X147997939Y-117009735D01*
X147969397Y-116940827D01*
X147969390Y-116940814D01*
X147962767Y-116930902D01*
X147941889Y-116864224D01*
X147951308Y-116814559D01*
X148009735Y-116673501D01*
X148009737Y-116673497D01*
X148040500Y-116518842D01*
X148040500Y-116361158D01*
X148040500Y-116361155D01*
X148040499Y-116361153D01*
X148009737Y-116206503D01*
X147998650Y-116179737D01*
X147949397Y-116060827D01*
X147949390Y-116060814D01*
X147861789Y-115929711D01*
X147861786Y-115929707D01*
X147750292Y-115818213D01*
X147750288Y-115818210D01*
X147619185Y-115730609D01*
X147619172Y-115730602D01*
X147473501Y-115670264D01*
X147473489Y-115670261D01*
X147318845Y-115639500D01*
X147318842Y-115639500D01*
X147161158Y-115639500D01*
X147161155Y-115639500D01*
X147006510Y-115670261D01*
X147006498Y-115670264D01*
X146860827Y-115730602D01*
X146860814Y-115730609D01*
X146729711Y-115818210D01*
X146729707Y-115818213D01*
X146618213Y-115929707D01*
X146618210Y-115929711D01*
X146530609Y-116060814D01*
X146530602Y-116060827D01*
X146470264Y-116206498D01*
X146470261Y-116206510D01*
X146439500Y-116361153D01*
X146439500Y-116518846D01*
X146470261Y-116673489D01*
X146470264Y-116673501D01*
X146530602Y-116819171D01*
X146530609Y-116819184D01*
X146537233Y-116829097D01*
X146558111Y-116895775D01*
X146548692Y-116945440D01*
X146490264Y-117086498D01*
X146490261Y-117086510D01*
X146459500Y-117241153D01*
X146459500Y-117398846D01*
X146490261Y-117553489D01*
X146490264Y-117553501D01*
X146550602Y-117699172D01*
X146550609Y-117699185D01*
X146638210Y-117830288D01*
X146642076Y-117834999D01*
X146639937Y-117836753D01*
X146667724Y-117887641D01*
X146668176Y-117938189D01*
X146651339Y-118022838D01*
X146651339Y-118180525D01*
X146682099Y-118335167D01*
X146682102Y-118335177D01*
X146707462Y-118396401D01*
X146714931Y-118465870D01*
X146696005Y-118512741D01*
X146690604Y-118520823D01*
X146630264Y-118666498D01*
X146630261Y-118666510D01*
X146599500Y-118821153D01*
X146599500Y-118978846D01*
X146630261Y-119133489D01*
X146630264Y-119133501D01*
X146690602Y-119279172D01*
X146690609Y-119279185D01*
X146778210Y-119410288D01*
X146778213Y-119410292D01*
X146889707Y-119521786D01*
X146889711Y-119521789D01*
X146951667Y-119563187D01*
X146996472Y-119616799D01*
X147005179Y-119686124D01*
X146975025Y-119749151D01*
X146935764Y-119776938D01*
X146936191Y-119777736D01*
X146930814Y-119780609D01*
X146799711Y-119868210D01*
X146799707Y-119868213D01*
X146688213Y-119979707D01*
X146688210Y-119979711D01*
X146600609Y-120110814D01*
X146600602Y-120110827D01*
X146540264Y-120256498D01*
X146540261Y-120256510D01*
X146509500Y-120411153D01*
X146509500Y-120568846D01*
X146540261Y-120723489D01*
X146540264Y-120723501D01*
X146600602Y-120869172D01*
X146600609Y-120869185D01*
X146688210Y-121000288D01*
X146688213Y-121000292D01*
X146799705Y-121111784D01*
X146802332Y-121113940D01*
X146803338Y-121115417D01*
X146804018Y-121116097D01*
X146803889Y-121116225D01*
X146841668Y-121171685D01*
X146843539Y-121241530D01*
X146807353Y-121301299D01*
X146792561Y-121312896D01*
X146739713Y-121348208D01*
X146739707Y-121348213D01*
X146628213Y-121459707D01*
X146628210Y-121459711D01*
X146540609Y-121590814D01*
X146540602Y-121590827D01*
X146480264Y-121736498D01*
X146480261Y-121736510D01*
X146449500Y-121891153D01*
X146449500Y-122048846D01*
X146480261Y-122203489D01*
X146480264Y-122203501D01*
X146540602Y-122349172D01*
X146540609Y-122349185D01*
X146628210Y-122480288D01*
X146628213Y-122480292D01*
X146739707Y-122591786D01*
X146739711Y-122591789D01*
X146870814Y-122679390D01*
X146870827Y-122679397D01*
X146958230Y-122715599D01*
X147016503Y-122739737D01*
X147022052Y-122740840D01*
X147083962Y-122773225D01*
X147085541Y-122774777D01*
X147533083Y-123222318D01*
X147566568Y-123283641D01*
X147561584Y-123353332D01*
X147533083Y-123397680D01*
X147165338Y-123765425D01*
X147104015Y-123798910D01*
X147101849Y-123799361D01*
X146946508Y-123830261D01*
X146946498Y-123830264D01*
X146800827Y-123890602D01*
X146800814Y-123890609D01*
X146669711Y-123978210D01*
X146669707Y-123978213D01*
X146558213Y-124089707D01*
X146558210Y-124089711D01*
X146470609Y-124220814D01*
X146470602Y-124220827D01*
X146410264Y-124366498D01*
X146410261Y-124366510D01*
X146379500Y-124521153D01*
X146077129Y-124521153D01*
X146053387Y-124401797D01*
X146052917Y-124400662D01*
X146002168Y-124278142D01*
X146002161Y-124278129D01*
X145927802Y-124166844D01*
X145927799Y-124166840D01*
X145833159Y-124072200D01*
X145833155Y-124072197D01*
X145721870Y-123997838D01*
X145721857Y-123997831D01*
X145598207Y-123946614D01*
X145598197Y-123946611D01*
X145466927Y-123920500D01*
X145466925Y-123920500D01*
X145333075Y-123920500D01*
X145333073Y-123920500D01*
X145201802Y-123946611D01*
X145201792Y-123946614D01*
X145078142Y-123997831D01*
X145078129Y-123997838D01*
X144966844Y-124072197D01*
X144966840Y-124072200D01*
X144872200Y-124166840D01*
X144872197Y-124166844D01*
X144797838Y-124278129D01*
X144797831Y-124278142D01*
X144746614Y-124401792D01*
X144746611Y-124401802D01*
X144720500Y-124533072D01*
X144720500Y-124533075D01*
X144720500Y-124666925D01*
X144720500Y-124666927D01*
X144720499Y-124666927D01*
X139613429Y-124666927D01*
X139569012Y-124600452D01*
X139569007Y-124600446D01*
X139541789Y-124559711D01*
X139513164Y-124531086D01*
X139508979Y-124525888D01*
X139498074Y-124499529D01*
X139484399Y-124474485D01*
X139484887Y-124467652D01*
X139482270Y-124461325D01*
X139487346Y-124433256D01*
X139489382Y-124404794D01*
X139490990Y-124400706D01*
X139492735Y-124396495D01*
X139523498Y-124241840D01*
X139523498Y-124084156D01*
X139523498Y-124084153D01*
X139523497Y-124084151D01*
X139506328Y-123997838D01*
X139492735Y-123929501D01*
X139432392Y-123783819D01*
X139432388Y-123783813D01*
X139429519Y-123778445D01*
X139431062Y-123777620D01*
X139412655Y-123718874D01*
X139431127Y-123651490D01*
X139433502Y-123647792D01*
X139499394Y-123549179D01*
X139559737Y-123403497D01*
X139590500Y-123248842D01*
X139590500Y-123091158D01*
X139590500Y-123091155D01*
X139590499Y-123091153D01*
X139559738Y-122936510D01*
X139559737Y-122936503D01*
X139559735Y-122936498D01*
X139499397Y-122790827D01*
X139499390Y-122790814D01*
X139411789Y-122659711D01*
X139411786Y-122659707D01*
X139300292Y-122548213D01*
X139300288Y-122548210D01*
X139169185Y-122460609D01*
X139169172Y-122460602D01*
X139023501Y-122400264D01*
X139023489Y-122400261D01*
X138868845Y-122369500D01*
X138868842Y-122369500D01*
X138711158Y-122369500D01*
X138711155Y-122369500D01*
X138556510Y-122400261D01*
X138556498Y-122400264D01*
X138410827Y-122460602D01*
X138410814Y-122460609D01*
X138279711Y-122548210D01*
X138279707Y-122548213D01*
X138168213Y-122659707D01*
X138168210Y-122659711D01*
X138080609Y-122790814D01*
X138080602Y-122790827D01*
X138020264Y-122936498D01*
X138020261Y-122936510D01*
X137989500Y-123091153D01*
X137989500Y-123248846D01*
X138020261Y-123403489D01*
X138020264Y-123403501D01*
X138080602Y-123549171D01*
X138083479Y-123554553D01*
X138081939Y-123555375D01*
X138100342Y-123614150D01*
X138081856Y-123681529D01*
X138079464Y-123685252D01*
X138013607Y-123783812D01*
X138013600Y-123783825D01*
X137953262Y-123929496D01*
X137953259Y-123929508D01*
X137922498Y-124084151D01*
X132050500Y-124084151D01*
X132050500Y-121631153D01*
X135369500Y-121631153D01*
X135369500Y-121788846D01*
X135400261Y-121943489D01*
X135400264Y-121943501D01*
X135460602Y-122089172D01*
X135460609Y-122089185D01*
X135548210Y-122220288D01*
X135548213Y-122220292D01*
X135659707Y-122331786D01*
X135659711Y-122331789D01*
X135790814Y-122419390D01*
X135790827Y-122419397D01*
X135936498Y-122479735D01*
X135936503Y-122479737D01*
X136091153Y-122510499D01*
X136091156Y-122510500D01*
X136091158Y-122510500D01*
X136248844Y-122510500D01*
X136248845Y-122510499D01*
X136403497Y-122479737D01*
X136549179Y-122419394D01*
X136680289Y-122331789D01*
X136791789Y-122220289D01*
X136879394Y-122089179D01*
X136939737Y-121943497D01*
X136970500Y-121788842D01*
X136970500Y-121631158D01*
X136970500Y-121631155D01*
X136970499Y-121631153D01*
X136962475Y-121590814D01*
X136939737Y-121476503D01*
X136932780Y-121459707D01*
X136879397Y-121330827D01*
X136879390Y-121330814D01*
X136791789Y-121199711D01*
X136791786Y-121199707D01*
X136680292Y-121088213D01*
X136680288Y-121088210D01*
X136549185Y-121000609D01*
X136549172Y-121000602D01*
X136403501Y-120940264D01*
X136403489Y-120940261D01*
X136248845Y-120909500D01*
X136248842Y-120909500D01*
X136091158Y-120909500D01*
X136091155Y-120909500D01*
X135936510Y-120940261D01*
X135936498Y-120940264D01*
X135790827Y-121000602D01*
X135790814Y-121000609D01*
X135659711Y-121088210D01*
X135659707Y-121088213D01*
X135548213Y-121199707D01*
X135548210Y-121199711D01*
X135460609Y-121330814D01*
X135460602Y-121330827D01*
X135400264Y-121476498D01*
X135400261Y-121476510D01*
X135369500Y-121631153D01*
X132050500Y-121631153D01*
X132050500Y-119391436D01*
X134359217Y-119391436D01*
X134359217Y-119549129D01*
X134389978Y-119703772D01*
X134389981Y-119703784D01*
X134450319Y-119849455D01*
X134450326Y-119849468D01*
X134537927Y-119980571D01*
X134537930Y-119980575D01*
X134649424Y-120092069D01*
X134649428Y-120092072D01*
X134780531Y-120179673D01*
X134780544Y-120179680D01*
X134926215Y-120240018D01*
X134926220Y-120240020D01*
X135080870Y-120270782D01*
X135080873Y-120270783D01*
X135080875Y-120270783D01*
X135238561Y-120270783D01*
X135238562Y-120270782D01*
X135393214Y-120240020D01*
X135538896Y-120179677D01*
X135670006Y-120092072D01*
X135781506Y-119980572D01*
X135869111Y-119849462D01*
X135929454Y-119703780D01*
X135960217Y-119549125D01*
X135960217Y-119391441D01*
X135960217Y-119391438D01*
X135960216Y-119391436D01*
X135944075Y-119310289D01*
X135929454Y-119236786D01*
X135922752Y-119220606D01*
X135869114Y-119091110D01*
X135869107Y-119091097D01*
X135781506Y-118959994D01*
X135781503Y-118959990D01*
X135670009Y-118848496D01*
X135670005Y-118848493D01*
X135624621Y-118818168D01*
X135538902Y-118760892D01*
X135538889Y-118760885D01*
X135442966Y-118721153D01*
X139089500Y-118721153D01*
X139089500Y-118878846D01*
X139120261Y-119033489D01*
X139120264Y-119033501D01*
X139180602Y-119179172D01*
X139180609Y-119179185D01*
X139268210Y-119310288D01*
X139268213Y-119310292D01*
X139379707Y-119421786D01*
X139379711Y-119421789D01*
X139510814Y-119509390D01*
X139510827Y-119509397D01*
X139648461Y-119566406D01*
X139656503Y-119569737D01*
X139755858Y-119589500D01*
X139811153Y-119600499D01*
X139811156Y-119600500D01*
X139811158Y-119600500D01*
X139968844Y-119600500D01*
X139968845Y-119600499D01*
X140123497Y-119569737D01*
X140269179Y-119509394D01*
X140400289Y-119421789D01*
X140511789Y-119310289D01*
X140599394Y-119179179D01*
X140659737Y-119033497D01*
X140676952Y-118946948D01*
X140709336Y-118885040D01*
X140751117Y-118856581D01*
X140889172Y-118799397D01*
X140889172Y-118799396D01*
X140889179Y-118799394D01*
X141020289Y-118711789D01*
X141131789Y-118600289D01*
X141219394Y-118469179D01*
X141279737Y-118323497D01*
X141310500Y-118168842D01*
X141310500Y-118011158D01*
X141310500Y-118011155D01*
X141310499Y-118011153D01*
X141295985Y-117938189D01*
X141279737Y-117856503D01*
X141268879Y-117830289D01*
X141219397Y-117710827D01*
X141219390Y-117710814D01*
X141131789Y-117579711D01*
X141131786Y-117579707D01*
X141020292Y-117468213D01*
X141020288Y-117468210D01*
X140889185Y-117380609D01*
X140889172Y-117380602D01*
X140743501Y-117320264D01*
X140743489Y-117320261D01*
X140588845Y-117289500D01*
X140588842Y-117289500D01*
X140431158Y-117289500D01*
X140431155Y-117289500D01*
X140276510Y-117320261D01*
X140276498Y-117320264D01*
X140130827Y-117380602D01*
X140130814Y-117380609D01*
X139999711Y-117468210D01*
X139999707Y-117468213D01*
X139888213Y-117579707D01*
X139888210Y-117579711D01*
X139800609Y-117710814D01*
X139800602Y-117710827D01*
X139740264Y-117856498D01*
X139740261Y-117856508D01*
X139723047Y-117943050D01*
X139690662Y-118004961D01*
X139648883Y-118033419D01*
X139510823Y-118090604D01*
X139510814Y-118090609D01*
X139379711Y-118178210D01*
X139379707Y-118178213D01*
X139268213Y-118289707D01*
X139268210Y-118289711D01*
X139180609Y-118420814D01*
X139180602Y-118420827D01*
X139120264Y-118566498D01*
X139120261Y-118566510D01*
X139089500Y-118721153D01*
X135442966Y-118721153D01*
X135393218Y-118700547D01*
X135393206Y-118700544D01*
X135238562Y-118669783D01*
X135238559Y-118669783D01*
X135080875Y-118669783D01*
X135080872Y-118669783D01*
X134926227Y-118700544D01*
X134926215Y-118700547D01*
X134780544Y-118760885D01*
X134780531Y-118760892D01*
X134649428Y-118848493D01*
X134649424Y-118848496D01*
X134537930Y-118959990D01*
X134537927Y-118959994D01*
X134450326Y-119091097D01*
X134450319Y-119091110D01*
X134389981Y-119236781D01*
X134389978Y-119236793D01*
X134359217Y-119391436D01*
X132050500Y-119391436D01*
X132050500Y-116161153D01*
X134099500Y-116161153D01*
X134099500Y-116318846D01*
X134130261Y-116473489D01*
X134130264Y-116473501D01*
X134190602Y-116619172D01*
X134190609Y-116619185D01*
X134278210Y-116750288D01*
X134278213Y-116750292D01*
X134389707Y-116861786D01*
X134389711Y-116861789D01*
X134520814Y-116949390D01*
X134520827Y-116949397D01*
X134666498Y-117009735D01*
X134666503Y-117009737D01*
X134821153Y-117040499D01*
X134821156Y-117040500D01*
X134821158Y-117040500D01*
X134978844Y-117040500D01*
X134978845Y-117040499D01*
X135133497Y-117009737D01*
X135279179Y-116949394D01*
X135410289Y-116861789D01*
X135521789Y-116750289D01*
X135609394Y-116619179D01*
X135669737Y-116473497D01*
X135700500Y-116318842D01*
X135700500Y-116161158D01*
X135700500Y-116161155D01*
X135700499Y-116161153D01*
X135692193Y-116119397D01*
X135669737Y-116006503D01*
X135641424Y-115938148D01*
X135609397Y-115860827D01*
X135609390Y-115860814D01*
X135521789Y-115729711D01*
X135521786Y-115729707D01*
X135410292Y-115618213D01*
X135410288Y-115618210D01*
X135279185Y-115530609D01*
X135279172Y-115530602D01*
X135133501Y-115470264D01*
X135133489Y-115470261D01*
X134978845Y-115439500D01*
X134978842Y-115439500D01*
X134821158Y-115439500D01*
X134821155Y-115439500D01*
X134666510Y-115470261D01*
X134666498Y-115470264D01*
X134520827Y-115530602D01*
X134520814Y-115530609D01*
X134389711Y-115618210D01*
X134389707Y-115618213D01*
X134278213Y-115729707D01*
X134278210Y-115729711D01*
X134190609Y-115860814D01*
X134190602Y-115860827D01*
X134130264Y-116006498D01*
X134130261Y-116006510D01*
X134099500Y-116161153D01*
X132050500Y-116161153D01*
X132050500Y-115237512D01*
X138552003Y-115237512D01*
X138552003Y-115395205D01*
X138582764Y-115549848D01*
X138582767Y-115549860D01*
X138643105Y-115695531D01*
X138643112Y-115695544D01*
X138730713Y-115826647D01*
X138730716Y-115826651D01*
X138842210Y-115938145D01*
X138842214Y-115938148D01*
X138973317Y-116025749D01*
X138973330Y-116025756D01*
X139119001Y-116086094D01*
X139119006Y-116086096D01*
X139273656Y-116116858D01*
X139273659Y-116116859D01*
X139273661Y-116116859D01*
X139431347Y-116116859D01*
X139431348Y-116116858D01*
X139586000Y-116086096D01*
X139731682Y-116025753D01*
X139862792Y-115938148D01*
X139974292Y-115826648D01*
X140061897Y-115695538D01*
X140064300Y-115689738D01*
X140083456Y-115643489D01*
X140122240Y-115549856D01*
X140153003Y-115395201D01*
X140153003Y-115237517D01*
X140153003Y-115237514D01*
X140153002Y-115237512D01*
X140136290Y-115153497D01*
X140122240Y-115082862D01*
X140099866Y-115028846D01*
X140061900Y-114937186D01*
X140061893Y-114937173D01*
X139974292Y-114806070D01*
X139974289Y-114806066D01*
X139862795Y-114694572D01*
X139862791Y-114694569D01*
X139731688Y-114606968D01*
X139731675Y-114606961D01*
X139586004Y-114546623D01*
X139585992Y-114546620D01*
X139431348Y-114515859D01*
X139431345Y-114515859D01*
X139273661Y-114515859D01*
X139273658Y-114515859D01*
X139119013Y-114546620D01*
X139119001Y-114546623D01*
X138973330Y-114606961D01*
X138973317Y-114606968D01*
X138842214Y-114694569D01*
X138842210Y-114694572D01*
X138730716Y-114806066D01*
X138730713Y-114806070D01*
X138643112Y-114937173D01*
X138643105Y-114937186D01*
X138582767Y-115082857D01*
X138582764Y-115082869D01*
X138552003Y-115237512D01*
X132050500Y-115237512D01*
X132050500Y-113981153D01*
X134419500Y-113981153D01*
X134419500Y-114138846D01*
X134450261Y-114293489D01*
X134450264Y-114293501D01*
X134510602Y-114439172D01*
X134510609Y-114439185D01*
X134598210Y-114570288D01*
X134598213Y-114570292D01*
X134709707Y-114681786D01*
X134709711Y-114681789D01*
X134840814Y-114769390D01*
X134840827Y-114769397D01*
X134929365Y-114806070D01*
X134986503Y-114829737D01*
X135141153Y-114860499D01*
X135141156Y-114860500D01*
X135141158Y-114860500D01*
X135298844Y-114860500D01*
X135298845Y-114860499D01*
X135453497Y-114829737D01*
X135599179Y-114769394D01*
X135730289Y-114681789D01*
X135841789Y-114570289D01*
X135929394Y-114439179D01*
X135989737Y-114293497D01*
X136020500Y-114138842D01*
X136020500Y-113981158D01*
X136020500Y-113981155D01*
X136020499Y-113981153D01*
X136013208Y-113944500D01*
X135989737Y-113826503D01*
X135989735Y-113826498D01*
X135929397Y-113680827D01*
X135929390Y-113680814D01*
X135841789Y-113549711D01*
X135841786Y-113549707D01*
X135730292Y-113438213D01*
X135730288Y-113438210D01*
X135599185Y-113350609D01*
X135599172Y-113350602D01*
X135453501Y-113290264D01*
X135453489Y-113290261D01*
X135298845Y-113259500D01*
X135298842Y-113259500D01*
X135141158Y-113259500D01*
X135141155Y-113259500D01*
X134986510Y-113290261D01*
X134986498Y-113290264D01*
X134840827Y-113350602D01*
X134840814Y-113350609D01*
X134709711Y-113438210D01*
X134709707Y-113438213D01*
X134598213Y-113549707D01*
X134598210Y-113549711D01*
X134510609Y-113680814D01*
X134510602Y-113680827D01*
X134450264Y-113826498D01*
X134450261Y-113826510D01*
X134419500Y-113981153D01*
X132050500Y-113981153D01*
X132050500Y-111791153D01*
X143484500Y-111791153D01*
X143484500Y-111948846D01*
X143515261Y-112103489D01*
X143515264Y-112103501D01*
X143575061Y-112247864D01*
X143584500Y-112295316D01*
X143584500Y-112761006D01*
X143584500Y-112898994D01*
X143584500Y-112898996D01*
X143584499Y-112898996D01*
X143611418Y-113034322D01*
X143611421Y-113034332D01*
X143664222Y-113161807D01*
X143740887Y-113276545D01*
X144128454Y-113664112D01*
X144243192Y-113740777D01*
X144370667Y-113793578D01*
X144370672Y-113793580D01*
X144370676Y-113793580D01*
X144370677Y-113793581D01*
X144506003Y-113820500D01*
X144506006Y-113820500D01*
X144506007Y-113820500D01*
X144596500Y-113820500D01*
X144663539Y-113840185D01*
X144709294Y-113892989D01*
X144720500Y-113944500D01*
X144720500Y-114066925D01*
X144720500Y-114066927D01*
X144720499Y-114066927D01*
X144746611Y-114198197D01*
X144746614Y-114198207D01*
X144797831Y-114321857D01*
X144797838Y-114321870D01*
X144872197Y-114433155D01*
X144872200Y-114433159D01*
X144966840Y-114527799D01*
X144966844Y-114527802D01*
X145078129Y-114602161D01*
X145078142Y-114602168D01*
X145170115Y-114640264D01*
X145201797Y-114653387D01*
X145201801Y-114653387D01*
X145201802Y-114653388D01*
X145333072Y-114679500D01*
X145333075Y-114679500D01*
X145466927Y-114679500D01*
X145555244Y-114661932D01*
X145598203Y-114653387D01*
X145710276Y-114606965D01*
X145721857Y-114602168D01*
X145721857Y-114602167D01*
X145721864Y-114602165D01*
X145833156Y-114527802D01*
X145927802Y-114433156D01*
X146002165Y-114321864D01*
X146053387Y-114198203D01*
X146074271Y-114093213D01*
X146079500Y-114066927D01*
X146079500Y-113944500D01*
X146099185Y-113877461D01*
X146151989Y-113831706D01*
X146203500Y-113820500D01*
X155357463Y-113820500D01*
X155424502Y-113840185D01*
X155426353Y-113841398D01*
X155438318Y-113849393D01*
X155438322Y-113849395D01*
X155583998Y-113909735D01*
X155584003Y-113909737D01*
X155584007Y-113909737D01*
X155584008Y-113909738D01*
X155652603Y-113923383D01*
X155714514Y-113955768D01*
X155749088Y-114016484D01*
X155745348Y-114086253D01*
X155704481Y-114142925D01*
X155652603Y-114166617D01*
X155584008Y-114180261D01*
X155583998Y-114180264D01*
X155438327Y-114240602D01*
X155438314Y-114240609D01*
X155307211Y-114328210D01*
X155307207Y-114328213D01*
X155195713Y-114439707D01*
X155195710Y-114439711D01*
X155108109Y-114570814D01*
X155108102Y-114570827D01*
X155047764Y-114716498D01*
X155047761Y-114716510D01*
X155017000Y-114871153D01*
X155017000Y-115028846D01*
X155047761Y-115183489D01*
X155047764Y-115183501D01*
X155108102Y-115329172D01*
X155108109Y-115329185D01*
X155195710Y-115460288D01*
X155195713Y-115460292D01*
X155307207Y-115571786D01*
X155307211Y-115571789D01*
X155438314Y-115659390D01*
X155438327Y-115659397D01*
X155525595Y-115695544D01*
X155584003Y-115719737D01*
X155738653Y-115750499D01*
X155738656Y-115750500D01*
X155738658Y-115750500D01*
X155896344Y-115750500D01*
X155896345Y-115750499D01*
X156050997Y-115719737D01*
X156196679Y-115659394D01*
X156327789Y-115571789D01*
X156439289Y-115460289D01*
X156439290Y-115460286D01*
X156440805Y-115458772D01*
X156502128Y-115425286D01*
X156552679Y-115424835D01*
X156566619Y-115427608D01*
X156581157Y-115430500D01*
X156581158Y-115430500D01*
X156738844Y-115430500D01*
X156738845Y-115430499D01*
X156893497Y-115399737D01*
X157039179Y-115339394D01*
X157039188Y-115339387D01*
X157039979Y-115338966D01*
X157040450Y-115338867D01*
X157044808Y-115337063D01*
X157045150Y-115337889D01*
X157108382Y-115324721D01*
X157167328Y-115345220D01*
X157285814Y-115424390D01*
X157285827Y-115424397D01*
X157431498Y-115484735D01*
X157431503Y-115484737D01*
X157586153Y-115515499D01*
X157586156Y-115515500D01*
X157586158Y-115515500D01*
X157743844Y-115515500D01*
X157743845Y-115515499D01*
X157898497Y-115484737D01*
X158042026Y-115425286D01*
X158044172Y-115424397D01*
X158044172Y-115424396D01*
X158044179Y-115424394D01*
X158175289Y-115336789D01*
X158243066Y-115269011D01*
X158304387Y-115235528D01*
X158374079Y-115240512D01*
X158430013Y-115282383D01*
X158440106Y-115298245D01*
X158440604Y-115299177D01*
X158528210Y-115430288D01*
X158528213Y-115430292D01*
X158639707Y-115541786D01*
X158639711Y-115541789D01*
X158770814Y-115629390D01*
X158770827Y-115629397D01*
X158916498Y-115689735D01*
X158916503Y-115689737D01*
X159067312Y-115719735D01*
X159071153Y-115720499D01*
X159071156Y-115720500D01*
X159071158Y-115720500D01*
X159228844Y-115720500D01*
X159228845Y-115720499D01*
X159383497Y-115689737D01*
X159529179Y-115629394D01*
X159660289Y-115541789D01*
X159771789Y-115430289D01*
X159838030Y-115331153D01*
X170449500Y-115331153D01*
X170449500Y-115488846D01*
X170480261Y-115643489D01*
X170480264Y-115643501D01*
X170540602Y-115789172D01*
X170540609Y-115789185D01*
X170628210Y-115920288D01*
X170628213Y-115920292D01*
X170739707Y-116031786D01*
X170739711Y-116031789D01*
X170870814Y-116119390D01*
X170870827Y-116119397D01*
X171016498Y-116179735D01*
X171016503Y-116179737D01*
X171151039Y-116206498D01*
X171171153Y-116210499D01*
X171171156Y-116210500D01*
X171171158Y-116210500D01*
X171328844Y-116210500D01*
X171328845Y-116210499D01*
X171483497Y-116179737D01*
X171629179Y-116119394D01*
X171760289Y-116031789D01*
X171871789Y-115920289D01*
X171959394Y-115789179D01*
X172019737Y-115643497D01*
X172050500Y-115488842D01*
X172050500Y-115331158D01*
X172050500Y-115331155D01*
X172050499Y-115331153D01*
X172044139Y-115299179D01*
X172019737Y-115176503D01*
X172010208Y-115153497D01*
X171959397Y-115030827D01*
X171959390Y-115030814D01*
X171871789Y-114899711D01*
X171871786Y-114899707D01*
X171760292Y-114788213D01*
X171760288Y-114788210D01*
X171629185Y-114700609D01*
X171629172Y-114700602D01*
X171483501Y-114640264D01*
X171483489Y-114640261D01*
X171328845Y-114609500D01*
X171328842Y-114609500D01*
X171171158Y-114609500D01*
X171171155Y-114609500D01*
X171016510Y-114640261D01*
X171016498Y-114640264D01*
X170870827Y-114700602D01*
X170870814Y-114700609D01*
X170739711Y-114788210D01*
X170739707Y-114788213D01*
X170628213Y-114899707D01*
X170628210Y-114899711D01*
X170540609Y-115030814D01*
X170540602Y-115030827D01*
X170480264Y-115176498D01*
X170480261Y-115176510D01*
X170449500Y-115331153D01*
X159838030Y-115331153D01*
X159859394Y-115299179D01*
X159862337Y-115292074D01*
X159868327Y-115277614D01*
X159910205Y-115176510D01*
X159919737Y-115153497D01*
X159950500Y-114998842D01*
X159950500Y-114841158D01*
X159950500Y-114841155D01*
X159950499Y-114841153D01*
X159948228Y-114829735D01*
X159919737Y-114686503D01*
X159916836Y-114679500D01*
X159859397Y-114540827D01*
X159859390Y-114540814D01*
X159771789Y-114409711D01*
X159771786Y-114409707D01*
X159660292Y-114298213D01*
X159660288Y-114298210D01*
X159529185Y-114210609D01*
X159529172Y-114210602D01*
X159383501Y-114150264D01*
X159383489Y-114150261D01*
X159228845Y-114119500D01*
X159228842Y-114119500D01*
X159071158Y-114119500D01*
X159071155Y-114119500D01*
X158916510Y-114150261D01*
X158916498Y-114150264D01*
X158770827Y-114210602D01*
X158770814Y-114210609D01*
X158639711Y-114298210D01*
X158571934Y-114365987D01*
X158510610Y-114399471D01*
X158440919Y-114394486D01*
X158384985Y-114352615D01*
X158374889Y-114336748D01*
X158374396Y-114335826D01*
X158374394Y-114335821D01*
X158369310Y-114328213D01*
X158286789Y-114204711D01*
X158286786Y-114204707D01*
X158175292Y-114093213D01*
X158175288Y-114093210D01*
X158136963Y-114067602D01*
X158092158Y-114013990D01*
X158083451Y-113944665D01*
X158113605Y-113881637D01*
X158173048Y-113844918D01*
X158205854Y-113840500D01*
X165226546Y-113840500D01*
X165273997Y-113849938D01*
X165321795Y-113869737D01*
X165321798Y-113869737D01*
X165321803Y-113869739D01*
X165476445Y-113900499D01*
X165476448Y-113900500D01*
X165476450Y-113900500D01*
X165634136Y-113900500D01*
X165634137Y-113900499D01*
X165788789Y-113869737D01*
X165934471Y-113809394D01*
X166065581Y-113721789D01*
X166177081Y-113610289D01*
X166264686Y-113479179D01*
X166325029Y-113333497D01*
X166355792Y-113178842D01*
X166355792Y-113021158D01*
X166355792Y-113021155D01*
X166355791Y-113021153D01*
X166325030Y-112866510D01*
X166325029Y-112866503D01*
X166281331Y-112761006D01*
X166264689Y-112720827D01*
X166264682Y-112720814D01*
X166177081Y-112589711D01*
X166177078Y-112589707D01*
X166065584Y-112478213D01*
X166065580Y-112478210D01*
X165934477Y-112390609D01*
X165934464Y-112390602D01*
X165788793Y-112330264D01*
X165788785Y-112330262D01*
X165755598Y-112323660D01*
X165693688Y-112291273D01*
X165659115Y-112230557D01*
X165655792Y-112202043D01*
X165655792Y-112101155D01*
X165655791Y-112101153D01*
X165645451Y-112049172D01*
X165625029Y-111946503D01*
X165625027Y-111946498D01*
X165564689Y-111800827D01*
X165564682Y-111800814D01*
X165477081Y-111669711D01*
X165477078Y-111669707D01*
X165365584Y-111558213D01*
X165365580Y-111558210D01*
X165234477Y-111470609D01*
X165234464Y-111470602D01*
X165088793Y-111410264D01*
X165088781Y-111410261D01*
X164934137Y-111379500D01*
X164934134Y-111379500D01*
X164776450Y-111379500D01*
X164776447Y-111379500D01*
X164621802Y-111410261D01*
X164621790Y-111410264D01*
X164476119Y-111470602D01*
X164476106Y-111470609D01*
X164345003Y-111558210D01*
X164344999Y-111558213D01*
X164233505Y-111669707D01*
X164233502Y-111669711D01*
X164145901Y-111800814D01*
X164145894Y-111800827D01*
X164085556Y-111946498D01*
X164085553Y-111946510D01*
X164054792Y-112101153D01*
X164054792Y-112101158D01*
X164054792Y-112258842D01*
X164056841Y-112269142D01*
X164061250Y-112291310D01*
X164055021Y-112360902D01*
X164012158Y-112416078D01*
X163946268Y-112439322D01*
X163939632Y-112439500D01*
X156242816Y-112439500D01*
X156195364Y-112430061D01*
X156051001Y-112370264D01*
X156050991Y-112370261D01*
X155975092Y-112355164D01*
X155958334Y-112346398D01*
X155939855Y-112342378D01*
X155914818Y-112323635D01*
X155913181Y-112322779D01*
X155911601Y-112321227D01*
X155881817Y-112291442D01*
X155848333Y-112230118D01*
X155845500Y-112203762D01*
X155845500Y-109272418D01*
X155865185Y-109205379D01*
X155866398Y-109203527D01*
X155878382Y-109185592D01*
X155909394Y-109139179D01*
X155969737Y-108993497D01*
X155980609Y-108938842D01*
X155996231Y-108860308D01*
X156010945Y-108832177D01*
X156024135Y-108803297D01*
X156027024Y-108801440D01*
X156028616Y-108798397D01*
X156056208Y-108782684D01*
X156082913Y-108765523D01*
X156087506Y-108764862D01*
X156089332Y-108763823D01*
X156117848Y-108760500D01*
X156152025Y-108760500D01*
X156219064Y-108780185D01*
X156264819Y-108832989D01*
X156273642Y-108860309D01*
X156300133Y-108993488D01*
X156300136Y-108993500D01*
X156360474Y-109139171D01*
X156360481Y-109139184D01*
X156448082Y-109270287D01*
X156448085Y-109270291D01*
X156559579Y-109381785D01*
X156559583Y-109381788D01*
X156690686Y-109469389D01*
X156690699Y-109469396D01*
X156836370Y-109529734D01*
X156836375Y-109529736D01*
X156991025Y-109560498D01*
X156991028Y-109560499D01*
X156991030Y-109560499D01*
X157148716Y-109560499D01*
X157148717Y-109560498D01*
X157303369Y-109529736D01*
X157449051Y-109469393D01*
X157485495Y-109445042D01*
X157580747Y-109381397D01*
X157647425Y-109360519D01*
X157649638Y-109360499D01*
X163479902Y-109360499D01*
X163509342Y-109369143D01*
X163539329Y-109375667D01*
X163544344Y-109379421D01*
X163546941Y-109380184D01*
X163567574Y-109396811D01*
X163567583Y-109396818D01*
X163715139Y-109544374D01*
X163715149Y-109544385D01*
X163719479Y-109548715D01*
X163719480Y-109548716D01*
X163831284Y-109660520D01*
X163918095Y-109710639D01*
X163968215Y-109739577D01*
X163987962Y-109744868D01*
X163998955Y-109750299D01*
X164012268Y-109762565D01*
X164031711Y-109773790D01*
X164059707Y-109801786D01*
X164059711Y-109801789D01*
X164190814Y-109889390D01*
X164190827Y-109889397D01*
X164310719Y-109939057D01*
X164336503Y-109949737D01*
X164484482Y-109979172D01*
X164491153Y-109980499D01*
X164491156Y-109980500D01*
X164491158Y-109980500D01*
X164648844Y-109980500D01*
X164742295Y-109961911D01*
X164811887Y-109968138D01*
X164867064Y-110011001D01*
X164869589Y-110014637D01*
X164933502Y-110110288D01*
X164933505Y-110110292D01*
X165044999Y-110221786D01*
X165045003Y-110221789D01*
X165176106Y-110309390D01*
X165176119Y-110309397D01*
X165298925Y-110360264D01*
X165321795Y-110369737D01*
X165476445Y-110400499D01*
X165476448Y-110400500D01*
X165476450Y-110400500D01*
X165634136Y-110400500D01*
X165634137Y-110400499D01*
X165788789Y-110369737D01*
X165934471Y-110309394D01*
X166065581Y-110221789D01*
X166177081Y-110110289D01*
X166264686Y-109979179D01*
X166325029Y-109833497D01*
X166355792Y-109678842D01*
X166355792Y-109521158D01*
X166355792Y-109521155D01*
X166355791Y-109521153D01*
X166331059Y-109396818D01*
X166325029Y-109366503D01*
X166296279Y-109297093D01*
X166264689Y-109220827D01*
X166264682Y-109220814D01*
X166177081Y-109089711D01*
X166177078Y-109089707D01*
X166065584Y-108978213D01*
X166065580Y-108978210D01*
X165934477Y-108890609D01*
X165934464Y-108890602D01*
X165788793Y-108830264D01*
X165788781Y-108830261D01*
X165634137Y-108799500D01*
X165634134Y-108799500D01*
X165612503Y-108799500D01*
X165545464Y-108779815D01*
X165499709Y-108727011D01*
X165489765Y-108657853D01*
X165497942Y-108628048D01*
X165517441Y-108580971D01*
X165517443Y-108580967D01*
X165548206Y-108426312D01*
X165548206Y-108268628D01*
X165548206Y-108268625D01*
X165548205Y-108268623D01*
X165532796Y-108191158D01*
X165517443Y-108113973D01*
X165512439Y-108101891D01*
X165504972Y-108032422D01*
X165536248Y-107969943D01*
X165596338Y-107934292D01*
X165627001Y-107930441D01*
X165774815Y-107930441D01*
X165774816Y-107930440D01*
X165929468Y-107899678D01*
X166075150Y-107839335D01*
X166206260Y-107751730D01*
X166317760Y-107640230D01*
X166405365Y-107509120D01*
X166409035Y-107500261D01*
X166421776Y-107469500D01*
X166465708Y-107363438D01*
X166496471Y-107208783D01*
X166496471Y-107051099D01*
X166496471Y-107051096D01*
X166496470Y-107051094D01*
X166465709Y-106896451D01*
X166465708Y-106896444D01*
X166442754Y-106841027D01*
X166405368Y-106750768D01*
X166405361Y-106750755D01*
X166317760Y-106619652D01*
X166317757Y-106619648D01*
X166206263Y-106508154D01*
X166206259Y-106508151D01*
X166075156Y-106420550D01*
X166075143Y-106420543D01*
X165929472Y-106360205D01*
X165929460Y-106360202D01*
X165774816Y-106329441D01*
X165774813Y-106329441D01*
X165617129Y-106329441D01*
X165617126Y-106329441D01*
X165462481Y-106360202D01*
X165462469Y-106360205D01*
X165316798Y-106420543D01*
X165316785Y-106420550D01*
X165185682Y-106508151D01*
X165185678Y-106508154D01*
X165074184Y-106619648D01*
X165074177Y-106619657D01*
X165050822Y-106654609D01*
X164997209Y-106699413D01*
X164927884Y-106708119D01*
X164923531Y-106707333D01*
X164828846Y-106688499D01*
X164828842Y-106688499D01*
X164671158Y-106688499D01*
X164671155Y-106688499D01*
X164516510Y-106719260D01*
X164516498Y-106719263D01*
X164370827Y-106779601D01*
X164370814Y-106779608D01*
X164239711Y-106867209D01*
X164239707Y-106867212D01*
X164128212Y-106978707D01*
X164109301Y-107007011D01*
X164097687Y-107024390D01*
X164044077Y-107069196D01*
X163994586Y-107079500D01*
X160917848Y-107079500D01*
X160850809Y-107059815D01*
X160805054Y-107007011D01*
X160796231Y-106979692D01*
X160769738Y-106846508D01*
X160769737Y-106846507D01*
X160769737Y-106846503D01*
X160709394Y-106700821D01*
X160700174Y-106687022D01*
X160679295Y-106620348D01*
X160688713Y-106570681D01*
X160742331Y-106441236D01*
X160773094Y-106286581D01*
X160773094Y-106128897D01*
X160773094Y-106128894D01*
X160757500Y-106050500D01*
X160755188Y-106038878D01*
X160761415Y-105969289D01*
X160804277Y-105914111D01*
X160832994Y-105899896D01*
X160832673Y-105899120D01*
X160852695Y-105890827D01*
X160983983Y-105836446D01*
X161115093Y-105748841D01*
X161226593Y-105637341D01*
X161314198Y-105506231D01*
X161317465Y-105498345D01*
X161374539Y-105360553D01*
X161374541Y-105360549D01*
X161405304Y-105205894D01*
X161405304Y-105171153D01*
X165749500Y-105171153D01*
X165749500Y-105328846D01*
X165780261Y-105483489D01*
X165780264Y-105483501D01*
X165840602Y-105629172D01*
X165840609Y-105629185D01*
X165928210Y-105760288D01*
X165928213Y-105760292D01*
X166039707Y-105871786D01*
X166039711Y-105871789D01*
X166170814Y-105959390D01*
X166170827Y-105959397D01*
X166316498Y-106019735D01*
X166316503Y-106019737D01*
X166412741Y-106038880D01*
X166471153Y-106050499D01*
X166471156Y-106050500D01*
X166471158Y-106050500D01*
X166628844Y-106050500D01*
X166628845Y-106050499D01*
X166783497Y-106019737D01*
X166929179Y-105959394D01*
X167060289Y-105871789D01*
X167171789Y-105760289D01*
X167259394Y-105629179D01*
X167260503Y-105626503D01*
X167312793Y-105500261D01*
X167319737Y-105483497D01*
X167350500Y-105328842D01*
X167350500Y-105171158D01*
X167350500Y-105171155D01*
X167350499Y-105171153D01*
X167350115Y-105169224D01*
X167319737Y-105016503D01*
X167318939Y-105014577D01*
X167259397Y-104870827D01*
X167259390Y-104870814D01*
X167171789Y-104739711D01*
X167171786Y-104739707D01*
X167060292Y-104628213D01*
X167060288Y-104628210D01*
X166929185Y-104540609D01*
X166929172Y-104540602D01*
X166783501Y-104480264D01*
X166783489Y-104480261D01*
X166628845Y-104449500D01*
X166628842Y-104449500D01*
X166471158Y-104449500D01*
X166471155Y-104449500D01*
X166316510Y-104480261D01*
X166316498Y-104480264D01*
X166170827Y-104540602D01*
X166170814Y-104540609D01*
X166039711Y-104628210D01*
X166039707Y-104628213D01*
X165928213Y-104739707D01*
X165928210Y-104739711D01*
X165840609Y-104870814D01*
X165840602Y-104870827D01*
X165780264Y-105016498D01*
X165780261Y-105016510D01*
X165749500Y-105171153D01*
X161405304Y-105171153D01*
X161405304Y-105048210D01*
X161405304Y-105048207D01*
X161405303Y-105048205D01*
X161374542Y-104893562D01*
X161374541Y-104893555D01*
X161365124Y-104870821D01*
X161314201Y-104747879D01*
X161314194Y-104747866D01*
X161226593Y-104616763D01*
X161226590Y-104616759D01*
X161115096Y-104505265D01*
X161115092Y-104505262D01*
X160983989Y-104417661D01*
X160983976Y-104417654D01*
X160838305Y-104357316D01*
X160838293Y-104357313D01*
X160683649Y-104326552D01*
X160683646Y-104326552D01*
X160525962Y-104326552D01*
X160525959Y-104326552D01*
X160371314Y-104357313D01*
X160371302Y-104357316D01*
X160225631Y-104417654D01*
X160225618Y-104417661D01*
X160094515Y-104505262D01*
X160094511Y-104505265D01*
X159983017Y-104616759D01*
X159983014Y-104616763D01*
X159895413Y-104747866D01*
X159895406Y-104747879D01*
X159835068Y-104893550D01*
X159835065Y-104893562D01*
X159804304Y-105048205D01*
X159804304Y-105205898D01*
X159822209Y-105295911D01*
X159815982Y-105365502D01*
X159773119Y-105420680D01*
X159744403Y-105434897D01*
X159744724Y-105435671D01*
X159593421Y-105498341D01*
X159593408Y-105498348D01*
X159462305Y-105585949D01*
X159462301Y-105585952D01*
X159350807Y-105697446D01*
X159350804Y-105697450D01*
X159263203Y-105828553D01*
X159263196Y-105828566D01*
X159202858Y-105974237D01*
X159202855Y-105974249D01*
X159172094Y-106128892D01*
X159172094Y-106286585D01*
X159202855Y-106441228D01*
X159202858Y-106441240D01*
X159263196Y-106586910D01*
X159263202Y-106586921D01*
X159272421Y-106600718D01*
X159293298Y-106667396D01*
X159283879Y-106717060D01*
X159230264Y-106846498D01*
X159230261Y-106846508D01*
X159203769Y-106979692D01*
X159171384Y-107041603D01*
X159110668Y-107076177D01*
X159082152Y-107079500D01*
X157290097Y-107079500D01*
X157223058Y-107059815D01*
X157202416Y-107043181D01*
X156765745Y-106606510D01*
X156765743Y-106606507D01*
X156646872Y-106487636D01*
X156646871Y-106487635D01*
X156558241Y-106436465D01*
X156509940Y-106408578D01*
X156357212Y-106367654D01*
X156199098Y-106367654D01*
X156191502Y-106367654D01*
X156191486Y-106367655D01*
X155610140Y-106367655D01*
X155543101Y-106347970D01*
X155541249Y-106346757D01*
X155409559Y-106258764D01*
X155409546Y-106258757D01*
X155288594Y-106208658D01*
X155234190Y-106164817D01*
X155212125Y-106098523D01*
X155214428Y-106069911D01*
X155233457Y-105974249D01*
X155240500Y-105938844D01*
X155240500Y-105781155D01*
X155240499Y-105781153D01*
X155231020Y-105733501D01*
X155209737Y-105626503D01*
X155209735Y-105626498D01*
X155149397Y-105480827D01*
X155149390Y-105480814D01*
X155061789Y-105349711D01*
X155061786Y-105349707D01*
X154950292Y-105238213D01*
X154950288Y-105238210D01*
X154819185Y-105150609D01*
X154819172Y-105150602D01*
X154673501Y-105090264D01*
X154673489Y-105090261D01*
X154518845Y-105059500D01*
X154518842Y-105059500D01*
X154361158Y-105059500D01*
X154361155Y-105059500D01*
X154206510Y-105090261D01*
X154206498Y-105090264D01*
X154060827Y-105150602D01*
X154060814Y-105150609D01*
X153929711Y-105238210D01*
X153929707Y-105238213D01*
X153818213Y-105349707D01*
X153818210Y-105349711D01*
X153730609Y-105480814D01*
X153730602Y-105480827D01*
X153670264Y-105626498D01*
X153670261Y-105626510D01*
X153639500Y-105781153D01*
X153639500Y-105938846D01*
X153661710Y-106050499D01*
X153670263Y-106093497D01*
X153672148Y-106098048D01*
X153679617Y-106167515D01*
X153648343Y-106229995D01*
X153588254Y-106265648D01*
X153557587Y-106269500D01*
X146907848Y-106269500D01*
X146840809Y-106249815D01*
X146795054Y-106197011D01*
X146786231Y-106169692D01*
X146759738Y-106036508D01*
X146759737Y-106036507D01*
X146759737Y-106036503D01*
X146748879Y-106010289D01*
X146699397Y-105890827D01*
X146699390Y-105890814D01*
X146611789Y-105759711D01*
X146611786Y-105759707D01*
X146500292Y-105648213D01*
X146500288Y-105648210D01*
X146369185Y-105560609D01*
X146369172Y-105560602D01*
X146223501Y-105500264D01*
X146223489Y-105500261D01*
X146068845Y-105469500D01*
X146068842Y-105469500D01*
X145911158Y-105469500D01*
X145911155Y-105469500D01*
X145756510Y-105500261D01*
X145756498Y-105500264D01*
X145610827Y-105560602D01*
X145610814Y-105560609D01*
X145479711Y-105648210D01*
X145479707Y-105648213D01*
X145368213Y-105759707D01*
X145368210Y-105759711D01*
X145280609Y-105890814D01*
X145280602Y-105890827D01*
X145220264Y-106036498D01*
X145220261Y-106036508D01*
X145195208Y-106162456D01*
X145162823Y-106224367D01*
X145102107Y-106258941D01*
X145032337Y-106255200D01*
X145004701Y-106241367D01*
X144958478Y-106210482D01*
X144958477Y-106210481D01*
X144958475Y-106210480D01*
X144958472Y-106210478D01*
X144958467Y-106210476D01*
X144812797Y-106150138D01*
X144812785Y-106150135D01*
X144658141Y-106119374D01*
X144658138Y-106119374D01*
X144500454Y-106119374D01*
X144500451Y-106119374D01*
X144345806Y-106150135D01*
X144345794Y-106150138D01*
X144200123Y-106210476D01*
X144200110Y-106210483D01*
X144069007Y-106298084D01*
X144069003Y-106298087D01*
X143957509Y-106409581D01*
X143957506Y-106409585D01*
X143869905Y-106540688D01*
X143869898Y-106540701D01*
X143809560Y-106686372D01*
X143809557Y-106686384D01*
X143778796Y-106841027D01*
X143778796Y-106998720D01*
X143809557Y-107153363D01*
X143809560Y-107153375D01*
X143869898Y-107299046D01*
X143869905Y-107299059D01*
X143957506Y-107430162D01*
X143957509Y-107430166D01*
X144069003Y-107541660D01*
X144069007Y-107541663D01*
X144200110Y-107629264D01*
X144200123Y-107629271D01*
X144313482Y-107676225D01*
X144345799Y-107689611D01*
X144472397Y-107714793D01*
X144500449Y-107720373D01*
X144500452Y-107720374D01*
X144500454Y-107720374D01*
X144658140Y-107720374D01*
X144658141Y-107720373D01*
X144812793Y-107689611D01*
X144958475Y-107629268D01*
X144962381Y-107626658D01*
X145029053Y-107605774D01*
X145096435Y-107624251D01*
X145143131Y-107676225D01*
X145152896Y-107705557D01*
X145154733Y-107714793D01*
X145154737Y-107714806D01*
X145215075Y-107860477D01*
X145215082Y-107860490D01*
X145296193Y-107981880D01*
X145317071Y-108048557D01*
X145298587Y-108115938D01*
X145280774Y-108138451D01*
X145254210Y-108165015D01*
X145166609Y-108296118D01*
X145166602Y-108296131D01*
X145106264Y-108441802D01*
X145106261Y-108441814D01*
X145075500Y-108596457D01*
X145075500Y-108754150D01*
X145106261Y-108908793D01*
X145106264Y-108908805D01*
X145166602Y-109054476D01*
X145166609Y-109054489D01*
X145254210Y-109185592D01*
X145254213Y-109185596D01*
X145365707Y-109297090D01*
X145365711Y-109297093D01*
X145496814Y-109384694D01*
X145496827Y-109384701D01*
X145642498Y-109445039D01*
X145642503Y-109445041D01*
X145764908Y-109469389D01*
X145797153Y-109475803D01*
X145797156Y-109475804D01*
X145797158Y-109475804D01*
X145954844Y-109475804D01*
X145954845Y-109475803D01*
X146109497Y-109445041D01*
X146255179Y-109384698D01*
X146386289Y-109297093D01*
X146497789Y-109185593D01*
X146585394Y-109054483D01*
X146645737Y-108908801D01*
X146661738Y-108828356D01*
X146676638Y-108753455D01*
X146709023Y-108691544D01*
X146710574Y-108689965D01*
X146892721Y-108507819D01*
X146954044Y-108474334D01*
X146980402Y-108471500D01*
X153168867Y-108471500D01*
X153235906Y-108491185D01*
X153281661Y-108543989D01*
X153291605Y-108613147D01*
X153289975Y-108620477D01*
X153290230Y-108620528D01*
X153258279Y-108781153D01*
X153258279Y-108938846D01*
X153289040Y-109093489D01*
X153289043Y-109093501D01*
X153349381Y-109239172D01*
X153349388Y-109239185D01*
X153436989Y-109370288D01*
X153436992Y-109370292D01*
X153548486Y-109481786D01*
X153548490Y-109481789D01*
X153679593Y-109569390D01*
X153679606Y-109569397D01*
X153791982Y-109615944D01*
X153825282Y-109629737D01*
X153979932Y-109660499D01*
X153979935Y-109660500D01*
X153979937Y-109660500D01*
X154137623Y-109660500D01*
X154137624Y-109660499D01*
X154292276Y-109629737D01*
X154383049Y-109592137D01*
X154452516Y-109584669D01*
X154514996Y-109615944D01*
X154550648Y-109676033D01*
X154554500Y-109706699D01*
X154554500Y-112295500D01*
X154534815Y-112362539D01*
X154482011Y-112408294D01*
X154430500Y-112419500D01*
X151213460Y-112419500D01*
X151146421Y-112399815D01*
X151100666Y-112347011D01*
X151090056Y-112283354D01*
X151090500Y-112278843D01*
X151090500Y-112121155D01*
X151090499Y-112121153D01*
X151086521Y-112101153D01*
X151059737Y-111966503D01*
X151052423Y-111948846D01*
X150999397Y-111820827D01*
X150999390Y-111820814D01*
X150911789Y-111689711D01*
X150911786Y-111689707D01*
X150800292Y-111578213D01*
X150800288Y-111578210D01*
X150669185Y-111490609D01*
X150669172Y-111490602D01*
X150523501Y-111430264D01*
X150523489Y-111430261D01*
X150368845Y-111399500D01*
X150368842Y-111399500D01*
X150211158Y-111399500D01*
X150211155Y-111399500D01*
X150056510Y-111430261D01*
X150056507Y-111430262D01*
X150056506Y-111430262D01*
X150056503Y-111430263D01*
X149970496Y-111465887D01*
X149907015Y-111492182D01*
X149837545Y-111499650D01*
X149775066Y-111468374D01*
X149745002Y-111425072D01*
X149738868Y-111410264D01*
X149705373Y-111329397D01*
X149689397Y-111290827D01*
X149689390Y-111290814D01*
X149601789Y-111159711D01*
X149601786Y-111159707D01*
X149493232Y-111051153D01*
X152179500Y-111051153D01*
X152179500Y-111208846D01*
X152210261Y-111363489D01*
X152210264Y-111363501D01*
X152270602Y-111509172D01*
X152270609Y-111509185D01*
X152358210Y-111640288D01*
X152358213Y-111640292D01*
X152469707Y-111751786D01*
X152469711Y-111751789D01*
X152600814Y-111839390D01*
X152600827Y-111839397D01*
X152746498Y-111899735D01*
X152746503Y-111899737D01*
X152901153Y-111930499D01*
X152901156Y-111930500D01*
X152901158Y-111930500D01*
X153058844Y-111930500D01*
X153058845Y-111930499D01*
X153213497Y-111899737D01*
X153359179Y-111839394D01*
X153490289Y-111751789D01*
X153601789Y-111640289D01*
X153689394Y-111509179D01*
X153749737Y-111363497D01*
X153780500Y-111208842D01*
X153780500Y-111051158D01*
X153780500Y-111051155D01*
X153780499Y-111051153D01*
X153770159Y-110999172D01*
X153749737Y-110896503D01*
X153731925Y-110853501D01*
X153689397Y-110750827D01*
X153689390Y-110750814D01*
X153601789Y-110619711D01*
X153601786Y-110619707D01*
X153490292Y-110508213D01*
X153490288Y-110508210D01*
X153359185Y-110420609D01*
X153359172Y-110420602D01*
X153213501Y-110360264D01*
X153213489Y-110360261D01*
X153058845Y-110329500D01*
X153058842Y-110329500D01*
X152901158Y-110329500D01*
X152901155Y-110329500D01*
X152746510Y-110360261D01*
X152746498Y-110360264D01*
X152600827Y-110420602D01*
X152600814Y-110420609D01*
X152469711Y-110508210D01*
X152469707Y-110508213D01*
X152358213Y-110619707D01*
X152358210Y-110619711D01*
X152270609Y-110750814D01*
X152270602Y-110750827D01*
X152210264Y-110896498D01*
X152210261Y-110896510D01*
X152179500Y-111051153D01*
X149493232Y-111051153D01*
X149490292Y-111048213D01*
X149490288Y-111048210D01*
X149359185Y-110960609D01*
X149359172Y-110960602D01*
X149213501Y-110900264D01*
X149213489Y-110900261D01*
X149058845Y-110869500D01*
X149058842Y-110869500D01*
X148901158Y-110869500D01*
X148901155Y-110869500D01*
X148746510Y-110900261D01*
X148746498Y-110900264D01*
X148600827Y-110960602D01*
X148600814Y-110960609D01*
X148469711Y-111048210D01*
X148469707Y-111048213D01*
X148358213Y-111159707D01*
X148358210Y-111159711D01*
X148270609Y-111290814D01*
X148270602Y-111290827D01*
X148210264Y-111436498D01*
X148210261Y-111436510D01*
X148179500Y-111591153D01*
X148179500Y-111748846D01*
X148210261Y-111903489D01*
X148210264Y-111903501D01*
X148270602Y-112049172D01*
X148270609Y-112049185D01*
X148358210Y-112180288D01*
X148358213Y-112180292D01*
X148385740Y-112207819D01*
X148419225Y-112269142D01*
X148414241Y-112338834D01*
X148372369Y-112394767D01*
X148306905Y-112419184D01*
X148298059Y-112419500D01*
X145109500Y-112419500D01*
X145100814Y-112416949D01*
X145091853Y-112418238D01*
X145067812Y-112407259D01*
X145042461Y-112399815D01*
X145036533Y-112392974D01*
X145028297Y-112389213D01*
X145014007Y-112366978D01*
X144996706Y-112347011D01*
X144994418Y-112336496D01*
X144990523Y-112330435D01*
X144985500Y-112295500D01*
X144985500Y-112295316D01*
X144994939Y-112247864D01*
X145023478Y-112178963D01*
X145054737Y-112103497D01*
X145085500Y-111948842D01*
X145085500Y-111791158D01*
X145085500Y-111791155D01*
X145085499Y-111791153D01*
X145077668Y-111751786D01*
X145054737Y-111636503D01*
X145030592Y-111578211D01*
X144994397Y-111490827D01*
X144994390Y-111490814D01*
X144906789Y-111359711D01*
X144906786Y-111359707D01*
X144795292Y-111248213D01*
X144795288Y-111248210D01*
X144664185Y-111160609D01*
X144664172Y-111160602D01*
X144518501Y-111100264D01*
X144518489Y-111100261D01*
X144363845Y-111069500D01*
X144363842Y-111069500D01*
X144206158Y-111069500D01*
X144206155Y-111069500D01*
X144051510Y-111100261D01*
X144051498Y-111100264D01*
X143905827Y-111160602D01*
X143905814Y-111160609D01*
X143774711Y-111248210D01*
X143774707Y-111248213D01*
X143663213Y-111359707D01*
X143663210Y-111359711D01*
X143575609Y-111490814D01*
X143575602Y-111490827D01*
X143515264Y-111636498D01*
X143515261Y-111636510D01*
X143484500Y-111791153D01*
X132050500Y-111791153D01*
X132050500Y-109946408D01*
X141375334Y-109946408D01*
X141375334Y-110104101D01*
X141406095Y-110258744D01*
X141406098Y-110258756D01*
X141466436Y-110404427D01*
X141466443Y-110404440D01*
X141554044Y-110535543D01*
X141554047Y-110535547D01*
X141665541Y-110647041D01*
X141665545Y-110647044D01*
X141796648Y-110734645D01*
X141796661Y-110734652D01*
X141942332Y-110794990D01*
X141942337Y-110794992D01*
X142019409Y-110810322D01*
X142044823Y-110815378D01*
X142106734Y-110847763D01*
X142135193Y-110889543D01*
X142180602Y-110999172D01*
X142180609Y-110999185D01*
X142268210Y-111130288D01*
X142268213Y-111130292D01*
X142379707Y-111241786D01*
X142379711Y-111241789D01*
X142510814Y-111329390D01*
X142510827Y-111329397D01*
X142656498Y-111389735D01*
X142656503Y-111389737D01*
X142759699Y-111410264D01*
X142811153Y-111420499D01*
X142811156Y-111420500D01*
X142811158Y-111420500D01*
X142968844Y-111420500D01*
X142968845Y-111420499D01*
X143123497Y-111389737D01*
X143269179Y-111329394D01*
X143400289Y-111241789D01*
X143511789Y-111130289D01*
X143599394Y-110999179D01*
X143659737Y-110853497D01*
X143690500Y-110698842D01*
X143690500Y-110541158D01*
X143690500Y-110541155D01*
X143690499Y-110541153D01*
X143666521Y-110420609D01*
X143659737Y-110386503D01*
X143606823Y-110258756D01*
X143599397Y-110240827D01*
X143599390Y-110240814D01*
X143511789Y-110109711D01*
X143511786Y-110109707D01*
X143400292Y-109998213D01*
X143400288Y-109998210D01*
X143269185Y-109910609D01*
X143269172Y-109910602D01*
X143123501Y-109850264D01*
X143123491Y-109850261D01*
X143021009Y-109829876D01*
X142959098Y-109797491D01*
X142930640Y-109755711D01*
X142885231Y-109646082D01*
X142885224Y-109646069D01*
X142797623Y-109514966D01*
X142797620Y-109514962D01*
X142686126Y-109403468D01*
X142686122Y-109403465D01*
X142555019Y-109315864D01*
X142555006Y-109315857D01*
X142409335Y-109255519D01*
X142409323Y-109255516D01*
X142254679Y-109224755D01*
X142254676Y-109224755D01*
X142096992Y-109224755D01*
X142096989Y-109224755D01*
X141942344Y-109255516D01*
X141942332Y-109255519D01*
X141796661Y-109315857D01*
X141796648Y-109315864D01*
X141665545Y-109403465D01*
X141665541Y-109403468D01*
X141554047Y-109514962D01*
X141554044Y-109514966D01*
X141466443Y-109646069D01*
X141466436Y-109646082D01*
X141406098Y-109791753D01*
X141406095Y-109791765D01*
X141375334Y-109946408D01*
X132050500Y-109946408D01*
X132050500Y-108191153D01*
X133379500Y-108191153D01*
X133379500Y-108348846D01*
X133410261Y-108503489D01*
X133410264Y-108503501D01*
X133470602Y-108649172D01*
X133470609Y-108649185D01*
X133558210Y-108780288D01*
X133558213Y-108780292D01*
X133669707Y-108891786D01*
X133669711Y-108891789D01*
X133800814Y-108979390D01*
X133800827Y-108979397D01*
X133946498Y-109039735D01*
X133946503Y-109039737D01*
X134101153Y-109070499D01*
X134101156Y-109070500D01*
X134101158Y-109070500D01*
X134258844Y-109070500D01*
X134258845Y-109070499D01*
X134413497Y-109039737D01*
X134559179Y-108979394D01*
X134690289Y-108891789D01*
X134801789Y-108780289D01*
X134889394Y-108649179D01*
X134949737Y-108503497D01*
X134980500Y-108348842D01*
X134980500Y-108191158D01*
X134980500Y-108191155D01*
X134980499Y-108191153D01*
X134965146Y-108113968D01*
X134949737Y-108036503D01*
X134921483Y-107968291D01*
X134889397Y-107890827D01*
X134889390Y-107890814D01*
X134801789Y-107759711D01*
X134801786Y-107759707D01*
X134690292Y-107648213D01*
X134690288Y-107648210D01*
X134559185Y-107560609D01*
X134559172Y-107560602D01*
X134413501Y-107500264D01*
X134413489Y-107500261D01*
X134258845Y-107469500D01*
X134258842Y-107469500D01*
X134101158Y-107469500D01*
X134101155Y-107469500D01*
X133946510Y-107500261D01*
X133946498Y-107500264D01*
X133800827Y-107560602D01*
X133800814Y-107560609D01*
X133669711Y-107648210D01*
X133669707Y-107648213D01*
X133558213Y-107759707D01*
X133558210Y-107759711D01*
X133470609Y-107890814D01*
X133470602Y-107890827D01*
X133410264Y-108036498D01*
X133410261Y-108036510D01*
X133379500Y-108191153D01*
X132050500Y-108191153D01*
X132050500Y-105421153D01*
X134739500Y-105421153D01*
X134739500Y-105578846D01*
X134770261Y-105733489D01*
X134770264Y-105733501D01*
X134830602Y-105879172D01*
X134830609Y-105879185D01*
X134918210Y-106010288D01*
X134918213Y-106010292D01*
X135029707Y-106121786D01*
X135029711Y-106121789D01*
X135160814Y-106209390D01*
X135160827Y-106209397D01*
X135280439Y-106258941D01*
X135306503Y-106269737D01*
X135449012Y-106298084D01*
X135461153Y-106300499D01*
X135461156Y-106300500D01*
X135461158Y-106300500D01*
X135618844Y-106300500D01*
X135618845Y-106300499D01*
X135773497Y-106269737D01*
X135916550Y-106210483D01*
X135919172Y-106209397D01*
X135919172Y-106209396D01*
X135919179Y-106209394D01*
X136050289Y-106121789D01*
X136161789Y-106010289D01*
X136249394Y-105879179D01*
X136309737Y-105733497D01*
X136340500Y-105578842D01*
X136340500Y-105421158D01*
X136340500Y-105421155D01*
X136340499Y-105421153D01*
X136319368Y-105314920D01*
X136309737Y-105266503D01*
X136269448Y-105169236D01*
X136249397Y-105120827D01*
X136249390Y-105120814D01*
X136161789Y-104989711D01*
X136161786Y-104989707D01*
X136050292Y-104878213D01*
X136050288Y-104878210D01*
X136018378Y-104856888D01*
X156705235Y-104856888D01*
X156705235Y-105014581D01*
X156735996Y-105169224D01*
X156735999Y-105169236D01*
X156796337Y-105314907D01*
X156796344Y-105314920D01*
X156883945Y-105446023D01*
X156883948Y-105446027D01*
X156995442Y-105557521D01*
X156995446Y-105557524D01*
X157126549Y-105645125D01*
X157126562Y-105645132D01*
X157252861Y-105697446D01*
X157272238Y-105705472D01*
X157426888Y-105736234D01*
X157426891Y-105736235D01*
X157426893Y-105736235D01*
X157584579Y-105736235D01*
X157584580Y-105736234D01*
X157739232Y-105705472D01*
X157877469Y-105648213D01*
X157884907Y-105645132D01*
X157884907Y-105645131D01*
X157884914Y-105645129D01*
X158016024Y-105557524D01*
X158127524Y-105446024D01*
X158215129Y-105314914D01*
X158275472Y-105169232D01*
X158306235Y-105014577D01*
X158306235Y-104856893D01*
X158306235Y-104856890D01*
X158306234Y-104856888D01*
X158293050Y-104790609D01*
X158275472Y-104702238D01*
X158244810Y-104628213D01*
X158215132Y-104556562D01*
X158215125Y-104556549D01*
X158127524Y-104425446D01*
X158127521Y-104425442D01*
X158016027Y-104313948D01*
X158016023Y-104313945D01*
X157884920Y-104226344D01*
X157884907Y-104226337D01*
X157739236Y-104165999D01*
X157739224Y-104165996D01*
X157584580Y-104135235D01*
X157584577Y-104135235D01*
X157426893Y-104135235D01*
X157426890Y-104135235D01*
X157272245Y-104165996D01*
X157272233Y-104165999D01*
X157126562Y-104226337D01*
X157126549Y-104226344D01*
X156995446Y-104313945D01*
X156995442Y-104313948D01*
X156883948Y-104425442D01*
X156883945Y-104425446D01*
X156796344Y-104556549D01*
X156796337Y-104556562D01*
X156735999Y-104702233D01*
X156735996Y-104702245D01*
X156705235Y-104856888D01*
X136018378Y-104856888D01*
X135919185Y-104790609D01*
X135919172Y-104790602D01*
X135773501Y-104730264D01*
X135773489Y-104730261D01*
X135618845Y-104699500D01*
X135618842Y-104699500D01*
X135461158Y-104699500D01*
X135461155Y-104699500D01*
X135306510Y-104730261D01*
X135306498Y-104730264D01*
X135160827Y-104790602D01*
X135160814Y-104790609D01*
X135029711Y-104878210D01*
X135029707Y-104878213D01*
X134918213Y-104989707D01*
X134918210Y-104989711D01*
X134830609Y-105120814D01*
X134830602Y-105120827D01*
X134770264Y-105266498D01*
X134770261Y-105266510D01*
X134739500Y-105421153D01*
X132050500Y-105421153D01*
X132050500Y-103321153D01*
X135679500Y-103321153D01*
X135679500Y-103478846D01*
X135710261Y-103633489D01*
X135710264Y-103633501D01*
X135770602Y-103779172D01*
X135770609Y-103779185D01*
X135858210Y-103910288D01*
X135858213Y-103910292D01*
X135969707Y-104021786D01*
X135969711Y-104021789D01*
X136100814Y-104109390D01*
X136100827Y-104109397D01*
X136246498Y-104169735D01*
X136246503Y-104169737D01*
X136401153Y-104200499D01*
X136401156Y-104200500D01*
X136401158Y-104200500D01*
X136558844Y-104200500D01*
X136558845Y-104200499D01*
X136713497Y-104169737D01*
X136859179Y-104109394D01*
X136990289Y-104021789D01*
X137101789Y-103910289D01*
X137189394Y-103779179D01*
X137249737Y-103633497D01*
X137280500Y-103478842D01*
X137280500Y-103321158D01*
X137280500Y-103321155D01*
X137280499Y-103321153D01*
X137276239Y-103299735D01*
X137249737Y-103166503D01*
X137247140Y-103160233D01*
X137189397Y-103020827D01*
X137189390Y-103020814D01*
X137098476Y-102884753D01*
X137077598Y-102818076D01*
X137096082Y-102750696D01*
X137113899Y-102728179D01*
X137131787Y-102710291D01*
X137131789Y-102710289D01*
X137219394Y-102579179D01*
X137272424Y-102451153D01*
X139619500Y-102451153D01*
X139619500Y-102608846D01*
X139650261Y-102763489D01*
X139650264Y-102763501D01*
X139710602Y-102909172D01*
X139710609Y-102909185D01*
X139798210Y-103040288D01*
X139798213Y-103040292D01*
X139909707Y-103151786D01*
X139909711Y-103151789D01*
X140040814Y-103239390D01*
X140040827Y-103239397D01*
X140186498Y-103299735D01*
X140186503Y-103299737D01*
X140341153Y-103330499D01*
X140341156Y-103330500D01*
X140341158Y-103330500D01*
X140498844Y-103330500D01*
X140498845Y-103330499D01*
X140653497Y-103299737D01*
X140799179Y-103239394D01*
X140871377Y-103191153D01*
X144789500Y-103191153D01*
X144789500Y-103348846D01*
X144820261Y-103503489D01*
X144820264Y-103503501D01*
X144880602Y-103649172D01*
X144880609Y-103649185D01*
X144968210Y-103780288D01*
X144968213Y-103780292D01*
X145079707Y-103891786D01*
X145079711Y-103891789D01*
X145210814Y-103979390D01*
X145210827Y-103979397D01*
X145313165Y-104021786D01*
X145356503Y-104039737D01*
X145511153Y-104070499D01*
X145511156Y-104070500D01*
X145511158Y-104070500D01*
X145668844Y-104070500D01*
X145668845Y-104070499D01*
X145823497Y-104039737D01*
X145969179Y-103979394D01*
X146100289Y-103891789D01*
X146211789Y-103780289D01*
X146299394Y-103649179D01*
X146359737Y-103503497D01*
X146390500Y-103348842D01*
X146390500Y-103330609D01*
X150133061Y-103330609D01*
X150133061Y-103488302D01*
X150163822Y-103642945D01*
X150163825Y-103642957D01*
X150224163Y-103788628D01*
X150224170Y-103788641D01*
X150311771Y-103919744D01*
X150311774Y-103919748D01*
X150423268Y-104031242D01*
X150423272Y-104031245D01*
X150554375Y-104118846D01*
X150554388Y-104118853D01*
X150677230Y-104169735D01*
X150700064Y-104179193D01*
X150807176Y-104200499D01*
X150854714Y-104209955D01*
X150854717Y-104209956D01*
X150854719Y-104209956D01*
X151012405Y-104209956D01*
X151012406Y-104209955D01*
X151167058Y-104179193D01*
X151312740Y-104118850D01*
X151443850Y-104031245D01*
X151555350Y-103919745D01*
X151642955Y-103788635D01*
X151654495Y-103760776D01*
X151656628Y-103755622D01*
X151703298Y-103642953D01*
X151734061Y-103488298D01*
X151734061Y-103459223D01*
X167699500Y-103459223D01*
X167699500Y-103760776D01*
X167699501Y-103760793D01*
X167738861Y-104059766D01*
X167816913Y-104351060D01*
X167932314Y-104629661D01*
X167932318Y-104629671D01*
X168083099Y-104890831D01*
X168266679Y-105130078D01*
X168266685Y-105130085D01*
X168479914Y-105343314D01*
X168479921Y-105343320D01*
X168719168Y-105526900D01*
X168980328Y-105677681D01*
X168980329Y-105677681D01*
X168980332Y-105677683D01*
X169152123Y-105748841D01*
X169258939Y-105793086D01*
X169258940Y-105793086D01*
X169258942Y-105793087D01*
X169550232Y-105871138D01*
X169849217Y-105910500D01*
X169849224Y-105910500D01*
X170150776Y-105910500D01*
X170150783Y-105910500D01*
X170449768Y-105871138D01*
X170741058Y-105793087D01*
X171019668Y-105677683D01*
X171280832Y-105526900D01*
X171520080Y-105343319D01*
X171733319Y-105130080D01*
X171916900Y-104890832D01*
X172067683Y-104629668D01*
X172183087Y-104351058D01*
X172261138Y-104059768D01*
X172300500Y-103760783D01*
X172300500Y-103459217D01*
X172261138Y-103160232D01*
X172183087Y-102868942D01*
X172172421Y-102843193D01*
X172119424Y-102715246D01*
X172067683Y-102590332D01*
X172067141Y-102589394D01*
X171916900Y-102329168D01*
X171733320Y-102089921D01*
X171733314Y-102089914D01*
X171520085Y-101876685D01*
X171520078Y-101876679D01*
X171280831Y-101693099D01*
X171019671Y-101542318D01*
X171019661Y-101542314D01*
X170741060Y-101426913D01*
X170449766Y-101348861D01*
X170150793Y-101309501D01*
X170150788Y-101309500D01*
X170150783Y-101309500D01*
X169849217Y-101309500D01*
X169849211Y-101309500D01*
X169849206Y-101309501D01*
X169550233Y-101348861D01*
X169258939Y-101426913D01*
X168980338Y-101542314D01*
X168980328Y-101542318D01*
X168719168Y-101693099D01*
X168479921Y-101876679D01*
X168479914Y-101876685D01*
X168266685Y-102089914D01*
X168266679Y-102089921D01*
X168083099Y-102329168D01*
X167932318Y-102590328D01*
X167932314Y-102590338D01*
X167816913Y-102868939D01*
X167738861Y-103160233D01*
X167699501Y-103459206D01*
X167699500Y-103459223D01*
X151734061Y-103459223D01*
X151734061Y-103330614D01*
X151734061Y-103330611D01*
X151734060Y-103330609D01*
X151727919Y-103299735D01*
X151703298Y-103175959D01*
X151670752Y-103097385D01*
X151642958Y-103030283D01*
X151642951Y-103030270D01*
X151555350Y-102899167D01*
X151555347Y-102899163D01*
X151443853Y-102787669D01*
X151443849Y-102787666D01*
X151312746Y-102700065D01*
X151312733Y-102700058D01*
X151167062Y-102639720D01*
X151167050Y-102639717D01*
X151012406Y-102608956D01*
X151012403Y-102608956D01*
X150854719Y-102608956D01*
X150854716Y-102608956D01*
X150700071Y-102639717D01*
X150700059Y-102639720D01*
X150554388Y-102700058D01*
X150554375Y-102700065D01*
X150423272Y-102787666D01*
X150423268Y-102787669D01*
X150311774Y-102899163D01*
X150311771Y-102899167D01*
X150224170Y-103030270D01*
X150224163Y-103030283D01*
X150163825Y-103175954D01*
X150163822Y-103175966D01*
X150133061Y-103330609D01*
X146390500Y-103330609D01*
X146390500Y-103191158D01*
X146390500Y-103191155D01*
X146390499Y-103191153D01*
X146382668Y-103151786D01*
X146359737Y-103036503D01*
X146353241Y-103020821D01*
X146299397Y-102890827D01*
X146299390Y-102890814D01*
X146211789Y-102759711D01*
X146211786Y-102759707D01*
X146100292Y-102648213D01*
X146100288Y-102648210D01*
X145969185Y-102560609D01*
X145969172Y-102560602D01*
X145823501Y-102500264D01*
X145823489Y-102500261D01*
X145668845Y-102469500D01*
X145668842Y-102469500D01*
X145511158Y-102469500D01*
X145511155Y-102469500D01*
X145356510Y-102500261D01*
X145356498Y-102500264D01*
X145210827Y-102560602D01*
X145210814Y-102560609D01*
X145079711Y-102648210D01*
X145079707Y-102648213D01*
X144968213Y-102759707D01*
X144968210Y-102759711D01*
X144880609Y-102890814D01*
X144880602Y-102890827D01*
X144820264Y-103036498D01*
X144820261Y-103036510D01*
X144789500Y-103191153D01*
X140871377Y-103191153D01*
X140930289Y-103151789D01*
X140930292Y-103151786D01*
X140984694Y-103097385D01*
X141041786Y-103040292D01*
X141041789Y-103040289D01*
X141129394Y-102909179D01*
X141189737Y-102763497D01*
X141220500Y-102608842D01*
X141220500Y-102451158D01*
X141220500Y-102451155D01*
X141220499Y-102451153D01*
X141196630Y-102331157D01*
X141189737Y-102296503D01*
X141182423Y-102278846D01*
X141129397Y-102150827D01*
X141129390Y-102150814D01*
X141041789Y-102019711D01*
X141041786Y-102019707D01*
X140930292Y-101908213D01*
X140930288Y-101908210D01*
X140799185Y-101820609D01*
X140799172Y-101820602D01*
X140653501Y-101760264D01*
X140653489Y-101760261D01*
X140498845Y-101729500D01*
X140498842Y-101729500D01*
X140341158Y-101729500D01*
X140341155Y-101729500D01*
X140186510Y-101760261D01*
X140186498Y-101760264D01*
X140040827Y-101820602D01*
X140040814Y-101820609D01*
X139909711Y-101908210D01*
X139909707Y-101908213D01*
X139798213Y-102019707D01*
X139798210Y-102019711D01*
X139710609Y-102150814D01*
X139710602Y-102150827D01*
X139650264Y-102296498D01*
X139650261Y-102296510D01*
X139619500Y-102451153D01*
X137272424Y-102451153D01*
X137279737Y-102433497D01*
X137306988Y-102296498D01*
X137310500Y-102278844D01*
X137310500Y-102121155D01*
X137310499Y-102121153D01*
X137307206Y-102104596D01*
X137279737Y-101966503D01*
X137255592Y-101908211D01*
X137219397Y-101820827D01*
X137219390Y-101820814D01*
X137131789Y-101689711D01*
X137131786Y-101689707D01*
X137020292Y-101578213D01*
X137020288Y-101578210D01*
X136889185Y-101490609D01*
X136889172Y-101490602D01*
X136743501Y-101430264D01*
X136743489Y-101430261D01*
X136675229Y-101416683D01*
X136675228Y-101416683D01*
X136588844Y-101399500D01*
X136588842Y-101399500D01*
X136431158Y-101399500D01*
X136431155Y-101399500D01*
X136276510Y-101430261D01*
X136276498Y-101430264D01*
X136130827Y-101490602D01*
X136130814Y-101490609D01*
X135999711Y-101578210D01*
X135999707Y-101578213D01*
X135888213Y-101689707D01*
X135888210Y-101689711D01*
X135800609Y-101820814D01*
X135800602Y-101820827D01*
X135740264Y-101966498D01*
X135740261Y-101966510D01*
X135709500Y-102121153D01*
X135709500Y-102278846D01*
X135740261Y-102433489D01*
X135740264Y-102433501D01*
X135800602Y-102579172D01*
X135800609Y-102579185D01*
X135891523Y-102715246D01*
X135912401Y-102781923D01*
X135893917Y-102849304D01*
X135876104Y-102871816D01*
X135858214Y-102889706D01*
X135858210Y-102889711D01*
X135770609Y-103020814D01*
X135770602Y-103020827D01*
X135710264Y-103166498D01*
X135710261Y-103166510D01*
X135679500Y-103321153D01*
X132050500Y-103321153D01*
X132050500Y-102963480D01*
X132050695Y-102956527D01*
X132053916Y-102899167D01*
X132067084Y-102664691D01*
X132068638Y-102650898D01*
X132117015Y-102366167D01*
X132120109Y-102352615D01*
X132126293Y-102331152D01*
X132200061Y-102075096D01*
X132204653Y-102061975D01*
X132315175Y-101795151D01*
X132321195Y-101782651D01*
X132460902Y-101529868D01*
X132468297Y-101518100D01*
X132472614Y-101512016D01*
X132622229Y-101301153D01*
X144129500Y-101301153D01*
X144129500Y-101458846D01*
X144160261Y-101613489D01*
X144160264Y-101613501D01*
X144220602Y-101759172D01*
X144220609Y-101759185D01*
X144308210Y-101890288D01*
X144308213Y-101890292D01*
X144419707Y-102001786D01*
X144419711Y-102001789D01*
X144550814Y-102089390D01*
X144550827Y-102089397D01*
X144696498Y-102149735D01*
X144696503Y-102149737D01*
X144831034Y-102176497D01*
X144851153Y-102180499D01*
X144851156Y-102180500D01*
X144851158Y-102180500D01*
X145008844Y-102180500D01*
X145008845Y-102180499D01*
X145163497Y-102149737D01*
X145309179Y-102089394D01*
X145440289Y-102001789D01*
X145551789Y-101890289D01*
X145639394Y-101759179D01*
X145699737Y-101613497D01*
X145730500Y-101458842D01*
X145730500Y-101321153D01*
X148249500Y-101321153D01*
X148249500Y-101478846D01*
X148280261Y-101633489D01*
X148280264Y-101633501D01*
X148340602Y-101779172D01*
X148340609Y-101779185D01*
X148428210Y-101910288D01*
X148428213Y-101910292D01*
X148539707Y-102021786D01*
X148539711Y-102021789D01*
X148670814Y-102109390D01*
X148670827Y-102109397D01*
X148816498Y-102169735D01*
X148816503Y-102169737D01*
X148971153Y-102200499D01*
X148971156Y-102200500D01*
X148971158Y-102200500D01*
X149128844Y-102200500D01*
X149128845Y-102200499D01*
X149283497Y-102169737D01*
X149419264Y-102113501D01*
X149429172Y-102109397D01*
X149429172Y-102109396D01*
X149429179Y-102109394D01*
X149560289Y-102021789D01*
X149671789Y-101910289D01*
X149759394Y-101779179D01*
X149819737Y-101633497D01*
X149850500Y-101478842D01*
X149850500Y-101321158D01*
X149850500Y-101321155D01*
X149850499Y-101321153D01*
X149841694Y-101276889D01*
X149819737Y-101166503D01*
X149796441Y-101110261D01*
X149759397Y-101020827D01*
X149759390Y-101020814D01*
X149671789Y-100889711D01*
X149671786Y-100889707D01*
X149560292Y-100778213D01*
X149560288Y-100778210D01*
X149429185Y-100690609D01*
X149429172Y-100690602D01*
X149283501Y-100630264D01*
X149283489Y-100630261D01*
X149128845Y-100599500D01*
X149128842Y-100599500D01*
X148971158Y-100599500D01*
X148971155Y-100599500D01*
X148816510Y-100630261D01*
X148816498Y-100630264D01*
X148670827Y-100690602D01*
X148670814Y-100690609D01*
X148539711Y-100778210D01*
X148539707Y-100778213D01*
X148428213Y-100889707D01*
X148428210Y-100889711D01*
X148340609Y-101020814D01*
X148340602Y-101020827D01*
X148280264Y-101166498D01*
X148280261Y-101166510D01*
X148249500Y-101321153D01*
X145730500Y-101321153D01*
X145730500Y-101301158D01*
X145730500Y-101301155D01*
X145730499Y-101301153D01*
X145726802Y-101282569D01*
X145699737Y-101146503D01*
X145699735Y-101146498D01*
X145639397Y-101000827D01*
X145639390Y-101000814D01*
X145551789Y-100869711D01*
X145551786Y-100869707D01*
X145440292Y-100758213D01*
X145440288Y-100758210D01*
X145309185Y-100670609D01*
X145309172Y-100670602D01*
X145163501Y-100610264D01*
X145163489Y-100610261D01*
X145008845Y-100579500D01*
X145008842Y-100579500D01*
X144851158Y-100579500D01*
X144851155Y-100579500D01*
X144696510Y-100610261D01*
X144696498Y-100610264D01*
X144550827Y-100670602D01*
X144550814Y-100670609D01*
X144419711Y-100758210D01*
X144419707Y-100758213D01*
X144308213Y-100869707D01*
X144308210Y-100869711D01*
X144220609Y-101000814D01*
X144220602Y-101000827D01*
X144160264Y-101146498D01*
X144160261Y-101146510D01*
X144129500Y-101301153D01*
X132622229Y-101301153D01*
X132635422Y-101282559D01*
X132644077Y-101271705D01*
X132836534Y-101056346D01*
X132846346Y-101046534D01*
X133061705Y-100854077D01*
X133072559Y-100845422D01*
X133308105Y-100678293D01*
X133319868Y-100670902D01*
X133572651Y-100531195D01*
X133585151Y-100525175D01*
X133851979Y-100414651D01*
X133865096Y-100410061D01*
X134142621Y-100330107D01*
X134156167Y-100327015D01*
X134440898Y-100278638D01*
X134454691Y-100277084D01*
X134746528Y-100260695D01*
X134753481Y-100260500D01*
X134797595Y-100260500D01*
X150719205Y-100260500D01*
X150786244Y-100280185D01*
G37*
%TD.AperFunction*%
%TD*%
M02*
