%TF.GenerationSoftware,KiCad,Pcbnew,9.0.6*%
%TF.CreationDate,2026-02-28T22:35:36-06:00*%
%TF.ProjectId,Supplemental Monitoring PCB,53757070-6c65-46d6-956e-74616c204d6f,rev?*%
%TF.SameCoordinates,Original*%
%TF.FileFunction,Legend,Bot*%
%TF.FilePolarity,Positive*%
%FSLAX46Y46*%
G04 Gerber Fmt 4.6, Leading zero omitted, Abs format (unit mm)*
G04 Created by KiCad (PCBNEW 9.0.6) date 2026-02-28 22:35:36*
%MOMM*%
%LPD*%
G01*
G04 APERTURE LIST*
G04 Aperture macros list*
%AMRoundRect*
0 Rectangle with rounded corners*
0 $1 Rounding radius*
0 $2 $3 $4 $5 $6 $7 $8 $9 X,Y pos of 4 corners*
0 Add a 4 corners polygon primitive as box body*
4,1,4,$2,$3,$4,$5,$6,$7,$8,$9,$2,$3,0*
0 Add four circle primitives for the rounded corners*
1,1,$1+$1,$2,$3*
1,1,$1+$1,$4,$5*
1,1,$1+$1,$6,$7*
1,1,$1+$1,$8,$9*
0 Add four rect primitives between the rounded corners*
20,1,$1+$1,$2,$3,$4,$5,0*
20,1,$1+$1,$4,$5,$6,$7,0*
20,1,$1+$1,$6,$7,$8,$9,0*
20,1,$1+$1,$8,$9,$2,$3,0*%
G04 Aperture macros list end*
%ADD10C,0.150000*%
%ADD11C,0.100000*%
%ADD12C,0.254000*%
%ADD13C,0.120000*%
%ADD14C,0.152400*%
%ADD15C,0.000000*%
%ADD16C,0.200000*%
%ADD17R,1.700000X1.700000*%
%ADD18C,1.700000*%
%ADD19C,2.000000*%
%ADD20C,3.600000*%
%ADD21C,6.400000*%
%ADD22RoundRect,0.237500X-0.237500X0.250000X-0.237500X-0.250000X0.237500X-0.250000X0.237500X0.250000X0*%
%ADD23RoundRect,0.237500X-0.237500X0.300000X-0.237500X-0.300000X0.237500X-0.300000X0.237500X0.300000X0*%
%ADD24R,0.977900X0.304800*%
%ADD25RoundRect,0.237500X0.237500X-0.250000X0.237500X0.250000X-0.237500X0.250000X-0.237500X-0.250000X0*%
%ADD26C,0.850000*%
%ADD27R,1.500000X0.550000*%
G04 APERTURE END LIST*
D10*
X227610839Y-26402312D02*
X227467982Y-26449931D01*
X227467982Y-26449931D02*
X227229887Y-26449931D01*
X227229887Y-26449931D02*
X227134649Y-26402312D01*
X227134649Y-26402312D02*
X227087030Y-26354692D01*
X227087030Y-26354692D02*
X227039411Y-26259454D01*
X227039411Y-26259454D02*
X227039411Y-26164216D01*
X227039411Y-26164216D02*
X227087030Y-26068978D01*
X227087030Y-26068978D02*
X227134649Y-26021359D01*
X227134649Y-26021359D02*
X227229887Y-25973740D01*
X227229887Y-25973740D02*
X227420363Y-25926121D01*
X227420363Y-25926121D02*
X227515601Y-25878502D01*
X227515601Y-25878502D02*
X227563220Y-25830883D01*
X227563220Y-25830883D02*
X227610839Y-25735645D01*
X227610839Y-25735645D02*
X227610839Y-25640407D01*
X227610839Y-25640407D02*
X227563220Y-25545169D01*
X227563220Y-25545169D02*
X227515601Y-25497550D01*
X227515601Y-25497550D02*
X227420363Y-25449931D01*
X227420363Y-25449931D02*
X227182268Y-25449931D01*
X227182268Y-25449931D02*
X227039411Y-25497550D01*
X226182268Y-25783264D02*
X226182268Y-26449931D01*
X226610839Y-25783264D02*
X226610839Y-26307073D01*
X226610839Y-26307073D02*
X226563220Y-26402312D01*
X226563220Y-26402312D02*
X226467982Y-26449931D01*
X226467982Y-26449931D02*
X226325125Y-26449931D01*
X226325125Y-26449931D02*
X226229887Y-26402312D01*
X226229887Y-26402312D02*
X226182268Y-26354692D01*
X225706077Y-25783264D02*
X225706077Y-26783264D01*
X225706077Y-25830883D02*
X225610839Y-25783264D01*
X225610839Y-25783264D02*
X225420363Y-25783264D01*
X225420363Y-25783264D02*
X225325125Y-25830883D01*
X225325125Y-25830883D02*
X225277506Y-25878502D01*
X225277506Y-25878502D02*
X225229887Y-25973740D01*
X225229887Y-25973740D02*
X225229887Y-26259454D01*
X225229887Y-26259454D02*
X225277506Y-26354692D01*
X225277506Y-26354692D02*
X225325125Y-26402312D01*
X225325125Y-26402312D02*
X225420363Y-26449931D01*
X225420363Y-26449931D02*
X225610839Y-26449931D01*
X225610839Y-26449931D02*
X225706077Y-26402312D01*
X224801315Y-25783264D02*
X224801315Y-26783264D01*
X224801315Y-25830883D02*
X224706077Y-25783264D01*
X224706077Y-25783264D02*
X224515601Y-25783264D01*
X224515601Y-25783264D02*
X224420363Y-25830883D01*
X224420363Y-25830883D02*
X224372744Y-25878502D01*
X224372744Y-25878502D02*
X224325125Y-25973740D01*
X224325125Y-25973740D02*
X224325125Y-26259454D01*
X224325125Y-26259454D02*
X224372744Y-26354692D01*
X224372744Y-26354692D02*
X224420363Y-26402312D01*
X224420363Y-26402312D02*
X224515601Y-26449931D01*
X224515601Y-26449931D02*
X224706077Y-26449931D01*
X224706077Y-26449931D02*
X224801315Y-26402312D01*
X223753696Y-26449931D02*
X223848934Y-26402312D01*
X223848934Y-26402312D02*
X223896553Y-26307073D01*
X223896553Y-26307073D02*
X223896553Y-25449931D01*
X222991791Y-26402312D02*
X223087029Y-26449931D01*
X223087029Y-26449931D02*
X223277505Y-26449931D01*
X223277505Y-26449931D02*
X223372743Y-26402312D01*
X223372743Y-26402312D02*
X223420362Y-26307073D01*
X223420362Y-26307073D02*
X223420362Y-25926121D01*
X223420362Y-25926121D02*
X223372743Y-25830883D01*
X223372743Y-25830883D02*
X223277505Y-25783264D01*
X223277505Y-25783264D02*
X223087029Y-25783264D01*
X223087029Y-25783264D02*
X222991791Y-25830883D01*
X222991791Y-25830883D02*
X222944172Y-25926121D01*
X222944172Y-25926121D02*
X222944172Y-26021359D01*
X222944172Y-26021359D02*
X223420362Y-26116597D01*
X222515600Y-26449931D02*
X222515600Y-25783264D01*
X222515600Y-25878502D02*
X222467981Y-25830883D01*
X222467981Y-25830883D02*
X222372743Y-25783264D01*
X222372743Y-25783264D02*
X222229886Y-25783264D01*
X222229886Y-25783264D02*
X222134648Y-25830883D01*
X222134648Y-25830883D02*
X222087029Y-25926121D01*
X222087029Y-25926121D02*
X222087029Y-26449931D01*
X222087029Y-25926121D02*
X222039410Y-25830883D01*
X222039410Y-25830883D02*
X221944172Y-25783264D01*
X221944172Y-25783264D02*
X221801315Y-25783264D01*
X221801315Y-25783264D02*
X221706076Y-25830883D01*
X221706076Y-25830883D02*
X221658457Y-25926121D01*
X221658457Y-25926121D02*
X221658457Y-26449931D01*
X220801315Y-26402312D02*
X220896553Y-26449931D01*
X220896553Y-26449931D02*
X221087029Y-26449931D01*
X221087029Y-26449931D02*
X221182267Y-26402312D01*
X221182267Y-26402312D02*
X221229886Y-26307073D01*
X221229886Y-26307073D02*
X221229886Y-25926121D01*
X221229886Y-25926121D02*
X221182267Y-25830883D01*
X221182267Y-25830883D02*
X221087029Y-25783264D01*
X221087029Y-25783264D02*
X220896553Y-25783264D01*
X220896553Y-25783264D02*
X220801315Y-25830883D01*
X220801315Y-25830883D02*
X220753696Y-25926121D01*
X220753696Y-25926121D02*
X220753696Y-26021359D01*
X220753696Y-26021359D02*
X221229886Y-26116597D01*
X220325124Y-25783264D02*
X220325124Y-26449931D01*
X220325124Y-25878502D02*
X220277505Y-25830883D01*
X220277505Y-25830883D02*
X220182267Y-25783264D01*
X220182267Y-25783264D02*
X220039410Y-25783264D01*
X220039410Y-25783264D02*
X219944172Y-25830883D01*
X219944172Y-25830883D02*
X219896553Y-25926121D01*
X219896553Y-25926121D02*
X219896553Y-26449931D01*
X219563219Y-25783264D02*
X219182267Y-25783264D01*
X219420362Y-25449931D02*
X219420362Y-26307073D01*
X219420362Y-26307073D02*
X219372743Y-26402312D01*
X219372743Y-26402312D02*
X219277505Y-26449931D01*
X219277505Y-26449931D02*
X219182267Y-26449931D01*
X218420362Y-26449931D02*
X218420362Y-25926121D01*
X218420362Y-25926121D02*
X218467981Y-25830883D01*
X218467981Y-25830883D02*
X218563219Y-25783264D01*
X218563219Y-25783264D02*
X218753695Y-25783264D01*
X218753695Y-25783264D02*
X218848933Y-25830883D01*
X218420362Y-26402312D02*
X218515600Y-26449931D01*
X218515600Y-26449931D02*
X218753695Y-26449931D01*
X218753695Y-26449931D02*
X218848933Y-26402312D01*
X218848933Y-26402312D02*
X218896552Y-26307073D01*
X218896552Y-26307073D02*
X218896552Y-26211835D01*
X218896552Y-26211835D02*
X218848933Y-26116597D01*
X218848933Y-26116597D02*
X218753695Y-26068978D01*
X218753695Y-26068978D02*
X218515600Y-26068978D01*
X218515600Y-26068978D02*
X218420362Y-26021359D01*
X217801314Y-26449931D02*
X217896552Y-26402312D01*
X217896552Y-26402312D02*
X217944171Y-26307073D01*
X217944171Y-26307073D02*
X217944171Y-25449931D01*
X216658456Y-26449931D02*
X216658456Y-25449931D01*
X216658456Y-25449931D02*
X216325123Y-26164216D01*
X216325123Y-26164216D02*
X215991790Y-25449931D01*
X215991790Y-25449931D02*
X215991790Y-26449931D01*
X215372742Y-26449931D02*
X215467980Y-26402312D01*
X215467980Y-26402312D02*
X215515599Y-26354692D01*
X215515599Y-26354692D02*
X215563218Y-26259454D01*
X215563218Y-26259454D02*
X215563218Y-25973740D01*
X215563218Y-25973740D02*
X215515599Y-25878502D01*
X215515599Y-25878502D02*
X215467980Y-25830883D01*
X215467980Y-25830883D02*
X215372742Y-25783264D01*
X215372742Y-25783264D02*
X215229885Y-25783264D01*
X215229885Y-25783264D02*
X215134647Y-25830883D01*
X215134647Y-25830883D02*
X215087028Y-25878502D01*
X215087028Y-25878502D02*
X215039409Y-25973740D01*
X215039409Y-25973740D02*
X215039409Y-26259454D01*
X215039409Y-26259454D02*
X215087028Y-26354692D01*
X215087028Y-26354692D02*
X215134647Y-26402312D01*
X215134647Y-26402312D02*
X215229885Y-26449931D01*
X215229885Y-26449931D02*
X215372742Y-26449931D01*
X214610837Y-25783264D02*
X214610837Y-26449931D01*
X214610837Y-25878502D02*
X214563218Y-25830883D01*
X214563218Y-25830883D02*
X214467980Y-25783264D01*
X214467980Y-25783264D02*
X214325123Y-25783264D01*
X214325123Y-25783264D02*
X214229885Y-25830883D01*
X214229885Y-25830883D02*
X214182266Y-25926121D01*
X214182266Y-25926121D02*
X214182266Y-26449931D01*
X213706075Y-26449931D02*
X213706075Y-25783264D01*
X213706075Y-25449931D02*
X213753694Y-25497550D01*
X213753694Y-25497550D02*
X213706075Y-25545169D01*
X213706075Y-25545169D02*
X213658456Y-25497550D01*
X213658456Y-25497550D02*
X213706075Y-25449931D01*
X213706075Y-25449931D02*
X213706075Y-25545169D01*
X213372742Y-25783264D02*
X212991790Y-25783264D01*
X213229885Y-25449931D02*
X213229885Y-26307073D01*
X213229885Y-26307073D02*
X213182266Y-26402312D01*
X213182266Y-26402312D02*
X213087028Y-26449931D01*
X213087028Y-26449931D02*
X212991790Y-26449931D01*
X212515599Y-26449931D02*
X212610837Y-26402312D01*
X212610837Y-26402312D02*
X212658456Y-26354692D01*
X212658456Y-26354692D02*
X212706075Y-26259454D01*
X212706075Y-26259454D02*
X212706075Y-25973740D01*
X212706075Y-25973740D02*
X212658456Y-25878502D01*
X212658456Y-25878502D02*
X212610837Y-25830883D01*
X212610837Y-25830883D02*
X212515599Y-25783264D01*
X212515599Y-25783264D02*
X212372742Y-25783264D01*
X212372742Y-25783264D02*
X212277504Y-25830883D01*
X212277504Y-25830883D02*
X212229885Y-25878502D01*
X212229885Y-25878502D02*
X212182266Y-25973740D01*
X212182266Y-25973740D02*
X212182266Y-26259454D01*
X212182266Y-26259454D02*
X212229885Y-26354692D01*
X212229885Y-26354692D02*
X212277504Y-26402312D01*
X212277504Y-26402312D02*
X212372742Y-26449931D01*
X212372742Y-26449931D02*
X212515599Y-26449931D01*
X211753694Y-26449931D02*
X211753694Y-25783264D01*
X211753694Y-25973740D02*
X211706075Y-25878502D01*
X211706075Y-25878502D02*
X211658456Y-25830883D01*
X211658456Y-25830883D02*
X211563218Y-25783264D01*
X211563218Y-25783264D02*
X211467980Y-25783264D01*
X211134646Y-26449931D02*
X211134646Y-25783264D01*
X211134646Y-25449931D02*
X211182265Y-25497550D01*
X211182265Y-25497550D02*
X211134646Y-25545169D01*
X211134646Y-25545169D02*
X211087027Y-25497550D01*
X211087027Y-25497550D02*
X211134646Y-25449931D01*
X211134646Y-25449931D02*
X211134646Y-25545169D01*
X210658456Y-25783264D02*
X210658456Y-26449931D01*
X210658456Y-25878502D02*
X210610837Y-25830883D01*
X210610837Y-25830883D02*
X210515599Y-25783264D01*
X210515599Y-25783264D02*
X210372742Y-25783264D01*
X210372742Y-25783264D02*
X210277504Y-25830883D01*
X210277504Y-25830883D02*
X210229885Y-25926121D01*
X210229885Y-25926121D02*
X210229885Y-26449931D01*
X209325123Y-25783264D02*
X209325123Y-26592788D01*
X209325123Y-26592788D02*
X209372742Y-26688026D01*
X209372742Y-26688026D02*
X209420361Y-26735645D01*
X209420361Y-26735645D02*
X209515599Y-26783264D01*
X209515599Y-26783264D02*
X209658456Y-26783264D01*
X209658456Y-26783264D02*
X209753694Y-26735645D01*
X209325123Y-26402312D02*
X209420361Y-26449931D01*
X209420361Y-26449931D02*
X209610837Y-26449931D01*
X209610837Y-26449931D02*
X209706075Y-26402312D01*
X209706075Y-26402312D02*
X209753694Y-26354692D01*
X209753694Y-26354692D02*
X209801313Y-26259454D01*
X209801313Y-26259454D02*
X209801313Y-25973740D01*
X209801313Y-25973740D02*
X209753694Y-25878502D01*
X209753694Y-25878502D02*
X209706075Y-25830883D01*
X209706075Y-25830883D02*
X209610837Y-25783264D01*
X209610837Y-25783264D02*
X209420361Y-25783264D01*
X209420361Y-25783264D02*
X209325123Y-25830883D01*
X208087027Y-26449931D02*
X208087027Y-25449931D01*
X208087027Y-25449931D02*
X207706075Y-25449931D01*
X207706075Y-25449931D02*
X207610837Y-25497550D01*
X207610837Y-25497550D02*
X207563218Y-25545169D01*
X207563218Y-25545169D02*
X207515599Y-25640407D01*
X207515599Y-25640407D02*
X207515599Y-25783264D01*
X207515599Y-25783264D02*
X207563218Y-25878502D01*
X207563218Y-25878502D02*
X207610837Y-25926121D01*
X207610837Y-25926121D02*
X207706075Y-25973740D01*
X207706075Y-25973740D02*
X208087027Y-25973740D01*
X206515599Y-26354692D02*
X206563218Y-26402312D01*
X206563218Y-26402312D02*
X206706075Y-26449931D01*
X206706075Y-26449931D02*
X206801313Y-26449931D01*
X206801313Y-26449931D02*
X206944170Y-26402312D01*
X206944170Y-26402312D02*
X207039408Y-26307073D01*
X207039408Y-26307073D02*
X207087027Y-26211835D01*
X207087027Y-26211835D02*
X207134646Y-26021359D01*
X207134646Y-26021359D02*
X207134646Y-25878502D01*
X207134646Y-25878502D02*
X207087027Y-25688026D01*
X207087027Y-25688026D02*
X207039408Y-25592788D01*
X207039408Y-25592788D02*
X206944170Y-25497550D01*
X206944170Y-25497550D02*
X206801313Y-25449931D01*
X206801313Y-25449931D02*
X206706075Y-25449931D01*
X206706075Y-25449931D02*
X206563218Y-25497550D01*
X206563218Y-25497550D02*
X206515599Y-25545169D01*
X205753694Y-25926121D02*
X205610837Y-25973740D01*
X205610837Y-25973740D02*
X205563218Y-26021359D01*
X205563218Y-26021359D02*
X205515599Y-26116597D01*
X205515599Y-26116597D02*
X205515599Y-26259454D01*
X205515599Y-26259454D02*
X205563218Y-26354692D01*
X205563218Y-26354692D02*
X205610837Y-26402312D01*
X205610837Y-26402312D02*
X205706075Y-26449931D01*
X205706075Y-26449931D02*
X206087027Y-26449931D01*
X206087027Y-26449931D02*
X206087027Y-25449931D01*
X206087027Y-25449931D02*
X205753694Y-25449931D01*
X205753694Y-25449931D02*
X205658456Y-25497550D01*
X205658456Y-25497550D02*
X205610837Y-25545169D01*
X205610837Y-25545169D02*
X205563218Y-25640407D01*
X205563218Y-25640407D02*
X205563218Y-25735645D01*
X205563218Y-25735645D02*
X205610837Y-25830883D01*
X205610837Y-25830883D02*
X205658456Y-25878502D01*
X205658456Y-25878502D02*
X205753694Y-25926121D01*
X205753694Y-25926121D02*
X206087027Y-25926121D01*
X203753694Y-26449931D02*
X204087027Y-25973740D01*
X204325122Y-26449931D02*
X204325122Y-25449931D01*
X204325122Y-25449931D02*
X203944170Y-25449931D01*
X203944170Y-25449931D02*
X203848932Y-25497550D01*
X203848932Y-25497550D02*
X203801313Y-25545169D01*
X203801313Y-25545169D02*
X203753694Y-25640407D01*
X203753694Y-25640407D02*
X203753694Y-25783264D01*
X203753694Y-25783264D02*
X203801313Y-25878502D01*
X203801313Y-25878502D02*
X203848932Y-25926121D01*
X203848932Y-25926121D02*
X203944170Y-25973740D01*
X203944170Y-25973740D02*
X204325122Y-25973740D01*
X202944170Y-26402312D02*
X203039408Y-26449931D01*
X203039408Y-26449931D02*
X203229884Y-26449931D01*
X203229884Y-26449931D02*
X203325122Y-26402312D01*
X203325122Y-26402312D02*
X203372741Y-26307073D01*
X203372741Y-26307073D02*
X203372741Y-25926121D01*
X203372741Y-25926121D02*
X203325122Y-25830883D01*
X203325122Y-25830883D02*
X203229884Y-25783264D01*
X203229884Y-25783264D02*
X203039408Y-25783264D01*
X203039408Y-25783264D02*
X202944170Y-25830883D01*
X202944170Y-25830883D02*
X202896551Y-25926121D01*
X202896551Y-25926121D02*
X202896551Y-26021359D01*
X202896551Y-26021359D02*
X203372741Y-26116597D01*
X202563217Y-25783264D02*
X202325122Y-26449931D01*
X202325122Y-26449931D02*
X202087027Y-25783264D01*
X200372741Y-26354692D02*
X200420360Y-26402312D01*
X200420360Y-26402312D02*
X200563217Y-26449931D01*
X200563217Y-26449931D02*
X200658455Y-26449931D01*
X200658455Y-26449931D02*
X200801312Y-26402312D01*
X200801312Y-26402312D02*
X200896550Y-26307073D01*
X200896550Y-26307073D02*
X200944169Y-26211835D01*
X200944169Y-26211835D02*
X200991788Y-26021359D01*
X200991788Y-26021359D02*
X200991788Y-25878502D01*
X200991788Y-25878502D02*
X200944169Y-25688026D01*
X200944169Y-25688026D02*
X200896550Y-25592788D01*
X200896550Y-25592788D02*
X200801312Y-25497550D01*
X200801312Y-25497550D02*
X200658455Y-25449931D01*
X200658455Y-25449931D02*
X200563217Y-25449931D01*
X200563217Y-25449931D02*
X200420360Y-25497550D01*
X200420360Y-25497550D02*
X200372741Y-25545169D01*
X227229887Y-27536065D02*
X227563220Y-27536065D01*
X227563220Y-28059875D02*
X227563220Y-27059875D01*
X227563220Y-27059875D02*
X227087030Y-27059875D01*
X226325125Y-28012256D02*
X226420363Y-28059875D01*
X226420363Y-28059875D02*
X226610839Y-28059875D01*
X226610839Y-28059875D02*
X226706077Y-28012256D01*
X226706077Y-28012256D02*
X226753696Y-27917017D01*
X226753696Y-27917017D02*
X226753696Y-27536065D01*
X226753696Y-27536065D02*
X226706077Y-27440827D01*
X226706077Y-27440827D02*
X226610839Y-27393208D01*
X226610839Y-27393208D02*
X226420363Y-27393208D01*
X226420363Y-27393208D02*
X226325125Y-27440827D01*
X226325125Y-27440827D02*
X226277506Y-27536065D01*
X226277506Y-27536065D02*
X226277506Y-27631303D01*
X226277506Y-27631303D02*
X226753696Y-27726541D01*
X225848934Y-28059875D02*
X225848934Y-27059875D01*
X225848934Y-27440827D02*
X225753696Y-27393208D01*
X225753696Y-27393208D02*
X225563220Y-27393208D01*
X225563220Y-27393208D02*
X225467982Y-27440827D01*
X225467982Y-27440827D02*
X225420363Y-27488446D01*
X225420363Y-27488446D02*
X225372744Y-27583684D01*
X225372744Y-27583684D02*
X225372744Y-27869398D01*
X225372744Y-27869398D02*
X225420363Y-27964636D01*
X225420363Y-27964636D02*
X225467982Y-28012256D01*
X225467982Y-28012256D02*
X225563220Y-28059875D01*
X225563220Y-28059875D02*
X225753696Y-28059875D01*
X225753696Y-28059875D02*
X225848934Y-28012256D01*
X224515601Y-27393208D02*
X224515601Y-28059875D01*
X224944172Y-27393208D02*
X224944172Y-27917017D01*
X224944172Y-27917017D02*
X224896553Y-28012256D01*
X224896553Y-28012256D02*
X224801315Y-28059875D01*
X224801315Y-28059875D02*
X224658458Y-28059875D01*
X224658458Y-28059875D02*
X224563220Y-28012256D01*
X224563220Y-28012256D02*
X224515601Y-27964636D01*
X223610839Y-28059875D02*
X223610839Y-27536065D01*
X223610839Y-27536065D02*
X223658458Y-27440827D01*
X223658458Y-27440827D02*
X223753696Y-27393208D01*
X223753696Y-27393208D02*
X223944172Y-27393208D01*
X223944172Y-27393208D02*
X224039410Y-27440827D01*
X223610839Y-28012256D02*
X223706077Y-28059875D01*
X223706077Y-28059875D02*
X223944172Y-28059875D01*
X223944172Y-28059875D02*
X224039410Y-28012256D01*
X224039410Y-28012256D02*
X224087029Y-27917017D01*
X224087029Y-27917017D02*
X224087029Y-27821779D01*
X224087029Y-27821779D02*
X224039410Y-27726541D01*
X224039410Y-27726541D02*
X223944172Y-27678922D01*
X223944172Y-27678922D02*
X223706077Y-27678922D01*
X223706077Y-27678922D02*
X223610839Y-27631303D01*
X223134648Y-28059875D02*
X223134648Y-27393208D01*
X223134648Y-27583684D02*
X223087029Y-27488446D01*
X223087029Y-27488446D02*
X223039410Y-27440827D01*
X223039410Y-27440827D02*
X222944172Y-27393208D01*
X222944172Y-27393208D02*
X222848934Y-27393208D01*
X222610838Y-27393208D02*
X222372743Y-28059875D01*
X222134648Y-27393208D02*
X222372743Y-28059875D01*
X222372743Y-28059875D02*
X222467981Y-28297970D01*
X222467981Y-28297970D02*
X222515600Y-28345589D01*
X222515600Y-28345589D02*
X222610838Y-28393208D01*
X221039409Y-27155113D02*
X220991790Y-27107494D01*
X220991790Y-27107494D02*
X220896552Y-27059875D01*
X220896552Y-27059875D02*
X220658457Y-27059875D01*
X220658457Y-27059875D02*
X220563219Y-27107494D01*
X220563219Y-27107494D02*
X220515600Y-27155113D01*
X220515600Y-27155113D02*
X220467981Y-27250351D01*
X220467981Y-27250351D02*
X220467981Y-27345589D01*
X220467981Y-27345589D02*
X220515600Y-27488446D01*
X220515600Y-27488446D02*
X221087028Y-28059875D01*
X221087028Y-28059875D02*
X220467981Y-28059875D01*
X219848933Y-27059875D02*
X219753695Y-27059875D01*
X219753695Y-27059875D02*
X219658457Y-27107494D01*
X219658457Y-27107494D02*
X219610838Y-27155113D01*
X219610838Y-27155113D02*
X219563219Y-27250351D01*
X219563219Y-27250351D02*
X219515600Y-27440827D01*
X219515600Y-27440827D02*
X219515600Y-27678922D01*
X219515600Y-27678922D02*
X219563219Y-27869398D01*
X219563219Y-27869398D02*
X219610838Y-27964636D01*
X219610838Y-27964636D02*
X219658457Y-28012256D01*
X219658457Y-28012256D02*
X219753695Y-28059875D01*
X219753695Y-28059875D02*
X219848933Y-28059875D01*
X219848933Y-28059875D02*
X219944171Y-28012256D01*
X219944171Y-28012256D02*
X219991790Y-27964636D01*
X219991790Y-27964636D02*
X220039409Y-27869398D01*
X220039409Y-27869398D02*
X220087028Y-27678922D01*
X220087028Y-27678922D02*
X220087028Y-27440827D01*
X220087028Y-27440827D02*
X220039409Y-27250351D01*
X220039409Y-27250351D02*
X219991790Y-27155113D01*
X219991790Y-27155113D02*
X219944171Y-27107494D01*
X219944171Y-27107494D02*
X219848933Y-27059875D01*
X219134647Y-27155113D02*
X219087028Y-27107494D01*
X219087028Y-27107494D02*
X218991790Y-27059875D01*
X218991790Y-27059875D02*
X218753695Y-27059875D01*
X218753695Y-27059875D02*
X218658457Y-27107494D01*
X218658457Y-27107494D02*
X218610838Y-27155113D01*
X218610838Y-27155113D02*
X218563219Y-27250351D01*
X218563219Y-27250351D02*
X218563219Y-27345589D01*
X218563219Y-27345589D02*
X218610838Y-27488446D01*
X218610838Y-27488446D02*
X219182266Y-28059875D01*
X219182266Y-28059875D02*
X218563219Y-28059875D01*
X217706076Y-27059875D02*
X217896552Y-27059875D01*
X217896552Y-27059875D02*
X217991790Y-27107494D01*
X217991790Y-27107494D02*
X218039409Y-27155113D01*
X218039409Y-27155113D02*
X218134647Y-27297970D01*
X218134647Y-27297970D02*
X218182266Y-27488446D01*
X218182266Y-27488446D02*
X218182266Y-27869398D01*
X218182266Y-27869398D02*
X218134647Y-27964636D01*
X218134647Y-27964636D02*
X218087028Y-28012256D01*
X218087028Y-28012256D02*
X217991790Y-28059875D01*
X217991790Y-28059875D02*
X217801314Y-28059875D01*
X217801314Y-28059875D02*
X217706076Y-28012256D01*
X217706076Y-28012256D02*
X217658457Y-27964636D01*
X217658457Y-27964636D02*
X217610838Y-27869398D01*
X217610838Y-27869398D02*
X217610838Y-27631303D01*
X217610838Y-27631303D02*
X217658457Y-27536065D01*
X217658457Y-27536065D02*
X217706076Y-27488446D01*
X217706076Y-27488446D02*
X217801314Y-27440827D01*
X217801314Y-27440827D02*
X217991790Y-27440827D01*
X217991790Y-27440827D02*
X218087028Y-27488446D01*
X218087028Y-27488446D02*
X218134647Y-27536065D01*
X218134647Y-27536065D02*
X218182266Y-27631303D01*
X227610839Y-29384104D02*
X227134649Y-29384104D01*
X227706077Y-29669819D02*
X227372744Y-28669819D01*
X227372744Y-28669819D02*
X227039411Y-29669819D01*
X226706077Y-29669819D02*
X226706077Y-28669819D01*
X226706077Y-29050771D02*
X226610839Y-29003152D01*
X226610839Y-29003152D02*
X226420363Y-29003152D01*
X226420363Y-29003152D02*
X226325125Y-29050771D01*
X226325125Y-29050771D02*
X226277506Y-29098390D01*
X226277506Y-29098390D02*
X226229887Y-29193628D01*
X226229887Y-29193628D02*
X226229887Y-29479342D01*
X226229887Y-29479342D02*
X226277506Y-29574580D01*
X226277506Y-29574580D02*
X226325125Y-29622200D01*
X226325125Y-29622200D02*
X226420363Y-29669819D01*
X226420363Y-29669819D02*
X226610839Y-29669819D01*
X226610839Y-29669819D02*
X226706077Y-29622200D01*
X225801315Y-29669819D02*
X225801315Y-29003152D01*
X225801315Y-28669819D02*
X225848934Y-28717438D01*
X225848934Y-28717438D02*
X225801315Y-28765057D01*
X225801315Y-28765057D02*
X225753696Y-28717438D01*
X225753696Y-28717438D02*
X225801315Y-28669819D01*
X225801315Y-28669819D02*
X225801315Y-28765057D01*
X224896554Y-29003152D02*
X224896554Y-29812676D01*
X224896554Y-29812676D02*
X224944173Y-29907914D01*
X224944173Y-29907914D02*
X224991792Y-29955533D01*
X224991792Y-29955533D02*
X225087030Y-30003152D01*
X225087030Y-30003152D02*
X225229887Y-30003152D01*
X225229887Y-30003152D02*
X225325125Y-29955533D01*
X224896554Y-29622200D02*
X224991792Y-29669819D01*
X224991792Y-29669819D02*
X225182268Y-29669819D01*
X225182268Y-29669819D02*
X225277506Y-29622200D01*
X225277506Y-29622200D02*
X225325125Y-29574580D01*
X225325125Y-29574580D02*
X225372744Y-29479342D01*
X225372744Y-29479342D02*
X225372744Y-29193628D01*
X225372744Y-29193628D02*
X225325125Y-29098390D01*
X225325125Y-29098390D02*
X225277506Y-29050771D01*
X225277506Y-29050771D02*
X225182268Y-29003152D01*
X225182268Y-29003152D02*
X224991792Y-29003152D01*
X224991792Y-29003152D02*
X224896554Y-29050771D01*
X223991792Y-29669819D02*
X223991792Y-29146009D01*
X223991792Y-29146009D02*
X224039411Y-29050771D01*
X224039411Y-29050771D02*
X224134649Y-29003152D01*
X224134649Y-29003152D02*
X224325125Y-29003152D01*
X224325125Y-29003152D02*
X224420363Y-29050771D01*
X223991792Y-29622200D02*
X224087030Y-29669819D01*
X224087030Y-29669819D02*
X224325125Y-29669819D01*
X224325125Y-29669819D02*
X224420363Y-29622200D01*
X224420363Y-29622200D02*
X224467982Y-29526961D01*
X224467982Y-29526961D02*
X224467982Y-29431723D01*
X224467982Y-29431723D02*
X224420363Y-29336485D01*
X224420363Y-29336485D02*
X224325125Y-29288866D01*
X224325125Y-29288866D02*
X224087030Y-29288866D01*
X224087030Y-29288866D02*
X223991792Y-29241247D01*
X223515601Y-29669819D02*
X223515601Y-29003152D01*
X223515601Y-28669819D02*
X223563220Y-28717438D01*
X223563220Y-28717438D02*
X223515601Y-28765057D01*
X223515601Y-28765057D02*
X223467982Y-28717438D01*
X223467982Y-28717438D02*
X223515601Y-28669819D01*
X223515601Y-28669819D02*
X223515601Y-28765057D01*
X222896554Y-29669819D02*
X222991792Y-29622200D01*
X222991792Y-29622200D02*
X223039411Y-29526961D01*
X223039411Y-29526961D02*
X223039411Y-28669819D01*
X221753696Y-29669819D02*
X221753696Y-28669819D01*
X221753696Y-28669819D02*
X221372744Y-28669819D01*
X221372744Y-28669819D02*
X221277506Y-28717438D01*
X221277506Y-28717438D02*
X221229887Y-28765057D01*
X221229887Y-28765057D02*
X221182268Y-28860295D01*
X221182268Y-28860295D02*
X221182268Y-29003152D01*
X221182268Y-29003152D02*
X221229887Y-29098390D01*
X221229887Y-29098390D02*
X221277506Y-29146009D01*
X221277506Y-29146009D02*
X221372744Y-29193628D01*
X221372744Y-29193628D02*
X221753696Y-29193628D01*
X220325125Y-29669819D02*
X220325125Y-29146009D01*
X220325125Y-29146009D02*
X220372744Y-29050771D01*
X220372744Y-29050771D02*
X220467982Y-29003152D01*
X220467982Y-29003152D02*
X220658458Y-29003152D01*
X220658458Y-29003152D02*
X220753696Y-29050771D01*
X220325125Y-29622200D02*
X220420363Y-29669819D01*
X220420363Y-29669819D02*
X220658458Y-29669819D01*
X220658458Y-29669819D02*
X220753696Y-29622200D01*
X220753696Y-29622200D02*
X220801315Y-29526961D01*
X220801315Y-29526961D02*
X220801315Y-29431723D01*
X220801315Y-29431723D02*
X220753696Y-29336485D01*
X220753696Y-29336485D02*
X220658458Y-29288866D01*
X220658458Y-29288866D02*
X220420363Y-29288866D01*
X220420363Y-29288866D02*
X220325125Y-29241247D01*
X219848934Y-29669819D02*
X219848934Y-29003152D01*
X219848934Y-29193628D02*
X219801315Y-29098390D01*
X219801315Y-29098390D02*
X219753696Y-29050771D01*
X219753696Y-29050771D02*
X219658458Y-29003152D01*
X219658458Y-29003152D02*
X219563220Y-29003152D01*
X219277505Y-29622200D02*
X219182267Y-29669819D01*
X219182267Y-29669819D02*
X218991791Y-29669819D01*
X218991791Y-29669819D02*
X218896553Y-29622200D01*
X218896553Y-29622200D02*
X218848934Y-29526961D01*
X218848934Y-29526961D02*
X218848934Y-29479342D01*
X218848934Y-29479342D02*
X218896553Y-29384104D01*
X218896553Y-29384104D02*
X218991791Y-29336485D01*
X218991791Y-29336485D02*
X219134648Y-29336485D01*
X219134648Y-29336485D02*
X219229886Y-29288866D01*
X219229886Y-29288866D02*
X219277505Y-29193628D01*
X219277505Y-29193628D02*
X219277505Y-29146009D01*
X219277505Y-29146009D02*
X219229886Y-29050771D01*
X219229886Y-29050771D02*
X219134648Y-29003152D01*
X219134648Y-29003152D02*
X218991791Y-29003152D01*
X218991791Y-29003152D02*
X218896553Y-29050771D01*
X218277505Y-29669819D02*
X218372743Y-29622200D01*
X218372743Y-29622200D02*
X218420362Y-29574580D01*
X218420362Y-29574580D02*
X218467981Y-29479342D01*
X218467981Y-29479342D02*
X218467981Y-29193628D01*
X218467981Y-29193628D02*
X218420362Y-29098390D01*
X218420362Y-29098390D02*
X218372743Y-29050771D01*
X218372743Y-29050771D02*
X218277505Y-29003152D01*
X218277505Y-29003152D02*
X218134648Y-29003152D01*
X218134648Y-29003152D02*
X218039410Y-29050771D01*
X218039410Y-29050771D02*
X217991791Y-29098390D01*
X217991791Y-29098390D02*
X217944172Y-29193628D01*
X217944172Y-29193628D02*
X217944172Y-29479342D01*
X217944172Y-29479342D02*
X217991791Y-29574580D01*
X217991791Y-29574580D02*
X218039410Y-29622200D01*
X218039410Y-29622200D02*
X218134648Y-29669819D01*
X218134648Y-29669819D02*
X218277505Y-29669819D01*
X217515600Y-29003152D02*
X217515600Y-29669819D01*
X217515600Y-29098390D02*
X217467981Y-29050771D01*
X217467981Y-29050771D02*
X217372743Y-29003152D01*
X217372743Y-29003152D02*
X217229886Y-29003152D01*
X217229886Y-29003152D02*
X217134648Y-29050771D01*
X217134648Y-29050771D02*
X217087029Y-29146009D01*
X217087029Y-29146009D02*
X217087029Y-29669819D01*
X216658457Y-29622200D02*
X216563219Y-29669819D01*
X216563219Y-29669819D02*
X216372743Y-29669819D01*
X216372743Y-29669819D02*
X216277505Y-29622200D01*
X216277505Y-29622200D02*
X216229886Y-29526961D01*
X216229886Y-29526961D02*
X216229886Y-29479342D01*
X216229886Y-29479342D02*
X216277505Y-29384104D01*
X216277505Y-29384104D02*
X216372743Y-29336485D01*
X216372743Y-29336485D02*
X216515600Y-29336485D01*
X216515600Y-29336485D02*
X216610838Y-29288866D01*
X216610838Y-29288866D02*
X216658457Y-29193628D01*
X216658457Y-29193628D02*
X216658457Y-29146009D01*
X216658457Y-29146009D02*
X216610838Y-29050771D01*
X216610838Y-29050771D02*
X216515600Y-29003152D01*
X216515600Y-29003152D02*
X216372743Y-29003152D01*
X216372743Y-29003152D02*
X216277505Y-29050771D01*
D11*
X169343734Y-92176760D02*
X168867544Y-92176760D01*
X169438972Y-92462475D02*
X169105639Y-91462475D01*
X169105639Y-91462475D02*
X168772306Y-92462475D01*
X168438972Y-92462475D02*
X168438972Y-91462475D01*
X168438972Y-91843427D02*
X168343734Y-91795808D01*
X168343734Y-91795808D02*
X168153258Y-91795808D01*
X168153258Y-91795808D02*
X168058020Y-91843427D01*
X168058020Y-91843427D02*
X168010401Y-91891046D01*
X168010401Y-91891046D02*
X167962782Y-91986284D01*
X167962782Y-91986284D02*
X167962782Y-92271998D01*
X167962782Y-92271998D02*
X168010401Y-92367236D01*
X168010401Y-92367236D02*
X168058020Y-92414856D01*
X168058020Y-92414856D02*
X168153258Y-92462475D01*
X168153258Y-92462475D02*
X168343734Y-92462475D01*
X168343734Y-92462475D02*
X168438972Y-92414856D01*
X167534210Y-92462475D02*
X167534210Y-91795808D01*
X167534210Y-91462475D02*
X167581829Y-91510094D01*
X167581829Y-91510094D02*
X167534210Y-91557713D01*
X167534210Y-91557713D02*
X167486591Y-91510094D01*
X167486591Y-91510094D02*
X167534210Y-91462475D01*
X167534210Y-91462475D02*
X167534210Y-91557713D01*
X166629449Y-91795808D02*
X166629449Y-92605332D01*
X166629449Y-92605332D02*
X166677068Y-92700570D01*
X166677068Y-92700570D02*
X166724687Y-92748189D01*
X166724687Y-92748189D02*
X166819925Y-92795808D01*
X166819925Y-92795808D02*
X166962782Y-92795808D01*
X166962782Y-92795808D02*
X167058020Y-92748189D01*
X166629449Y-92414856D02*
X166724687Y-92462475D01*
X166724687Y-92462475D02*
X166915163Y-92462475D01*
X166915163Y-92462475D02*
X167010401Y-92414856D01*
X167010401Y-92414856D02*
X167058020Y-92367236D01*
X167058020Y-92367236D02*
X167105639Y-92271998D01*
X167105639Y-92271998D02*
X167105639Y-91986284D01*
X167105639Y-91986284D02*
X167058020Y-91891046D01*
X167058020Y-91891046D02*
X167010401Y-91843427D01*
X167010401Y-91843427D02*
X166915163Y-91795808D01*
X166915163Y-91795808D02*
X166724687Y-91795808D01*
X166724687Y-91795808D02*
X166629449Y-91843427D01*
X165724687Y-92462475D02*
X165724687Y-91938665D01*
X165724687Y-91938665D02*
X165772306Y-91843427D01*
X165772306Y-91843427D02*
X165867544Y-91795808D01*
X165867544Y-91795808D02*
X166058020Y-91795808D01*
X166058020Y-91795808D02*
X166153258Y-91843427D01*
X165724687Y-92414856D02*
X165819925Y-92462475D01*
X165819925Y-92462475D02*
X166058020Y-92462475D01*
X166058020Y-92462475D02*
X166153258Y-92414856D01*
X166153258Y-92414856D02*
X166200877Y-92319617D01*
X166200877Y-92319617D02*
X166200877Y-92224379D01*
X166200877Y-92224379D02*
X166153258Y-92129141D01*
X166153258Y-92129141D02*
X166058020Y-92081522D01*
X166058020Y-92081522D02*
X165819925Y-92081522D01*
X165819925Y-92081522D02*
X165724687Y-92033903D01*
X165248496Y-92462475D02*
X165248496Y-91795808D01*
X165248496Y-91462475D02*
X165296115Y-91510094D01*
X165296115Y-91510094D02*
X165248496Y-91557713D01*
X165248496Y-91557713D02*
X165200877Y-91510094D01*
X165200877Y-91510094D02*
X165248496Y-91462475D01*
X165248496Y-91462475D02*
X165248496Y-91557713D01*
X164629449Y-92462475D02*
X164724687Y-92414856D01*
X164724687Y-92414856D02*
X164772306Y-92319617D01*
X164772306Y-92319617D02*
X164772306Y-91462475D01*
X163486591Y-92462475D02*
X163486591Y-91462475D01*
X163486591Y-91462475D02*
X163105639Y-91462475D01*
X163105639Y-91462475D02*
X163010401Y-91510094D01*
X163010401Y-91510094D02*
X162962782Y-91557713D01*
X162962782Y-91557713D02*
X162915163Y-91652951D01*
X162915163Y-91652951D02*
X162915163Y-91795808D01*
X162915163Y-91795808D02*
X162962782Y-91891046D01*
X162962782Y-91891046D02*
X163010401Y-91938665D01*
X163010401Y-91938665D02*
X163105639Y-91986284D01*
X163105639Y-91986284D02*
X163486591Y-91986284D01*
X162058020Y-92462475D02*
X162058020Y-91938665D01*
X162058020Y-91938665D02*
X162105639Y-91843427D01*
X162105639Y-91843427D02*
X162200877Y-91795808D01*
X162200877Y-91795808D02*
X162391353Y-91795808D01*
X162391353Y-91795808D02*
X162486591Y-91843427D01*
X162058020Y-92414856D02*
X162153258Y-92462475D01*
X162153258Y-92462475D02*
X162391353Y-92462475D01*
X162391353Y-92462475D02*
X162486591Y-92414856D01*
X162486591Y-92414856D02*
X162534210Y-92319617D01*
X162534210Y-92319617D02*
X162534210Y-92224379D01*
X162534210Y-92224379D02*
X162486591Y-92129141D01*
X162486591Y-92129141D02*
X162391353Y-92081522D01*
X162391353Y-92081522D02*
X162153258Y-92081522D01*
X162153258Y-92081522D02*
X162058020Y-92033903D01*
X161581829Y-92462475D02*
X161581829Y-91795808D01*
X161581829Y-91986284D02*
X161534210Y-91891046D01*
X161534210Y-91891046D02*
X161486591Y-91843427D01*
X161486591Y-91843427D02*
X161391353Y-91795808D01*
X161391353Y-91795808D02*
X161296115Y-91795808D01*
X161010400Y-92414856D02*
X160915162Y-92462475D01*
X160915162Y-92462475D02*
X160724686Y-92462475D01*
X160724686Y-92462475D02*
X160629448Y-92414856D01*
X160629448Y-92414856D02*
X160581829Y-92319617D01*
X160581829Y-92319617D02*
X160581829Y-92271998D01*
X160581829Y-92271998D02*
X160629448Y-92176760D01*
X160629448Y-92176760D02*
X160724686Y-92129141D01*
X160724686Y-92129141D02*
X160867543Y-92129141D01*
X160867543Y-92129141D02*
X160962781Y-92081522D01*
X160962781Y-92081522D02*
X161010400Y-91986284D01*
X161010400Y-91986284D02*
X161010400Y-91938665D01*
X161010400Y-91938665D02*
X160962781Y-91843427D01*
X160962781Y-91843427D02*
X160867543Y-91795808D01*
X160867543Y-91795808D02*
X160724686Y-91795808D01*
X160724686Y-91795808D02*
X160629448Y-91843427D01*
X160010400Y-92462475D02*
X160105638Y-92414856D01*
X160105638Y-92414856D02*
X160153257Y-92367236D01*
X160153257Y-92367236D02*
X160200876Y-92271998D01*
X160200876Y-92271998D02*
X160200876Y-91986284D01*
X160200876Y-91986284D02*
X160153257Y-91891046D01*
X160153257Y-91891046D02*
X160105638Y-91843427D01*
X160105638Y-91843427D02*
X160010400Y-91795808D01*
X160010400Y-91795808D02*
X159867543Y-91795808D01*
X159867543Y-91795808D02*
X159772305Y-91843427D01*
X159772305Y-91843427D02*
X159724686Y-91891046D01*
X159724686Y-91891046D02*
X159677067Y-91986284D01*
X159677067Y-91986284D02*
X159677067Y-92271998D01*
X159677067Y-92271998D02*
X159724686Y-92367236D01*
X159724686Y-92367236D02*
X159772305Y-92414856D01*
X159772305Y-92414856D02*
X159867543Y-92462475D01*
X159867543Y-92462475D02*
X160010400Y-92462475D01*
X159248495Y-91795808D02*
X159248495Y-92462475D01*
X159248495Y-91891046D02*
X159200876Y-91843427D01*
X159200876Y-91843427D02*
X159105638Y-91795808D01*
X159105638Y-91795808D02*
X158962781Y-91795808D01*
X158962781Y-91795808D02*
X158867543Y-91843427D01*
X158867543Y-91843427D02*
X158819924Y-91938665D01*
X158819924Y-91938665D02*
X158819924Y-92462475D01*
X158391352Y-92414856D02*
X158296114Y-92462475D01*
X158296114Y-92462475D02*
X158105638Y-92462475D01*
X158105638Y-92462475D02*
X158010400Y-92414856D01*
X158010400Y-92414856D02*
X157962781Y-92319617D01*
X157962781Y-92319617D02*
X157962781Y-92271998D01*
X157962781Y-92271998D02*
X158010400Y-92176760D01*
X158010400Y-92176760D02*
X158105638Y-92129141D01*
X158105638Y-92129141D02*
X158248495Y-92129141D01*
X158248495Y-92129141D02*
X158343733Y-92081522D01*
X158343733Y-92081522D02*
X158391352Y-91986284D01*
X158391352Y-91986284D02*
X158391352Y-91938665D01*
X158391352Y-91938665D02*
X158343733Y-91843427D01*
X158343733Y-91843427D02*
X158248495Y-91795808D01*
X158248495Y-91795808D02*
X158105638Y-91795808D01*
X158105638Y-91795808D02*
X158010400Y-91843427D01*
X169343734Y-94024800D02*
X169200877Y-94072419D01*
X169200877Y-94072419D02*
X168962782Y-94072419D01*
X168962782Y-94072419D02*
X168867544Y-94024800D01*
X168867544Y-94024800D02*
X168819925Y-93977180D01*
X168819925Y-93977180D02*
X168772306Y-93881942D01*
X168772306Y-93881942D02*
X168772306Y-93786704D01*
X168772306Y-93786704D02*
X168819925Y-93691466D01*
X168819925Y-93691466D02*
X168867544Y-93643847D01*
X168867544Y-93643847D02*
X168962782Y-93596228D01*
X168962782Y-93596228D02*
X169153258Y-93548609D01*
X169153258Y-93548609D02*
X169248496Y-93500990D01*
X169248496Y-93500990D02*
X169296115Y-93453371D01*
X169296115Y-93453371D02*
X169343734Y-93358133D01*
X169343734Y-93358133D02*
X169343734Y-93262895D01*
X169343734Y-93262895D02*
X169296115Y-93167657D01*
X169296115Y-93167657D02*
X169248496Y-93120038D01*
X169248496Y-93120038D02*
X169153258Y-93072419D01*
X169153258Y-93072419D02*
X168915163Y-93072419D01*
X168915163Y-93072419D02*
X168772306Y-93120038D01*
X167915163Y-93405752D02*
X167915163Y-94072419D01*
X168343734Y-93405752D02*
X168343734Y-93929561D01*
X168343734Y-93929561D02*
X168296115Y-94024800D01*
X168296115Y-94024800D02*
X168200877Y-94072419D01*
X168200877Y-94072419D02*
X168058020Y-94072419D01*
X168058020Y-94072419D02*
X167962782Y-94024800D01*
X167962782Y-94024800D02*
X167915163Y-93977180D01*
X167438972Y-93405752D02*
X167438972Y-94405752D01*
X167438972Y-93453371D02*
X167343734Y-93405752D01*
X167343734Y-93405752D02*
X167153258Y-93405752D01*
X167153258Y-93405752D02*
X167058020Y-93453371D01*
X167058020Y-93453371D02*
X167010401Y-93500990D01*
X167010401Y-93500990D02*
X166962782Y-93596228D01*
X166962782Y-93596228D02*
X166962782Y-93881942D01*
X166962782Y-93881942D02*
X167010401Y-93977180D01*
X167010401Y-93977180D02*
X167058020Y-94024800D01*
X167058020Y-94024800D02*
X167153258Y-94072419D01*
X167153258Y-94072419D02*
X167343734Y-94072419D01*
X167343734Y-94072419D02*
X167438972Y-94024800D01*
X166534210Y-93405752D02*
X166534210Y-94405752D01*
X166534210Y-93453371D02*
X166438972Y-93405752D01*
X166438972Y-93405752D02*
X166248496Y-93405752D01*
X166248496Y-93405752D02*
X166153258Y-93453371D01*
X166153258Y-93453371D02*
X166105639Y-93500990D01*
X166105639Y-93500990D02*
X166058020Y-93596228D01*
X166058020Y-93596228D02*
X166058020Y-93881942D01*
X166058020Y-93881942D02*
X166105639Y-93977180D01*
X166105639Y-93977180D02*
X166153258Y-94024800D01*
X166153258Y-94024800D02*
X166248496Y-94072419D01*
X166248496Y-94072419D02*
X166438972Y-94072419D01*
X166438972Y-94072419D02*
X166534210Y-94024800D01*
X165486591Y-94072419D02*
X165581829Y-94024800D01*
X165581829Y-94024800D02*
X165629448Y-93929561D01*
X165629448Y-93929561D02*
X165629448Y-93072419D01*
X164724686Y-94024800D02*
X164819924Y-94072419D01*
X164819924Y-94072419D02*
X165010400Y-94072419D01*
X165010400Y-94072419D02*
X165105638Y-94024800D01*
X165105638Y-94024800D02*
X165153257Y-93929561D01*
X165153257Y-93929561D02*
X165153257Y-93548609D01*
X165153257Y-93548609D02*
X165105638Y-93453371D01*
X165105638Y-93453371D02*
X165010400Y-93405752D01*
X165010400Y-93405752D02*
X164819924Y-93405752D01*
X164819924Y-93405752D02*
X164724686Y-93453371D01*
X164724686Y-93453371D02*
X164677067Y-93548609D01*
X164677067Y-93548609D02*
X164677067Y-93643847D01*
X164677067Y-93643847D02*
X165153257Y-93739085D01*
X164248495Y-94072419D02*
X164248495Y-93405752D01*
X164248495Y-93500990D02*
X164200876Y-93453371D01*
X164200876Y-93453371D02*
X164105638Y-93405752D01*
X164105638Y-93405752D02*
X163962781Y-93405752D01*
X163962781Y-93405752D02*
X163867543Y-93453371D01*
X163867543Y-93453371D02*
X163819924Y-93548609D01*
X163819924Y-93548609D02*
X163819924Y-94072419D01*
X163819924Y-93548609D02*
X163772305Y-93453371D01*
X163772305Y-93453371D02*
X163677067Y-93405752D01*
X163677067Y-93405752D02*
X163534210Y-93405752D01*
X163534210Y-93405752D02*
X163438971Y-93453371D01*
X163438971Y-93453371D02*
X163391352Y-93548609D01*
X163391352Y-93548609D02*
X163391352Y-94072419D01*
X162534210Y-94024800D02*
X162629448Y-94072419D01*
X162629448Y-94072419D02*
X162819924Y-94072419D01*
X162819924Y-94072419D02*
X162915162Y-94024800D01*
X162915162Y-94024800D02*
X162962781Y-93929561D01*
X162962781Y-93929561D02*
X162962781Y-93548609D01*
X162962781Y-93548609D02*
X162915162Y-93453371D01*
X162915162Y-93453371D02*
X162819924Y-93405752D01*
X162819924Y-93405752D02*
X162629448Y-93405752D01*
X162629448Y-93405752D02*
X162534210Y-93453371D01*
X162534210Y-93453371D02*
X162486591Y-93548609D01*
X162486591Y-93548609D02*
X162486591Y-93643847D01*
X162486591Y-93643847D02*
X162962781Y-93739085D01*
X162058019Y-93405752D02*
X162058019Y-94072419D01*
X162058019Y-93500990D02*
X162010400Y-93453371D01*
X162010400Y-93453371D02*
X161915162Y-93405752D01*
X161915162Y-93405752D02*
X161772305Y-93405752D01*
X161772305Y-93405752D02*
X161677067Y-93453371D01*
X161677067Y-93453371D02*
X161629448Y-93548609D01*
X161629448Y-93548609D02*
X161629448Y-94072419D01*
X161296114Y-93405752D02*
X160915162Y-93405752D01*
X161153257Y-93072419D02*
X161153257Y-93929561D01*
X161153257Y-93929561D02*
X161105638Y-94024800D01*
X161105638Y-94024800D02*
X161010400Y-94072419D01*
X161010400Y-94072419D02*
X160915162Y-94072419D01*
X160153257Y-94072419D02*
X160153257Y-93548609D01*
X160153257Y-93548609D02*
X160200876Y-93453371D01*
X160200876Y-93453371D02*
X160296114Y-93405752D01*
X160296114Y-93405752D02*
X160486590Y-93405752D01*
X160486590Y-93405752D02*
X160581828Y-93453371D01*
X160153257Y-94024800D02*
X160248495Y-94072419D01*
X160248495Y-94072419D02*
X160486590Y-94072419D01*
X160486590Y-94072419D02*
X160581828Y-94024800D01*
X160581828Y-94024800D02*
X160629447Y-93929561D01*
X160629447Y-93929561D02*
X160629447Y-93834323D01*
X160629447Y-93834323D02*
X160581828Y-93739085D01*
X160581828Y-93739085D02*
X160486590Y-93691466D01*
X160486590Y-93691466D02*
X160248495Y-93691466D01*
X160248495Y-93691466D02*
X160153257Y-93643847D01*
X159534209Y-94072419D02*
X159629447Y-94024800D01*
X159629447Y-94024800D02*
X159677066Y-93929561D01*
X159677066Y-93929561D02*
X159677066Y-93072419D01*
X158391351Y-94072419D02*
X158391351Y-93072419D01*
X158391351Y-93072419D02*
X158058018Y-93786704D01*
X158058018Y-93786704D02*
X157724685Y-93072419D01*
X157724685Y-93072419D02*
X157724685Y-94072419D01*
X157105637Y-94072419D02*
X157200875Y-94024800D01*
X157200875Y-94024800D02*
X157248494Y-93977180D01*
X157248494Y-93977180D02*
X157296113Y-93881942D01*
X157296113Y-93881942D02*
X157296113Y-93596228D01*
X157296113Y-93596228D02*
X157248494Y-93500990D01*
X157248494Y-93500990D02*
X157200875Y-93453371D01*
X157200875Y-93453371D02*
X157105637Y-93405752D01*
X157105637Y-93405752D02*
X156962780Y-93405752D01*
X156962780Y-93405752D02*
X156867542Y-93453371D01*
X156867542Y-93453371D02*
X156819923Y-93500990D01*
X156819923Y-93500990D02*
X156772304Y-93596228D01*
X156772304Y-93596228D02*
X156772304Y-93881942D01*
X156772304Y-93881942D02*
X156819923Y-93977180D01*
X156819923Y-93977180D02*
X156867542Y-94024800D01*
X156867542Y-94024800D02*
X156962780Y-94072419D01*
X156962780Y-94072419D02*
X157105637Y-94072419D01*
X156343732Y-93405752D02*
X156343732Y-94072419D01*
X156343732Y-93500990D02*
X156296113Y-93453371D01*
X156296113Y-93453371D02*
X156200875Y-93405752D01*
X156200875Y-93405752D02*
X156058018Y-93405752D01*
X156058018Y-93405752D02*
X155962780Y-93453371D01*
X155962780Y-93453371D02*
X155915161Y-93548609D01*
X155915161Y-93548609D02*
X155915161Y-94072419D01*
X155438970Y-94072419D02*
X155438970Y-93405752D01*
X155438970Y-93072419D02*
X155486589Y-93120038D01*
X155486589Y-93120038D02*
X155438970Y-93167657D01*
X155438970Y-93167657D02*
X155391351Y-93120038D01*
X155391351Y-93120038D02*
X155438970Y-93072419D01*
X155438970Y-93072419D02*
X155438970Y-93167657D01*
X155105637Y-93405752D02*
X154724685Y-93405752D01*
X154962780Y-93072419D02*
X154962780Y-93929561D01*
X154962780Y-93929561D02*
X154915161Y-94024800D01*
X154915161Y-94024800D02*
X154819923Y-94072419D01*
X154819923Y-94072419D02*
X154724685Y-94072419D01*
X154248494Y-94072419D02*
X154343732Y-94024800D01*
X154343732Y-94024800D02*
X154391351Y-93977180D01*
X154391351Y-93977180D02*
X154438970Y-93881942D01*
X154438970Y-93881942D02*
X154438970Y-93596228D01*
X154438970Y-93596228D02*
X154391351Y-93500990D01*
X154391351Y-93500990D02*
X154343732Y-93453371D01*
X154343732Y-93453371D02*
X154248494Y-93405752D01*
X154248494Y-93405752D02*
X154105637Y-93405752D01*
X154105637Y-93405752D02*
X154010399Y-93453371D01*
X154010399Y-93453371D02*
X153962780Y-93500990D01*
X153962780Y-93500990D02*
X153915161Y-93596228D01*
X153915161Y-93596228D02*
X153915161Y-93881942D01*
X153915161Y-93881942D02*
X153962780Y-93977180D01*
X153962780Y-93977180D02*
X154010399Y-94024800D01*
X154010399Y-94024800D02*
X154105637Y-94072419D01*
X154105637Y-94072419D02*
X154248494Y-94072419D01*
X153486589Y-94072419D02*
X153486589Y-93405752D01*
X153486589Y-93596228D02*
X153438970Y-93500990D01*
X153438970Y-93500990D02*
X153391351Y-93453371D01*
X153391351Y-93453371D02*
X153296113Y-93405752D01*
X153296113Y-93405752D02*
X153200875Y-93405752D01*
X152867541Y-94072419D02*
X152867541Y-93405752D01*
X152867541Y-93072419D02*
X152915160Y-93120038D01*
X152915160Y-93120038D02*
X152867541Y-93167657D01*
X152867541Y-93167657D02*
X152819922Y-93120038D01*
X152819922Y-93120038D02*
X152867541Y-93072419D01*
X152867541Y-93072419D02*
X152867541Y-93167657D01*
X152391351Y-93405752D02*
X152391351Y-94072419D01*
X152391351Y-93500990D02*
X152343732Y-93453371D01*
X152343732Y-93453371D02*
X152248494Y-93405752D01*
X152248494Y-93405752D02*
X152105637Y-93405752D01*
X152105637Y-93405752D02*
X152010399Y-93453371D01*
X152010399Y-93453371D02*
X151962780Y-93548609D01*
X151962780Y-93548609D02*
X151962780Y-94072419D01*
X151058018Y-93405752D02*
X151058018Y-94215276D01*
X151058018Y-94215276D02*
X151105637Y-94310514D01*
X151105637Y-94310514D02*
X151153256Y-94358133D01*
X151153256Y-94358133D02*
X151248494Y-94405752D01*
X151248494Y-94405752D02*
X151391351Y-94405752D01*
X151391351Y-94405752D02*
X151486589Y-94358133D01*
X151058018Y-94024800D02*
X151153256Y-94072419D01*
X151153256Y-94072419D02*
X151343732Y-94072419D01*
X151343732Y-94072419D02*
X151438970Y-94024800D01*
X151438970Y-94024800D02*
X151486589Y-93977180D01*
X151486589Y-93977180D02*
X151534208Y-93881942D01*
X151534208Y-93881942D02*
X151534208Y-93596228D01*
X151534208Y-93596228D02*
X151486589Y-93500990D01*
X151486589Y-93500990D02*
X151438970Y-93453371D01*
X151438970Y-93453371D02*
X151343732Y-93405752D01*
X151343732Y-93405752D02*
X151153256Y-93405752D01*
X151153256Y-93405752D02*
X151058018Y-93453371D01*
X149819922Y-94072419D02*
X149819922Y-93072419D01*
X149819922Y-93072419D02*
X149438970Y-93072419D01*
X149438970Y-93072419D02*
X149343732Y-93120038D01*
X149343732Y-93120038D02*
X149296113Y-93167657D01*
X149296113Y-93167657D02*
X149248494Y-93262895D01*
X149248494Y-93262895D02*
X149248494Y-93405752D01*
X149248494Y-93405752D02*
X149296113Y-93500990D01*
X149296113Y-93500990D02*
X149343732Y-93548609D01*
X149343732Y-93548609D02*
X149438970Y-93596228D01*
X149438970Y-93596228D02*
X149819922Y-93596228D01*
X148248494Y-93977180D02*
X148296113Y-94024800D01*
X148296113Y-94024800D02*
X148438970Y-94072419D01*
X148438970Y-94072419D02*
X148534208Y-94072419D01*
X148534208Y-94072419D02*
X148677065Y-94024800D01*
X148677065Y-94024800D02*
X148772303Y-93929561D01*
X148772303Y-93929561D02*
X148819922Y-93834323D01*
X148819922Y-93834323D02*
X148867541Y-93643847D01*
X148867541Y-93643847D02*
X148867541Y-93500990D01*
X148867541Y-93500990D02*
X148819922Y-93310514D01*
X148819922Y-93310514D02*
X148772303Y-93215276D01*
X148772303Y-93215276D02*
X148677065Y-93120038D01*
X148677065Y-93120038D02*
X148534208Y-93072419D01*
X148534208Y-93072419D02*
X148438970Y-93072419D01*
X148438970Y-93072419D02*
X148296113Y-93120038D01*
X148296113Y-93120038D02*
X148248494Y-93167657D01*
X147486589Y-93548609D02*
X147343732Y-93596228D01*
X147343732Y-93596228D02*
X147296113Y-93643847D01*
X147296113Y-93643847D02*
X147248494Y-93739085D01*
X147248494Y-93739085D02*
X147248494Y-93881942D01*
X147248494Y-93881942D02*
X147296113Y-93977180D01*
X147296113Y-93977180D02*
X147343732Y-94024800D01*
X147343732Y-94024800D02*
X147438970Y-94072419D01*
X147438970Y-94072419D02*
X147819922Y-94072419D01*
X147819922Y-94072419D02*
X147819922Y-93072419D01*
X147819922Y-93072419D02*
X147486589Y-93072419D01*
X147486589Y-93072419D02*
X147391351Y-93120038D01*
X147391351Y-93120038D02*
X147343732Y-93167657D01*
X147343732Y-93167657D02*
X147296113Y-93262895D01*
X147296113Y-93262895D02*
X147296113Y-93358133D01*
X147296113Y-93358133D02*
X147343732Y-93453371D01*
X147343732Y-93453371D02*
X147391351Y-93500990D01*
X147391351Y-93500990D02*
X147486589Y-93548609D01*
X147486589Y-93548609D02*
X147819922Y-93548609D01*
D10*
X203654819Y-37357142D02*
X203178628Y-37023809D01*
X203654819Y-36785714D02*
X202654819Y-36785714D01*
X202654819Y-36785714D02*
X202654819Y-37166666D01*
X202654819Y-37166666D02*
X202702438Y-37261904D01*
X202702438Y-37261904D02*
X202750057Y-37309523D01*
X202750057Y-37309523D02*
X202845295Y-37357142D01*
X202845295Y-37357142D02*
X202988152Y-37357142D01*
X202988152Y-37357142D02*
X203083390Y-37309523D01*
X203083390Y-37309523D02*
X203131009Y-37261904D01*
X203131009Y-37261904D02*
X203178628Y-37166666D01*
X203178628Y-37166666D02*
X203178628Y-36785714D01*
X203654819Y-38309523D02*
X203654819Y-37738095D01*
X203654819Y-38023809D02*
X202654819Y-38023809D01*
X202654819Y-38023809D02*
X202797676Y-37928571D01*
X202797676Y-37928571D02*
X202892914Y-37833333D01*
X202892914Y-37833333D02*
X202940533Y-37738095D01*
X202654819Y-39166666D02*
X202654819Y-38976190D01*
X202654819Y-38976190D02*
X202702438Y-38880952D01*
X202702438Y-38880952D02*
X202750057Y-38833333D01*
X202750057Y-38833333D02*
X202892914Y-38738095D01*
X202892914Y-38738095D02*
X203083390Y-38690476D01*
X203083390Y-38690476D02*
X203464342Y-38690476D01*
X203464342Y-38690476D02*
X203559580Y-38738095D01*
X203559580Y-38738095D02*
X203607200Y-38785714D01*
X203607200Y-38785714D02*
X203654819Y-38880952D01*
X203654819Y-38880952D02*
X203654819Y-39071428D01*
X203654819Y-39071428D02*
X203607200Y-39166666D01*
X203607200Y-39166666D02*
X203559580Y-39214285D01*
X203559580Y-39214285D02*
X203464342Y-39261904D01*
X203464342Y-39261904D02*
X203226247Y-39261904D01*
X203226247Y-39261904D02*
X203131009Y-39214285D01*
X203131009Y-39214285D02*
X203083390Y-39166666D01*
X203083390Y-39166666D02*
X203035771Y-39071428D01*
X203035771Y-39071428D02*
X203035771Y-38880952D01*
X203035771Y-38880952D02*
X203083390Y-38785714D01*
X203083390Y-38785714D02*
X203131009Y-38738095D01*
X203131009Y-38738095D02*
X203226247Y-38690476D01*
X232617319Y-51736218D02*
X232141128Y-51402885D01*
X232617319Y-51164790D02*
X231617319Y-51164790D01*
X231617319Y-51164790D02*
X231617319Y-51545742D01*
X231617319Y-51545742D02*
X231664938Y-51640980D01*
X231664938Y-51640980D02*
X231712557Y-51688599D01*
X231712557Y-51688599D02*
X231807795Y-51736218D01*
X231807795Y-51736218D02*
X231950652Y-51736218D01*
X231950652Y-51736218D02*
X232045890Y-51688599D01*
X232045890Y-51688599D02*
X232093509Y-51640980D01*
X232093509Y-51640980D02*
X232141128Y-51545742D01*
X232141128Y-51545742D02*
X232141128Y-51164790D01*
X232617319Y-52688599D02*
X232617319Y-52117171D01*
X232617319Y-52402885D02*
X231617319Y-52402885D01*
X231617319Y-52402885D02*
X231760176Y-52307647D01*
X231760176Y-52307647D02*
X231855414Y-52212409D01*
X231855414Y-52212409D02*
X231903033Y-52117171D01*
X231617319Y-53021933D02*
X231617319Y-53640980D01*
X231617319Y-53640980D02*
X231998271Y-53307647D01*
X231998271Y-53307647D02*
X231998271Y-53450504D01*
X231998271Y-53450504D02*
X232045890Y-53545742D01*
X232045890Y-53545742D02*
X232093509Y-53593361D01*
X232093509Y-53593361D02*
X232188747Y-53640980D01*
X232188747Y-53640980D02*
X232426842Y-53640980D01*
X232426842Y-53640980D02*
X232522080Y-53593361D01*
X232522080Y-53593361D02*
X232569700Y-53545742D01*
X232569700Y-53545742D02*
X232617319Y-53450504D01*
X232617319Y-53450504D02*
X232617319Y-53164790D01*
X232617319Y-53164790D02*
X232569700Y-53069552D01*
X232569700Y-53069552D02*
X232522080Y-53021933D01*
X202004580Y-31268333D02*
X202052200Y-31220714D01*
X202052200Y-31220714D02*
X202099819Y-31077857D01*
X202099819Y-31077857D02*
X202099819Y-30982619D01*
X202099819Y-30982619D02*
X202052200Y-30839762D01*
X202052200Y-30839762D02*
X201956961Y-30744524D01*
X201956961Y-30744524D02*
X201861723Y-30696905D01*
X201861723Y-30696905D02*
X201671247Y-30649286D01*
X201671247Y-30649286D02*
X201528390Y-30649286D01*
X201528390Y-30649286D02*
X201337914Y-30696905D01*
X201337914Y-30696905D02*
X201242676Y-30744524D01*
X201242676Y-30744524D02*
X201147438Y-30839762D01*
X201147438Y-30839762D02*
X201099819Y-30982619D01*
X201099819Y-30982619D02*
X201099819Y-31077857D01*
X201099819Y-31077857D02*
X201147438Y-31220714D01*
X201147438Y-31220714D02*
X201195057Y-31268333D01*
X201195057Y-31649286D02*
X201147438Y-31696905D01*
X201147438Y-31696905D02*
X201099819Y-31792143D01*
X201099819Y-31792143D02*
X201099819Y-32030238D01*
X201099819Y-32030238D02*
X201147438Y-32125476D01*
X201147438Y-32125476D02*
X201195057Y-32173095D01*
X201195057Y-32173095D02*
X201290295Y-32220714D01*
X201290295Y-32220714D02*
X201385533Y-32220714D01*
X201385533Y-32220714D02*
X201528390Y-32173095D01*
X201528390Y-32173095D02*
X202099819Y-31601667D01*
X202099819Y-31601667D02*
X202099819Y-32220714D01*
X215704819Y-35357268D02*
X215228628Y-35023935D01*
X215704819Y-34785840D02*
X214704819Y-34785840D01*
X214704819Y-34785840D02*
X214704819Y-35166792D01*
X214704819Y-35166792D02*
X214752438Y-35262030D01*
X214752438Y-35262030D02*
X214800057Y-35309649D01*
X214800057Y-35309649D02*
X214895295Y-35357268D01*
X214895295Y-35357268D02*
X215038152Y-35357268D01*
X215038152Y-35357268D02*
X215133390Y-35309649D01*
X215133390Y-35309649D02*
X215181009Y-35262030D01*
X215181009Y-35262030D02*
X215228628Y-35166792D01*
X215228628Y-35166792D02*
X215228628Y-34785840D01*
X214704819Y-35690602D02*
X214704819Y-36309649D01*
X214704819Y-36309649D02*
X215085771Y-35976316D01*
X215085771Y-35976316D02*
X215085771Y-36119173D01*
X215085771Y-36119173D02*
X215133390Y-36214411D01*
X215133390Y-36214411D02*
X215181009Y-36262030D01*
X215181009Y-36262030D02*
X215276247Y-36309649D01*
X215276247Y-36309649D02*
X215514342Y-36309649D01*
X215514342Y-36309649D02*
X215609580Y-36262030D01*
X215609580Y-36262030D02*
X215657200Y-36214411D01*
X215657200Y-36214411D02*
X215704819Y-36119173D01*
X215704819Y-36119173D02*
X215704819Y-35833459D01*
X215704819Y-35833459D02*
X215657200Y-35738221D01*
X215657200Y-35738221D02*
X215609580Y-35690602D01*
X215133390Y-36881078D02*
X215085771Y-36785840D01*
X215085771Y-36785840D02*
X215038152Y-36738221D01*
X215038152Y-36738221D02*
X214942914Y-36690602D01*
X214942914Y-36690602D02*
X214895295Y-36690602D01*
X214895295Y-36690602D02*
X214800057Y-36738221D01*
X214800057Y-36738221D02*
X214752438Y-36785840D01*
X214752438Y-36785840D02*
X214704819Y-36881078D01*
X214704819Y-36881078D02*
X214704819Y-37071554D01*
X214704819Y-37071554D02*
X214752438Y-37166792D01*
X214752438Y-37166792D02*
X214800057Y-37214411D01*
X214800057Y-37214411D02*
X214895295Y-37262030D01*
X214895295Y-37262030D02*
X214942914Y-37262030D01*
X214942914Y-37262030D02*
X215038152Y-37214411D01*
X215038152Y-37214411D02*
X215085771Y-37166792D01*
X215085771Y-37166792D02*
X215133390Y-37071554D01*
X215133390Y-37071554D02*
X215133390Y-36881078D01*
X215133390Y-36881078D02*
X215181009Y-36785840D01*
X215181009Y-36785840D02*
X215228628Y-36738221D01*
X215228628Y-36738221D02*
X215323866Y-36690602D01*
X215323866Y-36690602D02*
X215514342Y-36690602D01*
X215514342Y-36690602D02*
X215609580Y-36738221D01*
X215609580Y-36738221D02*
X215657200Y-36785840D01*
X215657200Y-36785840D02*
X215704819Y-36881078D01*
X215704819Y-36881078D02*
X215704819Y-37071554D01*
X215704819Y-37071554D02*
X215657200Y-37166792D01*
X215657200Y-37166792D02*
X215609580Y-37214411D01*
X215609580Y-37214411D02*
X215514342Y-37262030D01*
X215514342Y-37262030D02*
X215323866Y-37262030D01*
X215323866Y-37262030D02*
X215228628Y-37214411D01*
X215228628Y-37214411D02*
X215181009Y-37166792D01*
X215181009Y-37166792D02*
X215133390Y-37071554D01*
X227617319Y-51736218D02*
X227141128Y-51402885D01*
X227617319Y-51164790D02*
X226617319Y-51164790D01*
X226617319Y-51164790D02*
X226617319Y-51545742D01*
X226617319Y-51545742D02*
X226664938Y-51640980D01*
X226664938Y-51640980D02*
X226712557Y-51688599D01*
X226712557Y-51688599D02*
X226807795Y-51736218D01*
X226807795Y-51736218D02*
X226950652Y-51736218D01*
X226950652Y-51736218D02*
X227045890Y-51688599D01*
X227045890Y-51688599D02*
X227093509Y-51640980D01*
X227093509Y-51640980D02*
X227141128Y-51545742D01*
X227141128Y-51545742D02*
X227141128Y-51164790D01*
X227617319Y-52688599D02*
X227617319Y-52117171D01*
X227617319Y-52402885D02*
X226617319Y-52402885D01*
X226617319Y-52402885D02*
X226760176Y-52307647D01*
X226760176Y-52307647D02*
X226855414Y-52212409D01*
X226855414Y-52212409D02*
X226903033Y-52117171D01*
X227617319Y-53640980D02*
X227617319Y-53069552D01*
X227617319Y-53355266D02*
X226617319Y-53355266D01*
X226617319Y-53355266D02*
X226760176Y-53260028D01*
X226760176Y-53260028D02*
X226855414Y-53164790D01*
X226855414Y-53164790D02*
X226903033Y-53069552D01*
X229367319Y-35486218D02*
X228891128Y-35152885D01*
X229367319Y-34914790D02*
X228367319Y-34914790D01*
X228367319Y-34914790D02*
X228367319Y-35295742D01*
X228367319Y-35295742D02*
X228414938Y-35390980D01*
X228414938Y-35390980D02*
X228462557Y-35438599D01*
X228462557Y-35438599D02*
X228557795Y-35486218D01*
X228557795Y-35486218D02*
X228700652Y-35486218D01*
X228700652Y-35486218D02*
X228795890Y-35438599D01*
X228795890Y-35438599D02*
X228843509Y-35390980D01*
X228843509Y-35390980D02*
X228891128Y-35295742D01*
X228891128Y-35295742D02*
X228891128Y-34914790D01*
X229367319Y-36438599D02*
X229367319Y-35867171D01*
X229367319Y-36152885D02*
X228367319Y-36152885D01*
X228367319Y-36152885D02*
X228510176Y-36057647D01*
X228510176Y-36057647D02*
X228605414Y-35962409D01*
X228605414Y-35962409D02*
X228653033Y-35867171D01*
X229367319Y-36914790D02*
X229367319Y-37105266D01*
X229367319Y-37105266D02*
X229319700Y-37200504D01*
X229319700Y-37200504D02*
X229272080Y-37248123D01*
X229272080Y-37248123D02*
X229129223Y-37343361D01*
X229129223Y-37343361D02*
X228938747Y-37390980D01*
X228938747Y-37390980D02*
X228557795Y-37390980D01*
X228557795Y-37390980D02*
X228462557Y-37343361D01*
X228462557Y-37343361D02*
X228414938Y-37295742D01*
X228414938Y-37295742D02*
X228367319Y-37200504D01*
X228367319Y-37200504D02*
X228367319Y-37010028D01*
X228367319Y-37010028D02*
X228414938Y-36914790D01*
X228414938Y-36914790D02*
X228462557Y-36867171D01*
X228462557Y-36867171D02*
X228557795Y-36819552D01*
X228557795Y-36819552D02*
X228795890Y-36819552D01*
X228795890Y-36819552D02*
X228891128Y-36867171D01*
X228891128Y-36867171D02*
X228938747Y-36914790D01*
X228938747Y-36914790D02*
X228986366Y-37010028D01*
X228986366Y-37010028D02*
X228986366Y-37200504D01*
X228986366Y-37200504D02*
X228938747Y-37295742D01*
X228938747Y-37295742D02*
X228891128Y-37343361D01*
X228891128Y-37343361D02*
X228795890Y-37390980D01*
X224105819Y-36333837D02*
X223629628Y-36000504D01*
X224105819Y-35762409D02*
X223105819Y-35762409D01*
X223105819Y-35762409D02*
X223105819Y-36143361D01*
X223105819Y-36143361D02*
X223153438Y-36238599D01*
X223153438Y-36238599D02*
X223201057Y-36286218D01*
X223201057Y-36286218D02*
X223296295Y-36333837D01*
X223296295Y-36333837D02*
X223439152Y-36333837D01*
X223439152Y-36333837D02*
X223534390Y-36286218D01*
X223534390Y-36286218D02*
X223582009Y-36238599D01*
X223582009Y-36238599D02*
X223629628Y-36143361D01*
X223629628Y-36143361D02*
X223629628Y-35762409D01*
X224105819Y-36810028D02*
X224105819Y-37000504D01*
X224105819Y-37000504D02*
X224058200Y-37095742D01*
X224058200Y-37095742D02*
X224010580Y-37143361D01*
X224010580Y-37143361D02*
X223867723Y-37238599D01*
X223867723Y-37238599D02*
X223677247Y-37286218D01*
X223677247Y-37286218D02*
X223296295Y-37286218D01*
X223296295Y-37286218D02*
X223201057Y-37238599D01*
X223201057Y-37238599D02*
X223153438Y-37190980D01*
X223153438Y-37190980D02*
X223105819Y-37095742D01*
X223105819Y-37095742D02*
X223105819Y-36905266D01*
X223105819Y-36905266D02*
X223153438Y-36810028D01*
X223153438Y-36810028D02*
X223201057Y-36762409D01*
X223201057Y-36762409D02*
X223296295Y-36714790D01*
X223296295Y-36714790D02*
X223534390Y-36714790D01*
X223534390Y-36714790D02*
X223629628Y-36762409D01*
X223629628Y-36762409D02*
X223677247Y-36810028D01*
X223677247Y-36810028D02*
X223724866Y-36905266D01*
X223724866Y-36905266D02*
X223724866Y-37095742D01*
X223724866Y-37095742D02*
X223677247Y-37190980D01*
X223677247Y-37190980D02*
X223629628Y-37238599D01*
X223629628Y-37238599D02*
X223534390Y-37286218D01*
X198554819Y-37457142D02*
X198078628Y-37123809D01*
X198554819Y-36885714D02*
X197554819Y-36885714D01*
X197554819Y-36885714D02*
X197554819Y-37266666D01*
X197554819Y-37266666D02*
X197602438Y-37361904D01*
X197602438Y-37361904D02*
X197650057Y-37409523D01*
X197650057Y-37409523D02*
X197745295Y-37457142D01*
X197745295Y-37457142D02*
X197888152Y-37457142D01*
X197888152Y-37457142D02*
X197983390Y-37409523D01*
X197983390Y-37409523D02*
X198031009Y-37361904D01*
X198031009Y-37361904D02*
X198078628Y-37266666D01*
X198078628Y-37266666D02*
X198078628Y-36885714D01*
X198554819Y-38409523D02*
X198554819Y-37838095D01*
X198554819Y-38123809D02*
X197554819Y-38123809D01*
X197554819Y-38123809D02*
X197697676Y-38028571D01*
X197697676Y-38028571D02*
X197792914Y-37933333D01*
X197792914Y-37933333D02*
X197840533Y-37838095D01*
X197554819Y-39314285D02*
X197554819Y-38838095D01*
X197554819Y-38838095D02*
X198031009Y-38790476D01*
X198031009Y-38790476D02*
X197983390Y-38838095D01*
X197983390Y-38838095D02*
X197935771Y-38933333D01*
X197935771Y-38933333D02*
X197935771Y-39171428D01*
X197935771Y-39171428D02*
X197983390Y-39266666D01*
X197983390Y-39266666D02*
X198031009Y-39314285D01*
X198031009Y-39314285D02*
X198126247Y-39361904D01*
X198126247Y-39361904D02*
X198364342Y-39361904D01*
X198364342Y-39361904D02*
X198459580Y-39314285D01*
X198459580Y-39314285D02*
X198507200Y-39266666D01*
X198507200Y-39266666D02*
X198554819Y-39171428D01*
X198554819Y-39171428D02*
X198554819Y-38933333D01*
X198554819Y-38933333D02*
X198507200Y-38838095D01*
X198507200Y-38838095D02*
X198459580Y-38790476D01*
X217204819Y-51607268D02*
X216728628Y-51273935D01*
X217204819Y-51035840D02*
X216204819Y-51035840D01*
X216204819Y-51035840D02*
X216204819Y-51416792D01*
X216204819Y-51416792D02*
X216252438Y-51512030D01*
X216252438Y-51512030D02*
X216300057Y-51559649D01*
X216300057Y-51559649D02*
X216395295Y-51607268D01*
X216395295Y-51607268D02*
X216538152Y-51607268D01*
X216538152Y-51607268D02*
X216633390Y-51559649D01*
X216633390Y-51559649D02*
X216681009Y-51512030D01*
X216681009Y-51512030D02*
X216728628Y-51416792D01*
X216728628Y-51416792D02*
X216728628Y-51035840D01*
X216538152Y-52464411D02*
X217204819Y-52464411D01*
X216157200Y-52226316D02*
X216871485Y-51988221D01*
X216871485Y-51988221D02*
X216871485Y-52607268D01*
X217204819Y-53512030D02*
X217204819Y-52940602D01*
X217204819Y-53226316D02*
X216204819Y-53226316D01*
X216204819Y-53226316D02*
X216347676Y-53131078D01*
X216347676Y-53131078D02*
X216442914Y-53035840D01*
X216442914Y-53035840D02*
X216490533Y-52940602D01*
X231246354Y-43834084D02*
X231246354Y-44643607D01*
X231246354Y-44643607D02*
X231198735Y-44738845D01*
X231198735Y-44738845D02*
X231151116Y-44786465D01*
X231151116Y-44786465D02*
X231055878Y-44834084D01*
X231055878Y-44834084D02*
X230865402Y-44834084D01*
X230865402Y-44834084D02*
X230770164Y-44786465D01*
X230770164Y-44786465D02*
X230722545Y-44738845D01*
X230722545Y-44738845D02*
X230674926Y-44643607D01*
X230674926Y-44643607D02*
X230674926Y-43834084D01*
X230055878Y-44262655D02*
X230151116Y-44215036D01*
X230151116Y-44215036D02*
X230198735Y-44167417D01*
X230198735Y-44167417D02*
X230246354Y-44072179D01*
X230246354Y-44072179D02*
X230246354Y-44024560D01*
X230246354Y-44024560D02*
X230198735Y-43929322D01*
X230198735Y-43929322D02*
X230151116Y-43881703D01*
X230151116Y-43881703D02*
X230055878Y-43834084D01*
X230055878Y-43834084D02*
X229865402Y-43834084D01*
X229865402Y-43834084D02*
X229770164Y-43881703D01*
X229770164Y-43881703D02*
X229722545Y-43929322D01*
X229722545Y-43929322D02*
X229674926Y-44024560D01*
X229674926Y-44024560D02*
X229674926Y-44072179D01*
X229674926Y-44072179D02*
X229722545Y-44167417D01*
X229722545Y-44167417D02*
X229770164Y-44215036D01*
X229770164Y-44215036D02*
X229865402Y-44262655D01*
X229865402Y-44262655D02*
X230055878Y-44262655D01*
X230055878Y-44262655D02*
X230151116Y-44310274D01*
X230151116Y-44310274D02*
X230198735Y-44357893D01*
X230198735Y-44357893D02*
X230246354Y-44453131D01*
X230246354Y-44453131D02*
X230246354Y-44643607D01*
X230246354Y-44643607D02*
X230198735Y-44738845D01*
X230198735Y-44738845D02*
X230151116Y-44786465D01*
X230151116Y-44786465D02*
X230055878Y-44834084D01*
X230055878Y-44834084D02*
X229865402Y-44834084D01*
X229865402Y-44834084D02*
X229770164Y-44786465D01*
X229770164Y-44786465D02*
X229722545Y-44738845D01*
X229722545Y-44738845D02*
X229674926Y-44643607D01*
X229674926Y-44643607D02*
X229674926Y-44453131D01*
X229674926Y-44453131D02*
X229722545Y-44357893D01*
X229722545Y-44357893D02*
X229770164Y-44310274D01*
X229770164Y-44310274D02*
X229865402Y-44262655D01*
X232184449Y-41434084D02*
X232184449Y-41672179D01*
X232422544Y-41576941D02*
X232184449Y-41672179D01*
X232184449Y-41672179D02*
X231946354Y-41576941D01*
X232327306Y-41862655D02*
X232184449Y-41672179D01*
X232184449Y-41672179D02*
X232041592Y-41862655D01*
X217454819Y-35357646D02*
X216978628Y-35024313D01*
X217454819Y-34786218D02*
X216454819Y-34786218D01*
X216454819Y-34786218D02*
X216454819Y-35167170D01*
X216454819Y-35167170D02*
X216502438Y-35262408D01*
X216502438Y-35262408D02*
X216550057Y-35310027D01*
X216550057Y-35310027D02*
X216645295Y-35357646D01*
X216645295Y-35357646D02*
X216788152Y-35357646D01*
X216788152Y-35357646D02*
X216883390Y-35310027D01*
X216883390Y-35310027D02*
X216931009Y-35262408D01*
X216931009Y-35262408D02*
X216978628Y-35167170D01*
X216978628Y-35167170D02*
X216978628Y-34786218D01*
X216788152Y-36214789D02*
X217454819Y-36214789D01*
X216407200Y-35976694D02*
X217121485Y-35738599D01*
X217121485Y-35738599D02*
X217121485Y-36357646D01*
X216454819Y-36929075D02*
X216454819Y-37024313D01*
X216454819Y-37024313D02*
X216502438Y-37119551D01*
X216502438Y-37119551D02*
X216550057Y-37167170D01*
X216550057Y-37167170D02*
X216645295Y-37214789D01*
X216645295Y-37214789D02*
X216835771Y-37262408D01*
X216835771Y-37262408D02*
X217073866Y-37262408D01*
X217073866Y-37262408D02*
X217264342Y-37214789D01*
X217264342Y-37214789D02*
X217359580Y-37167170D01*
X217359580Y-37167170D02*
X217407200Y-37119551D01*
X217407200Y-37119551D02*
X217454819Y-37024313D01*
X217454819Y-37024313D02*
X217454819Y-36929075D01*
X217454819Y-36929075D02*
X217407200Y-36833837D01*
X217407200Y-36833837D02*
X217359580Y-36786218D01*
X217359580Y-36786218D02*
X217264342Y-36738599D01*
X217264342Y-36738599D02*
X217073866Y-36690980D01*
X217073866Y-36690980D02*
X216835771Y-36690980D01*
X216835771Y-36690980D02*
X216645295Y-36738599D01*
X216645295Y-36738599D02*
X216550057Y-36786218D01*
X216550057Y-36786218D02*
X216502438Y-36833837D01*
X216502438Y-36833837D02*
X216454819Y-36929075D01*
X219355819Y-36333837D02*
X218879628Y-36000504D01*
X219355819Y-35762409D02*
X218355819Y-35762409D01*
X218355819Y-35762409D02*
X218355819Y-36143361D01*
X218355819Y-36143361D02*
X218403438Y-36238599D01*
X218403438Y-36238599D02*
X218451057Y-36286218D01*
X218451057Y-36286218D02*
X218546295Y-36333837D01*
X218546295Y-36333837D02*
X218689152Y-36333837D01*
X218689152Y-36333837D02*
X218784390Y-36286218D01*
X218784390Y-36286218D02*
X218832009Y-36238599D01*
X218832009Y-36238599D02*
X218879628Y-36143361D01*
X218879628Y-36143361D02*
X218879628Y-35762409D01*
X218355819Y-36667171D02*
X218355819Y-37333837D01*
X218355819Y-37333837D02*
X219355819Y-36905266D01*
X219105819Y-51583837D02*
X218629628Y-51250504D01*
X219105819Y-51012409D02*
X218105819Y-51012409D01*
X218105819Y-51012409D02*
X218105819Y-51393361D01*
X218105819Y-51393361D02*
X218153438Y-51488599D01*
X218153438Y-51488599D02*
X218201057Y-51536218D01*
X218201057Y-51536218D02*
X218296295Y-51583837D01*
X218296295Y-51583837D02*
X218439152Y-51583837D01*
X218439152Y-51583837D02*
X218534390Y-51536218D01*
X218534390Y-51536218D02*
X218582009Y-51488599D01*
X218582009Y-51488599D02*
X218629628Y-51393361D01*
X218629628Y-51393361D02*
X218629628Y-51012409D01*
X218105819Y-51917171D02*
X218105819Y-52536218D01*
X218105819Y-52536218D02*
X218486771Y-52202885D01*
X218486771Y-52202885D02*
X218486771Y-52345742D01*
X218486771Y-52345742D02*
X218534390Y-52440980D01*
X218534390Y-52440980D02*
X218582009Y-52488599D01*
X218582009Y-52488599D02*
X218677247Y-52536218D01*
X218677247Y-52536218D02*
X218915342Y-52536218D01*
X218915342Y-52536218D02*
X219010580Y-52488599D01*
X219010580Y-52488599D02*
X219058200Y-52440980D01*
X219058200Y-52440980D02*
X219105819Y-52345742D01*
X219105819Y-52345742D02*
X219105819Y-52060028D01*
X219105819Y-52060028D02*
X219058200Y-51964790D01*
X219058200Y-51964790D02*
X219010580Y-51917171D01*
X207054819Y-34257142D02*
X206578628Y-33923809D01*
X207054819Y-33685714D02*
X206054819Y-33685714D01*
X206054819Y-33685714D02*
X206054819Y-34066666D01*
X206054819Y-34066666D02*
X206102438Y-34161904D01*
X206102438Y-34161904D02*
X206150057Y-34209523D01*
X206150057Y-34209523D02*
X206245295Y-34257142D01*
X206245295Y-34257142D02*
X206388152Y-34257142D01*
X206388152Y-34257142D02*
X206483390Y-34209523D01*
X206483390Y-34209523D02*
X206531009Y-34161904D01*
X206531009Y-34161904D02*
X206578628Y-34066666D01*
X206578628Y-34066666D02*
X206578628Y-33685714D01*
X207054819Y-35209523D02*
X207054819Y-34638095D01*
X207054819Y-34923809D02*
X206054819Y-34923809D01*
X206054819Y-34923809D02*
X206197676Y-34828571D01*
X206197676Y-34828571D02*
X206292914Y-34733333D01*
X206292914Y-34733333D02*
X206340533Y-34638095D01*
X206054819Y-35542857D02*
X206054819Y-36209523D01*
X206054819Y-36209523D02*
X207054819Y-35780952D01*
X234367319Y-35486596D02*
X233891128Y-35153263D01*
X234367319Y-34915168D02*
X233367319Y-34915168D01*
X233367319Y-34915168D02*
X233367319Y-35296120D01*
X233367319Y-35296120D02*
X233414938Y-35391358D01*
X233414938Y-35391358D02*
X233462557Y-35438977D01*
X233462557Y-35438977D02*
X233557795Y-35486596D01*
X233557795Y-35486596D02*
X233700652Y-35486596D01*
X233700652Y-35486596D02*
X233795890Y-35438977D01*
X233795890Y-35438977D02*
X233843509Y-35391358D01*
X233843509Y-35391358D02*
X233891128Y-35296120D01*
X233891128Y-35296120D02*
X233891128Y-34915168D01*
X233462557Y-35867549D02*
X233414938Y-35915168D01*
X233414938Y-35915168D02*
X233367319Y-36010406D01*
X233367319Y-36010406D02*
X233367319Y-36248501D01*
X233367319Y-36248501D02*
X233414938Y-36343739D01*
X233414938Y-36343739D02*
X233462557Y-36391358D01*
X233462557Y-36391358D02*
X233557795Y-36438977D01*
X233557795Y-36438977D02*
X233653033Y-36438977D01*
X233653033Y-36438977D02*
X233795890Y-36391358D01*
X233795890Y-36391358D02*
X234367319Y-35819930D01*
X234367319Y-35819930D02*
X234367319Y-36438977D01*
X234367319Y-37391358D02*
X234367319Y-36819930D01*
X234367319Y-37105644D02*
X233367319Y-37105644D01*
X233367319Y-37105644D02*
X233510176Y-37010406D01*
X233510176Y-37010406D02*
X233605414Y-36915168D01*
X233605414Y-36915168D02*
X233653033Y-36819930D01*
X227763617Y-35486218D02*
X227287426Y-35152885D01*
X227763617Y-34914790D02*
X226763617Y-34914790D01*
X226763617Y-34914790D02*
X226763617Y-35295742D01*
X226763617Y-35295742D02*
X226811236Y-35390980D01*
X226811236Y-35390980D02*
X226858855Y-35438599D01*
X226858855Y-35438599D02*
X226954093Y-35486218D01*
X226954093Y-35486218D02*
X227096950Y-35486218D01*
X227096950Y-35486218D02*
X227192188Y-35438599D01*
X227192188Y-35438599D02*
X227239807Y-35390980D01*
X227239807Y-35390980D02*
X227287426Y-35295742D01*
X227287426Y-35295742D02*
X227287426Y-34914790D01*
X227763617Y-36438599D02*
X227763617Y-35867171D01*
X227763617Y-36152885D02*
X226763617Y-36152885D01*
X226763617Y-36152885D02*
X226906474Y-36057647D01*
X226906474Y-36057647D02*
X227001712Y-35962409D01*
X227001712Y-35962409D02*
X227049331Y-35867171D01*
X227192188Y-37010028D02*
X227144569Y-36914790D01*
X227144569Y-36914790D02*
X227096950Y-36867171D01*
X227096950Y-36867171D02*
X227001712Y-36819552D01*
X227001712Y-36819552D02*
X226954093Y-36819552D01*
X226954093Y-36819552D02*
X226858855Y-36867171D01*
X226858855Y-36867171D02*
X226811236Y-36914790D01*
X226811236Y-36914790D02*
X226763617Y-37010028D01*
X226763617Y-37010028D02*
X226763617Y-37200504D01*
X226763617Y-37200504D02*
X226811236Y-37295742D01*
X226811236Y-37295742D02*
X226858855Y-37343361D01*
X226858855Y-37343361D02*
X226954093Y-37390980D01*
X226954093Y-37390980D02*
X227001712Y-37390980D01*
X227001712Y-37390980D02*
X227096950Y-37343361D01*
X227096950Y-37343361D02*
X227144569Y-37295742D01*
X227144569Y-37295742D02*
X227192188Y-37200504D01*
X227192188Y-37200504D02*
X227192188Y-37010028D01*
X227192188Y-37010028D02*
X227239807Y-36914790D01*
X227239807Y-36914790D02*
X227287426Y-36867171D01*
X227287426Y-36867171D02*
X227382664Y-36819552D01*
X227382664Y-36819552D02*
X227573140Y-36819552D01*
X227573140Y-36819552D02*
X227668378Y-36867171D01*
X227668378Y-36867171D02*
X227715998Y-36914790D01*
X227715998Y-36914790D02*
X227763617Y-37010028D01*
X227763617Y-37010028D02*
X227763617Y-37200504D01*
X227763617Y-37200504D02*
X227715998Y-37295742D01*
X227715998Y-37295742D02*
X227668378Y-37343361D01*
X227668378Y-37343361D02*
X227573140Y-37390980D01*
X227573140Y-37390980D02*
X227382664Y-37390980D01*
X227382664Y-37390980D02*
X227287426Y-37343361D01*
X227287426Y-37343361D02*
X227239807Y-37295742D01*
X227239807Y-37295742D02*
X227192188Y-37200504D01*
X200554819Y-37433333D02*
X200078628Y-37100000D01*
X200554819Y-36861905D02*
X199554819Y-36861905D01*
X199554819Y-36861905D02*
X199554819Y-37242857D01*
X199554819Y-37242857D02*
X199602438Y-37338095D01*
X199602438Y-37338095D02*
X199650057Y-37385714D01*
X199650057Y-37385714D02*
X199745295Y-37433333D01*
X199745295Y-37433333D02*
X199888152Y-37433333D01*
X199888152Y-37433333D02*
X199983390Y-37385714D01*
X199983390Y-37385714D02*
X200031009Y-37338095D01*
X200031009Y-37338095D02*
X200078628Y-37242857D01*
X200078628Y-37242857D02*
X200078628Y-36861905D01*
X199650057Y-37814286D02*
X199602438Y-37861905D01*
X199602438Y-37861905D02*
X199554819Y-37957143D01*
X199554819Y-37957143D02*
X199554819Y-38195238D01*
X199554819Y-38195238D02*
X199602438Y-38290476D01*
X199602438Y-38290476D02*
X199650057Y-38338095D01*
X199650057Y-38338095D02*
X199745295Y-38385714D01*
X199745295Y-38385714D02*
X199840533Y-38385714D01*
X199840533Y-38385714D02*
X199983390Y-38338095D01*
X199983390Y-38338095D02*
X200554819Y-37766667D01*
X200554819Y-37766667D02*
X200554819Y-38385714D01*
X224105819Y-51583837D02*
X223629628Y-51250504D01*
X224105819Y-51012409D02*
X223105819Y-51012409D01*
X223105819Y-51012409D02*
X223105819Y-51393361D01*
X223105819Y-51393361D02*
X223153438Y-51488599D01*
X223153438Y-51488599D02*
X223201057Y-51536218D01*
X223201057Y-51536218D02*
X223296295Y-51583837D01*
X223296295Y-51583837D02*
X223439152Y-51583837D01*
X223439152Y-51583837D02*
X223534390Y-51536218D01*
X223534390Y-51536218D02*
X223582009Y-51488599D01*
X223582009Y-51488599D02*
X223629628Y-51393361D01*
X223629628Y-51393361D02*
X223629628Y-51012409D01*
X223105819Y-52488599D02*
X223105819Y-52012409D01*
X223105819Y-52012409D02*
X223582009Y-51964790D01*
X223582009Y-51964790D02*
X223534390Y-52012409D01*
X223534390Y-52012409D02*
X223486771Y-52107647D01*
X223486771Y-52107647D02*
X223486771Y-52345742D01*
X223486771Y-52345742D02*
X223534390Y-52440980D01*
X223534390Y-52440980D02*
X223582009Y-52488599D01*
X223582009Y-52488599D02*
X223677247Y-52536218D01*
X223677247Y-52536218D02*
X223915342Y-52536218D01*
X223915342Y-52536218D02*
X224010580Y-52488599D01*
X224010580Y-52488599D02*
X224058200Y-52440980D01*
X224058200Y-52440980D02*
X224105819Y-52345742D01*
X224105819Y-52345742D02*
X224105819Y-52107647D01*
X224105819Y-52107647D02*
X224058200Y-52012409D01*
X224058200Y-52012409D02*
X224010580Y-51964790D01*
X210954819Y-35607268D02*
X210478628Y-35273935D01*
X210954819Y-35035840D02*
X209954819Y-35035840D01*
X209954819Y-35035840D02*
X209954819Y-35416792D01*
X209954819Y-35416792D02*
X210002438Y-35512030D01*
X210002438Y-35512030D02*
X210050057Y-35559649D01*
X210050057Y-35559649D02*
X210145295Y-35607268D01*
X210145295Y-35607268D02*
X210288152Y-35607268D01*
X210288152Y-35607268D02*
X210383390Y-35559649D01*
X210383390Y-35559649D02*
X210431009Y-35512030D01*
X210431009Y-35512030D02*
X210478628Y-35416792D01*
X210478628Y-35416792D02*
X210478628Y-35035840D01*
X209954819Y-35940602D02*
X209954819Y-36559649D01*
X209954819Y-36559649D02*
X210335771Y-36226316D01*
X210335771Y-36226316D02*
X210335771Y-36369173D01*
X210335771Y-36369173D02*
X210383390Y-36464411D01*
X210383390Y-36464411D02*
X210431009Y-36512030D01*
X210431009Y-36512030D02*
X210526247Y-36559649D01*
X210526247Y-36559649D02*
X210764342Y-36559649D01*
X210764342Y-36559649D02*
X210859580Y-36512030D01*
X210859580Y-36512030D02*
X210907200Y-36464411D01*
X210907200Y-36464411D02*
X210954819Y-36369173D01*
X210954819Y-36369173D02*
X210954819Y-36083459D01*
X210954819Y-36083459D02*
X210907200Y-35988221D01*
X210907200Y-35988221D02*
X210859580Y-35940602D01*
X210288152Y-37416792D02*
X210954819Y-37416792D01*
X209907200Y-37178697D02*
X210621485Y-36940602D01*
X210621485Y-36940602D02*
X210621485Y-37559649D01*
X234117319Y-51736218D02*
X233641128Y-51402885D01*
X234117319Y-51164790D02*
X233117319Y-51164790D01*
X233117319Y-51164790D02*
X233117319Y-51545742D01*
X233117319Y-51545742D02*
X233164938Y-51640980D01*
X233164938Y-51640980D02*
X233212557Y-51688599D01*
X233212557Y-51688599D02*
X233307795Y-51736218D01*
X233307795Y-51736218D02*
X233450652Y-51736218D01*
X233450652Y-51736218D02*
X233545890Y-51688599D01*
X233545890Y-51688599D02*
X233593509Y-51640980D01*
X233593509Y-51640980D02*
X233641128Y-51545742D01*
X233641128Y-51545742D02*
X233641128Y-51164790D01*
X234117319Y-52688599D02*
X234117319Y-52117171D01*
X234117319Y-52402885D02*
X233117319Y-52402885D01*
X233117319Y-52402885D02*
X233260176Y-52307647D01*
X233260176Y-52307647D02*
X233355414Y-52212409D01*
X233355414Y-52212409D02*
X233403033Y-52117171D01*
X233450652Y-53545742D02*
X234117319Y-53545742D01*
X233069700Y-53307647D02*
X233783985Y-53069552D01*
X233783985Y-53069552D02*
X233783985Y-53688599D01*
X232617319Y-35486218D02*
X232141128Y-35152885D01*
X232617319Y-34914790D02*
X231617319Y-34914790D01*
X231617319Y-34914790D02*
X231617319Y-35295742D01*
X231617319Y-35295742D02*
X231664938Y-35390980D01*
X231664938Y-35390980D02*
X231712557Y-35438599D01*
X231712557Y-35438599D02*
X231807795Y-35486218D01*
X231807795Y-35486218D02*
X231950652Y-35486218D01*
X231950652Y-35486218D02*
X232045890Y-35438599D01*
X232045890Y-35438599D02*
X232093509Y-35390980D01*
X232093509Y-35390980D02*
X232141128Y-35295742D01*
X232141128Y-35295742D02*
X232141128Y-34914790D01*
X231712557Y-35867171D02*
X231664938Y-35914790D01*
X231664938Y-35914790D02*
X231617319Y-36010028D01*
X231617319Y-36010028D02*
X231617319Y-36248123D01*
X231617319Y-36248123D02*
X231664938Y-36343361D01*
X231664938Y-36343361D02*
X231712557Y-36390980D01*
X231712557Y-36390980D02*
X231807795Y-36438599D01*
X231807795Y-36438599D02*
X231903033Y-36438599D01*
X231903033Y-36438599D02*
X232045890Y-36390980D01*
X232045890Y-36390980D02*
X232617319Y-35819552D01*
X232617319Y-35819552D02*
X232617319Y-36438599D01*
X231617319Y-37057647D02*
X231617319Y-37152885D01*
X231617319Y-37152885D02*
X231664938Y-37248123D01*
X231664938Y-37248123D02*
X231712557Y-37295742D01*
X231712557Y-37295742D02*
X231807795Y-37343361D01*
X231807795Y-37343361D02*
X231998271Y-37390980D01*
X231998271Y-37390980D02*
X232236366Y-37390980D01*
X232236366Y-37390980D02*
X232426842Y-37343361D01*
X232426842Y-37343361D02*
X232522080Y-37295742D01*
X232522080Y-37295742D02*
X232569700Y-37248123D01*
X232569700Y-37248123D02*
X232617319Y-37152885D01*
X232617319Y-37152885D02*
X232617319Y-37057647D01*
X232617319Y-37057647D02*
X232569700Y-36962409D01*
X232569700Y-36962409D02*
X232522080Y-36914790D01*
X232522080Y-36914790D02*
X232426842Y-36867171D01*
X232426842Y-36867171D02*
X232236366Y-36819552D01*
X232236366Y-36819552D02*
X231998271Y-36819552D01*
X231998271Y-36819552D02*
X231807795Y-36867171D01*
X231807795Y-36867171D02*
X231712557Y-36914790D01*
X231712557Y-36914790D02*
X231664938Y-36962409D01*
X231664938Y-36962409D02*
X231617319Y-37057647D01*
X229117319Y-51736218D02*
X228641128Y-51402885D01*
X229117319Y-51164790D02*
X228117319Y-51164790D01*
X228117319Y-51164790D02*
X228117319Y-51545742D01*
X228117319Y-51545742D02*
X228164938Y-51640980D01*
X228164938Y-51640980D02*
X228212557Y-51688599D01*
X228212557Y-51688599D02*
X228307795Y-51736218D01*
X228307795Y-51736218D02*
X228450652Y-51736218D01*
X228450652Y-51736218D02*
X228545890Y-51688599D01*
X228545890Y-51688599D02*
X228593509Y-51640980D01*
X228593509Y-51640980D02*
X228641128Y-51545742D01*
X228641128Y-51545742D02*
X228641128Y-51164790D01*
X229117319Y-52688599D02*
X229117319Y-52117171D01*
X229117319Y-52402885D02*
X228117319Y-52402885D01*
X228117319Y-52402885D02*
X228260176Y-52307647D01*
X228260176Y-52307647D02*
X228355414Y-52212409D01*
X228355414Y-52212409D02*
X228403033Y-52117171D01*
X228212557Y-53069552D02*
X228164938Y-53117171D01*
X228164938Y-53117171D02*
X228117319Y-53212409D01*
X228117319Y-53212409D02*
X228117319Y-53450504D01*
X228117319Y-53450504D02*
X228164938Y-53545742D01*
X228164938Y-53545742D02*
X228212557Y-53593361D01*
X228212557Y-53593361D02*
X228307795Y-53640980D01*
X228307795Y-53640980D02*
X228403033Y-53640980D01*
X228403033Y-53640980D02*
X228545890Y-53593361D01*
X228545890Y-53593361D02*
X229117319Y-53021933D01*
X229117319Y-53021933D02*
X229117319Y-53640980D01*
D12*
X204729318Y-43906667D02*
X205636461Y-43906667D01*
X205636461Y-43906667D02*
X205817889Y-43846190D01*
X205817889Y-43846190D02*
X205938842Y-43725238D01*
X205938842Y-43725238D02*
X205999318Y-43543809D01*
X205999318Y-43543809D02*
X205999318Y-43422857D01*
X204729318Y-45055714D02*
X204729318Y-44813809D01*
X204729318Y-44813809D02*
X204789794Y-44692857D01*
X204789794Y-44692857D02*
X204850270Y-44632381D01*
X204850270Y-44632381D02*
X205031699Y-44511428D01*
X205031699Y-44511428D02*
X205273603Y-44450952D01*
X205273603Y-44450952D02*
X205757413Y-44450952D01*
X205757413Y-44450952D02*
X205878365Y-44511428D01*
X205878365Y-44511428D02*
X205938842Y-44571905D01*
X205938842Y-44571905D02*
X205999318Y-44692857D01*
X205999318Y-44692857D02*
X205999318Y-44934762D01*
X205999318Y-44934762D02*
X205938842Y-45055714D01*
X205938842Y-45055714D02*
X205878365Y-45116190D01*
X205878365Y-45116190D02*
X205757413Y-45176667D01*
X205757413Y-45176667D02*
X205455032Y-45176667D01*
X205455032Y-45176667D02*
X205334080Y-45116190D01*
X205334080Y-45116190D02*
X205273603Y-45055714D01*
X205273603Y-45055714D02*
X205213127Y-44934762D01*
X205213127Y-44934762D02*
X205213127Y-44692857D01*
X205213127Y-44692857D02*
X205273603Y-44571905D01*
X205273603Y-44571905D02*
X205334080Y-44511428D01*
X205334080Y-44511428D02*
X205455032Y-44450952D01*
D10*
X225605819Y-51583837D02*
X225129628Y-51250504D01*
X225605819Y-51012409D02*
X224605819Y-51012409D01*
X224605819Y-51012409D02*
X224605819Y-51393361D01*
X224605819Y-51393361D02*
X224653438Y-51488599D01*
X224653438Y-51488599D02*
X224701057Y-51536218D01*
X224701057Y-51536218D02*
X224796295Y-51583837D01*
X224796295Y-51583837D02*
X224939152Y-51583837D01*
X224939152Y-51583837D02*
X225034390Y-51536218D01*
X225034390Y-51536218D02*
X225082009Y-51488599D01*
X225082009Y-51488599D02*
X225129628Y-51393361D01*
X225129628Y-51393361D02*
X225129628Y-51012409D01*
X224605819Y-52440980D02*
X224605819Y-52250504D01*
X224605819Y-52250504D02*
X224653438Y-52155266D01*
X224653438Y-52155266D02*
X224701057Y-52107647D01*
X224701057Y-52107647D02*
X224843914Y-52012409D01*
X224843914Y-52012409D02*
X225034390Y-51964790D01*
X225034390Y-51964790D02*
X225415342Y-51964790D01*
X225415342Y-51964790D02*
X225510580Y-52012409D01*
X225510580Y-52012409D02*
X225558200Y-52060028D01*
X225558200Y-52060028D02*
X225605819Y-52155266D01*
X225605819Y-52155266D02*
X225605819Y-52345742D01*
X225605819Y-52345742D02*
X225558200Y-52440980D01*
X225558200Y-52440980D02*
X225510580Y-52488599D01*
X225510580Y-52488599D02*
X225415342Y-52536218D01*
X225415342Y-52536218D02*
X225177247Y-52536218D01*
X225177247Y-52536218D02*
X225082009Y-52488599D01*
X225082009Y-52488599D02*
X225034390Y-52440980D01*
X225034390Y-52440980D02*
X224986771Y-52345742D01*
X224986771Y-52345742D02*
X224986771Y-52155266D01*
X224986771Y-52155266D02*
X225034390Y-52060028D01*
X225034390Y-52060028D02*
X225082009Y-52012409D01*
X225082009Y-52012409D02*
X225177247Y-51964790D01*
X213945680Y-36333459D02*
X213993300Y-36285840D01*
X213993300Y-36285840D02*
X214040919Y-36142983D01*
X214040919Y-36142983D02*
X214040919Y-36047745D01*
X214040919Y-36047745D02*
X213993300Y-35904888D01*
X213993300Y-35904888D02*
X213898061Y-35809650D01*
X213898061Y-35809650D02*
X213802823Y-35762031D01*
X213802823Y-35762031D02*
X213612347Y-35714412D01*
X213612347Y-35714412D02*
X213469490Y-35714412D01*
X213469490Y-35714412D02*
X213279014Y-35762031D01*
X213279014Y-35762031D02*
X213183776Y-35809650D01*
X213183776Y-35809650D02*
X213088538Y-35904888D01*
X213088538Y-35904888D02*
X213040919Y-36047745D01*
X213040919Y-36047745D02*
X213040919Y-36142983D01*
X213040919Y-36142983D02*
X213088538Y-36285840D01*
X213088538Y-36285840D02*
X213136157Y-36333459D01*
X213040919Y-36666793D02*
X213040919Y-37285840D01*
X213040919Y-37285840D02*
X213421871Y-36952507D01*
X213421871Y-36952507D02*
X213421871Y-37095364D01*
X213421871Y-37095364D02*
X213469490Y-37190602D01*
X213469490Y-37190602D02*
X213517109Y-37238221D01*
X213517109Y-37238221D02*
X213612347Y-37285840D01*
X213612347Y-37285840D02*
X213850442Y-37285840D01*
X213850442Y-37285840D02*
X213945680Y-37238221D01*
X213945680Y-37238221D02*
X213993300Y-37190602D01*
X213993300Y-37190602D02*
X214040919Y-37095364D01*
X214040919Y-37095364D02*
X214040919Y-36809650D01*
X214040919Y-36809650D02*
X213993300Y-36714412D01*
X213993300Y-36714412D02*
X213945680Y-36666793D01*
X214376904Y-43705134D02*
X214376904Y-44514657D01*
X214376904Y-44514657D02*
X214329285Y-44609895D01*
X214329285Y-44609895D02*
X214281666Y-44657515D01*
X214281666Y-44657515D02*
X214186428Y-44705134D01*
X214186428Y-44705134D02*
X213995952Y-44705134D01*
X213995952Y-44705134D02*
X213900714Y-44657515D01*
X213900714Y-44657515D02*
X213853095Y-44609895D01*
X213853095Y-44609895D02*
X213805476Y-44514657D01*
X213805476Y-44514657D02*
X213805476Y-43705134D01*
X213376904Y-43800372D02*
X213329285Y-43752753D01*
X213329285Y-43752753D02*
X213234047Y-43705134D01*
X213234047Y-43705134D02*
X212995952Y-43705134D01*
X212995952Y-43705134D02*
X212900714Y-43752753D01*
X212900714Y-43752753D02*
X212853095Y-43800372D01*
X212853095Y-43800372D02*
X212805476Y-43895610D01*
X212805476Y-43895610D02*
X212805476Y-43990848D01*
X212805476Y-43990848D02*
X212853095Y-44133705D01*
X212853095Y-44133705D02*
X213424523Y-44705134D01*
X213424523Y-44705134D02*
X212805476Y-44705134D01*
X215314999Y-41305134D02*
X215314999Y-41543229D01*
X215553094Y-41447991D02*
X215314999Y-41543229D01*
X215314999Y-41543229D02*
X215076904Y-41447991D01*
X215457856Y-41733705D02*
X215314999Y-41543229D01*
X215314999Y-41543229D02*
X215172142Y-41733705D01*
X220605819Y-51583837D02*
X220129628Y-51250504D01*
X220605819Y-51012409D02*
X219605819Y-51012409D01*
X219605819Y-51012409D02*
X219605819Y-51393361D01*
X219605819Y-51393361D02*
X219653438Y-51488599D01*
X219653438Y-51488599D02*
X219701057Y-51536218D01*
X219701057Y-51536218D02*
X219796295Y-51583837D01*
X219796295Y-51583837D02*
X219939152Y-51583837D01*
X219939152Y-51583837D02*
X220034390Y-51536218D01*
X220034390Y-51536218D02*
X220082009Y-51488599D01*
X220082009Y-51488599D02*
X220129628Y-51393361D01*
X220129628Y-51393361D02*
X220129628Y-51012409D01*
X219939152Y-52440980D02*
X220605819Y-52440980D01*
X219558200Y-52202885D02*
X220272485Y-51964790D01*
X220272485Y-51964790D02*
X220272485Y-52583837D01*
X222260580Y-36333837D02*
X222308200Y-36286218D01*
X222308200Y-36286218D02*
X222355819Y-36143361D01*
X222355819Y-36143361D02*
X222355819Y-36048123D01*
X222355819Y-36048123D02*
X222308200Y-35905266D01*
X222308200Y-35905266D02*
X222212961Y-35810028D01*
X222212961Y-35810028D02*
X222117723Y-35762409D01*
X222117723Y-35762409D02*
X221927247Y-35714790D01*
X221927247Y-35714790D02*
X221784390Y-35714790D01*
X221784390Y-35714790D02*
X221593914Y-35762409D01*
X221593914Y-35762409D02*
X221498676Y-35810028D01*
X221498676Y-35810028D02*
X221403438Y-35905266D01*
X221403438Y-35905266D02*
X221355819Y-36048123D01*
X221355819Y-36048123D02*
X221355819Y-36143361D01*
X221355819Y-36143361D02*
X221403438Y-36286218D01*
X221403438Y-36286218D02*
X221451057Y-36333837D01*
X221689152Y-37190980D02*
X222355819Y-37190980D01*
X221308200Y-36952885D02*
X222022485Y-36714790D01*
X222022485Y-36714790D02*
X222022485Y-37333837D01*
X230918378Y-36462409D02*
X230965998Y-36414790D01*
X230965998Y-36414790D02*
X231013617Y-36271933D01*
X231013617Y-36271933D02*
X231013617Y-36176695D01*
X231013617Y-36176695D02*
X230965998Y-36033838D01*
X230965998Y-36033838D02*
X230870759Y-35938600D01*
X230870759Y-35938600D02*
X230775521Y-35890981D01*
X230775521Y-35890981D02*
X230585045Y-35843362D01*
X230585045Y-35843362D02*
X230442188Y-35843362D01*
X230442188Y-35843362D02*
X230251712Y-35890981D01*
X230251712Y-35890981D02*
X230156474Y-35938600D01*
X230156474Y-35938600D02*
X230061236Y-36033838D01*
X230061236Y-36033838D02*
X230013617Y-36176695D01*
X230013617Y-36176695D02*
X230013617Y-36271933D01*
X230013617Y-36271933D02*
X230061236Y-36414790D01*
X230061236Y-36414790D02*
X230108855Y-36462409D01*
X230013617Y-37367171D02*
X230013617Y-36890981D01*
X230013617Y-36890981D02*
X230489807Y-36843362D01*
X230489807Y-36843362D02*
X230442188Y-36890981D01*
X230442188Y-36890981D02*
X230394569Y-36986219D01*
X230394569Y-36986219D02*
X230394569Y-37224314D01*
X230394569Y-37224314D02*
X230442188Y-37319552D01*
X230442188Y-37319552D02*
X230489807Y-37367171D01*
X230489807Y-37367171D02*
X230585045Y-37414790D01*
X230585045Y-37414790D02*
X230823140Y-37414790D01*
X230823140Y-37414790D02*
X230918378Y-37367171D01*
X230918378Y-37367171D02*
X230965998Y-37319552D01*
X230965998Y-37319552D02*
X231013617Y-37224314D01*
X231013617Y-37224314D02*
X231013617Y-36986219D01*
X231013617Y-36986219D02*
X230965998Y-36890981D01*
X230965998Y-36890981D02*
X230918378Y-36843362D01*
X212454819Y-35607268D02*
X211978628Y-35273935D01*
X212454819Y-35035840D02*
X211454819Y-35035840D01*
X211454819Y-35035840D02*
X211454819Y-35416792D01*
X211454819Y-35416792D02*
X211502438Y-35512030D01*
X211502438Y-35512030D02*
X211550057Y-35559649D01*
X211550057Y-35559649D02*
X211645295Y-35607268D01*
X211645295Y-35607268D02*
X211788152Y-35607268D01*
X211788152Y-35607268D02*
X211883390Y-35559649D01*
X211883390Y-35559649D02*
X211931009Y-35512030D01*
X211931009Y-35512030D02*
X211978628Y-35416792D01*
X211978628Y-35416792D02*
X211978628Y-35035840D01*
X211454819Y-35940602D02*
X211454819Y-36559649D01*
X211454819Y-36559649D02*
X211835771Y-36226316D01*
X211835771Y-36226316D02*
X211835771Y-36369173D01*
X211835771Y-36369173D02*
X211883390Y-36464411D01*
X211883390Y-36464411D02*
X211931009Y-36512030D01*
X211931009Y-36512030D02*
X212026247Y-36559649D01*
X212026247Y-36559649D02*
X212264342Y-36559649D01*
X212264342Y-36559649D02*
X212359580Y-36512030D01*
X212359580Y-36512030D02*
X212407200Y-36464411D01*
X212407200Y-36464411D02*
X212454819Y-36369173D01*
X212454819Y-36369173D02*
X212454819Y-36083459D01*
X212454819Y-36083459D02*
X212407200Y-35988221D01*
X212407200Y-35988221D02*
X212359580Y-35940602D01*
X211454819Y-37416792D02*
X211454819Y-37226316D01*
X211454819Y-37226316D02*
X211502438Y-37131078D01*
X211502438Y-37131078D02*
X211550057Y-37083459D01*
X211550057Y-37083459D02*
X211692914Y-36988221D01*
X211692914Y-36988221D02*
X211883390Y-36940602D01*
X211883390Y-36940602D02*
X212264342Y-36940602D01*
X212264342Y-36940602D02*
X212359580Y-36988221D01*
X212359580Y-36988221D02*
X212407200Y-37035840D01*
X212407200Y-37035840D02*
X212454819Y-37131078D01*
X212454819Y-37131078D02*
X212454819Y-37321554D01*
X212454819Y-37321554D02*
X212407200Y-37416792D01*
X212407200Y-37416792D02*
X212359580Y-37464411D01*
X212359580Y-37464411D02*
X212264342Y-37512030D01*
X212264342Y-37512030D02*
X212026247Y-37512030D01*
X212026247Y-37512030D02*
X211931009Y-37464411D01*
X211931009Y-37464411D02*
X211883390Y-37416792D01*
X211883390Y-37416792D02*
X211835771Y-37321554D01*
X211835771Y-37321554D02*
X211835771Y-37131078D01*
X211835771Y-37131078D02*
X211883390Y-37035840D01*
X211883390Y-37035840D02*
X211931009Y-36988221D01*
X211931009Y-36988221D02*
X212026247Y-36940602D01*
X222705954Y-43705134D02*
X222705954Y-44514657D01*
X222705954Y-44514657D02*
X222658335Y-44609895D01*
X222658335Y-44609895D02*
X222610716Y-44657515D01*
X222610716Y-44657515D02*
X222515478Y-44705134D01*
X222515478Y-44705134D02*
X222325002Y-44705134D01*
X222325002Y-44705134D02*
X222229764Y-44657515D01*
X222229764Y-44657515D02*
X222182145Y-44609895D01*
X222182145Y-44609895D02*
X222134526Y-44514657D01*
X222134526Y-44514657D02*
X222134526Y-43705134D01*
X221229764Y-44038467D02*
X221229764Y-44705134D01*
X221467859Y-43657515D02*
X221705954Y-44371800D01*
X221705954Y-44371800D02*
X221086907Y-44371800D01*
X223644049Y-41305134D02*
X223644049Y-41543229D01*
X223882144Y-41447991D02*
X223644049Y-41543229D01*
X223644049Y-41543229D02*
X223405954Y-41447991D01*
X223786906Y-41733705D02*
X223644049Y-41543229D01*
X223644049Y-41543229D02*
X223501192Y-41733705D01*
X220855819Y-36333837D02*
X220379628Y-36000504D01*
X220855819Y-35762409D02*
X219855819Y-35762409D01*
X219855819Y-35762409D02*
X219855819Y-36143361D01*
X219855819Y-36143361D02*
X219903438Y-36238599D01*
X219903438Y-36238599D02*
X219951057Y-36286218D01*
X219951057Y-36286218D02*
X220046295Y-36333837D01*
X220046295Y-36333837D02*
X220189152Y-36333837D01*
X220189152Y-36333837D02*
X220284390Y-36286218D01*
X220284390Y-36286218D02*
X220332009Y-36238599D01*
X220332009Y-36238599D02*
X220379628Y-36143361D01*
X220379628Y-36143361D02*
X220379628Y-35762409D01*
X220284390Y-36905266D02*
X220236771Y-36810028D01*
X220236771Y-36810028D02*
X220189152Y-36762409D01*
X220189152Y-36762409D02*
X220093914Y-36714790D01*
X220093914Y-36714790D02*
X220046295Y-36714790D01*
X220046295Y-36714790D02*
X219951057Y-36762409D01*
X219951057Y-36762409D02*
X219903438Y-36810028D01*
X219903438Y-36810028D02*
X219855819Y-36905266D01*
X219855819Y-36905266D02*
X219855819Y-37095742D01*
X219855819Y-37095742D02*
X219903438Y-37190980D01*
X219903438Y-37190980D02*
X219951057Y-37238599D01*
X219951057Y-37238599D02*
X220046295Y-37286218D01*
X220046295Y-37286218D02*
X220093914Y-37286218D01*
X220093914Y-37286218D02*
X220189152Y-37238599D01*
X220189152Y-37238599D02*
X220236771Y-37190980D01*
X220236771Y-37190980D02*
X220284390Y-37095742D01*
X220284390Y-37095742D02*
X220284390Y-36905266D01*
X220284390Y-36905266D02*
X220332009Y-36810028D01*
X220332009Y-36810028D02*
X220379628Y-36762409D01*
X220379628Y-36762409D02*
X220474866Y-36714790D01*
X220474866Y-36714790D02*
X220665342Y-36714790D01*
X220665342Y-36714790D02*
X220760580Y-36762409D01*
X220760580Y-36762409D02*
X220808200Y-36810028D01*
X220808200Y-36810028D02*
X220855819Y-36905266D01*
X220855819Y-36905266D02*
X220855819Y-37095742D01*
X220855819Y-37095742D02*
X220808200Y-37190980D01*
X220808200Y-37190980D02*
X220760580Y-37238599D01*
X220760580Y-37238599D02*
X220665342Y-37286218D01*
X220665342Y-37286218D02*
X220474866Y-37286218D01*
X220474866Y-37286218D02*
X220379628Y-37238599D01*
X220379628Y-37238599D02*
X220332009Y-37190980D01*
X220332009Y-37190980D02*
X220284390Y-37095742D01*
D13*
%TO.C,R16*%
X202477500Y-34745276D02*
X202477500Y-35254724D01*
X203522500Y-34745276D02*
X203522500Y-35254724D01*
%TO.C,R13*%
X231640000Y-49124226D02*
X231640000Y-49633674D01*
X232685000Y-49124226D02*
X232685000Y-49633674D01*
%TO.C,C2*%
X202565000Y-31288733D02*
X202565000Y-31581267D01*
X203585000Y-31288733D02*
X203585000Y-31581267D01*
%TO.C,R38*%
X214477500Y-39245276D02*
X214477500Y-39754724D01*
X215522500Y-39245276D02*
X215522500Y-39754724D01*
%TO.C,R11*%
X226640000Y-49124226D02*
X226640000Y-49633674D01*
X227685000Y-49124226D02*
X227685000Y-49633674D01*
%TO.C,R19*%
X228140000Y-39495276D02*
X228140000Y-40004724D01*
X229185000Y-39495276D02*
X229185000Y-40004724D01*
%TO.C,R9*%
X222878500Y-39245276D02*
X222878500Y-39754724D01*
X223923500Y-39245276D02*
X223923500Y-39754724D01*
%TO.C,R15*%
X197477500Y-34245276D02*
X197477500Y-34754724D01*
X198522500Y-34245276D02*
X198522500Y-34754724D01*
%TO.C,R41*%
X216227500Y-48995276D02*
X216227500Y-49504724D01*
X217272500Y-48995276D02*
X217272500Y-49504724D01*
D14*
%TO.C,U8*%
X229303350Y-42105965D02*
X231665550Y-42105965D01*
X231665550Y-46652565D02*
X229303350Y-46652565D01*
D15*
G36*
X228198450Y-45820080D02*
G01*
X227944450Y-45820080D01*
X227944450Y-45439080D01*
X228198450Y-45439080D01*
X228198450Y-45820080D01*
G37*
D13*
%TO.C,R40*%
X216227500Y-39245276D02*
X216227500Y-39754724D01*
X217272500Y-39245276D02*
X217272500Y-39754724D01*
%TO.C,R7*%
X218128500Y-39366326D02*
X218128500Y-39875774D01*
X219173500Y-39366326D02*
X219173500Y-39875774D01*
%TO.C,R3*%
X218128500Y-48995276D02*
X218128500Y-49504724D01*
X219173500Y-48995276D02*
X219173500Y-49504724D01*
%TO.C,R17*%
X204227500Y-35254724D02*
X204227500Y-34745276D01*
X205272500Y-35254724D02*
X205272500Y-34745276D01*
%TO.C,R21*%
X233140000Y-39374226D02*
X233140000Y-39883674D01*
X234185000Y-39374226D02*
X234185000Y-39883674D01*
%TO.C,R18*%
X226640000Y-39495276D02*
X226640000Y-40004724D01*
X227685000Y-39495276D02*
X227685000Y-40004724D01*
%TO.C,R2*%
X199477500Y-34754724D02*
X199477500Y-34245276D01*
X200522500Y-34754724D02*
X200522500Y-34245276D01*
%TO.C,R5*%
X223128500Y-48995276D02*
X223128500Y-49504724D01*
X224173500Y-48995276D02*
X224173500Y-49504724D01*
%TO.C,R34*%
X209727500Y-39366326D02*
X209727500Y-39875774D01*
X210772500Y-39366326D02*
X210772500Y-39875774D01*
%TO.C,R14*%
X233140000Y-49124226D02*
X233140000Y-49633674D01*
X234185000Y-49124226D02*
X234185000Y-49633674D01*
%TO.C,R20*%
X231390000Y-39374226D02*
X231390000Y-39883674D01*
X232435000Y-39374226D02*
X232435000Y-39883674D01*
%TO.C,R12*%
X228140000Y-49124226D02*
X228140000Y-49633674D01*
X229185000Y-49124226D02*
X229185000Y-49633674D01*
%TO.C,R35*%
X209727500Y-48995276D02*
X209727500Y-49504724D01*
X210772500Y-48995276D02*
X210772500Y-49504724D01*
D16*
%TO.C,J6*%
X202425000Y-39830000D02*
X202425000Y-39830000D01*
X202425000Y-39930000D02*
X202425000Y-39930000D01*
X202425000Y-39930000D02*
X202425000Y-39930000D01*
D11*
X204225000Y-38730000D02*
X204225000Y-38730000D01*
X204225000Y-38730000D02*
X204225000Y-38730000D01*
X204225000Y-38730000D02*
X204225000Y-39080000D01*
X204225000Y-38730000D02*
X206075000Y-38730000D01*
X204225000Y-39080000D02*
X204225000Y-38730000D01*
X204225000Y-39080000D02*
X204225000Y-39080000D01*
X204225000Y-49580000D02*
X204225000Y-49580000D01*
X204225000Y-49580000D02*
X204225000Y-49930000D01*
X204225000Y-49930000D02*
X204225000Y-49580000D01*
X204225000Y-49930000D02*
X204225000Y-49930000D01*
X204225000Y-49930000D02*
X204225000Y-49930000D01*
X204225000Y-49930000D02*
X206075000Y-49930000D01*
X206075000Y-38730000D02*
X204225000Y-38730000D01*
X206075000Y-38730000D02*
X206075000Y-38730000D01*
X206075000Y-49930000D02*
X204225000Y-49930000D01*
X206075000Y-49930000D02*
X206075000Y-49930000D01*
D16*
X202425000Y-39830000D02*
G75*
G02*
X202425000Y-39930000I0J-50000D01*
G01*
X202425000Y-39930000D02*
G75*
G02*
X202425000Y-39830000I0J50000D01*
G01*
X202425000Y-39930000D02*
G75*
G02*
X202425000Y-39830000I0J50000D01*
G01*
D13*
%TO.C,R6*%
X224628500Y-48995276D02*
X224628500Y-49504724D01*
X225673500Y-48995276D02*
X225673500Y-49504724D01*
%TO.C,R37*%
X211227500Y-48995276D02*
X211227500Y-49504724D01*
X212272500Y-48995276D02*
X212272500Y-49504724D01*
%TO.C,C3*%
X212826100Y-39353859D02*
X212826100Y-39646393D01*
X213846100Y-39353859D02*
X213846100Y-39646393D01*
%TO.C,R39*%
X214727500Y-48995276D02*
X214727500Y-49504724D01*
X215772500Y-48995276D02*
X215772500Y-49504724D01*
D14*
%TO.C,U2*%
X212433900Y-41977015D02*
X214796100Y-41977015D01*
X214796100Y-46523615D02*
X212433900Y-46523615D01*
D15*
G36*
X211329000Y-45691130D02*
G01*
X211075000Y-45691130D01*
X211075000Y-45310130D01*
X211329000Y-45310130D01*
X211329000Y-45691130D01*
G37*
D13*
%TO.C,R4*%
X219628500Y-48995276D02*
X219628500Y-49504724D01*
X220673500Y-48995276D02*
X220673500Y-49504724D01*
%TO.C,R10*%
X224628500Y-39245276D02*
X224628500Y-39754724D01*
X225673500Y-39245276D02*
X225673500Y-39754724D01*
%TO.C,C4*%
X221391000Y-39354237D02*
X221391000Y-39646771D01*
X222411000Y-39354237D02*
X222411000Y-39646771D01*
%TO.C,C5*%
X229798798Y-39482809D02*
X229798798Y-39775343D01*
X230818798Y-39482809D02*
X230818798Y-39775343D01*
%TO.C,R36*%
X211227500Y-39366326D02*
X211227500Y-39875774D01*
X212272500Y-39366326D02*
X212272500Y-39875774D01*
D14*
%TO.C,U4*%
X220762950Y-41977015D02*
X223125150Y-41977015D01*
X223125150Y-46523615D02*
X220762950Y-46523615D01*
D15*
G36*
X219658050Y-45691130D02*
G01*
X219404050Y-45691130D01*
X219404050Y-45310130D01*
X219658050Y-45310130D01*
X219658050Y-45691130D01*
G37*
D13*
%TO.C,R8*%
X219628500Y-39366326D02*
X219628500Y-39875774D01*
X220673500Y-39366326D02*
X220673500Y-39875774D01*
%TD*%
%LPC*%
D17*
%TO.C,J1*%
X214210000Y-53100000D03*
D18*
X211670000Y-53100000D03*
X209130000Y-53100000D03*
X206590000Y-53100000D03*
%TD*%
D19*
%TO.C,BATT_HALL_OUT1*%
X210250000Y-32750000D03*
%TD*%
%TO.C,SUPP_BATT_SNS1*%
X195500000Y-30500000D03*
%TD*%
%TO.C,BATT_HALL_IN1*%
X195250000Y-46000000D03*
%TD*%
D20*
%TO.C,H2*%
X197025000Y-51365000D03*
D21*
X197025000Y-51365000D03*
%TD*%
D19*
%TO.C,GND1*%
X203000000Y-53000000D03*
%TD*%
%TO.C,REG_HALL_IN1*%
X195250000Y-39500000D03*
%TD*%
%TO.C,SUPP_REG1*%
X195300000Y-36300000D03*
%TD*%
D20*
%TO.C,H1*%
X231725000Y-28275000D03*
D21*
X231725000Y-28275000D03*
%TD*%
D19*
%TO.C,SUPP_BATT1*%
X195250000Y-42750000D03*
%TD*%
%TO.C,REG_HALL_OUT1*%
X225250000Y-35000000D03*
%TD*%
%TO.C,TP_3V3*%
X230500000Y-52500000D03*
%TD*%
%TO.C,SUPP_REG_SNS1*%
X204750000Y-28000000D03*
%TD*%
D22*
%TO.C,R16*%
X203000000Y-34087500D03*
X203000000Y-35912500D03*
%TD*%
%TO.C,R13*%
X232162500Y-48466450D03*
X232162500Y-50291450D03*
%TD*%
D23*
%TO.C,C2*%
X203075000Y-30572500D03*
X203075000Y-32297500D03*
%TD*%
D22*
%TO.C,R38*%
X215000000Y-38587500D03*
X215000000Y-40412500D03*
%TD*%
%TO.C,R11*%
X227162500Y-48466450D03*
X227162500Y-50291450D03*
%TD*%
%TO.C,R19*%
X228662500Y-38837500D03*
X228662500Y-40662500D03*
%TD*%
%TO.C,R9*%
X223401000Y-38587500D03*
X223401000Y-40412500D03*
%TD*%
%TO.C,R15*%
X198000000Y-33587500D03*
X198000000Y-35412500D03*
%TD*%
%TO.C,R41*%
X216750000Y-48337500D03*
X216750000Y-50162500D03*
%TD*%
D24*
%TO.C,U8*%
X232027500Y-42628824D03*
X232027500Y-43128950D03*
X232027500Y-43629076D03*
X232027500Y-44129202D03*
X232027500Y-44629328D03*
X232027500Y-45129454D03*
X232027500Y-45629580D03*
X232027500Y-46129706D03*
X228941400Y-46129706D03*
X228941400Y-45629580D03*
X228941400Y-45129454D03*
X228941400Y-44629328D03*
X228941400Y-44129202D03*
X228941400Y-43629076D03*
X228941400Y-43128950D03*
X228941400Y-42628824D03*
%TD*%
D22*
%TO.C,R40*%
X216750000Y-38587500D03*
X216750000Y-40412500D03*
%TD*%
%TO.C,R7*%
X218651000Y-38708550D03*
X218651000Y-40533550D03*
%TD*%
%TO.C,R3*%
X218651000Y-48337500D03*
X218651000Y-50162500D03*
%TD*%
D25*
%TO.C,R17*%
X204750000Y-35912500D03*
X204750000Y-34087500D03*
%TD*%
D22*
%TO.C,R21*%
X233662500Y-38716450D03*
X233662500Y-40541450D03*
%TD*%
%TO.C,R18*%
X227162500Y-38837500D03*
X227162500Y-40662500D03*
%TD*%
D25*
%TO.C,R2*%
X200000000Y-35412500D03*
X200000000Y-33587500D03*
%TD*%
D22*
%TO.C,R5*%
X223651000Y-48337500D03*
X223651000Y-50162500D03*
%TD*%
%TO.C,R34*%
X210250000Y-38708550D03*
X210250000Y-40533550D03*
%TD*%
%TO.C,R14*%
X233662500Y-48466450D03*
X233662500Y-50291450D03*
%TD*%
%TO.C,R20*%
X231912500Y-38716450D03*
X231912500Y-40541450D03*
%TD*%
%TO.C,R12*%
X228662500Y-48466450D03*
X228662500Y-50291450D03*
%TD*%
%TO.C,R35*%
X210250000Y-48337500D03*
X210250000Y-50162500D03*
%TD*%
D26*
%TO.C,J6*%
X207125000Y-49630000D03*
X207125000Y-39030000D03*
D27*
X203925000Y-39930000D03*
X207725000Y-39930000D03*
X203925000Y-40730000D03*
X207725000Y-40730000D03*
X203925000Y-41530000D03*
X207725000Y-41530000D03*
X203925000Y-42330000D03*
X207725000Y-42330000D03*
X203925000Y-43130000D03*
X207725000Y-43130000D03*
X203925000Y-43930000D03*
X207725000Y-43930000D03*
X203925000Y-44730000D03*
X207725000Y-44730000D03*
X203925000Y-45530000D03*
X207725000Y-45530000D03*
X203925000Y-46330000D03*
X207725000Y-46330000D03*
X203925000Y-47130000D03*
X207725000Y-47130000D03*
X203925000Y-47930000D03*
X207725000Y-47930000D03*
X203925000Y-48730000D03*
X207725000Y-48730000D03*
%TD*%
D22*
%TO.C,R6*%
X225151000Y-48337500D03*
X225151000Y-50162500D03*
%TD*%
%TO.C,R37*%
X211750000Y-48337500D03*
X211750000Y-50162500D03*
%TD*%
D23*
%TO.C,C3*%
X213336100Y-38637626D03*
X213336100Y-40362626D03*
%TD*%
D22*
%TO.C,R39*%
X215250000Y-48337500D03*
X215250000Y-50162500D03*
%TD*%
D24*
%TO.C,U2*%
X215158050Y-42499874D03*
X215158050Y-43000000D03*
X215158050Y-43500126D03*
X215158050Y-44000252D03*
X215158050Y-44500378D03*
X215158050Y-45000504D03*
X215158050Y-45500630D03*
X215158050Y-46000756D03*
X212071950Y-46000756D03*
X212071950Y-45500630D03*
X212071950Y-45000504D03*
X212071950Y-44500378D03*
X212071950Y-44000252D03*
X212071950Y-43500126D03*
X212071950Y-43000000D03*
X212071950Y-42499874D03*
%TD*%
D22*
%TO.C,R4*%
X220151000Y-48337500D03*
X220151000Y-50162500D03*
%TD*%
%TO.C,R10*%
X225151000Y-38587500D03*
X225151000Y-40412500D03*
%TD*%
D23*
%TO.C,C4*%
X221901000Y-38638004D03*
X221901000Y-40363004D03*
%TD*%
%TO.C,C5*%
X230308798Y-38766576D03*
X230308798Y-40491576D03*
%TD*%
D22*
%TO.C,R36*%
X211750000Y-38708550D03*
X211750000Y-40533550D03*
%TD*%
D24*
%TO.C,U4*%
X223487100Y-42499874D03*
X223487100Y-43000000D03*
X223487100Y-43500126D03*
X223487100Y-44000252D03*
X223487100Y-44500378D03*
X223487100Y-45000504D03*
X223487100Y-45500630D03*
X223487100Y-46000756D03*
X220401000Y-46000756D03*
X220401000Y-45500630D03*
X220401000Y-45000504D03*
X220401000Y-44500378D03*
X220401000Y-44000252D03*
X220401000Y-43500126D03*
X220401000Y-43000000D03*
X220401000Y-42499874D03*
%TD*%
D22*
%TO.C,R8*%
X220151000Y-38708550D03*
X220151000Y-40533550D03*
%TD*%
%LPD*%
M02*
