%TF.GenerationSoftware,KiCad,Pcbnew,9.0.5*%
%TF.CreationDate,2026-01-13T21:28:18-06:00*%
%TF.ProjectId,Supplemental Monitoring PCB,53757070-6c65-46d6-956e-74616c204d6f,rev?*%
%TF.SameCoordinates,Original*%
%TF.FileFunction,Copper,L2,Inr*%
%TF.FilePolarity,Positive*%
%FSLAX46Y46*%
G04 Gerber Fmt 4.6, Leading zero omitted, Abs format (unit mm)*
G04 Created by KiCad (PCBNEW 9.0.5) date 2026-01-13 21:28:18*
%MOMM*%
%LPD*%
G01*
G04 APERTURE LIST*
%TA.AperFunction,ComponentPad*%
%ADD10C,3.600000*%
%TD*%
%TA.AperFunction,ViaPad*%
%ADD11C,0.600000*%
%TD*%
%TA.AperFunction,Conductor*%
%ADD12C,0.400000*%
%TD*%
%TA.AperFunction,Conductor*%
%ADD13C,0.290000*%
%TD*%
%TA.AperFunction,Conductor*%
%ADD14C,0.200000*%
%TD*%
G04 APERTURE END LIST*
D10*
%TO.N,N/C*%
%TO.C,H4*%
X135330000Y-126550000D03*
%TD*%
%TO.N,N/C*%
%TO.C,H2*%
X170000000Y-103610000D03*
%TD*%
D11*
%TO.N,+3.3V*%
X165555292Y-113100000D03*
X155200000Y-108760000D03*
X155817500Y-114950000D03*
X144285000Y-111870000D03*
X155817500Y-113140000D03*
X166550000Y-105250000D03*
X158242000Y-121736530D03*
X156267900Y-102409999D03*
X140510000Y-118090000D03*
X165555292Y-109600000D03*
X145590000Y-103270000D03*
%TO.N,/SRCLK*%
X154820000Y-107740000D03*
X164747706Y-108347470D03*
X147260000Y-117320000D03*
X145924473Y-107481305D03*
X140420000Y-102530000D03*
%TO.N,/RCLK*%
X144579296Y-106919874D03*
X164750000Y-107488999D03*
X136510000Y-102200000D03*
X147240000Y-116440000D03*
X155030374Y-106968155D03*
%TO.N,/SER*%
X145990000Y-106270000D03*
X144930000Y-101380000D03*
X147451839Y-118101679D03*
%TO.N,GND*%
X160870000Y-128260000D03*
X147380000Y-103925000D03*
X137440000Y-112510000D03*
X142525000Y-106953509D03*
X157342537Y-110373914D03*
X164427256Y-110205094D03*
X141340765Y-114980765D03*
X147040000Y-100870000D03*
X163590000Y-101280000D03*
X152410000Y-121980000D03*
X166950000Y-110760000D03*
X140510000Y-109350000D03*
X169710000Y-120150000D03*
%TO.N,/Status_LED1*%
X139890000Y-118800000D03*
%TO.N,/Status_LED2*%
X139352503Y-115316359D03*
%TO.N,/SUPPMON_I1*%
X147310000Y-120490000D03*
X144190000Y-128290000D03*
X157505735Y-104935735D03*
X149740000Y-120390000D03*
%TO.N,/I_SNS_Reg_In*%
X147028575Y-127009000D03*
X136170000Y-121710000D03*
X148980000Y-111670000D03*
%TO.N,Net-(R25-Pad2)*%
X150290000Y-112200000D03*
X149050000Y-101400000D03*
%TO.N,Net-(R26-Pad2)*%
X150933561Y-103409456D03*
X152980000Y-111130000D03*
X156660000Y-114630000D03*
%TO.N,/SUPPMON_V2*%
X147250000Y-121970000D03*
X156610000Y-119520000D03*
X147020000Y-128270000D03*
%TO.N,Net-(R30-Pad1)*%
X157665000Y-114715000D03*
X153350000Y-102133803D03*
%TO.N,Net-(R16-Pad2)*%
X134180000Y-108270000D03*
X138790000Y-123170000D03*
%TO.N,Net-(R39-Pad1)*%
X160506998Y-101880000D03*
X171250000Y-115410000D03*
%TO.N,Net-(R17-Pad2)*%
X135540000Y-105500000D03*
X138722998Y-124162998D03*
%TO.N,Net-(R18-Pad2)*%
X138920000Y-125070000D03*
X136480000Y-103400000D03*
%TO.N,Net-(R19-Pad2)*%
X142175834Y-110025255D03*
X139830000Y-125980000D03*
%TO.N,Net-(R31-Pad1)*%
X159150000Y-114920000D03*
X151005531Y-101266571D03*
%TO.N,Net-(R32-Pad2)*%
X161990000Y-125740000D03*
X160000000Y-107080000D03*
%TO.N,Net-(R33-Pad2)*%
X159972594Y-106207739D03*
X162617140Y-127030002D03*
%TO.N,Net-(R34-Pad2)*%
X169280000Y-129130000D03*
X160604804Y-105127052D03*
%TO.N,Net-(R35-Pad2)*%
X170370000Y-128980000D03*
X164855292Y-112180000D03*
%TO.N,Net-(U5-QH')*%
X154058779Y-108860000D03*
X145876000Y-108675304D03*
X154440000Y-105860000D03*
%TO.N,Net-(U6-QH')*%
X164570000Y-109180000D03*
X157069872Y-108759999D03*
X165695971Y-107129941D03*
%TO.N,/I_SNS_Reg_Out*%
X142890000Y-110620000D03*
X134900000Y-116240000D03*
%TO.N,/SUPP_IN+*%
X168060000Y-129230000D03*
X148174883Y-127061203D03*
X135159717Y-119470283D03*
%TO.N,/SUPP_REG+*%
X135220000Y-114060000D03*
%TO.N,/SUPPMON_V1*%
X147180000Y-124600000D03*
X145630000Y-127430000D03*
X159200000Y-119930000D03*
%TO.N,/SUPPMON_I2*%
X141570000Y-128290000D03*
X150340000Y-118880000D03*
X147400000Y-118900000D03*
%TD*%
D12*
%TO.N,+3.3V*%
X158060000Y-121554530D02*
X158060000Y-117192500D01*
X158060000Y-117192500D02*
X155817500Y-114950000D01*
X158242000Y-121736530D02*
X158060000Y-121554530D01*
D13*
X166550000Y-108605292D02*
X165555292Y-109600000D01*
D12*
X155200000Y-108760000D02*
X156267900Y-107692100D01*
D13*
X166550000Y-105250000D02*
X166550000Y-108605292D01*
D12*
X156267900Y-107692100D02*
X156267900Y-102409999D01*
D14*
%TO.N,/SRCLK*%
X144828239Y-106318874D02*
X144178874Y-106318874D01*
X144178874Y-106318874D02*
X140440000Y-102580000D01*
X140440000Y-102510000D02*
X140420000Y-102530000D01*
X147260000Y-117320000D02*
X147841000Y-116739000D01*
X147841000Y-109397832D02*
X145924473Y-107481305D01*
X147841000Y-116739000D02*
X147841000Y-109397832D01*
X140440000Y-102580000D02*
X140440000Y-102510000D01*
X145924473Y-107481305D02*
X145924473Y-107415108D01*
X145924473Y-107415108D02*
X144828239Y-106318874D01*
%TO.N,/RCLK*%
X144579296Y-106919874D02*
X144719183Y-107059761D01*
X147390000Y-111039247D02*
X147390000Y-116290000D01*
X143809874Y-106919874D02*
X139090000Y-102200000D01*
X144579296Y-106919874D02*
X143809874Y-106919874D01*
X147390000Y-116290000D02*
X147240000Y-116440000D01*
X144719183Y-108368430D02*
X147390000Y-111039247D01*
X139090000Y-102200000D02*
X136510000Y-102200000D01*
X144719183Y-107059761D02*
X144719183Y-108368430D01*
%TO.N,/SER*%
X148350000Y-108630000D02*
X148350000Y-117120000D01*
X144930000Y-105210000D02*
X144930000Y-101380000D01*
X145990000Y-106270000D02*
X144930000Y-105210000D01*
X147451839Y-118018161D02*
X147451839Y-118101679D01*
X148350000Y-117120000D02*
X147451839Y-118018161D01*
X145990000Y-106270000D02*
X148350000Y-108630000D01*
D13*
%TO.N,GND*%
X142525000Y-106953509D02*
X142525000Y-107335000D01*
X142525000Y-107335000D02*
X140510000Y-109350000D01*
D14*
%TO.N,/SUPPMON_I1*%
X149740000Y-115239928D02*
X149740000Y-120390000D01*
X147310000Y-121060000D02*
X147310000Y-120490000D01*
X157530000Y-107450000D02*
X152360000Y-112620000D01*
X144540000Y-127940000D02*
X144540000Y-123830000D01*
X144540000Y-123830000D02*
X147310000Y-121060000D01*
X157505735Y-104935735D02*
X157530000Y-104960000D01*
X152360000Y-112620000D02*
X152359928Y-112620000D01*
X144190000Y-128290000D02*
X144540000Y-127940000D01*
X157530000Y-104960000D02*
X157530000Y-107450000D01*
X152359928Y-112620000D02*
X149740000Y-115239928D01*
%TO.N,/I_SNS_Reg_In*%
X147028575Y-127009000D02*
X148980000Y-125057575D01*
X148980000Y-125057575D02*
X148980000Y-111670000D01*
%TO.N,Net-(R25-Pad2)*%
X150290000Y-102640000D02*
X149050000Y-101400000D01*
X150290000Y-112200000D02*
X150290000Y-102640000D01*
%TO.N,Net-(R26-Pad2)*%
X152980000Y-105455895D02*
X150933561Y-103409456D01*
X152980000Y-111130000D02*
X152980000Y-105455895D01*
%TO.N,/SUPPMON_V2*%
X148010000Y-122850000D02*
X148010000Y-125180000D01*
X146427575Y-127677575D02*
X147020000Y-128270000D01*
X147250000Y-121970000D02*
X147250000Y-122090000D01*
X146427575Y-126760057D02*
X146427575Y-127677575D01*
X148010000Y-125180000D02*
X146830000Y-126360000D01*
X146827632Y-126360000D02*
X146427575Y-126760057D01*
X147250000Y-122090000D02*
X148010000Y-122850000D01*
X146830000Y-126360000D02*
X146827632Y-126360000D01*
%TO.N,Net-(R30-Pad1)*%
X158131000Y-114249000D02*
X158131000Y-103423156D01*
X153674804Y-101808999D02*
X153350000Y-102133803D01*
X156516843Y-101808999D02*
X153674804Y-101808999D01*
X158131000Y-103423156D02*
X156516843Y-101808999D01*
X157665000Y-114715000D02*
X158131000Y-114249000D01*
%TO.N,Net-(R16-Pad2)*%
X134070000Y-108380000D02*
X134180000Y-108270000D01*
X138780000Y-123160000D02*
X136570000Y-123160000D01*
X136570000Y-123160000D02*
X134070000Y-120660000D01*
X134070000Y-120660000D02*
X134070000Y-108380000D01*
X138790000Y-123170000D02*
X138780000Y-123160000D01*
%TO.N,Net-(R39-Pad1)*%
X171250000Y-109100057D02*
X164029943Y-101880000D01*
X164029943Y-101880000D02*
X160506998Y-101880000D01*
X171250000Y-115410000D02*
X171250000Y-109100057D01*
%TO.N,Net-(R17-Pad2)*%
X138720000Y-124160000D02*
X136677100Y-124160000D01*
X133400000Y-120882900D02*
X133400000Y-107640000D01*
X133400000Y-107640000D02*
X135540000Y-105500000D01*
X136677100Y-124160000D02*
X133400000Y-120882900D01*
X138722998Y-124162998D02*
X138720000Y-124160000D01*
%TO.N,Net-(R18-Pad2)*%
X138920000Y-125070000D02*
X137020000Y-125070000D01*
X137020000Y-125070000D02*
X132800000Y-120850000D01*
X132800000Y-107080000D02*
X136480000Y-103400000D01*
X132800000Y-120850000D02*
X132800000Y-107080000D01*
%TO.N,Net-(R19-Pad2)*%
X143138943Y-110019000D02*
X142182089Y-110019000D01*
X142182089Y-110019000D02*
X142175834Y-110025255D01*
X143491000Y-110371057D02*
X143138943Y-110019000D01*
X143491000Y-122319000D02*
X143491000Y-110371057D01*
X139830000Y-125980000D02*
X143491000Y-122319000D01*
%TO.N,Net-(R31-Pad1)*%
X151450000Y-101250000D02*
X156524944Y-101250000D01*
X158620000Y-114390000D02*
X159150000Y-114920000D01*
X151433429Y-101266571D02*
X151450000Y-101250000D01*
X158620000Y-103345056D02*
X158620000Y-114390000D01*
X156524944Y-101250000D02*
X158620000Y-103345056D01*
X151005531Y-101266571D02*
X151433429Y-101266571D01*
%TO.N,Net-(R32-Pad2)*%
X161990000Y-109070000D02*
X160000000Y-107080000D01*
X161990000Y-125740000D02*
X161990000Y-109070000D01*
%TO.N,Net-(R33-Pad2)*%
X159978596Y-106207739D02*
X159972594Y-106207739D01*
X162617140Y-127030002D02*
X162617140Y-108846283D01*
X162617140Y-108846283D02*
X159978596Y-106207739D01*
%TO.N,Net-(R34-Pad2)*%
X163810000Y-108332248D02*
X160604804Y-105127052D01*
X166050000Y-128260000D02*
X163810000Y-126020000D01*
X169280000Y-129130000D02*
X168410000Y-128260000D01*
X163810000Y-126020000D02*
X163810000Y-108332248D01*
X168410000Y-128260000D02*
X166050000Y-128260000D01*
%TO.N,Net-(R35-Pad2)*%
X165485235Y-112180000D02*
X164855292Y-112180000D01*
X170370000Y-128980000D02*
X170370000Y-117064765D01*
X170370000Y-117064765D02*
X165485235Y-112180000D01*
%TO.N,Net-(U5-QH')*%
X154058779Y-108258779D02*
X153846947Y-108046947D01*
X154058779Y-108860000D02*
X154058779Y-108258779D01*
X153846947Y-108046947D02*
X153846947Y-106453053D01*
X153846947Y-106453053D02*
X154440000Y-105860000D01*
%TO.N,Net-(U6-QH')*%
X165695971Y-107246903D02*
X165695971Y-107129941D01*
X164985143Y-109180000D02*
X165351000Y-108814143D01*
X164570000Y-109180000D02*
X164985143Y-109180000D01*
X165351000Y-107591874D02*
X165695971Y-107246903D01*
X165351000Y-108814143D02*
X165351000Y-107591874D01*
%TO.N,/I_SNS_Reg_Out*%
X137270000Y-116240000D02*
X142890000Y-110620000D01*
X134900000Y-116240000D02*
X137270000Y-116240000D01*
%TO.N,/SUPPMON_V1*%
X146663900Y-125959000D02*
X146661532Y-125959000D01*
X146016043Y-126593957D02*
X145690000Y-126920000D01*
X147350000Y-124770000D02*
X147350000Y-125272900D01*
X146026575Y-126593957D02*
X146016043Y-126593957D01*
X145690000Y-126920000D02*
X145690000Y-127370000D01*
X147180000Y-124600000D02*
X147350000Y-124770000D01*
X147350000Y-125272900D02*
X146663900Y-125959000D01*
X146661532Y-125959000D02*
X146026575Y-126593957D01*
X145690000Y-127370000D02*
X145630000Y-127430000D01*
%TO.N,/SUPPMON_I2*%
X143980000Y-122960000D02*
X147400000Y-119540000D01*
X143980000Y-127090000D02*
X143980000Y-122960000D01*
X141570000Y-128290000D02*
X142780000Y-128290000D01*
X142780000Y-128290000D02*
X143980000Y-127090000D01*
X147400000Y-119540000D02*
X147400000Y-118900000D01*
%TD*%
M02*
