M48
; DRILL file {KiCad 9.0.5} date 2026-01-13T21:28:18-0600
; FORMAT={-:-/ absolute / inch / decimal}
; #@! TF.CreationDate,2026-01-13T21:28:18-06:00
; #@! TF.GenerationSoftware,Kicad,Pcbnew,9.0.5
; #@! TF.FileFunction,Plated,1,4,PTH
FMAT,2
INCH
; #@! TA.AperFunction,Plated,PTH,ViaDrill
T1C0.0118
; #@! TA.AperFunction,Plated,PTH,ComponentDrill
T2C0.1260
%
G90
G05
T1
X5.2827Y-4.2626
X5.311Y-4.5764
X5.3212Y-4.7036
X5.3236Y-4.4906
X5.3362Y-4.1535
X5.361Y-4.7917
X5.3732Y-4.0709
X5.3744Y-4.0236
X5.411Y-4.4295
X5.4615Y-4.8883
X5.4642Y-4.8492
X5.4693Y-4.924
X5.4863Y-4.54
X5.5051Y-4.9598
X5.5075Y-4.6772
X5.5283Y-4.0366
X5.5319Y-4.3051
X5.5319Y-4.6492
X5.5646Y-4.5268
X5.5736Y-5.0508
X5.5975Y-4.3317
X5.6112Y-4.2108
X5.6256Y-4.3551
X5.6768Y-5.0508
X5.6805Y-4.4043
X5.6921Y-4.2094
X5.7059Y-3.9913
X5.7319Y-4.0657
X5.7335Y-5.0169
X5.7431Y-4.2786
X5.7451Y-4.2315
X5.7476Y-4.1839
X5.7882Y-5.05
X5.7885Y-5.0004
X5.789Y-3.9713
X5.7945Y-4.9055
X5.7969Y-4.5843
X5.7972Y-4.802
X5.7976Y-4.6189
X5.7996Y-4.7437
X5.8024Y-4.0915
X5.8031Y-4.6811
X5.8052Y-4.6497
X5.8337Y-5.0024
X5.8654Y-4.3965
X5.8681Y-3.9921
X5.8953Y-4.7398
X5.9169Y-4.4173
X5.9189Y-4.6803
X5.9423Y-4.0712
X5.9451Y-3.9869
X6.0004Y-4.8024
X6.0228Y-4.3752
X6.0374Y-4.021
X6.0653Y-4.2858
X6.0803Y-4.1677
X6.0953Y-4.2417
X6.1036Y-4.2113
X6.1102Y-4.2819
X6.1345Y-4.4543
X6.1345Y-4.5256
X6.1523Y-4.0319
X6.1657Y-4.7055
X6.1677Y-4.513
X6.1839Y-4.2819
X6.1946Y-4.3454
X6.201Y-4.1313
X6.2073Y-4.5163
X6.23Y-4.7928
X6.2657Y-4.5244
X6.2677Y-4.7217
X6.2981Y-4.1814
X6.2992Y-4.2157
X6.3192Y-4.011
X6.323Y-4.1389
X6.3335Y-5.0496
X6.3776Y-4.9504
X6.4022Y-5.0012
X6.4406Y-3.9874
X6.4735Y-4.3388
X6.4791Y-4.2984
X6.4861Y-4.2656
X6.4862Y-4.2319
X6.4904Y-4.4165
X6.5179Y-4.315
X6.5179Y-4.4528
X6.5235Y-4.2177
X6.5571Y-4.1437
X6.5728Y-4.3606
X6.6165Y-5.0878
X6.6646Y-5.0839
X6.6815Y-4.7303
X6.7075Y-5.078
X6.7421Y-4.5437
T2
X5.328Y-4.9823
X6.6929Y-4.0791
M30
