%TF.GenerationSoftware,KiCad,Pcbnew,9.0.5*%
%TF.CreationDate,2026-01-13T21:28:18-06:00*%
%TF.ProjectId,Supplemental Monitoring PCB,53757070-6c65-46d6-956e-74616c204d6f,rev?*%
%TF.SameCoordinates,Original*%
%TF.FileFunction,Copper,L1,Top*%
%TF.FilePolarity,Positive*%
%FSLAX46Y46*%
G04 Gerber Fmt 4.6, Leading zero omitted, Abs format (unit mm)*
G04 Created by KiCad (PCBNEW 9.0.5) date 2026-01-13 21:28:18*
%MOMM*%
%LPD*%
G01*
G04 APERTURE LIST*
G04 Aperture macros list*
%AMRoundRect*
0 Rectangle with rounded corners*
0 $1 Rounding radius*
0 $2 $3 $4 $5 $6 $7 $8 $9 X,Y pos of 4 corners*
0 Add a 4 corners polygon primitive as box body*
4,1,4,$2,$3,$4,$5,$6,$7,$8,$9,$2,$3,0*
0 Add four circle primitives for the rounded corners*
1,1,$1+$1,$2,$3*
1,1,$1+$1,$4,$5*
1,1,$1+$1,$6,$7*
1,1,$1+$1,$8,$9*
0 Add four rect primitives between the rounded corners*
20,1,$1+$1,$2,$3,$4,$5,0*
20,1,$1+$1,$4,$5,$6,$7,0*
20,1,$1+$1,$6,$7,$8,$9,0*
20,1,$1+$1,$8,$9,$2,$3,0*%
G04 Aperture macros list end*
%TA.AperFunction,SMDPad,CuDef*%
%ADD10RoundRect,0.237500X-0.250000X-0.237500X0.250000X-0.237500X0.250000X0.237500X-0.250000X0.237500X0*%
%TD*%
%TA.AperFunction,SMDPad,CuDef*%
%ADD11RoundRect,0.237500X-0.300000X-0.237500X0.300000X-0.237500X0.300000X0.237500X-0.300000X0.237500X0*%
%TD*%
%TA.AperFunction,SMDPad,CuDef*%
%ADD12R,0.977900X0.304800*%
%TD*%
%TA.AperFunction,SMDPad,CuDef*%
%ADD13RoundRect,0.237500X0.237500X-0.300000X0.237500X0.300000X-0.237500X0.300000X-0.237500X-0.300000X0*%
%TD*%
%TA.AperFunction,SMDPad,CuDef*%
%ADD14RoundRect,0.237500X0.250000X0.237500X-0.250000X0.237500X-0.250000X-0.237500X0.250000X-0.237500X0*%
%TD*%
%TA.AperFunction,SMDPad,CuDef*%
%ADD15R,1.025000X1.363996*%
%TD*%
%TA.AperFunction,SMDPad,CuDef*%
%ADD16R,1.000000X1.000000*%
%TD*%
%TA.AperFunction,SMDPad,CuDef*%
%ADD17RoundRect,0.218750X0.218750X0.256250X-0.218750X0.256250X-0.218750X-0.256250X0.218750X-0.256250X0*%
%TD*%
%TA.AperFunction,ComponentPad*%
%ADD18C,3.600000*%
%TD*%
%TA.AperFunction,ConnectorPad*%
%ADD19C,6.400000*%
%TD*%
%TA.AperFunction,ViaPad*%
%ADD20C,0.600000*%
%TD*%
%TA.AperFunction,Conductor*%
%ADD21C,0.290000*%
%TD*%
%TA.AperFunction,Conductor*%
%ADD22C,0.400000*%
%TD*%
%TA.AperFunction,Conductor*%
%ADD23C,0.200000*%
%TD*%
G04 APERTURE END LIST*
D10*
%TO.P,R31,1*%
%TO.N,Net-(R31-Pad1)*%
X150136061Y-101730378D03*
%TO.P,R31,2*%
%TO.N,/Seven Segment/2b*%
X151961061Y-101730378D03*
%TD*%
D11*
%TO.P,C20,1*%
%TO.N,+3.3V*%
X144947500Y-103320000D03*
%TO.P,C20,2*%
%TO.N,GND*%
X146672500Y-103320000D03*
%TD*%
D12*
%TO.P,U7,1,QB*%
%TO.N,/Seven Segment/3b*%
X163458144Y-106129653D03*
%TO.P,U7,2,QC*%
%TO.N,/Seven Segment/3c*%
X163458144Y-106629779D03*
%TO.P,U7,3,QD*%
%TO.N,/Seven Segment/3d*%
X163458144Y-107129905D03*
%TO.P,U7,4,QE*%
%TO.N,/Seven Segment/3e*%
X163458144Y-107630031D03*
%TO.P,U7,5,QF*%
%TO.N,/Seven Segment/3f*%
X163458144Y-108130157D03*
%TO.P,U7,6,QG*%
%TO.N,/Seven Segment/3g*%
X163458144Y-108630283D03*
%TO.P,U7,7,QH*%
%TO.N,/Seven Segment/3h*%
X163458144Y-109130409D03*
%TO.P,U7,8,GND*%
%TO.N,GND*%
X163458144Y-109630535D03*
%TO.P,U7,9,QH'*%
%TO.N,unconnected-(U7-QH&apos;-Pad9)*%
X166544244Y-109630535D03*
%TO.P,U7,10,~{SRCLR}*%
%TO.N,+3.3V*%
X166544244Y-109130409D03*
%TO.P,U7,11,SRCLK*%
%TO.N,/SRCLK*%
X166544244Y-108630283D03*
%TO.P,U7,12,RCLK*%
%TO.N,/RCLK*%
X166544244Y-108130157D03*
%TO.P,U7,13,~{OE}*%
%TO.N,GND*%
X166544244Y-107630031D03*
%TO.P,U7,14,SER*%
%TO.N,Net-(U6-QH')*%
X166544244Y-107129905D03*
%TO.P,U7,15,QA*%
%TO.N,/Seven Segment/3a*%
X166544244Y-106629779D03*
%TO.P,U7,16,VCC*%
%TO.N,+3.3V*%
X166544244Y-106129653D03*
%TD*%
D13*
%TO.P,C21,1*%
%TO.N,+3.3V*%
X157088561Y-103380378D03*
%TO.P,C21,2*%
%TO.N,GND*%
X157088561Y-101655378D03*
%TD*%
D14*
%TO.P,R40,1*%
%TO.N,+3.3V*%
X138905000Y-114360000D03*
%TO.P,R40,2*%
%TO.N,Net-(D2-A)*%
X137080000Y-114360000D03*
%TD*%
%TO.P,R25,1*%
%TO.N,/Seven Segment/2d*%
X150921061Y-105020378D03*
%TO.P,R25,2*%
%TO.N,Net-(R25-Pad2)*%
X149096061Y-105020378D03*
%TD*%
D10*
%TO.P,R27,1*%
%TO.N,/Seven Segment/2h*%
X152546061Y-109890378D03*
%TO.P,R27,2*%
%TO.N,Net-(R27-Pad2)*%
X154371061Y-109890378D03*
%TD*%
D14*
%TO.P,R18,1*%
%TO.N,/Seven Segment/1c*%
X139550000Y-103350000D03*
%TO.P,R18,2*%
%TO.N,Net-(R18-Pad2)*%
X137725000Y-103350000D03*
%TD*%
D15*
%TO.P,U9,1,1*%
%TO.N,Net-(R24-Pad2)*%
X152532500Y-127770000D03*
%TO.P,U9,2,2*%
%TO.N,Net-(R25-Pad2)*%
X154175000Y-127770000D03*
%TO.P,U9,3,3*%
%TO.N,+3.3V*%
X155817500Y-127770000D03*
%TO.P,U9,4,4*%
%TO.N,Net-(R26-Pad2)*%
X157460000Y-127770000D03*
%TO.P,U9,5,5*%
%TO.N,Net-(R27-Pad2)*%
X159102500Y-127770000D03*
%TO.P,U9,6,6*%
%TO.N,Net-(R31-Pad1)*%
X159102500Y-116460000D03*
%TO.P,U9,7,7*%
%TO.N,Net-(R30-Pad1)*%
X157460000Y-116460000D03*
%TO.P,U9,8,8*%
%TO.N,+3.3V*%
X155817500Y-116460000D03*
%TO.P,U9,9,9*%
%TO.N,Net-(R29-Pad1)*%
X154175000Y-116460000D03*
%TO.P,U9,10,10*%
%TO.N,Net-(R28-Pad2)*%
X152532500Y-116460000D03*
%TD*%
D16*
%TO.P,SER,1,1*%
%TO.N,/SER*%
X143360000Y-101360000D03*
%TD*%
D10*
%TO.P,R37,1*%
%TO.N,Net-(R37-Pad1)*%
X159127594Y-109480094D03*
%TO.P,R37,2*%
%TO.N,/Seven Segment/3f*%
X160952594Y-109480094D03*
%TD*%
D16*
%TO.P,SUPP_REG+,1,1*%
%TO.N,/SUPP_REG+*%
X133860000Y-113370000D03*
%TD*%
D10*
%TO.P,R21,1*%
%TO.N,Net-(R21-Pad1)*%
X136135000Y-108130000D03*
%TO.P,R21,2*%
%TO.N,/Seven Segment/1f*%
X137960000Y-108130000D03*
%TD*%
D14*
%TO.P,R38,1*%
%TO.N,Net-(R38-Pad1)*%
X170222500Y-107860000D03*
%TO.P,R38,2*%
%TO.N,/Seven Segment/3a*%
X168397500Y-107860000D03*
%TD*%
D17*
%TO.P,D2,1,K*%
%TO.N,/Status_LED2*%
X138760000Y-115970000D03*
%TO.P,D2,2,A*%
%TO.N,Net-(D2-A)*%
X137185000Y-115970000D03*
%TD*%
D15*
%TO.P,U10,1,1*%
%TO.N,Net-(R32-Pad2)*%
X163782500Y-127700000D03*
%TO.P,U10,2,2*%
%TO.N,Net-(R33-Pad2)*%
X165425000Y-127700000D03*
%TO.P,U10,3,3*%
%TO.N,+3.3V*%
X167067500Y-127700000D03*
%TO.P,U10,4,4*%
%TO.N,Net-(R34-Pad2)*%
X168710000Y-127700000D03*
%TO.P,U10,5,5*%
%TO.N,Net-(R35-Pad2)*%
X170352500Y-127700000D03*
%TO.P,U10,6,6*%
%TO.N,Net-(R39-Pad1)*%
X170352500Y-116390000D03*
%TO.P,U10,7,7*%
%TO.N,Net-(R38-Pad1)*%
X168710000Y-116390000D03*
%TO.P,U10,8,8*%
%TO.N,+3.3V*%
X167067500Y-116390000D03*
%TO.P,U10,9,9*%
%TO.N,Net-(R37-Pad1)*%
X165425000Y-116390000D03*
%TO.P,U10,10,10*%
%TO.N,Net-(R36-Pad1)*%
X163782500Y-116390000D03*
%TD*%
D14*
%TO.P,R1,1*%
%TO.N,+3.3V*%
X138812500Y-117640000D03*
%TO.P,R1,2*%
%TO.N,Net-(D1-A)*%
X136987500Y-117640000D03*
%TD*%
D12*
%TO.P,U6,1,QB*%
%TO.N,/Seven Segment/2b*%
X153298561Y-104769622D03*
%TO.P,U6,2,QC*%
%TO.N,/Seven Segment/2c*%
X153298561Y-105269748D03*
%TO.P,U6,3,QD*%
%TO.N,/Seven Segment/2d*%
X153298561Y-105769874D03*
%TO.P,U6,4,QE*%
%TO.N,/Seven Segment/2e*%
X153298561Y-106270000D03*
%TO.P,U6,5,QF*%
%TO.N,/Seven Segment/2f*%
X153298561Y-106770126D03*
%TO.P,U6,6,QG*%
%TO.N,/Seven Segment/2g*%
X153298561Y-107270252D03*
%TO.P,U6,7,QH*%
%TO.N,/Seven Segment/2h*%
X153298561Y-107770378D03*
%TO.P,U6,8,GND*%
%TO.N,GND*%
X153298561Y-108270504D03*
%TO.P,U6,9,QH'*%
%TO.N,Net-(U6-QH')*%
X156384661Y-108270504D03*
%TO.P,U6,10,~{SRCLR}*%
%TO.N,+3.3V*%
X156384661Y-107770378D03*
%TO.P,U6,11,SRCLK*%
%TO.N,/SRCLK*%
X156384661Y-107270252D03*
%TO.P,U6,12,RCLK*%
%TO.N,/RCLK*%
X156384661Y-106770126D03*
%TO.P,U6,13,~{OE}*%
%TO.N,GND*%
X156384661Y-106270000D03*
%TO.P,U6,14,SER*%
%TO.N,Net-(U5-QH')*%
X156384661Y-105769874D03*
%TO.P,U6,15,QA*%
%TO.N,/Seven Segment/2a*%
X156384661Y-105269748D03*
%TO.P,U6,16,VCC*%
%TO.N,+3.3V*%
X156384661Y-104769622D03*
%TD*%
D18*
%TO.P,H4,1*%
%TO.N,N/C*%
X135330000Y-126550000D03*
D19*
X135330000Y-126550000D03*
%TD*%
D16*
%TO.P,SUPPMON_I1,1,1*%
%TO.N,/SUPPMON_I1*%
X142970000Y-128270000D03*
%TD*%
D10*
%TO.P,R19,1*%
%TO.N,/Seven Segment/1h*%
X139637500Y-110090000D03*
%TO.P,R19,2*%
%TO.N,Net-(R19-Pad2)*%
X141462500Y-110090000D03*
%TD*%
D11*
%TO.P,C22,1*%
%TO.N,+3.3V*%
X168457500Y-110270000D03*
%TO.P,C22,2*%
%TO.N,GND*%
X170182500Y-110270000D03*
%TD*%
D16*
%TO.P,SRCLK,1,1*%
%TO.N,/SRCLK*%
X139725000Y-101420000D03*
%TD*%
D14*
%TO.P,R23,1*%
%TO.N,Net-(R23-Pad1)*%
X143182500Y-103330000D03*
%TO.P,R23,2*%
%TO.N,/Seven Segment/1b*%
X141357500Y-103330000D03*
%TD*%
%TO.P,R26,1*%
%TO.N,/Seven Segment/2c*%
X151921061Y-103350378D03*
%TO.P,R26,2*%
%TO.N,Net-(R26-Pad2)*%
X150096061Y-103350378D03*
%TD*%
%TO.P,R28,1*%
%TO.N,/Seven Segment/2g*%
X150861061Y-109890378D03*
%TO.P,R28,2*%
%TO.N,Net-(R28-Pad2)*%
X149036061Y-109890378D03*
%TD*%
D12*
%TO.P,U5,1,QB*%
%TO.N,/Seven Segment/1b*%
X140570000Y-105019244D03*
%TO.P,U5,2,QC*%
%TO.N,/Seven Segment/1c*%
X140570000Y-105519370D03*
%TO.P,U5,3,QD*%
%TO.N,/Seven Segment/1d*%
X140570000Y-106019496D03*
%TO.P,U5,4,QE*%
%TO.N,/Seven Segment/1e*%
X140570000Y-106519622D03*
%TO.P,U5,5,QF*%
%TO.N,/Seven Segment/1f*%
X140570000Y-107019748D03*
%TO.P,U5,6,QG*%
%TO.N,/Seven Segment/1g*%
X140570000Y-107519874D03*
%TO.P,U5,7,QH*%
%TO.N,/Seven Segment/1h*%
X140570000Y-108020000D03*
%TO.P,U5,8,GND*%
%TO.N,GND*%
X140570000Y-108520126D03*
%TO.P,U5,9,QH'*%
%TO.N,Net-(U5-QH')*%
X143656100Y-108520126D03*
%TO.P,U5,10,~{SRCLR}*%
%TO.N,+3.3V*%
X143656100Y-108020000D03*
%TO.P,U5,11,SRCLK*%
%TO.N,/SRCLK*%
X143656100Y-107519874D03*
%TO.P,U5,12,RCLK*%
%TO.N,/RCLK*%
X143656100Y-107019748D03*
%TO.P,U5,13,~{OE}*%
%TO.N,GND*%
X143656100Y-106519622D03*
%TO.P,U5,14,SER*%
%TO.N,/SER*%
X143656100Y-106019496D03*
%TO.P,U5,15,QA*%
%TO.N,/Seven Segment/1a*%
X143656100Y-105519370D03*
%TO.P,U5,16,VCC*%
%TO.N,+3.3V*%
X143656100Y-105019244D03*
%TD*%
D14*
%TO.P,R22,1*%
%TO.N,Net-(R22-Pad1)*%
X147222500Y-104900000D03*
%TO.P,R22,2*%
%TO.N,/Seven Segment/1a*%
X145397500Y-104900000D03*
%TD*%
%TO.P,R24,1*%
%TO.N,/Seven Segment/2e*%
X150911061Y-106620378D03*
%TO.P,R24,2*%
%TO.N,Net-(R24-Pad2)*%
X149086061Y-106620378D03*
%TD*%
D10*
%TO.P,R20,1*%
%TO.N,Net-(R20-Pad1)*%
X136135000Y-109760000D03*
%TO.P,R20,2*%
%TO.N,/Seven Segment/1g*%
X137960000Y-109760000D03*
%TD*%
%TO.P,R35,1*%
%TO.N,/Seven Segment/3h*%
X162787594Y-111180094D03*
%TO.P,R35,2*%
%TO.N,Net-(R35-Pad2)*%
X164612594Y-111180094D03*
%TD*%
%TO.P,R39,1*%
%TO.N,Net-(R39-Pad1)*%
X160087594Y-102940094D03*
%TO.P,R39,2*%
%TO.N,/Seven Segment/3b*%
X161912594Y-102940094D03*
%TD*%
%TO.P,R29,1*%
%TO.N,Net-(R29-Pad1)*%
X149036061Y-108230378D03*
%TO.P,R29,2*%
%TO.N,/Seven Segment/2f*%
X150861061Y-108230378D03*
%TD*%
D16*
%TO.P,I_SNS_Reg_In,1,1*%
%TO.N,/I_SNS_Reg_In*%
X133860000Y-121370000D03*
%TD*%
D17*
%TO.P,D1,1,K*%
%TO.N,/Status_LED1*%
X138847500Y-119210000D03*
%TO.P,D1,2,A*%
%TO.N,Net-(D1-A)*%
X137272500Y-119210000D03*
%TD*%
D16*
%TO.P,SUPP_IN+,1,1*%
%TO.N,/SUPP_IN+*%
X133860000Y-118878333D03*
%TD*%
D10*
%TO.P,R36,1*%
%TO.N,Net-(R36-Pad1)*%
X159127594Y-111070094D03*
%TO.P,R36,2*%
%TO.N,/Seven Segment/3g*%
X160952594Y-111070094D03*
%TD*%
D16*
%TO.P,RCLK,1,1*%
%TO.N,/RCLK*%
X135050000Y-101390000D03*
%TD*%
D18*
%TO.P,H2,1*%
%TO.N,N/C*%
X170000000Y-103610000D03*
D19*
X170000000Y-103610000D03*
%TD*%
D14*
%TO.P,R16,1*%
%TO.N,/Seven Segment/1e*%
X137960000Y-106510000D03*
%TO.P,R16,2*%
%TO.N,Net-(R16-Pad2)*%
X136135000Y-106510000D03*
%TD*%
%TO.P,R32,1*%
%TO.N,/Seven Segment/3e*%
X160962594Y-107890094D03*
%TO.P,R32,2*%
%TO.N,Net-(R32-Pad2)*%
X159137594Y-107890094D03*
%TD*%
D16*
%TO.P,I_SNS_Reg_Out,1,1*%
%TO.N,/I_SNS_Reg_Out*%
X133860000Y-115861667D03*
%TD*%
D14*
%TO.P,R17,1*%
%TO.N,/Seven Segment/1d*%
X137960000Y-104910000D03*
%TO.P,R17,2*%
%TO.N,Net-(R17-Pad2)*%
X136135000Y-104910000D03*
%TD*%
D16*
%TO.P,SUPPMON_V1,1,1*%
%TO.N,/SUPPMON_V1*%
X145630000Y-128270000D03*
%TD*%
D14*
%TO.P,R34,1*%
%TO.N,/Seven Segment/3c*%
X161892594Y-104630094D03*
%TO.P,R34,2*%
%TO.N,Net-(R34-Pad2)*%
X160067594Y-104630094D03*
%TD*%
%TO.P,R33,1*%
%TO.N,/Seven Segment/3d*%
X160960094Y-106270094D03*
%TO.P,R33,2*%
%TO.N,Net-(R33-Pad2)*%
X159135094Y-106270094D03*
%TD*%
D16*
%TO.P,SUPPMON_V2,1,1*%
%TO.N,/SUPPMON_V2*%
X148290000Y-128270000D03*
%TD*%
D10*
%TO.P,R30,1*%
%TO.N,Net-(R30-Pad1)*%
X153606061Y-103230378D03*
%TO.P,R30,2*%
%TO.N,/Seven Segment/2a*%
X155431061Y-103230378D03*
%TD*%
D16*
%TO.P,SUPPMON_I2,1,1*%
%TO.N,/SUPPMON_I2*%
X140310000Y-128270000D03*
%TD*%
D15*
%TO.P,U8,1,1*%
%TO.N,Net-(R16-Pad2)*%
X141000000Y-123180000D03*
%TO.P,U8,2,2*%
%TO.N,Net-(R17-Pad2)*%
X142642500Y-123180000D03*
%TO.P,U8,3,3*%
%TO.N,+3.3V*%
X144285000Y-123180000D03*
%TO.P,U8,4,4*%
%TO.N,Net-(R18-Pad2)*%
X145927500Y-123180000D03*
%TO.P,U8,5,5*%
%TO.N,Net-(R19-Pad2)*%
X147570000Y-123180000D03*
%TO.P,U8,6,6*%
%TO.N,Net-(R23-Pad1)*%
X147570000Y-111870000D03*
%TO.P,U8,7,7*%
%TO.N,Net-(R22-Pad1)*%
X145927500Y-111870000D03*
%TO.P,U8,8,8*%
%TO.N,+3.3V*%
X144285000Y-111870000D03*
%TO.P,U8,9,9*%
%TO.N,Net-(R21-Pad1)*%
X142642500Y-111870000D03*
%TO.P,U8,10,10*%
%TO.N,Net-(R20-Pad1)*%
X141000000Y-111870000D03*
%TD*%
D20*
%TO.N,+3.3V*%
X165555292Y-113100000D03*
X155200000Y-108760000D03*
X155817500Y-114950000D03*
X144285000Y-111870000D03*
X155817500Y-113140000D03*
X166550000Y-105250000D03*
X158242000Y-121736530D03*
X156267900Y-102409999D03*
X140510000Y-118090000D03*
X165555292Y-109600000D03*
X145590000Y-103270000D03*
%TO.N,/SRCLK*%
X154820000Y-107740000D03*
X164747706Y-108347470D03*
X147260000Y-117320000D03*
X145924473Y-107481305D03*
X140420000Y-102530000D03*
%TO.N,/RCLK*%
X144579296Y-106919874D03*
X164750000Y-107488999D03*
X136510000Y-102200000D03*
X147240000Y-116440000D03*
X155030374Y-106968155D03*
%TO.N,/SER*%
X145990000Y-106270000D03*
X144930000Y-101380000D03*
X147451839Y-118101679D03*
%TO.N,GND*%
X160870000Y-128260000D03*
X147380000Y-103925000D03*
X137440000Y-112510000D03*
X142525000Y-106953509D03*
X157342537Y-110373914D03*
X164427256Y-110205094D03*
X141340765Y-114980765D03*
X147040000Y-100870000D03*
X163590000Y-101280000D03*
X152410000Y-121980000D03*
X166950000Y-110760000D03*
X140510000Y-109350000D03*
X169710000Y-120150000D03*
%TO.N,/Status_LED1*%
X139890000Y-118800000D03*
%TO.N,/Status_LED2*%
X139352503Y-115316359D03*
%TO.N,/SUPPMON_I1*%
X147310000Y-120490000D03*
X144190000Y-128290000D03*
X157505735Y-104935735D03*
X149740000Y-120390000D03*
%TO.N,/I_SNS_Reg_In*%
X147028575Y-127009000D03*
X136170000Y-121710000D03*
X148980000Y-111670000D03*
%TO.N,Net-(R25-Pad2)*%
X150290000Y-112200000D03*
X149050000Y-101400000D03*
%TO.N,Net-(R26-Pad2)*%
X150933561Y-103409456D03*
X152980000Y-111130000D03*
X156660000Y-114630000D03*
%TO.N,/SUPPMON_V2*%
X147250000Y-121970000D03*
X156610000Y-119520000D03*
X147020000Y-128270000D03*
%TO.N,Net-(R30-Pad1)*%
X157665000Y-114715000D03*
X153350000Y-102133803D03*
%TO.N,Net-(R16-Pad2)*%
X134180000Y-108270000D03*
X138790000Y-123170000D03*
%TO.N,Net-(R39-Pad1)*%
X160506998Y-101880000D03*
X171250000Y-115410000D03*
%TO.N,Net-(R17-Pad2)*%
X135540000Y-105500000D03*
X138722998Y-124162998D03*
%TO.N,Net-(R18-Pad2)*%
X138920000Y-125070000D03*
X136480000Y-103400000D03*
%TO.N,Net-(R19-Pad2)*%
X142175834Y-110025255D03*
X139830000Y-125980000D03*
%TO.N,Net-(R31-Pad1)*%
X159150000Y-114920000D03*
X151005531Y-101266571D03*
%TO.N,Net-(R32-Pad2)*%
X161990000Y-125740000D03*
X160000000Y-107080000D03*
%TO.N,Net-(R33-Pad2)*%
X159972594Y-106207739D03*
X162617140Y-127030002D03*
%TO.N,Net-(R34-Pad2)*%
X169280000Y-129130000D03*
X160604804Y-105127052D03*
%TO.N,Net-(R35-Pad2)*%
X170370000Y-128980000D03*
X164855292Y-112180000D03*
%TO.N,Net-(U5-QH')*%
X154058779Y-108860000D03*
X145876000Y-108675304D03*
X154440000Y-105860000D03*
%TO.N,Net-(U6-QH')*%
X164570000Y-109180000D03*
X157069872Y-108759999D03*
X165695971Y-107129941D03*
%TO.N,/I_SNS_Reg_Out*%
X142890000Y-110620000D03*
X134900000Y-116240000D03*
%TO.N,/SUPP_IN+*%
X168060000Y-129230000D03*
X148174883Y-127061203D03*
X135159717Y-119470283D03*
%TO.N,/SUPP_REG+*%
X135220000Y-114060000D03*
%TO.N,/SUPPMON_V1*%
X147180000Y-124600000D03*
X145630000Y-127430000D03*
X159200000Y-119930000D03*
%TO.N,/SUPPMON_I2*%
X141570000Y-128290000D03*
X150340000Y-118880000D03*
X147400000Y-118900000D03*
%TD*%
D21*
%TO.N,+3.3V*%
X167550409Y-109130409D02*
X166544244Y-109130409D01*
D22*
X167067500Y-116390000D02*
X167067500Y-116220502D01*
X144285000Y-111870000D02*
X144285000Y-123180000D01*
D21*
X155711348Y-107768652D02*
X156382935Y-107768652D01*
D22*
X155817500Y-116460000D02*
X155817500Y-127770000D01*
X144285000Y-110592376D02*
X144285000Y-111870000D01*
D21*
X165555292Y-109286137D02*
X165711020Y-109130409D01*
X156382935Y-107768652D02*
X156384661Y-107770378D01*
D22*
X140053503Y-115021003D02*
X139392500Y-114360000D01*
D21*
X168447500Y-110027500D02*
X167550409Y-109130409D01*
D22*
X144285000Y-113225000D02*
X144290000Y-113230000D01*
D21*
X142880000Y-108020000D02*
X143656100Y-108020000D01*
D22*
X140510000Y-118090000D02*
X139262500Y-118090000D01*
X144290000Y-114310000D02*
X140510000Y-118090000D01*
D21*
X165711020Y-109130409D02*
X166544244Y-109130409D01*
D22*
X167067500Y-116390000D02*
X167067500Y-127700000D01*
D21*
X155200000Y-108760000D02*
X155200000Y-108280000D01*
D22*
X144285000Y-111870000D02*
X144285000Y-113225000D01*
D21*
X166544244Y-105255756D02*
X166550000Y-105250000D01*
X155200000Y-108280000D02*
X155711348Y-107768652D01*
D22*
X144947500Y-103795000D02*
X143776530Y-104965970D01*
X157088561Y-103380378D02*
X157088561Y-103230660D01*
D21*
X141880000Y-107380000D02*
X141880000Y-105962120D01*
D22*
X157088561Y-103230660D02*
X156267900Y-102409999D01*
D21*
X166544244Y-106129653D02*
X166544244Y-105255756D01*
D22*
X165555292Y-113100000D02*
X165555292Y-109600000D01*
X144290000Y-113230000D02*
X144290000Y-114310000D01*
D21*
X165555292Y-109600000D02*
X165555292Y-109286137D01*
X142880000Y-108020000D02*
X142520000Y-108020000D01*
D22*
X167067500Y-116220502D02*
X165555292Y-114708294D01*
X165555292Y-114708294D02*
X165555292Y-113100000D01*
D21*
X168447500Y-110030000D02*
X168447500Y-110027500D01*
D22*
X155817500Y-116460000D02*
X155817500Y-114950000D01*
X139262500Y-118090000D02*
X138812500Y-117640000D01*
X155817500Y-114950000D02*
X155817500Y-113140000D01*
X144947500Y-103320000D02*
X144947500Y-103795000D01*
X145590000Y-103270000D02*
X144997500Y-103270000D01*
X140053503Y-116398997D02*
X140053503Y-115021003D01*
X142310000Y-108590000D02*
X142310000Y-108617376D01*
X144997500Y-103270000D02*
X144947500Y-103320000D01*
X142880000Y-108020000D02*
X142310000Y-108590000D01*
D21*
X156384661Y-104084278D02*
X157088561Y-103380378D01*
D22*
X143776530Y-104965970D02*
X143656100Y-104965970D01*
D21*
X142520000Y-108020000D02*
X141880000Y-107380000D01*
D22*
X142310000Y-108617376D02*
X144285000Y-110592376D01*
X138812500Y-117640000D02*
X140053503Y-116398997D01*
D21*
X142822876Y-105019244D02*
X143656100Y-105019244D01*
D22*
X139392500Y-114360000D02*
X138905000Y-114360000D01*
D21*
X156384661Y-104769622D02*
X156384661Y-104084278D01*
X141880000Y-105962120D02*
X142822876Y-105019244D01*
D23*
%TO.N,/SRCLK*%
X145885904Y-107519874D02*
X145924473Y-107481305D01*
X139740000Y-101435000D02*
X139725000Y-101420000D01*
X156337935Y-107316978D02*
X156384661Y-107270252D01*
X164747706Y-108347470D02*
X165030519Y-108630283D01*
X155593022Y-107316978D02*
X156337935Y-107316978D01*
X154820000Y-107740000D02*
X155109261Y-107740000D01*
X165030519Y-108630283D02*
X166544244Y-108630283D01*
X143656100Y-107519874D02*
X145885904Y-107519874D01*
X155526609Y-107322652D02*
X155587348Y-107322652D01*
X140420000Y-102530000D02*
X139740000Y-101850000D01*
X155109261Y-107740000D02*
X155526609Y-107322652D01*
X139740000Y-101850000D02*
X139740000Y-101435000D01*
X155587348Y-107322652D02*
X155593022Y-107316978D01*
%TO.N,Net-(D1-A)*%
X136987500Y-117640000D02*
X136987500Y-118925000D01*
X136987500Y-118925000D02*
X137272500Y-119210000D01*
%TO.N,/RCLK*%
X165490157Y-108130157D02*
X166544244Y-108130157D01*
X136510000Y-102200000D02*
X135860000Y-102200000D01*
X155520803Y-106740950D02*
X155549979Y-106770126D01*
X155549979Y-106770126D02*
X156384661Y-106770126D01*
X144579296Y-106919874D02*
X144479422Y-107019748D01*
X164750000Y-107488999D02*
X164848999Y-107488999D01*
X135860000Y-102200000D02*
X135050000Y-101390000D01*
X155030374Y-106968155D02*
X155257579Y-106740950D01*
X164848999Y-107488999D02*
X165490157Y-108130157D01*
X144479422Y-107019748D02*
X143656100Y-107019748D01*
X155257579Y-106740950D02*
X155520803Y-106740950D01*
%TO.N,/SER*%
X145990000Y-106270000D02*
X145739496Y-106019496D01*
X143380000Y-101380000D02*
X143360000Y-101360000D01*
X145739496Y-106019496D02*
X143656100Y-106019496D01*
X144930000Y-101380000D02*
X143380000Y-101380000D01*
%TO.N,/Seven Segment/1e*%
X137960000Y-106510000D02*
X140560378Y-106510000D01*
X140560378Y-106510000D02*
X140570000Y-106519622D01*
%TO.N,/Seven Segment/1d*%
X139069496Y-106019496D02*
X140570000Y-106019496D01*
X137960000Y-104910000D02*
X139069496Y-106019496D01*
%TO.N,/Seven Segment/1c*%
X139819370Y-105519370D02*
X140570000Y-105519370D01*
X139550000Y-103350000D02*
X139550000Y-105250000D01*
X139550000Y-105250000D02*
X139819370Y-105519370D01*
%TO.N,/Seven Segment/1h*%
X139980000Y-108020000D02*
X139637500Y-108362500D01*
X139637500Y-108362500D02*
X139637500Y-110090000D01*
X140570000Y-108020000D02*
X139980000Y-108020000D01*
%TO.N,/Seven Segment/2e*%
X150911061Y-106620378D02*
X151261439Y-106270000D01*
X151261439Y-106270000D02*
X153298561Y-106270000D01*
%TO.N,/Seven Segment/2d*%
X151670557Y-105769874D02*
X153298561Y-105769874D01*
X150921061Y-105020378D02*
X151670557Y-105769874D01*
%TO.N,/Seven Segment/1f*%
X137960000Y-108130000D02*
X139070252Y-107019748D01*
X139070252Y-107019748D02*
X140570000Y-107019748D01*
%TO.N,/Seven Segment/1g*%
X138770000Y-108576650D02*
X138770000Y-108570000D01*
X137960000Y-109760000D02*
X137960000Y-109386650D01*
X137960000Y-109386650D02*
X138770000Y-108576650D01*
X138770000Y-108570000D02*
X139820126Y-107519874D01*
X139820126Y-107519874D02*
X140570000Y-107519874D01*
%TO.N,/Seven Segment/1a*%
X144778130Y-105519370D02*
X145397500Y-104900000D01*
X143656100Y-105519370D02*
X144778130Y-105519370D01*
%TO.N,/Seven Segment/1b*%
X141357500Y-104231744D02*
X140570000Y-105019244D01*
X141357500Y-103330000D02*
X141357500Y-104231744D01*
%TO.N,/Seven Segment/2f*%
X150861061Y-108230378D02*
X152321313Y-106770126D01*
X152321313Y-106770126D02*
X153298561Y-106770126D01*
%TO.N,/Seven Segment/2a*%
X155641437Y-105269748D02*
X156384661Y-105269748D01*
X155431061Y-103230378D02*
X155431061Y-105059372D01*
X155431061Y-105059372D02*
X155641437Y-105269748D01*
%TO.N,/Seven Segment/2b*%
X151961061Y-101730378D02*
X152709561Y-102478878D01*
X152709561Y-102478878D02*
X152709561Y-104180622D01*
X152709561Y-104180622D02*
X153298561Y-104769622D01*
%TO.N,/Seven Segment/3f*%
X162302531Y-108130157D02*
X163458144Y-108130157D01*
X160952594Y-109480094D02*
X162302531Y-108130157D01*
%TO.N,/Seven Segment/3g*%
X162458144Y-108630283D02*
X163458144Y-108630283D01*
X161778144Y-110244544D02*
X161778144Y-109310283D01*
X161778144Y-109310283D02*
X162458144Y-108630283D01*
X160952594Y-111070094D02*
X161778144Y-110244544D01*
%TO.N,/Seven Segment/3a*%
X168397500Y-107860000D02*
X167167279Y-106629779D01*
X167167279Y-106629779D02*
X166544244Y-106629779D01*
%TO.N,/Seven Segment/3b*%
X163458144Y-104485644D02*
X163458144Y-106129653D01*
X161912594Y-102940094D02*
X163458144Y-104485644D01*
%TO.N,/Seven Segment/2g*%
X152408687Y-107270252D02*
X153298561Y-107270252D01*
X150861061Y-109890378D02*
X151658561Y-109092878D01*
X151658561Y-109092878D02*
X151658561Y-108020378D01*
X151658561Y-108020378D02*
X152408687Y-107270252D01*
%TO.N,/Seven Segment/2c*%
X151921061Y-103350378D02*
X151921061Y-104635472D01*
X152555337Y-105269748D02*
X153298561Y-105269748D01*
X151921061Y-104635472D02*
X152555337Y-105269748D01*
%TO.N,/Seven Segment/2h*%
X152208561Y-108117154D02*
X152555337Y-107770378D01*
X152555337Y-107770378D02*
X153298561Y-107770378D01*
X152546061Y-109890378D02*
X152208561Y-109552878D01*
X152208561Y-109552878D02*
X152208561Y-108117154D01*
%TO.N,/Seven Segment/3e*%
X160962594Y-107890094D02*
X161222657Y-107630031D01*
X161222657Y-107630031D02*
X163458144Y-107630031D01*
%TO.N,/Seven Segment/3d*%
X160960094Y-106270094D02*
X161819905Y-107129905D01*
X161819905Y-107129905D02*
X163458144Y-107129905D01*
%TO.N,/Seven Segment/3c*%
X161892594Y-105744733D02*
X162777640Y-106629779D01*
X162777640Y-106629779D02*
X163458144Y-106629779D01*
X161892594Y-104630094D02*
X161892594Y-105744733D01*
%TO.N,/Seven Segment/3h*%
X162236694Y-109462783D02*
X162569068Y-109130409D01*
X162236694Y-110629194D02*
X162236694Y-109462783D01*
X162569068Y-109130409D02*
X163458144Y-109130409D01*
X162787594Y-111180094D02*
X162236694Y-110629194D01*
D21*
%TO.N,GND*%
X143656100Y-106519622D02*
X142958887Y-106519622D01*
X163852697Y-109630535D02*
X164427256Y-110205094D01*
D23*
X154878586Y-106270000D02*
X154088511Y-107060075D01*
D21*
X166544244Y-107630031D02*
X167377468Y-107630031D01*
X163458144Y-109630535D02*
X163852697Y-109630535D01*
X167564000Y-108345774D02*
X168667226Y-109449000D01*
D23*
X157670872Y-110045579D02*
X157342537Y-110373914D01*
X156384661Y-106270000D02*
X154878586Y-106270000D01*
D21*
X167564000Y-107816563D02*
X167564000Y-108345774D01*
D23*
X156384661Y-106270000D02*
X157127885Y-106270000D01*
X146775000Y-103320000D02*
X147380000Y-103925000D01*
X140570000Y-108520126D02*
X140570000Y-109290000D01*
X141340765Y-114980765D02*
X138870000Y-112510000D01*
X140570000Y-109290000D02*
X140510000Y-109350000D01*
X157127885Y-106270000D02*
X157670872Y-106812987D01*
D21*
X167377468Y-107630031D02*
X167564000Y-107816563D01*
D23*
X154088511Y-108131489D02*
X153949496Y-108270504D01*
X157670872Y-106812987D02*
X157670872Y-110045579D01*
D21*
X169361500Y-109449000D02*
X170182500Y-110270000D01*
D23*
X153949496Y-108270504D02*
X153298561Y-108270504D01*
X154088511Y-107060075D02*
X154088511Y-108131489D01*
D21*
X168667226Y-109449000D02*
X169361500Y-109449000D01*
D23*
X146672500Y-103320000D02*
X146775000Y-103320000D01*
X138870000Y-112510000D02*
X137440000Y-112510000D01*
D21*
X142958887Y-106519622D02*
X142525000Y-106953509D01*
D23*
%TO.N,/Status_LED1*%
X138857500Y-119220000D02*
X138847500Y-119210000D01*
X139460000Y-119220000D02*
X138857500Y-119220000D01*
X139630000Y-119060000D02*
X139620000Y-119060000D01*
X139890000Y-118800000D02*
X139630000Y-119060000D01*
X139620000Y-119060000D02*
X139460000Y-119220000D01*
%TO.N,Net-(D2-A)*%
X137080000Y-114360000D02*
X137080000Y-115865000D01*
X137080000Y-115865000D02*
X137185000Y-115970000D01*
%TO.N,/Status_LED2*%
X139352503Y-115316359D02*
X139352503Y-115377497D01*
X139352503Y-115377497D02*
X138760000Y-115970000D01*
%TO.N,/SUPPMON_I1*%
X144170000Y-128270000D02*
X144190000Y-128290000D01*
X142970000Y-128270000D02*
X144170000Y-128270000D01*
%TO.N,/I_SNS_Reg_In*%
X135830000Y-121370000D02*
X133860000Y-121370000D01*
X136170000Y-121710000D02*
X135830000Y-121370000D01*
%TO.N,Net-(R24-Pad2)*%
X148247561Y-107458878D02*
X149086061Y-106620378D01*
X148556427Y-110666378D02*
X148247561Y-110357512D01*
X149689000Y-111115378D02*
X149240000Y-110666378D01*
X150941000Y-113700943D02*
X149689000Y-112448943D01*
X149689000Y-112448943D02*
X149689000Y-111115378D01*
X149240000Y-110666378D02*
X148556427Y-110666378D01*
X148247561Y-110357512D02*
X148247561Y-107458878D01*
X150941000Y-126178500D02*
X150941000Y-113700943D01*
X152532500Y-127770000D02*
X150941000Y-126178500D01*
%TO.N,Net-(R25-Pad2)*%
X151719000Y-125314000D02*
X151719000Y-113629000D01*
X149096061Y-101446061D02*
X149096061Y-105020378D01*
X149050000Y-101400000D02*
X149096061Y-101446061D01*
X151719000Y-113629000D02*
X150290000Y-112200000D01*
X154175000Y-127770000D02*
X151719000Y-125314000D01*
%TO.N,Net-(R26-Pad2)*%
X150155139Y-103409456D02*
X150096061Y-103350378D01*
X150933561Y-103409456D02*
X150155139Y-103409456D01*
X156646500Y-117442998D02*
X156646500Y-114643500D01*
X157460000Y-127770000D02*
X157460000Y-118256498D01*
X156646500Y-114643500D02*
X156660000Y-114630000D01*
X157460000Y-118256498D02*
X156646500Y-117442998D01*
%TO.N,/SUPPMON_V2*%
X148290000Y-128270000D02*
X147020000Y-128270000D01*
%TO.N,Net-(R29-Pad1)*%
X154175000Y-116365000D02*
X153090000Y-115280000D01*
X154175000Y-116460000D02*
X154175000Y-116365000D01*
X149824561Y-109018878D02*
X149036061Y-108230378D01*
X153090000Y-113374951D02*
X149824561Y-110109512D01*
X149824561Y-110109512D02*
X149824561Y-109018878D01*
X153090000Y-115280000D02*
X153090000Y-113374951D01*
%TO.N,Net-(R30-Pad1)*%
X153350000Y-102974317D02*
X153606061Y-103230378D01*
X157665000Y-114715000D02*
X157460000Y-114920000D01*
X153350000Y-102133803D02*
X153350000Y-102974317D01*
X157460000Y-114920000D02*
X157460000Y-116460000D01*
%TO.N,Net-(R16-Pad2)*%
X134375000Y-108270000D02*
X136135000Y-106510000D01*
X139050000Y-123180000D02*
X141000000Y-123180000D01*
X134180000Y-108270000D02*
X134375000Y-108270000D01*
X138790000Y-123170000D02*
X139040000Y-123170000D01*
X139040000Y-123170000D02*
X139050000Y-123180000D01*
%TO.N,Net-(R36-Pad1)*%
X159127594Y-111735094D02*
X159127594Y-111070094D01*
X163782500Y-116390000D02*
X159127594Y-111735094D01*
%TO.N,Net-(R37-Pad1)*%
X164442002Y-115407002D02*
X164033868Y-115407002D01*
X164033868Y-115407002D02*
X159916094Y-111289228D01*
X165425000Y-116390000D02*
X164442002Y-115407002D01*
X159916094Y-110268594D02*
X159127594Y-109480094D01*
X159916094Y-111289228D02*
X159916094Y-110268594D01*
%TO.N,Net-(R38-Pad1)*%
X172350000Y-109987500D02*
X170222500Y-107860000D01*
X172350000Y-112750000D02*
X172350000Y-109987500D01*
X168710000Y-116390000D02*
X172350000Y-112750000D01*
%TO.N,Net-(R39-Pad1)*%
X160506998Y-102520690D02*
X160087594Y-102940094D01*
X160506998Y-101880000D02*
X160506998Y-102520690D01*
X170352500Y-116390000D02*
X170352500Y-116307500D01*
X170352500Y-116307500D02*
X171250000Y-115410000D01*
%TO.N,Net-(R17-Pad2)*%
X135545000Y-105500000D02*
X136135000Y-104910000D01*
X138722998Y-124162998D02*
X141659502Y-124162998D01*
X141659502Y-124162998D02*
X142642500Y-123180000D01*
X135540000Y-105500000D02*
X135545000Y-105500000D01*
%TO.N,Net-(R18-Pad2)*%
X138920000Y-125070000D02*
X139230000Y-125380000D01*
X146180000Y-123432500D02*
X145927500Y-123180000D01*
X139230000Y-125380000D02*
X145723087Y-125380000D01*
X136480000Y-103400000D02*
X137675000Y-103400000D01*
X146180000Y-124923087D02*
X146180000Y-123432500D01*
X145723087Y-125380000D02*
X146180000Y-124923087D01*
X137675000Y-103400000D02*
X137725000Y-103350000D01*
%TO.N,Net-(R19-Pad2)*%
X147781000Y-123391000D02*
X147781000Y-124848943D01*
X141527245Y-110025255D02*
X141462500Y-110090000D01*
X142175834Y-110025255D02*
X141527245Y-110025255D01*
X146649943Y-125980000D02*
X139830000Y-125980000D01*
X147570000Y-123180000D02*
X147781000Y-123391000D01*
X147781000Y-124848943D02*
X146649943Y-125980000D01*
%TO.N,Net-(R20-Pad1)*%
X141000000Y-111870000D02*
X138245000Y-111870000D01*
X138245000Y-111870000D02*
X136135000Y-109760000D01*
%TO.N,Net-(R21-Pad1)*%
X137831368Y-110887002D02*
X136923500Y-109979134D01*
X142642500Y-111870000D02*
X141659502Y-110887002D01*
X136923500Y-108918500D02*
X136135000Y-108130000D01*
X141659502Y-110887002D02*
X137831368Y-110887002D01*
X136923500Y-109979134D02*
X136923500Y-108918500D01*
%TO.N,Net-(R22-Pad1)*%
X145927500Y-111870000D02*
X147222500Y-110575000D01*
X147222500Y-110575000D02*
X147222500Y-104900000D01*
%TO.N,Net-(R23-Pad1)*%
X147623500Y-105754634D02*
X148011000Y-105367134D01*
X147623500Y-111816500D02*
X147623500Y-105754634D01*
X147202134Y-102544000D02*
X143968500Y-102544000D01*
X143968500Y-102544000D02*
X143182500Y-103330000D01*
X148011000Y-103352866D02*
X147202134Y-102544000D01*
X148011000Y-105367134D02*
X148011000Y-103352866D01*
X147570000Y-111870000D02*
X147623500Y-111816500D01*
%TO.N,Net-(R27-Pad2)*%
X155100378Y-109890378D02*
X154371061Y-109890378D01*
X159102500Y-127770000D02*
X159916000Y-126956500D01*
X159916000Y-126956500D02*
X159916000Y-114706000D01*
X159916000Y-114706000D02*
X155100378Y-109890378D01*
%TO.N,Net-(R28-Pad2)*%
X152532500Y-113386817D02*
X149036061Y-109890378D01*
X152532500Y-116460000D02*
X152532500Y-113386817D01*
%TO.N,Net-(R31-Pad1)*%
X150599868Y-101266571D02*
X150136061Y-101730378D01*
X151005531Y-101266571D02*
X150599868Y-101266571D01*
X159102500Y-116460000D02*
X159102500Y-114967500D01*
X159102500Y-114967500D02*
X159150000Y-114920000D01*
%TO.N,Net-(R32-Pad2)*%
X161990000Y-125740000D02*
X161990000Y-127470000D01*
X161990000Y-127470000D02*
X162220000Y-127700000D01*
X162220000Y-127700000D02*
X163782500Y-127700000D01*
X159947688Y-107080000D02*
X159137594Y-107890094D01*
X160000000Y-107080000D02*
X159947688Y-107080000D01*
%TO.N,Net-(R33-Pad2)*%
X164442002Y-126717002D02*
X165425000Y-127700000D01*
X163015026Y-126717002D02*
X164442002Y-126717002D01*
X159197449Y-106207739D02*
X159135094Y-106270094D01*
X162702026Y-127030002D02*
X163015026Y-126717002D01*
X162617140Y-127030002D02*
X162702026Y-127030002D01*
X159972594Y-106207739D02*
X159197449Y-106207739D01*
%TO.N,Net-(R34-Pad2)*%
X168710000Y-127700000D02*
X168710000Y-128560000D01*
X160604804Y-105127052D02*
X160564552Y-105127052D01*
X168710000Y-128560000D02*
X169280000Y-129130000D01*
X160564552Y-105127052D02*
X160067594Y-104630094D01*
%TO.N,Net-(R35-Pad2)*%
X170352500Y-128962500D02*
X170370000Y-128980000D01*
X164855292Y-111422792D02*
X164612594Y-111180094D01*
X164855292Y-112180000D02*
X164855292Y-111422792D01*
X170352500Y-127700000D02*
X170352500Y-128962500D01*
%TO.N,Net-(U5-QH')*%
X154780000Y-105730000D02*
X156344787Y-105730000D01*
X154440000Y-105860000D02*
X154650000Y-105860000D01*
X156344787Y-105730000D02*
X156384661Y-105769874D01*
X143920000Y-108790000D02*
X145761304Y-108790000D01*
X143656100Y-108520126D02*
X143656100Y-108526100D01*
X154650000Y-105860000D02*
X154780000Y-105730000D01*
X143656100Y-108526100D02*
X143920000Y-108790000D01*
X145761304Y-108790000D02*
X145876000Y-108675304D01*
%TO.N,Net-(U6-QH')*%
X165696007Y-107129905D02*
X166544244Y-107129905D01*
X156384661Y-108270504D02*
X156580377Y-108270504D01*
X156580377Y-108270504D02*
X157069872Y-108759999D01*
X165695971Y-107129941D02*
X165696007Y-107129905D01*
%TO.N,/I_SNS_Reg_Out*%
X134900000Y-116240000D02*
X134521667Y-115861667D01*
X134521667Y-115861667D02*
X133860000Y-115861667D01*
%TO.N,/SUPP_IN+*%
X134567766Y-118878333D02*
X133860000Y-118878333D01*
X135159717Y-119470283D02*
X134567766Y-118878333D01*
%TO.N,/SUPP_REG+*%
X135220000Y-114060000D02*
X135220000Y-114050000D01*
X134540000Y-113370000D02*
X133860000Y-113370000D01*
X135220000Y-114050000D02*
X134540000Y-113370000D01*
%TO.N,/SUPPMON_V1*%
X145630000Y-127430000D02*
X145630000Y-128270000D01*
%TO.N,/SUPPMON_I2*%
X141550000Y-128270000D02*
X141570000Y-128290000D01*
X140310000Y-128270000D02*
X141550000Y-128270000D01*
%TD*%
%TA.AperFunction,Conductor*%
%TO.N,GND*%
G36*
X158166729Y-105509329D02*
G01*
X158222664Y-105551200D01*
X158247082Y-105616663D01*
X158232231Y-105684937D01*
X158228938Y-105690607D01*
X158211689Y-105718573D01*
X158211685Y-105718580D01*
X158187993Y-105790078D01*
X158157420Y-105882341D01*
X158157420Y-105882342D01*
X158157419Y-105882342D01*
X158147094Y-105983409D01*
X158147094Y-106556763D01*
X158147095Y-106556781D01*
X158157419Y-106657846D01*
X158193703Y-106767343D01*
X158197993Y-106780289D01*
X158211686Y-106821609D01*
X158211687Y-106821612D01*
X158226851Y-106846196D01*
X158296581Y-106959247D01*
X158302255Y-106968445D01*
X158327473Y-106993663D01*
X158360958Y-107054986D01*
X158355974Y-107124678D01*
X158327473Y-107169025D01*
X158304755Y-107191742D01*
X158214187Y-107338575D01*
X158214186Y-107338578D01*
X158159920Y-107502341D01*
X158159920Y-107502342D01*
X158159919Y-107502342D01*
X158149594Y-107603409D01*
X158149594Y-108176763D01*
X158149595Y-108176781D01*
X158159919Y-108277846D01*
X158214186Y-108441609D01*
X158214187Y-108441612D01*
X158244395Y-108490586D01*
X158291139Y-108566371D01*
X158304755Y-108588445D01*
X158308723Y-108592413D01*
X158342208Y-108653736D01*
X158337224Y-108723428D01*
X158308723Y-108767775D01*
X158294755Y-108781742D01*
X158204187Y-108928575D01*
X158204185Y-108928580D01*
X158180535Y-108999951D01*
X158149920Y-109092341D01*
X158149920Y-109092342D01*
X158149919Y-109092342D01*
X158139594Y-109193409D01*
X158139594Y-109766763D01*
X158139595Y-109766781D01*
X158149919Y-109867846D01*
X158173517Y-109939057D01*
X158195731Y-110006096D01*
X158204186Y-110031609D01*
X158204187Y-110031612D01*
X158238489Y-110087223D01*
X158274639Y-110145833D01*
X158294755Y-110178445D01*
X158303723Y-110187413D01*
X158337208Y-110248736D01*
X158332224Y-110318428D01*
X158303723Y-110362775D01*
X158294755Y-110371742D01*
X158204187Y-110518575D01*
X158204185Y-110518580D01*
X158191573Y-110556641D01*
X158149920Y-110682341D01*
X158149920Y-110682342D01*
X158149919Y-110682342D01*
X158139594Y-110783409D01*
X158139594Y-111356763D01*
X158139595Y-111356781D01*
X158149919Y-111457846D01*
X158186203Y-111567343D01*
X158204186Y-111621610D01*
X158294754Y-111768444D01*
X158416744Y-111890434D01*
X158556495Y-111976633D01*
X158598785Y-112020172D01*
X158647071Y-112103806D01*
X158647075Y-112103811D01*
X158765943Y-112222679D01*
X158765949Y-112222684D01*
X162733181Y-116189916D01*
X162766666Y-116251239D01*
X162769500Y-116277597D01*
X162769500Y-117119868D01*
X162769501Y-117119874D01*
X162775908Y-117179481D01*
X162826202Y-117314326D01*
X162826206Y-117314333D01*
X162912452Y-117429542D01*
X162912455Y-117429545D01*
X163027664Y-117515791D01*
X163027671Y-117515795D01*
X163162517Y-117566089D01*
X163162516Y-117566089D01*
X163169444Y-117566833D01*
X163222127Y-117572498D01*
X164342872Y-117572497D01*
X164402483Y-117566089D01*
X164537331Y-117515794D01*
X164537334Y-117515791D01*
X164544319Y-117511978D01*
X164612592Y-117497124D01*
X164663181Y-117511978D01*
X164670171Y-117515795D01*
X164805017Y-117566089D01*
X164805016Y-117566089D01*
X164811944Y-117566833D01*
X164864627Y-117572498D01*
X165985372Y-117572497D01*
X166044983Y-117566089D01*
X166179831Y-117515794D01*
X166179839Y-117515787D01*
X166183563Y-117513755D01*
X166187730Y-117512847D01*
X166188141Y-117512695D01*
X166188162Y-117512753D01*
X166251835Y-117498897D01*
X166317302Y-117523308D01*
X166359178Y-117579238D01*
X166367000Y-117622582D01*
X166367000Y-126467416D01*
X166347315Y-126534455D01*
X166294511Y-126580210D01*
X166225353Y-126590154D01*
X166183578Y-126576251D01*
X166179833Y-126574206D01*
X166044982Y-126523910D01*
X166044983Y-126523910D01*
X165985383Y-126517503D01*
X165985381Y-126517502D01*
X165985373Y-126517502D01*
X165985365Y-126517502D01*
X165143099Y-126517502D01*
X165113658Y-126508857D01*
X165083672Y-126502334D01*
X165078656Y-126498579D01*
X165076060Y-126497817D01*
X165055418Y-126481183D01*
X164929592Y-126355357D01*
X164929590Y-126355354D01*
X164810719Y-126236483D01*
X164810718Y-126236482D01*
X164723906Y-126186362D01*
X164723906Y-126186361D01*
X164723902Y-126186360D01*
X164673787Y-126157425D01*
X164521059Y-126116501D01*
X164362945Y-126116501D01*
X164355349Y-126116501D01*
X164355333Y-126116502D01*
X163094087Y-126116502D01*
X163094083Y-126116501D01*
X162935969Y-126116501D01*
X162899504Y-126126271D01*
X162886187Y-126126906D01*
X162864666Y-126121684D01*
X162842529Y-126121157D01*
X162831375Y-126113607D01*
X162818287Y-126110432D01*
X162803006Y-126094406D01*
X162784667Y-126081993D01*
X162779365Y-126069611D01*
X162770072Y-126059865D01*
X162765881Y-126038120D01*
X162757165Y-126017764D01*
X162757966Y-125997051D01*
X162756850Y-125991257D01*
X162758334Y-125987549D01*
X162758671Y-125978854D01*
X162759739Y-125973489D01*
X162775002Y-125896751D01*
X162790500Y-125818844D01*
X162790500Y-125661155D01*
X162790499Y-125661153D01*
X162759738Y-125506510D01*
X162759737Y-125506503D01*
X162759735Y-125506498D01*
X162699397Y-125360827D01*
X162699390Y-125360814D01*
X162611789Y-125229711D01*
X162611786Y-125229707D01*
X162500292Y-125118213D01*
X162500288Y-125118210D01*
X162369185Y-125030609D01*
X162369172Y-125030602D01*
X162223501Y-124970264D01*
X162223489Y-124970261D01*
X162068845Y-124939500D01*
X162068842Y-124939500D01*
X161911158Y-124939500D01*
X161911155Y-124939500D01*
X161756510Y-124970261D01*
X161756498Y-124970264D01*
X161610827Y-125030602D01*
X161610814Y-125030609D01*
X161479711Y-125118210D01*
X161479707Y-125118213D01*
X161368213Y-125229707D01*
X161368210Y-125229711D01*
X161280609Y-125360814D01*
X161280602Y-125360827D01*
X161220264Y-125506498D01*
X161220261Y-125506510D01*
X161189500Y-125661153D01*
X161189500Y-125818846D01*
X161220261Y-125973489D01*
X161220264Y-125973501D01*
X161280602Y-126119172D01*
X161280609Y-126119185D01*
X161368602Y-126250874D01*
X161389480Y-126317551D01*
X161389500Y-126319765D01*
X161389500Y-127383330D01*
X161389499Y-127383348D01*
X161389499Y-127549054D01*
X161389498Y-127549054D01*
X161430423Y-127701786D01*
X161430424Y-127701787D01*
X161442161Y-127722116D01*
X161451405Y-127738127D01*
X161486067Y-127798164D01*
X161509481Y-127838717D01*
X161628349Y-127957585D01*
X161628355Y-127957590D01*
X161735139Y-128064374D01*
X161735149Y-128064385D01*
X161739479Y-128068715D01*
X161739480Y-128068716D01*
X161851284Y-128180520D01*
X161851286Y-128180521D01*
X161851287Y-128180522D01*
X161913674Y-128216540D01*
X161913676Y-128216542D01*
X161964586Y-128245934D01*
X161988215Y-128259577D01*
X162140943Y-128300500D01*
X162645501Y-128300500D01*
X162712540Y-128320185D01*
X162758295Y-128372989D01*
X162769501Y-128424500D01*
X162769501Y-128429874D01*
X162775908Y-128489481D01*
X162826202Y-128624326D01*
X162826206Y-128624333D01*
X162912452Y-128739542D01*
X162912455Y-128739545D01*
X163027664Y-128825791D01*
X163027671Y-128825795D01*
X163162517Y-128876089D01*
X163162516Y-128876089D01*
X163169444Y-128876833D01*
X163222127Y-128882498D01*
X164342872Y-128882497D01*
X164402483Y-128876089D01*
X164537331Y-128825794D01*
X164537334Y-128825791D01*
X164544319Y-128821978D01*
X164612592Y-128807124D01*
X164663181Y-128821978D01*
X164670171Y-128825795D01*
X164805017Y-128876089D01*
X164805016Y-128876089D01*
X164811944Y-128876833D01*
X164864627Y-128882498D01*
X165985372Y-128882497D01*
X166044983Y-128876089D01*
X166179831Y-128825794D01*
X166179834Y-128825791D01*
X166186819Y-128821978D01*
X166255092Y-128807124D01*
X166305681Y-128821978D01*
X166312671Y-128825795D01*
X166447517Y-128876089D01*
X166447516Y-128876089D01*
X166454444Y-128876833D01*
X166507127Y-128882498D01*
X167161845Y-128882497D01*
X167228884Y-128902181D01*
X167274639Y-128954985D01*
X167284583Y-129024144D01*
X167283462Y-129030688D01*
X167259500Y-129151153D01*
X167259500Y-129308846D01*
X167290261Y-129463489D01*
X167290264Y-129463501D01*
X167350602Y-129609172D01*
X167353479Y-129614554D01*
X167351677Y-129615516D01*
X167369766Y-129673290D01*
X167351279Y-129740670D01*
X167299299Y-129787359D01*
X167245786Y-129799500D01*
X137536277Y-129799500D01*
X137469238Y-129779815D01*
X137423483Y-129727011D01*
X137413539Y-129657853D01*
X137442564Y-129594297D01*
X137467386Y-129572398D01*
X137537044Y-129525854D01*
X137818101Y-129295197D01*
X138075197Y-129038101D01*
X138305854Y-128757044D01*
X138507853Y-128454732D01*
X138679247Y-128134076D01*
X138818386Y-127798164D01*
X138923930Y-127450233D01*
X138923932Y-127450223D01*
X138923935Y-127450212D01*
X138985630Y-127140044D01*
X138994862Y-127093631D01*
X139030500Y-126731794D01*
X139030500Y-126611941D01*
X139050185Y-126544902D01*
X139102989Y-126499147D01*
X139172147Y-126489203D01*
X139235703Y-126518228D01*
X139242181Y-126524260D01*
X139319707Y-126601786D01*
X139319711Y-126601789D01*
X139450814Y-126689390D01*
X139450827Y-126689397D01*
X139553184Y-126731794D01*
X139596503Y-126749737D01*
X139751153Y-126780499D01*
X139751156Y-126780500D01*
X139751158Y-126780500D01*
X139908844Y-126780500D01*
X139908845Y-126780499D01*
X140063497Y-126749737D01*
X140209179Y-126689394D01*
X140220209Y-126682024D01*
X140340875Y-126601398D01*
X140407553Y-126580520D01*
X140409766Y-126580500D01*
X145051731Y-126580500D01*
X145118770Y-126600185D01*
X145164525Y-126652989D01*
X145174469Y-126722147D01*
X145145444Y-126785703D01*
X145124373Y-126804292D01*
X145124419Y-126804347D01*
X145122880Y-126805609D01*
X145120621Y-126807603D01*
X145119708Y-126808212D01*
X145008213Y-126919707D01*
X145008210Y-126919711D01*
X144920609Y-127050814D01*
X144920602Y-127050827D01*
X144860264Y-127196498D01*
X144860261Y-127196508D01*
X144834423Y-127326401D01*
X144808100Y-127381550D01*
X144798775Y-127392749D01*
X144772454Y-127412454D01*
X144686204Y-127527669D01*
X144686010Y-127528188D01*
X144682009Y-127532994D01*
X144655550Y-127550744D01*
X144630047Y-127569835D01*
X144626741Y-127570071D01*
X144623987Y-127571919D01*
X144592132Y-127572546D01*
X144560355Y-127574819D01*
X144555407Y-127573269D01*
X144554130Y-127573295D01*
X144552721Y-127572428D01*
X144539263Y-127568214D01*
X144423501Y-127520264D01*
X144423489Y-127520261D01*
X144268845Y-127489500D01*
X144268842Y-127489500D01*
X144111158Y-127489500D01*
X144111155Y-127489500D01*
X143991138Y-127513373D01*
X143921547Y-127507146D01*
X143867681Y-127466068D01*
X143827546Y-127412454D01*
X143798806Y-127390939D01*
X143712335Y-127326206D01*
X143712328Y-127326202D01*
X143577482Y-127275908D01*
X143577483Y-127275908D01*
X143517883Y-127269501D01*
X143517881Y-127269500D01*
X143517873Y-127269500D01*
X143517864Y-127269500D01*
X142422129Y-127269500D01*
X142422123Y-127269501D01*
X142362516Y-127275908D01*
X142227671Y-127326202D01*
X142227664Y-127326206D01*
X142112455Y-127412452D01*
X142035449Y-127515318D01*
X141979515Y-127557188D01*
X141909823Y-127562172D01*
X141888731Y-127555567D01*
X141803501Y-127520264D01*
X141803489Y-127520261D01*
X141648845Y-127489500D01*
X141648842Y-127489500D01*
X141491158Y-127489500D01*
X141491153Y-127489500D01*
X141336322Y-127520298D01*
X141266731Y-127514071D01*
X141212865Y-127472993D01*
X141167546Y-127412454D01*
X141138806Y-127390939D01*
X141052335Y-127326206D01*
X141052328Y-127326202D01*
X140917482Y-127275908D01*
X140917483Y-127275908D01*
X140857883Y-127269501D01*
X140857881Y-127269500D01*
X140857873Y-127269500D01*
X140857864Y-127269500D01*
X139762129Y-127269500D01*
X139762123Y-127269501D01*
X139702516Y-127275908D01*
X139567671Y-127326202D01*
X139567664Y-127326206D01*
X139452455Y-127412452D01*
X139452452Y-127412455D01*
X139366206Y-127527664D01*
X139366202Y-127527671D01*
X139315908Y-127662517D01*
X139311085Y-127707384D01*
X139309501Y-127722123D01*
X139309500Y-127722135D01*
X139309500Y-128817870D01*
X139309501Y-128817876D01*
X139315908Y-128877483D01*
X139366202Y-129012328D01*
X139366206Y-129012335D01*
X139452452Y-129127544D01*
X139452455Y-129127547D01*
X139567664Y-129213793D01*
X139567671Y-129213797D01*
X139702517Y-129264091D01*
X139702516Y-129264091D01*
X139709444Y-129264835D01*
X139762127Y-129270500D01*
X140857872Y-129270499D01*
X140917483Y-129264091D01*
X141052331Y-129213796D01*
X141167546Y-129127546D01*
X141188557Y-129099478D01*
X141244488Y-129057608D01*
X141314180Y-129052622D01*
X141335273Y-129059227D01*
X141336503Y-129059737D01*
X141443650Y-129081050D01*
X141491153Y-129090499D01*
X141491156Y-129090500D01*
X141491158Y-129090500D01*
X141648844Y-129090500D01*
X141648845Y-129090499D01*
X141803497Y-129059737D01*
X141911590Y-129014963D01*
X141981056Y-129007495D01*
X142043536Y-129038770D01*
X142058302Y-129055208D01*
X142112454Y-129127546D01*
X142112457Y-129127548D01*
X142227664Y-129213793D01*
X142227671Y-129213797D01*
X142362517Y-129264091D01*
X142362516Y-129264091D01*
X142369444Y-129264835D01*
X142422127Y-129270500D01*
X143517872Y-129270499D01*
X143577483Y-129264091D01*
X143712331Y-129213796D01*
X143827546Y-129127546D01*
X143841615Y-129108752D01*
X143897547Y-129066879D01*
X143965074Y-129061442D01*
X144010607Y-129070499D01*
X144111155Y-129090500D01*
X144111158Y-129090500D01*
X144268844Y-129090500D01*
X144268845Y-129090499D01*
X144423497Y-129059737D01*
X144562120Y-129002317D01*
X144631589Y-128994849D01*
X144694068Y-129026124D01*
X144708838Y-129042567D01*
X144744721Y-129090500D01*
X144772453Y-129127545D01*
X144772455Y-129127547D01*
X144887664Y-129213793D01*
X144887671Y-129213797D01*
X145022517Y-129264091D01*
X145022516Y-129264091D01*
X145029444Y-129264835D01*
X145082127Y-129270500D01*
X146177872Y-129270499D01*
X146237483Y-129264091D01*
X146372331Y-129213796D01*
X146487546Y-129127546D01*
X146550755Y-129043108D01*
X146606688Y-129001239D01*
X146676380Y-128996255D01*
X146697471Y-129002859D01*
X146786503Y-129039737D01*
X146922954Y-129066879D01*
X146941153Y-129070499D01*
X146941156Y-129070500D01*
X146941158Y-129070500D01*
X147098844Y-129070500D01*
X147098845Y-129070499D01*
X147253497Y-129039737D01*
X147253509Y-129039731D01*
X147259324Y-129037969D01*
X147259892Y-129039842D01*
X147320366Y-129033326D01*
X147382854Y-129064584D01*
X147397642Y-129081043D01*
X147432454Y-129127546D01*
X147432455Y-129127546D01*
X147432456Y-129127548D01*
X147547664Y-129213793D01*
X147547671Y-129213797D01*
X147682517Y-129264091D01*
X147682516Y-129264091D01*
X147689444Y-129264835D01*
X147742127Y-129270500D01*
X148837872Y-129270499D01*
X148897483Y-129264091D01*
X149032331Y-129213796D01*
X149147546Y-129127546D01*
X149233796Y-129012331D01*
X149284091Y-128877483D01*
X149290500Y-128817873D01*
X149290499Y-127722128D01*
X149284091Y-127662517D01*
X149282256Y-127657598D01*
X149233797Y-127527671D01*
X149233793Y-127527664D01*
X149147547Y-127412455D01*
X149147544Y-127412452D01*
X149032336Y-127326207D01*
X149027530Y-127323583D01*
X148978122Y-127274179D01*
X148963268Y-127205907D01*
X148965332Y-127190569D01*
X148975383Y-127140045D01*
X148975383Y-126982361D01*
X148975383Y-126982358D01*
X148975382Y-126982356D01*
X148962920Y-126919707D01*
X148944620Y-126827706D01*
X148944618Y-126827701D01*
X148884280Y-126682030D01*
X148884273Y-126682017D01*
X148796672Y-126550914D01*
X148796669Y-126550910D01*
X148685175Y-126439416D01*
X148685171Y-126439413D01*
X148554068Y-126351812D01*
X148554055Y-126351805D01*
X148408384Y-126291467D01*
X148408372Y-126291464D01*
X148253728Y-126260703D01*
X148253725Y-126260703D01*
X148096041Y-126260703D01*
X148096038Y-126260703D01*
X147941393Y-126291464D01*
X147941381Y-126291467D01*
X147795710Y-126351805D01*
X147795697Y-126351812D01*
X147705132Y-126412327D01*
X147638455Y-126433205D01*
X147571074Y-126414721D01*
X147565233Y-126410880D01*
X147556277Y-126404624D01*
X147538864Y-126387211D01*
X147407754Y-126299606D01*
X147403282Y-126297753D01*
X147393950Y-126291235D01*
X147376537Y-126269502D01*
X147356664Y-126249983D01*
X147354990Y-126242608D01*
X147350263Y-126236708D01*
X147347364Y-126209010D01*
X147341199Y-126181846D01*
X147343777Y-126174737D01*
X147342991Y-126167218D01*
X147355528Y-126142348D01*
X147365027Y-126116165D01*
X147373988Y-126105728D01*
X147374443Y-126104827D01*
X147375090Y-126104445D01*
X147377270Y-126101906D01*
X148149713Y-125329464D01*
X148149716Y-125329463D01*
X148261520Y-125217659D01*
X148311639Y-125130847D01*
X148340577Y-125080728D01*
X148381500Y-124928000D01*
X148381500Y-124769886D01*
X148381500Y-124325440D01*
X148401185Y-124258401D01*
X148431188Y-124226174D01*
X148440046Y-124219544D01*
X148526296Y-124104329D01*
X148576591Y-123969481D01*
X148583000Y-123909871D01*
X148582999Y-122450130D01*
X148576591Y-122390519D01*
X148569124Y-122370500D01*
X148526297Y-122255673D01*
X148526293Y-122255666D01*
X148440047Y-122140457D01*
X148440044Y-122140454D01*
X148324835Y-122054208D01*
X148324828Y-122054204D01*
X148189983Y-122003910D01*
X148160493Y-122000740D01*
X148095943Y-121974002D01*
X148056095Y-121916609D01*
X148051939Y-121897082D01*
X148051689Y-121897132D01*
X148019738Y-121736510D01*
X148019737Y-121736503D01*
X147976100Y-121631153D01*
X147959397Y-121590827D01*
X147959390Y-121590814D01*
X147871789Y-121459711D01*
X147871786Y-121459707D01*
X147760292Y-121348213D01*
X147757666Y-121346058D01*
X147756659Y-121344580D01*
X147755982Y-121343903D01*
X147756110Y-121343774D01*
X147718331Y-121288312D01*
X147716460Y-121218467D01*
X147752647Y-121158699D01*
X147767434Y-121147105D01*
X147820289Y-121111789D01*
X147931789Y-121000289D01*
X148019394Y-120869179D01*
X148079737Y-120723497D01*
X148110500Y-120568842D01*
X148110500Y-120411158D01*
X148110500Y-120411155D01*
X148110499Y-120411153D01*
X148091578Y-120316031D01*
X148079737Y-120256503D01*
X148050327Y-120185500D01*
X148019397Y-120110827D01*
X148019390Y-120110814D01*
X147931789Y-119979711D01*
X147931786Y-119979707D01*
X147820292Y-119868213D01*
X147820288Y-119868210D01*
X147758332Y-119826812D01*
X147713527Y-119773200D01*
X147704820Y-119703875D01*
X147734975Y-119640847D01*
X147774237Y-119613066D01*
X147773809Y-119612264D01*
X147779172Y-119609396D01*
X147779179Y-119609394D01*
X147910289Y-119521789D01*
X148021789Y-119410289D01*
X148109394Y-119279179D01*
X148169737Y-119133497D01*
X148200500Y-118978842D01*
X148200500Y-118821158D01*
X148200500Y-118821155D01*
X148200499Y-118821153D01*
X148176509Y-118700547D01*
X148169737Y-118666503D01*
X148156982Y-118635709D01*
X148144377Y-118605277D01*
X148136908Y-118535808D01*
X148155835Y-118488936D01*
X148161233Y-118480858D01*
X148221576Y-118335176D01*
X148252339Y-118180521D01*
X148252339Y-118022837D01*
X148252339Y-118022834D01*
X148252338Y-118022832D01*
X148234775Y-117934537D01*
X148221576Y-117868182D01*
X148221574Y-117868177D01*
X148161236Y-117722506D01*
X148161229Y-117722493D01*
X148073628Y-117591390D01*
X148069763Y-117586680D01*
X148071900Y-117584925D01*
X148044113Y-117534036D01*
X148043662Y-117483491D01*
X148060500Y-117398842D01*
X148060500Y-117241158D01*
X148060500Y-117241155D01*
X148060499Y-117241153D01*
X148029737Y-117086503D01*
X147997939Y-117009735D01*
X147969397Y-116940827D01*
X147969390Y-116940814D01*
X147962767Y-116930902D01*
X147941889Y-116864224D01*
X147951308Y-116814559D01*
X147989641Y-116722014D01*
X148009737Y-116673497D01*
X148040500Y-116518842D01*
X148040500Y-116361158D01*
X148040500Y-116361155D01*
X148040499Y-116361153D01*
X148009737Y-116206503D01*
X148008372Y-116203208D01*
X147949397Y-116060827D01*
X147949390Y-116060814D01*
X147861789Y-115929711D01*
X147861786Y-115929707D01*
X147750292Y-115818213D01*
X147750288Y-115818210D01*
X147619185Y-115730609D01*
X147619172Y-115730602D01*
X147473501Y-115670264D01*
X147473489Y-115670261D01*
X147318845Y-115639500D01*
X147318842Y-115639500D01*
X147161158Y-115639500D01*
X147161155Y-115639500D01*
X147006510Y-115670261D01*
X147006498Y-115670264D01*
X146860827Y-115730602D01*
X146860814Y-115730609D01*
X146729711Y-115818210D01*
X146729707Y-115818213D01*
X146618213Y-115929707D01*
X146618210Y-115929711D01*
X146530609Y-116060814D01*
X146530602Y-116060827D01*
X146470264Y-116206498D01*
X146470261Y-116206510D01*
X146439500Y-116361153D01*
X146439500Y-116518846D01*
X146470261Y-116673489D01*
X146470264Y-116673501D01*
X146530602Y-116819171D01*
X146530609Y-116819184D01*
X146537233Y-116829097D01*
X146558111Y-116895775D01*
X146548692Y-116945440D01*
X146490264Y-117086498D01*
X146490261Y-117086510D01*
X146459500Y-117241153D01*
X146459500Y-117398846D01*
X146490261Y-117553489D01*
X146490264Y-117553501D01*
X146550602Y-117699172D01*
X146550609Y-117699185D01*
X146638210Y-117830288D01*
X146642076Y-117834999D01*
X146639937Y-117836753D01*
X146667724Y-117887641D01*
X146668176Y-117938189D01*
X146651339Y-118022838D01*
X146651339Y-118180525D01*
X146682099Y-118335167D01*
X146682102Y-118335177D01*
X146707462Y-118396401D01*
X146714931Y-118465870D01*
X146696005Y-118512741D01*
X146690604Y-118520823D01*
X146630264Y-118666498D01*
X146630261Y-118666510D01*
X146599500Y-118821153D01*
X146599500Y-118978846D01*
X146630261Y-119133489D01*
X146630264Y-119133501D01*
X146690602Y-119279172D01*
X146690609Y-119279185D01*
X146778210Y-119410288D01*
X146778213Y-119410292D01*
X146889707Y-119521786D01*
X146889711Y-119521789D01*
X146951667Y-119563187D01*
X146996472Y-119616799D01*
X147005179Y-119686124D01*
X146975025Y-119749151D01*
X146935764Y-119776938D01*
X146936191Y-119777736D01*
X146930814Y-119780609D01*
X146799711Y-119868210D01*
X146799707Y-119868213D01*
X146688213Y-119979707D01*
X146688210Y-119979711D01*
X146600609Y-120110814D01*
X146600602Y-120110827D01*
X146540264Y-120256498D01*
X146540261Y-120256510D01*
X146509500Y-120411153D01*
X146509500Y-120568846D01*
X146540261Y-120723489D01*
X146540264Y-120723501D01*
X146600602Y-120869172D01*
X146600609Y-120869185D01*
X146688210Y-121000288D01*
X146688213Y-121000292D01*
X146799705Y-121111784D01*
X146802332Y-121113940D01*
X146803338Y-121115417D01*
X146804018Y-121116097D01*
X146803889Y-121116225D01*
X146841668Y-121171685D01*
X146843539Y-121241530D01*
X146807353Y-121301299D01*
X146792561Y-121312896D01*
X146739713Y-121348208D01*
X146739707Y-121348213D01*
X146628213Y-121459707D01*
X146628210Y-121459711D01*
X146540609Y-121590814D01*
X146540602Y-121590827D01*
X146480264Y-121736498D01*
X146480261Y-121736510D01*
X146448311Y-121897132D01*
X146445653Y-121896603D01*
X146423779Y-121950571D01*
X146366691Y-121990855D01*
X146326638Y-121997502D01*
X145367129Y-121997502D01*
X145367123Y-121997503D01*
X145307516Y-122003910D01*
X145172666Y-122054206D01*
X145168922Y-122056251D01*
X145164755Y-122057157D01*
X145164359Y-122057305D01*
X145164337Y-122057248D01*
X145100648Y-122071100D01*
X145035185Y-122046680D01*
X144993316Y-121990744D01*
X144985500Y-121947416D01*
X144985500Y-114749372D01*
X145005185Y-114682333D01*
X145057989Y-114636578D01*
X145127147Y-114626634D01*
X145156950Y-114634811D01*
X145167788Y-114639300D01*
X145201791Y-114653385D01*
X145201794Y-114653385D01*
X145201797Y-114653387D01*
X145201801Y-114653387D01*
X145201802Y-114653388D01*
X145333072Y-114679500D01*
X145333075Y-114679500D01*
X145466927Y-114679500D01*
X145564138Y-114660163D01*
X145598203Y-114653387D01*
X145721864Y-114602165D01*
X145833156Y-114527802D01*
X145927802Y-114433156D01*
X146002165Y-114321864D01*
X146005507Y-114313797D01*
X146041233Y-114227546D01*
X146053387Y-114198203D01*
X146065195Y-114138842D01*
X146079500Y-114066927D01*
X146079500Y-113933072D01*
X146053388Y-113801802D01*
X146053387Y-113801801D01*
X146053387Y-113801797D01*
X146049589Y-113792627D01*
X146002168Y-113678142D01*
X146002161Y-113678129D01*
X145927802Y-113566844D01*
X145927799Y-113566840D01*
X145833159Y-113472200D01*
X145833155Y-113472197D01*
X145721870Y-113397838D01*
X145721857Y-113397831D01*
X145598207Y-113346614D01*
X145598197Y-113346611D01*
X145466927Y-113320500D01*
X145466925Y-113320500D01*
X145333075Y-113320500D01*
X145333073Y-113320500D01*
X145201802Y-113346611D01*
X145201792Y-113346614D01*
X145161950Y-113363117D01*
X145131128Y-113366429D01*
X145100586Y-113371772D01*
X145096685Y-113370132D01*
X145092481Y-113370584D01*
X145064762Y-113356708D01*
X145036178Y-113344689D01*
X145033783Y-113341201D01*
X145030002Y-113339308D01*
X145014182Y-113312644D01*
X144996638Y-113287084D01*
X144995764Y-113281600D01*
X144994351Y-113279218D01*
X144990557Y-113252318D01*
X144990500Y-113250440D01*
X144990500Y-113161007D01*
X144989311Y-113155032D01*
X144987295Y-113144898D01*
X144987164Y-113140559D01*
X144985500Y-113123659D01*
X144985500Y-113102582D01*
X145005185Y-113035543D01*
X145057989Y-112989788D01*
X145127147Y-112979844D01*
X145168937Y-112993755D01*
X145172662Y-112995789D01*
X145172669Y-112995794D01*
X145307517Y-113046089D01*
X145307516Y-113046089D01*
X145314444Y-113046833D01*
X145367127Y-113052498D01*
X146487872Y-113052497D01*
X146547483Y-113046089D01*
X146682331Y-112995794D01*
X146682334Y-112995791D01*
X146689319Y-112991978D01*
X146757592Y-112977124D01*
X146808181Y-112991978D01*
X146815171Y-112995795D01*
X146950017Y-113046089D01*
X146950016Y-113046089D01*
X146956944Y-113046833D01*
X147009627Y-113052498D01*
X148130372Y-113052497D01*
X148189983Y-113046089D01*
X148324831Y-112995794D01*
X148440046Y-112909544D01*
X148526296Y-112794329D01*
X148576591Y-112659481D01*
X148583000Y-112599871D01*
X148582999Y-112557333D01*
X148602682Y-112490296D01*
X148655485Y-112444540D01*
X148724643Y-112434595D01*
X148742998Y-112438674D01*
X148746500Y-112439735D01*
X148746503Y-112439737D01*
X148797606Y-112449902D01*
X148901153Y-112470499D01*
X148901156Y-112470500D01*
X148977944Y-112470500D01*
X149001936Y-112477545D01*
X149026763Y-112480515D01*
X149034881Y-112487218D01*
X149044983Y-112490185D01*
X149061355Y-112509079D01*
X149080639Y-112525003D01*
X149086751Y-112538388D01*
X149090738Y-112542989D01*
X149096058Y-112556751D01*
X149096954Y-112559557D01*
X149129423Y-112680728D01*
X149136773Y-112693458D01*
X149143441Y-112705007D01*
X149208477Y-112817655D01*
X149208481Y-112817660D01*
X149327349Y-112936528D01*
X149327355Y-112936533D01*
X150304181Y-113913359D01*
X150337666Y-113974682D01*
X150340500Y-114001040D01*
X150340500Y-117961953D01*
X150320815Y-118028992D01*
X150268011Y-118074747D01*
X150240692Y-118083570D01*
X150106508Y-118110261D01*
X150106498Y-118110264D01*
X149960827Y-118170602D01*
X149960814Y-118170609D01*
X149829711Y-118258210D01*
X149829707Y-118258213D01*
X149718213Y-118369707D01*
X149718210Y-118369711D01*
X149630609Y-118500814D01*
X149630602Y-118500827D01*
X149570264Y-118646498D01*
X149570261Y-118646510D01*
X149539500Y-118801153D01*
X149539500Y-118958846D01*
X149570261Y-119113489D01*
X149570264Y-119113501D01*
X149630602Y-119259172D01*
X149630609Y-119259185D01*
X149718210Y-119390289D01*
X149719504Y-119391865D01*
X149719923Y-119392851D01*
X149721595Y-119395354D01*
X149721120Y-119395671D01*
X149746817Y-119456175D01*
X149735026Y-119525042D01*
X149687874Y-119576603D01*
X149647843Y-119592147D01*
X149506508Y-119620261D01*
X149506498Y-119620264D01*
X149360827Y-119680602D01*
X149360814Y-119680609D01*
X149229711Y-119768210D01*
X149229707Y-119768213D01*
X149118213Y-119879707D01*
X149118210Y-119879711D01*
X149030609Y-120010814D01*
X149030602Y-120010827D01*
X148970264Y-120156498D01*
X148970261Y-120156510D01*
X148939500Y-120311153D01*
X148939500Y-120468846D01*
X148970261Y-120623489D01*
X148970264Y-120623501D01*
X149030602Y-120769172D01*
X149030609Y-120769185D01*
X149118210Y-120900288D01*
X149118213Y-120900292D01*
X149229707Y-121011786D01*
X149229711Y-121011789D01*
X149360814Y-121099390D01*
X149360827Y-121099397D01*
X149503997Y-121158699D01*
X149506503Y-121159737D01*
X149625967Y-121183500D01*
X149661153Y-121190499D01*
X149661156Y-121190500D01*
X149661158Y-121190500D01*
X149818844Y-121190500D01*
X149818845Y-121190499D01*
X149973497Y-121159737D01*
X150119179Y-121099394D01*
X150137934Y-121086862D01*
X150147609Y-121080398D01*
X150214286Y-121059520D01*
X150281666Y-121078004D01*
X150328357Y-121129983D01*
X150340500Y-121183500D01*
X150340500Y-126091830D01*
X150340499Y-126091848D01*
X150340499Y-126257554D01*
X150340498Y-126257554D01*
X150340499Y-126257557D01*
X150381423Y-126410285D01*
X150381424Y-126410287D01*
X150381423Y-126410287D01*
X150396098Y-126435703D01*
X150396099Y-126435705D01*
X150460475Y-126547209D01*
X150460481Y-126547217D01*
X150579349Y-126666085D01*
X150579355Y-126666090D01*
X151483181Y-127569916D01*
X151516666Y-127631239D01*
X151519500Y-127657597D01*
X151519500Y-128499868D01*
X151519501Y-128499874D01*
X151525908Y-128559481D01*
X151576202Y-128694326D01*
X151576206Y-128694333D01*
X151662452Y-128809542D01*
X151662455Y-128809545D01*
X151777664Y-128895791D01*
X151777671Y-128895795D01*
X151912517Y-128946089D01*
X151912516Y-128946089D01*
X151919444Y-128946833D01*
X151972127Y-128952498D01*
X153092872Y-128952497D01*
X153152483Y-128946089D01*
X153287331Y-128895794D01*
X153287334Y-128895791D01*
X153294319Y-128891978D01*
X153362592Y-128877124D01*
X153413181Y-128891978D01*
X153420171Y-128895795D01*
X153555017Y-128946089D01*
X153555016Y-128946089D01*
X153561944Y-128946833D01*
X153614627Y-128952498D01*
X154735372Y-128952497D01*
X154794983Y-128946089D01*
X154929831Y-128895794D01*
X154929834Y-128895791D01*
X154936819Y-128891978D01*
X155005092Y-128877124D01*
X155055681Y-128891978D01*
X155062671Y-128895795D01*
X155197517Y-128946089D01*
X155197516Y-128946089D01*
X155204444Y-128946833D01*
X155257127Y-128952498D01*
X156377872Y-128952497D01*
X156437483Y-128946089D01*
X156572331Y-128895794D01*
X156572334Y-128895791D01*
X156579319Y-128891978D01*
X156647592Y-128877124D01*
X156698181Y-128891978D01*
X156705171Y-128895795D01*
X156840017Y-128946089D01*
X156840016Y-128946089D01*
X156846944Y-128946833D01*
X156899627Y-128952498D01*
X158020372Y-128952497D01*
X158079983Y-128946089D01*
X158214831Y-128895794D01*
X158214834Y-128895791D01*
X158221819Y-128891978D01*
X158290092Y-128877124D01*
X158340681Y-128891978D01*
X158347671Y-128895795D01*
X158482517Y-128946089D01*
X158482516Y-128946089D01*
X158489444Y-128946833D01*
X158542127Y-128952498D01*
X159662872Y-128952497D01*
X159722483Y-128946089D01*
X159857331Y-128895794D01*
X159972546Y-128809544D01*
X160058796Y-128694329D01*
X160109091Y-128559481D01*
X160115500Y-128499871D01*
X160115499Y-127657597D01*
X160135183Y-127590559D01*
X160151818Y-127569917D01*
X160255668Y-127466067D01*
X160396520Y-127325216D01*
X160475577Y-127188284D01*
X160516501Y-127035557D01*
X160516501Y-126877442D01*
X160516501Y-126869847D01*
X160516500Y-126869829D01*
X160516500Y-114795059D01*
X160516501Y-114795046D01*
X160516501Y-114626945D01*
X160516501Y-114626943D01*
X160475577Y-114474215D01*
X160453537Y-114436041D01*
X160443534Y-114418715D01*
X160443534Y-114418714D01*
X160396524Y-114337290D01*
X160396521Y-114337286D01*
X160396520Y-114337284D01*
X160284716Y-114225480D01*
X160284715Y-114225479D01*
X160280385Y-114221149D01*
X160280374Y-114221139D01*
X155655716Y-109596481D01*
X155622231Y-109535158D01*
X155627215Y-109465466D01*
X155669087Y-109409533D01*
X155674508Y-109405697D01*
X155710289Y-109381789D01*
X155821789Y-109270289D01*
X155909394Y-109139179D01*
X155919616Y-109114500D01*
X155967064Y-108999951D01*
X155979606Y-108984386D01*
X155987912Y-108966200D01*
X156001082Y-108957735D01*
X156010905Y-108945547D01*
X156029872Y-108939234D01*
X156046690Y-108928426D01*
X156074250Y-108924463D01*
X156077199Y-108923482D01*
X156081625Y-108923403D01*
X156188247Y-108923403D01*
X156255286Y-108943088D01*
X156301041Y-108995892D01*
X156302808Y-108999950D01*
X156360476Y-109139175D01*
X156360481Y-109139184D01*
X156448082Y-109270287D01*
X156448085Y-109270291D01*
X156559579Y-109381785D01*
X156559583Y-109381788D01*
X156690686Y-109469389D01*
X156690699Y-109469396D01*
X156814799Y-109520799D01*
X156836375Y-109529736D01*
X156991025Y-109560498D01*
X156991028Y-109560499D01*
X156991030Y-109560499D01*
X157148716Y-109560499D01*
X157148717Y-109560498D01*
X157303369Y-109529736D01*
X157439563Y-109473323D01*
X157449044Y-109469396D01*
X157449044Y-109469395D01*
X157449051Y-109469393D01*
X157580161Y-109381788D01*
X157691661Y-109270288D01*
X157779266Y-109139178D01*
X157839609Y-108993496D01*
X157870372Y-108838841D01*
X157870372Y-108681157D01*
X157870372Y-108681154D01*
X157870371Y-108681152D01*
X157864010Y-108649172D01*
X157839609Y-108526502D01*
X157824732Y-108490586D01*
X157779269Y-108380826D01*
X157779262Y-108380813D01*
X157691661Y-108249710D01*
X157691658Y-108249706D01*
X157580164Y-108138212D01*
X157580160Y-108138209D01*
X157449057Y-108050608D01*
X157443681Y-108047735D01*
X157444460Y-108046277D01*
X157396253Y-108007428D01*
X157374189Y-107941134D01*
X157374110Y-107936760D01*
X157374110Y-107570106D01*
X157374109Y-107570092D01*
X157370182Y-107533569D01*
X157370182Y-107507063D01*
X157374111Y-107470525D01*
X157374110Y-107069980D01*
X157374109Y-107069966D01*
X157370182Y-107033443D01*
X157370182Y-107006937D01*
X157374111Y-106970399D01*
X157374110Y-106569854D01*
X157374109Y-106569837D01*
X157371507Y-106545641D01*
X157367702Y-106510243D01*
X157317407Y-106375395D01*
X157300662Y-106353027D01*
X157294139Y-106344313D01*
X157269720Y-106278849D01*
X157284570Y-106210576D01*
X157294139Y-106195687D01*
X157315400Y-106167287D01*
X157349300Y-106141910D01*
X157373611Y-106117600D01*
X157373611Y-106069780D01*
X157373610Y-106069766D01*
X157369930Y-106035540D01*
X157369275Y-106018541D01*
X157369418Y-106013793D01*
X157374111Y-105970147D01*
X157374110Y-105858363D01*
X157374167Y-105856493D01*
X157384465Y-105824973D01*
X157393796Y-105793196D01*
X157395262Y-105791925D01*
X157395866Y-105790078D01*
X157421566Y-105769132D01*
X157446600Y-105747441D01*
X157448759Y-105746971D01*
X157450027Y-105745938D01*
X157457279Y-105745117D01*
X157498111Y-105736235D01*
X157584579Y-105736235D01*
X157584580Y-105736234D01*
X157739232Y-105705472D01*
X157884914Y-105645129D01*
X158016024Y-105557524D01*
X158035715Y-105537833D01*
X158097037Y-105504346D01*
X158166729Y-105509329D01*
G37*
%TD.AperFunction*%
%TA.AperFunction,Conductor*%
G36*
X173162783Y-105802767D02*
G01*
X173196545Y-105863938D01*
X173199500Y-105890845D01*
X173199500Y-127096519D01*
X173199305Y-127103472D01*
X173182916Y-127395296D01*
X173181359Y-127409114D01*
X173132984Y-127693827D01*
X173129890Y-127707384D01*
X173049939Y-127984899D01*
X173045346Y-127998024D01*
X172934830Y-128264834D01*
X172928797Y-128277362D01*
X172789100Y-128530125D01*
X172781702Y-128541899D01*
X172614584Y-128777430D01*
X172605914Y-128788302D01*
X172413475Y-129003642D01*
X172403642Y-129013475D01*
X172188302Y-129205914D01*
X172177430Y-129214584D01*
X171941899Y-129381702D01*
X171930125Y-129389100D01*
X171677362Y-129528797D01*
X171664834Y-129534830D01*
X171398024Y-129645346D01*
X171384899Y-129649939D01*
X171107384Y-129729890D01*
X171093827Y-129732984D01*
X171062081Y-129738378D01*
X170992692Y-129730201D01*
X170938738Y-129685808D01*
X170917350Y-129619292D01*
X170935319Y-129551773D01*
X170953630Y-129528448D01*
X170991786Y-129490292D01*
X170991789Y-129490289D01*
X171079394Y-129359179D01*
X171139737Y-129213497D01*
X171170500Y-129058842D01*
X171170500Y-128901158D01*
X171164508Y-128871036D01*
X171170734Y-128801446D01*
X171211819Y-128747574D01*
X171222545Y-128739545D01*
X171222547Y-128739542D01*
X171308796Y-128624329D01*
X171359091Y-128489481D01*
X171365500Y-128429871D01*
X171365499Y-126970130D01*
X171359091Y-126910519D01*
X171355788Y-126901664D01*
X171308797Y-126775673D01*
X171308793Y-126775666D01*
X171222547Y-126660457D01*
X171222544Y-126660454D01*
X171107335Y-126574208D01*
X171107328Y-126574204D01*
X170972482Y-126523910D01*
X170972483Y-126523910D01*
X170912883Y-126517503D01*
X170912881Y-126517502D01*
X170912873Y-126517502D01*
X170912864Y-126517502D01*
X169792129Y-126517502D01*
X169792123Y-126517503D01*
X169732516Y-126523910D01*
X169597666Y-126574206D01*
X169590675Y-126578024D01*
X169522402Y-126592875D01*
X169471825Y-126578024D01*
X169464833Y-126574206D01*
X169329982Y-126523910D01*
X169329983Y-126523910D01*
X169270383Y-126517503D01*
X169270381Y-126517502D01*
X169270373Y-126517502D01*
X169270364Y-126517502D01*
X168149629Y-126517502D01*
X168149623Y-126517503D01*
X168090016Y-126523910D01*
X167955166Y-126574206D01*
X167951422Y-126576251D01*
X167947255Y-126577157D01*
X167946859Y-126577305D01*
X167946837Y-126577248D01*
X167883148Y-126591100D01*
X167817685Y-126566680D01*
X167775816Y-126510744D01*
X167768000Y-126467416D01*
X167768000Y-117622582D01*
X167787685Y-117555543D01*
X167840489Y-117509788D01*
X167909647Y-117499844D01*
X167951437Y-117513755D01*
X167955162Y-117515789D01*
X167955169Y-117515794D01*
X168090017Y-117566089D01*
X168090016Y-117566089D01*
X168096944Y-117566833D01*
X168149627Y-117572498D01*
X169270372Y-117572497D01*
X169329983Y-117566089D01*
X169464831Y-117515794D01*
X169464834Y-117515791D01*
X169471819Y-117511978D01*
X169540092Y-117497124D01*
X169590681Y-117511978D01*
X169597671Y-117515795D01*
X169732517Y-117566089D01*
X169732516Y-117566089D01*
X169739444Y-117566833D01*
X169792127Y-117572498D01*
X170912872Y-117572497D01*
X170972483Y-117566089D01*
X171107331Y-117515794D01*
X171222546Y-117429544D01*
X171308796Y-117314329D01*
X171359091Y-117179481D01*
X171365500Y-117119871D01*
X171365499Y-116304971D01*
X171385183Y-116237933D01*
X171437987Y-116192178D01*
X171465305Y-116183355D01*
X171483497Y-116179737D01*
X171629179Y-116119394D01*
X171760289Y-116031789D01*
X171871789Y-115920289D01*
X171959394Y-115789179D01*
X172019737Y-115643497D01*
X172050500Y-115488842D01*
X172050500Y-115331158D01*
X172050500Y-115331155D01*
X172050499Y-115331153D01*
X172047503Y-115316091D01*
X172019737Y-115176503D01*
X171996056Y-115119331D01*
X171959397Y-115030827D01*
X171959390Y-115030814D01*
X171871789Y-114899711D01*
X171871786Y-114899707D01*
X171760292Y-114788213D01*
X171760288Y-114788210D01*
X171629185Y-114700609D01*
X171629172Y-114700602D01*
X171531541Y-114660163D01*
X171477137Y-114616323D01*
X171455072Y-114550028D01*
X171472351Y-114482329D01*
X171491308Y-114457925D01*
X172708506Y-113240728D01*
X172708511Y-113240724D01*
X172718714Y-113230520D01*
X172718716Y-113230520D01*
X172830520Y-113118716D01*
X172909577Y-112981784D01*
X172940466Y-112866503D01*
X172950500Y-112829058D01*
X172950500Y-112670943D01*
X172950500Y-109908443D01*
X172950499Y-109908438D01*
X172950415Y-109908125D01*
X172950384Y-109908010D01*
X172929698Y-109830809D01*
X172921922Y-109801789D01*
X172909577Y-109755716D01*
X172888081Y-109718484D01*
X172830524Y-109618790D01*
X172830521Y-109618786D01*
X172830520Y-109618784D01*
X172718716Y-109506980D01*
X172718715Y-109506979D01*
X172714385Y-109502649D01*
X172714374Y-109502639D01*
X171246818Y-108035083D01*
X171213333Y-107973760D01*
X171210499Y-107947402D01*
X171210499Y-107573330D01*
X171210498Y-107573313D01*
X171200174Y-107472247D01*
X171189726Y-107440718D01*
X171145908Y-107308484D01*
X171145904Y-107308478D01*
X171145903Y-107308475D01*
X171137378Y-107294654D01*
X171118937Y-107227262D01*
X171139859Y-107160598D01*
X171193501Y-107115828D01*
X171206912Y-107110899D01*
X171248164Y-107098386D01*
X171584076Y-106959247D01*
X171904732Y-106787853D01*
X172207044Y-106585854D01*
X172488101Y-106355197D01*
X172745197Y-106098101D01*
X172975854Y-105817044D01*
X172975859Y-105817035D01*
X172975897Y-105816986D01*
X172975908Y-105816976D01*
X172977785Y-105814691D01*
X172978335Y-105815143D01*
X173031640Y-105774861D01*
X173101308Y-105769560D01*
X173162783Y-105802767D01*
G37*
%TD.AperFunction*%
%TA.AperFunction,Conductor*%
G36*
X153413181Y-117581978D02*
G01*
X153420171Y-117585795D01*
X153555017Y-117636089D01*
X153555016Y-117636089D01*
X153561944Y-117636833D01*
X153614627Y-117642498D01*
X154735372Y-117642497D01*
X154794983Y-117636089D01*
X154929831Y-117585794D01*
X154929839Y-117585787D01*
X154933563Y-117583755D01*
X154937730Y-117582847D01*
X154938141Y-117582695D01*
X154938162Y-117582753D01*
X155001835Y-117568897D01*
X155067302Y-117593308D01*
X155109178Y-117649238D01*
X155117000Y-117692582D01*
X155117000Y-126537416D01*
X155097315Y-126604455D01*
X155044511Y-126650210D01*
X154975353Y-126660154D01*
X154933578Y-126646251D01*
X154929833Y-126644206D01*
X154794982Y-126593910D01*
X154794983Y-126593910D01*
X154735383Y-126587503D01*
X154735381Y-126587502D01*
X154735373Y-126587502D01*
X154735365Y-126587502D01*
X153893100Y-126587502D01*
X153826061Y-126567817D01*
X153805419Y-126551183D01*
X152355819Y-125101583D01*
X152322334Y-125040260D01*
X152319500Y-125013902D01*
X152319500Y-117766497D01*
X152339185Y-117699458D01*
X152391989Y-117653703D01*
X152443500Y-117642497D01*
X153092871Y-117642497D01*
X153092872Y-117642497D01*
X153152483Y-117636089D01*
X153287331Y-117585794D01*
X153287334Y-117585791D01*
X153294319Y-117581978D01*
X153362592Y-117567124D01*
X153413181Y-117581978D01*
G37*
%TD.AperFunction*%
%TA.AperFunction,Conductor*%
G36*
X134114173Y-100358789D02*
G01*
X134172758Y-100396862D01*
X134201458Y-100460565D01*
X134191162Y-100529672D01*
X134177899Y-100551897D01*
X134106204Y-100647669D01*
X134106202Y-100647671D01*
X134055908Y-100782517D01*
X134049501Y-100842116D01*
X134049501Y-100842123D01*
X134049500Y-100842135D01*
X134049500Y-101937870D01*
X134049501Y-101937876D01*
X134055908Y-101997483D01*
X134106202Y-102132328D01*
X134106206Y-102132335D01*
X134192452Y-102247544D01*
X134192455Y-102247547D01*
X134307664Y-102333793D01*
X134307671Y-102333797D01*
X134352618Y-102350561D01*
X134442517Y-102384091D01*
X134502127Y-102390500D01*
X135149902Y-102390499D01*
X135179348Y-102399145D01*
X135209329Y-102405667D01*
X135214342Y-102409419D01*
X135216941Y-102410183D01*
X135237583Y-102426818D01*
X135375139Y-102564374D01*
X135375149Y-102564385D01*
X135379479Y-102568715D01*
X135379480Y-102568716D01*
X135491284Y-102680520D01*
X135491286Y-102680521D01*
X135491287Y-102680522D01*
X135532053Y-102704057D01*
X135559223Y-102719744D01*
X135628215Y-102759577D01*
X135736814Y-102788676D01*
X135743469Y-102791313D01*
X135765588Y-102808580D01*
X135789549Y-102823185D01*
X135792757Y-102829789D01*
X135798544Y-102834307D01*
X135807817Y-102860791D01*
X135820078Y-102886032D01*
X135819206Y-102893320D01*
X135821633Y-102900251D01*
X135815113Y-102927550D01*
X135811783Y-102955407D01*
X135805846Y-102966355D01*
X135805404Y-102968210D01*
X135804230Y-102969337D01*
X135800897Y-102975485D01*
X135770612Y-103020809D01*
X135770602Y-103020827D01*
X135710264Y-103166498D01*
X135710261Y-103166510D01*
X135679500Y-103321153D01*
X135679500Y-103478846D01*
X135710261Y-103633489D01*
X135710264Y-103633501D01*
X135770603Y-103779174D01*
X135771025Y-103779963D01*
X135771120Y-103780423D01*
X135772937Y-103784808D01*
X135772105Y-103785152D01*
X135785264Y-103848366D01*
X135760261Y-103913609D01*
X135703954Y-103954978D01*
X135700669Y-103956118D01*
X135570984Y-103999092D01*
X135570981Y-103999093D01*
X135424148Y-104089661D01*
X135302161Y-104211648D01*
X135211593Y-104358481D01*
X135211591Y-104358486D01*
X135198862Y-104396899D01*
X135157326Y-104522247D01*
X135157326Y-104522248D01*
X135157325Y-104522248D01*
X135147000Y-104623315D01*
X135147000Y-104733560D01*
X135127315Y-104800599D01*
X135091892Y-104836661D01*
X135029713Y-104878208D01*
X135029707Y-104878213D01*
X134918213Y-104989707D01*
X134918210Y-104989711D01*
X134830609Y-105120814D01*
X134830602Y-105120827D01*
X134770264Y-105266498D01*
X134770261Y-105266510D01*
X134739500Y-105421153D01*
X134739500Y-105578846D01*
X134770261Y-105733489D01*
X134770264Y-105733501D01*
X134830602Y-105879172D01*
X134830609Y-105879185D01*
X134918210Y-106010288D01*
X134918213Y-106010292D01*
X135029708Y-106121787D01*
X135029711Y-106121789D01*
X135091891Y-106163336D01*
X135136695Y-106216947D01*
X135147000Y-106266438D01*
X135147000Y-106597402D01*
X135127315Y-106664441D01*
X135110681Y-106685083D01*
X134361689Y-107434074D01*
X134300366Y-107467559D01*
X134261863Y-107469797D01*
X134258845Y-107469500D01*
X134258842Y-107469500D01*
X134101158Y-107469500D01*
X134101155Y-107469500D01*
X133946510Y-107500261D01*
X133946498Y-107500264D01*
X133800827Y-107560602D01*
X133800814Y-107560609D01*
X133669711Y-107648210D01*
X133669707Y-107648213D01*
X133558213Y-107759707D01*
X133558210Y-107759711D01*
X133470609Y-107890814D01*
X133470602Y-107890827D01*
X133410264Y-108036498D01*
X133410261Y-108036510D01*
X133379500Y-108191153D01*
X133379500Y-108348846D01*
X133410261Y-108503489D01*
X133410264Y-108503501D01*
X133470602Y-108649172D01*
X133470609Y-108649185D01*
X133558210Y-108780288D01*
X133558213Y-108780292D01*
X133669707Y-108891786D01*
X133669711Y-108891789D01*
X133800814Y-108979390D01*
X133800827Y-108979397D01*
X133929468Y-109032681D01*
X133946503Y-109039737D01*
X134098835Y-109070038D01*
X134101153Y-109070499D01*
X134101156Y-109070500D01*
X134101158Y-109070500D01*
X134258844Y-109070500D01*
X134258845Y-109070499D01*
X134413497Y-109039737D01*
X134559179Y-108979394D01*
X134690289Y-108891789D01*
X134801789Y-108780289D01*
X134889394Y-108649179D01*
X134911307Y-108596273D01*
X134915939Y-108589342D01*
X134917036Y-108584300D01*
X134938184Y-108556049D01*
X134970164Y-108524069D01*
X135031485Y-108490586D01*
X135101177Y-108495570D01*
X135157110Y-108537442D01*
X135175549Y-108572747D01*
X135180751Y-108588444D01*
X135211471Y-108681152D01*
X135211592Y-108681515D01*
X135211593Y-108681518D01*
X135245895Y-108737129D01*
X135300200Y-108825173D01*
X135302161Y-108828351D01*
X135331129Y-108857319D01*
X135364614Y-108918642D01*
X135359630Y-108988334D01*
X135331129Y-109032681D01*
X135302161Y-109061648D01*
X135211593Y-109208481D01*
X135211591Y-109208486D01*
X135195124Y-109258181D01*
X135157326Y-109372247D01*
X135157326Y-109372248D01*
X135157325Y-109372248D01*
X135147000Y-109473315D01*
X135147000Y-110046669D01*
X135147001Y-110046687D01*
X135157325Y-110147752D01*
X135179583Y-110214920D01*
X135202286Y-110283434D01*
X135211592Y-110311515D01*
X135211593Y-110311518D01*
X135229405Y-110340395D01*
X135302160Y-110458350D01*
X135424150Y-110580340D01*
X135570984Y-110670908D01*
X135734747Y-110725174D01*
X135835823Y-110735500D01*
X136209902Y-110735499D01*
X136276941Y-110755183D01*
X136297582Y-110771817D01*
X137876284Y-112350520D01*
X137876286Y-112350521D01*
X137876290Y-112350524D01*
X137985364Y-112413497D01*
X138013216Y-112429577D01*
X138165943Y-112470501D01*
X138165945Y-112470501D01*
X138331654Y-112470501D01*
X138331670Y-112470500D01*
X139863001Y-112470500D01*
X139930040Y-112490185D01*
X139975795Y-112542989D01*
X139987001Y-112594500D01*
X139987001Y-112599874D01*
X139993408Y-112659481D01*
X140043702Y-112794326D01*
X140043706Y-112794333D01*
X140129952Y-112909542D01*
X140129955Y-112909545D01*
X140245164Y-112995791D01*
X140245171Y-112995795D01*
X140380017Y-113046089D01*
X140380016Y-113046089D01*
X140386944Y-113046833D01*
X140439627Y-113052498D01*
X141560372Y-113052497D01*
X141619983Y-113046089D01*
X141754831Y-112995794D01*
X141754834Y-112995791D01*
X141761819Y-112991978D01*
X141830092Y-112977124D01*
X141880681Y-112991978D01*
X141887671Y-112995795D01*
X142022517Y-113046089D01*
X142022516Y-113046089D01*
X142029444Y-113046833D01*
X142082127Y-113052498D01*
X143202872Y-113052497D01*
X143262483Y-113046089D01*
X143397331Y-112995794D01*
X143397339Y-112995787D01*
X143401063Y-112993755D01*
X143405230Y-112992847D01*
X143405641Y-112992695D01*
X143405662Y-112992753D01*
X143469335Y-112978897D01*
X143534802Y-113003308D01*
X143576678Y-113059238D01*
X143584500Y-113102582D01*
X143584500Y-113973480D01*
X143564815Y-114040519D01*
X143548181Y-114061161D01*
X140946868Y-116662473D01*
X140885545Y-116695958D01*
X140815853Y-116690974D01*
X140759920Y-116649102D01*
X140735503Y-116583638D01*
X140737622Y-116550340D01*
X140737638Y-116550263D01*
X140754003Y-116467990D01*
X140754003Y-114952010D01*
X140754003Y-114952007D01*
X140731634Y-114839556D01*
X140729681Y-114829737D01*
X140727083Y-114816674D01*
X140687214Y-114720423D01*
X140674278Y-114689192D01*
X140674277Y-114689190D01*
X140674276Y-114689188D01*
X140597618Y-114574462D01*
X140550955Y-114527799D01*
X140500045Y-114476889D01*
X140336949Y-114313793D01*
X139834735Y-113811577D01*
X139835587Y-113810724D01*
X139815884Y-113788179D01*
X139737840Y-113661650D01*
X139615850Y-113539660D01*
X139469016Y-113449092D01*
X139305253Y-113394826D01*
X139305251Y-113394825D01*
X139204178Y-113384500D01*
X138605830Y-113384500D01*
X138605812Y-113384501D01*
X138504747Y-113394825D01*
X138340984Y-113449092D01*
X138340981Y-113449093D01*
X138194148Y-113539661D01*
X138080181Y-113653629D01*
X138018858Y-113687114D01*
X137949166Y-113682130D01*
X137904819Y-113653629D01*
X137790851Y-113539661D01*
X137790850Y-113539660D01*
X137644016Y-113449092D01*
X137480253Y-113394826D01*
X137480251Y-113394825D01*
X137379178Y-113384500D01*
X136780830Y-113384500D01*
X136780812Y-113384501D01*
X136679747Y-113394825D01*
X136515984Y-113449092D01*
X136515981Y-113449093D01*
X136369148Y-113539661D01*
X136247159Y-113661650D01*
X136179607Y-113771169D01*
X136127659Y-113817893D01*
X136058696Y-113829114D01*
X135994614Y-113801271D01*
X135959508Y-113753523D01*
X135929397Y-113680826D01*
X135929390Y-113680814D01*
X135841789Y-113549711D01*
X135841786Y-113549707D01*
X135730292Y-113438213D01*
X135730288Y-113438210D01*
X135599185Y-113350609D01*
X135599172Y-113350602D01*
X135453501Y-113290264D01*
X135453491Y-113290261D01*
X135310632Y-113261844D01*
X135248721Y-113229459D01*
X135247143Y-113227908D01*
X135027963Y-113008728D01*
X135020521Y-113001286D01*
X135020520Y-113001284D01*
X134908716Y-112889480D01*
X134904134Y-112886835D01*
X134894681Y-112877529D01*
X134881258Y-112853400D01*
X134864978Y-112831103D01*
X134862246Y-112819226D01*
X134860714Y-112816472D01*
X134860908Y-112813410D01*
X134858379Y-112802411D01*
X134858312Y-112801789D01*
X134854091Y-112762517D01*
X134853458Y-112760821D01*
X134803797Y-112627671D01*
X134803793Y-112627664D01*
X134717547Y-112512455D01*
X134717544Y-112512452D01*
X134602335Y-112426206D01*
X134602328Y-112426202D01*
X134467482Y-112375908D01*
X134467483Y-112375908D01*
X134407883Y-112369501D01*
X134407881Y-112369500D01*
X134407873Y-112369500D01*
X134407864Y-112369500D01*
X133312129Y-112369500D01*
X133312123Y-112369501D01*
X133252516Y-112375908D01*
X133117671Y-112426202D01*
X133117664Y-112426206D01*
X133002455Y-112512452D01*
X133002452Y-112512455D01*
X132916206Y-112627664D01*
X132916202Y-112627671D01*
X132865908Y-112762517D01*
X132859501Y-112822116D01*
X132859500Y-112822135D01*
X132859500Y-113917870D01*
X132859501Y-113917876D01*
X132865908Y-113977483D01*
X132916202Y-114112328D01*
X132916206Y-114112335D01*
X133002452Y-114227544D01*
X133002455Y-114227547D01*
X133117664Y-114313793D01*
X133117671Y-114313797D01*
X133252517Y-114364091D01*
X133252516Y-114364091D01*
X133259444Y-114364835D01*
X133312127Y-114370500D01*
X134399572Y-114370499D01*
X134466611Y-114390184D01*
X134507176Y-114434143D01*
X134507221Y-114434114D01*
X134507407Y-114434393D01*
X134508928Y-114436041D01*
X134510605Y-114439179D01*
X134598210Y-114570288D01*
X134598213Y-114570292D01*
X134709707Y-114681786D01*
X134709711Y-114681789D01*
X134840814Y-114769390D01*
X134840827Y-114769397D01*
X134986498Y-114829735D01*
X134986503Y-114829737D01*
X135138101Y-114859892D01*
X135141153Y-114860499D01*
X135141156Y-114860500D01*
X135141158Y-114860500D01*
X135298844Y-114860500D01*
X135298845Y-114860499D01*
X135453497Y-114829737D01*
X135599179Y-114769394D01*
X135730289Y-114681789D01*
X135841789Y-114570289D01*
X135864897Y-114535704D01*
X135918508Y-114490899D01*
X135987833Y-114482190D01*
X136050861Y-114512344D01*
X136087581Y-114571786D01*
X136092000Y-114604591D01*
X136092000Y-114646667D01*
X136092001Y-114646687D01*
X136102325Y-114747752D01*
X136156592Y-114911515D01*
X136156593Y-114911518D01*
X136181567Y-114952007D01*
X136235906Y-115040105D01*
X136247161Y-115058351D01*
X136349948Y-115161138D01*
X136383433Y-115222461D01*
X136378449Y-115292153D01*
X136367806Y-115313916D01*
X136309952Y-115407710D01*
X136309950Y-115407715D01*
X136299418Y-115439500D01*
X136257064Y-115567315D01*
X136257064Y-115567316D01*
X136257063Y-115567316D01*
X136247000Y-115665818D01*
X136247000Y-116274181D01*
X136257063Y-116372683D01*
X136309950Y-116532284D01*
X136309952Y-116532289D01*
X136364079Y-116620042D01*
X136382519Y-116687435D01*
X136361596Y-116754098D01*
X136323638Y-116790677D01*
X136276650Y-116819659D01*
X136154661Y-116941648D01*
X136064093Y-117088481D01*
X136064091Y-117088486D01*
X136053691Y-117119871D01*
X136009826Y-117252247D01*
X136009826Y-117252248D01*
X136009825Y-117252248D01*
X135999500Y-117353315D01*
X135999500Y-117926669D01*
X135999501Y-117926687D01*
X136009825Y-118027752D01*
X136045695Y-118135997D01*
X136060449Y-118180523D01*
X136064092Y-118191515D01*
X136064093Y-118191518D01*
X136098395Y-118247129D01*
X136154660Y-118338350D01*
X136276650Y-118460340D01*
X136328097Y-118492072D01*
X136334920Y-118499657D01*
X136344203Y-118503897D01*
X136357889Y-118525193D01*
X136374821Y-118544017D01*
X136377465Y-118555655D01*
X136381977Y-118562675D01*
X136387000Y-118597610D01*
X136387000Y-118659240D01*
X136380706Y-118698244D01*
X136344564Y-118807313D01*
X136334500Y-118905818D01*
X136334500Y-119514181D01*
X136344563Y-119612683D01*
X136397450Y-119772284D01*
X136397455Y-119772295D01*
X136485716Y-119915387D01*
X136485719Y-119915391D01*
X136604608Y-120034280D01*
X136604612Y-120034283D01*
X136747704Y-120122544D01*
X136747707Y-120122545D01*
X136747713Y-120122549D01*
X136907315Y-120175436D01*
X137005826Y-120185500D01*
X137005831Y-120185500D01*
X137539169Y-120185500D01*
X137539174Y-120185500D01*
X137637685Y-120175436D01*
X137797287Y-120122549D01*
X137940391Y-120034281D01*
X137972319Y-120002353D01*
X138033642Y-119968868D01*
X138103334Y-119973852D01*
X138147681Y-120002353D01*
X138179608Y-120034280D01*
X138179612Y-120034283D01*
X138322704Y-120122544D01*
X138322707Y-120122545D01*
X138322713Y-120122549D01*
X138482315Y-120175436D01*
X138580826Y-120185500D01*
X138580831Y-120185500D01*
X139114169Y-120185500D01*
X139114174Y-120185500D01*
X139212685Y-120175436D01*
X139372287Y-120122549D01*
X139515391Y-120034281D01*
X139634281Y-119915391D01*
X139716152Y-119782656D01*
X139719936Y-119778436D01*
X139721017Y-119775361D01*
X139729895Y-119767327D01*
X139745492Y-119749931D01*
X139752256Y-119744662D01*
X139828716Y-119700520D01*
X139898414Y-119630821D01*
X139904466Y-119626108D01*
X139930105Y-119615982D01*
X139954302Y-119602769D01*
X139968528Y-119600530D01*
X139968827Y-119600500D01*
X139968842Y-119600500D01*
X140123497Y-119569737D01*
X140269179Y-119509394D01*
X140400289Y-119421789D01*
X140511789Y-119310289D01*
X140599394Y-119179179D01*
X140659737Y-119033497D01*
X140676952Y-118946948D01*
X140709336Y-118885040D01*
X140751117Y-118856581D01*
X140889172Y-118799397D01*
X140889172Y-118799396D01*
X140889179Y-118799394D01*
X141020289Y-118711789D01*
X141131789Y-118600289D01*
X141219394Y-118469179D01*
X141219395Y-118469176D01*
X141219397Y-118469173D01*
X141260596Y-118369707D01*
X141279192Y-118324810D01*
X141306069Y-118284586D01*
X143372821Y-116217835D01*
X143434142Y-116184352D01*
X143503834Y-116189336D01*
X143559767Y-116231208D01*
X143584184Y-116296672D01*
X143584500Y-116305518D01*
X143584500Y-121947416D01*
X143564815Y-122014455D01*
X143512011Y-122060210D01*
X143442853Y-122070154D01*
X143401078Y-122056251D01*
X143397333Y-122054206D01*
X143262482Y-122003910D01*
X143262483Y-122003910D01*
X143202883Y-121997503D01*
X143202881Y-121997502D01*
X143202873Y-121997502D01*
X143202864Y-121997502D01*
X142082129Y-121997502D01*
X142082123Y-121997503D01*
X142022516Y-122003910D01*
X141887666Y-122054206D01*
X141880675Y-122058024D01*
X141812402Y-122072875D01*
X141761825Y-122058024D01*
X141754833Y-122054206D01*
X141619982Y-122003910D01*
X141619983Y-122003910D01*
X141560383Y-121997503D01*
X141560381Y-121997502D01*
X141560373Y-121997502D01*
X141560364Y-121997502D01*
X140439629Y-121997502D01*
X140439623Y-121997503D01*
X140380016Y-122003910D01*
X140245171Y-122054204D01*
X140245164Y-122054208D01*
X140129955Y-122140454D01*
X140129952Y-122140457D01*
X140043706Y-122255666D01*
X140043702Y-122255673D01*
X139993408Y-122390519D01*
X139987452Y-122445924D01*
X139987001Y-122450125D01*
X139987000Y-122450137D01*
X139987000Y-122455500D01*
X139967315Y-122522539D01*
X139914511Y-122568294D01*
X139863000Y-122579500D01*
X139382783Y-122579500D01*
X139315744Y-122559815D01*
X139304118Y-122551353D01*
X139300289Y-122548210D01*
X139169185Y-122460609D01*
X139169172Y-122460602D01*
X139023501Y-122400264D01*
X139023489Y-122400261D01*
X138868845Y-122369500D01*
X138868842Y-122369500D01*
X138711158Y-122369500D01*
X138711155Y-122369500D01*
X138556510Y-122400261D01*
X138556498Y-122400264D01*
X138410827Y-122460602D01*
X138410814Y-122460609D01*
X138279711Y-122548210D01*
X138279707Y-122548213D01*
X138168213Y-122659707D01*
X138168210Y-122659711D01*
X138080609Y-122790814D01*
X138080602Y-122790827D01*
X138020264Y-122936498D01*
X138020261Y-122936510D01*
X137989500Y-123091153D01*
X137989500Y-123248846D01*
X138020261Y-123403489D01*
X138020264Y-123403501D01*
X138080602Y-123549171D01*
X138083479Y-123554553D01*
X138081939Y-123555375D01*
X138085437Y-123566547D01*
X138095944Y-123583556D01*
X138095664Y-123599210D01*
X138100342Y-123614150D01*
X138095053Y-123633427D01*
X138094696Y-123653415D01*
X138082676Y-123678537D01*
X138081856Y-123681529D01*
X138079464Y-123685253D01*
X138010834Y-123787963D01*
X137957221Y-123832767D01*
X137887896Y-123841474D01*
X137824869Y-123811319D01*
X137820051Y-123806752D01*
X137818106Y-123804807D01*
X137537049Y-123574150D01*
X137537048Y-123574149D01*
X137537044Y-123574146D01*
X137234732Y-123372147D01*
X137234727Y-123372144D01*
X137234720Y-123372140D01*
X136914083Y-123200756D01*
X136914078Y-123200754D01*
X136578165Y-123061614D01*
X136230223Y-122956067D01*
X136230212Y-122956064D01*
X135873630Y-122885137D01*
X135601111Y-122858296D01*
X135511794Y-122849500D01*
X135148206Y-122849500D01*
X135065679Y-122857628D01*
X134786369Y-122885137D01*
X134429787Y-122956064D01*
X134429776Y-122956067D01*
X134081834Y-123061614D01*
X133745921Y-123200754D01*
X133745916Y-123200756D01*
X133425279Y-123372140D01*
X133425261Y-123372151D01*
X133122964Y-123574140D01*
X133122950Y-123574150D01*
X132841893Y-123804807D01*
X132584807Y-124061893D01*
X132354150Y-124342950D01*
X132354140Y-124342964D01*
X132277602Y-124457511D01*
X132223990Y-124502316D01*
X132154665Y-124511023D01*
X132091637Y-124480868D01*
X132054918Y-124421425D01*
X132050500Y-124388620D01*
X132050500Y-120822127D01*
X132859500Y-120822127D01*
X132859500Y-121917870D01*
X132859501Y-121917876D01*
X132865908Y-121977483D01*
X132916202Y-122112328D01*
X132916206Y-122112335D01*
X133002452Y-122227544D01*
X133002455Y-122227547D01*
X133117664Y-122313793D01*
X133117671Y-122313797D01*
X133252517Y-122364091D01*
X133252516Y-122364091D01*
X133259444Y-122364835D01*
X133312127Y-122370500D01*
X134407872Y-122370499D01*
X134467483Y-122364091D01*
X134602331Y-122313796D01*
X134717546Y-122227546D01*
X134803796Y-122112331D01*
X134824051Y-122058024D01*
X134826609Y-122051167D01*
X134868480Y-121995233D01*
X134933944Y-121970816D01*
X134942791Y-121970500D01*
X135328594Y-121970500D01*
X135395633Y-121990185D01*
X135441388Y-122042989D01*
X135443142Y-122047018D01*
X135448607Y-122060210D01*
X135460605Y-122089178D01*
X135460609Y-122089185D01*
X135548210Y-122220288D01*
X135548213Y-122220292D01*
X135659707Y-122331786D01*
X135659711Y-122331789D01*
X135790814Y-122419390D01*
X135790827Y-122419397D01*
X135936498Y-122479735D01*
X135936503Y-122479737D01*
X136091153Y-122510499D01*
X136091156Y-122510500D01*
X136091158Y-122510500D01*
X136248844Y-122510500D01*
X136248845Y-122510499D01*
X136403497Y-122479737D01*
X136549179Y-122419394D01*
X136680289Y-122331789D01*
X136791789Y-122220289D01*
X136879394Y-122089179D01*
X136939737Y-121943497D01*
X136970500Y-121788842D01*
X136970500Y-121631158D01*
X136970500Y-121631155D01*
X136970499Y-121631153D01*
X136962475Y-121590814D01*
X136939737Y-121476503D01*
X136932780Y-121459707D01*
X136879397Y-121330827D01*
X136879390Y-121330814D01*
X136791789Y-121199711D01*
X136791786Y-121199707D01*
X136680292Y-121088213D01*
X136680288Y-121088210D01*
X136549185Y-121000609D01*
X136549172Y-121000602D01*
X136403501Y-120940264D01*
X136403491Y-120940261D01*
X136244751Y-120908685D01*
X136241461Y-120907444D01*
X136239546Y-120907533D01*
X136231594Y-120903722D01*
X136206798Y-120894371D01*
X136199215Y-120889979D01*
X136198716Y-120889480D01*
X136082058Y-120822128D01*
X136061785Y-120810423D01*
X135909057Y-120769499D01*
X135750943Y-120769499D01*
X135743347Y-120769499D01*
X135743331Y-120769500D01*
X134942791Y-120769500D01*
X134875752Y-120749815D01*
X134829997Y-120697011D01*
X134826609Y-120688833D01*
X134803797Y-120627671D01*
X134803793Y-120627664D01*
X134717547Y-120512455D01*
X134717544Y-120512452D01*
X134602335Y-120426206D01*
X134602328Y-120426202D01*
X134467482Y-120375908D01*
X134467483Y-120375908D01*
X134407883Y-120369501D01*
X134407881Y-120369500D01*
X134407873Y-120369500D01*
X134407864Y-120369500D01*
X133312129Y-120369500D01*
X133312123Y-120369501D01*
X133252516Y-120375908D01*
X133117671Y-120426202D01*
X133117664Y-120426206D01*
X133002455Y-120512452D01*
X133002452Y-120512455D01*
X132916206Y-120627664D01*
X132916202Y-120627671D01*
X132865908Y-120762517D01*
X132859501Y-120822116D01*
X132859500Y-120822127D01*
X132050500Y-120822127D01*
X132050500Y-118330468D01*
X132859500Y-118330468D01*
X132859500Y-119426203D01*
X132859501Y-119426209D01*
X132865908Y-119485816D01*
X132916202Y-119620661D01*
X132916206Y-119620668D01*
X133002452Y-119735877D01*
X133002455Y-119735880D01*
X133117664Y-119822126D01*
X133117671Y-119822130D01*
X133252517Y-119872424D01*
X133252516Y-119872424D01*
X133259444Y-119873168D01*
X133312127Y-119878833D01*
X134403667Y-119878832D01*
X134470706Y-119898517D01*
X134506768Y-119933940D01*
X134537925Y-119980569D01*
X134537930Y-119980575D01*
X134649424Y-120092069D01*
X134649428Y-120092072D01*
X134780531Y-120179673D01*
X134780544Y-120179680D01*
X134926215Y-120240018D01*
X134926220Y-120240020D01*
X135080870Y-120270782D01*
X135080873Y-120270783D01*
X135080875Y-120270783D01*
X135238561Y-120270783D01*
X135238562Y-120270782D01*
X135393214Y-120240020D01*
X135538896Y-120179677D01*
X135670006Y-120092072D01*
X135781506Y-119980572D01*
X135869111Y-119849462D01*
X135929454Y-119703780D01*
X135960217Y-119549125D01*
X135960217Y-119391441D01*
X135960217Y-119391438D01*
X135960216Y-119391436D01*
X135944075Y-119310289D01*
X135929454Y-119236786D01*
X135922752Y-119220606D01*
X135869114Y-119091110D01*
X135869107Y-119091097D01*
X135781506Y-118959994D01*
X135781503Y-118959990D01*
X135670009Y-118848496D01*
X135670005Y-118848493D01*
X135538902Y-118760892D01*
X135538889Y-118760885D01*
X135393218Y-118700547D01*
X135393206Y-118700544D01*
X135237868Y-118669645D01*
X135175957Y-118637260D01*
X135174378Y-118635709D01*
X134936484Y-118397815D01*
X134936482Y-118397813D01*
X134934036Y-118396401D01*
X134917746Y-118386995D01*
X134869531Y-118336428D01*
X134856457Y-118292861D01*
X134854091Y-118270849D01*
X134803797Y-118136004D01*
X134803793Y-118135997D01*
X134717547Y-118020788D01*
X134717544Y-118020785D01*
X134602335Y-117934539D01*
X134602328Y-117934535D01*
X134467482Y-117884241D01*
X134467483Y-117884241D01*
X134407883Y-117877834D01*
X134407881Y-117877833D01*
X134407873Y-117877833D01*
X134407864Y-117877833D01*
X133312129Y-117877833D01*
X133312123Y-117877834D01*
X133252516Y-117884241D01*
X133117671Y-117934535D01*
X133117664Y-117934539D01*
X133002455Y-118020785D01*
X133002452Y-118020788D01*
X132916206Y-118135997D01*
X132916202Y-118136004D01*
X132865908Y-118270850D01*
X132859501Y-118330449D01*
X132859500Y-118330468D01*
X132050500Y-118330468D01*
X132050500Y-115313802D01*
X132859500Y-115313802D01*
X132859500Y-116409537D01*
X132859501Y-116409543D01*
X132865908Y-116469150D01*
X132916202Y-116603995D01*
X132916206Y-116604002D01*
X133002452Y-116719211D01*
X133002455Y-116719214D01*
X133117664Y-116805460D01*
X133117671Y-116805464D01*
X133252517Y-116855758D01*
X133252516Y-116855758D01*
X133259444Y-116856502D01*
X133312127Y-116862167D01*
X134352659Y-116862166D01*
X134419698Y-116881850D01*
X134421550Y-116883064D01*
X134520814Y-116949390D01*
X134520827Y-116949397D01*
X134666498Y-117009735D01*
X134666503Y-117009737D01*
X134821153Y-117040499D01*
X134821156Y-117040500D01*
X134821158Y-117040500D01*
X134978844Y-117040500D01*
X134978845Y-117040499D01*
X135133497Y-117009737D01*
X135279179Y-116949394D01*
X135410289Y-116861789D01*
X135521789Y-116750289D01*
X135609394Y-116619179D01*
X135615681Y-116604002D01*
X135645385Y-116532289D01*
X135669737Y-116473497D01*
X135700500Y-116318842D01*
X135700500Y-116161158D01*
X135700500Y-116161155D01*
X135700499Y-116161153D01*
X135692193Y-116119397D01*
X135669737Y-116006503D01*
X135637929Y-115929711D01*
X135609397Y-115860827D01*
X135609390Y-115860814D01*
X135521789Y-115729711D01*
X135521786Y-115729707D01*
X135410292Y-115618213D01*
X135410288Y-115618210D01*
X135279185Y-115530609D01*
X135279172Y-115530602D01*
X135133501Y-115470264D01*
X135133491Y-115470261D01*
X134978151Y-115439362D01*
X134961394Y-115430596D01*
X134942913Y-115426576D01*
X134917875Y-115407832D01*
X134916241Y-115406977D01*
X134914713Y-115405477D01*
X134895942Y-115386706D01*
X134862459Y-115325382D01*
X134860336Y-115312280D01*
X134858172Y-115292153D01*
X134854967Y-115262334D01*
X134854091Y-115254183D01*
X134803797Y-115119338D01*
X134803793Y-115119331D01*
X134717547Y-115004122D01*
X134717544Y-115004119D01*
X134602335Y-114917873D01*
X134602328Y-114917869D01*
X134467482Y-114867575D01*
X134467483Y-114867575D01*
X134407883Y-114861168D01*
X134407881Y-114861167D01*
X134407873Y-114861167D01*
X134407864Y-114861167D01*
X133312129Y-114861167D01*
X133312123Y-114861168D01*
X133252516Y-114867575D01*
X133117671Y-114917869D01*
X133117664Y-114917873D01*
X133002455Y-115004119D01*
X133002452Y-115004122D01*
X132916206Y-115119331D01*
X132916202Y-115119338D01*
X132865908Y-115254184D01*
X132859501Y-115313783D01*
X132859500Y-115313802D01*
X132050500Y-115313802D01*
X132050500Y-102963480D01*
X132050695Y-102956527D01*
X132054654Y-102886032D01*
X132067084Y-102664691D01*
X132068638Y-102650898D01*
X132117015Y-102366167D01*
X132120109Y-102352615D01*
X132123059Y-102342378D01*
X132200061Y-102075096D01*
X132204653Y-102061975D01*
X132315175Y-101795151D01*
X132321195Y-101782651D01*
X132460902Y-101529868D01*
X132468297Y-101518100D01*
X132472614Y-101512016D01*
X132635422Y-101282559D01*
X132644077Y-101271705D01*
X132836534Y-101056346D01*
X132846346Y-101046534D01*
X133061705Y-100854077D01*
X133072559Y-100845422D01*
X133308105Y-100678293D01*
X133319868Y-100670902D01*
X133572651Y-100531195D01*
X133585151Y-100525175D01*
X133851979Y-100414651D01*
X133865096Y-100410061D01*
X134044305Y-100358432D01*
X134114173Y-100358789D01*
G37*
%TD.AperFunction*%
%TA.AperFunction,Conductor*%
G36*
X169326974Y-108535984D02*
G01*
X169353334Y-108537870D01*
X169362387Y-108543688D01*
X169369427Y-108545220D01*
X169397681Y-108566371D01*
X169511650Y-108680340D01*
X169658484Y-108770908D01*
X169822247Y-108825174D01*
X169923323Y-108835500D01*
X170297402Y-108835499D01*
X170364441Y-108855183D01*
X170385083Y-108871818D01*
X170596584Y-109083319D01*
X170630069Y-109144642D01*
X170625085Y-109214334D01*
X170583213Y-109270267D01*
X170517749Y-109294684D01*
X170508903Y-109295000D01*
X170432500Y-109295000D01*
X170432500Y-110020000D01*
X171219999Y-110020000D01*
X171219999Y-110006096D01*
X171239684Y-109939057D01*
X171292488Y-109893302D01*
X171361646Y-109883358D01*
X171425202Y-109912383D01*
X171431680Y-109918415D01*
X171713181Y-110199916D01*
X171746666Y-110261239D01*
X171749500Y-110287597D01*
X171749500Y-112449902D01*
X171729815Y-112516941D01*
X171713181Y-112537583D01*
X169079580Y-115171183D01*
X169018257Y-115204668D01*
X168991899Y-115207502D01*
X168149629Y-115207502D01*
X168149623Y-115207503D01*
X168090016Y-115213910D01*
X167955166Y-115264206D01*
X167948175Y-115268024D01*
X167879902Y-115282875D01*
X167829325Y-115268024D01*
X167822333Y-115264206D01*
X167687482Y-115213910D01*
X167687483Y-115213910D01*
X167627883Y-115207503D01*
X167627881Y-115207502D01*
X167627873Y-115207502D01*
X167627865Y-115207502D01*
X167096519Y-115207502D01*
X167029480Y-115187817D01*
X167008838Y-115171183D01*
X166292111Y-114454456D01*
X166258626Y-114393133D01*
X166255792Y-114366775D01*
X166255792Y-113525316D01*
X166265231Y-113477864D01*
X166298378Y-113397838D01*
X166325029Y-113333497D01*
X166355792Y-113178842D01*
X166355792Y-113021158D01*
X166355792Y-113021155D01*
X166355791Y-113021153D01*
X166354778Y-113016058D01*
X166325029Y-112866503D01*
X166306651Y-112822135D01*
X166265231Y-112722136D01*
X166255792Y-112674684D01*
X166255792Y-110407434D01*
X166275477Y-110340395D01*
X166328281Y-110294640D01*
X166379792Y-110283434D01*
X167081065Y-110283434D01*
X167081066Y-110283434D01*
X167140677Y-110277026D01*
X167184811Y-110260565D01*
X167252167Y-110235443D01*
X167321858Y-110230459D01*
X167383182Y-110263944D01*
X167416666Y-110325267D01*
X167419500Y-110351624D01*
X167419500Y-110556668D01*
X167419501Y-110556687D01*
X167429825Y-110657752D01*
X167460666Y-110750821D01*
X167484020Y-110821300D01*
X167484092Y-110821515D01*
X167484093Y-110821518D01*
X167506305Y-110857529D01*
X167574660Y-110968350D01*
X167696650Y-111090340D01*
X167843484Y-111180908D01*
X168007247Y-111235174D01*
X168108323Y-111245500D01*
X168806676Y-111245499D01*
X168806684Y-111245498D01*
X168806687Y-111245498D01*
X168862030Y-111239844D01*
X168907753Y-111235174D01*
X169071516Y-111180908D01*
X169218350Y-111090340D01*
X169232671Y-111076018D01*
X169293989Y-111042533D01*
X169363681Y-111047514D01*
X169408034Y-111076017D01*
X169421961Y-111089944D01*
X169421965Y-111089947D01*
X169568688Y-111180448D01*
X169568699Y-111180453D01*
X169732347Y-111234680D01*
X169833351Y-111244999D01*
X170432500Y-111244999D01*
X170531640Y-111244999D01*
X170531654Y-111244998D01*
X170632652Y-111234680D01*
X170796300Y-111180453D01*
X170796311Y-111180448D01*
X170943034Y-111089947D01*
X170943038Y-111089944D01*
X171064944Y-110968038D01*
X171064947Y-110968034D01*
X171155448Y-110821311D01*
X171155453Y-110821300D01*
X171209680Y-110657652D01*
X171219999Y-110556654D01*
X171220000Y-110556641D01*
X171220000Y-110520000D01*
X170432500Y-110520000D01*
X170432500Y-111244999D01*
X169833351Y-111244999D01*
X169932500Y-111244998D01*
X169932500Y-109294999D01*
X169833360Y-109295000D01*
X169833344Y-109295001D01*
X169732347Y-109305319D01*
X169568699Y-109359546D01*
X169568688Y-109359551D01*
X169421965Y-109450052D01*
X169408032Y-109463985D01*
X169346708Y-109497468D01*
X169277016Y-109492482D01*
X169232672Y-109463982D01*
X169218351Y-109449661D01*
X169218350Y-109449660D01*
X169113030Y-109384698D01*
X169071518Y-109359093D01*
X169071513Y-109359091D01*
X169049809Y-109351899D01*
X168907753Y-109304826D01*
X168907751Y-109304825D01*
X168806684Y-109294500D01*
X168806677Y-109294500D01*
X168678736Y-109294500D01*
X168611697Y-109274815D01*
X168591055Y-109258181D01*
X168380055Y-109047180D01*
X168346570Y-108985857D01*
X168351554Y-108916165D01*
X168393426Y-108860232D01*
X168458890Y-108835815D01*
X168467736Y-108835499D01*
X168696670Y-108835499D01*
X168696676Y-108835499D01*
X168797753Y-108825174D01*
X168961516Y-108770908D01*
X169108350Y-108680340D01*
X169222319Y-108566371D01*
X169230264Y-108562032D01*
X169235690Y-108554785D01*
X169260449Y-108545550D01*
X169283642Y-108532886D01*
X169292671Y-108533531D01*
X169301154Y-108530368D01*
X169326974Y-108535984D01*
G37*
%TD.AperFunction*%
%TA.AperFunction,Conductor*%
G36*
X168010422Y-100280185D02*
G01*
X168056177Y-100332989D01*
X168066121Y-100402147D01*
X168037096Y-100465703D01*
X168012274Y-100487602D01*
X167792964Y-100634140D01*
X167792950Y-100634150D01*
X167511893Y-100864807D01*
X167254807Y-101121893D01*
X167024150Y-101402950D01*
X167024140Y-101402964D01*
X166822151Y-101705261D01*
X166822140Y-101705279D01*
X166650756Y-102025916D01*
X166650754Y-102025921D01*
X166511614Y-102361834D01*
X166406067Y-102709776D01*
X166406064Y-102709787D01*
X166335137Y-103066369D01*
X166299500Y-103428209D01*
X166299500Y-103791790D01*
X166335136Y-104153619D01*
X166335139Y-104153636D01*
X166373891Y-104348459D01*
X166367664Y-104418051D01*
X166324800Y-104473228D01*
X166299727Y-104487211D01*
X166170824Y-104540604D01*
X166170814Y-104540609D01*
X166039711Y-104628210D01*
X166039707Y-104628213D01*
X165928213Y-104739707D01*
X165928210Y-104739711D01*
X165840609Y-104870814D01*
X165840602Y-104870827D01*
X165780264Y-105016498D01*
X165780261Y-105016510D01*
X165749500Y-105171153D01*
X165749500Y-105328846D01*
X165777906Y-105471655D01*
X165771679Y-105541247D01*
X165730602Y-105595112D01*
X165697748Y-105619706D01*
X165697745Y-105619710D01*
X165611500Y-105734917D01*
X165611496Y-105734924D01*
X165563378Y-105863938D01*
X165561203Y-105869770D01*
X165554794Y-105929380D01*
X165554794Y-105929387D01*
X165554794Y-105929388D01*
X165554794Y-106240233D01*
X165535109Y-106307272D01*
X165482305Y-106353027D01*
X165466806Y-106358889D01*
X165462473Y-106360203D01*
X165316798Y-106420543D01*
X165316785Y-106420550D01*
X165185682Y-106508151D01*
X165185678Y-106508154D01*
X165074184Y-106619648D01*
X165074177Y-106619657D01*
X165050822Y-106654609D01*
X164997209Y-106699413D01*
X164927884Y-106708119D01*
X164923531Y-106707333D01*
X164828846Y-106688499D01*
X164828842Y-106688499D01*
X164671158Y-106688499D01*
X164671153Y-106688499D01*
X164595784Y-106703491D01*
X164576179Y-106701736D01*
X164556766Y-106704984D01*
X164542096Y-106698687D01*
X164526192Y-106697264D01*
X164510645Y-106685187D01*
X164492562Y-106677425D01*
X164483625Y-106664197D01*
X164471015Y-106654401D01*
X164464466Y-106635836D01*
X164453449Y-106619529D01*
X164449298Y-106592841D01*
X164447771Y-106588511D01*
X164447626Y-106584719D01*
X164447593Y-106583280D01*
X164447593Y-106429507D01*
X164443106Y-106387778D01*
X164442987Y-106382558D01*
X164443665Y-106380036D01*
X164443665Y-106366464D01*
X164447594Y-106329926D01*
X164447593Y-105929381D01*
X164441185Y-105869770D01*
X164421519Y-105817044D01*
X164390891Y-105734924D01*
X164390887Y-105734917D01*
X164304641Y-105619708D01*
X164304638Y-105619705D01*
X164189428Y-105533458D01*
X164189426Y-105533457D01*
X164139309Y-105514764D01*
X164083376Y-105472892D01*
X164058960Y-105407427D01*
X164058644Y-105398583D01*
X164058644Y-104574704D01*
X164058645Y-104574691D01*
X164058645Y-104406588D01*
X164050152Y-104374891D01*
X164017721Y-104253860D01*
X164001833Y-104226341D01*
X163938668Y-104116934D01*
X163938662Y-104116926D01*
X162936912Y-103115176D01*
X162903427Y-103053853D01*
X162900593Y-103027495D01*
X162900593Y-102653424D01*
X162900592Y-102653407D01*
X162890268Y-102552341D01*
X162882877Y-102530038D01*
X162836002Y-102388578D01*
X162745434Y-102241744D01*
X162623444Y-102119754D01*
X162518390Y-102054956D01*
X162476612Y-102029187D01*
X162476607Y-102029185D01*
X162466742Y-102025916D01*
X162312847Y-101974920D01*
X162312845Y-101974919D01*
X162211772Y-101964594D01*
X161613424Y-101964594D01*
X161613406Y-101964595D01*
X161512341Y-101974919D01*
X161512338Y-101974920D01*
X161470502Y-101988784D01*
X161400674Y-101991186D01*
X161340632Y-101955454D01*
X161309439Y-101892934D01*
X161307498Y-101871078D01*
X161307498Y-101801155D01*
X161307497Y-101801153D01*
X161287497Y-101700608D01*
X161276735Y-101646503D01*
X161274149Y-101640260D01*
X161216395Y-101500827D01*
X161216388Y-101500814D01*
X161128787Y-101369711D01*
X161128784Y-101369707D01*
X161017290Y-101258213D01*
X161017286Y-101258210D01*
X160886183Y-101170609D01*
X160886170Y-101170602D01*
X160740499Y-101110264D01*
X160740487Y-101110261D01*
X160585843Y-101079500D01*
X160585840Y-101079500D01*
X160428156Y-101079500D01*
X160428153Y-101079500D01*
X160273508Y-101110261D01*
X160273496Y-101110264D01*
X160127825Y-101170602D01*
X160127812Y-101170609D01*
X159996709Y-101258210D01*
X159996705Y-101258213D01*
X159885211Y-101369707D01*
X159885208Y-101369711D01*
X159797607Y-101500814D01*
X159797600Y-101500827D01*
X159737262Y-101646498D01*
X159737259Y-101646510D01*
X159706498Y-101801153D01*
X159706498Y-101879031D01*
X159686813Y-101946070D01*
X159634009Y-101991825D01*
X159621508Y-101996734D01*
X159533446Y-102025916D01*
X159523578Y-102029186D01*
X159523575Y-102029187D01*
X159376742Y-102119755D01*
X159254755Y-102241742D01*
X159164187Y-102388575D01*
X159164185Y-102388580D01*
X159147447Y-102439092D01*
X159109920Y-102552341D01*
X159109920Y-102552342D01*
X159109919Y-102552342D01*
X159099594Y-102653409D01*
X159099594Y-103226763D01*
X159099595Y-103226781D01*
X159109919Y-103327846D01*
X159116877Y-103348842D01*
X159159956Y-103478846D01*
X159164186Y-103491609D01*
X159164187Y-103491612D01*
X159254755Y-103638445D01*
X159303722Y-103687412D01*
X159337207Y-103748735D01*
X159332223Y-103818427D01*
X159303723Y-103862773D01*
X159234755Y-103931742D01*
X159144187Y-104078575D01*
X159144185Y-104078580D01*
X159120407Y-104150338D01*
X159089920Y-104242341D01*
X159089920Y-104242342D01*
X159089919Y-104242342D01*
X159079594Y-104343409D01*
X159079594Y-104916763D01*
X159079595Y-104916781D01*
X159089919Y-105017846D01*
X159089920Y-105017849D01*
X159127611Y-105131590D01*
X159130013Y-105201418D01*
X159094281Y-105261460D01*
X159031761Y-105292653D01*
X159009906Y-105294594D01*
X158835925Y-105294594D01*
X158835906Y-105294595D01*
X158734841Y-105304919D01*
X158571078Y-105359186D01*
X158571075Y-105359187D01*
X158424244Y-105449754D01*
X158411269Y-105462729D01*
X158349945Y-105496212D01*
X158280253Y-105491226D01*
X158224321Y-105449353D01*
X158199906Y-105383888D01*
X158213344Y-105320769D01*
X158212798Y-105320543D01*
X158214022Y-105317587D01*
X158214236Y-105316583D01*
X158215124Y-105314920D01*
X158215129Y-105314914D01*
X158223546Y-105294595D01*
X158270345Y-105181610D01*
X158275472Y-105169232D01*
X158306235Y-105014577D01*
X158306235Y-104856893D01*
X158306235Y-104856890D01*
X158306234Y-104856888D01*
X158281702Y-104733560D01*
X158275472Y-104702238D01*
X158244810Y-104628213D01*
X158215132Y-104556562D01*
X158215125Y-104556549D01*
X158127524Y-104425446D01*
X158127521Y-104425442D01*
X158016024Y-104313945D01*
X157964143Y-104279280D01*
X157919338Y-104225668D01*
X157910631Y-104156343D01*
X157927493Y-104111084D01*
X157999469Y-103994394D01*
X158053735Y-103830631D01*
X158064061Y-103729555D01*
X158064060Y-103031202D01*
X158063681Y-103027495D01*
X158053735Y-102930125D01*
X158050525Y-102920438D01*
X157999469Y-102766362D01*
X157908901Y-102619528D01*
X157894578Y-102605205D01*
X157861093Y-102543882D01*
X157866077Y-102474190D01*
X157894582Y-102429838D01*
X157908508Y-102415913D01*
X157999009Y-102269189D01*
X157999014Y-102269178D01*
X158053241Y-102105530D01*
X158063560Y-102004532D01*
X158063561Y-102004519D01*
X158063561Y-101905378D01*
X156946719Y-101905378D01*
X156879680Y-101885693D01*
X156859042Y-101869063D01*
X156778189Y-101788210D01*
X156778188Y-101788209D01*
X156778187Y-101788208D01*
X156647085Y-101700608D01*
X156647072Y-101700601D01*
X156510275Y-101643939D01*
X156455871Y-101600098D01*
X156433806Y-101533804D01*
X156451085Y-101466105D01*
X156502222Y-101418494D01*
X156557727Y-101405378D01*
X156838561Y-101405378D01*
X157338561Y-101405378D01*
X158063560Y-101405378D01*
X158063560Y-101306238D01*
X158063559Y-101306223D01*
X158053241Y-101205225D01*
X157999014Y-101041577D01*
X157999009Y-101041566D01*
X157908508Y-100894843D01*
X157908505Y-100894839D01*
X157786599Y-100772933D01*
X157786595Y-100772930D01*
X157639872Y-100682429D01*
X157639861Y-100682424D01*
X157476213Y-100628197D01*
X157375215Y-100617878D01*
X157338561Y-100617878D01*
X157338561Y-101405378D01*
X156838561Y-101405378D01*
X156838561Y-100617878D01*
X156801922Y-100617878D01*
X156801904Y-100617879D01*
X156700908Y-100628197D01*
X156537260Y-100682424D01*
X156537249Y-100682429D01*
X156390526Y-100772930D01*
X156390522Y-100772933D01*
X156268616Y-100894839D01*
X156268613Y-100894843D01*
X156178112Y-101041566D01*
X156178107Y-101041577D01*
X156123880Y-101205225D01*
X156113561Y-101306223D01*
X156113561Y-101405378D01*
X156132302Y-101424119D01*
X156165787Y-101485442D01*
X156160803Y-101555134D01*
X156118931Y-101611067D01*
X156068813Y-101633417D01*
X156034408Y-101640260D01*
X156034398Y-101640263D01*
X155888727Y-101700601D01*
X155888714Y-101700608D01*
X155757611Y-101788209D01*
X155757607Y-101788212D01*
X155646113Y-101899706D01*
X155646110Y-101899710D01*
X155558509Y-102030813D01*
X155558504Y-102030822D01*
X155497405Y-102178331D01*
X155453564Y-102232734D01*
X155387270Y-102254799D01*
X155382844Y-102254878D01*
X155131892Y-102254878D01*
X155131873Y-102254879D01*
X155030808Y-102265203D01*
X154867045Y-102319470D01*
X154867042Y-102319471D01*
X154720209Y-102410039D01*
X154606242Y-102524007D01*
X154544919Y-102557492D01*
X154475227Y-102552508D01*
X154430880Y-102524007D01*
X154316912Y-102410039D01*
X154316911Y-102410038D01*
X154207040Y-102342269D01*
X154160317Y-102290322D01*
X154149094Y-102221359D01*
X154150494Y-102212705D01*
X154150500Y-102212647D01*
X154150500Y-102054958D01*
X154150499Y-102054956D01*
X154144724Y-102025924D01*
X154119737Y-101900306D01*
X154119490Y-101899710D01*
X154059397Y-101754630D01*
X154059390Y-101754617D01*
X153971789Y-101623514D01*
X153971786Y-101623510D01*
X153860292Y-101512016D01*
X153860288Y-101512013D01*
X153729185Y-101424412D01*
X153729172Y-101424405D01*
X153583501Y-101364067D01*
X153583489Y-101364064D01*
X153428845Y-101333303D01*
X153428842Y-101333303D01*
X153271158Y-101333303D01*
X153271155Y-101333303D01*
X153116510Y-101364064D01*
X153116503Y-101364066D01*
X153089643Y-101375191D01*
X153020173Y-101382657D01*
X152957695Y-101351380D01*
X152924488Y-101299632D01*
X152916952Y-101276889D01*
X152884469Y-101178862D01*
X152793901Y-101032028D01*
X152671911Y-100910038D01*
X152561813Y-100842129D01*
X152525079Y-100819471D01*
X152525074Y-100819469D01*
X152504091Y-100812516D01*
X152361314Y-100765204D01*
X152361312Y-100765203D01*
X152260245Y-100754878D01*
X151677279Y-100754878D01*
X151610240Y-100735193D01*
X151589598Y-100718559D01*
X151515823Y-100644784D01*
X151515819Y-100644781D01*
X151384716Y-100557180D01*
X151384703Y-100557173D01*
X151244405Y-100499061D01*
X151190001Y-100455221D01*
X151167936Y-100388926D01*
X151185215Y-100321227D01*
X151236352Y-100273616D01*
X151291857Y-100260500D01*
X167943383Y-100260500D01*
X168010422Y-100280185D01*
G37*
%TD.AperFunction*%
%TA.AperFunction,Conductor*%
G36*
X150786244Y-100280185D02*
G01*
X150831999Y-100332989D01*
X150841943Y-100402147D01*
X150812918Y-100465703D01*
X150766657Y-100499061D01*
X150626358Y-100557173D01*
X150626346Y-100557180D01*
X150495240Y-100644783D01*
X150480293Y-100659730D01*
X150472565Y-100664820D01*
X150469144Y-100669612D01*
X150453170Y-100677595D01*
X150438557Y-100687221D01*
X150431764Y-100689930D01*
X150368083Y-100706994D01*
X150329102Y-100729500D01*
X150321357Y-100733971D01*
X150321353Y-100733973D01*
X150313916Y-100738267D01*
X150251919Y-100754878D01*
X149836891Y-100754878D01*
X149836873Y-100754879D01*
X149735808Y-100765203D01*
X149735798Y-100765206D01*
X149662976Y-100789336D01*
X149593148Y-100791737D01*
X149555083Y-100774732D01*
X149429185Y-100690609D01*
X149429172Y-100690602D01*
X149283501Y-100630264D01*
X149283489Y-100630261D01*
X149128845Y-100599500D01*
X149128842Y-100599500D01*
X148971158Y-100599500D01*
X148971155Y-100599500D01*
X148816510Y-100630261D01*
X148816498Y-100630264D01*
X148670827Y-100690602D01*
X148670814Y-100690609D01*
X148539711Y-100778210D01*
X148539707Y-100778213D01*
X148428213Y-100889707D01*
X148428210Y-100889711D01*
X148340609Y-101020814D01*
X148340602Y-101020827D01*
X148280264Y-101166498D01*
X148280261Y-101166510D01*
X148249500Y-101321153D01*
X148249500Y-101478846D01*
X148280261Y-101633489D01*
X148280264Y-101633501D01*
X148340602Y-101779172D01*
X148340609Y-101779185D01*
X148428210Y-101910288D01*
X148428213Y-101910292D01*
X148459241Y-101941319D01*
X148492727Y-102002641D01*
X148495561Y-102029001D01*
X148495561Y-102688830D01*
X148475876Y-102755869D01*
X148423072Y-102801624D01*
X148353914Y-102811568D01*
X148290358Y-102782543D01*
X148283880Y-102776511D01*
X147689724Y-102182355D01*
X147689722Y-102182352D01*
X147570851Y-102063481D01*
X147570850Y-102063480D01*
X147484038Y-102013360D01*
X147484038Y-102013359D01*
X147484034Y-102013358D01*
X147433919Y-101984423D01*
X147281191Y-101943499D01*
X147123077Y-101943499D01*
X147115481Y-101943499D01*
X147115465Y-101943500D01*
X145747754Y-101943500D01*
X145680715Y-101923815D01*
X145634960Y-101871011D01*
X145625016Y-101801853D01*
X145637151Y-101764844D01*
X145637063Y-101764808D01*
X145637543Y-101763648D01*
X145638397Y-101761045D01*
X145639395Y-101759177D01*
X145668170Y-101689707D01*
X145699737Y-101613497D01*
X145730500Y-101458842D01*
X145730500Y-101301158D01*
X145730500Y-101301155D01*
X145730499Y-101301153D01*
X145726802Y-101282569D01*
X145699737Y-101146503D01*
X145689543Y-101121893D01*
X145639397Y-101000827D01*
X145639390Y-101000814D01*
X145551789Y-100869711D01*
X145551786Y-100869707D01*
X145440292Y-100758213D01*
X145440288Y-100758210D01*
X145309185Y-100670609D01*
X145309172Y-100670602D01*
X145163501Y-100610264D01*
X145163489Y-100610261D01*
X145008845Y-100579500D01*
X145008842Y-100579500D01*
X144851158Y-100579500D01*
X144851155Y-100579500D01*
X144696510Y-100610261D01*
X144696498Y-100610264D01*
X144550827Y-100670602D01*
X144550816Y-100670608D01*
X144499187Y-100705106D01*
X144432510Y-100725983D01*
X144365130Y-100707498D01*
X144318440Y-100655519D01*
X144314114Y-100645334D01*
X144313908Y-100644783D01*
X144303796Y-100617669D01*
X144303793Y-100617664D01*
X144217547Y-100502455D01*
X144213013Y-100499061D01*
X144192581Y-100483765D01*
X144150712Y-100427832D01*
X144145728Y-100358140D01*
X144179214Y-100296818D01*
X144240538Y-100263333D01*
X144266894Y-100260500D01*
X150719205Y-100260500D01*
X150786244Y-100280185D01*
G37*
%TD.AperFunction*%
%TD*%
M02*
