M48
; DRILL file {KiCad 9.0.5} date 2025-10-11T15:36:00-0500
; FORMAT={-:-/ absolute / inch / decimal}
; #@! TF.CreationDate,2025-10-11T15:36:00-05:00
; #@! TF.GenerationSoftware,Kicad,Pcbnew,9.0.5
; #@! TF.FileFunction,Plated,1,2,PTH
FMAT,2
INCH
; #@! TA.AperFunction,Plated,PTH,ViaDrill
T1C0.0118
; #@! TA.AperFunction,Plated,PTH,ComponentDrill
T2C0.0394
%
G90
G05
T1
X3.4882Y-3.1732
X3.4882Y-3.1969
X3.4882Y-3.2205
X3.4882Y-3.7717
X3.4882Y-3.7953
X3.4882Y-3.8189
X3.5118Y-3.1732
X3.5118Y-3.1969
X3.5118Y-3.2205
X3.5118Y-3.7717
X3.5118Y-3.7953
X3.5118Y-3.8189
X3.5354Y-3.1732
X3.5354Y-3.1969
X3.5354Y-3.2205
X3.5354Y-3.7717
X3.5354Y-3.7953
X3.5354Y-3.8189
X3.5433Y-2.9449
X3.5472Y-4.4055
X3.5512Y-2.8583
X3.5821Y-3.0551
X3.6299Y-3.2362
X3.6693Y-3.1024
X3.6699Y-2.9738
X3.7008Y-4.5276
X3.7008Y-4.5512
X3.7008Y-4.5748
X3.7244Y-2.8856
X3.7244Y-3.1102
X3.7244Y-4.5276
X3.7244Y-4.5512
X3.7244Y-4.5748
X3.7323Y-2.788
X3.748Y-4.5276
X3.748Y-4.5512
X3.748Y-4.5748
X3.7559Y-2.988
X3.7717Y-3.2362
X3.8268Y-4.1339
X3.8661Y-3.5669
X3.8976Y-4.2362
X3.937Y-4.6457
X3.9685Y-3.4409
X3.9881Y-2.815
X3.9881Y-3.0054
X4.0Y-4.1811
X4.0157Y-2.6693
X4.0157Y-2.8661
X4.0157Y-3.685
X4.0157Y-4.315
X4.0551Y-4.4724
X4.0866Y-4.5197
X4.126Y-3.5591
X4.1417Y-4.0394
X4.1811Y-4.1811
X4.189Y-4.3937
X4.2116Y-3.2844
X4.2259Y-4.2417
X4.2283Y-2.8583
X4.2441Y-4.063
X4.2441Y-4.4724
X4.2441Y-4.7244
X4.2598Y-2.9055
X4.2598Y-4.1024
X4.2598Y-4.3307
X4.2618Y-4.1811
X4.2835Y-4.4173
X4.2913Y-3.4331
X4.3228Y-2.8583
X4.3228Y-3.5827
X4.3386Y-3.126
X4.3386Y-3.2283
X4.3543Y-3.0315
X4.3588Y-2.9204
X4.3622Y-3.4331
X4.3701Y-4.3543
X4.378Y-3.8425
X4.3858Y-2.748
X4.3937Y-3.6614
X4.4173Y-4.0079
X4.4201Y-2.8777
X4.4331Y-3.0827
X4.4331Y-3.1732
X4.4331Y-3.5748
X4.4331Y-4.1339
X4.4409Y-3.7953
X4.4705Y-3.7146
X4.4724Y-2.5591
X4.4724Y-2.5827
X4.4724Y-2.6063
X4.4803Y-4.1811
X4.4882Y-2.7874
X4.4926Y-2.9763
X4.4961Y-2.5591
X4.4961Y-2.5827
X4.4961Y-2.6063
X4.5016Y-3.1969
X4.5039Y-3.4488
X4.5197Y-2.5591
X4.5197Y-2.5827
X4.5197Y-2.6063
X4.5276Y-3.7087
X4.5291Y-3.2441
X4.5512Y-3.6772
X4.5827Y-3.1654
X4.5827Y-3.8583
X4.5906Y-3.6378
X4.6291Y-3.5197
X4.6299Y-3.8661
X4.6772Y-3.6693
X4.6929Y-2.8898
X4.6929Y-3.0394
X4.7291Y-3.9102
X4.7323Y-3.2126
X4.748Y-2.8898
X4.748Y-3.4252
X4.7638Y-3.0787
X4.7717Y-3.2598
X4.7717Y-3.8976
X4.7795Y-4.0157
X4.81Y-4.1171
X4.811Y-2.8343
X4.811Y-3.8583
X4.8264Y-4.5521
X4.8346Y-3.8189
X4.8583Y-3.6535
X4.8661Y-3.874
X4.8819Y-4.063
X4.8819Y-4.2598
X4.8819Y-4.4331
X4.8956Y-4.0159
X4.8957Y-3.502
X4.8976Y-2.8504
X4.8976Y-4.1575
X4.9134Y-2.9606
X4.9153Y-4.063
X4.9243Y-3.0
X4.9291Y-4.3307
X4.937Y-2.8583
X4.9449Y-3.9055
X4.9528Y-4.063
X4.9685Y-3.626
X4.9794Y-2.9931
X4.9843Y-3.4646
X4.9912Y-4.0639
X4.9921Y-3.8661
X5.0Y-2.9606
X5.0074Y-3.9996
X5.0157Y-3.0315
X5.0157Y-4.6535
X5.0197Y-4.2756
X5.0236Y-3.8504
X5.0315Y-2.8425
X5.0394Y-3.626
X5.0451Y-3.9034
X5.0787Y-3.4173
X5.0866Y-2.9291
X5.0866Y-3.8583
X5.0866Y-3.9921
X5.0945Y-3.063
X5.1024Y-4.1496
X5.1102Y-4.3071
X5.1339Y-3.063
X5.1349Y-4.4506
X5.1496Y-3.8661
X5.1584Y-4.4715
X5.1672Y-2.981
X5.2047Y-3.1575
X5.2126Y-2.8
X5.2205Y-2.8976
X5.2362Y-3.4331
X5.2473Y-4.3307
X5.2677Y-4.6299
X5.2756Y-3.1575
X5.2756Y-3.3701
X5.2913Y-4.0551
X5.2943Y-3.0971
X5.315Y-4.3071
X5.315Y-4.5173
X5.3159Y-3.1575
X5.3543Y-4.4567
X5.3604Y-4.524
X5.3622Y-3.1811
X5.3701Y-4.3858
X5.378Y-3.3071
X5.4016Y-3.5906
X5.4331Y-3.6063
X5.4409Y-2.7874
X5.4409Y-2.8661
X5.4409Y-3.0551
X5.4646Y-3.2047
X5.4646Y-3.874
X5.4724Y-4.6535
X5.4724Y-4.7087
X5.4803Y-2.874
X5.5433Y-3.874
X5.5669Y-4.2835
X5.5669Y-4.378
X5.6063Y-2.7874
X5.6063Y-3.0472
X5.6299Y-4.7205
X5.6677Y-4.3307
X5.6772Y-2.9134
X5.6772Y-3.0866
X5.6811Y-3.2717
X5.7402Y-4.1811
X5.7559Y-2.9273
X5.7795Y-2.9746
X5.7795Y-4.4252
X5.811Y-2.7244
X5.811Y-3.063
X5.811Y-4.2362
X5.8819Y-2.7795
X5.8819Y-3.2677
X5.9085Y-3.3435
X5.9134Y-2.9051
X5.9252Y-4.7047
X5.9291Y-3.2756
X5.937Y-4.4961
X5.9449Y-3.8268
X5.9449Y-4.748
X5.9528Y-2.8898
X5.9764Y-2.5748
X5.9764Y-2.5984
X5.9764Y-2.622
X5.9843Y-3.1339
X5.9843Y-3.2756
X6.0Y-2.5748
X6.0Y-2.5984
X6.0Y-2.622
X6.0157Y-3.2047
X6.0236Y-2.5748
X6.0236Y-2.5984
X6.0236Y-2.622
X6.0236Y-4.4523
X6.0472Y-3.5354
X6.0472Y-3.7008
X6.1811Y-3.0551
X6.2126Y-4.6142
X6.2126Y-4.6378
X6.2126Y-4.6614
X6.2205Y-2.7953
X6.2362Y-3.1811
X6.2362Y-4.6142
X6.2362Y-4.6378
X6.2362Y-4.6614
X6.2598Y-4.6142
X6.2598Y-4.6378
X6.2598Y-4.6614
X6.3132Y-3.2179
X6.3189Y-2.8937
X6.3307Y-3.2441
X6.3307Y-3.3622
X6.3307Y-3.3858
X6.3543Y-3.3543
X6.3543Y-3.378
X6.3543Y-3.4016
X6.378Y-2.874
X6.378Y-3.378
X6.378Y-3.4016
X6.378Y-3.4252
X6.4016Y-3.3543
X6.4016Y-3.378
X6.4016Y-3.4016
X6.4252Y-3.3622
X6.4252Y-3.3858
X6.4409Y-2.9291
X6.622Y-3.8504
X6.622Y-3.874
X6.622Y-3.8976
X6.6457Y-3.8504
X6.6457Y-3.874
X6.6457Y-3.8976
X6.6693Y-3.8504
X6.6693Y-3.874
X6.6693Y-3.8976
T2
X4.1291Y-3.3528
X4.1291Y-3.9528
X4.2291Y-3.3528
X4.2291Y-3.9528
X4.3291Y-3.3528
X4.3291Y-3.9528
X4.4291Y-3.3528
X4.4291Y-3.9528
X4.5291Y-3.3528
X4.5291Y-3.9528
X4.6291Y-3.3528
X4.6291Y-3.9528
X4.7291Y-3.3528
X4.7291Y-3.9528
X4.8291Y-3.3528
X4.8291Y-3.9528
X4.9291Y-3.3528
X4.9291Y-3.9528
X5.0291Y-3.3528
X5.0291Y-3.9528
X5.1291Y-3.3528
X5.1291Y-3.9528
X5.2291Y-3.3528
X5.2291Y-3.9528
X5.3291Y-3.3528
X5.3291Y-3.9528
X5.4291Y-3.3528
X5.4291Y-3.9528
X5.5291Y-3.3528
X5.5291Y-3.9528
X5.6291Y-3.3528
X5.6291Y-3.9528
X5.7291Y-3.3528
X5.7291Y-3.9528
X5.8291Y-3.3528
X5.8291Y-3.9528
M30
