%TF.GenerationSoftware,KiCad,Pcbnew,9.0.6*%
%TF.CreationDate,2026-02-28T22:35:36-06:00*%
%TF.ProjectId,Supplemental Monitoring PCB,53757070-6c65-46d6-956e-74616c204d6f,rev?*%
%TF.SameCoordinates,Original*%
%TF.FileFunction,Soldermask,Bot*%
%TF.FilePolarity,Negative*%
%FSLAX46Y46*%
G04 Gerber Fmt 4.6, Leading zero omitted, Abs format (unit mm)*
G04 Created by KiCad (PCBNEW 9.0.6) date 2026-02-28 22:35:36*
%MOMM*%
%LPD*%
G01*
G04 APERTURE LIST*
G04 Aperture macros list*
%AMRoundRect*
0 Rectangle with rounded corners*
0 $1 Rounding radius*
0 $2 $3 $4 $5 $6 $7 $8 $9 X,Y pos of 4 corners*
0 Add a 4 corners polygon primitive as box body*
4,1,4,$2,$3,$4,$5,$6,$7,$8,$9,$2,$3,0*
0 Add four circle primitives for the rounded corners*
1,1,$1+$1,$2,$3*
1,1,$1+$1,$4,$5*
1,1,$1+$1,$6,$7*
1,1,$1+$1,$8,$9*
0 Add four rect primitives between the rounded corners*
20,1,$1+$1,$2,$3,$4,$5,0*
20,1,$1+$1,$4,$5,$6,$7,0*
20,1,$1+$1,$6,$7,$8,$9,0*
20,1,$1+$1,$8,$9,$2,$3,0*%
G04 Aperture macros list end*
%ADD10R,1.700000X1.700000*%
%ADD11C,1.700000*%
%ADD12C,2.000000*%
%ADD13C,3.600000*%
%ADD14C,6.400000*%
%ADD15RoundRect,0.237500X-0.237500X0.250000X-0.237500X-0.250000X0.237500X-0.250000X0.237500X0.250000X0*%
%ADD16RoundRect,0.237500X-0.237500X0.300000X-0.237500X-0.300000X0.237500X-0.300000X0.237500X0.300000X0*%
%ADD17R,0.977900X0.304800*%
%ADD18RoundRect,0.237500X0.237500X-0.250000X0.237500X0.250000X-0.237500X0.250000X-0.237500X-0.250000X0*%
%ADD19C,0.850000*%
%ADD20R,1.500000X0.550000*%
G04 APERTURE END LIST*
D10*
%TO.C,J1*%
X214210000Y-53100000D03*
D11*
X211670000Y-53100000D03*
X209130000Y-53100000D03*
X206590000Y-53100000D03*
%TD*%
D12*
%TO.C,BATT_HALL_OUT1*%
X210250000Y-32750000D03*
%TD*%
%TO.C,SUPP_BATT_SNS1*%
X195500000Y-30500000D03*
%TD*%
%TO.C,BATT_HALL_IN1*%
X195250000Y-46000000D03*
%TD*%
D13*
%TO.C,H2*%
X197025000Y-51365000D03*
D14*
X197025000Y-51365000D03*
%TD*%
D12*
%TO.C,GND1*%
X203000000Y-53000000D03*
%TD*%
%TO.C,REG_HALL_IN1*%
X195250000Y-39500000D03*
%TD*%
%TO.C,SUPP_REG1*%
X195300000Y-36300000D03*
%TD*%
D13*
%TO.C,H1*%
X231725000Y-28275000D03*
D14*
X231725000Y-28275000D03*
%TD*%
D12*
%TO.C,SUPP_BATT1*%
X195250000Y-42750000D03*
%TD*%
%TO.C,REG_HALL_OUT1*%
X225250000Y-35000000D03*
%TD*%
%TO.C,TP_3V3*%
X230500000Y-52500000D03*
%TD*%
%TO.C,SUPP_REG_SNS1*%
X204750000Y-28000000D03*
%TD*%
D15*
%TO.C,R16*%
X203000000Y-34087500D03*
X203000000Y-35912500D03*
%TD*%
%TO.C,R13*%
X232162500Y-48466450D03*
X232162500Y-50291450D03*
%TD*%
D16*
%TO.C,C2*%
X203075000Y-30572500D03*
X203075000Y-32297500D03*
%TD*%
D15*
%TO.C,R38*%
X215000000Y-38587500D03*
X215000000Y-40412500D03*
%TD*%
%TO.C,R11*%
X227162500Y-48466450D03*
X227162500Y-50291450D03*
%TD*%
%TO.C,R19*%
X228662500Y-38837500D03*
X228662500Y-40662500D03*
%TD*%
%TO.C,R9*%
X223401000Y-38587500D03*
X223401000Y-40412500D03*
%TD*%
%TO.C,R15*%
X198000000Y-33587500D03*
X198000000Y-35412500D03*
%TD*%
%TO.C,R41*%
X216750000Y-48337500D03*
X216750000Y-50162500D03*
%TD*%
D17*
%TO.C,U8*%
X232027500Y-42628824D03*
X232027500Y-43128950D03*
X232027500Y-43629076D03*
X232027500Y-44129202D03*
X232027500Y-44629328D03*
X232027500Y-45129454D03*
X232027500Y-45629580D03*
X232027500Y-46129706D03*
X228941400Y-46129706D03*
X228941400Y-45629580D03*
X228941400Y-45129454D03*
X228941400Y-44629328D03*
X228941400Y-44129202D03*
X228941400Y-43629076D03*
X228941400Y-43128950D03*
X228941400Y-42628824D03*
%TD*%
D15*
%TO.C,R40*%
X216750000Y-38587500D03*
X216750000Y-40412500D03*
%TD*%
%TO.C,R7*%
X218651000Y-38708550D03*
X218651000Y-40533550D03*
%TD*%
%TO.C,R3*%
X218651000Y-48337500D03*
X218651000Y-50162500D03*
%TD*%
D18*
%TO.C,R17*%
X204750000Y-35912500D03*
X204750000Y-34087500D03*
%TD*%
D15*
%TO.C,R21*%
X233662500Y-38716450D03*
X233662500Y-40541450D03*
%TD*%
%TO.C,R18*%
X227162500Y-38837500D03*
X227162500Y-40662500D03*
%TD*%
D18*
%TO.C,R2*%
X200000000Y-35412500D03*
X200000000Y-33587500D03*
%TD*%
D15*
%TO.C,R5*%
X223651000Y-48337500D03*
X223651000Y-50162500D03*
%TD*%
%TO.C,R34*%
X210250000Y-38708550D03*
X210250000Y-40533550D03*
%TD*%
%TO.C,R14*%
X233662500Y-48466450D03*
X233662500Y-50291450D03*
%TD*%
%TO.C,R20*%
X231912500Y-38716450D03*
X231912500Y-40541450D03*
%TD*%
%TO.C,R12*%
X228662500Y-48466450D03*
X228662500Y-50291450D03*
%TD*%
%TO.C,R35*%
X210250000Y-48337500D03*
X210250000Y-50162500D03*
%TD*%
D19*
%TO.C,J6*%
X207125000Y-49630000D03*
X207125000Y-39030000D03*
D20*
X203925000Y-39930000D03*
X207725000Y-39930000D03*
X203925000Y-40730000D03*
X207725000Y-40730000D03*
X203925000Y-41530000D03*
X207725000Y-41530000D03*
X203925000Y-42330000D03*
X207725000Y-42330000D03*
X203925000Y-43130000D03*
X207725000Y-43130000D03*
X203925000Y-43930000D03*
X207725000Y-43930000D03*
X203925000Y-44730000D03*
X207725000Y-44730000D03*
X203925000Y-45530000D03*
X207725000Y-45530000D03*
X203925000Y-46330000D03*
X207725000Y-46330000D03*
X203925000Y-47130000D03*
X207725000Y-47130000D03*
X203925000Y-47930000D03*
X207725000Y-47930000D03*
X203925000Y-48730000D03*
X207725000Y-48730000D03*
%TD*%
D15*
%TO.C,R6*%
X225151000Y-48337500D03*
X225151000Y-50162500D03*
%TD*%
%TO.C,R37*%
X211750000Y-48337500D03*
X211750000Y-50162500D03*
%TD*%
D16*
%TO.C,C3*%
X213336100Y-38637626D03*
X213336100Y-40362626D03*
%TD*%
D15*
%TO.C,R39*%
X215250000Y-48337500D03*
X215250000Y-50162500D03*
%TD*%
D17*
%TO.C,U2*%
X215158050Y-42499874D03*
X215158050Y-43000000D03*
X215158050Y-43500126D03*
X215158050Y-44000252D03*
X215158050Y-44500378D03*
X215158050Y-45000504D03*
X215158050Y-45500630D03*
X215158050Y-46000756D03*
X212071950Y-46000756D03*
X212071950Y-45500630D03*
X212071950Y-45000504D03*
X212071950Y-44500378D03*
X212071950Y-44000252D03*
X212071950Y-43500126D03*
X212071950Y-43000000D03*
X212071950Y-42499874D03*
%TD*%
D15*
%TO.C,R4*%
X220151000Y-48337500D03*
X220151000Y-50162500D03*
%TD*%
%TO.C,R10*%
X225151000Y-38587500D03*
X225151000Y-40412500D03*
%TD*%
D16*
%TO.C,C4*%
X221901000Y-38638004D03*
X221901000Y-40363004D03*
%TD*%
%TO.C,C5*%
X230308798Y-38766576D03*
X230308798Y-40491576D03*
%TD*%
D15*
%TO.C,R36*%
X211750000Y-38708550D03*
X211750000Y-40533550D03*
%TD*%
D17*
%TO.C,U4*%
X223487100Y-42499874D03*
X223487100Y-43000000D03*
X223487100Y-43500126D03*
X223487100Y-44000252D03*
X223487100Y-44500378D03*
X223487100Y-45000504D03*
X223487100Y-45500630D03*
X223487100Y-46000756D03*
X220401000Y-46000756D03*
X220401000Y-45500630D03*
X220401000Y-45000504D03*
X220401000Y-44500378D03*
X220401000Y-44000252D03*
X220401000Y-43500126D03*
X220401000Y-43000000D03*
X220401000Y-42499874D03*
%TD*%
D15*
%TO.C,R8*%
X220151000Y-38708550D03*
X220151000Y-40533550D03*
%TD*%
M02*
