M48
; DRILL file {KiCad 9.0.6} date 2026-02-28T22:35:36-0600
; FORMAT={-:-/ absolute / inch / decimal}
; #@! TF.CreationDate,2026-02-28T22:35:36-06:00
; #@! TF.GenerationSoftware,Kicad,Pcbnew,9.0.6
; #@! TF.FileFunction,Plated,1,2,PTH
FMAT,2
INCH
; #@! TA.AperFunction,Plated,PTH,ViaDrill
T1C0.0118
; #@! TA.AperFunction,Plated,PTH,ComponentDrill
T2C0.0394
; #@! TA.AperFunction,Plated,PTH,ComponentDrill
T3C0.1260
%
G90
G05
T1
X7.7264Y-1.3189
X7.7657Y-1.0138
X7.815Y-1.7677
X7.8346Y-1.3976
X7.8445Y-1.5846
X7.8571Y-1.0138
X7.874Y-1.437
X7.919Y-1.3209
X7.9331Y-1.7224
X7.9528Y-1.8555
X7.9626Y-1.2008
X7.9822Y-1.7224
X7.9823Y-1.6656
X7.9837Y-1.5822
X7.9904Y-1.4549
X8.0532Y-1.5126
X8.0787Y-1.7598
X8.0841Y-1.5191
X8.0994Y-1.3492
X8.1068Y-1.4257
X8.1265Y-1.5945
X8.1265Y-1.6634
X8.1594Y-1.2992
X8.2087Y-1.5059
X8.2406Y-1.6755
X8.2677Y-1.372
X8.2757Y-1.5569
X8.2762Y-2.0126
X8.2969Y-1.7769
X8.3071Y-1.811
X8.3119Y-1.746
X8.3349Y-1.5569
X8.3353Y-2.0126
X8.3445Y-1.6555
X8.3465Y-1.8307
X8.3563Y-1.3976
X8.4019Y-1.5482
X8.4036Y-1.7303
X8.4058Y-1.6989
X8.4252Y-1.4133
X8.435Y-1.6437
X8.4547Y-1.3878
X8.4658Y-1.5522
X8.4688Y-1.9646
X8.4744Y-1.8504
X8.5315Y-1.7283
X8.5323Y-1.5522
X8.5334Y-1.9646
X8.5642Y-1.7138
X8.5728Y-1.624
X8.5787Y-1.8307
X8.5968Y-1.7481
X8.6065Y-1.5569
X8.607Y-2.0126
X8.6083Y-1.7776
X8.622Y-1.7243
X8.6319Y-1.8012
X8.6516Y-1.2008
X8.6657Y-1.5569
X8.666Y-2.0126
X8.6713Y-1.8307
X8.6753Y-1.6555
X8.7368Y-1.5482
X8.7559Y-1.811
X8.7598Y-1.6339
X8.794Y-2.0126
X8.7953Y-1.8504
X8.7965Y-1.5522
X8.8386Y-2.0866
X8.8629Y-2.0126
X8.8631Y-1.5522
X8.8976Y-1.8248
X8.9075Y-1.624
X8.9134Y-1.2126
X8.9237Y-1.7085
X8.9272Y-1.7716
X8.9379Y-1.192
X8.9416Y-1.562
X8.9421Y-2.0177
X8.9522Y-1.722
X8.9567Y-1.7531
X8.9764Y-1.8012
X9.0008Y-1.562
X9.0011Y-2.0177
X9.0104Y-1.6606
X9.0665Y-1.5533
X9.1043Y-1.6437
X9.1291Y-2.0177
X9.1316Y-1.5572
X9.1339Y-1.8504
X9.198Y-2.0177
X9.1982Y-1.5572
X9.2126Y-1.7421
T2
X7.687Y-1.5551
X7.687Y-1.6831
X7.687Y-1.811
X7.689Y-1.4291
X7.6969Y-1.2008
X7.9921Y-2.0866
X8.061Y-1.1024
X8.1335Y-2.0906
X8.2335Y-2.0906
X8.2776Y-1.2894
X8.3335Y-2.0906
X8.4335Y-2.0906
X8.8681Y-1.378
X9.0748Y-2.0669
T3
X7.7569Y-2.0222
X9.123Y-1.1132
M30
