%TF.GenerationSoftware,KiCad,Pcbnew,9.0.5*%
%TF.CreationDate,2026-01-13T21:28:18-06:00*%
%TF.ProjectId,Supplemental Monitoring PCB,53757070-6c65-46d6-956e-74616c204d6f,rev?*%
%TF.SameCoordinates,Original*%
%TF.FileFunction,Copper,L4,Bot*%
%TF.FilePolarity,Positive*%
%FSLAX46Y46*%
G04 Gerber Fmt 4.6, Leading zero omitted, Abs format (unit mm)*
G04 Created by KiCad (PCBNEW 9.0.5) date 2026-01-13 21:28:18*
%MOMM*%
%LPD*%
G01*
G04 APERTURE LIST*
G04 Aperture macros list*
%AMRoundRect*
0 Rectangle with rounded corners*
0 $1 Rounding radius*
0 $2 $3 $4 $5 $6 $7 $8 $9 X,Y pos of 4 corners*
0 Add a 4 corners polygon primitive as box body*
4,1,4,$2,$3,$4,$5,$6,$7,$8,$9,$2,$3,0*
0 Add four circle primitives for the rounded corners*
1,1,$1+$1,$2,$3*
1,1,$1+$1,$4,$5*
1,1,$1+$1,$6,$7*
1,1,$1+$1,$8,$9*
0 Add four rect primitives between the rounded corners*
20,1,$1+$1,$2,$3,$4,$5,0*
20,1,$1+$1,$4,$5,$6,$7,0*
20,1,$1+$1,$6,$7,$8,$9,0*
20,1,$1+$1,$8,$9,$2,$3,0*%
G04 Aperture macros list end*
%TA.AperFunction,ComponentPad*%
%ADD10C,3.600000*%
%TD*%
%TA.AperFunction,ConnectorPad*%
%ADD11C,6.400000*%
%TD*%
%TA.AperFunction,SMDPad,CuDef*%
%ADD12RoundRect,0.237500X-0.300000X-0.237500X0.300000X-0.237500X0.300000X0.237500X-0.300000X0.237500X0*%
%TD*%
%TA.AperFunction,SMDPad,CuDef*%
%ADD13RoundRect,0.237500X0.237500X-0.250000X0.237500X0.250000X-0.237500X0.250000X-0.237500X-0.250000X0*%
%TD*%
%TA.AperFunction,SMDPad,CuDef*%
%ADD14RoundRect,0.237500X0.300000X0.237500X-0.300000X0.237500X-0.300000X-0.237500X0.300000X-0.237500X0*%
%TD*%
%TA.AperFunction,SMDPad,CuDef*%
%ADD15RoundRect,0.250000X0.337500X0.475000X-0.337500X0.475000X-0.337500X-0.475000X0.337500X-0.475000X0*%
%TD*%
%TA.AperFunction,SMDPad,CuDef*%
%ADD16RoundRect,0.237500X-0.250000X-0.237500X0.250000X-0.237500X0.250000X0.237500X-0.250000X0.237500X0*%
%TD*%
%TA.AperFunction,SMDPad,CuDef*%
%ADD17R,1.500000X0.550000*%
%TD*%
%TA.AperFunction,SMDPad,CuDef*%
%ADD18RoundRect,0.237500X0.250000X0.237500X-0.250000X0.237500X-0.250000X-0.237500X0.250000X-0.237500X0*%
%TD*%
%TA.AperFunction,SMDPad,CuDef*%
%ADD19RoundRect,0.250000X0.475000X-0.337500X0.475000X0.337500X-0.475000X0.337500X-0.475000X-0.337500X0*%
%TD*%
%TA.AperFunction,SMDPad,CuDef*%
%ADD20RoundRect,0.237500X-0.237500X0.250000X-0.237500X-0.250000X0.237500X-0.250000X0.237500X0.250000X0*%
%TD*%
%TA.AperFunction,SMDPad,CuDef*%
%ADD21RoundRect,0.237500X-0.237500X0.300000X-0.237500X-0.300000X0.237500X-0.300000X0.237500X0.300000X0*%
%TD*%
%TA.AperFunction,SMDPad,CuDef*%
%ADD22R,1.528000X0.650000*%
%TD*%
%TA.AperFunction,SMDPad,CuDef*%
%ADD23RoundRect,0.250000X-0.475000X0.337500X-0.475000X-0.337500X0.475000X-0.337500X0.475000X0.337500X0*%
%TD*%
%TA.AperFunction,ViaPad*%
%ADD24C,0.600000*%
%TD*%
%TA.AperFunction,Conductor*%
%ADD25C,0.400000*%
%TD*%
%TA.AperFunction,Conductor*%
%ADD26C,0.200000*%
%TD*%
G04 APERTURE END LIST*
D10*
%TO.P,H4,1*%
%TO.N,N/C*%
X135330000Y-126550000D03*
D11*
X135330000Y-126550000D03*
%TD*%
D10*
%TO.P,H2,1*%
%TO.N,N/C*%
X170000000Y-103610000D03*
D11*
X170000000Y-103610000D03*
%TD*%
D12*
%TO.P,C18,1*%
%TO.N,Net-(C18-Pad1)*%
X154147500Y-123910000D03*
%TO.P,C18,2*%
%TO.N,/Voltage/Out2*%
X155872500Y-123910000D03*
%TD*%
D13*
%TO.P,R6,1*%
%TO.N,Net-(C11-Pad1)*%
X163795000Y-105852500D03*
%TO.P,R6,2*%
%TO.N,Net-(U2A-+)*%
X163795000Y-104027500D03*
%TD*%
D14*
%TO.P,C16,1*%
%TO.N,Net-(C16-Pad1)*%
X166982500Y-122310000D03*
%TO.P,C16,2*%
%TO.N,/Voltage/Out1*%
X165257500Y-122310000D03*
%TD*%
D15*
%TO.P,C6,1*%
%TO.N,Net-(C6-Pad1)*%
X149038500Y-108235000D03*
%TO.P,C6,2*%
%TO.N,GND*%
X146963500Y-108235000D03*
%TD*%
D13*
%TO.P,R3,1*%
%TO.N,Net-(C6-Pad1)*%
X150871000Y-106957500D03*
%TO.P,R3,2*%
%TO.N,Net-(U1A-+)*%
X150871000Y-105132500D03*
%TD*%
D16*
%TO.P,R2,1*%
%TO.N,/I_SNS_Reg_Out*%
X143158500Y-109695000D03*
%TO.P,R2,2*%
%TO.N,Net-(C6-Pad1)*%
X144983500Y-109695000D03*
%TD*%
%TO.P,R14,1*%
%TO.N,/Voltage/OpAmp2+*%
X150327500Y-123880000D03*
%TO.P,R14,2*%
%TO.N,Net-(C18-Pad1)*%
X152152500Y-123880000D03*
%TD*%
D15*
%TO.P,C11,1*%
%TO.N,Net-(C11-Pad1)*%
X163662500Y-107800000D03*
%TO.P,C11,2*%
%TO.N,GND*%
X161587500Y-107800000D03*
%TD*%
D16*
%TO.P,R8,1*%
%TO.N,/SUPP_REG+*%
X150347500Y-127180000D03*
%TO.P,R8,2*%
%TO.N,/Voltage/OpAmp2+*%
X152172500Y-127180000D03*
%TD*%
D17*
%TO.P,J1,1,1*%
%TO.N,GND*%
X142200000Y-114900000D03*
%TO.P,J1,2,2*%
%TO.N,/Status_LED2*%
X146000000Y-114900000D03*
%TO.P,J1,3,3*%
%TO.N,GND*%
X142200000Y-115700000D03*
%TO.P,J1,4,4*%
%TO.N,/Status_LED1*%
X146000000Y-115700000D03*
%TO.P,J1,5,5*%
%TO.N,GND*%
X142200000Y-116500000D03*
%TO.P,J1,6,6*%
%TO.N,/RCLK*%
X146000000Y-116500000D03*
%TO.P,J1,7,7*%
%TO.N,+3.3V*%
X142200000Y-117300000D03*
%TO.P,J1,8,8*%
%TO.N,/SRCLK*%
X146000000Y-117300000D03*
%TO.P,J1,9,9*%
%TO.N,+3.3V*%
X142200000Y-118100000D03*
%TO.P,J1,10,10*%
%TO.N,/SER*%
X146000000Y-118100000D03*
%TO.P,J1,11,11*%
%TO.N,/SUPP_REG+*%
X142200000Y-118900000D03*
%TO.P,J1,12,12*%
%TO.N,/SUPPMON_I2*%
X146000000Y-118900000D03*
%TO.P,J1,13,13*%
%TO.N,/I_SNS_Reg_Out*%
X142200000Y-119700000D03*
%TO.P,J1,14,14*%
%TO.N,unconnected-(J1-Pad14)*%
X146000000Y-119700000D03*
%TO.P,J1,15,15*%
%TO.N,unconnected-(J1-Pad15)*%
X142200000Y-120500000D03*
%TO.P,J1,16,16*%
%TO.N,/SUPPMON_I1*%
X146000000Y-120500000D03*
%TO.P,J1,17,17*%
%TO.N,/SUPP_IN+*%
X142200000Y-121300000D03*
%TO.P,J1,18,18*%
%TO.N,unconnected-(J1-Pad18)*%
X146000000Y-121300000D03*
%TO.P,J1,19,19*%
%TO.N,/I_SNS_Reg_In*%
X142200000Y-122100000D03*
%TO.P,J1,20,20*%
%TO.N,/SUPPMON_V2*%
X146000000Y-122100000D03*
%TO.P,J1,21,21*%
%TO.N,unconnected-(J1-Pad21)*%
X142200000Y-122900000D03*
%TO.P,J1,22,22*%
%TO.N,unconnected-(J1-Pad22)*%
X146000000Y-122900000D03*
%TO.P,J1,23,23*%
%TO.N,unconnected-(J1-Pad23)*%
X142200000Y-123700000D03*
%TO.P,J1,24,24*%
%TO.N,/SUPPMON_V1*%
X146000000Y-123700000D03*
%TD*%
D18*
%TO.P,R12,1*%
%TO.N,/Voltage/OpAmp+*%
X170862500Y-124050000D03*
%TO.P,R12,2*%
%TO.N,Net-(C16-Pad1)*%
X169037500Y-124050000D03*
%TD*%
D19*
%TO.P,C15,1*%
%TO.N,Net-(U4A-+)*%
X165500000Y-126207500D03*
%TO.P,C15,2*%
%TO.N,GND*%
X165500000Y-124132500D03*
%TD*%
D18*
%TO.P,R4,1*%
%TO.N,Net-(C6-Pad1)*%
X145003500Y-108035000D03*
%TO.P,R4,2*%
%TO.N,Net-(U1B-+)*%
X143178500Y-108035000D03*
%TD*%
D20*
%TO.P,R13,1*%
%TO.N,Net-(C16-Pad1)*%
X167400000Y-124017500D03*
%TO.P,R13,2*%
%TO.N,Net-(U4A-+)*%
X167400000Y-125842500D03*
%TD*%
D16*
%TO.P,R5,1*%
%TO.N,/I_SNS_Reg_In*%
X156072500Y-109460000D03*
%TO.P,R5,2*%
%TO.N,Net-(C11-Pad1)*%
X157897500Y-109460000D03*
%TD*%
%TO.P,R9,1*%
%TO.N,/Voltage/OpAmp2+*%
X150337500Y-125570000D03*
%TO.P,R9,2*%
%TO.N,GND*%
X152162500Y-125570000D03*
%TD*%
D21*
%TO.P,C7,1*%
%TO.N,Net-(U1A-+)*%
X152501000Y-105162500D03*
%TO.P,C7,2*%
%TO.N,Net-(C6-Pad1)*%
X152501000Y-106887500D03*
%TD*%
D16*
%TO.P,R10,1*%
%TO.N,/SUPP_IN+*%
X169027500Y-127300000D03*
%TO.P,R10,2*%
%TO.N,/Voltage/OpAmp+*%
X170852500Y-127300000D03*
%TD*%
D20*
%TO.P,R15,1*%
%TO.N,Net-(C18-Pad1)*%
X153740000Y-125567500D03*
%TO.P,R15,2*%
%TO.N,Net-(U4B-+)*%
X153740000Y-127392500D03*
%TD*%
D22*
%TO.P,U2,1*%
%TO.N,Net-(U2B-+)*%
X161771000Y-101965000D03*
%TO.P,U2,2,-*%
%TO.N,GND*%
X161771000Y-103235000D03*
%TO.P,U2,3,+*%
%TO.N,Net-(U2A-+)*%
X161771000Y-104505000D03*
%TO.P,U2,4,V-*%
%TO.N,GND*%
X161771000Y-105775000D03*
%TO.P,U2,5,+*%
%TO.N,Net-(U2B-+)*%
X156349000Y-105775000D03*
%TO.P,U2,6,-*%
%TO.N,/SUPPMON_I1*%
X156349000Y-104505000D03*
%TO.P,U2,7*%
X156349000Y-103235000D03*
%TO.P,U2,8,V+*%
%TO.N,+3.3V*%
X156349000Y-101965000D03*
%TD*%
%TO.P,U3,1*%
%TO.N,/SUPPMON_V1*%
X163261000Y-116675000D03*
%TO.P,U3,2,-*%
X163261000Y-117945000D03*
%TO.P,U3,3,+*%
%TO.N,/Voltage/Out1*%
X163261000Y-119215000D03*
%TO.P,U3,4,V-*%
%TO.N,GND*%
X163261000Y-120485000D03*
%TO.P,U3,5,+*%
%TO.N,/Voltage/Out2*%
X157839000Y-120485000D03*
%TO.P,U3,6,-*%
%TO.N,/SUPPMON_V2*%
X157839000Y-119215000D03*
%TO.P,U3,7*%
X157839000Y-117945000D03*
%TO.P,U3,8,V+*%
%TO.N,+3.3V*%
X157839000Y-116675000D03*
%TD*%
D14*
%TO.P,C19,1*%
%TO.N,+3.3V*%
X155892500Y-122280000D03*
%TO.P,C19,2*%
%TO.N,GND*%
X154167500Y-122280000D03*
%TD*%
D22*
%TO.P,U4,1*%
%TO.N,/Voltage/Out1*%
X163281000Y-122395000D03*
%TO.P,U4,2,-*%
%TO.N,GND*%
X163281000Y-123665000D03*
%TO.P,U4,3,+*%
%TO.N,Net-(U4A-+)*%
X163281000Y-124935000D03*
%TO.P,U4,4,V-*%
%TO.N,GND*%
X163281000Y-126205000D03*
%TO.P,U4,5,+*%
%TO.N,Net-(U4B-+)*%
X157859000Y-126205000D03*
%TO.P,U4,6,-*%
%TO.N,GND*%
X157859000Y-124935000D03*
%TO.P,U4,7*%
%TO.N,/Voltage/Out2*%
X157859000Y-123665000D03*
%TO.P,U4,8,V+*%
%TO.N,+3.3V*%
X157859000Y-122395000D03*
%TD*%
D21*
%TO.P,C13,1*%
%TO.N,+3.3V*%
X154325000Y-101937500D03*
%TO.P,C13,2*%
%TO.N,GND*%
X154325000Y-103662500D03*
%TD*%
%TO.P,C8,1*%
%TO.N,+3.3V*%
X141490000Y-102307500D03*
%TO.P,C8,2*%
%TO.N,GND*%
X141490000Y-104032500D03*
%TD*%
D23*
%TO.P,C17,1*%
%TO.N,Net-(U4B-+)*%
X155680000Y-125652500D03*
%TO.P,C17,2*%
%TO.N,GND*%
X155680000Y-127727500D03*
%TD*%
D21*
%TO.P,C14,1*%
%TO.N,+3.3V*%
X155870000Y-116637500D03*
%TO.P,C14,2*%
%TO.N,GND*%
X155870000Y-118362500D03*
%TD*%
D18*
%TO.P,R7,1*%
%TO.N,Net-(C11-Pad1)*%
X157907500Y-107750000D03*
%TO.P,R7,2*%
%TO.N,Net-(U2B-+)*%
X156082500Y-107750000D03*
%TD*%
D21*
%TO.P,C12,1*%
%TO.N,Net-(U2A-+)*%
X165485000Y-104077500D03*
%TO.P,C12,2*%
%TO.N,Net-(C11-Pad1)*%
X165485000Y-105802500D03*
%TD*%
D18*
%TO.P,R11,1*%
%TO.N,/Voltage/OpAmp+*%
X170862500Y-125670000D03*
%TO.P,R11,2*%
%TO.N,GND*%
X169037500Y-125670000D03*
%TD*%
D22*
%TO.P,U1,1*%
%TO.N,Net-(U1B-+)*%
X148932000Y-102370000D03*
%TO.P,U1,2,-*%
%TO.N,GND*%
X148932000Y-103640000D03*
%TO.P,U1,3,+*%
%TO.N,Net-(U1A-+)*%
X148932000Y-104910000D03*
%TO.P,U1,4,V-*%
%TO.N,GND*%
X148932000Y-106180000D03*
%TO.P,U1,5,+*%
%TO.N,Net-(U1B-+)*%
X143510000Y-106180000D03*
%TO.P,U1,6,-*%
%TO.N,/SUPPMON_I2*%
X143510000Y-104910000D03*
%TO.P,U1,7*%
X143510000Y-103640000D03*
%TO.P,U1,8,V+*%
%TO.N,+3.3V*%
X143510000Y-102370000D03*
%TD*%
D24*
%TO.N,+3.3V*%
X165555292Y-113100000D03*
X155200000Y-108760000D03*
X155817500Y-114950000D03*
X144285000Y-111870000D03*
X155817500Y-113140000D03*
X166550000Y-105250000D03*
X158242000Y-121736530D03*
X156267900Y-102409999D03*
X140510000Y-118090000D03*
X165555292Y-109600000D03*
X145590000Y-103270000D03*
%TO.N,/SRCLK*%
X154820000Y-107740000D03*
X164747706Y-108347470D03*
X147260000Y-117320000D03*
X145924473Y-107481305D03*
X140420000Y-102530000D03*
%TO.N,/RCLK*%
X144579296Y-106919874D03*
X164750000Y-107488999D03*
X136510000Y-102200000D03*
X147240000Y-116440000D03*
X155030374Y-106968155D03*
%TO.N,/SER*%
X145990000Y-106270000D03*
X144930000Y-101380000D03*
X147451839Y-118101679D03*
%TO.N,GND*%
X160870000Y-128260000D03*
X147380000Y-103925000D03*
X137440000Y-112510000D03*
X142525000Y-106953509D03*
X157342537Y-110373914D03*
X164427256Y-110205094D03*
X141340765Y-114980765D03*
X147040000Y-100870000D03*
X163590000Y-101280000D03*
X152410000Y-121980000D03*
X166950000Y-110760000D03*
X140510000Y-109350000D03*
X169710000Y-120150000D03*
%TO.N,/Status_LED1*%
X139890000Y-118800000D03*
%TO.N,/Status_LED2*%
X139352503Y-115316359D03*
%TO.N,/SUPPMON_I1*%
X147310000Y-120490000D03*
X144190000Y-128290000D03*
X157505735Y-104935735D03*
X149740000Y-120390000D03*
%TO.N,/I_SNS_Reg_In*%
X147028575Y-127009000D03*
X136170000Y-121710000D03*
X148980000Y-111670000D03*
%TO.N,Net-(R25-Pad2)*%
X150290000Y-112200000D03*
X149050000Y-101400000D03*
%TO.N,Net-(R26-Pad2)*%
X150933561Y-103409456D03*
X152980000Y-111130000D03*
X156660000Y-114630000D03*
%TO.N,/SUPPMON_V2*%
X147250000Y-121970000D03*
X156610000Y-119520000D03*
X147020000Y-128270000D03*
%TO.N,Net-(R30-Pad1)*%
X157665000Y-114715000D03*
X153350000Y-102133803D03*
%TO.N,Net-(R16-Pad2)*%
X134180000Y-108270000D03*
X138790000Y-123170000D03*
%TO.N,Net-(R39-Pad1)*%
X160506998Y-101880000D03*
X171250000Y-115410000D03*
%TO.N,Net-(R17-Pad2)*%
X135540000Y-105500000D03*
X138722998Y-124162998D03*
%TO.N,Net-(R18-Pad2)*%
X138920000Y-125070000D03*
X136480000Y-103400000D03*
%TO.N,Net-(R19-Pad2)*%
X142175834Y-110025255D03*
X139830000Y-125980000D03*
%TO.N,Net-(R31-Pad1)*%
X159150000Y-114920000D03*
X151005531Y-101266571D03*
%TO.N,Net-(R32-Pad2)*%
X161990000Y-125740000D03*
X160000000Y-107080000D03*
%TO.N,Net-(R33-Pad2)*%
X159972594Y-106207739D03*
X162617140Y-127030002D03*
%TO.N,Net-(R34-Pad2)*%
X169280000Y-129130000D03*
X160604804Y-105127052D03*
%TO.N,Net-(R35-Pad2)*%
X170370000Y-128980000D03*
X164855292Y-112180000D03*
%TO.N,Net-(U5-QH')*%
X154058779Y-108860000D03*
X145876000Y-108675304D03*
X154440000Y-105860000D03*
%TO.N,Net-(U6-QH')*%
X164570000Y-109180000D03*
X157069872Y-108759999D03*
X165695971Y-107129941D03*
%TO.N,/I_SNS_Reg_Out*%
X142890000Y-110620000D03*
X134900000Y-116240000D03*
%TO.N,/SUPP_IN+*%
X168060000Y-129230000D03*
X148174883Y-127061203D03*
X135159717Y-119470283D03*
%TO.N,/SUPP_REG+*%
X135220000Y-114060000D03*
%TO.N,/SUPPMON_V1*%
X147180000Y-124600000D03*
X145630000Y-127430000D03*
X159200000Y-119930000D03*
%TO.N,/SUPPMON_I2*%
X141570000Y-128290000D03*
X150340000Y-118880000D03*
X147400000Y-118900000D03*
%TD*%
D25*
%TO.N,+3.3V*%
X155892500Y-122280000D02*
X157744000Y-122280000D01*
X144790000Y-102470000D02*
X143610000Y-102470000D01*
X142200000Y-117300000D02*
X142200000Y-118100000D01*
X156321500Y-101937500D02*
X156349000Y-101965000D01*
X156267900Y-102409999D02*
X156267900Y-102046100D01*
X145590000Y-103270000D02*
X144790000Y-102470000D01*
X156267900Y-102046100D02*
X156349000Y-101965000D01*
X155907500Y-116675000D02*
X155870000Y-116637500D01*
X143610000Y-102470000D02*
X143510000Y-102370000D01*
X141490000Y-102307500D02*
X143447500Y-102307500D01*
X158242000Y-121736530D02*
X158242000Y-122012000D01*
X154325000Y-101937500D02*
X156321500Y-101937500D01*
X157744000Y-122280000D02*
X157859000Y-122395000D01*
X155870000Y-115002500D02*
X155817500Y-114950000D01*
X143447500Y-102307500D02*
X143510000Y-102370000D01*
X140520000Y-118100000D02*
X140510000Y-118090000D01*
X158242000Y-122012000D02*
X157859000Y-122395000D01*
X142200000Y-118100000D02*
X140520000Y-118100000D01*
X155870000Y-116637500D02*
X155870000Y-115002500D01*
X157839000Y-116675000D02*
X155907500Y-116675000D01*
D26*
%TO.N,/Voltage/OpAmp2+*%
X151947500Y-127180000D02*
X150337500Y-125570000D01*
X150327500Y-123880000D02*
X150327500Y-125560000D01*
X152172500Y-127180000D02*
X151947500Y-127180000D01*
X150327500Y-125560000D02*
X150337500Y-125570000D01*
%TO.N,/Voltage/Out2*%
X158924000Y-123039000D02*
X158298000Y-123665000D01*
X158298000Y-123665000D02*
X157859000Y-123665000D01*
X157839000Y-120485000D02*
X158924000Y-121570000D01*
X155872500Y-123910000D02*
X157614000Y-123910000D01*
X158924000Y-121570000D02*
X158924000Y-123039000D01*
X157614000Y-123910000D02*
X157859000Y-123665000D01*
%TO.N,/Voltage/Out1*%
X163700000Y-119215000D02*
X163261000Y-119215000D01*
X164326000Y-119841000D02*
X163700000Y-119215000D01*
X163366000Y-122310000D02*
X163281000Y-122395000D01*
X164326000Y-121350000D02*
X164326000Y-119841000D01*
X165257500Y-122310000D02*
X163366000Y-122310000D01*
X163281000Y-122395000D02*
X164326000Y-121350000D01*
%TO.N,/Voltage/OpAmp+*%
X170862500Y-124050000D02*
X170862500Y-125670000D01*
X170862500Y-127290000D02*
X170852500Y-127300000D01*
X170862500Y-125670000D02*
X170862500Y-127290000D01*
%TO.N,Net-(C6-Pad1)*%
X150316000Y-106957500D02*
X149038500Y-108235000D01*
X145627057Y-109276304D02*
X147997196Y-109276304D01*
X147997196Y-109276304D02*
X149038500Y-108235000D01*
X150871000Y-106957500D02*
X152431000Y-106957500D01*
X144983500Y-109695000D02*
X145208361Y-109695000D01*
X145003500Y-108652747D02*
X145627057Y-109276304D01*
X145003500Y-108035000D02*
X145003500Y-108652747D01*
X150871000Y-106957500D02*
X150316000Y-106957500D01*
X152431000Y-106957500D02*
X152501000Y-106887500D01*
X145208361Y-109695000D02*
X145627057Y-109276304D01*
%TO.N,Net-(U1A-+)*%
X150901000Y-105162500D02*
X150871000Y-105132500D01*
X152501000Y-105162500D02*
X150901000Y-105162500D01*
X149154500Y-105132500D02*
X148932000Y-104910000D01*
X150871000Y-105132500D02*
X149154500Y-105132500D01*
%TO.N,Net-(C11-Pad1)*%
X163795000Y-105852500D02*
X163795000Y-107667500D01*
X163845000Y-105802500D02*
X163795000Y-105852500D01*
X157897500Y-107760000D02*
X157907500Y-107750000D01*
X157897500Y-109460000D02*
X157897500Y-107760000D01*
X163795000Y-107667500D02*
X163662500Y-107800000D01*
X158983500Y-108826000D02*
X157907500Y-107750000D01*
X165485000Y-105802500D02*
X163845000Y-105802500D01*
X163662500Y-107800000D02*
X162636500Y-108826000D01*
X162636500Y-108826000D02*
X158983500Y-108826000D01*
%TO.N,/SRCLK*%
X147240000Y-117300000D02*
X147260000Y-117320000D01*
X146000000Y-117300000D02*
X147240000Y-117300000D01*
%TO.N,Net-(U2A-+)*%
X165435000Y-104027500D02*
X165485000Y-104077500D01*
X161771000Y-104505000D02*
X163317500Y-104505000D01*
X163795000Y-104027500D02*
X165435000Y-104027500D01*
X163317500Y-104505000D02*
X163795000Y-104027500D01*
%TO.N,Net-(U4A-+)*%
X163281000Y-124935000D02*
X164227500Y-124935000D01*
X165865000Y-125842500D02*
X165500000Y-126207500D01*
X167400000Y-125842500D02*
X165865000Y-125842500D01*
X164227500Y-124935000D02*
X165500000Y-126207500D01*
%TO.N,Net-(C16-Pad1)*%
X166982500Y-123600000D02*
X167400000Y-124017500D01*
X166982500Y-122310000D02*
X166982500Y-123600000D01*
X169005000Y-124017500D02*
X169037500Y-124050000D01*
X167400000Y-124017500D02*
X169005000Y-124017500D01*
%TO.N,Net-(U4B-+)*%
X153940000Y-127392500D02*
X155680000Y-125652500D01*
X155680000Y-125652500D02*
X157306500Y-125652500D01*
X153740000Y-127392500D02*
X153940000Y-127392500D01*
X157306500Y-125652500D02*
X157859000Y-126205000D01*
%TO.N,/RCLK*%
X147180000Y-116500000D02*
X147240000Y-116440000D01*
X146000000Y-116500000D02*
X147180000Y-116500000D01*
%TO.N,Net-(C18-Pad1)*%
X153740000Y-124317500D02*
X154147500Y-123910000D01*
X154117500Y-123880000D02*
X154147500Y-123910000D01*
X152152500Y-123880000D02*
X154117500Y-123880000D01*
X153740000Y-125567500D02*
X153740000Y-124317500D01*
%TO.N,/SER*%
X146000000Y-118100000D02*
X147450160Y-118100000D01*
X147450160Y-118100000D02*
X147451839Y-118101679D01*
%TO.N,GND*%
X141421530Y-114900000D02*
X141340765Y-114980765D01*
X161771000Y-107616500D02*
X161587500Y-107800000D01*
X146963500Y-108148500D02*
X148932000Y-106180000D01*
X155870000Y-120577500D02*
X154167500Y-122280000D01*
X152162500Y-125570000D02*
X152964000Y-126371500D01*
X162216000Y-123021000D02*
X162216000Y-121530000D01*
X163281000Y-123665000D02*
X162860000Y-123665000D01*
X137440000Y-112420000D02*
X137440000Y-112510000D01*
X161350000Y-103235000D02*
X161771000Y-103235000D01*
X148493000Y-106180000D02*
X147380000Y-105067000D01*
X163281000Y-123665000D02*
X163748500Y-124132500D01*
X152964000Y-126371500D02*
X152964000Y-127872134D01*
X149997000Y-102996000D02*
X149997000Y-101497057D01*
X169037500Y-125670000D02*
X168173500Y-124806000D01*
X142200000Y-114900000D02*
X141421530Y-114900000D01*
X149298943Y-100799000D02*
X147111000Y-100799000D01*
X161771000Y-103235000D02*
X162210000Y-103235000D01*
X155226500Y-128181000D02*
X155680000Y-127727500D01*
X165216163Y-110770000D02*
X164410000Y-109963837D01*
X166940000Y-110770000D02*
X165216163Y-110770000D01*
X160003804Y-104581196D02*
X161350000Y-103235000D01*
X163281000Y-126205000D02*
X163281000Y-127216085D01*
X162237085Y-128260000D02*
X160870000Y-128260000D01*
X157859000Y-124935000D02*
X160302000Y-124935000D01*
X163590000Y-101855000D02*
X163590000Y-101280000D01*
X163281000Y-127216085D02*
X162237085Y-128260000D01*
X162210000Y-103235000D02*
X163590000Y-101855000D01*
X146963500Y-108235000D02*
X146963500Y-108148500D01*
X147380000Y-105067000D02*
X147380000Y-103925000D01*
X155342866Y-124686000D02*
X154986000Y-124329134D01*
X149353000Y-103640000D02*
X149997000Y-102996000D01*
X149997000Y-101497057D02*
X149298943Y-100799000D01*
X155870000Y-118362500D02*
X155870000Y-120577500D01*
X147665000Y-103640000D02*
X147380000Y-103925000D01*
X154986000Y-124329134D02*
X154986000Y-123098500D01*
X166173500Y-124806000D02*
X165500000Y-124132500D01*
X140510000Y-109350000D02*
X137440000Y-112420000D01*
X153272866Y-128181000D02*
X155226500Y-128181000D01*
X148932000Y-103640000D02*
X147665000Y-103640000D01*
X160302000Y-124935000D02*
X162216000Y-123021000D01*
X160003804Y-105375995D02*
X160003804Y-104581196D01*
X162860000Y-123665000D02*
X162216000Y-123021000D01*
X157859000Y-124935000D02*
X157610000Y-124686000D01*
X157610000Y-124686000D02*
X155342866Y-124686000D01*
X163748500Y-124132500D02*
X165500000Y-124132500D01*
X168173500Y-124806000D02*
X166173500Y-124806000D01*
X147111000Y-100799000D02*
X147040000Y-100870000D01*
X160402809Y-105775000D02*
X160003804Y-105375995D01*
X162216000Y-121530000D02*
X163261000Y-120485000D01*
X152964000Y-127872134D02*
X153272866Y-128181000D01*
X148932000Y-103640000D02*
X149353000Y-103640000D01*
X161771000Y-105775000D02*
X161771000Y-107616500D01*
X166950000Y-110760000D02*
X166940000Y-110770000D01*
X148932000Y-106180000D02*
X148493000Y-106180000D01*
X154986000Y-123098500D02*
X154167500Y-122280000D01*
X161771000Y-105775000D02*
X160402809Y-105775000D01*
%TO.N,/Status_LED1*%
X145126000Y-115476000D02*
X145136000Y-115476000D01*
X141393000Y-114080000D02*
X143730000Y-114080000D01*
X139890000Y-118800000D02*
X139890000Y-115628805D01*
X145360000Y-115700000D02*
X146000000Y-115700000D01*
X139953503Y-115519497D02*
X141393000Y-114080000D01*
X139890000Y-115628805D02*
X139953503Y-115565302D01*
X139953503Y-115565302D02*
X139953503Y-115519497D01*
X145136000Y-115476000D02*
X145360000Y-115700000D01*
X143730000Y-114080000D02*
X145126000Y-115476000D01*
%TO.N,/Status_LED2*%
X140998862Y-113670000D02*
X139352503Y-115316359D01*
X145150000Y-114900000D02*
X143920000Y-113670000D01*
X146000000Y-114900000D02*
X145150000Y-114900000D01*
X143920000Y-113670000D02*
X140998862Y-113670000D01*
%TO.N,/SUPPMON_I1*%
X156349000Y-103235000D02*
X156349000Y-104505000D01*
X146000000Y-120500000D02*
X147300000Y-120500000D01*
X157370000Y-104800000D02*
X156644000Y-104800000D01*
X157505735Y-104935735D02*
X157370000Y-104800000D01*
X156644000Y-104800000D02*
X156349000Y-104505000D01*
X147300000Y-120500000D02*
X147310000Y-120490000D01*
%TO.N,/I_SNS_Reg_In*%
X143870000Y-126390000D02*
X143870000Y-126380000D01*
X136170000Y-121710000D02*
X140830000Y-121710000D01*
X143250000Y-122323000D02*
X143027000Y-122100000D01*
X143027000Y-122100000D02*
X142200000Y-122100000D01*
X148980000Y-111670000D02*
X151190000Y-109460000D01*
X146829575Y-126810000D02*
X144290000Y-126810000D01*
X143870000Y-126380000D02*
X143250000Y-125760000D01*
X140830000Y-121710000D02*
X141200000Y-122080000D01*
X141200000Y-122080000D02*
X142180000Y-122080000D01*
X143250000Y-125760000D02*
X143250000Y-122323000D01*
X147028575Y-127009000D02*
X146829575Y-126810000D01*
X144290000Y-126810000D02*
X143870000Y-126390000D01*
X142180000Y-122080000D02*
X142200000Y-122100000D01*
X151190000Y-109460000D02*
X156072500Y-109460000D01*
%TO.N,Net-(R26-Pad2)*%
X152980000Y-111160000D02*
X152980000Y-111130000D01*
X156660000Y-114630000D02*
X156450000Y-114630000D01*
X156450000Y-114630000D02*
X152980000Y-111160000D01*
%TO.N,/SUPPMON_V2*%
X147250000Y-121970000D02*
X146130000Y-121970000D01*
X156915000Y-119215000D02*
X157839000Y-119215000D01*
X156610000Y-119520000D02*
X156915000Y-119215000D01*
X157839000Y-117945000D02*
X157839000Y-119215000D01*
X146130000Y-121970000D02*
X146000000Y-122100000D01*
%TO.N,Net-(U1B-+)*%
X143510000Y-106180000D02*
X143949000Y-106180000D01*
X143510000Y-106180000D02*
X143510000Y-107703500D01*
X143510000Y-107703500D02*
X143178500Y-108035000D01*
X147759000Y-102370000D02*
X148932000Y-102370000D01*
X143949000Y-106180000D02*
X147759000Y-102370000D01*
%TO.N,Net-(U2B-+)*%
X156349000Y-105775000D02*
X157515000Y-105775000D01*
X161325000Y-101965000D02*
X161771000Y-101965000D01*
X156349000Y-107483500D02*
X156082500Y-107750000D01*
X156349000Y-105775000D02*
X156349000Y-107483500D01*
X157515000Y-105775000D02*
X161325000Y-101965000D01*
%TO.N,/I_SNS_Reg_Out*%
X141430000Y-119700000D02*
X142200000Y-119700000D01*
X140231000Y-120899000D02*
X141430000Y-119700000D01*
X134900000Y-116240000D02*
X134940000Y-116280000D01*
X134940000Y-116280000D02*
X134940000Y-118400623D01*
X143210000Y-110300000D02*
X143210000Y-109746500D01*
X134940000Y-118400623D02*
X137438377Y-120899000D01*
X142890000Y-110620000D02*
X143210000Y-110300000D01*
X143210000Y-109746500D02*
X143158500Y-109695000D01*
X137438377Y-120899000D02*
X140231000Y-120899000D01*
%TO.N,/SUPP_IN+*%
X144456100Y-126409000D02*
X144271000Y-126223900D01*
X135159717Y-119470283D02*
X136989434Y-121300000D01*
X143050000Y-121300000D02*
X142200000Y-121300000D01*
X169027500Y-128262500D02*
X169027500Y-127300000D01*
X144271000Y-126213900D02*
X143651000Y-125593900D01*
X147278518Y-126409000D02*
X147277518Y-126408000D01*
X143651000Y-121901000D02*
X143050000Y-121300000D01*
X146779632Y-126408000D02*
X146778632Y-126409000D01*
X136989434Y-121300000D02*
X142200000Y-121300000D01*
X146778632Y-126409000D02*
X144456100Y-126409000D01*
X147522680Y-126409000D02*
X147278518Y-126409000D01*
X168060000Y-129230000D02*
X169027500Y-128262500D01*
X143651000Y-125593900D02*
X143651000Y-121901000D01*
X148174883Y-127061203D02*
X147522680Y-126409000D01*
X144271000Y-126223900D02*
X144271000Y-126213900D01*
X147277518Y-126408000D02*
X146779632Y-126408000D01*
%TO.N,/SUPP_REG+*%
X143150000Y-118900000D02*
X144070000Y-119820000D01*
X141550000Y-118900000D02*
X142200000Y-118900000D01*
X135500000Y-115990057D02*
X135501000Y-115991057D01*
X144070000Y-119820000D02*
X144070000Y-125260000D01*
X142200000Y-118900000D02*
X143150000Y-118900000D01*
X137660000Y-120450000D02*
X140000000Y-120450000D01*
X144070000Y-125260000D02*
X144780000Y-125970000D01*
X140000000Y-120450000D02*
X141550000Y-118900000D01*
X135220000Y-114060000D02*
X135500000Y-114340000D01*
X147940000Y-125970000D02*
X149150000Y-127180000D01*
X135500000Y-114340000D02*
X135500000Y-115990057D01*
X144780000Y-125970000D02*
X147940000Y-125970000D01*
X149150000Y-127180000D02*
X150347500Y-127180000D01*
X135500000Y-116489943D02*
X135500000Y-118290000D01*
X135501000Y-116488943D02*
X135500000Y-116489943D01*
X135500000Y-118290000D02*
X137660000Y-120450000D01*
X135501000Y-115991057D02*
X135501000Y-116488943D01*
%TO.N,/SUPPMON_V1*%
X163261000Y-117945000D02*
X161185000Y-117945000D01*
X146280000Y-123700000D02*
X146000000Y-123700000D01*
X161185000Y-117945000D02*
X159200000Y-119930000D01*
X163261000Y-116675000D02*
X163261000Y-117945000D01*
X147180000Y-124600000D02*
X146280000Y-123700000D01*
%TO.N,/SUPPMON_I2*%
X148490000Y-112810000D02*
X143840000Y-112810000D01*
X143510000Y-103640000D02*
X143510000Y-104910000D01*
X150340000Y-118880000D02*
X150340000Y-114660000D01*
X143089000Y-104910000D02*
X143510000Y-104910000D01*
X143840000Y-112810000D02*
X141270000Y-110240000D01*
X150340000Y-114660000D02*
X148490000Y-112810000D01*
X141270000Y-110240000D02*
X141270000Y-106729000D01*
X141270000Y-106729000D02*
X143089000Y-104910000D01*
X146000000Y-118900000D02*
X147400000Y-118900000D01*
%TD*%
%TA.AperFunction,Conductor*%
%TO.N,GND*%
G36*
X161979756Y-118565185D02*
G01*
X162025511Y-118617989D01*
X162035455Y-118687147D01*
X162028899Y-118712833D01*
X162014939Y-118750263D01*
X162002909Y-118782517D01*
X161996500Y-118842127D01*
X161996500Y-118842134D01*
X161996500Y-118842135D01*
X161996500Y-119587870D01*
X161996501Y-119587876D01*
X162002908Y-119647483D01*
X162053202Y-119782327D01*
X162057452Y-119790109D01*
X162054394Y-119791778D01*
X162072963Y-119841594D01*
X162058098Y-119909864D01*
X162057717Y-119910457D01*
X162053645Y-119917913D01*
X162003403Y-120052620D01*
X162003401Y-120052627D01*
X161997000Y-120112155D01*
X161997000Y-120235000D01*
X163137000Y-120235000D01*
X163204039Y-120254685D01*
X163249794Y-120307489D01*
X163261000Y-120359000D01*
X163261000Y-120485000D01*
X163387000Y-120485000D01*
X163454039Y-120504685D01*
X163499794Y-120557489D01*
X163511000Y-120609000D01*
X163511000Y-121264402D01*
X163491315Y-121331441D01*
X163474681Y-121352083D01*
X163293583Y-121533181D01*
X163232260Y-121566666D01*
X163205902Y-121569500D01*
X162469129Y-121569500D01*
X162469123Y-121569501D01*
X162409516Y-121575908D01*
X162274671Y-121626202D01*
X162274664Y-121626206D01*
X162159455Y-121712452D01*
X162159452Y-121712455D01*
X162073206Y-121827664D01*
X162073202Y-121827671D01*
X162022910Y-121962513D01*
X162022909Y-121962517D01*
X162016500Y-122022127D01*
X162016500Y-122022134D01*
X162016500Y-122022135D01*
X162016500Y-122767870D01*
X162016501Y-122767876D01*
X162022908Y-122827483D01*
X162073202Y-122962327D01*
X162077452Y-122970109D01*
X162074394Y-122971778D01*
X162092963Y-123021594D01*
X162078098Y-123089864D01*
X162077717Y-123090457D01*
X162073645Y-123097913D01*
X162023403Y-123232620D01*
X162023401Y-123232627D01*
X162017000Y-123292155D01*
X162017000Y-123415000D01*
X163157000Y-123415000D01*
X163224039Y-123434685D01*
X163269794Y-123487489D01*
X163281000Y-123539000D01*
X163281000Y-123791000D01*
X163261315Y-123858039D01*
X163208511Y-123903794D01*
X163157000Y-123915000D01*
X162017000Y-123915000D01*
X162017000Y-124037844D01*
X162023401Y-124097372D01*
X162023403Y-124097379D01*
X162073645Y-124232086D01*
X162077897Y-124239872D01*
X162074679Y-124241628D01*
X162092977Y-124290976D01*
X162077993Y-124359220D01*
X162076835Y-124361018D01*
X162073202Y-124367671D01*
X162022910Y-124502513D01*
X162022909Y-124502517D01*
X162016500Y-124562127D01*
X162016500Y-124562134D01*
X162016500Y-124562135D01*
X162016500Y-124816781D01*
X161996815Y-124883820D01*
X161944011Y-124929575D01*
X161916692Y-124938398D01*
X161756508Y-124970261D01*
X161756498Y-124970264D01*
X161610827Y-125030602D01*
X161610814Y-125030609D01*
X161479711Y-125118210D01*
X161479707Y-125118213D01*
X161368213Y-125229707D01*
X161368210Y-125229711D01*
X161280609Y-125360814D01*
X161280602Y-125360827D01*
X161220264Y-125506498D01*
X161220261Y-125506510D01*
X161189500Y-125661153D01*
X161189500Y-125818846D01*
X161220261Y-125973489D01*
X161220264Y-125973501D01*
X161280602Y-126119172D01*
X161280609Y-126119185D01*
X161368210Y-126250288D01*
X161368213Y-126250292D01*
X161479707Y-126361786D01*
X161479711Y-126361789D01*
X161610814Y-126449390D01*
X161610827Y-126449397D01*
X161756498Y-126509735D01*
X161756503Y-126509737D01*
X161777497Y-126513913D01*
X161802033Y-126518794D01*
X161863944Y-126551179D01*
X161898518Y-126611894D01*
X161894779Y-126681664D01*
X161892403Y-126687863D01*
X161847404Y-126796500D01*
X161847401Y-126796512D01*
X161816640Y-126951155D01*
X161816640Y-127108848D01*
X161847401Y-127263491D01*
X161847404Y-127263503D01*
X161907742Y-127409174D01*
X161907749Y-127409187D01*
X161995350Y-127540290D01*
X161995353Y-127540294D01*
X162106847Y-127651788D01*
X162106851Y-127651791D01*
X162237954Y-127739392D01*
X162237967Y-127739399D01*
X162379843Y-127798165D01*
X162383643Y-127799739D01*
X162493123Y-127821516D01*
X162538293Y-127830501D01*
X162538296Y-127830502D01*
X162538298Y-127830502D01*
X162695984Y-127830502D01*
X162695985Y-127830501D01*
X162850637Y-127799739D01*
X162995882Y-127739577D01*
X162996312Y-127739399D01*
X162996312Y-127739398D01*
X162996319Y-127739396D01*
X163127429Y-127651791D01*
X163238929Y-127540291D01*
X163326534Y-127409181D01*
X163386877Y-127263499D01*
X163413470Y-127129809D01*
X163445855Y-127067898D01*
X163506570Y-127033324D01*
X163535087Y-127030000D01*
X164092828Y-127030000D01*
X164092844Y-127029999D01*
X164152372Y-127023598D01*
X164152380Y-127023596D01*
X164290008Y-126972263D01*
X164359700Y-126967278D01*
X164421024Y-127000762D01*
X164430607Y-127011530D01*
X164432288Y-127013656D01*
X164556344Y-127137712D01*
X164705666Y-127229814D01*
X164872203Y-127284999D01*
X164974991Y-127295500D01*
X166025008Y-127295499D01*
X166025016Y-127295498D01*
X166025019Y-127295498D01*
X166081302Y-127289748D01*
X166127797Y-127284999D01*
X166294334Y-127229814D01*
X166443656Y-127137712D01*
X166567712Y-127013656D01*
X166659814Y-126864334D01*
X166669584Y-126834848D01*
X166709353Y-126777406D01*
X166773869Y-126750581D01*
X166842645Y-126762895D01*
X166845866Y-126764687D01*
X166848483Y-126765907D01*
X166848484Y-126765908D01*
X167012247Y-126820174D01*
X167113323Y-126830500D01*
X167686676Y-126830499D01*
X167686684Y-126830498D01*
X167686687Y-126830498D01*
X167742030Y-126824844D01*
X167787753Y-126820174D01*
X167886914Y-126787314D01*
X167956741Y-126784912D01*
X168016783Y-126820643D01*
X168047976Y-126883163D01*
X168049276Y-126917622D01*
X168039500Y-127013313D01*
X168039500Y-127586669D01*
X168039501Y-127586687D01*
X168049825Y-127687752D01*
X168077278Y-127770597D01*
X168100078Y-127839404D01*
X168104092Y-127851515D01*
X168104093Y-127851518D01*
X168138395Y-127907129D01*
X168190489Y-127991588D01*
X168194661Y-127998351D01*
X168230855Y-128034545D01*
X168264340Y-128095868D01*
X168259356Y-128165560D01*
X168230855Y-128209907D01*
X168045337Y-128395426D01*
X167984014Y-128428911D01*
X167981848Y-128429362D01*
X167826508Y-128460261D01*
X167826498Y-128460264D01*
X167680827Y-128520602D01*
X167680814Y-128520609D01*
X167549711Y-128608210D01*
X167549707Y-128608213D01*
X167438213Y-128719707D01*
X167438210Y-128719711D01*
X167350609Y-128850814D01*
X167350602Y-128850827D01*
X167290264Y-128996498D01*
X167290261Y-128996510D01*
X167259500Y-129151153D01*
X167259500Y-129308846D01*
X167290261Y-129463489D01*
X167290264Y-129463501D01*
X167350602Y-129609172D01*
X167353479Y-129614554D01*
X167351677Y-129615516D01*
X167369766Y-129673290D01*
X167351279Y-129740670D01*
X167299299Y-129787359D01*
X167245786Y-129799500D01*
X137536277Y-129799500D01*
X137469238Y-129779815D01*
X137423483Y-129727011D01*
X137413539Y-129657853D01*
X137442564Y-129594297D01*
X137467386Y-129572398D01*
X137537044Y-129525854D01*
X137818101Y-129295197D01*
X138075197Y-129038101D01*
X138305854Y-128757044D01*
X138507853Y-128454732D01*
X138638046Y-128211158D01*
X138638049Y-128211153D01*
X140769500Y-128211153D01*
X140769500Y-128368846D01*
X140800261Y-128523489D01*
X140800264Y-128523501D01*
X140860602Y-128669172D01*
X140860609Y-128669185D01*
X140948210Y-128800288D01*
X140948213Y-128800292D01*
X141059707Y-128911786D01*
X141059711Y-128911789D01*
X141190814Y-128999390D01*
X141190827Y-128999397D01*
X141334342Y-129058842D01*
X141336503Y-129059737D01*
X141491153Y-129090499D01*
X141491156Y-129090500D01*
X141491158Y-129090500D01*
X141648844Y-129090500D01*
X141648845Y-129090499D01*
X141803497Y-129059737D01*
X141926386Y-129008835D01*
X141949172Y-128999397D01*
X141949172Y-128999396D01*
X141949179Y-128999394D01*
X142080289Y-128911789D01*
X142191789Y-128800289D01*
X142279394Y-128669179D01*
X142339737Y-128523497D01*
X142370500Y-128368842D01*
X142370500Y-128211158D01*
X142370500Y-128211155D01*
X142370499Y-128211153D01*
X142365806Y-128187561D01*
X142339737Y-128056503D01*
X142331453Y-128036503D01*
X142279397Y-127910827D01*
X142279390Y-127910814D01*
X142191789Y-127779711D01*
X142191786Y-127779707D01*
X142080292Y-127668213D01*
X142080288Y-127668210D01*
X141949185Y-127580609D01*
X141949172Y-127580602D01*
X141803501Y-127520264D01*
X141803489Y-127520261D01*
X141648845Y-127489500D01*
X141648842Y-127489500D01*
X141491158Y-127489500D01*
X141491155Y-127489500D01*
X141336510Y-127520261D01*
X141336498Y-127520264D01*
X141190827Y-127580602D01*
X141190814Y-127580609D01*
X141059711Y-127668210D01*
X141059707Y-127668213D01*
X140948213Y-127779707D01*
X140948210Y-127779711D01*
X140860609Y-127910814D01*
X140860602Y-127910827D01*
X140800264Y-128056498D01*
X140800261Y-128056510D01*
X140769500Y-128211153D01*
X138638049Y-128211153D01*
X138672546Y-128146613D01*
X138672546Y-128146612D01*
X138673315Y-128145174D01*
X138679247Y-128134076D01*
X138818386Y-127798164D01*
X138923930Y-127450233D01*
X138923932Y-127450223D01*
X138923935Y-127450212D01*
X138991836Y-127108844D01*
X138994862Y-127093631D01*
X139030500Y-126731794D01*
X139030500Y-126611941D01*
X139050185Y-126544902D01*
X139102989Y-126499147D01*
X139172147Y-126489203D01*
X139235703Y-126518228D01*
X139242181Y-126524260D01*
X139319707Y-126601786D01*
X139319711Y-126601789D01*
X139450814Y-126689390D01*
X139450827Y-126689397D01*
X139553184Y-126731794D01*
X139596503Y-126749737D01*
X139735604Y-126777406D01*
X139751153Y-126780499D01*
X139751156Y-126780500D01*
X139751158Y-126780500D01*
X139908844Y-126780500D01*
X139908845Y-126780499D01*
X140063497Y-126749737D01*
X140209179Y-126689394D01*
X140340289Y-126601789D01*
X140451789Y-126490289D01*
X140539394Y-126359179D01*
X140539605Y-126358671D01*
X140553758Y-126324500D01*
X140599737Y-126213497D01*
X140630500Y-126058842D01*
X140630500Y-125901158D01*
X140630500Y-125901155D01*
X140630499Y-125901153D01*
X140621652Y-125856676D01*
X140599737Y-125746503D01*
X140584105Y-125708764D01*
X140539397Y-125600827D01*
X140539390Y-125600814D01*
X140451789Y-125469711D01*
X140451786Y-125469707D01*
X140340292Y-125358213D01*
X140340288Y-125358210D01*
X140209185Y-125270609D01*
X140209172Y-125270602D01*
X140063501Y-125210264D01*
X140063489Y-125210261D01*
X139908845Y-125179500D01*
X139908842Y-125179500D01*
X139844500Y-125179500D01*
X139777461Y-125159815D01*
X139731706Y-125107011D01*
X139720500Y-125055500D01*
X139720500Y-124991155D01*
X139720499Y-124991153D01*
X139711852Y-124947681D01*
X139689737Y-124836503D01*
X139678345Y-124809000D01*
X139629397Y-124690827D01*
X139629390Y-124690814D01*
X139541790Y-124559712D01*
X139530065Y-124547987D01*
X139517883Y-124535805D01*
X139484399Y-124474485D01*
X139489382Y-124404794D01*
X139490990Y-124400706D01*
X139492735Y-124396495D01*
X139523498Y-124241840D01*
X139523498Y-124084156D01*
X139523498Y-124084153D01*
X139523497Y-124084151D01*
X139514286Y-124037844D01*
X139492735Y-123929501D01*
X139441891Y-123806752D01*
X139432395Y-123783826D01*
X139432394Y-123783825D01*
X139432392Y-123783819D01*
X139432388Y-123783813D01*
X139429519Y-123778445D01*
X139431062Y-123777620D01*
X139412655Y-123718874D01*
X139431127Y-123651490D01*
X139433502Y-123647792D01*
X139499394Y-123549179D01*
X139559737Y-123403497D01*
X139590500Y-123248842D01*
X139590500Y-123091158D01*
X139590500Y-123091155D01*
X139590499Y-123091153D01*
X139581340Y-123045106D01*
X139559737Y-122936503D01*
X139550758Y-122914825D01*
X139499397Y-122790827D01*
X139499390Y-122790814D01*
X139411789Y-122659711D01*
X139411786Y-122659707D01*
X139300292Y-122548213D01*
X139300288Y-122548210D01*
X139284412Y-122537602D01*
X139239607Y-122483990D01*
X139230900Y-122414665D01*
X139261054Y-122351638D01*
X139320497Y-122314918D01*
X139353303Y-122310500D01*
X140529903Y-122310500D01*
X140559343Y-122319144D01*
X140589330Y-122325668D01*
X140594345Y-122329422D01*
X140596942Y-122330185D01*
X140617584Y-122346819D01*
X140715139Y-122444374D01*
X140715149Y-122444385D01*
X140831285Y-122560521D01*
X140857928Y-122575903D01*
X140887499Y-122592976D01*
X140935715Y-122643542D01*
X140949500Y-122700363D01*
X140949500Y-123222870D01*
X140949501Y-123222879D01*
X140956367Y-123286751D01*
X140956367Y-123313257D01*
X140955909Y-123317516D01*
X140955909Y-123317517D01*
X140949500Y-123377127D01*
X140949500Y-123377129D01*
X140949500Y-123377133D01*
X140949500Y-124022870D01*
X140949501Y-124022876D01*
X140955908Y-124082483D01*
X141006202Y-124217328D01*
X141006206Y-124217335D01*
X141092452Y-124332544D01*
X141092455Y-124332547D01*
X141207664Y-124418793D01*
X141207671Y-124418797D01*
X141342517Y-124469091D01*
X141342516Y-124469091D01*
X141349444Y-124469835D01*
X141402127Y-124475500D01*
X142525500Y-124475499D01*
X142592539Y-124495184D01*
X142638294Y-124547987D01*
X142649500Y-124599499D01*
X142649500Y-125673330D01*
X142649499Y-125673348D01*
X142649499Y-125839054D01*
X142649498Y-125839054D01*
X142685523Y-125973497D01*
X142690423Y-125991785D01*
X142717519Y-126038716D01*
X142765323Y-126121515D01*
X142769479Y-126128714D01*
X142769481Y-126128717D01*
X142888349Y-126247585D01*
X142888355Y-126247590D01*
X143364273Y-126723508D01*
X143383977Y-126749186D01*
X143384296Y-126749738D01*
X143389480Y-126758716D01*
X143501284Y-126870520D01*
X143501285Y-126870521D01*
X143921284Y-127290520D01*
X143949933Y-127307060D01*
X143998149Y-127357627D01*
X144011373Y-127426234D01*
X143985405Y-127491099D01*
X143935387Y-127529009D01*
X143810823Y-127580604D01*
X143810814Y-127580609D01*
X143679711Y-127668210D01*
X143679707Y-127668213D01*
X143568213Y-127779707D01*
X143568210Y-127779711D01*
X143480609Y-127910814D01*
X143480602Y-127910827D01*
X143420264Y-128056498D01*
X143420261Y-128056510D01*
X143389500Y-128211153D01*
X143389500Y-128368846D01*
X143420261Y-128523489D01*
X143420264Y-128523501D01*
X143480602Y-128669172D01*
X143480609Y-128669185D01*
X143568210Y-128800288D01*
X143568213Y-128800292D01*
X143679707Y-128911786D01*
X143679711Y-128911789D01*
X143810814Y-128999390D01*
X143810827Y-128999397D01*
X143954342Y-129058842D01*
X143956503Y-129059737D01*
X144111153Y-129090499D01*
X144111156Y-129090500D01*
X144111158Y-129090500D01*
X144268844Y-129090500D01*
X144268845Y-129090499D01*
X144423497Y-129059737D01*
X144546386Y-129008835D01*
X144569172Y-128999397D01*
X144569172Y-128999396D01*
X144569179Y-128999394D01*
X144700289Y-128911789D01*
X144811789Y-128800289D01*
X144899394Y-128669179D01*
X144959737Y-128523497D01*
X144990500Y-128368842D01*
X144990500Y-128211158D01*
X144990499Y-128211153D01*
X144990293Y-128209060D01*
X144990500Y-128207968D01*
X144990500Y-128205066D01*
X144991050Y-128205066D01*
X145003311Y-128140414D01*
X145051375Y-128089703D01*
X145119226Y-128073027D01*
X145182587Y-128093802D01*
X145250814Y-128139390D01*
X145250827Y-128139397D01*
X145342412Y-128177332D01*
X145396503Y-128199737D01*
X145525207Y-128225338D01*
X145551153Y-128230499D01*
X145551156Y-128230500D01*
X145551158Y-128230500D01*
X145708844Y-128230500D01*
X145708845Y-128230499D01*
X145863497Y-128199737D01*
X145995227Y-128145173D01*
X146009172Y-128139397D01*
X146009172Y-128139396D01*
X146009179Y-128139394D01*
X146026608Y-128127747D01*
X146093285Y-128106870D01*
X146160666Y-128125354D01*
X146207356Y-128177332D01*
X146219500Y-128230850D01*
X146219500Y-128348846D01*
X146250261Y-128503489D01*
X146250264Y-128503501D01*
X146310602Y-128649172D01*
X146310609Y-128649185D01*
X146398210Y-128780288D01*
X146398213Y-128780292D01*
X146509707Y-128891786D01*
X146509711Y-128891789D01*
X146640814Y-128979390D01*
X146640827Y-128979397D01*
X146711898Y-129008835D01*
X146786503Y-129039737D01*
X146941153Y-129070499D01*
X146941156Y-129070500D01*
X146941158Y-129070500D01*
X147098844Y-129070500D01*
X147098845Y-129070499D01*
X147253497Y-129039737D01*
X147399179Y-128979394D01*
X147530289Y-128891789D01*
X147641789Y-128780289D01*
X147729394Y-128649179D01*
X147789737Y-128503497D01*
X147820500Y-128348842D01*
X147820500Y-128191158D01*
X147820500Y-128191155D01*
X147820499Y-128191153D01*
X147819952Y-128188403D01*
X147789737Y-128036503D01*
X147770108Y-127989116D01*
X147762640Y-127919647D01*
X147793915Y-127857168D01*
X147854004Y-127821516D01*
X147923829Y-127824010D01*
X147932122Y-127827103D01*
X147941381Y-127830938D01*
X147941386Y-127830940D01*
X148096036Y-127861702D01*
X148096039Y-127861703D01*
X148096041Y-127861703D01*
X148253727Y-127861703D01*
X148253728Y-127861702D01*
X148408380Y-127830940D01*
X148554062Y-127770597D01*
X148683653Y-127684006D01*
X148750329Y-127663129D01*
X148814543Y-127679722D01*
X148918216Y-127739577D01*
X149012066Y-127764724D01*
X149012065Y-127764724D01*
X149024507Y-127768057D01*
X149070942Y-127780500D01*
X149070943Y-127780500D01*
X149385099Y-127780500D01*
X149452138Y-127800185D01*
X149490638Y-127839404D01*
X149514660Y-127878350D01*
X149636650Y-128000340D01*
X149783484Y-128090908D01*
X149947247Y-128145174D01*
X150048323Y-128155500D01*
X150646676Y-128155499D01*
X150646684Y-128155498D01*
X150646687Y-128155498D01*
X150702030Y-128149844D01*
X150747753Y-128145174D01*
X150911516Y-128090908D01*
X151058350Y-128000340D01*
X151172319Y-127886371D01*
X151233642Y-127852886D01*
X151303334Y-127857870D01*
X151347681Y-127886371D01*
X151461650Y-128000340D01*
X151608484Y-128090908D01*
X151772247Y-128145174D01*
X151873323Y-128155500D01*
X152471676Y-128155499D01*
X152471684Y-128155498D01*
X152471687Y-128155498D01*
X152527030Y-128149844D01*
X152572753Y-128145174D01*
X152736516Y-128090908D01*
X152759087Y-128076985D01*
X152826475Y-128058545D01*
X152893139Y-128079465D01*
X152914033Y-128098762D01*
X152914553Y-128098243D01*
X152919660Y-128103350D01*
X153041650Y-128225340D01*
X153188484Y-128315908D01*
X153352247Y-128370174D01*
X153453323Y-128380500D01*
X154026676Y-128380499D01*
X154026684Y-128380498D01*
X154026687Y-128380498D01*
X154082030Y-128374844D01*
X154127753Y-128370174D01*
X154291516Y-128315908D01*
X154329517Y-128292468D01*
X154396907Y-128274028D01*
X154463571Y-128294950D01*
X154508341Y-128348591D01*
X154512319Y-128359004D01*
X154520640Y-128384117D01*
X154520643Y-128384124D01*
X154612684Y-128533345D01*
X154736654Y-128657315D01*
X154885875Y-128749356D01*
X154885880Y-128749358D01*
X155052302Y-128804505D01*
X155052309Y-128804506D01*
X155155019Y-128814999D01*
X155429999Y-128814999D01*
X155930000Y-128814999D01*
X156204972Y-128814999D01*
X156204986Y-128814998D01*
X156307697Y-128804505D01*
X156474119Y-128749358D01*
X156474124Y-128749356D01*
X156623345Y-128657315D01*
X156747315Y-128533345D01*
X156839356Y-128384124D01*
X156839358Y-128384119D01*
X156894505Y-128217697D01*
X156894506Y-128217690D01*
X156904999Y-128114986D01*
X156905000Y-128114973D01*
X156905000Y-127977500D01*
X155930000Y-127977500D01*
X155930000Y-128814999D01*
X155429999Y-128814999D01*
X155430000Y-128814998D01*
X155430000Y-127851500D01*
X155449685Y-127784461D01*
X155502489Y-127738706D01*
X155554000Y-127727500D01*
X155680000Y-127727500D01*
X155680000Y-127601500D01*
X155699685Y-127534461D01*
X155752489Y-127488706D01*
X155804000Y-127477500D01*
X156904999Y-127477500D01*
X156904999Y-127340028D01*
X156904998Y-127340013D01*
X156894505Y-127237300D01*
X156878412Y-127188735D01*
X156876009Y-127118907D01*
X156911740Y-127058865D01*
X156974260Y-127027672D01*
X157009366Y-127026440D01*
X157047127Y-127030500D01*
X158670872Y-127030499D01*
X158730483Y-127024091D01*
X158865331Y-126973796D01*
X158980546Y-126887546D01*
X159066796Y-126772331D01*
X159117091Y-126637483D01*
X159123500Y-126577873D01*
X159123499Y-125832128D01*
X159117091Y-125772517D01*
X159107391Y-125746510D01*
X159066797Y-125637670D01*
X159062547Y-125629888D01*
X159065616Y-125628211D01*
X159047043Y-125578495D01*
X159061858Y-125510215D01*
X159062239Y-125509622D01*
X159066350Y-125502093D01*
X159116597Y-125367376D01*
X159116598Y-125367372D01*
X159122999Y-125307844D01*
X159123000Y-125307827D01*
X159123000Y-125185000D01*
X157983000Y-125185000D01*
X157915961Y-125165315D01*
X157870206Y-125112511D01*
X157859000Y-125061000D01*
X157859000Y-124809000D01*
X157878685Y-124741961D01*
X157931489Y-124696206D01*
X157983000Y-124685000D01*
X159123000Y-124685000D01*
X159123000Y-124562172D01*
X159122999Y-124562155D01*
X159116598Y-124502627D01*
X159116597Y-124502623D01*
X159066349Y-124367904D01*
X159062101Y-124360123D01*
X159065360Y-124358343D01*
X159047046Y-124309374D01*
X159061836Y-124241087D01*
X159063023Y-124239239D01*
X159066793Y-124232335D01*
X159066792Y-124232335D01*
X159066796Y-124232331D01*
X159117091Y-124097483D01*
X159123500Y-124037873D01*
X159123499Y-123740096D01*
X159143183Y-123673058D01*
X159159809Y-123652425D01*
X159404520Y-123407716D01*
X159483577Y-123270784D01*
X159524501Y-123118057D01*
X159524501Y-122959942D01*
X159524501Y-122952347D01*
X159524500Y-122952329D01*
X159524500Y-121659060D01*
X159524501Y-121659047D01*
X159524501Y-121490944D01*
X159522092Y-121481954D01*
X159483577Y-121338216D01*
X159481432Y-121334500D01*
X159404524Y-121201290D01*
X159404518Y-121201282D01*
X159145417Y-120942181D01*
X159111932Y-120880858D01*
X159113578Y-120857844D01*
X161997000Y-120857844D01*
X162003401Y-120917372D01*
X162003403Y-120917379D01*
X162053645Y-121052086D01*
X162053649Y-121052093D01*
X162139809Y-121167187D01*
X162139812Y-121167190D01*
X162254906Y-121253350D01*
X162254913Y-121253354D01*
X162389620Y-121303596D01*
X162389627Y-121303598D01*
X162449155Y-121309999D01*
X162449172Y-121310000D01*
X163011000Y-121310000D01*
X163011000Y-120735000D01*
X161997000Y-120735000D01*
X161997000Y-120857844D01*
X159113578Y-120857844D01*
X159116916Y-120811166D01*
X159158788Y-120755233D01*
X159224252Y-120730816D01*
X159233098Y-120730500D01*
X159278844Y-120730500D01*
X159278845Y-120730499D01*
X159433497Y-120699737D01*
X159579179Y-120639394D01*
X159602971Y-120623497D01*
X159667267Y-120580536D01*
X159701758Y-120557489D01*
X159710289Y-120551789D01*
X159821789Y-120440289D01*
X159909394Y-120309179D01*
X159969737Y-120163497D01*
X159995478Y-120034091D01*
X160000638Y-120008150D01*
X160033023Y-119946239D01*
X160034518Y-119944716D01*
X161397416Y-118581819D01*
X161458739Y-118548334D01*
X161485097Y-118545500D01*
X161912717Y-118545500D01*
X161979756Y-118565185D01*
G37*
%TD.AperFunction*%
%TA.AperFunction,Conductor*%
G36*
X173162783Y-105802767D02*
G01*
X173196545Y-105863938D01*
X173199500Y-105890845D01*
X173199500Y-127096519D01*
X173199305Y-127103472D01*
X173182916Y-127395296D01*
X173181359Y-127409114D01*
X173132984Y-127693827D01*
X173129890Y-127707384D01*
X173049939Y-127984899D01*
X173045346Y-127998024D01*
X172934830Y-128264834D01*
X172928797Y-128277362D01*
X172789100Y-128530125D01*
X172781702Y-128541899D01*
X172614584Y-128777430D01*
X172605914Y-128788302D01*
X172413475Y-129003642D01*
X172403642Y-129013475D01*
X172188302Y-129205914D01*
X172177430Y-129214584D01*
X171941899Y-129381702D01*
X171930125Y-129389100D01*
X171677362Y-129528797D01*
X171664834Y-129534830D01*
X171398024Y-129645346D01*
X171384899Y-129649939D01*
X171107384Y-129729890D01*
X171093827Y-129732984D01*
X171062081Y-129738378D01*
X170992692Y-129730201D01*
X170938738Y-129685808D01*
X170917350Y-129619292D01*
X170935319Y-129551773D01*
X170953630Y-129528448D01*
X170991786Y-129490292D01*
X170991789Y-129490289D01*
X171079394Y-129359179D01*
X171139737Y-129213497D01*
X171170500Y-129058842D01*
X171170500Y-128901158D01*
X171170500Y-128901155D01*
X171170499Y-128901153D01*
X171153362Y-128814999D01*
X171139737Y-128746503D01*
X171139735Y-128746498D01*
X171079397Y-128600827D01*
X171079390Y-128600814D01*
X170990907Y-128468390D01*
X170970029Y-128401712D01*
X170988514Y-128334332D01*
X171040492Y-128287642D01*
X171094009Y-128275499D01*
X171151670Y-128275499D01*
X171151676Y-128275499D01*
X171252753Y-128265174D01*
X171416516Y-128210908D01*
X171563350Y-128120340D01*
X171685340Y-127998350D01*
X171775908Y-127851516D01*
X171830174Y-127687753D01*
X171840500Y-127586677D01*
X171840499Y-127013324D01*
X171835795Y-126967278D01*
X171830174Y-126912247D01*
X171816347Y-126870520D01*
X171775908Y-126748484D01*
X171685340Y-126601650D01*
X171661371Y-126577681D01*
X171627886Y-126516358D01*
X171632870Y-126446666D01*
X171661371Y-126402319D01*
X171674598Y-126389092D01*
X171695340Y-126368350D01*
X171785908Y-126221516D01*
X171840174Y-126057753D01*
X171850500Y-125956677D01*
X171850499Y-125383324D01*
X171850108Y-125379500D01*
X171840174Y-125282247D01*
X171838927Y-125278484D01*
X171785908Y-125118484D01*
X171695340Y-124971650D01*
X171671371Y-124947681D01*
X171637886Y-124886358D01*
X171642870Y-124816666D01*
X171671371Y-124772319D01*
X171695340Y-124748350D01*
X171785908Y-124601516D01*
X171840174Y-124437753D01*
X171850500Y-124336677D01*
X171850499Y-123763324D01*
X171848126Y-123740097D01*
X171840174Y-123662247D01*
X171830624Y-123633427D01*
X171785908Y-123498484D01*
X171695340Y-123351650D01*
X171573350Y-123229660D01*
X171466568Y-123163796D01*
X171426518Y-123139093D01*
X171426513Y-123139091D01*
X171421193Y-123137328D01*
X171262753Y-123084826D01*
X171262751Y-123084825D01*
X171161678Y-123074500D01*
X170563330Y-123074500D01*
X170563312Y-123074501D01*
X170462247Y-123084825D01*
X170298484Y-123139092D01*
X170298481Y-123139093D01*
X170151648Y-123229661D01*
X170037681Y-123343629D01*
X169976358Y-123377114D01*
X169906666Y-123372130D01*
X169862319Y-123343629D01*
X169748351Y-123229661D01*
X169748350Y-123229660D01*
X169641568Y-123163796D01*
X169601518Y-123139093D01*
X169601513Y-123139091D01*
X169596193Y-123137328D01*
X169437753Y-123084826D01*
X169437751Y-123084825D01*
X169336678Y-123074500D01*
X168738330Y-123074500D01*
X168738312Y-123074501D01*
X168637247Y-123084825D01*
X168473484Y-123139092D01*
X168473481Y-123139093D01*
X168326648Y-123229661D01*
X168322671Y-123233638D01*
X168261344Y-123267116D01*
X168191653Y-123262124D01*
X168147318Y-123233628D01*
X168098351Y-123184661D01*
X168098350Y-123184660D01*
X167956315Y-123097052D01*
X167909593Y-123045106D01*
X167898370Y-122976143D01*
X167915876Y-122926418D01*
X167955903Y-122861524D01*
X167955902Y-122861524D01*
X167955908Y-122861516D01*
X168010174Y-122697753D01*
X168020500Y-122596677D01*
X168020499Y-122023324D01*
X168017434Y-121993323D01*
X168010174Y-121922247D01*
X167978834Y-121827671D01*
X167955908Y-121758484D01*
X167865340Y-121611650D01*
X167743350Y-121489660D01*
X167596516Y-121399092D01*
X167432753Y-121344826D01*
X167432751Y-121344825D01*
X167331678Y-121334500D01*
X166633330Y-121334500D01*
X166633312Y-121334501D01*
X166532247Y-121344825D01*
X166368484Y-121399092D01*
X166368481Y-121399093D01*
X166221648Y-121489661D01*
X166207681Y-121503629D01*
X166146358Y-121537114D01*
X166076666Y-121532130D01*
X166032319Y-121503629D01*
X166018351Y-121489661D01*
X166018350Y-121489660D01*
X165871516Y-121399092D01*
X165707753Y-121344826D01*
X165707751Y-121344825D01*
X165606684Y-121334500D01*
X165606677Y-121334500D01*
X165050500Y-121334500D01*
X164983461Y-121314815D01*
X164937706Y-121262011D01*
X164926500Y-121210500D01*
X164926500Y-119930060D01*
X164926501Y-119930047D01*
X164926501Y-119761944D01*
X164926501Y-119761943D01*
X164885577Y-119609216D01*
X164885573Y-119609209D01*
X164806524Y-119472290D01*
X164806518Y-119472282D01*
X164561818Y-119227582D01*
X164528333Y-119166259D01*
X164525499Y-119139901D01*
X164525499Y-118842129D01*
X164525498Y-118842123D01*
X164524792Y-118835558D01*
X164519091Y-118782517D01*
X164496204Y-118721153D01*
X164468797Y-118647670D01*
X164464547Y-118639888D01*
X164467757Y-118638134D01*
X164449361Y-118589001D01*
X164464127Y-118520709D01*
X164464752Y-118519736D01*
X164468797Y-118512329D01*
X164502162Y-118422872D01*
X164519091Y-118377483D01*
X164525500Y-118317873D01*
X164525499Y-117572128D01*
X164519091Y-117512517D01*
X164508263Y-117483485D01*
X164468797Y-117377670D01*
X164464547Y-117369888D01*
X164467757Y-117368134D01*
X164449361Y-117319001D01*
X164464127Y-117250709D01*
X164464752Y-117249736D01*
X164468797Y-117242329D01*
X164488737Y-117188866D01*
X164519091Y-117107483D01*
X164525500Y-117047873D01*
X164525499Y-116302128D01*
X164519091Y-116242517D01*
X164507149Y-116210500D01*
X164468797Y-116107671D01*
X164468793Y-116107664D01*
X164382547Y-115992455D01*
X164382544Y-115992452D01*
X164267335Y-115906206D01*
X164267328Y-115906202D01*
X164132482Y-115855908D01*
X164132483Y-115855908D01*
X164072883Y-115849501D01*
X164072881Y-115849500D01*
X164072873Y-115849500D01*
X164072864Y-115849500D01*
X162449129Y-115849500D01*
X162449123Y-115849501D01*
X162389516Y-115855908D01*
X162254671Y-115906202D01*
X162254664Y-115906206D01*
X162139455Y-115992452D01*
X162139452Y-115992455D01*
X162053206Y-116107664D01*
X162053202Y-116107671D01*
X162002910Y-116242513D01*
X162002909Y-116242517D01*
X161996500Y-116302127D01*
X161996500Y-116302134D01*
X161996500Y-116302135D01*
X161996500Y-117047870D01*
X161996501Y-117047876D01*
X162002908Y-117107483D01*
X162028899Y-117177167D01*
X162033883Y-117246859D01*
X162000398Y-117308182D01*
X161939074Y-117341666D01*
X161912717Y-117344500D01*
X161271669Y-117344500D01*
X161271653Y-117344499D01*
X161264057Y-117344499D01*
X161105943Y-117344499D01*
X160998587Y-117373265D01*
X160953210Y-117385424D01*
X160953209Y-117385425D01*
X160903096Y-117414359D01*
X160903095Y-117414360D01*
X160859689Y-117439420D01*
X160816285Y-117464479D01*
X160816282Y-117464481D01*
X159315180Y-118965584D01*
X159253857Y-118999069D01*
X159184165Y-118994085D01*
X159128232Y-118952213D01*
X159103815Y-118886749D01*
X159103499Y-118877903D01*
X159103499Y-118842129D01*
X159103498Y-118842123D01*
X159102792Y-118835558D01*
X159097091Y-118782517D01*
X159074204Y-118721153D01*
X159046797Y-118647670D01*
X159042547Y-118639888D01*
X159045757Y-118638134D01*
X159027361Y-118589001D01*
X159042127Y-118520709D01*
X159042752Y-118519736D01*
X159046797Y-118512329D01*
X159080162Y-118422872D01*
X159097091Y-118377483D01*
X159103500Y-118317873D01*
X159103499Y-117572128D01*
X159097091Y-117512517D01*
X159086263Y-117483485D01*
X159046797Y-117377670D01*
X159042547Y-117369888D01*
X159045757Y-117368134D01*
X159027361Y-117319001D01*
X159042127Y-117250709D01*
X159042752Y-117249736D01*
X159046797Y-117242329D01*
X159066737Y-117188866D01*
X159097091Y-117107483D01*
X159103500Y-117047873D01*
X159103499Y-116302128D01*
X159097091Y-116242517D01*
X159085149Y-116210500D01*
X159046797Y-116107671D01*
X159046793Y-116107664D01*
X158960547Y-115992455D01*
X158863256Y-115919622D01*
X158821386Y-115863688D01*
X158816402Y-115793996D01*
X158849888Y-115732674D01*
X158911211Y-115699189D01*
X158961758Y-115698739D01*
X158992934Y-115704940D01*
X159071155Y-115720500D01*
X159071158Y-115720500D01*
X159228844Y-115720500D01*
X159228845Y-115720499D01*
X159383497Y-115689737D01*
X159529179Y-115629394D01*
X159660289Y-115541789D01*
X159771789Y-115430289D01*
X159838030Y-115331153D01*
X170449500Y-115331153D01*
X170449500Y-115488846D01*
X170480261Y-115643489D01*
X170480264Y-115643501D01*
X170540602Y-115789172D01*
X170540609Y-115789185D01*
X170628210Y-115920288D01*
X170628213Y-115920292D01*
X170739707Y-116031786D01*
X170739711Y-116031789D01*
X170870814Y-116119390D01*
X170870827Y-116119397D01*
X171010310Y-116177172D01*
X171016503Y-116179737D01*
X171151039Y-116206498D01*
X171171153Y-116210499D01*
X171171156Y-116210500D01*
X171171158Y-116210500D01*
X171328844Y-116210500D01*
X171328845Y-116210499D01*
X171483497Y-116179737D01*
X171629179Y-116119394D01*
X171760289Y-116031789D01*
X171871789Y-115920289D01*
X171959394Y-115789179D01*
X172019737Y-115643497D01*
X172050500Y-115488842D01*
X172050500Y-115331158D01*
X172050500Y-115331155D01*
X172050499Y-115331153D01*
X172044139Y-115299179D01*
X172019737Y-115176503D01*
X172010208Y-115153497D01*
X171959397Y-115030827D01*
X171959390Y-115030814D01*
X171871789Y-114899711D01*
X171871786Y-114899707D01*
X171760292Y-114788213D01*
X171760288Y-114788210D01*
X171629185Y-114700609D01*
X171629172Y-114700602D01*
X171483501Y-114640264D01*
X171483489Y-114640261D01*
X171328845Y-114609500D01*
X171328842Y-114609500D01*
X171171158Y-114609500D01*
X171171155Y-114609500D01*
X171016510Y-114640261D01*
X171016498Y-114640264D01*
X170870827Y-114700602D01*
X170870814Y-114700609D01*
X170739711Y-114788210D01*
X170739707Y-114788213D01*
X170628213Y-114899707D01*
X170628210Y-114899711D01*
X170540609Y-115030814D01*
X170540602Y-115030827D01*
X170480264Y-115176498D01*
X170480261Y-115176510D01*
X170449500Y-115331153D01*
X159838030Y-115331153D01*
X159859394Y-115299179D01*
X159862337Y-115292074D01*
X159868327Y-115277614D01*
X159910205Y-115176510D01*
X159919737Y-115153497D01*
X159950500Y-114998842D01*
X159950500Y-114841158D01*
X159950500Y-114841155D01*
X159950499Y-114841153D01*
X159947364Y-114825391D01*
X159919737Y-114686503D01*
X159917783Y-114681786D01*
X159859397Y-114540827D01*
X159859390Y-114540814D01*
X159771789Y-114409711D01*
X159771786Y-114409707D01*
X159660292Y-114298213D01*
X159660288Y-114298210D01*
X159529185Y-114210609D01*
X159529172Y-114210602D01*
X159383501Y-114150264D01*
X159383489Y-114150261D01*
X159228845Y-114119500D01*
X159228842Y-114119500D01*
X159071158Y-114119500D01*
X159071155Y-114119500D01*
X158916510Y-114150261D01*
X158916498Y-114150264D01*
X158770827Y-114210602D01*
X158770814Y-114210609D01*
X158639711Y-114298210D01*
X158571934Y-114365987D01*
X158510610Y-114399471D01*
X158440919Y-114394486D01*
X158384985Y-114352615D01*
X158374889Y-114336748D01*
X158374396Y-114335826D01*
X158374394Y-114335821D01*
X158344635Y-114291284D01*
X158286789Y-114204711D01*
X158286786Y-114204707D01*
X158175292Y-114093213D01*
X158175288Y-114093210D01*
X158044185Y-114005609D01*
X158044172Y-114005602D01*
X157898501Y-113945264D01*
X157898489Y-113945261D01*
X157743845Y-113914500D01*
X157743842Y-113914500D01*
X157586158Y-113914500D01*
X157586155Y-113914500D01*
X157431510Y-113945261D01*
X157431498Y-113945264D01*
X157285815Y-114005607D01*
X157284999Y-114006044D01*
X157284523Y-114006143D01*
X157280192Y-114007937D01*
X157279851Y-114007114D01*
X157216594Y-114020276D01*
X157157671Y-113999779D01*
X157039185Y-113920609D01*
X157039172Y-113920602D01*
X156893501Y-113860264D01*
X156893489Y-113860261D01*
X156738845Y-113829500D01*
X156738842Y-113829500D01*
X156581158Y-113829500D01*
X156577412Y-113830245D01*
X156575411Y-113830065D01*
X156575096Y-113830097D01*
X156575090Y-113830037D01*
X156569506Y-113829537D01*
X156562070Y-113832311D01*
X156535207Y-113826467D01*
X156507821Y-113824016D01*
X156499812Y-113818767D01*
X156493797Y-113817459D01*
X156465543Y-113796308D01*
X156463276Y-113794041D01*
X156429791Y-113732718D01*
X156434775Y-113663026D01*
X156447855Y-113637469D01*
X156526890Y-113519185D01*
X156526890Y-113519184D01*
X156526894Y-113519179D01*
X156587237Y-113373497D01*
X156618000Y-113218842D01*
X156618000Y-113061158D01*
X156618000Y-113061155D01*
X156617999Y-113061153D01*
X156599815Y-112969737D01*
X156587237Y-112906503D01*
X156580149Y-112889390D01*
X156526897Y-112760827D01*
X156526890Y-112760814D01*
X156439289Y-112629711D01*
X156439286Y-112629707D01*
X156327792Y-112518213D01*
X156327788Y-112518210D01*
X156196685Y-112430609D01*
X156196672Y-112430602D01*
X156051001Y-112370264D01*
X156050989Y-112370261D01*
X155896345Y-112339500D01*
X155896342Y-112339500D01*
X155738658Y-112339500D01*
X155738655Y-112339500D01*
X155584010Y-112370261D01*
X155583998Y-112370264D01*
X155438327Y-112430602D01*
X155438316Y-112430608D01*
X155320029Y-112509645D01*
X155253352Y-112530522D01*
X155185972Y-112512037D01*
X155163458Y-112494223D01*
X154770388Y-112101153D01*
X164054792Y-112101153D01*
X164054792Y-112258846D01*
X164085553Y-112413489D01*
X164085556Y-112413501D01*
X164145894Y-112559172D01*
X164145901Y-112559185D01*
X164233502Y-112690288D01*
X164233505Y-112690292D01*
X164344999Y-112801786D01*
X164345003Y-112801789D01*
X164476106Y-112889390D01*
X164476119Y-112889397D01*
X164585374Y-112934651D01*
X164621795Y-112949737D01*
X164654982Y-112956338D01*
X164716892Y-112988721D01*
X164751468Y-113049435D01*
X164754792Y-113077955D01*
X164754792Y-113178846D01*
X164785553Y-113333489D01*
X164785556Y-113333501D01*
X164845894Y-113479172D01*
X164845901Y-113479185D01*
X164933502Y-113610288D01*
X164933505Y-113610292D01*
X165044999Y-113721786D01*
X165045003Y-113721789D01*
X165176106Y-113809390D01*
X165176119Y-113809397D01*
X165298925Y-113860264D01*
X165321795Y-113869737D01*
X165476445Y-113900499D01*
X165476448Y-113900500D01*
X165476450Y-113900500D01*
X165634136Y-113900500D01*
X165634137Y-113900499D01*
X165788789Y-113869737D01*
X165934471Y-113809394D01*
X166065581Y-113721789D01*
X166177081Y-113610289D01*
X166264686Y-113479179D01*
X166325029Y-113333497D01*
X166355792Y-113178842D01*
X166355792Y-113021158D01*
X166355792Y-113021155D01*
X166355791Y-113021153D01*
X166341585Y-112949736D01*
X166325029Y-112866503D01*
X166281257Y-112760827D01*
X166264689Y-112720827D01*
X166264682Y-112720814D01*
X166177081Y-112589711D01*
X166177078Y-112589707D01*
X166065584Y-112478213D01*
X166065580Y-112478210D01*
X165934477Y-112390609D01*
X165934464Y-112390602D01*
X165788793Y-112330264D01*
X165788785Y-112330262D01*
X165755598Y-112323660D01*
X165693688Y-112291273D01*
X165659115Y-112230557D01*
X165655792Y-112202043D01*
X165655792Y-112101155D01*
X165655791Y-112101153D01*
X165645453Y-112049179D01*
X165625029Y-111946503D01*
X165625027Y-111946498D01*
X165564689Y-111800827D01*
X165564682Y-111800814D01*
X165477081Y-111669711D01*
X165477078Y-111669707D01*
X165365584Y-111558213D01*
X165365580Y-111558210D01*
X165234477Y-111470609D01*
X165234464Y-111470602D01*
X165088793Y-111410264D01*
X165088781Y-111410261D01*
X164934137Y-111379500D01*
X164934134Y-111379500D01*
X164776450Y-111379500D01*
X164776447Y-111379500D01*
X164621802Y-111410261D01*
X164621790Y-111410264D01*
X164476119Y-111470602D01*
X164476106Y-111470609D01*
X164345003Y-111558210D01*
X164344999Y-111558213D01*
X164233505Y-111669707D01*
X164233502Y-111669711D01*
X164145901Y-111800814D01*
X164145894Y-111800827D01*
X164085556Y-111946498D01*
X164085553Y-111946510D01*
X164054792Y-112101153D01*
X154770388Y-112101153D01*
X153816819Y-111147584D01*
X153783334Y-111086261D01*
X153780500Y-111059903D01*
X153780500Y-111051155D01*
X153780499Y-111051153D01*
X153770159Y-110999172D01*
X153749737Y-110896503D01*
X153731925Y-110853501D01*
X153689397Y-110750827D01*
X153689390Y-110750814D01*
X153601789Y-110619711D01*
X153601786Y-110619707D01*
X153490292Y-110508213D01*
X153490288Y-110508210D01*
X153359185Y-110420609D01*
X153359172Y-110420602D01*
X153213501Y-110360264D01*
X153213489Y-110360261D01*
X153058845Y-110329500D01*
X153058842Y-110329500D01*
X152901158Y-110329500D01*
X152901155Y-110329500D01*
X152746510Y-110360261D01*
X152746498Y-110360264D01*
X152600827Y-110420602D01*
X152600814Y-110420609D01*
X152469711Y-110508210D01*
X152469707Y-110508213D01*
X152358213Y-110619707D01*
X152358210Y-110619711D01*
X152270609Y-110750814D01*
X152270602Y-110750827D01*
X152210264Y-110896498D01*
X152210261Y-110896510D01*
X152179500Y-111051153D01*
X152179500Y-111208846D01*
X152210261Y-111363489D01*
X152210264Y-111363501D01*
X152270602Y-111509172D01*
X152270609Y-111509185D01*
X152358210Y-111640288D01*
X152358213Y-111640292D01*
X152469707Y-111751786D01*
X152469711Y-111751789D01*
X152600814Y-111839390D01*
X152600827Y-111839397D01*
X152746498Y-111899735D01*
X152746503Y-111899737D01*
X152864399Y-111923188D01*
X152926310Y-111955572D01*
X152927889Y-111957124D01*
X155215412Y-114244647D01*
X155248897Y-114305970D01*
X155243913Y-114375662D01*
X155215414Y-114420007D01*
X155195712Y-114439708D01*
X155195708Y-114439714D01*
X155108109Y-114570814D01*
X155108102Y-114570827D01*
X155047764Y-114716498D01*
X155047761Y-114716510D01*
X155017000Y-114871153D01*
X155017000Y-115028846D01*
X155047761Y-115183489D01*
X155047764Y-115183501D01*
X155108102Y-115329172D01*
X155108110Y-115329187D01*
X155148601Y-115389784D01*
X155154252Y-115407830D01*
X155164477Y-115423741D01*
X155168928Y-115454698D01*
X155169480Y-115456461D01*
X155169500Y-115458676D01*
X155169500Y-115705448D01*
X155149815Y-115772487D01*
X155133181Y-115793129D01*
X155049661Y-115876648D01*
X154959093Y-116023481D01*
X154959091Y-116023486D01*
X154938345Y-116086094D01*
X154904826Y-116187247D01*
X154904826Y-116187248D01*
X154904825Y-116187248D01*
X154894500Y-116288315D01*
X154894500Y-116986669D01*
X154894501Y-116986687D01*
X154904825Y-117087752D01*
X154931475Y-117168174D01*
X154956048Y-117242331D01*
X154959092Y-117251515D01*
X154959093Y-117251518D01*
X154961191Y-117254919D01*
X155041687Y-117385424D01*
X155049661Y-117398351D01*
X155063982Y-117412672D01*
X155097467Y-117473995D01*
X155092483Y-117543687D01*
X155063985Y-117588032D01*
X155050052Y-117601965D01*
X154959551Y-117748688D01*
X154959546Y-117748699D01*
X154905319Y-117912347D01*
X154895000Y-118013345D01*
X154895000Y-118112500D01*
X155746000Y-118112500D01*
X155813039Y-118132185D01*
X155858794Y-118184989D01*
X155870000Y-118236500D01*
X155870000Y-118488500D01*
X155850315Y-118555539D01*
X155797511Y-118601294D01*
X155746000Y-118612500D01*
X154895001Y-118612500D01*
X154895001Y-118711654D01*
X154905319Y-118812652D01*
X154959546Y-118976300D01*
X154959551Y-118976311D01*
X155050052Y-119123034D01*
X155050055Y-119123038D01*
X155171961Y-119244944D01*
X155171965Y-119244947D01*
X155318688Y-119335448D01*
X155318699Y-119335453D01*
X155482347Y-119389680D01*
X155583351Y-119399999D01*
X155685499Y-119399999D01*
X155752538Y-119419683D01*
X155798294Y-119472486D01*
X155809500Y-119523999D01*
X155809500Y-119598846D01*
X155840261Y-119753489D01*
X155840264Y-119753501D01*
X155900602Y-119899172D01*
X155900609Y-119899185D01*
X155988210Y-120030288D01*
X155988213Y-120030292D01*
X156099707Y-120141786D01*
X156099711Y-120141789D01*
X156230814Y-120229390D01*
X156230827Y-120229397D01*
X156376498Y-120289735D01*
X156376503Y-120289737D01*
X156444719Y-120303306D01*
X156474691Y-120309268D01*
X156536602Y-120341652D01*
X156571176Y-120402368D01*
X156574500Y-120430885D01*
X156574500Y-120857870D01*
X156574501Y-120857876D01*
X156580908Y-120917483D01*
X156631202Y-121052328D01*
X156631206Y-121052335D01*
X156717452Y-121167544D01*
X156717455Y-121167547D01*
X156832664Y-121253793D01*
X156832671Y-121253797D01*
X156861105Y-121264402D01*
X156967517Y-121304091D01*
X157027127Y-121310500D01*
X157366435Y-121310499D01*
X157397920Y-121319744D01*
X157429709Y-121327858D01*
X157431271Y-121329536D01*
X157433473Y-121330183D01*
X157454965Y-121354986D01*
X157477319Y-121378997D01*
X157477726Y-121381253D01*
X157479228Y-121382987D01*
X157483898Y-121415467D01*
X157489723Y-121447756D01*
X157488966Y-121450718D01*
X157489172Y-121452146D01*
X157480994Y-121481954D01*
X157476437Y-121492955D01*
X157432595Y-121547357D01*
X157366301Y-121569421D01*
X157361877Y-121569500D01*
X157047130Y-121569500D01*
X157047123Y-121569501D01*
X156987516Y-121575908D01*
X156986382Y-121576177D01*
X156957867Y-121579500D01*
X156824552Y-121579500D01*
X156757513Y-121559815D01*
X156736871Y-121543181D01*
X156653351Y-121459661D01*
X156653350Y-121459660D01*
X156555152Y-121399091D01*
X156506518Y-121369093D01*
X156506513Y-121369091D01*
X156463947Y-121354986D01*
X156342753Y-121314826D01*
X156342751Y-121314825D01*
X156241678Y-121304500D01*
X155543330Y-121304500D01*
X155543312Y-121304501D01*
X155442247Y-121314825D01*
X155278484Y-121369092D01*
X155278481Y-121369093D01*
X155131648Y-121459661D01*
X155117325Y-121473984D01*
X155056001Y-121507468D01*
X154986309Y-121502482D01*
X154941965Y-121473982D01*
X154928038Y-121460055D01*
X154928034Y-121460052D01*
X154781311Y-121369551D01*
X154781300Y-121369546D01*
X154617652Y-121315319D01*
X154516654Y-121305000D01*
X154417500Y-121305000D01*
X154417500Y-122156000D01*
X154397815Y-122223039D01*
X154345011Y-122268794D01*
X154293500Y-122280000D01*
X154167500Y-122280000D01*
X154167500Y-122406000D01*
X154147815Y-122473039D01*
X154095011Y-122518794D01*
X154043500Y-122530000D01*
X153130001Y-122530000D01*
X153130001Y-122566654D01*
X153140319Y-122667652D01*
X153194546Y-122831300D01*
X153194551Y-122831311D01*
X153285052Y-122978034D01*
X153285055Y-122978038D01*
X153303982Y-122996965D01*
X153306486Y-123001551D01*
X153310854Y-123004423D01*
X153323060Y-123031904D01*
X153337467Y-123058288D01*
X153337094Y-123063500D01*
X153339216Y-123068277D01*
X153334627Y-123097989D01*
X153332483Y-123127980D01*
X153329135Y-123133555D01*
X153328553Y-123137328D01*
X153316931Y-123153882D01*
X153309164Y-123166819D01*
X153306650Y-123169659D01*
X153264660Y-123211650D01*
X153253539Y-123229679D01*
X153246466Y-123237673D01*
X153225553Y-123250806D01*
X153207194Y-123267321D01*
X153194761Y-123270146D01*
X153187298Y-123274834D01*
X153174711Y-123274703D01*
X153153603Y-123279500D01*
X153114901Y-123279500D01*
X153047862Y-123259815D01*
X153009362Y-123220596D01*
X152985340Y-123181650D01*
X152863351Y-123059661D01*
X152863350Y-123059660D01*
X152731020Y-122978038D01*
X152716518Y-122969093D01*
X152716513Y-122969091D01*
X152696113Y-122962331D01*
X152552753Y-122914826D01*
X152552751Y-122914825D01*
X152451678Y-122904500D01*
X151853330Y-122904500D01*
X151853312Y-122904501D01*
X151752247Y-122914825D01*
X151588484Y-122969092D01*
X151588481Y-122969093D01*
X151441648Y-123059661D01*
X151327681Y-123173629D01*
X151266358Y-123207114D01*
X151196666Y-123202130D01*
X151152319Y-123173629D01*
X151038351Y-123059661D01*
X151038350Y-123059660D01*
X150906020Y-122978038D01*
X150891518Y-122969093D01*
X150891513Y-122969091D01*
X150871113Y-122962331D01*
X150727753Y-122914826D01*
X150727751Y-122914825D01*
X150626678Y-122904500D01*
X150028330Y-122904500D01*
X150028312Y-122904501D01*
X149927247Y-122914825D01*
X149763484Y-122969092D01*
X149763481Y-122969093D01*
X149616648Y-123059661D01*
X149494661Y-123181648D01*
X149404093Y-123328481D01*
X149404091Y-123328486D01*
X149387971Y-123377133D01*
X149349826Y-123492247D01*
X149349826Y-123492248D01*
X149349825Y-123492248D01*
X149339500Y-123593315D01*
X149339500Y-124166669D01*
X149339501Y-124166687D01*
X149349825Y-124267752D01*
X149380731Y-124361018D01*
X149399877Y-124418797D01*
X149404092Y-124431515D01*
X149404093Y-124431518D01*
X149431220Y-124475498D01*
X149484681Y-124562172D01*
X149494661Y-124578351D01*
X149558629Y-124642319D01*
X149592114Y-124703642D01*
X149587130Y-124773334D01*
X149558629Y-124817681D01*
X149504661Y-124871648D01*
X149414093Y-125018481D01*
X149414091Y-125018486D01*
X149389425Y-125092923D01*
X149359826Y-125182247D01*
X149359826Y-125182248D01*
X149359825Y-125182248D01*
X149349500Y-125283315D01*
X149349500Y-125856669D01*
X149349501Y-125856687D01*
X149359825Y-125957752D01*
X149386655Y-126038717D01*
X149413315Y-126119172D01*
X149414092Y-126121515D01*
X149414093Y-126121518D01*
X149420260Y-126131516D01*
X149493519Y-126250288D01*
X149504661Y-126268351D01*
X149528629Y-126292319D01*
X149531045Y-126296744D01*
X149535268Y-126299503D01*
X149547624Y-126327106D01*
X149562114Y-126353642D01*
X149561754Y-126358671D01*
X149563815Y-126363275D01*
X149559287Y-126393170D01*
X149557130Y-126423334D01*
X149553901Y-126428729D01*
X149553352Y-126432357D01*
X149542167Y-126448336D01*
X149534049Y-126461904D01*
X149531437Y-126464872D01*
X149514660Y-126481650D01*
X149509926Y-126489323D01*
X149502996Y-126497202D01*
X149481972Y-126510491D01*
X149463476Y-126527124D01*
X149452949Y-126528835D01*
X149443935Y-126534534D01*
X149419063Y-126534347D01*
X149394512Y-126538340D01*
X149384730Y-126534089D01*
X149374068Y-126534009D01*
X149353245Y-126520405D01*
X149330433Y-126510491D01*
X149322214Y-126502979D01*
X148427590Y-125608355D01*
X148427588Y-125608352D01*
X148308717Y-125489481D01*
X148308716Y-125489480D01*
X148219923Y-125438216D01*
X148219922Y-125438215D01*
X148171783Y-125410422D01*
X148115881Y-125395443D01*
X148019057Y-125369499D01*
X147860943Y-125369499D01*
X147853347Y-125369499D01*
X147853331Y-125369500D01*
X147841941Y-125369500D01*
X147774902Y-125349815D01*
X147729147Y-125297011D01*
X147719203Y-125227853D01*
X147748228Y-125164297D01*
X147754260Y-125157819D01*
X147801786Y-125110292D01*
X147801789Y-125110289D01*
X147889394Y-124979179D01*
X147949737Y-124833497D01*
X147980500Y-124678842D01*
X147980500Y-124521158D01*
X147980500Y-124521155D01*
X147980499Y-124521153D01*
X147975333Y-124495184D01*
X147949737Y-124366503D01*
X147918453Y-124290976D01*
X147889397Y-124220827D01*
X147889390Y-124220814D01*
X147801789Y-124089711D01*
X147801786Y-124089707D01*
X147690292Y-123978213D01*
X147690288Y-123978210D01*
X147559185Y-123890609D01*
X147559172Y-123890602D01*
X147413501Y-123830264D01*
X147413491Y-123830261D01*
X147350307Y-123817693D01*
X147288396Y-123785308D01*
X147253822Y-123724592D01*
X147250499Y-123696082D01*
X147250499Y-123377128D01*
X147244091Y-123317517D01*
X147244089Y-123317513D01*
X147243632Y-123313255D01*
X147243632Y-123286745D01*
X147244089Y-123282486D01*
X147244091Y-123282483D01*
X147250500Y-123222873D01*
X147250499Y-122887846D01*
X147270183Y-122820808D01*
X147322987Y-122775053D01*
X147350307Y-122766230D01*
X147483497Y-122739737D01*
X147629179Y-122679394D01*
X147760289Y-122591789D01*
X147871789Y-122480289D01*
X147959394Y-122349179D01*
X148019737Y-122203497D01*
X148050500Y-122048842D01*
X148050500Y-121993345D01*
X153130000Y-121993345D01*
X153130000Y-122030000D01*
X153917500Y-122030000D01*
X153917500Y-121304999D01*
X153818360Y-121305000D01*
X153818344Y-121305001D01*
X153717347Y-121315319D01*
X153553699Y-121369546D01*
X153553688Y-121369551D01*
X153406965Y-121460052D01*
X153406961Y-121460055D01*
X153285055Y-121581961D01*
X153285052Y-121581965D01*
X153194551Y-121728688D01*
X153194546Y-121728699D01*
X153140319Y-121892347D01*
X153130000Y-121993345D01*
X148050500Y-121993345D01*
X148050500Y-121891158D01*
X148050500Y-121891155D01*
X148050499Y-121891153D01*
X148019737Y-121736503D01*
X148016500Y-121728688D01*
X147959397Y-121590827D01*
X147959390Y-121590814D01*
X147871789Y-121459711D01*
X147871786Y-121459707D01*
X147760292Y-121348213D01*
X147757666Y-121346058D01*
X147756659Y-121344580D01*
X147755982Y-121343903D01*
X147756110Y-121343774D01*
X147718331Y-121288312D01*
X147716460Y-121218467D01*
X147752647Y-121158699D01*
X147767434Y-121147105D01*
X147820289Y-121111789D01*
X147931789Y-121000289D01*
X148019394Y-120869179D01*
X148024078Y-120857872D01*
X148043424Y-120811166D01*
X148079737Y-120723497D01*
X148110500Y-120568842D01*
X148110500Y-120411158D01*
X148110500Y-120411155D01*
X148110499Y-120411153D01*
X148092467Y-120320500D01*
X148079737Y-120256503D01*
X148070830Y-120235000D01*
X148019397Y-120110827D01*
X148019390Y-120110814D01*
X147931789Y-119979711D01*
X147931786Y-119979707D01*
X147820292Y-119868213D01*
X147820288Y-119868210D01*
X147758332Y-119826812D01*
X147713527Y-119773200D01*
X147704820Y-119703875D01*
X147734975Y-119640847D01*
X147774237Y-119613066D01*
X147773809Y-119612264D01*
X147779172Y-119609396D01*
X147779179Y-119609394D01*
X147910289Y-119521789D01*
X148021789Y-119410289D01*
X148109394Y-119279179D01*
X148169737Y-119133497D01*
X148200500Y-118978842D01*
X148200500Y-118821158D01*
X148200500Y-118821155D01*
X148200499Y-118821153D01*
X148192814Y-118782517D01*
X148169737Y-118666503D01*
X148158713Y-118639888D01*
X148144377Y-118605277D01*
X148136908Y-118535808D01*
X148155835Y-118488936D01*
X148161233Y-118480858D01*
X148221576Y-118335176D01*
X148252339Y-118180521D01*
X148252339Y-118022837D01*
X148252339Y-118022834D01*
X148252338Y-118022832D01*
X148221577Y-117868189D01*
X148221576Y-117868182D01*
X148183861Y-117777129D01*
X148161236Y-117722506D01*
X148161229Y-117722493D01*
X148073628Y-117591390D01*
X148069763Y-117586680D01*
X148071900Y-117584925D01*
X148044113Y-117534036D01*
X148043662Y-117483491D01*
X148060500Y-117398842D01*
X148060500Y-117241158D01*
X148060500Y-117241155D01*
X148060499Y-117241153D01*
X148045982Y-117168174D01*
X148029737Y-117086503D01*
X148013735Y-117047870D01*
X147969397Y-116940827D01*
X147969390Y-116940814D01*
X147962767Y-116930902D01*
X147941889Y-116864224D01*
X147951308Y-116814559D01*
X148009735Y-116673501D01*
X148009737Y-116673497D01*
X148040500Y-116518842D01*
X148040500Y-116361158D01*
X148040500Y-116361155D01*
X148040499Y-116361153D01*
X148009737Y-116206503D01*
X148004250Y-116193255D01*
X147949397Y-116060827D01*
X147949390Y-116060814D01*
X147861789Y-115929711D01*
X147861786Y-115929707D01*
X147750292Y-115818213D01*
X147750288Y-115818210D01*
X147619185Y-115730609D01*
X147619172Y-115730602D01*
X147473501Y-115670264D01*
X147473491Y-115670261D01*
X147350307Y-115645758D01*
X147323958Y-115631975D01*
X147296509Y-115620544D01*
X147293337Y-115615957D01*
X147288396Y-115613373D01*
X147273680Y-115587531D01*
X147256770Y-115563076D01*
X147255592Y-115555766D01*
X147253822Y-115552657D01*
X147250570Y-115528330D01*
X147250499Y-115526229D01*
X147250499Y-115377128D01*
X147244091Y-115317517D01*
X147243379Y-115315608D01*
X147242993Y-115304189D01*
X147243632Y-115301705D01*
X147243632Y-115286745D01*
X147244089Y-115282486D01*
X147244091Y-115282483D01*
X147250500Y-115222873D01*
X147250499Y-114577128D01*
X147244091Y-114517517D01*
X147230763Y-114481784D01*
X147193797Y-114382671D01*
X147193793Y-114382664D01*
X147107547Y-114267455D01*
X147107544Y-114267452D01*
X146992335Y-114181206D01*
X146992328Y-114181202D01*
X146857482Y-114130908D01*
X146857483Y-114130908D01*
X146797883Y-114124501D01*
X146797881Y-114124500D01*
X146797873Y-114124500D01*
X146797865Y-114124500D01*
X146203500Y-114124500D01*
X146136461Y-114104815D01*
X146090706Y-114052011D01*
X146079500Y-114000500D01*
X146079500Y-113933072D01*
X146053388Y-113801802D01*
X146053387Y-113801801D01*
X146053387Y-113801797D01*
X146020247Y-113721789D01*
X146002168Y-113678142D01*
X146002166Y-113678138D01*
X146002165Y-113678136D01*
X145952222Y-113603391D01*
X145931344Y-113536714D01*
X145949828Y-113469334D01*
X146001807Y-113422643D01*
X146055324Y-113410500D01*
X148189903Y-113410500D01*
X148256942Y-113430185D01*
X148277584Y-113446819D01*
X149703181Y-114872416D01*
X149736666Y-114933739D01*
X149739500Y-114960097D01*
X149739500Y-118300234D01*
X149719815Y-118367273D01*
X149718602Y-118369125D01*
X149630609Y-118500814D01*
X149630602Y-118500827D01*
X149570264Y-118646498D01*
X149570261Y-118646510D01*
X149539500Y-118801153D01*
X149539500Y-118958846D01*
X149570261Y-119113489D01*
X149570264Y-119113501D01*
X149630602Y-119259172D01*
X149630609Y-119259185D01*
X149718210Y-119390289D01*
X149719504Y-119391865D01*
X149719923Y-119392851D01*
X149721595Y-119395354D01*
X149721120Y-119395671D01*
X149746817Y-119456175D01*
X149735026Y-119525042D01*
X149687874Y-119576603D01*
X149647843Y-119592147D01*
X149506508Y-119620261D01*
X149506498Y-119620264D01*
X149360827Y-119680602D01*
X149360814Y-119680609D01*
X149229711Y-119768210D01*
X149229707Y-119768213D01*
X149118213Y-119879707D01*
X149118210Y-119879711D01*
X149030609Y-120010814D01*
X149030602Y-120010827D01*
X148970264Y-120156498D01*
X148970261Y-120156510D01*
X148939500Y-120311153D01*
X148939500Y-120468846D01*
X148970261Y-120623489D01*
X148970264Y-120623501D01*
X149030602Y-120769172D01*
X149030609Y-120769185D01*
X149118210Y-120900288D01*
X149118213Y-120900292D01*
X149229707Y-121011786D01*
X149229711Y-121011789D01*
X149360814Y-121099390D01*
X149360827Y-121099397D01*
X149503997Y-121158699D01*
X149506503Y-121159737D01*
X149661153Y-121190499D01*
X149661156Y-121190500D01*
X149661158Y-121190500D01*
X149818844Y-121190500D01*
X149818845Y-121190499D01*
X149973497Y-121159737D01*
X150119179Y-121099394D01*
X150250289Y-121011789D01*
X150361789Y-120900289D01*
X150449394Y-120769179D01*
X150509737Y-120623497D01*
X150540500Y-120468842D01*
X150540500Y-120311158D01*
X150540500Y-120311155D01*
X150540499Y-120311153D01*
X150526350Y-120240021D01*
X150509737Y-120156503D01*
X150473383Y-120068735D01*
X150449397Y-120010827D01*
X150449390Y-120010814D01*
X150361792Y-119879715D01*
X150360496Y-119878136D01*
X150360075Y-119877146D01*
X150358405Y-119874646D01*
X150358879Y-119874329D01*
X150333182Y-119813826D01*
X150344972Y-119744959D01*
X150392123Y-119693397D01*
X150432157Y-119677852D01*
X150499360Y-119664483D01*
X150573497Y-119649737D01*
X150719179Y-119589394D01*
X150850289Y-119501789D01*
X150961789Y-119390289D01*
X151049394Y-119259179D01*
X151058672Y-119236781D01*
X151064434Y-119222870D01*
X151109737Y-119113497D01*
X151140500Y-118958842D01*
X151140500Y-118801158D01*
X151140500Y-118801155D01*
X151140499Y-118801153D01*
X151119547Y-118695820D01*
X151109737Y-118646503D01*
X151106997Y-118639888D01*
X151049397Y-118500827D01*
X151049390Y-118500814D01*
X150961398Y-118369125D01*
X150940520Y-118302447D01*
X150940500Y-118300234D01*
X150940500Y-114580945D01*
X150940500Y-114580943D01*
X150905070Y-114448716D01*
X150899577Y-114428215D01*
X150864885Y-114368127D01*
X150820520Y-114291284D01*
X150708716Y-114179480D01*
X150708715Y-114179479D01*
X150704385Y-114175149D01*
X150704374Y-114175139D01*
X149171815Y-112642580D01*
X149138330Y-112581257D01*
X149143314Y-112511565D01*
X149185186Y-112455632D01*
X149212044Y-112440338D01*
X149213493Y-112439737D01*
X149213497Y-112439737D01*
X149359179Y-112379394D01*
X149359178Y-112379394D01*
X149362984Y-112377818D01*
X149432454Y-112370349D01*
X149494933Y-112401625D01*
X149524997Y-112444927D01*
X149580602Y-112579172D01*
X149580609Y-112579185D01*
X149668210Y-112710288D01*
X149668213Y-112710292D01*
X149779707Y-112821786D01*
X149779711Y-112821789D01*
X149910814Y-112909390D01*
X149910827Y-112909397D01*
X150008218Y-112949737D01*
X150056503Y-112969737D01*
X150211153Y-113000499D01*
X150211156Y-113000500D01*
X150211158Y-113000500D01*
X150368844Y-113000500D01*
X150368845Y-113000499D01*
X150523497Y-112969737D01*
X150669179Y-112909394D01*
X150800289Y-112821789D01*
X150911789Y-112710289D01*
X150999394Y-112579179D01*
X151059737Y-112433497D01*
X151090500Y-112278842D01*
X151090500Y-112121158D01*
X151090500Y-112121155D01*
X151090499Y-112121153D01*
X151059738Y-111966510D01*
X151059737Y-111966503D01*
X151055209Y-111955572D01*
X150999397Y-111820827D01*
X150999390Y-111820814D01*
X150911789Y-111689711D01*
X150911786Y-111689707D01*
X150800292Y-111578213D01*
X150800288Y-111578210D01*
X150669185Y-111490609D01*
X150669172Y-111490602D01*
X150523501Y-111430264D01*
X150523489Y-111430261D01*
X150371912Y-111400110D01*
X150310001Y-111367725D01*
X150275426Y-111307009D01*
X150279166Y-111237240D01*
X150308422Y-111190812D01*
X150771645Y-110727590D01*
X151402416Y-110096819D01*
X151463739Y-110063334D01*
X151490097Y-110060500D01*
X155110099Y-110060500D01*
X155177138Y-110080185D01*
X155215638Y-110119404D01*
X155236574Y-110153348D01*
X155239660Y-110158350D01*
X155361650Y-110280340D01*
X155508484Y-110370908D01*
X155672247Y-110425174D01*
X155773323Y-110435500D01*
X156371676Y-110435499D01*
X156371684Y-110435498D01*
X156371687Y-110435498D01*
X156427030Y-110429844D01*
X156472753Y-110425174D01*
X156636516Y-110370908D01*
X156783350Y-110280340D01*
X156897319Y-110166371D01*
X156958642Y-110132886D01*
X157028334Y-110137870D01*
X157072681Y-110166371D01*
X157186650Y-110280340D01*
X157333484Y-110370908D01*
X157497247Y-110425174D01*
X157598323Y-110435500D01*
X158196676Y-110435499D01*
X158196684Y-110435498D01*
X158196687Y-110435498D01*
X158252030Y-110429844D01*
X158297753Y-110425174D01*
X158461516Y-110370908D01*
X158608350Y-110280340D01*
X158730340Y-110158350D01*
X158820908Y-110011516D01*
X158875174Y-109847753D01*
X158885500Y-109746677D01*
X158885499Y-109550500D01*
X158888049Y-109541816D01*
X158886761Y-109532856D01*
X158897737Y-109508819D01*
X158905183Y-109483462D01*
X158912025Y-109477533D01*
X158915785Y-109469300D01*
X158938015Y-109455012D01*
X158957987Y-109437707D01*
X158968500Y-109435419D01*
X158974562Y-109431524D01*
X159009493Y-109426501D01*
X159009497Y-109426501D01*
X159062558Y-109426501D01*
X159062561Y-109426500D01*
X159070168Y-109426500D01*
X162549831Y-109426500D01*
X162549847Y-109426501D01*
X162557443Y-109426501D01*
X162715554Y-109426501D01*
X162715557Y-109426501D01*
X162868285Y-109385577D01*
X162953349Y-109336465D01*
X163005216Y-109306520D01*
X163117020Y-109194716D01*
X163117020Y-109194714D01*
X163127220Y-109184515D01*
X163127224Y-109184510D01*
X163249918Y-109061815D01*
X163311239Y-109028333D01*
X163337597Y-109025499D01*
X163645500Y-109025499D01*
X163712539Y-109045184D01*
X163758294Y-109097988D01*
X163769500Y-109149499D01*
X163769500Y-109258846D01*
X163800261Y-109413489D01*
X163800264Y-109413501D01*
X163860602Y-109559172D01*
X163860609Y-109559185D01*
X163948210Y-109690288D01*
X163948213Y-109690292D01*
X164059707Y-109801786D01*
X164059711Y-109801789D01*
X164190814Y-109889390D01*
X164190827Y-109889397D01*
X164310719Y-109939057D01*
X164336503Y-109949737D01*
X164484482Y-109979172D01*
X164491153Y-109980499D01*
X164491156Y-109980500D01*
X164491158Y-109980500D01*
X164648844Y-109980500D01*
X164742295Y-109961911D01*
X164811887Y-109968138D01*
X164867064Y-110011001D01*
X164869589Y-110014637D01*
X164933502Y-110110288D01*
X164933505Y-110110292D01*
X165044999Y-110221786D01*
X165045003Y-110221789D01*
X165176106Y-110309390D01*
X165176119Y-110309397D01*
X165298925Y-110360264D01*
X165321795Y-110369737D01*
X165440505Y-110393350D01*
X165476445Y-110400499D01*
X165476448Y-110400500D01*
X165476450Y-110400500D01*
X165634136Y-110400500D01*
X165634137Y-110400499D01*
X165788789Y-110369737D01*
X165934471Y-110309394D01*
X166065581Y-110221789D01*
X166177081Y-110110289D01*
X166264686Y-109979179D01*
X166325029Y-109833497D01*
X166355792Y-109678842D01*
X166355792Y-109521158D01*
X166355792Y-109521155D01*
X166355791Y-109521153D01*
X166343726Y-109460498D01*
X166325029Y-109366503D01*
X166325027Y-109366498D01*
X166264689Y-109220827D01*
X166264682Y-109220814D01*
X166177081Y-109089711D01*
X166177078Y-109089707D01*
X166065584Y-108978213D01*
X166065580Y-108978210D01*
X165934477Y-108890609D01*
X165934464Y-108890602D01*
X165788793Y-108830264D01*
X165788781Y-108830261D01*
X165634137Y-108799500D01*
X165634134Y-108799500D01*
X165612503Y-108799500D01*
X165545464Y-108779815D01*
X165499709Y-108727011D01*
X165489765Y-108657853D01*
X165497942Y-108628048D01*
X165511025Y-108596462D01*
X165517443Y-108580967D01*
X165548206Y-108426312D01*
X165548206Y-108268628D01*
X165548206Y-108268625D01*
X165548205Y-108268623D01*
X165537398Y-108214294D01*
X165517443Y-108113973D01*
X165512439Y-108101891D01*
X165504972Y-108032422D01*
X165536248Y-107969943D01*
X165596338Y-107934292D01*
X165627001Y-107930441D01*
X165774815Y-107930441D01*
X165774816Y-107930440D01*
X165929468Y-107899678D01*
X166075150Y-107839335D01*
X166206260Y-107751730D01*
X166317760Y-107640230D01*
X166405365Y-107509120D01*
X166409035Y-107500261D01*
X166465706Y-107363442D01*
X166465708Y-107363438D01*
X166496471Y-107208783D01*
X166496471Y-107051099D01*
X166496471Y-107051096D01*
X166496470Y-107051094D01*
X166488254Y-107009792D01*
X166465708Y-106896444D01*
X166457840Y-106877448D01*
X166405368Y-106750768D01*
X166405361Y-106750755D01*
X166337485Y-106649172D01*
X166316607Y-106582495D01*
X166335049Y-106515184D01*
X166380661Y-106441236D01*
X166395908Y-106416516D01*
X166450174Y-106252753D01*
X166459456Y-106161897D01*
X166485852Y-106097206D01*
X166543033Y-106057054D01*
X166582814Y-106050500D01*
X166628844Y-106050500D01*
X166628845Y-106050499D01*
X166783497Y-106019737D01*
X166929179Y-105959394D01*
X166929184Y-105959390D01*
X166929187Y-105959389D01*
X166972515Y-105930438D01*
X167039192Y-105909559D01*
X167106573Y-105928043D01*
X167137260Y-105954874D01*
X167254807Y-106098106D01*
X167511893Y-106355192D01*
X167511898Y-106355196D01*
X167511899Y-106355197D01*
X167792956Y-106585854D01*
X168095268Y-106787853D01*
X168095277Y-106787858D01*
X168095279Y-106787859D01*
X168415916Y-106959243D01*
X168415918Y-106959243D01*
X168415924Y-106959247D01*
X168751836Y-107098386D01*
X169099767Y-107203930D01*
X169099773Y-107203931D01*
X169099776Y-107203932D01*
X169099787Y-107203935D01*
X169456369Y-107274862D01*
X169818206Y-107310500D01*
X169818209Y-107310500D01*
X170181791Y-107310500D01*
X170181794Y-107310500D01*
X170543631Y-107274862D01*
X170613045Y-107261054D01*
X170900212Y-107203935D01*
X170900223Y-107203932D01*
X170900223Y-107203931D01*
X170900233Y-107203930D01*
X171248164Y-107098386D01*
X171584076Y-106959247D01*
X171904732Y-106787853D01*
X172207044Y-106585854D01*
X172488101Y-106355197D01*
X172745197Y-106098101D01*
X172975854Y-105817044D01*
X172975859Y-105817035D01*
X172975897Y-105816986D01*
X172975908Y-105816976D01*
X172977785Y-105814691D01*
X172978335Y-105815143D01*
X173031640Y-105774861D01*
X173101308Y-105769560D01*
X173162783Y-105802767D01*
G37*
%TD.AperFunction*%
%TA.AperFunction,Conductor*%
G36*
X150786244Y-100280185D02*
G01*
X150831999Y-100332989D01*
X150841943Y-100402147D01*
X150812918Y-100465703D01*
X150766657Y-100499061D01*
X150626358Y-100557173D01*
X150626345Y-100557180D01*
X150495242Y-100644781D01*
X150495238Y-100644784D01*
X150383744Y-100756278D01*
X150383741Y-100756282D01*
X150296140Y-100887385D01*
X150296133Y-100887398D01*
X150235795Y-101033069D01*
X150235792Y-101033081D01*
X150205031Y-101187724D01*
X150205031Y-101345417D01*
X150235792Y-101500060D01*
X150235794Y-101500068D01*
X150256853Y-101550909D01*
X150258604Y-101555136D01*
X150266072Y-101624606D01*
X150234796Y-101687085D01*
X150174707Y-101722737D01*
X150104882Y-101720242D01*
X150072310Y-101703734D01*
X150058289Y-101693791D01*
X150053546Y-101687454D01*
X149938331Y-101601204D01*
X149915984Y-101592869D01*
X149902768Y-101583496D01*
X149890753Y-101568279D01*
X149875231Y-101556658D01*
X149869548Y-101541420D01*
X149859472Y-101528658D01*
X149857591Y-101509360D01*
X149850816Y-101491193D01*
X149850500Y-101482350D01*
X149850500Y-101321155D01*
X149850499Y-101321153D01*
X149841199Y-101274400D01*
X149819737Y-101166503D01*
X149817024Y-101159952D01*
X149759397Y-101020827D01*
X149759390Y-101020814D01*
X149671789Y-100889711D01*
X149671786Y-100889707D01*
X149560292Y-100778213D01*
X149560288Y-100778210D01*
X149429185Y-100690609D01*
X149429172Y-100690602D01*
X149283501Y-100630264D01*
X149283489Y-100630261D01*
X149128845Y-100599500D01*
X149128842Y-100599500D01*
X148971158Y-100599500D01*
X148971155Y-100599500D01*
X148816510Y-100630261D01*
X148816498Y-100630264D01*
X148670827Y-100690602D01*
X148670814Y-100690609D01*
X148539711Y-100778210D01*
X148539707Y-100778213D01*
X148428213Y-100889707D01*
X148428210Y-100889711D01*
X148340609Y-101020814D01*
X148340602Y-101020827D01*
X148280264Y-101166498D01*
X148280261Y-101166510D01*
X148249500Y-101321153D01*
X148249500Y-101420500D01*
X148229815Y-101487539D01*
X148177011Y-101533294D01*
X148125514Y-101544500D01*
X148120136Y-101544500D01*
X148120123Y-101544501D01*
X148060516Y-101550908D01*
X147925671Y-101601202D01*
X147925664Y-101601206D01*
X147810456Y-101687452D01*
X147810455Y-101687453D01*
X147810454Y-101687454D01*
X147786231Y-101719811D01*
X147730299Y-101761681D01*
X147686966Y-101769499D01*
X147679943Y-101769499D01*
X147608170Y-101788731D01*
X147527214Y-101810423D01*
X147527209Y-101810426D01*
X147390290Y-101889475D01*
X147390282Y-101889481D01*
X146442102Y-102837661D01*
X146380779Y-102871146D01*
X146311087Y-102866162D01*
X146255154Y-102824290D01*
X146251319Y-102818871D01*
X146211789Y-102759711D01*
X146211786Y-102759707D01*
X146100292Y-102648213D01*
X146100288Y-102648210D01*
X145969185Y-102560609D01*
X145969172Y-102560602D01*
X145824814Y-102500808D01*
X145784585Y-102473928D01*
X145464048Y-102153391D01*
X145430563Y-102092068D01*
X145435547Y-102022376D01*
X145464047Y-101978030D01*
X145551789Y-101890289D01*
X145639394Y-101759179D01*
X145699737Y-101613497D01*
X145730500Y-101458842D01*
X145730500Y-101301158D01*
X145730500Y-101301155D01*
X145730499Y-101301153D01*
X145726780Y-101282455D01*
X145699737Y-101146503D01*
X145689543Y-101121893D01*
X145639397Y-101000827D01*
X145639390Y-101000814D01*
X145551789Y-100869711D01*
X145551786Y-100869707D01*
X145440292Y-100758213D01*
X145440288Y-100758210D01*
X145309185Y-100670609D01*
X145309172Y-100670602D01*
X145163501Y-100610264D01*
X145163489Y-100610261D01*
X145008845Y-100579500D01*
X145008842Y-100579500D01*
X144851158Y-100579500D01*
X144851155Y-100579500D01*
X144696510Y-100610261D01*
X144696498Y-100610264D01*
X144550827Y-100670602D01*
X144550814Y-100670609D01*
X144419711Y-100758210D01*
X144419707Y-100758213D01*
X144308213Y-100869707D01*
X144308210Y-100869711D01*
X144220609Y-101000814D01*
X144220602Y-101000827D01*
X144160264Y-101146498D01*
X144160261Y-101146510D01*
X144129500Y-101301153D01*
X144129500Y-101420500D01*
X144109815Y-101487539D01*
X144057011Y-101533294D01*
X144005500Y-101544500D01*
X142698129Y-101544500D01*
X142698123Y-101544501D01*
X142638516Y-101550908D01*
X142540907Y-101587315D01*
X142509089Y-101599182D01*
X142503461Y-101600197D01*
X142500693Y-101601977D01*
X142465758Y-101607000D01*
X142416771Y-101607000D01*
X142349732Y-101587315D01*
X142315132Y-101552070D01*
X142314821Y-101552317D01*
X142312528Y-101549417D01*
X142311233Y-101548098D01*
X142310340Y-101546650D01*
X142188350Y-101424660D01*
X142059877Y-101345417D01*
X142041518Y-101334093D01*
X142041513Y-101334091D01*
X142002484Y-101321158D01*
X141877753Y-101279826D01*
X141877751Y-101279825D01*
X141776678Y-101269500D01*
X141203330Y-101269500D01*
X141203312Y-101269501D01*
X141102247Y-101279825D01*
X140938484Y-101334092D01*
X140938481Y-101334093D01*
X140791648Y-101424661D01*
X140669661Y-101546648D01*
X140593209Y-101670597D01*
X140541261Y-101717322D01*
X140487670Y-101729500D01*
X140341155Y-101729500D01*
X140186510Y-101760261D01*
X140186498Y-101760264D01*
X140040827Y-101820602D01*
X140040814Y-101820609D01*
X139909711Y-101908210D01*
X139909707Y-101908213D01*
X139798213Y-102019707D01*
X139798210Y-102019711D01*
X139710609Y-102150814D01*
X139710602Y-102150827D01*
X139650264Y-102296498D01*
X139650261Y-102296510D01*
X139619500Y-102451153D01*
X139619500Y-102608846D01*
X139650261Y-102763489D01*
X139650264Y-102763501D01*
X139710602Y-102909172D01*
X139710609Y-102909185D01*
X139798210Y-103040288D01*
X139798213Y-103040292D01*
X139909707Y-103151786D01*
X139909711Y-103151789D01*
X140040814Y-103239390D01*
X140040827Y-103239397D01*
X140156028Y-103287114D01*
X140186503Y-103299737D01*
X140341153Y-103330499D01*
X140341156Y-103330500D01*
X140437053Y-103330500D01*
X140504092Y-103350185D01*
X140549847Y-103402989D01*
X140559791Y-103472147D01*
X140554759Y-103493504D01*
X140525319Y-103582348D01*
X140515000Y-103683345D01*
X140515000Y-103782500D01*
X141366000Y-103782500D01*
X141433039Y-103802185D01*
X141478794Y-103854989D01*
X141490000Y-103906500D01*
X141490000Y-104032500D01*
X141616000Y-104032500D01*
X141683039Y-104052185D01*
X141728794Y-104104989D01*
X141740000Y-104156500D01*
X141740000Y-105069999D01*
X141779802Y-105069999D01*
X141779802Y-105071519D01*
X141841953Y-105086302D01*
X141890395Y-105136652D01*
X141903925Y-105205199D01*
X141878248Y-105270180D01*
X141868116Y-105281647D01*
X140901286Y-106248478D01*
X140789481Y-106360282D01*
X140789477Y-106360287D01*
X140745497Y-106436465D01*
X140710423Y-106497215D01*
X140669499Y-106649943D01*
X140669499Y-106649945D01*
X140669499Y-106818046D01*
X140669500Y-106818059D01*
X140669500Y-110153330D01*
X140669499Y-110153348D01*
X140669499Y-110319054D01*
X140669498Y-110319054D01*
X140682583Y-110367886D01*
X140710423Y-110471785D01*
X140729311Y-110504499D01*
X140769423Y-110573977D01*
X140789479Y-110608715D01*
X140908349Y-110727585D01*
X140908355Y-110727590D01*
X143038584Y-112857819D01*
X143072069Y-112919142D01*
X143067085Y-112988834D01*
X143025213Y-113044767D01*
X142959749Y-113069184D01*
X142950903Y-113069500D01*
X141077919Y-113069500D01*
X140919804Y-113069500D01*
X140767077Y-113110423D01*
X140767076Y-113110423D01*
X140767074Y-113110424D01*
X140767071Y-113110425D01*
X140716958Y-113139359D01*
X140716957Y-113139360D01*
X140673551Y-113164420D01*
X140630147Y-113189479D01*
X140630144Y-113189481D01*
X139337842Y-114481784D01*
X139276519Y-114515269D01*
X139274353Y-114515720D01*
X139119011Y-114546620D01*
X139119001Y-114546623D01*
X138973330Y-114606961D01*
X138973317Y-114606968D01*
X138842214Y-114694569D01*
X138842210Y-114694572D01*
X138730716Y-114806066D01*
X138730713Y-114806070D01*
X138643112Y-114937173D01*
X138643105Y-114937186D01*
X138582767Y-115082857D01*
X138582764Y-115082869D01*
X138552003Y-115237512D01*
X138552003Y-115395205D01*
X138582764Y-115549848D01*
X138582767Y-115549860D01*
X138643105Y-115695531D01*
X138643112Y-115695544D01*
X138730713Y-115826647D01*
X138730716Y-115826651D01*
X138842210Y-115938145D01*
X138842214Y-115938148D01*
X138973317Y-116025749D01*
X138973330Y-116025756D01*
X139110283Y-116082483D01*
X139119006Y-116086096D01*
X139189693Y-116100156D01*
X139251602Y-116132540D01*
X139286176Y-116193255D01*
X139289500Y-116221773D01*
X139289500Y-118220234D01*
X139269815Y-118287273D01*
X139268602Y-118289125D01*
X139180609Y-118420814D01*
X139180602Y-118420827D01*
X139120264Y-118566498D01*
X139120261Y-118566510D01*
X139089500Y-118721153D01*
X139089500Y-118878846D01*
X139120261Y-119033489D01*
X139120264Y-119033501D01*
X139180602Y-119179172D01*
X139180609Y-119179185D01*
X139268210Y-119310288D01*
X139268213Y-119310292D01*
X139379707Y-119421786D01*
X139379711Y-119421789D01*
X139510814Y-119509390D01*
X139510827Y-119509397D01*
X139656498Y-119569735D01*
X139656503Y-119569737D01*
X139741359Y-119586616D01*
X139750360Y-119591324D01*
X139760495Y-119592049D01*
X139780796Y-119607244D01*
X139803270Y-119619000D01*
X139808297Y-119627829D01*
X139816431Y-119633917D01*
X139825295Y-119657679D01*
X139837844Y-119679716D01*
X139837300Y-119689859D01*
X139840852Y-119699380D01*
X139835461Y-119724164D01*
X139834105Y-119749485D01*
X139827768Y-119759542D01*
X139826004Y-119767654D01*
X139804854Y-119795909D01*
X139787589Y-119813176D01*
X139726268Y-119846665D01*
X139699903Y-119849500D01*
X137960097Y-119849500D01*
X137893058Y-119829815D01*
X137872416Y-119813181D01*
X136136819Y-118077584D01*
X136103334Y-118016261D01*
X136100500Y-117989903D01*
X136100500Y-116583722D01*
X136101500Y-116568463D01*
X136101500Y-115911544D01*
X136100500Y-115896278D01*
X136100500Y-114429060D01*
X136100501Y-114429047D01*
X136100501Y-114260945D01*
X136100501Y-114260943D01*
X136059577Y-114108215D01*
X136037112Y-114069304D01*
X136020500Y-114007305D01*
X136020500Y-113981155D01*
X136020499Y-113981153D01*
X136013360Y-113945263D01*
X135989737Y-113826503D01*
X135979504Y-113801797D01*
X135929397Y-113680827D01*
X135929390Y-113680814D01*
X135841789Y-113549711D01*
X135841786Y-113549707D01*
X135730292Y-113438213D01*
X135730288Y-113438210D01*
X135599185Y-113350609D01*
X135599172Y-113350602D01*
X135453501Y-113290264D01*
X135453489Y-113290261D01*
X135298845Y-113259500D01*
X135298842Y-113259500D01*
X135141158Y-113259500D01*
X135141155Y-113259500D01*
X134986510Y-113290261D01*
X134986498Y-113290264D01*
X134840827Y-113350602D01*
X134840814Y-113350609D01*
X134709711Y-113438210D01*
X134709707Y-113438213D01*
X134598213Y-113549707D01*
X134598210Y-113549711D01*
X134510609Y-113680814D01*
X134510602Y-113680827D01*
X134450264Y-113826498D01*
X134450261Y-113826510D01*
X134419500Y-113981153D01*
X134419500Y-114138846D01*
X134450261Y-114293489D01*
X134450264Y-114293501D01*
X134510602Y-114439172D01*
X134510609Y-114439185D01*
X134598210Y-114570288D01*
X134598213Y-114570292D01*
X134709707Y-114681786D01*
X134709715Y-114681792D01*
X134844390Y-114771779D01*
X134889196Y-114825391D01*
X134899500Y-114874881D01*
X134899500Y-115322152D01*
X134879815Y-115389191D01*
X134827011Y-115434946D01*
X134799692Y-115443769D01*
X134666508Y-115470261D01*
X134666498Y-115470264D01*
X134520827Y-115530602D01*
X134520814Y-115530609D01*
X134389711Y-115618210D01*
X134389707Y-115618213D01*
X134278213Y-115729707D01*
X134278210Y-115729711D01*
X134190609Y-115860814D01*
X134190602Y-115860827D01*
X134130264Y-116006498D01*
X134130261Y-116006510D01*
X134099500Y-116161153D01*
X134099500Y-116318846D01*
X134130261Y-116473489D01*
X134130264Y-116473501D01*
X134190602Y-116619172D01*
X134190609Y-116619185D01*
X134278209Y-116750287D01*
X134278210Y-116750288D01*
X134278211Y-116750289D01*
X134303181Y-116775259D01*
X134336666Y-116836580D01*
X134339500Y-116862940D01*
X134339500Y-118313953D01*
X134339499Y-118313971D01*
X134339499Y-118479677D01*
X134339498Y-118479677D01*
X134368792Y-118589001D01*
X134380423Y-118632408D01*
X134401097Y-118668216D01*
X134459480Y-118769339D01*
X134517810Y-118827669D01*
X134523543Y-118835558D01*
X134532140Y-118859647D01*
X134544398Y-118882095D01*
X134543689Y-118892005D01*
X134547029Y-118901363D01*
X134541238Y-118926274D01*
X134539414Y-118951787D01*
X134531891Y-118966484D01*
X134531210Y-118969418D01*
X134529579Y-118971003D01*
X134526334Y-118977344D01*
X134450326Y-119091097D01*
X134450319Y-119091110D01*
X134389981Y-119236781D01*
X134389978Y-119236793D01*
X134359217Y-119391436D01*
X134359217Y-119549129D01*
X134389978Y-119703772D01*
X134389981Y-119703784D01*
X134450319Y-119849455D01*
X134450326Y-119849468D01*
X134537927Y-119980571D01*
X134537930Y-119980575D01*
X134649424Y-120092069D01*
X134649428Y-120092072D01*
X134780531Y-120179673D01*
X134780544Y-120179680D01*
X134926215Y-120240018D01*
X134926220Y-120240020D01*
X134990864Y-120252878D01*
X135081566Y-120270921D01*
X135143477Y-120303306D01*
X135145056Y-120304857D01*
X135713943Y-120873745D01*
X135747428Y-120935068D01*
X135742444Y-121004760D01*
X135700572Y-121060693D01*
X135695155Y-121064527D01*
X135659709Y-121088211D01*
X135548213Y-121199707D01*
X135548210Y-121199711D01*
X135460609Y-121330814D01*
X135460602Y-121330827D01*
X135400264Y-121476498D01*
X135400261Y-121476510D01*
X135369500Y-121631153D01*
X135369500Y-121788846D01*
X135400261Y-121943489D01*
X135400264Y-121943501D01*
X135460602Y-122089172D01*
X135460609Y-122089185D01*
X135548210Y-122220288D01*
X135548213Y-122220292D01*
X135659707Y-122331786D01*
X135659711Y-122331789D01*
X135790814Y-122419390D01*
X135790827Y-122419397D01*
X135869894Y-122452147D01*
X135936503Y-122479737D01*
X136091153Y-122510499D01*
X136091156Y-122510500D01*
X136091158Y-122510500D01*
X136248844Y-122510500D01*
X136248845Y-122510499D01*
X136403497Y-122479737D01*
X136549179Y-122419394D01*
X136623851Y-122369500D01*
X136680875Y-122331398D01*
X136747553Y-122310520D01*
X136749766Y-122310500D01*
X138226697Y-122310500D01*
X138293736Y-122330185D01*
X138339491Y-122382989D01*
X138349435Y-122452147D01*
X138320410Y-122515703D01*
X138295588Y-122537602D01*
X138279711Y-122548210D01*
X138279707Y-122548213D01*
X138168213Y-122659707D01*
X138168210Y-122659711D01*
X138080609Y-122790814D01*
X138080602Y-122790827D01*
X138020264Y-122936498D01*
X138020261Y-122936510D01*
X137989500Y-123091153D01*
X137989500Y-123248846D01*
X138020261Y-123403489D01*
X138020264Y-123403501D01*
X138080602Y-123549171D01*
X138083479Y-123554553D01*
X138081939Y-123555375D01*
X138085437Y-123566547D01*
X138095944Y-123583556D01*
X138095664Y-123599210D01*
X138100342Y-123614150D01*
X138095053Y-123633427D01*
X138094696Y-123653415D01*
X138082676Y-123678537D01*
X138081856Y-123681529D01*
X138079464Y-123685253D01*
X138010834Y-123787963D01*
X137957221Y-123832767D01*
X137887896Y-123841474D01*
X137824869Y-123811319D01*
X137820051Y-123806752D01*
X137818106Y-123804807D01*
X137537049Y-123574150D01*
X137537048Y-123574149D01*
X137537044Y-123574146D01*
X137234732Y-123372147D01*
X137234727Y-123372144D01*
X137234720Y-123372140D01*
X136914083Y-123200756D01*
X136914078Y-123200754D01*
X136891278Y-123191310D01*
X136765213Y-123139092D01*
X136578165Y-123061614D01*
X136250873Y-122962331D01*
X136230233Y-122956070D01*
X136230232Y-122956069D01*
X136230223Y-122956067D01*
X136230212Y-122956064D01*
X135873630Y-122885137D01*
X135601111Y-122858296D01*
X135511794Y-122849500D01*
X135148206Y-122849500D01*
X135065679Y-122857628D01*
X134786369Y-122885137D01*
X134429787Y-122956064D01*
X134429776Y-122956067D01*
X134081834Y-123061614D01*
X133745921Y-123200754D01*
X133745916Y-123200756D01*
X133425279Y-123372140D01*
X133425261Y-123372151D01*
X133122964Y-123574140D01*
X133122950Y-123574150D01*
X132841893Y-123804807D01*
X132584807Y-124061893D01*
X132354150Y-124342950D01*
X132354140Y-124342964D01*
X132277602Y-124457511D01*
X132223990Y-124502316D01*
X132154665Y-124511023D01*
X132091637Y-124480868D01*
X132054918Y-124421425D01*
X132050500Y-124388620D01*
X132050500Y-108191153D01*
X133379500Y-108191153D01*
X133379500Y-108348846D01*
X133410261Y-108503489D01*
X133410264Y-108503501D01*
X133470602Y-108649172D01*
X133470609Y-108649185D01*
X133558210Y-108780288D01*
X133558213Y-108780292D01*
X133669707Y-108891786D01*
X133669711Y-108891789D01*
X133800814Y-108979390D01*
X133800827Y-108979397D01*
X133946498Y-109039735D01*
X133946503Y-109039737D01*
X134057506Y-109061817D01*
X134101153Y-109070499D01*
X134101156Y-109070500D01*
X134101158Y-109070500D01*
X134258844Y-109070500D01*
X134258845Y-109070499D01*
X134413497Y-109039737D01*
X134558969Y-108979481D01*
X134559172Y-108979397D01*
X134559172Y-108979396D01*
X134559179Y-108979394D01*
X134690289Y-108891789D01*
X134801789Y-108780289D01*
X134889394Y-108649179D01*
X134949737Y-108503497D01*
X134980500Y-108348842D01*
X134980500Y-108191158D01*
X134980500Y-108191155D01*
X134980499Y-108191153D01*
X134962873Y-108102541D01*
X134949737Y-108036503D01*
X134926564Y-107980557D01*
X134889397Y-107890827D01*
X134889390Y-107890814D01*
X134801789Y-107759711D01*
X134801786Y-107759707D01*
X134690292Y-107648213D01*
X134690288Y-107648210D01*
X134559185Y-107560609D01*
X134559172Y-107560602D01*
X134413501Y-107500264D01*
X134413489Y-107500261D01*
X134258845Y-107469500D01*
X134258842Y-107469500D01*
X134101158Y-107469500D01*
X134101155Y-107469500D01*
X133946510Y-107500261D01*
X133946498Y-107500264D01*
X133800827Y-107560602D01*
X133800814Y-107560609D01*
X133669711Y-107648210D01*
X133669707Y-107648213D01*
X133558213Y-107759707D01*
X133558210Y-107759711D01*
X133470609Y-107890814D01*
X133470602Y-107890827D01*
X133410264Y-108036498D01*
X133410261Y-108036510D01*
X133379500Y-108191153D01*
X132050500Y-108191153D01*
X132050500Y-105421153D01*
X134739500Y-105421153D01*
X134739500Y-105578846D01*
X134770261Y-105733489D01*
X134770264Y-105733501D01*
X134830602Y-105879172D01*
X134830609Y-105879185D01*
X134918210Y-106010288D01*
X134918213Y-106010292D01*
X135029707Y-106121786D01*
X135029711Y-106121789D01*
X135160814Y-106209390D01*
X135160827Y-106209397D01*
X135306498Y-106269735D01*
X135306503Y-106269737D01*
X135449017Y-106298085D01*
X135461153Y-106300499D01*
X135461156Y-106300500D01*
X135461158Y-106300500D01*
X135618844Y-106300500D01*
X135618845Y-106300499D01*
X135773497Y-106269737D01*
X135919179Y-106209394D01*
X136050289Y-106121789D01*
X136161789Y-106010289D01*
X136249394Y-105879179D01*
X136309737Y-105733497D01*
X136340500Y-105578842D01*
X136340500Y-105421158D01*
X136340500Y-105421155D01*
X136340499Y-105421153D01*
X136324850Y-105342483D01*
X136309737Y-105266503D01*
X136286431Y-105210237D01*
X136249397Y-105120827D01*
X136249390Y-105120814D01*
X136161789Y-104989711D01*
X136161786Y-104989707D01*
X136050292Y-104878213D01*
X136050288Y-104878210D01*
X135919185Y-104790609D01*
X135919172Y-104790602D01*
X135773501Y-104730264D01*
X135773489Y-104730261D01*
X135618845Y-104699500D01*
X135618842Y-104699500D01*
X135461158Y-104699500D01*
X135461155Y-104699500D01*
X135306510Y-104730261D01*
X135306498Y-104730264D01*
X135160827Y-104790602D01*
X135160814Y-104790609D01*
X135029711Y-104878210D01*
X135029707Y-104878213D01*
X134918213Y-104989707D01*
X134918210Y-104989711D01*
X134830609Y-105120814D01*
X134830602Y-105120827D01*
X134770264Y-105266498D01*
X134770261Y-105266510D01*
X134739500Y-105421153D01*
X132050500Y-105421153D01*
X132050500Y-104381654D01*
X140515001Y-104381654D01*
X140525319Y-104482652D01*
X140579546Y-104646300D01*
X140579551Y-104646311D01*
X140670052Y-104793034D01*
X140670055Y-104793038D01*
X140791961Y-104914944D01*
X140791965Y-104914947D01*
X140938688Y-105005448D01*
X140938699Y-105005453D01*
X141102347Y-105059680D01*
X141203352Y-105069999D01*
X141240000Y-105069999D01*
X141240000Y-104282500D01*
X140515001Y-104282500D01*
X140515001Y-104381654D01*
X132050500Y-104381654D01*
X132050500Y-103321153D01*
X135679500Y-103321153D01*
X135679500Y-103478846D01*
X135710261Y-103633489D01*
X135710264Y-103633501D01*
X135770602Y-103779172D01*
X135770609Y-103779185D01*
X135858210Y-103910288D01*
X135858213Y-103910292D01*
X135969707Y-104021786D01*
X135969711Y-104021789D01*
X136100814Y-104109390D01*
X136100827Y-104109397D01*
X136237474Y-104165997D01*
X136246503Y-104169737D01*
X136343812Y-104189093D01*
X136401153Y-104200499D01*
X136401156Y-104200500D01*
X136401158Y-104200500D01*
X136558844Y-104200500D01*
X136558845Y-104200499D01*
X136713497Y-104169737D01*
X136780398Y-104142026D01*
X136841839Y-104116577D01*
X136859172Y-104109397D01*
X136859172Y-104109396D01*
X136859179Y-104109394D01*
X136990289Y-104021789D01*
X137101789Y-103910289D01*
X137189394Y-103779179D01*
X137249737Y-103633497D01*
X137280500Y-103478842D01*
X137280500Y-103321158D01*
X137280500Y-103321155D01*
X137280499Y-103321153D01*
X137269752Y-103267127D01*
X137249737Y-103166503D01*
X137239884Y-103142716D01*
X137189397Y-103020827D01*
X137189390Y-103020814D01*
X137098476Y-102884753D01*
X137077598Y-102818076D01*
X137096082Y-102750696D01*
X137113899Y-102728179D01*
X137131787Y-102710291D01*
X137131789Y-102710289D01*
X137219394Y-102579179D01*
X137279737Y-102433497D01*
X137310500Y-102278842D01*
X137310500Y-102121158D01*
X137310500Y-102121155D01*
X137310499Y-102121153D01*
X137298728Y-102061975D01*
X137279737Y-101966503D01*
X137255592Y-101908211D01*
X137219397Y-101820827D01*
X137219390Y-101820814D01*
X137131789Y-101689711D01*
X137131786Y-101689707D01*
X137020292Y-101578213D01*
X137020288Y-101578210D01*
X136889185Y-101490609D01*
X136889172Y-101490602D01*
X136743501Y-101430264D01*
X136743489Y-101430261D01*
X136588845Y-101399500D01*
X136588842Y-101399500D01*
X136431158Y-101399500D01*
X136431155Y-101399500D01*
X136276510Y-101430261D01*
X136276498Y-101430264D01*
X136130827Y-101490602D01*
X136130814Y-101490609D01*
X135999711Y-101578210D01*
X135999707Y-101578213D01*
X135888213Y-101689707D01*
X135888210Y-101689711D01*
X135800609Y-101820814D01*
X135800602Y-101820827D01*
X135740264Y-101966498D01*
X135740261Y-101966510D01*
X135709500Y-102121153D01*
X135709500Y-102278846D01*
X135740261Y-102433489D01*
X135740264Y-102433501D01*
X135800602Y-102579172D01*
X135800609Y-102579185D01*
X135891523Y-102715246D01*
X135912401Y-102781923D01*
X135893917Y-102849304D01*
X135876104Y-102871816D01*
X135858214Y-102889706D01*
X135858210Y-102889711D01*
X135770609Y-103020814D01*
X135770602Y-103020827D01*
X135710264Y-103166498D01*
X135710261Y-103166510D01*
X135679500Y-103321153D01*
X132050500Y-103321153D01*
X132050500Y-102963480D01*
X132050695Y-102956527D01*
X132053916Y-102899167D01*
X132067084Y-102664691D01*
X132068638Y-102650898D01*
X132117015Y-102366167D01*
X132120109Y-102352615D01*
X132178244Y-102150827D01*
X132200061Y-102075096D01*
X132204653Y-102061975D01*
X132315175Y-101795151D01*
X132321195Y-101782651D01*
X132460902Y-101529868D01*
X132468297Y-101518100D01*
X132472614Y-101512016D01*
X132635422Y-101282559D01*
X132644077Y-101271705D01*
X132836534Y-101056346D01*
X132846346Y-101046534D01*
X133061705Y-100854077D01*
X133072559Y-100845422D01*
X133308105Y-100678293D01*
X133319868Y-100670902D01*
X133572651Y-100531195D01*
X133585151Y-100525175D01*
X133851979Y-100414651D01*
X133865096Y-100410061D01*
X134142621Y-100330107D01*
X134156167Y-100327015D01*
X134440898Y-100278638D01*
X134454691Y-100277084D01*
X134746528Y-100260695D01*
X134753481Y-100260500D01*
X134797595Y-100260500D01*
X150719205Y-100260500D01*
X150786244Y-100280185D01*
G37*
%TD.AperFunction*%
%TA.AperFunction,Conductor*%
G36*
X143496942Y-114700185D02*
G01*
X143517584Y-114716819D01*
X144641139Y-115840374D01*
X144641149Y-115840385D01*
X144645479Y-115844715D01*
X144645480Y-115844716D01*
X144713182Y-115912418D01*
X144725724Y-115935387D01*
X144741494Y-115956266D01*
X144743690Y-115968289D01*
X144746666Y-115973739D01*
X144749145Y-115990721D01*
X144749500Y-115995410D01*
X144749501Y-116022872D01*
X144755909Y-116082483D01*
X144756154Y-116083140D01*
X144756722Y-116090626D01*
X144756367Y-116092292D01*
X144756367Y-116113257D01*
X144755909Y-116117516D01*
X144755909Y-116117517D01*
X144749500Y-116177127D01*
X144749500Y-116177132D01*
X144749500Y-116177133D01*
X144749500Y-116822870D01*
X144749501Y-116822879D01*
X144756367Y-116886751D01*
X144756367Y-116913257D01*
X144755909Y-116917516D01*
X144755909Y-116917517D01*
X144749500Y-116977127D01*
X144749500Y-116977129D01*
X144749500Y-116977133D01*
X144749500Y-117622870D01*
X144749501Y-117622879D01*
X144756367Y-117686751D01*
X144756367Y-117713257D01*
X144755909Y-117717516D01*
X144755909Y-117717517D01*
X144749500Y-117777127D01*
X144749500Y-117777129D01*
X144749500Y-117777133D01*
X144749500Y-118422870D01*
X144749501Y-118422879D01*
X144756367Y-118486751D01*
X144756367Y-118513257D01*
X144755909Y-118517516D01*
X144755909Y-118517517D01*
X144749500Y-118577127D01*
X144749500Y-118577132D01*
X144749500Y-118577133D01*
X144749500Y-119222870D01*
X144749501Y-119222879D01*
X144756367Y-119286751D01*
X144756367Y-119313257D01*
X144755909Y-119317516D01*
X144755909Y-119317517D01*
X144750690Y-119366058D01*
X144723953Y-119430607D01*
X144666561Y-119470456D01*
X144596736Y-119472951D01*
X144539720Y-119440483D01*
X144434397Y-119335160D01*
X144434374Y-119335139D01*
X143638886Y-118539651D01*
X143630521Y-118531286D01*
X143630520Y-118531284D01*
X143518716Y-118419480D01*
X143499962Y-118408652D01*
X143489429Y-118398720D01*
X143478805Y-118380552D01*
X143464283Y-118365322D01*
X143460301Y-118348910D01*
X143454159Y-118338406D01*
X143454690Y-118325779D01*
X143450499Y-118308503D01*
X143450499Y-117777129D01*
X143450499Y-117777128D01*
X143444091Y-117717517D01*
X143444089Y-117717513D01*
X143443632Y-117713255D01*
X143443632Y-117686745D01*
X143444089Y-117682486D01*
X143444091Y-117682483D01*
X143450500Y-117622873D01*
X143450499Y-116977128D01*
X143444091Y-116917517D01*
X143444090Y-116917516D01*
X143443380Y-116910904D01*
X143443381Y-116884393D01*
X143449999Y-116822842D01*
X143450000Y-116822827D01*
X143450000Y-116750000D01*
X143431409Y-116750000D01*
X143364370Y-116730315D01*
X143332144Y-116700313D01*
X143307546Y-116667454D01*
X143284709Y-116650358D01*
X143192335Y-116581206D01*
X143192328Y-116581202D01*
X143057482Y-116530908D01*
X143057483Y-116530908D01*
X142997883Y-116524501D01*
X142997881Y-116524500D01*
X142997873Y-116524500D01*
X142997865Y-116524500D01*
X141402129Y-116524500D01*
X141402123Y-116524501D01*
X141342516Y-116530908D01*
X141207671Y-116581202D01*
X141207664Y-116581206D01*
X141092456Y-116667452D01*
X141092455Y-116667453D01*
X141092454Y-116667454D01*
X141067856Y-116700312D01*
X141011924Y-116742182D01*
X140968591Y-116750000D01*
X140950000Y-116750000D01*
X140950000Y-116822844D01*
X140956619Y-116884398D01*
X140956620Y-116910909D01*
X140955909Y-116917514D01*
X140955909Y-116917517D01*
X140949500Y-116977127D01*
X140949500Y-116977133D01*
X140949500Y-116977135D01*
X140949500Y-117220013D01*
X140929815Y-117287052D01*
X140877011Y-117332807D01*
X140807853Y-117342751D01*
X140795915Y-117340432D01*
X140786758Y-117338182D01*
X140743497Y-117320263D01*
X140588842Y-117289500D01*
X140588607Y-117289500D01*
X140584915Y-117288593D01*
X140557004Y-117272370D01*
X140528397Y-117257406D01*
X140526981Y-117254919D01*
X140524508Y-117253482D01*
X140509800Y-117224747D01*
X140493823Y-117196690D01*
X140493346Y-117192603D01*
X140492673Y-117191287D01*
X140492911Y-117188866D01*
X140490500Y-117168174D01*
X140490500Y-116177172D01*
X140950000Y-116177172D01*
X140950000Y-116250000D01*
X141950000Y-116250000D01*
X142450000Y-116250000D01*
X143450000Y-116250000D01*
X143450000Y-116177172D01*
X143449999Y-116177158D01*
X143443128Y-116113257D01*
X143443128Y-116086743D01*
X143449999Y-116022841D01*
X143450000Y-116022827D01*
X143450000Y-115950000D01*
X142450000Y-115950000D01*
X142450000Y-116250000D01*
X141950000Y-116250000D01*
X141950000Y-115950000D01*
X140952022Y-115950000D01*
X140957494Y-116095334D01*
X140956871Y-116113255D01*
X140950001Y-116177153D01*
X140950000Y-116177172D01*
X140490500Y-116177172D01*
X140490500Y-115883095D01*
X140510185Y-115816056D01*
X140526814Y-115795419D01*
X140835916Y-115486317D01*
X140897237Y-115452834D01*
X140923595Y-115450000D01*
X141950000Y-115450000D01*
X142450000Y-115450000D01*
X143450000Y-115450000D01*
X143450000Y-115377172D01*
X143449999Y-115377158D01*
X143443128Y-115313257D01*
X143443128Y-115286743D01*
X143449999Y-115222841D01*
X143450000Y-115222827D01*
X143450000Y-115150000D01*
X142450000Y-115150000D01*
X142450000Y-115450000D01*
X141950000Y-115450000D01*
X141950000Y-115024000D01*
X141969685Y-114956961D01*
X142022489Y-114911206D01*
X142074000Y-114900000D01*
X142200000Y-114900000D01*
X142200000Y-114804500D01*
X142219685Y-114737461D01*
X142272489Y-114691706D01*
X142324000Y-114680500D01*
X143429903Y-114680500D01*
X143496942Y-114700185D01*
G37*
%TD.AperFunction*%
%TA.AperFunction,Conductor*%
G36*
X142245849Y-106704897D02*
G01*
X142301783Y-106746768D01*
X142302203Y-106747329D01*
X142302204Y-106747331D01*
X142388454Y-106862546D01*
X142424210Y-106889313D01*
X142503664Y-106948793D01*
X142503669Y-106948796D01*
X142512257Y-106951999D01*
X142568192Y-106993870D01*
X142592610Y-107059334D01*
X142577759Y-107127607D01*
X142534023Y-107173720D01*
X142467653Y-107214657D01*
X142467649Y-107214660D01*
X142345661Y-107336648D01*
X142255093Y-107483481D01*
X142255091Y-107483486D01*
X142229688Y-107560147D01*
X142200826Y-107647247D01*
X142200826Y-107647248D01*
X142200825Y-107647248D01*
X142190500Y-107748315D01*
X142190500Y-108321669D01*
X142190501Y-108321687D01*
X142200825Y-108422752D01*
X142220068Y-108480821D01*
X142253253Y-108580967D01*
X142255092Y-108586515D01*
X142255093Y-108586518D01*
X142345661Y-108733351D01*
X142379629Y-108767319D01*
X142413114Y-108828642D01*
X142408130Y-108898334D01*
X142379629Y-108942681D01*
X142325661Y-108996648D01*
X142235090Y-109143487D01*
X142232040Y-109150029D01*
X142229907Y-109149034D01*
X142196540Y-109197215D01*
X142136375Y-109223477D01*
X142127541Y-109224755D01*
X142096992Y-109224755D01*
X142015506Y-109240963D01*
X142012255Y-109241434D01*
X141980773Y-109236936D01*
X141949099Y-109234102D01*
X141946431Y-109232029D01*
X141943088Y-109231552D01*
X141919033Y-109210745D01*
X141893922Y-109191238D01*
X141892798Y-109188053D01*
X141890243Y-109185843D01*
X141881255Y-109155331D01*
X141870678Y-109125349D01*
X141870503Y-109118831D01*
X141870500Y-109118821D01*
X141870502Y-109118811D01*
X141870500Y-109118712D01*
X141870500Y-107029096D01*
X141890185Y-106962057D01*
X141906815Y-106941419D01*
X142114837Y-106733396D01*
X142176158Y-106699913D01*
X142245849Y-106704897D01*
G37*
%TD.AperFunction*%
%TA.AperFunction,Conductor*%
G36*
X148875039Y-103409685D02*
G01*
X148920794Y-103462489D01*
X148932000Y-103514000D01*
X148932000Y-103766000D01*
X148912315Y-103833039D01*
X148859511Y-103878794D01*
X148808000Y-103890000D01*
X147668000Y-103890000D01*
X147668000Y-104012844D01*
X147674401Y-104072372D01*
X147674403Y-104072379D01*
X147724645Y-104207086D01*
X147728897Y-104214872D01*
X147725679Y-104216628D01*
X147743977Y-104265976D01*
X147728993Y-104334220D01*
X147727835Y-104336018D01*
X147724202Y-104342671D01*
X147673910Y-104477513D01*
X147673909Y-104477517D01*
X147667500Y-104537127D01*
X147667500Y-104537134D01*
X147667500Y-104537135D01*
X147667500Y-105282870D01*
X147667501Y-105282876D01*
X147673908Y-105342483D01*
X147724202Y-105477327D01*
X147728452Y-105485109D01*
X147725394Y-105486778D01*
X147743963Y-105536594D01*
X147729098Y-105604864D01*
X147728717Y-105605457D01*
X147724645Y-105612913D01*
X147674403Y-105747620D01*
X147674401Y-105747627D01*
X147668000Y-105807155D01*
X147668000Y-105930000D01*
X148808000Y-105930000D01*
X148875039Y-105949685D01*
X148920794Y-106002489D01*
X148932000Y-106054000D01*
X148932000Y-106306000D01*
X148912315Y-106373039D01*
X148859511Y-106418794D01*
X148808000Y-106430000D01*
X147668000Y-106430000D01*
X147668000Y-106552844D01*
X147674401Y-106612372D01*
X147674403Y-106612379D01*
X147724645Y-106747086D01*
X147724649Y-106747093D01*
X147810809Y-106862187D01*
X147810812Y-106862190D01*
X147925906Y-106948350D01*
X147925913Y-106948354D01*
X148060620Y-106998596D01*
X148060627Y-106998598D01*
X148110297Y-107003939D01*
X148123053Y-107009222D01*
X148136850Y-107009792D01*
X148154696Y-107022329D01*
X148174848Y-107030677D01*
X148182723Y-107042020D01*
X148194021Y-107049957D01*
X148202255Y-107070152D01*
X148214696Y-107088070D01*
X148215188Y-107101869D01*
X148220402Y-107114655D01*
X148216410Y-107136097D01*
X148217189Y-107157895D01*
X148209877Y-107171197D01*
X148207616Y-107183345D01*
X148189381Y-107208485D01*
X148187327Y-107212224D01*
X148186025Y-107213606D01*
X148108288Y-107291344D01*
X148099632Y-107305376D01*
X148090992Y-107314555D01*
X148071279Y-107326104D01*
X148054291Y-107341383D01*
X148041707Y-107343430D01*
X148030707Y-107349875D01*
X148007879Y-107348933D01*
X147985328Y-107352602D01*
X147973634Y-107347520D01*
X147960897Y-107346995D01*
X147942202Y-107333861D01*
X147921247Y-107324755D01*
X147908811Y-107310403D01*
X147903726Y-107306830D01*
X147901956Y-107302491D01*
X147895168Y-107294656D01*
X147893319Y-107291659D01*
X147893316Y-107291655D01*
X147769345Y-107167684D01*
X147620124Y-107075643D01*
X147620119Y-107075641D01*
X147453697Y-107020494D01*
X147453690Y-107020493D01*
X147350986Y-107010000D01*
X147213500Y-107010000D01*
X147213500Y-108111000D01*
X147193815Y-108178039D01*
X147141011Y-108223794D01*
X147089500Y-108235000D01*
X146837500Y-108235000D01*
X146770461Y-108215315D01*
X146724706Y-108162511D01*
X146713500Y-108111000D01*
X146713500Y-107630036D01*
X146715883Y-107605843D01*
X146718978Y-107590288D01*
X146724882Y-107560606D01*
X146724973Y-107560148D01*
X146724973Y-107402462D01*
X146724972Y-107402461D01*
X146717209Y-107363430D01*
X146715883Y-107356764D01*
X146713500Y-107332572D01*
X146713500Y-107010000D01*
X146681440Y-107010000D01*
X146614401Y-106990315D01*
X146568646Y-106937511D01*
X146558702Y-106868353D01*
X146587727Y-106804797D01*
X146593761Y-106798317D01*
X146611787Y-106780291D01*
X146611789Y-106780289D01*
X146699394Y-106649179D01*
X146759737Y-106503497D01*
X146790500Y-106348842D01*
X146790500Y-106191158D01*
X146790500Y-106191155D01*
X146790499Y-106191153D01*
X146781063Y-106143716D01*
X146759737Y-106036503D01*
X146748879Y-106010289D01*
X146699397Y-105890827D01*
X146699390Y-105890814D01*
X146611789Y-105759711D01*
X146611786Y-105759707D01*
X146500292Y-105648213D01*
X146500288Y-105648210D01*
X146369185Y-105560609D01*
X146369172Y-105560602D01*
X146223501Y-105500264D01*
X146223489Y-105500261D01*
X146068845Y-105469500D01*
X146068842Y-105469500D01*
X145911158Y-105469500D01*
X145911153Y-105469500D01*
X145809728Y-105489675D01*
X145740137Y-105483448D01*
X145684959Y-105440585D01*
X145661715Y-105374695D01*
X145677783Y-105306698D01*
X145697851Y-105280382D01*
X147551916Y-103426317D01*
X147613238Y-103392834D01*
X147639596Y-103390000D01*
X148808000Y-103390000D01*
X148875039Y-103409685D01*
G37*
%TD.AperFunction*%
%TA.AperFunction,Conductor*%
G36*
X160497535Y-103744212D02*
G01*
X160530865Y-103769163D01*
X160533567Y-103770177D01*
X160537519Y-103774144D01*
X160553468Y-103786084D01*
X160563028Y-103800958D01*
X160567892Y-103809864D01*
X160564676Y-103811620D01*
X160582977Y-103860976D01*
X160567993Y-103929220D01*
X160566835Y-103931018D01*
X160563202Y-103937671D01*
X160512908Y-104072517D01*
X160506501Y-104132116D01*
X160506500Y-104132135D01*
X160506500Y-104228659D01*
X160486815Y-104295698D01*
X160434011Y-104341453D01*
X160406692Y-104350276D01*
X160371312Y-104357313D01*
X160371302Y-104357316D01*
X160225631Y-104417654D01*
X160225618Y-104417661D01*
X160094515Y-104505262D01*
X160094511Y-104505265D01*
X159983017Y-104616759D01*
X159983014Y-104616763D01*
X159895413Y-104747866D01*
X159895406Y-104747879D01*
X159835068Y-104893550D01*
X159835065Y-104893562D01*
X159804304Y-105048205D01*
X159804304Y-105205898D01*
X159822209Y-105295911D01*
X159815982Y-105365502D01*
X159773119Y-105420680D01*
X159744403Y-105434897D01*
X159744724Y-105435671D01*
X159593421Y-105498341D01*
X159593408Y-105498348D01*
X159462305Y-105585949D01*
X159462301Y-105585952D01*
X159350807Y-105697446D01*
X159350804Y-105697450D01*
X159263203Y-105828553D01*
X159263196Y-105828566D01*
X159202858Y-105974237D01*
X159202855Y-105974249D01*
X159172094Y-106128892D01*
X159172094Y-106286585D01*
X159202855Y-106441228D01*
X159202858Y-106441240D01*
X159263196Y-106586910D01*
X159263198Y-106586915D01*
X159263200Y-106586918D01*
X159272274Y-106600499D01*
X159272421Y-106600718D01*
X159293298Y-106667396D01*
X159283879Y-106717060D01*
X159230264Y-106846498D01*
X159230261Y-106846510D01*
X159199500Y-107001153D01*
X159199500Y-107158846D01*
X159230261Y-107313489D01*
X159230264Y-107313501D01*
X159290602Y-107459172D01*
X159290609Y-107459185D01*
X159378210Y-107590288D01*
X159378213Y-107590292D01*
X159489707Y-107701786D01*
X159489711Y-107701789D01*
X159620814Y-107789390D01*
X159620827Y-107789397D01*
X159741390Y-107839335D01*
X159766503Y-107849737D01*
X159921153Y-107880499D01*
X159921156Y-107880500D01*
X159921158Y-107880500D01*
X160078844Y-107880500D01*
X160078845Y-107880499D01*
X160233497Y-107849737D01*
X160379179Y-107789394D01*
X160510289Y-107701789D01*
X160564831Y-107647247D01*
X160625760Y-107586319D01*
X160687083Y-107552834D01*
X160713441Y-107550000D01*
X161337500Y-107550000D01*
X161337500Y-106569000D01*
X161357185Y-106501961D01*
X161409989Y-106456206D01*
X161461500Y-106445000D01*
X161521000Y-106445000D01*
X161521000Y-105899000D01*
X161540685Y-105831961D01*
X161593489Y-105786206D01*
X161645000Y-105775000D01*
X161897000Y-105775000D01*
X161964039Y-105794685D01*
X162009794Y-105847489D01*
X162021000Y-105899000D01*
X162021000Y-106606000D01*
X162001315Y-106673039D01*
X161948511Y-106718794D01*
X161897000Y-106730000D01*
X161837500Y-106730000D01*
X161837500Y-107676000D01*
X161817815Y-107743039D01*
X161765011Y-107788794D01*
X161713500Y-107800000D01*
X161587500Y-107800000D01*
X161587500Y-107926000D01*
X161567815Y-107993039D01*
X161515011Y-108038794D01*
X161463500Y-108050000D01*
X160500001Y-108050000D01*
X160500001Y-108101500D01*
X160480316Y-108168539D01*
X160427512Y-108214294D01*
X160376001Y-108225500D01*
X159283598Y-108225500D01*
X159216559Y-108205815D01*
X159195917Y-108189181D01*
X158931818Y-107925082D01*
X158898333Y-107863759D01*
X158895499Y-107837401D01*
X158895499Y-107463330D01*
X158895498Y-107463313D01*
X158885174Y-107362247D01*
X158875768Y-107333861D01*
X158830908Y-107198484D01*
X158740340Y-107051650D01*
X158618350Y-106929660D01*
X158499486Y-106856344D01*
X158471518Y-106839093D01*
X158471513Y-106839091D01*
X158470069Y-106838612D01*
X158307753Y-106784826D01*
X158307751Y-106784825D01*
X158206678Y-106774500D01*
X157608330Y-106774500D01*
X157608312Y-106774501D01*
X157507247Y-106784825D01*
X157343484Y-106839092D01*
X157343481Y-106839093D01*
X157196648Y-106929661D01*
X157161181Y-106965129D01*
X157141744Y-106975741D01*
X157125011Y-106990242D01*
X157111679Y-106992158D01*
X157099858Y-106998614D01*
X157077771Y-106997034D01*
X157055853Y-107000186D01*
X157043601Y-106994590D01*
X157030166Y-106993630D01*
X157012439Y-106980359D01*
X156992297Y-106971161D01*
X156985014Y-106959829D01*
X156974233Y-106951758D01*
X156966495Y-106931012D01*
X156954523Y-106912383D01*
X156951371Y-106890464D01*
X156949816Y-106886294D01*
X156949500Y-106877448D01*
X156949500Y-106724499D01*
X156969185Y-106657460D01*
X157021989Y-106611705D01*
X157073500Y-106600499D01*
X157160871Y-106600499D01*
X157160872Y-106600499D01*
X157220483Y-106594091D01*
X157355331Y-106543796D01*
X157470546Y-106457546D01*
X157494768Y-106425188D01*
X157550701Y-106383319D01*
X157586047Y-106376941D01*
X157585997Y-106376562D01*
X157593978Y-106375510D01*
X157594034Y-106375501D01*
X157594054Y-106375501D01*
X157594057Y-106375501D01*
X157746785Y-106334577D01*
X157796904Y-106305639D01*
X157883716Y-106255520D01*
X157995520Y-106143716D01*
X157995520Y-106143714D01*
X158005728Y-106133507D01*
X158005729Y-106133504D01*
X160366523Y-103772710D01*
X160427843Y-103739228D01*
X160497535Y-103744212D01*
G37*
%TD.AperFunction*%
%TA.AperFunction,Conductor*%
G36*
X168010422Y-100280185D02*
G01*
X168056177Y-100332989D01*
X168066121Y-100402147D01*
X168037096Y-100465703D01*
X168012274Y-100487602D01*
X167792964Y-100634140D01*
X167792950Y-100634150D01*
X167511893Y-100864807D01*
X167254807Y-101121893D01*
X167024150Y-101402950D01*
X167024140Y-101402964D01*
X166822151Y-101705261D01*
X166822140Y-101705279D01*
X166650756Y-102025916D01*
X166650754Y-102025921D01*
X166511614Y-102361834D01*
X166406067Y-102709776D01*
X166406064Y-102709787D01*
X166335139Y-103066362D01*
X166335136Y-103066377D01*
X166333999Y-103077929D01*
X166307838Y-103142716D01*
X166250803Y-103183075D01*
X166181003Y-103186191D01*
X166145500Y-103171313D01*
X166036522Y-103104095D01*
X166036517Y-103104093D01*
X166036516Y-103104092D01*
X165872753Y-103049826D01*
X165872751Y-103049825D01*
X165771678Y-103039500D01*
X165198330Y-103039500D01*
X165198312Y-103039501D01*
X165097247Y-103049825D01*
X164933484Y-103104092D01*
X164933481Y-103104093D01*
X164786648Y-103194661D01*
X164727681Y-103253629D01*
X164666358Y-103287114D01*
X164596666Y-103282130D01*
X164552319Y-103253629D01*
X164493351Y-103194661D01*
X164493350Y-103194660D01*
X164346521Y-103104095D01*
X164346518Y-103104093D01*
X164346513Y-103104091D01*
X164270057Y-103078756D01*
X164182753Y-103049826D01*
X164182751Y-103049825D01*
X164081678Y-103039500D01*
X163508330Y-103039500D01*
X163508312Y-103039501D01*
X163407247Y-103049825D01*
X163243484Y-103104092D01*
X163243479Y-103104094D01*
X163224095Y-103116051D01*
X163156703Y-103134490D01*
X163090039Y-103113566D01*
X163045271Y-103059924D01*
X163035000Y-103010511D01*
X163035000Y-102862172D01*
X163034999Y-102862155D01*
X163028598Y-102802627D01*
X163028597Y-102802623D01*
X162978349Y-102667904D01*
X162974101Y-102660123D01*
X162977360Y-102658343D01*
X162959046Y-102609374D01*
X162973836Y-102541087D01*
X162975023Y-102539239D01*
X162978793Y-102532335D01*
X162978792Y-102532335D01*
X162978796Y-102532331D01*
X163029091Y-102397483D01*
X163035500Y-102337873D01*
X163035499Y-101592128D01*
X163029091Y-101532517D01*
X163028105Y-101529874D01*
X162978797Y-101397671D01*
X162978793Y-101397664D01*
X162892547Y-101282455D01*
X162892544Y-101282452D01*
X162777335Y-101196206D01*
X162777328Y-101196202D01*
X162642482Y-101145908D01*
X162642483Y-101145908D01*
X162582883Y-101139501D01*
X162582881Y-101139500D01*
X162582873Y-101139500D01*
X162582864Y-101139500D01*
X160959129Y-101139500D01*
X160959125Y-101139501D01*
X160899515Y-101145909D01*
X160892031Y-101147678D01*
X160822261Y-101143939D01*
X160816061Y-101141563D01*
X160740496Y-101110263D01*
X160740486Y-101110260D01*
X160585843Y-101079500D01*
X160585840Y-101079500D01*
X160428156Y-101079500D01*
X160428153Y-101079500D01*
X160273508Y-101110261D01*
X160273496Y-101110264D01*
X160127825Y-101170602D01*
X160127812Y-101170609D01*
X159996709Y-101258210D01*
X159996705Y-101258213D01*
X159885211Y-101369707D01*
X159885208Y-101369711D01*
X159797607Y-101500814D01*
X159797600Y-101500827D01*
X159737262Y-101646498D01*
X159737259Y-101646510D01*
X159706498Y-101801153D01*
X159706498Y-101958846D01*
X159737259Y-102113489D01*
X159737262Y-102113501D01*
X159797600Y-102259172D01*
X159797607Y-102259185D01*
X159885208Y-102390288D01*
X159888406Y-102394185D01*
X159915718Y-102458495D01*
X159903926Y-102527363D01*
X159880233Y-102560530D01*
X158154398Y-104286365D01*
X158093075Y-104319850D01*
X158023383Y-104314866D01*
X157997826Y-104301786D01*
X157884920Y-104226344D01*
X157884907Y-104226337D01*
X157739234Y-104165998D01*
X157739229Y-104165997D01*
X157701909Y-104158573D01*
X157693709Y-104154283D01*
X157684474Y-104153759D01*
X157663247Y-104138348D01*
X157639999Y-104126187D01*
X157633920Y-104117056D01*
X157627934Y-104112711D01*
X157620158Y-104096388D01*
X157610568Y-104081984D01*
X157607171Y-104073270D01*
X157607091Y-104072517D01*
X157556796Y-103937669D01*
X157551637Y-103930778D01*
X157545499Y-103915028D01*
X157543897Y-103896458D01*
X157537361Y-103879001D01*
X157540957Y-103862369D01*
X157539495Y-103845417D01*
X157548187Y-103828929D01*
X157552127Y-103810709D01*
X157552752Y-103809736D01*
X157556797Y-103802329D01*
X157570443Y-103765742D01*
X157607091Y-103667483D01*
X157613500Y-103607873D01*
X157613499Y-102862128D01*
X157607103Y-102802627D01*
X157607091Y-102802516D01*
X157556797Y-102667670D01*
X157552547Y-102659888D01*
X157555757Y-102658134D01*
X157537361Y-102609001D01*
X157552127Y-102540709D01*
X157552752Y-102539736D01*
X157556797Y-102532329D01*
X157584335Y-102458495D01*
X157607091Y-102397483D01*
X157613500Y-102337873D01*
X157613499Y-101592128D01*
X157607091Y-101532517D01*
X157606105Y-101529874D01*
X157556797Y-101397671D01*
X157556793Y-101397664D01*
X157470547Y-101282455D01*
X157470544Y-101282452D01*
X157355335Y-101196206D01*
X157355328Y-101196202D01*
X157220482Y-101145908D01*
X157220483Y-101145908D01*
X157160883Y-101139501D01*
X157160881Y-101139500D01*
X157160873Y-101139500D01*
X157160864Y-101139500D01*
X155537129Y-101139500D01*
X155537123Y-101139501D01*
X155477516Y-101145908D01*
X155342671Y-101196202D01*
X155342668Y-101196204D01*
X155324543Y-101209773D01*
X155259078Y-101234190D01*
X155190805Y-101219338D01*
X155150887Y-101181473D01*
X155149821Y-101182317D01*
X155145339Y-101176649D01*
X155023351Y-101054661D01*
X155023350Y-101054660D01*
X154876516Y-100964092D01*
X154712753Y-100909826D01*
X154712751Y-100909825D01*
X154611678Y-100899500D01*
X154038330Y-100899500D01*
X154038312Y-100899501D01*
X153937247Y-100909825D01*
X153773484Y-100964092D01*
X153773481Y-100964093D01*
X153626648Y-101054661D01*
X153504660Y-101176649D01*
X153504657Y-101176653D01*
X153444366Y-101274400D01*
X153392418Y-101321125D01*
X153338828Y-101333303D01*
X153271155Y-101333303D01*
X153116510Y-101364064D01*
X153116498Y-101364067D01*
X152970827Y-101424405D01*
X152970814Y-101424412D01*
X152839711Y-101512013D01*
X152839707Y-101512016D01*
X152728213Y-101623510D01*
X152728210Y-101623514D01*
X152640609Y-101754617D01*
X152640602Y-101754630D01*
X152580264Y-101900301D01*
X152580261Y-101900313D01*
X152549500Y-102054956D01*
X152549500Y-102212649D01*
X152580261Y-102367292D01*
X152580264Y-102367304D01*
X152640602Y-102512975D01*
X152640609Y-102512988D01*
X152728210Y-102644091D01*
X152728213Y-102644095D01*
X152839707Y-102755589D01*
X152839711Y-102755592D01*
X152970814Y-102843193D01*
X152970827Y-102843200D01*
X153116498Y-102903538D01*
X153116503Y-102903540D01*
X153271153Y-102934302D01*
X153271156Y-102934303D01*
X153280734Y-102934303D01*
X153347773Y-102953988D01*
X153393528Y-103006792D01*
X153403472Y-103075950D01*
X153398440Y-103097307D01*
X153360319Y-103212348D01*
X153350000Y-103313345D01*
X153350000Y-103412500D01*
X154201000Y-103412500D01*
X154268039Y-103432185D01*
X154313794Y-103484989D01*
X154325000Y-103536500D01*
X154325000Y-103662500D01*
X154451000Y-103662500D01*
X154518039Y-103682185D01*
X154563794Y-103734989D01*
X154575000Y-103786500D01*
X154575000Y-104699999D01*
X154611640Y-104699999D01*
X154611654Y-104699998D01*
X154712652Y-104689680D01*
X154876300Y-104635453D01*
X154876306Y-104635450D01*
X154895399Y-104623673D01*
X154962790Y-104605230D01*
X155029455Y-104626150D01*
X155074227Y-104679790D01*
X155084500Y-104729208D01*
X155084500Y-104877869D01*
X155084501Y-104877876D01*
X155090908Y-104937483D01*
X155141202Y-105072328D01*
X155145454Y-105080114D01*
X155142280Y-105081846D01*
X155142751Y-105083114D01*
X155153642Y-105098021D01*
X155154668Y-105115183D01*
X155160659Y-105131302D01*
X155156712Y-105149339D01*
X155157815Y-105167766D01*
X155148080Y-105188790D01*
X155145725Y-105199557D01*
X155145097Y-105200689D01*
X155141665Y-105206804D01*
X155138151Y-105210237D01*
X155136320Y-105214192D01*
X155135978Y-105214650D01*
X155134649Y-105213658D01*
X155117171Y-105230734D01*
X155092943Y-105254956D01*
X155092218Y-105255113D01*
X155091689Y-105255631D01*
X155058155Y-105262518D01*
X155024668Y-105269798D01*
X155023973Y-105269538D01*
X155023247Y-105269688D01*
X154991315Y-105257352D01*
X154959207Y-105245372D01*
X154958145Y-105244539D01*
X154958072Y-105244511D01*
X154958021Y-105244442D01*
X154954865Y-105241966D01*
X154950290Y-105238211D01*
X154819185Y-105150609D01*
X154819172Y-105150602D01*
X154673501Y-105090264D01*
X154673489Y-105090261D01*
X154518845Y-105059500D01*
X154518842Y-105059500D01*
X154361158Y-105059500D01*
X154361155Y-105059500D01*
X154206510Y-105090261D01*
X154206498Y-105090264D01*
X154060827Y-105150602D01*
X154060814Y-105150609D01*
X153929711Y-105238210D01*
X153929707Y-105238213D01*
X153818213Y-105349707D01*
X153818210Y-105349711D01*
X153730609Y-105480814D01*
X153730603Y-105480826D01*
X153715059Y-105518352D01*
X153671217Y-105572754D01*
X153604923Y-105594818D01*
X153537224Y-105577538D01*
X153489614Y-105526400D01*
X153476499Y-105470900D01*
X153476499Y-104813324D01*
X153474426Y-104793034D01*
X153466174Y-104712248D01*
X153466174Y-104712247D01*
X153462350Y-104700709D01*
X153459947Y-104630883D01*
X153495677Y-104570840D01*
X153558196Y-104539646D01*
X153627656Y-104547204D01*
X153645153Y-104556166D01*
X153773688Y-104635448D01*
X153773699Y-104635453D01*
X153937347Y-104689680D01*
X154038352Y-104699999D01*
X154075000Y-104699999D01*
X154075000Y-103912500D01*
X153350001Y-103912500D01*
X153350001Y-104011654D01*
X153360319Y-104112652D01*
X153364067Y-104123964D01*
X153366467Y-104193792D01*
X153330734Y-104253833D01*
X153268213Y-104285024D01*
X153198753Y-104277462D01*
X153181263Y-104268504D01*
X153177164Y-104265976D01*
X153075441Y-104203232D01*
X153052518Y-104189093D01*
X153052513Y-104189091D01*
X153006063Y-104173699D01*
X152888753Y-104134826D01*
X152888751Y-104134825D01*
X152787678Y-104124500D01*
X152214330Y-104124500D01*
X152214312Y-104124501D01*
X152113247Y-104134825D01*
X151949484Y-104189092D01*
X151949481Y-104189093D01*
X151802648Y-104279661D01*
X151763681Y-104318629D01*
X151702358Y-104352114D01*
X151632666Y-104347130D01*
X151605548Y-104332989D01*
X151596280Y-104326590D01*
X151569350Y-104299660D01*
X151456116Y-104229816D01*
X151453466Y-104227987D01*
X151433409Y-104203232D01*
X151412096Y-104179536D01*
X151411564Y-104176269D01*
X151409482Y-104173699D01*
X151405992Y-104142026D01*
X151400875Y-104110574D01*
X151402193Y-104107539D01*
X151401831Y-104104250D01*
X151416018Y-104075719D01*
X151428718Y-104046492D01*
X151432339Y-104042901D01*
X151432942Y-104041689D01*
X151434498Y-104040759D01*
X151439645Y-104035655D01*
X151439543Y-104035553D01*
X151555347Y-103919748D01*
X151555350Y-103919745D01*
X151642955Y-103788635D01*
X151650601Y-103770177D01*
X151686567Y-103683345D01*
X151703298Y-103642953D01*
X151734061Y-103488298D01*
X151734061Y-103330614D01*
X151734061Y-103330611D01*
X151734060Y-103330609D01*
X151724174Y-103280908D01*
X151703298Y-103175959D01*
X151693285Y-103151786D01*
X151642958Y-103030283D01*
X151642951Y-103030270D01*
X151555350Y-102899167D01*
X151555347Y-102899163D01*
X151443853Y-102787669D01*
X151443849Y-102787666D01*
X151312746Y-102700065D01*
X151312733Y-102700058D01*
X151167062Y-102639720D01*
X151167050Y-102639717D01*
X151012406Y-102608956D01*
X151012403Y-102608956D01*
X150854719Y-102608956D01*
X150854716Y-102608956D01*
X150700071Y-102639717D01*
X150700059Y-102639720D01*
X150554388Y-102700058D01*
X150554375Y-102700065D01*
X150423272Y-102787666D01*
X150408178Y-102802760D01*
X150346854Y-102836243D01*
X150277162Y-102831257D01*
X150221230Y-102789384D01*
X150196815Y-102723919D01*
X150196499Y-102715102D01*
X150196499Y-101997128D01*
X150190091Y-101937517D01*
X150178532Y-101906527D01*
X150173549Y-101836839D01*
X150207033Y-101775515D01*
X150268356Y-101742030D01*
X150338048Y-101747014D01*
X150382396Y-101775515D01*
X150495238Y-101888357D01*
X150495242Y-101888360D01*
X150626345Y-101975961D01*
X150626358Y-101975968D01*
X150772029Y-102036306D01*
X150772034Y-102036308D01*
X150901070Y-102061975D01*
X150926684Y-102067070D01*
X150926687Y-102067071D01*
X150926689Y-102067071D01*
X151084375Y-102067071D01*
X151084376Y-102067070D01*
X151239028Y-102036308D01*
X151351697Y-101989638D01*
X151384703Y-101975968D01*
X151384703Y-101975967D01*
X151384710Y-101975965D01*
X151515820Y-101888360D01*
X151627320Y-101776860D01*
X151714925Y-101645750D01*
X151775268Y-101500068D01*
X151806031Y-101345413D01*
X151806031Y-101187729D01*
X151806031Y-101187726D01*
X151806030Y-101187724D01*
X151797832Y-101146510D01*
X151775268Y-101033074D01*
X151761911Y-101000827D01*
X151714928Y-100887398D01*
X151714921Y-100887385D01*
X151627320Y-100756282D01*
X151627317Y-100756278D01*
X151515823Y-100644784D01*
X151515819Y-100644781D01*
X151384716Y-100557180D01*
X151384703Y-100557173D01*
X151244405Y-100499061D01*
X151190001Y-100455221D01*
X151167936Y-100388926D01*
X151185215Y-100321227D01*
X151236352Y-100273616D01*
X151291857Y-100260500D01*
X167943383Y-100260500D01*
X168010422Y-100280185D01*
G37*
%TD.AperFunction*%
%TD*%
M02*
