%TF.GenerationSoftware,KiCad,Pcbnew,9.0.6*%
%TF.CreationDate,2026-02-28T22:35:36-06:00*%
%TF.ProjectId,Supplemental Monitoring PCB,53757070-6c65-46d6-956e-74616c204d6f,rev?*%
%TF.SameCoordinates,Original*%
%TF.FileFunction,Copper,L1,Top*%
%TF.FilePolarity,Positive*%
%FSLAX46Y46*%
G04 Gerber Fmt 4.6, Leading zero omitted, Abs format (unit mm)*
G04 Created by KiCad (PCBNEW 9.0.6) date 2026-02-28 22:35:36*
%MOMM*%
%LPD*%
G01*
G04 APERTURE LIST*
G04 Aperture macros list*
%AMRoundRect*
0 Rectangle with rounded corners*
0 $1 Rounding radius*
0 $2 $3 $4 $5 $6 $7 $8 $9 X,Y pos of 4 corners*
0 Add a 4 corners polygon primitive as box body*
4,1,4,$2,$3,$4,$5,$6,$7,$8,$9,$2,$3,0*
0 Add four circle primitives for the rounded corners*
1,1,$1+$1,$2,$3*
1,1,$1+$1,$4,$5*
1,1,$1+$1,$6,$7*
1,1,$1+$1,$8,$9*
0 Add four rect primitives between the rounded corners*
20,1,$1+$1,$2,$3,$4,$5,0*
20,1,$1+$1,$4,$5,$6,$7,0*
20,1,$1+$1,$6,$7,$8,$9,0*
20,1,$1+$1,$8,$9,$2,$3,0*%
G04 Aperture macros list end*
%TA.AperFunction,ComponentPad*%
%ADD10R,1.700000X1.700000*%
%TD*%
%TA.AperFunction,ComponentPad*%
%ADD11C,1.700000*%
%TD*%
%TA.AperFunction,ComponentPad*%
%ADD12C,2.000000*%
%TD*%
%TA.AperFunction,SMDPad,CuDef*%
%ADD13RoundRect,0.237500X-0.300000X-0.237500X0.300000X-0.237500X0.300000X0.237500X-0.300000X0.237500X0*%
%TD*%
%TA.AperFunction,SMDPad,CuDef*%
%ADD14RoundRect,0.150000X-0.825000X-0.150000X0.825000X-0.150000X0.825000X0.150000X-0.825000X0.150000X0*%
%TD*%
%TA.AperFunction,SMDPad,CuDef*%
%ADD15RoundRect,0.237500X-0.237500X0.250000X-0.237500X-0.250000X0.237500X-0.250000X0.237500X0.250000X0*%
%TD*%
%TA.AperFunction,SMDPad,CuDef*%
%ADD16RoundRect,0.218750X0.218750X0.256250X-0.218750X0.256250X-0.218750X-0.256250X0.218750X-0.256250X0*%
%TD*%
%TA.AperFunction,ComponentPad*%
%ADD17C,3.600000*%
%TD*%
%TA.AperFunction,ConnectorPad*%
%ADD18C,6.400000*%
%TD*%
%TA.AperFunction,SMDPad,CuDef*%
%ADD19R,1.025000X1.363996*%
%TD*%
%TA.AperFunction,SMDPad,CuDef*%
%ADD20RoundRect,0.237500X0.237500X-0.250000X0.237500X0.250000X-0.237500X0.250000X-0.237500X-0.250000X0*%
%TD*%
%TA.AperFunction,SMDPad,CuDef*%
%ADD21RoundRect,0.237500X0.250000X0.237500X-0.250000X0.237500X-0.250000X-0.237500X0.250000X-0.237500X0*%
%TD*%
%TA.AperFunction,SMDPad,CuDef*%
%ADD22RoundRect,0.237500X0.237500X-0.300000X0.237500X0.300000X-0.237500X0.300000X-0.237500X-0.300000X0*%
%TD*%
%TA.AperFunction,SMDPad,CuDef*%
%ADD23RoundRect,0.237500X-0.250000X-0.237500X0.250000X-0.237500X0.250000X0.237500X-0.250000X0.237500X0*%
%TD*%
%TA.AperFunction,SMDPad,CuDef*%
%ADD24RoundRect,0.237500X-0.237500X0.300000X-0.237500X-0.300000X0.237500X-0.300000X0.237500X0.300000X0*%
%TD*%
%TA.AperFunction,ViaPad*%
%ADD25C,0.600000*%
%TD*%
%TA.AperFunction,Conductor*%
%ADD26C,0.400000*%
%TD*%
%TA.AperFunction,Conductor*%
%ADD27C,0.200000*%
%TD*%
%TA.AperFunction,Conductor*%
%ADD28C,0.300000*%
%TD*%
G04 APERTURE END LIST*
D10*
%TO.P,J1,1,Pin_1*%
%TO.N,/SER*%
X214210000Y-53100000D03*
D11*
%TO.P,J1,2,Pin_2*%
%TO.N,/SRCLK*%
X211670000Y-53100000D03*
%TO.P,J1,3,Pin_3*%
%TO.N,/RCLK*%
X209130000Y-53100000D03*
%TO.P,J1,4,Pin_4*%
%TO.N,GND*%
X206590000Y-53100000D03*
%TD*%
D12*
%TO.P,BATT_HALL_OUT1,1,1*%
%TO.N,/Supp_Batt_Isns*%
X210250000Y-32750000D03*
%TD*%
D13*
%TO.P,C1,1*%
%TO.N,+3.3V*%
X223675000Y-29147500D03*
%TO.P,C1,2*%
%TO.N,GND*%
X225400000Y-29147500D03*
%TD*%
D12*
%TO.P,SUPP_BATT_SNS1,1,1*%
%TO.N,/Supp_Batt_Vsns*%
X195500000Y-30500000D03*
%TD*%
D14*
%TO.P,U5,1*%
%TO.N,Net-(U5A--)*%
X216550000Y-29480000D03*
%TO.P,U5,2,-*%
X216550000Y-30750000D03*
%TO.P,U5,3,+*%
%TO.N,/Supp_Batt_I*%
X216550000Y-32020000D03*
%TO.P,U5,4,V-*%
%TO.N,GND*%
X216550000Y-33290000D03*
%TO.P,U5,5,+*%
%TO.N,/Supp_Reg_I*%
X221500000Y-33290000D03*
%TO.P,U5,6,-*%
%TO.N,Net-(U5B--)*%
X221500000Y-32020000D03*
%TO.P,U5,7*%
X221500000Y-30750000D03*
%TO.P,U5,8,V+*%
%TO.N,+3.3V*%
X221500000Y-29480000D03*
%TD*%
D15*
%TO.P,R30,1*%
%TO.N,Net-(U5A--)*%
X214400000Y-30985000D03*
%TO.P,R30,2*%
%TO.N,/Supp_Batt_Isns*%
X214400000Y-32810000D03*
%TD*%
D16*
%TO.P,D1,1,K*%
%TO.N,GND*%
X224537500Y-53750000D03*
%TO.P,D1,2,A*%
%TO.N,Net-(D1-A)*%
X222962500Y-53750000D03*
%TD*%
D12*
%TO.P,BATT_HALL_IN1,1,1*%
%TO.N,/Supp_Batt_I*%
X195250000Y-46000000D03*
%TD*%
D17*
%TO.P,H2,1*%
%TO.N,N/C*%
X197025000Y-51365000D03*
D18*
X197025000Y-51365000D03*
%TD*%
D19*
%TO.P,U10,1,1*%
%TO.N,Net-(R11-Pad2)*%
X227091950Y-49900315D03*
%TO.P,U10,2,2*%
%TO.N,Net-(R12-Pad2)*%
X228734450Y-49900315D03*
%TO.P,U10,3,3*%
%TO.N,+3.3V*%
X230376950Y-49900315D03*
%TO.P,U10,4,4*%
%TO.N,Net-(R13-Pad2)*%
X232019450Y-49900315D03*
%TO.P,U10,5,5*%
%TO.N,Net-(R14-Pad2)*%
X233661950Y-49900315D03*
%TO.P,U10,6,6*%
%TO.N,Net-(R21-Pad1)*%
X233661950Y-38590315D03*
%TO.P,U10,7,7*%
%TO.N,Net-(R20-Pad1)*%
X232019450Y-38590315D03*
%TO.P,U10,8,8*%
%TO.N,+3.3V*%
X230376950Y-38590315D03*
%TO.P,U10,9,9*%
%TO.N,Net-(R19-Pad1)*%
X228734450Y-38590315D03*
%TO.P,U10,10,10*%
%TO.N,Net-(R18-Pad1)*%
X227091950Y-38590315D03*
%TD*%
%TO.P,U7,1,1*%
%TO.N,Net-(R3-Pad2)*%
X218580450Y-49900315D03*
%TO.P,U7,2,2*%
%TO.N,Net-(R4-Pad2)*%
X220222950Y-49900315D03*
%TO.P,U7,3,3*%
%TO.N,+3.3V*%
X221865450Y-49900315D03*
%TO.P,U7,4,4*%
%TO.N,Net-(R5-Pad2)*%
X223507950Y-49900315D03*
%TO.P,U7,5,5*%
%TO.N,Net-(R6-Pad2)*%
X225150450Y-49900315D03*
%TO.P,U7,6,6*%
%TO.N,Net-(R10-Pad1)*%
X225150450Y-38590315D03*
%TO.P,U7,7,7*%
%TO.N,Net-(R9-Pad1)*%
X223507950Y-38590315D03*
%TO.P,U7,8,8*%
%TO.N,+3.3V*%
X221865450Y-38590315D03*
%TO.P,U7,9,9*%
%TO.N,Net-(R8-Pad1)*%
X220222950Y-38590315D03*
%TO.P,U7,10,10*%
%TO.N,Net-(R7-Pad1)*%
X218580450Y-38590315D03*
%TD*%
D12*
%TO.P,GND1,1,1*%
%TO.N,GND*%
X203000000Y-53000000D03*
%TD*%
D20*
%TO.P,R33,1*%
%TO.N,Net-(U6B--)*%
X207225000Y-34027500D03*
%TO.P,R33,2*%
%TO.N,/SuppReg_Vsns*%
X207225000Y-32202500D03*
%TD*%
D21*
%TO.P,R31,1*%
%TO.N,Net-(U6A--)*%
X200162500Y-28750000D03*
%TO.P,R31,2*%
%TO.N,/Supp_Batt_Vsns*%
X198337500Y-28750000D03*
%TD*%
D22*
%TO.P,C6,1*%
%TO.N,/Supp_Batt_Isns*%
X212900000Y-32760000D03*
%TO.P,C6,2*%
%TO.N,GND*%
X212900000Y-31035000D03*
%TD*%
D14*
%TO.P,U6,1*%
%TO.N,Net-(U6A--)*%
X200000000Y-30460000D03*
%TO.P,U6,2,-*%
X200000000Y-31730000D03*
%TO.P,U6,3,+*%
%TO.N,/VoltageSense/vin1_divided*%
X200000000Y-33000000D03*
%TO.P,U6,4,V-*%
%TO.N,GND*%
X200000000Y-34270000D03*
%TO.P,U6,5,+*%
%TO.N,/VoltageSense/vin2_divided*%
X204950000Y-34270000D03*
%TO.P,U6,6,-*%
%TO.N,Net-(U6B--)*%
X204950000Y-33000000D03*
%TO.P,U6,7*%
X204950000Y-31730000D03*
%TO.P,U6,8,V+*%
%TO.N,+3.3V*%
X204950000Y-30460000D03*
%TD*%
D23*
%TO.P,R22,1*%
%TO.N,+3.3V*%
X204587500Y-42250000D03*
%TO.P,R22,2*%
%TO.N,/~{SRCLR}*%
X206412500Y-42250000D03*
%TD*%
D12*
%TO.P,REG_HALL_IN1,1,1*%
%TO.N,/Supp_Reg_I*%
X195250000Y-39500000D03*
%TD*%
D24*
%TO.P,C7,1*%
%TO.N,/Supp_Batt_Vsns*%
X198000000Y-30387500D03*
%TO.P,C7,2*%
%TO.N,GND*%
X198000000Y-32112500D03*
%TD*%
D12*
%TO.P,SUPP_REG1,1,1*%
%TO.N,/SuppReg_Vin*%
X195300000Y-36300000D03*
%TD*%
D17*
%TO.P,H1,1*%
%TO.N,N/C*%
X231725000Y-28275000D03*
D18*
X231725000Y-28275000D03*
%TD*%
D12*
%TO.P,SUPP_BATT1,1,1*%
%TO.N,/Supp_Batt_Vin*%
X195250000Y-42750000D03*
%TD*%
D23*
%TO.P,R1,1*%
%TO.N,+3.3V*%
X219300000Y-53750000D03*
%TO.P,R1,2*%
%TO.N,Net-(D1-A)*%
X221125000Y-53750000D03*
%TD*%
D12*
%TO.P,REG_HALL_OUT1,1,1*%
%TO.N,/Supp_Reg_Isns*%
X225250000Y-35000000D03*
%TD*%
%TO.P,TP_3V3,1,1*%
%TO.N,+3.3V*%
X230500000Y-52500000D03*
%TD*%
D22*
%TO.P,C9,1*%
%TO.N,/SuppReg_Vsns*%
X207225000Y-30477500D03*
%TO.P,C9,2*%
%TO.N,GND*%
X207225000Y-28752500D03*
%TD*%
D12*
%TO.P,SUPP_REG_SNS1,1,1*%
%TO.N,/SuppReg_Vsns*%
X204750000Y-28000000D03*
%TD*%
D19*
%TO.P,U11,1,1*%
%TO.N,Net-(R35-Pad2)*%
X210179450Y-49900315D03*
%TO.P,U11,2,2*%
%TO.N,Net-(R37-Pad2)*%
X211821950Y-49900315D03*
%TO.P,U11,3,3*%
%TO.N,+3.3V*%
X213464450Y-49900315D03*
%TO.P,U11,4,4*%
%TO.N,Net-(R39-Pad2)*%
X215106950Y-49900315D03*
%TO.P,U11,5,5*%
%TO.N,Net-(R41-Pad2)*%
X216749450Y-49900315D03*
%TO.P,U11,6,6*%
%TO.N,Net-(R40-Pad1)*%
X216749450Y-38590315D03*
%TO.P,U11,7,7*%
%TO.N,Net-(R38-Pad1)*%
X215106950Y-38590315D03*
%TO.P,U11,8,8*%
%TO.N,+3.3V*%
X213464450Y-38590315D03*
%TO.P,U11,9,9*%
%TO.N,Net-(R36-Pad1)*%
X211821950Y-38590315D03*
%TO.P,U11,10,10*%
%TO.N,Net-(R34-Pad1)*%
X210179450Y-38590315D03*
%TD*%
D21*
%TO.P,R23,1*%
%TO.N,/~{OE}*%
X206412500Y-40500000D03*
%TO.P,R23,2*%
%TO.N,GND*%
X204587500Y-40500000D03*
%TD*%
D22*
%TO.P,C8,1*%
%TO.N,/Supp_Reg_Isns*%
X225150000Y-32510000D03*
%TO.P,C8,2*%
%TO.N,GND*%
X225150000Y-30785000D03*
%TD*%
D15*
%TO.P,R32,1*%
%TO.N,Net-(U5B--)*%
X223650000Y-30735000D03*
%TO.P,R32,2*%
%TO.N,/Supp_Reg_Isns*%
X223650000Y-32560000D03*
%TD*%
D25*
%TO.N,/SER*%
X216700000Y-43900000D03*
%TO.N,GND*%
X202786742Y-40186742D03*
%TO.N,/SuppReg_Vsns*%
X205200000Y-44700000D03*
X205912477Y-36212477D03*
%TO.N,/Supp_Batt_Vin*%
X200000000Y-36500000D03*
%TO.N,+3.3V*%
X220351735Y-42049265D03*
X202250000Y-30500000D03*
X230288820Y-39454076D03*
X227023393Y-30276607D03*
X221914981Y-39325504D03*
X219750000Y-30500000D03*
X211950735Y-42049265D03*
X202750000Y-42305002D03*
X228863235Y-42178215D03*
X213408179Y-39325126D03*
%TO.N,/VoltageSense/vin1_divided*%
X201142964Y-33551277D03*
%TO.N,Net-(R3-Pad2)*%
X218617450Y-51121050D03*
%TO.N,Net-(R4-Pad2)*%
X220117450Y-51121050D03*
%TO.N,Net-(R5-Pad2)*%
X223367450Y-51121050D03*
%TO.N,Net-(R6-Pad2)*%
X225117450Y-51121050D03*
%TO.N,Net-(R7-Pad1)*%
X218605030Y-39546050D03*
%TO.N,Net-(R8-Pad1)*%
X220108677Y-39546050D03*
%TO.N,Net-(R9-Pad1)*%
X223432336Y-39425000D03*
%TO.N,Net-(R10-Pad1)*%
X225122633Y-39425000D03*
%TO.N,Net-(R11-Pad2)*%
X227128950Y-51250000D03*
%TO.N,Net-(R12-Pad2)*%
X228628950Y-51250000D03*
%TO.N,Net-(R13-Pad2)*%
X231878950Y-51250000D03*
%TO.N,Net-(R14-Pad2)*%
X233628950Y-51250000D03*
%TO.N,/VoltageSense/vin2_divided*%
X205725000Y-34270000D03*
%TO.N,/SuppReg_Vin*%
X202749000Y-43750000D03*
X202955053Y-36955053D03*
%TO.N,Net-(R18-Pad1)*%
X227116530Y-39675000D03*
%TO.N,Net-(R19-Pad1)*%
X228620177Y-39675000D03*
%TO.N,Net-(R20-Pad1)*%
X231943836Y-39553950D03*
%TO.N,Net-(R21-Pad1)*%
X233634133Y-39553950D03*
%TO.N,Net-(R34-Pad1)*%
X210204030Y-39546050D03*
%TO.N,Net-(R35-Pad2)*%
X210216450Y-51121050D03*
%TO.N,Net-(R36-Pad1)*%
X211707677Y-39546050D03*
%TO.N,Net-(R37-Pad2)*%
X211716450Y-51121050D03*
%TO.N,Net-(R38-Pad1)*%
X215031336Y-39425000D03*
%TO.N,Net-(R39-Pad2)*%
X215106950Y-49900315D03*
%TO.N,Net-(R40-Pad1)*%
X216721633Y-39425000D03*
%TO.N,Net-(R41-Pad2)*%
X216749450Y-49900315D03*
%TO.N,/Supp_Batt_Isns*%
X204552274Y-38421210D03*
%TO.N,/Supp_Reg_Isns*%
X205335271Y-38585271D03*
%TO.N,/Supp_Batt_I*%
X202000000Y-47130000D03*
X210000000Y-34848000D03*
X214750000Y-35250000D03*
%TO.N,/Supp_Reg_I*%
X201500000Y-43750000D03*
X214000000Y-35899000D03*
X212250000Y-35498000D03*
%TO.N,/SuppReg_Vsns*%
X207250000Y-33000000D03*
%TO.N,/~{SRCLR}*%
X206412500Y-42250000D03*
X211000000Y-46000000D03*
X228000000Y-45750000D03*
X219250000Y-45750000D03*
%TO.N,/~{OE}*%
X227385304Y-43737716D03*
X206412500Y-40500000D03*
X219000000Y-43798001D03*
X213450735Y-43950735D03*
%TO.N,Net-(U2-QH')*%
X217900000Y-46500000D03*
X217530417Y-43530417D03*
X212000000Y-46500000D03*
%TO.N,Net-(U4-QH')*%
X220250000Y-46500000D03*
X226000000Y-46350000D03*
X226661487Y-43397000D03*
%TO.N,/SRCLK*%
X218650001Y-45150000D03*
X210741774Y-45134045D03*
X226750000Y-44998000D03*
%TO.N,/RCLK*%
X227500000Y-44529454D03*
X211122654Y-44347801D03*
X218358542Y-44400765D03*
%TO.N,/SER*%
X209310679Y-42557850D03*
X213506841Y-43152702D03*
%TO.N,GND*%
X196250000Y-33500000D03*
X226250000Y-41250000D03*
X224500000Y-53000000D03*
X215250000Y-47000000D03*
X199000000Y-35500000D03*
X217750000Y-41250000D03*
X214250000Y-41750000D03*
X222401000Y-46000000D03*
X222500000Y-41500000D03*
X198500000Y-44900000D03*
X234000000Y-44250000D03*
X199571429Y-25750000D03*
X199250000Y-40250000D03*
X232000000Y-47000000D03*
X226400000Y-30800000D03*
X208500000Y-38250000D03*
X231250000Y-41750000D03*
X197250000Y-25750000D03*
X223401000Y-47000000D03*
%TD*%
D26*
%TO.N,+3.3V*%
X227500000Y-30753213D02*
X227500000Y-37000000D01*
X227023393Y-30276607D02*
X227500000Y-30753213D01*
X219300000Y-52001000D02*
X215395637Y-52001000D01*
X215395637Y-52001000D02*
X213464450Y-50069813D01*
X213464450Y-50069813D02*
X213464450Y-49900315D01*
D27*
%TO.N,/RCLK*%
X209130000Y-45270000D02*
X210100000Y-44300000D01*
X211122654Y-44347801D02*
X211074853Y-44300000D01*
X211074853Y-44300000D02*
X210100000Y-44300000D01*
%TO.N,/SRCLK*%
X211670000Y-53100000D02*
X211008450Y-52438450D01*
X211008450Y-52438450D02*
X211008450Y-46858393D01*
X211008450Y-46858393D02*
X210399000Y-46248943D01*
X210399000Y-46248943D02*
X210399000Y-45476819D01*
X210399000Y-45476819D02*
X210741774Y-45134045D01*
%TO.N,Net-(U2-QH')*%
X217750000Y-46350000D02*
X215050057Y-46350000D01*
X217900000Y-46500000D02*
X217750000Y-46350000D01*
X214799057Y-46601000D02*
X212101000Y-46601000D01*
X215050057Y-46350000D02*
X214799057Y-46601000D01*
X212101000Y-46601000D02*
X212000000Y-46500000D01*
%TO.N,/SER*%
X215952702Y-43152702D02*
X216700000Y-43900000D01*
X213506841Y-43152702D02*
X215952702Y-43152702D01*
%TO.N,/RCLK*%
X209130000Y-53100000D02*
X209130000Y-45270000D01*
%TO.N,/SER*%
X209310679Y-42557850D02*
X209310679Y-42810679D01*
X209310679Y-42810679D02*
X209652702Y-43152702D01*
X209652702Y-43152702D02*
X213506841Y-43152702D01*
%TO.N,/~{OE}*%
X206412500Y-40500000D02*
X206412500Y-40762443D01*
X209350057Y-43700000D02*
X213200000Y-43700000D01*
X206412500Y-40762443D02*
X209350057Y-43700000D01*
X213200000Y-43700000D02*
X213450735Y-43950735D01*
D26*
%TO.N,GND*%
X202786742Y-40186742D02*
X204274242Y-40186742D01*
X204274242Y-40186742D02*
X204587500Y-40500000D01*
D27*
%TO.N,/SuppReg_Vsns*%
X205200000Y-44700000D02*
X203406002Y-42906002D01*
X203406002Y-42906002D02*
X202501057Y-42906002D01*
X202149000Y-42553945D02*
X202149000Y-39975954D01*
X202149000Y-42553945D02*
X202501057Y-42906002D01*
X202149000Y-39975954D02*
X205912477Y-36212477D01*
D28*
%TO.N,/Supp_Batt_Vin*%
X200000000Y-38000000D02*
X200000000Y-36500000D01*
X195250000Y-42750000D02*
X200000000Y-38000000D01*
D26*
%TO.N,+3.3V*%
X222750000Y-37000000D02*
X221865450Y-37884550D01*
X214885267Y-37000000D02*
X214192633Y-37692633D01*
D28*
X213464450Y-38590315D02*
X213464450Y-39500126D01*
D26*
X221832500Y-29147500D02*
X221500000Y-29480000D01*
D28*
X204950000Y-30460000D02*
X202290000Y-30460000D01*
D26*
X205476000Y-42079002D02*
X205476000Y-39434492D01*
X202750000Y-42305002D02*
X205250000Y-42305002D01*
X221154663Y-51951000D02*
X219250000Y-51951000D01*
X227500000Y-37000000D02*
X223000000Y-37000000D01*
X230250000Y-49773365D02*
X230250000Y-39492896D01*
D28*
X213464450Y-40535550D02*
X211950735Y-42049265D01*
D26*
X219426950Y-53623050D02*
X219300000Y-53750000D01*
X223000000Y-37000000D02*
X222750000Y-37000000D01*
X223675000Y-29147500D02*
X221832500Y-29147500D01*
X221025713Y-51822050D02*
X221865450Y-50982313D01*
D28*
X213464450Y-39500126D02*
X213464450Y-39381397D01*
D26*
X228956133Y-37000000D02*
X227500000Y-37000000D01*
D28*
X213464450Y-39381397D02*
X213408179Y-39325126D01*
D26*
X205476000Y-39434492D02*
X207910492Y-37000000D01*
X207910492Y-37000000D02*
X214885267Y-37000000D01*
X223000000Y-37000000D02*
X214885267Y-37000000D01*
X230376950Y-49900315D02*
X230250000Y-49773365D01*
X230376950Y-50982313D02*
X230376950Y-49900315D01*
X205250000Y-42305002D02*
X205476000Y-42079002D01*
X230500000Y-50023365D02*
X230376950Y-49900315D01*
X221865450Y-37884550D02*
X221865450Y-38590315D01*
D28*
X213464450Y-39500126D02*
X213464450Y-40535550D01*
X220770000Y-29480000D02*
X221500000Y-29480000D01*
X230376950Y-38719265D02*
X230376950Y-40664500D01*
X202290000Y-30460000D02*
X202250000Y-30500000D01*
D26*
X221865450Y-50982313D02*
X221865450Y-49900315D01*
D28*
X221865450Y-40535550D02*
X220351735Y-42049265D01*
D26*
X230500000Y-52500000D02*
X230500000Y-50023365D01*
D28*
X219750000Y-30500000D02*
X220770000Y-29480000D01*
X221865450Y-38590315D02*
X221865450Y-40535550D01*
D26*
X213464450Y-38420817D02*
X213464450Y-38590315D01*
X219300000Y-52001000D02*
X219250000Y-51951000D01*
X230376950Y-38590315D02*
X230376950Y-38420817D01*
X214192633Y-37692633D02*
X213464450Y-38420817D01*
X221154663Y-51951000D02*
X229408263Y-51951000D01*
X221025713Y-51822050D02*
X221154663Y-51951000D01*
X230376950Y-38420817D02*
X228956133Y-37000000D01*
D28*
X230376950Y-40664500D02*
X228863235Y-42178215D01*
D26*
X219300000Y-53750000D02*
X219300000Y-52001000D01*
X230250000Y-39492896D02*
X230288820Y-39454076D01*
X229408263Y-51951000D02*
X230376950Y-50982313D01*
D28*
X213464450Y-38590315D02*
X213464450Y-40535550D01*
D27*
%TO.N,/VoltageSense/vin1_divided*%
X200551277Y-33551277D02*
X200000000Y-33000000D01*
X201142964Y-33551277D02*
X200551277Y-33551277D01*
%TO.N,Net-(R3-Pad2)*%
X218617450Y-51121050D02*
X218617450Y-49937315D01*
X218617450Y-49937315D02*
X218580450Y-49900315D01*
%TO.N,Net-(R4-Pad2)*%
X220117450Y-50005815D02*
X220222950Y-49900315D01*
X220117450Y-51121050D02*
X220117450Y-50005815D01*
%TO.N,Net-(R5-Pad2)*%
X223507950Y-49900315D02*
X223507950Y-50980550D01*
X223507950Y-50980550D02*
X223367450Y-51121050D01*
%TO.N,Net-(R6-Pad2)*%
X225150450Y-51088050D02*
X225117450Y-51121050D01*
X225150450Y-49900315D02*
X225150450Y-51088050D01*
%TO.N,Net-(R8-Pad1)*%
X220108677Y-38750873D02*
X220151000Y-38708550D01*
X220108677Y-39546050D02*
X220108677Y-38750873D01*
%TO.N,Net-(R9-Pad1)*%
X223432336Y-38665929D02*
X223507950Y-38590315D01*
X223432336Y-39425000D02*
X223432336Y-38665929D01*
%TO.N,Net-(R10-Pad1)*%
X225122633Y-38618132D02*
X225150450Y-38590315D01*
X225122633Y-39425000D02*
X225122633Y-38618132D01*
%TO.N,Net-(R11-Pad2)*%
X227128950Y-50066265D02*
X227091950Y-50029265D01*
X227128950Y-51250000D02*
X227128950Y-50066265D01*
%TO.N,Net-(R12-Pad2)*%
X228628950Y-50134765D02*
X228734450Y-50029265D01*
X228628950Y-51250000D02*
X228628950Y-50134765D01*
%TO.N,Net-(R13-Pad2)*%
X232019450Y-51109500D02*
X231878950Y-51250000D01*
X232019450Y-50029265D02*
X232019450Y-51109500D01*
%TO.N,Net-(R14-Pad2)*%
X233661950Y-51217000D02*
X233628950Y-51250000D01*
X233661950Y-50029265D02*
X233661950Y-51217000D01*
%TO.N,/VoltageSense/vin2_divided*%
X205725000Y-34270000D02*
X204950000Y-34270000D01*
D28*
%TO.N,/SuppReg_Vin*%
X201230346Y-44401000D02*
X200849000Y-44019654D01*
X202955053Y-37165773D02*
X202955053Y-36955053D01*
X202098000Y-44401000D02*
X201230346Y-44401000D01*
X200849000Y-39271826D02*
X202955053Y-37165773D01*
X200849000Y-44019654D02*
X200849000Y-39271826D01*
X202749000Y-43750000D02*
X202098000Y-44401000D01*
D27*
%TO.N,Net-(R18-Pad1)*%
X227175130Y-38614895D02*
X227150550Y-38590315D01*
X227175130Y-39675000D02*
X227175130Y-38614895D01*
X227162500Y-38789815D02*
X227162500Y-38837500D01*
X227091950Y-38719265D02*
X227162500Y-38789815D01*
%TO.N,Net-(R19-Pad1)*%
X228620177Y-38879823D02*
X228662500Y-38837500D01*
X228620177Y-39675000D02*
X228620177Y-38879823D01*
%TO.N,Net-(R20-Pad1)*%
X231943836Y-39553950D02*
X231943836Y-38794879D01*
X231943836Y-38794879D02*
X232019450Y-38719265D01*
%TO.N,Net-(R21-Pad1)*%
X233634133Y-39553950D02*
X233634133Y-38747082D01*
X233634133Y-38747082D02*
X233661950Y-38719265D01*
%TO.N,Net-(R35-Pad2)*%
X210216450Y-49937315D02*
X210179450Y-49900315D01*
X210216450Y-51121050D02*
X210216450Y-49937315D01*
%TO.N,Net-(R36-Pad1)*%
X211707677Y-39546050D02*
X211707677Y-38750873D01*
X211707677Y-38750873D02*
X211750000Y-38708550D01*
%TO.N,Net-(R37-Pad2)*%
X211716450Y-50005815D02*
X211821950Y-49900315D01*
X211716450Y-51121050D02*
X211716450Y-50005815D01*
%TO.N,Net-(R38-Pad1)*%
X215031336Y-39425000D02*
X215031336Y-38665929D01*
X215031336Y-38665929D02*
X215106950Y-38590315D01*
%TO.N,Net-(R40-Pad1)*%
X216721633Y-38618132D02*
X216749450Y-38590315D01*
X216721633Y-39425000D02*
X216721633Y-38618132D01*
%TO.N,/Supp_Batt_Isns*%
X206875484Y-36098000D02*
X204552274Y-38421210D01*
X210260000Y-32760000D02*
X210250000Y-32750000D01*
X212902000Y-36098000D02*
X206875484Y-36098000D01*
X212950000Y-32810000D02*
X212900000Y-32760000D01*
X212900000Y-32760000D02*
X210260000Y-32760000D01*
X214400000Y-34600000D02*
X212902000Y-36098000D01*
X214400000Y-32810000D02*
X214400000Y-34600000D01*
X214400000Y-32810000D02*
X212950000Y-32810000D01*
%TO.N,/Supp_Reg_Isns*%
X225250000Y-32610000D02*
X225250000Y-35000000D01*
X223650000Y-32560000D02*
X223650000Y-35349000D01*
X223650000Y-32560000D02*
X225100000Y-32560000D01*
X205335271Y-38585271D02*
X207421542Y-36499000D01*
X207421542Y-36499000D02*
X222500000Y-36499000D01*
X225150000Y-32510000D02*
X225250000Y-32610000D01*
X225100000Y-32560000D02*
X225150000Y-32510000D01*
X223650000Y-35349000D02*
X222500000Y-36499000D01*
%TO.N,/Supp_Batt_I*%
X200398000Y-38662163D02*
X200398000Y-45528000D01*
X215575001Y-32020000D02*
X215176000Y-32419001D01*
X215176000Y-32419001D02*
X215176000Y-34824000D01*
X204019063Y-35041100D02*
X209806900Y-35041100D01*
X215176000Y-34824000D02*
X214750000Y-35250000D01*
X216550000Y-32020000D02*
X215575001Y-32020000D01*
X204019063Y-35041100D02*
X200398000Y-38662163D01*
X210000000Y-34848000D02*
X209806900Y-35041100D01*
X200398000Y-45528000D02*
X202000000Y-47130000D01*
D28*
%TO.N,/Supp_Reg_I*%
X205331346Y-35498000D02*
X212250000Y-35498000D01*
X201500000Y-39329346D02*
X205331346Y-35498000D01*
X221250000Y-36000000D02*
X214101000Y-36000000D01*
X221500000Y-33290000D02*
X221500000Y-35750000D01*
X201500000Y-43750000D02*
X201500000Y-39329346D01*
X221500000Y-35750000D02*
X221250000Y-36000000D01*
X214101000Y-36000000D02*
X214000000Y-35899000D01*
D27*
%TO.N,/SuppReg_Vsns*%
X207225000Y-30475000D02*
X204750000Y-28000000D01*
X207225000Y-30477500D02*
X207225000Y-30475000D01*
X207225000Y-32975000D02*
X207250000Y-33000000D01*
X207225000Y-32202500D02*
X207225000Y-30477500D01*
X207225000Y-32202500D02*
X207225000Y-32975000D01*
%TO.N,/Supp_Batt_Vsns*%
X198000000Y-30387500D02*
X198000000Y-29087500D01*
X198000000Y-29087500D02*
X198337500Y-28750000D01*
X195612500Y-30387500D02*
X195500000Y-30500000D01*
X195612500Y-30387500D02*
X198000000Y-30387500D01*
%TO.N,/~{SRCLR}*%
X219000000Y-45750000D02*
X219250000Y-45500000D01*
X214599943Y-45750000D02*
X219000000Y-45750000D01*
X222152057Y-45399000D02*
X221801057Y-45750000D01*
X219500000Y-45750000D02*
X219250000Y-45500000D01*
X219250000Y-45750000D02*
X219250000Y-45500000D01*
X222649943Y-45399000D02*
X222152057Y-45399000D01*
X211000000Y-46000000D02*
X211601000Y-45399000D01*
X228000000Y-45750000D02*
X223000943Y-45750000D01*
X214248943Y-45399000D02*
X214599943Y-45750000D01*
X221801057Y-45750000D02*
X219500000Y-45750000D01*
X223000943Y-45750000D02*
X222649943Y-45399000D01*
X211601000Y-45399000D02*
X214248943Y-45399000D01*
%TO.N,/~{OE}*%
X217500000Y-44500000D02*
X215134200Y-44500000D01*
X227182511Y-43997000D02*
X227385304Y-43794207D01*
X219632678Y-43997000D02*
X227182511Y-43997000D01*
X215134200Y-44500000D02*
X214584935Y-43950735D01*
X219000000Y-43798001D02*
X219433679Y-43798001D01*
X218111363Y-43798001D02*
X217500000Y-44409364D01*
X217500000Y-44409364D02*
X217500000Y-44500000D01*
X219000000Y-43798001D02*
X218111363Y-43798001D01*
X227385304Y-43794207D02*
X227385304Y-43737716D01*
X214584935Y-43950735D02*
X213450735Y-43950735D01*
X219433679Y-43798001D02*
X219632678Y-43997000D01*
%TO.N,Net-(U2-QH')*%
X217862833Y-43198001D02*
X217530417Y-43530417D01*
%TO.N,Net-(U4-QH')*%
X220351000Y-46601000D02*
X220250000Y-46500000D01*
X226000000Y-46350000D02*
X222900943Y-46350000D01*
X222900943Y-46350000D02*
X222649943Y-46601000D01*
X222649943Y-46601000D02*
X220351000Y-46601000D01*
%TO.N,Net-(U5A--)*%
X216550000Y-30750000D02*
X216550000Y-29480000D01*
X214400000Y-30985000D02*
X216315000Y-30985000D01*
X216315000Y-30985000D02*
X216550000Y-30750000D01*
%TO.N,Net-(U6A--)*%
X200162500Y-28750000D02*
X200162500Y-30297500D01*
X200162500Y-30297500D02*
X200000000Y-30460000D01*
X200000000Y-31730000D02*
X200000000Y-30460000D01*
%TO.N,Net-(U5B--)*%
X221500000Y-30750000D02*
X223635000Y-30750000D01*
X223635000Y-30750000D02*
X223650000Y-30735000D01*
X221500000Y-30750000D02*
X221500000Y-32020000D01*
%TO.N,Net-(U6B--)*%
X204950000Y-33000000D02*
X206197500Y-33000000D01*
X204950000Y-31730000D02*
X204950000Y-33000000D01*
X206197500Y-33000000D02*
X207225000Y-34027500D01*
%TO.N,/SRCLK*%
X210993231Y-45134045D02*
X210741774Y-45134045D01*
X214849000Y-45349000D02*
X214498000Y-44998000D01*
X219597943Y-44998000D02*
X219498943Y-44899000D01*
X214498000Y-44998000D02*
X211184900Y-44998000D01*
X211127276Y-45000000D02*
X210993231Y-45134045D01*
X218453000Y-45150000D02*
X218254000Y-45349000D01*
X218254000Y-45349000D02*
X214849000Y-45349000D01*
X211184900Y-44998000D02*
X211182900Y-45000000D01*
X226750000Y-44998000D02*
X219597943Y-44998000D01*
X218650001Y-45150000D02*
X218453000Y-45150000D01*
X211182900Y-45000000D02*
X211127276Y-45000000D01*
X219006771Y-44899000D02*
X218755771Y-45150000D01*
X218755771Y-45150000D02*
X218650001Y-45150000D01*
X219498943Y-44899000D02*
X219006771Y-44899000D01*
%TO.N,Net-(D1-A)*%
X221125000Y-53750000D02*
X222962500Y-53750000D01*
%TO.N,/RCLK*%
X217811307Y-44948000D02*
X215015100Y-44948000D01*
X211371853Y-44597000D02*
X211122654Y-44347801D01*
X227368546Y-44398000D02*
X218361307Y-44398000D01*
X218358542Y-44400765D02*
X217811307Y-44948000D01*
X227500000Y-44529454D02*
X227368546Y-44398000D01*
X214664100Y-44597000D02*
X211371853Y-44597000D01*
X218361307Y-44398000D02*
X218358542Y-44400765D01*
X215015100Y-44948000D02*
X214664100Y-44597000D01*
D26*
%TO.N,GND*%
X200000000Y-34270000D02*
X200000000Y-34500000D01*
D28*
X225400000Y-29147500D02*
X225400000Y-30535000D01*
X225400000Y-30535000D02*
X225150000Y-30785000D01*
X225150000Y-30785000D02*
X226385000Y-30785000D01*
D26*
X200000000Y-34500000D02*
X199000000Y-35500000D01*
D27*
X224537500Y-53750000D02*
X226250000Y-53750000D01*
D28*
X226385000Y-30785000D02*
X226400000Y-30800000D01*
D26*
X234000000Y-45000000D02*
X232000000Y-47000000D01*
D27*
X224537500Y-53037500D02*
X224500000Y-53000000D01*
X224537500Y-53750000D02*
X224537500Y-53037500D01*
D26*
X234000000Y-44250000D02*
X234000000Y-45000000D01*
%TD*%
%TA.AperFunction,Conductor*%
%TO.N,GND*%
G36*
X204034624Y-39042077D02*
G01*
X204060179Y-39055156D01*
X204173095Y-39130604D01*
X204173097Y-39130605D01*
X204173101Y-39130607D01*
X204302442Y-39184181D01*
X204318777Y-39190947D01*
X204470431Y-39221113D01*
X204473427Y-39221709D01*
X204473430Y-39221710D01*
X204473432Y-39221710D01*
X204631118Y-39221710D01*
X204637181Y-39221113D01*
X204637349Y-39222822D01*
X204698777Y-39228304D01*
X204753965Y-39271154D01*
X204777226Y-39337038D01*
X204775630Y-39359386D01*
X204776097Y-39359432D01*
X204775500Y-39365495D01*
X204775500Y-41150500D01*
X204755815Y-41217539D01*
X204703011Y-41263294D01*
X204651500Y-41274500D01*
X204288330Y-41274500D01*
X204288312Y-41274501D01*
X204187247Y-41284825D01*
X204023484Y-41339092D01*
X204023481Y-41339093D01*
X203876648Y-41429661D01*
X203754661Y-41551648D01*
X203750182Y-41557314D01*
X203748999Y-41556378D01*
X203746567Y-41561705D01*
X203725111Y-41575493D01*
X203706101Y-41592487D01*
X203694647Y-41595071D01*
X203687789Y-41599479D01*
X203652854Y-41604502D01*
X203427609Y-41604502D01*
X203406126Y-41602627D01*
X203143210Y-41556378D01*
X202907337Y-41514886D01*
X202907322Y-41514884D01*
X202907301Y-41514881D01*
X202857802Y-41508564D01*
X202793794Y-41480551D01*
X202755092Y-41422379D01*
X202749500Y-41385562D01*
X202749500Y-40276050D01*
X202769185Y-40209011D01*
X202785814Y-40188373D01*
X203903611Y-39070576D01*
X203964932Y-39037093D01*
X204034624Y-39042077D01*
G37*
%TD.AperFunction*%
%TD*%
%TA.AperFunction,Conductor*%
%TO.N,GND*%
G36*
X199716834Y-39305625D02*
G01*
X199772767Y-39347497D01*
X199797184Y-39412961D01*
X199797500Y-39421807D01*
X199797500Y-45441330D01*
X199797499Y-45441348D01*
X199797499Y-45607054D01*
X199797498Y-45607054D01*
X199838424Y-45759789D01*
X199838425Y-45759790D01*
X199856686Y-45791418D01*
X199856687Y-45791419D01*
X199917477Y-45896712D01*
X199917481Y-45896717D01*
X200036349Y-46015585D01*
X200036355Y-46015590D01*
X201165425Y-47144660D01*
X201198910Y-47205983D01*
X201199361Y-47208149D01*
X201230261Y-47363491D01*
X201230264Y-47363501D01*
X201290602Y-47509172D01*
X201290609Y-47509185D01*
X201378210Y-47640288D01*
X201378213Y-47640292D01*
X201489707Y-47751786D01*
X201489711Y-47751789D01*
X201620814Y-47839390D01*
X201620827Y-47839397D01*
X201766498Y-47899735D01*
X201766503Y-47899737D01*
X201921153Y-47930499D01*
X201921156Y-47930500D01*
X201921158Y-47930500D01*
X202078844Y-47930500D01*
X202078845Y-47930499D01*
X202233497Y-47899737D01*
X202379179Y-47839394D01*
X202510289Y-47751789D01*
X202621789Y-47640289D01*
X202709394Y-47509179D01*
X202769737Y-47363497D01*
X202800500Y-47208842D01*
X202800500Y-47051158D01*
X202800500Y-47051155D01*
X202800499Y-47051153D01*
X202792371Y-47010292D01*
X202769737Y-46896503D01*
X202754737Y-46860289D01*
X202709397Y-46750827D01*
X202709390Y-46750814D01*
X202621789Y-46619711D01*
X202621786Y-46619707D01*
X202510292Y-46508213D01*
X202510288Y-46508210D01*
X202379185Y-46420609D01*
X202379172Y-46420602D01*
X202233501Y-46360264D01*
X202233491Y-46360261D01*
X202078149Y-46329361D01*
X202016238Y-46296976D01*
X202014660Y-46295425D01*
X201034819Y-45315584D01*
X201020115Y-45288656D01*
X201003523Y-45262838D01*
X201002631Y-45256637D01*
X201001334Y-45254261D01*
X200998500Y-45227903D01*
X200998500Y-45169221D01*
X201018185Y-45102182D01*
X201070989Y-45056427D01*
X201140147Y-45046483D01*
X201146666Y-45047599D01*
X201166277Y-45051500D01*
X201166278Y-45051500D01*
X202162071Y-45051500D01*
X202246615Y-45034682D01*
X202287744Y-45026501D01*
X202406127Y-44977465D01*
X202409432Y-44975257D01*
X202409436Y-44975255D01*
X202509143Y-44908633D01*
X202512669Y-44906277D01*
X202851932Y-44567012D01*
X202913251Y-44533530D01*
X202915316Y-44533099D01*
X202982497Y-44519737D01*
X203128179Y-44459394D01*
X203259289Y-44371789D01*
X203370789Y-44260289D01*
X203458394Y-44129179D01*
X203481556Y-44073260D01*
X203525394Y-44018858D01*
X203591687Y-43996792D01*
X203659387Y-44014070D01*
X203683797Y-44033032D01*
X204365425Y-44714660D01*
X204398910Y-44775983D01*
X204399361Y-44778149D01*
X204430261Y-44933491D01*
X204430264Y-44933501D01*
X204490602Y-45079172D01*
X204490609Y-45079185D01*
X204578210Y-45210288D01*
X204578213Y-45210292D01*
X204689707Y-45321786D01*
X204689711Y-45321789D01*
X204820814Y-45409390D01*
X204820827Y-45409397D01*
X204916301Y-45448943D01*
X204966503Y-45469737D01*
X205121153Y-45500499D01*
X205121156Y-45500500D01*
X205121158Y-45500500D01*
X205278844Y-45500500D01*
X205278845Y-45500499D01*
X205433497Y-45469737D01*
X205579179Y-45409394D01*
X205710289Y-45321789D01*
X205821789Y-45210289D01*
X205909394Y-45079179D01*
X205969737Y-44933497D01*
X206000500Y-44778842D01*
X206000500Y-44621158D01*
X206000500Y-44621155D01*
X206000499Y-44621153D01*
X205989730Y-44567015D01*
X205969737Y-44466503D01*
X205953004Y-44426106D01*
X205909397Y-44320827D01*
X205909390Y-44320814D01*
X205821789Y-44189711D01*
X205821786Y-44189707D01*
X205710292Y-44078213D01*
X205710288Y-44078210D01*
X205579185Y-43990609D01*
X205579172Y-43990602D01*
X205433501Y-43930264D01*
X205433491Y-43930261D01*
X205278149Y-43899361D01*
X205216238Y-43866976D01*
X205214660Y-43865425D01*
X204786415Y-43437180D01*
X204752930Y-43375857D01*
X204757914Y-43306165D01*
X204799786Y-43250232D01*
X204865250Y-43225815D01*
X204874096Y-43225499D01*
X204886670Y-43225499D01*
X204886676Y-43225499D01*
X204987753Y-43215174D01*
X205151516Y-43160908D01*
X205298350Y-43070340D01*
X205347565Y-43021124D01*
X205360311Y-43013548D01*
X205368051Y-43004590D01*
X205391030Y-42995291D01*
X205400134Y-42989881D01*
X205405525Y-42988289D01*
X205454328Y-42978582D01*
X205493835Y-42962217D01*
X205500123Y-42960361D01*
X205528767Y-42960318D01*
X205557250Y-42957256D01*
X205563265Y-42960267D01*
X205569993Y-42960257D01*
X205594115Y-42975709D01*
X205619730Y-42988531D01*
X205622915Y-42991605D01*
X205701650Y-43070340D01*
X205848484Y-43160908D01*
X206012247Y-43215174D01*
X206113323Y-43225500D01*
X206711676Y-43225499D01*
X206711684Y-43225498D01*
X206711687Y-43225498D01*
X206767030Y-43219844D01*
X206812753Y-43215174D01*
X206976516Y-43160908D01*
X207123350Y-43070340D01*
X207245340Y-42948350D01*
X207335908Y-42801516D01*
X207338985Y-42792228D01*
X207378754Y-42734785D01*
X207443269Y-42707960D01*
X207512046Y-42720272D01*
X207544372Y-42743550D01*
X208865196Y-44064374D01*
X208865206Y-44064385D01*
X208869536Y-44068715D01*
X208869537Y-44068716D01*
X208981341Y-44180520D01*
X209064939Y-44228785D01*
X209087946Y-44242068D01*
X209136161Y-44292635D01*
X209149385Y-44361242D01*
X209123417Y-44426106D01*
X209113627Y-44437136D01*
X208761286Y-44789478D01*
X208649481Y-44901282D01*
X208649479Y-44901285D01*
X208645237Y-44908633D01*
X208605498Y-44977465D01*
X208602514Y-44982633D01*
X208602512Y-44982635D01*
X208570425Y-45038209D01*
X208570424Y-45038210D01*
X208559445Y-45079185D01*
X208529499Y-45190943D01*
X208529499Y-45190945D01*
X208529499Y-45359046D01*
X208529500Y-45359059D01*
X208529500Y-51814281D01*
X208509815Y-51881320D01*
X208461795Y-51924765D01*
X208422185Y-51944947D01*
X208422184Y-51944948D01*
X208250213Y-52069890D01*
X208099890Y-52220213D01*
X207974949Y-52392182D01*
X207970202Y-52401499D01*
X207922227Y-52452293D01*
X207854405Y-52469087D01*
X207788271Y-52446548D01*
X207749234Y-52401495D01*
X207744626Y-52392452D01*
X207705270Y-52338282D01*
X207705269Y-52338282D01*
X207072962Y-52970590D01*
X207055925Y-52907007D01*
X206990099Y-52792993D01*
X206897007Y-52699901D01*
X206782993Y-52634075D01*
X206719409Y-52617037D01*
X207351716Y-51984728D01*
X207297550Y-51945375D01*
X207108217Y-51848904D01*
X206906129Y-51783242D01*
X206696246Y-51750000D01*
X206483754Y-51750000D01*
X206273872Y-51783242D01*
X206273869Y-51783242D01*
X206071782Y-51848904D01*
X205882439Y-51945380D01*
X205828282Y-51984727D01*
X205828282Y-51984728D01*
X206460591Y-52617037D01*
X206397007Y-52634075D01*
X206282993Y-52699901D01*
X206189901Y-52792993D01*
X206124075Y-52907007D01*
X206107037Y-52970591D01*
X205474728Y-52338282D01*
X205474727Y-52338282D01*
X205435380Y-52392439D01*
X205338904Y-52581782D01*
X205273242Y-52783869D01*
X205273242Y-52783872D01*
X205240000Y-52993753D01*
X205240000Y-53206246D01*
X205273242Y-53416127D01*
X205273242Y-53416130D01*
X205338904Y-53618217D01*
X205435375Y-53807550D01*
X205474728Y-53861716D01*
X206107037Y-53229408D01*
X206124075Y-53292993D01*
X206189901Y-53407007D01*
X206282993Y-53500099D01*
X206397007Y-53565925D01*
X206460590Y-53582962D01*
X205828282Y-54215269D01*
X205828282Y-54215270D01*
X205882449Y-54254624D01*
X206071782Y-54351095D01*
X206137872Y-54372569D01*
X206195547Y-54412006D01*
X206222746Y-54476365D01*
X206210832Y-54545211D01*
X206163588Y-54596687D01*
X206099554Y-54614500D01*
X203651896Y-54614500D01*
X203584857Y-54594815D01*
X203539102Y-54542011D01*
X203529158Y-54472853D01*
X203558183Y-54409297D01*
X203595601Y-54380015D01*
X203786163Y-54282918D01*
X203786169Y-54282914D01*
X203869104Y-54222658D01*
X203869105Y-54222658D01*
X203129408Y-53482962D01*
X203192993Y-53465925D01*
X203307007Y-53400099D01*
X203400099Y-53307007D01*
X203465925Y-53192993D01*
X203482962Y-53129409D01*
X204222658Y-53869105D01*
X204222658Y-53869104D01*
X204282914Y-53786169D01*
X204282918Y-53786163D01*
X204390102Y-53575802D01*
X204463065Y-53351247D01*
X204500000Y-53118052D01*
X204500000Y-52881947D01*
X204463065Y-52648752D01*
X204390102Y-52424197D01*
X204282914Y-52213828D01*
X204222658Y-52130894D01*
X204222658Y-52130893D01*
X203482962Y-52870590D01*
X203465925Y-52807007D01*
X203400099Y-52692993D01*
X203307007Y-52599901D01*
X203192993Y-52534075D01*
X203129409Y-52517037D01*
X203869105Y-51777340D01*
X203869104Y-51777338D01*
X203786174Y-51717087D01*
X203575802Y-51609897D01*
X203351247Y-51536934D01*
X203351248Y-51536934D01*
X203118052Y-51500000D01*
X202881948Y-51500000D01*
X202648752Y-51536934D01*
X202424197Y-51609897D01*
X202213830Y-51717084D01*
X202130894Y-51777340D01*
X202870591Y-52517037D01*
X202807007Y-52534075D01*
X202692993Y-52599901D01*
X202599901Y-52692993D01*
X202534075Y-52807007D01*
X202517037Y-52870591D01*
X201777340Y-52130894D01*
X201717084Y-52213830D01*
X201609897Y-52424197D01*
X201536934Y-52648752D01*
X201500000Y-52881947D01*
X201500000Y-53118052D01*
X201536934Y-53351247D01*
X201609897Y-53575802D01*
X201717087Y-53786174D01*
X201777338Y-53869104D01*
X201777340Y-53869105D01*
X202517037Y-53129408D01*
X202534075Y-53192993D01*
X202599901Y-53307007D01*
X202692993Y-53400099D01*
X202807007Y-53465925D01*
X202870590Y-53482962D01*
X202130893Y-54222658D01*
X202213828Y-54282914D01*
X202404399Y-54380015D01*
X202455195Y-54427989D01*
X202471990Y-54495810D01*
X202449453Y-54561945D01*
X202394738Y-54605397D01*
X202348104Y-54614500D01*
X199231277Y-54614500D01*
X199164238Y-54594815D01*
X199118483Y-54542011D01*
X199108539Y-54472853D01*
X199137564Y-54409297D01*
X199162386Y-54387398D01*
X199232044Y-54340854D01*
X199513101Y-54110197D01*
X199770197Y-53853101D01*
X200000854Y-53572044D01*
X200202853Y-53269732D01*
X200374247Y-52949076D01*
X200513386Y-52613164D01*
X200618930Y-52265233D01*
X200618932Y-52265223D01*
X200618935Y-52265212D01*
X200682553Y-51945375D01*
X200689862Y-51908631D01*
X200693491Y-51871786D01*
X200699336Y-51812445D01*
X200719285Y-51609897D01*
X200725500Y-51546794D01*
X200725500Y-51183206D01*
X200689862Y-50821369D01*
X200618935Y-50464787D01*
X200618932Y-50464776D01*
X200618931Y-50464773D01*
X200618930Y-50464767D01*
X200513386Y-50116836D01*
X200374247Y-49780924D01*
X200329350Y-49696927D01*
X206445499Y-49696927D01*
X206471611Y-49828197D01*
X206471614Y-49828207D01*
X206522831Y-49951857D01*
X206522838Y-49951870D01*
X206597197Y-50063155D01*
X206597200Y-50063159D01*
X206691840Y-50157799D01*
X206691844Y-50157802D01*
X206803129Y-50232161D01*
X206803142Y-50232168D01*
X206926792Y-50283385D01*
X206926797Y-50283387D01*
X206926801Y-50283387D01*
X206926802Y-50283388D01*
X207058072Y-50309500D01*
X207058075Y-50309500D01*
X207191927Y-50309500D01*
X207280244Y-50291932D01*
X207323203Y-50283387D01*
X207446864Y-50232165D01*
X207558156Y-50157802D01*
X207652802Y-50063156D01*
X207727165Y-49951864D01*
X207778387Y-49828203D01*
X207804500Y-49696925D01*
X207804500Y-49563075D01*
X207804500Y-49563072D01*
X207778388Y-49431802D01*
X207778387Y-49431801D01*
X207778387Y-49431797D01*
X207778385Y-49431792D01*
X207727168Y-49308142D01*
X207727161Y-49308129D01*
X207652802Y-49196844D01*
X207652799Y-49196840D01*
X207558159Y-49102200D01*
X207558155Y-49102197D01*
X207446870Y-49027838D01*
X207446857Y-49027831D01*
X207323207Y-48976614D01*
X207323197Y-48976611D01*
X207191927Y-48950500D01*
X207191925Y-48950500D01*
X207058075Y-48950500D01*
X207058073Y-48950500D01*
X206926802Y-48976611D01*
X206926792Y-48976614D01*
X206803142Y-49027831D01*
X206803129Y-49027838D01*
X206691844Y-49102197D01*
X206691840Y-49102200D01*
X206597200Y-49196840D01*
X206597197Y-49196844D01*
X206522838Y-49308129D01*
X206522831Y-49308142D01*
X206471614Y-49431792D01*
X206471611Y-49431802D01*
X206445500Y-49563072D01*
X206445500Y-49563075D01*
X206445500Y-49696925D01*
X206445500Y-49696927D01*
X206445499Y-49696927D01*
X200329350Y-49696927D01*
X200274500Y-49594310D01*
X200202859Y-49460279D01*
X200202858Y-49460277D01*
X200202853Y-49460268D01*
X200000854Y-49157956D01*
X199770197Y-48876899D01*
X199770196Y-48876898D01*
X199770192Y-48876893D01*
X199513106Y-48619807D01*
X199232049Y-48389150D01*
X199232048Y-48389149D01*
X199232044Y-48389146D01*
X198929732Y-48187147D01*
X198929727Y-48187144D01*
X198929720Y-48187140D01*
X198609083Y-48015756D01*
X198609078Y-48015754D01*
X198273165Y-47876614D01*
X197925223Y-47771067D01*
X197925212Y-47771064D01*
X197568630Y-47700137D01*
X197296111Y-47673296D01*
X197206794Y-47664500D01*
X196843206Y-47664500D01*
X196760679Y-47672628D01*
X196481369Y-47700137D01*
X196124787Y-47771064D01*
X196124776Y-47771067D01*
X195776834Y-47876614D01*
X195440921Y-48015754D01*
X195440916Y-48015756D01*
X195120279Y-48187140D01*
X195120261Y-48187151D01*
X194817964Y-48389140D01*
X194817950Y-48389150D01*
X194536893Y-48619807D01*
X194279807Y-48876893D01*
X194049150Y-49157950D01*
X194049139Y-49157964D01*
X194002602Y-49227613D01*
X193948989Y-49272418D01*
X193879664Y-49281125D01*
X193816637Y-49250970D01*
X193779918Y-49191527D01*
X193775500Y-49158722D01*
X193775500Y-46904960D01*
X193795185Y-46837921D01*
X193847989Y-46792166D01*
X193917147Y-46782222D01*
X193980703Y-46811247D01*
X193999818Y-46832075D01*
X194104514Y-46976177D01*
X194105483Y-46977510D01*
X194272490Y-47144517D01*
X194463567Y-47283343D01*
X194478285Y-47290842D01*
X194674003Y-47390566D01*
X194674005Y-47390566D01*
X194674008Y-47390568D01*
X194794412Y-47429689D01*
X194898631Y-47463553D01*
X195131903Y-47500500D01*
X195131908Y-47500500D01*
X195368097Y-47500500D01*
X195601368Y-47463553D01*
X195825992Y-47390568D01*
X196036433Y-47283343D01*
X196227510Y-47144517D01*
X196394517Y-46977510D01*
X196533343Y-46786433D01*
X196640568Y-46575992D01*
X196713553Y-46351368D01*
X196722168Y-46296976D01*
X196750500Y-46118097D01*
X196750500Y-45881902D01*
X196713553Y-45648631D01*
X196670624Y-45516510D01*
X196640568Y-45424008D01*
X196640566Y-45424005D01*
X196640566Y-45424003D01*
X196555288Y-45256637D01*
X196533343Y-45213567D01*
X196394517Y-45022490D01*
X196227510Y-44855483D01*
X196036433Y-44716657D01*
X196032514Y-44714660D01*
X195825996Y-44609433D01*
X195601368Y-44536446D01*
X195368097Y-44499500D01*
X195368092Y-44499500D01*
X195131908Y-44499500D01*
X195131903Y-44499500D01*
X194898631Y-44536446D01*
X194674003Y-44609433D01*
X194463566Y-44716657D01*
X194399860Y-44762943D01*
X194272490Y-44855483D01*
X194272488Y-44855485D01*
X194272487Y-44855485D01*
X194105485Y-45022487D01*
X194105485Y-45022488D01*
X194105483Y-45022490D01*
X194064301Y-45079172D01*
X193999818Y-45167925D01*
X193944488Y-45210590D01*
X193874874Y-45216569D01*
X193813079Y-45183963D01*
X193778722Y-45123124D01*
X193775500Y-45095039D01*
X193775500Y-43654960D01*
X193795185Y-43587921D01*
X193847989Y-43542166D01*
X193917147Y-43532222D01*
X193980703Y-43561247D01*
X193999817Y-43582074D01*
X194105483Y-43727510D01*
X194272490Y-43894517D01*
X194463567Y-44033343D01*
X194551629Y-44078213D01*
X194674003Y-44140566D01*
X194674005Y-44140566D01*
X194674008Y-44140568D01*
X194794412Y-44179689D01*
X194898631Y-44213553D01*
X195131903Y-44250500D01*
X195131908Y-44250500D01*
X195368097Y-44250500D01*
X195601368Y-44213553D01*
X195825992Y-44140568D01*
X196036433Y-44033343D01*
X196227510Y-43894517D01*
X196394517Y-43727510D01*
X196533343Y-43536433D01*
X196640568Y-43325992D01*
X196713553Y-43101368D01*
X196713554Y-43101364D01*
X196714691Y-43096629D01*
X196714896Y-43096678D01*
X196718841Y-43081110D01*
X197189693Y-41747404D01*
X197218936Y-41701008D01*
X199585821Y-39334124D01*
X199647142Y-39300641D01*
X199716834Y-39305625D01*
G37*
%TD.AperFunction*%
%TA.AperFunction,Conductor*%
G36*
X207705270Y-53861717D02*
G01*
X207705270Y-53861716D01*
X207744622Y-53807555D01*
X207749232Y-53798507D01*
X207797205Y-53747709D01*
X207865025Y-53730912D01*
X207931161Y-53753447D01*
X207970204Y-53798504D01*
X207974949Y-53807817D01*
X208099890Y-53979786D01*
X208250213Y-54130109D01*
X208422179Y-54255048D01*
X208422181Y-54255049D01*
X208422184Y-54255051D01*
X208611588Y-54351557D01*
X208676257Y-54372569D01*
X208733933Y-54412007D01*
X208761131Y-54476365D01*
X208749216Y-54545212D01*
X208701972Y-54596687D01*
X208637939Y-54614500D01*
X207080446Y-54614500D01*
X207013407Y-54594815D01*
X206967652Y-54542011D01*
X206957708Y-54472853D01*
X206986733Y-54409297D01*
X207042128Y-54372569D01*
X207108217Y-54351095D01*
X207297554Y-54254622D01*
X207351716Y-54215270D01*
X207351717Y-54215270D01*
X206719408Y-53582962D01*
X206782993Y-53565925D01*
X206897007Y-53500099D01*
X206990099Y-53407007D01*
X207055925Y-53292993D01*
X207072962Y-53229408D01*
X207705270Y-53861717D01*
G37*
%TD.AperFunction*%
%TA.AperFunction,Conductor*%
G36*
X229511193Y-25095185D02*
G01*
X229556948Y-25147989D01*
X229566892Y-25217147D01*
X229537867Y-25280703D01*
X229520198Y-25297080D01*
X229520309Y-25297215D01*
X229518082Y-25299042D01*
X229518032Y-25299089D01*
X229517964Y-25299139D01*
X229236893Y-25529807D01*
X228979807Y-25786893D01*
X228749150Y-26067950D01*
X228749140Y-26067964D01*
X228547151Y-26370261D01*
X228547140Y-26370279D01*
X228375756Y-26690916D01*
X228375754Y-26690921D01*
X228236614Y-27026834D01*
X228131067Y-27374776D01*
X228131064Y-27374787D01*
X228060137Y-27731369D01*
X228039014Y-27945840D01*
X228024500Y-28093206D01*
X228024500Y-28456794D01*
X228025144Y-28463330D01*
X228060137Y-28818630D01*
X228131064Y-29175212D01*
X228131067Y-29175223D01*
X228236614Y-29523165D01*
X228375754Y-29859078D01*
X228375756Y-29859083D01*
X228547140Y-30179720D01*
X228547144Y-30179727D01*
X228547147Y-30179732D01*
X228749145Y-30482043D01*
X228749150Y-30482049D01*
X228979807Y-30763106D01*
X229236893Y-31020192D01*
X229236898Y-31020196D01*
X229236899Y-31020197D01*
X229517956Y-31250854D01*
X229820268Y-31452853D01*
X229820277Y-31452858D01*
X229820279Y-31452859D01*
X230140916Y-31624243D01*
X230140918Y-31624243D01*
X230140924Y-31624247D01*
X230476836Y-31763386D01*
X230824767Y-31868930D01*
X230824773Y-31868931D01*
X230824776Y-31868932D01*
X230824787Y-31868935D01*
X231181369Y-31939862D01*
X231543206Y-31975500D01*
X231543209Y-31975500D01*
X231906791Y-31975500D01*
X231906794Y-31975500D01*
X232268631Y-31939862D01*
X232338045Y-31926054D01*
X232625212Y-31868935D01*
X232625223Y-31868932D01*
X232625223Y-31868931D01*
X232625233Y-31868930D01*
X232973164Y-31763386D01*
X233309076Y-31624247D01*
X233629732Y-31452853D01*
X233932044Y-31250854D01*
X234213101Y-31020197D01*
X234470197Y-30763101D01*
X234700854Y-30482044D01*
X234700859Y-30482035D01*
X234700897Y-30481986D01*
X234700908Y-30481976D01*
X234702785Y-30479691D01*
X234703335Y-30480143D01*
X234756640Y-30439861D01*
X234826308Y-30434560D01*
X234887783Y-30467767D01*
X234921545Y-30528938D01*
X234924500Y-30555845D01*
X234924500Y-50595199D01*
X234924001Y-50596897D01*
X234924500Y-50600850D01*
X234924500Y-51411753D01*
X234924330Y-51418243D01*
X234907312Y-51742952D01*
X234905955Y-51755860D01*
X234855600Y-52073788D01*
X234852902Y-52086484D01*
X234769585Y-52397427D01*
X234765574Y-52409770D01*
X234650219Y-52710282D01*
X234644940Y-52722140D01*
X234498796Y-53008964D01*
X234492306Y-53020204D01*
X234316991Y-53290165D01*
X234309362Y-53300666D01*
X234106778Y-53550836D01*
X234098093Y-53560481D01*
X233870481Y-53788093D01*
X233860836Y-53796778D01*
X233610666Y-53999362D01*
X233600165Y-54006991D01*
X233330204Y-54182306D01*
X233318964Y-54188796D01*
X233032140Y-54334940D01*
X233020282Y-54340219D01*
X232719770Y-54455574D01*
X232707427Y-54459585D01*
X232396484Y-54542902D01*
X232383788Y-54545600D01*
X232065860Y-54595955D01*
X232052952Y-54597312D01*
X231728244Y-54614330D01*
X231721754Y-54614500D01*
X225447730Y-54614500D01*
X225380691Y-54594815D01*
X225334936Y-54542011D01*
X225324992Y-54472853D01*
X225342191Y-54425403D01*
X225412091Y-54312077D01*
X225412093Y-54312072D01*
X225464942Y-54152583D01*
X225474999Y-54054150D01*
X225475000Y-54054137D01*
X225475000Y-54000000D01*
X224661500Y-54000000D01*
X224594461Y-53980315D01*
X224548706Y-53927511D01*
X224537500Y-53876000D01*
X224537500Y-53624000D01*
X224557185Y-53556961D01*
X224609989Y-53511206D01*
X224661500Y-53500000D01*
X225474999Y-53500000D01*
X225474999Y-53445864D01*
X225474998Y-53445847D01*
X225464943Y-53347416D01*
X225412093Y-53187927D01*
X225412091Y-53187922D01*
X225323885Y-53044919D01*
X225205080Y-52926114D01*
X225132002Y-52881039D01*
X225085277Y-52829091D01*
X225074056Y-52760128D01*
X225101899Y-52696046D01*
X225159968Y-52657190D01*
X225197099Y-52651500D01*
X228898885Y-52651500D01*
X228965924Y-52671185D01*
X229011679Y-52723989D01*
X229021358Y-52756102D01*
X229036446Y-52851368D01*
X229109433Y-53075996D01*
X229195149Y-53244221D01*
X229216657Y-53286433D01*
X229355483Y-53477510D01*
X229522490Y-53644517D01*
X229713567Y-53783343D01*
X229744406Y-53799056D01*
X229924003Y-53890566D01*
X229924005Y-53890566D01*
X229924008Y-53890568D01*
X230044412Y-53929689D01*
X230148631Y-53963553D01*
X230381903Y-54000500D01*
X230381908Y-54000500D01*
X230618097Y-54000500D01*
X230851368Y-53963553D01*
X231075992Y-53890568D01*
X231286433Y-53783343D01*
X231477510Y-53644517D01*
X231644517Y-53477510D01*
X231783343Y-53286433D01*
X231890568Y-53075992D01*
X231963553Y-52851368D01*
X231967081Y-52829091D01*
X232000500Y-52618097D01*
X232000500Y-52381902D01*
X231966960Y-52170142D01*
X231975914Y-52100849D01*
X232020911Y-52047397D01*
X232065242Y-52029127D01*
X232080345Y-52026122D01*
X232112447Y-52019737D01*
X232258129Y-51959394D01*
X232389239Y-51871789D01*
X232500739Y-51760289D01*
X232588344Y-51629179D01*
X232622469Y-51546794D01*
X232639389Y-51505945D01*
X232683229Y-51451541D01*
X232749523Y-51429476D01*
X232817223Y-51446755D01*
X232864834Y-51497892D01*
X232868511Y-51505945D01*
X232919552Y-51629172D01*
X232919559Y-51629185D01*
X233007160Y-51760288D01*
X233007163Y-51760292D01*
X233118657Y-51871786D01*
X233118661Y-51871789D01*
X233249764Y-51959390D01*
X233249777Y-51959397D01*
X233366306Y-52007664D01*
X233395453Y-52019737D01*
X233534508Y-52047397D01*
X233550103Y-52050499D01*
X233550106Y-52050500D01*
X233550108Y-52050500D01*
X233707794Y-52050500D01*
X233707795Y-52050499D01*
X233862447Y-52019737D01*
X234008129Y-51959394D01*
X234139239Y-51871789D01*
X234250739Y-51760289D01*
X234338344Y-51629179D01*
X234398687Y-51483497D01*
X234429450Y-51328842D01*
X234429450Y-51171158D01*
X234424888Y-51148224D01*
X234427949Y-51114003D01*
X234430700Y-51079700D01*
X234431077Y-51079043D01*
X234431114Y-51078634D01*
X234447881Y-51048870D01*
X234448850Y-51047597D01*
X234562538Y-50906350D01*
X234585439Y-50868468D01*
X234618246Y-50824644D01*
X234628414Y-50797381D01*
X234632396Y-50790795D01*
X234634865Y-50785111D01*
X234651040Y-50742774D01*
X234653128Y-50731120D01*
X234668541Y-50689796D01*
X234674950Y-50630186D01*
X234674949Y-50620353D01*
X234675339Y-50610530D01*
X234675820Y-50604471D01*
X234676416Y-50601149D01*
X234675676Y-50594343D01*
X234674949Y-50580937D01*
X234674949Y-49170446D01*
X234674948Y-49170440D01*
X234673688Y-49158722D01*
X234668541Y-49110834D01*
X234637584Y-49027835D01*
X234618247Y-48975988D01*
X234618243Y-48975981D01*
X234531997Y-48860772D01*
X234531994Y-48860769D01*
X234416785Y-48774523D01*
X234416778Y-48774519D01*
X234281932Y-48724225D01*
X234281933Y-48724225D01*
X234222333Y-48717818D01*
X234222331Y-48717817D01*
X234222323Y-48717817D01*
X234222314Y-48717817D01*
X233101579Y-48717817D01*
X233101573Y-48717818D01*
X233041966Y-48724225D01*
X232907116Y-48774521D01*
X232900125Y-48778339D01*
X232831852Y-48793190D01*
X232781275Y-48778339D01*
X232774283Y-48774521D01*
X232639432Y-48724225D01*
X232639433Y-48724225D01*
X232579833Y-48717818D01*
X232579831Y-48717817D01*
X232579823Y-48717817D01*
X232579814Y-48717817D01*
X231459079Y-48717817D01*
X231459073Y-48717818D01*
X231399466Y-48724225D01*
X231264619Y-48774520D01*
X231258965Y-48777608D01*
X231257859Y-48777848D01*
X231257047Y-48778633D01*
X231223818Y-48785253D01*
X231190692Y-48792459D01*
X231189633Y-48792064D01*
X231188524Y-48792285D01*
X231156957Y-48779875D01*
X231125228Y-48768041D01*
X231124206Y-48767001D01*
X231123498Y-48766723D01*
X231098985Y-48741334D01*
X231014154Y-48623769D01*
X230973944Y-48568042D01*
X230950680Y-48502159D01*
X230950500Y-48495485D01*
X230950500Y-41004329D01*
X230959939Y-40956876D01*
X230962697Y-40950218D01*
X231002451Y-40854244D01*
X231006113Y-40835836D01*
X231027450Y-40728569D01*
X231027450Y-40032117D01*
X231047135Y-39965078D01*
X231099939Y-39919323D01*
X231169097Y-39909379D01*
X231232653Y-39938404D01*
X231254552Y-39963226D01*
X231322046Y-40064238D01*
X231322049Y-40064242D01*
X231433543Y-40175736D01*
X231433547Y-40175739D01*
X231564650Y-40263340D01*
X231564663Y-40263347D01*
X231691269Y-40315788D01*
X231710339Y-40323687D01*
X231864989Y-40354449D01*
X231864992Y-40354450D01*
X231864994Y-40354450D01*
X232022680Y-40354450D01*
X232022681Y-40354449D01*
X232177333Y-40323687D01*
X232323015Y-40263344D01*
X232454125Y-40175739D01*
X232565625Y-40064239D01*
X232653230Y-39933129D01*
X232674424Y-39881961D01*
X232718262Y-39827560D01*
X232784556Y-39805494D01*
X232852255Y-39822772D01*
X232899867Y-39873908D01*
X232903545Y-39881963D01*
X232924735Y-39933122D01*
X232924742Y-39933135D01*
X233012343Y-40064238D01*
X233012346Y-40064242D01*
X233123840Y-40175736D01*
X233123844Y-40175739D01*
X233254947Y-40263340D01*
X233254960Y-40263347D01*
X233381566Y-40315788D01*
X233400636Y-40323687D01*
X233555286Y-40354449D01*
X233555289Y-40354450D01*
X233555291Y-40354450D01*
X233712977Y-40354450D01*
X233712978Y-40354449D01*
X233867630Y-40323687D01*
X234013312Y-40263344D01*
X234144422Y-40175739D01*
X234255922Y-40064239D01*
X234343527Y-39933129D01*
X234403870Y-39787447D01*
X234409013Y-39761585D01*
X234441397Y-39699675D01*
X234456318Y-39686510D01*
X234528921Y-39632161D01*
X234531995Y-39629860D01*
X234533430Y-39627943D01*
X234618246Y-39514644D01*
X234668541Y-39379796D01*
X234674950Y-39320186D01*
X234674949Y-37860445D01*
X234668541Y-37800834D01*
X234668416Y-37800500D01*
X234618247Y-37665988D01*
X234618243Y-37665981D01*
X234531997Y-37550772D01*
X234531994Y-37550769D01*
X234416785Y-37464523D01*
X234416778Y-37464519D01*
X234281932Y-37414225D01*
X234281933Y-37414225D01*
X234222333Y-37407818D01*
X234222331Y-37407817D01*
X234222323Y-37407817D01*
X234222314Y-37407817D01*
X233101579Y-37407817D01*
X233101573Y-37407818D01*
X233041966Y-37414225D01*
X232907116Y-37464521D01*
X232900125Y-37468339D01*
X232831852Y-37483190D01*
X232781275Y-37468339D01*
X232774283Y-37464521D01*
X232639432Y-37414225D01*
X232639433Y-37414225D01*
X232579833Y-37407818D01*
X232579831Y-37407817D01*
X232579823Y-37407817D01*
X232579814Y-37407817D01*
X231459079Y-37407817D01*
X231459073Y-37407818D01*
X231399466Y-37414225D01*
X231264616Y-37464521D01*
X231257625Y-37468339D01*
X231189352Y-37483190D01*
X231138775Y-37468339D01*
X231131783Y-37464521D01*
X230996932Y-37414225D01*
X230996933Y-37414225D01*
X230937333Y-37407818D01*
X230937331Y-37407817D01*
X230937323Y-37407817D01*
X230937315Y-37407817D01*
X230658477Y-37407817D01*
X230594179Y-37389844D01*
X230573406Y-37377247D01*
X229952605Y-37000778D01*
X229929222Y-36982432D01*
X229402679Y-36455888D01*
X229402678Y-36455887D01*
X229287940Y-36379222D01*
X229160465Y-36326421D01*
X229160455Y-36326418D01*
X229025129Y-36299500D01*
X229025127Y-36299500D01*
X229025126Y-36299500D01*
X228324500Y-36299500D01*
X228257461Y-36279815D01*
X228211706Y-36227011D01*
X228200500Y-36175500D01*
X228200500Y-30684217D01*
X228180713Y-30584747D01*
X228173580Y-30548885D01*
X228172806Y-30547017D01*
X228145391Y-30480830D01*
X228126749Y-30435824D01*
X228120776Y-30421403D01*
X228120774Y-30421400D01*
X228068177Y-30342682D01*
X228068177Y-30342683D01*
X228044114Y-30306670D01*
X228003942Y-30266498D01*
X227819461Y-30082018D01*
X227792584Y-30041792D01*
X227791553Y-30039304D01*
X227785277Y-30024150D01*
X227732790Y-29897434D01*
X227732783Y-29897421D01*
X227645182Y-29766318D01*
X227645179Y-29766314D01*
X227533685Y-29654820D01*
X227533681Y-29654817D01*
X227402578Y-29567216D01*
X227402565Y-29567209D01*
X227256894Y-29506871D01*
X227256882Y-29506868D01*
X227102238Y-29476107D01*
X227102235Y-29476107D01*
X226944551Y-29476107D01*
X226944548Y-29476107D01*
X226789903Y-29506868D01*
X226789891Y-29506871D01*
X226644220Y-29567209D01*
X226644205Y-29567217D01*
X226626782Y-29578859D01*
X226560103Y-29599735D01*
X226492724Y-29581248D01*
X226446035Y-29529268D01*
X226434536Y-29463149D01*
X226437499Y-29434146D01*
X226437500Y-29434141D01*
X226437500Y-29397500D01*
X225524000Y-29397500D01*
X225456961Y-29377815D01*
X225411206Y-29325011D01*
X225400000Y-29273500D01*
X225400000Y-29147500D01*
X225274000Y-29147500D01*
X225206961Y-29127815D01*
X225161206Y-29075011D01*
X225150000Y-29023500D01*
X225150000Y-28897500D01*
X225650000Y-28897500D01*
X226437499Y-28897500D01*
X226437499Y-28860860D01*
X226437498Y-28860845D01*
X226427180Y-28759847D01*
X226372953Y-28596199D01*
X226372948Y-28596188D01*
X226282447Y-28449465D01*
X226282444Y-28449461D01*
X226160538Y-28327555D01*
X226160534Y-28327552D01*
X226013811Y-28237051D01*
X226013800Y-28237046D01*
X225850152Y-28182819D01*
X225749154Y-28172500D01*
X225650000Y-28172500D01*
X225650000Y-28897500D01*
X225150000Y-28897500D01*
X225150000Y-28172499D01*
X225050860Y-28172500D01*
X225050844Y-28172501D01*
X224949847Y-28182819D01*
X224786199Y-28237046D01*
X224786188Y-28237051D01*
X224639465Y-28327552D01*
X224625532Y-28341485D01*
X224564208Y-28374968D01*
X224494516Y-28369982D01*
X224450172Y-28341482D01*
X224435851Y-28327161D01*
X224435850Y-28327160D01*
X224344629Y-28270895D01*
X224289018Y-28236593D01*
X224289013Y-28236591D01*
X224236458Y-28219176D01*
X224125253Y-28182326D01*
X224125251Y-28182325D01*
X224024178Y-28172000D01*
X223325830Y-28172000D01*
X223325812Y-28172001D01*
X223224747Y-28182325D01*
X223224740Y-28182327D01*
X223120971Y-28216712D01*
X223112548Y-28219176D01*
X223083196Y-28226645D01*
X222572799Y-28437598D01*
X222525435Y-28447000D01*
X221763504Y-28447000D01*
X221628177Y-28473918D01*
X221628167Y-28473921D01*
X221500692Y-28526722D01*
X221385954Y-28603387D01*
X221385953Y-28603388D01*
X221346163Y-28643180D01*
X221284840Y-28676666D01*
X221258481Y-28679500D01*
X220609298Y-28679500D01*
X220572432Y-28682401D01*
X220572426Y-28682402D01*
X220414606Y-28728254D01*
X220414603Y-28728255D01*
X220273137Y-28811917D01*
X220273129Y-28811923D01*
X220156923Y-28928129D01*
X220156917Y-28928137D01*
X220073255Y-29069603D01*
X220073254Y-29069606D01*
X220027402Y-29227426D01*
X220027401Y-29227432D01*
X220024811Y-29260347D01*
X220015742Y-29284139D01*
X220010553Y-29309067D01*
X220001860Y-29320560D01*
X219999926Y-29325635D01*
X219989656Y-29337510D01*
X219988429Y-29338758D01*
X219886642Y-29436785D01*
X219883315Y-29440018D01*
X219883158Y-29440172D01*
X219843540Y-29483852D01*
X219839920Y-29489950D01*
X219830247Y-29499799D01*
X219830047Y-29499910D01*
X219829465Y-29500587D01*
X219647068Y-29682984D01*
X219585745Y-29716469D01*
X219583579Y-29716920D01*
X219516508Y-29730261D01*
X219516498Y-29730264D01*
X219370827Y-29790602D01*
X219370814Y-29790609D01*
X219239711Y-29878210D01*
X219239707Y-29878213D01*
X219128213Y-29989707D01*
X219128210Y-29989711D01*
X219040609Y-30120814D01*
X219040602Y-30120827D01*
X218980264Y-30266498D01*
X218980261Y-30266510D01*
X218949500Y-30421153D01*
X218949500Y-30578846D01*
X218980261Y-30733489D01*
X218980264Y-30733501D01*
X219040602Y-30879172D01*
X219040609Y-30879185D01*
X219128210Y-31010288D01*
X219128213Y-31010292D01*
X219239707Y-31121786D01*
X219239711Y-31121789D01*
X219370814Y-31209390D01*
X219370827Y-31209397D01*
X219497546Y-31261885D01*
X219516503Y-31269737D01*
X219671153Y-31300499D01*
X219671156Y-31300500D01*
X219671158Y-31300500D01*
X219828844Y-31300500D01*
X219828845Y-31300499D01*
X219983497Y-31269737D01*
X220008455Y-31259398D01*
X220035105Y-31256533D01*
X220061124Y-31250069D01*
X220069318Y-31252854D01*
X220077924Y-31251929D01*
X220101895Y-31263927D01*
X220127276Y-31272555D01*
X220136255Y-31281126D01*
X220140404Y-31283203D01*
X220152954Y-31296769D01*
X220156662Y-31301431D01*
X220156919Y-31301865D01*
X220157350Y-31302296D01*
X220161736Y-31307810D01*
X220172353Y-31333911D01*
X220185857Y-31358642D01*
X220185341Y-31365843D01*
X220188062Y-31372531D01*
X220182883Y-31400225D01*
X220180873Y-31428334D01*
X220176294Y-31435457D01*
X220175219Y-31441210D01*
X220166988Y-31449938D01*
X220160069Y-31460703D01*
X220161702Y-31461969D01*
X220156917Y-31468137D01*
X220073255Y-31609603D01*
X220073254Y-31609606D01*
X220027402Y-31767426D01*
X220027401Y-31767432D01*
X220024500Y-31804298D01*
X220024500Y-32235701D01*
X220027401Y-32272567D01*
X220027402Y-32272573D01*
X220073254Y-32430393D01*
X220073255Y-32430396D01*
X220156917Y-32571862D01*
X220161702Y-32578031D01*
X220159256Y-32579927D01*
X220185857Y-32628642D01*
X220180873Y-32698334D01*
X220160069Y-32730703D01*
X220161702Y-32731969D01*
X220156917Y-32738137D01*
X220073255Y-32879603D01*
X220073254Y-32879606D01*
X220027402Y-33037426D01*
X220027401Y-33037432D01*
X220024500Y-33074298D01*
X220024500Y-33505701D01*
X220027401Y-33542567D01*
X220027402Y-33542573D01*
X220073254Y-33700393D01*
X220073255Y-33700396D01*
X220073256Y-33700398D01*
X220080099Y-33711969D01*
X220156917Y-33841862D01*
X220156923Y-33841870D01*
X220273129Y-33958076D01*
X220273133Y-33958079D01*
X220273135Y-33958081D01*
X220414602Y-34041744D01*
X220456224Y-34053836D01*
X220572426Y-34087597D01*
X220572429Y-34087597D01*
X220572431Y-34087598D01*
X220609306Y-34090500D01*
X220725500Y-34090500D01*
X220792539Y-34110185D01*
X220838294Y-34162989D01*
X220849500Y-34214500D01*
X220849500Y-35225500D01*
X220829815Y-35292539D01*
X220777011Y-35338294D01*
X220725500Y-35349500D01*
X215780775Y-35349500D01*
X215713736Y-35329815D01*
X215667981Y-35277011D01*
X215658037Y-35207853D01*
X215673388Y-35163500D01*
X215710337Y-35099502D01*
X215719303Y-35083971D01*
X215735577Y-35055785D01*
X215776501Y-34903057D01*
X215776501Y-34744943D01*
X215776501Y-34737348D01*
X215776500Y-34737330D01*
X215776500Y-34214000D01*
X215796185Y-34146961D01*
X215848989Y-34101206D01*
X215900500Y-34090000D01*
X216300000Y-34090000D01*
X216800000Y-34090000D01*
X217440634Y-34090000D01*
X217440649Y-34089999D01*
X217477489Y-34087100D01*
X217477495Y-34087099D01*
X217635193Y-34041283D01*
X217635196Y-34041282D01*
X217776552Y-33957685D01*
X217776561Y-33957678D01*
X217892678Y-33841561D01*
X217892685Y-33841552D01*
X217976281Y-33700198D01*
X218022100Y-33542486D01*
X218022295Y-33540001D01*
X218022295Y-33540000D01*
X216800000Y-33540000D01*
X216800000Y-34090000D01*
X216300000Y-34090000D01*
X216300000Y-33414000D01*
X216319685Y-33346961D01*
X216372489Y-33301206D01*
X216424000Y-33290000D01*
X216550000Y-33290000D01*
X216550000Y-33164000D01*
X216569685Y-33096961D01*
X216622489Y-33051206D01*
X216674000Y-33040000D01*
X218022295Y-33040000D01*
X218022295Y-33039998D01*
X218022100Y-33037513D01*
X217976281Y-32879801D01*
X217892685Y-32738447D01*
X217887900Y-32732278D01*
X217890366Y-32730364D01*
X217863802Y-32681776D01*
X217868749Y-32612082D01*
X217889856Y-32579232D01*
X217888301Y-32578026D01*
X217893077Y-32571868D01*
X217893081Y-32571865D01*
X217976744Y-32430398D01*
X218022598Y-32272569D01*
X218025500Y-32235694D01*
X218025500Y-31804306D01*
X218022598Y-31767431D01*
X218021242Y-31762765D01*
X217980080Y-31621084D01*
X217976744Y-31609602D01*
X217893081Y-31468135D01*
X217893078Y-31468132D01*
X217888298Y-31461969D01*
X217890750Y-31460066D01*
X217864155Y-31411421D01*
X217869104Y-31341726D01*
X217889940Y-31309304D01*
X217888298Y-31308031D01*
X217893075Y-31301870D01*
X217893081Y-31301865D01*
X217976744Y-31160398D01*
X218017478Y-31020192D01*
X218022597Y-31002573D01*
X218022598Y-31002567D01*
X218025499Y-30965701D01*
X218025500Y-30965694D01*
X218025500Y-30534306D01*
X218022598Y-30497431D01*
X218018127Y-30482043D01*
X217976745Y-30339606D01*
X217976744Y-30339603D01*
X217976744Y-30339602D01*
X217893081Y-30198135D01*
X217893078Y-30198132D01*
X217888298Y-30191969D01*
X217890750Y-30190066D01*
X217864155Y-30141421D01*
X217869104Y-30071726D01*
X217889940Y-30039304D01*
X217888298Y-30038031D01*
X217893075Y-30031870D01*
X217893081Y-30031865D01*
X217976744Y-29890398D01*
X218022598Y-29732569D01*
X218025500Y-29695694D01*
X218025500Y-29264306D01*
X218022598Y-29227431D01*
X218021491Y-29223622D01*
X217976745Y-29069606D01*
X217976744Y-29069603D01*
X217976744Y-29069602D01*
X217893081Y-28928135D01*
X217893079Y-28928133D01*
X217893076Y-28928129D01*
X217776870Y-28811923D01*
X217776862Y-28811917D01*
X217688647Y-28759747D01*
X217635398Y-28728256D01*
X217635397Y-28728255D01*
X217635396Y-28728255D01*
X217635393Y-28728254D01*
X217477573Y-28682402D01*
X217477567Y-28682401D01*
X217440701Y-28679500D01*
X217440694Y-28679500D01*
X215659306Y-28679500D01*
X215659298Y-28679500D01*
X215622432Y-28682401D01*
X215622426Y-28682402D01*
X215464606Y-28728254D01*
X215464603Y-28728255D01*
X215323137Y-28811917D01*
X215323129Y-28811923D01*
X215206923Y-28928129D01*
X215206917Y-28928137D01*
X215123255Y-29069603D01*
X215123254Y-29069606D01*
X215077402Y-29227426D01*
X215077401Y-29227432D01*
X215074500Y-29264298D01*
X215074500Y-29695701D01*
X215077401Y-29732567D01*
X215077402Y-29732573D01*
X215123254Y-29890393D01*
X215123255Y-29890397D01*
X215125566Y-29894304D01*
X215142746Y-29962029D01*
X215120585Y-30028291D01*
X215066117Y-30072052D01*
X214996637Y-30079420D01*
X214958072Y-30064624D01*
X214958063Y-30064645D01*
X214957766Y-30064506D01*
X214953735Y-30062960D01*
X214951520Y-30061594D01*
X214951516Y-30061592D01*
X214787753Y-30007326D01*
X214787751Y-30007325D01*
X214686678Y-29997000D01*
X214113330Y-29997000D01*
X214113312Y-29997001D01*
X214012247Y-30007325D01*
X213848484Y-30061592D01*
X213848477Y-30061595D01*
X213714619Y-30144159D01*
X213647226Y-30162599D01*
X213584426Y-30144158D01*
X213451311Y-30062051D01*
X213451300Y-30062046D01*
X213287652Y-30007819D01*
X213186654Y-29997500D01*
X213150000Y-29997500D01*
X213150000Y-30911000D01*
X213130315Y-30978039D01*
X213077511Y-31023794D01*
X213026000Y-31035000D01*
X212900000Y-31035000D01*
X212900000Y-31161000D01*
X212880315Y-31228039D01*
X212827511Y-31273794D01*
X212776000Y-31285000D01*
X211925001Y-31285000D01*
X211925001Y-31384154D01*
X211935319Y-31485152D01*
X211989546Y-31648800D01*
X211989548Y-31648805D01*
X212040494Y-31731400D01*
X212058934Y-31798792D01*
X212038012Y-31865456D01*
X211984370Y-31910226D01*
X211915039Y-31918887D01*
X211877726Y-31906501D01*
X211379267Y-31647178D01*
X211055091Y-31478525D01*
X211039439Y-31468841D01*
X211036434Y-31466657D01*
X210825996Y-31359433D01*
X210601368Y-31286446D01*
X210368097Y-31249500D01*
X210368092Y-31249500D01*
X210131908Y-31249500D01*
X210131903Y-31249500D01*
X209898631Y-31286446D01*
X209674003Y-31359433D01*
X209463566Y-31466657D01*
X209397995Y-31514298D01*
X209272490Y-31605483D01*
X209272488Y-31605485D01*
X209272487Y-31605485D01*
X209105485Y-31772487D01*
X209105485Y-31772488D01*
X209105483Y-31772490D01*
X209082362Y-31804313D01*
X208966657Y-31963566D01*
X208859433Y-32174003D01*
X208786446Y-32398631D01*
X208749500Y-32631902D01*
X208749500Y-32868097D01*
X208786446Y-33101368D01*
X208859433Y-33325996D01*
X208934046Y-33472430D01*
X208966657Y-33536433D01*
X209105483Y-33727510D01*
X209272490Y-33894517D01*
X209463567Y-34033343D01*
X209463572Y-34033345D01*
X209465239Y-34034367D01*
X209465742Y-34034923D01*
X209467509Y-34036207D01*
X209467239Y-34036577D01*
X209478638Y-34049175D01*
X209495288Y-34060204D01*
X209501601Y-34074552D01*
X209512119Y-34086175D01*
X209515385Y-34105876D01*
X209523429Y-34124156D01*
X209520983Y-34139639D01*
X209523547Y-34155104D01*
X209515642Y-34173446D01*
X209512527Y-34193170D01*
X209498664Y-34212843D01*
X209495896Y-34219269D01*
X209493036Y-34222594D01*
X209489963Y-34226042D01*
X209489711Y-34226211D01*
X209378211Y-34337711D01*
X209341498Y-34392654D01*
X209335761Y-34399094D01*
X209313133Y-34413196D01*
X209292673Y-34430296D01*
X209282197Y-34432476D01*
X209276465Y-34436050D01*
X209265750Y-34435901D01*
X209243183Y-34440600D01*
X208324500Y-34440600D01*
X208257461Y-34420915D01*
X208211706Y-34368111D01*
X208200500Y-34316600D01*
X208200499Y-33728330D01*
X208200498Y-33728312D01*
X208190174Y-33627247D01*
X208167837Y-33559840D01*
X208135908Y-33463484D01*
X208045340Y-33316650D01*
X208045338Y-33316648D01*
X208041548Y-33310503D01*
X208043327Y-33309405D01*
X208021053Y-33254212D01*
X208022841Y-33217890D01*
X208023277Y-33215701D01*
X208037464Y-33144375D01*
X208050500Y-33078844D01*
X208050500Y-32940149D01*
X208068962Y-32875052D01*
X208101338Y-32822562D01*
X208135908Y-32766516D01*
X208190174Y-32602753D01*
X208200500Y-32501677D01*
X208200499Y-31903324D01*
X208190174Y-31802247D01*
X208168956Y-31738218D01*
X208168294Y-31734618D01*
X208165110Y-31726611D01*
X208135908Y-31638484D01*
X208125173Y-31621081D01*
X208115487Y-31601799D01*
X208115136Y-31600917D01*
X208015127Y-31426743D01*
X207998817Y-31358805D01*
X208015128Y-31303254D01*
X208015926Y-31301865D01*
X208115473Y-31128495D01*
X208118751Y-31122698D01*
X208122138Y-31113840D01*
X208135908Y-31091516D01*
X208169877Y-30989000D01*
X208170171Y-30988234D01*
X208171027Y-30985531D01*
X208173510Y-30978039D01*
X208190174Y-30927753D01*
X208200500Y-30826677D01*
X208200500Y-30685845D01*
X211925000Y-30685845D01*
X211925000Y-30785000D01*
X212650000Y-30785000D01*
X212650000Y-29997500D01*
X212613361Y-29997500D01*
X212613343Y-29997501D01*
X212512347Y-30007819D01*
X212348699Y-30062046D01*
X212348688Y-30062051D01*
X212201965Y-30152552D01*
X212201961Y-30152555D01*
X212080055Y-30274461D01*
X212080052Y-30274465D01*
X211989551Y-30421188D01*
X211989546Y-30421199D01*
X211935319Y-30584847D01*
X211925000Y-30685845D01*
X208200500Y-30685845D01*
X208200499Y-30467767D01*
X208200499Y-30128330D01*
X208200497Y-30128299D01*
X208190174Y-30027247D01*
X208177737Y-29989716D01*
X208135908Y-29863484D01*
X208045340Y-29716650D01*
X208031017Y-29702327D01*
X207997532Y-29641004D01*
X208002516Y-29571312D01*
X208031021Y-29526960D01*
X208044947Y-29513035D01*
X208135448Y-29366311D01*
X208135453Y-29366300D01*
X208189680Y-29202652D01*
X208199999Y-29101654D01*
X208200000Y-29101641D01*
X208200000Y-29002500D01*
X207349000Y-29002500D01*
X207281961Y-28982815D01*
X207236206Y-28930011D01*
X207225000Y-28878500D01*
X207225000Y-28752500D01*
X207099000Y-28752500D01*
X207031961Y-28732815D01*
X206986206Y-28680011D01*
X206975000Y-28628500D01*
X206975000Y-28502500D01*
X207475000Y-28502500D01*
X208199999Y-28502500D01*
X208199999Y-28403360D01*
X208199998Y-28403345D01*
X208189680Y-28302347D01*
X208135453Y-28138699D01*
X208135448Y-28138688D01*
X208044947Y-27991965D01*
X208044944Y-27991961D01*
X207923038Y-27870055D01*
X207923034Y-27870052D01*
X207776311Y-27779551D01*
X207776300Y-27779546D01*
X207612652Y-27725319D01*
X207511654Y-27715000D01*
X207475000Y-27715000D01*
X207475000Y-28502500D01*
X206975000Y-28502500D01*
X206975000Y-27715000D01*
X206938361Y-27715000D01*
X206938343Y-27715001D01*
X206837347Y-27725319D01*
X206673699Y-27779546D01*
X206673688Y-27779551D01*
X206526965Y-27870052D01*
X206526961Y-27870055D01*
X206485740Y-27911276D01*
X206483162Y-27912683D01*
X206481637Y-27915196D01*
X206452678Y-27929328D01*
X206424417Y-27944760D01*
X206421487Y-27944550D01*
X206418845Y-27945840D01*
X206386839Y-27942072D01*
X206354725Y-27939775D01*
X206352373Y-27938014D01*
X206349455Y-27937671D01*
X206324572Y-27917202D01*
X206298792Y-27897903D01*
X206297077Y-27894585D01*
X206295496Y-27893284D01*
X206280017Y-27861565D01*
X206272788Y-27839093D01*
X206218453Y-27670179D01*
X206214023Y-27651605D01*
X206213553Y-27648632D01*
X206140568Y-27424008D01*
X206033343Y-27213567D01*
X205894517Y-27022490D01*
X205727510Y-26855483D01*
X205536433Y-26716657D01*
X205325996Y-26609433D01*
X205101368Y-26536446D01*
X204868097Y-26499500D01*
X204868092Y-26499500D01*
X204631908Y-26499500D01*
X204631903Y-26499500D01*
X204398631Y-26536446D01*
X204174003Y-26609433D01*
X203963566Y-26716657D01*
X203854550Y-26795862D01*
X203772490Y-26855483D01*
X203772488Y-26855485D01*
X203772487Y-26855485D01*
X203605485Y-27022487D01*
X203605485Y-27022488D01*
X203605483Y-27022490D01*
X203545862Y-27104550D01*
X203466657Y-27213566D01*
X203359433Y-27424003D01*
X203286446Y-27648631D01*
X203249500Y-27881902D01*
X203249500Y-28118097D01*
X203286446Y-28351368D01*
X203359433Y-28575996D01*
X203437013Y-28728254D01*
X203466657Y-28786433D01*
X203605483Y-28977510D01*
X203772490Y-29144517D01*
X203963567Y-29283343D01*
X204174008Y-29390568D01*
X204257109Y-29417569D01*
X204314785Y-29457007D01*
X204341983Y-29521365D01*
X204330068Y-29590212D01*
X204282824Y-29641687D01*
X204218791Y-29659500D01*
X204059298Y-29659500D01*
X204022436Y-29662401D01*
X204022427Y-29662403D01*
X203935580Y-29687633D01*
X203925206Y-29690168D01*
X203895588Y-29696066D01*
X203895582Y-29696067D01*
X203594267Y-29802429D01*
X203552992Y-29809500D01*
X202695071Y-29809500D01*
X202635361Y-29791967D01*
X202634553Y-29793479D01*
X202629181Y-29790607D01*
X202629179Y-29790606D01*
X202629176Y-29790605D01*
X202629171Y-29790602D01*
X202483501Y-29730264D01*
X202483489Y-29730261D01*
X202328845Y-29699500D01*
X202328842Y-29699500D01*
X202171158Y-29699500D01*
X202171155Y-29699500D01*
X202016510Y-29730261D01*
X202016498Y-29730264D01*
X201870827Y-29790602D01*
X201870814Y-29790609D01*
X201739711Y-29878210D01*
X201739707Y-29878213D01*
X201628213Y-29989707D01*
X201628206Y-29989716D01*
X201612047Y-30013899D01*
X201558434Y-30058703D01*
X201489109Y-30067409D01*
X201426082Y-30037252D01*
X201402218Y-30008131D01*
X201343081Y-29908135D01*
X201343076Y-29908129D01*
X201226870Y-29791923D01*
X201226862Y-29791917D01*
X201122610Y-29730263D01*
X201085398Y-29708256D01*
X201085397Y-29708255D01*
X201085396Y-29708255D01*
X201085393Y-29708253D01*
X201034779Y-29693549D01*
X201014424Y-29680550D01*
X200992067Y-29671424D01*
X200985511Y-29662085D01*
X200975893Y-29655943D01*
X200965797Y-29634002D01*
X200951923Y-29614238D01*
X200951456Y-29602836D01*
X200946687Y-29592470D01*
X200950055Y-29568557D01*
X200949069Y-29544427D01*
X200955736Y-29528229D01*
X200956433Y-29523284D01*
X200962407Y-29511750D01*
X200962511Y-29511571D01*
X201060932Y-29345962D01*
X201077773Y-29315248D01*
X201077961Y-29314684D01*
X201080696Y-29310022D01*
X201080800Y-29309923D01*
X201082131Y-29307638D01*
X201085908Y-29301516D01*
X201140174Y-29137753D01*
X201150500Y-29036677D01*
X201150499Y-28463324D01*
X201149083Y-28449465D01*
X201140174Y-28362247D01*
X201128677Y-28327552D01*
X201085908Y-28198484D01*
X200995340Y-28051650D01*
X200873350Y-27929660D01*
X200726516Y-27839092D01*
X200562753Y-27784826D01*
X200562751Y-27784825D01*
X200461678Y-27774500D01*
X199863330Y-27774500D01*
X199863312Y-27774501D01*
X199762247Y-27784825D01*
X199598484Y-27839092D01*
X199598481Y-27839093D01*
X199451648Y-27929661D01*
X199337681Y-28043629D01*
X199276358Y-28077114D01*
X199206666Y-28072130D01*
X199162319Y-28043629D01*
X199048351Y-27929661D01*
X199048350Y-27929660D01*
X198901516Y-27839092D01*
X198737753Y-27784826D01*
X198737751Y-27784825D01*
X198636678Y-27774500D01*
X198038330Y-27774500D01*
X198038312Y-27774501D01*
X197937247Y-27784825D01*
X197773484Y-27839092D01*
X197773481Y-27839093D01*
X197626648Y-27929661D01*
X197504661Y-28051648D01*
X197414093Y-28198481D01*
X197414091Y-28198486D01*
X197401464Y-28236592D01*
X197359826Y-28362247D01*
X197359826Y-28362248D01*
X197359825Y-28362248D01*
X197349500Y-28463315D01*
X197349500Y-28983196D01*
X197349188Y-28991989D01*
X197346369Y-29031644D01*
X197346369Y-29031648D01*
X197362340Y-29253679D01*
X197358276Y-29272393D01*
X197359234Y-29291523D01*
X197347976Y-29319836D01*
X197347516Y-29321958D01*
X197346194Y-29324320D01*
X197238899Y-29511186D01*
X197188447Y-29559522D01*
X197119872Y-29572908D01*
X197081969Y-29563179D01*
X196300123Y-29223622D01*
X196290814Y-29218779D01*
X196290770Y-29218867D01*
X196075996Y-29109433D01*
X195851368Y-29036446D01*
X195618097Y-28999500D01*
X195618092Y-28999500D01*
X195381908Y-28999500D01*
X195381903Y-28999500D01*
X195148631Y-29036446D01*
X194924003Y-29109433D01*
X194713566Y-29216657D01*
X194621783Y-29283342D01*
X194522490Y-29355483D01*
X194522488Y-29355485D01*
X194522487Y-29355485D01*
X194355485Y-29522487D01*
X194355485Y-29522488D01*
X194355483Y-29522490D01*
X194312793Y-29581248D01*
X194216657Y-29713566D01*
X194109433Y-29924003D01*
X194036446Y-30148631D01*
X194021973Y-30240015D01*
X193992044Y-30303150D01*
X193932732Y-30340081D01*
X193862870Y-30339083D01*
X193804637Y-30300473D01*
X193776523Y-30236509D01*
X193775500Y-30220617D01*
X193775500Y-28278246D01*
X193775670Y-28271756D01*
X193792687Y-27947047D01*
X193794044Y-27934139D01*
X193794753Y-27929661D01*
X193844401Y-27616201D01*
X193847094Y-27603525D01*
X193930416Y-27292564D01*
X193934425Y-27280229D01*
X193960014Y-27213567D01*
X194049784Y-26979707D01*
X194055054Y-26967868D01*
X194201214Y-26681014D01*
X194207680Y-26669815D01*
X194383015Y-26399823D01*
X194390630Y-26389342D01*
X194593229Y-26139153D01*
X194601896Y-26129528D01*
X194829528Y-25901896D01*
X194839153Y-25893229D01*
X195089342Y-25690630D01*
X195099823Y-25683015D01*
X195369815Y-25507680D01*
X195381014Y-25501214D01*
X195667868Y-25355054D01*
X195679707Y-25349784D01*
X195980236Y-25234422D01*
X195992564Y-25230416D01*
X196303525Y-25147094D01*
X196316201Y-25144401D01*
X196634141Y-25094043D01*
X196647045Y-25092687D01*
X196971756Y-25075669D01*
X196978246Y-25075500D01*
X197022595Y-25075500D01*
X229444154Y-25075500D01*
X229511193Y-25095185D01*
G37*
%TD.AperFunction*%
%TA.AperFunction,Conductor*%
G36*
X226124852Y-39582707D02*
G01*
X226147552Y-39581083D01*
X226158821Y-39587235D01*
X226171551Y-39588933D01*
X226201436Y-39607709D01*
X226212093Y-39616754D01*
X226221904Y-39629859D01*
X226269638Y-39665592D01*
X226272528Y-39668045D01*
X226289716Y-39694197D01*
X226308473Y-39719253D01*
X226308752Y-39723159D01*
X226310904Y-39726433D01*
X226315694Y-39750432D01*
X226316030Y-39753847D01*
X226346791Y-39908489D01*
X226346794Y-39908501D01*
X226407132Y-40054172D01*
X226407139Y-40054185D01*
X226494740Y-40185288D01*
X226494743Y-40185292D01*
X226606237Y-40296786D01*
X226606241Y-40296789D01*
X226737344Y-40384390D01*
X226737357Y-40384397D01*
X226883028Y-40444735D01*
X226883033Y-40444737D01*
X227037683Y-40475499D01*
X227037686Y-40475500D01*
X227037688Y-40475500D01*
X227195374Y-40475500D01*
X227195375Y-40475499D01*
X227350027Y-40444737D01*
X227495709Y-40384394D01*
X227626819Y-40296789D01*
X227738319Y-40185289D01*
X227765251Y-40144981D01*
X227818862Y-40100178D01*
X227888187Y-40091469D01*
X227951215Y-40121624D01*
X227971455Y-40144982D01*
X227998387Y-40185288D01*
X227998390Y-40185292D01*
X228109884Y-40296786D01*
X228109888Y-40296789D01*
X228240991Y-40384390D01*
X228241004Y-40384397D01*
X228386675Y-40444735D01*
X228386680Y-40444737D01*
X228541330Y-40475499D01*
X228541333Y-40475500D01*
X228541335Y-40475500D01*
X228699021Y-40475500D01*
X228699022Y-40475499D01*
X228853674Y-40444737D01*
X228999356Y-40384394D01*
X229130466Y-40296789D01*
X229241966Y-40185289D01*
X229298286Y-40101001D01*
X229322398Y-40064915D01*
X229376010Y-40020110D01*
X229445335Y-40011403D01*
X229508363Y-40041558D01*
X229545082Y-40101001D01*
X229549500Y-40133806D01*
X229549500Y-40520641D01*
X229529815Y-40587680D01*
X229513181Y-40608322D01*
X228895459Y-41226043D01*
X228869649Y-41245824D01*
X228455129Y-41484483D01*
X228440769Y-41493069D01*
X228440187Y-41493430D01*
X228440161Y-41493447D01*
X228383880Y-41533979D01*
X228382552Y-41535168D01*
X228368772Y-41545851D01*
X228352943Y-41556428D01*
X228352939Y-41556432D01*
X228241448Y-41667922D01*
X228241445Y-41667926D01*
X228153844Y-41799029D01*
X228153837Y-41799042D01*
X228093499Y-41944713D01*
X228093496Y-41944725D01*
X228062735Y-42099368D01*
X228062735Y-42257061D01*
X228093496Y-42411704D01*
X228093499Y-42411716D01*
X228153837Y-42557387D01*
X228153844Y-42557400D01*
X228241445Y-42688503D01*
X228241448Y-42688507D01*
X228352942Y-42800001D01*
X228352946Y-42800004D01*
X228484049Y-42887605D01*
X228484062Y-42887612D01*
X228629733Y-42947950D01*
X228629738Y-42947952D01*
X228769281Y-42975709D01*
X228784388Y-42978714D01*
X228784391Y-42978715D01*
X228784393Y-42978715D01*
X228942079Y-42978715D01*
X228942080Y-42978714D01*
X229096732Y-42947952D01*
X229209401Y-42901282D01*
X229242407Y-42887612D01*
X229242407Y-42887611D01*
X229242414Y-42887609D01*
X229356609Y-42811305D01*
X229423286Y-42790428D01*
X229490666Y-42808912D01*
X229537357Y-42860891D01*
X229549500Y-42914408D01*
X229549500Y-48581557D01*
X229548638Y-48586465D01*
X229549264Y-48589211D01*
X229542094Y-48623769D01*
X229530346Y-48656218D01*
X229489015Y-48712553D01*
X229423789Y-48737599D01*
X229370420Y-48730188D01*
X229354435Y-48724226D01*
X229354433Y-48724225D01*
X229294833Y-48717818D01*
X229294831Y-48717817D01*
X229294823Y-48717817D01*
X229294814Y-48717817D01*
X228174079Y-48717817D01*
X228174073Y-48717818D01*
X228114466Y-48724225D01*
X227979616Y-48774521D01*
X227972625Y-48778339D01*
X227904352Y-48793190D01*
X227853775Y-48778339D01*
X227846783Y-48774521D01*
X227711932Y-48724225D01*
X227711933Y-48724225D01*
X227652333Y-48717818D01*
X227652331Y-48717817D01*
X227652323Y-48717817D01*
X227652314Y-48717817D01*
X226531579Y-48717817D01*
X226531573Y-48717818D01*
X226471966Y-48724225D01*
X226337121Y-48774519D01*
X226337114Y-48774523D01*
X226221906Y-48860769D01*
X226221905Y-48860770D01*
X226221904Y-48860771D01*
X226220463Y-48862694D01*
X226218540Y-48864134D01*
X226215633Y-48867042D01*
X226215214Y-48866623D01*
X226164530Y-48904563D01*
X226094838Y-48909545D01*
X226033516Y-48876058D01*
X226021939Y-48862698D01*
X226020496Y-48860771D01*
X225971700Y-48824242D01*
X225905285Y-48774523D01*
X225905278Y-48774519D01*
X225770432Y-48724225D01*
X225770433Y-48724225D01*
X225710833Y-48717818D01*
X225710831Y-48717817D01*
X225710823Y-48717817D01*
X225710814Y-48717817D01*
X224590079Y-48717817D01*
X224590073Y-48717818D01*
X224530466Y-48724225D01*
X224395616Y-48774521D01*
X224388625Y-48778339D01*
X224320352Y-48793190D01*
X224269775Y-48778339D01*
X224262783Y-48774521D01*
X224127932Y-48724225D01*
X224127933Y-48724225D01*
X224068333Y-48717818D01*
X224068331Y-48717817D01*
X224068323Y-48717817D01*
X224068314Y-48717817D01*
X222947579Y-48717817D01*
X222947573Y-48717818D01*
X222887966Y-48724225D01*
X222753116Y-48774521D01*
X222746125Y-48778339D01*
X222677852Y-48793190D01*
X222627275Y-48778339D01*
X222620283Y-48774521D01*
X222485432Y-48724225D01*
X222485433Y-48724225D01*
X222425833Y-48717818D01*
X222425831Y-48717817D01*
X222425823Y-48717817D01*
X222425814Y-48717817D01*
X221305079Y-48717817D01*
X221305073Y-48717818D01*
X221245466Y-48724225D01*
X221110616Y-48774521D01*
X221103625Y-48778339D01*
X221035352Y-48793190D01*
X220984775Y-48778339D01*
X220977783Y-48774521D01*
X220842932Y-48724225D01*
X220842933Y-48724225D01*
X220783333Y-48717818D01*
X220783331Y-48717817D01*
X220783323Y-48717817D01*
X220783314Y-48717817D01*
X219662579Y-48717817D01*
X219662573Y-48717818D01*
X219602966Y-48724225D01*
X219468116Y-48774521D01*
X219461125Y-48778339D01*
X219392852Y-48793190D01*
X219342275Y-48778339D01*
X219335283Y-48774521D01*
X219200432Y-48724225D01*
X219200433Y-48724225D01*
X219140833Y-48717818D01*
X219140831Y-48717817D01*
X219140823Y-48717817D01*
X219140814Y-48717817D01*
X218020079Y-48717817D01*
X218020073Y-48717818D01*
X217960466Y-48724225D01*
X217825621Y-48774519D01*
X217825614Y-48774523D01*
X217739261Y-48839168D01*
X217673797Y-48863586D01*
X217605524Y-48848735D01*
X217590639Y-48839168D01*
X217504285Y-48774523D01*
X217504278Y-48774519D01*
X217369432Y-48724225D01*
X217369433Y-48724225D01*
X217309833Y-48717818D01*
X217309831Y-48717817D01*
X217309823Y-48717817D01*
X217309814Y-48717817D01*
X216189079Y-48717817D01*
X216189073Y-48717818D01*
X216129466Y-48724225D01*
X215994616Y-48774521D01*
X215987625Y-48778339D01*
X215919352Y-48793190D01*
X215868775Y-48778339D01*
X215861783Y-48774521D01*
X215726932Y-48724225D01*
X215726933Y-48724225D01*
X215667333Y-48717818D01*
X215667331Y-48717817D01*
X215667323Y-48717817D01*
X215667314Y-48717817D01*
X214546579Y-48717817D01*
X214546573Y-48717818D01*
X214486966Y-48724225D01*
X214352116Y-48774521D01*
X214345125Y-48778339D01*
X214276852Y-48793190D01*
X214226275Y-48778339D01*
X214219283Y-48774521D01*
X214084432Y-48724225D01*
X214084433Y-48724225D01*
X214024833Y-48717818D01*
X214024831Y-48717817D01*
X214024823Y-48717817D01*
X214024814Y-48717817D01*
X212904079Y-48717817D01*
X212904073Y-48717818D01*
X212844466Y-48724225D01*
X212709616Y-48774521D01*
X212702625Y-48778339D01*
X212634352Y-48793190D01*
X212583775Y-48778339D01*
X212576783Y-48774521D01*
X212441932Y-48724225D01*
X212441933Y-48724225D01*
X212382333Y-48717818D01*
X212382331Y-48717817D01*
X212382323Y-48717817D01*
X212382315Y-48717817D01*
X211732950Y-48717817D01*
X211665911Y-48698132D01*
X211620156Y-48645328D01*
X211608950Y-48593817D01*
X211608950Y-47389138D01*
X211628635Y-47322099D01*
X211681439Y-47276344D01*
X211750597Y-47266400D01*
X211760516Y-47268605D01*
X211760528Y-47268549D01*
X211921153Y-47300499D01*
X211921156Y-47300500D01*
X211921158Y-47300500D01*
X212078846Y-47300500D01*
X212117569Y-47292796D01*
X212137397Y-47290489D01*
X212159324Y-47289717D01*
X212638655Y-47203459D01*
X212660616Y-47201500D01*
X214712388Y-47201500D01*
X214712404Y-47201501D01*
X214720000Y-47201501D01*
X214878111Y-47201501D01*
X214878114Y-47201501D01*
X215030842Y-47160577D01*
X215098024Y-47121789D01*
X215167773Y-47081520D01*
X215266969Y-46982323D01*
X215271903Y-46978310D01*
X215298491Y-46967151D01*
X215323797Y-46953334D01*
X215334042Y-46952232D01*
X215336329Y-46951273D01*
X215338848Y-46951715D01*
X215350155Y-46950500D01*
X217123216Y-46950500D01*
X217190255Y-46970185D01*
X217198771Y-46976177D01*
X217296343Y-47051155D01*
X217415435Y-47142670D01*
X217425530Y-47150176D01*
X217428300Y-47152236D01*
X217428865Y-47152642D01*
X217428878Y-47152651D01*
X217488520Y-47189556D01*
X217488524Y-47189557D01*
X217488525Y-47189558D01*
X217489930Y-47190234D01*
X217505101Y-47198891D01*
X217515716Y-47205983D01*
X217520821Y-47209394D01*
X217666503Y-47269737D01*
X217782428Y-47292796D01*
X217821153Y-47300499D01*
X217821156Y-47300500D01*
X217821158Y-47300500D01*
X217978844Y-47300500D01*
X217978845Y-47300499D01*
X218133497Y-47269737D01*
X218279179Y-47209394D01*
X218410289Y-47121789D01*
X218521789Y-47010289D01*
X218609394Y-46879179D01*
X218669737Y-46733497D01*
X218700500Y-46578842D01*
X218700500Y-46578835D01*
X218701097Y-46572782D01*
X218702799Y-46572949D01*
X218708990Y-46551863D01*
X218715128Y-46522353D01*
X218718734Y-46518679D01*
X218720185Y-46513741D01*
X218742957Y-46494008D01*
X218764078Y-46472497D01*
X218769099Y-46471356D01*
X218772989Y-46467986D01*
X218802818Y-46463696D01*
X218832212Y-46457020D01*
X218839178Y-46458468D01*
X218842147Y-46458042D01*
X218866763Y-46464204D01*
X218989877Y-46508843D01*
X218995057Y-46510854D01*
X219016503Y-46519737D01*
X219023046Y-46521038D01*
X219036786Y-46524600D01*
X219041881Y-46526238D01*
X219043549Y-46526707D01*
X219133720Y-46543419D01*
X219133724Y-46543418D01*
X219140243Y-46544627D01*
X219144374Y-46545172D01*
X219171158Y-46550500D01*
X219171162Y-46550500D01*
X219328841Y-46550500D01*
X219328842Y-46550500D01*
X219328842Y-46550499D01*
X219329806Y-46550405D01*
X219330307Y-46550500D01*
X219334934Y-46550500D01*
X219334934Y-46551377D01*
X219398452Y-46563424D01*
X219449162Y-46611489D01*
X219463577Y-46649616D01*
X219480261Y-46733491D01*
X219480264Y-46733501D01*
X219540602Y-46879172D01*
X219540609Y-46879185D01*
X219628210Y-47010288D01*
X219628213Y-47010292D01*
X219739707Y-47121786D01*
X219739711Y-47121789D01*
X219870814Y-47209390D01*
X219870827Y-47209397D01*
X220013635Y-47268549D01*
X220016503Y-47269737D01*
X220132428Y-47292796D01*
X220171153Y-47300499D01*
X220171156Y-47300500D01*
X220171158Y-47300500D01*
X220328846Y-47300500D01*
X220367569Y-47292796D01*
X220387397Y-47290489D01*
X220409324Y-47289717D01*
X220888655Y-47203459D01*
X220910616Y-47201500D01*
X222563274Y-47201500D01*
X222563290Y-47201501D01*
X222570886Y-47201501D01*
X222728997Y-47201501D01*
X222729000Y-47201501D01*
X222881728Y-47160577D01*
X222948910Y-47121789D01*
X223018659Y-47081520D01*
X223117855Y-46982323D01*
X223122789Y-46978310D01*
X223149377Y-46967151D01*
X223174683Y-46953334D01*
X223184928Y-46952232D01*
X223187215Y-46951273D01*
X223189734Y-46951715D01*
X223201041Y-46950500D01*
X225281375Y-46950500D01*
X225323642Y-46957926D01*
X225377658Y-46977511D01*
X225634977Y-47070809D01*
X225739877Y-47108843D01*
X225745057Y-47110854D01*
X225766503Y-47119737D01*
X225773046Y-47121038D01*
X225786786Y-47124600D01*
X225791881Y-47126238D01*
X225793549Y-47126707D01*
X225883720Y-47143419D01*
X225883724Y-47143418D01*
X225890243Y-47144627D01*
X225894374Y-47145172D01*
X225921158Y-47150500D01*
X225921162Y-47150500D01*
X226078844Y-47150500D01*
X226078845Y-47150499D01*
X226233497Y-47119737D01*
X226379179Y-47059394D01*
X226510289Y-46971789D01*
X226621789Y-46860289D01*
X226709394Y-46729179D01*
X226769737Y-46583497D01*
X226776301Y-46550499D01*
X226796231Y-46450308D01*
X226828616Y-46388397D01*
X226889332Y-46353823D01*
X226917848Y-46350500D01*
X227281375Y-46350500D01*
X227323642Y-46357926D01*
X227738139Y-46508213D01*
X227742494Y-46509792D01*
X227766503Y-46519737D01*
X227780018Y-46522425D01*
X227791881Y-46526238D01*
X227793549Y-46526707D01*
X227883720Y-46543419D01*
X227883724Y-46543418D01*
X227890243Y-46544627D01*
X227894374Y-46545172D01*
X227921158Y-46550500D01*
X227921162Y-46550500D01*
X228078844Y-46550500D01*
X228078845Y-46550499D01*
X228233497Y-46519737D01*
X228379179Y-46459394D01*
X228510289Y-46371789D01*
X228621789Y-46260289D01*
X228709394Y-46129179D01*
X228769737Y-45983497D01*
X228800500Y-45828842D01*
X228800500Y-45671158D01*
X228800500Y-45671155D01*
X228800499Y-45671153D01*
X228769738Y-45516510D01*
X228769737Y-45516503D01*
X228769735Y-45516498D01*
X228709397Y-45370827D01*
X228709390Y-45370814D01*
X228621789Y-45239711D01*
X228621786Y-45239707D01*
X228510292Y-45128213D01*
X228510288Y-45128210D01*
X228379185Y-45040609D01*
X228379175Y-45040604D01*
X228302159Y-45008703D01*
X228247756Y-44964862D01*
X228225691Y-44898568D01*
X228235050Y-44846692D01*
X228269737Y-44762951D01*
X228300500Y-44608296D01*
X228300500Y-44450612D01*
X228300500Y-44450609D01*
X228300499Y-44450607D01*
X228274684Y-44320827D01*
X228269737Y-44295957D01*
X228241914Y-44228785D01*
X228209397Y-44150281D01*
X228209389Y-44150267D01*
X228166878Y-44086646D01*
X228145999Y-44019969D01*
X228154095Y-43977293D01*
X228153272Y-43977044D01*
X228155036Y-43971223D01*
X228155041Y-43971213D01*
X228185804Y-43816558D01*
X228185804Y-43658874D01*
X228185804Y-43658871D01*
X228185803Y-43658869D01*
X228171690Y-43587921D01*
X228155041Y-43504219D01*
X228110423Y-43396500D01*
X228094701Y-43358543D01*
X228094694Y-43358530D01*
X228007093Y-43227427D01*
X228007090Y-43227423D01*
X227895596Y-43115929D01*
X227895592Y-43115926D01*
X227764489Y-43028325D01*
X227764476Y-43028318D01*
X227618805Y-42967980D01*
X227618793Y-42967977D01*
X227464149Y-42937216D01*
X227464146Y-42937216D01*
X227383301Y-42937216D01*
X227316262Y-42917531D01*
X227288527Y-42890273D01*
X227287136Y-42891415D01*
X227283271Y-42886705D01*
X227171779Y-42775213D01*
X227171775Y-42775210D01*
X227040672Y-42687609D01*
X227040659Y-42687602D01*
X226894988Y-42627264D01*
X226894976Y-42627261D01*
X226740332Y-42596500D01*
X226740329Y-42596500D01*
X226582645Y-42596500D01*
X226582642Y-42596500D01*
X226427997Y-42627261D01*
X226427985Y-42627264D01*
X226282314Y-42687602D01*
X226282301Y-42687609D01*
X226151198Y-42775210D01*
X226151194Y-42775213D01*
X226039700Y-42886707D01*
X226039697Y-42886711D01*
X225952096Y-43017814D01*
X225952089Y-43017827D01*
X225891751Y-43163498D01*
X225891748Y-43163508D01*
X225865256Y-43296692D01*
X225832871Y-43358603D01*
X225772155Y-43393177D01*
X225743639Y-43396500D01*
X219932776Y-43396500D01*
X219865737Y-43376815D01*
X219860000Y-43372897D01*
X219852043Y-43367129D01*
X219802395Y-43317481D01*
X219715381Y-43267244D01*
X219665464Y-43238424D01*
X219665461Y-43238423D01*
X219665458Y-43238421D01*
X219602912Y-43221662D01*
X219567600Y-43205966D01*
X219451128Y-43130531D01*
X219451115Y-43130523D01*
X219408142Y-43105599D01*
X219405901Y-43104572D01*
X219388667Y-43094946D01*
X219379187Y-43088612D01*
X219379183Y-43088610D01*
X219379179Y-43088607D01*
X219379175Y-43088605D01*
X219379171Y-43088603D01*
X219233501Y-43028265D01*
X219233489Y-43028262D01*
X219078845Y-42997501D01*
X219078842Y-42997501D01*
X218921158Y-42997501D01*
X218921156Y-42997501D01*
X218766504Y-43028263D01*
X218766499Y-43028265D01*
X218745058Y-43037145D01*
X218739879Y-43039155D01*
X218595395Y-43091542D01*
X218525661Y-43095888D01*
X218464647Y-43061842D01*
X218433354Y-43007061D01*
X218422410Y-42966216D01*
X218343352Y-42829285D01*
X218231549Y-42717482D01*
X218151129Y-42671051D01*
X218094619Y-42638424D01*
X218017674Y-42617807D01*
X217941890Y-42597501D01*
X217783775Y-42597501D01*
X217631048Y-42638424D01*
X217631047Y-42638424D01*
X217600673Y-42655961D01*
X217578594Y-42665971D01*
X217318824Y-42754302D01*
X217315304Y-42755578D01*
X217297271Y-42760609D01*
X217296930Y-42760676D01*
X217296914Y-42760681D01*
X217151244Y-42821019D01*
X217151231Y-42821026D01*
X217020128Y-42908627D01*
X217020124Y-42908630D01*
X216908630Y-43020124D01*
X216908624Y-43020132D01*
X216896731Y-43037930D01*
X216843117Y-43082733D01*
X216773792Y-43091437D01*
X216710766Y-43061280D01*
X216705951Y-43056716D01*
X216440292Y-42791057D01*
X216440290Y-42791054D01*
X216321419Y-42672183D01*
X216321418Y-42672182D01*
X216234359Y-42621919D01*
X216184487Y-42593125D01*
X216031759Y-42552201D01*
X215873645Y-42552201D01*
X215866049Y-42552201D01*
X215866033Y-42552202D01*
X214225466Y-42552202D01*
X214183199Y-42544776D01*
X213768331Y-42394354D01*
X213768297Y-42394342D01*
X213764357Y-42392914D01*
X213740338Y-42382965D01*
X213726832Y-42380278D01*
X213715019Y-42376481D01*
X213713361Y-42376014D01*
X213616634Y-42358079D01*
X213612439Y-42357524D01*
X213608133Y-42356667D01*
X213585683Y-42352202D01*
X213427999Y-42352202D01*
X213427997Y-42352202D01*
X213273345Y-42382964D01*
X213273340Y-42382966D01*
X213251899Y-42391846D01*
X213246720Y-42393856D01*
X212850864Y-42537385D01*
X212781130Y-42541731D01*
X212720116Y-42507685D01*
X212687194Y-42446058D01*
X212692817Y-42376415D01*
X212701132Y-42358946D01*
X212883121Y-42042850D01*
X212902895Y-42017049D01*
X213969726Y-40950220D01*
X214011532Y-40887652D01*
X214040914Y-40843679D01*
X214044164Y-40835833D01*
X214089951Y-40725294D01*
X214106020Y-40644514D01*
X214114950Y-40599621D01*
X214114950Y-40001151D01*
X214116588Y-39981065D01*
X214118543Y-39969155D01*
X214139667Y-39917639D01*
X214168240Y-39877242D01*
X214223022Y-39833880D01*
X214292554Y-39827017D01*
X214354758Y-39858835D01*
X214372576Y-39879959D01*
X214409546Y-39935288D01*
X214409549Y-39935292D01*
X214521043Y-40046786D01*
X214521047Y-40046789D01*
X214652150Y-40134390D01*
X214652163Y-40134397D01*
X214782465Y-40188369D01*
X214797839Y-40194737D01*
X214907867Y-40216623D01*
X214952489Y-40225499D01*
X214952492Y-40225500D01*
X214952494Y-40225500D01*
X215110180Y-40225500D01*
X215110181Y-40225499D01*
X215264833Y-40194737D01*
X215410515Y-40134394D01*
X215541625Y-40046789D01*
X215653125Y-39935289D01*
X215740730Y-39804179D01*
X215741100Y-39803286D01*
X215741418Y-39802890D01*
X215743603Y-39798804D01*
X215744377Y-39799218D01*
X215761689Y-39777734D01*
X215781354Y-39751466D01*
X215784036Y-39750001D01*
X215784939Y-39748881D01*
X215812329Y-39734552D01*
X215848401Y-39721098D01*
X215918092Y-39716115D01*
X215979415Y-39749601D01*
X216006293Y-39789826D01*
X216012236Y-39804173D01*
X216012242Y-39804185D01*
X216099843Y-39935288D01*
X216099846Y-39935292D01*
X216211340Y-40046786D01*
X216211344Y-40046789D01*
X216342447Y-40134390D01*
X216342460Y-40134397D01*
X216472762Y-40188369D01*
X216488136Y-40194737D01*
X216598164Y-40216623D01*
X216642786Y-40225499D01*
X216642789Y-40225500D01*
X216642791Y-40225500D01*
X216800477Y-40225500D01*
X216800478Y-40225499D01*
X216955130Y-40194737D01*
X217100812Y-40134394D01*
X217231922Y-40046789D01*
X217343422Y-39935289D01*
X217431027Y-39804179D01*
X217440131Y-39782197D01*
X217482517Y-39728820D01*
X217495916Y-39719228D01*
X217504281Y-39716109D01*
X217591718Y-39650653D01*
X217592775Y-39649897D01*
X217624589Y-39638798D01*
X217656103Y-39627044D01*
X217657446Y-39627336D01*
X217658746Y-39626883D01*
X217691479Y-39634739D01*
X217724376Y-39641895D01*
X217726212Y-39643075D01*
X217726686Y-39643189D01*
X217727161Y-39643684D01*
X217739256Y-39651457D01*
X217784122Y-39685044D01*
X217825992Y-39740976D01*
X217831428Y-39760119D01*
X217835290Y-39779539D01*
X217835293Y-39779548D01*
X217895632Y-39925222D01*
X217895639Y-39925235D01*
X217983240Y-40056338D01*
X217983243Y-40056342D01*
X218094737Y-40167836D01*
X218094741Y-40167839D01*
X218225844Y-40255440D01*
X218225857Y-40255447D01*
X218360572Y-40311247D01*
X218371533Y-40315787D01*
X218526183Y-40346549D01*
X218526186Y-40346550D01*
X218526188Y-40346550D01*
X218683874Y-40346550D01*
X218683875Y-40346549D01*
X218838527Y-40315787D01*
X218984209Y-40255444D01*
X219115319Y-40167839D01*
X219226819Y-40056339D01*
X219253751Y-40016031D01*
X219307362Y-39971228D01*
X219376687Y-39962519D01*
X219439715Y-39992674D01*
X219459955Y-40016032D01*
X219486887Y-40056338D01*
X219486890Y-40056342D01*
X219598384Y-40167836D01*
X219598388Y-40167839D01*
X219729491Y-40255440D01*
X219729504Y-40255447D01*
X219864219Y-40311247D01*
X219875180Y-40315787D01*
X220029830Y-40346549D01*
X220029833Y-40346550D01*
X220029835Y-40346550D01*
X220187521Y-40346550D01*
X220187522Y-40346549D01*
X220342174Y-40315787D01*
X220487856Y-40255444D01*
X220618966Y-40167839D01*
X220730466Y-40056339D01*
X220818071Y-39925229D01*
X220818072Y-39925226D01*
X220818074Y-39925223D01*
X220855909Y-39833880D01*
X220870680Y-39798217D01*
X220891265Y-39772671D01*
X220910930Y-39746403D01*
X220913615Y-39744936D01*
X220914520Y-39743814D01*
X220941907Y-39729489D01*
X220943647Y-39728840D01*
X221013338Y-39723855D01*
X221074662Y-39757339D01*
X221088216Y-39773415D01*
X221192185Y-39920404D01*
X221214828Y-39986503D01*
X221214950Y-39992010D01*
X221214950Y-40214741D01*
X221195265Y-40281780D01*
X221178631Y-40302422D01*
X220383959Y-41097093D01*
X220358149Y-41116874D01*
X219943629Y-41355533D01*
X219929269Y-41364119D01*
X219928687Y-41364480D01*
X219928661Y-41364497D01*
X219872380Y-41405029D01*
X219871052Y-41406218D01*
X219857272Y-41416901D01*
X219841443Y-41427478D01*
X219841439Y-41427482D01*
X219729948Y-41538972D01*
X219729945Y-41538976D01*
X219642344Y-41670079D01*
X219642337Y-41670092D01*
X219581999Y-41815763D01*
X219581996Y-41815775D01*
X219551235Y-41970418D01*
X219551235Y-42128111D01*
X219581996Y-42282754D01*
X219581999Y-42282766D01*
X219642337Y-42428437D01*
X219642344Y-42428450D01*
X219729945Y-42559553D01*
X219729948Y-42559557D01*
X219841442Y-42671051D01*
X219841446Y-42671054D01*
X219972549Y-42758655D01*
X219972562Y-42758662D01*
X220093878Y-42808912D01*
X220118238Y-42819002D01*
X220272888Y-42849764D01*
X220272891Y-42849765D01*
X220272893Y-42849765D01*
X220430579Y-42849765D01*
X220430580Y-42849764D01*
X220585232Y-42819002D01*
X220697901Y-42772332D01*
X220730907Y-42758662D01*
X220730907Y-42758661D01*
X220730914Y-42758659D01*
X220862024Y-42671054D01*
X220973524Y-42559554D01*
X221018145Y-42492771D01*
X221023665Y-42485154D01*
X221045475Y-42457354D01*
X221284121Y-42042850D01*
X221303895Y-42017049D01*
X222370726Y-40950220D01*
X222412532Y-40887652D01*
X222441914Y-40843679D01*
X222445164Y-40835833D01*
X222490951Y-40725294D01*
X222507020Y-40644514D01*
X222515950Y-40599621D01*
X222515950Y-39992007D01*
X222521730Y-39972322D01*
X222522641Y-39951825D01*
X222534633Y-39928378D01*
X222535635Y-39924968D01*
X222538704Y-39920415D01*
X222569239Y-39877244D01*
X222624020Y-39833881D01*
X222693552Y-39827018D01*
X222755757Y-39858835D01*
X222773575Y-39879959D01*
X222810544Y-39935286D01*
X222810549Y-39935292D01*
X222922043Y-40046786D01*
X222922047Y-40046789D01*
X223053150Y-40134390D01*
X223053163Y-40134397D01*
X223183465Y-40188369D01*
X223198839Y-40194737D01*
X223308867Y-40216623D01*
X223353489Y-40225499D01*
X223353492Y-40225500D01*
X223353494Y-40225500D01*
X223511180Y-40225500D01*
X223511181Y-40225499D01*
X223665833Y-40194737D01*
X223811515Y-40134394D01*
X223942625Y-40046789D01*
X224054125Y-39935289D01*
X224141730Y-39804179D01*
X224142100Y-39803286D01*
X224142418Y-39802890D01*
X224144603Y-39798804D01*
X224145377Y-39799218D01*
X224162689Y-39777734D01*
X224182354Y-39751466D01*
X224185036Y-39750001D01*
X224185939Y-39748881D01*
X224213329Y-39734552D01*
X224249401Y-39721098D01*
X224319092Y-39716115D01*
X224380415Y-39749601D01*
X224407293Y-39789826D01*
X224413236Y-39804173D01*
X224413242Y-39804185D01*
X224500843Y-39935288D01*
X224500846Y-39935292D01*
X224612340Y-40046786D01*
X224612344Y-40046789D01*
X224743447Y-40134390D01*
X224743460Y-40134397D01*
X224873762Y-40188369D01*
X224889136Y-40194737D01*
X224999164Y-40216623D01*
X225043786Y-40225499D01*
X225043789Y-40225500D01*
X225043791Y-40225500D01*
X225201477Y-40225500D01*
X225201478Y-40225499D01*
X225356130Y-40194737D01*
X225501812Y-40134394D01*
X225632922Y-40046789D01*
X225744422Y-39935289D01*
X225832027Y-39804179D01*
X225841131Y-39782197D01*
X225884970Y-39727796D01*
X225897872Y-39721049D01*
X225897496Y-39720360D01*
X225905276Y-39716110D01*
X225905281Y-39716109D01*
X226020496Y-39629859D01*
X226021932Y-39627940D01*
X226023850Y-39626504D01*
X226026767Y-39623588D01*
X226027186Y-39624007D01*
X226032208Y-39620247D01*
X226039039Y-39609375D01*
X226059642Y-39599709D01*
X226077861Y-39586070D01*
X226090669Y-39585153D01*
X226102294Y-39579700D01*
X226124852Y-39582707D01*
G37*
%TD.AperFunction*%
%TA.AperFunction,Conductor*%
G36*
X209112639Y-37720185D02*
G01*
X209158394Y-37772989D01*
X209168889Y-37837752D01*
X209166450Y-37860444D01*
X209166450Y-37860445D01*
X209166450Y-37860449D01*
X209166450Y-39320183D01*
X209166451Y-39320189D01*
X209172858Y-39379796D01*
X209223152Y-39514641D01*
X209223153Y-39514642D01*
X209223154Y-39514644D01*
X209309404Y-39629859D01*
X209383123Y-39685044D01*
X209424993Y-39740977D01*
X209430428Y-39760119D01*
X209434290Y-39779539D01*
X209434293Y-39779548D01*
X209494632Y-39925222D01*
X209494639Y-39925235D01*
X209582240Y-40056338D01*
X209582243Y-40056342D01*
X209693737Y-40167836D01*
X209693741Y-40167839D01*
X209824844Y-40255440D01*
X209824857Y-40255447D01*
X209959572Y-40311247D01*
X209970533Y-40315787D01*
X210125183Y-40346549D01*
X210125186Y-40346550D01*
X210125188Y-40346550D01*
X210282874Y-40346550D01*
X210282875Y-40346549D01*
X210437527Y-40315787D01*
X210583209Y-40255444D01*
X210714319Y-40167839D01*
X210825819Y-40056339D01*
X210852751Y-40016031D01*
X210906362Y-39971228D01*
X210975687Y-39962519D01*
X211038715Y-39992674D01*
X211058955Y-40016032D01*
X211085887Y-40056338D01*
X211085890Y-40056342D01*
X211197384Y-40167836D01*
X211197388Y-40167839D01*
X211328491Y-40255440D01*
X211328504Y-40255447D01*
X211463219Y-40311247D01*
X211474180Y-40315787D01*
X211628830Y-40346549D01*
X211628833Y-40346550D01*
X211628835Y-40346550D01*
X211786521Y-40346550D01*
X211786522Y-40346549D01*
X211941174Y-40315787D01*
X212086856Y-40255444D01*
X212217966Y-40167839D01*
X212329466Y-40056339D01*
X212417071Y-39925229D01*
X212417072Y-39925226D01*
X212417074Y-39925223D01*
X212454909Y-39833880D01*
X212469680Y-39798217D01*
X212490259Y-39772680D01*
X212509899Y-39746427D01*
X212512606Y-39744947D01*
X212513520Y-39743814D01*
X212540865Y-39729504D01*
X212542615Y-39728851D01*
X212612301Y-39723845D01*
X212673635Y-39757310D01*
X212687217Y-39773414D01*
X212729986Y-39833881D01*
X212747736Y-39858975D01*
X212762631Y-39887111D01*
X212806082Y-40003202D01*
X212813950Y-40046666D01*
X212813950Y-40214741D01*
X212794265Y-40281780D01*
X212777631Y-40302422D01*
X211982959Y-41097093D01*
X211957149Y-41116874D01*
X211542629Y-41355533D01*
X211528269Y-41364119D01*
X211527687Y-41364480D01*
X211527661Y-41364497D01*
X211471380Y-41405029D01*
X211470052Y-41406218D01*
X211456272Y-41416901D01*
X211440443Y-41427478D01*
X211440439Y-41427482D01*
X211328948Y-41538972D01*
X211328945Y-41538976D01*
X211241344Y-41670079D01*
X211241337Y-41670092D01*
X211180999Y-41815763D01*
X211180996Y-41815775D01*
X211150235Y-41970418D01*
X211150235Y-42128111D01*
X211180996Y-42282754D01*
X211180999Y-42282766D01*
X211221585Y-42380750D01*
X211229054Y-42450219D01*
X211197778Y-42512698D01*
X211137689Y-42548350D01*
X211107024Y-42552202D01*
X210229530Y-42552202D01*
X210200151Y-42543575D01*
X210170214Y-42537095D01*
X210166933Y-42533821D01*
X210162491Y-42532517D01*
X210142444Y-42509382D01*
X210120758Y-42487740D01*
X210118780Y-42482073D01*
X210116736Y-42479713D01*
X210108391Y-42454684D01*
X210107216Y-42449310D01*
X210107150Y-42448606D01*
X210106953Y-42447064D01*
X210088351Y-42361416D01*
X210087705Y-42360057D01*
X210085874Y-42351681D01*
X210085902Y-42351274D01*
X210085395Y-42349385D01*
X210080418Y-42324359D01*
X210080415Y-42324351D01*
X210020074Y-42178673D01*
X210020069Y-42178664D01*
X209932468Y-42047561D01*
X209932465Y-42047557D01*
X209820971Y-41936063D01*
X209820967Y-41936060D01*
X209689864Y-41848459D01*
X209689851Y-41848452D01*
X209544180Y-41788114D01*
X209544168Y-41788111D01*
X209389524Y-41757350D01*
X209389521Y-41757350D01*
X209231837Y-41757350D01*
X209231834Y-41757350D01*
X209077189Y-41788111D01*
X209077177Y-41788114D01*
X208931506Y-41848452D01*
X208931493Y-41848459D01*
X208800390Y-41936060D01*
X208800386Y-41936063D01*
X208705552Y-42030898D01*
X208644229Y-42064383D01*
X208574537Y-42059399D01*
X208530190Y-42030898D01*
X207536553Y-41037261D01*
X207503068Y-40975938D01*
X207501642Y-40968214D01*
X207401903Y-40311371D01*
X207400499Y-40292760D01*
X207400499Y-40213330D01*
X207400498Y-40213313D01*
X207390174Y-40112247D01*
X207378160Y-40075992D01*
X207335908Y-39948484D01*
X207335904Y-39948478D01*
X207335903Y-39948475D01*
X207279527Y-39857076D01*
X207261086Y-39789684D01*
X207282008Y-39723020D01*
X207335650Y-39678251D01*
X207337613Y-39677418D01*
X207359325Y-39668425D01*
X207446864Y-39632165D01*
X207558156Y-39557802D01*
X207652802Y-39463156D01*
X207727165Y-39351864D01*
X207778387Y-39228203D01*
X207804500Y-39096925D01*
X207804500Y-38963075D01*
X207804500Y-38963072D01*
X207778388Y-38831802D01*
X207778387Y-38831801D01*
X207778387Y-38831797D01*
X207778385Y-38831792D01*
X207727168Y-38708142D01*
X207727161Y-38708129D01*
X207652802Y-38596844D01*
X207652799Y-38596840D01*
X207566234Y-38510275D01*
X207532749Y-38448952D01*
X207537733Y-38379260D01*
X207566231Y-38334916D01*
X208164330Y-37736819D01*
X208225653Y-37703334D01*
X208252011Y-37700500D01*
X209045600Y-37700500D01*
X209112639Y-37720185D01*
G37*
%TD.AperFunction*%
%TA.AperFunction,Conductor*%
G36*
X193980703Y-30685669D02*
G01*
X194018477Y-30744447D01*
X194021973Y-30759984D01*
X194036446Y-30851368D01*
X194109433Y-31075996D01*
X194201422Y-31256533D01*
X194216657Y-31286433D01*
X194355483Y-31477510D01*
X194522490Y-31644517D01*
X194713567Y-31783343D01*
X194812991Y-31834002D01*
X194924003Y-31890566D01*
X194924005Y-31890566D01*
X194924008Y-31890568D01*
X195011165Y-31918887D01*
X195148631Y-31963553D01*
X195381903Y-32000500D01*
X195381908Y-32000500D01*
X195618097Y-32000500D01*
X195851368Y-31963553D01*
X196075992Y-31890568D01*
X196286433Y-31783343D01*
X196298729Y-31774408D01*
X196318886Y-31763134D01*
X196318702Y-31762765D01*
X196322647Y-31760793D01*
X196322665Y-31760786D01*
X196883605Y-31428613D01*
X196951316Y-31411393D01*
X197017591Y-31433514D01*
X197061386Y-31487955D01*
X197068795Y-31557431D01*
X197064490Y-31574313D01*
X197035319Y-31662345D01*
X197035319Y-31662346D01*
X197025000Y-31763345D01*
X197025000Y-31862500D01*
X197876000Y-31862500D01*
X197943039Y-31882185D01*
X197988794Y-31934989D01*
X198000000Y-31986500D01*
X198000000Y-32112500D01*
X198126000Y-32112500D01*
X198193039Y-32132185D01*
X198238794Y-32184989D01*
X198250000Y-32236500D01*
X198250000Y-33149999D01*
X198286640Y-33149999D01*
X198286654Y-33149998D01*
X198391211Y-33139317D01*
X198459904Y-33152087D01*
X198510788Y-33199967D01*
X198525405Y-33246489D01*
X198526263Y-33246333D01*
X198527402Y-33252573D01*
X198573254Y-33410393D01*
X198573255Y-33410396D01*
X198656917Y-33551862D01*
X198661702Y-33558031D01*
X198659369Y-33559840D01*
X198686210Y-33608995D01*
X198681226Y-33678687D01*
X198660470Y-33711021D01*
X198662097Y-33712283D01*
X198657313Y-33718449D01*
X198573718Y-33859801D01*
X198527899Y-34017513D01*
X198527704Y-34019998D01*
X198527705Y-34020000D01*
X200128902Y-34020000D01*
X200190901Y-34036613D01*
X200302782Y-34101206D01*
X200319493Y-34110854D01*
X200423065Y-34138606D01*
X200423064Y-34138606D01*
X200430387Y-34140568D01*
X200472219Y-34151777D01*
X200472220Y-34151777D01*
X200563198Y-34151777D01*
X200579100Y-34156127D01*
X200593696Y-34155586D01*
X200620135Y-34167354D01*
X200626322Y-34169047D01*
X200632034Y-34172425D01*
X200632675Y-34173066D01*
X200763785Y-34260671D01*
X200822035Y-34284798D01*
X200829595Y-34289270D01*
X200847684Y-34308644D01*
X200868327Y-34325279D01*
X200871158Y-34333787D01*
X200877277Y-34340340D01*
X200882020Y-34366419D01*
X200890392Y-34391573D01*
X200888174Y-34400260D01*
X200889779Y-34409082D01*
X200879668Y-34433586D01*
X200873113Y-34459273D01*
X200866550Y-34465383D01*
X200863131Y-34473671D01*
X200841379Y-34488818D01*
X200821976Y-34506884D01*
X200812079Y-34509222D01*
X200805795Y-34513599D01*
X200791278Y-34514137D01*
X200766471Y-34520000D01*
X200250000Y-34520000D01*
X200250000Y-35070000D01*
X200890634Y-35070000D01*
X200890649Y-35069999D01*
X200927489Y-35067100D01*
X200927495Y-35067099D01*
X201085193Y-35021283D01*
X201085196Y-35021282D01*
X201226552Y-34937685D01*
X201226561Y-34937678D01*
X201342678Y-34821561D01*
X201342685Y-34821552D01*
X201426281Y-34680198D01*
X201472100Y-34522486D01*
X201472295Y-34520001D01*
X201454724Y-34500992D01*
X201452418Y-34500315D01*
X201406663Y-34447511D01*
X201396719Y-34378353D01*
X201425744Y-34314797D01*
X201472005Y-34281439D01*
X201522136Y-34260674D01*
X201522136Y-34260673D01*
X201522143Y-34260671D01*
X201653253Y-34173066D01*
X201764753Y-34061566D01*
X201852358Y-33930456D01*
X201912701Y-33784774D01*
X201943464Y-33630119D01*
X201943464Y-33472435D01*
X201943464Y-33472432D01*
X201943463Y-33472430D01*
X201912701Y-33317780D01*
X201893666Y-33271825D01*
X201852361Y-33172104D01*
X201852354Y-33172091D01*
X201764753Y-33040988D01*
X201764750Y-33040984D01*
X201653256Y-32929490D01*
X201653252Y-32929487D01*
X201527702Y-32845597D01*
X201482897Y-32791985D01*
X201472975Y-32752221D01*
X201472598Y-32747432D01*
X201472597Y-32747426D01*
X201426745Y-32589606D01*
X201426744Y-32589603D01*
X201426744Y-32589602D01*
X201343081Y-32448135D01*
X201343078Y-32448132D01*
X201338298Y-32441969D01*
X201340750Y-32440066D01*
X201314155Y-32391421D01*
X201319104Y-32321726D01*
X201339940Y-32289304D01*
X201338298Y-32288031D01*
X201343075Y-32281870D01*
X201343081Y-32281865D01*
X201426744Y-32140398D01*
X201467389Y-32000500D01*
X201472597Y-31982573D01*
X201472598Y-31982567D01*
X201474093Y-31963567D01*
X201475500Y-31945694D01*
X201475500Y-31514306D01*
X201472598Y-31477431D01*
X201471869Y-31474922D01*
X201426745Y-31319606D01*
X201426744Y-31319603D01*
X201426744Y-31319602D01*
X201343081Y-31178135D01*
X201343078Y-31178132D01*
X201338298Y-31171969D01*
X201340750Y-31170066D01*
X201314155Y-31121421D01*
X201319104Y-31051726D01*
X201330194Y-31029220D01*
X201337666Y-31017279D01*
X201343081Y-31011865D01*
X201377912Y-30952968D01*
X201378736Y-30951652D01*
X201403748Y-30929446D01*
X201428186Y-30906628D01*
X201429776Y-30906338D01*
X201430986Y-30905265D01*
X201464036Y-30900106D01*
X201496928Y-30894124D01*
X201498422Y-30894740D01*
X201500020Y-30894491D01*
X201530613Y-30908019D01*
X201561518Y-30920769D01*
X201562930Y-30922311D01*
X201563920Y-30922749D01*
X201565436Y-30925048D01*
X201586952Y-30948541D01*
X201628210Y-31010288D01*
X201628213Y-31010292D01*
X201739707Y-31121786D01*
X201739711Y-31121789D01*
X201870814Y-31209390D01*
X201870827Y-31209397D01*
X201997546Y-31261885D01*
X202016503Y-31269737D01*
X202171153Y-31300499D01*
X202171156Y-31300500D01*
X202171158Y-31300500D01*
X202328844Y-31300500D01*
X202328845Y-31300499D01*
X202483497Y-31269737D01*
X202629179Y-31209394D01*
X202668697Y-31182989D01*
X202745909Y-31131398D01*
X202812587Y-31110520D01*
X202814800Y-31110500D01*
X203429524Y-31110500D01*
X203496563Y-31130185D01*
X203542318Y-31182989D01*
X203552262Y-31252147D01*
X203536257Y-31297617D01*
X203523734Y-31318792D01*
X203523253Y-31319607D01*
X203477402Y-31477426D01*
X203477401Y-31477432D01*
X203474500Y-31514298D01*
X203474500Y-31945701D01*
X203477401Y-31982567D01*
X203477402Y-31982573D01*
X203523254Y-32140393D01*
X203523255Y-32140396D01*
X203523256Y-32140398D01*
X203543130Y-32174003D01*
X203606917Y-32281862D01*
X203611702Y-32288031D01*
X203609256Y-32289927D01*
X203635857Y-32338642D01*
X203630873Y-32408334D01*
X203610069Y-32440703D01*
X203611702Y-32441969D01*
X203606917Y-32448137D01*
X203523255Y-32589603D01*
X203523254Y-32589606D01*
X203477402Y-32747426D01*
X203477401Y-32747432D01*
X203474500Y-32784298D01*
X203474500Y-33215701D01*
X203477401Y-33252567D01*
X203477402Y-33252573D01*
X203523254Y-33410393D01*
X203523255Y-33410396D01*
X203606917Y-33551862D01*
X203611702Y-33558031D01*
X203609256Y-33559927D01*
X203635857Y-33608642D01*
X203630873Y-33678334D01*
X203610069Y-33710703D01*
X203611702Y-33711969D01*
X203606917Y-33718137D01*
X203523255Y-33859603D01*
X203523254Y-33859606D01*
X203477402Y-34017426D01*
X203477401Y-34017432D01*
X203474500Y-34054298D01*
X203474500Y-34485701D01*
X203477401Y-34522567D01*
X203477402Y-34522573D01*
X203504433Y-34615612D01*
X203504234Y-34685482D01*
X203473038Y-34737888D01*
X200862181Y-37348746D01*
X200800858Y-37382231D01*
X200731166Y-37377247D01*
X200675233Y-37335375D01*
X200650816Y-37269911D01*
X200650500Y-37261065D01*
X200650500Y-37004935D01*
X200670185Y-36937896D01*
X200671366Y-36936090D01*
X200709394Y-36879179D01*
X200710713Y-36875996D01*
X200769735Y-36733501D01*
X200769737Y-36733497D01*
X200800500Y-36578842D01*
X200800500Y-36421158D01*
X200800500Y-36421155D01*
X200800499Y-36421153D01*
X200792158Y-36379222D01*
X200769737Y-36266503D01*
X200734697Y-36181908D01*
X200709397Y-36120827D01*
X200709390Y-36120814D01*
X200621789Y-35989711D01*
X200621786Y-35989707D01*
X200510292Y-35878213D01*
X200510288Y-35878210D01*
X200379185Y-35790609D01*
X200379172Y-35790602D01*
X200233501Y-35730264D01*
X200233489Y-35730261D01*
X200078845Y-35699500D01*
X200078842Y-35699500D01*
X199921158Y-35699500D01*
X199921155Y-35699500D01*
X199766510Y-35730261D01*
X199766498Y-35730264D01*
X199620827Y-35790602D01*
X199620814Y-35790609D01*
X199489711Y-35878210D01*
X199489707Y-35878213D01*
X199378213Y-35989707D01*
X199378210Y-35989711D01*
X199290609Y-36120814D01*
X199290602Y-36120827D01*
X199230264Y-36266498D01*
X199230261Y-36266510D01*
X199199500Y-36421153D01*
X199199500Y-36578846D01*
X199230261Y-36733489D01*
X199230264Y-36733501D01*
X199290602Y-36879172D01*
X199290606Y-36879179D01*
X199328602Y-36936044D01*
X199349480Y-37002721D01*
X199349500Y-37004935D01*
X199349500Y-37679191D01*
X199329815Y-37746230D01*
X199313181Y-37766872D01*
X196816553Y-40263499D01*
X196755230Y-40296984D01*
X196685538Y-40292000D01*
X196629605Y-40250128D01*
X196605188Y-40184664D01*
X196618387Y-40119523D01*
X196640568Y-40075992D01*
X196713553Y-39851368D01*
X196721028Y-39804173D01*
X196750500Y-39618097D01*
X196750500Y-39381902D01*
X196713553Y-39148631D01*
X196661231Y-38987601D01*
X196640568Y-38924008D01*
X196640566Y-38924005D01*
X196640566Y-38924003D01*
X196584002Y-38812991D01*
X196533343Y-38713567D01*
X196394517Y-38522490D01*
X196227510Y-38355483D01*
X196036433Y-38216657D01*
X195825996Y-38109433D01*
X195601369Y-38036447D01*
X195538140Y-38026432D01*
X195475005Y-37996502D01*
X195438075Y-37937190D01*
X195439073Y-37867328D01*
X195477684Y-37809095D01*
X195538141Y-37781486D01*
X195651368Y-37763553D01*
X195875992Y-37690568D01*
X196086433Y-37583343D01*
X196277510Y-37444517D01*
X196444517Y-37277510D01*
X196583343Y-37086433D01*
X196690568Y-36875992D01*
X196763553Y-36651368D01*
X196800500Y-36418097D01*
X196800500Y-36181902D01*
X196763553Y-35948631D01*
X196710851Y-35786433D01*
X196690568Y-35724008D01*
X196690566Y-35724005D01*
X196690566Y-35724003D01*
X196612970Y-35571713D01*
X196583343Y-35513567D01*
X196444517Y-35322490D01*
X196277510Y-35155483D01*
X196086433Y-35016657D01*
X195875996Y-34909433D01*
X195651368Y-34836446D01*
X195418097Y-34799500D01*
X195418092Y-34799500D01*
X195181908Y-34799500D01*
X195181903Y-34799500D01*
X194948631Y-34836446D01*
X194724003Y-34909433D01*
X194513566Y-35016657D01*
X194414058Y-35088955D01*
X194322490Y-35155483D01*
X194322488Y-35155485D01*
X194322487Y-35155485D01*
X194155485Y-35322487D01*
X194155485Y-35322488D01*
X194155483Y-35322490D01*
X194144001Y-35338294D01*
X194016657Y-35513566D01*
X194009984Y-35526663D01*
X193962008Y-35577458D01*
X193894187Y-35594252D01*
X193828053Y-35571713D01*
X193784602Y-35516997D01*
X193775500Y-35470366D01*
X193775500Y-34520001D01*
X198527704Y-34520001D01*
X198527899Y-34522486D01*
X198573718Y-34680198D01*
X198657314Y-34821552D01*
X198657321Y-34821561D01*
X198773438Y-34937678D01*
X198773447Y-34937685D01*
X198914803Y-35021282D01*
X198914806Y-35021283D01*
X199072504Y-35067099D01*
X199072510Y-35067100D01*
X199109350Y-35069999D01*
X199109366Y-35070000D01*
X199750000Y-35070000D01*
X199750000Y-34520000D01*
X198527705Y-34520000D01*
X198527704Y-34520001D01*
X193775500Y-34520001D01*
X193775500Y-32461654D01*
X197025001Y-32461654D01*
X197035319Y-32562652D01*
X197089546Y-32726300D01*
X197089551Y-32726311D01*
X197180052Y-32873034D01*
X197180055Y-32873038D01*
X197301961Y-32994944D01*
X197301965Y-32994947D01*
X197448688Y-33085448D01*
X197448699Y-33085453D01*
X197612347Y-33139680D01*
X197713352Y-33149999D01*
X197750000Y-33149999D01*
X197750000Y-32362500D01*
X197025001Y-32362500D01*
X197025001Y-32461654D01*
X193775500Y-32461654D01*
X193775500Y-30779382D01*
X193795185Y-30712343D01*
X193847989Y-30666588D01*
X193917147Y-30656644D01*
X193980703Y-30685669D01*
G37*
%TD.AperFunction*%
%TA.AperFunction,Conductor*%
G36*
X226160673Y-30535000D02*
G01*
X226176361Y-30535000D01*
X226176361Y-30536119D01*
X226186068Y-30536812D01*
X226218880Y-30537984D01*
X226220758Y-30539288D01*
X226223037Y-30539451D01*
X226249298Y-30559104D01*
X226276272Y-30577832D01*
X226277827Y-30580453D01*
X226278977Y-30581314D01*
X226294282Y-30608186D01*
X226313997Y-30655782D01*
X226314002Y-30655792D01*
X226401603Y-30786895D01*
X226401606Y-30786899D01*
X226513100Y-30898393D01*
X226513104Y-30898396D01*
X226644207Y-30985997D01*
X226644211Y-30985999D01*
X226644214Y-30986001D01*
X226722954Y-31018616D01*
X226777355Y-31062455D01*
X226799421Y-31128749D01*
X226799500Y-31133176D01*
X226799500Y-34219432D01*
X226798089Y-34224233D01*
X226799120Y-34229131D01*
X226788344Y-34257424D01*
X226779815Y-34286471D01*
X226776033Y-34289747D01*
X226774252Y-34294425D01*
X226749887Y-34312403D01*
X226727011Y-34332226D01*
X226722058Y-34332938D01*
X226718031Y-34335910D01*
X226687814Y-34337861D01*
X226657853Y-34342170D01*
X226653301Y-34340091D01*
X226648307Y-34340414D01*
X226621832Y-34325720D01*
X226594297Y-34313145D01*
X226590399Y-34308273D01*
X226587216Y-34306507D01*
X226571037Y-34284076D01*
X226566261Y-34278107D01*
X226565614Y-34276902D01*
X226533343Y-34213567D01*
X226526637Y-34204337D01*
X226522660Y-34196932D01*
X226522564Y-34196478D01*
X226521580Y-34194877D01*
X226510384Y-34173063D01*
X226047836Y-33271824D01*
X226034739Y-33203194D01*
X226043557Y-33167846D01*
X226070853Y-33101806D01*
X226084851Y-33052158D01*
X226086487Y-33046822D01*
X226103678Y-32994944D01*
X226115174Y-32960253D01*
X226125500Y-32859177D01*
X226125499Y-32160824D01*
X226123412Y-32140398D01*
X226115174Y-32059747D01*
X226090902Y-31986500D01*
X226060908Y-31895984D01*
X225970340Y-31749150D01*
X225956017Y-31734827D01*
X225922532Y-31673504D01*
X225927516Y-31603812D01*
X225956021Y-31559460D01*
X225969947Y-31545535D01*
X226060448Y-31398811D01*
X226060453Y-31398800D01*
X226114680Y-31235152D01*
X226124999Y-31134154D01*
X226125000Y-31134141D01*
X226125000Y-31035000D01*
X225274000Y-31035000D01*
X225206961Y-31015315D01*
X225161206Y-30962511D01*
X225150000Y-30911000D01*
X225150000Y-30659000D01*
X225169685Y-30591961D01*
X225222489Y-30546206D01*
X225274000Y-30535000D01*
X226152388Y-30535000D01*
X226153345Y-30534477D01*
X226160673Y-30535000D01*
G37*
%TD.AperFunction*%
%TD*%
%TA.AperFunction,Conductor*%
%TO.N,+3.3V*%
G36*
X213975804Y-49718193D02*
G01*
X213981454Y-49723874D01*
X214398093Y-50624567D01*
X214398949Y-50627196D01*
X214405583Y-50660543D01*
X214405583Y-50660544D01*
X214434816Y-50704295D01*
X214435707Y-50705883D01*
X214477334Y-50795872D01*
X214477697Y-50804819D01*
X214474988Y-50809057D01*
X214204410Y-51079635D01*
X214196137Y-51083062D01*
X214190071Y-51081366D01*
X213373723Y-50586314D01*
X213368427Y-50579095D01*
X213368206Y-50574672D01*
X213462756Y-49906579D01*
X213467309Y-49898867D01*
X213470362Y-49897215D01*
X213966858Y-49717783D01*
X213975804Y-49718193D01*
G37*
%TD.AperFunction*%
%TD*%
%TA.AperFunction,Conductor*%
%TO.N,/RCLK*%
G36*
X211060939Y-44057988D02*
G01*
X211066426Y-44065065D01*
X211066608Y-44065830D01*
X211122684Y-44343011D01*
X211120965Y-44351799D01*
X211120926Y-44351858D01*
X210961543Y-44588969D01*
X210954084Y-44593923D01*
X210946932Y-44593066D01*
X210535217Y-44403136D01*
X210529140Y-44396559D01*
X210528418Y-44392512D01*
X210528418Y-44208931D01*
X210531845Y-44200658D01*
X210537033Y-44197645D01*
X211052057Y-44056864D01*
X211060939Y-44057988D01*
G37*
%TD.AperFunction*%
%TD*%
%TA.AperFunction,Conductor*%
%TO.N,/SRCLK*%
G36*
X210736983Y-45132108D02*
G01*
X210744445Y-45137059D01*
X210744478Y-45137109D01*
X210901080Y-45372420D01*
X210902811Y-45381206D01*
X210897822Y-45388642D01*
X210896533Y-45389386D01*
X210501455Y-45585083D01*
X210496262Y-45586299D01*
X210314587Y-45586299D01*
X210306314Y-45582872D01*
X210302887Y-45574599D01*
X210303352Y-45571332D01*
X210356480Y-45388642D01*
X210444552Y-45085784D01*
X210450153Y-45078798D01*
X210458029Y-45077569D01*
X210736983Y-45132108D01*
G37*
%TD.AperFunction*%
%TD*%
%TA.AperFunction,Conductor*%
%TO.N,Net-(U2-QH')*%
G36*
X217839588Y-46209371D02*
G01*
X217843548Y-46216024D01*
X217900030Y-46495210D01*
X217898311Y-46503998D01*
X217898272Y-46504057D01*
X217740283Y-46739095D01*
X217732824Y-46744049D01*
X217724046Y-46742278D01*
X217723444Y-46741845D01*
X217348225Y-46453512D01*
X217343753Y-46445754D01*
X217343654Y-46444235D01*
X217343654Y-46260706D01*
X217347081Y-46252433D01*
X217354316Y-46249052D01*
X217831045Y-46206690D01*
X217839588Y-46209371D01*
G37*
%TD.AperFunction*%
%TD*%
%TA.AperFunction,Conductor*%
%TO.N,Net-(U2-QH')*%
G36*
X212176229Y-46256397D02*
G01*
X212571042Y-46497578D01*
X212576316Y-46504815D01*
X212576643Y-46507562D01*
X212576643Y-46691217D01*
X212573216Y-46699490D01*
X212567015Y-46702732D01*
X212069796Y-46792208D01*
X212061047Y-46790301D01*
X212056256Y-46783013D01*
X212040014Y-46702732D01*
X211999969Y-46504789D01*
X212001688Y-46496001D01*
X212160423Y-46259853D01*
X212167880Y-46254901D01*
X212176229Y-46256397D01*
G37*
%TD.AperFunction*%
%TD*%
%TA.AperFunction,Conductor*%
%TO.N,/SER*%
G36*
X213578123Y-42863091D02*
G01*
X214093366Y-43049906D01*
X214099975Y-43055946D01*
X214101077Y-43060904D01*
X214101077Y-43244499D01*
X214097650Y-43252772D01*
X214093365Y-43255498D01*
X213578131Y-43442310D01*
X213569185Y-43441909D01*
X213563144Y-43435299D01*
X213562678Y-43433641D01*
X213506310Y-43155020D01*
X213506310Y-43150382D01*
X213562676Y-42871769D01*
X213567675Y-42864343D01*
X213576463Y-42862624D01*
X213578123Y-42863091D01*
G37*
%TD.AperFunction*%
%TD*%
%TA.AperFunction,Conductor*%
%TO.N,/SER*%
G36*
X209600574Y-42503665D02*
G01*
X209605528Y-42511124D01*
X209605725Y-42512666D01*
X209634608Y-42988249D01*
X209631689Y-42996714D01*
X209631203Y-42997231D01*
X209501517Y-43126917D01*
X209493244Y-43130344D01*
X209485242Y-43127180D01*
X209346070Y-42996714D01*
X209151221Y-42814053D01*
X209147530Y-42805896D01*
X209149474Y-42799051D01*
X209307271Y-42561213D01*
X209314694Y-42556217D01*
X209591798Y-42501894D01*
X209600574Y-42503665D01*
G37*
%TD.AperFunction*%
%TD*%
%TA.AperFunction,Conductor*%
%TO.N,/SER*%
G36*
X213444496Y-42863494D02*
G01*
X213450537Y-42870104D01*
X213451006Y-42871772D01*
X213507371Y-43150381D01*
X213507371Y-43155021D01*
X213451072Y-43433300D01*
X213448867Y-43436575D01*
X213446990Y-43440054D01*
X213446409Y-43440227D01*
X213446072Y-43440729D01*
X213438410Y-43442619D01*
X213437045Y-43442479D01*
X213434251Y-43441839D01*
X212920317Y-43255498D01*
X212913707Y-43249457D01*
X212912605Y-43244499D01*
X212912605Y-43060904D01*
X212916032Y-43052631D01*
X212920314Y-43049906D01*
X213435552Y-42863093D01*
X213444496Y-42863494D01*
G37*
%TD.AperFunction*%
%TD*%
%TA.AperFunction,Conductor*%
%TO.N,/~{OE}*%
G36*
X206896320Y-40377700D02*
G01*
X206901706Y-40384853D01*
X206901945Y-40386023D01*
X207030755Y-41234317D01*
X207028609Y-41243010D01*
X207027461Y-41244346D01*
X206896471Y-41375336D01*
X206888198Y-41378763D01*
X206882502Y-41377283D01*
X206169794Y-40980038D01*
X206164236Y-40973017D01*
X206165153Y-40964339D01*
X206409377Y-40503847D01*
X206416279Y-40498146D01*
X206416763Y-40498009D01*
X206887453Y-40376451D01*
X206896320Y-40377700D01*
G37*
%TD.AperFunction*%
%TD*%
%TA.AperFunction,Conductor*%
%TO.N,/~{OE}*%
G36*
X206702135Y-40445866D02*
G01*
X206707089Y-40453325D01*
X206707298Y-40455093D01*
X206726923Y-40930529D01*
X206723840Y-40938937D01*
X206723506Y-40939285D01*
X206593836Y-41068955D01*
X206585563Y-41072382D01*
X206577444Y-41069106D01*
X206252848Y-40756207D01*
X206249270Y-40747998D01*
X206251217Y-40741318D01*
X206409092Y-40503363D01*
X206416515Y-40498367D01*
X206693358Y-40444095D01*
X206702135Y-40445866D01*
G37*
%TD.AperFunction*%
%TD*%
%TA.AperFunction,Conductor*%
%TO.N,/~{OE}*%
G36*
X212973243Y-43601326D02*
G01*
X213417406Y-43647044D01*
X213419211Y-43647377D01*
X213436775Y-43652083D01*
X213440948Y-43653202D01*
X213476626Y-43653202D01*
X213477822Y-43653262D01*
X213496518Y-43655187D01*
X213504397Y-43659443D01*
X213506959Y-43668024D01*
X213506803Y-43669071D01*
X213452671Y-43945944D01*
X213447720Y-43953406D01*
X213447670Y-43953439D01*
X213210447Y-44111314D01*
X213201661Y-44113045D01*
X213194646Y-44108648D01*
X212962738Y-43803136D01*
X212960357Y-43796062D01*
X212960357Y-43612966D01*
X212963784Y-43604693D01*
X212972057Y-43601266D01*
X212973243Y-43601326D01*
G37*
%TD.AperFunction*%
%TD*%
%TA.AperFunction,Conductor*%
%TO.N,/Supp_Batt_Vin*%
G36*
X196546548Y-41246240D02*
G01*
X196549774Y-41248522D01*
X196751477Y-41450225D01*
X196754904Y-41458498D01*
X196754237Y-41462393D01*
X196234156Y-42935540D01*
X196228170Y-42942200D01*
X196220850Y-42943122D01*
X195256975Y-42752228D01*
X195249525Y-42747259D01*
X195247771Y-42743024D01*
X195056877Y-41779149D01*
X195058631Y-41770368D01*
X195064457Y-41765844D01*
X196537608Y-41245762D01*
X196546548Y-41246240D01*
G37*
%TD.AperFunction*%
%TD*%
%TA.AperFunction,Conductor*%
%TO.N,+3.3V*%
G36*
X213471472Y-38599450D02*
G01*
X213473808Y-38601786D01*
X213971833Y-39265494D01*
X213974058Y-39274168D01*
X213972027Y-39279272D01*
X213617947Y-39779869D01*
X213610372Y-39784645D01*
X213608395Y-39784813D01*
X213320505Y-39784813D01*
X213312232Y-39781386D01*
X213310953Y-39779869D01*
X212956872Y-39279272D01*
X212954892Y-39270539D01*
X212957064Y-39265496D01*
X213455092Y-38601785D01*
X213462798Y-38597225D01*
X213471472Y-38599450D01*
G37*
%TD.AperFunction*%
%TD*%
%TA.AperFunction,Conductor*%
%TO.N,+3.3V*%
G36*
X213612788Y-38734317D02*
G01*
X213616060Y-38740694D01*
X213700587Y-39255470D01*
X213698546Y-39264189D01*
X213691362Y-39268834D01*
X213410499Y-39325656D01*
X213405859Y-39325656D01*
X213127389Y-39269319D01*
X213119960Y-39264319D01*
X213118241Y-39255531D01*
X213118747Y-39253763D01*
X213311606Y-38738489D01*
X213317716Y-38731942D01*
X213322564Y-38730890D01*
X213604515Y-38730890D01*
X213612788Y-38734317D01*
G37*
%TD.AperFunction*%
%TD*%
%TA.AperFunction,Conductor*%
%TO.N,+3.3V*%
G36*
X204916953Y-30448878D02*
G01*
X204923753Y-30454705D01*
X204924442Y-30463633D01*
X204918615Y-30470433D01*
X204916953Y-30471122D01*
X204071375Y-30747347D01*
X204063848Y-30747258D01*
X203682806Y-30612755D01*
X203676145Y-30606770D01*
X203675000Y-30601722D01*
X203675000Y-30318277D01*
X203678427Y-30310004D01*
X203682803Y-30307245D01*
X204063849Y-30172740D01*
X204071375Y-30172652D01*
X204916953Y-30448878D01*
G37*
%TD.AperFunction*%
%TD*%
%TA.AperFunction,Conductor*%
%TO.N,+3.3V*%
G36*
X203334563Y-42103300D02*
G01*
X203342117Y-42108108D01*
X203344236Y-42114823D01*
X203344236Y-42495180D01*
X203340809Y-42503453D01*
X203334563Y-42506703D01*
X202819760Y-42597261D01*
X202811018Y-42595319D01*
X202806265Y-42588058D01*
X202789462Y-42505002D01*
X202749469Y-42307320D01*
X202749469Y-42302682D01*
X202787475Y-42114823D01*
X202806265Y-42021944D01*
X202811265Y-42014516D01*
X202819760Y-42012742D01*
X203334563Y-42103300D01*
G37*
%TD.AperFunction*%
%TD*%
%TA.AperFunction,Conductor*%
%TO.N,+3.3V*%
G36*
X230452287Y-48709244D02*
G01*
X230453502Y-48710671D01*
X230815118Y-49211824D01*
X230817180Y-49220538D01*
X230815447Y-49225035D01*
X230386067Y-49887254D01*
X230378691Y-49892332D01*
X230369885Y-49890706D01*
X230366892Y-49887911D01*
X229868245Y-49223375D01*
X229866020Y-49214701D01*
X229866599Y-49212379D01*
X230047206Y-48713533D01*
X230053244Y-48706922D01*
X230058207Y-48705817D01*
X230444014Y-48705817D01*
X230452287Y-48709244D01*
G37*
%TD.AperFunction*%
%TD*%
%TA.AperFunction,Conductor*%
%TO.N,+3.3V*%
G36*
X230571075Y-39510179D02*
G01*
X230578503Y-39515178D01*
X230580222Y-39523966D01*
X230580109Y-39524466D01*
X230452206Y-40039432D01*
X230446886Y-40046635D01*
X230440851Y-40048312D01*
X230060552Y-40048312D01*
X230052279Y-40044885D01*
X230048914Y-40037816D01*
X229995676Y-39523165D01*
X229998233Y-39514586D01*
X230004991Y-39510497D01*
X230286502Y-39453545D01*
X230291138Y-39453545D01*
X230571075Y-39510179D01*
G37*
%TD.AperFunction*%
%TD*%
%TA.AperFunction,Conductor*%
%TO.N,+3.3V*%
G36*
X212271197Y-41529351D02*
G01*
X212470648Y-41728802D01*
X212474075Y-41737075D01*
X212472515Y-41742913D01*
X212206395Y-42205132D01*
X212199297Y-42210592D01*
X212190417Y-42209434D01*
X212189787Y-42209043D01*
X211952000Y-42051280D01*
X211948719Y-42047999D01*
X211790956Y-41810212D01*
X211789237Y-41801424D01*
X211794237Y-41793995D01*
X211794867Y-41793604D01*
X212257088Y-41527483D01*
X212265966Y-41526326D01*
X212271197Y-41529351D01*
G37*
%TD.AperFunction*%
%TD*%
%TA.AperFunction,Conductor*%
%TO.N,+3.3V*%
G36*
X223285235Y-28693823D02*
G01*
X223289630Y-28697012D01*
X223669467Y-29139883D01*
X223672252Y-29148394D01*
X223669467Y-29155117D01*
X223289630Y-29597987D01*
X223281643Y-29602036D01*
X223276280Y-29601183D01*
X222669731Y-29350488D01*
X222663394Y-29344161D01*
X222662500Y-29339675D01*
X222662500Y-28955324D01*
X222665927Y-28947051D01*
X222669729Y-28944511D01*
X223276281Y-28693816D01*
X223285235Y-28693823D01*
G37*
%TD.AperFunction*%
%TD*%
%TA.AperFunction,Conductor*%
%TO.N,+3.3V*%
G36*
X230384233Y-49910329D02*
G01*
X230386863Y-49913079D01*
X230839825Y-50575860D01*
X230841663Y-50584624D01*
X230839962Y-50588858D01*
X230446699Y-51191214D01*
X230439307Y-51196268D01*
X230430506Y-51194615D01*
X230428629Y-51193091D01*
X230156286Y-50920748D01*
X230155698Y-50920115D01*
X229870603Y-50589450D01*
X229867796Y-50580946D01*
X229870111Y-50574781D01*
X230367853Y-49912649D01*
X230375561Y-49908097D01*
X230384233Y-49910329D01*
G37*
%TD.AperFunction*%
%TD*%
%TA.AperFunction,Conductor*%
%TO.N,+3.3V*%
G36*
X222077816Y-37405744D02*
G01*
X222349557Y-37677485D01*
X222352912Y-37684458D01*
X222377433Y-37903701D01*
X222375157Y-37912031D01*
X221876515Y-38575361D01*
X221868805Y-38579915D01*
X221860133Y-38577683D01*
X221856539Y-38573232D01*
X221553358Y-37915791D01*
X221553006Y-37906843D01*
X221555780Y-37902548D01*
X222061345Y-37405670D01*
X222069644Y-37402317D01*
X222077816Y-37405744D01*
G37*
%TD.AperFunction*%
%TD*%
%TA.AperFunction,Conductor*%
%TO.N,+3.3V*%
G36*
X213614062Y-39365778D02*
G01*
X213691362Y-39381417D01*
X213698791Y-39386417D01*
X213700587Y-39394781D01*
X213616060Y-39909558D01*
X213611338Y-39917166D01*
X213604515Y-39919362D01*
X213322564Y-39919362D01*
X213314291Y-39915935D01*
X213311606Y-39911763D01*
X213275985Y-39816592D01*
X213118751Y-39396499D01*
X213119061Y-39387552D01*
X213125608Y-39381442D01*
X213127380Y-39380934D01*
X213405861Y-39324595D01*
X213410497Y-39324595D01*
X213614062Y-39365778D01*
G37*
%TD.AperFunction*%
%TD*%
%TA.AperFunction,Conductor*%
%TO.N,+3.3V*%
G36*
X230383972Y-38599450D02*
G01*
X230386308Y-38601786D01*
X230884333Y-39265494D01*
X230886558Y-39274168D01*
X230884527Y-39279272D01*
X230530447Y-39779869D01*
X230522872Y-39784645D01*
X230520895Y-39784813D01*
X230233005Y-39784813D01*
X230224732Y-39781386D01*
X230223453Y-39779869D01*
X229869372Y-39279272D01*
X229867392Y-39270539D01*
X229869564Y-39265496D01*
X230367592Y-38601785D01*
X230375298Y-38597225D01*
X230383972Y-38599450D01*
G37*
%TD.AperFunction*%
%TD*%
%TA.AperFunction,Conductor*%
%TO.N,+3.3V*%
G36*
X230371657Y-39439477D02*
G01*
X230375084Y-39447750D01*
X230371657Y-39456023D01*
X230365049Y-39459331D01*
X230126269Y-39493666D01*
X230117593Y-39491451D01*
X230113023Y-39483750D01*
X230115238Y-39475074D01*
X230120937Y-39470975D01*
X230225171Y-39436635D01*
X230228826Y-39436050D01*
X230363384Y-39436050D01*
X230371657Y-39439477D01*
G37*
%TD.AperFunction*%
%TD*%
%TA.AperFunction,Conductor*%
%TO.N,+3.3V*%
G36*
X221872733Y-49910329D02*
G01*
X221875363Y-49913079D01*
X222328325Y-50575860D01*
X222330163Y-50584624D01*
X222328462Y-50588858D01*
X221935199Y-51191214D01*
X221927807Y-51196268D01*
X221919006Y-51194615D01*
X221917129Y-51193091D01*
X221644786Y-50920748D01*
X221644198Y-50920115D01*
X221359103Y-50589450D01*
X221356296Y-50580946D01*
X221358611Y-50574781D01*
X221856353Y-49912649D01*
X221864061Y-49908097D01*
X221872733Y-49910329D01*
G37*
%TD.AperFunction*%
%TD*%
%TA.AperFunction,Conductor*%
%TO.N,+3.3V*%
G36*
X220672197Y-41529351D02*
G01*
X220871648Y-41728802D01*
X220875075Y-41737075D01*
X220873515Y-41742913D01*
X220607395Y-42205132D01*
X220600297Y-42210592D01*
X220591417Y-42209434D01*
X220590787Y-42209043D01*
X220353000Y-42051280D01*
X220349719Y-42047999D01*
X220191956Y-41810212D01*
X220190237Y-41801424D01*
X220195237Y-41793995D01*
X220195867Y-41793604D01*
X220658088Y-41527483D01*
X220666966Y-41526326D01*
X220672197Y-41529351D01*
G37*
%TD.AperFunction*%
%TD*%
%TA.AperFunction,Conductor*%
%TO.N,+3.3V*%
G36*
X230384013Y-49909907D02*
G01*
X230386985Y-49912688D01*
X230885623Y-50577213D01*
X230887848Y-50585887D01*
X230887239Y-50588292D01*
X230702825Y-51087170D01*
X230696742Y-51093741D01*
X230691851Y-51094813D01*
X230306003Y-51094813D01*
X230297730Y-51091386D01*
X230296499Y-51089937D01*
X229936709Y-50588814D01*
X229934669Y-50580096D01*
X229936410Y-50575607D01*
X230367824Y-49913323D01*
X230375210Y-49908262D01*
X230384013Y-49909907D01*
G37*
%TD.AperFunction*%
%TD*%
%TA.AperFunction,Conductor*%
%TO.N,+3.3V*%
G36*
X221498834Y-29482808D02*
G01*
X221502474Y-29489443D01*
X221551141Y-29768939D01*
X221549184Y-29777677D01*
X221542095Y-29782380D01*
X220447077Y-30019940D01*
X220438265Y-30018345D01*
X220436323Y-30016779D01*
X220237136Y-29817592D01*
X220233709Y-29809319D01*
X220237136Y-29801046D01*
X220237293Y-29800892D01*
X220521824Y-29526876D01*
X220529402Y-29523618D01*
X221490415Y-29479762D01*
X221498834Y-29482808D01*
G37*
%TD.AperFunction*%
%TD*%
%TA.AperFunction,Conductor*%
%TO.N,+3.3V*%
G36*
X221872472Y-38599450D02*
G01*
X221874808Y-38601786D01*
X222372833Y-39265494D01*
X222375058Y-39274168D01*
X222373027Y-39279272D01*
X222018947Y-39779869D01*
X222011372Y-39784645D01*
X222009395Y-39784813D01*
X221721505Y-39784813D01*
X221713232Y-39781386D01*
X221711953Y-39779869D01*
X221357872Y-39279272D01*
X221355892Y-39270539D01*
X221358064Y-39265496D01*
X221856092Y-38601785D01*
X221863798Y-38597225D01*
X221872472Y-38599450D01*
G37*
%TD.AperFunction*%
%TD*%
%TA.AperFunction,Conductor*%
%TO.N,+3.3V*%
G36*
X221879114Y-39323167D02*
G01*
X221882541Y-39331440D01*
X221879114Y-39339713D01*
X221872722Y-39342988D01*
X221673006Y-39375518D01*
X221664289Y-39373466D01*
X221659577Y-39365851D01*
X221661629Y-39357134D01*
X221664550Y-39354293D01*
X221712474Y-39321759D01*
X221719045Y-39319740D01*
X221870841Y-39319740D01*
X221879114Y-39323167D01*
G37*
%TD.AperFunction*%
%TD*%
%TA.AperFunction,Conductor*%
%TO.N,+3.3V*%
G36*
X214204410Y-37410994D02*
G01*
X214474987Y-37681572D01*
X214478414Y-37689845D01*
X214477333Y-37694757D01*
X214435704Y-37784749D01*
X214434813Y-37786337D01*
X214405583Y-37830085D01*
X214405583Y-37830086D01*
X214398949Y-37863429D01*
X214398093Y-37866058D01*
X213981454Y-38766755D01*
X213974870Y-38772825D01*
X213966858Y-38772846D01*
X213470364Y-38593414D01*
X213463748Y-38587380D01*
X213462756Y-38584050D01*
X213368206Y-37915957D01*
X213370440Y-37907286D01*
X213373719Y-37904317D01*
X214190073Y-37409262D01*
X214198921Y-37407903D01*
X214204410Y-37410994D01*
G37*
%TD.AperFunction*%
%TD*%
%TA.AperFunction,Conductor*%
%TO.N,+3.3V*%
G36*
X229651326Y-37409262D02*
G01*
X230467675Y-37904315D01*
X230472972Y-37911534D01*
X230473193Y-37915957D01*
X230378643Y-38584050D01*
X230374090Y-38591762D01*
X230371035Y-38593414D01*
X229874541Y-38772846D01*
X229865595Y-38772436D01*
X229859945Y-38766755D01*
X229462852Y-37908317D01*
X229443304Y-37866057D01*
X229442450Y-37863434D01*
X229435817Y-37830086D01*
X229406582Y-37786333D01*
X229405691Y-37784745D01*
X229364065Y-37694757D01*
X229363702Y-37685810D01*
X229366409Y-37681574D01*
X229636990Y-37410993D01*
X229645262Y-37407567D01*
X229651326Y-37409262D01*
G37*
%TD.AperFunction*%
%TD*%
%TA.AperFunction,Conductor*%
%TO.N,+3.3V*%
G36*
X229183697Y-41658301D02*
G01*
X229383148Y-41857752D01*
X229386575Y-41866025D01*
X229385015Y-41871863D01*
X229118895Y-42334082D01*
X229111797Y-42339542D01*
X229102917Y-42338384D01*
X229102287Y-42337993D01*
X228864500Y-42180230D01*
X228861219Y-42176949D01*
X228703456Y-41939162D01*
X228701737Y-41930374D01*
X228706737Y-41922945D01*
X228707367Y-41922554D01*
X229169588Y-41656433D01*
X229178466Y-41655276D01*
X229183697Y-41658301D01*
G37*
%TD.AperFunction*%
%TD*%
%TA.AperFunction,Conductor*%
%TO.N,+3.3V*%
G36*
X219500592Y-52803427D02*
G01*
X219503054Y-52807047D01*
X219765628Y-53412861D01*
X219765774Y-53421815D01*
X219761613Y-53427091D01*
X219306720Y-53746284D01*
X219297980Y-53748231D01*
X219293280Y-53746284D01*
X218838386Y-53427091D01*
X218833582Y-53419534D01*
X218834370Y-53412865D01*
X219096946Y-52807047D01*
X219103380Y-52800819D01*
X219107681Y-52800000D01*
X219492319Y-52800000D01*
X219500592Y-52803427D01*
G37*
%TD.AperFunction*%
%TD*%
%TA.AperFunction,Conductor*%
%TO.N,+3.3V*%
G36*
X213471472Y-38599450D02*
G01*
X213473808Y-38601786D01*
X213971833Y-39265494D01*
X213974058Y-39274168D01*
X213972027Y-39279272D01*
X213617947Y-39779869D01*
X213610372Y-39784645D01*
X213608395Y-39784813D01*
X213320505Y-39784813D01*
X213312232Y-39781386D01*
X213310953Y-39779869D01*
X212956872Y-39279272D01*
X212954892Y-39270539D01*
X212957064Y-39265496D01*
X213455092Y-38601785D01*
X213462798Y-38597225D01*
X213471472Y-38599450D01*
G37*
%TD.AperFunction*%
%TD*%
%TA.AperFunction,Conductor*%
%TO.N,+3.3V*%
G36*
X213439802Y-39322789D02*
G01*
X213443229Y-39331062D01*
X213439802Y-39339335D01*
X213433020Y-39342667D01*
X213240741Y-39367365D01*
X213232098Y-39365020D01*
X213227645Y-39357251D01*
X213229990Y-39348608D01*
X213235676Y-39344620D01*
X213312707Y-39319921D01*
X213316279Y-39319362D01*
X213431529Y-39319362D01*
X213439802Y-39322789D01*
G37*
%TD.AperFunction*%
%TD*%
%TA.AperFunction,Conductor*%
%TO.N,/VoltageSense/vin1_divided*%
G36*
X200708099Y-33293295D02*
G01*
X200714427Y-33299629D01*
X200714422Y-33308584D01*
X200711888Y-33312374D01*
X200582842Y-33441421D01*
X200447383Y-33576879D01*
X200439110Y-33580306D01*
X200433879Y-33579071D01*
X199885455Y-33304859D01*
X199879588Y-33298095D01*
X199879866Y-33289948D01*
X199994832Y-33010148D01*
X200001145Y-33003800D01*
X200010098Y-33003775D01*
X200708099Y-33293295D01*
G37*
%TD.AperFunction*%
%TD*%
%TA.AperFunction,Conductor*%
%TO.N,Net-(R3-Pad2)*%
G36*
X218587481Y-49909574D02*
G01*
X218590004Y-49912048D01*
X219087742Y-50575373D01*
X219089967Y-50584047D01*
X219087822Y-50589310D01*
X218720956Y-51090028D01*
X218713302Y-51094676D01*
X218711518Y-51094813D01*
X218522918Y-51094813D01*
X218514645Y-51091386D01*
X218513943Y-51090619D01*
X218283079Y-50814567D01*
X218094669Y-50589280D01*
X218091991Y-50580736D01*
X218094148Y-50574942D01*
X218571150Y-49912234D01*
X218578764Y-49907522D01*
X218587481Y-49909574D01*
G37*
%TD.AperFunction*%
%TD*%
%TA.AperFunction,Conductor*%
%TO.N,Net-(R3-Pad2)*%
G36*
X218717520Y-50530241D02*
G01*
X218720246Y-50534526D01*
X218907058Y-51049759D01*
X218906657Y-51058705D01*
X218900047Y-51064746D01*
X218898379Y-51065215D01*
X218619770Y-51121580D01*
X218615130Y-51121580D01*
X218336520Y-51065215D01*
X218329091Y-51060215D01*
X218327372Y-51051427D01*
X218327837Y-51049770D01*
X218514654Y-50534526D01*
X218520695Y-50527916D01*
X218525653Y-50526814D01*
X218709247Y-50526814D01*
X218717520Y-50530241D01*
G37*
%TD.AperFunction*%
%TD*%
%TA.AperFunction,Conductor*%
%TO.N,Net-(R4-Pad2)*%
G36*
X220229395Y-49910218D02*
G01*
X220232115Y-49913097D01*
X220672150Y-50574767D01*
X220673878Y-50583554D01*
X220671117Y-50589058D01*
X220220937Y-51090925D01*
X220212862Y-51094796D01*
X220212228Y-51094813D01*
X220024080Y-51094813D01*
X220015807Y-51091386D01*
X220014043Y-51089125D01*
X219714490Y-50589057D01*
X219713178Y-50580199D01*
X219715167Y-50576025D01*
X220213016Y-49912553D01*
X220220721Y-49907993D01*
X220229395Y-49910218D01*
G37*
%TD.AperFunction*%
%TD*%
%TA.AperFunction,Conductor*%
%TO.N,Net-(R4-Pad2)*%
G36*
X220217520Y-50530241D02*
G01*
X220220246Y-50534526D01*
X220407058Y-51049759D01*
X220406657Y-51058705D01*
X220400047Y-51064746D01*
X220398379Y-51065215D01*
X220119770Y-51121580D01*
X220115130Y-51121580D01*
X219836520Y-51065215D01*
X219829091Y-51060215D01*
X219827372Y-51051427D01*
X219827837Y-51049770D01*
X220014654Y-50534526D01*
X220020695Y-50527916D01*
X220025653Y-50526814D01*
X220209247Y-50526814D01*
X220217520Y-50530241D01*
G37*
%TD.AperFunction*%
%TD*%
%TA.AperFunction,Conductor*%
%TO.N,Net-(R5-Pad2)*%
G36*
X223515226Y-49910338D02*
G01*
X223517860Y-49913095D01*
X223969438Y-50574865D01*
X223971271Y-50583631D01*
X223968614Y-50589125D01*
X223506094Y-51122564D01*
X223498085Y-51126569D01*
X223489589Y-51123739D01*
X223488981Y-51123172D01*
X223356708Y-50990899D01*
X223356215Y-50990376D01*
X223001771Y-50589463D01*
X222998859Y-50580995D01*
X223001184Y-50574684D01*
X223498846Y-49912658D01*
X223506554Y-49908106D01*
X223515226Y-49910338D01*
G37*
%TD.AperFunction*%
%TD*%
%TA.AperFunction,Conductor*%
%TO.N,Net-(R5-Pad2)*%
G36*
X223605710Y-50564196D02*
G01*
X223609070Y-50571223D01*
X223660550Y-51051922D01*
X223658024Y-51060513D01*
X223651237Y-51064636D01*
X223372239Y-51121080D01*
X223363451Y-51119361D01*
X223363392Y-51119322D01*
X223128146Y-50961193D01*
X223123192Y-50953734D01*
X223124963Y-50944956D01*
X223125238Y-50944564D01*
X223404443Y-50565530D01*
X223412109Y-50560901D01*
X223413863Y-50560769D01*
X223597437Y-50560769D01*
X223605710Y-50564196D01*
G37*
%TD.AperFunction*%
%TD*%
%TA.AperFunction,Conductor*%
%TO.N,Net-(R6-Pad2)*%
G36*
X225158151Y-49909774D02*
G01*
X225160499Y-49912129D01*
X225655239Y-50575232D01*
X225657439Y-50583913D01*
X225655157Y-50589333D01*
X225224494Y-51152920D01*
X225216748Y-51157413D01*
X225208094Y-51155112D01*
X225206925Y-51154089D01*
X225074984Y-51022148D01*
X225074968Y-51022111D01*
X225074958Y-51022122D01*
X224645085Y-50589494D01*
X224641686Y-50581211D01*
X224644033Y-50574220D01*
X225141769Y-49912095D01*
X225149479Y-49907542D01*
X225158151Y-49909774D01*
G37*
%TD.AperFunction*%
%TD*%
%TA.AperFunction,Conductor*%
%TO.N,Net-(R6-Pad2)*%
G36*
X225250026Y-50530241D02*
G01*
X225252957Y-50535142D01*
X225407985Y-51050228D01*
X225407087Y-51059138D01*
X225400153Y-51064804D01*
X225399101Y-51065068D01*
X225122239Y-51121080D01*
X225113451Y-51119361D01*
X225113392Y-51119322D01*
X224876041Y-50959778D01*
X224871087Y-50952319D01*
X224871806Y-50945478D01*
X225047417Y-50533921D01*
X225053816Y-50527658D01*
X225058178Y-50526814D01*
X225241753Y-50526814D01*
X225250026Y-50530241D01*
G37*
%TD.AperFunction*%
%TD*%
%TA.AperFunction,Conductor*%
%TO.N,Net-(R8-Pad1)*%
G36*
X220229179Y-38600506D02*
G01*
X220232028Y-38603583D01*
X220651113Y-39262251D01*
X220652663Y-39271071D01*
X220647523Y-39278403D01*
X220647334Y-39278521D01*
X220211482Y-39544339D01*
X220205390Y-39546050D01*
X220013232Y-39546050D01*
X220005320Y-39542969D01*
X219718256Y-39279478D01*
X219714479Y-39271359D01*
X219716810Y-39263837D01*
X219718000Y-39262251D01*
X220212800Y-38602841D01*
X220220505Y-38598281D01*
X220229179Y-38600506D01*
G37*
%TD.AperFunction*%
%TD*%
%TA.AperFunction,Conductor*%
%TO.N,Net-(R8-Pad1)*%
G36*
X220208747Y-38955241D02*
G01*
X220211473Y-38959526D01*
X220398285Y-39474759D01*
X220397884Y-39483705D01*
X220391274Y-39489746D01*
X220389606Y-39490215D01*
X220110997Y-39546580D01*
X220106357Y-39546580D01*
X219827747Y-39490215D01*
X219820318Y-39485215D01*
X219818599Y-39476427D01*
X219819064Y-39474770D01*
X220005881Y-38959526D01*
X220011922Y-38952916D01*
X220016880Y-38951814D01*
X220200474Y-38951814D01*
X220208747Y-38955241D01*
G37*
%TD.AperFunction*%
%TD*%
%TA.AperFunction,Conductor*%
%TO.N,Net-(R9-Pad1)*%
G36*
X223514380Y-38600239D02*
G01*
X223517110Y-38603132D01*
X223952481Y-39259847D01*
X223954196Y-39268636D01*
X223949194Y-39276064D01*
X223946657Y-39277333D01*
X223534241Y-39424321D01*
X223530313Y-39425000D01*
X223334865Y-39425000D01*
X223330035Y-39423957D01*
X223008728Y-39278331D01*
X223002607Y-39271794D01*
X223002901Y-39262844D01*
X223004200Y-39260652D01*
X223498000Y-38602575D01*
X223505706Y-38598014D01*
X223514380Y-38600239D01*
G37*
%TD.AperFunction*%
%TD*%
%TA.AperFunction,Conductor*%
%TO.N,Net-(R9-Pad1)*%
G36*
X223532406Y-38834191D02*
G01*
X223535132Y-38838476D01*
X223721944Y-39353709D01*
X223721543Y-39362655D01*
X223714933Y-39368696D01*
X223713265Y-39369165D01*
X223434656Y-39425530D01*
X223430016Y-39425530D01*
X223151406Y-39369165D01*
X223143977Y-39364165D01*
X223142258Y-39355377D01*
X223142723Y-39353720D01*
X223329540Y-38838476D01*
X223335581Y-38831866D01*
X223340539Y-38830764D01*
X223524133Y-38830764D01*
X223532406Y-38834191D01*
G37*
%TD.AperFunction*%
%TD*%
%TA.AperFunction,Conductor*%
%TO.N,Net-(R10-Pad1)*%
G36*
X225157260Y-38599732D02*
G01*
X225159744Y-38602269D01*
X225631515Y-39259792D01*
X225633554Y-39268512D01*
X225628830Y-39276119D01*
X225626024Y-39277602D01*
X225224579Y-39424289D01*
X225220564Y-39425000D01*
X225024870Y-39425000D01*
X225020554Y-39424175D01*
X224652182Y-39277962D01*
X224645756Y-39271724D01*
X224645623Y-39262771D01*
X224647138Y-39260067D01*
X225140880Y-38602067D01*
X225148586Y-38597507D01*
X225157260Y-38599732D01*
G37*
%TD.AperFunction*%
%TD*%
%TA.AperFunction,Conductor*%
%TO.N,Net-(R10-Pad1)*%
G36*
X225222703Y-38834191D02*
G01*
X225225429Y-38838476D01*
X225412241Y-39353709D01*
X225411840Y-39362655D01*
X225405230Y-39368696D01*
X225403562Y-39369165D01*
X225124953Y-39425530D01*
X225120313Y-39425530D01*
X224841703Y-39369165D01*
X224834274Y-39364165D01*
X224832555Y-39355377D01*
X224833020Y-39353720D01*
X225019837Y-38838476D01*
X225025878Y-38831866D01*
X225030836Y-38830764D01*
X225214430Y-38830764D01*
X225222703Y-38834191D01*
G37*
%TD.AperFunction*%
%TD*%
%TA.AperFunction,Conductor*%
%TO.N,Net-(R11-Pad2)*%
G36*
X227098981Y-49909574D02*
G01*
X227101504Y-49912048D01*
X227599242Y-50575373D01*
X227601467Y-50584047D01*
X227599322Y-50589310D01*
X227232456Y-51090028D01*
X227224802Y-51094676D01*
X227223018Y-51094813D01*
X227034418Y-51094813D01*
X227026145Y-51091386D01*
X227025443Y-51090619D01*
X226794579Y-50814567D01*
X226606169Y-50589280D01*
X226603491Y-50580736D01*
X226605648Y-50574942D01*
X227082650Y-49912234D01*
X227090264Y-49907522D01*
X227098981Y-49909574D01*
G37*
%TD.AperFunction*%
%TD*%
%TA.AperFunction,Conductor*%
%TO.N,Net-(R11-Pad2)*%
G36*
X227229020Y-50659191D02*
G01*
X227231746Y-50663476D01*
X227418558Y-51178709D01*
X227418157Y-51187655D01*
X227411547Y-51193696D01*
X227409879Y-51194165D01*
X227131270Y-51250530D01*
X227126630Y-51250530D01*
X226848020Y-51194165D01*
X226840591Y-51189165D01*
X226838872Y-51180377D01*
X226839337Y-51178720D01*
X227026154Y-50663476D01*
X227032195Y-50656866D01*
X227037153Y-50655764D01*
X227220747Y-50655764D01*
X227229020Y-50659191D01*
G37*
%TD.AperFunction*%
%TD*%
%TA.AperFunction,Conductor*%
%TO.N,Net-(R12-Pad2)*%
G36*
X228740895Y-49910218D02*
G01*
X228743615Y-49913097D01*
X229183650Y-50574767D01*
X229185378Y-50583554D01*
X229182617Y-50589058D01*
X228732437Y-51090925D01*
X228724362Y-51094796D01*
X228723728Y-51094813D01*
X228535580Y-51094813D01*
X228527307Y-51091386D01*
X228525543Y-51089125D01*
X228225990Y-50589057D01*
X228224678Y-50580199D01*
X228226667Y-50576025D01*
X228724516Y-49912553D01*
X228732221Y-49907993D01*
X228740895Y-49910218D01*
G37*
%TD.AperFunction*%
%TD*%
%TA.AperFunction,Conductor*%
%TO.N,Net-(R12-Pad2)*%
G36*
X228729020Y-50659191D02*
G01*
X228731746Y-50663476D01*
X228918558Y-51178709D01*
X228918157Y-51187655D01*
X228911547Y-51193696D01*
X228909879Y-51194165D01*
X228631270Y-51250530D01*
X228626630Y-51250530D01*
X228348020Y-51194165D01*
X228340591Y-51189165D01*
X228338872Y-51180377D01*
X228339337Y-51178720D01*
X228526154Y-50663476D01*
X228532195Y-50656866D01*
X228537153Y-50655764D01*
X228720747Y-50655764D01*
X228729020Y-50659191D01*
G37*
%TD.AperFunction*%
%TD*%
%TA.AperFunction,Conductor*%
%TO.N,Net-(R13-Pad2)*%
G36*
X232026472Y-49909450D02*
G01*
X232028808Y-49911786D01*
X232526492Y-50575039D01*
X232528717Y-50583713D01*
X232526248Y-50589397D01*
X232122962Y-51090449D01*
X232115106Y-51094745D01*
X232113848Y-51094813D01*
X231925052Y-51094813D01*
X231916779Y-51091386D01*
X231915938Y-51090449D01*
X231757786Y-50893958D01*
X231512650Y-50589395D01*
X231510133Y-50580803D01*
X231512405Y-50575042D01*
X232010092Y-49911785D01*
X232017798Y-49907225D01*
X232026472Y-49909450D01*
G37*
%TD.AperFunction*%
%TD*%
%TA.AperFunction,Conductor*%
%TO.N,Net-(R13-Pad2)*%
G36*
X232117210Y-50693146D02*
G01*
X232120570Y-50700173D01*
X232172050Y-51180872D01*
X232169524Y-51189463D01*
X232162737Y-51193586D01*
X231883739Y-51250030D01*
X231874951Y-51248311D01*
X231874892Y-51248272D01*
X231639646Y-51090143D01*
X231634692Y-51082684D01*
X231636463Y-51073906D01*
X231636738Y-51073514D01*
X231915943Y-50694480D01*
X231923609Y-50689851D01*
X231925363Y-50689719D01*
X232108937Y-50689719D01*
X232117210Y-50693146D01*
G37*
%TD.AperFunction*%
%TD*%
%TA.AperFunction,Conductor*%
%TO.N,Net-(R14-Pad2)*%
G36*
X233668972Y-49909450D02*
G01*
X233671308Y-49911786D01*
X234168992Y-50575039D01*
X234171217Y-50583713D01*
X234168748Y-50589397D01*
X233765462Y-51090449D01*
X233757606Y-51094745D01*
X233756348Y-51094813D01*
X233567552Y-51094813D01*
X233559279Y-51091386D01*
X233558438Y-51090449D01*
X233400286Y-50893958D01*
X233155150Y-50589395D01*
X233152633Y-50580803D01*
X233154905Y-50575042D01*
X233652592Y-49911785D01*
X233660298Y-49907225D01*
X233668972Y-49909450D01*
G37*
%TD.AperFunction*%
%TD*%
%TA.AperFunction,Conductor*%
%TO.N,Net-(R14-Pad2)*%
G36*
X233761526Y-50659191D02*
G01*
X233764457Y-50664092D01*
X233919485Y-51179178D01*
X233918587Y-51188088D01*
X233911653Y-51193754D01*
X233910601Y-51194018D01*
X233633739Y-51250030D01*
X233624951Y-51248311D01*
X233624892Y-51248272D01*
X233387541Y-51088728D01*
X233382587Y-51081269D01*
X233383306Y-51074428D01*
X233558917Y-50662871D01*
X233565316Y-50656608D01*
X233569678Y-50655764D01*
X233753253Y-50655764D01*
X233761526Y-50659191D01*
G37*
%TD.AperFunction*%
%TD*%
%TA.AperFunction,Conductor*%
%TO.N,Net-(R18-Pad1)*%
G36*
X227098999Y-38599778D02*
G01*
X227101805Y-38602449D01*
X227598947Y-39264980D01*
X227601172Y-39273654D01*
X227598646Y-39279409D01*
X227278641Y-39670707D01*
X227270751Y-39674942D01*
X227269584Y-39675000D01*
X227079639Y-39675000D01*
X227071787Y-39671974D01*
X226637804Y-39279126D01*
X226633970Y-39271033D01*
X226635962Y-39263901D01*
X227082754Y-38602918D01*
X227090226Y-38597984D01*
X227098999Y-38599778D01*
G37*
%TD.AperFunction*%
%TD*%
%TA.AperFunction,Conductor*%
%TO.N,Net-(R18-Pad1)*%
G36*
X227274296Y-39084221D02*
G01*
X227277365Y-39089622D01*
X227407751Y-39604568D01*
X227406460Y-39613429D01*
X227399281Y-39618782D01*
X227398729Y-39618908D01*
X227121319Y-39675030D01*
X227112531Y-39673311D01*
X227112472Y-39673272D01*
X226875535Y-39514006D01*
X226870581Y-39506547D01*
X226871540Y-39499180D01*
X227031978Y-39169473D01*
X227071928Y-39087375D01*
X227078630Y-39081435D01*
X227082449Y-39080794D01*
X227266023Y-39080794D01*
X227274296Y-39084221D01*
G37*
%TD.AperFunction*%
%TD*%
%TA.AperFunction,Conductor*%
%TO.N,Net-(R19-Pad1)*%
G36*
X228740778Y-38600374D02*
G01*
X228743569Y-38603361D01*
X229172388Y-39263834D01*
X229174019Y-39272639D01*
X229170303Y-39278989D01*
X228723491Y-39672084D01*
X228715763Y-39675000D01*
X228526071Y-39675000D01*
X228517798Y-39671573D01*
X228516669Y-39670263D01*
X228227140Y-39279321D01*
X228224970Y-39270633D01*
X228227182Y-39265339D01*
X228724399Y-38602709D01*
X228732104Y-38598149D01*
X228740778Y-38600374D01*
G37*
%TD.AperFunction*%
%TD*%
%TA.AperFunction,Conductor*%
%TO.N,Net-(R19-Pad1)*%
G36*
X228720247Y-39084191D02*
G01*
X228722973Y-39088476D01*
X228909785Y-39603709D01*
X228909384Y-39612655D01*
X228902774Y-39618696D01*
X228901106Y-39619165D01*
X228622497Y-39675530D01*
X228617857Y-39675530D01*
X228339247Y-39619165D01*
X228331818Y-39614165D01*
X228330099Y-39605377D01*
X228330564Y-39603720D01*
X228517381Y-39088476D01*
X228523422Y-39081866D01*
X228528380Y-39080764D01*
X228711974Y-39080764D01*
X228720247Y-39084191D01*
G37*
%TD.AperFunction*%
%TD*%
%TA.AperFunction,Conductor*%
%TO.N,Net-(R20-Pad1)*%
G36*
X232025962Y-38600129D02*
G01*
X232028641Y-38602946D01*
X232473312Y-39262417D01*
X232475096Y-39271192D01*
X232470152Y-39278659D01*
X232469958Y-39278787D01*
X232046733Y-39552079D01*
X232040386Y-39553950D01*
X231848082Y-39553950D01*
X231840578Y-39551226D01*
X231515466Y-39279432D01*
X231511316Y-39271497D01*
X231513611Y-39263435D01*
X232009583Y-38602464D01*
X232017288Y-38597904D01*
X232025962Y-38600129D01*
G37*
%TD.AperFunction*%
%TD*%
%TA.AperFunction,Conductor*%
%TO.N,Net-(R20-Pad1)*%
G36*
X232043906Y-38963141D02*
G01*
X232046632Y-38967426D01*
X232233444Y-39482659D01*
X232233043Y-39491605D01*
X232226433Y-39497646D01*
X232224765Y-39498115D01*
X231946156Y-39554480D01*
X231941516Y-39554480D01*
X231662906Y-39498115D01*
X231655477Y-39493115D01*
X231653758Y-39484327D01*
X231654223Y-39482670D01*
X231841040Y-38967426D01*
X231847081Y-38960816D01*
X231852039Y-38959714D01*
X232035633Y-38959714D01*
X232043906Y-38963141D01*
G37*
%TD.AperFunction*%
%TD*%
%TA.AperFunction,Conductor*%
%TO.N,Net-(R21-Pad1)*%
G36*
X233668788Y-38599694D02*
G01*
X233671253Y-38602204D01*
X234147873Y-39262484D01*
X234149936Y-39271198D01*
X234145234Y-39278819D01*
X234144893Y-39279055D01*
X233737087Y-39551973D01*
X233730580Y-39553950D01*
X233537958Y-39553950D01*
X233531046Y-39551690D01*
X233159001Y-39279305D01*
X233154350Y-39271653D01*
X233156473Y-39262953D01*
X233652409Y-38602028D01*
X233660114Y-38597469D01*
X233668788Y-38599694D01*
G37*
%TD.AperFunction*%
%TD*%
%TA.AperFunction,Conductor*%
%TO.N,Net-(R21-Pad1)*%
G36*
X233734203Y-38963141D02*
G01*
X233736929Y-38967426D01*
X233923741Y-39482659D01*
X233923340Y-39491605D01*
X233916730Y-39497646D01*
X233915062Y-39498115D01*
X233636453Y-39554480D01*
X233631813Y-39554480D01*
X233353203Y-39498115D01*
X233345774Y-39493115D01*
X233344055Y-39484327D01*
X233344520Y-39482670D01*
X233531337Y-38967426D01*
X233537378Y-38960816D01*
X233542336Y-38959714D01*
X233725930Y-38959714D01*
X233734203Y-38963141D01*
G37*
%TD.AperFunction*%
%TD*%
%TA.AperFunction,Conductor*%
%TO.N,Net-(R35-Pad2)*%
G36*
X210186481Y-49909574D02*
G01*
X210189004Y-49912048D01*
X210686742Y-50575373D01*
X210688967Y-50584047D01*
X210686822Y-50589310D01*
X210319956Y-51090028D01*
X210312302Y-51094676D01*
X210310518Y-51094813D01*
X210121918Y-51094813D01*
X210113645Y-51091386D01*
X210112943Y-51090619D01*
X209882079Y-50814567D01*
X209693669Y-50589280D01*
X209690991Y-50580736D01*
X209693148Y-50574942D01*
X210170150Y-49912234D01*
X210177764Y-49907522D01*
X210186481Y-49909574D01*
G37*
%TD.AperFunction*%
%TD*%
%TA.AperFunction,Conductor*%
%TO.N,Net-(R35-Pad2)*%
G36*
X210316520Y-50530241D02*
G01*
X210319246Y-50534526D01*
X210506058Y-51049759D01*
X210505657Y-51058705D01*
X210499047Y-51064746D01*
X210497379Y-51065215D01*
X210218770Y-51121580D01*
X210214130Y-51121580D01*
X209935520Y-51065215D01*
X209928091Y-51060215D01*
X209926372Y-51051427D01*
X209926837Y-51049770D01*
X210113654Y-50534526D01*
X210119695Y-50527916D01*
X210124653Y-50526814D01*
X210308247Y-50526814D01*
X210316520Y-50530241D01*
G37*
%TD.AperFunction*%
%TD*%
%TA.AperFunction,Conductor*%
%TO.N,Net-(R36-Pad1)*%
G36*
X211828179Y-38600506D02*
G01*
X211831028Y-38603583D01*
X212250113Y-39262251D01*
X212251663Y-39271071D01*
X212246523Y-39278403D01*
X212246334Y-39278521D01*
X211810482Y-39544339D01*
X211804390Y-39546050D01*
X211612232Y-39546050D01*
X211604320Y-39542969D01*
X211317256Y-39279478D01*
X211313479Y-39271359D01*
X211315810Y-39263837D01*
X211317000Y-39262251D01*
X211811800Y-38602841D01*
X211819505Y-38598281D01*
X211828179Y-38600506D01*
G37*
%TD.AperFunction*%
%TD*%
%TA.AperFunction,Conductor*%
%TO.N,Net-(R36-Pad1)*%
G36*
X211807747Y-38955241D02*
G01*
X211810473Y-38959526D01*
X211997285Y-39474759D01*
X211996884Y-39483705D01*
X211990274Y-39489746D01*
X211988606Y-39490215D01*
X211709997Y-39546580D01*
X211705357Y-39546580D01*
X211426747Y-39490215D01*
X211419318Y-39485215D01*
X211417599Y-39476427D01*
X211418064Y-39474770D01*
X211604881Y-38959526D01*
X211610922Y-38952916D01*
X211615880Y-38951814D01*
X211799474Y-38951814D01*
X211807747Y-38955241D01*
G37*
%TD.AperFunction*%
%TD*%
%TA.AperFunction,Conductor*%
%TO.N,Net-(R37-Pad2)*%
G36*
X211828395Y-49910218D02*
G01*
X211831115Y-49913097D01*
X212271150Y-50574767D01*
X212272878Y-50583554D01*
X212270117Y-50589058D01*
X211819937Y-51090925D01*
X211811862Y-51094796D01*
X211811228Y-51094813D01*
X211623080Y-51094813D01*
X211614807Y-51091386D01*
X211613043Y-51089125D01*
X211313490Y-50589057D01*
X211312178Y-50580199D01*
X211314167Y-50576025D01*
X211812016Y-49912553D01*
X211819721Y-49907993D01*
X211828395Y-49910218D01*
G37*
%TD.AperFunction*%
%TD*%
%TA.AperFunction,Conductor*%
%TO.N,Net-(R37-Pad2)*%
G36*
X211816520Y-50530241D02*
G01*
X211819246Y-50534526D01*
X212006058Y-51049759D01*
X212005657Y-51058705D01*
X211999047Y-51064746D01*
X211997379Y-51065215D01*
X211718770Y-51121580D01*
X211714130Y-51121580D01*
X211435520Y-51065215D01*
X211428091Y-51060215D01*
X211426372Y-51051427D01*
X211426837Y-51049770D01*
X211613654Y-50534526D01*
X211619695Y-50527916D01*
X211624653Y-50526814D01*
X211808247Y-50526814D01*
X211816520Y-50530241D01*
G37*
%TD.AperFunction*%
%TD*%
%TA.AperFunction,Conductor*%
%TO.N,Net-(R38-Pad1)*%
G36*
X215113380Y-38600239D02*
G01*
X215116110Y-38603132D01*
X215551481Y-39259847D01*
X215553196Y-39268636D01*
X215548194Y-39276064D01*
X215545657Y-39277333D01*
X215133241Y-39424321D01*
X215129313Y-39425000D01*
X214933865Y-39425000D01*
X214929035Y-39423957D01*
X214607728Y-39278331D01*
X214601607Y-39271794D01*
X214601901Y-39262844D01*
X214603200Y-39260652D01*
X215097000Y-38602575D01*
X215104706Y-38598014D01*
X215113380Y-38600239D01*
G37*
%TD.AperFunction*%
%TD*%
%TA.AperFunction,Conductor*%
%TO.N,Net-(R38-Pad1)*%
G36*
X215131406Y-38834191D02*
G01*
X215134132Y-38838476D01*
X215320944Y-39353709D01*
X215320543Y-39362655D01*
X215313933Y-39368696D01*
X215312265Y-39369165D01*
X215033656Y-39425530D01*
X215029016Y-39425530D01*
X214750406Y-39369165D01*
X214742977Y-39364165D01*
X214741258Y-39355377D01*
X214741723Y-39353720D01*
X214928540Y-38838476D01*
X214934581Y-38831866D01*
X214939539Y-38830764D01*
X215123133Y-38830764D01*
X215131406Y-38834191D01*
G37*
%TD.AperFunction*%
%TD*%
%TA.AperFunction,Conductor*%
%TO.N,Net-(R40-Pad1)*%
G36*
X216756260Y-38599732D02*
G01*
X216758744Y-38602269D01*
X217230515Y-39259792D01*
X217232554Y-39268512D01*
X217227830Y-39276119D01*
X217225024Y-39277602D01*
X216823579Y-39424289D01*
X216819564Y-39425000D01*
X216623870Y-39425000D01*
X216619554Y-39424175D01*
X216251182Y-39277962D01*
X216244756Y-39271724D01*
X216244623Y-39262771D01*
X216246138Y-39260067D01*
X216739880Y-38602067D01*
X216747586Y-38597507D01*
X216756260Y-38599732D01*
G37*
%TD.AperFunction*%
%TD*%
%TA.AperFunction,Conductor*%
%TO.N,Net-(R40-Pad1)*%
G36*
X216821703Y-38834191D02*
G01*
X216824429Y-38838476D01*
X217011241Y-39353709D01*
X217010840Y-39362655D01*
X217004230Y-39368696D01*
X217002562Y-39369165D01*
X216723953Y-39425530D01*
X216719313Y-39425530D01*
X216440703Y-39369165D01*
X216433274Y-39364165D01*
X216431555Y-39355377D01*
X216432020Y-39353720D01*
X216618837Y-38838476D01*
X216624878Y-38831866D01*
X216629836Y-38830764D01*
X216813430Y-38830764D01*
X216821703Y-38834191D01*
G37*
%TD.AperFunction*%
%TD*%
%TA.AperFunction,Conductor*%
%TO.N,/Supp_Batt_Isns*%
G36*
X204907551Y-37936112D02*
G01*
X205037371Y-38065932D01*
X205040798Y-38074205D01*
X205039696Y-38079163D01*
X204958054Y-38253682D01*
X204955729Y-38256997D01*
X204934771Y-38277955D01*
X204868879Y-38392082D01*
X204868877Y-38392086D01*
X204836392Y-38513323D01*
X204835689Y-38515253D01*
X204807467Y-38575583D01*
X204800857Y-38581624D01*
X204791911Y-38581223D01*
X204790401Y-38580374D01*
X204553539Y-38423225D01*
X204550258Y-38419944D01*
X204393109Y-38183082D01*
X204391390Y-38174294D01*
X204396390Y-38166865D01*
X204397895Y-38166018D01*
X204894322Y-37933786D01*
X204903266Y-37933386D01*
X204907551Y-37936112D01*
G37*
%TD.AperFunction*%
%TD*%
%TA.AperFunction,Conductor*%
%TO.N,/Supp_Batt_Isns*%
G36*
X212501358Y-32299886D02*
G01*
X212894336Y-32752328D01*
X212897174Y-32760821D01*
X212894336Y-32767672D01*
X212501358Y-33220113D01*
X212493346Y-33224112D01*
X212485975Y-33222136D01*
X211955150Y-32863479D01*
X211950213Y-32856007D01*
X211950000Y-32853784D01*
X211950000Y-32666215D01*
X211953427Y-32657942D01*
X211955147Y-32656521D01*
X212485976Y-32297862D01*
X212494748Y-32296071D01*
X212501358Y-32299886D01*
G37*
%TD.AperFunction*%
%TD*%
%TA.AperFunction,Conductor*%
%TO.N,/Supp_Batt_Isns*%
G36*
X210814863Y-31923364D02*
G01*
X212224485Y-32656722D01*
X212230243Y-32663580D01*
X212230785Y-32667101D01*
X212230785Y-32852808D01*
X212227358Y-32861081D01*
X212224369Y-32863247D01*
X210814813Y-33576790D01*
X210805884Y-33577469D01*
X210799806Y-33572859D01*
X210322632Y-32860000D01*
X210253355Y-32756507D01*
X210251602Y-32747727D01*
X210253356Y-32743492D01*
X210304491Y-32667101D01*
X210799743Y-31927234D01*
X210807191Y-31922267D01*
X210814863Y-31923364D01*
G37*
%TD.AperFunction*%
%TD*%
%TA.AperFunction,Conductor*%
%TO.N,/Supp_Batt_Isns*%
G36*
X214407007Y-32814243D02*
G01*
X214729680Y-33055680D01*
X214848624Y-33144679D01*
X214853196Y-33152379D01*
X214851761Y-33159873D01*
X214503373Y-33766626D01*
X214496282Y-33772094D01*
X214493227Y-33772500D01*
X214306773Y-33772500D01*
X214298500Y-33769073D01*
X214296627Y-33766626D01*
X213948237Y-33159871D01*
X213947090Y-33150992D01*
X213951374Y-33144680D01*
X214392991Y-32814243D01*
X214401668Y-32812031D01*
X214407007Y-32814243D01*
G37*
%TD.AperFunction*%
%TD*%
%TA.AperFunction,Conductor*%
%TO.N,/Supp_Batt_Isns*%
G36*
X213323377Y-32312612D02*
G01*
X213845347Y-32706489D01*
X213849887Y-32714206D01*
X213850000Y-32715827D01*
X213850000Y-32903316D01*
X213846573Y-32911589D01*
X213844243Y-32913394D01*
X213274160Y-33249548D01*
X213265293Y-33250799D01*
X213258811Y-33246428D01*
X212904735Y-32767753D01*
X212902570Y-32759064D01*
X212905513Y-32752892D01*
X213307709Y-32314044D01*
X213315822Y-32310263D01*
X213323377Y-32312612D01*
G37*
%TD.AperFunction*%
%TD*%
%TA.AperFunction,Conductor*%
%TO.N,/Supp_Batt_Isns*%
G36*
X214077843Y-32349458D02*
G01*
X214396284Y-32803280D01*
X214398231Y-32812020D01*
X214396284Y-32816720D01*
X214077843Y-33270541D01*
X214070286Y-33275345D01*
X214062289Y-33273879D01*
X213455723Y-32913401D01*
X213450361Y-32906228D01*
X213450000Y-32903343D01*
X213450000Y-32716656D01*
X213453427Y-32708383D01*
X213455718Y-32706601D01*
X214062289Y-32346119D01*
X214071151Y-32344839D01*
X214077843Y-32349458D01*
G37*
%TD.AperFunction*%
%TD*%
%TA.AperFunction,Conductor*%
%TO.N,/Supp_Reg_Isns*%
G36*
X225351127Y-33022642D02*
G01*
X225353263Y-33025573D01*
X226076712Y-34435160D01*
X226077441Y-34444085D01*
X226072811Y-34450225D01*
X225256508Y-34996643D01*
X225247727Y-34998397D01*
X225243492Y-34996643D01*
X224427188Y-34450225D01*
X224422219Y-34442775D01*
X224423286Y-34435161D01*
X225146737Y-33025573D01*
X225153563Y-33019777D01*
X225157146Y-33019215D01*
X225342854Y-33019215D01*
X225351127Y-33022642D01*
G37*
%TD.AperFunction*%
%TD*%
%TA.AperFunction,Conductor*%
%TO.N,/Supp_Reg_Isns*%
G36*
X225158845Y-32516586D02*
G01*
X225600487Y-32895369D01*
X225604536Y-32903356D01*
X225603683Y-32908719D01*
X225352989Y-33515269D01*
X225346662Y-33521606D01*
X225342176Y-33522500D01*
X225155876Y-33522500D01*
X225147603Y-33519073D01*
X225146491Y-33517787D01*
X224750171Y-32985471D01*
X224747979Y-32976789D01*
X224750704Y-32970833D01*
X225142379Y-32517813D01*
X225150381Y-32513798D01*
X225158845Y-32516586D01*
G37*
%TD.AperFunction*%
%TD*%
%TA.AperFunction,Conductor*%
%TO.N,/Supp_Reg_Isns*%
G36*
X223657007Y-32564243D02*
G01*
X223979680Y-32805680D01*
X224098624Y-32894679D01*
X224103196Y-32902379D01*
X224101761Y-32909873D01*
X223753373Y-33516626D01*
X223746282Y-33522094D01*
X223743227Y-33522500D01*
X223556773Y-33522500D01*
X223548500Y-33519073D01*
X223546627Y-33516626D01*
X223198237Y-32909871D01*
X223197090Y-32900992D01*
X223201374Y-32894680D01*
X223642991Y-32564243D01*
X223651668Y-32562031D01*
X223657007Y-32564243D01*
G37*
%TD.AperFunction*%
%TD*%
%TA.AperFunction,Conductor*%
%TO.N,/Supp_Reg_Isns*%
G36*
X224742289Y-32064045D02*
G01*
X225101957Y-32456488D01*
X225144484Y-32502890D01*
X225147547Y-32511304D01*
X225145264Y-32517753D01*
X224791187Y-32996428D01*
X224783512Y-33001041D01*
X224775838Y-32999548D01*
X224205757Y-32663394D01*
X224200371Y-32656240D01*
X224200000Y-32653316D01*
X224200000Y-32465827D01*
X224203427Y-32457554D01*
X224204645Y-32456494D01*
X224726622Y-32062612D01*
X224735288Y-32060365D01*
X224742289Y-32064045D01*
G37*
%TD.AperFunction*%
%TD*%
%TA.AperFunction,Conductor*%
%TO.N,/Supp_Reg_Isns*%
G36*
X223987710Y-32096120D02*
G01*
X223993327Y-32099458D01*
X224594278Y-32456599D01*
X224599639Y-32463771D01*
X224600000Y-32466656D01*
X224600000Y-32653343D01*
X224596573Y-32661616D01*
X224594277Y-32663401D01*
X223987710Y-33023879D01*
X223978848Y-33025160D01*
X223972156Y-33020541D01*
X223721555Y-32663401D01*
X223653714Y-32566719D01*
X223651768Y-32557980D01*
X223653715Y-32553280D01*
X223714498Y-32466656D01*
X223972157Y-32099457D01*
X223979713Y-32094654D01*
X223987710Y-32096120D01*
G37*
%TD.AperFunction*%
%TD*%
%TA.AperFunction,Conductor*%
%TO.N,/Supp_Reg_Isns*%
G36*
X205690548Y-38100173D02*
G01*
X205820368Y-38229993D01*
X205823795Y-38238266D01*
X205822693Y-38243224D01*
X205590464Y-38739644D01*
X205583854Y-38745685D01*
X205574908Y-38745284D01*
X205573398Y-38744435D01*
X205336536Y-38587286D01*
X205333255Y-38584005D01*
X205176106Y-38347143D01*
X205174387Y-38338355D01*
X205179387Y-38330926D01*
X205180892Y-38330079D01*
X205677319Y-38097847D01*
X205686263Y-38097447D01*
X205690548Y-38100173D01*
G37*
%TD.AperFunction*%
%TD*%
%TA.AperFunction,Conductor*%
%TO.N,/Supp_Batt_I*%
G36*
X215580581Y-31890087D02*
G01*
X216503484Y-32013003D01*
X216511231Y-32017492D01*
X216513536Y-32026146D01*
X216509047Y-32033894D01*
X216505942Y-32035595D01*
X215727274Y-32319171D01*
X215722582Y-32319857D01*
X215438018Y-32303104D01*
X215430433Y-32299697D01*
X215300593Y-32169857D01*
X215297166Y-32161584D01*
X215300593Y-32153311D01*
X215300755Y-32153152D01*
X215570936Y-31893253D01*
X215579272Y-31889988D01*
X215580581Y-31890087D01*
G37*
%TD.AperFunction*%
%TD*%
%TA.AperFunction,Conductor*%
%TO.N,/Supp_Reg_I*%
G36*
X221508258Y-33297285D02*
G01*
X221794057Y-33584037D01*
X221797470Y-33592315D01*
X221796235Y-33597528D01*
X221653234Y-33883532D01*
X221646469Y-33889400D01*
X221642769Y-33890000D01*
X221357231Y-33890000D01*
X221348958Y-33886573D01*
X221346766Y-33883532D01*
X221203764Y-33597528D01*
X221203129Y-33588596D01*
X221205940Y-33584040D01*
X221491714Y-33297313D01*
X221499981Y-33293873D01*
X221508258Y-33297285D01*
G37*
%TD.AperFunction*%
%TD*%
%TA.AperFunction,Conductor*%
%TO.N,/SuppReg_Vsns*%
G36*
X206537363Y-29641484D02*
G01*
X206544872Y-29644209D01*
X207349997Y-29936402D01*
X207356605Y-29942445D01*
X207357358Y-29950231D01*
X207227138Y-30472466D01*
X207221812Y-30479664D01*
X207220235Y-30480456D01*
X206760886Y-30669319D01*
X206751931Y-30669296D01*
X206745616Y-30662947D01*
X206745589Y-30662882D01*
X206391845Y-29787543D01*
X206391923Y-29778590D01*
X206394417Y-29774891D01*
X206525100Y-29644208D01*
X206533372Y-29640782D01*
X206537363Y-29641484D01*
G37*
%TD.AperFunction*%
%TD*%
%TA.AperFunction,Conductor*%
%TO.N,/SuppReg_Vsns*%
G36*
X205729345Y-27808688D02*
G01*
X205733975Y-27814828D01*
X206219148Y-29323113D01*
X206218419Y-29332038D01*
X206216283Y-29334969D01*
X206084969Y-29466283D01*
X206076696Y-29469710D01*
X206073113Y-29469148D01*
X204564828Y-28983975D01*
X204558002Y-28978179D01*
X204556934Y-28970564D01*
X204747771Y-28006973D01*
X204752740Y-27999525D01*
X204756972Y-27997772D01*
X205720564Y-27806934D01*
X205729345Y-27808688D01*
G37*
%TD.AperFunction*%
%TD*%
%TA.AperFunction,Conductor*%
%TO.N,/SuppReg_Vsns*%
G36*
X207326500Y-31243427D02*
G01*
X207328373Y-31245874D01*
X207676761Y-31852626D01*
X207677909Y-31861507D01*
X207673624Y-31867820D01*
X207232009Y-32198255D01*
X207223332Y-32200468D01*
X207217991Y-32198255D01*
X206776375Y-31867820D01*
X206771803Y-31860120D01*
X206773237Y-31852629D01*
X207121627Y-31245873D01*
X207128718Y-31240406D01*
X207131773Y-31240000D01*
X207318227Y-31240000D01*
X207326500Y-31243427D01*
G37*
%TD.AperFunction*%
%TD*%
%TA.AperFunction,Conductor*%
%TO.N,/SuppReg_Vsns*%
G36*
X207232615Y-30483031D02*
G01*
X207674568Y-30862080D01*
X207678617Y-30870067D01*
X207677097Y-30876787D01*
X207328373Y-31484126D01*
X207321282Y-31489594D01*
X207318227Y-31490000D01*
X207131773Y-31490000D01*
X207123500Y-31486573D01*
X207121627Y-31484126D01*
X206772902Y-30876787D01*
X206771754Y-30867906D01*
X206775429Y-30862083D01*
X207217384Y-30483031D01*
X207225894Y-30480247D01*
X207232615Y-30483031D01*
G37*
%TD.AperFunction*%
%TD*%
%TA.AperFunction,Conductor*%
%TO.N,/SuppReg_Vsns*%
G36*
X207232439Y-32210199D02*
G01*
X207232705Y-32210464D01*
X207622402Y-32612155D01*
X207625703Y-32620479D01*
X207622265Y-32628587D01*
X207320704Y-32929296D01*
X207188539Y-33061460D01*
X207180266Y-33064887D01*
X207171993Y-33061460D01*
X207171125Y-33060490D01*
X206825982Y-32628474D01*
X206823496Y-32619873D01*
X206826710Y-32613043D01*
X207215896Y-32210478D01*
X207224109Y-32206913D01*
X207232439Y-32210199D01*
G37*
%TD.AperFunction*%
%TD*%
%TA.AperFunction,Conductor*%
%TO.N,/Supp_Batt_Vsns*%
G36*
X198343296Y-28756824D02*
G01*
X198670325Y-29198279D01*
X198672496Y-29206967D01*
X198668364Y-29214274D01*
X198103240Y-29679925D01*
X198095800Y-29682595D01*
X197910889Y-29682595D01*
X197902616Y-29679168D01*
X197899219Y-29671734D01*
X197865804Y-29207208D01*
X197850566Y-28995376D01*
X197853391Y-28986881D01*
X197857092Y-28984030D01*
X198328753Y-28753278D01*
X198337691Y-28752722D01*
X198343296Y-28756824D01*
G37*
%TD.AperFunction*%
%TD*%
%TA.AperFunction,Conductor*%
%TO.N,/Supp_Batt_Vsns*%
G36*
X198101500Y-29378427D02*
G01*
X198103373Y-29380874D01*
X198452097Y-29988212D01*
X198453245Y-29997093D01*
X198449568Y-30002919D01*
X198007617Y-30381967D01*
X197999106Y-30384752D01*
X197992383Y-30381967D01*
X197550431Y-30002919D01*
X197546382Y-29994932D01*
X197547901Y-29988214D01*
X197896627Y-29380873D01*
X197903718Y-29375406D01*
X197906773Y-29375000D01*
X198093227Y-29375000D01*
X198101500Y-29378427D01*
G37*
%TD.AperFunction*%
%TD*%
%TA.AperFunction,Conductor*%
%TO.N,/Supp_Batt_Vsns*%
G36*
X197601358Y-29927386D02*
G01*
X197994336Y-30379828D01*
X197997174Y-30388321D01*
X197994336Y-30395172D01*
X197601358Y-30847613D01*
X197593346Y-30851612D01*
X197585975Y-30849636D01*
X197055150Y-30490979D01*
X197050213Y-30483507D01*
X197050000Y-30481284D01*
X197050000Y-30293715D01*
X197053427Y-30285442D01*
X197055147Y-30284021D01*
X197585976Y-29925362D01*
X197594748Y-29923571D01*
X197601358Y-29927386D01*
G37*
%TD.AperFunction*%
%TD*%
%TA.AperFunction,Conductor*%
%TO.N,/Supp_Batt_Vsns*%
G36*
X196064522Y-29672417D02*
G01*
X197473747Y-30284443D01*
X197479969Y-30290881D01*
X197480785Y-30295174D01*
X197480785Y-30480830D01*
X197477358Y-30489103D01*
X197475047Y-30490897D01*
X196065096Y-31325828D01*
X196056231Y-31327095D01*
X196049411Y-31322269D01*
X195503356Y-30506508D01*
X195501602Y-30497727D01*
X195503356Y-30493492D01*
X195511832Y-30480830D01*
X196050140Y-29676640D01*
X196057589Y-29671673D01*
X196064522Y-29672417D01*
G37*
%TD.AperFunction*%
%TD*%
%TA.AperFunction,Conductor*%
%TO.N,/~{SRCLR}*%
G36*
X219187655Y-45460792D02*
G01*
X219193696Y-45467402D01*
X219194165Y-45469070D01*
X219250530Y-45747680D01*
X219250530Y-45752320D01*
X219194165Y-46030929D01*
X219189165Y-46038358D01*
X219180377Y-46040077D01*
X219178709Y-46039608D01*
X218663476Y-45852796D01*
X218656866Y-45846755D01*
X218655764Y-45841797D01*
X218655764Y-45662200D01*
X218659191Y-45653927D01*
X218667464Y-45650500D01*
X218715894Y-45650500D01*
X218715894Y-45650499D01*
X218779540Y-45633446D01*
X218843185Y-45616393D01*
X218843189Y-45616391D01*
X218889834Y-45589460D01*
X218957315Y-45550500D01*
X218970912Y-45536902D01*
X218975185Y-45534185D01*
X219178711Y-45460391D01*
X219187655Y-45460792D01*
G37*
%TD.AperFunction*%
%TD*%
%TA.AperFunction,Conductor*%
%TO.N,/~{SRCLR}*%
G36*
X211355277Y-45514902D02*
G01*
X211485097Y-45644722D01*
X211488524Y-45652995D01*
X211487422Y-45657953D01*
X211255193Y-46154373D01*
X211248583Y-46160414D01*
X211239637Y-46160013D01*
X211238127Y-46159164D01*
X211001265Y-46002015D01*
X210997984Y-45998734D01*
X210840835Y-45761872D01*
X210839116Y-45753084D01*
X210844116Y-45745655D01*
X210845621Y-45744808D01*
X211342048Y-45512576D01*
X211350992Y-45512176D01*
X211355277Y-45514902D01*
G37*
%TD.AperFunction*%
%TD*%
%TA.AperFunction,Conductor*%
%TO.N,/~{SRCLR}*%
G36*
X227937655Y-45460792D02*
G01*
X227943696Y-45467402D01*
X227944165Y-45469070D01*
X228000530Y-45747680D01*
X228000530Y-45752320D01*
X227944165Y-46030929D01*
X227939165Y-46038358D01*
X227930377Y-46040077D01*
X227928709Y-46039608D01*
X227413476Y-45852796D01*
X227406866Y-45846755D01*
X227405764Y-45841797D01*
X227405764Y-45658202D01*
X227409191Y-45649929D01*
X227413473Y-45647204D01*
X227928711Y-45460391D01*
X227937655Y-45460792D01*
G37*
%TD.AperFunction*%
%TD*%
%TA.AperFunction,Conductor*%
%TO.N,/~{SRCLR}*%
G36*
X219321282Y-45460389D02*
G01*
X219836525Y-45647204D01*
X219843134Y-45653244D01*
X219844236Y-45658202D01*
X219844236Y-45841797D01*
X219840809Y-45850070D01*
X219836524Y-45852796D01*
X219321290Y-46039608D01*
X219312344Y-46039207D01*
X219306303Y-46032597D01*
X219305837Y-46030939D01*
X219249469Y-45752318D01*
X219249469Y-45747680D01*
X219305835Y-45469067D01*
X219310834Y-45461641D01*
X219319622Y-45459922D01*
X219321282Y-45460389D01*
G37*
%TD.AperFunction*%
%TD*%
%TA.AperFunction,Conductor*%
%TO.N,/~{OE}*%
G36*
X227147005Y-43578460D02*
G01*
X227382239Y-43735011D01*
X227387228Y-43742447D01*
X227387240Y-43742506D01*
X227440694Y-44015908D01*
X227438918Y-44024685D01*
X227432239Y-44029454D01*
X227405959Y-44036495D01*
X227404359Y-44036806D01*
X226928140Y-44095385D01*
X226919511Y-44092994D01*
X226915100Y-44085201D01*
X226915012Y-44083773D01*
X226915012Y-43900590D01*
X226917026Y-43894027D01*
X227010447Y-43756146D01*
X227011840Y-43754460D01*
X227061987Y-43704314D01*
X227127879Y-43590186D01*
X227129222Y-43585170D01*
X227134672Y-43578068D01*
X227143550Y-43576898D01*
X227147005Y-43578460D01*
G37*
%TD.AperFunction*%
%TD*%
%TA.AperFunction,Conductor*%
%TO.N,/~{OE}*%
G36*
X219176319Y-43554808D02*
G01*
X219605779Y-43832957D01*
X219610859Y-43840329D01*
X219609238Y-43849136D01*
X219607691Y-43851049D01*
X219478736Y-43980004D01*
X219473441Y-43983046D01*
X219070531Y-44089077D01*
X219061658Y-44087868D01*
X219056238Y-44080740D01*
X219056087Y-44080087D01*
X219000254Y-43802079D01*
X219001985Y-43793294D01*
X219002018Y-43793244D01*
X219160253Y-43558097D01*
X219167715Y-43553146D01*
X219176319Y-43554808D01*
G37*
%TD.AperFunction*%
%TD*%
%TA.AperFunction,Conductor*%
%TO.N,/~{OE}*%
G36*
X218937655Y-43508793D02*
G01*
X218943696Y-43515403D01*
X218944165Y-43517071D01*
X219000530Y-43795680D01*
X219000530Y-43800320D01*
X218944806Y-44075753D01*
X218939806Y-44083182D01*
X218931018Y-44084901D01*
X218930310Y-44084734D01*
X218894282Y-44075080D01*
X218893331Y-44074781D01*
X218883718Y-44071296D01*
X218881868Y-44070434D01*
X218863417Y-44059781D01*
X218826106Y-44038239D01*
X218826070Y-44038219D01*
X218809627Y-44029690D01*
X218807718Y-44028807D01*
X218790579Y-44021796D01*
X218562063Y-43940120D01*
X218560152Y-43939236D01*
X218551728Y-43934373D01*
X218551727Y-43934372D01*
X218551724Y-43934371D01*
X218551725Y-43934371D01*
X218529231Y-43928344D01*
X218528321Y-43928060D01*
X218498953Y-43917564D01*
X218484974Y-43913124D01*
X218484960Y-43913120D01*
X218483349Y-43912671D01*
X218483301Y-43912658D01*
X218483301Y-43912657D01*
X218480141Y-43911804D01*
X218480136Y-43911803D01*
X218467183Y-43911398D01*
X218464521Y-43911005D01*
X218424436Y-43900265D01*
X218424434Y-43900265D01*
X218417464Y-43900265D01*
X218409191Y-43896838D01*
X218405764Y-43888565D01*
X218405764Y-43706203D01*
X218409191Y-43697930D01*
X218413473Y-43695205D01*
X218928711Y-43508392D01*
X218937655Y-43508793D01*
G37*
%TD.AperFunction*%
%TD*%
%TA.AperFunction,Conductor*%
%TO.N,/~{OE}*%
G36*
X213522017Y-43661124D02*
G01*
X214037260Y-43847939D01*
X214043869Y-43853979D01*
X214044971Y-43858937D01*
X214044971Y-44042532D01*
X214041544Y-44050805D01*
X214037259Y-44053531D01*
X213522025Y-44240343D01*
X213513079Y-44239942D01*
X213507038Y-44233332D01*
X213506572Y-44231674D01*
X213450204Y-43953053D01*
X213450204Y-43948415D01*
X213506570Y-43669802D01*
X213511569Y-43662376D01*
X213520357Y-43660657D01*
X213522017Y-43661124D01*
G37*
%TD.AperFunction*%
%TD*%
%TA.AperFunction,Conductor*%
%TO.N,Net-(U2-QH')*%
G36*
X217794165Y-43130215D02*
G01*
X217797269Y-43132438D01*
X217928395Y-43263564D01*
X217931822Y-43271837D01*
X217931199Y-43275604D01*
X217827945Y-43579262D01*
X217822037Y-43585991D01*
X217814617Y-43586976D01*
X217537427Y-43532636D01*
X217529968Y-43527682D01*
X217528197Y-43523406D01*
X217473857Y-43246216D01*
X217475628Y-43237438D01*
X217481568Y-43232890D01*
X217785231Y-43129634D01*
X217794165Y-43130215D01*
G37*
%TD.AperFunction*%
%TD*%
%TA.AperFunction,Conductor*%
%TO.N,Net-(U4-QH')*%
G36*
X225937655Y-46060792D02*
G01*
X225943696Y-46067402D01*
X225944165Y-46069070D01*
X226000530Y-46347680D01*
X226000530Y-46352320D01*
X225944165Y-46630929D01*
X225939165Y-46638358D01*
X225930377Y-46640077D01*
X225928709Y-46639608D01*
X225413476Y-46452796D01*
X225406866Y-46446755D01*
X225405764Y-46441797D01*
X225405764Y-46258202D01*
X225409191Y-46249929D01*
X225413473Y-46247204D01*
X225928711Y-46060391D01*
X225937655Y-46060792D01*
G37*
%TD.AperFunction*%
%TD*%
%TA.AperFunction,Conductor*%
%TO.N,Net-(U4-QH')*%
G36*
X220426229Y-46256397D02*
G01*
X220821042Y-46497578D01*
X220826316Y-46504815D01*
X220826643Y-46507562D01*
X220826643Y-46691217D01*
X220823216Y-46699490D01*
X220817015Y-46702732D01*
X220319796Y-46792208D01*
X220311047Y-46790301D01*
X220306256Y-46783013D01*
X220290014Y-46702732D01*
X220249969Y-46504789D01*
X220251688Y-46496001D01*
X220410423Y-46259853D01*
X220417880Y-46254901D01*
X220426229Y-46256397D01*
G37*
%TD.AperFunction*%
%TD*%
%TA.AperFunction,Conductor*%
%TO.N,Net-(U5A--)*%
G36*
X216652011Y-30153427D02*
G01*
X216653473Y-30155210D01*
X216844688Y-30442032D01*
X216846426Y-30450817D01*
X216843240Y-30456781D01*
X216558287Y-30742685D01*
X216550019Y-30746126D01*
X216541741Y-30742713D01*
X216541713Y-30742685D01*
X216256759Y-30456781D01*
X216253346Y-30448503D01*
X216255310Y-30442034D01*
X216446527Y-30155210D01*
X216453967Y-30150227D01*
X216456262Y-30150000D01*
X216643738Y-30150000D01*
X216652011Y-30153427D01*
G37*
%TD.AperFunction*%
%TD*%
%TA.AperFunction,Conductor*%
%TO.N,Net-(U5A--)*%
G36*
X216558258Y-29487285D02*
G01*
X216711849Y-29641389D01*
X216843240Y-29773218D01*
X216846653Y-29781496D01*
X216844688Y-29787967D01*
X216653473Y-30074790D01*
X216646033Y-30079773D01*
X216643738Y-30080000D01*
X216456262Y-30080000D01*
X216447989Y-30076573D01*
X216446527Y-30074790D01*
X216255311Y-29787967D01*
X216253573Y-29779182D01*
X216256759Y-29773218D01*
X216541714Y-29487313D01*
X216549981Y-29483873D01*
X216558258Y-29487285D01*
G37*
%TD.AperFunction*%
%TD*%
%TA.AperFunction,Conductor*%
%TO.N,Net-(U5A--)*%
G36*
X215580480Y-30629447D02*
G01*
X216541669Y-30748841D01*
X216549456Y-30753261D01*
X216551875Y-30759362D01*
X216577879Y-31037558D01*
X216575237Y-31046114D01*
X216567319Y-31050296D01*
X216566551Y-31050343D01*
X215316879Y-31084669D01*
X215308515Y-31081470D01*
X215304862Y-31073294D01*
X215304858Y-31072973D01*
X215304858Y-30890028D01*
X215308285Y-30881755D01*
X215308477Y-30881567D01*
X215570990Y-30632569D01*
X215579351Y-30629363D01*
X215580480Y-30629447D01*
G37*
%TD.AperFunction*%
%TD*%
%TA.AperFunction,Conductor*%
%TO.N,Net-(U5A--)*%
G36*
X214737710Y-30521120D02*
G01*
X214743327Y-30524458D01*
X215344278Y-30881599D01*
X215349639Y-30888771D01*
X215350000Y-30891656D01*
X215350000Y-31078343D01*
X215346573Y-31086616D01*
X215344277Y-31088401D01*
X214737710Y-31448879D01*
X214728848Y-31450160D01*
X214722156Y-31445541D01*
X214471555Y-31088401D01*
X214403714Y-30991719D01*
X214401768Y-30982980D01*
X214403715Y-30978280D01*
X214464498Y-30891656D01*
X214722157Y-30524457D01*
X214729713Y-30519654D01*
X214737710Y-30521120D01*
G37*
%TD.AperFunction*%
%TD*%
%TA.AperFunction,Conductor*%
%TO.N,Net-(U6A--)*%
G36*
X200169220Y-28753715D02*
G01*
X200623041Y-29072156D01*
X200627845Y-29079713D01*
X200626379Y-29087710D01*
X200265901Y-29694277D01*
X200258728Y-29699639D01*
X200255843Y-29700000D01*
X200069157Y-29700000D01*
X200060884Y-29696573D01*
X200059099Y-29694277D01*
X199698620Y-29087710D01*
X199697339Y-29078848D01*
X199701957Y-29072157D01*
X200155780Y-28753714D01*
X200164520Y-28751768D01*
X200169220Y-28753715D01*
G37*
%TD.AperFunction*%
%TD*%
%TA.AperFunction,Conductor*%
%TO.N,Net-(U6A--)*%
G36*
X200263083Y-29863427D02*
G01*
X200265550Y-29867058D01*
X200388540Y-30151629D01*
X200388676Y-30160583D01*
X200384924Y-30165552D01*
X200009313Y-30453851D01*
X200000663Y-30456170D01*
X199992908Y-30451694D01*
X199776724Y-30168021D01*
X199774436Y-30159364D01*
X199777644Y-30152772D01*
X200059055Y-29863541D01*
X200067281Y-29860001D01*
X200067441Y-29860000D01*
X200254810Y-29860000D01*
X200263083Y-29863427D01*
G37*
%TD.AperFunction*%
%TD*%
%TA.AperFunction,Conductor*%
%TO.N,Net-(U6A--)*%
G36*
X200102011Y-31133427D02*
G01*
X200103473Y-31135210D01*
X200294688Y-31422032D01*
X200296426Y-31430817D01*
X200293240Y-31436781D01*
X200008287Y-31722685D01*
X200000019Y-31726126D01*
X199991741Y-31722713D01*
X199991713Y-31722685D01*
X199706759Y-31436781D01*
X199703346Y-31428503D01*
X199705310Y-31422034D01*
X199896527Y-31135210D01*
X199903967Y-31130227D01*
X199906262Y-31130000D01*
X200093738Y-31130000D01*
X200102011Y-31133427D01*
G37*
%TD.AperFunction*%
%TD*%
%TA.AperFunction,Conductor*%
%TO.N,Net-(U6A--)*%
G36*
X200008258Y-30467285D02*
G01*
X200161849Y-30621389D01*
X200293240Y-30753218D01*
X200296653Y-30761496D01*
X200294688Y-30767967D01*
X200103473Y-31054790D01*
X200096033Y-31059773D01*
X200093738Y-31060000D01*
X199906262Y-31060000D01*
X199897989Y-31056573D01*
X199896527Y-31054790D01*
X199705311Y-30767967D01*
X199703573Y-30759182D01*
X199706759Y-30753218D01*
X199991714Y-30467313D01*
X199999981Y-30463873D01*
X200008258Y-30467285D01*
G37*
%TD.AperFunction*%
%TD*%
%TA.AperFunction,Conductor*%
%TO.N,Net-(U5B--)*%
G36*
X223327954Y-30274616D02*
G01*
X223646284Y-30728280D01*
X223648231Y-30737020D01*
X223646284Y-30741720D01*
X223327731Y-31195701D01*
X223320174Y-31200505D01*
X223312359Y-31199145D01*
X223152246Y-31107854D01*
X222705905Y-30853366D01*
X222700415Y-30846291D01*
X222700000Y-30843202D01*
X222700000Y-30656521D01*
X222703427Y-30648248D01*
X222705546Y-30646570D01*
X223312225Y-30271384D01*
X223321062Y-30269948D01*
X223327954Y-30274616D01*
G37*
%TD.AperFunction*%
%TD*%
%TA.AperFunction,Conductor*%
%TO.N,Net-(U5B--)*%
G36*
X222386637Y-30463452D02*
G01*
X222768366Y-30646813D01*
X222774340Y-30653484D01*
X222775000Y-30657359D01*
X222775000Y-30842640D01*
X222771573Y-30850913D01*
X222768366Y-30853186D01*
X222386637Y-31036547D01*
X222377938Y-31037123D01*
X221773093Y-30839538D01*
X221533045Y-30761121D01*
X221526246Y-30755295D01*
X221525557Y-30746367D01*
X221531384Y-30739567D01*
X221533044Y-30738878D01*
X222377939Y-30462876D01*
X222386637Y-30463452D01*
G37*
%TD.AperFunction*%
%TD*%
%TA.AperFunction,Conductor*%
%TO.N,Net-(U5B--)*%
G36*
X221508258Y-30757285D02*
G01*
X221661849Y-30911389D01*
X221793240Y-31043218D01*
X221796653Y-31051496D01*
X221794688Y-31057967D01*
X221603473Y-31344790D01*
X221596033Y-31349773D01*
X221593738Y-31350000D01*
X221406262Y-31350000D01*
X221397989Y-31346573D01*
X221396527Y-31344790D01*
X221205311Y-31057967D01*
X221203573Y-31049182D01*
X221206759Y-31043218D01*
X221491714Y-30757313D01*
X221499981Y-30753873D01*
X221508258Y-30757285D01*
G37*
%TD.AperFunction*%
%TD*%
%TA.AperFunction,Conductor*%
%TO.N,Net-(U5B--)*%
G36*
X221602011Y-31423427D02*
G01*
X221603473Y-31425210D01*
X221794688Y-31712032D01*
X221796426Y-31720817D01*
X221793240Y-31726781D01*
X221508287Y-32012685D01*
X221500019Y-32016126D01*
X221491741Y-32012713D01*
X221491713Y-32012685D01*
X221206759Y-31726781D01*
X221203346Y-31718503D01*
X221205310Y-31712034D01*
X221396527Y-31425210D01*
X221403967Y-31420227D01*
X221406262Y-31420000D01*
X221593738Y-31420000D01*
X221602011Y-31423427D01*
G37*
%TD.AperFunction*%
%TD*%
%TA.AperFunction,Conductor*%
%TO.N,Net-(U6B--)*%
G36*
X205839549Y-32715562D02*
G01*
X205839595Y-32715585D01*
X206124547Y-32863861D01*
X206273498Y-32941368D01*
X206279255Y-32948227D01*
X206278476Y-32957148D01*
X206276370Y-32960020D01*
X206147156Y-33089234D01*
X206145136Y-33090850D01*
X205837061Y-33285636D01*
X205828237Y-33287161D01*
X205827166Y-33286866D01*
X204983487Y-33010494D01*
X204976691Y-33004662D01*
X204976010Y-32995733D01*
X204981842Y-32988937D01*
X204983530Y-32988242D01*
X205830625Y-32714842D01*
X205839549Y-32715562D01*
G37*
%TD.AperFunction*%
%TD*%
%TA.AperFunction,Conductor*%
%TO.N,Net-(U6B--)*%
G36*
X204958258Y-31737285D02*
G01*
X205111849Y-31891389D01*
X205243240Y-32023218D01*
X205246653Y-32031496D01*
X205244688Y-32037967D01*
X205053473Y-32324790D01*
X205046033Y-32329773D01*
X205043738Y-32330000D01*
X204856262Y-32330000D01*
X204847989Y-32326573D01*
X204846527Y-32324790D01*
X204655311Y-32037967D01*
X204653573Y-32029182D01*
X204656759Y-32023218D01*
X204941714Y-31737313D01*
X204949981Y-31733873D01*
X204958258Y-31737285D01*
G37*
%TD.AperFunction*%
%TD*%
%TA.AperFunction,Conductor*%
%TO.N,Net-(U6B--)*%
G36*
X205052011Y-32403427D02*
G01*
X205053473Y-32405210D01*
X205244688Y-32692032D01*
X205246426Y-32700817D01*
X205243240Y-32706781D01*
X204958287Y-32992685D01*
X204950019Y-32996126D01*
X204941741Y-32992713D01*
X204941713Y-32992685D01*
X204656759Y-32706781D01*
X204653346Y-32698503D01*
X204655310Y-32692034D01*
X204846527Y-32405210D01*
X204853967Y-32400227D01*
X204856262Y-32400000D01*
X205043738Y-32400000D01*
X205052011Y-32403427D01*
G37*
%TD.AperFunction*%
%TD*%
%TA.AperFunction,Conductor*%
%TO.N,Net-(U6B--)*%
G36*
X206556479Y-33213185D02*
G01*
X206876634Y-33335881D01*
X206880717Y-33338531D01*
X206942686Y-33400500D01*
X206942687Y-33400501D01*
X206942689Y-33400502D01*
X207056811Y-33466391D01*
X207056815Y-33466393D01*
X207157204Y-33493291D01*
X207184105Y-33500499D01*
X207184107Y-33500500D01*
X207304018Y-33500500D01*
X207308204Y-33501274D01*
X207398395Y-33535839D01*
X207404894Y-33541999D01*
X207405160Y-33550881D01*
X207227497Y-34023445D01*
X207221378Y-34029983D01*
X207221003Y-34030145D01*
X206761006Y-34219716D01*
X206752051Y-34219700D01*
X206745731Y-34213357D01*
X206745655Y-34213170D01*
X206410764Y-33359018D01*
X206410935Y-33350065D01*
X206413381Y-33346477D01*
X206544021Y-33215837D01*
X206552293Y-33212411D01*
X206556479Y-33213185D01*
G37*
%TD.AperFunction*%
%TD*%
%TA.AperFunction,Conductor*%
%TO.N,/SRCLK*%
G36*
X211173018Y-44898445D02*
G01*
X211180658Y-44903116D01*
X211182900Y-44910003D01*
X211182900Y-45095310D01*
X211179661Y-45103391D01*
X210997990Y-45293621D01*
X210989798Y-45297237D01*
X210983047Y-45295280D01*
X210747318Y-45138400D01*
X210742329Y-45130964D01*
X210742331Y-45126343D01*
X210798080Y-44850784D01*
X210803079Y-44843358D01*
X210811363Y-44841549D01*
X211173018Y-44898445D01*
G37*
%TD.AperFunction*%
%TD*%
%TA.AperFunction,Conductor*%
%TO.N,/SRCLK*%
G36*
X218489830Y-44910511D02*
G01*
X218491029Y-44912012D01*
X218649681Y-45148036D01*
X218651454Y-45152318D01*
X218705823Y-45430403D01*
X218704047Y-45439180D01*
X218696585Y-45444131D01*
X218694434Y-45444348D01*
X218125744Y-45448905D01*
X218117443Y-45445544D01*
X218113950Y-45437299D01*
X218113950Y-45254047D01*
X218117377Y-45245774D01*
X218117622Y-45245536D01*
X218220981Y-45148036D01*
X218473292Y-44910027D01*
X218481660Y-44906844D01*
X218489830Y-44910511D01*
G37*
%TD.AperFunction*%
%TD*%
%TA.AperFunction,Conductor*%
%TO.N,/SRCLK*%
G36*
X226687655Y-44708792D02*
G01*
X226693696Y-44715402D01*
X226694165Y-44717070D01*
X226750530Y-44995680D01*
X226750530Y-45000320D01*
X226694165Y-45278929D01*
X226689165Y-45286358D01*
X226680377Y-45288077D01*
X226678709Y-45287608D01*
X226163476Y-45100796D01*
X226156866Y-45094755D01*
X226155764Y-45089797D01*
X226155764Y-44906202D01*
X226159191Y-44897929D01*
X226163473Y-44895204D01*
X226678711Y-44708391D01*
X226687655Y-44708792D01*
G37*
%TD.AperFunction*%
%TD*%
%TA.AperFunction,Conductor*%
%TO.N,/SRCLK*%
G36*
X219160229Y-44802868D02*
G01*
X219164455Y-44810763D01*
X219164512Y-44811916D01*
X219164512Y-44994760D01*
X219161795Y-45002256D01*
X218906167Y-45308610D01*
X218898236Y-45312767D01*
X218890702Y-45310854D01*
X218653065Y-45152704D01*
X218648076Y-45145268D01*
X218648064Y-45145209D01*
X218620115Y-45002256D01*
X218593941Y-44868383D01*
X218595717Y-44859607D01*
X218603179Y-44854656D01*
X218604263Y-44854497D01*
X219151659Y-44800273D01*
X219160229Y-44802868D01*
G37*
%TD.AperFunction*%
%TD*%
%TA.AperFunction,Conductor*%
%TO.N,Net-(D1-A)*%
G36*
X221474871Y-53298237D02*
G01*
X222081626Y-53646627D01*
X222087094Y-53653718D01*
X222087500Y-53656773D01*
X222087500Y-53843226D01*
X222084073Y-53851499D01*
X222081626Y-53853372D01*
X221474873Y-54201761D01*
X221465992Y-54202909D01*
X221459679Y-54198624D01*
X221201347Y-53853372D01*
X221129243Y-53757008D01*
X221127031Y-53748332D01*
X221129244Y-53742991D01*
X221198824Y-53650000D01*
X221459680Y-53301374D01*
X221467379Y-53296803D01*
X221474871Y-53298237D01*
G37*
%TD.AperFunction*%
%TD*%
%TA.AperFunction,Conductor*%
%TO.N,Net-(D1-A)*%
G36*
X222635294Y-53320944D02*
G01*
X222958061Y-53742891D01*
X222960366Y-53751545D01*
X222958061Y-53757109D01*
X222635294Y-54179055D01*
X222627546Y-54183544D01*
X222619811Y-54181874D01*
X222615289Y-54179055D01*
X222093010Y-53853435D01*
X222087803Y-53846150D01*
X222087500Y-53843507D01*
X222087500Y-53656492D01*
X222090927Y-53648219D01*
X222093005Y-53646567D01*
X222619813Y-53318124D01*
X222628644Y-53316656D01*
X222635294Y-53320944D01*
G37*
%TD.AperFunction*%
%TD*%
%TA.AperFunction,Conductor*%
%TO.N,/RCLK*%
G36*
X211378750Y-44189832D02*
G01*
X211611262Y-44493854D01*
X211613668Y-44500962D01*
X211613668Y-44684071D01*
X211610241Y-44692344D01*
X211601968Y-44695771D01*
X211600804Y-44695713D01*
X211076911Y-44643315D01*
X211069020Y-44639082D01*
X211066433Y-44630509D01*
X211066592Y-44629428D01*
X211091709Y-44500962D01*
X211120717Y-44352589D01*
X211125667Y-44345130D01*
X211362974Y-44187199D01*
X211371760Y-44185469D01*
X211378750Y-44189832D01*
G37*
%TD.AperFunction*%
%TD*%
%TA.AperFunction,Conductor*%
%TO.N,/RCLK*%
G36*
X218429788Y-44111075D02*
G01*
X218721420Y-44215309D01*
X218723328Y-44216192D01*
X218806811Y-44264392D01*
X218806815Y-44264394D01*
X218894212Y-44287811D01*
X218934105Y-44298500D01*
X218934107Y-44298501D01*
X218941078Y-44298501D01*
X218949351Y-44301928D01*
X218952778Y-44310201D01*
X218952778Y-44489836D01*
X218949351Y-44498109D01*
X218945116Y-44500817D01*
X218429870Y-44690293D01*
X218420923Y-44689932D01*
X218414851Y-44683350D01*
X218414364Y-44681632D01*
X218358011Y-44403083D01*
X218358011Y-44398445D01*
X218375864Y-44310201D01*
X218414389Y-44119773D01*
X218419389Y-44112345D01*
X218428177Y-44110626D01*
X218429788Y-44111075D01*
G37*
%TD.AperFunction*%
%TD*%
%TA.AperFunction,Conductor*%
%TO.N,/RCLK*%
G36*
X227439814Y-44242592D02*
G01*
X227444410Y-44249741D01*
X227500030Y-44524664D01*
X227498311Y-44533452D01*
X227498272Y-44533511D01*
X227340011Y-44768953D01*
X227332552Y-44773907D01*
X227323774Y-44772136D01*
X227323547Y-44771980D01*
X226940918Y-44501496D01*
X226936141Y-44493922D01*
X226935972Y-44491942D01*
X226935972Y-44310667D01*
X226939399Y-44302394D01*
X226946868Y-44298995D01*
X226947695Y-44298937D01*
X226953229Y-44299348D01*
X226967850Y-44297549D01*
X226968161Y-44297528D01*
X226968215Y-44297546D01*
X226968965Y-44297500D01*
X227222075Y-44297500D01*
X227222075Y-44297499D01*
X227260286Y-44287260D01*
X227298498Y-44277022D01*
X227298500Y-44277021D01*
X227340779Y-44252609D01*
X227345190Y-44251132D01*
X227429448Y-44240769D01*
X227431106Y-44240506D01*
X227439814Y-44242592D01*
G37*
%TD.AperFunction*%
%TD*%
%TA.AperFunction,Conductor*%
%TO.N,/RCLK*%
G36*
X218118904Y-44240751D02*
G01*
X218120414Y-44241600D01*
X218357276Y-44398749D01*
X218360557Y-44402030D01*
X218517706Y-44638892D01*
X218519425Y-44647680D01*
X218514425Y-44655109D01*
X218512915Y-44655958D01*
X218016495Y-44888187D01*
X218007549Y-44888588D01*
X218003264Y-44885862D01*
X217873444Y-44756042D01*
X217870017Y-44747769D01*
X217871117Y-44742816D01*
X218103348Y-44246390D01*
X218109958Y-44240350D01*
X218118904Y-44240751D01*
G37*
%TD.AperFunction*%
%TD*%
%TA.AperFunction,Conductor*%
%TO.N,GND*%
G36*
X232561609Y-46721234D02*
G01*
X232249441Y-47166671D01*
X231999293Y-47000707D01*
X231833329Y-46750559D01*
X232278766Y-46438391D01*
X232561609Y-46721234D01*
G37*
%TD.AperFunction*%
%TD*%
%TA.AperFunction,Conductor*%
%TO.N,GND*%
G36*
X224794236Y-53058527D02*
G01*
X224637500Y-53594236D01*
X224437500Y-53594236D01*
X224250559Y-53166671D01*
X224500000Y-52999000D01*
X224794236Y-53058527D01*
G37*
%TD.AperFunction*%
%TD*%
%TA.AperFunction,Conductor*%
%TO.N,GND*%
G36*
X234294236Y-44308527D02*
G01*
X234200000Y-44844236D01*
X233800000Y-44844236D01*
X233705764Y-44308527D01*
X234000000Y-44249000D01*
X234294236Y-44308527D01*
G37*
%TD.AperFunction*%
%TD*%
M02*
