%TF.GenerationSoftware,KiCad,Pcbnew,9.0.6*%
%TF.CreationDate,2026-01-10T12:16:03-06:00*%
%TF.ProjectId,LVMuxPCB,4c564d75-7850-4434-922e-6b696361645f,rev?*%
%TF.SameCoordinates,Original*%
%TF.FileFunction,Copper,L2,Bot*%
%TF.FilePolarity,Positive*%
%FSLAX46Y46*%
G04 Gerber Fmt 4.6, Leading zero omitted, Abs format (unit mm)*
G04 Created by KiCad (PCBNEW 9.0.6) date 2026-01-10 12:16:03*
%MOMM*%
%LPD*%
G01*
G04 APERTURE LIST*
%TA.AperFunction,ComponentPad*%
%ADD10R,1.700000X1.700000*%
%TD*%
%TA.AperFunction,ComponentPad*%
%ADD11C,1.700000*%
%TD*%
%TA.AperFunction,ComponentPad*%
%ADD12C,3.600000*%
%TD*%
%TA.AperFunction,ConnectorPad*%
%ADD13C,6.400000*%
%TD*%
%TA.AperFunction,ComponentPad*%
%ADD14C,1.400000*%
%TD*%
%TA.AperFunction,ComponentPad*%
%ADD15C,3.000000*%
%TD*%
%TA.AperFunction,SMDPad,CuDef*%
%ADD16R,1.500000X0.550000*%
%TD*%
%TA.AperFunction,ViaPad*%
%ADD17C,0.500000*%
%TD*%
%TA.AperFunction,ViaPad*%
%ADD18C,0.600000*%
%TD*%
%TA.AperFunction,Conductor*%
%ADD19C,0.400000*%
%TD*%
%TA.AperFunction,Conductor*%
%ADD20C,0.200000*%
%TD*%
%TA.AperFunction,Conductor*%
%ADD21C,0.300000*%
%TD*%
G04 APERTURE END LIST*
D10*
%TO.P,JP3,1,A*%
%TO.N,GND*%
X188330000Y-62200000D03*
D11*
%TO.P,JP3,2,C*%
%TO.N,/DISABLE1*%
X185790000Y-62200000D03*
%TO.P,JP3,3,B*%
%TO.N,/FAULT1*%
X183250000Y-62200000D03*
%TD*%
D12*
%TO.P,MH2,1,1*%
%TO.N,unconnected-(MH2-Pad1)_2*%
X225900000Y-36600000D03*
D13*
%TO.N,unconnected-(MH2-Pad1)*%
X225900000Y-36600000D03*
%TD*%
D10*
%TO.P,JP9,1,A*%
%TO.N,+3.3V*%
X224150000Y-47730000D03*
D11*
%TO.P,JP9,2,B*%
%TO.N,/UVR2*%
X224150000Y-45190000D03*
%TD*%
D14*
%TO.P,TP20,1,1*%
%TO.N,/GATE1*%
X191000000Y-38500000D03*
%TO.P,TP20,2,2*%
%TO.N,/SOURCE1*%
X193540000Y-38500000D03*
%TD*%
D15*
%TO.P,TP9,1,1*%
%TO.N,/V2*%
X209750000Y-38250000D03*
%TD*%
D10*
%TO.P,JP5,1,A*%
%TO.N,GND*%
X226000000Y-53400000D03*
D11*
%TO.P,JP5,2,B*%
%TO.N,/OV2*%
X223460000Y-53400000D03*
%TD*%
D10*
%TO.P,JP4,1,A*%
%TO.N,GND*%
X171000000Y-53500000D03*
D11*
%TO.P,JP4,2,B*%
%TO.N,/OV1*%
X173540000Y-53500000D03*
%TD*%
D12*
%TO.P,MH3,1,1*%
%TO.N,unconnected-(MH3-Pad1)_2*%
X170900000Y-67600000D03*
D13*
%TO.N,unconnected-(MH3-Pad1)_1*%
X170900000Y-67600000D03*
%TD*%
D15*
%TO.P,TP10,1,1*%
%TO.N,/CPOREF*%
X198500000Y-38250000D03*
%TD*%
D12*
%TO.P,MH1,1,1*%
%TO.N,unconnected-(MH1-Pad1)_1*%
X170900000Y-36600000D03*
D13*
%TO.N,unconnected-(MH1-Pad1)*%
X170900000Y-36600000D03*
%TD*%
D12*
%TO.P,MH4,1,1*%
%TO.N,unconnected-(MH4-Pad1)_1*%
X225900000Y-67600000D03*
D13*
%TO.N,unconnected-(MH4-Pad1)*%
X225900000Y-67600000D03*
%TD*%
D10*
%TO.P,JP8,1,A*%
%TO.N,+3.3V*%
X172750000Y-47790000D03*
D11*
%TO.P,JP8,2,B*%
%TO.N,/UVR1*%
X172750000Y-45250000D03*
%TD*%
D10*
%TO.P,JP6,1,A*%
%TO.N,+3.3V*%
X176600000Y-47790000D03*
D11*
%TO.P,JP6,2,B*%
%TO.N,/UVF1*%
X176600000Y-45250000D03*
%TD*%
D15*
%TO.P,TP11,1,1*%
%TO.N,GND*%
X169750000Y-42000000D03*
%TD*%
D14*
%TO.P,TP21,1,1*%
%TO.N,/GATE2*%
X206000000Y-38500000D03*
%TO.P,TP21,2,2*%
%TO.N,/SOURCE2*%
X203460000Y-38500000D03*
%TD*%
D10*
%TO.P,JP7,1,A*%
%TO.N,+3.3V*%
X220300000Y-47730000D03*
D11*
%TO.P,JP7,2,B*%
%TO.N,/UVF2*%
X220300000Y-45190000D03*
%TD*%
D15*
%TO.P,TP12,1,1*%
%TO.N,/SHDN*%
X202250000Y-66750000D03*
%TD*%
%TO.P,TP8,1,1*%
%TO.N,/V1*%
X187200000Y-38250000D03*
%TD*%
%TO.P,TP1,1,1*%
%TO.N,/INTVCC*%
X190500000Y-66750000D03*
%TD*%
D10*
%TO.P,JP2,1,A*%
%TO.N,GND*%
X202230000Y-61525000D03*
D11*
%TO.P,JP2,2,C*%
%TO.N,/RETRY*%
X199690000Y-61525000D03*
%TO.P,JP2,3,B*%
%TO.N,/INTVCC*%
X197150000Y-61525000D03*
%TD*%
D10*
%TO.P,JP1,1,A*%
%TO.N,GND*%
X208620000Y-62000000D03*
D11*
%TO.P,JP1,2,C*%
%TO.N,/DISABLE2*%
X211160000Y-62000000D03*
%TO.P,JP1,3,B*%
%TO.N,/FAULT2*%
X213700000Y-62000000D03*
%TD*%
D16*
%TO.P,J1,1,1*%
%TO.N,GND*%
X200350000Y-51700000D03*
%TO.P,J1,2,2*%
X196550000Y-51700000D03*
%TO.P,J1,3,3*%
%TO.N,/SHDNOUT*%
X200350000Y-50900000D03*
%TO.P,J1,4,4*%
%TO.N,GND*%
X196550000Y-50900000D03*
%TO.P,J1,5,5*%
%TO.N,/IO_CONN/DIS2_Ctrl*%
X200350000Y-50100000D03*
%TO.P,J1,6,6*%
%TO.N,/IO_CONN/DIS1_Ctrl*%
X196550000Y-50100000D03*
%TO.P,J1,7,7*%
%TO.N,/IO_CONN/FTL2*%
X200350000Y-49300000D03*
%TO.P,J1,8,8*%
%TO.N,/IO_CONN/FTL1*%
X196550000Y-49300000D03*
%TO.P,J1,9,9*%
%TO.N,/IO_CONN/VDL2*%
X200350000Y-48500000D03*
%TO.P,J1,10,10*%
%TO.N,/IO_CONN/VDL1*%
X196550000Y-48500000D03*
%TO.P,J1,11,11*%
%TO.N,/IO_CONN/CHL2*%
X200350000Y-47700000D03*
%TO.P,J1,12,12*%
%TO.N,/IO_CONN/CHL1*%
X196550000Y-47700000D03*
%TO.P,J1,13,13*%
%TO.N,+3.3V*%
X200350000Y-46900000D03*
%TO.P,J1,14,14*%
X196550000Y-46900000D03*
%TO.P,J1,15,15*%
%TO.N,/V2*%
X200350000Y-46100000D03*
%TO.P,J1,16,16*%
%TO.N,/V1*%
X196550000Y-46100000D03*
%TO.P,J1,17,17*%
%TO.N,/GATE2*%
X200350000Y-45300000D03*
%TO.P,J1,18,18*%
%TO.N,/GATE1*%
X196550000Y-45300000D03*
%TO.P,J1,19,19*%
%TO.N,/SOURCE2*%
X200350000Y-44500000D03*
%TO.P,J1,20,20*%
%TO.N,/SOURCE1*%
X196550000Y-44500000D03*
%TO.P,J1,21,21*%
%TO.N,/SENSE2*%
X200350000Y-43700000D03*
%TO.P,J1,22,22*%
%TO.N,/SENSE1*%
X196550000Y-43700000D03*
%TO.P,J1,23,23*%
%TO.N,/OUT2*%
X200350000Y-42900000D03*
%TO.P,J1,24,24*%
%TO.N,/CPOREF*%
X196550000Y-42900000D03*
%TD*%
D17*
%TO.N,GND*%
X202250000Y-60000000D03*
X182500000Y-55250000D03*
X195500000Y-56500000D03*
X187000000Y-55000000D03*
D18*
%TO.N,/IO_CONN/DIS1_Ctrl*%
X187332815Y-53332815D03*
%TO.N,/DISABLE1*%
X192015245Y-54765245D03*
%TO.N,/CPOREF*%
X194875735Y-42924265D03*
%TO.N,GND*%
X217000000Y-51500000D03*
X197500000Y-70100000D03*
X175700000Y-34100000D03*
X196300000Y-70100000D03*
X208500000Y-49750000D03*
X212900000Y-70100000D03*
X209300000Y-70100000D03*
X195100000Y-70100000D03*
X208100000Y-70100000D03*
X201000000Y-70100000D03*
X189100000Y-70100000D03*
X168500000Y-62300000D03*
X168500000Y-48100000D03*
X228200000Y-41000000D03*
X228200000Y-58800000D03*
X220800000Y-34100000D03*
X228200000Y-50400000D03*
X218800000Y-70100000D03*
X193900000Y-70100000D03*
X228200000Y-43400000D03*
X168500000Y-54000000D03*
X191500000Y-70100000D03*
X220000000Y-70100000D03*
X203700000Y-44100000D03*
X199500000Y-52750000D03*
X228200000Y-51600000D03*
X168500000Y-55200000D03*
X198600000Y-70100000D03*
X208500000Y-52250000D03*
X168500000Y-56400000D03*
X198500000Y-56750000D03*
X207000000Y-70100000D03*
X228200000Y-54000000D03*
X210500000Y-70100000D03*
X168500000Y-44500000D03*
X228200000Y-45700000D03*
X228200000Y-56400000D03*
X221200000Y-70100000D03*
X228200000Y-46900000D03*
X168500000Y-58800000D03*
X216799265Y-54700735D03*
X203400000Y-70100000D03*
X211700000Y-70100000D03*
X200000000Y-41500000D03*
X214100000Y-70100000D03*
X205800000Y-70100000D03*
X228200000Y-61100000D03*
X228200000Y-49300000D03*
X168500000Y-51600000D03*
X228200000Y-57600000D03*
X168500000Y-45700000D03*
X228200000Y-55200000D03*
X190300000Y-70100000D03*
X228200000Y-59900000D03*
X168500000Y-63500000D03*
X168500000Y-57600000D03*
X204600000Y-70100000D03*
X168500000Y-59900000D03*
X228200000Y-63500000D03*
D17*
X180250000Y-50500000D03*
D18*
X217600000Y-70100000D03*
X168500000Y-52800000D03*
X228200000Y-52800000D03*
X203700000Y-44800000D03*
X202250000Y-56500000D03*
X168500000Y-49300000D03*
X192700000Y-70100000D03*
X215300000Y-70100000D03*
X228200000Y-48100000D03*
X228200000Y-42200000D03*
X168500000Y-46900000D03*
X180500000Y-59249000D03*
X228200000Y-44500000D03*
X199800000Y-70100000D03*
X215500000Y-58300000D03*
X228200000Y-62300000D03*
D17*
X181250000Y-50500000D03*
D18*
X216500000Y-70100000D03*
X196975000Y-53750000D03*
X168500000Y-61100000D03*
X201427349Y-41497552D03*
X168500000Y-50400000D03*
X176900000Y-34100000D03*
X202200000Y-70100000D03*
X222000000Y-34100000D03*
%TO.N,/INTVCC*%
X220259716Y-67136186D03*
X205330000Y-59250000D03*
X197240000Y-64750000D03*
X190800000Y-60000000D03*
X216550000Y-67840000D03*
%TO.N,/IO_CONN/VDL2*%
X214250000Y-54750000D03*
X218000000Y-56500000D03*
%TO.N,/IO_CONN/VDL1*%
X178937500Y-56504683D03*
X180250000Y-55500000D03*
%TO.N,/IO_CONN/FTL2*%
X210000000Y-55000000D03*
X214812500Y-56513066D03*
%TO.N,/IO_CONN/FTL1*%
X182100000Y-56544216D03*
X185000000Y-54750000D03*
%TO.N,/FAULT1*%
X179750000Y-61450000D03*
%TO.N,/DISABLE1*%
X193510098Y-50750000D03*
X190790245Y-55990245D03*
%TO.N,/CH1*%
X184250000Y-57500000D03*
X171350000Y-61450000D03*
%TO.N,/DISABLE2*%
X205330000Y-57500000D03*
X203425502Y-50550000D03*
X204579992Y-54573563D03*
X207000000Y-57750000D03*
%TO.N,/VALID1*%
X175500000Y-61450000D03*
X186075000Y-57534907D03*
%TO.N,/CH2*%
X212750000Y-57600000D03*
X225500000Y-61600000D03*
%TO.N,/VALID2*%
X210750000Y-57500000D03*
X221350000Y-61600000D03*
%TO.N,/FAULT2*%
X217200000Y-61600000D03*
X208975000Y-57747109D03*
%TO.N,/SHDNOUT*%
X204350000Y-55750000D03*
%TO.N,/V1*%
X191364216Y-45485784D03*
%TO.N,/UVR2*%
X217288846Y-46398936D03*
X216000000Y-46825000D03*
X212350000Y-47250000D03*
X209207413Y-47375000D03*
%TO.N,/V2*%
X205592968Y-45492968D03*
%TO.N,/UVF1*%
X181012500Y-44487500D03*
%TO.N,+3.3V*%
X177750000Y-52250000D03*
X211292734Y-52724736D03*
X181500000Y-52250000D03*
X214998998Y-52750000D03*
X218750000Y-52750000D03*
X185500000Y-52250000D03*
%TO.N,/SENSE1*%
X197750000Y-43700000D03*
%TO.N,/SENSE2*%
X199250000Y-43700000D03*
%TO.N,/UVF2*%
X216000000Y-44450000D03*
%TO.N,/UVR1*%
X179649000Y-46568100D03*
X181000000Y-46850000D03*
%TO.N,/GATE1*%
X197750000Y-45300000D03*
%TO.N,/GATE2*%
X199250000Y-45300003D03*
%TO.N,/SOURCE2*%
X199250000Y-44500000D03*
%TO.N,/OV1*%
X181000000Y-49225000D03*
%TO.N,/SOURCE1*%
X197750000Y-44500000D03*
%TO.N,/OV2*%
X216000000Y-49250000D03*
%TO.N,/IO_CONN/CHL2*%
X221325000Y-56500000D03*
X218500000Y-54750000D03*
%TO.N,/IO_CONN/CHL1*%
X175687500Y-56550000D03*
X177000000Y-55500000D03*
%TO.N,/OUT2*%
X199250000Y-42900000D03*
%TO.N,/IO_CONN/DIS2_Ctrl*%
X205536765Y-54963235D03*
%TD*%
D19*
%TO.N,GND*%
X202230000Y-60020000D02*
X202250000Y-60000000D01*
%TO.N,+3.3V*%
X177750000Y-52250000D02*
X177210000Y-52250000D01*
X177210000Y-52250000D02*
X172750000Y-47790000D01*
D20*
%TO.N,/IO_CONN/FTL1*%
X185000000Y-54750000D02*
X185067100Y-54750000D01*
X185067100Y-54750000D02*
X187342720Y-52474380D01*
X187342720Y-52474380D02*
X187342720Y-51500000D01*
X187342720Y-51500000D02*
X189542720Y-49300000D01*
X189542720Y-49300000D02*
X196550000Y-49300000D01*
X183205784Y-56544216D02*
X182100000Y-56544216D01*
X185000000Y-54750000D02*
X183205784Y-56544216D01*
%TO.N,/IO_CONN/DIS1_Ctrl*%
X187743720Y-52921910D02*
X187332815Y-53332815D01*
X196550000Y-50100000D02*
X189393720Y-50100000D01*
X187743720Y-51750000D02*
X187743720Y-52921910D01*
X189393720Y-50100000D02*
X187743720Y-51750000D01*
%TO.N,/IO_CONN/CHL1*%
X196550000Y-47700000D02*
X190008520Y-47700000D01*
X186101000Y-52498943D02*
X185349943Y-53250000D01*
X190008520Y-47700000D02*
X186101000Y-51607520D01*
X186101000Y-51607520D02*
X186101000Y-52498943D01*
X185349943Y-53250000D02*
X181500000Y-53250000D01*
X181500000Y-53250000D02*
X179250000Y-55500000D01*
X179250000Y-55500000D02*
X177000000Y-55500000D01*
%TO.N,/DISABLE1*%
X193510098Y-50750000D02*
X193510098Y-53270392D01*
X193510098Y-53270392D02*
X192015245Y-54765245D01*
X190790245Y-55990245D02*
X192015245Y-54765245D01*
D19*
%TO.N,/CPOREF*%
X194900000Y-42900000D02*
X196550000Y-42900000D01*
X197700000Y-42900000D02*
X198500000Y-42100000D01*
X198500000Y-42100000D02*
X198500000Y-38250000D01*
X196550000Y-42900000D02*
X197700000Y-42900000D01*
X194875735Y-42924265D02*
X194900000Y-42900000D01*
%TO.N,GND*%
X196274000Y-53274000D02*
X196274000Y-51976000D01*
X200350000Y-51700000D02*
X200350000Y-51900000D01*
X196750000Y-53750000D02*
X196274000Y-53274000D01*
X208500000Y-49750000D02*
X208500000Y-52250000D01*
X200350000Y-51900000D02*
X199500000Y-52750000D01*
X196274000Y-51976000D02*
X196550000Y-51700000D01*
X196975000Y-53750000D02*
X196750000Y-53750000D01*
D21*
%TO.N,/INTVCC*%
X205330000Y-59250000D02*
X198650000Y-59250000D01*
D20*
X217173744Y-67850000D02*
X219545902Y-67850000D01*
X217163744Y-67840000D02*
X217173744Y-67850000D01*
X216550000Y-67840000D02*
X217163744Y-67840000D01*
D21*
X197150000Y-64660000D02*
X197150000Y-60750000D01*
X198650000Y-59250000D02*
X197150000Y-60750000D01*
D20*
X219545902Y-67850000D02*
X220259716Y-67136186D01*
D21*
X197240000Y-64750000D02*
X197150000Y-64660000D01*
D20*
%TO.N,/IO_CONN/VDL2*%
X205164723Y-52914723D02*
X205164723Y-50305078D01*
X217750000Y-56500000D02*
X218000000Y-56500000D01*
X213899000Y-54399000D02*
X206649000Y-54399000D01*
X206649000Y-54399000D02*
X205164723Y-52914723D01*
X214250000Y-54750000D02*
X216000000Y-54750000D01*
X216000000Y-54750000D02*
X217750000Y-56500000D01*
X203359645Y-48500000D02*
X200350000Y-48500000D01*
X214250000Y-54750000D02*
X213899000Y-54399000D01*
X205164723Y-50305078D02*
X203359645Y-48500000D01*
%TO.N,/IO_CONN/VDL1*%
X178937500Y-56504683D02*
X179245317Y-56504683D01*
X179245317Y-56504683D02*
X180250000Y-55500000D01*
%TO.N,/IO_CONN/FTL2*%
X204763723Y-50471178D02*
X203592545Y-49300000D01*
X210000000Y-55000000D02*
X213299434Y-55000000D01*
X204763723Y-53263723D02*
X204763723Y-50471178D01*
X213299434Y-55000000D02*
X214812500Y-56513066D01*
X206500000Y-55000000D02*
X204763723Y-53263723D01*
X203592545Y-49300000D02*
X200350000Y-49300000D01*
X210000000Y-55000000D02*
X206500000Y-55000000D01*
%TO.N,/CH1*%
X185100000Y-59150000D02*
X184401000Y-59849000D01*
X184401000Y-59849000D02*
X172951000Y-59849000D01*
X185100000Y-58350000D02*
X185100000Y-59150000D01*
X184250000Y-57500000D02*
X185100000Y-58350000D01*
X172951000Y-59849000D02*
X171350000Y-61450000D01*
%TO.N,/DISABLE2*%
X205330000Y-57500000D02*
X205330000Y-55605000D01*
X205330000Y-55605000D02*
X203425502Y-53700502D01*
X208000000Y-57750000D02*
X209000000Y-58750000D01*
X209000000Y-58750000D02*
X211298700Y-58750000D01*
X207000000Y-57750000D02*
X208000000Y-57750000D01*
X212500000Y-60660000D02*
X211160000Y-62000000D01*
X211298700Y-58750000D02*
X212500000Y-59951300D01*
X212500000Y-59951300D02*
X212500000Y-60660000D01*
X203425502Y-53500000D02*
X203425502Y-50550000D01*
X203425502Y-53700502D02*
X203425502Y-53500000D01*
%TO.N,/VALID1*%
X186075000Y-57534907D02*
X186075000Y-58850000D01*
X176700000Y-60250000D02*
X175500000Y-61450000D01*
X186075000Y-58850000D02*
X184675000Y-60250000D01*
X184675000Y-60250000D02*
X176700000Y-60250000D01*
%TO.N,/CH2*%
X214250000Y-60000000D02*
X223900000Y-60000000D01*
X212750000Y-57600000D02*
X212750000Y-58500000D01*
X212750000Y-58500000D02*
X214250000Y-60000000D01*
X223900000Y-60000000D02*
X225500000Y-61600000D01*
%TO.N,/VALID2*%
X220151000Y-60401000D02*
X214083900Y-60401000D01*
X211182900Y-57500000D02*
X210750000Y-57500000D01*
X214083900Y-60401000D02*
X211182900Y-57500000D01*
X221350000Y-61600000D02*
X220151000Y-60401000D01*
%TO.N,/FAULT2*%
X211365800Y-58250000D02*
X209477891Y-58250000D01*
X213700000Y-60584200D02*
X211365800Y-58250000D01*
X213700000Y-62000000D02*
X213700000Y-60584200D01*
X209477891Y-58250000D02*
X208975000Y-57747109D01*
%TO.N,/SHDNOUT*%
X202700000Y-50900000D02*
X200350000Y-50900000D01*
X203000000Y-51200000D02*
X202700000Y-50900000D01*
X204350000Y-55750000D02*
X204350000Y-55192100D01*
X203024502Y-53866602D02*
X203024502Y-53714502D01*
X203024502Y-53714502D02*
X203000000Y-53690000D01*
X204350000Y-55192100D02*
X203024502Y-53866602D01*
X203000000Y-53690000D02*
X203000000Y-51200000D01*
D21*
%TO.N,/V1*%
X196550000Y-46100000D02*
X191978432Y-46100000D01*
X191978432Y-46100000D02*
X191364216Y-45485784D01*
D20*
%TO.N,/UVR2*%
X215925000Y-46825000D02*
X216000000Y-46825000D01*
X217288846Y-46398936D02*
X216500000Y-46398936D01*
X209332413Y-47250000D02*
X212350000Y-47250000D01*
X215500000Y-47250000D02*
X215925000Y-46825000D01*
X212350000Y-47250000D02*
X215500000Y-47250000D01*
X216426064Y-46398936D02*
X216000000Y-46825000D01*
X216500000Y-46398936D02*
X216351064Y-46398936D01*
X216351064Y-46398936D02*
X215500000Y-47250000D01*
X216500000Y-46398936D02*
X216426064Y-46398936D01*
X209207413Y-47375000D02*
X209332413Y-47250000D01*
%TO.N,/V2*%
X200350000Y-46100000D02*
X204985936Y-46100000D01*
X204985936Y-46100000D02*
X205592968Y-45492968D01*
D19*
%TO.N,+3.3V*%
X206159550Y-49909550D02*
X205750000Y-49500000D01*
X200350000Y-46900000D02*
X203150000Y-46900000D01*
X206159550Y-49909550D02*
X206000000Y-49750000D01*
X220300000Y-51200000D02*
X220300000Y-47730000D01*
X205750000Y-49500000D02*
X206000000Y-49750000D01*
X218750000Y-52750000D02*
X220300000Y-51200000D01*
X203150000Y-46900000D02*
X205750000Y-49500000D01*
X206476620Y-52951000D02*
X206159550Y-52633930D01*
X190100000Y-46900000D02*
X186000000Y-51000000D01*
X206159550Y-49909550D02*
X206159550Y-50250000D01*
D21*
X220300000Y-47730000D02*
X224150000Y-47730000D01*
D19*
X196550000Y-46900000D02*
X200350000Y-46900000D01*
X196550000Y-46900000D02*
X190100000Y-46900000D01*
X185500000Y-52250000D02*
X181500000Y-52250000D01*
X172750000Y-47790000D02*
X176600000Y-47790000D01*
X181500000Y-52250000D02*
X177750000Y-52250000D01*
X206159550Y-52633930D02*
X206159550Y-50500000D01*
X206159550Y-50500000D02*
X206159550Y-49909550D01*
X185500000Y-51500000D02*
X185500000Y-52250000D01*
X186000000Y-51000000D02*
X185500000Y-51500000D01*
X218549000Y-52951000D02*
X206476620Y-52951000D01*
X218750000Y-52750000D02*
X218549000Y-52951000D01*
D20*
%TO.N,/SENSE1*%
X197750000Y-43700000D02*
X196550000Y-43700000D01*
%TO.N,/SENSE2*%
X200350000Y-43700000D02*
X199250000Y-43700000D01*
%TO.N,/UVR1*%
X179649000Y-46568100D02*
X180718100Y-46568100D01*
X180718100Y-46568100D02*
X181000000Y-46850000D01*
%TO.N,/GATE1*%
X191500000Y-38500000D02*
X190850000Y-38500000D01*
X197750000Y-45300000D02*
X196550000Y-45300000D01*
X197750000Y-45300000D02*
X195723000Y-45300000D01*
X192750000Y-42327000D02*
X192750000Y-39750000D01*
X192750000Y-39750000D02*
X191500000Y-38500000D01*
X195723000Y-45300000D02*
X192750000Y-42327000D01*
%TO.N,/GATE2*%
X199250000Y-45300003D02*
X199250003Y-45300000D01*
X205000000Y-39500000D02*
X205000000Y-41600000D01*
X199250003Y-45300000D02*
X200350000Y-45300000D01*
X201300000Y-45300000D02*
X200350000Y-45300000D01*
X205000000Y-41600000D02*
X201300000Y-45300000D01*
X206000000Y-38500000D02*
X205000000Y-39500000D01*
%TO.N,/SOURCE2*%
X200350000Y-44500000D02*
X201300000Y-44500000D01*
X199250000Y-44500000D02*
X200350000Y-44500000D01*
X204500000Y-39540000D02*
X203460000Y-38500000D01*
X204500000Y-41300000D02*
X204500000Y-39540000D01*
X201300000Y-44500000D02*
X204500000Y-41300000D01*
%TO.N,/SOURCE1*%
X193250000Y-38790000D02*
X193540000Y-38500000D01*
X197750000Y-44500000D02*
X196550000Y-44500000D01*
X196550000Y-44500000D02*
X195490100Y-44500000D01*
X193250000Y-42259900D02*
X193250000Y-38790000D01*
X195490100Y-44500000D02*
X193250000Y-42259900D01*
%TO.N,/IO_CONN/CHL2*%
X205658550Y-50231805D02*
X205658550Y-52841450D01*
X220250000Y-56500000D02*
X221325000Y-56500000D01*
X205658550Y-52841450D02*
X206815100Y-53998000D01*
X218500000Y-54750000D02*
X220250000Y-56500000D01*
X200350000Y-47700000D02*
X203126745Y-47700000D01*
X217748000Y-53998000D02*
X218500000Y-54750000D01*
X203126745Y-47700000D02*
X205658550Y-50231805D01*
X206815100Y-53998000D02*
X217748000Y-53998000D01*
%TO.N,/IO_CONN/CHL1*%
X176200000Y-56550000D02*
X175687500Y-56550000D01*
X177000000Y-55500000D02*
X177000000Y-55750000D01*
X177000000Y-55750000D02*
X176200000Y-56550000D01*
D19*
%TO.N,/OUT2*%
X200350000Y-42900000D02*
X199250000Y-42900000D01*
D20*
%TO.N,/IO_CONN/DIS2_Ctrl*%
X200501000Y-49949000D02*
X203674445Y-49949000D01*
X205536765Y-54680393D02*
X205536765Y-54963235D01*
X204362723Y-53506351D02*
X205536765Y-54680393D01*
X204362723Y-50637278D02*
X204362723Y-53506351D01*
X200350000Y-50100000D02*
X200501000Y-49949000D01*
X203674445Y-49949000D02*
X204362723Y-50637278D01*
%TO.N,/IO_CONN/VDL1*%
X185599000Y-53651000D02*
X182099000Y-53651000D01*
X189775620Y-48500000D02*
X186512810Y-51762810D01*
X196550000Y-48500000D02*
X189775620Y-48500000D01*
X186512810Y-52737190D02*
X185599000Y-53651000D01*
X186512810Y-51762810D02*
X186512810Y-52737190D01*
X182099000Y-53651000D02*
X180250000Y-55500000D01*
%TD*%
%TA.AperFunction,Conductor*%
%TO.N,GND*%
G36*
X223786880Y-33560039D02*
G01*
X223819558Y-33569004D01*
X223820327Y-33569861D01*
X223821431Y-33570185D01*
X223843588Y-33595756D01*
X223866249Y-33620983D01*
X223866433Y-33622120D01*
X223867186Y-33622989D01*
X223872006Y-33656511D01*
X223877425Y-33689953D01*
X223876966Y-33691007D01*
X223877130Y-33692147D01*
X223863051Y-33722974D01*
X223849540Y-33754016D01*
X223848413Y-33755028D01*
X223848105Y-33755703D01*
X223823283Y-33777602D01*
X223812248Y-33784974D01*
X223812234Y-33784985D01*
X223546367Y-34003176D01*
X223303176Y-34246367D01*
X223084985Y-34512234D01*
X223084975Y-34512248D01*
X222893904Y-34798206D01*
X222893893Y-34798224D01*
X222731772Y-35101530D01*
X222731770Y-35101535D01*
X222600150Y-35419293D01*
X222500308Y-35748427D01*
X222433210Y-36085750D01*
X222399500Y-36428034D01*
X222399500Y-36771965D01*
X222433210Y-37114249D01*
X222500308Y-37451572D01*
X222600150Y-37780706D01*
X222693219Y-38005394D01*
X222724319Y-38080477D01*
X222731770Y-38098464D01*
X222731772Y-38098469D01*
X222893893Y-38401775D01*
X222893904Y-38401793D01*
X223084975Y-38687751D01*
X223084985Y-38687765D01*
X223303176Y-38953632D01*
X223546367Y-39196823D01*
X223546372Y-39196827D01*
X223546373Y-39196828D01*
X223812240Y-39415019D01*
X224098213Y-39606100D01*
X224098222Y-39606105D01*
X224098224Y-39606106D01*
X224401530Y-39768227D01*
X224401532Y-39768227D01*
X224401538Y-39768231D01*
X224719295Y-39899850D01*
X225048422Y-39999690D01*
X225385750Y-40066789D01*
X225728031Y-40100500D01*
X225728034Y-40100500D01*
X226071966Y-40100500D01*
X226071969Y-40100500D01*
X226414250Y-40066789D01*
X226751578Y-39999690D01*
X227080705Y-39899850D01*
X227398462Y-39768231D01*
X227701787Y-39606100D01*
X227987760Y-39415019D01*
X228253627Y-39196828D01*
X228496828Y-38953627D01*
X228715019Y-38687760D01*
X228722396Y-38676718D01*
X228776007Y-38631912D01*
X228845332Y-38623203D01*
X228908360Y-38653356D01*
X228945081Y-38712798D01*
X228949500Y-38745607D01*
X228949500Y-65454392D01*
X228929815Y-65521431D01*
X228877011Y-65567186D01*
X228807853Y-65577130D01*
X228744297Y-65548105D01*
X228722398Y-65523283D01*
X228715025Y-65512248D01*
X228715014Y-65512234D01*
X228617500Y-65393412D01*
X228496828Y-65246373D01*
X228496827Y-65246372D01*
X228496823Y-65246367D01*
X228253632Y-65003176D01*
X227987765Y-64784985D01*
X227987764Y-64784984D01*
X227987760Y-64784981D01*
X227701787Y-64593900D01*
X227701782Y-64593897D01*
X227701775Y-64593893D01*
X227398469Y-64431772D01*
X227398464Y-64431770D01*
X227080706Y-64300150D01*
X226751572Y-64200308D01*
X226414248Y-64133210D01*
X226414249Y-64133210D01*
X226156456Y-64107821D01*
X226071969Y-64099500D01*
X225728031Y-64099500D01*
X225649966Y-64107188D01*
X225385750Y-64133210D01*
X225048427Y-64200308D01*
X224719293Y-64300150D01*
X224401535Y-64431770D01*
X224401530Y-64431772D01*
X224098224Y-64593893D01*
X224098206Y-64593904D01*
X223812248Y-64784975D01*
X223812234Y-64784985D01*
X223546367Y-65003176D01*
X223303176Y-65246367D01*
X223084985Y-65512234D01*
X223084975Y-65512248D01*
X222893904Y-65798206D01*
X222893893Y-65798224D01*
X222731772Y-66101530D01*
X222731770Y-66101535D01*
X222600150Y-66419293D01*
X222500308Y-66748427D01*
X222433210Y-67085750D01*
X222413191Y-67289021D01*
X222405416Y-67367969D01*
X222399500Y-67428034D01*
X222399500Y-67771965D01*
X222433210Y-68114249D01*
X222500308Y-68451572D01*
X222600150Y-68780706D01*
X222731770Y-69098464D01*
X222731772Y-69098469D01*
X222893893Y-69401775D01*
X222893904Y-69401793D01*
X223084975Y-69687751D01*
X223084985Y-69687765D01*
X223303176Y-69953632D01*
X223546367Y-70196823D01*
X223812234Y-70415014D01*
X223812248Y-70415025D01*
X223823283Y-70422398D01*
X223868088Y-70476011D01*
X223876795Y-70545336D01*
X223846640Y-70608363D01*
X223787197Y-70645082D01*
X223754392Y-70649500D01*
X173045608Y-70649500D01*
X172978569Y-70629815D01*
X172932814Y-70577011D01*
X172922870Y-70507853D01*
X172951895Y-70444297D01*
X172976717Y-70422398D01*
X172987751Y-70415025D01*
X172987750Y-70415025D01*
X172987760Y-70415019D01*
X173253627Y-70196828D01*
X173496828Y-69953627D01*
X173715019Y-69687760D01*
X173906100Y-69401787D01*
X174068231Y-69098462D01*
X174199850Y-68780705D01*
X174299690Y-68451578D01*
X174366789Y-68114250D01*
X174400500Y-67771969D01*
X174400500Y-67428031D01*
X174366789Y-67085750D01*
X174299690Y-66748422D01*
X174264372Y-66631995D01*
X188699500Y-66631995D01*
X188699500Y-66868004D01*
X188699501Y-66868020D01*
X188730306Y-67102010D01*
X188791394Y-67329993D01*
X188881714Y-67548045D01*
X188881719Y-67548056D01*
X188916449Y-67608209D01*
X188999727Y-67752450D01*
X188999729Y-67752453D01*
X188999730Y-67752454D01*
X189143406Y-67939697D01*
X189143412Y-67939704D01*
X189310295Y-68106587D01*
X189310301Y-68106592D01*
X189497550Y-68250273D01*
X189619218Y-68320518D01*
X189701943Y-68368280D01*
X189701948Y-68368282D01*
X189701951Y-68368284D01*
X189920007Y-68458606D01*
X190147986Y-68519693D01*
X190381989Y-68550500D01*
X190381996Y-68550500D01*
X190618004Y-68550500D01*
X190618011Y-68550500D01*
X190852014Y-68519693D01*
X191079993Y-68458606D01*
X191298049Y-68368284D01*
X191502450Y-68250273D01*
X191689699Y-68106592D01*
X191856592Y-67939699D01*
X192000273Y-67752450D01*
X192118284Y-67548049D01*
X192208606Y-67329993D01*
X192269693Y-67102014D01*
X192300500Y-66868011D01*
X192300500Y-66631995D01*
X200449500Y-66631995D01*
X200449500Y-66868004D01*
X200449501Y-66868020D01*
X200480306Y-67102010D01*
X200541394Y-67329993D01*
X200631714Y-67548045D01*
X200631719Y-67548056D01*
X200666449Y-67608209D01*
X200749727Y-67752450D01*
X200749729Y-67752453D01*
X200749730Y-67752454D01*
X200893406Y-67939697D01*
X200893412Y-67939704D01*
X201060295Y-68106587D01*
X201060301Y-68106592D01*
X201247550Y-68250273D01*
X201369218Y-68320518D01*
X201451943Y-68368280D01*
X201451948Y-68368282D01*
X201451951Y-68368284D01*
X201670007Y-68458606D01*
X201897986Y-68519693D01*
X202131989Y-68550500D01*
X202131996Y-68550500D01*
X202368004Y-68550500D01*
X202368011Y-68550500D01*
X202602014Y-68519693D01*
X202829993Y-68458606D01*
X203048049Y-68368284D01*
X203252450Y-68250273D01*
X203439699Y-68106592D01*
X203606592Y-67939699D01*
X203743756Y-67760943D01*
X215949500Y-67760943D01*
X215949500Y-67919057D01*
X215955033Y-67939704D01*
X215990423Y-68071783D01*
X215990426Y-68071790D01*
X216069475Y-68208709D01*
X216069479Y-68208714D01*
X216069480Y-68208716D01*
X216181284Y-68320520D01*
X216181286Y-68320521D01*
X216181290Y-68320524D01*
X216318209Y-68399573D01*
X216318216Y-68399577D01*
X216470943Y-68440500D01*
X216470945Y-68440500D01*
X216629055Y-68440500D01*
X216629057Y-68440500D01*
X216704800Y-68420204D01*
X216725424Y-68416812D01*
X216747969Y-68408637D01*
X216781784Y-68399577D01*
X216787223Y-68396436D01*
X216806949Y-68387252D01*
X217163637Y-68257926D01*
X217205904Y-68250500D01*
X219598627Y-68250500D01*
X219598629Y-68250500D01*
X219700490Y-68223207D01*
X219791815Y-68170480D01*
X220059619Y-67902674D01*
X220094752Y-67878043D01*
X220464982Y-67704846D01*
X220464982Y-67704845D01*
X220474881Y-67700215D01*
X220491500Y-67695763D01*
X220521821Y-67678257D01*
X220543540Y-67668097D01*
X220563814Y-67657674D01*
X220565324Y-67656825D01*
X220590309Y-67641143D01*
X220590316Y-67641135D01*
X220593580Y-67638512D01*
X220609272Y-67627766D01*
X220628432Y-67616706D01*
X220740236Y-67504902D01*
X220819293Y-67367970D01*
X220860216Y-67215243D01*
X220860216Y-67057129D01*
X220819293Y-66904402D01*
X220798279Y-66868004D01*
X220740240Y-66767476D01*
X220740234Y-66767468D01*
X220628433Y-66655667D01*
X220628425Y-66655661D01*
X220491506Y-66576612D01*
X220491502Y-66576610D01*
X220491500Y-66576609D01*
X220338773Y-66535686D01*
X220180659Y-66535686D01*
X220027932Y-66576609D01*
X220027925Y-66576612D01*
X219891006Y-66655661D01*
X219890998Y-66655667D01*
X219779198Y-66767467D01*
X219779191Y-66767476D01*
X219743053Y-66830065D01*
X219743054Y-66830066D01*
X219739984Y-66835381D01*
X219727804Y-66852361D01*
X219717644Y-66874077D01*
X219714976Y-66878699D01*
X219714975Y-66878702D01*
X219700141Y-66904397D01*
X219700137Y-66904408D01*
X219698513Y-66910467D01*
X219691060Y-66930903D01*
X219517858Y-67301147D01*
X219514975Y-67305257D01*
X219514373Y-67308029D01*
X219493222Y-67336284D01*
X219416328Y-67413180D01*
X219355006Y-67446666D01*
X219328646Y-67449500D01*
X217270116Y-67449500D01*
X217238024Y-67445275D01*
X217216471Y-67439500D01*
X217216470Y-67439500D01*
X217208621Y-67437397D01*
X217208740Y-67436950D01*
X217196290Y-67433912D01*
X216806948Y-67292745D01*
X216806948Y-67292744D01*
X216796672Y-67289018D01*
X216781784Y-67280423D01*
X216747990Y-67271367D01*
X216742963Y-67269545D01*
X216742955Y-67269543D01*
X216739492Y-67268287D01*
X216725408Y-67263180D01*
X216704027Y-67256308D01*
X216702362Y-67255840D01*
X216702355Y-67255838D01*
X216673242Y-67249164D01*
X216673229Y-67249161D01*
X216669015Y-67248702D01*
X216650364Y-67245208D01*
X216629064Y-67239501D01*
X216629058Y-67239500D01*
X216629057Y-67239500D01*
X216470943Y-67239500D01*
X216318216Y-67280423D01*
X216318209Y-67280426D01*
X216181290Y-67359475D01*
X216181282Y-67359481D01*
X216069481Y-67471282D01*
X216069475Y-67471290D01*
X215990426Y-67608209D01*
X215990423Y-67608216D01*
X215949500Y-67760943D01*
X203743756Y-67760943D01*
X203750273Y-67752450D01*
X203868284Y-67548049D01*
X203958606Y-67329993D01*
X204019693Y-67102014D01*
X204050500Y-66868011D01*
X204050500Y-66631989D01*
X204019693Y-66397986D01*
X203958606Y-66170007D01*
X203868284Y-65951951D01*
X203868282Y-65951948D01*
X203868280Y-65951943D01*
X203826118Y-65878918D01*
X203750273Y-65747550D01*
X203691001Y-65670306D01*
X203606593Y-65560302D01*
X203606587Y-65560295D01*
X203439704Y-65393412D01*
X203439697Y-65393406D01*
X203252454Y-65249730D01*
X203252453Y-65249729D01*
X203252450Y-65249727D01*
X203170957Y-65202677D01*
X203048056Y-65131719D01*
X203048045Y-65131714D01*
X202829993Y-65041394D01*
X202687347Y-65003172D01*
X202602014Y-64980307D01*
X202602013Y-64980306D01*
X202602010Y-64980306D01*
X202368020Y-64949501D01*
X202368017Y-64949500D01*
X202368011Y-64949500D01*
X202131989Y-64949500D01*
X202131983Y-64949500D01*
X202131979Y-64949501D01*
X201897989Y-64980306D01*
X201670006Y-65041394D01*
X201451954Y-65131714D01*
X201451943Y-65131719D01*
X201247545Y-65249730D01*
X201060302Y-65393406D01*
X201060295Y-65393412D01*
X200893412Y-65560295D01*
X200893406Y-65560302D01*
X200749730Y-65747545D01*
X200631719Y-65951943D01*
X200631714Y-65951954D01*
X200541394Y-66170006D01*
X200480306Y-66397989D01*
X200449501Y-66631979D01*
X200449500Y-66631995D01*
X192300500Y-66631995D01*
X192300500Y-66631989D01*
X192269693Y-66397986D01*
X192208606Y-66170007D01*
X192118284Y-65951951D01*
X192118282Y-65951948D01*
X192118280Y-65951943D01*
X192076118Y-65878918D01*
X192000273Y-65747550D01*
X191941001Y-65670306D01*
X191856593Y-65560302D01*
X191856587Y-65560295D01*
X191689704Y-65393412D01*
X191689697Y-65393406D01*
X191502454Y-65249730D01*
X191502453Y-65249729D01*
X191502450Y-65249727D01*
X191420957Y-65202677D01*
X191298056Y-65131719D01*
X191298045Y-65131714D01*
X191079993Y-65041394D01*
X190937347Y-65003172D01*
X190852014Y-64980307D01*
X190852013Y-64980306D01*
X190852010Y-64980306D01*
X190618020Y-64949501D01*
X190618017Y-64949500D01*
X190618011Y-64949500D01*
X190381989Y-64949500D01*
X190381983Y-64949500D01*
X190381979Y-64949501D01*
X190147989Y-64980306D01*
X189920006Y-65041394D01*
X189701954Y-65131714D01*
X189701943Y-65131719D01*
X189497545Y-65249730D01*
X189310302Y-65393406D01*
X189310295Y-65393412D01*
X189143412Y-65560295D01*
X189143406Y-65560302D01*
X188999730Y-65747545D01*
X188881719Y-65951943D01*
X188881714Y-65951954D01*
X188791394Y-66170006D01*
X188730306Y-66397989D01*
X188699501Y-66631979D01*
X188699500Y-66631995D01*
X174264372Y-66631995D01*
X174199850Y-66419295D01*
X174068231Y-66101538D01*
X173988276Y-65951954D01*
X173906106Y-65798224D01*
X173906105Y-65798222D01*
X173906100Y-65798213D01*
X173715019Y-65512240D01*
X173496828Y-65246373D01*
X173496827Y-65246372D01*
X173496823Y-65246367D01*
X173253632Y-65003176D01*
X172987765Y-64784985D01*
X172987764Y-64784984D01*
X172987760Y-64784981D01*
X172701787Y-64593900D01*
X172701782Y-64593897D01*
X172701775Y-64593893D01*
X172398469Y-64431772D01*
X172398464Y-64431770D01*
X172080706Y-64300150D01*
X171751572Y-64200308D01*
X171414248Y-64133210D01*
X171414249Y-64133210D01*
X171156456Y-64107821D01*
X171071969Y-64099500D01*
X170728031Y-64099500D01*
X170649966Y-64107188D01*
X170385750Y-64133210D01*
X170048427Y-64200308D01*
X169719293Y-64300150D01*
X169401535Y-64431770D01*
X169401530Y-64431772D01*
X169098224Y-64593893D01*
X169098206Y-64593904D01*
X168812248Y-64784975D01*
X168812234Y-64784985D01*
X168546367Y-65003176D01*
X168303176Y-65246367D01*
X168084985Y-65512234D01*
X168084974Y-65512248D01*
X168077602Y-65523283D01*
X168023989Y-65568088D01*
X167954664Y-65576795D01*
X167891637Y-65546640D01*
X167854918Y-65487197D01*
X167850500Y-65454392D01*
X167850500Y-62109448D01*
X182099500Y-62109448D01*
X182099500Y-62290551D01*
X182127829Y-62469410D01*
X182183787Y-62641636D01*
X182183788Y-62641639D01*
X182266006Y-62802997D01*
X182372441Y-62949494D01*
X182372445Y-62949499D01*
X182500500Y-63077554D01*
X182500505Y-63077558D01*
X182600902Y-63150500D01*
X182647006Y-63183996D01*
X182752484Y-63237740D01*
X182808360Y-63266211D01*
X182808363Y-63266212D01*
X182870457Y-63286387D01*
X182980591Y-63322171D01*
X183063429Y-63335291D01*
X183159449Y-63350500D01*
X183159454Y-63350500D01*
X183340551Y-63350500D01*
X183427259Y-63336765D01*
X183519409Y-63322171D01*
X183691639Y-63266211D01*
X183852994Y-63183996D01*
X183999501Y-63077553D01*
X184127553Y-62949501D01*
X184233996Y-62802994D01*
X184316211Y-62641639D01*
X184372171Y-62469409D01*
X184386422Y-62379425D01*
X184397527Y-62309321D01*
X184427456Y-62246186D01*
X184486768Y-62209255D01*
X184556630Y-62210253D01*
X184614863Y-62248863D01*
X184642473Y-62309321D01*
X184667829Y-62469410D01*
X184723787Y-62641636D01*
X184723788Y-62641639D01*
X184806006Y-62802997D01*
X184912441Y-62949494D01*
X184912445Y-62949499D01*
X185040500Y-63077554D01*
X185040505Y-63077558D01*
X185140902Y-63150500D01*
X185187006Y-63183996D01*
X185292484Y-63237740D01*
X185348360Y-63266211D01*
X185348363Y-63266212D01*
X185410457Y-63286387D01*
X185520591Y-63322171D01*
X185603429Y-63335291D01*
X185699449Y-63350500D01*
X185699454Y-63350500D01*
X185880551Y-63350500D01*
X185967259Y-63336765D01*
X186059409Y-63322171D01*
X186231639Y-63266211D01*
X186392994Y-63183996D01*
X186539501Y-63077553D01*
X186667553Y-62949501D01*
X186773996Y-62802994D01*
X186856211Y-62641639D01*
X186912171Y-62469409D01*
X186924274Y-62392993D01*
X186940500Y-62290551D01*
X186940500Y-62109448D01*
X186921727Y-61990925D01*
X186912171Y-61930591D01*
X186856211Y-61758361D01*
X186856211Y-61758360D01*
X186815802Y-61679055D01*
X186773996Y-61597006D01*
X186728274Y-61534075D01*
X186667558Y-61450505D01*
X186667554Y-61450500D01*
X186547351Y-61330297D01*
X187280000Y-61330297D01*
X187280000Y-61850000D01*
X187972894Y-61850000D01*
X187929901Y-61892993D01*
X187864075Y-62007007D01*
X187830000Y-62134174D01*
X187830000Y-62265826D01*
X187864075Y-62392993D01*
X187929901Y-62507007D01*
X187972894Y-62550000D01*
X187280000Y-62550000D01*
X187280000Y-63069702D01*
X187291602Y-63128033D01*
X187291603Y-63128034D01*
X187335808Y-63194191D01*
X187401965Y-63238396D01*
X187401966Y-63238397D01*
X187460297Y-63249999D01*
X187460301Y-63250000D01*
X187980000Y-63250000D01*
X187980000Y-62557106D01*
X188022993Y-62600099D01*
X188137007Y-62665925D01*
X188264174Y-62700000D01*
X188395826Y-62700000D01*
X188522993Y-62665925D01*
X188637007Y-62600099D01*
X188680000Y-62557106D01*
X188680000Y-63250000D01*
X189199699Y-63250000D01*
X189199702Y-63249999D01*
X189258033Y-63238397D01*
X189258034Y-63238396D01*
X189324191Y-63194191D01*
X189368396Y-63128034D01*
X189368397Y-63128033D01*
X189379999Y-63069702D01*
X189380000Y-63069699D01*
X189380000Y-62550000D01*
X188687106Y-62550000D01*
X188730099Y-62507007D01*
X188795925Y-62392993D01*
X188830000Y-62265826D01*
X188830000Y-62134174D01*
X188795925Y-62007007D01*
X188730099Y-61892993D01*
X188687106Y-61850000D01*
X189380000Y-61850000D01*
X189380000Y-61434448D01*
X195999500Y-61434448D01*
X195999500Y-61615551D01*
X196027829Y-61794410D01*
X196083787Y-61966636D01*
X196083788Y-61966639D01*
X196166002Y-62127991D01*
X196166635Y-62129023D01*
X196173573Y-62142023D01*
X196624029Y-63122170D01*
X196688171Y-63261736D01*
X196699500Y-63313517D01*
X196699500Y-64114731D01*
X196695541Y-64142007D01*
X196696159Y-64142130D01*
X196695043Y-64147753D01*
X196642562Y-64653518D01*
X196639882Y-64668034D01*
X196639500Y-64670942D01*
X196639500Y-64670943D01*
X196639500Y-64829057D01*
X196680028Y-64980307D01*
X196680423Y-64981783D01*
X196680426Y-64981790D01*
X196759475Y-65118709D01*
X196759479Y-65118714D01*
X196759480Y-65118716D01*
X196871284Y-65230520D01*
X196871286Y-65230521D01*
X196871290Y-65230524D01*
X197008209Y-65309573D01*
X197008216Y-65309577D01*
X197160943Y-65350500D01*
X197160945Y-65350500D01*
X197319055Y-65350500D01*
X197319057Y-65350500D01*
X197471784Y-65309577D01*
X197608716Y-65230520D01*
X197720520Y-65118716D01*
X197799577Y-64981784D01*
X197840500Y-64829057D01*
X197840500Y-64670943D01*
X197799577Y-64518216D01*
X197799575Y-64518212D01*
X197775331Y-64476220D01*
X197765749Y-64452487D01*
X197765063Y-64452727D01*
X197763170Y-64447312D01*
X197611719Y-64115909D01*
X197600500Y-64064368D01*
X197600500Y-63313517D01*
X197611829Y-63261736D01*
X197734787Y-62994191D01*
X198126424Y-62142025D01*
X198133371Y-62129013D01*
X198133986Y-62128007D01*
X198133996Y-62127994D01*
X198216211Y-61966639D01*
X198272171Y-61794409D01*
X198290969Y-61675725D01*
X198297527Y-61634321D01*
X198327456Y-61571186D01*
X198386768Y-61534255D01*
X198456630Y-61535253D01*
X198514863Y-61573863D01*
X198542473Y-61634321D01*
X198567829Y-61794410D01*
X198623787Y-61966636D01*
X198623788Y-61966639D01*
X198673277Y-62063764D01*
X198706002Y-62127991D01*
X198706006Y-62127997D01*
X198812441Y-62274494D01*
X198812445Y-62274499D01*
X198940500Y-62402554D01*
X198940505Y-62402558D01*
X199068287Y-62495396D01*
X199087006Y-62508996D01*
X199192484Y-62562740D01*
X199248360Y-62591211D01*
X199248363Y-62591212D01*
X199284635Y-62602997D01*
X199420591Y-62647171D01*
X199503429Y-62660291D01*
X199599449Y-62675500D01*
X199599454Y-62675500D01*
X199780551Y-62675500D01*
X199867259Y-62661765D01*
X199959409Y-62647171D01*
X200131639Y-62591211D01*
X200292994Y-62508996D01*
X200439501Y-62402553D01*
X200567553Y-62274501D01*
X200673996Y-62127994D01*
X200756211Y-61966639D01*
X200812171Y-61794409D01*
X200825939Y-61707480D01*
X200840500Y-61615551D01*
X200840500Y-61434448D01*
X200822759Y-61322441D01*
X200812171Y-61255591D01*
X200772596Y-61133789D01*
X200756212Y-61083363D01*
X200756211Y-61083360D01*
X200721891Y-61016004D01*
X200673996Y-60922006D01*
X200660396Y-60903287D01*
X200567558Y-60775505D01*
X200567554Y-60775500D01*
X200447351Y-60655297D01*
X201180000Y-60655297D01*
X201180000Y-61175000D01*
X201872894Y-61175000D01*
X201829901Y-61217993D01*
X201764075Y-61332007D01*
X201730000Y-61459174D01*
X201730000Y-61590826D01*
X201764075Y-61717993D01*
X201829901Y-61832007D01*
X201872894Y-61875000D01*
X201180000Y-61875000D01*
X201180000Y-62394702D01*
X201191602Y-62453033D01*
X201191603Y-62453034D01*
X201235808Y-62519191D01*
X201301965Y-62563396D01*
X201301966Y-62563397D01*
X201360297Y-62574999D01*
X201360301Y-62575000D01*
X201880000Y-62575000D01*
X201880000Y-61882106D01*
X201922993Y-61925099D01*
X202037007Y-61990925D01*
X202164174Y-62025000D01*
X202295826Y-62025000D01*
X202422993Y-61990925D01*
X202537007Y-61925099D01*
X202580000Y-61882106D01*
X202580000Y-62575000D01*
X203099699Y-62575000D01*
X203099702Y-62574999D01*
X203158033Y-62563397D01*
X203158034Y-62563396D01*
X203224191Y-62519191D01*
X203268396Y-62453034D01*
X203268397Y-62453033D01*
X203279999Y-62394702D01*
X203280000Y-62394699D01*
X203280000Y-61875000D01*
X202587106Y-61875000D01*
X202630099Y-61832007D01*
X202695925Y-61717993D01*
X202730000Y-61590826D01*
X202730000Y-61459174D01*
X202695925Y-61332007D01*
X202630099Y-61217993D01*
X202587106Y-61175000D01*
X203280000Y-61175000D01*
X203280000Y-61130297D01*
X207570000Y-61130297D01*
X207570000Y-61650000D01*
X208262894Y-61650000D01*
X208219901Y-61692993D01*
X208154075Y-61807007D01*
X208120000Y-61934174D01*
X208120000Y-62065826D01*
X208154075Y-62192993D01*
X208219901Y-62307007D01*
X208262894Y-62350000D01*
X207570000Y-62350000D01*
X207570000Y-62869702D01*
X207581602Y-62928033D01*
X207581603Y-62928034D01*
X207625808Y-62994191D01*
X207691965Y-63038396D01*
X207691966Y-63038397D01*
X207750297Y-63049999D01*
X207750301Y-63050000D01*
X208270000Y-63050000D01*
X208270000Y-62357106D01*
X208312993Y-62400099D01*
X208427007Y-62465925D01*
X208554174Y-62500000D01*
X208685826Y-62500000D01*
X208812993Y-62465925D01*
X208927007Y-62400099D01*
X208970000Y-62357106D01*
X208970000Y-63050000D01*
X209489699Y-63050000D01*
X209489702Y-63049999D01*
X209548033Y-63038397D01*
X209548034Y-63038396D01*
X209614191Y-62994191D01*
X209658396Y-62928034D01*
X209658397Y-62928033D01*
X209669999Y-62869702D01*
X209670000Y-62869699D01*
X209670000Y-62350000D01*
X208977106Y-62350000D01*
X209020099Y-62307007D01*
X209085925Y-62192993D01*
X209120000Y-62065826D01*
X209120000Y-61934174D01*
X209085925Y-61807007D01*
X209020099Y-61692993D01*
X208977106Y-61650000D01*
X209670000Y-61650000D01*
X209670000Y-61130301D01*
X209669999Y-61130297D01*
X209658397Y-61071966D01*
X209658396Y-61071965D01*
X209614191Y-61005808D01*
X209548034Y-60961603D01*
X209548033Y-60961602D01*
X209489702Y-60950000D01*
X208970000Y-60950000D01*
X208970000Y-61642894D01*
X208927007Y-61599901D01*
X208812993Y-61534075D01*
X208685826Y-61500000D01*
X208554174Y-61500000D01*
X208427007Y-61534075D01*
X208312993Y-61599901D01*
X208270000Y-61642894D01*
X208270000Y-60950000D01*
X207750297Y-60950000D01*
X207691966Y-60961602D01*
X207691965Y-60961603D01*
X207625808Y-61005808D01*
X207581603Y-61071965D01*
X207581602Y-61071966D01*
X207570000Y-61130297D01*
X203280000Y-61130297D01*
X203280000Y-60655301D01*
X203279999Y-60655297D01*
X203268397Y-60596966D01*
X203268396Y-60596965D01*
X203224191Y-60530808D01*
X203158034Y-60486603D01*
X203158033Y-60486602D01*
X203099702Y-60475000D01*
X202580000Y-60475000D01*
X202580000Y-61167894D01*
X202537007Y-61124901D01*
X202422993Y-61059075D01*
X202295826Y-61025000D01*
X202164174Y-61025000D01*
X202037007Y-61059075D01*
X201922993Y-61124901D01*
X201880000Y-61167894D01*
X201880000Y-60475000D01*
X201360297Y-60475000D01*
X201301966Y-60486602D01*
X201301965Y-60486603D01*
X201235808Y-60530808D01*
X201191603Y-60596965D01*
X201191602Y-60596966D01*
X201180000Y-60655297D01*
X200447351Y-60655297D01*
X200439499Y-60647445D01*
X200439494Y-60647441D01*
X200292997Y-60541006D01*
X200292996Y-60541005D01*
X200292994Y-60541004D01*
X200212775Y-60500130D01*
X200131639Y-60458788D01*
X200131636Y-60458787D01*
X199959410Y-60402829D01*
X199780551Y-60374500D01*
X199780546Y-60374500D01*
X199599454Y-60374500D01*
X199599449Y-60374500D01*
X199420589Y-60402829D01*
X199248363Y-60458787D01*
X199248360Y-60458788D01*
X199087002Y-60541006D01*
X198940505Y-60647441D01*
X198940500Y-60647445D01*
X198812445Y-60775500D01*
X198812441Y-60775505D01*
X198706006Y-60922002D01*
X198623788Y-61083360D01*
X198623787Y-61083363D01*
X198567829Y-61255589D01*
X198542472Y-61415682D01*
X198535579Y-61430220D01*
X198533518Y-61446177D01*
X198520920Y-61461141D01*
X198512542Y-61478816D01*
X198498884Y-61487320D01*
X198488522Y-61499630D01*
X198469835Y-61505408D01*
X198453231Y-61515747D01*
X198437141Y-61515517D01*
X198421771Y-61520270D01*
X198402927Y-61515028D01*
X198383368Y-61514749D01*
X198369958Y-61505857D01*
X198354457Y-61501546D01*
X198341437Y-61486947D01*
X198325136Y-61476139D01*
X198318144Y-61460829D01*
X198307952Y-61449401D01*
X198297527Y-61415686D01*
X198289081Y-61362367D01*
X198288699Y-61336964D01*
X198287858Y-61336936D01*
X198288052Y-61331213D01*
X198288054Y-61331202D01*
X198231598Y-60364301D01*
X198247341Y-60296231D01*
X198267702Y-60269399D01*
X198800284Y-59736819D01*
X198861607Y-59703334D01*
X198887965Y-59700500D01*
X204660385Y-59700500D01*
X204692623Y-59704764D01*
X205180010Y-59835989D01*
X205189418Y-59838362D01*
X205190140Y-59838532D01*
X205202953Y-59841181D01*
X205206531Y-59841921D01*
X205206533Y-59841921D01*
X205206537Y-59841922D01*
X205206540Y-59841921D01*
X205213088Y-59842564D01*
X205213005Y-59843405D01*
X205234831Y-59846182D01*
X205250943Y-59850500D01*
X205250945Y-59850500D01*
X205409055Y-59850500D01*
X205409057Y-59850500D01*
X205561784Y-59809577D01*
X205698716Y-59730520D01*
X205810520Y-59618716D01*
X205889577Y-59481784D01*
X205930500Y-59329057D01*
X205930500Y-59170943D01*
X205889577Y-59018216D01*
X205878935Y-58999784D01*
X205810524Y-58881290D01*
X205810518Y-58881282D01*
X205698717Y-58769481D01*
X205698709Y-58769475D01*
X205561790Y-58690426D01*
X205561786Y-58690424D01*
X205561784Y-58690423D01*
X205409057Y-58649500D01*
X205250943Y-58649500D01*
X205250935Y-58649501D01*
X205214750Y-58659196D01*
X205192355Y-58663041D01*
X205180021Y-58664008D01*
X205180008Y-58664010D01*
X204692620Y-58795236D01*
X204660382Y-58799500D01*
X198590691Y-58799500D01*
X198476114Y-58830200D01*
X198465648Y-58836244D01*
X198465645Y-58836245D01*
X198373392Y-58889506D01*
X198373384Y-58889512D01*
X197529278Y-59733617D01*
X197507160Y-59750143D01*
X197507499Y-59750648D01*
X197502738Y-59753837D01*
X196493305Y-60574491D01*
X196493302Y-60574494D01*
X196489534Y-60578830D01*
X196468838Y-60597794D01*
X196400499Y-60647446D01*
X196272445Y-60775500D01*
X196272441Y-60775505D01*
X196166006Y-60922002D01*
X196083788Y-61083360D01*
X196083787Y-61083363D01*
X196027829Y-61255589D01*
X195999500Y-61434448D01*
X189380000Y-61434448D01*
X189380000Y-61330301D01*
X189379999Y-61330297D01*
X189368397Y-61271966D01*
X189368396Y-61271965D01*
X189324191Y-61205808D01*
X189258034Y-61161603D01*
X189258033Y-61161602D01*
X189199702Y-61150000D01*
X188680000Y-61150000D01*
X188680000Y-61842894D01*
X188637007Y-61799901D01*
X188522993Y-61734075D01*
X188395826Y-61700000D01*
X188264174Y-61700000D01*
X188137007Y-61734075D01*
X188022993Y-61799901D01*
X187980000Y-61842894D01*
X187980000Y-61150000D01*
X187460297Y-61150000D01*
X187401966Y-61161602D01*
X187401965Y-61161603D01*
X187335808Y-61205808D01*
X187291603Y-61271965D01*
X187291602Y-61271966D01*
X187280000Y-61330297D01*
X186547351Y-61330297D01*
X186539499Y-61322445D01*
X186539494Y-61322441D01*
X186392997Y-61216006D01*
X186392996Y-61216005D01*
X186392994Y-61216004D01*
X186312520Y-61175000D01*
X186231639Y-61133788D01*
X186231636Y-61133787D01*
X186059410Y-61077829D01*
X185880551Y-61049500D01*
X185880546Y-61049500D01*
X185699454Y-61049500D01*
X185699449Y-61049500D01*
X185520589Y-61077829D01*
X185348363Y-61133787D01*
X185348360Y-61133788D01*
X185187002Y-61216006D01*
X185040505Y-61322441D01*
X185040500Y-61322445D01*
X184912445Y-61450500D01*
X184912441Y-61450505D01*
X184806006Y-61597002D01*
X184723788Y-61758360D01*
X184723787Y-61758363D01*
X184667829Y-61930589D01*
X184642473Y-62090678D01*
X184612544Y-62153813D01*
X184553232Y-62190744D01*
X184483369Y-62189746D01*
X184425137Y-62151136D01*
X184397527Y-62090678D01*
X184381727Y-61990925D01*
X184372171Y-61930591D01*
X184316211Y-61758361D01*
X184316211Y-61758360D01*
X184275802Y-61679055D01*
X184233996Y-61597006D01*
X184188274Y-61534075D01*
X184127558Y-61450505D01*
X184127554Y-61450500D01*
X183999499Y-61322445D01*
X183999494Y-61322441D01*
X183852997Y-61216006D01*
X183852996Y-61216005D01*
X183852994Y-61216004D01*
X183772520Y-61175000D01*
X183691639Y-61133788D01*
X183691636Y-61133787D01*
X183519410Y-61077829D01*
X183340551Y-61049500D01*
X183340546Y-61049500D01*
X183159454Y-61049500D01*
X183159449Y-61049500D01*
X182980589Y-61077829D01*
X182808363Y-61133787D01*
X182808360Y-61133788D01*
X182647002Y-61216006D01*
X182500505Y-61322441D01*
X182500500Y-61322445D01*
X182372445Y-61450500D01*
X182372441Y-61450505D01*
X182266006Y-61597002D01*
X182183788Y-61758360D01*
X182183787Y-61758363D01*
X182127829Y-61930589D01*
X182099500Y-62109448D01*
X167850500Y-62109448D01*
X167850500Y-61370943D01*
X170749500Y-61370943D01*
X170749500Y-61529057D01*
X170789693Y-61679057D01*
X170790423Y-61681783D01*
X170790426Y-61681790D01*
X170869475Y-61818709D01*
X170869479Y-61818714D01*
X170869480Y-61818716D01*
X170981284Y-61930520D01*
X170981286Y-61930521D01*
X170981290Y-61930524D01*
X171118209Y-62009573D01*
X171118216Y-62009577D01*
X171270943Y-62050500D01*
X171270945Y-62050500D01*
X171429055Y-62050500D01*
X171429057Y-62050500D01*
X171581784Y-62009577D01*
X171718716Y-61930520D01*
X171830520Y-61818716D01*
X171869730Y-61750800D01*
X171881911Y-61733824D01*
X171892071Y-61712105D01*
X171909577Y-61681784D01*
X171911200Y-61675723D01*
X171918660Y-61655266D01*
X172091857Y-61285036D01*
X172116490Y-61249901D01*
X173080574Y-60285819D01*
X173141897Y-60252334D01*
X173168255Y-60249500D01*
X175834745Y-60249500D01*
X175901784Y-60269185D01*
X175947539Y-60321989D01*
X175957483Y-60391147D01*
X175928458Y-60454703D01*
X175922445Y-60461160D01*
X175736165Y-60647441D01*
X175700103Y-60683503D01*
X175664965Y-60708139D01*
X175294717Y-60881344D01*
X175294717Y-60881343D01*
X175284817Y-60885973D01*
X175268216Y-60890423D01*
X175237926Y-60907910D01*
X175233102Y-60910167D01*
X175233087Y-60910175D01*
X175216174Y-60918087D01*
X175195772Y-60928582D01*
X175194301Y-60929410D01*
X175194266Y-60929431D01*
X175169406Y-60945041D01*
X175166114Y-60947688D01*
X175150435Y-60958422D01*
X175131284Y-60969479D01*
X175019478Y-61081286D01*
X175019475Y-61081290D01*
X174940426Y-61218209D01*
X174940423Y-61218216D01*
X174899500Y-61370943D01*
X174899500Y-61529057D01*
X174939693Y-61679057D01*
X174940423Y-61681783D01*
X174940426Y-61681790D01*
X175019475Y-61818709D01*
X175019479Y-61818714D01*
X175019480Y-61818716D01*
X175131284Y-61930520D01*
X175131286Y-61930521D01*
X175131290Y-61930524D01*
X175268209Y-62009573D01*
X175268216Y-62009577D01*
X175420943Y-62050500D01*
X175420945Y-62050500D01*
X175579055Y-62050500D01*
X175579057Y-62050500D01*
X175731784Y-62009577D01*
X175868716Y-61930520D01*
X175980520Y-61818716D01*
X176019730Y-61750800D01*
X176031911Y-61733824D01*
X176042071Y-61712105D01*
X176059577Y-61681784D01*
X176061200Y-61675723D01*
X176068660Y-61655266D01*
X176241857Y-61285036D01*
X176266490Y-61249901D01*
X176829574Y-60686819D01*
X176890897Y-60653334D01*
X176917255Y-60650500D01*
X179474052Y-60650500D01*
X179541091Y-60670185D01*
X179586846Y-60722989D01*
X179596790Y-60792147D01*
X179567765Y-60855703D01*
X179525252Y-60886357D01*
X179525254Y-60886359D01*
X179525236Y-60886368D01*
X179521502Y-60889062D01*
X179518211Y-60890424D01*
X179381290Y-60969475D01*
X179381282Y-60969481D01*
X179269481Y-61081282D01*
X179269475Y-61081290D01*
X179190426Y-61218209D01*
X179190423Y-61218216D01*
X179149500Y-61370943D01*
X179149500Y-61529057D01*
X179189693Y-61679057D01*
X179190423Y-61681783D01*
X179190426Y-61681790D01*
X179269475Y-61818709D01*
X179269479Y-61818714D01*
X179269480Y-61818716D01*
X179381284Y-61930520D01*
X179381286Y-61930521D01*
X179381290Y-61930524D01*
X179518209Y-62009573D01*
X179518216Y-62009577D01*
X179670943Y-62050500D01*
X179670945Y-62050500D01*
X179829055Y-62050500D01*
X179829057Y-62050500D01*
X179981784Y-62009577D01*
X180118716Y-61930520D01*
X180230520Y-61818716D01*
X180309577Y-61681784D01*
X180350500Y-61529057D01*
X180350500Y-61370943D01*
X180309577Y-61218216D01*
X180302413Y-61205808D01*
X180230524Y-61081290D01*
X180230518Y-61081282D01*
X180118717Y-60969481D01*
X180118709Y-60969475D01*
X179981788Y-60890424D01*
X179978498Y-60889062D01*
X179976148Y-60887168D01*
X179974746Y-60886359D01*
X179974872Y-60886140D01*
X179924093Y-60845222D01*
X179902027Y-60778928D01*
X179919305Y-60711229D01*
X179970441Y-60663617D01*
X180025948Y-60650500D01*
X184727725Y-60650500D01*
X184727727Y-60650500D01*
X184829588Y-60623207D01*
X184920913Y-60570480D01*
X185570450Y-59920943D01*
X190199500Y-59920943D01*
X190199500Y-60079056D01*
X190240423Y-60231783D01*
X190240426Y-60231790D01*
X190319475Y-60368709D01*
X190319479Y-60368714D01*
X190319480Y-60368716D01*
X190431284Y-60480520D01*
X190431286Y-60480521D01*
X190431290Y-60480524D01*
X190473683Y-60504999D01*
X190568216Y-60559577D01*
X190720943Y-60600500D01*
X190720945Y-60600500D01*
X190879055Y-60600500D01*
X190879057Y-60600500D01*
X191031784Y-60559577D01*
X191168716Y-60480520D01*
X191280520Y-60368716D01*
X191359577Y-60231784D01*
X191400500Y-60079057D01*
X191400500Y-59920943D01*
X191359577Y-59768216D01*
X191341450Y-59736819D01*
X191280524Y-59631290D01*
X191280518Y-59631282D01*
X191168717Y-59519481D01*
X191168709Y-59519475D01*
X191031790Y-59440426D01*
X191031786Y-59440424D01*
X191031784Y-59440423D01*
X190879057Y-59399500D01*
X190720943Y-59399500D01*
X190568216Y-59440423D01*
X190568209Y-59440426D01*
X190431290Y-59519475D01*
X190431282Y-59519481D01*
X190319481Y-59631282D01*
X190319475Y-59631290D01*
X190240426Y-59768209D01*
X190240423Y-59768216D01*
X190199500Y-59920943D01*
X185570450Y-59920943D01*
X186395480Y-59095913D01*
X186448207Y-59004588D01*
X186475500Y-58902727D01*
X186475500Y-58797273D01*
X186475500Y-58218390D01*
X186482926Y-58176123D01*
X186491189Y-58153334D01*
X186625975Y-57781590D01*
X186634577Y-57766691D01*
X186643637Y-57732876D01*
X186651812Y-57710331D01*
X186658704Y-57688889D01*
X186659173Y-57687221D01*
X186665835Y-57658149D01*
X186665834Y-57658144D01*
X186666289Y-57653970D01*
X186669786Y-57635288D01*
X186675500Y-57613964D01*
X186675500Y-57455850D01*
X186634577Y-57303123D01*
X186630961Y-57296860D01*
X186555524Y-57166197D01*
X186555518Y-57166189D01*
X186443717Y-57054388D01*
X186443709Y-57054382D01*
X186306790Y-56975333D01*
X186306786Y-56975331D01*
X186306784Y-56975330D01*
X186154057Y-56934407D01*
X185995943Y-56934407D01*
X185843216Y-56975330D01*
X185843209Y-56975333D01*
X185706290Y-57054382D01*
X185706282Y-57054388D01*
X185594481Y-57166189D01*
X185594475Y-57166197D01*
X185515426Y-57303116D01*
X185515423Y-57303123D01*
X185474500Y-57455850D01*
X185474500Y-57613965D01*
X185493206Y-57683782D01*
X185493207Y-57683782D01*
X185494793Y-57689700D01*
X185498187Y-57710329D01*
X185506359Y-57732869D01*
X185507744Y-57738035D01*
X185512235Y-57754793D01*
X185515423Y-57766691D01*
X185518563Y-57772130D01*
X185527747Y-57791857D01*
X185576263Y-57925667D01*
X185576790Y-57934130D01*
X185580855Y-57941574D01*
X185578931Y-57968477D01*
X185580609Y-57995402D01*
X185576475Y-58002809D01*
X185575871Y-58011266D01*
X185559708Y-58032857D01*
X185546563Y-58056415D01*
X185539083Y-58060410D01*
X185534001Y-58067200D01*
X185508727Y-58076627D01*
X185484935Y-58089337D01*
X185476482Y-58088654D01*
X185468537Y-58091618D01*
X185442181Y-58085885D01*
X185415292Y-58083714D01*
X185406770Y-58078182D01*
X185400264Y-58076767D01*
X185372016Y-58055621D01*
X185372011Y-58055618D01*
X185345913Y-58029520D01*
X185345910Y-58029518D01*
X185016494Y-57700102D01*
X184991857Y-57664964D01*
X184977970Y-57635278D01*
X184818655Y-57294720D01*
X184811200Y-57274274D01*
X184809577Y-57268216D01*
X184794728Y-57242498D01*
X184789811Y-57233064D01*
X184788978Y-57231284D01*
X184781911Y-57216175D01*
X184771488Y-57195901D01*
X184770639Y-57194391D01*
X184768149Y-57190423D01*
X184754954Y-57169401D01*
X184752308Y-57166109D01*
X184741571Y-57150425D01*
X184730522Y-57131287D01*
X184730518Y-57131282D01*
X184618717Y-57019481D01*
X184618709Y-57019475D01*
X184481790Y-56940426D01*
X184481786Y-56940424D01*
X184481784Y-56940423D01*
X184329057Y-56899500D01*
X184170943Y-56899500D01*
X184018216Y-56940423D01*
X184018209Y-56940426D01*
X183881290Y-57019475D01*
X183881282Y-57019481D01*
X183769481Y-57131282D01*
X183769475Y-57131290D01*
X183690426Y-57268209D01*
X183690424Y-57268214D01*
X183690423Y-57268216D01*
X183649500Y-57420943D01*
X183649500Y-57579057D01*
X183688136Y-57723246D01*
X183690423Y-57731783D01*
X183690426Y-57731790D01*
X183769475Y-57868709D01*
X183769479Y-57868714D01*
X183769480Y-57868716D01*
X183881284Y-57980520D01*
X183949198Y-58019730D01*
X183966176Y-58031911D01*
X183987894Y-58042071D01*
X184018216Y-58059577D01*
X184024275Y-58061200D01*
X184044730Y-58068659D01*
X184414962Y-58241857D01*
X184450100Y-58266493D01*
X184663181Y-58479573D01*
X184696666Y-58540896D01*
X184699500Y-58567254D01*
X184699500Y-58932745D01*
X184679815Y-58999784D01*
X184663181Y-59020426D01*
X184271426Y-59412181D01*
X184210103Y-59445666D01*
X184183745Y-59448500D01*
X172898273Y-59448500D01*
X172796410Y-59475793D01*
X172705087Y-59528520D01*
X172705084Y-59528522D01*
X171550103Y-60683502D01*
X171514965Y-60708139D01*
X171144717Y-60881344D01*
X171144717Y-60881343D01*
X171134817Y-60885973D01*
X171118216Y-60890423D01*
X171087926Y-60907910D01*
X171083102Y-60910167D01*
X171083087Y-60910175D01*
X171066174Y-60918087D01*
X171045772Y-60928582D01*
X171044301Y-60929410D01*
X171044266Y-60929431D01*
X171019406Y-60945041D01*
X171016114Y-60947688D01*
X171000435Y-60958422D01*
X170981284Y-60969479D01*
X170869478Y-61081286D01*
X170869475Y-61081290D01*
X170790426Y-61218209D01*
X170790423Y-61218216D01*
X170749500Y-61370943D01*
X167850500Y-61370943D01*
X167850500Y-52630297D01*
X169950000Y-52630297D01*
X169950000Y-53150000D01*
X170642894Y-53150000D01*
X170599901Y-53192993D01*
X170534075Y-53307007D01*
X170500000Y-53434174D01*
X170500000Y-53565826D01*
X170534075Y-53692993D01*
X170599901Y-53807007D01*
X170642894Y-53850000D01*
X169950000Y-53850000D01*
X169950000Y-54369702D01*
X169961602Y-54428033D01*
X169961603Y-54428034D01*
X170005808Y-54494191D01*
X170071965Y-54538396D01*
X170071966Y-54538397D01*
X170130297Y-54549999D01*
X170130301Y-54550000D01*
X170650000Y-54550000D01*
X170650000Y-53857106D01*
X170692993Y-53900099D01*
X170807007Y-53965925D01*
X170934174Y-54000000D01*
X171065826Y-54000000D01*
X171192993Y-53965925D01*
X171307007Y-53900099D01*
X171350000Y-53857106D01*
X171350000Y-54550000D01*
X171869699Y-54550000D01*
X171869702Y-54549999D01*
X171928033Y-54538397D01*
X171928034Y-54538396D01*
X171994191Y-54494191D01*
X172038396Y-54428034D01*
X172038397Y-54428033D01*
X172049999Y-54369702D01*
X172050000Y-54369699D01*
X172050000Y-53850000D01*
X171357106Y-53850000D01*
X171400099Y-53807007D01*
X171465925Y-53692993D01*
X171500000Y-53565826D01*
X171500000Y-53434174D01*
X171493375Y-53409448D01*
X172389500Y-53409448D01*
X172389500Y-53590551D01*
X172417829Y-53769410D01*
X172473787Y-53941636D01*
X172473788Y-53941639D01*
X172514323Y-54021191D01*
X172539796Y-54071185D01*
X172556006Y-54102997D01*
X172662441Y-54249494D01*
X172662445Y-54249499D01*
X172790500Y-54377554D01*
X172790505Y-54377558D01*
X172874244Y-54438397D01*
X172937006Y-54483996D01*
X173034072Y-54533454D01*
X173098360Y-54566211D01*
X173098363Y-54566212D01*
X173184476Y-54594191D01*
X173270591Y-54622171D01*
X173353429Y-54635291D01*
X173449449Y-54650500D01*
X173449454Y-54650500D01*
X173630551Y-54650500D01*
X173717259Y-54636765D01*
X173809409Y-54622171D01*
X173981639Y-54566211D01*
X174142994Y-54483996D01*
X174289501Y-54377553D01*
X174417553Y-54249501D01*
X174523996Y-54102994D01*
X174606211Y-53941639D01*
X174662171Y-53769409D01*
X174679351Y-53660939D01*
X174690500Y-53590551D01*
X174690500Y-53409448D01*
X174672960Y-53298708D01*
X174662171Y-53230591D01*
X174619708Y-53099901D01*
X174606212Y-53058363D01*
X174606211Y-53058360D01*
X174563551Y-52974637D01*
X174523996Y-52897006D01*
X174485602Y-52844161D01*
X174417558Y-52750505D01*
X174417554Y-52750500D01*
X174289499Y-52622445D01*
X174289494Y-52622441D01*
X174142997Y-52516006D01*
X174142996Y-52516005D01*
X174142994Y-52516004D01*
X174091300Y-52489664D01*
X173981639Y-52433788D01*
X173981636Y-52433787D01*
X173809410Y-52377829D01*
X173630551Y-52349500D01*
X173630546Y-52349500D01*
X173449454Y-52349500D01*
X173449449Y-52349500D01*
X173270589Y-52377829D01*
X173098363Y-52433787D01*
X173098360Y-52433788D01*
X172937002Y-52516006D01*
X172790505Y-52622441D01*
X172790500Y-52622445D01*
X172662445Y-52750500D01*
X172662441Y-52750505D01*
X172556006Y-52897002D01*
X172473788Y-53058360D01*
X172473787Y-53058363D01*
X172417829Y-53230589D01*
X172389500Y-53409448D01*
X171493375Y-53409448D01*
X171465925Y-53307007D01*
X171400099Y-53192993D01*
X171357106Y-53150000D01*
X172050000Y-53150000D01*
X172050000Y-52630301D01*
X172049999Y-52630297D01*
X172038397Y-52571966D01*
X172038396Y-52571965D01*
X171994191Y-52505808D01*
X171928034Y-52461603D01*
X171928033Y-52461602D01*
X171869702Y-52450000D01*
X171350000Y-52450000D01*
X171350000Y-53142894D01*
X171307007Y-53099901D01*
X171192993Y-53034075D01*
X171065826Y-53000000D01*
X170934174Y-53000000D01*
X170807007Y-53034075D01*
X170692993Y-53099901D01*
X170650000Y-53142894D01*
X170650000Y-52450000D01*
X170130297Y-52450000D01*
X170071966Y-52461602D01*
X170071965Y-52461603D01*
X170005808Y-52505808D01*
X169961603Y-52571965D01*
X169961602Y-52571966D01*
X169950000Y-52630297D01*
X167850500Y-52630297D01*
X167850500Y-45159448D01*
X171599500Y-45159448D01*
X171599500Y-45340551D01*
X171627829Y-45519410D01*
X171683787Y-45691636D01*
X171683788Y-45691639D01*
X171729075Y-45780518D01*
X171755144Y-45831681D01*
X171766006Y-45852997D01*
X171872441Y-45999494D01*
X171872443Y-45999497D01*
X172000500Y-46127554D01*
X172000505Y-46127558D01*
X172117759Y-46212747D01*
X172147006Y-46233996D01*
X172228462Y-46275500D01*
X172308360Y-46316211D01*
X172308363Y-46316212D01*
X172370217Y-46336309D01*
X172480591Y-46372171D01*
X172582388Y-46388294D01*
X172612270Y-46393027D01*
X172675405Y-46422956D01*
X172712336Y-46482268D01*
X172711338Y-46552130D01*
X172672728Y-46610363D01*
X172608765Y-46638477D01*
X172592872Y-46639500D01*
X171855143Y-46639500D01*
X171855117Y-46639502D01*
X171830012Y-46642413D01*
X171830008Y-46642415D01*
X171727235Y-46687793D01*
X171647794Y-46767234D01*
X171602415Y-46870006D01*
X171602415Y-46870008D01*
X171599500Y-46895131D01*
X171599500Y-48684856D01*
X171599502Y-48684882D01*
X171602413Y-48709987D01*
X171602415Y-48709991D01*
X171647793Y-48812764D01*
X171647794Y-48812765D01*
X171727235Y-48892206D01*
X171830009Y-48937585D01*
X171855135Y-48940500D01*
X172295139Y-48940499D01*
X172345724Y-48951286D01*
X172410282Y-48980131D01*
X173875366Y-49634744D01*
X173912461Y-49660275D01*
X176809500Y-52557314D01*
X176902686Y-52650500D01*
X176902687Y-52650501D01*
X176902689Y-52650502D01*
X176972299Y-52690691D01*
X176972300Y-52690692D01*
X177016808Y-52716389D01*
X177016809Y-52716389D01*
X177016814Y-52716392D01*
X177144107Y-52750500D01*
X177144108Y-52750500D01*
X177382666Y-52750500D01*
X177444665Y-52767112D01*
X177518216Y-52809577D01*
X177670943Y-52850500D01*
X177670945Y-52850500D01*
X177829055Y-52850500D01*
X177829057Y-52850500D01*
X177981784Y-52809577D01*
X178055334Y-52767112D01*
X178117334Y-52750500D01*
X181132666Y-52750500D01*
X181148185Y-52754664D01*
X181161989Y-52754017D01*
X181194740Y-52767156D01*
X181195428Y-52767553D01*
X181243606Y-52818156D01*
X181256779Y-52886773D01*
X181230763Y-52951618D01*
X181221031Y-52962575D01*
X181179521Y-53004086D01*
X179120426Y-55063181D01*
X179059103Y-55096666D01*
X179032745Y-55099500D01*
X177500098Y-55099500D01*
X177433059Y-55079815D01*
X177412417Y-55063181D01*
X177368717Y-55019481D01*
X177368709Y-55019475D01*
X177231790Y-54940426D01*
X177231786Y-54940424D01*
X177231784Y-54940423D01*
X177079057Y-54899500D01*
X176920943Y-54899500D01*
X176768216Y-54940423D01*
X176768209Y-54940426D01*
X176631290Y-55019475D01*
X176631282Y-55019481D01*
X176519481Y-55131282D01*
X176519475Y-55131290D01*
X176440426Y-55268209D01*
X176440423Y-55268216D01*
X176399500Y-55420943D01*
X176399500Y-55579057D01*
X176410880Y-55621529D01*
X176424303Y-55671622D01*
X176422640Y-55741471D01*
X176392209Y-55791396D01*
X176171903Y-56011702D01*
X176156127Y-56020316D01*
X176143385Y-56032997D01*
X176126097Y-56036713D01*
X176110580Y-56045187D01*
X176092649Y-56043904D01*
X176075076Y-56047683D01*
X176041185Y-56040224D01*
X176040888Y-56040203D01*
X176040607Y-56040097D01*
X175949111Y-56005718D01*
X175930724Y-55997028D01*
X175919284Y-55990423D01*
X175887217Y-55981830D01*
X175875702Y-55978134D01*
X175866362Y-55974624D01*
X175843058Y-55966921D01*
X175842706Y-55966820D01*
X175841257Y-55966405D01*
X175841246Y-55966402D01*
X175841241Y-55966401D01*
X175810299Y-55959251D01*
X175807345Y-55958929D01*
X175788729Y-55955439D01*
X175766564Y-55949501D01*
X175766558Y-55949500D01*
X175766557Y-55949500D01*
X175608443Y-55949500D01*
X175455716Y-55990423D01*
X175455709Y-55990426D01*
X175318790Y-56069475D01*
X175318782Y-56069481D01*
X175206981Y-56181282D01*
X175206975Y-56181290D01*
X175127926Y-56318209D01*
X175127923Y-56318216D01*
X175087000Y-56470943D01*
X175087000Y-56629057D01*
X175127302Y-56779464D01*
X175127923Y-56781783D01*
X175127926Y-56781790D01*
X175206975Y-56918709D01*
X175206979Y-56918714D01*
X175206980Y-56918716D01*
X175318784Y-57030520D01*
X175318786Y-57030521D01*
X175318790Y-57030524D01*
X175448105Y-57105183D01*
X175455716Y-57109577D01*
X175608443Y-57150500D01*
X175608445Y-57150500D01*
X175766555Y-57150500D01*
X175766557Y-57150500D01*
X175919284Y-57109577D01*
X175968985Y-57080881D01*
X175996988Y-57069022D01*
X175999693Y-57068251D01*
X176211200Y-56962782D01*
X176250348Y-56950813D01*
X176252717Y-56950500D01*
X176252727Y-56950500D01*
X176354588Y-56923207D01*
X176445913Y-56870480D01*
X176533974Y-56782418D01*
X176537963Y-56778947D01*
X176538930Y-56777462D01*
X177279467Y-56036924D01*
X177305146Y-56017221D01*
X177368716Y-55980520D01*
X177412417Y-55936819D01*
X177473740Y-55903334D01*
X177500098Y-55900500D01*
X178393085Y-55900500D01*
X178460124Y-55920185D01*
X178505879Y-55972989D01*
X178515823Y-56042147D01*
X178486798Y-56105703D01*
X178480766Y-56112181D01*
X178456981Y-56135965D01*
X178456975Y-56135973D01*
X178377926Y-56272892D01*
X178377923Y-56272899D01*
X178337000Y-56425626D01*
X178337000Y-56583740D01*
X178349143Y-56629056D01*
X178377923Y-56736466D01*
X178377926Y-56736473D01*
X178456975Y-56873392D01*
X178456979Y-56873397D01*
X178456980Y-56873399D01*
X178568784Y-56985203D01*
X178568786Y-56985204D01*
X178568790Y-56985207D01*
X178688615Y-57054387D01*
X178705716Y-57064260D01*
X178858443Y-57105183D01*
X178858445Y-57105183D01*
X179016555Y-57105183D01*
X179016557Y-57105183D01*
X179169284Y-57064260D01*
X179306216Y-56985203D01*
X179418020Y-56873399D01*
X179418022Y-56873394D01*
X179420596Y-56870821D01*
X179446271Y-56851119D01*
X179491230Y-56825163D01*
X180179574Y-56136819D01*
X180240897Y-56103334D01*
X180267255Y-56100500D01*
X180329055Y-56100500D01*
X180329057Y-56100500D01*
X180481784Y-56059577D01*
X180618716Y-55980520D01*
X180730520Y-55868716D01*
X180809577Y-55731784D01*
X180850500Y-55579057D01*
X180850500Y-55517255D01*
X180870185Y-55450216D01*
X180886819Y-55429574D01*
X182228574Y-54087819D01*
X182289897Y-54054334D01*
X182316255Y-54051500D01*
X184550069Y-54051500D01*
X184617108Y-54071185D01*
X184662863Y-54123989D01*
X184672807Y-54193147D01*
X184643782Y-54256703D01*
X184636687Y-54263389D01*
X184637031Y-54263733D01*
X184519481Y-54381282D01*
X184519475Y-54381290D01*
X184440426Y-54518209D01*
X184440423Y-54518216D01*
X184399500Y-54670943D01*
X184399500Y-54732745D01*
X184379815Y-54799784D01*
X184363181Y-54820426D01*
X183076210Y-56107397D01*
X183014887Y-56140882D01*
X182988529Y-56143716D01*
X182600098Y-56143716D01*
X182533059Y-56124031D01*
X182512417Y-56107397D01*
X182468717Y-56063697D01*
X182468709Y-56063691D01*
X182331790Y-55984642D01*
X182331786Y-55984640D01*
X182331784Y-55984639D01*
X182179057Y-55943716D01*
X182020943Y-55943716D01*
X181868216Y-55984639D01*
X181868209Y-55984642D01*
X181731290Y-56063691D01*
X181731282Y-56063697D01*
X181619481Y-56175498D01*
X181619475Y-56175506D01*
X181540426Y-56312425D01*
X181540423Y-56312432D01*
X181499500Y-56465159D01*
X181499500Y-56623273D01*
X181532361Y-56745910D01*
X181540423Y-56775999D01*
X181540426Y-56776006D01*
X181619475Y-56912925D01*
X181619479Y-56912930D01*
X181619480Y-56912932D01*
X181731284Y-57024736D01*
X181731286Y-57024737D01*
X181731290Y-57024740D01*
X181862512Y-57100500D01*
X181868216Y-57103793D01*
X182020943Y-57144716D01*
X182020945Y-57144716D01*
X182179055Y-57144716D01*
X182179057Y-57144716D01*
X182331784Y-57103793D01*
X182468716Y-57024736D01*
X182512417Y-56981035D01*
X182573740Y-56947550D01*
X182600098Y-56944716D01*
X183258509Y-56944716D01*
X183258511Y-56944716D01*
X183360372Y-56917423D01*
X183451697Y-56864696D01*
X184929573Y-55386818D01*
X184990896Y-55353334D01*
X185017254Y-55350500D01*
X185079055Y-55350500D01*
X185079057Y-55350500D01*
X185231784Y-55309577D01*
X185368716Y-55230520D01*
X185480520Y-55118716D01*
X185559577Y-54981784D01*
X185600500Y-54829057D01*
X185600500Y-54829048D01*
X185601561Y-54820997D01*
X185604315Y-54821359D01*
X185620185Y-54767314D01*
X185636814Y-54746676D01*
X186679448Y-53704042D01*
X186740769Y-53670559D01*
X186810461Y-53675543D01*
X186854808Y-53704044D01*
X186964099Y-53813335D01*
X186964101Y-53813336D01*
X186964105Y-53813339D01*
X187055188Y-53865925D01*
X187101031Y-53892392D01*
X187253758Y-53933315D01*
X187253760Y-53933315D01*
X187411870Y-53933315D01*
X187411872Y-53933315D01*
X187564599Y-53892392D01*
X187701531Y-53813335D01*
X187813335Y-53701531D01*
X187892392Y-53564599D01*
X187933315Y-53411872D01*
X187933315Y-53350070D01*
X187953000Y-53283031D01*
X187969634Y-53262389D01*
X188015122Y-53216901D01*
X188064200Y-53167823D01*
X188085696Y-53130591D01*
X188116927Y-53076497D01*
X188144220Y-52974637D01*
X188144220Y-51967255D01*
X188163905Y-51900216D01*
X188180539Y-51879574D01*
X189523294Y-50536819D01*
X189584617Y-50503334D01*
X189610975Y-50500500D01*
X192793668Y-50500500D01*
X192860707Y-50520185D01*
X192906462Y-50572989D01*
X192916406Y-50642147D01*
X192913443Y-50656591D01*
X192909598Y-50670938D01*
X192909598Y-50829058D01*
X192928304Y-50898875D01*
X192928305Y-50898875D01*
X192929891Y-50904793D01*
X192933285Y-50925422D01*
X192941457Y-50947962D01*
X192942842Y-50953128D01*
X192950520Y-50981781D01*
X192950521Y-50981784D01*
X192953661Y-50987223D01*
X192962845Y-51006950D01*
X193030188Y-51192683D01*
X193096653Y-51375996D01*
X193102172Y-51391216D01*
X193109598Y-51433483D01*
X193109598Y-53053137D01*
X193089913Y-53120176D01*
X193073279Y-53140818D01*
X192085671Y-54128426D01*
X192024348Y-54161911D01*
X191997990Y-54164745D01*
X191936188Y-54164745D01*
X191783461Y-54205668D01*
X191783454Y-54205671D01*
X191646535Y-54284720D01*
X191646527Y-54284726D01*
X191534726Y-54396527D01*
X191534720Y-54396535D01*
X191455671Y-54533454D01*
X191455668Y-54533461D01*
X191414745Y-54686188D01*
X191414745Y-54747990D01*
X191395060Y-54815029D01*
X191378426Y-54835671D01*
X190990349Y-55223747D01*
X190955211Y-55248384D01*
X190584962Y-55421589D01*
X190584962Y-55421588D01*
X190575062Y-55426218D01*
X190558461Y-55430668D01*
X190528171Y-55448155D01*
X190523347Y-55450412D01*
X190523332Y-55450420D01*
X190506419Y-55458332D01*
X190486017Y-55468827D01*
X190484546Y-55469655D01*
X190484511Y-55469676D01*
X190459651Y-55485286D01*
X190456359Y-55487933D01*
X190440680Y-55498667D01*
X190421529Y-55509724D01*
X190309723Y-55621531D01*
X190309720Y-55621535D01*
X190230671Y-55758454D01*
X190230668Y-55758461D01*
X190189745Y-55911188D01*
X190189745Y-56069302D01*
X190229045Y-56215970D01*
X190230668Y-56222028D01*
X190230671Y-56222035D01*
X190309720Y-56358954D01*
X190309724Y-56358959D01*
X190309725Y-56358961D01*
X190421529Y-56470765D01*
X190421531Y-56470766D01*
X190421535Y-56470769D01*
X190479030Y-56503963D01*
X190558461Y-56549822D01*
X190711188Y-56590745D01*
X190711190Y-56590745D01*
X190869300Y-56590745D01*
X190869302Y-56590745D01*
X191022029Y-56549822D01*
X191158961Y-56470765D01*
X191270765Y-56358961D01*
X191309975Y-56291045D01*
X191322156Y-56274069D01*
X191332316Y-56252350D01*
X191349822Y-56222029D01*
X191351445Y-56215968D01*
X191358901Y-56195519D01*
X191532103Y-55825277D01*
X191556735Y-55790145D01*
X191944818Y-55402064D01*
X192006141Y-55368579D01*
X192032499Y-55365745D01*
X192094300Y-55365745D01*
X192094302Y-55365745D01*
X192247029Y-55324822D01*
X192383961Y-55245765D01*
X192495765Y-55133961D01*
X192574822Y-54997029D01*
X192615745Y-54844302D01*
X192615745Y-54782500D01*
X192635430Y-54715461D01*
X192652064Y-54694819D01*
X193234369Y-54112514D01*
X193830578Y-53516305D01*
X193845450Y-53490546D01*
X193883305Y-53424979D01*
X193910598Y-53323119D01*
X193910598Y-51975000D01*
X195600000Y-51975000D01*
X195600000Y-51994702D01*
X195611602Y-52053033D01*
X195611603Y-52053034D01*
X195655808Y-52119191D01*
X195721965Y-52163396D01*
X195721966Y-52163397D01*
X195780297Y-52174999D01*
X195780301Y-52175000D01*
X196409307Y-52175000D01*
X196476346Y-52194685D01*
X196522101Y-52247489D01*
X196532045Y-52316647D01*
X196523869Y-52346448D01*
X196519906Y-52356017D01*
X196500460Y-52402963D01*
X196500458Y-52402969D01*
X196474500Y-52533466D01*
X196474500Y-52533469D01*
X196474500Y-52666531D01*
X196474500Y-52666533D01*
X196474499Y-52666533D01*
X196500458Y-52797030D01*
X196500461Y-52797040D01*
X196551376Y-52919961D01*
X196551386Y-52919979D01*
X196625301Y-53030601D01*
X196625307Y-53030609D01*
X196719390Y-53124692D01*
X196719398Y-53124698D01*
X196830020Y-53198613D01*
X196830023Y-53198614D01*
X196830031Y-53198620D01*
X196830037Y-53198622D01*
X196830038Y-53198623D01*
X196952959Y-53249538D01*
X196952964Y-53249540D01*
X196952968Y-53249540D01*
X196952969Y-53249541D01*
X197083466Y-53275500D01*
X197083469Y-53275500D01*
X197216533Y-53275500D01*
X197304325Y-53258035D01*
X197347036Y-53249540D01*
X197469969Y-53198620D01*
X197580606Y-53124695D01*
X197674695Y-53030606D01*
X197748620Y-52919969D01*
X197799540Y-52797036D01*
X197825500Y-52666531D01*
X197825500Y-52533469D01*
X197825500Y-52533466D01*
X197799541Y-52402969D01*
X197799540Y-52402968D01*
X197799540Y-52402964D01*
X197799537Y-52402958D01*
X197799536Y-52402953D01*
X197748623Y-52280038D01*
X197748622Y-52280037D01*
X197748620Y-52280031D01*
X197726876Y-52247489D01*
X197674698Y-52169398D01*
X197674692Y-52169390D01*
X197580611Y-52075309D01*
X197580609Y-52075308D01*
X197580606Y-52075305D01*
X197555107Y-52058267D01*
X197550017Y-52052176D01*
X197542797Y-52048879D01*
X197527933Y-52025751D01*
X197510303Y-52004654D01*
X197508351Y-51995280D01*
X197507980Y-51994702D01*
X199400000Y-51994702D01*
X199411602Y-52053033D01*
X199411603Y-52053034D01*
X199455808Y-52119191D01*
X199521965Y-52163396D01*
X199521966Y-52163397D01*
X199580297Y-52174999D01*
X199580301Y-52175000D01*
X200075000Y-52175000D01*
X200625000Y-52175000D01*
X201119699Y-52175000D01*
X201119702Y-52174999D01*
X201178033Y-52163397D01*
X201178034Y-52163396D01*
X201244191Y-52119191D01*
X201288396Y-52053034D01*
X201288397Y-52053033D01*
X201299999Y-51994702D01*
X201300000Y-51994699D01*
X201300000Y-51975000D01*
X200625000Y-51975000D01*
X200625000Y-52175000D01*
X200075000Y-52175000D01*
X200075000Y-51975000D01*
X199400000Y-51975000D01*
X199400000Y-51994702D01*
X197507980Y-51994702D01*
X197505023Y-51990101D01*
X197503330Y-51978330D01*
X197500000Y-51975000D01*
X197430946Y-51975000D01*
X197383494Y-51965561D01*
X197347040Y-51950461D01*
X197347030Y-51950458D01*
X197216533Y-51924500D01*
X197216531Y-51924500D01*
X197083469Y-51924500D01*
X197083467Y-51924500D01*
X196952969Y-51950458D01*
X196952959Y-51950461D01*
X196916506Y-51965561D01*
X196869054Y-51975000D01*
X195600000Y-51975000D01*
X193910598Y-51975000D01*
X193910598Y-51433483D01*
X193918024Y-51391216D01*
X193923543Y-51375996D01*
X193989276Y-51194702D01*
X195600000Y-51194702D01*
X195613986Y-51265014D01*
X195612768Y-51265256D01*
X195618869Y-51322021D01*
X195611725Y-51346350D01*
X195600000Y-51405297D01*
X195600000Y-51425000D01*
X196275000Y-51425000D01*
X196825000Y-51425000D01*
X197500000Y-51425000D01*
X197500000Y-51405304D01*
X197486013Y-51334985D01*
X197487233Y-51334742D01*
X197481128Y-51277993D01*
X197488269Y-51253670D01*
X197500000Y-51194695D01*
X197500000Y-51175000D01*
X196825000Y-51175000D01*
X196825000Y-51425000D01*
X196275000Y-51425000D01*
X196275000Y-51175000D01*
X195600000Y-51175000D01*
X195600000Y-51194702D01*
X193989276Y-51194702D01*
X194057350Y-51006949D01*
X194066534Y-50987223D01*
X194069675Y-50981784D01*
X194077355Y-50953116D01*
X194080547Y-50942969D01*
X194086910Y-50925424D01*
X194093802Y-50903982D01*
X194094271Y-50902314D01*
X194100933Y-50873242D01*
X194100932Y-50873237D01*
X194101387Y-50869063D01*
X194104884Y-50850381D01*
X194110598Y-50829057D01*
X194110598Y-50670943D01*
X194108334Y-50662492D01*
X194106753Y-50656591D01*
X194108417Y-50586741D01*
X194147580Y-50528880D01*
X194211809Y-50501377D01*
X194226528Y-50500500D01*
X195392074Y-50500500D01*
X195409057Y-50505445D01*
X195426476Y-50505368D01*
X195458644Y-50519885D01*
X195546825Y-50576000D01*
X195567930Y-50592930D01*
X195603589Y-50628589D01*
X195647294Y-50639758D01*
X195647436Y-50639469D01*
X195648822Y-50640149D01*
X195649034Y-50640203D01*
X195649914Y-50640684D01*
X195674319Y-50652651D01*
X195684917Y-50655093D01*
X195707147Y-50662490D01*
X195730009Y-50672585D01*
X195755135Y-50675500D01*
X195773435Y-50675499D01*
X195783721Y-50677871D01*
X195792668Y-50678245D01*
X195799749Y-50678459D01*
X195817387Y-50675499D01*
X197344864Y-50675499D01*
X197344879Y-50675497D01*
X197344882Y-50675497D01*
X197369987Y-50672586D01*
X197369988Y-50672585D01*
X197369991Y-50672585D01*
X197472765Y-50627206D01*
X197552206Y-50547765D01*
X197597585Y-50444991D01*
X197600500Y-50419865D01*
X197600499Y-49780136D01*
X197600497Y-49780117D01*
X197597586Y-49755013D01*
X197597585Y-49755011D01*
X197597585Y-49755009D01*
X197595411Y-49750086D01*
X197586339Y-49680812D01*
X197595412Y-49649911D01*
X197597585Y-49644991D01*
X197600500Y-49619865D01*
X197600499Y-48980136D01*
X197600497Y-48980117D01*
X197597586Y-48955013D01*
X197597585Y-48955011D01*
X197597585Y-48955009D01*
X197595411Y-48950086D01*
X197586339Y-48880812D01*
X197595412Y-48849911D01*
X197597585Y-48844991D01*
X197600500Y-48819865D01*
X197600499Y-48180136D01*
X197600497Y-48180117D01*
X197597586Y-48155013D01*
X197597585Y-48155011D01*
X197597585Y-48155009D01*
X197595411Y-48150086D01*
X197586339Y-48080812D01*
X197595412Y-48049911D01*
X197597585Y-48044991D01*
X197600500Y-48019865D01*
X197600499Y-47524499D01*
X197620183Y-47457461D01*
X197672987Y-47411706D01*
X197724499Y-47400500D01*
X199175500Y-47400500D01*
X199242539Y-47420185D01*
X199288294Y-47472989D01*
X199299500Y-47524500D01*
X199299500Y-48019856D01*
X199299502Y-48019880D01*
X199302414Y-48044989D01*
X199302415Y-48044995D01*
X199304590Y-48049920D01*
X199313658Y-48119199D01*
X199304592Y-48150076D01*
X199302416Y-48155003D01*
X199302415Y-48155009D01*
X199299500Y-48180131D01*
X199299500Y-48819856D01*
X199299502Y-48819880D01*
X199302414Y-48844989D01*
X199302415Y-48844995D01*
X199304590Y-48849920D01*
X199313658Y-48919199D01*
X199304592Y-48950076D01*
X199302416Y-48955003D01*
X199302415Y-48955009D01*
X199299500Y-48980131D01*
X199299500Y-49619856D01*
X199299502Y-49619880D01*
X199302414Y-49644989D01*
X199302415Y-49644995D01*
X199304590Y-49649920D01*
X199313658Y-49719199D01*
X199304592Y-49750076D01*
X199302416Y-49755003D01*
X199302415Y-49755009D01*
X199299500Y-49780131D01*
X199299500Y-50419856D01*
X199299502Y-50419880D01*
X199302414Y-50444989D01*
X199302415Y-50444995D01*
X199304590Y-50449920D01*
X199313658Y-50519199D01*
X199304592Y-50550076D01*
X199302416Y-50555003D01*
X199302415Y-50555009D01*
X199299500Y-50580131D01*
X199299500Y-51219856D01*
X199299502Y-51219882D01*
X199302413Y-51244987D01*
X199302415Y-51244991D01*
X199347793Y-51347764D01*
X199347794Y-51347765D01*
X199427235Y-51427206D01*
X199530009Y-51472585D01*
X199555135Y-51475500D01*
X201144864Y-51475499D01*
X201144879Y-51475497D01*
X201144882Y-51475497D01*
X201169987Y-51472586D01*
X201169987Y-51472585D01*
X201169991Y-51472585D01*
X201248960Y-51437715D01*
X201252825Y-51436087D01*
X201258194Y-51433931D01*
X201298943Y-51426055D01*
X201332068Y-51392930D01*
X201353173Y-51376000D01*
X201437999Y-51322021D01*
X201441356Y-51319885D01*
X201507927Y-51300500D01*
X202475500Y-51300500D01*
X202542539Y-51320185D01*
X202588294Y-51372989D01*
X202599500Y-51424500D01*
X202599500Y-53637273D01*
X202599500Y-53742727D01*
X202606650Y-53769410D01*
X202619777Y-53818402D01*
X202624002Y-53850495D01*
X202624002Y-53919329D01*
X202629979Y-53941636D01*
X202651295Y-54021191D01*
X202670431Y-54054334D01*
X202704022Y-54112515D01*
X202704024Y-54112517D01*
X203831609Y-55240102D01*
X203841528Y-55258267D01*
X203855457Y-55273585D01*
X203857936Y-55288316D01*
X203865094Y-55301425D01*
X203863617Y-55322072D01*
X203867053Y-55342486D01*
X203860429Y-55366650D01*
X203860110Y-55371117D01*
X203857923Y-55376579D01*
X203857624Y-55377277D01*
X203825113Y-55450828D01*
X203823364Y-55457312D01*
X203819913Y-55465377D01*
X203817648Y-55468120D01*
X203813307Y-55478578D01*
X203790424Y-55518214D01*
X203790422Y-55518219D01*
X203779340Y-55559577D01*
X203749500Y-55670943D01*
X203749500Y-55829057D01*
X203790086Y-55980524D01*
X203790423Y-55981783D01*
X203790426Y-55981790D01*
X203869475Y-56118709D01*
X203869479Y-56118714D01*
X203869480Y-56118716D01*
X203981284Y-56230520D01*
X203981286Y-56230521D01*
X203981290Y-56230524D01*
X204069195Y-56281275D01*
X204118216Y-56309577D01*
X204270943Y-56350500D01*
X204270945Y-56350500D01*
X204429055Y-56350500D01*
X204429057Y-56350500D01*
X204581784Y-56309577D01*
X204718716Y-56230520D01*
X204718721Y-56230514D01*
X204725161Y-56225574D01*
X204726152Y-56226866D01*
X204779142Y-56197932D01*
X204848834Y-56202916D01*
X204904767Y-56244788D01*
X204929184Y-56310252D01*
X204929500Y-56319098D01*
X204929500Y-56816513D01*
X204922074Y-56858781D01*
X204782742Y-57243057D01*
X204779018Y-57253325D01*
X204770423Y-57268216D01*
X204761368Y-57302008D01*
X204759547Y-57307031D01*
X204753185Y-57324579D01*
X204746252Y-57346163D01*
X204745781Y-57347844D01*
X204745780Y-57347846D01*
X204739163Y-57376760D01*
X204738706Y-57380959D01*
X204735211Y-57399624D01*
X204729500Y-57420937D01*
X204729500Y-57420943D01*
X204729500Y-57579057D01*
X204768136Y-57723246D01*
X204770423Y-57731783D01*
X204770426Y-57731790D01*
X204849475Y-57868709D01*
X204849479Y-57868714D01*
X204849480Y-57868716D01*
X204961284Y-57980520D01*
X204961286Y-57980521D01*
X204961290Y-57980524D01*
X205091357Y-58055617D01*
X205098216Y-58059577D01*
X205250943Y-58100500D01*
X205250945Y-58100500D01*
X205409055Y-58100500D01*
X205409057Y-58100500D01*
X205561784Y-58059577D01*
X205698716Y-57980520D01*
X205810520Y-57868716D01*
X205889577Y-57731784D01*
X205905879Y-57670943D01*
X206399500Y-57670943D01*
X206399500Y-57829057D01*
X206440086Y-57980524D01*
X206440423Y-57981783D01*
X206440426Y-57981790D01*
X206519475Y-58118709D01*
X206519479Y-58118714D01*
X206519480Y-58118716D01*
X206631284Y-58230520D01*
X206631286Y-58230521D01*
X206631290Y-58230524D01*
X206746906Y-58297274D01*
X206768216Y-58309577D01*
X206920943Y-58350500D01*
X206920945Y-58350500D01*
X207079055Y-58350500D01*
X207079057Y-58350500D01*
X207231784Y-58309577D01*
X207368716Y-58230520D01*
X207412417Y-58186819D01*
X207473740Y-58153334D01*
X207500098Y-58150500D01*
X207782745Y-58150500D01*
X207849784Y-58170185D01*
X207870426Y-58186819D01*
X208679518Y-58995910D01*
X208679520Y-58995913D01*
X208754087Y-59070480D01*
X208800494Y-59097273D01*
X208845413Y-59123207D01*
X208947273Y-59150501D01*
X208947275Y-59150501D01*
X209060323Y-59150501D01*
X209060339Y-59150500D01*
X211081445Y-59150500D01*
X211148484Y-59170185D01*
X211169126Y-59186819D01*
X212063181Y-60080873D01*
X212077884Y-60107800D01*
X212094477Y-60133619D01*
X212095368Y-60139819D01*
X212096666Y-60142196D01*
X212099500Y-60168554D01*
X212099500Y-60387336D01*
X212079815Y-60454375D01*
X212027011Y-60500130D01*
X212014632Y-60504999D01*
X210905999Y-60873703D01*
X210895248Y-60876331D01*
X210895335Y-60876690D01*
X210890587Y-60877830D01*
X210718366Y-60933786D01*
X210718360Y-60933788D01*
X210557002Y-61016006D01*
X210410505Y-61122441D01*
X210410500Y-61122445D01*
X210282445Y-61250500D01*
X210282441Y-61250505D01*
X210176006Y-61397002D01*
X210093788Y-61558360D01*
X210093787Y-61558363D01*
X210037829Y-61730589D01*
X210009500Y-61909448D01*
X210009500Y-62090551D01*
X210037829Y-62269410D01*
X210093787Y-62441636D01*
X210093788Y-62441639D01*
X210128109Y-62508996D01*
X210170000Y-62591211D01*
X210176006Y-62602997D01*
X210282441Y-62749494D01*
X210282445Y-62749499D01*
X210410500Y-62877554D01*
X210410505Y-62877558D01*
X210509518Y-62949494D01*
X210557006Y-62983996D01*
X210662484Y-63037740D01*
X210718360Y-63066211D01*
X210718363Y-63066212D01*
X210804476Y-63094191D01*
X210890591Y-63122171D01*
X210973429Y-63135291D01*
X211069449Y-63150500D01*
X211069454Y-63150500D01*
X211250551Y-63150500D01*
X211337259Y-63136765D01*
X211429409Y-63122171D01*
X211601639Y-63066211D01*
X211762994Y-62983996D01*
X211909501Y-62877553D01*
X212037553Y-62749501D01*
X212143996Y-62602994D01*
X212226211Y-62441639D01*
X212282171Y-62269409D01*
X212282172Y-62269396D01*
X212283311Y-62264661D01*
X212283685Y-62264750D01*
X212286296Y-62253994D01*
X212286808Y-62252454D01*
X212286811Y-62252449D01*
X212321576Y-62147914D01*
X212361409Y-62090517D01*
X212425954Y-62063764D01*
X212494717Y-62076153D01*
X212545865Y-62123752D01*
X212561711Y-62167651D01*
X212577829Y-62269410D01*
X212633787Y-62441636D01*
X212633788Y-62441639D01*
X212668109Y-62508996D01*
X212710000Y-62591211D01*
X212716006Y-62602997D01*
X212822441Y-62749494D01*
X212822445Y-62749499D01*
X212950500Y-62877554D01*
X212950505Y-62877558D01*
X213049518Y-62949494D01*
X213097006Y-62983996D01*
X213202484Y-63037740D01*
X213258360Y-63066211D01*
X213258363Y-63066212D01*
X213344476Y-63094191D01*
X213430591Y-63122171D01*
X213513429Y-63135291D01*
X213609449Y-63150500D01*
X213609454Y-63150500D01*
X213790551Y-63150500D01*
X213877259Y-63136765D01*
X213969409Y-63122171D01*
X214141639Y-63066211D01*
X214302994Y-62983996D01*
X214449501Y-62877553D01*
X214577553Y-62749501D01*
X214683996Y-62602994D01*
X214766211Y-62441639D01*
X214822171Y-62269409D01*
X214841413Y-62147918D01*
X214850500Y-62090551D01*
X214850500Y-61909448D01*
X214832277Y-61794400D01*
X214822171Y-61730591D01*
X214794191Y-61644476D01*
X214766212Y-61558363D01*
X214766211Y-61558360D01*
X214736286Y-61499630D01*
X214683996Y-61397006D01*
X214668512Y-61375694D01*
X214655419Y-61352947D01*
X214652009Y-61345233D01*
X214419856Y-61006703D01*
X214412261Y-60995628D01*
X214390581Y-60929208D01*
X214408252Y-60861610D01*
X214459664Y-60814297D01*
X214514526Y-60801500D01*
X216921637Y-60801500D01*
X216988676Y-60821185D01*
X217034431Y-60873989D01*
X217044375Y-60943147D01*
X217015350Y-61006703D01*
X216974951Y-61035834D01*
X216975254Y-61036359D01*
X216970086Y-61039342D01*
X216969090Y-61040061D01*
X216968211Y-61040424D01*
X216831290Y-61119475D01*
X216831282Y-61119481D01*
X216719481Y-61231282D01*
X216719475Y-61231290D01*
X216640426Y-61368209D01*
X216640423Y-61368216D01*
X216599500Y-61520943D01*
X216599500Y-61679057D01*
X216636922Y-61818716D01*
X216640423Y-61831783D01*
X216640426Y-61831790D01*
X216719475Y-61968709D01*
X216719479Y-61968714D01*
X216719480Y-61968716D01*
X216831284Y-62080520D01*
X216831286Y-62080521D01*
X216831290Y-62080524D01*
X216958232Y-62153813D01*
X216968216Y-62159577D01*
X217120943Y-62200500D01*
X217120945Y-62200500D01*
X217279055Y-62200500D01*
X217279057Y-62200500D01*
X217431784Y-62159577D01*
X217568716Y-62080520D01*
X217680520Y-61968716D01*
X217759577Y-61831784D01*
X217800500Y-61679057D01*
X217800500Y-61520943D01*
X217759577Y-61368216D01*
X217737685Y-61330297D01*
X217680524Y-61231290D01*
X217680518Y-61231282D01*
X217568717Y-61119481D01*
X217568709Y-61119475D01*
X217431788Y-61040424D01*
X217430910Y-61040061D01*
X217430283Y-61039555D01*
X217424746Y-61036359D01*
X217425244Y-61035495D01*
X217376506Y-60996219D01*
X217354442Y-60929925D01*
X217371722Y-60862226D01*
X217422859Y-60814616D01*
X217478363Y-60801500D01*
X219933745Y-60801500D01*
X220000784Y-60821185D01*
X220021426Y-60837819D01*
X220583503Y-61399896D01*
X220608139Y-61435034D01*
X220781342Y-61805277D01*
X220785972Y-61815175D01*
X220790423Y-61831784D01*
X220807915Y-61862082D01*
X220810176Y-61866914D01*
X220810180Y-61866921D01*
X220818084Y-61883816D01*
X220828515Y-61904105D01*
X220829353Y-61905596D01*
X220829362Y-61905612D01*
X220831770Y-61909448D01*
X220845039Y-61930589D01*
X220845044Y-61930596D01*
X220847691Y-61933890D01*
X220858425Y-61949569D01*
X220869480Y-61968716D01*
X220981284Y-62080520D01*
X220981286Y-62080521D01*
X220981290Y-62080524D01*
X221108232Y-62153813D01*
X221118216Y-62159577D01*
X221270943Y-62200500D01*
X221270945Y-62200500D01*
X221429055Y-62200500D01*
X221429057Y-62200500D01*
X221581784Y-62159577D01*
X221718716Y-62080520D01*
X221830520Y-61968716D01*
X221909577Y-61831784D01*
X221950500Y-61679057D01*
X221950500Y-61520943D01*
X221909577Y-61368216D01*
X221887685Y-61330297D01*
X221830524Y-61231290D01*
X221830518Y-61231282D01*
X221718718Y-61119482D01*
X221718716Y-61119480D01*
X221656108Y-61083332D01*
X221650798Y-61080267D01*
X221633823Y-61068088D01*
X221612100Y-61057926D01*
X221581784Y-61040423D01*
X221581777Y-61040421D01*
X221575714Y-61038796D01*
X221555275Y-61031342D01*
X221185037Y-60858143D01*
X221149899Y-60833506D01*
X220928574Y-60612181D01*
X220895089Y-60550858D01*
X220900073Y-60481166D01*
X220941945Y-60425233D01*
X221007409Y-60400816D01*
X221016255Y-60400500D01*
X223682745Y-60400500D01*
X223749784Y-60420185D01*
X223770426Y-60436819D01*
X224733504Y-61399897D01*
X224758138Y-61435031D01*
X224935971Y-61815170D01*
X224940423Y-61831784D01*
X224957923Y-61862095D01*
X224960183Y-61866926D01*
X224960183Y-61866928D01*
X224968084Y-61883816D01*
X224978515Y-61904105D01*
X224979353Y-61905596D01*
X224979362Y-61905612D01*
X224981770Y-61909448D01*
X224995039Y-61930589D01*
X224995044Y-61930596D01*
X224997691Y-61933890D01*
X225008425Y-61949569D01*
X225019480Y-61968716D01*
X225131284Y-62080520D01*
X225131286Y-62080521D01*
X225131290Y-62080524D01*
X225258232Y-62153813D01*
X225268216Y-62159577D01*
X225420943Y-62200500D01*
X225420945Y-62200500D01*
X225579055Y-62200500D01*
X225579057Y-62200500D01*
X225731784Y-62159577D01*
X225868716Y-62080520D01*
X225980520Y-61968716D01*
X226059577Y-61831784D01*
X226100500Y-61679057D01*
X226100500Y-61520943D01*
X226059577Y-61368216D01*
X226037685Y-61330297D01*
X225980524Y-61231290D01*
X225980518Y-61231282D01*
X225868718Y-61119482D01*
X225868716Y-61119480D01*
X225806108Y-61083332D01*
X225800798Y-61080267D01*
X225783823Y-61068088D01*
X225762100Y-61057926D01*
X225731784Y-61040423D01*
X225731777Y-61040421D01*
X225725714Y-61038796D01*
X225705275Y-61031342D01*
X225335035Y-60858142D01*
X225299897Y-60833505D01*
X224145915Y-59679522D01*
X224145914Y-59679521D01*
X224145913Y-59679520D01*
X224100250Y-59653156D01*
X224054589Y-59626793D01*
X224003657Y-59613146D01*
X223952727Y-59599500D01*
X223952726Y-59599500D01*
X214467255Y-59599500D01*
X214400216Y-59579815D01*
X214379574Y-59563181D01*
X213187015Y-58370622D01*
X213153530Y-58309299D01*
X213158121Y-58240676D01*
X213300975Y-57846683D01*
X213309577Y-57831784D01*
X213318637Y-57797969D01*
X213326812Y-57775424D01*
X213333704Y-57753982D01*
X213334173Y-57752314D01*
X213340835Y-57723242D01*
X213340834Y-57723237D01*
X213341289Y-57719063D01*
X213344786Y-57700381D01*
X213350500Y-57679057D01*
X213350500Y-57520943D01*
X213309577Y-57368216D01*
X213299707Y-57351120D01*
X213230524Y-57231290D01*
X213230518Y-57231282D01*
X213118717Y-57119481D01*
X213118709Y-57119475D01*
X212981790Y-57040426D01*
X212981786Y-57040424D01*
X212981784Y-57040423D01*
X212829057Y-56999500D01*
X212670943Y-56999500D01*
X212518216Y-57040423D01*
X212518209Y-57040426D01*
X212381290Y-57119475D01*
X212381282Y-57119481D01*
X212269481Y-57231282D01*
X212269475Y-57231290D01*
X212190426Y-57368209D01*
X212190423Y-57368216D01*
X212149500Y-57520943D01*
X212149500Y-57600845D01*
X212129815Y-57667884D01*
X212077011Y-57713639D01*
X212007853Y-57723583D01*
X211944297Y-57694558D01*
X211937819Y-57688526D01*
X211428815Y-57179522D01*
X211428814Y-57179521D01*
X211428813Y-57179520D01*
X211368530Y-57144715D01*
X211337487Y-57126792D01*
X211270595Y-57108868D01*
X211270377Y-57108774D01*
X211270255Y-57108777D01*
X211267005Y-57107324D01*
X211237850Y-57094791D01*
X211236511Y-57093969D01*
X211092674Y-57000588D01*
X211088858Y-56998151D01*
X211066421Y-56989288D01*
X211052126Y-56981035D01*
X210981786Y-56940424D01*
X210981785Y-56940423D01*
X210981784Y-56940423D01*
X210829057Y-56899500D01*
X210670943Y-56899500D01*
X210518216Y-56940423D01*
X210518209Y-56940426D01*
X210381290Y-57019475D01*
X210381282Y-57019481D01*
X210269481Y-57131282D01*
X210269475Y-57131290D01*
X210190426Y-57268209D01*
X210190424Y-57268214D01*
X210190423Y-57268216D01*
X210149500Y-57420943D01*
X210149500Y-57579057D01*
X210168584Y-57650280D01*
X210180140Y-57693407D01*
X210178477Y-57763257D01*
X210139314Y-57821119D01*
X210075086Y-57848623D01*
X210060365Y-57849500D01*
X209699500Y-57849500D01*
X209632461Y-57829815D01*
X209586706Y-57777011D01*
X209575500Y-57725500D01*
X209575500Y-57668054D01*
X209575500Y-57668052D01*
X209534577Y-57515325D01*
X209500241Y-57455852D01*
X209455524Y-57378399D01*
X209455518Y-57378391D01*
X209343717Y-57266590D01*
X209343709Y-57266584D01*
X209206790Y-57187535D01*
X209206786Y-57187533D01*
X209206784Y-57187532D01*
X209054057Y-57146609D01*
X208895943Y-57146609D01*
X208743216Y-57187532D01*
X208743209Y-57187535D01*
X208606290Y-57266584D01*
X208606282Y-57266590D01*
X208494481Y-57378391D01*
X208494477Y-57378396D01*
X208465584Y-57428442D01*
X208415017Y-57476657D01*
X208346410Y-57489881D01*
X208281546Y-57463913D01*
X208270516Y-57454123D01*
X208245915Y-57429522D01*
X208245913Y-57429520D01*
X208194132Y-57399624D01*
X208154589Y-57376793D01*
X208103657Y-57363146D01*
X208052727Y-57349500D01*
X208052726Y-57349500D01*
X207500098Y-57349500D01*
X207433059Y-57329815D01*
X207412417Y-57313181D01*
X207368717Y-57269481D01*
X207368709Y-57269475D01*
X207231790Y-57190426D01*
X207231786Y-57190424D01*
X207231784Y-57190423D01*
X207079057Y-57149500D01*
X206920943Y-57149500D01*
X206768216Y-57190423D01*
X206768209Y-57190426D01*
X206631290Y-57269475D01*
X206631282Y-57269481D01*
X206519481Y-57381282D01*
X206519475Y-57381290D01*
X206440426Y-57518209D01*
X206440423Y-57518216D01*
X206399500Y-57670943D01*
X205905879Y-57670943D01*
X205930500Y-57579057D01*
X205930500Y-57420943D01*
X205910205Y-57345201D01*
X205906812Y-57324575D01*
X205898636Y-57302027D01*
X205889577Y-57268216D01*
X205886440Y-57262783D01*
X205877250Y-57243045D01*
X205877063Y-57242530D01*
X205761285Y-56923207D01*
X205737926Y-56858782D01*
X205730500Y-56816515D01*
X205730500Y-55616371D01*
X205750185Y-55549332D01*
X205792499Y-55508984D01*
X205905481Y-55443755D01*
X206017285Y-55331951D01*
X206027357Y-55314504D01*
X206077922Y-55266287D01*
X206146529Y-55253062D01*
X206211394Y-55279028D01*
X206222427Y-55288820D01*
X206254087Y-55320480D01*
X206345413Y-55373207D01*
X206447273Y-55400500D01*
X209499902Y-55400500D01*
X209566941Y-55420185D01*
X209587583Y-55436819D01*
X209631284Y-55480520D01*
X209631286Y-55480521D01*
X209631290Y-55480524D01*
X209710387Y-55526190D01*
X209768216Y-55559577D01*
X209920943Y-55600500D01*
X209920945Y-55600500D01*
X210079055Y-55600500D01*
X210079057Y-55600500D01*
X210231784Y-55559577D01*
X210368716Y-55480520D01*
X210412417Y-55436819D01*
X210473740Y-55403334D01*
X210500098Y-55400500D01*
X213082179Y-55400500D01*
X213149218Y-55420185D01*
X213169860Y-55436819D01*
X214175681Y-56442640D01*
X214209166Y-56503963D01*
X214212000Y-56530321D01*
X214212000Y-56592123D01*
X214252045Y-56741571D01*
X214252923Y-56744849D01*
X214252926Y-56744856D01*
X214331975Y-56881775D01*
X214331979Y-56881780D01*
X214331980Y-56881782D01*
X214443784Y-56993586D01*
X214443786Y-56993587D01*
X214443790Y-56993590D01*
X214549095Y-57054387D01*
X214580716Y-57072643D01*
X214733443Y-57113566D01*
X214733445Y-57113566D01*
X214891555Y-57113566D01*
X214891557Y-57113566D01*
X215044284Y-57072643D01*
X215181216Y-56993586D01*
X215293020Y-56881782D01*
X215372077Y-56744850D01*
X215413000Y-56592123D01*
X215413000Y-56434009D01*
X215372077Y-56281282D01*
X215352702Y-56247723D01*
X215293024Y-56144356D01*
X215293018Y-56144348D01*
X215181217Y-56032547D01*
X215181209Y-56032541D01*
X215044290Y-55953492D01*
X215044286Y-55953490D01*
X215044284Y-55953489D01*
X214891557Y-55912566D01*
X214891556Y-55912566D01*
X214829755Y-55912566D01*
X214762716Y-55892881D01*
X214742074Y-55876247D01*
X214392017Y-55526190D01*
X214358532Y-55464867D01*
X214363516Y-55395175D01*
X214405388Y-55339242D01*
X214447603Y-55318735D01*
X214481784Y-55309577D01*
X214618716Y-55230520D01*
X214662417Y-55186819D01*
X214723740Y-55153334D01*
X214750098Y-55150500D01*
X215782745Y-55150500D01*
X215849784Y-55170185D01*
X215870426Y-55186819D01*
X216650009Y-55966401D01*
X217429518Y-56745910D01*
X217429520Y-56745913D01*
X217452100Y-56768493D01*
X217463071Y-56779464D01*
X217482777Y-56805144D01*
X217519480Y-56868716D01*
X217631284Y-56980520D01*
X217631286Y-56980521D01*
X217631290Y-56980524D01*
X217759228Y-57054388D01*
X217768216Y-57059577D01*
X217920943Y-57100500D01*
X217920945Y-57100500D01*
X218079055Y-57100500D01*
X218079057Y-57100500D01*
X218231784Y-57059577D01*
X218368716Y-56980520D01*
X218480520Y-56868716D01*
X218559577Y-56731784D01*
X218600500Y-56579057D01*
X218600500Y-56420943D01*
X218559577Y-56268216D01*
X218547747Y-56247725D01*
X218480524Y-56131290D01*
X218480518Y-56131282D01*
X218368717Y-56019481D01*
X218368709Y-56019475D01*
X218231790Y-55940426D01*
X218231786Y-55940424D01*
X218231784Y-55940423D01*
X218079057Y-55899500D01*
X217920943Y-55899500D01*
X217828376Y-55924303D01*
X217758526Y-55922640D01*
X217708602Y-55892209D01*
X216426574Y-54610181D01*
X216393089Y-54548858D01*
X216398073Y-54479166D01*
X216439945Y-54423233D01*
X216505409Y-54398816D01*
X216514255Y-54398500D01*
X217530745Y-54398500D01*
X217597784Y-54418185D01*
X217618426Y-54434819D01*
X217863181Y-54679573D01*
X217896666Y-54740896D01*
X217899500Y-54767254D01*
X217899500Y-54829057D01*
X217929341Y-54940423D01*
X217940423Y-54981783D01*
X217940426Y-54981790D01*
X218019475Y-55118709D01*
X218019479Y-55118714D01*
X218019480Y-55118716D01*
X218131284Y-55230520D01*
X218131286Y-55230521D01*
X218131290Y-55230524D01*
X218232263Y-55288820D01*
X218268216Y-55309577D01*
X218420943Y-55350500D01*
X218482745Y-55350500D01*
X218549784Y-55370185D01*
X218570426Y-55386819D01*
X219246789Y-56063181D01*
X219929518Y-56745910D01*
X219929520Y-56745913D01*
X220004087Y-56820480D01*
X220081496Y-56865172D01*
X220095411Y-56873206D01*
X220095412Y-56873206D01*
X220095413Y-56873207D01*
X220197273Y-56900501D01*
X220197275Y-56900501D01*
X220310323Y-56900501D01*
X220310339Y-56900500D01*
X220824902Y-56900500D01*
X220891941Y-56920185D01*
X220912583Y-56936819D01*
X220956284Y-56980520D01*
X220956286Y-56980521D01*
X220956290Y-56980524D01*
X221084228Y-57054388D01*
X221093216Y-57059577D01*
X221245943Y-57100500D01*
X221245945Y-57100500D01*
X221404055Y-57100500D01*
X221404057Y-57100500D01*
X221556784Y-57059577D01*
X221693716Y-56980520D01*
X221805520Y-56868716D01*
X221884577Y-56731784D01*
X221925500Y-56579057D01*
X221925500Y-56420943D01*
X221884577Y-56268216D01*
X221872747Y-56247725D01*
X221805524Y-56131290D01*
X221805518Y-56131282D01*
X221693717Y-56019481D01*
X221693709Y-56019475D01*
X221556790Y-55940426D01*
X221556786Y-55940424D01*
X221556784Y-55940423D01*
X221404057Y-55899500D01*
X221245943Y-55899500D01*
X221093216Y-55940423D01*
X221093209Y-55940426D01*
X220956290Y-56019475D01*
X220956282Y-56019481D01*
X220912583Y-56063181D01*
X220851260Y-56096666D01*
X220824902Y-56099500D01*
X220467254Y-56099500D01*
X220400215Y-56079815D01*
X220379573Y-56063181D01*
X219136819Y-54820426D01*
X219103334Y-54759103D01*
X219100500Y-54732745D01*
X219100500Y-54670945D01*
X219100500Y-54670943D01*
X219059577Y-54518216D01*
X219020193Y-54450000D01*
X218980524Y-54381290D01*
X218980518Y-54381282D01*
X218868717Y-54269481D01*
X218868709Y-54269475D01*
X218731790Y-54190426D01*
X218731786Y-54190424D01*
X218731784Y-54190423D01*
X218579057Y-54149500D01*
X218579056Y-54149500D01*
X218517254Y-54149500D01*
X218450215Y-54129815D01*
X218429573Y-54113181D01*
X218216491Y-53900099D01*
X217993913Y-53677520D01*
X217993910Y-53677518D01*
X217989162Y-53673875D01*
X217947960Y-53617446D01*
X217943806Y-53547700D01*
X217978020Y-53486780D01*
X218039737Y-53454028D01*
X218064650Y-53451500D01*
X218614890Y-53451500D01*
X218614892Y-53451500D01*
X218742186Y-53417392D01*
X218742189Y-53417390D01*
X218751749Y-53411871D01*
X218781577Y-53394649D01*
X218863354Y-53347436D01*
X218863983Y-53348527D01*
X218896765Y-53332357D01*
X218981784Y-53309577D01*
X218982007Y-53309448D01*
X222309500Y-53309448D01*
X222309500Y-53490551D01*
X222337829Y-53669410D01*
X222393787Y-53841636D01*
X222393788Y-53841639D01*
X222444740Y-53941636D01*
X222474478Y-54000000D01*
X222476006Y-54002997D01*
X222582441Y-54149494D01*
X222582445Y-54149499D01*
X222710500Y-54277554D01*
X222710505Y-54277558D01*
X222837328Y-54369699D01*
X222857006Y-54383996D01*
X222956751Y-54434819D01*
X223018360Y-54466211D01*
X223018363Y-54466212D01*
X223104476Y-54494191D01*
X223190591Y-54522171D01*
X223261874Y-54533461D01*
X223369449Y-54550500D01*
X223369454Y-54550500D01*
X223550551Y-54550500D01*
X223637259Y-54536765D01*
X223729409Y-54522171D01*
X223901639Y-54466211D01*
X224062994Y-54383996D01*
X224209501Y-54277553D01*
X224337553Y-54149501D01*
X224443996Y-54002994D01*
X224526211Y-53841639D01*
X224582171Y-53669409D01*
X224598577Y-53565826D01*
X224610500Y-53490551D01*
X224610500Y-53309448D01*
X224585245Y-53150000D01*
X224582171Y-53130591D01*
X224539708Y-52999901D01*
X224526212Y-52958363D01*
X224526211Y-52958360D01*
X224479994Y-52867656D01*
X224443996Y-52797006D01*
X224385427Y-52716392D01*
X224337558Y-52650505D01*
X224337554Y-52650500D01*
X224217351Y-52530297D01*
X224950000Y-52530297D01*
X224950000Y-53050000D01*
X225642894Y-53050000D01*
X225599901Y-53092993D01*
X225534075Y-53207007D01*
X225500000Y-53334174D01*
X225500000Y-53465826D01*
X225534075Y-53592993D01*
X225599901Y-53707007D01*
X225642894Y-53750000D01*
X224950000Y-53750000D01*
X224950000Y-54269702D01*
X224961602Y-54328033D01*
X224961603Y-54328034D01*
X225005808Y-54394191D01*
X225071965Y-54438396D01*
X225071966Y-54438397D01*
X225130297Y-54449999D01*
X225130301Y-54450000D01*
X225650000Y-54450000D01*
X225650000Y-53757106D01*
X225692993Y-53800099D01*
X225807007Y-53865925D01*
X225934174Y-53900000D01*
X226065826Y-53900000D01*
X226192993Y-53865925D01*
X226307007Y-53800099D01*
X226350000Y-53757106D01*
X226350000Y-54450000D01*
X226869699Y-54450000D01*
X226869702Y-54449999D01*
X226928033Y-54438397D01*
X226928034Y-54438396D01*
X226994191Y-54394191D01*
X227038396Y-54328034D01*
X227038397Y-54328033D01*
X227049999Y-54269702D01*
X227050000Y-54269699D01*
X227050000Y-53750000D01*
X226357106Y-53750000D01*
X226400099Y-53707007D01*
X226465925Y-53592993D01*
X226500000Y-53465826D01*
X226500000Y-53334174D01*
X226465925Y-53207007D01*
X226400099Y-53092993D01*
X226357106Y-53050000D01*
X227050000Y-53050000D01*
X227050000Y-52530301D01*
X227049999Y-52530297D01*
X227038397Y-52471966D01*
X227038396Y-52471965D01*
X226994191Y-52405808D01*
X226928034Y-52361603D01*
X226928033Y-52361602D01*
X226869702Y-52350000D01*
X226350000Y-52350000D01*
X226350000Y-53042894D01*
X226307007Y-52999901D01*
X226192993Y-52934075D01*
X226065826Y-52900000D01*
X225934174Y-52900000D01*
X225807007Y-52934075D01*
X225692993Y-52999901D01*
X225650000Y-53042894D01*
X225650000Y-52350000D01*
X225130297Y-52350000D01*
X225071966Y-52361602D01*
X225071965Y-52361603D01*
X225005808Y-52405808D01*
X224961603Y-52471965D01*
X224961602Y-52471966D01*
X224950000Y-52530297D01*
X224217351Y-52530297D01*
X224209499Y-52522445D01*
X224209494Y-52522441D01*
X224062997Y-52416006D01*
X224062996Y-52416005D01*
X224062994Y-52416004D01*
X223988072Y-52377829D01*
X223901639Y-52333788D01*
X223901636Y-52333787D01*
X223729410Y-52277829D01*
X223550551Y-52249500D01*
X223550546Y-52249500D01*
X223369454Y-52249500D01*
X223369449Y-52249500D01*
X223190589Y-52277829D01*
X223018363Y-52333787D01*
X223018360Y-52333788D01*
X222857002Y-52416006D01*
X222710505Y-52522441D01*
X222710500Y-52522445D01*
X222582445Y-52650500D01*
X222582441Y-52650505D01*
X222476006Y-52797002D01*
X222393788Y-52958360D01*
X222393787Y-52958363D01*
X222337829Y-53130589D01*
X222309500Y-53309448D01*
X218982007Y-53309448D01*
X219118716Y-53230520D01*
X219230520Y-53118716D01*
X219309577Y-52981784D01*
X219331558Y-52899748D01*
X219363649Y-52844163D01*
X220700500Y-51507314D01*
X220766392Y-51393186D01*
X220800500Y-51265892D01*
X220800500Y-51134108D01*
X220800500Y-49581936D01*
X220820185Y-49514897D01*
X220825993Y-49506621D01*
X221362667Y-48804815D01*
X221382333Y-48784426D01*
X221981601Y-48290913D01*
X222081333Y-48208781D01*
X222104257Y-48198998D01*
X222125226Y-48185523D01*
X222141228Y-48183222D01*
X222145597Y-48181358D01*
X222160161Y-48180500D01*
X222289839Y-48180500D01*
X222356878Y-48200185D01*
X222368667Y-48208781D01*
X223097588Y-48809070D01*
X223097591Y-48809072D01*
X223097596Y-48809076D01*
X223112674Y-48817645D01*
X223127235Y-48832206D01*
X223176806Y-48854093D01*
X223188571Y-48860780D01*
X223196002Y-48863448D01*
X223201369Y-48865375D01*
X223201244Y-48865721D01*
X223210058Y-48868775D01*
X223230009Y-48877585D01*
X223255135Y-48880500D01*
X223300933Y-48880499D01*
X223306115Y-48881342D01*
X223310118Y-48880499D01*
X225044864Y-48880499D01*
X225044879Y-48880497D01*
X225044882Y-48880497D01*
X225069987Y-48877586D01*
X225069988Y-48877585D01*
X225069991Y-48877585D01*
X225172765Y-48832206D01*
X225252206Y-48752765D01*
X225297585Y-48649991D01*
X225300500Y-48624865D01*
X225300499Y-46835136D01*
X225299882Y-46829815D01*
X225297586Y-46810012D01*
X225297585Y-46810010D01*
X225297585Y-46810009D01*
X225252206Y-46707235D01*
X225172765Y-46627794D01*
X225151057Y-46618209D01*
X225069992Y-46582415D01*
X225044868Y-46579500D01*
X225044865Y-46579500D01*
X224307131Y-46579500D01*
X224240092Y-46559815D01*
X224194337Y-46507011D01*
X224184393Y-46437853D01*
X224213418Y-46374297D01*
X224272196Y-46336523D01*
X224287733Y-46333027D01*
X224345408Y-46323891D01*
X224419409Y-46312171D01*
X224591639Y-46256211D01*
X224752994Y-46173996D01*
X224899501Y-46067553D01*
X225027553Y-45939501D01*
X225133996Y-45792994D01*
X225216211Y-45631639D01*
X225272171Y-45459409D01*
X225290997Y-45340546D01*
X225300500Y-45280551D01*
X225300500Y-45099448D01*
X225281674Y-44980589D01*
X225272171Y-44920591D01*
X225216211Y-44748361D01*
X225216211Y-44748360D01*
X225182288Y-44681783D01*
X225133996Y-44587006D01*
X225091893Y-44529056D01*
X225027558Y-44440505D01*
X225027554Y-44440500D01*
X224899499Y-44312445D01*
X224899494Y-44312441D01*
X224752997Y-44206006D01*
X224752996Y-44206005D01*
X224752994Y-44206004D01*
X224666630Y-44161999D01*
X224591639Y-44123788D01*
X224591636Y-44123787D01*
X224419410Y-44067829D01*
X224240551Y-44039500D01*
X224240546Y-44039500D01*
X224059454Y-44039500D01*
X224059449Y-44039500D01*
X223880589Y-44067829D01*
X223708363Y-44123787D01*
X223708360Y-44123788D01*
X223547002Y-44206006D01*
X223400505Y-44312441D01*
X223400500Y-44312445D01*
X223272445Y-44440500D01*
X223272441Y-44440505D01*
X223166006Y-44587002D01*
X223083788Y-44748360D01*
X223083787Y-44748363D01*
X223027829Y-44920589D01*
X222999500Y-45099448D01*
X222999500Y-45280551D01*
X223027829Y-45459410D01*
X223083787Y-45631636D01*
X223083788Y-45631639D01*
X223118366Y-45699500D01*
X223159650Y-45780524D01*
X223166006Y-45792997D01*
X223272441Y-45939494D01*
X223272445Y-45939499D01*
X223400500Y-46067554D01*
X223400505Y-46067558D01*
X223483089Y-46127558D01*
X223547006Y-46173996D01*
X223623059Y-46212747D01*
X223708360Y-46256211D01*
X223708363Y-46256212D01*
X223767727Y-46275500D01*
X223880591Y-46312171D01*
X223946993Y-46322688D01*
X224012267Y-46333027D01*
X224075402Y-46362956D01*
X224112333Y-46422268D01*
X224111335Y-46492131D01*
X224072725Y-46550363D01*
X224008761Y-46578477D01*
X223992869Y-46579500D01*
X223322954Y-46579500D01*
X223322791Y-46579458D01*
X223322406Y-46579500D01*
X223255143Y-46579500D01*
X223255119Y-46579502D01*
X223230012Y-46582414D01*
X223230007Y-46582415D01*
X223208365Y-46591969D01*
X223208366Y-46591970D01*
X223202232Y-46594678D01*
X223195901Y-46596691D01*
X223188781Y-46600616D01*
X223183781Y-46602825D01*
X223183778Y-46602825D01*
X223127236Y-46627792D01*
X223127231Y-46627795D01*
X223124522Y-46630505D01*
X223102110Y-46647360D01*
X223102341Y-46647700D01*
X223097599Y-46650919D01*
X222368666Y-47251219D01*
X222345741Y-47261001D01*
X222324773Y-47274477D01*
X222308770Y-47276777D01*
X222304402Y-47278642D01*
X222289838Y-47279500D01*
X222160162Y-47279500D01*
X222093123Y-47259815D01*
X222081334Y-47251219D01*
X221551372Y-46814780D01*
X221352403Y-46650923D01*
X221351887Y-46650629D01*
X221337322Y-46642351D01*
X221322765Y-46627794D01*
X221273196Y-46605907D01*
X221261428Y-46599219D01*
X221253997Y-46596551D01*
X221253996Y-46596550D01*
X221248635Y-46594626D01*
X221248755Y-46594290D01*
X221239935Y-46591220D01*
X221219996Y-46582416D01*
X221219994Y-46582415D01*
X221194868Y-46579500D01*
X221194865Y-46579500D01*
X221149076Y-46579500D01*
X221143889Y-46578657D01*
X221139880Y-46579500D01*
X220457128Y-46579500D01*
X220390089Y-46559815D01*
X220344334Y-46507011D01*
X220334390Y-46437853D01*
X220363415Y-46374297D01*
X220422193Y-46336523D01*
X220437730Y-46333027D01*
X220461014Y-46329338D01*
X220569409Y-46312171D01*
X220741639Y-46256211D01*
X220902994Y-46173996D01*
X221049501Y-46067553D01*
X221177553Y-45939501D01*
X221283996Y-45792994D01*
X221366211Y-45631639D01*
X221422171Y-45459409D01*
X221440997Y-45340546D01*
X221450500Y-45280551D01*
X221450500Y-45099448D01*
X221431674Y-44980589D01*
X221422171Y-44920591D01*
X221366211Y-44748361D01*
X221366211Y-44748360D01*
X221332288Y-44681783D01*
X221283996Y-44587006D01*
X221241893Y-44529056D01*
X221177558Y-44440505D01*
X221177554Y-44440500D01*
X221049499Y-44312445D01*
X221049494Y-44312441D01*
X220902997Y-44206006D01*
X220902996Y-44206005D01*
X220902994Y-44206004D01*
X220816630Y-44161999D01*
X220741639Y-44123788D01*
X220741636Y-44123787D01*
X220569410Y-44067829D01*
X220390551Y-44039500D01*
X220390546Y-44039500D01*
X220209454Y-44039500D01*
X220209449Y-44039500D01*
X220030589Y-44067829D01*
X219858363Y-44123787D01*
X219858360Y-44123788D01*
X219697002Y-44206006D01*
X219550505Y-44312441D01*
X219550500Y-44312445D01*
X219422445Y-44440500D01*
X219422441Y-44440505D01*
X219316006Y-44587002D01*
X219233788Y-44748360D01*
X219233787Y-44748363D01*
X219177829Y-44920589D01*
X219149500Y-45099448D01*
X219149500Y-45280551D01*
X219177829Y-45459410D01*
X219233787Y-45631636D01*
X219233788Y-45631639D01*
X219268366Y-45699500D01*
X219309650Y-45780524D01*
X219316006Y-45792997D01*
X219422441Y-45939494D01*
X219422445Y-45939499D01*
X219550500Y-46067554D01*
X219550505Y-46067558D01*
X219633089Y-46127558D01*
X219697006Y-46173996D01*
X219773059Y-46212747D01*
X219858360Y-46256211D01*
X219858363Y-46256212D01*
X219917727Y-46275500D01*
X220030591Y-46312171D01*
X220134716Y-46328662D01*
X220162270Y-46333027D01*
X220225405Y-46362956D01*
X220262336Y-46422268D01*
X220261338Y-46492130D01*
X220222728Y-46550363D01*
X220158765Y-46578477D01*
X220142872Y-46579500D01*
X219405143Y-46579500D01*
X219405117Y-46579502D01*
X219380012Y-46582413D01*
X219380008Y-46582415D01*
X219277235Y-46627793D01*
X219197794Y-46707234D01*
X219152415Y-46810006D01*
X219152415Y-46810008D01*
X219149500Y-46835131D01*
X219149500Y-48624856D01*
X219149502Y-48624882D01*
X219152413Y-48649987D01*
X219152415Y-48649991D01*
X219197793Y-48752764D01*
X219201406Y-48758038D01*
X219212233Y-48771622D01*
X219213541Y-48773707D01*
X219548611Y-49211874D01*
X219774000Y-49506613D01*
X219799087Y-49571823D01*
X219799500Y-49581936D01*
X219799500Y-50941323D01*
X219779815Y-51008362D01*
X219763181Y-51029004D01*
X218655837Y-52136347D01*
X218600252Y-52168440D01*
X218518218Y-52190422D01*
X218518209Y-52190426D01*
X218381290Y-52269475D01*
X218381282Y-52269481D01*
X218269482Y-52381281D01*
X218269480Y-52381284D01*
X218265313Y-52388500D01*
X218214748Y-52436715D01*
X218157927Y-52450500D01*
X215591071Y-52450500D01*
X215524032Y-52430815D01*
X215483684Y-52388500D01*
X215479518Y-52381284D01*
X215367714Y-52269480D01*
X215367712Y-52269479D01*
X215367707Y-52269475D01*
X215230788Y-52190426D01*
X215230784Y-52190424D01*
X215230782Y-52190423D01*
X215078055Y-52149500D01*
X214919941Y-52149500D01*
X214767214Y-52190423D01*
X214767207Y-52190426D01*
X214630288Y-52269475D01*
X214630280Y-52269481D01*
X214518480Y-52381281D01*
X214518478Y-52381284D01*
X214514311Y-52388500D01*
X214463746Y-52436715D01*
X214406925Y-52450500D01*
X211899393Y-52450500D01*
X211832354Y-52430815D01*
X211792008Y-52388503D01*
X211773254Y-52356020D01*
X211661450Y-52244216D01*
X211661448Y-52244215D01*
X211661443Y-52244211D01*
X211524524Y-52165162D01*
X211524520Y-52165160D01*
X211524518Y-52165159D01*
X211371791Y-52124236D01*
X211213677Y-52124236D01*
X211060950Y-52165159D01*
X211060943Y-52165162D01*
X210924024Y-52244211D01*
X210924016Y-52244217D01*
X210812216Y-52356017D01*
X210812214Y-52356019D01*
X210812214Y-52356020D01*
X210793460Y-52388502D01*
X210742895Y-52436716D01*
X210686075Y-52450500D01*
X206784050Y-52450500D01*
X206717011Y-52430815D01*
X206671256Y-52378011D01*
X206660050Y-52326500D01*
X206660050Y-49843658D01*
X206659054Y-49839943D01*
X206659051Y-49839932D01*
X206655184Y-49825499D01*
X206625942Y-49716364D01*
X206560050Y-49602236D01*
X206414597Y-49456783D01*
X206208312Y-49250497D01*
X206208312Y-49250498D01*
X206128757Y-49170943D01*
X215399500Y-49170943D01*
X215399500Y-49329057D01*
X215433725Y-49456784D01*
X215440423Y-49481783D01*
X215440426Y-49481790D01*
X215519475Y-49618709D01*
X215519479Y-49618714D01*
X215519480Y-49618716D01*
X215631284Y-49730520D01*
X215631286Y-49730521D01*
X215631290Y-49730524D01*
X215724914Y-49784577D01*
X215768216Y-49809577D01*
X215920943Y-49850500D01*
X215920945Y-49850500D01*
X216079055Y-49850500D01*
X216079057Y-49850500D01*
X216231784Y-49809577D01*
X216368716Y-49730520D01*
X216480520Y-49618716D01*
X216559577Y-49481784D01*
X216600500Y-49329057D01*
X216600500Y-49170943D01*
X216559577Y-49018216D01*
X216559573Y-49018209D01*
X216480524Y-48881290D01*
X216480518Y-48881282D01*
X216368717Y-48769481D01*
X216368709Y-48769475D01*
X216231790Y-48690426D01*
X216231786Y-48690424D01*
X216231784Y-48690423D01*
X216079057Y-48649500D01*
X215920943Y-48649500D01*
X215768216Y-48690423D01*
X215768209Y-48690426D01*
X215631290Y-48769475D01*
X215631282Y-48769481D01*
X215519481Y-48881282D01*
X215519475Y-48881290D01*
X215440426Y-49018209D01*
X215440423Y-49018216D01*
X215399500Y-49170943D01*
X206128757Y-49170943D01*
X206057314Y-49099500D01*
X206057311Y-49099498D01*
X205248313Y-48290500D01*
X204333311Y-47375497D01*
X204253757Y-47295943D01*
X208606913Y-47295943D01*
X208606913Y-47454057D01*
X208638109Y-47570480D01*
X208647836Y-47606783D01*
X208647839Y-47606790D01*
X208726888Y-47743709D01*
X208726892Y-47743714D01*
X208726893Y-47743716D01*
X208838697Y-47855520D01*
X208838699Y-47855521D01*
X208838703Y-47855524D01*
X208975622Y-47934573D01*
X208975629Y-47934577D01*
X209128356Y-47975500D01*
X209128358Y-47975500D01*
X209286468Y-47975500D01*
X209286470Y-47975500D01*
X209439197Y-47934577D01*
X209576129Y-47855520D01*
X209687933Y-47743716D01*
X209695553Y-47730518D01*
X209705956Y-47712500D01*
X209756523Y-47664284D01*
X209813343Y-47650500D01*
X211849902Y-47650500D01*
X211916941Y-47670185D01*
X211937583Y-47686819D01*
X211981284Y-47730520D01*
X211981286Y-47730521D01*
X211981290Y-47730524D01*
X212118209Y-47809573D01*
X212118216Y-47809577D01*
X212270943Y-47850500D01*
X212270945Y-47850500D01*
X212429055Y-47850500D01*
X212429057Y-47850500D01*
X212581784Y-47809577D01*
X212718716Y-47730520D01*
X212762417Y-47686819D01*
X212823740Y-47653334D01*
X212850098Y-47650500D01*
X215552725Y-47650500D01*
X215552727Y-47650500D01*
X215654588Y-47623207D01*
X215745913Y-47570480D01*
X215749768Y-47566624D01*
X215795733Y-47537531D01*
X216151825Y-47410314D01*
X216154033Y-47409101D01*
X216181623Y-47398017D01*
X216231784Y-47384577D01*
X216231788Y-47384574D01*
X216231790Y-47384574D01*
X216368709Y-47305524D01*
X216368708Y-47305524D01*
X216368716Y-47305520D01*
X216480520Y-47193716D01*
X216519730Y-47125800D01*
X216531911Y-47108824D01*
X216542071Y-47087105D01*
X216559577Y-47056784D01*
X216561200Y-47050723D01*
X216568660Y-47030266D01*
X216621439Y-46917445D01*
X216667676Y-46865062D01*
X216734893Y-46845993D01*
X216776017Y-46853413D01*
X217042164Y-46949911D01*
X217057062Y-46958513D01*
X217090873Y-46967572D01*
X217113421Y-46975748D01*
X217134863Y-46982640D01*
X217136531Y-46983109D01*
X217155955Y-46987560D01*
X217165602Y-46989771D01*
X217169793Y-46990227D01*
X217188469Y-46993723D01*
X217209789Y-46999436D01*
X217209791Y-46999436D01*
X217367901Y-46999436D01*
X217367903Y-46999436D01*
X217520630Y-46958513D01*
X217657562Y-46879456D01*
X217769366Y-46767652D01*
X217848423Y-46630720D01*
X217889346Y-46477993D01*
X217889346Y-46319879D01*
X217848423Y-46167152D01*
X217802480Y-46087575D01*
X217769370Y-46030226D01*
X217769364Y-46030218D01*
X217657563Y-45918417D01*
X217657555Y-45918411D01*
X217520636Y-45839362D01*
X217520632Y-45839360D01*
X217520630Y-45839359D01*
X217367903Y-45798436D01*
X217209789Y-45798436D01*
X217209787Y-45798436D01*
X217139982Y-45817139D01*
X217139983Y-45817140D01*
X217134058Y-45818727D01*
X217113423Y-45822122D01*
X217090865Y-45830300D01*
X217085710Y-45831682D01*
X217085708Y-45831681D01*
X217057063Y-45839357D01*
X217057060Y-45839358D01*
X217051626Y-45842496D01*
X217031900Y-45851679D01*
X216647623Y-45991010D01*
X216605356Y-45998436D01*
X216298337Y-45998436D01*
X216196474Y-46025729D01*
X216105149Y-46078457D01*
X216059174Y-46124431D01*
X216024037Y-46149065D01*
X215794717Y-46256343D01*
X215784817Y-46260973D01*
X215768216Y-46265423D01*
X215737926Y-46282910D01*
X215733102Y-46285167D01*
X215733087Y-46285175D01*
X215716174Y-46293087D01*
X215695772Y-46303582D01*
X215694301Y-46304410D01*
X215694266Y-46304431D01*
X215669406Y-46320041D01*
X215666114Y-46322688D01*
X215650435Y-46333422D01*
X215631281Y-46344481D01*
X215519481Y-46456281D01*
X215501579Y-46487287D01*
X215488035Y-46506338D01*
X215480371Y-46515210D01*
X215450182Y-46567011D01*
X215321424Y-46787939D01*
X215270663Y-46835946D01*
X215214293Y-46849500D01*
X212850098Y-46849500D01*
X212783059Y-46829815D01*
X212762417Y-46813181D01*
X212718717Y-46769481D01*
X212718709Y-46769475D01*
X212581790Y-46690426D01*
X212581786Y-46690424D01*
X212581784Y-46690423D01*
X212429057Y-46649500D01*
X212270943Y-46649500D01*
X212118216Y-46690423D01*
X212118209Y-46690426D01*
X211981290Y-46769475D01*
X211981282Y-46769481D01*
X211937583Y-46813181D01*
X211876260Y-46846666D01*
X211849902Y-46849500D01*
X209531446Y-46849500D01*
X209469447Y-46832887D01*
X209439203Y-46815425D01*
X209439197Y-46815423D01*
X209286470Y-46774500D01*
X209128356Y-46774500D01*
X208975629Y-46815423D01*
X208975622Y-46815426D01*
X208838703Y-46894475D01*
X208838695Y-46894481D01*
X208726894Y-47006282D01*
X208726888Y-47006290D01*
X208647839Y-47143209D01*
X208647836Y-47143216D01*
X208606913Y-47295943D01*
X204253757Y-47295943D01*
X203669995Y-46712181D01*
X203636510Y-46650858D01*
X203641494Y-46581166D01*
X203683366Y-46525233D01*
X203748830Y-46500816D01*
X203757676Y-46500500D01*
X205038661Y-46500500D01*
X205038663Y-46500500D01*
X205140524Y-46473207D01*
X205231849Y-46420480D01*
X205392868Y-46259459D01*
X205428004Y-46234825D01*
X205798234Y-46061628D01*
X205798234Y-46061627D01*
X205808133Y-46056997D01*
X205824752Y-46052545D01*
X205855073Y-46035039D01*
X205876792Y-46024879D01*
X205897066Y-46014456D01*
X205898576Y-46013607D01*
X205923561Y-45997925D01*
X205923568Y-45997917D01*
X205926832Y-45995294D01*
X205942524Y-45984548D01*
X205961684Y-45973488D01*
X206073488Y-45861684D01*
X206152545Y-45724752D01*
X206193468Y-45572025D01*
X206193468Y-45413911D01*
X206152545Y-45261184D01*
X206129312Y-45220943D01*
X206073492Y-45124258D01*
X206073486Y-45124250D01*
X205961685Y-45012449D01*
X205961677Y-45012443D01*
X205824758Y-44933394D01*
X205824754Y-44933392D01*
X205824752Y-44933391D01*
X205672025Y-44892468D01*
X205513911Y-44892468D01*
X205361184Y-44933391D01*
X205361177Y-44933394D01*
X205224258Y-45012443D01*
X205224250Y-45012449D01*
X205112450Y-45124249D01*
X205112443Y-45124258D01*
X205076305Y-45186847D01*
X205076306Y-45186848D01*
X205073236Y-45192163D01*
X205061056Y-45209143D01*
X205050896Y-45230859D01*
X205048228Y-45235481D01*
X205048227Y-45235484D01*
X205033393Y-45261179D01*
X205033389Y-45261190D01*
X205031765Y-45267249D01*
X205024312Y-45287685D01*
X204865091Y-45628043D01*
X204818854Y-45680425D01*
X204752773Y-45699500D01*
X201766254Y-45699500D01*
X201699215Y-45679815D01*
X201653460Y-45627011D01*
X201643516Y-45557853D01*
X201672541Y-45494297D01*
X201678573Y-45487819D01*
X202795449Y-44370943D01*
X215399500Y-44370943D01*
X215399500Y-44529057D01*
X215431105Y-44647006D01*
X215440423Y-44681783D01*
X215440426Y-44681790D01*
X215519475Y-44818709D01*
X215519479Y-44818714D01*
X215519480Y-44818716D01*
X215631284Y-44930520D01*
X215631286Y-44930521D01*
X215631290Y-44930524D01*
X215760747Y-45005265D01*
X215768216Y-45009577D01*
X215920943Y-45050500D01*
X215920945Y-45050500D01*
X216079055Y-45050500D01*
X216079057Y-45050500D01*
X216231784Y-45009577D01*
X216368716Y-44930520D01*
X216480520Y-44818716D01*
X216559577Y-44681784D01*
X216600500Y-44529057D01*
X216600500Y-44370943D01*
X216559577Y-44218216D01*
X216552528Y-44206006D01*
X216480524Y-44081290D01*
X216480518Y-44081282D01*
X216368717Y-43969481D01*
X216368709Y-43969475D01*
X216231790Y-43890426D01*
X216231786Y-43890424D01*
X216231784Y-43890423D01*
X216079057Y-43849500D01*
X215920943Y-43849500D01*
X215768216Y-43890423D01*
X215768209Y-43890426D01*
X215631290Y-43969475D01*
X215631282Y-43969481D01*
X215519481Y-44081282D01*
X215519475Y-44081290D01*
X215440426Y-44218209D01*
X215440423Y-44218216D01*
X215399500Y-44370943D01*
X202795449Y-44370943D01*
X203466392Y-43700000D01*
X205320480Y-41845913D01*
X205373207Y-41754588D01*
X205400500Y-41652727D01*
X205400500Y-41547273D01*
X205400500Y-39854662D01*
X205420185Y-39787623D01*
X205472989Y-39741868D01*
X205483685Y-39737572D01*
X206227491Y-39478381D01*
X206227514Y-39478368D01*
X206229516Y-39477485D01*
X206255435Y-39469291D01*
X206291835Y-39462051D01*
X206473914Y-39386632D01*
X206637782Y-39277139D01*
X206777139Y-39137782D01*
X206886632Y-38973914D01*
X206962051Y-38791835D01*
X206983903Y-38681980D01*
X207000500Y-38598543D01*
X207000500Y-38401456D01*
X206962052Y-38208170D01*
X206962051Y-38208169D01*
X206962051Y-38208165D01*
X206930500Y-38131995D01*
X207949500Y-38131995D01*
X207949500Y-38368004D01*
X207949501Y-38368020D01*
X207980306Y-38602010D01*
X208041394Y-38829993D01*
X208131714Y-39048045D01*
X208131719Y-39048056D01*
X208183523Y-39137781D01*
X208249727Y-39252450D01*
X208249729Y-39252453D01*
X208249730Y-39252454D01*
X208393406Y-39439697D01*
X208393412Y-39439704D01*
X208560295Y-39606587D01*
X208560301Y-39606592D01*
X208747550Y-39750273D01*
X208878918Y-39826118D01*
X208951943Y-39868280D01*
X208951948Y-39868282D01*
X208951951Y-39868284D01*
X209170007Y-39958606D01*
X209397986Y-40019693D01*
X209631989Y-40050500D01*
X209631996Y-40050500D01*
X209868004Y-40050500D01*
X209868011Y-40050500D01*
X210102014Y-40019693D01*
X210329993Y-39958606D01*
X210548049Y-39868284D01*
X210752450Y-39750273D01*
X210939699Y-39606592D01*
X211106592Y-39439699D01*
X211250273Y-39252450D01*
X211368284Y-39048049D01*
X211458606Y-38829993D01*
X211519693Y-38602014D01*
X211550500Y-38368011D01*
X211550500Y-38131989D01*
X211519693Y-37897986D01*
X211458606Y-37670007D01*
X211368284Y-37451951D01*
X211368282Y-37451948D01*
X211368280Y-37451943D01*
X211326118Y-37378918D01*
X211250273Y-37247550D01*
X211191001Y-37170306D01*
X211106593Y-37060302D01*
X211106587Y-37060295D01*
X210939704Y-36893412D01*
X210939697Y-36893406D01*
X210752454Y-36749730D01*
X210752453Y-36749729D01*
X210752450Y-36749727D01*
X210670957Y-36702677D01*
X210548056Y-36631719D01*
X210548045Y-36631714D01*
X210329993Y-36541394D01*
X210102010Y-36480306D01*
X209868020Y-36449501D01*
X209868017Y-36449500D01*
X209868011Y-36449500D01*
X209631989Y-36449500D01*
X209631983Y-36449500D01*
X209631979Y-36449501D01*
X209397989Y-36480306D01*
X209170006Y-36541394D01*
X208951954Y-36631714D01*
X208951943Y-36631719D01*
X208747545Y-36749730D01*
X208560302Y-36893406D01*
X208560295Y-36893412D01*
X208393412Y-37060295D01*
X208393406Y-37060302D01*
X208249730Y-37247545D01*
X208131719Y-37451943D01*
X208131714Y-37451954D01*
X208041394Y-37670006D01*
X207980306Y-37897989D01*
X207949501Y-38131979D01*
X207949500Y-38131995D01*
X206930500Y-38131995D01*
X206909161Y-38080477D01*
X206886635Y-38026092D01*
X206886628Y-38026079D01*
X206777139Y-37862218D01*
X206777136Y-37862214D01*
X206637785Y-37722863D01*
X206637781Y-37722860D01*
X206473920Y-37613371D01*
X206473907Y-37613364D01*
X206291839Y-37537950D01*
X206291829Y-37537947D01*
X206098543Y-37499500D01*
X206098541Y-37499500D01*
X205901459Y-37499500D01*
X205901457Y-37499500D01*
X205708170Y-37537947D01*
X205708160Y-37537950D01*
X205526092Y-37613364D01*
X205526079Y-37613371D01*
X205362218Y-37722860D01*
X205362214Y-37722863D01*
X205222863Y-37862214D01*
X205222860Y-37862218D01*
X205113371Y-38026079D01*
X205113364Y-38026092D01*
X205037950Y-38208160D01*
X205037947Y-38208169D01*
X205030695Y-38244629D01*
X205023456Y-38267077D01*
X205023505Y-38267094D01*
X205022781Y-38269170D01*
X205021919Y-38271845D01*
X205021623Y-38272494D01*
X204847093Y-38773342D01*
X204806445Y-38830170D01*
X204741525Y-38856001D01*
X204672946Y-38842633D01*
X204622481Y-38794311D01*
X204612905Y-38773342D01*
X204438381Y-38272510D01*
X204437485Y-38270481D01*
X204429289Y-38244559D01*
X204422051Y-38208165D01*
X204376614Y-38098469D01*
X204346633Y-38026088D01*
X204346628Y-38026079D01*
X204237139Y-37862218D01*
X204237136Y-37862214D01*
X204097785Y-37722863D01*
X204097781Y-37722860D01*
X203933920Y-37613371D01*
X203933907Y-37613364D01*
X203751839Y-37537950D01*
X203751829Y-37537947D01*
X203558543Y-37499500D01*
X203558541Y-37499500D01*
X203361459Y-37499500D01*
X203361457Y-37499500D01*
X203168170Y-37537947D01*
X203168160Y-37537950D01*
X202986092Y-37613364D01*
X202986079Y-37613371D01*
X202822218Y-37722860D01*
X202822214Y-37722863D01*
X202682863Y-37862214D01*
X202682860Y-37862218D01*
X202573371Y-38026079D01*
X202573364Y-38026092D01*
X202497950Y-38208160D01*
X202497947Y-38208170D01*
X202459500Y-38401456D01*
X202459500Y-38401459D01*
X202459500Y-38598541D01*
X202459500Y-38598543D01*
X202459499Y-38598543D01*
X202497947Y-38791829D01*
X202497950Y-38791839D01*
X202573364Y-38973907D01*
X202573371Y-38973920D01*
X202682860Y-39137781D01*
X202682863Y-39137785D01*
X202822214Y-39277136D01*
X202822218Y-39277139D01*
X202986079Y-39386628D01*
X202986092Y-39386635D01*
X203095333Y-39431883D01*
X203168165Y-39462051D01*
X203204634Y-39469304D01*
X203227076Y-39476544D01*
X203227094Y-39476495D01*
X203229211Y-39477232D01*
X203231878Y-39478093D01*
X203232495Y-39478373D01*
X203232508Y-39478381D01*
X204016304Y-39751508D01*
X204073132Y-39792155D01*
X204098963Y-39857074D01*
X204099500Y-39868601D01*
X204099500Y-41082744D01*
X204079815Y-41149783D01*
X204063181Y-41170425D01*
X201612180Y-43621426D01*
X201596290Y-43630102D01*
X201583432Y-43642845D01*
X201566262Y-43646498D01*
X201550857Y-43654911D01*
X201532800Y-43653619D01*
X201515093Y-43657388D01*
X201498673Y-43651179D01*
X201481165Y-43649927D01*
X201466673Y-43639078D01*
X201449740Y-43632675D01*
X201439283Y-43618574D01*
X201425232Y-43608055D01*
X201418906Y-43591094D01*
X201408122Y-43576552D01*
X201403224Y-43549051D01*
X201400815Y-43542591D01*
X201400776Y-43542031D01*
X201400499Y-43537894D01*
X201400499Y-43380136D01*
X201397585Y-43355009D01*
X201386582Y-43330090D01*
X201385122Y-43308286D01*
X201388151Y-43294655D01*
X201386339Y-43280812D01*
X201395412Y-43249911D01*
X201397585Y-43244991D01*
X201400500Y-43219865D01*
X201400499Y-42580136D01*
X201399662Y-42572915D01*
X201397586Y-42555012D01*
X201397585Y-42555010D01*
X201397585Y-42555009D01*
X201352206Y-42452235D01*
X201272765Y-42372794D01*
X201169992Y-42327415D01*
X201144868Y-42324500D01*
X201144865Y-42324500D01*
X199633705Y-42324500D01*
X199616401Y-42321054D01*
X199609303Y-42320754D01*
X199575988Y-42324500D01*
X199555132Y-42324500D01*
X199523582Y-42328160D01*
X199487814Y-42327111D01*
X199372719Y-42306865D01*
X199369553Y-42306325D01*
X199363676Y-42305890D01*
X199363734Y-42305096D01*
X199338575Y-42302050D01*
X199329057Y-42299500D01*
X199170943Y-42299500D01*
X199170941Y-42299500D01*
X199155285Y-42303695D01*
X199085436Y-42302030D01*
X199027574Y-42262865D01*
X199000072Y-42198636D01*
X199000258Y-42167726D01*
X199000498Y-42165895D01*
X199000500Y-42165892D01*
X199000500Y-42034107D01*
X199000500Y-40861018D01*
X199017145Y-40798963D01*
X199206116Y-40472044D01*
X199721075Y-39581165D01*
X199740743Y-39555546D01*
X199856592Y-39439699D01*
X200000273Y-39252450D01*
X200118284Y-39048049D01*
X200208606Y-38829993D01*
X200269693Y-38602014D01*
X200300500Y-38368011D01*
X200300500Y-38131989D01*
X200269693Y-37897986D01*
X200208606Y-37670007D01*
X200118284Y-37451951D01*
X200118282Y-37451948D01*
X200118280Y-37451943D01*
X200076118Y-37378918D01*
X200000273Y-37247550D01*
X199941001Y-37170306D01*
X199856593Y-37060302D01*
X199856587Y-37060295D01*
X199689704Y-36893412D01*
X199689697Y-36893406D01*
X199502454Y-36749730D01*
X199502453Y-36749729D01*
X199502450Y-36749727D01*
X199420957Y-36702677D01*
X199298056Y-36631719D01*
X199298045Y-36631714D01*
X199079993Y-36541394D01*
X198852010Y-36480306D01*
X198618020Y-36449501D01*
X198618017Y-36449500D01*
X198618011Y-36449500D01*
X198381989Y-36449500D01*
X198381983Y-36449500D01*
X198381979Y-36449501D01*
X198147989Y-36480306D01*
X197920006Y-36541394D01*
X197701954Y-36631714D01*
X197701943Y-36631719D01*
X197497545Y-36749730D01*
X197310302Y-36893406D01*
X197310295Y-36893412D01*
X197143412Y-37060295D01*
X197143406Y-37060302D01*
X196999730Y-37247545D01*
X196881719Y-37451943D01*
X196881714Y-37451954D01*
X196791394Y-37670006D01*
X196730306Y-37897989D01*
X196699501Y-38131979D01*
X196699500Y-38131995D01*
X196699500Y-38368004D01*
X196699501Y-38368020D01*
X196730306Y-38602010D01*
X196791394Y-38829993D01*
X196881714Y-39048045D01*
X196881719Y-39048056D01*
X196933523Y-39137781D01*
X196999727Y-39252450D01*
X196999729Y-39252453D01*
X196999730Y-39252454D01*
X197143405Y-39439696D01*
X197143406Y-39439697D01*
X197143408Y-39439699D01*
X197259251Y-39555542D01*
X197278922Y-39581165D01*
X197550214Y-40050498D01*
X197711247Y-40329085D01*
X197982855Y-40798964D01*
X197999500Y-40861019D01*
X197999500Y-41662319D01*
X197979815Y-41729358D01*
X197927011Y-41775113D01*
X197857853Y-41785057D01*
X197794297Y-41756032D01*
X197760939Y-41709772D01*
X197753929Y-41692849D01*
X197748620Y-41680031D01*
X197742328Y-41670615D01*
X197674698Y-41569398D01*
X197674692Y-41569390D01*
X197580609Y-41475307D01*
X197580601Y-41475301D01*
X197469979Y-41401386D01*
X197469972Y-41401382D01*
X197469969Y-41401380D01*
X197469965Y-41401378D01*
X197469961Y-41401376D01*
X197347040Y-41350461D01*
X197347030Y-41350458D01*
X197216533Y-41324500D01*
X197216531Y-41324500D01*
X197083469Y-41324500D01*
X197083467Y-41324500D01*
X196952969Y-41350458D01*
X196952959Y-41350461D01*
X196830038Y-41401376D01*
X196830020Y-41401386D01*
X196719398Y-41475301D01*
X196719390Y-41475307D01*
X196625307Y-41569390D01*
X196625301Y-41569398D01*
X196551386Y-41680020D01*
X196551376Y-41680038D01*
X196500461Y-41802959D01*
X196500458Y-41802969D01*
X196474500Y-41933466D01*
X196474500Y-41933469D01*
X196474500Y-42066531D01*
X196474500Y-42066533D01*
X196474499Y-42066533D01*
X196496336Y-42176308D01*
X196490109Y-42245900D01*
X196447246Y-42301077D01*
X196381357Y-42324322D01*
X196374719Y-42324500D01*
X195833705Y-42324500D01*
X195816401Y-42321054D01*
X195809303Y-42320754D01*
X195775988Y-42324500D01*
X195755132Y-42324500D01*
X195730008Y-42327414D01*
X195721008Y-42329863D01*
X195720836Y-42329232D01*
X195720459Y-42329350D01*
X195720633Y-42329988D01*
X195716021Y-42331245D01*
X195716019Y-42331246D01*
X195632224Y-42354099D01*
X195509961Y-42387443D01*
X195461276Y-42390768D01*
X194984646Y-42328515D01*
X194984642Y-42328515D01*
X194984633Y-42328514D01*
X194984113Y-42328493D01*
X194981954Y-42328164D01*
X194979143Y-42327797D01*
X194979150Y-42327737D01*
X194957059Y-42324372D01*
X194954795Y-42323765D01*
X194954792Y-42323765D01*
X194796678Y-42323765D01*
X194643951Y-42364688D01*
X194643944Y-42364691D01*
X194507025Y-42443740D01*
X194507017Y-42443746D01*
X194395216Y-42555547D01*
X194395212Y-42555552D01*
X194372366Y-42595124D01*
X194321799Y-42643340D01*
X194253192Y-42656563D01*
X194188327Y-42630595D01*
X194177298Y-42620805D01*
X193686819Y-42130326D01*
X193653334Y-42069003D01*
X193650500Y-42042645D01*
X193650500Y-39983560D01*
X193670185Y-39916521D01*
X193678913Y-39904571D01*
X194291355Y-39163565D01*
X194317139Y-39137782D01*
X194336019Y-39109526D01*
X194349267Y-39093497D01*
X194358747Y-39081422D01*
X194359449Y-39080480D01*
X194372151Y-39062065D01*
X194374033Y-39057382D01*
X194385975Y-39034759D01*
X194426632Y-38973914D01*
X194502051Y-38791835D01*
X194523903Y-38681980D01*
X194540500Y-38598543D01*
X194540500Y-38401456D01*
X194502052Y-38208170D01*
X194502051Y-38208169D01*
X194502051Y-38208165D01*
X194502049Y-38208160D01*
X194426635Y-38026092D01*
X194426628Y-38026079D01*
X194317139Y-37862218D01*
X194317136Y-37862214D01*
X194177785Y-37722863D01*
X194177781Y-37722860D01*
X194013920Y-37613371D01*
X194013907Y-37613364D01*
X193831839Y-37537950D01*
X193831829Y-37537947D01*
X193638543Y-37499500D01*
X193638541Y-37499500D01*
X193441459Y-37499500D01*
X193441457Y-37499500D01*
X193248170Y-37537947D01*
X193248160Y-37537950D01*
X193066092Y-37613364D01*
X193066079Y-37613371D01*
X192902218Y-37722860D01*
X192902214Y-37722863D01*
X192762863Y-37862214D01*
X192762860Y-37862218D01*
X192653371Y-38026079D01*
X192653364Y-38026092D01*
X192577950Y-38208160D01*
X192577947Y-38208170D01*
X192539500Y-38401456D01*
X192539500Y-38588267D01*
X192519815Y-38655306D01*
X192467011Y-38701061D01*
X192397853Y-38711005D01*
X192334297Y-38681980D01*
X192312270Y-38656966D01*
X191842844Y-37951592D01*
X191823213Y-37925279D01*
X191823206Y-37925269D01*
X191823201Y-37925263D01*
X191823193Y-37925256D01*
X191820132Y-37922074D01*
X191820495Y-37921724D01*
X191804709Y-37903480D01*
X191777137Y-37862215D01*
X191637785Y-37722863D01*
X191637781Y-37722860D01*
X191473920Y-37613371D01*
X191473907Y-37613364D01*
X191291839Y-37537950D01*
X191291829Y-37537947D01*
X191098543Y-37499500D01*
X191098541Y-37499500D01*
X190901459Y-37499500D01*
X190901457Y-37499500D01*
X190708170Y-37537947D01*
X190708160Y-37537950D01*
X190526092Y-37613364D01*
X190526079Y-37613371D01*
X190362218Y-37722860D01*
X190362214Y-37722863D01*
X190222863Y-37862214D01*
X190222860Y-37862218D01*
X190113371Y-38026079D01*
X190113364Y-38026092D01*
X190037950Y-38208160D01*
X190037947Y-38208170D01*
X189999500Y-38401456D01*
X189999500Y-38401459D01*
X189999500Y-38598541D01*
X189999500Y-38598543D01*
X189999499Y-38598543D01*
X190037947Y-38791829D01*
X190037950Y-38791839D01*
X190113364Y-38973907D01*
X190113371Y-38973920D01*
X190222860Y-39137781D01*
X190222863Y-39137785D01*
X190362214Y-39277136D01*
X190362218Y-39277139D01*
X190526079Y-39386628D01*
X190526092Y-39386635D01*
X190654197Y-39439697D01*
X190708165Y-39462051D01*
X190708169Y-39462051D01*
X190708170Y-39462052D01*
X190901456Y-39500500D01*
X190901459Y-39500500D01*
X191058646Y-39500500D01*
X191063775Y-39500605D01*
X191923473Y-39536203D01*
X191989640Y-39558644D01*
X192006023Y-39572416D01*
X192313181Y-39879574D01*
X192346666Y-39940897D01*
X192349500Y-39967255D01*
X192349500Y-42274273D01*
X192349500Y-42379727D01*
X192353322Y-42393991D01*
X192376793Y-42481589D01*
X192384521Y-42494974D01*
X192429520Y-42572913D01*
X192429522Y-42572915D01*
X195294426Y-45437819D01*
X195327911Y-45499142D01*
X195322927Y-45568834D01*
X195281055Y-45624767D01*
X195215591Y-45649184D01*
X195206745Y-45649500D01*
X192228082Y-45649500D01*
X192161043Y-45629815D01*
X192120621Y-45587372D01*
X191884631Y-45177485D01*
X191879447Y-45168817D01*
X191879056Y-45168187D01*
X191870098Y-45154576D01*
X191870095Y-45154574D01*
X191870094Y-45154571D01*
X191865933Y-45149507D01*
X191866579Y-45148975D01*
X191853098Y-45131552D01*
X191844736Y-45117068D01*
X191732932Y-45005264D01*
X191732930Y-45005263D01*
X191732925Y-45005259D01*
X191596006Y-44926210D01*
X191596002Y-44926208D01*
X191596000Y-44926207D01*
X191443273Y-44885284D01*
X191285159Y-44885284D01*
X191132432Y-44926207D01*
X191132425Y-44926210D01*
X190995506Y-45005259D01*
X190995498Y-45005265D01*
X190883697Y-45117066D01*
X190883691Y-45117074D01*
X190804642Y-45253993D01*
X190804639Y-45254000D01*
X190763716Y-45406727D01*
X190763716Y-45564841D01*
X190797692Y-45691639D01*
X190804639Y-45717567D01*
X190804642Y-45717574D01*
X190883691Y-45854493D01*
X190883694Y-45854497D01*
X190883696Y-45854500D01*
X190995500Y-45966304D01*
X191027085Y-45984539D01*
X191027948Y-45985037D01*
X191046513Y-45998162D01*
X191051021Y-46002014D01*
X191055917Y-46006199D01*
X191337013Y-46168038D01*
X191385289Y-46218547D01*
X191398595Y-46287138D01*
X191372705Y-46352034D01*
X191315840Y-46392631D01*
X191275142Y-46399500D01*
X190034108Y-46399500D01*
X189906812Y-46433608D01*
X189792686Y-46499500D01*
X189792683Y-46499502D01*
X185099502Y-51192683D01*
X185099500Y-51192686D01*
X185033608Y-51306812D01*
X184999500Y-51434108D01*
X184999500Y-51625500D01*
X184979815Y-51692539D01*
X184927011Y-51738294D01*
X184875500Y-51749500D01*
X181867334Y-51749500D01*
X181805334Y-51732887D01*
X181731786Y-51690424D01*
X181731785Y-51690423D01*
X181731784Y-51690423D01*
X181579057Y-51649500D01*
X181420943Y-51649500D01*
X181268216Y-51690423D01*
X181268213Y-51690424D01*
X181194666Y-51732887D01*
X181132666Y-51749500D01*
X178117334Y-51749500D01*
X178055334Y-51732887D01*
X177981786Y-51690424D01*
X177981785Y-51690423D01*
X177981784Y-51690423D01*
X177829057Y-51649500D01*
X177670943Y-51649500D01*
X177518216Y-51690423D01*
X177518215Y-51690423D01*
X177499193Y-51701406D01*
X177431293Y-51717877D01*
X177365266Y-51695025D01*
X177349513Y-51681699D01*
X174813757Y-49145943D01*
X180399500Y-49145943D01*
X180399500Y-49304057D01*
X180406199Y-49329056D01*
X180440423Y-49456783D01*
X180440426Y-49456790D01*
X180519475Y-49593709D01*
X180519479Y-49593714D01*
X180519480Y-49593716D01*
X180631284Y-49705520D01*
X180631286Y-49705521D01*
X180631290Y-49705524D01*
X180717002Y-49755009D01*
X180768216Y-49784577D01*
X180920943Y-49825500D01*
X180920945Y-49825500D01*
X181079055Y-49825500D01*
X181079057Y-49825500D01*
X181231784Y-49784577D01*
X181368716Y-49705520D01*
X181480520Y-49593716D01*
X181559577Y-49456784D01*
X181600500Y-49304057D01*
X181600500Y-49145943D01*
X181559577Y-48993216D01*
X181552025Y-48980135D01*
X181480524Y-48856290D01*
X181480518Y-48856282D01*
X181368717Y-48744481D01*
X181368709Y-48744475D01*
X181231790Y-48665426D01*
X181231786Y-48665424D01*
X181231784Y-48665423D01*
X181079057Y-48624500D01*
X180920943Y-48624500D01*
X180768216Y-48665423D01*
X180768209Y-48665426D01*
X180631290Y-48744475D01*
X180631282Y-48744481D01*
X180519481Y-48856282D01*
X180519475Y-48856290D01*
X180440426Y-48993209D01*
X180440423Y-48993216D01*
X180399500Y-49145943D01*
X174813757Y-49145943D01*
X174620276Y-48952462D01*
X174594744Y-48915365D01*
X174417791Y-48519326D01*
X174413820Y-48490004D01*
X174407236Y-48461162D01*
X174409184Y-48455770D01*
X174408415Y-48450089D01*
X174420927Y-48423274D01*
X174430982Y-48395451D01*
X174436573Y-48389743D01*
X174437960Y-48386773D01*
X174455682Y-48370241D01*
X174526616Y-48315999D01*
X174591827Y-48290913D01*
X174601938Y-48290500D01*
X174748062Y-48290500D01*
X174815101Y-48310185D01*
X174823386Y-48316000D01*
X175050930Y-48490004D01*
X175556292Y-48876457D01*
X175567416Y-48882387D01*
X175577235Y-48892206D01*
X175627292Y-48914308D01*
X175643819Y-48923119D01*
X175650919Y-48925525D01*
X175650920Y-48925525D01*
X175653316Y-48926337D01*
X175663611Y-48930344D01*
X175680009Y-48937585D01*
X175705135Y-48940500D01*
X175748605Y-48940499D01*
X175755847Y-48941610D01*
X175761124Y-48940499D01*
X177494864Y-48940499D01*
X177494879Y-48940497D01*
X177494882Y-48940497D01*
X177519987Y-48937586D01*
X177519988Y-48937585D01*
X177519991Y-48937585D01*
X177622765Y-48892206D01*
X177702206Y-48812765D01*
X177747585Y-48709991D01*
X177750500Y-48684865D01*
X177750499Y-46895136D01*
X177750423Y-46894480D01*
X177747586Y-46870012D01*
X177747585Y-46870010D01*
X177747585Y-46870009D01*
X177702206Y-46767235D01*
X177622765Y-46687794D01*
X177576910Y-46667547D01*
X177519992Y-46642415D01*
X177494868Y-46639500D01*
X176757128Y-46639500D01*
X176734544Y-46632868D01*
X176711110Y-46630645D01*
X176701639Y-46623206D01*
X176690089Y-46619815D01*
X176674677Y-46602029D01*
X176656163Y-46587487D01*
X176652217Y-46576109D01*
X176644334Y-46567011D01*
X176640984Y-46543713D01*
X176633272Y-46521473D01*
X176636103Y-46509770D01*
X176634390Y-46497853D01*
X176638413Y-46489043D01*
X179048500Y-46489043D01*
X179048500Y-46647157D01*
X179082622Y-46774500D01*
X179089423Y-46799883D01*
X179089426Y-46799890D01*
X179168475Y-46936809D01*
X179168479Y-46936814D01*
X179168480Y-46936816D01*
X179280284Y-47048620D01*
X179280286Y-47048621D01*
X179280290Y-47048624D01*
X179413965Y-47125800D01*
X179417216Y-47127677D01*
X179569943Y-47168600D01*
X179569945Y-47168600D01*
X179728055Y-47168600D01*
X179728057Y-47168600D01*
X179803800Y-47148304D01*
X179824424Y-47144912D01*
X179846969Y-47136737D01*
X179880784Y-47127677D01*
X179886223Y-47124536D01*
X179905949Y-47115352D01*
X180253447Y-46989357D01*
X180282293Y-46987560D01*
X180310810Y-46982854D01*
X180316737Y-46985413D01*
X180323180Y-46985012D01*
X180348416Y-46999093D01*
X180374954Y-47010554D01*
X180380900Y-47017220D01*
X180384194Y-47019058D01*
X180398615Y-47036743D01*
X180399054Y-47037396D01*
X180488499Y-47174124D01*
X180493796Y-47181953D01*
X180501008Y-47189027D01*
X180508059Y-47199514D01*
X180508808Y-47201882D01*
X180512543Y-47206702D01*
X180519478Y-47218714D01*
X180519479Y-47218715D01*
X180519480Y-47218716D01*
X180631284Y-47330520D01*
X180631286Y-47330521D01*
X180631290Y-47330524D01*
X180724914Y-47384577D01*
X180768216Y-47409577D01*
X180920943Y-47450500D01*
X180920945Y-47450500D01*
X181079055Y-47450500D01*
X181079057Y-47450500D01*
X181231784Y-47409577D01*
X181368716Y-47330520D01*
X181480520Y-47218716D01*
X181559577Y-47081784D01*
X181600500Y-46929057D01*
X181600500Y-46770943D01*
X181559577Y-46618216D01*
X181555043Y-46610363D01*
X181480524Y-46481290D01*
X181480518Y-46481282D01*
X181368717Y-46369481D01*
X181368709Y-46369475D01*
X181231790Y-46290426D01*
X181231786Y-46290424D01*
X181231784Y-46290423D01*
X181231782Y-46290422D01*
X181231779Y-46290421D01*
X181119180Y-46260249D01*
X181119180Y-46260250D01*
X181114077Y-46258883D01*
X181095929Y-46252322D01*
X181079655Y-46249660D01*
X181079057Y-46249500D01*
X181079051Y-46249500D01*
X181079044Y-46249498D01*
X181079040Y-46249498D01*
X181075190Y-46248930D01*
X180945597Y-46227734D01*
X180903612Y-46212747D01*
X180872690Y-46194894D01*
X180872689Y-46194893D01*
X180872688Y-46194893D01*
X180770827Y-46167600D01*
X180770826Y-46167600D01*
X180575364Y-46167600D01*
X180560695Y-46165811D01*
X180558812Y-46165659D01*
X180527168Y-46164751D01*
X180513663Y-46167600D01*
X180332488Y-46167600D01*
X180290221Y-46160174D01*
X179905948Y-46020845D01*
X179886216Y-46011659D01*
X179880784Y-46008523D01*
X179852128Y-46000844D01*
X179841959Y-45997644D01*
X179838492Y-45996387D01*
X179824408Y-45991280D01*
X179803027Y-45984408D01*
X179801362Y-45983940D01*
X179801355Y-45983938D01*
X179772242Y-45977264D01*
X179772229Y-45977261D01*
X179768015Y-45976802D01*
X179749364Y-45973308D01*
X179728064Y-45967601D01*
X179728058Y-45967600D01*
X179728057Y-45967600D01*
X179569943Y-45967600D01*
X179417216Y-46008523D01*
X179417209Y-46008526D01*
X179280290Y-46087575D01*
X179280282Y-46087581D01*
X179168481Y-46199382D01*
X179168475Y-46199390D01*
X179089426Y-46336309D01*
X179089423Y-46336316D01*
X179048500Y-46489043D01*
X176638413Y-46489043D01*
X176644167Y-46476442D01*
X176649704Y-46453563D01*
X176658413Y-46445248D01*
X176663415Y-46434297D01*
X176683217Y-46421571D01*
X176700243Y-46405318D01*
X176717115Y-46399785D01*
X176722193Y-46396523D01*
X176733589Y-46393755D01*
X176735657Y-46393355D01*
X176869409Y-46372171D01*
X177041639Y-46316211D01*
X177202994Y-46233996D01*
X177349501Y-46127553D01*
X177477553Y-45999501D01*
X177477553Y-45999500D01*
X177477557Y-45999497D01*
X177477558Y-45999494D01*
X177478903Y-45997643D01*
X177583996Y-45852994D01*
X177666211Y-45691639D01*
X177722171Y-45519409D01*
X177744400Y-45379060D01*
X177750500Y-45340551D01*
X177750500Y-45159448D01*
X177732701Y-45047073D01*
X177722171Y-44980591D01*
X177675842Y-44838002D01*
X177666212Y-44808363D01*
X177666211Y-44808360D01*
X177627192Y-44731783D01*
X177583996Y-44647006D01*
X177540401Y-44587002D01*
X177477558Y-44500505D01*
X177477554Y-44500500D01*
X177385497Y-44408443D01*
X180412000Y-44408443D01*
X180412000Y-44566557D01*
X180417480Y-44587006D01*
X180452923Y-44719283D01*
X180452926Y-44719290D01*
X180531975Y-44856209D01*
X180531979Y-44856214D01*
X180531980Y-44856216D01*
X180643784Y-44968020D01*
X180643786Y-44968021D01*
X180643790Y-44968024D01*
X180720736Y-45012448D01*
X180780716Y-45047077D01*
X180933443Y-45088000D01*
X180933445Y-45088000D01*
X181091555Y-45088000D01*
X181091557Y-45088000D01*
X181244284Y-45047077D01*
X181381216Y-44968020D01*
X181493020Y-44856216D01*
X181572077Y-44719284D01*
X181613000Y-44566557D01*
X181613000Y-44408443D01*
X181572077Y-44255716D01*
X181543376Y-44206004D01*
X181493024Y-44118790D01*
X181493018Y-44118782D01*
X181381217Y-44006981D01*
X181381209Y-44006975D01*
X181244290Y-43927926D01*
X181244286Y-43927924D01*
X181244284Y-43927923D01*
X181091557Y-43887000D01*
X180933443Y-43887000D01*
X180780716Y-43927923D01*
X180780709Y-43927926D01*
X180643790Y-44006975D01*
X180643782Y-44006981D01*
X180531981Y-44118782D01*
X180531975Y-44118790D01*
X180452926Y-44255709D01*
X180452923Y-44255716D01*
X180412000Y-44408443D01*
X177385497Y-44408443D01*
X177349499Y-44372445D01*
X177349494Y-44372441D01*
X177202997Y-44266006D01*
X177202996Y-44266005D01*
X177202994Y-44266004D01*
X177151300Y-44239664D01*
X177041639Y-44183788D01*
X177041636Y-44183787D01*
X176869410Y-44127829D01*
X176690551Y-44099500D01*
X176690546Y-44099500D01*
X176509454Y-44099500D01*
X176509449Y-44099500D01*
X176330589Y-44127829D01*
X176158363Y-44183787D01*
X176158360Y-44183788D01*
X175997002Y-44266006D01*
X175850505Y-44372441D01*
X175850500Y-44372445D01*
X175722445Y-44500500D01*
X175722441Y-44500505D01*
X175616006Y-44647002D01*
X175533788Y-44808360D01*
X175533787Y-44808363D01*
X175477829Y-44980589D01*
X175449500Y-45159448D01*
X175449500Y-45340551D01*
X175477829Y-45519410D01*
X175533787Y-45691636D01*
X175533788Y-45691639D01*
X175579075Y-45780518D01*
X175605144Y-45831681D01*
X175616006Y-45852997D01*
X175722441Y-45999494D01*
X175722443Y-45999497D01*
X175850500Y-46127554D01*
X175850505Y-46127558D01*
X175967759Y-46212747D01*
X175997006Y-46233996D01*
X176078462Y-46275500D01*
X176158360Y-46316211D01*
X176158363Y-46316212D01*
X176220217Y-46336309D01*
X176330591Y-46372171D01*
X176432388Y-46388294D01*
X176462270Y-46393027D01*
X176525405Y-46422956D01*
X176562336Y-46482268D01*
X176561338Y-46552130D01*
X176522728Y-46610363D01*
X176458765Y-46638477D01*
X176442872Y-46639500D01*
X175705143Y-46639500D01*
X175705117Y-46639502D01*
X175680013Y-46642413D01*
X175577233Y-46687794D01*
X175571972Y-46691398D01*
X175558382Y-46702230D01*
X175556290Y-46703542D01*
X174823385Y-47264000D01*
X174802143Y-47272171D01*
X174782996Y-47284477D01*
X174762495Y-47287424D01*
X174758174Y-47289087D01*
X174748061Y-47289500D01*
X174601938Y-47289500D01*
X174534899Y-47269815D01*
X174526614Y-47264000D01*
X173793706Y-46703541D01*
X173790371Y-46701397D01*
X173777613Y-46691114D01*
X173772766Y-46687794D01*
X173726910Y-46667546D01*
X173722712Y-46665693D01*
X173706180Y-46656880D01*
X173699080Y-46654474D01*
X173696356Y-46654056D01*
X173669991Y-46642415D01*
X173663709Y-46641686D01*
X173644868Y-46639500D01*
X173644865Y-46639500D01*
X173601434Y-46639500D01*
X173594189Y-46638389D01*
X173588903Y-46639500D01*
X172907128Y-46639500D01*
X172840089Y-46619815D01*
X172794334Y-46567011D01*
X172784390Y-46497853D01*
X172813415Y-46434297D01*
X172872193Y-46396523D01*
X172887730Y-46393027D01*
X172917612Y-46388294D01*
X173019409Y-46372171D01*
X173191639Y-46316211D01*
X173352994Y-46233996D01*
X173499501Y-46127553D01*
X173627553Y-45999501D01*
X173627553Y-45999500D01*
X173627557Y-45999497D01*
X173627558Y-45999494D01*
X173628903Y-45997643D01*
X173733996Y-45852994D01*
X173816211Y-45691639D01*
X173872171Y-45519409D01*
X173894400Y-45379060D01*
X173900500Y-45340551D01*
X173900500Y-45159448D01*
X173882701Y-45047073D01*
X173872171Y-44980591D01*
X173825842Y-44838002D01*
X173816212Y-44808363D01*
X173816211Y-44808360D01*
X173777192Y-44731783D01*
X173733996Y-44647006D01*
X173690401Y-44587002D01*
X173627558Y-44500505D01*
X173627554Y-44500500D01*
X173499499Y-44372445D01*
X173499494Y-44372441D01*
X173352997Y-44266006D01*
X173352996Y-44266005D01*
X173352994Y-44266004D01*
X173301300Y-44239664D01*
X173191639Y-44183788D01*
X173191636Y-44183787D01*
X173019410Y-44127829D01*
X172840551Y-44099500D01*
X172840546Y-44099500D01*
X172659454Y-44099500D01*
X172659449Y-44099500D01*
X172480589Y-44127829D01*
X172308363Y-44183787D01*
X172308360Y-44183788D01*
X172147002Y-44266006D01*
X172000505Y-44372441D01*
X172000500Y-44372445D01*
X171872445Y-44500500D01*
X171872441Y-44500505D01*
X171766006Y-44647002D01*
X171683788Y-44808360D01*
X171683787Y-44808363D01*
X171627829Y-44980589D01*
X171599500Y-45159448D01*
X167850500Y-45159448D01*
X167850500Y-42421138D01*
X167870185Y-42354099D01*
X167922989Y-42308344D01*
X167992147Y-42298400D01*
X168055703Y-42327425D01*
X168093477Y-42386203D01*
X168094275Y-42389045D01*
X168136763Y-42547618D01*
X168222041Y-42753497D01*
X168222044Y-42753502D01*
X168324339Y-42930684D01*
X168839657Y-42415365D01*
X168863811Y-42473678D01*
X168973249Y-42637463D01*
X169112537Y-42776751D01*
X169276322Y-42886189D01*
X169334631Y-42910341D01*
X168819313Y-43425659D01*
X168996497Y-43527955D01*
X168996502Y-43527958D01*
X169202381Y-43613236D01*
X169417632Y-43670911D01*
X169417645Y-43670914D01*
X169638575Y-43700000D01*
X169861425Y-43700000D01*
X170082354Y-43670914D01*
X170082367Y-43670911D01*
X170297618Y-43613236D01*
X170503502Y-43527954D01*
X170503513Y-43527949D01*
X170680684Y-43425659D01*
X170680685Y-43425658D01*
X170165368Y-42910341D01*
X170223678Y-42886189D01*
X170387463Y-42776751D01*
X170526751Y-42637463D01*
X170636189Y-42473678D01*
X170660341Y-42415368D01*
X171175658Y-42930685D01*
X171175659Y-42930684D01*
X171277949Y-42753513D01*
X171277954Y-42753502D01*
X171363236Y-42547618D01*
X171420911Y-42332367D01*
X171420914Y-42332354D01*
X171450000Y-42111424D01*
X171450000Y-41888575D01*
X171420914Y-41667645D01*
X171420911Y-41667632D01*
X171363236Y-41452381D01*
X171277958Y-41246502D01*
X171277955Y-41246497D01*
X171175659Y-41069314D01*
X171175659Y-41069313D01*
X170660341Y-41584631D01*
X170636189Y-41526322D01*
X170526751Y-41362537D01*
X170387463Y-41223249D01*
X170223678Y-41113811D01*
X170165367Y-41089657D01*
X170680685Y-40574339D01*
X170503502Y-40472044D01*
X170503497Y-40472041D01*
X170297618Y-40386763D01*
X170082367Y-40329088D01*
X170082354Y-40329085D01*
X169861425Y-40300000D01*
X169638575Y-40300000D01*
X169417645Y-40329085D01*
X169417632Y-40329088D01*
X169202381Y-40386763D01*
X168996502Y-40472041D01*
X168996497Y-40472044D01*
X168819314Y-40574339D01*
X169334632Y-41089657D01*
X169276322Y-41113811D01*
X169112537Y-41223249D01*
X168973249Y-41362537D01*
X168863811Y-41526322D01*
X168839657Y-41584632D01*
X168324339Y-41069314D01*
X168222044Y-41246497D01*
X168222041Y-41246502D01*
X168136763Y-41452381D01*
X168094275Y-41610954D01*
X168057910Y-41670615D01*
X167995063Y-41701144D01*
X167925688Y-41692849D01*
X167871810Y-41648364D01*
X167850535Y-41581812D01*
X167850500Y-41578861D01*
X167850500Y-38745607D01*
X167870185Y-38678568D01*
X167922989Y-38632813D01*
X167992147Y-38622869D01*
X168055703Y-38651894D01*
X168077602Y-38676717D01*
X168084981Y-38687760D01*
X168084984Y-38687764D01*
X168084985Y-38687765D01*
X168303176Y-38953632D01*
X168546367Y-39196823D01*
X168546372Y-39196827D01*
X168546373Y-39196828D01*
X168812240Y-39415019D01*
X169098213Y-39606100D01*
X169098222Y-39606105D01*
X169098224Y-39606106D01*
X169401530Y-39768227D01*
X169401532Y-39768227D01*
X169401538Y-39768231D01*
X169719295Y-39899850D01*
X170048422Y-39999690D01*
X170385750Y-40066789D01*
X170728031Y-40100500D01*
X170728034Y-40100500D01*
X171071966Y-40100500D01*
X171071969Y-40100500D01*
X171414250Y-40066789D01*
X171751578Y-39999690D01*
X172080705Y-39899850D01*
X172398462Y-39768231D01*
X172701787Y-39606100D01*
X172987760Y-39415019D01*
X173253627Y-39196828D01*
X173496828Y-38953627D01*
X173715019Y-38687760D01*
X173906100Y-38401787D01*
X174050307Y-38131995D01*
X185399500Y-38131995D01*
X185399500Y-38368004D01*
X185399501Y-38368020D01*
X185430306Y-38602010D01*
X185491394Y-38829993D01*
X185581714Y-39048045D01*
X185581719Y-39048056D01*
X185633523Y-39137781D01*
X185699727Y-39252450D01*
X185699729Y-39252453D01*
X185699730Y-39252454D01*
X185843406Y-39439697D01*
X185843412Y-39439704D01*
X186010295Y-39606587D01*
X186010301Y-39606592D01*
X186197550Y-39750273D01*
X186328918Y-39826118D01*
X186401943Y-39868280D01*
X186401948Y-39868282D01*
X186401951Y-39868284D01*
X186620007Y-39958606D01*
X186847986Y-40019693D01*
X187081989Y-40050500D01*
X187081996Y-40050500D01*
X187318004Y-40050500D01*
X187318011Y-40050500D01*
X187552014Y-40019693D01*
X187779993Y-39958606D01*
X187998049Y-39868284D01*
X188202450Y-39750273D01*
X188389699Y-39606592D01*
X188556592Y-39439699D01*
X188700273Y-39252450D01*
X188818284Y-39048049D01*
X188908606Y-38829993D01*
X188969693Y-38602014D01*
X189000500Y-38368011D01*
X189000500Y-38131989D01*
X188969693Y-37897986D01*
X188908606Y-37670007D01*
X188818284Y-37451951D01*
X188818282Y-37451948D01*
X188818280Y-37451943D01*
X188776118Y-37378918D01*
X188700273Y-37247550D01*
X188641001Y-37170306D01*
X188556593Y-37060302D01*
X188556587Y-37060295D01*
X188389704Y-36893412D01*
X188389697Y-36893406D01*
X188202454Y-36749730D01*
X188202453Y-36749729D01*
X188202450Y-36749727D01*
X188120957Y-36702677D01*
X187998056Y-36631719D01*
X187998045Y-36631714D01*
X187779993Y-36541394D01*
X187552010Y-36480306D01*
X187318020Y-36449501D01*
X187318017Y-36449500D01*
X187318011Y-36449500D01*
X187081989Y-36449500D01*
X187081983Y-36449500D01*
X187081979Y-36449501D01*
X186847989Y-36480306D01*
X186620006Y-36541394D01*
X186401954Y-36631714D01*
X186401943Y-36631719D01*
X186197545Y-36749730D01*
X186010302Y-36893406D01*
X186010295Y-36893412D01*
X185843412Y-37060295D01*
X185843406Y-37060302D01*
X185699730Y-37247545D01*
X185581719Y-37451943D01*
X185581714Y-37451954D01*
X185491394Y-37670006D01*
X185430306Y-37897989D01*
X185399501Y-38131979D01*
X185399500Y-38131995D01*
X174050307Y-38131995D01*
X174068231Y-38098462D01*
X174199850Y-37780705D01*
X174299690Y-37451578D01*
X174366789Y-37114250D01*
X174400500Y-36771969D01*
X174400500Y-36428031D01*
X174366789Y-36085750D01*
X174299690Y-35748422D01*
X174199850Y-35419295D01*
X174068231Y-35101538D01*
X173906100Y-34798213D01*
X173715019Y-34512240D01*
X173496828Y-34246373D01*
X173496827Y-34246372D01*
X173496823Y-34246367D01*
X173253632Y-34003176D01*
X172987765Y-33784985D01*
X172987751Y-33784974D01*
X172976717Y-33777602D01*
X172931912Y-33723989D01*
X172923205Y-33654664D01*
X172953360Y-33591637D01*
X173012803Y-33554918D01*
X173045608Y-33550500D01*
X223754392Y-33550500D01*
X223786880Y-33560039D01*
G37*
%TD.AperFunction*%
%TD*%
%TA.AperFunction,Conductor*%
%TO.N,+3.3V*%
G36*
X173598444Y-47442268D02*
G01*
X173604638Y-47448300D01*
X174339177Y-49092266D01*
X174339423Y-49101218D01*
X174336768Y-49105312D01*
X174065312Y-49376768D01*
X174057039Y-49380195D01*
X174052267Y-49379177D01*
X173410133Y-49092266D01*
X172408300Y-48644638D01*
X172402145Y-48638135D01*
X172402259Y-48629489D01*
X172747438Y-47793782D01*
X172753761Y-47787447D01*
X173589490Y-47442259D01*
X173598444Y-47442268D01*
G37*
%TD.AperFunction*%
%TD*%
%TA.AperFunction,Conductor*%
%TO.N,/DISABLE1*%
G36*
X193791028Y-50805835D02*
G01*
X193798456Y-50810834D01*
X193800175Y-50819622D01*
X193799706Y-50821290D01*
X193612894Y-51336524D01*
X193606853Y-51343134D01*
X193601895Y-51344236D01*
X193418301Y-51344236D01*
X193410028Y-51340809D01*
X193407302Y-51336524D01*
X193359642Y-51205078D01*
X193220489Y-50821288D01*
X193220890Y-50812344D01*
X193227500Y-50806303D01*
X193229154Y-50805837D01*
X193507780Y-50749469D01*
X193512416Y-50749469D01*
X193791028Y-50805835D01*
G37*
%TD.AperFunction*%
%TD*%
%TA.AperFunction,Conductor*%
%TO.N,/DISABLE1*%
G36*
X191145522Y-55505147D02*
G01*
X191275342Y-55634967D01*
X191278769Y-55643240D01*
X191277667Y-55648198D01*
X191045438Y-56144618D01*
X191038828Y-56150659D01*
X191029882Y-56150258D01*
X191028372Y-56149409D01*
X190791510Y-55992260D01*
X190788229Y-55988979D01*
X190631080Y-55752117D01*
X190629361Y-55743329D01*
X190634361Y-55735900D01*
X190635866Y-55735053D01*
X191132293Y-55502821D01*
X191141237Y-55502421D01*
X191145522Y-55505147D01*
G37*
%TD.AperFunction*%
%TD*%
%TA.AperFunction,Conductor*%
%TO.N,/CPOREF*%
G36*
X195459787Y-42698669D02*
G01*
X195467546Y-42703138D01*
X195469971Y-42710270D01*
X195469971Y-43090605D01*
X195466544Y-43098878D01*
X195460798Y-43102029D01*
X194945894Y-43215927D01*
X194937076Y-43214368D01*
X194931943Y-43207030D01*
X194931899Y-43206823D01*
X194910698Y-43102029D01*
X194875204Y-42926583D01*
X194875204Y-42921945D01*
X194932098Y-42640723D01*
X194937098Y-42633294D01*
X194945080Y-42631442D01*
X195459787Y-42698669D01*
G37*
%TD.AperFunction*%
%TD*%
%TA.AperFunction,Conductor*%
%TO.N,/CPOREF*%
G36*
X198507854Y-38257757D02*
G01*
X198508672Y-38258575D01*
X199494273Y-39346849D01*
X199497287Y-39355282D01*
X199495730Y-39360558D01*
X198703379Y-40731322D01*
X198696272Y-40736770D01*
X198693250Y-40737167D01*
X198306750Y-40737167D01*
X198298477Y-40733740D01*
X198296621Y-40731322D01*
X197504269Y-39360558D01*
X197503095Y-39351681D01*
X197505726Y-39346849D01*
X198491328Y-38258575D01*
X198499421Y-38254743D01*
X198507854Y-38257757D01*
G37*
%TD.AperFunction*%
%TD*%
%TA.AperFunction,Conductor*%
%TO.N,/INTVCC*%
G36*
X205268315Y-58960163D02*
G01*
X205273775Y-58967261D01*
X205273945Y-58967983D01*
X205330530Y-59247680D01*
X205330530Y-59252320D01*
X205273945Y-59532016D01*
X205268945Y-59539445D01*
X205260157Y-59541164D01*
X205259435Y-59540994D01*
X204744422Y-59402331D01*
X204737324Y-59396871D01*
X204735764Y-59391033D01*
X204735764Y-59108966D01*
X204739191Y-59100693D01*
X204744419Y-59097669D01*
X205259435Y-58959005D01*
X205268315Y-58960163D01*
G37*
%TD.AperFunction*%
%TD*%
%TA.AperFunction,Conductor*%
%TO.N,/INTVCC*%
G36*
X216621282Y-67550389D02*
G01*
X217136525Y-67737204D01*
X217143134Y-67743244D01*
X217144236Y-67748202D01*
X217144236Y-67931797D01*
X217140809Y-67940070D01*
X217136524Y-67942796D01*
X216621290Y-68129608D01*
X216612344Y-68129207D01*
X216606303Y-68122597D01*
X216605837Y-68120939D01*
X216549469Y-67842318D01*
X216549469Y-67837680D01*
X216605835Y-67559067D01*
X216610834Y-67551641D01*
X216619622Y-67549922D01*
X216621282Y-67550389D01*
G37*
%TD.AperFunction*%
%TD*%
%TA.AperFunction,Conductor*%
%TO.N,/INTVCC*%
G36*
X197156509Y-61528358D02*
G01*
X197848464Y-61991687D01*
X197853431Y-61999138D01*
X197852585Y-62006295D01*
X197303132Y-63201853D01*
X197296563Y-63207939D01*
X197292501Y-63208667D01*
X197007499Y-63208667D01*
X196999226Y-63205240D01*
X196996868Y-63201853D01*
X196447413Y-62006293D01*
X196447073Y-61997347D01*
X196451533Y-61991689D01*
X197143490Y-61528358D01*
X197152271Y-61526604D01*
X197156509Y-61528358D01*
G37*
%TD.AperFunction*%
%TD*%
%TA.AperFunction,Conductor*%
%TO.N,/INTVCC*%
G36*
X197300757Y-64172228D02*
G01*
X197303125Y-64175638D01*
X197485312Y-64574296D01*
X197485634Y-64583245D01*
X197481198Y-64588869D01*
X197244057Y-64748272D01*
X197235279Y-64750043D01*
X197235210Y-64750030D01*
X196992485Y-64700925D01*
X196956177Y-64693579D01*
X196948749Y-64688580D01*
X196946860Y-64680906D01*
X196998911Y-64179292D01*
X197003174Y-64171418D01*
X197010549Y-64168801D01*
X197292484Y-64168801D01*
X197300757Y-64172228D01*
G37*
%TD.AperFunction*%
%TD*%
%TA.AperFunction,Conductor*%
%TO.N,/INTVCC*%
G36*
X197711104Y-59991690D02*
G01*
X197912625Y-60193211D01*
X197916032Y-60200802D01*
X197983073Y-61349009D01*
X197980134Y-61357468D01*
X197973683Y-61361165D01*
X197156974Y-61524173D01*
X197148190Y-61522431D01*
X197144948Y-61519188D01*
X196683666Y-60827105D01*
X196681929Y-60818320D01*
X196686019Y-60811539D01*
X197695452Y-59990884D01*
X197704032Y-59988325D01*
X197711104Y-59991690D01*
G37*
%TD.AperFunction*%
%TD*%
%TA.AperFunction,Conductor*%
%TO.N,/INTVCC*%
G36*
X220020078Y-66976172D02*
G01*
X220021588Y-66977021D01*
X220258450Y-67134170D01*
X220261731Y-67137451D01*
X220418880Y-67374313D01*
X220420599Y-67383101D01*
X220415599Y-67390530D01*
X220414089Y-67391379D01*
X219917669Y-67623608D01*
X219908723Y-67624009D01*
X219904438Y-67621283D01*
X219774618Y-67491463D01*
X219771191Y-67483190D01*
X219772291Y-67478237D01*
X220004522Y-66981811D01*
X220011132Y-66975771D01*
X220020078Y-66976172D01*
G37*
%TD.AperFunction*%
%TD*%
%TA.AperFunction,Conductor*%
%TO.N,/CH1*%
G36*
X184504344Y-57344116D02*
G01*
X184505193Y-57345626D01*
X184577080Y-57499293D01*
X184696791Y-57755193D01*
X184737422Y-57842046D01*
X184737823Y-57850992D01*
X184735097Y-57855277D01*
X184605277Y-57985097D01*
X184597004Y-57988524D01*
X184592047Y-57987422D01*
X184441428Y-57916961D01*
X184095626Y-57755193D01*
X184089585Y-57748583D01*
X184089986Y-57739637D01*
X184090835Y-57738127D01*
X184247985Y-57501263D01*
X184251263Y-57497985D01*
X184488127Y-57340834D01*
X184496915Y-57339116D01*
X184504344Y-57344116D01*
G37*
%TD.AperFunction*%
%TD*%
%TA.AperFunction,Conductor*%
%TO.N,/CH1*%
G36*
X171705277Y-60964902D02*
G01*
X171835097Y-61094722D01*
X171838524Y-61102995D01*
X171837422Y-61107953D01*
X171605193Y-61604373D01*
X171598583Y-61610414D01*
X171589637Y-61610013D01*
X171588127Y-61609164D01*
X171351265Y-61452015D01*
X171347984Y-61448734D01*
X171190835Y-61211872D01*
X171189116Y-61203084D01*
X171194116Y-61195655D01*
X171195621Y-61194808D01*
X171692048Y-60962576D01*
X171700992Y-60962176D01*
X171705277Y-60964902D01*
G37*
%TD.AperFunction*%
%TD*%
%TA.AperFunction,Conductor*%
%TO.N,/DISABLE2*%
G36*
X205430070Y-56909191D02*
G01*
X205432796Y-56913476D01*
X205619608Y-57428709D01*
X205619207Y-57437655D01*
X205612597Y-57443696D01*
X205610929Y-57444165D01*
X205332320Y-57500530D01*
X205327680Y-57500530D01*
X205049070Y-57444165D01*
X205041641Y-57439165D01*
X205039922Y-57430377D01*
X205040387Y-57428720D01*
X205227204Y-56913476D01*
X205233245Y-56906866D01*
X205238203Y-56905764D01*
X205421797Y-56905764D01*
X205430070Y-56909191D01*
G37*
%TD.AperFunction*%
%TD*%
%TA.AperFunction,Conductor*%
%TO.N,/DISABLE2*%
G36*
X212281898Y-60741678D02*
G01*
X212284931Y-60743866D01*
X212416133Y-60875068D01*
X212419560Y-60883341D01*
X212418962Y-60887033D01*
X211996922Y-62156039D01*
X211991060Y-62162808D01*
X211983549Y-62163824D01*
X211166978Y-62002227D01*
X211159527Y-61997260D01*
X211157772Y-61993021D01*
X210996175Y-61176450D01*
X210997930Y-61167669D01*
X211003957Y-61163078D01*
X212272966Y-60741037D01*
X212281898Y-60741678D01*
G37*
%TD.AperFunction*%
%TD*%
%TA.AperFunction,Conductor*%
%TO.N,/DISABLE2*%
G36*
X203706432Y-50605835D02*
G01*
X203713860Y-50610834D01*
X203715579Y-50619622D01*
X203715110Y-50621290D01*
X203528298Y-51136524D01*
X203522257Y-51143134D01*
X203517299Y-51144236D01*
X203333705Y-51144236D01*
X203325432Y-51140809D01*
X203322706Y-51136524D01*
X203275046Y-51005078D01*
X203135893Y-50621288D01*
X203136294Y-50612344D01*
X203142904Y-50606303D01*
X203144558Y-50605837D01*
X203423184Y-50549469D01*
X203427820Y-50549469D01*
X203706432Y-50605835D01*
G37*
%TD.AperFunction*%
%TD*%
%TA.AperFunction,Conductor*%
%TO.N,/VALID1*%
G36*
X186355930Y-57590742D02*
G01*
X186363358Y-57595741D01*
X186365077Y-57604529D01*
X186364608Y-57606197D01*
X186177796Y-58121431D01*
X186171755Y-58128041D01*
X186166797Y-58129143D01*
X185983203Y-58129143D01*
X185974930Y-58125716D01*
X185972204Y-58121431D01*
X185924544Y-57989985D01*
X185785391Y-57606195D01*
X185785792Y-57597251D01*
X185792402Y-57591210D01*
X185794056Y-57590744D01*
X186072682Y-57534376D01*
X186077318Y-57534376D01*
X186355930Y-57590742D01*
G37*
%TD.AperFunction*%
%TD*%
%TA.AperFunction,Conductor*%
%TO.N,/VALID1*%
G36*
X175855277Y-60964902D02*
G01*
X175985097Y-61094722D01*
X175988524Y-61102995D01*
X175987422Y-61107953D01*
X175755193Y-61604373D01*
X175748583Y-61610414D01*
X175739637Y-61610013D01*
X175738127Y-61609164D01*
X175501265Y-61452015D01*
X175497984Y-61448734D01*
X175340835Y-61211872D01*
X175339116Y-61203084D01*
X175344116Y-61195655D01*
X175345621Y-61194808D01*
X175842048Y-60962576D01*
X175850992Y-60962176D01*
X175855277Y-60964902D01*
G37*
%TD.AperFunction*%
%TD*%
%TA.AperFunction,Conductor*%
%TO.N,/CH2*%
G36*
X213030930Y-57655835D02*
G01*
X213038358Y-57660834D01*
X213040077Y-57669622D01*
X213039608Y-57671290D01*
X212852796Y-58186524D01*
X212846755Y-58193134D01*
X212841797Y-58194236D01*
X212658203Y-58194236D01*
X212649930Y-58190809D01*
X212647204Y-58186524D01*
X212599544Y-58055078D01*
X212460391Y-57671288D01*
X212460792Y-57662344D01*
X212467402Y-57656303D01*
X212469056Y-57655837D01*
X212747682Y-57599469D01*
X212752318Y-57599469D01*
X213030930Y-57655835D01*
G37*
%TD.AperFunction*%
%TD*%
%TA.AperFunction,Conductor*%
%TO.N,/CH2*%
G36*
X225157949Y-61112576D02*
G01*
X225468713Y-61257953D01*
X225654373Y-61344806D01*
X225660414Y-61351416D01*
X225660013Y-61360362D01*
X225659164Y-61361872D01*
X225502015Y-61598734D01*
X225498734Y-61602015D01*
X225261872Y-61759164D01*
X225253084Y-61760883D01*
X225245655Y-61755883D01*
X225244806Y-61754373D01*
X225171997Y-61598734D01*
X225012576Y-61257951D01*
X225012176Y-61249007D01*
X225014900Y-61244724D01*
X225144723Y-61114901D01*
X225152995Y-61111475D01*
X225157949Y-61112576D01*
G37*
%TD.AperFunction*%
%TD*%
%TA.AperFunction,Conductor*%
%TO.N,/VALID2*%
G36*
X210926321Y-57256824D02*
G01*
X211355572Y-57535502D01*
X211360645Y-57542881D01*
X211359014Y-57551686D01*
X211357474Y-57553588D01*
X211228512Y-57682550D01*
X211223204Y-57685595D01*
X210820521Y-57791093D01*
X210811650Y-57789875D01*
X210806238Y-57782740D01*
X210806085Y-57782079D01*
X210786096Y-57682550D01*
X210750254Y-57504078D01*
X210751985Y-57495293D01*
X210752018Y-57495243D01*
X210910247Y-57260105D01*
X210917708Y-57255155D01*
X210926321Y-57256824D01*
G37*
%TD.AperFunction*%
%TD*%
%TA.AperFunction,Conductor*%
%TO.N,/VALID2*%
G36*
X221007949Y-61112576D02*
G01*
X221318713Y-61257953D01*
X221504373Y-61344806D01*
X221510414Y-61351416D01*
X221510013Y-61360362D01*
X221509164Y-61361872D01*
X221352015Y-61598734D01*
X221348734Y-61602015D01*
X221111872Y-61759164D01*
X221103084Y-61760883D01*
X221095655Y-61755883D01*
X221094806Y-61754373D01*
X221021997Y-61598734D01*
X220862576Y-61257951D01*
X220862176Y-61249007D01*
X220864900Y-61244724D01*
X220994723Y-61114901D01*
X221002995Y-61111475D01*
X221007949Y-61112576D01*
G37*
%TD.AperFunction*%
%TD*%
%TA.AperFunction,Conductor*%
%TO.N,/FAULT2*%
G36*
X213587889Y-60334036D02*
G01*
X213589265Y-60335692D01*
X214400059Y-61518010D01*
X214401912Y-61526771D01*
X214397027Y-61534276D01*
X214396921Y-61534348D01*
X213707211Y-61996349D01*
X213698431Y-61998106D01*
X213694198Y-61996355D01*
X213001275Y-61533129D01*
X212996301Y-61525682D01*
X212996992Y-61518867D01*
X212997352Y-61518010D01*
X213438991Y-60467613D01*
X213441498Y-60463881D01*
X213571344Y-60334035D01*
X213579616Y-60330609D01*
X213587889Y-60334036D01*
G37*
%TD.AperFunction*%
%TD*%
%TA.AperFunction,Conductor*%
%TO.N,/SHDNOUT*%
G36*
X204399238Y-55108020D02*
G01*
X204401755Y-55111770D01*
X204595725Y-55574464D01*
X204595763Y-55583418D01*
X204591467Y-55588694D01*
X204357220Y-55746324D01*
X204348443Y-55748100D01*
X204344182Y-55746341D01*
X204108727Y-55588794D01*
X204103756Y-55581345D01*
X204104532Y-55574340D01*
X204252714Y-55239111D01*
X204255137Y-55235575D01*
X204382693Y-55108019D01*
X204390965Y-55104593D01*
X204399238Y-55108020D01*
G37*
%TD.AperFunction*%
%TD*%
%TA.AperFunction,Conductor*%
%TO.N,/V1*%
G36*
X191619485Y-45329286D02*
G01*
X191619876Y-45329916D01*
X191885996Y-45792135D01*
X191887154Y-45801015D01*
X191884129Y-45806246D01*
X191684678Y-46005697D01*
X191676405Y-46009124D01*
X191670567Y-46007564D01*
X191208348Y-45741444D01*
X191202888Y-45734346D01*
X191204046Y-45725466D01*
X191204426Y-45724852D01*
X191362201Y-45487047D01*
X191365479Y-45483769D01*
X191603269Y-45326004D01*
X191612056Y-45324286D01*
X191619485Y-45329286D01*
G37*
%TD.AperFunction*%
%TD*%
%TA.AperFunction,Conductor*%
%TO.N,/UVR2*%
G36*
X217226501Y-46109728D02*
G01*
X217232542Y-46116338D01*
X217233011Y-46118006D01*
X217289376Y-46396616D01*
X217289376Y-46401256D01*
X217233011Y-46679865D01*
X217228011Y-46687294D01*
X217219223Y-46689013D01*
X217217555Y-46688544D01*
X216702322Y-46501732D01*
X216695712Y-46495691D01*
X216694610Y-46490733D01*
X216694610Y-46307138D01*
X216698037Y-46298865D01*
X216702319Y-46296140D01*
X217217557Y-46109327D01*
X217226501Y-46109728D01*
G37*
%TD.AperFunction*%
%TD*%
%TA.AperFunction,Conductor*%
%TO.N,/UVR2*%
G36*
X215760315Y-46664824D02*
G01*
X215760877Y-46665175D01*
X215996634Y-46821591D01*
X216001633Y-46829017D01*
X216001646Y-46829087D01*
X216001647Y-46829088D01*
X216056589Y-47109354D01*
X216054818Y-47118132D01*
X216049044Y-47122623D01*
X215619995Y-47275906D01*
X215611052Y-47275462D01*
X215607786Y-47273161D01*
X215477977Y-47143352D01*
X215474550Y-47135079D01*
X215476141Y-47129188D01*
X215479968Y-47122623D01*
X215744315Y-46669041D01*
X215751442Y-46663619D01*
X215760315Y-46664824D01*
G37*
%TD.AperFunction*%
%TD*%
%TA.AperFunction,Conductor*%
%TO.N,/UVR2*%
G36*
X216355277Y-46339902D02*
G01*
X216485097Y-46469722D01*
X216488524Y-46477995D01*
X216487422Y-46482953D01*
X216255193Y-46979373D01*
X216248583Y-46985414D01*
X216239637Y-46985013D01*
X216238127Y-46984164D01*
X216001265Y-46827015D01*
X215997984Y-46823734D01*
X215840835Y-46586872D01*
X215839116Y-46578084D01*
X215844116Y-46570655D01*
X215845621Y-46569808D01*
X216342048Y-46337576D01*
X216350992Y-46337176D01*
X216355277Y-46339902D01*
G37*
%TD.AperFunction*%
%TD*%
%TA.AperFunction,Conductor*%
%TO.N,/UVR2*%
G36*
X215903707Y-46720556D02*
G01*
X216019571Y-46836420D01*
X216022998Y-46844693D01*
X216019571Y-46852966D01*
X216012331Y-46856347D01*
X215740721Y-46880427D01*
X215732178Y-46877744D01*
X215728034Y-46869806D01*
X215730717Y-46861263D01*
X215731856Y-46860081D01*
X215887617Y-46720124D01*
X215896058Y-46717146D01*
X215903707Y-46720556D01*
G37*
%TD.AperFunction*%
%TD*%
%TA.AperFunction,Conductor*%
%TO.N,/V2*%
G36*
X205353330Y-45332954D02*
G01*
X205354840Y-45333803D01*
X205591702Y-45490952D01*
X205594983Y-45494233D01*
X205752132Y-45731095D01*
X205753851Y-45739883D01*
X205748851Y-45747312D01*
X205747341Y-45748161D01*
X205250921Y-45980390D01*
X205241975Y-45980791D01*
X205237690Y-45978065D01*
X205107870Y-45848245D01*
X205104443Y-45839972D01*
X205105543Y-45835019D01*
X205337774Y-45338593D01*
X205344384Y-45332553D01*
X205353330Y-45332954D01*
G37*
%TD.AperFunction*%
%TD*%
%TA.AperFunction,Conductor*%
%TO.N,+3.3V*%
G36*
X220308266Y-47737276D02*
G01*
X221142765Y-48572756D01*
X221146187Y-48581031D01*
X221143781Y-48588131D01*
X220503512Y-49425407D01*
X220495764Y-49429897D01*
X220494218Y-49430000D01*
X220105782Y-49430000D01*
X220097509Y-49426573D01*
X220096488Y-49425407D01*
X219456218Y-48588131D01*
X219453915Y-48579478D01*
X219457232Y-48572758D01*
X220291723Y-47737286D01*
X220299993Y-47733855D01*
X220308266Y-47737276D01*
G37*
%TD.AperFunction*%
%TD*%
%TA.AperFunction,Conductor*%
%TO.N,+3.3V*%
G36*
X221158194Y-46886748D02*
G01*
X221995738Y-47576490D01*
X221999946Y-47584395D01*
X222000000Y-47585522D01*
X222000000Y-47874477D01*
X221996573Y-47882750D01*
X221995738Y-47883509D01*
X221158194Y-48573251D01*
X221149629Y-48575865D01*
X221142488Y-48572497D01*
X220307286Y-47738276D01*
X220303855Y-47730007D01*
X220307276Y-47721733D01*
X221142490Y-46887501D01*
X221150763Y-46884080D01*
X221158194Y-46886748D01*
G37*
%TD.AperFunction*%
%TD*%
%TA.AperFunction,Conductor*%
%TO.N,+3.3V*%
G36*
X223307511Y-46887502D02*
G01*
X224142712Y-47721722D01*
X224146144Y-47729993D01*
X224142722Y-47738268D01*
X224142712Y-47738278D01*
X223307511Y-48572497D01*
X223299236Y-48575919D01*
X223291805Y-48573251D01*
X222454262Y-47883509D01*
X222450054Y-47875604D01*
X222450000Y-47874477D01*
X222450000Y-47585522D01*
X222453427Y-47577249D01*
X222454262Y-47576490D01*
X223291806Y-46886747D01*
X223300370Y-46884134D01*
X223307511Y-46887502D01*
G37*
%TD.AperFunction*%
%TD*%
%TA.AperFunction,Conductor*%
%TO.N,+3.3V*%
G36*
X173608131Y-46946218D02*
G01*
X174445407Y-47586488D01*
X174449897Y-47594235D01*
X174450000Y-47595781D01*
X174450000Y-47984218D01*
X174446573Y-47992491D01*
X174445407Y-47993512D01*
X173608131Y-48633781D01*
X173599478Y-48636084D01*
X173592756Y-48632765D01*
X172943446Y-47984218D01*
X172757286Y-47798276D01*
X172753855Y-47790007D01*
X172757276Y-47781733D01*
X173592758Y-46947232D01*
X173601031Y-46943812D01*
X173608131Y-46946218D01*
G37*
%TD.AperFunction*%
%TD*%
%TA.AperFunction,Conductor*%
%TO.N,+3.3V*%
G36*
X175757243Y-46947234D02*
G01*
X176592712Y-47781722D01*
X176596144Y-47789993D01*
X176592722Y-47798268D01*
X176592712Y-47798278D01*
X175757243Y-48632765D01*
X175748968Y-48636187D01*
X175741868Y-48633781D01*
X174904593Y-47993512D01*
X174900103Y-47985764D01*
X174900000Y-47984218D01*
X174900000Y-47595781D01*
X174903427Y-47587508D01*
X174904586Y-47586492D01*
X175741869Y-46946217D01*
X175750521Y-46943915D01*
X175757243Y-46947234D01*
G37*
%TD.AperFunction*%
%TD*%
%TA.AperFunction,Conductor*%
%TO.N,/UVR1*%
G36*
X179720282Y-46278489D02*
G01*
X180235525Y-46465304D01*
X180242134Y-46471344D01*
X180243236Y-46476302D01*
X180243236Y-46659897D01*
X180239809Y-46668170D01*
X180235524Y-46670896D01*
X179720290Y-46857708D01*
X179711344Y-46857307D01*
X179705303Y-46850697D01*
X179704837Y-46849039D01*
X179648469Y-46570418D01*
X179648469Y-46565780D01*
X179704835Y-46287167D01*
X179709834Y-46279741D01*
X179718622Y-46278022D01*
X179720282Y-46278489D01*
G37*
%TD.AperFunction*%
%TD*%
%TA.AperFunction,Conductor*%
%TO.N,/UVR1*%
G36*
X180536114Y-46470321D02*
G01*
X181046618Y-46553816D01*
X181054228Y-46558533D01*
X181056275Y-46567250D01*
X181056211Y-46567607D01*
X181001936Y-46845209D01*
X180996985Y-46852671D01*
X180996935Y-46852704D01*
X180760376Y-47010137D01*
X180751590Y-47011868D01*
X180744154Y-47006879D01*
X180744103Y-47006802D01*
X180524440Y-46671018D01*
X180522531Y-46664613D01*
X180522531Y-46481869D01*
X180525958Y-46473596D01*
X180534231Y-46470169D01*
X180536114Y-46470321D01*
G37*
%TD.AperFunction*%
%TD*%
%TA.AperFunction,Conductor*%
%TO.N,/GATE1*%
G36*
X191588509Y-38120839D02*
G01*
X191588514Y-38120845D01*
X192232284Y-39088194D01*
X192234015Y-39096980D01*
X192230817Y-39102949D01*
X192099802Y-39233964D01*
X192091529Y-39237391D01*
X192091045Y-39237381D01*
X190877078Y-39187114D01*
X190868954Y-39183348D01*
X190865872Y-39174940D01*
X190866082Y-39173166D01*
X190998350Y-38504062D01*
X191003314Y-38496614D01*
X191572288Y-38117589D01*
X191581073Y-38115855D01*
X191588509Y-38120839D01*
G37*
%TD.AperFunction*%
%TD*%
%TA.AperFunction,Conductor*%
%TO.N,/GATE2*%
G36*
X205993017Y-38497773D02*
G01*
X206000468Y-38502739D01*
X206002226Y-38506982D01*
X206134591Y-39176578D01*
X206132833Y-39185359D01*
X206126963Y-39189895D01*
X205097204Y-39548733D01*
X205088264Y-39548220D01*
X205085081Y-39545958D01*
X204954041Y-39414918D01*
X204950614Y-39406645D01*
X204951265Y-39402800D01*
X205310105Y-38373034D01*
X205316062Y-38366351D01*
X205323421Y-38365408D01*
X205993017Y-38497773D01*
G37*
%TD.AperFunction*%
%TD*%
%TA.AperFunction,Conductor*%
%TO.N,/SOURCE2*%
G36*
X204145359Y-38367166D02*
G01*
X204149894Y-38373035D01*
X204193974Y-38499531D01*
X204508733Y-39402795D01*
X204508220Y-39411735D01*
X204505958Y-39414918D01*
X204374918Y-39545958D01*
X204366645Y-39549385D01*
X204362795Y-39548733D01*
X203333036Y-39189895D01*
X203326351Y-39183937D01*
X203325408Y-39176578D01*
X203457773Y-38506982D01*
X203462739Y-38499531D01*
X203466982Y-38497773D01*
X204136578Y-38365408D01*
X204145359Y-38367166D01*
G37*
%TD.AperFunction*%
%TD*%
%TA.AperFunction,Conductor*%
%TO.N,/SOURCE1*%
G36*
X193544016Y-38501690D02*
G01*
X193544041Y-38501707D01*
X194111280Y-38881698D01*
X194116246Y-38889149D01*
X194114488Y-38897930D01*
X194113786Y-38898872D01*
X193353509Y-39818748D01*
X193345597Y-39822942D01*
X193344491Y-39822994D01*
X193159136Y-39822994D01*
X193150863Y-39819567D01*
X193147785Y-39814131D01*
X192856424Y-38648462D01*
X192857743Y-38639605D01*
X192864938Y-38634274D01*
X192865460Y-38634156D01*
X193535231Y-38499955D01*
X193544016Y-38501690D01*
G37*
%TD.AperFunction*%
%TD*%
%TA.AperFunction,Conductor*%
%TO.N,/IO_CONN/CHL1*%
G36*
X175758897Y-56260600D02*
G01*
X176184717Y-56420604D01*
X176188874Y-56423282D01*
X176317014Y-56551422D01*
X176320441Y-56559695D01*
X176317014Y-56567968D01*
X176313962Y-56570165D01*
X175863364Y-56794856D01*
X175854431Y-56795482D01*
X175848436Y-56790918D01*
X175689518Y-56554756D01*
X175687742Y-56545980D01*
X175743318Y-56269248D01*
X175748307Y-56261814D01*
X175757093Y-56260083D01*
X175758897Y-56260600D01*
G37*
%TD.AperFunction*%
%TD*%
%TA.AperFunction,Conductor*%
%TO.N,/IO_CONN/FTL1*%
G36*
X195525000Y-49200000D02*
G01*
X195525000Y-49400000D01*
X195800000Y-49575000D01*
X196551000Y-49300000D01*
X195800000Y-49025000D01*
X195525000Y-49200000D01*
G37*
%TD.AperFunction*%
%TD*%
%TA.AperFunction,Conductor*%
%TO.N,/IO_CONN/DIS1_Ctrl*%
G36*
X195525000Y-50000000D02*
G01*
X195525000Y-50200000D01*
X195800000Y-50375000D01*
X196551000Y-50100000D01*
X195800000Y-49825000D01*
X195525000Y-50000000D01*
G37*
%TD.AperFunction*%
%TD*%
%TA.AperFunction,Conductor*%
%TO.N,/IO_CONN/CHL1*%
G36*
X195525000Y-47600000D02*
G01*
X195525000Y-47800000D01*
X195800000Y-47975000D01*
X196551000Y-47700000D01*
X195800000Y-47425000D01*
X195525000Y-47600000D01*
G37*
%TD.AperFunction*%
%TD*%
%TA.AperFunction,Conductor*%
%TO.N,/CPOREF*%
G36*
X195525000Y-42700000D02*
G01*
X195525000Y-43100000D01*
X195800000Y-43175000D01*
X196551000Y-42900000D01*
X195800000Y-42625000D01*
X195525000Y-42700000D01*
G37*
%TD.AperFunction*%
%TD*%
%TA.AperFunction,Conductor*%
%TO.N,/CPOREF*%
G36*
X197575000Y-43100000D02*
G01*
X197575000Y-42700000D01*
X197300000Y-42625000D01*
X196549000Y-42900000D01*
X197300000Y-43175000D01*
X197575000Y-43100000D01*
G37*
%TD.AperFunction*%
%TD*%
%TA.AperFunction,Conductor*%
%TO.N,/IO_CONN/VDL2*%
G36*
X201375000Y-48600000D02*
G01*
X201375000Y-48400000D01*
X201100000Y-48225000D01*
X200349000Y-48500000D01*
X201100000Y-48775000D01*
X201375000Y-48600000D01*
G37*
%TD.AperFunction*%
%TD*%
%TA.AperFunction,Conductor*%
%TO.N,/IO_CONN/FTL2*%
G36*
X201375000Y-49400000D02*
G01*
X201375000Y-49200000D01*
X201100000Y-49025000D01*
X200349000Y-49300000D01*
X201100000Y-49575000D01*
X201375000Y-49400000D01*
G37*
%TD.AperFunction*%
%TD*%
%TA.AperFunction,Conductor*%
%TO.N,/SHDNOUT*%
G36*
X201375000Y-51000000D02*
G01*
X201375000Y-50800000D01*
X201100000Y-50625000D01*
X200349000Y-50900000D01*
X201100000Y-51175000D01*
X201375000Y-51000000D01*
G37*
%TD.AperFunction*%
%TD*%
%TA.AperFunction,Conductor*%
%TO.N,/V1*%
G36*
X195525000Y-45950000D02*
G01*
X195525000Y-46250000D01*
X195800000Y-46375000D01*
X196551000Y-46100000D01*
X195800000Y-45825000D01*
X195525000Y-45950000D01*
G37*
%TD.AperFunction*%
%TD*%
%TA.AperFunction,Conductor*%
%TO.N,/V2*%
G36*
X201375000Y-46200000D02*
G01*
X201375000Y-46000000D01*
X201100000Y-45825000D01*
X200349000Y-46100000D01*
X201100000Y-46375000D01*
X201375000Y-46200000D01*
G37*
%TD.AperFunction*%
%TD*%
%TA.AperFunction,Conductor*%
%TO.N,+3.3V*%
G36*
X201375000Y-47100000D02*
G01*
X201375000Y-46700000D01*
X201100000Y-46625000D01*
X200349000Y-46900000D01*
X201100000Y-47175000D01*
X201375000Y-47100000D01*
G37*
%TD.AperFunction*%
%TD*%
%TA.AperFunction,Conductor*%
%TO.N,+3.3V*%
G36*
X197575000Y-47100000D02*
G01*
X197575000Y-46700000D01*
X197300000Y-46625000D01*
X196549000Y-46900000D01*
X197300000Y-47175000D01*
X197575000Y-47100000D01*
G37*
%TD.AperFunction*%
%TD*%
%TA.AperFunction,Conductor*%
%TO.N,+3.3V*%
G36*
X199325000Y-46700000D02*
G01*
X199325000Y-47100000D01*
X199600000Y-47175000D01*
X200351000Y-46900000D01*
X199600000Y-46625000D01*
X199325000Y-46700000D01*
G37*
%TD.AperFunction*%
%TD*%
%TA.AperFunction,Conductor*%
%TO.N,+3.3V*%
G36*
X195525000Y-46700000D02*
G01*
X195525000Y-47100000D01*
X195800000Y-47175000D01*
X196551000Y-46900000D01*
X195800000Y-46625000D01*
X195525000Y-46700000D01*
G37*
%TD.AperFunction*%
%TD*%
%TA.AperFunction,Conductor*%
%TO.N,/SENSE1*%
G36*
X197575000Y-43800000D02*
G01*
X197575000Y-43600000D01*
X197300000Y-43425000D01*
X196549000Y-43700000D01*
X197300000Y-43975000D01*
X197575000Y-43800000D01*
G37*
%TD.AperFunction*%
%TD*%
%TA.AperFunction,Conductor*%
%TO.N,/SENSE2*%
G36*
X199325000Y-43600000D02*
G01*
X199325000Y-43800000D01*
X199600000Y-43975000D01*
X200351000Y-43700000D01*
X199600000Y-43425000D01*
X199325000Y-43600000D01*
G37*
%TD.AperFunction*%
%TD*%
%TA.AperFunction,Conductor*%
%TO.N,/GATE1*%
G36*
X197575000Y-45400000D02*
G01*
X197575000Y-45200000D01*
X197300000Y-45025000D01*
X196549000Y-45300000D01*
X197300000Y-45575000D01*
X197575000Y-45400000D01*
G37*
%TD.AperFunction*%
%TD*%
%TA.AperFunction,Conductor*%
%TO.N,/GATE2*%
G36*
X199325000Y-45200000D02*
G01*
X199325000Y-45400000D01*
X199600000Y-45575000D01*
X200351000Y-45300000D01*
X199600000Y-45025000D01*
X199325000Y-45200000D01*
G37*
%TD.AperFunction*%
%TD*%
%TA.AperFunction,Conductor*%
%TO.N,/GATE2*%
G36*
X201423743Y-45317677D02*
G01*
X201282323Y-45176257D01*
X201100000Y-45025000D01*
X200349293Y-45300707D01*
X201100000Y-45535908D01*
X201423743Y-45317677D01*
G37*
%TD.AperFunction*%
%TD*%
%TA.AperFunction,Conductor*%
%TO.N,/SOURCE2*%
G36*
X201423743Y-44517677D02*
G01*
X201282323Y-44376257D01*
X201100000Y-44225000D01*
X200349293Y-44500707D01*
X201100000Y-44735908D01*
X201423743Y-44517677D01*
G37*
%TD.AperFunction*%
%TD*%
%TA.AperFunction,Conductor*%
%TO.N,/SOURCE2*%
G36*
X199325000Y-44400000D02*
G01*
X199325000Y-44600000D01*
X199600000Y-44775000D01*
X200351000Y-44500000D01*
X199600000Y-44225000D01*
X199325000Y-44400000D01*
G37*
%TD.AperFunction*%
%TD*%
%TA.AperFunction,Conductor*%
%TO.N,/SOURCE1*%
G36*
X197575000Y-44600000D02*
G01*
X197575000Y-44400000D01*
X197300000Y-44225000D01*
X196549000Y-44500000D01*
X197300000Y-44775000D01*
X197575000Y-44600000D01*
G37*
%TD.AperFunction*%
%TD*%
%TA.AperFunction,Conductor*%
%TO.N,/SOURCE1*%
G36*
X195525000Y-44400000D02*
G01*
X195525000Y-44600000D01*
X195800000Y-44775000D01*
X196551000Y-44500000D01*
X195800000Y-44225000D01*
X195525000Y-44400000D01*
G37*
%TD.AperFunction*%
%TD*%
%TA.AperFunction,Conductor*%
%TO.N,/IO_CONN/CHL2*%
G36*
X201375000Y-47800000D02*
G01*
X201375000Y-47600000D01*
X201100000Y-47425000D01*
X200349000Y-47700000D01*
X201100000Y-47975000D01*
X201375000Y-47800000D01*
G37*
%TD.AperFunction*%
%TD*%
%TA.AperFunction,Conductor*%
%TO.N,/OUT2*%
G36*
X199325000Y-42700000D02*
G01*
X199325000Y-43100000D01*
X199600000Y-43175000D01*
X200351000Y-42900000D01*
X199600000Y-42625000D01*
X199325000Y-42700000D01*
G37*
%TD.AperFunction*%
%TD*%
%TA.AperFunction,Conductor*%
%TO.N,/IO_CONN/DIS2_Ctrl*%
G36*
X201375000Y-50049000D02*
G01*
X201375000Y-49849000D01*
X201100000Y-49825000D01*
X200349000Y-50100000D01*
X201100000Y-50267434D01*
X201375000Y-50049000D01*
G37*
%TD.AperFunction*%
%TD*%
%TA.AperFunction,Conductor*%
%TO.N,/IO_CONN/VDL1*%
G36*
X195525000Y-48400000D02*
G01*
X195525000Y-48600000D01*
X195800000Y-48775000D01*
X196551000Y-48500000D01*
X195800000Y-48225000D01*
X195525000Y-48400000D01*
G37*
%TD.AperFunction*%
%TD*%
M02*
