%TF.GenerationSoftware,KiCad,Pcbnew,9.0.6*%
%TF.CreationDate,2026-01-07T00:41:00-06:00*%
%TF.ProjectId,LVMuxPCB,4c564d75-7850-4434-922e-6b696361645f,rev?*%
%TF.SameCoordinates,Original*%
%TF.FileFunction,Copper,L1,Top*%
%TF.FilePolarity,Positive*%
%FSLAX46Y46*%
G04 Gerber Fmt 4.6, Leading zero omitted, Abs format (unit mm)*
G04 Created by KiCad (PCBNEW 9.0.6) date 2026-01-07 00:41:00*
%MOMM*%
%LPD*%
G01*
G04 APERTURE LIST*
G04 Aperture macros list*
%AMRoundRect*
0 Rectangle with rounded corners*
0 $1 Rounding radius*
0 $2 $3 $4 $5 $6 $7 $8 $9 X,Y pos of 4 corners*
0 Add a 4 corners polygon primitive as box body*
4,1,4,$2,$3,$4,$5,$6,$7,$8,$9,$2,$3,0*
0 Add four circle primitives for the rounded corners*
1,1,$1+$1,$2,$3*
1,1,$1+$1,$4,$5*
1,1,$1+$1,$6,$7*
1,1,$1+$1,$8,$9*
0 Add four rect primitives between the rounded corners*
20,1,$1+$1,$2,$3,$4,$5,0*
20,1,$1+$1,$4,$5,$6,$7,0*
20,1,$1+$1,$6,$7,$8,$9,0*
20,1,$1+$1,$8,$9,$2,$3,0*%
G04 Aperture macros list end*
%TA.AperFunction,ComponentPad*%
%ADD10C,1.700000*%
%TD*%
%TA.AperFunction,ComponentPad*%
%ADD11R,1.700000X1.700000*%
%TD*%
%TA.AperFunction,SMDPad,CuDef*%
%ADD12RoundRect,0.200000X-0.275000X0.200000X-0.275000X-0.200000X0.275000X-0.200000X0.275000X0.200000X0*%
%TD*%
%TA.AperFunction,SMDPad,CuDef*%
%ADD13RoundRect,0.218750X0.218750X0.256250X-0.218750X0.256250X-0.218750X-0.256250X0.218750X-0.256250X0*%
%TD*%
%TA.AperFunction,SMDPad,CuDef*%
%ADD14RoundRect,0.218750X-0.218750X-0.256250X0.218750X-0.256250X0.218750X0.256250X-0.218750X0.256250X0*%
%TD*%
%TA.AperFunction,SMDPad,CuDef*%
%ADD15RoundRect,0.200000X0.275000X-0.200000X0.275000X0.200000X-0.275000X0.200000X-0.275000X-0.200000X0*%
%TD*%
%TA.AperFunction,SMDPad,CuDef*%
%ADD16RoundRect,0.225000X-0.250000X0.225000X-0.250000X-0.225000X0.250000X-0.225000X0.250000X0.225000X0*%
%TD*%
%TA.AperFunction,SMDPad,CuDef*%
%ADD17RoundRect,0.200000X0.200000X0.275000X-0.200000X0.275000X-0.200000X-0.275000X0.200000X-0.275000X0*%
%TD*%
%TA.AperFunction,SMDPad,CuDef*%
%ADD18R,0.600000X1.300000*%
%TD*%
%TA.AperFunction,ComponentPad*%
%ADD19C,3.600000*%
%TD*%
%TA.AperFunction,ConnectorPad*%
%ADD20C,6.400000*%
%TD*%
%TA.AperFunction,SMDPad,CuDef*%
%ADD21C,2.000000*%
%TD*%
%TA.AperFunction,SMDPad,CuDef*%
%ADD22RoundRect,0.225000X-0.225000X-0.250000X0.225000X-0.250000X0.225000X0.250000X-0.225000X0.250000X0*%
%TD*%
%TA.AperFunction,SMDPad,CuDef*%
%ADD23RoundRect,0.200000X-0.200000X-0.275000X0.200000X-0.275000X0.200000X0.275000X-0.200000X0.275000X0*%
%TD*%
%TA.AperFunction,SMDPad,CuDef*%
%ADD24RoundRect,0.150000X0.587500X0.150000X-0.587500X0.150000X-0.587500X-0.150000X0.587500X-0.150000X0*%
%TD*%
%TA.AperFunction,SMDPad,CuDef*%
%ADD25C,1.000000*%
%TD*%
%TA.AperFunction,ComponentPad*%
%ADD26C,1.400000*%
%TD*%
%TA.AperFunction,ComponentPad*%
%ADD27C,3.000000*%
%TD*%
%TA.AperFunction,SMDPad,CuDef*%
%ADD28R,1.651000X0.431800*%
%TD*%
%TA.AperFunction,SMDPad,CuDef*%
%ADD29RoundRect,0.225000X0.225000X0.250000X-0.225000X0.250000X-0.225000X-0.250000X0.225000X-0.250000X0*%
%TD*%
%TA.AperFunction,ViaPad*%
%ADD30C,0.600000*%
%TD*%
%TA.AperFunction,Conductor*%
%ADD31C,0.400000*%
%TD*%
%TA.AperFunction,Conductor*%
%ADD32C,0.200000*%
%TD*%
%TA.AperFunction,Conductor*%
%ADD33C,0.300000*%
%TD*%
%TA.AperFunction,Conductor*%
%ADD34C,0.100000*%
%TD*%
G04 APERTURE END LIST*
D10*
%TO.P,JP3,3,B*%
%TO.N,/FAULT1*%
X183250000Y-62200000D03*
%TO.P,JP3,2,C*%
%TO.N,/DISABLE1*%
X185790000Y-62200000D03*
D11*
%TO.P,JP3,1,A*%
%TO.N,GND*%
X188330000Y-62200000D03*
%TD*%
D12*
%TO.P,R44,1*%
%TO.N,/INTVCC*%
X220350000Y-66425000D03*
%TO.P,R44,2*%
%TO.N,Net-(Q10-D)*%
X220350000Y-68075000D03*
%TD*%
D13*
%TO.P,D3,1,K*%
%TO.N,GND*%
X215500000Y-58300000D03*
%TO.P,D3,2,A*%
%TO.N,Net-(D3-A)*%
X213925000Y-58300000D03*
%TD*%
D14*
%TO.P,D6,1,K*%
%TO.N,GND*%
X220482500Y-58137500D03*
%TO.P,D6,2,A*%
%TO.N,Net-(D6-A)*%
X222057500Y-58137500D03*
%TD*%
D15*
%TO.P,R30,1*%
%TO.N,/INTVCC*%
X211850000Y-59250000D03*
%TO.P,R30,2*%
%TO.N,/CH2*%
X211850000Y-57600000D03*
%TD*%
D12*
%TO.P,R11,1*%
%TO.N,/UVR2*%
X212350000Y-48000000D03*
%TO.P,R11,2*%
%TO.N,GND*%
X212350000Y-49650000D03*
%TD*%
D16*
%TO.P,C3,1*%
%TO.N,GND*%
X192400000Y-41200000D03*
%TO.P,C3,2*%
%TO.N,/CPOREF*%
X192400000Y-42750000D03*
%TD*%
D12*
%TO.P,R26,1*%
%TO.N,Net-(Q10-D)*%
X214584999Y-66442499D03*
%TO.P,R26,2*%
%TO.N,Net-(Q9-G)*%
X214584999Y-68092499D03*
%TD*%
D17*
%TO.P,R15,1*%
%TO.N,/UVR1*%
X189417800Y-46399999D03*
%TO.P,R15,2*%
%TO.N,/UVF1*%
X187767800Y-46399999D03*
%TD*%
D18*
%TO.P,Q4,1,D*%
%TO.N,/IO_CONN/CHL1*%
X181766000Y-54658960D03*
%TO.P,Q4,2,G*%
%TO.N,/CH1*%
X183666000Y-54658960D03*
%TO.P,Q4,3,S*%
%TO.N,+3.3V*%
X182716000Y-52558960D03*
%TD*%
D12*
%TO.P,R10,1*%
%TO.N,/V2*%
X212350000Y-44859500D03*
%TO.P,R10,2*%
%TO.N,/UVR2*%
X212350000Y-46509500D03*
%TD*%
D19*
%TO.P,MH2,1,1*%
%TO.N,unconnected-(MH2-Pad1)_2*%
X225900000Y-36600000D03*
D20*
%TO.N,unconnected-(MH2-Pad1)_1*%
X225900000Y-36600000D03*
%TD*%
D18*
%TO.P,Q5,1,D*%
%TO.N,/IO_CONN/VDL2*%
X209521500Y-54652000D03*
%TO.P,Q5,2,G*%
%TO.N,/VALID2*%
X211421500Y-54652000D03*
%TO.P,Q5,3,S*%
%TO.N,+3.3V*%
X210471500Y-52552000D03*
%TD*%
D12*
%TO.P,R13,1*%
%TO.N,/UVF2*%
X210725000Y-48000000D03*
%TO.P,R13,2*%
%TO.N,GND*%
X210725000Y-49650000D03*
%TD*%
D14*
%TO.P,D5,1,K*%
%TO.N,GND*%
X174962500Y-58250000D03*
%TO.P,D5,2,A*%
%TO.N,Net-(D5-A)*%
X176537500Y-58250000D03*
%TD*%
D21*
%TO.P,TP4,1,1*%
%TO.N,/VALID1*%
X175500000Y-61450000D03*
%TD*%
D17*
%TO.P,R16,1*%
%TO.N,/OV1*%
X189417800Y-48049999D03*
%TO.P,R16,2*%
%TO.N,/UVR1*%
X187767800Y-48049999D03*
%TD*%
D22*
%TO.P,CINTVCC1,1*%
%TO.N,/INTVCC*%
X192925000Y-56650000D03*
%TO.P,CINTVCC1,2*%
%TO.N,GND*%
X194475000Y-56650000D03*
%TD*%
D15*
%TO.P,R32,1*%
%TO.N,/INTVCC*%
X209950000Y-59250000D03*
%TO.P,R32,2*%
%TO.N,/VALID2*%
X209950000Y-57600000D03*
%TD*%
D23*
%TO.P,R42,1*%
%TO.N,/IO_CONN/CHL2*%
X220425000Y-56500000D03*
%TO.P,R42,2*%
%TO.N,Net-(D6-A)*%
X222075000Y-56500000D03*
%TD*%
D12*
%TO.P,R3,1*%
%TO.N,/V1*%
X184617800Y-44874999D03*
%TO.P,R3,2*%
%TO.N,/UVR1*%
X184617800Y-46524999D03*
%TD*%
D21*
%TO.P,TP6,1,1*%
%TO.N,/FAULT1*%
X179650000Y-61450000D03*
%TD*%
D24*
%TO.P,Q9,1,G*%
%TO.N,Net-(Q9-G)*%
X212642499Y-68000000D03*
%TO.P,Q9,2,S*%
%TO.N,GND*%
X212642499Y-66100000D03*
%TO.P,Q9,3,D*%
%TO.N,/SHDN*%
X210767498Y-67050000D03*
%TD*%
D11*
%TO.P,JP9,1,A*%
%TO.N,+3.3V*%
X224150000Y-47730000D03*
D10*
%TO.P,JP9,2,B*%
%TO.N,/UVR2*%
X224150000Y-45190000D03*
%TD*%
D25*
%TO.P,TP14,1,1*%
%TO.N,/OV1*%
X181000000Y-49225000D03*
%TD*%
D16*
%TO.P,CCPO1,1*%
%TO.N,/CPO*%
X194050000Y-41225000D03*
%TO.P,CCPO1,2*%
%TO.N,/CPOREF*%
X194050000Y-42775000D03*
%TD*%
D26*
%TO.P,TP20,1,1*%
%TO.N,/GATE1*%
X191000000Y-38500000D03*
%TO.P,TP20,2,2*%
%TO.N,/SOURCE1*%
X193540000Y-38500000D03*
%TD*%
D27*
%TO.P,TP9,1,1*%
%TO.N,/V2*%
X209750000Y-38500000D03*
%TD*%
D12*
%TO.P,R36,1*%
%TO.N,/INTVCC*%
X208814999Y-66432499D03*
%TO.P,R36,2*%
%TO.N,/SHDN*%
X208814999Y-68082499D03*
%TD*%
D11*
%TO.P,JP5,1,A*%
%TO.N,GND*%
X224130000Y-53400000D03*
D10*
%TO.P,JP5,2,B*%
%TO.N,/OV2*%
X221590000Y-53400000D03*
%TD*%
D28*
%TO.P,U1,1,CPO*%
%TO.N,/CPO*%
X194835600Y-44149999D03*
%TO.P,U1,2,CPOREF*%
%TO.N,/CPOREF*%
X194835600Y-44800000D03*
%TO.P,U1,3,OUT1*%
X194835600Y-45450001D03*
%TO.P,U1,4,SENSE1*%
%TO.N,/SENSE1*%
X194835600Y-46100000D03*
%TO.P,U1,5,SOURCE1*%
%TO.N,/SOURCE1*%
X194835600Y-46750001D03*
%TO.P,U1,6,GATE1*%
%TO.N,/GATE1*%
X194835600Y-47400000D03*
%TO.P,U1,7,V1*%
%TO.N,/V1*%
X194835600Y-48050001D03*
%TO.P,U1,8,UVF1*%
%TO.N,/UVF1*%
X194835600Y-48700000D03*
%TO.P,U1,9,UVR1*%
%TO.N,/UVR1*%
X194835600Y-49350001D03*
%TO.P,U1,10,OV1*%
%TO.N,/OV1*%
X194835600Y-50000000D03*
%TO.P,U1,11,TMR1*%
%TO.N,/TMR1*%
X194835600Y-50650001D03*
%TO.P,U1,12,\u002ADISABLE1*%
%TO.N,/DISABLE1*%
X194835600Y-51300000D03*
%TO.P,U1,13,\u002ACH1*%
%TO.N,/CH1*%
X194835600Y-51950001D03*
%TO.P,U1,14,\u002AVALID1*%
%TO.N,/VALID1*%
X194835600Y-52599999D03*
%TO.P,U1,15,\u002AFAULT1*%
%TO.N,/FAULT1*%
X194835600Y-53250001D03*
%TO.P,U1,16,CASIN*%
%TO.N,/INTVCC*%
X194835600Y-53899999D03*
%TO.P,U1,17,INTVCC*%
X194835600Y-54549998D03*
%TO.P,U1,18,CASOUT*%
%TO.N,unconnected-(U1-CASOUT-Pad18)*%
X194835600Y-55199999D03*
%TO.P,U1,19,QUAL*%
%TO.N,/QUAL*%
X202100000Y-55199999D03*
%TO.P,U1,20,RETRY*%
%TO.N,/RETRY*%
X202100000Y-54549998D03*
%TO.P,U1,21,\u002ASHDN*%
%TO.N,/SHDN*%
X202100000Y-53899999D03*
%TO.P,U1,22,\u002AFAULT2*%
%TO.N,/FAULT2*%
X202100000Y-53249998D03*
%TO.P,U1,23,\u002AVALID2*%
%TO.N,/VALID2*%
X202100000Y-52599999D03*
%TO.P,U1,24,\u002ACH2*%
%TO.N,/CH2*%
X202100000Y-51949998D03*
%TO.P,U1,25,\u002ADISABLE2*%
%TO.N,/DISABLE2*%
X202100000Y-51300000D03*
%TO.P,U1,26,TMR2*%
%TO.N,/TMR2*%
X202100000Y-50649998D03*
%TO.P,U1,27,OV2*%
%TO.N,/OV2*%
X202100000Y-50000000D03*
%TO.P,U1,28,UVR2*%
%TO.N,/UVR2*%
X202100000Y-49349998D03*
%TO.P,U1,29,UVF2*%
%TO.N,/UVF2*%
X202100000Y-48700000D03*
%TO.P,U1,30,V2*%
%TO.N,/V2*%
X202100000Y-48049998D03*
%TO.P,U1,31,GATE2*%
%TO.N,/GATE2*%
X202100000Y-47400000D03*
%TO.P,U1,32,SOURCE2*%
%TO.N,/SOURCE2*%
X202100000Y-46749999D03*
%TO.P,U1,33,SENSE2*%
%TO.N,/SENSE2*%
X202100000Y-46100000D03*
%TO.P,U1,34,OUT2*%
%TO.N,/OUT2*%
X202100000Y-45449999D03*
%TO.P,U1,35,GND*%
%TO.N,GND*%
X202100000Y-44800000D03*
%TO.P,U1,36,EXTVCC*%
X202100000Y-44149999D03*
%TD*%
D13*
%TO.P,D1,1,K*%
%TO.N,GND*%
X218662500Y-58300000D03*
%TO.P,D1,2,A*%
%TO.N,Net-(D1-A)*%
X217087500Y-58300000D03*
%TD*%
D25*
%TO.P,TP15,1,1*%
%TO.N,/UVR1*%
X181000000Y-46850000D03*
%TD*%
D23*
%TO.P,R20,1*%
%TO.N,/UVF2*%
X207525000Y-44750000D03*
%TO.P,R20,2*%
%TO.N,/V2*%
X209175000Y-44750000D03*
%TD*%
D14*
%TO.P,D4,1,K*%
%TO.N,GND*%
X181387500Y-58200000D03*
%TO.P,D4,2,A*%
%TO.N,Net-(D4-A)*%
X182962500Y-58200000D03*
%TD*%
D25*
%TO.P,TP17,1,1*%
%TO.N,/OV2*%
X216000000Y-49250000D03*
%TD*%
D17*
%TO.P,R18,1*%
%TO.N,/QUAL*%
X198890000Y-67200000D03*
%TO.P,R18,2*%
%TO.N,Net-(C5-Pad2)*%
X197240000Y-67200000D03*
%TD*%
%TO.P,R23,1*%
%TO.N,GND*%
X209175000Y-49700000D03*
%TO.P,R23,2*%
%TO.N,/OV2*%
X207525000Y-49700000D03*
%TD*%
D12*
%TO.P,R35,1*%
%TO.N,/INTVCC*%
X194490000Y-60225000D03*
%TO.P,R35,2*%
%TO.N,/RETRY*%
X194490000Y-61875000D03*
%TD*%
%TO.P,R1,1*%
%TO.N,/V1*%
X183017800Y-44874999D03*
%TO.P,R1,2*%
%TO.N,/OV1*%
X183017800Y-46524999D03*
%TD*%
D11*
%TO.P,JP4,1,A*%
%TO.N,GND*%
X172770000Y-53400000D03*
D10*
%TO.P,JP4,2,B*%
%TO.N,/OV1*%
X175310000Y-53400000D03*
%TD*%
D19*
%TO.P,MH3,1,1*%
%TO.N,unconnected-(MH3-Pad1)_2*%
X170900000Y-67600000D03*
D20*
%TO.N,unconnected-(MH3-Pad1)*%
X170900000Y-67600000D03*
%TD*%
D12*
%TO.P,R43,1*%
%TO.N,/SHDNOUT*%
X206804999Y-66437499D03*
%TO.P,R43,2*%
%TO.N,Net-(Q10-G)*%
X206804999Y-68087499D03*
%TD*%
D25*
%TO.P,TP19,1,1*%
%TO.N,/UVF2*%
X216000000Y-44450000D03*
%TD*%
D23*
%TO.P,R38,1*%
%TO.N,/IO_CONN/VDL1*%
X178187500Y-56575000D03*
%TO.P,R38,2*%
%TO.N,Net-(D2-A)*%
X179837500Y-56575000D03*
%TD*%
D15*
%TO.P,R28,1*%
%TO.N,/INTVCC*%
X206050000Y-59250000D03*
%TO.P,R28,2*%
%TO.N,/DISABLE2*%
X206050000Y-57600000D03*
%TD*%
D27*
%TO.P,TP10,1,1*%
%TO.N,/CPOREF*%
X198500000Y-38250000D03*
%TD*%
D21*
%TO.P,TP2,1,1*%
%TO.N,/CH1*%
X171350000Y-61450000D03*
%TD*%
D25*
%TO.P,TP18,1,1*%
%TO.N,/UVR2*%
X216000000Y-46825000D03*
%TD*%
D12*
%TO.P,R4,1*%
%TO.N,/UVR1*%
X184617800Y-47974999D03*
%TO.P,R4,2*%
%TO.N,GND*%
X184617800Y-49624999D03*
%TD*%
D23*
%TO.P,R17,1*%
%TO.N,GND*%
X187767800Y-49699999D03*
%TO.P,R17,2*%
%TO.N,/OV1*%
X189417800Y-49699999D03*
%TD*%
D17*
%TO.P,R39,1*%
%TO.N,/IO_CONN/FTL2*%
X215562500Y-56650000D03*
%TO.P,R39,2*%
%TO.N,Net-(D3-A)*%
X213912500Y-56650000D03*
%TD*%
D19*
%TO.P,MH1,1,1*%
%TO.N,unconnected-(MH1-Pad1)_1*%
X170900000Y-36600000D03*
D20*
%TO.N,unconnected-(MH1-Pad1)_2*%
X170900000Y-36600000D03*
%TD*%
D24*
%TO.P,Q10,1,G*%
%TO.N,Net-(Q10-G)*%
X218400000Y-67990000D03*
%TO.P,Q10,2,S*%
%TO.N,GND*%
X218400000Y-66090000D03*
%TO.P,Q10,3,D*%
%TO.N,Net-(Q10-D)*%
X216524999Y-67040000D03*
%TD*%
D15*
%TO.P,R31,1*%
%TO.N,/INTVCC*%
X187000000Y-59175000D03*
%TO.P,R31,2*%
%TO.N,/VALID1*%
X187000000Y-57525000D03*
%TD*%
D19*
%TO.P,MH4,1,1*%
%TO.N,unconnected-(MH4-Pad1)_1*%
X225900000Y-67600000D03*
D20*
%TO.N,unconnected-(MH4-Pad1)_2*%
X225900000Y-67600000D03*
%TD*%
D12*
%TO.P,R2,1*%
%TO.N,/OV1*%
X183017800Y-47974999D03*
%TO.P,R2,2*%
%TO.N,GND*%
X183017800Y-49624999D03*
%TD*%
D21*
%TO.P,TP7,1,1*%
%TO.N,/FAULT2*%
X217200000Y-61600000D03*
%TD*%
D12*
%TO.P,R6,1*%
%TO.N,/UVF1*%
X186217800Y-47974999D03*
%TO.P,R6,2*%
%TO.N,GND*%
X186217800Y-49624999D03*
%TD*%
D18*
%TO.P,Q7,1,D*%
%TO.N,/IO_CONN/CHL2*%
X213524960Y-54668000D03*
%TO.P,Q7,2,G*%
%TO.N,/CH2*%
X215424960Y-54668000D03*
%TO.P,Q7,3,S*%
%TO.N,+3.3V*%
X214474960Y-52568000D03*
%TD*%
D11*
%TO.P,JP8,1,A*%
%TO.N,+3.3V*%
X172750000Y-47790000D03*
D10*
%TO.P,JP8,2,B*%
%TO.N,/UVR1*%
X172750000Y-45250000D03*
%TD*%
D23*
%TO.P,R22,1*%
%TO.N,/OV2*%
X207525000Y-48050000D03*
%TO.P,R22,2*%
%TO.N,/UVR2*%
X209175000Y-48050000D03*
%TD*%
D18*
%TO.P,Q3,1,D*%
%TO.N,/IO_CONN/FTL1*%
X189450000Y-54616000D03*
%TO.P,Q3,2,G*%
%TO.N,/FAULT1*%
X191350000Y-54616000D03*
%TO.P,Q3,3,S*%
%TO.N,+3.3V*%
X190400000Y-52516000D03*
%TD*%
D15*
%TO.P,R27,1*%
%TO.N,/INTVCC*%
X190800000Y-59150000D03*
%TO.P,R27,2*%
%TO.N,/DISABLE1*%
X190800000Y-57500000D03*
%TD*%
D18*
%TO.P,Q6,1,D*%
%TO.N,/IO_CONN/FTL2*%
X205600040Y-54634000D03*
%TO.P,Q6,2,G*%
%TO.N,/FAULT2*%
X207500040Y-54634000D03*
%TO.P,Q6,3,S*%
%TO.N,+3.3V*%
X206550040Y-52534000D03*
%TD*%
D12*
%TO.P,R8,1*%
%TO.N,/V2*%
X213975000Y-44859500D03*
%TO.P,R8,2*%
%TO.N,/OV2*%
X213975000Y-46509500D03*
%TD*%
D18*
%TO.P,Q2,1,D*%
%TO.N,/IO_CONN/VDL1*%
X185599960Y-54650000D03*
%TO.P,Q2,2,G*%
%TO.N,/VALID1*%
X187499960Y-54650000D03*
%TO.P,Q2,3,S*%
%TO.N,+3.3V*%
X186549960Y-52550000D03*
%TD*%
D11*
%TO.P,JP6,1,A*%
%TO.N,+3.3V*%
X176600000Y-47790000D03*
D10*
%TO.P,JP6,2,B*%
%TO.N,/UVF1*%
X176600000Y-45250000D03*
%TD*%
D12*
%TO.P,R12,1*%
%TO.N,/V2*%
X210725000Y-44859500D03*
%TO.P,R12,2*%
%TO.N,/UVF2*%
X210725000Y-46509500D03*
%TD*%
D17*
%TO.P,R19,1*%
%TO.N,/QUAL*%
X198890000Y-65375000D03*
%TO.P,R19,2*%
%TO.N,/INTVCC*%
X197240000Y-65375000D03*
%TD*%
D29*
%TO.P,CTMR1,1*%
%TO.N,GND*%
X197550000Y-57500000D03*
%TO.P,CTMR1,2*%
%TO.N,/TMR1*%
X196000000Y-57500000D03*
%TD*%
D27*
%TO.P,TP11,1,1*%
%TO.N,GND*%
X177500000Y-64500000D03*
%TD*%
D23*
%TO.P,R21,1*%
%TO.N,/UVR2*%
X207525000Y-46400000D03*
%TO.P,R21,2*%
%TO.N,/UVF2*%
X209175000Y-46400000D03*
%TD*%
D17*
%TO.P,R37,1*%
%TO.N,/IO_CONN/VDL2*%
X218722500Y-56650000D03*
%TO.P,R37,2*%
%TO.N,Net-(D1-A)*%
X217072500Y-56650000D03*
%TD*%
D23*
%TO.P,R41,1*%
%TO.N,/IO_CONN/CHL1*%
X174937500Y-56600000D03*
%TO.P,R41,2*%
%TO.N,Net-(D5-A)*%
X176587500Y-56600000D03*
%TD*%
D17*
%TO.P,R14,1*%
%TO.N,/UVF1*%
X189417800Y-44749999D03*
%TO.P,R14,2*%
%TO.N,/V1*%
X187767800Y-44749999D03*
%TD*%
D26*
%TO.P,TP21,1,1*%
%TO.N,/GATE2*%
X206000000Y-38500000D03*
%TO.P,TP21,2,2*%
%TO.N,/SOURCE2*%
X203460000Y-38500000D03*
%TD*%
D22*
%TO.P,C5,1*%
%TO.N,GND*%
X194190000Y-67200000D03*
%TO.P,C5,2*%
%TO.N,Net-(C5-Pad2)*%
X195740000Y-67200000D03*
%TD*%
D11*
%TO.P,JP7,1,A*%
%TO.N,+3.3V*%
X220300000Y-47730000D03*
D10*
%TO.P,JP7,2,B*%
%TO.N,/UVF2*%
X220300000Y-45190000D03*
%TD*%
D25*
%TO.P,TP16,1,1*%
%TO.N,/UVF1*%
X181000000Y-44475000D03*
%TD*%
D27*
%TO.P,TP12,1,1*%
%TO.N,/SHDN*%
X202250000Y-66750000D03*
%TD*%
D15*
%TO.P,R34,1*%
%TO.N,/INTVCC*%
X208025000Y-59250000D03*
%TO.P,R34,2*%
%TO.N,/FAULT2*%
X208025000Y-57600000D03*
%TD*%
D21*
%TO.P,TP3,1,1*%
%TO.N,/CH2*%
X225500000Y-61600000D03*
%TD*%
D23*
%TO.P,R40,1*%
%TO.N,/IO_CONN/FTL1*%
X181350000Y-56562500D03*
%TO.P,R40,2*%
%TO.N,Net-(D4-A)*%
X183000000Y-56562500D03*
%TD*%
D15*
%TO.P,R33,1*%
%TO.N,/INTVCC*%
X188900000Y-59175000D03*
%TO.P,R33,2*%
%TO.N,/FAULT1*%
X188900000Y-57525000D03*
%TD*%
D21*
%TO.P,TP5,1,1*%
%TO.N,/VALID2*%
X221350000Y-61600000D03*
%TD*%
D15*
%TO.P,R29,1*%
%TO.N,/INTVCC*%
X185100000Y-59175000D03*
%TO.P,R29,2*%
%TO.N,/CH1*%
X185100000Y-57525000D03*
%TD*%
D27*
%TO.P,TP8,1,1*%
%TO.N,/V1*%
X187200000Y-38500000D03*
%TD*%
D22*
%TO.P,CTMR2,1*%
%TO.N,GND*%
X199400000Y-57500000D03*
%TO.P,CTMR2,2*%
%TO.N,/TMR2*%
X200950000Y-57500000D03*
%TD*%
D14*
%TO.P,D2,1,K*%
%TO.N,GND*%
X178205000Y-58212500D03*
%TO.P,D2,2,A*%
%TO.N,Net-(D2-A)*%
X179780000Y-58212500D03*
%TD*%
D27*
%TO.P,TP1,1,1*%
%TO.N,/INTVCC*%
X190500000Y-66000000D03*
%TD*%
D11*
%TO.P,JP2,1,A*%
%TO.N,GND*%
X202230000Y-60750000D03*
D10*
%TO.P,JP2,2,C*%
%TO.N,/RETRY*%
X199690000Y-60750000D03*
%TO.P,JP2,3,B*%
%TO.N,/INTVCC*%
X197150000Y-60750000D03*
%TD*%
D12*
%TO.P,R9,1*%
%TO.N,/OV2*%
X213975000Y-48000000D03*
%TO.P,R9,2*%
%TO.N,GND*%
X213975000Y-49650000D03*
%TD*%
D11*
%TO.P,JP1,1,A*%
%TO.N,GND*%
X208620000Y-62200000D03*
D10*
%TO.P,JP1,2,C*%
%TO.N,/DISABLE2*%
X211160000Y-62200000D03*
%TO.P,JP1,3,B*%
%TO.N,/FAULT2*%
X213700000Y-62200000D03*
%TD*%
D12*
%TO.P,R5,1*%
%TO.N,/V1*%
X186217800Y-44874999D03*
%TO.P,R5,2*%
%TO.N,/UVF1*%
X186217800Y-46524999D03*
%TD*%
D30*
%TO.N,/CPOREF*%
X194331815Y-42493185D03*
%TO.N,GND*%
X197500000Y-70100000D03*
X212350000Y-49650000D03*
X175700000Y-34100000D03*
X196300000Y-70100000D03*
X168500000Y-43400000D03*
X212900000Y-70100000D03*
X209300000Y-70100000D03*
X195100000Y-70100000D03*
X208100000Y-70100000D03*
X201000000Y-70100000D03*
X217300000Y-34100000D03*
X189100000Y-70100000D03*
X168500000Y-62300000D03*
X168500000Y-48100000D03*
X209150000Y-49700000D03*
X203225000Y-56450000D03*
X228200000Y-41000000D03*
X228200000Y-58800000D03*
X220800000Y-34100000D03*
X228200000Y-50400000D03*
X219600000Y-34100000D03*
X218800000Y-70100000D03*
X203225000Y-58325000D03*
X179300000Y-34100000D03*
X193900000Y-70100000D03*
X228200000Y-43400000D03*
X168500000Y-54000000D03*
X191500000Y-70100000D03*
X220000000Y-70100000D03*
X203700000Y-44100000D03*
X228200000Y-51600000D03*
X168500000Y-55200000D03*
X198600000Y-70100000D03*
X214900000Y-34100000D03*
X168500000Y-56400000D03*
X183017800Y-49624999D03*
X197650000Y-57500000D03*
X207000000Y-70100000D03*
X228200000Y-54000000D03*
X213975000Y-49650000D03*
X210500000Y-70100000D03*
X198500000Y-46100000D03*
X168500000Y-44500000D03*
X228200000Y-45700000D03*
X228200000Y-56400000D03*
X221200000Y-70100000D03*
X228200000Y-46900000D03*
X187767801Y-49700000D03*
X218662500Y-58300000D03*
X168500000Y-58800000D03*
X210725000Y-49650000D03*
X186217800Y-49624999D03*
X194475000Y-56650000D03*
X203400000Y-70100000D03*
X180400000Y-34100000D03*
X178100000Y-34100000D03*
X198000000Y-51750000D03*
X211700000Y-70100000D03*
X200000000Y-41500000D03*
X214100000Y-70100000D03*
X182800000Y-34100000D03*
X181600000Y-34100000D03*
X168500000Y-41000000D03*
X168500000Y-42200000D03*
X205800000Y-70100000D03*
X228200000Y-61100000D03*
X228200000Y-49300000D03*
X216100000Y-34100000D03*
X168500000Y-51600000D03*
X228200000Y-57600000D03*
X168500000Y-45700000D03*
X228200000Y-55200000D03*
X190300000Y-70100000D03*
X228200000Y-59900000D03*
X168500000Y-63500000D03*
X168500000Y-57600000D03*
X204600000Y-70100000D03*
X168500000Y-59900000D03*
X228200000Y-63500000D03*
X198500000Y-47700000D03*
X184617800Y-49624999D03*
X203225000Y-57375000D03*
X217600000Y-70100000D03*
X168500000Y-52800000D03*
X228200000Y-52800000D03*
X203700000Y-44800000D03*
X199325000Y-57500000D03*
X168500000Y-49300000D03*
X192700000Y-70100000D03*
X215300000Y-70100000D03*
X228200000Y-48100000D03*
X228200000Y-42200000D03*
X168500000Y-46900000D03*
X180750000Y-58250000D03*
X228200000Y-44500000D03*
X199800000Y-70100000D03*
X215500000Y-58300000D03*
X228200000Y-62300000D03*
X216500000Y-70100000D03*
X199000000Y-51750000D03*
X168500000Y-61100000D03*
X218400000Y-34100000D03*
X168500000Y-50400000D03*
X176900000Y-34100000D03*
X202200000Y-70100000D03*
X222000000Y-34100000D03*
%TO.N,/INTVCC*%
X220259716Y-67136186D03*
X206050000Y-59250000D03*
X197240000Y-65375000D03*
X190800000Y-60000000D03*
X216550000Y-67840000D03*
%TO.N,/IO_CONN/VDL2*%
X210471500Y-54618000D03*
X218722500Y-56650000D03*
%TO.N,/IO_CONN/VDL1*%
X186549960Y-54616000D03*
X178187500Y-56575000D03*
%TO.N,/IO_CONN/FTL2*%
X206570000Y-54640000D03*
X215562500Y-56650000D03*
%TO.N,/IO_CONN/FTL1*%
X181375000Y-56550000D03*
X190400000Y-54582000D03*
%TO.N,/FAULT1*%
X179750000Y-61450000D03*
%TO.N,/DISABLE1*%
X193510098Y-50550000D03*
X190790245Y-55990245D03*
%TO.N,/CH1*%
X185100000Y-57525000D03*
X171350000Y-61450000D03*
%TO.N,/DISABLE2*%
X205612500Y-55887500D03*
X203425502Y-50550000D03*
%TO.N,/VALID1*%
X175500000Y-61450000D03*
X187000000Y-57525000D03*
%TO.N,/CH2*%
X211850000Y-57600000D03*
X225500000Y-61600000D03*
%TO.N,/VALID2*%
X209950000Y-57600000D03*
X221350000Y-61600000D03*
%TO.N,/FAULT2*%
X217200000Y-61600000D03*
%TO.N,/SHDNOUT*%
X204730000Y-56127340D03*
%TO.N,/V1*%
X191364216Y-45485784D03*
%TO.N,/UVR2*%
X217288846Y-46398936D03*
X216000000Y-46825000D03*
%TO.N,/V2*%
X205592968Y-45492968D03*
%TO.N,/UVF1*%
X181012500Y-44487500D03*
%TO.N,+3.3V*%
X205750000Y-52500000D03*
X209500000Y-52500000D03*
X213250000Y-52500000D03*
X189500000Y-52500000D03*
X185500000Y-52500000D03*
X181766040Y-52592960D03*
%TO.N,/SENSE1*%
X197750000Y-43700000D03*
%TO.N,/SENSE2*%
X199250000Y-43700000D03*
%TO.N,/UVF2*%
X216000000Y-44450000D03*
%TO.N,/UVR1*%
X179649000Y-46568100D03*
X181000000Y-46850000D03*
%TO.N,/GATE1*%
X197750000Y-45300000D03*
%TO.N,/GATE2*%
X199250000Y-45300003D03*
%TO.N,/SOURCE2*%
X199250000Y-44500000D03*
%TO.N,/SOURCE1*%
X197750000Y-44500000D03*
%TO.N,/OV2*%
X216000000Y-49250000D03*
%TO.N,/IO_CONN/CHL2*%
X214490000Y-54600000D03*
X220425000Y-56500000D03*
%TO.N,/IO_CONN/CHL1*%
X175000000Y-56550000D03*
X182716000Y-54624960D03*
%TO.N,/OUT2*%
X199250000Y-42900000D03*
%TD*%
D31*
%TO.N,/CPOREF*%
X192425000Y-42775000D02*
X192400000Y-42750000D01*
X194835600Y-44800000D02*
X193610100Y-44800000D01*
X193610100Y-44800000D02*
X192400000Y-43589900D01*
X192400000Y-43589900D02*
X192400000Y-42750000D01*
X194050000Y-42775000D02*
X192425000Y-42775000D01*
X194835600Y-44800000D02*
X194835600Y-45450001D01*
D32*
%TO.N,GND*%
X180800000Y-58200000D02*
X180750000Y-58250000D01*
X187767801Y-49700000D02*
X187767800Y-49699999D01*
X181387500Y-58200000D02*
X180800000Y-58200000D01*
X187692800Y-49624999D02*
X187767801Y-49700000D01*
X202100000Y-44800000D02*
X202100000Y-44149999D01*
X199325000Y-57500000D02*
X199400000Y-57425000D01*
X197650000Y-57500000D02*
X197550000Y-57400000D01*
X209259500Y-49590500D02*
X209150000Y-49700000D01*
%TO.N,/CPO*%
X195076000Y-42276000D02*
X194050000Y-41250000D01*
X194050000Y-41250000D02*
X194050000Y-41225000D01*
X195076000Y-43909599D02*
X195076000Y-42276000D01*
X194835600Y-44149999D02*
X195076000Y-43909599D01*
%TO.N,/INTVCC*%
X185125000Y-59150000D02*
X185100000Y-59175000D01*
D33*
X194835600Y-53899999D02*
X193600001Y-53899999D01*
D32*
X220350000Y-67045902D02*
X220259716Y-67136186D01*
X208112500Y-65730000D02*
X208814999Y-66432499D01*
D33*
X193600001Y-53899999D02*
X192925000Y-54575000D01*
D32*
X205480000Y-65730000D02*
X208112500Y-65730000D01*
D33*
X194490000Y-60225000D02*
X196625000Y-60225000D01*
X192925000Y-56650000D02*
X192925000Y-56925000D01*
D32*
X216548756Y-67838756D02*
X215944287Y-67838756D01*
D33*
X190800000Y-60000000D02*
X190800000Y-65625000D01*
X190800000Y-59150000D02*
X185125000Y-59150000D01*
X190800000Y-59150000D02*
X190800000Y-60000000D01*
D32*
X216550000Y-67840000D02*
X216548756Y-67838756D01*
D33*
X196625000Y-60225000D02*
X197150000Y-60750000D01*
D32*
X206050000Y-59250000D02*
X205131000Y-60169000D01*
D33*
X190800000Y-65625000D02*
X190750000Y-65675000D01*
D32*
X215305531Y-67200000D02*
X212296966Y-67200000D01*
X206050000Y-59250000D02*
X211850000Y-59250000D01*
X212296966Y-67200000D02*
X211529465Y-66432499D01*
X205131000Y-65381000D02*
X205480000Y-65730000D01*
X211529465Y-66432499D02*
X208814999Y-66432499D01*
D33*
X194835600Y-54549998D02*
X193710100Y-54549998D01*
D32*
X220350000Y-66425000D02*
X220350000Y-67045902D01*
D33*
X192925000Y-54575000D02*
X192925000Y-55335098D01*
X193710100Y-54549998D02*
X192925000Y-55335098D01*
X192925000Y-56925000D02*
X194490000Y-58490000D01*
X194490000Y-58490000D02*
X194490000Y-60225000D01*
D32*
X205131000Y-60169000D02*
X205131000Y-65381000D01*
D33*
X192925000Y-56650000D02*
X192925000Y-57025000D01*
D32*
X215944287Y-67838756D02*
X215305531Y-67200000D01*
D33*
X192925000Y-55335098D02*
X192925000Y-56650000D01*
D32*
%TO.N,/QUAL*%
X202250000Y-58100000D02*
X202250000Y-55349999D01*
X200841000Y-63459000D02*
X200841000Y-59509000D01*
X198925000Y-65375000D02*
X200841000Y-63459000D01*
X200841000Y-59509000D02*
X202250000Y-58100000D01*
X198890000Y-65375000D02*
X198890000Y-67200000D01*
X198890000Y-65375000D02*
X198916000Y-65375000D01*
X202250000Y-55349999D02*
X202100000Y-55199999D01*
X198890000Y-65375000D02*
X198925000Y-65375000D01*
%TO.N,/TMR1*%
X196375000Y-57125000D02*
X196000000Y-57500000D01*
X194835600Y-50650001D02*
X195829001Y-50650001D01*
X195829001Y-50650001D02*
X196375000Y-51196000D01*
X196375000Y-51196000D02*
X196375000Y-57125000D01*
%TO.N,/TMR2*%
X200575000Y-57125000D02*
X200575000Y-51181600D01*
X201106602Y-50649998D02*
X202100000Y-50649998D01*
X200950000Y-57500000D02*
X200575000Y-57125000D01*
X200575000Y-51181600D02*
X201106602Y-50649998D01*
D33*
%TO.N,/IO_CONN/VDL2*%
X209521500Y-54652000D02*
X210437500Y-54652000D01*
X210437500Y-54652000D02*
X210471500Y-54618000D01*
D32*
%TO.N,/IO_CONN/VDL1*%
X185633960Y-54616000D02*
X185599960Y-54650000D01*
X186549960Y-54616000D02*
X185633960Y-54616000D01*
%TO.N,/IO_CONN/FTL2*%
X205606040Y-54640000D02*
X205600040Y-54634000D01*
X206570000Y-54640000D02*
X205606040Y-54640000D01*
%TO.N,/IO_CONN/FTL1*%
X190400000Y-54582000D02*
X189484000Y-54582000D01*
X189484000Y-54582000D02*
X189450000Y-54616000D01*
D34*
%TO.N,/FAULT1*%
X188225000Y-58200000D02*
X184224322Y-58200000D01*
X188900000Y-57525000D02*
X188225000Y-58200000D01*
D32*
X188900000Y-56995192D02*
X188900000Y-57525000D01*
D34*
X179650000Y-61450000D02*
X182500000Y-61450000D01*
X183699000Y-61751000D02*
X183250000Y-62200000D01*
D32*
X191350000Y-54616000D02*
X191279192Y-54616000D01*
D34*
X184224322Y-58200000D02*
X183699000Y-58725322D01*
X183699000Y-58725322D02*
X183699000Y-61751000D01*
D32*
X192715999Y-53250001D02*
X191350000Y-54616000D01*
X191279192Y-54616000D02*
X188900000Y-56995192D01*
D34*
X182500000Y-61450000D02*
X183250000Y-62200000D01*
D32*
X194835600Y-53250001D02*
X192715999Y-53250001D01*
D34*
%TO.N,/DISABLE1*%
X188349678Y-58501000D02*
X184349000Y-58501000D01*
D32*
X193510098Y-50967899D02*
X193842199Y-51300000D01*
X193510098Y-50550000D02*
X193510098Y-50967899D01*
X190790245Y-55990245D02*
X190790245Y-56240245D01*
D34*
X189800000Y-58500000D02*
X188350678Y-58500000D01*
X184000000Y-58850000D02*
X184000000Y-61300000D01*
X184349000Y-58501000D02*
X184000000Y-58850000D01*
X184000000Y-61300000D02*
X184900000Y-62200000D01*
X190800000Y-57500000D02*
X189800000Y-58500000D01*
D32*
X193842199Y-51300000D02*
X194835600Y-51300000D01*
D34*
X188350678Y-58500000D02*
X188349678Y-58501000D01*
D32*
X190800000Y-56250000D02*
X190800000Y-57500000D01*
X190790245Y-56240245D02*
X190800000Y-56250000D01*
D34*
X184900000Y-62200000D02*
X185790000Y-62200000D01*
D32*
%TO.N,/CH1*%
X192970000Y-51000000D02*
X185258920Y-51000000D01*
X183665960Y-52592960D02*
X183665960Y-56090960D01*
X194835600Y-51950001D02*
X193920001Y-51950001D01*
X185258920Y-51000000D02*
X183665960Y-52592960D01*
X193920001Y-51950001D02*
X192970000Y-51000000D01*
X183665960Y-56090960D02*
X185100000Y-57525000D01*
D34*
%TO.N,/DISABLE2*%
X206075000Y-57625000D02*
X207000000Y-58550000D01*
D32*
X203093398Y-51300000D02*
X202100000Y-51300000D01*
X206050000Y-56325000D02*
X206050000Y-57600000D01*
X205612500Y-55887500D02*
X206050000Y-56325000D01*
X203425502Y-50550000D02*
X203425502Y-50967896D01*
D34*
X212650000Y-58825678D02*
X212650000Y-61600000D01*
X212650000Y-61600000D02*
X212050000Y-62200000D01*
X207000000Y-58550000D02*
X212374322Y-58550000D01*
D32*
X203425502Y-50967896D02*
X203093398Y-51300000D01*
D34*
X212374322Y-58550000D02*
X212650000Y-58825678D01*
X212050000Y-62200000D02*
X211160000Y-62200000D01*
D32*
%TO.N,/VALID1*%
X187499920Y-52584000D02*
X187499920Y-57025080D01*
X191841760Y-51500000D02*
X188583920Y-51500000D01*
X192941759Y-52599999D02*
X191841760Y-51500000D01*
X187499920Y-57025080D02*
X187000000Y-57525000D01*
X194835600Y-52599999D02*
X192941759Y-52599999D01*
X188583920Y-51500000D02*
X187499920Y-52584000D01*
%TO.N,/CH2*%
X214508960Y-51000000D02*
X215424960Y-51916000D01*
X202100000Y-51949998D02*
X203030002Y-51949998D01*
X203030002Y-51949998D02*
X203980000Y-51000000D01*
X215424960Y-51916000D02*
X215424960Y-54668000D01*
X215424960Y-54668000D02*
X214218960Y-55874000D01*
X214218960Y-55874000D02*
X212126000Y-55874000D01*
X212126000Y-55874000D02*
X211850000Y-56150000D01*
X211850000Y-56150000D02*
X211850000Y-57600000D01*
X203980000Y-51000000D02*
X214508960Y-51000000D01*
%TO.N,/VALID2*%
X211421460Y-56128540D02*
X211421460Y-51671460D01*
X205019680Y-51606600D02*
X205126280Y-51500000D01*
X204026281Y-52599999D02*
X205019680Y-51606600D01*
X209950000Y-57600000D02*
X211421460Y-56128540D01*
X211421460Y-51671460D02*
X211250000Y-51500000D01*
X202100000Y-52599999D02*
X204026281Y-52599999D01*
X205126280Y-51500000D02*
X211250000Y-51500000D01*
%TO.N,/FAULT2*%
X207500040Y-57075040D02*
X208025000Y-57600000D01*
X207500040Y-53750040D02*
X207500040Y-54634000D01*
X202225002Y-53375000D02*
X203275000Y-53375000D01*
X207500040Y-54634000D02*
X207500040Y-57075040D01*
X207500000Y-57075000D02*
X208025000Y-57600000D01*
X207279400Y-53529400D02*
X207500040Y-53750040D01*
D34*
X208025000Y-57600000D02*
X208675000Y-58250000D01*
X212500000Y-58250000D02*
X212950000Y-58700000D01*
X212950000Y-61450000D02*
X213700000Y-62200000D01*
D32*
X203429400Y-53529400D02*
X207279400Y-53529400D01*
D34*
X208675000Y-58250000D02*
X212500000Y-58250000D01*
D32*
X203275000Y-53375000D02*
X203429400Y-53529400D01*
D34*
X217200000Y-61600000D02*
X214300000Y-61600000D01*
X212950000Y-58700000D02*
X212950000Y-61450000D01*
X214300000Y-61600000D02*
X213700000Y-62200000D01*
D32*
X202100000Y-53249998D02*
X202225002Y-53375000D01*
%TO.N,/SHDNOUT*%
X204730000Y-66297864D02*
X205267136Y-66835000D01*
X205267136Y-66835000D02*
X206407498Y-66835000D01*
X204730000Y-56127340D02*
X204730000Y-66297864D01*
X206407498Y-66835000D02*
X206804999Y-66437499D01*
%TO.N,/V1*%
X193928434Y-48050001D02*
X194835600Y-48050001D01*
X187767800Y-44749999D02*
X188543800Y-43973999D01*
X183017800Y-44874999D02*
X187642800Y-44874999D01*
X189852432Y-43973999D02*
X191364216Y-45485784D01*
X188543800Y-43973999D02*
X187200000Y-42630199D01*
X188543800Y-43973999D02*
X189852432Y-43973999D01*
X187642800Y-44874999D02*
X187767800Y-44749999D01*
X187200000Y-42630199D02*
X187200000Y-39000000D01*
X191364216Y-45485784D02*
X193928434Y-48050001D01*
D34*
%TO.N,/UVR2*%
X212350000Y-48000000D02*
X211700000Y-48650000D01*
D32*
X222941064Y-46398936D02*
X217288846Y-46398936D01*
D34*
X216000000Y-46825000D02*
X216000000Y-47164064D01*
X207525000Y-46400000D02*
X209175000Y-48050000D01*
D32*
X224150000Y-45190000D02*
X222941064Y-46398936D01*
D34*
X209775000Y-48650000D02*
X209175000Y-48050000D01*
X216000000Y-46825000D02*
X216000000Y-47114064D01*
X204575002Y-49349998D02*
X207525000Y-46400000D01*
X216000000Y-47164064D02*
X214514064Y-48650000D01*
X212350000Y-46509500D02*
X212350000Y-48000000D01*
X213000000Y-48650000D02*
X212350000Y-48000000D01*
X214514064Y-48650000D02*
X213000000Y-48650000D01*
X202100000Y-49349998D02*
X204575002Y-49349998D01*
X211700000Y-48650000D02*
X209775000Y-48650000D01*
D32*
%TO.N,/V2*%
X213975000Y-44859500D02*
X209284500Y-44859500D01*
X209750000Y-42623000D02*
X209750000Y-38500000D01*
X208399000Y-43974000D02*
X209750000Y-42623000D01*
X207111936Y-43974000D02*
X208399000Y-43974000D01*
X203035938Y-48049998D02*
X205592968Y-45492968D01*
X202100000Y-48049998D02*
X203035938Y-48049998D01*
X205592968Y-45492968D02*
X207111936Y-43974000D01*
X208399000Y-43974000D02*
X209175000Y-44750000D01*
X209284500Y-44859500D02*
X209175000Y-44750000D01*
D34*
%TO.N,/UVF1*%
X185292801Y-45600000D02*
X182125000Y-45600000D01*
D32*
X177350000Y-44500000D02*
X181000000Y-44500000D01*
D34*
X186217800Y-47974999D02*
X186217800Y-46524999D01*
D32*
X176600000Y-45250000D02*
X177350000Y-44500000D01*
D34*
X186217800Y-46524999D02*
X185292801Y-45600000D01*
X187767800Y-46399999D02*
X189417800Y-44749999D01*
D32*
X181000000Y-44500000D02*
X181012500Y-44487500D01*
D34*
X189417800Y-44749999D02*
X193367801Y-48700000D01*
D32*
X181000000Y-44475000D02*
X181012500Y-44487500D01*
D34*
X182125000Y-45600000D02*
X181012500Y-44487500D01*
X186217800Y-46524999D02*
X187642800Y-46524999D01*
X187642800Y-46524999D02*
X187767800Y-46399999D01*
X193367801Y-48700000D02*
X194835600Y-48700000D01*
D31*
%TO.N,+3.3V*%
X181800040Y-52558960D02*
X181766040Y-52592960D01*
D33*
X206550040Y-52534000D02*
X205784000Y-52534000D01*
X210471500Y-52552000D02*
X209552000Y-52552000D01*
D31*
X182716000Y-52558960D02*
X181800040Y-52558960D01*
D33*
X213318000Y-52568000D02*
X213250000Y-52500000D01*
D31*
X186549960Y-52550000D02*
X185550000Y-52550000D01*
D33*
X209552000Y-52552000D02*
X209500000Y-52500000D01*
D31*
X189516000Y-52516000D02*
X189500000Y-52500000D01*
D33*
X205784000Y-52534000D02*
X205750000Y-52500000D01*
X214474960Y-52568000D02*
X213318000Y-52568000D01*
D31*
X190400000Y-52516000D02*
X189516000Y-52516000D01*
X185550000Y-52550000D02*
X185500000Y-52500000D01*
D32*
%TO.N,/SENSE1*%
X195700000Y-46100000D02*
X194835600Y-46100000D01*
X197750000Y-43700000D02*
X196600000Y-43700000D01*
X196400000Y-45400000D02*
X195700000Y-46100000D01*
X196600000Y-43700000D02*
X196400000Y-43900000D01*
X196400000Y-43900000D02*
X196400000Y-45400000D01*
%TO.N,/SENSE2*%
X200350000Y-43700000D02*
X200550000Y-43900000D01*
X200550000Y-43900000D02*
X200550000Y-45400000D01*
X201250000Y-46100000D02*
X202100000Y-46100000D01*
X200550000Y-45400000D02*
X201250000Y-46100000D01*
X199250000Y-43700000D02*
X200350000Y-43700000D01*
D34*
%TO.N,/UVF2*%
X209284500Y-46509500D02*
X209175000Y-46400000D01*
X211534500Y-45700000D02*
X210725000Y-46509500D01*
X214750000Y-45700000D02*
X211534500Y-45700000D01*
X216000000Y-44450000D02*
X214750000Y-45700000D01*
X203575000Y-48700000D02*
X207525000Y-44750000D01*
D32*
X219560000Y-44450000D02*
X216000000Y-44450000D01*
X220300000Y-45190000D02*
X219560000Y-44450000D01*
D34*
X202100000Y-48700000D02*
X203575000Y-48700000D01*
X210725000Y-46509500D02*
X210725000Y-48000000D01*
X210725000Y-46509500D02*
X209284500Y-46509500D01*
X209175000Y-46400000D02*
X207525000Y-44750000D01*
%TO.N,/UVR1*%
X184617800Y-47974999D02*
X183942799Y-48650000D01*
X187167799Y-48650000D02*
X187767800Y-48049999D01*
X185292801Y-48650000D02*
X187167799Y-48650000D01*
X184617800Y-47974999D02*
X184617800Y-46524999D01*
X181000000Y-47146263D02*
X181000000Y-46850000D01*
D32*
X172750000Y-45250000D02*
X174068100Y-46568100D01*
D34*
X182503737Y-48650000D02*
X181000000Y-47146263D01*
X187767800Y-48049999D02*
X189417800Y-46399999D01*
X189417800Y-46399999D02*
X192367802Y-49350001D01*
D32*
X174068100Y-46568100D02*
X179649000Y-46568100D01*
D34*
X183942799Y-48650000D02*
X182503737Y-48650000D01*
X192367802Y-49350001D02*
X194835600Y-49350001D01*
X184617800Y-47974999D02*
X185292801Y-48650000D01*
D32*
%TO.N,/GATE1*%
X197400000Y-45300000D02*
X197200000Y-45500000D01*
X197200000Y-45875000D02*
X195675000Y-47400000D01*
X197200000Y-45500000D02*
X197200000Y-45875000D01*
X197750000Y-45300000D02*
X197400000Y-45300000D01*
X195675000Y-47400000D02*
X194835600Y-47400000D01*
%TO.N,/GATE2*%
X199750000Y-45500000D02*
X199750000Y-45900000D01*
X199250000Y-45300003D02*
X199550003Y-45300003D01*
X199550003Y-45300003D02*
X199750000Y-45500000D01*
X199750000Y-45900000D02*
X201250000Y-47400000D01*
X201250000Y-47400000D02*
X202100000Y-47400000D01*
%TO.N,/SOURCE2*%
X199950000Y-44500000D02*
X200150000Y-44700000D01*
X199250000Y-44500000D02*
X199950000Y-44500000D01*
X200150000Y-45650000D02*
X201249999Y-46749999D01*
X200150000Y-44700000D02*
X200150000Y-45650000D01*
X201249999Y-46749999D02*
X202100000Y-46749999D01*
D34*
%TO.N,/OV1*%
X189417800Y-49699999D02*
X189717801Y-50000000D01*
X182541801Y-46049000D02*
X180668214Y-46049000D01*
X185168123Y-48951000D02*
X185167123Y-48950000D01*
D32*
X179485000Y-49225000D02*
X181000000Y-49225000D01*
D34*
X182299447Y-49225000D02*
X181000000Y-49225000D01*
X189717801Y-50000000D02*
X194835600Y-50000000D01*
X183017800Y-46524999D02*
X182541801Y-46049000D01*
X182573447Y-48951000D02*
X182299447Y-49225000D01*
X180668214Y-46049000D02*
X180199000Y-46518214D01*
X185063153Y-48950000D02*
X185062153Y-48951000D01*
X187293477Y-48950000D02*
X187292477Y-48951000D01*
X183017800Y-47974999D02*
X183017800Y-46524999D01*
X189417800Y-49699999D02*
X189417800Y-48049999D01*
D32*
X175310000Y-53400000D02*
X179485000Y-49225000D01*
D34*
X188667801Y-48950000D02*
X187293477Y-48950000D01*
X180199000Y-48424000D02*
X181000000Y-49225000D01*
X180199000Y-46518214D02*
X180199000Y-48424000D01*
X185062153Y-48951000D02*
X182573447Y-48951000D01*
X187292477Y-48951000D02*
X185168123Y-48951000D01*
X189417800Y-49699999D02*
X188667801Y-48950000D01*
X185167123Y-48950000D02*
X185063153Y-48950000D01*
D32*
%TO.N,/SOURCE1*%
X196800000Y-44700000D02*
X196800000Y-45650000D01*
X197000000Y-44500000D02*
X196800000Y-44700000D01*
X196800000Y-45650000D02*
X195699999Y-46750001D01*
X195699999Y-46750001D02*
X194835600Y-46750001D01*
X197750000Y-44500000D02*
X197000000Y-44500000D01*
D34*
%TO.N,/OV2*%
X207225000Y-50000000D02*
X207525000Y-49700000D01*
X215700000Y-48950000D02*
X216000000Y-49250000D01*
D32*
X217440000Y-49250000D02*
X216000000Y-49250000D01*
D34*
X202100000Y-50000000D02*
X207225000Y-50000000D01*
X216751000Y-48499000D02*
X216751000Y-46513925D01*
X216000000Y-49250000D02*
X216751000Y-48499000D01*
X208275000Y-48950000D02*
X215700000Y-48950000D01*
D32*
X213975000Y-46509500D02*
X213975000Y-48000000D01*
D34*
X207525000Y-49700000D02*
X208275000Y-48950000D01*
X207525000Y-49700000D02*
X207525000Y-48050000D01*
X214426000Y-46074000D02*
X213990500Y-46509500D01*
X213990500Y-46509500D02*
X213975000Y-46509500D01*
D32*
X221590000Y-53400000D02*
X217440000Y-49250000D01*
D34*
X216311075Y-46074000D02*
X214426000Y-46074000D01*
X216751000Y-46513925D02*
X216311075Y-46074000D01*
D32*
%TO.N,/RETRY*%
X194516000Y-61901000D02*
X198539000Y-61901000D01*
X201701000Y-57974110D02*
X201701000Y-56751000D01*
X200975000Y-56025000D02*
X200975000Y-54850000D01*
X194490000Y-61875000D02*
X194516000Y-61901000D01*
X201399110Y-58276000D02*
X201701000Y-57974110D01*
X200975000Y-54850000D02*
X201275002Y-54549998D01*
X201701000Y-56751000D02*
X200975000Y-56025000D01*
X199690000Y-59892900D02*
X201306900Y-58276000D01*
X201306900Y-58276000D02*
X201399110Y-58276000D01*
X201275002Y-54549998D02*
X202100000Y-54549998D01*
X198539000Y-61901000D02*
X199690000Y-60750000D01*
X199690000Y-60750000D02*
X199690000Y-59892900D01*
%TO.N,/SHDN*%
X205101036Y-67236000D02*
X207968500Y-67236000D01*
X204182518Y-66317482D02*
X205101036Y-67236000D01*
X204130000Y-54770000D02*
X204130000Y-66264964D01*
X202985036Y-66264964D02*
X202250000Y-67000000D01*
X209734999Y-68082499D02*
X210767498Y-67050000D01*
X203259999Y-53899999D02*
X204130000Y-54770000D01*
X207968500Y-67236000D02*
X208814999Y-68082499D01*
X208814999Y-68082499D02*
X209734999Y-68082499D01*
X204130000Y-66264964D02*
X202985036Y-66264964D01*
X202100000Y-53899999D02*
X203259999Y-53899999D01*
X204182518Y-66317482D02*
X204130000Y-66264964D01*
%TO.N,Net-(Q9-G)*%
X212642499Y-68000000D02*
X214492500Y-68000000D01*
X214492500Y-68000000D02*
X214584999Y-68092499D01*
%TO.N,/IO_CONN/CHL2*%
X214490000Y-54600000D02*
X213592960Y-54600000D01*
X213592960Y-54600000D02*
X213524960Y-54668000D01*
%TO.N,/IO_CONN/CHL1*%
X181800000Y-54624960D02*
X181766000Y-54658960D01*
X182716000Y-54624960D02*
X181800000Y-54624960D01*
%TO.N,Net-(C5-Pad2)*%
X195740000Y-67200000D02*
X197240000Y-67200000D01*
%TO.N,Net-(D1-A)*%
X217072500Y-56650000D02*
X217072500Y-58285000D01*
X217072500Y-58285000D02*
X217087500Y-58300000D01*
%TO.N,Net-(D2-A)*%
X179837500Y-58155000D02*
X179780000Y-58212500D01*
X179837500Y-56575000D02*
X179837500Y-58155000D01*
%TO.N,Net-(D3-A)*%
X213912500Y-56650000D02*
X213912500Y-58287500D01*
X213912500Y-58287500D02*
X213925000Y-58300000D01*
%TO.N,Net-(D4-A)*%
X183000000Y-58162500D02*
X182962500Y-58200000D01*
X183000000Y-56562500D02*
X183000000Y-58162500D01*
%TO.N,Net-(D5-A)*%
X176537500Y-56650000D02*
X176587500Y-56600000D01*
X176537500Y-58250000D02*
X176537500Y-56650000D01*
X176630000Y-58195000D02*
X176612500Y-58212500D01*
%TO.N,Net-(D6-A)*%
X222075000Y-56500000D02*
X222075000Y-58120000D01*
%TO.N,Net-(Q10-G)*%
X217596501Y-68793499D02*
X218400000Y-67990000D01*
X206804999Y-68087499D02*
X207510999Y-68793499D01*
X207510999Y-68793499D02*
X217596501Y-68793499D01*
%TO.N,Net-(Q10-D)*%
X220350000Y-68075000D02*
X219125000Y-66850000D01*
X219125000Y-66850000D02*
X216714999Y-66850000D01*
X215927498Y-66442499D02*
X216524999Y-67040000D01*
X216714999Y-66850000D02*
X216524999Y-67040000D01*
X214584999Y-66442499D02*
X215927498Y-66442499D01*
%TO.N,/OUT2*%
X199250000Y-42900000D02*
X200450000Y-42900000D01*
X200450000Y-42900000D02*
X200950000Y-43400000D01*
X200950000Y-43400000D02*
X200950000Y-45225000D01*
X200950000Y-45225000D02*
X201174999Y-45449999D01*
X201174999Y-45449999D02*
X202100000Y-45449999D01*
%TD*%
%TA.AperFunction,Conductor*%
%TO.N,GND*%
G36*
X180656051Y-57029075D02*
G01*
X180700219Y-57073231D01*
X180700888Y-57072731D01*
X180704366Y-57077378D01*
X180705463Y-57078474D01*
X180705469Y-57078486D01*
X180706204Y-57079832D01*
X180792452Y-57195044D01*
X180792455Y-57195047D01*
X180907664Y-57281293D01*
X180907673Y-57281298D01*
X181012185Y-57320278D01*
X181068119Y-57362149D01*
X181092537Y-57427613D01*
X181077686Y-57495886D01*
X181028281Y-57545292D01*
X181025148Y-57546945D01*
X180919546Y-57600752D01*
X180919541Y-57600755D01*
X180825755Y-57694541D01*
X180825752Y-57694545D01*
X180765529Y-57812740D01*
X180757084Y-57866061D01*
X180727154Y-57929196D01*
X180667842Y-57966126D01*
X180597980Y-57965128D01*
X180539747Y-57926517D01*
X180511634Y-57862553D01*
X180511531Y-57861731D01*
X180507979Y-57832154D01*
X180455615Y-57699368D01*
X180435720Y-57673133D01*
X180369368Y-57585634D01*
X180369365Y-57585632D01*
X180316665Y-57545668D01*
X180287074Y-57523228D01*
X180284593Y-57519870D01*
X180280797Y-57518137D01*
X180264009Y-57492014D01*
X180245551Y-57467035D01*
X180244635Y-57461867D01*
X180243023Y-57459359D01*
X180238000Y-57424424D01*
X180238000Y-57387180D01*
X180257685Y-57320141D01*
X180287687Y-57287914D01*
X180395046Y-57207546D01*
X180481296Y-57092331D01*
X180481297Y-57092326D01*
X180485547Y-57084546D01*
X180487268Y-57085486D01*
X180522315Y-57038657D01*
X180587776Y-57014232D01*
X180656051Y-57029075D01*
G37*
%TD.AperFunction*%
%TA.AperFunction,Conductor*%
G36*
X223821431Y-33570185D02*
G01*
X223867186Y-33622989D01*
X223877130Y-33692147D01*
X223848105Y-33755703D01*
X223823283Y-33777602D01*
X223812248Y-33784974D01*
X223812234Y-33784985D01*
X223546367Y-34003176D01*
X223303176Y-34246367D01*
X223084985Y-34512234D01*
X223084975Y-34512248D01*
X222893904Y-34798206D01*
X222893893Y-34798224D01*
X222731772Y-35101530D01*
X222731770Y-35101535D01*
X222600150Y-35419293D01*
X222500308Y-35748427D01*
X222433210Y-36085750D01*
X222399500Y-36428034D01*
X222399500Y-36771965D01*
X222433210Y-37114249D01*
X222500308Y-37451572D01*
X222600150Y-37780706D01*
X222731770Y-38098464D01*
X222731772Y-38098469D01*
X222893893Y-38401775D01*
X222893904Y-38401793D01*
X223084975Y-38687751D01*
X223084985Y-38687765D01*
X223303176Y-38953632D01*
X223546367Y-39196823D01*
X223546372Y-39196827D01*
X223546373Y-39196828D01*
X223812240Y-39415019D01*
X224098213Y-39606100D01*
X224098222Y-39606105D01*
X224098224Y-39606106D01*
X224401530Y-39768227D01*
X224401532Y-39768227D01*
X224401538Y-39768231D01*
X224719295Y-39899850D01*
X225048422Y-39999690D01*
X225385750Y-40066789D01*
X225728031Y-40100500D01*
X225728034Y-40100500D01*
X226071966Y-40100500D01*
X226071969Y-40100500D01*
X226414250Y-40066789D01*
X226751578Y-39999690D01*
X227080705Y-39899850D01*
X227398462Y-39768231D01*
X227701787Y-39606100D01*
X227987760Y-39415019D01*
X228253627Y-39196828D01*
X228496828Y-38953627D01*
X228715019Y-38687760D01*
X228722396Y-38676718D01*
X228776007Y-38631912D01*
X228845332Y-38623203D01*
X228908360Y-38653356D01*
X228945081Y-38712798D01*
X228949500Y-38745607D01*
X228949500Y-65454392D01*
X228929815Y-65521431D01*
X228877011Y-65567186D01*
X228807853Y-65577130D01*
X228744297Y-65548105D01*
X228722398Y-65523283D01*
X228715025Y-65512248D01*
X228715014Y-65512234D01*
X228521759Y-65276751D01*
X228496828Y-65246373D01*
X228496827Y-65246372D01*
X228496823Y-65246367D01*
X228253632Y-65003176D01*
X227987765Y-64784985D01*
X227987764Y-64784984D01*
X227987760Y-64784981D01*
X227719758Y-64605908D01*
X227701793Y-64593904D01*
X227701792Y-64593903D01*
X227701787Y-64593900D01*
X227701782Y-64593897D01*
X227701775Y-64593893D01*
X227398469Y-64431772D01*
X227398464Y-64431770D01*
X227080706Y-64300150D01*
X226751572Y-64200308D01*
X226414248Y-64133210D01*
X226414249Y-64133210D01*
X226156456Y-64107821D01*
X226071969Y-64099500D01*
X225728031Y-64099500D01*
X225649966Y-64107188D01*
X225385750Y-64133210D01*
X225048427Y-64200308D01*
X224719293Y-64300150D01*
X224401535Y-64431770D01*
X224401530Y-64431772D01*
X224098224Y-64593893D01*
X224098206Y-64593904D01*
X223812248Y-64784975D01*
X223812234Y-64784985D01*
X223546367Y-65003176D01*
X223303176Y-65246367D01*
X223084985Y-65512234D01*
X223084975Y-65512248D01*
X222893904Y-65798206D01*
X222893893Y-65798224D01*
X222731772Y-66101530D01*
X222731770Y-66101535D01*
X222600150Y-66419293D01*
X222500308Y-66748427D01*
X222433210Y-67085750D01*
X222409737Y-67324088D01*
X222399500Y-67428031D01*
X222399500Y-67771969D01*
X222406656Y-67844627D01*
X222433210Y-68114249D01*
X222500308Y-68451572D01*
X222600150Y-68780706D01*
X222644837Y-68888589D01*
X222707308Y-69039409D01*
X222731770Y-69098464D01*
X222731772Y-69098469D01*
X222893893Y-69401775D01*
X222893904Y-69401793D01*
X223084975Y-69687751D01*
X223084985Y-69687765D01*
X223303176Y-69953632D01*
X223546367Y-70196823D01*
X223812234Y-70415014D01*
X223812248Y-70415025D01*
X223823283Y-70422398D01*
X223868088Y-70476011D01*
X223876795Y-70545336D01*
X223846640Y-70608363D01*
X223787197Y-70645082D01*
X223754392Y-70649500D01*
X173045608Y-70649500D01*
X172978569Y-70629815D01*
X172932814Y-70577011D01*
X172922870Y-70507853D01*
X172951895Y-70444297D01*
X172976717Y-70422398D01*
X172987751Y-70415025D01*
X172987750Y-70415025D01*
X172987760Y-70415019D01*
X173253627Y-70196828D01*
X173496828Y-69953627D01*
X173715019Y-69687760D01*
X173906100Y-69401787D01*
X174068231Y-69098462D01*
X174199850Y-68780705D01*
X174299690Y-68451578D01*
X174366789Y-68114250D01*
X174400500Y-67771969D01*
X174400500Y-67428031D01*
X174366789Y-67085750D01*
X174299690Y-66748422D01*
X174199850Y-66419295D01*
X174068231Y-66101538D01*
X173906100Y-65798213D01*
X173715019Y-65512240D01*
X173496828Y-65246373D01*
X173496827Y-65246372D01*
X173496823Y-65246367D01*
X173253632Y-65003176D01*
X172987765Y-64784985D01*
X172987764Y-64784984D01*
X172987760Y-64784981D01*
X172719758Y-64605908D01*
X172701793Y-64593904D01*
X172701792Y-64593903D01*
X172701787Y-64593900D01*
X172701782Y-64593897D01*
X172701775Y-64593893D01*
X172514654Y-64493875D01*
X172398462Y-64431769D01*
X172297763Y-64390058D01*
X172294183Y-64388575D01*
X175800000Y-64388575D01*
X175800000Y-64611424D01*
X175829085Y-64832354D01*
X175829088Y-64832367D01*
X175886763Y-65047618D01*
X175972041Y-65253497D01*
X175972044Y-65253502D01*
X176074339Y-65430684D01*
X176589657Y-64915366D01*
X176613811Y-64973678D01*
X176723249Y-65137463D01*
X176862537Y-65276751D01*
X177026322Y-65386189D01*
X177084631Y-65410341D01*
X176569313Y-65925659D01*
X176746497Y-66027955D01*
X176746502Y-66027958D01*
X176952381Y-66113236D01*
X177167632Y-66170911D01*
X177167645Y-66170914D01*
X177388575Y-66200000D01*
X177611425Y-66200000D01*
X177832354Y-66170914D01*
X177832367Y-66170911D01*
X178047618Y-66113236D01*
X178253502Y-66027954D01*
X178253513Y-66027949D01*
X178430684Y-65925659D01*
X178430685Y-65925658D01*
X177915368Y-65410341D01*
X177973678Y-65386189D01*
X178137463Y-65276751D01*
X178276751Y-65137463D01*
X178386189Y-64973678D01*
X178410341Y-64915368D01*
X178925658Y-65430685D01*
X178925659Y-65430684D01*
X179027949Y-65253513D01*
X179027954Y-65253502D01*
X179113236Y-65047618D01*
X179170911Y-64832367D01*
X179170914Y-64832354D01*
X179200000Y-64611424D01*
X179200000Y-64388575D01*
X179170914Y-64167645D01*
X179170911Y-64167632D01*
X179113236Y-63952381D01*
X179027958Y-63746502D01*
X179027955Y-63746497D01*
X178925659Y-63569314D01*
X178925659Y-63569313D01*
X178410341Y-64084631D01*
X178386189Y-64026322D01*
X178276751Y-63862537D01*
X178137463Y-63723249D01*
X177973678Y-63613811D01*
X177915367Y-63589657D01*
X178430685Y-63074339D01*
X178253502Y-62972044D01*
X178253497Y-62972041D01*
X178047618Y-62886763D01*
X177832367Y-62829088D01*
X177832354Y-62829085D01*
X177611425Y-62800000D01*
X177388575Y-62800000D01*
X177167645Y-62829085D01*
X177167632Y-62829088D01*
X176952381Y-62886763D01*
X176746502Y-62972041D01*
X176746497Y-62972044D01*
X176569314Y-63074339D01*
X177084632Y-63589657D01*
X177026322Y-63613811D01*
X176862537Y-63723249D01*
X176723249Y-63862537D01*
X176613811Y-64026322D01*
X176589658Y-64084632D01*
X176074339Y-63569314D01*
X175972044Y-63746497D01*
X175972041Y-63746502D01*
X175886763Y-63952381D01*
X175829088Y-64167632D01*
X175829085Y-64167645D01*
X175800000Y-64388575D01*
X172294183Y-64388575D01*
X172080706Y-64300150D01*
X171751572Y-64200308D01*
X171414248Y-64133210D01*
X171414249Y-64133210D01*
X171156456Y-64107821D01*
X171071969Y-64099500D01*
X170728031Y-64099500D01*
X170649966Y-64107188D01*
X170385750Y-64133210D01*
X170048427Y-64200308D01*
X169719293Y-64300150D01*
X169401535Y-64431770D01*
X169401530Y-64431772D01*
X169098224Y-64593893D01*
X169098206Y-64593904D01*
X168812248Y-64784975D01*
X168812234Y-64784985D01*
X168546367Y-65003176D01*
X168303176Y-65246367D01*
X168084985Y-65512234D01*
X168084974Y-65512248D01*
X168077602Y-65523283D01*
X168023989Y-65568088D01*
X167954664Y-65576795D01*
X167891637Y-65546640D01*
X167854918Y-65487197D01*
X167850500Y-65454392D01*
X167850500Y-61347648D01*
X170049500Y-61347648D01*
X170049500Y-61552351D01*
X170081522Y-61754534D01*
X170144781Y-61949223D01*
X170237715Y-62131613D01*
X170358028Y-62297213D01*
X170502786Y-62441971D01*
X170651478Y-62550000D01*
X170668390Y-62562287D01*
X170784607Y-62621503D01*
X170850776Y-62655218D01*
X170850778Y-62655218D01*
X170850781Y-62655220D01*
X170883728Y-62665925D01*
X171045465Y-62718477D01*
X171146557Y-62734488D01*
X171247648Y-62750500D01*
X171247649Y-62750500D01*
X171452351Y-62750500D01*
X171452352Y-62750500D01*
X171654534Y-62718477D01*
X171849219Y-62655220D01*
X172031610Y-62562287D01*
X172159443Y-62469412D01*
X172197213Y-62441971D01*
X172197215Y-62441968D01*
X172197219Y-62441966D01*
X172341966Y-62297219D01*
X172341968Y-62297215D01*
X172341971Y-62297213D01*
X172425326Y-62182483D01*
X172462287Y-62131610D01*
X172555220Y-61949219D01*
X172618477Y-61754534D01*
X172650500Y-61552352D01*
X172650500Y-61347648D01*
X174199500Y-61347648D01*
X174199500Y-61552351D01*
X174231522Y-61754534D01*
X174294781Y-61949223D01*
X174387715Y-62131613D01*
X174508028Y-62297213D01*
X174652786Y-62441971D01*
X174801478Y-62550000D01*
X174818390Y-62562287D01*
X174934607Y-62621503D01*
X175000776Y-62655218D01*
X175000778Y-62655218D01*
X175000781Y-62655220D01*
X175033728Y-62665925D01*
X175195465Y-62718477D01*
X175296557Y-62734488D01*
X175397648Y-62750500D01*
X175397649Y-62750500D01*
X175602351Y-62750500D01*
X175602352Y-62750500D01*
X175804534Y-62718477D01*
X175999219Y-62655220D01*
X176181610Y-62562287D01*
X176309443Y-62469412D01*
X176347213Y-62441971D01*
X176347215Y-62441968D01*
X176347219Y-62441966D01*
X176491966Y-62297219D01*
X176491968Y-62297215D01*
X176491971Y-62297213D01*
X176575326Y-62182483D01*
X176612287Y-62131610D01*
X176705220Y-61949219D01*
X176768477Y-61754534D01*
X176800500Y-61552352D01*
X176800500Y-61347648D01*
X176797752Y-61330297D01*
X176768477Y-61145465D01*
X176728286Y-61021770D01*
X176705220Y-60950781D01*
X176705218Y-60950778D01*
X176705218Y-60950776D01*
X176649052Y-60840546D01*
X176612287Y-60768390D01*
X176600950Y-60752786D01*
X176491971Y-60602786D01*
X176347213Y-60458028D01*
X176181613Y-60337715D01*
X176181612Y-60337714D01*
X176181610Y-60337713D01*
X176076340Y-60284075D01*
X175999223Y-60244781D01*
X175804534Y-60181522D01*
X175629995Y-60153878D01*
X175602352Y-60149500D01*
X175397648Y-60149500D01*
X175373329Y-60153351D01*
X175195465Y-60181522D01*
X175000776Y-60244781D01*
X174818386Y-60337715D01*
X174652786Y-60458028D01*
X174508028Y-60602786D01*
X174387715Y-60768386D01*
X174294781Y-60950776D01*
X174231522Y-61145465D01*
X174199500Y-61347648D01*
X172650500Y-61347648D01*
X172647752Y-61330297D01*
X172618477Y-61145465D01*
X172578286Y-61021770D01*
X172555220Y-60950781D01*
X172555218Y-60950778D01*
X172555218Y-60950776D01*
X172499052Y-60840546D01*
X172462287Y-60768390D01*
X172450950Y-60752786D01*
X172341971Y-60602786D01*
X172197213Y-60458028D01*
X172031613Y-60337715D01*
X172031612Y-60337714D01*
X172031610Y-60337713D01*
X171926340Y-60284075D01*
X171849223Y-60244781D01*
X171654534Y-60181522D01*
X171479995Y-60153878D01*
X171452352Y-60149500D01*
X171247648Y-60149500D01*
X171223329Y-60153351D01*
X171045465Y-60181522D01*
X170850776Y-60244781D01*
X170668386Y-60337715D01*
X170502786Y-60458028D01*
X170358028Y-60602786D01*
X170237715Y-60768386D01*
X170144781Y-60950776D01*
X170081522Y-61145465D01*
X170049500Y-61347648D01*
X167850500Y-61347648D01*
X167850500Y-58600000D01*
X174334628Y-58600000D01*
X174340529Y-58637259D01*
X174400752Y-58755454D01*
X174494550Y-58849251D01*
X174612499Y-58909348D01*
X174612500Y-58909348D01*
X174612500Y-58600000D01*
X174334628Y-58600000D01*
X167850500Y-58600000D01*
X167850500Y-52530297D01*
X171720000Y-52530297D01*
X171720000Y-53050000D01*
X172412894Y-53050000D01*
X172369901Y-53092993D01*
X172304075Y-53207007D01*
X172270000Y-53334174D01*
X172270000Y-53465826D01*
X172304075Y-53592993D01*
X172369901Y-53707007D01*
X172412894Y-53750000D01*
X171720000Y-53750000D01*
X171720000Y-54269702D01*
X171731602Y-54328033D01*
X171731603Y-54328034D01*
X171775808Y-54394191D01*
X171841965Y-54438396D01*
X171841966Y-54438397D01*
X171900297Y-54449999D01*
X171900301Y-54450000D01*
X172420000Y-54450000D01*
X172420000Y-53757106D01*
X172462993Y-53800099D01*
X172577007Y-53865925D01*
X172704174Y-53900000D01*
X172835826Y-53900000D01*
X172962993Y-53865925D01*
X173077007Y-53800099D01*
X173120000Y-53757106D01*
X173120000Y-54450000D01*
X173639699Y-54450000D01*
X173639702Y-54449999D01*
X173698033Y-54438397D01*
X173698034Y-54438396D01*
X173764191Y-54394191D01*
X173808396Y-54328034D01*
X173808397Y-54328033D01*
X173819999Y-54269702D01*
X173820000Y-54269699D01*
X173820000Y-53750000D01*
X173127106Y-53750000D01*
X173170099Y-53707007D01*
X173235925Y-53592993D01*
X173270000Y-53465826D01*
X173270000Y-53334174D01*
X173235925Y-53207007D01*
X173170099Y-53092993D01*
X173127106Y-53050000D01*
X173820000Y-53050000D01*
X173820000Y-52530301D01*
X173819999Y-52530297D01*
X173808397Y-52471966D01*
X173808396Y-52471965D01*
X173764191Y-52405808D01*
X173698034Y-52361603D01*
X173698033Y-52361602D01*
X173639702Y-52350000D01*
X173120000Y-52350000D01*
X173120000Y-53042894D01*
X173077007Y-52999901D01*
X172962993Y-52934075D01*
X172835826Y-52900000D01*
X172704174Y-52900000D01*
X172577007Y-52934075D01*
X172462993Y-52999901D01*
X172420000Y-53042894D01*
X172420000Y-52350000D01*
X171900297Y-52350000D01*
X171841966Y-52361602D01*
X171841965Y-52361603D01*
X171775808Y-52405808D01*
X171731603Y-52471965D01*
X171731602Y-52471966D01*
X171720000Y-52530297D01*
X167850500Y-52530297D01*
X167850500Y-45159448D01*
X171599500Y-45159448D01*
X171599500Y-45340551D01*
X171627829Y-45519410D01*
X171683787Y-45691636D01*
X171683788Y-45691639D01*
X171724572Y-45771680D01*
X171758997Y-45839243D01*
X171766006Y-45852997D01*
X171872441Y-45999494D01*
X171872445Y-45999499D01*
X172000500Y-46127554D01*
X172000505Y-46127558D01*
X172065115Y-46174499D01*
X172147006Y-46233996D01*
X172201235Y-46261627D01*
X172308360Y-46316211D01*
X172308363Y-46316212D01*
X172360116Y-46333027D01*
X172480591Y-46372171D01*
X172584716Y-46388662D01*
X172612270Y-46393027D01*
X172675405Y-46422956D01*
X172712336Y-46482268D01*
X172711338Y-46552130D01*
X172672728Y-46610363D01*
X172608765Y-46638477D01*
X172592872Y-46639500D01*
X171855143Y-46639500D01*
X171855117Y-46639502D01*
X171830012Y-46642413D01*
X171830008Y-46642415D01*
X171727235Y-46687793D01*
X171647794Y-46767234D01*
X171602415Y-46870006D01*
X171602415Y-46870008D01*
X171599500Y-46895131D01*
X171599500Y-48684856D01*
X171599502Y-48684882D01*
X171602413Y-48709987D01*
X171602415Y-48709991D01*
X171647793Y-48812764D01*
X171647794Y-48812765D01*
X171727235Y-48892206D01*
X171830009Y-48937585D01*
X171855135Y-48940500D01*
X173644864Y-48940499D01*
X173644879Y-48940497D01*
X173644882Y-48940497D01*
X173669987Y-48937586D01*
X173669988Y-48937585D01*
X173669991Y-48937585D01*
X173772765Y-48892206D01*
X173852206Y-48812765D01*
X173897585Y-48709991D01*
X173900500Y-48684865D01*
X173900499Y-47092599D01*
X173920184Y-47025561D01*
X173972987Y-46979806D01*
X174024499Y-46968600D01*
X175325500Y-46968600D01*
X175392539Y-46988285D01*
X175438294Y-47041089D01*
X175449500Y-47092600D01*
X175449500Y-48684856D01*
X175449502Y-48684882D01*
X175452413Y-48709987D01*
X175452415Y-48709991D01*
X175497793Y-48812764D01*
X175497794Y-48812765D01*
X175577235Y-48892206D01*
X175680009Y-48937585D01*
X175705135Y-48940500D01*
X177494864Y-48940499D01*
X177494879Y-48940497D01*
X177494882Y-48940497D01*
X177519987Y-48937586D01*
X177519988Y-48937585D01*
X177519991Y-48937585D01*
X177622765Y-48892206D01*
X177702206Y-48812765D01*
X177747585Y-48709991D01*
X177750500Y-48684865D01*
X177750499Y-47092599D01*
X177770184Y-47025561D01*
X177822987Y-46979806D01*
X177874499Y-46968600D01*
X179148902Y-46968600D01*
X179215941Y-46988285D01*
X179236583Y-47004919D01*
X179280284Y-47048620D01*
X179280286Y-47048621D01*
X179280290Y-47048624D01*
X179417209Y-47127673D01*
X179417216Y-47127677D01*
X179569943Y-47168600D01*
X179569945Y-47168600D01*
X179724500Y-47168600D01*
X179791539Y-47188285D01*
X179837294Y-47241089D01*
X179848500Y-47292600D01*
X179848500Y-48470145D01*
X179867379Y-48540604D01*
X179872385Y-48559286D01*
X179872385Y-48559287D01*
X179890414Y-48590514D01*
X179918119Y-48638500D01*
X179934592Y-48706400D01*
X179911740Y-48772427D01*
X179856819Y-48815617D01*
X179810732Y-48824500D01*
X179545339Y-48824500D01*
X179545323Y-48824499D01*
X179537727Y-48824499D01*
X179432273Y-48824499D01*
X179391763Y-48835354D01*
X179330412Y-48851793D01*
X179239084Y-48904522D01*
X179164518Y-48979089D01*
X175849280Y-52294325D01*
X175787957Y-52327810D01*
X175723281Y-52324575D01*
X175579410Y-52277829D01*
X175400551Y-52249500D01*
X175400546Y-52249500D01*
X175219454Y-52249500D01*
X175219449Y-52249500D01*
X175040589Y-52277829D01*
X174868363Y-52333787D01*
X174868360Y-52333788D01*
X174707002Y-52416006D01*
X174560505Y-52522441D01*
X174560500Y-52522445D01*
X174432445Y-52650500D01*
X174432441Y-52650505D01*
X174326006Y-52797002D01*
X174243788Y-52958360D01*
X174243787Y-52958363D01*
X174187829Y-53130589D01*
X174159500Y-53309448D01*
X174159500Y-53490551D01*
X174187829Y-53669410D01*
X174243787Y-53841636D01*
X174243788Y-53841639D01*
X174293470Y-53939143D01*
X174324915Y-54000857D01*
X174326006Y-54002997D01*
X174432441Y-54149494D01*
X174432445Y-54149499D01*
X174560500Y-54277554D01*
X174560505Y-54277558D01*
X174632019Y-54329515D01*
X174707006Y-54383996D01*
X174801988Y-54432392D01*
X174868360Y-54466211D01*
X174868363Y-54466212D01*
X174954476Y-54494191D01*
X175040591Y-54522171D01*
X175123429Y-54535291D01*
X175219449Y-54550500D01*
X175219454Y-54550500D01*
X175400551Y-54550500D01*
X175487259Y-54536765D01*
X175579409Y-54522171D01*
X175751639Y-54466211D01*
X175912994Y-54383996D01*
X176059501Y-54277553D01*
X176187553Y-54149501D01*
X176293996Y-54002994D01*
X176376211Y-53841639D01*
X176432171Y-53669409D01*
X176453318Y-53535892D01*
X176460500Y-53490551D01*
X176460500Y-53309448D01*
X176437437Y-53163841D01*
X176432171Y-53130591D01*
X176385424Y-52986716D01*
X176383429Y-52916875D01*
X176415672Y-52860719D01*
X179614573Y-49661819D01*
X179675896Y-49628334D01*
X179702254Y-49625500D01*
X180238573Y-49625500D01*
X180305612Y-49645185D01*
X180341675Y-49680610D01*
X180378207Y-49735284D01*
X180378213Y-49735292D01*
X180489707Y-49846786D01*
X180489711Y-49846789D01*
X180620814Y-49934390D01*
X180620827Y-49934397D01*
X180766498Y-49994735D01*
X180766503Y-49994737D01*
X180921153Y-50025499D01*
X180921156Y-50025500D01*
X180921158Y-50025500D01*
X181078844Y-50025500D01*
X181078845Y-50025499D01*
X181233497Y-49994737D01*
X181281149Y-49974999D01*
X182370299Y-49974999D01*
X182415160Y-50063045D01*
X182415163Y-50063049D01*
X182504749Y-50152635D01*
X182504753Y-50152638D01*
X182617653Y-50210163D01*
X182667799Y-50218105D01*
X182667800Y-50218105D01*
X182667800Y-50218104D01*
X183367800Y-50218104D01*
X183417951Y-50210162D01*
X183417954Y-50210161D01*
X183530841Y-50152642D01*
X183530850Y-50152635D01*
X183620436Y-50063049D01*
X183620439Y-50063045D01*
X183665301Y-49974999D01*
X183970299Y-49974999D01*
X184015160Y-50063045D01*
X184015163Y-50063049D01*
X184104749Y-50152635D01*
X184104753Y-50152638D01*
X184217653Y-50210163D01*
X184267799Y-50218105D01*
X184267800Y-50218105D01*
X184267800Y-50218104D01*
X184967800Y-50218104D01*
X185017951Y-50210162D01*
X185017954Y-50210161D01*
X185130841Y-50152642D01*
X185130850Y-50152635D01*
X185220436Y-50063049D01*
X185220439Y-50063045D01*
X185265301Y-49974999D01*
X185570299Y-49974999D01*
X185615160Y-50063045D01*
X185615163Y-50063049D01*
X185704749Y-50152635D01*
X185704753Y-50152638D01*
X185817653Y-50210163D01*
X185867799Y-50218105D01*
X185867800Y-50218105D01*
X185867800Y-50218104D01*
X186567800Y-50218104D01*
X186617951Y-50210162D01*
X186617954Y-50210161D01*
X186730841Y-50152642D01*
X186730850Y-50152635D01*
X186820436Y-50063049D01*
X186820439Y-50063045D01*
X186865301Y-49974999D01*
X186567800Y-49974999D01*
X186567800Y-50218104D01*
X185867800Y-50218104D01*
X185867800Y-49974999D01*
X185570299Y-49974999D01*
X185265301Y-49974999D01*
X184967800Y-49974999D01*
X184967800Y-50218104D01*
X184267800Y-50218104D01*
X184267800Y-49974999D01*
X183970299Y-49974999D01*
X183665301Y-49974999D01*
X183367800Y-49974999D01*
X183367800Y-50218104D01*
X182667800Y-50218104D01*
X182667800Y-49974999D01*
X182370299Y-49974999D01*
X181281149Y-49974999D01*
X181379179Y-49934394D01*
X181379185Y-49934390D01*
X181481064Y-49866317D01*
X181492937Y-49858382D01*
X181510289Y-49846789D01*
X181621789Y-49735289D01*
X181691734Y-49630608D01*
X181745346Y-49585804D01*
X181794836Y-49575500D01*
X182345589Y-49575500D01*
X182345591Y-49575500D01*
X182434735Y-49551614D01*
X182445359Y-49545480D01*
X182514659Y-49505470D01*
X182682310Y-49337819D01*
X182743633Y-49304334D01*
X182769991Y-49301500D01*
X187076107Y-49301500D01*
X187143146Y-49321185D01*
X187170397Y-49344969D01*
X187174693Y-49349999D01*
X188360906Y-49349999D01*
X188366058Y-49343967D01*
X188366444Y-49343714D01*
X188366635Y-49343297D01*
X188395651Y-49324649D01*
X188424566Y-49305775D01*
X188425156Y-49305687D01*
X188425413Y-49305523D01*
X188460348Y-49300500D01*
X188471257Y-49300500D01*
X188538296Y-49320185D01*
X188558938Y-49336819D01*
X188680981Y-49458862D01*
X188714466Y-49520185D01*
X188717300Y-49546543D01*
X188717300Y-50022869D01*
X188717301Y-50022875D01*
X188723708Y-50082482D01*
X188774002Y-50217327D01*
X188774006Y-50217334D01*
X188860252Y-50332543D01*
X188860255Y-50332546D01*
X188918614Y-50376234D01*
X188960485Y-50432168D01*
X188965469Y-50501859D01*
X188931983Y-50563182D01*
X188870660Y-50596666D01*
X188844303Y-50599500D01*
X188139254Y-50599500D01*
X188072215Y-50579815D01*
X188026460Y-50527011D01*
X188016516Y-50457853D01*
X188045541Y-50394297D01*
X188085789Y-50367613D01*
X188084252Y-50364596D01*
X188205841Y-50302642D01*
X188205850Y-50302635D01*
X188295436Y-50213049D01*
X188295439Y-50213045D01*
X188352964Y-50100145D01*
X188360906Y-50049999D01*
X187174693Y-50049999D01*
X187182635Y-50100145D01*
X187240160Y-50213045D01*
X187240163Y-50213049D01*
X187329749Y-50302635D01*
X187329753Y-50302638D01*
X187451348Y-50364594D01*
X187449692Y-50367843D01*
X187492337Y-50397000D01*
X187519540Y-50461357D01*
X187507630Y-50530204D01*
X187460389Y-50581683D01*
X187396349Y-50599500D01*
X185319259Y-50599500D01*
X185319243Y-50599499D01*
X185311647Y-50599499D01*
X185206193Y-50599499D01*
X185138286Y-50617695D01*
X185104332Y-50626793D01*
X185013004Y-50679522D01*
X184938438Y-50754089D01*
X183528180Y-52164346D01*
X183466857Y-52197831D01*
X183397165Y-52192847D01*
X183341232Y-52150975D01*
X183316815Y-52085511D01*
X183316499Y-52076665D01*
X183316499Y-51864103D01*
X183316499Y-51864096D01*
X183316404Y-51863273D01*
X183313586Y-51838972D01*
X183313585Y-51838970D01*
X183313585Y-51838969D01*
X183268206Y-51736195D01*
X183188765Y-51656754D01*
X183168475Y-51647795D01*
X183085992Y-51611375D01*
X183060865Y-51608460D01*
X182371143Y-51608460D01*
X182371117Y-51608462D01*
X182346012Y-51611373D01*
X182346008Y-51611375D01*
X182243235Y-51656753D01*
X182163794Y-51736194D01*
X182118415Y-51838966D01*
X182118415Y-51838968D01*
X182115500Y-51864091D01*
X182115500Y-51903314D01*
X182095815Y-51970353D01*
X182043011Y-52016108D01*
X181973853Y-52026052D01*
X181959407Y-52023089D01*
X181878409Y-52001386D01*
X181845097Y-51992460D01*
X181686983Y-51992460D01*
X181534256Y-52033383D01*
X181534249Y-52033386D01*
X181397330Y-52112435D01*
X181397322Y-52112441D01*
X181285521Y-52224242D01*
X181285515Y-52224250D01*
X181206466Y-52361169D01*
X181206463Y-52361176D01*
X181165540Y-52513903D01*
X181165540Y-52672017D01*
X181197323Y-52790631D01*
X181206463Y-52824743D01*
X181206466Y-52824750D01*
X181285515Y-52961669D01*
X181285519Y-52961674D01*
X181285520Y-52961676D01*
X181397324Y-53073480D01*
X181397326Y-53073481D01*
X181397330Y-53073484D01*
X181496244Y-53130591D01*
X181534256Y-53152537D01*
X181686983Y-53193460D01*
X181686985Y-53193460D01*
X181845094Y-53193460D01*
X181845097Y-53193460D01*
X181961842Y-53162178D01*
X182031686Y-53163841D01*
X182089549Y-53203003D01*
X182117054Y-53267231D01*
X182117105Y-53267663D01*
X182118414Y-53278949D01*
X182118415Y-53278951D01*
X182163793Y-53381724D01*
X182163794Y-53381725D01*
X182243235Y-53461166D01*
X182346009Y-53506545D01*
X182371135Y-53509460D01*
X183060864Y-53509459D01*
X183060879Y-53509457D01*
X183060882Y-53509457D01*
X183085986Y-53506546D01*
X183085987Y-53506545D01*
X183085991Y-53506545D01*
X183091373Y-53504168D01*
X183125267Y-53499729D01*
X183159107Y-53494864D01*
X183159845Y-53495201D01*
X183160649Y-53495096D01*
X183191553Y-53509681D01*
X183222663Y-53523889D01*
X183223101Y-53524571D01*
X183223834Y-53524917D01*
X183241942Y-53553888D01*
X183260437Y-53582667D01*
X183260588Y-53583720D01*
X183260867Y-53584166D01*
X183265460Y-53617602D01*
X183265460Y-53644065D01*
X183245775Y-53711104D01*
X183201920Y-53749104D01*
X183202713Y-53750261D01*
X183193236Y-53756752D01*
X183113793Y-53836196D01*
X183068415Y-53938966D01*
X183068415Y-53938968D01*
X183067104Y-53950269D01*
X183039823Y-54014593D01*
X182982097Y-54053956D01*
X182912253Y-54055862D01*
X182911837Y-54055751D01*
X182878812Y-54046902D01*
X182795057Y-54024460D01*
X182636943Y-54024460D01*
X182520162Y-54055751D01*
X182450312Y-54054088D01*
X182392450Y-54014925D01*
X182364946Y-53950696D01*
X182364894Y-53950260D01*
X182364816Y-53949585D01*
X182363585Y-53938969D01*
X182360511Y-53932008D01*
X182318206Y-53836195D01*
X182238765Y-53756754D01*
X182135992Y-53711375D01*
X182110865Y-53708460D01*
X181421143Y-53708460D01*
X181421117Y-53708462D01*
X181396012Y-53711373D01*
X181396008Y-53711375D01*
X181293235Y-53756753D01*
X181213794Y-53836194D01*
X181168415Y-53938966D01*
X181168415Y-53938968D01*
X181165500Y-53964091D01*
X181165500Y-55353816D01*
X181165502Y-55353842D01*
X181168413Y-55378947D01*
X181168415Y-55378951D01*
X181213793Y-55481724D01*
X181301360Y-55569291D01*
X181300372Y-55570278D01*
X181336737Y-55614819D01*
X181344647Y-55684240D01*
X181313771Y-55746917D01*
X181253910Y-55782951D01*
X181222481Y-55787000D01*
X181102130Y-55787000D01*
X181102123Y-55787001D01*
X181042516Y-55793408D01*
X180907671Y-55843702D01*
X180907664Y-55843706D01*
X180792455Y-55929952D01*
X180792452Y-55929955D01*
X180706206Y-56045164D01*
X180701953Y-56052954D01*
X180700234Y-56052015D01*
X180665164Y-56098856D01*
X180599698Y-56123269D01*
X180531427Y-56108412D01*
X180487284Y-56064265D01*
X180486612Y-56064769D01*
X180483110Y-56060091D01*
X180482028Y-56059009D01*
X180481294Y-56057666D01*
X180395047Y-55942455D01*
X180395044Y-55942452D01*
X180279835Y-55856206D01*
X180279828Y-55856202D01*
X180144986Y-55805910D01*
X180144985Y-55805909D01*
X180144983Y-55805909D01*
X180085373Y-55799500D01*
X180085363Y-55799500D01*
X179589629Y-55799500D01*
X179589623Y-55799501D01*
X179530016Y-55805908D01*
X179395171Y-55856202D01*
X179395164Y-55856206D01*
X179279955Y-55942452D01*
X179279952Y-55942455D01*
X179193706Y-56057664D01*
X179193702Y-56057671D01*
X179145683Y-56186419D01*
X179143409Y-56192517D01*
X179137000Y-56252127D01*
X179137000Y-56252134D01*
X179137000Y-56252135D01*
X179137000Y-56897870D01*
X179137001Y-56897876D01*
X179143408Y-56957483D01*
X179193702Y-57092328D01*
X179193706Y-57092335D01*
X179279952Y-57207544D01*
X179279953Y-57207544D01*
X179279954Y-57207546D01*
X179325522Y-57241658D01*
X179365882Y-57271872D01*
X179407752Y-57327806D01*
X179412736Y-57397497D01*
X179379250Y-57458820D01*
X179337060Y-57486492D01*
X179304370Y-57499383D01*
X179304368Y-57499384D01*
X179190632Y-57585632D01*
X179104386Y-57699365D01*
X179104383Y-57699371D01*
X179056303Y-57821293D01*
X179013397Y-57876437D01*
X178947489Y-57899630D01*
X178879505Y-57883509D01*
X178831029Y-57833192D01*
X178830464Y-57832097D01*
X178766749Y-57707048D01*
X178766744Y-57707041D01*
X178672958Y-57613255D01*
X178672954Y-57613252D01*
X178546068Y-57548601D01*
X178547562Y-57545668D01*
X178503884Y-57515797D01*
X178476690Y-57451436D01*
X178488610Y-57382591D01*
X178535857Y-57331118D01*
X178556551Y-57321128D01*
X178629826Y-57293798D01*
X178629826Y-57293797D01*
X178629831Y-57293796D01*
X178745046Y-57207546D01*
X178831296Y-57092331D01*
X178881591Y-56957483D01*
X178888000Y-56897873D01*
X178887999Y-56252128D01*
X178881591Y-56192517D01*
X178876928Y-56180016D01*
X178831297Y-56057671D01*
X178831293Y-56057664D01*
X178745047Y-55942455D01*
X178745044Y-55942452D01*
X178629835Y-55856206D01*
X178629828Y-55856202D01*
X178494986Y-55805910D01*
X178494985Y-55805909D01*
X178494983Y-55805909D01*
X178435373Y-55799500D01*
X178435363Y-55799500D01*
X177939629Y-55799500D01*
X177939623Y-55799501D01*
X177880016Y-55805908D01*
X177745171Y-55856202D01*
X177745164Y-55856206D01*
X177629955Y-55942452D01*
X177629952Y-55942455D01*
X177543706Y-56057664D01*
X177543703Y-56057669D01*
X177499019Y-56177473D01*
X177457147Y-56233406D01*
X177391683Y-56257823D01*
X177323410Y-56242971D01*
X177274005Y-56193566D01*
X177266655Y-56177471D01*
X177231298Y-56082673D01*
X177231293Y-56082664D01*
X177145047Y-55967455D01*
X177145044Y-55967452D01*
X177029835Y-55881206D01*
X177029828Y-55881202D01*
X176894986Y-55830910D01*
X176894985Y-55830909D01*
X176894983Y-55830909D01*
X176835373Y-55824500D01*
X176835363Y-55824500D01*
X176339629Y-55824500D01*
X176339623Y-55824501D01*
X176280016Y-55830908D01*
X176145171Y-55881202D01*
X176145164Y-55881206D01*
X176029955Y-55967452D01*
X176029952Y-55967455D01*
X175943706Y-56082664D01*
X175943702Y-56082671D01*
X175893550Y-56217138D01*
X175893409Y-56217517D01*
X175887000Y-56277127D01*
X175887000Y-56277134D01*
X175887000Y-56277135D01*
X175887000Y-56922870D01*
X175887001Y-56922876D01*
X175893408Y-56982483D01*
X175943702Y-57117328D01*
X175943703Y-57117329D01*
X175943704Y-57117331D01*
X176029952Y-57232543D01*
X176029955Y-57232547D01*
X176039098Y-57239391D01*
X176087217Y-57275413D01*
X176087310Y-57275482D01*
X176090046Y-57279137D01*
X176094203Y-57281036D01*
X176110793Y-57306851D01*
X176129182Y-57331415D01*
X176130197Y-57337045D01*
X176131977Y-57339814D01*
X176137000Y-57374749D01*
X176137000Y-57422862D01*
X176117315Y-57489901D01*
X176068812Y-57531928D01*
X176069262Y-57532727D01*
X176065357Y-57534922D01*
X176064511Y-57535656D01*
X176062630Y-57536455D01*
X176061868Y-57536884D01*
X175948132Y-57623132D01*
X175861886Y-57736865D01*
X175861883Y-57736871D01*
X175813803Y-57858793D01*
X175770897Y-57913937D01*
X175704989Y-57937130D01*
X175637005Y-57921009D01*
X175588529Y-57870692D01*
X175587964Y-57869597D01*
X175524249Y-57744547D01*
X175524244Y-57744541D01*
X175430458Y-57650755D01*
X175430454Y-57650752D01*
X175312257Y-57590528D01*
X175302978Y-57587513D01*
X175303543Y-57585773D01*
X175251104Y-57560914D01*
X175214172Y-57501603D01*
X175215170Y-57431740D01*
X175253780Y-57373507D01*
X175290303Y-57352188D01*
X175368436Y-57323046D01*
X175379831Y-57318796D01*
X175495046Y-57232546D01*
X175581296Y-57117331D01*
X175631591Y-56982483D01*
X175638000Y-56922873D01*
X175637999Y-56277128D01*
X175631591Y-56217517D01*
X175628601Y-56209501D01*
X175581297Y-56082671D01*
X175581293Y-56082664D01*
X175495047Y-55967455D01*
X175495044Y-55967452D01*
X175379835Y-55881206D01*
X175379828Y-55881202D01*
X175244986Y-55830910D01*
X175244985Y-55830909D01*
X175244983Y-55830909D01*
X175185373Y-55824500D01*
X175185363Y-55824500D01*
X174689629Y-55824500D01*
X174689623Y-55824501D01*
X174630016Y-55830908D01*
X174495171Y-55881202D01*
X174495164Y-55881206D01*
X174379955Y-55967452D01*
X174379952Y-55967455D01*
X174293706Y-56082664D01*
X174293702Y-56082671D01*
X174243550Y-56217138D01*
X174243409Y-56217517D01*
X174237000Y-56277127D01*
X174237000Y-56277134D01*
X174237000Y-56277135D01*
X174237000Y-56922870D01*
X174237001Y-56922876D01*
X174243408Y-56982483D01*
X174293702Y-57117328D01*
X174293706Y-57117335D01*
X174379952Y-57232544D01*
X174379955Y-57232547D01*
X174495164Y-57318793D01*
X174495173Y-57318798D01*
X174606632Y-57360369D01*
X174662566Y-57402240D01*
X174686984Y-57467704D01*
X174672133Y-57535977D01*
X174622728Y-57585383D01*
X174619595Y-57587036D01*
X174494546Y-57650752D01*
X174494541Y-57650755D01*
X174400755Y-57744541D01*
X174400752Y-57744545D01*
X174340529Y-57862740D01*
X174334628Y-57900000D01*
X174838500Y-57900000D01*
X174905539Y-57919685D01*
X174951294Y-57972489D01*
X174962500Y-58024000D01*
X174962500Y-58250000D01*
X175188500Y-58250000D01*
X175255539Y-58269685D01*
X175301294Y-58322489D01*
X175312500Y-58374000D01*
X175312500Y-58909348D01*
X175430449Y-58849251D01*
X175524247Y-58755454D01*
X175524249Y-58755452D01*
X175587964Y-58630402D01*
X175635938Y-58579606D01*
X175703758Y-58562810D01*
X175769894Y-58585347D01*
X175813346Y-58640061D01*
X175813803Y-58641206D01*
X175861883Y-58763128D01*
X175861886Y-58763134D01*
X175948132Y-58876867D01*
X176056900Y-58959348D01*
X176061868Y-58963115D01*
X176194654Y-59015479D01*
X176278098Y-59025500D01*
X176796902Y-59025500D01*
X176880346Y-59015479D01*
X177013132Y-58963115D01*
X177126867Y-58876867D01*
X177213115Y-58763132D01*
X177265479Y-58630346D01*
X177273627Y-58562500D01*
X177577128Y-58562500D01*
X177583029Y-58599759D01*
X177643252Y-58717954D01*
X177737050Y-58811751D01*
X177854999Y-58871848D01*
X177855000Y-58871848D01*
X177855000Y-58562500D01*
X177577128Y-58562500D01*
X177273627Y-58562500D01*
X177275500Y-58546902D01*
X177275500Y-57953098D01*
X177275326Y-57951653D01*
X177271061Y-57916136D01*
X177265479Y-57869654D01*
X177213115Y-57736868D01*
X177211081Y-57734186D01*
X177126867Y-57623132D01*
X177006374Y-57531760D01*
X177008389Y-57529102D01*
X176970652Y-57490413D01*
X176956652Y-57421961D01*
X176981882Y-57356806D01*
X177023642Y-57325966D01*
X177022048Y-57323046D01*
X177029825Y-57318797D01*
X177029831Y-57318796D01*
X177145046Y-57232546D01*
X177231296Y-57117331D01*
X177275980Y-56997527D01*
X177317851Y-56941593D01*
X177383315Y-56917176D01*
X177451588Y-56932027D01*
X177500994Y-56981432D01*
X177508344Y-56997527D01*
X177543702Y-57092328D01*
X177543706Y-57092335D01*
X177629952Y-57207544D01*
X177629955Y-57207547D01*
X177745164Y-57293793D01*
X177745173Y-57293798D01*
X177838137Y-57328471D01*
X177894071Y-57370342D01*
X177918489Y-57435806D01*
X177903638Y-57504079D01*
X177854233Y-57553485D01*
X177851100Y-57555138D01*
X177737046Y-57613252D01*
X177737041Y-57613255D01*
X177643255Y-57707041D01*
X177643252Y-57707045D01*
X177583029Y-57825240D01*
X177577128Y-57862500D01*
X178081000Y-57862500D01*
X178148039Y-57882185D01*
X178193794Y-57934989D01*
X178205000Y-57986500D01*
X178205000Y-58212500D01*
X178431000Y-58212500D01*
X178498039Y-58232185D01*
X178543794Y-58284989D01*
X178555000Y-58336500D01*
X178555000Y-58871848D01*
X178672949Y-58811751D01*
X178766747Y-58717954D01*
X178766749Y-58717952D01*
X178830464Y-58592902D01*
X178878438Y-58542106D01*
X178946258Y-58525310D01*
X179012394Y-58547847D01*
X179055846Y-58602561D01*
X179056303Y-58603706D01*
X179104383Y-58725628D01*
X179104386Y-58725634D01*
X179190632Y-58839367D01*
X179287884Y-58913115D01*
X179304368Y-58925615D01*
X179437154Y-58977979D01*
X179520598Y-58988000D01*
X180039402Y-58988000D01*
X180122846Y-58977979D01*
X180255632Y-58925615D01*
X180369367Y-58839367D01*
X180455615Y-58725632D01*
X180507979Y-58592846D01*
X180513205Y-58549329D01*
X180540740Y-58485120D01*
X180598623Y-58445987D01*
X180668474Y-58444360D01*
X180728115Y-58480755D01*
X180758613Y-58543617D01*
X180758792Y-58544720D01*
X180765529Y-58587259D01*
X180765529Y-58587260D01*
X180825752Y-58705454D01*
X180919550Y-58799251D01*
X181037499Y-58859348D01*
X181037500Y-58859348D01*
X181037500Y-58324000D01*
X181057185Y-58256961D01*
X181109989Y-58211206D01*
X181161500Y-58200000D01*
X181613500Y-58200000D01*
X181680539Y-58219685D01*
X181726294Y-58272489D01*
X181737500Y-58324000D01*
X181737500Y-58859348D01*
X181855449Y-58799251D01*
X181949247Y-58705454D01*
X181949249Y-58705452D01*
X182012964Y-58580402D01*
X182060938Y-58529606D01*
X182128758Y-58512810D01*
X182194894Y-58535347D01*
X182238346Y-58590061D01*
X182238803Y-58591206D01*
X182286883Y-58713128D01*
X182286886Y-58713134D01*
X182373132Y-58826867D01*
X182481900Y-58909348D01*
X182486868Y-58913115D01*
X182619654Y-58965479D01*
X182703098Y-58975500D01*
X183224500Y-58975500D01*
X183291539Y-58995185D01*
X183337294Y-59047989D01*
X183348500Y-59099500D01*
X183348500Y-60925500D01*
X183328815Y-60992539D01*
X183276011Y-61038294D01*
X183224500Y-61049500D01*
X183159449Y-61049500D01*
X182980589Y-61077829D01*
X182808361Y-61133788D01*
X182808360Y-61133789D01*
X182785981Y-61145191D01*
X182717311Y-61158086D01*
X182667689Y-61142092D01*
X182635291Y-61123387D01*
X182635288Y-61123386D01*
X182634616Y-61123206D01*
X182634616Y-61123205D01*
X182560908Y-61103456D01*
X182546144Y-61099500D01*
X182546143Y-61099500D01*
X180993633Y-61099500D01*
X180926594Y-61079815D01*
X180880839Y-61027011D01*
X180875702Y-61013819D01*
X180856021Y-60953248D01*
X180855220Y-60950781D01*
X180855218Y-60950778D01*
X180855218Y-60950776D01*
X180799052Y-60840546D01*
X180762287Y-60768390D01*
X180750950Y-60752786D01*
X180641971Y-60602786D01*
X180497213Y-60458028D01*
X180331613Y-60337715D01*
X180331612Y-60337714D01*
X180331610Y-60337713D01*
X180226340Y-60284075D01*
X180149223Y-60244781D01*
X179954534Y-60181522D01*
X179779995Y-60153878D01*
X179752352Y-60149500D01*
X179547648Y-60149500D01*
X179523329Y-60153351D01*
X179345465Y-60181522D01*
X179150776Y-60244781D01*
X178968386Y-60337715D01*
X178802786Y-60458028D01*
X178658028Y-60602786D01*
X178537715Y-60768386D01*
X178444781Y-60950776D01*
X178381522Y-61145465D01*
X178349500Y-61347648D01*
X178349500Y-61552351D01*
X178381522Y-61754534D01*
X178444781Y-61949223D01*
X178537715Y-62131613D01*
X178658028Y-62297213D01*
X178802786Y-62441971D01*
X178951478Y-62550000D01*
X178968390Y-62562287D01*
X179084607Y-62621503D01*
X179150776Y-62655218D01*
X179150778Y-62655218D01*
X179150781Y-62655220D01*
X179183728Y-62665925D01*
X179345465Y-62718477D01*
X179446557Y-62734488D01*
X179547648Y-62750500D01*
X179547649Y-62750500D01*
X179752351Y-62750500D01*
X179752352Y-62750500D01*
X179954534Y-62718477D01*
X180149219Y-62655220D01*
X180331610Y-62562287D01*
X180459443Y-62469412D01*
X180497213Y-62441971D01*
X180497215Y-62441968D01*
X180497219Y-62441966D01*
X180641966Y-62297219D01*
X180641968Y-62297215D01*
X180641971Y-62297213D01*
X180725326Y-62182483D01*
X180762287Y-62131610D01*
X180855220Y-61949219D01*
X180875702Y-61886179D01*
X180915140Y-61828506D01*
X180979499Y-61801308D01*
X180993633Y-61800500D01*
X182003248Y-61800500D01*
X182070287Y-61820185D01*
X182116042Y-61872989D01*
X182125986Y-61942147D01*
X182125721Y-61943898D01*
X182099500Y-62109448D01*
X182099500Y-62290551D01*
X182127829Y-62469410D01*
X182183787Y-62641636D01*
X182183788Y-62641639D01*
X182219786Y-62712287D01*
X182264478Y-62800000D01*
X182266006Y-62802997D01*
X182372441Y-62949494D01*
X182372445Y-62949499D01*
X182500500Y-63077554D01*
X182500505Y-63077558D01*
X182628287Y-63170396D01*
X182647006Y-63183996D01*
X182752484Y-63237740D01*
X182808360Y-63266211D01*
X182808363Y-63266212D01*
X182891140Y-63293107D01*
X182980591Y-63322171D01*
X183063429Y-63335291D01*
X183159449Y-63350500D01*
X183159454Y-63350500D01*
X183340551Y-63350500D01*
X183427259Y-63336765D01*
X183519409Y-63322171D01*
X183691639Y-63266211D01*
X183852994Y-63183996D01*
X183999501Y-63077553D01*
X184127553Y-62949501D01*
X184233996Y-62802994D01*
X184316211Y-62641639D01*
X184372171Y-62469409D01*
X184375332Y-62449452D01*
X184380724Y-62438076D01*
X184381623Y-62425515D01*
X184395409Y-62407099D01*
X184405261Y-62386317D01*
X184415949Y-62379661D01*
X184423495Y-62369582D01*
X184445044Y-62361544D01*
X184464572Y-62349385D01*
X184477162Y-62349564D01*
X184488959Y-62345165D01*
X184511435Y-62350054D01*
X184534434Y-62350383D01*
X184546560Y-62357695D01*
X184557232Y-62360017D01*
X184585486Y-62381168D01*
X184643938Y-62439620D01*
X184674188Y-62488983D01*
X184723787Y-62641636D01*
X184723788Y-62641639D01*
X184759786Y-62712287D01*
X184804478Y-62800000D01*
X184806006Y-62802997D01*
X184912441Y-62949494D01*
X184912445Y-62949499D01*
X185040500Y-63077554D01*
X185040505Y-63077558D01*
X185168287Y-63170396D01*
X185187006Y-63183996D01*
X185292484Y-63237740D01*
X185348360Y-63266211D01*
X185348363Y-63266212D01*
X185431140Y-63293107D01*
X185520591Y-63322171D01*
X185603429Y-63335291D01*
X185699449Y-63350500D01*
X185699454Y-63350500D01*
X185880551Y-63350500D01*
X185967259Y-63336765D01*
X186059409Y-63322171D01*
X186231639Y-63266211D01*
X186392994Y-63183996D01*
X186539501Y-63077553D01*
X186667553Y-62949501D01*
X186773996Y-62802994D01*
X186856211Y-62641639D01*
X186912171Y-62469409D01*
X186924274Y-62392993D01*
X186940500Y-62290551D01*
X186940500Y-62109448D01*
X186915324Y-61950500D01*
X186912171Y-61930591D01*
X186856211Y-61758361D01*
X186856211Y-61758360D01*
X186815282Y-61678034D01*
X186773996Y-61597006D01*
X186741553Y-61552352D01*
X186667558Y-61450505D01*
X186667554Y-61450500D01*
X186547351Y-61330297D01*
X187280000Y-61330297D01*
X187280000Y-61850000D01*
X187972894Y-61850000D01*
X187929901Y-61892993D01*
X187864075Y-62007007D01*
X187830000Y-62134174D01*
X187830000Y-62265826D01*
X187864075Y-62392993D01*
X187929901Y-62507007D01*
X187972894Y-62550000D01*
X187280000Y-62550000D01*
X187280000Y-63069702D01*
X187291602Y-63128033D01*
X187291603Y-63128034D01*
X187335808Y-63194191D01*
X187401965Y-63238396D01*
X187401966Y-63238397D01*
X187460297Y-63249999D01*
X187460301Y-63250000D01*
X187980000Y-63250000D01*
X187980000Y-62557106D01*
X188022993Y-62600099D01*
X188137007Y-62665925D01*
X188264174Y-62700000D01*
X188395826Y-62700000D01*
X188522993Y-62665925D01*
X188637007Y-62600099D01*
X188680000Y-62557106D01*
X188680000Y-63250000D01*
X189199699Y-63250000D01*
X189199702Y-63249999D01*
X189258033Y-63238397D01*
X189258034Y-63238396D01*
X189324191Y-63194191D01*
X189368396Y-63128034D01*
X189368397Y-63128033D01*
X189379999Y-63069702D01*
X189380000Y-63069699D01*
X189380000Y-62550000D01*
X188687106Y-62550000D01*
X188730099Y-62507007D01*
X188795925Y-62392993D01*
X188830000Y-62265826D01*
X188830000Y-62134174D01*
X188795925Y-62007007D01*
X188730099Y-61892993D01*
X188687106Y-61850000D01*
X189380000Y-61850000D01*
X189380000Y-61330301D01*
X189379999Y-61330297D01*
X189368397Y-61271966D01*
X189368396Y-61271965D01*
X189324191Y-61205808D01*
X189258034Y-61161603D01*
X189258033Y-61161602D01*
X189199702Y-61150000D01*
X188680000Y-61150000D01*
X188680000Y-61842894D01*
X188637007Y-61799901D01*
X188522993Y-61734075D01*
X188395826Y-61700000D01*
X188264174Y-61700000D01*
X188137007Y-61734075D01*
X188022993Y-61799901D01*
X187980000Y-61842894D01*
X187980000Y-61150000D01*
X187460297Y-61150000D01*
X187401966Y-61161602D01*
X187401965Y-61161603D01*
X187335808Y-61205808D01*
X187291603Y-61271965D01*
X187291602Y-61271966D01*
X187280000Y-61330297D01*
X186547351Y-61330297D01*
X186539499Y-61322445D01*
X186539494Y-61322441D01*
X186392997Y-61216006D01*
X186392996Y-61216005D01*
X186392994Y-61216004D01*
X186317022Y-61177294D01*
X186231639Y-61133788D01*
X186231636Y-61133787D01*
X186059410Y-61077829D01*
X185880551Y-61049500D01*
X185880546Y-61049500D01*
X185699454Y-61049500D01*
X185699449Y-61049500D01*
X185520589Y-61077829D01*
X185348363Y-61133787D01*
X185348360Y-61133788D01*
X185187002Y-61216006D01*
X185040505Y-61322441D01*
X185040500Y-61322445D01*
X184912445Y-61450500D01*
X184912439Y-61450507D01*
X184885736Y-61487261D01*
X184830406Y-61529927D01*
X184760793Y-61535905D01*
X184698998Y-61503299D01*
X184697738Y-61502056D01*
X184386819Y-61191137D01*
X184353334Y-61129814D01*
X184350500Y-61103456D01*
X184350500Y-59892716D01*
X184370185Y-59825677D01*
X184422989Y-59779922D01*
X184492147Y-59769978D01*
X184548810Y-59793449D01*
X184579984Y-59816786D01*
X184582668Y-59818795D01*
X184582671Y-59818797D01*
X184591168Y-59821966D01*
X184717517Y-59869091D01*
X184777127Y-59875500D01*
X185422872Y-59875499D01*
X185482483Y-59869091D01*
X185617331Y-59818796D01*
X185732546Y-59732546D01*
X185794199Y-59650188D01*
X185850132Y-59608318D01*
X185893465Y-59600500D01*
X186206535Y-59600500D01*
X186273574Y-59620185D01*
X186305800Y-59650187D01*
X186367454Y-59732546D01*
X186392617Y-59751383D01*
X186482664Y-59818793D01*
X186482671Y-59818797D01*
X186491168Y-59821966D01*
X186617517Y-59869091D01*
X186677127Y-59875500D01*
X187322872Y-59875499D01*
X187382483Y-59869091D01*
X187517331Y-59818796D01*
X187632546Y-59732546D01*
X187694199Y-59650188D01*
X187750132Y-59608318D01*
X187793465Y-59600500D01*
X188106535Y-59600500D01*
X188173574Y-59620185D01*
X188205800Y-59650187D01*
X188267454Y-59732546D01*
X188292617Y-59751383D01*
X188382664Y-59818793D01*
X188382671Y-59818797D01*
X188391168Y-59821966D01*
X188517517Y-59869091D01*
X188577127Y-59875500D01*
X189222872Y-59875499D01*
X189282483Y-59869091D01*
X189417331Y-59818796D01*
X189532546Y-59732546D01*
X189594199Y-59650188D01*
X189650132Y-59608318D01*
X189693465Y-59600500D01*
X190025249Y-59600500D01*
X190025623Y-59600609D01*
X190025999Y-59600502D01*
X190059193Y-59610467D01*
X190092288Y-59620185D01*
X190092668Y-59620516D01*
X190092919Y-59620592D01*
X190095123Y-59622656D01*
X190119452Y-59643866D01*
X190122090Y-59646948D01*
X190167454Y-59707546D01*
X190185564Y-59721103D01*
X190194479Y-59731518D01*
X190203406Y-59751383D01*
X190216458Y-59768819D01*
X190217445Y-59782624D01*
X190223118Y-59795248D01*
X190219888Y-59816786D01*
X190221442Y-59838510D01*
X190220051Y-59844245D01*
X190199500Y-59920943D01*
X190199500Y-60079057D01*
X190226956Y-60181522D01*
X190240423Y-60231783D01*
X190240426Y-60231790D01*
X190319473Y-60368706D01*
X190319477Y-60368712D01*
X190319480Y-60368716D01*
X190319482Y-60368718D01*
X190323872Y-60374438D01*
X190349069Y-60439606D01*
X190349500Y-60449930D01*
X190349500Y-64095032D01*
X190329815Y-64162071D01*
X190277011Y-64207826D01*
X190241686Y-64217971D01*
X190147989Y-64230306D01*
X189920006Y-64291394D01*
X189701954Y-64381714D01*
X189701943Y-64381719D01*
X189497545Y-64499730D01*
X189310302Y-64643406D01*
X189310295Y-64643412D01*
X189143412Y-64810295D01*
X189143406Y-64810302D01*
X188999730Y-64997545D01*
X188881719Y-65201943D01*
X188881714Y-65201954D01*
X188791394Y-65420006D01*
X188730306Y-65647989D01*
X188699501Y-65881979D01*
X188699500Y-65881995D01*
X188699500Y-66118004D01*
X188699501Y-66118020D01*
X188729012Y-66342182D01*
X188730307Y-66352014D01*
X188764924Y-66481206D01*
X188791394Y-66579993D01*
X188881714Y-66798045D01*
X188881719Y-66798056D01*
X188930182Y-66881995D01*
X188999727Y-67002450D01*
X188999729Y-67002453D01*
X188999730Y-67002454D01*
X189143406Y-67189697D01*
X189143412Y-67189704D01*
X189310295Y-67356587D01*
X189310302Y-67356593D01*
X189377082Y-67407835D01*
X189497550Y-67500273D01*
X189628003Y-67575590D01*
X189701943Y-67618280D01*
X189701948Y-67618282D01*
X189701951Y-67618284D01*
X189920007Y-67708606D01*
X190147986Y-67769693D01*
X190381989Y-67800500D01*
X190381996Y-67800500D01*
X190618004Y-67800500D01*
X190618011Y-67800500D01*
X190852014Y-67769693D01*
X191079993Y-67708606D01*
X191298049Y-67618284D01*
X191416320Y-67550000D01*
X193550541Y-67550000D01*
X193555762Y-67582970D01*
X193555763Y-67582973D01*
X193616881Y-67702921D01*
X193616886Y-67702928D01*
X193712071Y-67798113D01*
X193712078Y-67798118D01*
X193832026Y-67859236D01*
X193832029Y-67859237D01*
X193840000Y-67860499D01*
X193840000Y-67550000D01*
X193550541Y-67550000D01*
X191416320Y-67550000D01*
X191502450Y-67500273D01*
X191603242Y-67422933D01*
X191614155Y-67414559D01*
X191646812Y-67389500D01*
X191689699Y-67356592D01*
X191856592Y-67189699D01*
X192000273Y-67002450D01*
X192088291Y-66849998D01*
X193550539Y-66849998D01*
X193550540Y-66850000D01*
X193840000Y-66850000D01*
X193840000Y-66539499D01*
X193839999Y-66539498D01*
X194540000Y-66539498D01*
X194540000Y-67860499D01*
X194547970Y-67859237D01*
X194547973Y-67859236D01*
X194667921Y-67798118D01*
X194667928Y-67798113D01*
X194763113Y-67702928D01*
X194763116Y-67702924D01*
X194799848Y-67630835D01*
X194847823Y-67580039D01*
X194915644Y-67563244D01*
X194981778Y-67585781D01*
X195025230Y-67640496D01*
X195025687Y-67641640D01*
X195052634Y-67709972D01*
X195052634Y-67709973D01*
X195139921Y-67825078D01*
X195255023Y-67912363D01*
X195255024Y-67912363D01*
X195255025Y-67912364D01*
X195389410Y-67965359D01*
X195473856Y-67975500D01*
X195473862Y-67975500D01*
X196006138Y-67975500D01*
X196006144Y-67975500D01*
X196090590Y-67965359D01*
X196224975Y-67912364D01*
X196340078Y-67825078D01*
X196410114Y-67732721D01*
X196466306Y-67691199D01*
X196536028Y-67686647D01*
X196597142Y-67720512D01*
X196608184Y-67733335D01*
X196656635Y-67798056D01*
X196678394Y-67827123D01*
X196682455Y-67832547D01*
X196797664Y-67918793D01*
X196797671Y-67918797D01*
X196813643Y-67924754D01*
X196932517Y-67969091D01*
X196992127Y-67975500D01*
X197487872Y-67975499D01*
X197547483Y-67969091D01*
X197682331Y-67918796D01*
X197797546Y-67832546D01*
X197883796Y-67717331D01*
X197934091Y-67582483D01*
X197940500Y-67522873D01*
X197940499Y-66877128D01*
X197934420Y-66820576D01*
X197934091Y-66817516D01*
X197883797Y-66682671D01*
X197883793Y-66682664D01*
X197797547Y-66567455D01*
X197797544Y-66567452D01*
X197682335Y-66481206D01*
X197682328Y-66481202D01*
X197547486Y-66430910D01*
X197547485Y-66430909D01*
X197547483Y-66430909D01*
X197487873Y-66424500D01*
X197487863Y-66424500D01*
X196992129Y-66424500D01*
X196992123Y-66424501D01*
X196932516Y-66430908D01*
X196797671Y-66481202D01*
X196797664Y-66481206D01*
X196682455Y-66567452D01*
X196608184Y-66666664D01*
X196552250Y-66708535D01*
X196482558Y-66713518D01*
X196421235Y-66680032D01*
X196410114Y-66667278D01*
X196340078Y-66574922D01*
X196340076Y-66574921D01*
X196340076Y-66574920D01*
X196224976Y-66487636D01*
X196090588Y-66434640D01*
X196047242Y-66429435D01*
X196006144Y-66424500D01*
X195473856Y-66424500D01*
X195435841Y-66429065D01*
X195389411Y-66434640D01*
X195255023Y-66487636D01*
X195139921Y-66574921D01*
X195052634Y-66690026D01*
X195052634Y-66690027D01*
X195025687Y-66758360D01*
X194982781Y-66813504D01*
X194916873Y-66836697D01*
X194848889Y-66820576D01*
X194800413Y-66770259D01*
X194799848Y-66769165D01*
X194763116Y-66697075D01*
X194763113Y-66697071D01*
X194667928Y-66601886D01*
X194667921Y-66601881D01*
X194547971Y-66540762D01*
X194547968Y-66540761D01*
X194540000Y-66539498D01*
X193839999Y-66539498D01*
X193832031Y-66540761D01*
X193832028Y-66540762D01*
X193712078Y-66601881D01*
X193712071Y-66601886D01*
X193616886Y-66697071D01*
X193616883Y-66697076D01*
X193555760Y-66817034D01*
X193550539Y-66849998D01*
X192088291Y-66849998D01*
X192118284Y-66798049D01*
X192208606Y-66579993D01*
X192269693Y-66352014D01*
X192300500Y-66118011D01*
X192300500Y-65881989D01*
X192269693Y-65647986D01*
X192208606Y-65420007D01*
X192118284Y-65201951D01*
X192031783Y-65052127D01*
X196539500Y-65052127D01*
X196539500Y-65052134D01*
X196539500Y-65052135D01*
X196539500Y-65697870D01*
X196539501Y-65697876D01*
X196545908Y-65757483D01*
X196596202Y-65892328D01*
X196596206Y-65892335D01*
X196682452Y-66007544D01*
X196682455Y-66007547D01*
X196797664Y-66093793D01*
X196797671Y-66093797D01*
X196818426Y-66101538D01*
X196932517Y-66144091D01*
X196992127Y-66150500D01*
X197487872Y-66150499D01*
X197547483Y-66144091D01*
X197682331Y-66093796D01*
X197797546Y-66007546D01*
X197883796Y-65892331D01*
X197934091Y-65757483D01*
X197940500Y-65697873D01*
X197940499Y-65052128D01*
X197934632Y-64997550D01*
X197934091Y-64992516D01*
X197883797Y-64857671D01*
X197883793Y-64857664D01*
X197797547Y-64742455D01*
X197797544Y-64742452D01*
X197682335Y-64656206D01*
X197682328Y-64656202D01*
X197547486Y-64605910D01*
X197547485Y-64605909D01*
X197547483Y-64605909D01*
X197487873Y-64599500D01*
X197487863Y-64599500D01*
X196992129Y-64599500D01*
X196992123Y-64599501D01*
X196932516Y-64605908D01*
X196797671Y-64656202D01*
X196797664Y-64656206D01*
X196682455Y-64742452D01*
X196682452Y-64742455D01*
X196596206Y-64857664D01*
X196596202Y-64857671D01*
X196552935Y-64973678D01*
X196545909Y-64992517D01*
X196539500Y-65052127D01*
X192031783Y-65052127D01*
X192000273Y-64997550D01*
X191856592Y-64810301D01*
X191856587Y-64810295D01*
X191689704Y-64643412D01*
X191689697Y-64643406D01*
X191502457Y-64499732D01*
X191502455Y-64499730D01*
X191502450Y-64499727D01*
X191384743Y-64431769D01*
X191312499Y-64390058D01*
X191264284Y-64339490D01*
X191250500Y-64282671D01*
X191250500Y-60449930D01*
X191270185Y-60382891D01*
X191276128Y-60374438D01*
X191280512Y-60368723D01*
X191280520Y-60368716D01*
X191359577Y-60231784D01*
X191400500Y-60079057D01*
X191400500Y-59920943D01*
X191379948Y-59844242D01*
X191381611Y-59774396D01*
X191420773Y-59716534D01*
X191425382Y-59712908D01*
X191432546Y-59707546D01*
X191518796Y-59592331D01*
X191569091Y-59457483D01*
X191575500Y-59397873D01*
X191575499Y-58902128D01*
X191569091Y-58842517D01*
X191555267Y-58805454D01*
X191518797Y-58707671D01*
X191518793Y-58707664D01*
X191432547Y-58592455D01*
X191432544Y-58592452D01*
X191317335Y-58506206D01*
X191317328Y-58506202D01*
X191182486Y-58455910D01*
X191182485Y-58455909D01*
X191182483Y-58455909D01*
X191122873Y-58449500D01*
X191122864Y-58449500D01*
X190645542Y-58449500D01*
X190624266Y-58443252D01*
X190602150Y-58441660D01*
X190591395Y-58433600D01*
X190578503Y-58429815D01*
X190563984Y-58413059D01*
X190546238Y-58399761D01*
X190541547Y-58387166D01*
X190532748Y-58377011D01*
X190529592Y-58355062D01*
X190521854Y-58334284D01*
X190524716Y-58321155D01*
X190522804Y-58307853D01*
X190532015Y-58287683D01*
X190536739Y-58266019D01*
X190549974Y-58248357D01*
X190551829Y-58244297D01*
X190557891Y-58237789D01*
X190558907Y-58236774D01*
X190620246Y-58203320D01*
X190646544Y-58200499D01*
X191122871Y-58200499D01*
X191122872Y-58200499D01*
X191182483Y-58194091D01*
X191317331Y-58143796D01*
X191432546Y-58057546D01*
X191518796Y-57942331D01*
X191569091Y-57807483D01*
X191575500Y-57747873D01*
X191575499Y-57252128D01*
X191569091Y-57192517D01*
X191564298Y-57179667D01*
X191518797Y-57057671D01*
X191518793Y-57057664D01*
X191432547Y-56942455D01*
X191432544Y-56942452D01*
X191317334Y-56856205D01*
X191281164Y-56842714D01*
X191263438Y-56829444D01*
X191243297Y-56820246D01*
X191236014Y-56808913D01*
X191225231Y-56800841D01*
X191217493Y-56780095D01*
X191205523Y-56761468D01*
X191202370Y-56739545D01*
X191200816Y-56735376D01*
X191200500Y-56726533D01*
X191200500Y-56480588D01*
X191220185Y-56413549D01*
X191236819Y-56392907D01*
X191244102Y-56385624D01*
X191270765Y-56358961D01*
X191349822Y-56222029D01*
X191390745Y-56069302D01*
X191390745Y-55911188D01*
X191349822Y-55758461D01*
X191346378Y-55752497D01*
X191329907Y-55684598D01*
X191352760Y-55618571D01*
X191407682Y-55575381D01*
X191453767Y-55566499D01*
X191694856Y-55566499D01*
X191694864Y-55566499D01*
X191694879Y-55566497D01*
X191694882Y-55566497D01*
X191719987Y-55563586D01*
X191719988Y-55563585D01*
X191719991Y-55563585D01*
X191822765Y-55518206D01*
X191902206Y-55438765D01*
X191947585Y-55335991D01*
X191950500Y-55310865D01*
X191950499Y-54633253D01*
X191970183Y-54566215D01*
X191986813Y-54545578D01*
X192349987Y-54182405D01*
X192411307Y-54148922D01*
X192480999Y-54153906D01*
X192536932Y-54195778D01*
X192561349Y-54261242D01*
X192546497Y-54329515D01*
X192545053Y-54332087D01*
X192515085Y-54383993D01*
X192509198Y-54394191D01*
X192505200Y-54401115D01*
X192505199Y-54401117D01*
X192501885Y-54413482D01*
X192501886Y-54413483D01*
X192474500Y-54515691D01*
X192474500Y-55849903D01*
X192454815Y-55916942D01*
X192425426Y-55948707D01*
X192324920Y-56024923D01*
X192237636Y-56140023D01*
X192184640Y-56274411D01*
X192179976Y-56313257D01*
X192174500Y-56358856D01*
X192174500Y-56941144D01*
X192179338Y-56981432D01*
X192184640Y-57025588D01*
X192237636Y-57159976D01*
X192324921Y-57275078D01*
X192440023Y-57362363D01*
X192440024Y-57362363D01*
X192440025Y-57362364D01*
X192574410Y-57415359D01*
X192658856Y-57425500D01*
X192684462Y-57425500D01*
X192724466Y-57432130D01*
X192735950Y-57436044D01*
X192751114Y-57444799D01*
X192800316Y-57457982D01*
X192804223Y-57459314D01*
X192821160Y-57471255D01*
X192851900Y-57489003D01*
X194003181Y-58640284D01*
X194036666Y-58701607D01*
X194039500Y-58727965D01*
X194039500Y-59471138D01*
X194019815Y-59538177D01*
X193979581Y-59575637D01*
X193979769Y-59575888D01*
X193977441Y-59577630D01*
X193974932Y-59579967D01*
X193972670Y-59581202D01*
X193857455Y-59667452D01*
X193857452Y-59667455D01*
X193771206Y-59782664D01*
X193771202Y-59782671D01*
X193720910Y-59917513D01*
X193720909Y-59917517D01*
X193714500Y-59977127D01*
X193714500Y-59977134D01*
X193714500Y-59977135D01*
X193714500Y-60472870D01*
X193714501Y-60472876D01*
X193720908Y-60532483D01*
X193771202Y-60667328D01*
X193771206Y-60667335D01*
X193857452Y-60782544D01*
X193857455Y-60782547D01*
X193972664Y-60868793D01*
X193972671Y-60868797D01*
X194017618Y-60885561D01*
X194107517Y-60919091D01*
X194167127Y-60925500D01*
X194812872Y-60925499D01*
X194872483Y-60919091D01*
X195007331Y-60868796D01*
X195122546Y-60782546D01*
X195154586Y-60739746D01*
X195165485Y-60725188D01*
X195221419Y-60683318D01*
X195264751Y-60675500D01*
X195875500Y-60675500D01*
X195942539Y-60695185D01*
X195988294Y-60747989D01*
X195999500Y-60799500D01*
X195999500Y-60840551D01*
X196027829Y-61019410D01*
X196083787Y-61191636D01*
X196083788Y-61191639D01*
X196149297Y-61320205D01*
X196162193Y-61388874D01*
X196135917Y-61453615D01*
X196078811Y-61493872D01*
X196038812Y-61500500D01*
X195319408Y-61500500D01*
X195252369Y-61480815D01*
X195214134Y-61439751D01*
X195214112Y-61439769D01*
X195213953Y-61439557D01*
X195210578Y-61435932D01*
X195208793Y-61432664D01*
X195122547Y-61317455D01*
X195122544Y-61317452D01*
X195007335Y-61231206D01*
X195007328Y-61231202D01*
X194872486Y-61180910D01*
X194872485Y-61180909D01*
X194872483Y-61180909D01*
X194812873Y-61174500D01*
X194812863Y-61174500D01*
X194167129Y-61174500D01*
X194167123Y-61174501D01*
X194107516Y-61180908D01*
X193972671Y-61231202D01*
X193972664Y-61231206D01*
X193857455Y-61317452D01*
X193857452Y-61317455D01*
X193771206Y-61432664D01*
X193771202Y-61432671D01*
X193726565Y-61552352D01*
X193720909Y-61567517D01*
X193714500Y-61627127D01*
X193714500Y-61627134D01*
X193714500Y-61627135D01*
X193714500Y-62122870D01*
X193714501Y-62122876D01*
X193720908Y-62182483D01*
X193771202Y-62317328D01*
X193771206Y-62317335D01*
X193857452Y-62432544D01*
X193857455Y-62432547D01*
X193972664Y-62518793D01*
X193972671Y-62518797D01*
X194017618Y-62535561D01*
X194107517Y-62569091D01*
X194167127Y-62575500D01*
X194812872Y-62575499D01*
X194872483Y-62569091D01*
X195007331Y-62518796D01*
X195122546Y-62432546D01*
X195183451Y-62351187D01*
X195239383Y-62309318D01*
X195282716Y-62301500D01*
X198591725Y-62301500D01*
X198591727Y-62301500D01*
X198693588Y-62274207D01*
X198784913Y-62221480D01*
X199150719Y-61855672D01*
X199212040Y-61822189D01*
X199276716Y-61825424D01*
X199420591Y-61872171D01*
X199503429Y-61885291D01*
X199599449Y-61900500D01*
X199599454Y-61900500D01*
X199780551Y-61900500D01*
X199870953Y-61886181D01*
X199959409Y-61872171D01*
X200131639Y-61816211D01*
X200260205Y-61750702D01*
X200328873Y-61737806D01*
X200393614Y-61764082D01*
X200433871Y-61821188D01*
X200440500Y-61861187D01*
X200440500Y-63241744D01*
X200420815Y-63308783D01*
X200404181Y-63329425D01*
X199170424Y-64563181D01*
X199109101Y-64596666D01*
X199082743Y-64599500D01*
X198642129Y-64599500D01*
X198642123Y-64599501D01*
X198582516Y-64605908D01*
X198447671Y-64656202D01*
X198447664Y-64656206D01*
X198332455Y-64742452D01*
X198332452Y-64742455D01*
X198246206Y-64857664D01*
X198246202Y-64857671D01*
X198202935Y-64973678D01*
X198195909Y-64992517D01*
X198189500Y-65052127D01*
X198189500Y-65052134D01*
X198189500Y-65052135D01*
X198189500Y-65697870D01*
X198189501Y-65697876D01*
X198195908Y-65757483D01*
X198246202Y-65892328D01*
X198246206Y-65892335D01*
X198308839Y-65976000D01*
X198332454Y-66007546D01*
X198439811Y-66087914D01*
X198442548Y-66091569D01*
X198446703Y-66093467D01*
X198463293Y-66119281D01*
X198481682Y-66143847D01*
X198482697Y-66149476D01*
X198484477Y-66152245D01*
X198489500Y-66187180D01*
X198489500Y-66387819D01*
X198469815Y-66454858D01*
X198439812Y-66487085D01*
X198332452Y-66567455D01*
X198246206Y-66682664D01*
X198246202Y-66682671D01*
X198196089Y-66817034D01*
X198195909Y-66817517D01*
X198189500Y-66877127D01*
X198189500Y-66877134D01*
X198189500Y-66877135D01*
X198189500Y-67522870D01*
X198189501Y-67522876D01*
X198195908Y-67582483D01*
X198246202Y-67717328D01*
X198246206Y-67717335D01*
X198332452Y-67832544D01*
X198332455Y-67832547D01*
X198447664Y-67918793D01*
X198447671Y-67918797D01*
X198463643Y-67924754D01*
X198582517Y-67969091D01*
X198642127Y-67975500D01*
X199137872Y-67975499D01*
X199197483Y-67969091D01*
X199332331Y-67918796D01*
X199447546Y-67832546D01*
X199533796Y-67717331D01*
X199584091Y-67582483D01*
X199590500Y-67522873D01*
X199590499Y-66877128D01*
X199584420Y-66820576D01*
X199584091Y-66817516D01*
X199533797Y-66682671D01*
X199533793Y-66682664D01*
X199447547Y-66567455D01*
X199340188Y-66487085D01*
X199337451Y-66483429D01*
X199333297Y-66481532D01*
X199316705Y-66455714D01*
X199298318Y-66431151D01*
X199297302Y-66425523D01*
X199295523Y-66422754D01*
X199290500Y-66387819D01*
X199290500Y-66187180D01*
X199310185Y-66120141D01*
X199340187Y-66087914D01*
X199447546Y-66007546D01*
X199533796Y-65892331D01*
X199584091Y-65757483D01*
X199590500Y-65697873D01*
X199590499Y-65327253D01*
X199610183Y-65260215D01*
X199626813Y-65239578D01*
X201161480Y-63704913D01*
X201214207Y-63613588D01*
X201241500Y-63511727D01*
X201241500Y-63406273D01*
X201241500Y-61924000D01*
X201261185Y-61856961D01*
X201313989Y-61811206D01*
X201365500Y-61800000D01*
X201880000Y-61800000D01*
X201880000Y-61107106D01*
X201922993Y-61150099D01*
X202037007Y-61215925D01*
X202164174Y-61250000D01*
X202295826Y-61250000D01*
X202422993Y-61215925D01*
X202537007Y-61150099D01*
X202580000Y-61107106D01*
X202580000Y-61800000D01*
X203099699Y-61800000D01*
X203099702Y-61799999D01*
X203158033Y-61788397D01*
X203158034Y-61788396D01*
X203224191Y-61744191D01*
X203268396Y-61678034D01*
X203268397Y-61678033D01*
X203279999Y-61619702D01*
X203280000Y-61619699D01*
X203280000Y-61100000D01*
X202587106Y-61100000D01*
X202630099Y-61057007D01*
X202695925Y-60942993D01*
X202730000Y-60815826D01*
X202730000Y-60684174D01*
X202695925Y-60557007D01*
X202630099Y-60442993D01*
X202587106Y-60400000D01*
X203280000Y-60400000D01*
X203280000Y-59880301D01*
X203279999Y-59880297D01*
X203268397Y-59821966D01*
X203268396Y-59821965D01*
X203224191Y-59755808D01*
X203158034Y-59711603D01*
X203158033Y-59711602D01*
X203099702Y-59700000D01*
X202580000Y-59700000D01*
X202580000Y-60392894D01*
X202537007Y-60349901D01*
X202422993Y-60284075D01*
X202295826Y-60250000D01*
X202164174Y-60250000D01*
X202037007Y-60284075D01*
X201922993Y-60349901D01*
X201880000Y-60392894D01*
X201880000Y-59700000D01*
X201515755Y-59700000D01*
X201448716Y-59680315D01*
X201402961Y-59627511D01*
X201393017Y-59558353D01*
X201422042Y-59494797D01*
X201428074Y-59488319D01*
X201990780Y-58925613D01*
X202570480Y-58345913D01*
X202623207Y-58254588D01*
X202650500Y-58152727D01*
X202650500Y-58047273D01*
X202650500Y-55840398D01*
X202670185Y-55773359D01*
X202722989Y-55727604D01*
X202774500Y-55716398D01*
X202970356Y-55716398D01*
X202970364Y-55716398D01*
X202970379Y-55716396D01*
X202970382Y-55716396D01*
X202995487Y-55713485D01*
X202995488Y-55713484D01*
X202995491Y-55713484D01*
X203098265Y-55668105D01*
X203177706Y-55588664D01*
X203223085Y-55485890D01*
X203226000Y-55460764D01*
X203225999Y-54939235D01*
X203225611Y-54935893D01*
X203223086Y-54914117D01*
X203223085Y-54914108D01*
X203223081Y-54914099D01*
X203221301Y-54907555D01*
X203217198Y-54867180D01*
X203218521Y-54846223D01*
X203223085Y-54835889D01*
X203226000Y-54810763D01*
X203225999Y-54727835D01*
X203226246Y-54723937D01*
X203236899Y-54694631D01*
X203245683Y-54664716D01*
X203248736Y-54662070D01*
X203250117Y-54658272D01*
X203274918Y-54639381D01*
X203298486Y-54618960D01*
X203302487Y-54618384D01*
X203305701Y-54615937D01*
X203336776Y-54613454D01*
X203367645Y-54609016D01*
X203371320Y-54610694D01*
X203375348Y-54610373D01*
X203402835Y-54625086D01*
X203431201Y-54638040D01*
X203436833Y-54643284D01*
X203436948Y-54643346D01*
X203437000Y-54643440D01*
X203437680Y-54644073D01*
X203693181Y-54899574D01*
X203726666Y-54960897D01*
X203729500Y-54987255D01*
X203729500Y-65633846D01*
X203709815Y-65700885D01*
X203657011Y-65746640D01*
X203587853Y-65756584D01*
X203524297Y-65727559D01*
X203517819Y-65721527D01*
X203439704Y-65643412D01*
X203439697Y-65643406D01*
X203252454Y-65499730D01*
X203252453Y-65499729D01*
X203252450Y-65499727D01*
X203132866Y-65430685D01*
X203048056Y-65381719D01*
X203048045Y-65381714D01*
X202829993Y-65291394D01*
X202688620Y-65253513D01*
X202602014Y-65230307D01*
X202602013Y-65230306D01*
X202602010Y-65230306D01*
X202368020Y-65199501D01*
X202368017Y-65199500D01*
X202368011Y-65199500D01*
X202131989Y-65199500D01*
X202131983Y-65199500D01*
X202131979Y-65199501D01*
X201897989Y-65230306D01*
X201670006Y-65291394D01*
X201451954Y-65381714D01*
X201451943Y-65381719D01*
X201247545Y-65499730D01*
X201060302Y-65643406D01*
X201060295Y-65643412D01*
X200893412Y-65810295D01*
X200893406Y-65810302D01*
X200749730Y-65997545D01*
X200749727Y-65997549D01*
X200749727Y-65997550D01*
X200748214Y-66000170D01*
X200631719Y-66201943D01*
X200631714Y-66201954D01*
X200541394Y-66420006D01*
X200480306Y-66647989D01*
X200449501Y-66881979D01*
X200449500Y-66881995D01*
X200449500Y-67118004D01*
X200449501Y-67118020D01*
X200471444Y-67284699D01*
X200480307Y-67352014D01*
X200526646Y-67524953D01*
X200541394Y-67579993D01*
X200631714Y-67798045D01*
X200631719Y-67798056D01*
X200670885Y-67865892D01*
X200749727Y-68002450D01*
X200749729Y-68002453D01*
X200749730Y-68002454D01*
X200893406Y-68189697D01*
X200893412Y-68189704D01*
X201060295Y-68356587D01*
X201060302Y-68356593D01*
X201110332Y-68394982D01*
X201247550Y-68500273D01*
X201378918Y-68576118D01*
X201451943Y-68618280D01*
X201451948Y-68618282D01*
X201451951Y-68618284D01*
X201670007Y-68708606D01*
X201897986Y-68769693D01*
X202131989Y-68800500D01*
X202131996Y-68800500D01*
X202368004Y-68800500D01*
X202368011Y-68800500D01*
X202602014Y-68769693D01*
X202829993Y-68708606D01*
X203048049Y-68618284D01*
X203252450Y-68500273D01*
X203439699Y-68356592D01*
X203606592Y-68189699D01*
X203750273Y-68002450D01*
X203868284Y-67798049D01*
X203958606Y-67579993D01*
X204019693Y-67352014D01*
X204050500Y-67118011D01*
X204050500Y-67051218D01*
X204070185Y-66984179D01*
X204122989Y-66938424D01*
X204192147Y-66928480D01*
X204255703Y-66957505D01*
X204262170Y-66963527D01*
X204780554Y-67481910D01*
X204780556Y-67481913D01*
X204855123Y-67556480D01*
X204929636Y-67599500D01*
X204946447Y-67609206D01*
X204946448Y-67609206D01*
X204946449Y-67609207D01*
X205048309Y-67636501D01*
X205048311Y-67636501D01*
X205161359Y-67636501D01*
X205161375Y-67636500D01*
X205913292Y-67636500D01*
X205980331Y-67656185D01*
X206026086Y-67708989D01*
X206036581Y-67773755D01*
X206033969Y-67798049D01*
X206029500Y-67839622D01*
X206029499Y-67839635D01*
X206029499Y-68335369D01*
X206029500Y-68335375D01*
X206035907Y-68394982D01*
X206086201Y-68529827D01*
X206086205Y-68529834D01*
X206172451Y-68645043D01*
X206172454Y-68645046D01*
X206287663Y-68731292D01*
X206287670Y-68731296D01*
X206332617Y-68748060D01*
X206422516Y-68781590D01*
X206482126Y-68787999D01*
X206887743Y-68787998D01*
X206954782Y-68807682D01*
X206975424Y-68824317D01*
X207182156Y-69031049D01*
X207182161Y-69031053D01*
X207190517Y-69039409D01*
X207190519Y-69039412D01*
X207265086Y-69113979D01*
X207310749Y-69140342D01*
X207319911Y-69145632D01*
X207319915Y-69145635D01*
X207347255Y-69161420D01*
X207356411Y-69166706D01*
X207458272Y-69193999D01*
X207458274Y-69193999D01*
X217649226Y-69193999D01*
X217649228Y-69193999D01*
X217751089Y-69166706D01*
X217842414Y-69113979D01*
X218329574Y-68626819D01*
X218390897Y-68593334D01*
X218417255Y-68590500D01*
X219041770Y-68590500D01*
X219072199Y-68587646D01*
X219072201Y-68587646D01*
X219136290Y-68565219D01*
X219200382Y-68542793D01*
X219309650Y-68462150D01*
X219373637Y-68375449D01*
X219429281Y-68333201D01*
X219498937Y-68327742D01*
X219560487Y-68360809D01*
X219589587Y-68405752D01*
X219631202Y-68517328D01*
X219631206Y-68517335D01*
X219717452Y-68632544D01*
X219717455Y-68632547D01*
X219832664Y-68718793D01*
X219832671Y-68718797D01*
X219866183Y-68731296D01*
X219967517Y-68769091D01*
X220027127Y-68775500D01*
X220672872Y-68775499D01*
X220732483Y-68769091D01*
X220867331Y-68718796D01*
X220982546Y-68632546D01*
X221068796Y-68517331D01*
X221119091Y-68382483D01*
X221125500Y-68322873D01*
X221125499Y-67827128D01*
X221119091Y-67767517D01*
X221118264Y-67765301D01*
X221068797Y-67632671D01*
X221068793Y-67632664D01*
X220982547Y-67517455D01*
X220982544Y-67517452D01*
X220880391Y-67440980D01*
X220872326Y-67430207D01*
X220861003Y-67422933D01*
X220851795Y-67402781D01*
X220838520Y-67385047D01*
X220836926Y-67370236D01*
X220831967Y-67359382D01*
X220833316Y-67336689D01*
X220831961Y-67324088D01*
X220833011Y-67316770D01*
X220860216Y-67215243D01*
X220860216Y-67127332D01*
X220861475Y-67118565D01*
X220872454Y-67094513D01*
X220879901Y-67069152D01*
X220888003Y-67060448D01*
X220890489Y-67055004D01*
X220896924Y-67050866D01*
X220909901Y-67036927D01*
X220982546Y-66982546D01*
X221068796Y-66867331D01*
X221119091Y-66732483D01*
X221125500Y-66672873D01*
X221125499Y-66177128D01*
X221119091Y-66117517D01*
X221117494Y-66113236D01*
X221068797Y-65982671D01*
X221068793Y-65982664D01*
X220982547Y-65867455D01*
X220982544Y-65867452D01*
X220867335Y-65781206D01*
X220867328Y-65781202D01*
X220732486Y-65730910D01*
X220732485Y-65730909D01*
X220732483Y-65730909D01*
X220672873Y-65724500D01*
X220672863Y-65724500D01*
X220027129Y-65724500D01*
X220027123Y-65724501D01*
X219967516Y-65730908D01*
X219832671Y-65781202D01*
X219832664Y-65781206D01*
X219717455Y-65867452D01*
X219717452Y-65867455D01*
X219631206Y-65982664D01*
X219631202Y-65982671D01*
X219580910Y-66117513D01*
X219580909Y-66117517D01*
X219574500Y-66177127D01*
X219574500Y-66177134D01*
X219574500Y-66177135D01*
X219574500Y-66434291D01*
X219554815Y-66501330D01*
X219502011Y-66547085D01*
X219432853Y-66557029D01*
X219375012Y-66532666D01*
X219370917Y-66529524D01*
X219370913Y-66529520D01*
X219365577Y-66526439D01*
X219317361Y-66475874D01*
X219304137Y-66407267D01*
X219307373Y-66395796D01*
X219303755Y-66390000D01*
X217496245Y-66390000D01*
X217495520Y-66391162D01*
X217488145Y-66397723D01*
X217484045Y-66406703D01*
X217462474Y-66420565D01*
X217443322Y-66437607D01*
X217432004Y-66440147D01*
X217425267Y-66444477D01*
X217390332Y-66449500D01*
X217238689Y-66449500D01*
X217204627Y-66443711D01*
X217204572Y-66443964D01*
X217199181Y-66442786D01*
X217197730Y-66442540D01*
X217197196Y-66442353D01*
X217166769Y-66439500D01*
X217166765Y-66439500D01*
X216542254Y-66439500D01*
X216475215Y-66419815D01*
X216454573Y-66403181D01*
X216173413Y-66122021D01*
X216173411Y-66122019D01*
X216120671Y-66091569D01*
X216082087Y-66069292D01*
X216011877Y-66050480D01*
X215980225Y-66041999D01*
X215980224Y-66041999D01*
X215397179Y-66041999D01*
X215393299Y-66040859D01*
X215389355Y-66041752D01*
X215360052Y-66031097D01*
X215330140Y-66022314D01*
X215326400Y-66018861D01*
X215323691Y-66017876D01*
X215301526Y-65995894D01*
X215298529Y-65993127D01*
X215298241Y-65992749D01*
X215217545Y-65884953D01*
X215214296Y-65882521D01*
X215214295Y-65882519D01*
X215102334Y-65798705D01*
X215102327Y-65798701D01*
X215078998Y-65790000D01*
X217496245Y-65790000D01*
X218100000Y-65790000D01*
X218700000Y-65790000D01*
X219303754Y-65790000D01*
X219276284Y-65733808D01*
X219193688Y-65651212D01*
X219088751Y-65599912D01*
X219088748Y-65599911D01*
X219020720Y-65590000D01*
X218700000Y-65590000D01*
X218700000Y-65790000D01*
X218100000Y-65790000D01*
X218100000Y-65590000D01*
X217779287Y-65590000D01*
X217711251Y-65599912D01*
X217606308Y-65651215D01*
X217523715Y-65733808D01*
X217496245Y-65790000D01*
X215078998Y-65790000D01*
X214967485Y-65748409D01*
X214967484Y-65748408D01*
X214967482Y-65748408D01*
X214907872Y-65741999D01*
X214907862Y-65741999D01*
X214262128Y-65741999D01*
X214262122Y-65742000D01*
X214202515Y-65748407D01*
X214067670Y-65798701D01*
X214067663Y-65798705D01*
X213952454Y-65884951D01*
X213952451Y-65884954D01*
X213866205Y-66000163D01*
X213866201Y-66000170D01*
X213815909Y-66135012D01*
X213815908Y-66135016D01*
X213809499Y-66194626D01*
X213809499Y-66194633D01*
X213809499Y-66194634D01*
X213809499Y-66388896D01*
X213808463Y-66392421D01*
X213809499Y-66397502D01*
X213809500Y-66675500D01*
X213789816Y-66742539D01*
X213737012Y-66788294D01*
X213685500Y-66799500D01*
X213438868Y-66799500D01*
X213371829Y-66779815D01*
X213326074Y-66727011D01*
X213316130Y-66657853D01*
X213345155Y-66594297D01*
X213384408Y-66564099D01*
X213436190Y-66538784D01*
X213518783Y-66456191D01*
X213546253Y-66400000D01*
X212766499Y-66400000D01*
X212699460Y-66380315D01*
X212653705Y-66327511D01*
X212642499Y-66276000D01*
X212642499Y-66100000D01*
X212466499Y-66100000D01*
X212399460Y-66080315D01*
X212353705Y-66027511D01*
X212342499Y-65976000D01*
X212342499Y-65800000D01*
X212942499Y-65800000D01*
X213546253Y-65800000D01*
X213518783Y-65743808D01*
X213436187Y-65661212D01*
X213331250Y-65609912D01*
X213331247Y-65609911D01*
X213263219Y-65600000D01*
X212942499Y-65600000D01*
X212942499Y-65800000D01*
X212342499Y-65800000D01*
X212342499Y-65600000D01*
X212021786Y-65600000D01*
X211953750Y-65609912D01*
X211848807Y-65661215D01*
X211766211Y-65743811D01*
X211714911Y-65848748D01*
X211714910Y-65848751D01*
X211704999Y-65916776D01*
X211704985Y-65916977D01*
X211704960Y-65917041D01*
X211704352Y-65921221D01*
X211703446Y-65921089D01*
X211680498Y-65982415D01*
X211624520Y-66024227D01*
X211581310Y-66031999D01*
X209627179Y-66031999D01*
X209560140Y-66012314D01*
X209527912Y-65982310D01*
X209447545Y-65874953D01*
X209361183Y-65810302D01*
X209332334Y-65788705D01*
X209332327Y-65788701D01*
X209197481Y-65738407D01*
X209197482Y-65738407D01*
X209137882Y-65732000D01*
X209137880Y-65731999D01*
X209137872Y-65731999D01*
X209137864Y-65731999D01*
X208732254Y-65731999D01*
X208665215Y-65712314D01*
X208644573Y-65695680D01*
X208358415Y-65409522D01*
X208358413Y-65409520D01*
X208310252Y-65381714D01*
X208267089Y-65356793D01*
X208216157Y-65343146D01*
X208165227Y-65329500D01*
X208165226Y-65329500D01*
X205697255Y-65329500D01*
X205667809Y-65320853D01*
X205637827Y-65314331D01*
X205632813Y-65310577D01*
X205630216Y-65309815D01*
X205609573Y-65293180D01*
X205567818Y-65251424D01*
X205534333Y-65190101D01*
X205531500Y-65163744D01*
X205531500Y-61330297D01*
X207570000Y-61330297D01*
X207570000Y-61850000D01*
X208262894Y-61850000D01*
X208219901Y-61892993D01*
X208154075Y-62007007D01*
X208120000Y-62134174D01*
X208120000Y-62265826D01*
X208154075Y-62392993D01*
X208219901Y-62507007D01*
X208262894Y-62550000D01*
X207570000Y-62550000D01*
X207570000Y-63069702D01*
X207581602Y-63128033D01*
X207581603Y-63128034D01*
X207625808Y-63194191D01*
X207691965Y-63238396D01*
X207691966Y-63238397D01*
X207750297Y-63249999D01*
X207750301Y-63250000D01*
X208270000Y-63250000D01*
X208270000Y-62557106D01*
X208312993Y-62600099D01*
X208427007Y-62665925D01*
X208554174Y-62700000D01*
X208685826Y-62700000D01*
X208812993Y-62665925D01*
X208927007Y-62600099D01*
X208970000Y-62557106D01*
X208970000Y-63250000D01*
X209489699Y-63250000D01*
X209489702Y-63249999D01*
X209548033Y-63238397D01*
X209548034Y-63238396D01*
X209614191Y-63194191D01*
X209658396Y-63128034D01*
X209658397Y-63128033D01*
X209669999Y-63069702D01*
X209670000Y-63069699D01*
X209670000Y-62550000D01*
X208977106Y-62550000D01*
X209020099Y-62507007D01*
X209085925Y-62392993D01*
X209120000Y-62265826D01*
X209120000Y-62134174D01*
X209085925Y-62007007D01*
X209020099Y-61892993D01*
X208977106Y-61850000D01*
X209670000Y-61850000D01*
X209670000Y-61330301D01*
X209669999Y-61330297D01*
X209658397Y-61271966D01*
X209658396Y-61271965D01*
X209614191Y-61205808D01*
X209548034Y-61161603D01*
X209548033Y-61161602D01*
X209489702Y-61150000D01*
X208970000Y-61150000D01*
X208970000Y-61842894D01*
X208927007Y-61799901D01*
X208812993Y-61734075D01*
X208685826Y-61700000D01*
X208554174Y-61700000D01*
X208427007Y-61734075D01*
X208312993Y-61799901D01*
X208270000Y-61842894D01*
X208270000Y-61150000D01*
X207750297Y-61150000D01*
X207691966Y-61161602D01*
X207691965Y-61161603D01*
X207625808Y-61205808D01*
X207581603Y-61271965D01*
X207581602Y-61271966D01*
X207570000Y-61330297D01*
X205531500Y-61330297D01*
X205531500Y-60386254D01*
X205551185Y-60319215D01*
X205567815Y-60298577D01*
X205879574Y-59986817D01*
X205940897Y-59953333D01*
X205967255Y-59950499D01*
X206372871Y-59950499D01*
X206372872Y-59950499D01*
X206432483Y-59944091D01*
X206567331Y-59893796D01*
X206682546Y-59807546D01*
X206762914Y-59700188D01*
X206818847Y-59658318D01*
X206862180Y-59650500D01*
X207212820Y-59650500D01*
X207279859Y-59670185D01*
X207312085Y-59700187D01*
X207392454Y-59807546D01*
X207411717Y-59821966D01*
X207507664Y-59893793D01*
X207507671Y-59893797D01*
X207552618Y-59910561D01*
X207642517Y-59944091D01*
X207702127Y-59950500D01*
X208347872Y-59950499D01*
X208407483Y-59944091D01*
X208542331Y-59893796D01*
X208657546Y-59807546D01*
X208737914Y-59700188D01*
X208793847Y-59658318D01*
X208837180Y-59650500D01*
X209137820Y-59650500D01*
X209204859Y-59670185D01*
X209237085Y-59700187D01*
X209317454Y-59807546D01*
X209336717Y-59821966D01*
X209432664Y-59893793D01*
X209432671Y-59893797D01*
X209477618Y-59910561D01*
X209567517Y-59944091D01*
X209627127Y-59950500D01*
X210272872Y-59950499D01*
X210332483Y-59944091D01*
X210467331Y-59893796D01*
X210582546Y-59807546D01*
X210662914Y-59700188D01*
X210718847Y-59658318D01*
X210762180Y-59650500D01*
X211037820Y-59650500D01*
X211104859Y-59670185D01*
X211137085Y-59700187D01*
X211217454Y-59807546D01*
X211236717Y-59821966D01*
X211332664Y-59893793D01*
X211332671Y-59893797D01*
X211377618Y-59910561D01*
X211467517Y-59944091D01*
X211527127Y-59950500D01*
X212172872Y-59950499D01*
X212175500Y-59950499D01*
X212242539Y-59970183D01*
X212288294Y-60022987D01*
X212299500Y-60074499D01*
X212299500Y-61403454D01*
X212290853Y-61432901D01*
X212284329Y-61462886D01*
X212280577Y-61467897D01*
X212279815Y-61470493D01*
X212263177Y-61491139D01*
X212252256Y-61502059D01*
X212190932Y-61535541D01*
X212121240Y-61530554D01*
X212065308Y-61488680D01*
X212064260Y-61487258D01*
X212037556Y-61450502D01*
X211909499Y-61322445D01*
X211909494Y-61322441D01*
X211762997Y-61216006D01*
X211762996Y-61216005D01*
X211762994Y-61216004D01*
X211687022Y-61177294D01*
X211601639Y-61133788D01*
X211601636Y-61133787D01*
X211429410Y-61077829D01*
X211250551Y-61049500D01*
X211250546Y-61049500D01*
X211069454Y-61049500D01*
X211069449Y-61049500D01*
X210890589Y-61077829D01*
X210718363Y-61133787D01*
X210718360Y-61133788D01*
X210557002Y-61216006D01*
X210410505Y-61322441D01*
X210410500Y-61322445D01*
X210282445Y-61450500D01*
X210282441Y-61450505D01*
X210176006Y-61597002D01*
X210093788Y-61758360D01*
X210093787Y-61758363D01*
X210037829Y-61930589D01*
X210009500Y-62109448D01*
X210009500Y-62290551D01*
X210037829Y-62469410D01*
X210093787Y-62641636D01*
X210093788Y-62641639D01*
X210129786Y-62712287D01*
X210174478Y-62800000D01*
X210176006Y-62802997D01*
X210282441Y-62949494D01*
X210282445Y-62949499D01*
X210410500Y-63077554D01*
X210410505Y-63077558D01*
X210538287Y-63170396D01*
X210557006Y-63183996D01*
X210662484Y-63237740D01*
X210718360Y-63266211D01*
X210718363Y-63266212D01*
X210801140Y-63293107D01*
X210890591Y-63322171D01*
X210973429Y-63335291D01*
X211069449Y-63350500D01*
X211069454Y-63350500D01*
X211250551Y-63350500D01*
X211337259Y-63336765D01*
X211429409Y-63322171D01*
X211601639Y-63266211D01*
X211762994Y-63183996D01*
X211909501Y-63077553D01*
X212037553Y-62949501D01*
X212143996Y-62802994D01*
X212226211Y-62641639D01*
X212275811Y-62488982D01*
X212282798Y-62477580D01*
X212284910Y-62467873D01*
X212306057Y-62439623D01*
X212364515Y-62381165D01*
X212425836Y-62347682D01*
X212495528Y-62352666D01*
X212551461Y-62394538D01*
X212574667Y-62449447D01*
X212577829Y-62469412D01*
X212633787Y-62641636D01*
X212633788Y-62641639D01*
X212669786Y-62712287D01*
X212714478Y-62800000D01*
X212716006Y-62802997D01*
X212822441Y-62949494D01*
X212822445Y-62949499D01*
X212950500Y-63077554D01*
X212950505Y-63077558D01*
X213078287Y-63170396D01*
X213097006Y-63183996D01*
X213202484Y-63237740D01*
X213258360Y-63266211D01*
X213258363Y-63266212D01*
X213341140Y-63293107D01*
X213430591Y-63322171D01*
X213513429Y-63335291D01*
X213609449Y-63350500D01*
X213609454Y-63350500D01*
X213790551Y-63350500D01*
X213877259Y-63336765D01*
X213969409Y-63322171D01*
X214141639Y-63266211D01*
X214302994Y-63183996D01*
X214449501Y-63077553D01*
X214577553Y-62949501D01*
X214683996Y-62802994D01*
X214766211Y-62641639D01*
X214822171Y-62469409D01*
X214841451Y-62347682D01*
X214850500Y-62290551D01*
X214850500Y-62109454D01*
X214850499Y-62109448D01*
X214848036Y-62093897D01*
X214856991Y-62024605D01*
X214901987Y-61971153D01*
X214968738Y-61950513D01*
X214970509Y-61950500D01*
X215856367Y-61950500D01*
X215923406Y-61970185D01*
X215969161Y-62022989D01*
X215974298Y-62036181D01*
X215994781Y-62099223D01*
X216012590Y-62134174D01*
X216083940Y-62274206D01*
X216087715Y-62281613D01*
X216208028Y-62447213D01*
X216352786Y-62591971D01*
X216501478Y-62700000D01*
X216518390Y-62712287D01*
X216634607Y-62771503D01*
X216700776Y-62805218D01*
X216700778Y-62805218D01*
X216700781Y-62805220D01*
X216774230Y-62829085D01*
X216895465Y-62868477D01*
X216996557Y-62884488D01*
X217097648Y-62900500D01*
X217097649Y-62900500D01*
X217302351Y-62900500D01*
X217302352Y-62900500D01*
X217504534Y-62868477D01*
X217699219Y-62805220D01*
X217881610Y-62712287D01*
X217978858Y-62641633D01*
X218047213Y-62591971D01*
X218047215Y-62591968D01*
X218047219Y-62591966D01*
X218191966Y-62447219D01*
X218191968Y-62447215D01*
X218191971Y-62447213D01*
X218286334Y-62317331D01*
X218312287Y-62281610D01*
X218405220Y-62099219D01*
X218468477Y-61904534D01*
X218500500Y-61702352D01*
X218500500Y-61497648D01*
X220049500Y-61497648D01*
X220049500Y-61702351D01*
X220081522Y-61904534D01*
X220144781Y-62099223D01*
X220162590Y-62134174D01*
X220233940Y-62274206D01*
X220237715Y-62281613D01*
X220358028Y-62447213D01*
X220502786Y-62591971D01*
X220651478Y-62700000D01*
X220668390Y-62712287D01*
X220784607Y-62771503D01*
X220850776Y-62805218D01*
X220850778Y-62805218D01*
X220850781Y-62805220D01*
X220924230Y-62829085D01*
X221045465Y-62868477D01*
X221146557Y-62884488D01*
X221247648Y-62900500D01*
X221247649Y-62900500D01*
X221452351Y-62900500D01*
X221452352Y-62900500D01*
X221654534Y-62868477D01*
X221849219Y-62805220D01*
X222031610Y-62712287D01*
X222128858Y-62641633D01*
X222197213Y-62591971D01*
X222197215Y-62591968D01*
X222197219Y-62591966D01*
X222341966Y-62447219D01*
X222341968Y-62447215D01*
X222341971Y-62447213D01*
X222436334Y-62317331D01*
X222462287Y-62281610D01*
X222555220Y-62099219D01*
X222618477Y-61904534D01*
X222650500Y-61702352D01*
X222650500Y-61497648D01*
X224199500Y-61497648D01*
X224199500Y-61702351D01*
X224231522Y-61904534D01*
X224294781Y-62099223D01*
X224312590Y-62134174D01*
X224383940Y-62274206D01*
X224387715Y-62281613D01*
X224508028Y-62447213D01*
X224652786Y-62591971D01*
X224801478Y-62700000D01*
X224818390Y-62712287D01*
X224934607Y-62771503D01*
X225000776Y-62805218D01*
X225000778Y-62805218D01*
X225000781Y-62805220D01*
X225074230Y-62829085D01*
X225195465Y-62868477D01*
X225296557Y-62884488D01*
X225397648Y-62900500D01*
X225397649Y-62900500D01*
X225602351Y-62900500D01*
X225602352Y-62900500D01*
X225804534Y-62868477D01*
X225999219Y-62805220D01*
X226181610Y-62712287D01*
X226278858Y-62641633D01*
X226347213Y-62591971D01*
X226347215Y-62591968D01*
X226347219Y-62591966D01*
X226491966Y-62447219D01*
X226491968Y-62447215D01*
X226491971Y-62447213D01*
X226586334Y-62317331D01*
X226612287Y-62281610D01*
X226705220Y-62099219D01*
X226768477Y-61904534D01*
X226800500Y-61702352D01*
X226800500Y-61497648D01*
X226793526Y-61453615D01*
X226768477Y-61295465D01*
X226730470Y-61178494D01*
X226705220Y-61100781D01*
X226705218Y-61100778D01*
X226705218Y-61100776D01*
X226663759Y-61019409D01*
X226612287Y-60918390D01*
X226576253Y-60868793D01*
X226491971Y-60752786D01*
X226347213Y-60608028D01*
X226181613Y-60487715D01*
X226181612Y-60487714D01*
X226181610Y-60487713D01*
X226107457Y-60449930D01*
X225999223Y-60394781D01*
X225804534Y-60331522D01*
X225629995Y-60303878D01*
X225602352Y-60299500D01*
X225397648Y-60299500D01*
X225373329Y-60303351D01*
X225195465Y-60331522D01*
X225000776Y-60394781D01*
X224818386Y-60487715D01*
X224652786Y-60608028D01*
X224508028Y-60752786D01*
X224387715Y-60918386D01*
X224294781Y-61100776D01*
X224231522Y-61295465D01*
X224199500Y-61497648D01*
X222650500Y-61497648D01*
X222643526Y-61453615D01*
X222618477Y-61295465D01*
X222580470Y-61178494D01*
X222555220Y-61100781D01*
X222555218Y-61100778D01*
X222555218Y-61100776D01*
X222513759Y-61019409D01*
X222462287Y-60918390D01*
X222426253Y-60868793D01*
X222341971Y-60752786D01*
X222197213Y-60608028D01*
X222031613Y-60487715D01*
X222031612Y-60487714D01*
X222031610Y-60487713D01*
X221957457Y-60449930D01*
X221849223Y-60394781D01*
X221654534Y-60331522D01*
X221479995Y-60303878D01*
X221452352Y-60299500D01*
X221247648Y-60299500D01*
X221223329Y-60303351D01*
X221045465Y-60331522D01*
X220850776Y-60394781D01*
X220668386Y-60487715D01*
X220502786Y-60608028D01*
X220358028Y-60752786D01*
X220237715Y-60918386D01*
X220144781Y-61100776D01*
X220081522Y-61295465D01*
X220049500Y-61497648D01*
X218500500Y-61497648D01*
X218493526Y-61453615D01*
X218468477Y-61295465D01*
X218430470Y-61178494D01*
X218405220Y-61100781D01*
X218405218Y-61100778D01*
X218405218Y-61100776D01*
X218363759Y-61019409D01*
X218312287Y-60918390D01*
X218276253Y-60868793D01*
X218191971Y-60752786D01*
X218047213Y-60608028D01*
X217881613Y-60487715D01*
X217881612Y-60487714D01*
X217881610Y-60487713D01*
X217807457Y-60449930D01*
X217699223Y-60394781D01*
X217504534Y-60331522D01*
X217329995Y-60303878D01*
X217302352Y-60299500D01*
X217097648Y-60299500D01*
X217073329Y-60303351D01*
X216895465Y-60331522D01*
X216700776Y-60394781D01*
X216518386Y-60487715D01*
X216352786Y-60608028D01*
X216208028Y-60752786D01*
X216087715Y-60918386D01*
X215994781Y-61100776D01*
X215984056Y-61133787D01*
X215976161Y-61158086D01*
X215974298Y-61163819D01*
X215934860Y-61221494D01*
X215870501Y-61248692D01*
X215856367Y-61249500D01*
X214389388Y-61249500D01*
X214322349Y-61229815D01*
X214316506Y-61225821D01*
X214302991Y-61216002D01*
X214141639Y-61133788D01*
X214141636Y-61133787D01*
X213969410Y-61077829D01*
X213790551Y-61049500D01*
X213790546Y-61049500D01*
X213609454Y-61049500D01*
X213609449Y-61049500D01*
X213443898Y-61075721D01*
X213374605Y-61066767D01*
X213321153Y-61021770D01*
X213300513Y-60955019D01*
X213300500Y-60953248D01*
X213300500Y-59136601D01*
X213320185Y-59069562D01*
X213372989Y-59023807D01*
X213442147Y-59013863D01*
X213469987Y-59021246D01*
X213516669Y-59039655D01*
X213582148Y-59065477D01*
X213582150Y-59065477D01*
X213582154Y-59065479D01*
X213665598Y-59075500D01*
X214184402Y-59075500D01*
X214267846Y-59065479D01*
X214400632Y-59013115D01*
X214514367Y-58926867D01*
X214600615Y-58813132D01*
X214648696Y-58691204D01*
X214691601Y-58636062D01*
X214757508Y-58612869D01*
X214825493Y-58628989D01*
X214873970Y-58679306D01*
X214874535Y-58680402D01*
X214938250Y-58805451D01*
X214938252Y-58805454D01*
X215032050Y-58899251D01*
X215149999Y-58959348D01*
X215150000Y-58959348D01*
X215150000Y-58424000D01*
X215169685Y-58356961D01*
X215222489Y-58311206D01*
X215274000Y-58300000D01*
X215726000Y-58300000D01*
X215793039Y-58319685D01*
X215838794Y-58372489D01*
X215850000Y-58424000D01*
X215850000Y-58959348D01*
X215967949Y-58899251D01*
X216061747Y-58805454D01*
X216121968Y-58687263D01*
X216123851Y-58681470D01*
X216163289Y-58623795D01*
X216227648Y-58596597D01*
X216296494Y-58608512D01*
X216347970Y-58655757D01*
X216357137Y-58674299D01*
X216359520Y-58680343D01*
X216359521Y-58680346D01*
X216411885Y-58813132D01*
X216411886Y-58813134D01*
X216498132Y-58926867D01*
X216597378Y-59002127D01*
X216611868Y-59013115D01*
X216744654Y-59065479D01*
X216828098Y-59075500D01*
X217346902Y-59075500D01*
X217430346Y-59065479D01*
X217563132Y-59013115D01*
X217676867Y-58926867D01*
X217763115Y-58813132D01*
X217811196Y-58691204D01*
X217854101Y-58636062D01*
X217920008Y-58612869D01*
X217987993Y-58628989D01*
X218036470Y-58679306D01*
X218037035Y-58680402D01*
X218100750Y-58805451D01*
X218100752Y-58805454D01*
X218194550Y-58899251D01*
X218312499Y-58959348D01*
X218312500Y-58959348D01*
X219012500Y-58959348D01*
X219130449Y-58899251D01*
X219224247Y-58805454D01*
X219284470Y-58687259D01*
X219290372Y-58650000D01*
X219012500Y-58650000D01*
X219012500Y-58959348D01*
X218312500Y-58959348D01*
X218312500Y-58487500D01*
X219854628Y-58487500D01*
X219860529Y-58524759D01*
X219920752Y-58642954D01*
X220014550Y-58736751D01*
X220132499Y-58796848D01*
X220132500Y-58796848D01*
X220132500Y-58487500D01*
X219854628Y-58487500D01*
X218312500Y-58487500D01*
X218312500Y-58424000D01*
X218332185Y-58356961D01*
X218384989Y-58311206D01*
X218436500Y-58300000D01*
X218662500Y-58300000D01*
X218662500Y-58074000D01*
X218682185Y-58006961D01*
X218734989Y-57961206D01*
X218786500Y-57950000D01*
X219290371Y-57950000D01*
X219284470Y-57912740D01*
X219224247Y-57794545D01*
X219224244Y-57794541D01*
X219130458Y-57700755D01*
X219130454Y-57700752D01*
X219020196Y-57644573D01*
X218969400Y-57596599D01*
X218952605Y-57528778D01*
X218975142Y-57462643D01*
X219029857Y-57419191D01*
X219033132Y-57417916D01*
X219164831Y-57368796D01*
X219280046Y-57282546D01*
X219366296Y-57167331D01*
X219416591Y-57032483D01*
X219423000Y-56972873D01*
X219422999Y-56327128D01*
X219416591Y-56267517D01*
X219410851Y-56252127D01*
X219397802Y-56217138D01*
X219382878Y-56177127D01*
X219724500Y-56177127D01*
X219724500Y-56177134D01*
X219724500Y-56177135D01*
X219724500Y-56822870D01*
X219724501Y-56822876D01*
X219730908Y-56882483D01*
X219781202Y-57017328D01*
X219781206Y-57017335D01*
X219867452Y-57132544D01*
X219867455Y-57132547D01*
X219982664Y-57218793D01*
X219982671Y-57218797D01*
X220074544Y-57253063D01*
X220096121Y-57261111D01*
X220098733Y-57262085D01*
X220154667Y-57303956D01*
X220179084Y-57369420D01*
X220164233Y-57437693D01*
X220114828Y-57487099D01*
X220111695Y-57488752D01*
X220014546Y-57538252D01*
X220014541Y-57538255D01*
X219920755Y-57632041D01*
X219920752Y-57632045D01*
X219860529Y-57750240D01*
X219854628Y-57787500D01*
X220358500Y-57787500D01*
X220425539Y-57807185D01*
X220471294Y-57859989D01*
X220482500Y-57911500D01*
X220482500Y-58137500D01*
X220708500Y-58137500D01*
X220775539Y-58157185D01*
X220821294Y-58209989D01*
X220832500Y-58261500D01*
X220832500Y-58796848D01*
X220950449Y-58736751D01*
X221044247Y-58642954D01*
X221044249Y-58642952D01*
X221107964Y-58517902D01*
X221155938Y-58467106D01*
X221223758Y-58450310D01*
X221289894Y-58472847D01*
X221333346Y-58527561D01*
X221333803Y-58528706D01*
X221381883Y-58650628D01*
X221381886Y-58650634D01*
X221468132Y-58764367D01*
X221581865Y-58850613D01*
X221581868Y-58850615D01*
X221714654Y-58902979D01*
X221798098Y-58913000D01*
X222316902Y-58913000D01*
X222400346Y-58902979D01*
X222533132Y-58850615D01*
X222646867Y-58764367D01*
X222733115Y-58650632D01*
X222785479Y-58517846D01*
X222795500Y-58434402D01*
X222795500Y-57840598D01*
X222794525Y-57832483D01*
X222787367Y-57772873D01*
X222785479Y-57757154D01*
X222733115Y-57624368D01*
X222733113Y-57624365D01*
X222646867Y-57510632D01*
X222526374Y-57419260D01*
X222527733Y-57417466D01*
X222518297Y-57413157D01*
X222505914Y-57393889D01*
X222489927Y-57377493D01*
X222486490Y-57363664D01*
X222480523Y-57354379D01*
X222475500Y-57319444D01*
X222475500Y-57312180D01*
X222495185Y-57245141D01*
X222525187Y-57212914D01*
X222632546Y-57132546D01*
X222718796Y-57017331D01*
X222769091Y-56882483D01*
X222775500Y-56822873D01*
X222775499Y-56177128D01*
X222769091Y-56117517D01*
X222756094Y-56082671D01*
X222718797Y-55982671D01*
X222718793Y-55982664D01*
X222632547Y-55867455D01*
X222632544Y-55867452D01*
X222517335Y-55781206D01*
X222517328Y-55781202D01*
X222382486Y-55730910D01*
X222382485Y-55730909D01*
X222382483Y-55730909D01*
X222322873Y-55724500D01*
X222322863Y-55724500D01*
X221827129Y-55724500D01*
X221827123Y-55724501D01*
X221767516Y-55730908D01*
X221632671Y-55781202D01*
X221632664Y-55781206D01*
X221517455Y-55867452D01*
X221517452Y-55867455D01*
X221431206Y-55982664D01*
X221431202Y-55982671D01*
X221381574Y-56115734D01*
X221380909Y-56117517D01*
X221374500Y-56177127D01*
X221374500Y-56177134D01*
X221374500Y-56177135D01*
X221374500Y-56822870D01*
X221374501Y-56822876D01*
X221380908Y-56882483D01*
X221431202Y-57017328D01*
X221431206Y-57017335D01*
X221481521Y-57084546D01*
X221517454Y-57132546D01*
X221617182Y-57207202D01*
X221659053Y-57263136D01*
X221664037Y-57332828D01*
X221630552Y-57394151D01*
X221588366Y-57421822D01*
X221581867Y-57424384D01*
X221468132Y-57510632D01*
X221381886Y-57624365D01*
X221381883Y-57624371D01*
X221333803Y-57746293D01*
X221290897Y-57801437D01*
X221224989Y-57824630D01*
X221157005Y-57808509D01*
X221108529Y-57758192D01*
X221107964Y-57757097D01*
X221044249Y-57632048D01*
X221044244Y-57632041D01*
X220950458Y-57538255D01*
X220950454Y-57538252D01*
X220832257Y-57478028D01*
X220822978Y-57475013D01*
X220823606Y-57473080D01*
X220771806Y-57448517D01*
X220734881Y-57389202D01*
X220735886Y-57319339D01*
X220774502Y-57261111D01*
X220811010Y-57239802D01*
X220867331Y-57218796D01*
X220982546Y-57132546D01*
X221068796Y-57017331D01*
X221119091Y-56882483D01*
X221125500Y-56822873D01*
X221125499Y-56177128D01*
X221119091Y-56117517D01*
X221106094Y-56082671D01*
X221068797Y-55982671D01*
X221068793Y-55982664D01*
X220982547Y-55867455D01*
X220982544Y-55867452D01*
X220867335Y-55781206D01*
X220867328Y-55781202D01*
X220732486Y-55730910D01*
X220732485Y-55730909D01*
X220732483Y-55730909D01*
X220672873Y-55724500D01*
X220672863Y-55724500D01*
X220177129Y-55724500D01*
X220177123Y-55724501D01*
X220117516Y-55730908D01*
X219982671Y-55781202D01*
X219982664Y-55781206D01*
X219867455Y-55867452D01*
X219867452Y-55867455D01*
X219781206Y-55982664D01*
X219781202Y-55982671D01*
X219731574Y-56115734D01*
X219730909Y-56117517D01*
X219724500Y-56177127D01*
X219382878Y-56177127D01*
X219366297Y-56132671D01*
X219366293Y-56132664D01*
X219280047Y-56017455D01*
X219280044Y-56017452D01*
X219164835Y-55931206D01*
X219164828Y-55931202D01*
X219029986Y-55880910D01*
X219029985Y-55880909D01*
X219029983Y-55880909D01*
X218970373Y-55874500D01*
X218970363Y-55874500D01*
X218474629Y-55874500D01*
X218474623Y-55874501D01*
X218415016Y-55880908D01*
X218280171Y-55931202D01*
X218280164Y-55931206D01*
X218164955Y-56017452D01*
X218164952Y-56017455D01*
X218078706Y-56132664D01*
X218078702Y-56132671D01*
X218028592Y-56267026D01*
X218028409Y-56267517D01*
X218022000Y-56327127D01*
X218022000Y-56327134D01*
X218022000Y-56327135D01*
X218022000Y-56972870D01*
X218022001Y-56972876D01*
X218028408Y-57032483D01*
X218078702Y-57167328D01*
X218078706Y-57167335D01*
X218164952Y-57282544D01*
X218164955Y-57282547D01*
X218280164Y-57368793D01*
X218280171Y-57368797D01*
X218359264Y-57398297D01*
X218415198Y-57440168D01*
X218439615Y-57505632D01*
X218424763Y-57573905D01*
X218375358Y-57623311D01*
X218335329Y-57636952D01*
X218312740Y-57640529D01*
X218312739Y-57640529D01*
X218194545Y-57700752D01*
X218194541Y-57700755D01*
X218100755Y-57794541D01*
X218100752Y-57794545D01*
X218037035Y-57919598D01*
X217989060Y-57970394D01*
X217921239Y-57987189D01*
X217855105Y-57964652D01*
X217811653Y-57909937D01*
X217811260Y-57908955D01*
X217763115Y-57786868D01*
X217761081Y-57784186D01*
X217676867Y-57673132D01*
X217563131Y-57586884D01*
X217563129Y-57586883D01*
X217551510Y-57582301D01*
X217534921Y-57569393D01*
X217515797Y-57560660D01*
X217507896Y-57548366D01*
X217496366Y-57539395D01*
X217489388Y-57519567D01*
X217478023Y-57501882D01*
X217474470Y-57477175D01*
X217473173Y-57473488D01*
X217473000Y-57466947D01*
X217473000Y-57462180D01*
X217492685Y-57395141D01*
X217522687Y-57362914D01*
X217630046Y-57282546D01*
X217716296Y-57167331D01*
X217766591Y-57032483D01*
X217773000Y-56972873D01*
X217772999Y-56327128D01*
X217767332Y-56274410D01*
X217766591Y-56267516D01*
X217716297Y-56132671D01*
X217716293Y-56132664D01*
X217630047Y-56017455D01*
X217630044Y-56017452D01*
X217514835Y-55931206D01*
X217514828Y-55931202D01*
X217379986Y-55880910D01*
X217379985Y-55880909D01*
X217379983Y-55880909D01*
X217320373Y-55874500D01*
X217320363Y-55874500D01*
X216824629Y-55874500D01*
X216824623Y-55874501D01*
X216765016Y-55880908D01*
X216630171Y-55931202D01*
X216630164Y-55931206D01*
X216514955Y-56017452D01*
X216514952Y-56017455D01*
X216428706Y-56132665D01*
X216426330Y-56137016D01*
X216376922Y-56186419D01*
X216308648Y-56201268D01*
X216243185Y-56176848D01*
X216208670Y-56137016D01*
X216206297Y-56132673D01*
X216206296Y-56132669D01*
X216168869Y-56082673D01*
X216120047Y-56017455D01*
X216120044Y-56017452D01*
X216004835Y-55931206D01*
X216004828Y-55931202D01*
X215869986Y-55880910D01*
X215869985Y-55880909D01*
X215869983Y-55880909D01*
X215810373Y-55874500D01*
X215810363Y-55874500D01*
X215314629Y-55874500D01*
X215314623Y-55874501D01*
X215255016Y-55880908D01*
X215120171Y-55931202D01*
X215120164Y-55931206D01*
X215004955Y-56017452D01*
X215004952Y-56017455D01*
X214918706Y-56132664D01*
X214918702Y-56132671D01*
X214868592Y-56267026D01*
X214868409Y-56267517D01*
X214862000Y-56327127D01*
X214862000Y-56327134D01*
X214862000Y-56327135D01*
X214862000Y-56972870D01*
X214862001Y-56972876D01*
X214868408Y-57032483D01*
X214918702Y-57167328D01*
X214918706Y-57167335D01*
X215004952Y-57282544D01*
X215004955Y-57282547D01*
X215120164Y-57368793D01*
X215120171Y-57368797D01*
X215198519Y-57398019D01*
X215254453Y-57439890D01*
X215278870Y-57505354D01*
X215264019Y-57573627D01*
X215214613Y-57623033D01*
X215174584Y-57636674D01*
X215150240Y-57640529D01*
X215150239Y-57640529D01*
X215032045Y-57700752D01*
X215032041Y-57700755D01*
X214938255Y-57794541D01*
X214938252Y-57794545D01*
X214874535Y-57919598D01*
X214826560Y-57970394D01*
X214758739Y-57987189D01*
X214692605Y-57964652D01*
X214649153Y-57909937D01*
X214648760Y-57908955D01*
X214600615Y-57786868D01*
X214598581Y-57784186D01*
X214514367Y-57673132D01*
X214400633Y-57586885D01*
X214395407Y-57584824D01*
X214391509Y-57583287D01*
X214374918Y-57570378D01*
X214355797Y-57561646D01*
X214347897Y-57549354D01*
X214336366Y-57540382D01*
X214329387Y-57520552D01*
X214318023Y-57502868D01*
X214314470Y-57478161D01*
X214313173Y-57474474D01*
X214313000Y-57467933D01*
X214313000Y-57462180D01*
X214332685Y-57395141D01*
X214362687Y-57362914D01*
X214470046Y-57282546D01*
X214556296Y-57167331D01*
X214606591Y-57032483D01*
X214613000Y-56972873D01*
X214612999Y-56327128D01*
X214606591Y-56267517D01*
X214576098Y-56185763D01*
X214571115Y-56116074D01*
X214604598Y-56054753D01*
X215004535Y-55654816D01*
X215065856Y-55621333D01*
X215092204Y-55618499D01*
X215769824Y-55618499D01*
X215769839Y-55618497D01*
X215769842Y-55618497D01*
X215794947Y-55615586D01*
X215794948Y-55615585D01*
X215794951Y-55615585D01*
X215897725Y-55570206D01*
X215977166Y-55490765D01*
X216022545Y-55387991D01*
X216025460Y-55362865D01*
X216025459Y-53973136D01*
X216025285Y-53971633D01*
X216022546Y-53948012D01*
X216022545Y-53948010D01*
X216022545Y-53948009D01*
X215977166Y-53845235D01*
X215897725Y-53765794D01*
X215897724Y-53765793D01*
X215897723Y-53765792D01*
X215888247Y-53759301D01*
X215889191Y-53757922D01*
X215845994Y-53721430D01*
X215825470Y-53654642D01*
X215825460Y-53653087D01*
X215825460Y-51978729D01*
X215825461Y-51978716D01*
X215825461Y-51863274D01*
X215824181Y-51858496D01*
X215798167Y-51761413D01*
X215789218Y-51745913D01*
X215745440Y-51670087D01*
X215670873Y-51595520D01*
X215670870Y-51595518D01*
X214754873Y-50679520D01*
X214709210Y-50653156D01*
X214663549Y-50626793D01*
X214612617Y-50613146D01*
X214561687Y-50599500D01*
X214561686Y-50599500D01*
X209546457Y-50599500D01*
X209479418Y-50579815D01*
X209433663Y-50527011D01*
X209423719Y-50457853D01*
X209452744Y-50394297D01*
X209492990Y-50367615D01*
X209491452Y-50364597D01*
X209613041Y-50302643D01*
X209613050Y-50302636D01*
X209702636Y-50213050D01*
X209702639Y-50213046D01*
X209760164Y-50100146D01*
X209768107Y-50050000D01*
X208581893Y-50050000D01*
X208589835Y-50100146D01*
X208647360Y-50213046D01*
X208647363Y-50213050D01*
X208736949Y-50302636D01*
X208736953Y-50302639D01*
X208858548Y-50364595D01*
X208856891Y-50367846D01*
X208899533Y-50396998D01*
X208926737Y-50461355D01*
X208914828Y-50530202D01*
X208867588Y-50581682D01*
X208803546Y-50599500D01*
X208098498Y-50599500D01*
X208031459Y-50579815D01*
X207985704Y-50527011D01*
X207975760Y-50457853D01*
X208004785Y-50394297D01*
X208024186Y-50376234D01*
X208082546Y-50332546D01*
X208168796Y-50217331D01*
X208219091Y-50082483D01*
X208225500Y-50022873D01*
X208225500Y-50000000D01*
X210077499Y-50000000D01*
X210122360Y-50088046D01*
X210122363Y-50088050D01*
X210211949Y-50177636D01*
X210211953Y-50177639D01*
X210324853Y-50235164D01*
X210374999Y-50243106D01*
X210375000Y-50243106D01*
X210375000Y-50243105D01*
X211075000Y-50243105D01*
X211125151Y-50235163D01*
X211125154Y-50235162D01*
X211238041Y-50177643D01*
X211238050Y-50177636D01*
X211327636Y-50088050D01*
X211327639Y-50088046D01*
X211372501Y-50000000D01*
X211702499Y-50000000D01*
X211747360Y-50088046D01*
X211747363Y-50088050D01*
X211836949Y-50177636D01*
X211836953Y-50177639D01*
X211949853Y-50235164D01*
X211999999Y-50243106D01*
X212000000Y-50243106D01*
X212000000Y-50243105D01*
X212700000Y-50243105D01*
X212750151Y-50235163D01*
X212750154Y-50235162D01*
X212863041Y-50177643D01*
X212863050Y-50177636D01*
X212952636Y-50088050D01*
X212952639Y-50088046D01*
X212997501Y-50000000D01*
X213327499Y-50000000D01*
X213372360Y-50088046D01*
X213372363Y-50088050D01*
X213461949Y-50177636D01*
X213461953Y-50177639D01*
X213574853Y-50235164D01*
X213624999Y-50243106D01*
X213625000Y-50243106D01*
X213625000Y-50243105D01*
X214325000Y-50243105D01*
X214375151Y-50235163D01*
X214375154Y-50235162D01*
X214488041Y-50177643D01*
X214488050Y-50177636D01*
X214577636Y-50088050D01*
X214577639Y-50088046D01*
X214622501Y-50000000D01*
X214325000Y-50000000D01*
X214325000Y-50243105D01*
X213625000Y-50243105D01*
X213625000Y-50000000D01*
X213327499Y-50000000D01*
X212997501Y-50000000D01*
X212700000Y-50000000D01*
X212700000Y-50243105D01*
X212000000Y-50243105D01*
X212000000Y-50000000D01*
X211702499Y-50000000D01*
X211372501Y-50000000D01*
X211075000Y-50000000D01*
X211075000Y-50243105D01*
X210375000Y-50243105D01*
X210375000Y-50000000D01*
X210077499Y-50000000D01*
X208225500Y-50000000D01*
X208225499Y-49546543D01*
X208234145Y-49517097D01*
X208240667Y-49487117D01*
X208244420Y-49482103D01*
X208245183Y-49479505D01*
X208261813Y-49458868D01*
X208383864Y-49336817D01*
X208445186Y-49303334D01*
X208471544Y-49300500D01*
X208482451Y-49300500D01*
X208507207Y-49307769D01*
X208514878Y-49308318D01*
X208518622Y-49311121D01*
X208549490Y-49320185D01*
X208576740Y-49343967D01*
X208581893Y-49350000D01*
X209768107Y-49350000D01*
X209773260Y-49343967D01*
X209831767Y-49305775D01*
X209867549Y-49300500D01*
X215092098Y-49300500D01*
X215159137Y-49320185D01*
X215204892Y-49372989D01*
X215213715Y-49400308D01*
X215230261Y-49483491D01*
X215230264Y-49483501D01*
X215290602Y-49629172D01*
X215290609Y-49629185D01*
X215378210Y-49760288D01*
X215378213Y-49760292D01*
X215489707Y-49871786D01*
X215489711Y-49871789D01*
X215620814Y-49959390D01*
X215620827Y-49959397D01*
X215718853Y-50000000D01*
X215766503Y-50019737D01*
X215918639Y-50049999D01*
X215921153Y-50050499D01*
X215921156Y-50050500D01*
X215921158Y-50050500D01*
X216078844Y-50050500D01*
X216078845Y-50050499D01*
X216233497Y-50019737D01*
X216379179Y-49959394D01*
X216510289Y-49871789D01*
X216621789Y-49760289D01*
X216652646Y-49714109D01*
X216658325Y-49705610D01*
X216711937Y-49660804D01*
X216761427Y-49650500D01*
X217222745Y-49650500D01*
X217289784Y-49670185D01*
X217310426Y-49686819D01*
X220484325Y-52860718D01*
X220517810Y-52922041D01*
X220514575Y-52986716D01*
X220467829Y-53130587D01*
X220439500Y-53309448D01*
X220439500Y-53490551D01*
X220467829Y-53669410D01*
X220523787Y-53841636D01*
X220523788Y-53841639D01*
X220573470Y-53939143D01*
X220604915Y-54000857D01*
X220606006Y-54002997D01*
X220712441Y-54149494D01*
X220712445Y-54149499D01*
X220840500Y-54277554D01*
X220840505Y-54277558D01*
X220912019Y-54329515D01*
X220987006Y-54383996D01*
X221081988Y-54432392D01*
X221148360Y-54466211D01*
X221148363Y-54466212D01*
X221234476Y-54494191D01*
X221320591Y-54522171D01*
X221403429Y-54535291D01*
X221499449Y-54550500D01*
X221499454Y-54550500D01*
X221680551Y-54550500D01*
X221767259Y-54536765D01*
X221859409Y-54522171D01*
X222031639Y-54466211D01*
X222192994Y-54383996D01*
X222339501Y-54277553D01*
X222467553Y-54149501D01*
X222573996Y-54002994D01*
X222656211Y-53841639D01*
X222712171Y-53669409D01*
X222725910Y-53582667D01*
X222740500Y-53490551D01*
X222740500Y-53309448D01*
X222717437Y-53163841D01*
X222712171Y-53130591D01*
X222671332Y-53004900D01*
X222656212Y-52958363D01*
X222656211Y-52958360D01*
X222614650Y-52876794D01*
X222573996Y-52797006D01*
X222524811Y-52729308D01*
X222467558Y-52650505D01*
X222467554Y-52650500D01*
X222347351Y-52530297D01*
X223080000Y-52530297D01*
X223080000Y-53050000D01*
X223772894Y-53050000D01*
X223729901Y-53092993D01*
X223664075Y-53207007D01*
X223630000Y-53334174D01*
X223630000Y-53465826D01*
X223664075Y-53592993D01*
X223729901Y-53707007D01*
X223772894Y-53750000D01*
X223080000Y-53750000D01*
X223080000Y-54269702D01*
X223091602Y-54328033D01*
X223091603Y-54328034D01*
X223135808Y-54394191D01*
X223201965Y-54438396D01*
X223201966Y-54438397D01*
X223260297Y-54449999D01*
X223260301Y-54450000D01*
X223780000Y-54450000D01*
X223780000Y-53757106D01*
X223822993Y-53800099D01*
X223937007Y-53865925D01*
X224064174Y-53900000D01*
X224195826Y-53900000D01*
X224322993Y-53865925D01*
X224437007Y-53800099D01*
X224480000Y-53757106D01*
X224480000Y-54450000D01*
X224999699Y-54450000D01*
X224999702Y-54449999D01*
X225058033Y-54438397D01*
X225058034Y-54438396D01*
X225124191Y-54394191D01*
X225168396Y-54328034D01*
X225168397Y-54328033D01*
X225179999Y-54269702D01*
X225180000Y-54269699D01*
X225180000Y-53750000D01*
X224487106Y-53750000D01*
X224530099Y-53707007D01*
X224595925Y-53592993D01*
X224630000Y-53465826D01*
X224630000Y-53334174D01*
X224595925Y-53207007D01*
X224530099Y-53092993D01*
X224487106Y-53050000D01*
X225180000Y-53050000D01*
X225180000Y-52530301D01*
X225179999Y-52530297D01*
X225168397Y-52471966D01*
X225168396Y-52471965D01*
X225124191Y-52405808D01*
X225058034Y-52361603D01*
X225058033Y-52361602D01*
X224999702Y-52350000D01*
X224480000Y-52350000D01*
X224480000Y-53042894D01*
X224437007Y-52999901D01*
X224322993Y-52934075D01*
X224195826Y-52900000D01*
X224064174Y-52900000D01*
X223937007Y-52934075D01*
X223822993Y-52999901D01*
X223780000Y-53042894D01*
X223780000Y-52350000D01*
X223260297Y-52350000D01*
X223201966Y-52361602D01*
X223201965Y-52361603D01*
X223135808Y-52405808D01*
X223091603Y-52471965D01*
X223091602Y-52471966D01*
X223080000Y-52530297D01*
X222347351Y-52530297D01*
X222339499Y-52522445D01*
X222339494Y-52522441D01*
X222192997Y-52416006D01*
X222192996Y-52416005D01*
X222192994Y-52416004D01*
X222138587Y-52388282D01*
X222031639Y-52333788D01*
X222031636Y-52333787D01*
X221859410Y-52277829D01*
X221680551Y-52249500D01*
X221680546Y-52249500D01*
X221499454Y-52249500D01*
X221499449Y-52249500D01*
X221320587Y-52277829D01*
X221176716Y-52324575D01*
X221106875Y-52326570D01*
X221050718Y-52294325D01*
X217685915Y-48929522D01*
X217685913Y-48929520D01*
X217621284Y-48892206D01*
X217594589Y-48876793D01*
X217508842Y-48853818D01*
X217492727Y-48849500D01*
X217492726Y-48849500D01*
X217168135Y-48849500D01*
X217136826Y-48840306D01*
X217105176Y-48832328D01*
X217103477Y-48830514D01*
X217101096Y-48829815D01*
X217079736Y-48805164D01*
X217057415Y-48781331D01*
X217056966Y-48778887D01*
X217055341Y-48777011D01*
X217050696Y-48744711D01*
X217044807Y-48712608D01*
X217045689Y-48709888D01*
X217045397Y-48707853D01*
X217053435Y-48678385D01*
X217056593Y-48670696D01*
X217077614Y-48634288D01*
X217086935Y-48599500D01*
X217101500Y-48545144D01*
X217101500Y-47123436D01*
X217121185Y-47056397D01*
X217173989Y-47010642D01*
X217225500Y-46999436D01*
X217367901Y-46999436D01*
X217367903Y-46999436D01*
X217520630Y-46958513D01*
X217657562Y-46879456D01*
X217701263Y-46835755D01*
X217762586Y-46802270D01*
X217788944Y-46799436D01*
X219025500Y-46799436D01*
X219092539Y-46819121D01*
X219138294Y-46871925D01*
X219149500Y-46923436D01*
X219149500Y-48624856D01*
X219149502Y-48624882D01*
X219152413Y-48649987D01*
X219152415Y-48649991D01*
X219197793Y-48752764D01*
X219197794Y-48752765D01*
X219277235Y-48832206D01*
X219380009Y-48877585D01*
X219405135Y-48880500D01*
X221194864Y-48880499D01*
X221194879Y-48880497D01*
X221194882Y-48880497D01*
X221219987Y-48877586D01*
X221219988Y-48877585D01*
X221219991Y-48877585D01*
X221322765Y-48832206D01*
X221402206Y-48752765D01*
X221447585Y-48649991D01*
X221450500Y-48624865D01*
X221450499Y-46923435D01*
X221470184Y-46856397D01*
X221522987Y-46810642D01*
X221574499Y-46799436D01*
X222875500Y-46799436D01*
X222942539Y-46819121D01*
X222988294Y-46871925D01*
X222999500Y-46923436D01*
X222999500Y-48624856D01*
X222999502Y-48624882D01*
X223002413Y-48649987D01*
X223002415Y-48649991D01*
X223047793Y-48752764D01*
X223047794Y-48752765D01*
X223127235Y-48832206D01*
X223230009Y-48877585D01*
X223255135Y-48880500D01*
X225044864Y-48880499D01*
X225044879Y-48880497D01*
X225044882Y-48880497D01*
X225069987Y-48877586D01*
X225069988Y-48877585D01*
X225069991Y-48877585D01*
X225172765Y-48832206D01*
X225252206Y-48752765D01*
X225297585Y-48649991D01*
X225300500Y-48624865D01*
X225300499Y-46835136D01*
X225298642Y-46819121D01*
X225297586Y-46810012D01*
X225297585Y-46810010D01*
X225297585Y-46810009D01*
X225252206Y-46707235D01*
X225172765Y-46627794D01*
X225147209Y-46616510D01*
X225069992Y-46582415D01*
X225044868Y-46579500D01*
X225044865Y-46579500D01*
X224307131Y-46579500D01*
X224240092Y-46559815D01*
X224194337Y-46507011D01*
X224184393Y-46437853D01*
X224213418Y-46374297D01*
X224272196Y-46336523D01*
X224287733Y-46333027D01*
X224348328Y-46323429D01*
X224419409Y-46312171D01*
X224591639Y-46256211D01*
X224752994Y-46173996D01*
X224899501Y-46067553D01*
X225027553Y-45939501D01*
X225133996Y-45792994D01*
X225216211Y-45631639D01*
X225272171Y-45459409D01*
X225290997Y-45340546D01*
X225300500Y-45280551D01*
X225300500Y-45099448D01*
X225283053Y-44989295D01*
X225272171Y-44920591D01*
X225229478Y-44789193D01*
X225216212Y-44748363D01*
X225216211Y-44748360D01*
X225167275Y-44652320D01*
X225133996Y-44587006D01*
X225071146Y-44500500D01*
X225027558Y-44440505D01*
X225027554Y-44440500D01*
X224899499Y-44312445D01*
X224899494Y-44312441D01*
X224752997Y-44206006D01*
X224752996Y-44206005D01*
X224752994Y-44206004D01*
X224691164Y-44174500D01*
X224591639Y-44123788D01*
X224591636Y-44123787D01*
X224419410Y-44067829D01*
X224240551Y-44039500D01*
X224240546Y-44039500D01*
X224059454Y-44039500D01*
X224059449Y-44039500D01*
X223880589Y-44067829D01*
X223708363Y-44123787D01*
X223708360Y-44123788D01*
X223547002Y-44206006D01*
X223400505Y-44312441D01*
X223400500Y-44312445D01*
X223272445Y-44440500D01*
X223272441Y-44440505D01*
X223166006Y-44587002D01*
X223083788Y-44748360D01*
X223083787Y-44748363D01*
X223027829Y-44920589D01*
X222999500Y-45099448D01*
X222999500Y-45280551D01*
X223027829Y-45459412D01*
X223074575Y-45603283D01*
X223076570Y-45673124D01*
X223044325Y-45729281D01*
X222811490Y-45962117D01*
X222750167Y-45995602D01*
X222723809Y-45998436D01*
X221378098Y-45998436D01*
X221311059Y-45978751D01*
X221265304Y-45925947D01*
X221255360Y-45856789D01*
X221277779Y-45801552D01*
X221283994Y-45792997D01*
X221285888Y-45789281D01*
X221366211Y-45631639D01*
X221422171Y-45459409D01*
X221440997Y-45340546D01*
X221450500Y-45280551D01*
X221450500Y-45099448D01*
X221433053Y-44989295D01*
X221422171Y-44920591D01*
X221379478Y-44789193D01*
X221366212Y-44748363D01*
X221366211Y-44748360D01*
X221317275Y-44652320D01*
X221283996Y-44587006D01*
X221221146Y-44500500D01*
X221177558Y-44440505D01*
X221177554Y-44440500D01*
X221049499Y-44312445D01*
X221049494Y-44312441D01*
X220902997Y-44206006D01*
X220902996Y-44206005D01*
X220902994Y-44206004D01*
X220841164Y-44174500D01*
X220741639Y-44123788D01*
X220741636Y-44123787D01*
X220569410Y-44067829D01*
X220390551Y-44039500D01*
X220390546Y-44039500D01*
X220209454Y-44039500D01*
X220209449Y-44039500D01*
X220030587Y-44067829D01*
X219870953Y-44119696D01*
X219801112Y-44121691D01*
X219770636Y-44109152D01*
X219714591Y-44076794D01*
X219714588Y-44076793D01*
X219612727Y-44049500D01*
X219612726Y-44049500D01*
X216761427Y-44049500D01*
X216694388Y-44029815D01*
X216658325Y-43994390D01*
X216621792Y-43939715D01*
X216621786Y-43939707D01*
X216510292Y-43828213D01*
X216510288Y-43828210D01*
X216379185Y-43740609D01*
X216379172Y-43740602D01*
X216233501Y-43680264D01*
X216233489Y-43680261D01*
X216078845Y-43649500D01*
X216078842Y-43649500D01*
X215921158Y-43649500D01*
X215921155Y-43649500D01*
X215766510Y-43680261D01*
X215766498Y-43680264D01*
X215620827Y-43740602D01*
X215620814Y-43740609D01*
X215489711Y-43828210D01*
X215489707Y-43828213D01*
X215378213Y-43939707D01*
X215378210Y-43939711D01*
X215290609Y-44070814D01*
X215290602Y-44070827D01*
X215230264Y-44216498D01*
X215230261Y-44216510D01*
X215199500Y-44371153D01*
X215199500Y-44528846D01*
X215224060Y-44652320D01*
X215217833Y-44721912D01*
X215190124Y-44764192D01*
X214962180Y-44992136D01*
X214900857Y-45025621D01*
X214831165Y-45020637D01*
X214775232Y-44978765D01*
X214750815Y-44913301D01*
X214750499Y-44904471D01*
X214750499Y-44611628D01*
X214744091Y-44552017D01*
X214735447Y-44528842D01*
X214693797Y-44417171D01*
X214693793Y-44417164D01*
X214607547Y-44301955D01*
X214607544Y-44301952D01*
X214492335Y-44215706D01*
X214492328Y-44215702D01*
X214357486Y-44165410D01*
X214357485Y-44165409D01*
X214357483Y-44165409D01*
X214297873Y-44159000D01*
X214297863Y-44159000D01*
X213652129Y-44159000D01*
X213652123Y-44159001D01*
X213592516Y-44165408D01*
X213457671Y-44215702D01*
X213457664Y-44215706D01*
X213342456Y-44301952D01*
X213342455Y-44301953D01*
X213342454Y-44301954D01*
X213262087Y-44409311D01*
X213258430Y-44412048D01*
X213256533Y-44416203D01*
X213230718Y-44432793D01*
X213206153Y-44451182D01*
X213200523Y-44452197D01*
X213197755Y-44453977D01*
X213162820Y-44459000D01*
X213162180Y-44459000D01*
X213095141Y-44439315D01*
X213062913Y-44409311D01*
X212982546Y-44301954D01*
X212934523Y-44266004D01*
X212867335Y-44215706D01*
X212867328Y-44215702D01*
X212732486Y-44165410D01*
X212732485Y-44165409D01*
X212732483Y-44165409D01*
X212672873Y-44159000D01*
X212672863Y-44159000D01*
X212027129Y-44159000D01*
X212027123Y-44159001D01*
X211967516Y-44165408D01*
X211832671Y-44215702D01*
X211832664Y-44215706D01*
X211717456Y-44301952D01*
X211717455Y-44301953D01*
X211717454Y-44301954D01*
X211637087Y-44409311D01*
X211633430Y-44412048D01*
X211631533Y-44416203D01*
X211605718Y-44432793D01*
X211581153Y-44451182D01*
X211575523Y-44452197D01*
X211572755Y-44453977D01*
X211537820Y-44459000D01*
X211537180Y-44459000D01*
X211470141Y-44439315D01*
X211437913Y-44409311D01*
X211357546Y-44301954D01*
X211309523Y-44266004D01*
X211242335Y-44215706D01*
X211242328Y-44215702D01*
X211107486Y-44165410D01*
X211107485Y-44165409D01*
X211107483Y-44165409D01*
X211047873Y-44159000D01*
X211047863Y-44159000D01*
X210402129Y-44159000D01*
X210402123Y-44159001D01*
X210342516Y-44165408D01*
X210207671Y-44215702D01*
X210207664Y-44215706D01*
X210092455Y-44301952D01*
X210092453Y-44301954D01*
X210063136Y-44341116D01*
X210007201Y-44382986D01*
X209937510Y-44387969D01*
X209876187Y-44354482D01*
X209847689Y-44310135D01*
X209818798Y-44232673D01*
X209818793Y-44232664D01*
X209732547Y-44117455D01*
X209732544Y-44117452D01*
X209617335Y-44031206D01*
X209617328Y-44031202D01*
X209482482Y-43980908D01*
X209482483Y-43980908D01*
X209422883Y-43974501D01*
X209422881Y-43974500D01*
X209422873Y-43974500D01*
X209422865Y-43974500D01*
X209264254Y-43974500D01*
X209197215Y-43954815D01*
X209151460Y-43902011D01*
X209141516Y-43832853D01*
X209170541Y-43769297D01*
X209176573Y-43762819D01*
X209378282Y-43561110D01*
X209985703Y-42953687D01*
X209985708Y-42953684D01*
X209995911Y-42943480D01*
X209995913Y-42943480D01*
X210070480Y-42868913D01*
X210123207Y-42777587D01*
X210141556Y-42709107D01*
X210150501Y-42675726D01*
X210150501Y-42570273D01*
X210150500Y-42570269D01*
X210150500Y-40351849D01*
X210170185Y-40284810D01*
X210222989Y-40239055D01*
X210242400Y-40232076D01*
X210329993Y-40208606D01*
X210494133Y-40140616D01*
X210548040Y-40118288D01*
X210548043Y-40118286D01*
X210548049Y-40118284D01*
X210752450Y-40000273D01*
X210939699Y-39856592D01*
X211106592Y-39689699D01*
X211250273Y-39502450D01*
X211368284Y-39298049D01*
X211458606Y-39079993D01*
X211519693Y-38852014D01*
X211550500Y-38618011D01*
X211550500Y-38381989D01*
X211519693Y-38147986D01*
X211458606Y-37920007D01*
X211368284Y-37701951D01*
X211368282Y-37701948D01*
X211368280Y-37701943D01*
X211317142Y-37613371D01*
X211250273Y-37497550D01*
X211106592Y-37310301D01*
X211106587Y-37310295D01*
X210939704Y-37143412D01*
X210939697Y-37143406D01*
X210752454Y-36999730D01*
X210752453Y-36999729D01*
X210752450Y-36999727D01*
X210670957Y-36952677D01*
X210548056Y-36881719D01*
X210548045Y-36881714D01*
X210329993Y-36791394D01*
X210102010Y-36730306D01*
X209868020Y-36699501D01*
X209868017Y-36699500D01*
X209868011Y-36699500D01*
X209631989Y-36699500D01*
X209631983Y-36699500D01*
X209631979Y-36699501D01*
X209397989Y-36730306D01*
X209170006Y-36791394D01*
X208951954Y-36881714D01*
X208951943Y-36881719D01*
X208747545Y-36999730D01*
X208560302Y-37143406D01*
X208560295Y-37143412D01*
X208393412Y-37310295D01*
X208393406Y-37310302D01*
X208249730Y-37497545D01*
X208131719Y-37701943D01*
X208131714Y-37701954D01*
X208041394Y-37920006D01*
X207980306Y-38147989D01*
X207949501Y-38381979D01*
X207949500Y-38381995D01*
X207949500Y-38618004D01*
X207949501Y-38618020D01*
X207980306Y-38852010D01*
X208041394Y-39079993D01*
X208131714Y-39298045D01*
X208131719Y-39298056D01*
X208182857Y-39386628D01*
X208249727Y-39502450D01*
X208249729Y-39502453D01*
X208249730Y-39502454D01*
X208393406Y-39689697D01*
X208393412Y-39689704D01*
X208560295Y-39856587D01*
X208560302Y-39856593D01*
X208616675Y-39899849D01*
X208747550Y-40000273D01*
X208834546Y-40050500D01*
X208951943Y-40118280D01*
X208951959Y-40118288D01*
X209087936Y-40174611D01*
X209170007Y-40208606D01*
X209257594Y-40232075D01*
X209317254Y-40268439D01*
X209347783Y-40331285D01*
X209349500Y-40351849D01*
X209349500Y-42405745D01*
X209329815Y-42472784D01*
X209313181Y-42493426D01*
X208269426Y-43537181D01*
X208208103Y-43570666D01*
X208181745Y-43573500D01*
X207059209Y-43573500D01*
X206957346Y-43600793D01*
X206866023Y-43653520D01*
X206866020Y-43653522D01*
X205663394Y-44856149D01*
X205602071Y-44889634D01*
X205575713Y-44892468D01*
X205513911Y-44892468D01*
X205361184Y-44933391D01*
X205361177Y-44933394D01*
X205224258Y-45012443D01*
X205224250Y-45012449D01*
X205112449Y-45124250D01*
X205112443Y-45124258D01*
X205033394Y-45261177D01*
X205033391Y-45261184D01*
X204992468Y-45413911D01*
X204992468Y-45475712D01*
X204972783Y-45542751D01*
X204956149Y-45563393D01*
X203437680Y-47081861D01*
X203376357Y-47115346D01*
X203306665Y-47110362D01*
X203250732Y-47068490D01*
X203226315Y-47003026D01*
X203225999Y-46994207D01*
X203225999Y-46489235D01*
X203225191Y-46482268D01*
X203223086Y-46464111D01*
X203221301Y-46457550D01*
X203221303Y-46392439D01*
X203223081Y-46385898D01*
X203223085Y-46385891D01*
X203226000Y-46360765D01*
X203225999Y-45839236D01*
X203223085Y-45814109D01*
X203223081Y-45814100D01*
X203221301Y-45807556D01*
X203221303Y-45742434D01*
X203223080Y-45735899D01*
X203223085Y-45735890D01*
X203226000Y-45710764D01*
X203225999Y-45189235D01*
X203225216Y-45182482D01*
X203223086Y-45164111D01*
X203223085Y-45164109D01*
X203223085Y-45164108D01*
X203177706Y-45061334D01*
X203098265Y-44981893D01*
X203081759Y-44974605D01*
X202995492Y-44936514D01*
X202970368Y-44933599D01*
X202970365Y-44933599D01*
X202224000Y-44933599D01*
X202156961Y-44913914D01*
X202111206Y-44861110D01*
X202100000Y-44809599D01*
X202100000Y-44800000D01*
X202008100Y-44800000D01*
X201941061Y-44780315D01*
X201895306Y-44727511D01*
X201884100Y-44676000D01*
X201884100Y-44584100D01*
X202315900Y-44584100D01*
X203125500Y-44584100D01*
X203125500Y-44564401D01*
X203125499Y-44564398D01*
X203112529Y-44499190D01*
X203112529Y-44450807D01*
X203125499Y-44385598D01*
X203125500Y-44385598D01*
X203125500Y-44365899D01*
X202315900Y-44365899D01*
X202315900Y-44584100D01*
X201884100Y-44584100D01*
X201884100Y-43934099D01*
X202315900Y-43934099D01*
X203125500Y-43934099D01*
X203125500Y-43914400D01*
X203125499Y-43914396D01*
X203113897Y-43856065D01*
X203113896Y-43856064D01*
X203069691Y-43789907D01*
X203003534Y-43745702D01*
X203003533Y-43745701D01*
X202945202Y-43734099D01*
X202315900Y-43734099D01*
X202315900Y-43934099D01*
X201884100Y-43934099D01*
X201884100Y-43734099D01*
X201474500Y-43734099D01*
X201407461Y-43714414D01*
X201361706Y-43661610D01*
X201350500Y-43610099D01*
X201350500Y-43347273D01*
X201346216Y-43331284D01*
X201323207Y-43245412D01*
X201283485Y-43176613D01*
X201279228Y-43169240D01*
X201279226Y-43169234D01*
X201270484Y-43154093D01*
X201270481Y-43154089D01*
X201270480Y-43154087D01*
X201195913Y-43079520D01*
X201195912Y-43079519D01*
X201191582Y-43075189D01*
X201191571Y-43075179D01*
X200695915Y-42579522D01*
X200695914Y-42579521D01*
X200695913Y-42579520D01*
X200650250Y-42553156D01*
X200604589Y-42526793D01*
X200553657Y-42513146D01*
X200502727Y-42499500D01*
X200502726Y-42499500D01*
X199750098Y-42499500D01*
X199683059Y-42479815D01*
X199662417Y-42463181D01*
X199618717Y-42419481D01*
X199618709Y-42419475D01*
X199481790Y-42340426D01*
X199481786Y-42340424D01*
X199481784Y-42340423D01*
X199329057Y-42299500D01*
X199170943Y-42299500D01*
X199018216Y-42340423D01*
X199018209Y-42340426D01*
X198881290Y-42419475D01*
X198881282Y-42419481D01*
X198769481Y-42531282D01*
X198769475Y-42531290D01*
X198690426Y-42668209D01*
X198690423Y-42668216D01*
X198649500Y-42820943D01*
X198649500Y-42979057D01*
X198676419Y-43079518D01*
X198690423Y-43131783D01*
X198690423Y-43131784D01*
X198751746Y-43238001D01*
X198768217Y-43305902D01*
X198751746Y-43361999D01*
X198690423Y-43468215D01*
X198690423Y-43468216D01*
X198649500Y-43620943D01*
X198649500Y-43779057D01*
X198682446Y-43902011D01*
X198690423Y-43931783D01*
X198690423Y-43931784D01*
X198751746Y-44038001D01*
X198768217Y-44105902D01*
X198751746Y-44161999D01*
X198690423Y-44268215D01*
X198690423Y-44268216D01*
X198649500Y-44420943D01*
X198649500Y-44579057D01*
X198689375Y-44727870D01*
X198690423Y-44731783D01*
X198690423Y-44731784D01*
X198751747Y-44838002D01*
X198768218Y-44905902D01*
X198751747Y-44962000D01*
X198690423Y-45068218D01*
X198690423Y-45068219D01*
X198649500Y-45220946D01*
X198649500Y-45379060D01*
X198689161Y-45527075D01*
X198690423Y-45531786D01*
X198690426Y-45531793D01*
X198769475Y-45668712D01*
X198769478Y-45668716D01*
X198769480Y-45668719D01*
X198881284Y-45780523D01*
X198881286Y-45780524D01*
X198881290Y-45780527D01*
X199006814Y-45852997D01*
X199018216Y-45859580D01*
X199170943Y-45900503D01*
X199170945Y-45900503D01*
X199240358Y-45900503D01*
X199307397Y-45920188D01*
X199353152Y-45972992D01*
X199360132Y-45992407D01*
X199364451Y-46008526D01*
X199376793Y-46054589D01*
X199400189Y-46095111D01*
X199429520Y-46145913D01*
X199429522Y-46145915D01*
X200941871Y-47658264D01*
X200975356Y-47719587D01*
X200977364Y-47760235D01*
X200974000Y-47789227D01*
X200974000Y-48310754D01*
X200974002Y-48310778D01*
X200976914Y-48335889D01*
X200978699Y-48342449D01*
X200978699Y-48407550D01*
X200976915Y-48414105D01*
X200974000Y-48439231D01*
X200974000Y-48960756D01*
X200974002Y-48960780D01*
X200976914Y-48985890D01*
X200978700Y-48992455D01*
X200978699Y-49057550D01*
X200976915Y-49064107D01*
X200974000Y-49089229D01*
X200974000Y-49610754D01*
X200974002Y-49610778D01*
X200976914Y-49635889D01*
X200978699Y-49642449D01*
X200978699Y-49707550D01*
X200976915Y-49714105D01*
X200974000Y-49739231D01*
X200974000Y-50192506D01*
X200954315Y-50259545D01*
X200912001Y-50299892D01*
X200907238Y-50302643D01*
X200860689Y-50329518D01*
X200860686Y-50329520D01*
X200254522Y-50935684D01*
X200254520Y-50935687D01*
X200201791Y-51027013D01*
X200177386Y-51118103D01*
X200177385Y-51118108D01*
X200174500Y-51128873D01*
X200174500Y-56899096D01*
X200154815Y-56966135D01*
X200102011Y-57011890D01*
X200032853Y-57021834D01*
X199969297Y-56992809D01*
X199962819Y-56986777D01*
X199877928Y-56901886D01*
X199877921Y-56901881D01*
X199757971Y-56840762D01*
X199757968Y-56840761D01*
X199750000Y-56839498D01*
X199750000Y-58160498D01*
X199757970Y-58159237D01*
X199757973Y-58159236D01*
X199877921Y-58098118D01*
X199877928Y-58098113D01*
X199973113Y-58002928D01*
X199973116Y-58002924D01*
X200009848Y-57930835D01*
X200057823Y-57880039D01*
X200125644Y-57863244D01*
X200191778Y-57885781D01*
X200235230Y-57940496D01*
X200235687Y-57941640D01*
X200262634Y-58009972D01*
X200262634Y-58009973D01*
X200349921Y-58125078D01*
X200465026Y-58212365D01*
X200532361Y-58238919D01*
X200587505Y-58281825D01*
X200610698Y-58347733D01*
X200594577Y-58415717D01*
X200574552Y-58441954D01*
X199394368Y-59622137D01*
X199345006Y-59652387D01*
X199248356Y-59683790D01*
X199087002Y-59766006D01*
X198940505Y-59872441D01*
X198940500Y-59872445D01*
X198812445Y-60000500D01*
X198812441Y-60000505D01*
X198706006Y-60147002D01*
X198623788Y-60308360D01*
X198623787Y-60308363D01*
X198567829Y-60480589D01*
X198542473Y-60640678D01*
X198512544Y-60703813D01*
X198453232Y-60740744D01*
X198383369Y-60739746D01*
X198325137Y-60701136D01*
X198297527Y-60640678D01*
X198273299Y-60487715D01*
X198272171Y-60480591D01*
X198223737Y-60331523D01*
X198216212Y-60308363D01*
X198216211Y-60308360D01*
X198151583Y-60181523D01*
X198133996Y-60147006D01*
X198120396Y-60128287D01*
X198027558Y-60000505D01*
X198027554Y-60000500D01*
X197899499Y-59872445D01*
X197899494Y-59872441D01*
X197752997Y-59766006D01*
X197752996Y-59766005D01*
X197752994Y-59766004D01*
X197701300Y-59739664D01*
X197591639Y-59683788D01*
X197591636Y-59683787D01*
X197419410Y-59627829D01*
X197240551Y-59599500D01*
X197240546Y-59599500D01*
X197059454Y-59599500D01*
X197059449Y-59599500D01*
X196880589Y-59627829D01*
X196708363Y-59683787D01*
X196708360Y-59683788D01*
X196586488Y-59745886D01*
X196556855Y-59760985D01*
X196500562Y-59774500D01*
X195264751Y-59774500D01*
X195197712Y-59754815D01*
X195165485Y-59724812D01*
X195122548Y-59667457D01*
X195122546Y-59667454D01*
X195102419Y-59652387D01*
X195007329Y-59581202D01*
X195005068Y-59579967D01*
X195003246Y-59578145D01*
X195000231Y-59575888D01*
X195000555Y-59575454D01*
X194955665Y-59530559D01*
X194940500Y-59471138D01*
X194940500Y-58430693D01*
X194940500Y-58430691D01*
X194909799Y-58316114D01*
X194909799Y-58316113D01*
X194850489Y-58213386D01*
X194124173Y-57487070D01*
X194090688Y-57425747D01*
X194095672Y-57356055D01*
X194125000Y-57314135D01*
X194125000Y-56300000D01*
X194825000Y-56300000D01*
X195114458Y-56300000D01*
X195109237Y-56267029D01*
X195109236Y-56267026D01*
X195048118Y-56147078D01*
X195048113Y-56147071D01*
X194952928Y-56051886D01*
X194952921Y-56051881D01*
X194832971Y-55990762D01*
X194832968Y-55990761D01*
X194825000Y-55989498D01*
X194825000Y-56300000D01*
X194125000Y-56300000D01*
X194125000Y-55989499D01*
X194124999Y-55989498D01*
X194117031Y-55990761D01*
X194117028Y-55990762D01*
X193997078Y-56051881D01*
X193997071Y-56051886D01*
X193901886Y-56147071D01*
X193901881Y-56147079D01*
X193865150Y-56219165D01*
X193817175Y-56269961D01*
X193749354Y-56286755D01*
X193683219Y-56264217D01*
X193639768Y-56209501D01*
X193639355Y-56208471D01*
X193612364Y-56140025D01*
X193612363Y-56140024D01*
X193612363Y-56140023D01*
X193525079Y-56024923D01*
X193480031Y-55990762D01*
X193424573Y-55948706D01*
X193383051Y-55892514D01*
X193375500Y-55849903D01*
X193375500Y-55573062D01*
X193384143Y-55543625D01*
X193390667Y-55513636D01*
X193394422Y-55508618D01*
X193395185Y-55506023D01*
X193411810Y-55485390D01*
X193499901Y-55397298D01*
X193561219Y-55363817D01*
X193630911Y-55368801D01*
X193686845Y-55410672D01*
X193710752Y-55470695D01*
X193712514Y-55485888D01*
X193712515Y-55485890D01*
X193757893Y-55588663D01*
X193757894Y-55588664D01*
X193837335Y-55668105D01*
X193940109Y-55713484D01*
X193965235Y-55716399D01*
X195705964Y-55716398D01*
X195705979Y-55716396D01*
X195705982Y-55716396D01*
X195731087Y-55713485D01*
X195731091Y-55713484D01*
X195800414Y-55682875D01*
X195869692Y-55673803D01*
X195932877Y-55703626D01*
X195969908Y-55762876D01*
X195974500Y-55796309D01*
X195974500Y-56600500D01*
X195954815Y-56667539D01*
X195902011Y-56713294D01*
X195850500Y-56724500D01*
X195733856Y-56724500D01*
X195695841Y-56729065D01*
X195649411Y-56734640D01*
X195515023Y-56787636D01*
X195399923Y-56874920D01*
X195308491Y-56995491D01*
X195252298Y-57037014D01*
X195182577Y-57041565D01*
X195121463Y-57007700D01*
X195115397Y-57001096D01*
X195114461Y-57000000D01*
X194825000Y-57000000D01*
X194825000Y-57310498D01*
X194832970Y-57309237D01*
X194832973Y-57309236D01*
X194952921Y-57248118D01*
X194952928Y-57248113D01*
X195037819Y-57163223D01*
X195099142Y-57129738D01*
X195168834Y-57134722D01*
X195224767Y-57176594D01*
X195249184Y-57242058D01*
X195249500Y-57250904D01*
X195249500Y-57791144D01*
X195254825Y-57835494D01*
X195259640Y-57875588D01*
X195312636Y-58009976D01*
X195399921Y-58125078D01*
X195515023Y-58212363D01*
X195515024Y-58212363D01*
X195515025Y-58212364D01*
X195649410Y-58265359D01*
X195733856Y-58275500D01*
X195733862Y-58275500D01*
X196266138Y-58275500D01*
X196266144Y-58275500D01*
X196350590Y-58265359D01*
X196484975Y-58212364D01*
X196600078Y-58125078D01*
X196687364Y-58009975D01*
X196714313Y-57941637D01*
X196757216Y-57886496D01*
X196823124Y-57863302D01*
X196891108Y-57879422D01*
X196939585Y-57929738D01*
X196940151Y-57930834D01*
X196976883Y-58002923D01*
X196976886Y-58002928D01*
X197072071Y-58098113D01*
X197072078Y-58098118D01*
X197192026Y-58159236D01*
X197192029Y-58159237D01*
X197200000Y-58160499D01*
X197200000Y-58160498D01*
X197900000Y-58160498D01*
X197907970Y-58159237D01*
X197907973Y-58159236D01*
X198027921Y-58098118D01*
X198027928Y-58098113D01*
X198123113Y-58002928D01*
X198123116Y-58002923D01*
X198184239Y-57882965D01*
X198189460Y-57850001D01*
X198189459Y-57850000D01*
X198760541Y-57850000D01*
X198765762Y-57882970D01*
X198765763Y-57882973D01*
X198826881Y-58002921D01*
X198826886Y-58002928D01*
X198922071Y-58098113D01*
X198922078Y-58098118D01*
X199042026Y-58159236D01*
X199042029Y-58159237D01*
X199050000Y-58160499D01*
X199050000Y-57850000D01*
X198760541Y-57850000D01*
X198189459Y-57850000D01*
X197900000Y-57850000D01*
X197900000Y-58160498D01*
X197200000Y-58160498D01*
X197200000Y-57150000D01*
X197900000Y-57150000D01*
X198189458Y-57150000D01*
X198189458Y-57149998D01*
X198760539Y-57149998D01*
X198760540Y-57150000D01*
X199050000Y-57150000D01*
X199050000Y-56839499D01*
X199049999Y-56839498D01*
X199042031Y-56840761D01*
X199042028Y-56840762D01*
X198922078Y-56901881D01*
X198922071Y-56901886D01*
X198826886Y-56997071D01*
X198826883Y-56997076D01*
X198765760Y-57117034D01*
X198760539Y-57149998D01*
X198189458Y-57149998D01*
X198184237Y-57117029D01*
X198184236Y-57117026D01*
X198123118Y-56997078D01*
X198123113Y-56997071D01*
X198027928Y-56901886D01*
X198027921Y-56901881D01*
X197907971Y-56840762D01*
X197907968Y-56840761D01*
X197900000Y-56839498D01*
X197900000Y-57150000D01*
X197200000Y-57150000D01*
X197200000Y-56839499D01*
X197199999Y-56839498D01*
X197192031Y-56840761D01*
X197192028Y-56840762D01*
X197072078Y-56901881D01*
X197072071Y-56901886D01*
X196987181Y-56986777D01*
X196925858Y-57020262D01*
X196856166Y-57015278D01*
X196800233Y-56973406D01*
X196775816Y-56907942D01*
X196775500Y-56899096D01*
X196775500Y-53361611D01*
X196795185Y-53294572D01*
X196847989Y-53248817D01*
X196917147Y-53238873D01*
X196946952Y-53247050D01*
X196952959Y-53249538D01*
X196952964Y-53249540D01*
X196952968Y-53249540D01*
X196952969Y-53249541D01*
X197083466Y-53275500D01*
X197083469Y-53275500D01*
X197216533Y-53275500D01*
X197304325Y-53258035D01*
X197347036Y-53249540D01*
X197469969Y-53198620D01*
X197580606Y-53124695D01*
X197674695Y-53030606D01*
X197748620Y-52919969D01*
X197799540Y-52797036D01*
X197812520Y-52731783D01*
X197825500Y-52666533D01*
X197825500Y-52533466D01*
X197799541Y-52402969D01*
X197799540Y-52402968D01*
X197799540Y-52402964D01*
X197799537Y-52402958D01*
X197799536Y-52402953D01*
X197748623Y-52280038D01*
X197748622Y-52280037D01*
X197748620Y-52280031D01*
X197745258Y-52275000D01*
X197674698Y-52169398D01*
X197674692Y-52169390D01*
X197580609Y-52075307D01*
X197580601Y-52075301D01*
X197469979Y-52001386D01*
X197469972Y-52001382D01*
X197469969Y-52001380D01*
X197469965Y-52001378D01*
X197469961Y-52001376D01*
X197347040Y-51950461D01*
X197347030Y-51950458D01*
X197216533Y-51924500D01*
X197216531Y-51924500D01*
X197083469Y-51924500D01*
X197083467Y-51924500D01*
X196952969Y-51950458D01*
X196952961Y-51950461D01*
X196946944Y-51952953D01*
X196877474Y-51960416D01*
X196814997Y-51929137D01*
X196779349Y-51869045D01*
X196775500Y-51838388D01*
X196775500Y-51143274D01*
X196775500Y-51143273D01*
X196771084Y-51126793D01*
X196766248Y-51108745D01*
X196748208Y-51041413D01*
X196732543Y-51014281D01*
X196695480Y-50950087D01*
X196074914Y-50329521D01*
X196023598Y-50299893D01*
X195975383Y-50249327D01*
X195961599Y-50192510D01*
X195961599Y-49739236D01*
X195961142Y-49735292D01*
X195958686Y-49714112D01*
X195956901Y-49707551D01*
X195956903Y-49642440D01*
X195958681Y-49635899D01*
X195958685Y-49635892D01*
X195961600Y-49610766D01*
X195961599Y-49089237D01*
X195958685Y-49064110D01*
X195958681Y-49064101D01*
X195956901Y-49057557D01*
X195956903Y-48992435D01*
X195958680Y-48985900D01*
X195958685Y-48985891D01*
X195961600Y-48960765D01*
X195961599Y-48439236D01*
X195960817Y-48432490D01*
X195958686Y-48414112D01*
X195956901Y-48407551D01*
X195956903Y-48342440D01*
X195958681Y-48335899D01*
X195958685Y-48335892D01*
X195961600Y-48310766D01*
X195961599Y-47789237D01*
X195961597Y-47789218D01*
X195957611Y-47754843D01*
X195960451Y-47754513D01*
X195961546Y-47699651D01*
X195992120Y-47649271D01*
X197435703Y-46205687D01*
X197435708Y-46205684D01*
X197445911Y-46195480D01*
X197445913Y-46195480D01*
X197520480Y-46120913D01*
X197573207Y-46029587D01*
X197574570Y-46024500D01*
X197581554Y-45998436D01*
X197583172Y-45992400D01*
X197602203Y-45961182D01*
X197619536Y-45932745D01*
X197619539Y-45932743D01*
X197619540Y-45932742D01*
X197659226Y-45913466D01*
X197682384Y-45902217D01*
X197682386Y-45902216D01*
X197682391Y-45902216D01*
X197702945Y-45900500D01*
X197829055Y-45900500D01*
X197829057Y-45900500D01*
X197981784Y-45859577D01*
X198118716Y-45780520D01*
X198230520Y-45668716D01*
X198309577Y-45531784D01*
X198350500Y-45379057D01*
X198350500Y-45220943D01*
X198309577Y-45068216D01*
X198282108Y-45020637D01*
X198248254Y-44961999D01*
X198231781Y-44894099D01*
X198248254Y-44838001D01*
X198300007Y-44748360D01*
X198309577Y-44731784D01*
X198350500Y-44579057D01*
X198350500Y-44420943D01*
X198309577Y-44268216D01*
X198308300Y-44266004D01*
X198248254Y-44161999D01*
X198231781Y-44094099D01*
X198248254Y-44038001D01*
X198305000Y-43939711D01*
X198309577Y-43931784D01*
X198350500Y-43779057D01*
X198350500Y-43620943D01*
X198309577Y-43468216D01*
X198258369Y-43379520D01*
X198230524Y-43331290D01*
X198230518Y-43331282D01*
X198118717Y-43219481D01*
X198118709Y-43219475D01*
X197981790Y-43140426D01*
X197981786Y-43140424D01*
X197981784Y-43140423D01*
X197829057Y-43099500D01*
X197670943Y-43099500D01*
X197518216Y-43140423D01*
X197518209Y-43140426D01*
X197381290Y-43219475D01*
X197381282Y-43219481D01*
X197337583Y-43263181D01*
X197276260Y-43296666D01*
X197249902Y-43299500D01*
X196660339Y-43299500D01*
X196660323Y-43299499D01*
X196652727Y-43299499D01*
X196547273Y-43299499D01*
X196479366Y-43317695D01*
X196445412Y-43326793D01*
X196354084Y-43379522D01*
X196079522Y-43654084D01*
X196079515Y-43654093D01*
X196060223Y-43687507D01*
X196009655Y-43735721D01*
X195941047Y-43748942D01*
X195876183Y-43722972D01*
X195865157Y-43713185D01*
X195833865Y-43681893D01*
X195731092Y-43636514D01*
X195705968Y-43633599D01*
X195705965Y-43633599D01*
X195600500Y-43633599D01*
X195533461Y-43613914D01*
X195487706Y-43561110D01*
X195476500Y-43509599D01*
X195476500Y-42223274D01*
X195476300Y-42222527D01*
X195476293Y-42222499D01*
X195449207Y-42121412D01*
X195417522Y-42066533D01*
X196474499Y-42066533D01*
X196500458Y-42197030D01*
X196500461Y-42197040D01*
X196551376Y-42319961D01*
X196551386Y-42319979D01*
X196625301Y-42430601D01*
X196625307Y-42430609D01*
X196719390Y-42524692D01*
X196719398Y-42524698D01*
X196830020Y-42598613D01*
X196830023Y-42598614D01*
X196830031Y-42598620D01*
X196952964Y-42649540D01*
X196952968Y-42649540D01*
X196952969Y-42649541D01*
X197083466Y-42675500D01*
X197083469Y-42675500D01*
X197216533Y-42675500D01*
X197304325Y-42658035D01*
X197347036Y-42649540D01*
X197469969Y-42598620D01*
X197580606Y-42524695D01*
X197674695Y-42430606D01*
X197748620Y-42319969D01*
X197799540Y-42197036D01*
X197814583Y-42121412D01*
X197825500Y-42066533D01*
X197825500Y-41933466D01*
X197799541Y-41802969D01*
X197799540Y-41802968D01*
X197799540Y-41802964D01*
X197787177Y-41773116D01*
X197748623Y-41680038D01*
X197748622Y-41680037D01*
X197748620Y-41680031D01*
X197747212Y-41677924D01*
X197674698Y-41569398D01*
X197674692Y-41569390D01*
X197580609Y-41475307D01*
X197580601Y-41475301D01*
X197469979Y-41401386D01*
X197469972Y-41401382D01*
X197469969Y-41401380D01*
X197469965Y-41401378D01*
X197469961Y-41401376D01*
X197347040Y-41350461D01*
X197347030Y-41350458D01*
X197216533Y-41324500D01*
X197216531Y-41324500D01*
X197083469Y-41324500D01*
X197083467Y-41324500D01*
X196952969Y-41350458D01*
X196952959Y-41350461D01*
X196830038Y-41401376D01*
X196830020Y-41401386D01*
X196719398Y-41475301D01*
X196719390Y-41475307D01*
X196625307Y-41569390D01*
X196625301Y-41569398D01*
X196551386Y-41680020D01*
X196551376Y-41680038D01*
X196500461Y-41802959D01*
X196500458Y-41802969D01*
X196474500Y-41933466D01*
X196474500Y-41933469D01*
X196474500Y-42066531D01*
X196474500Y-42066533D01*
X196474499Y-42066533D01*
X195417522Y-42066533D01*
X195396480Y-42030087D01*
X194861819Y-41495426D01*
X194828334Y-41434103D01*
X194825500Y-41407745D01*
X194825500Y-40958862D01*
X194825500Y-40958856D01*
X194815359Y-40874410D01*
X194762364Y-40740025D01*
X194762363Y-40740024D01*
X194762363Y-40740023D01*
X194675078Y-40624921D01*
X194559976Y-40537636D01*
X194425588Y-40484640D01*
X194382242Y-40479435D01*
X194341144Y-40474500D01*
X193758856Y-40474500D01*
X193720841Y-40479065D01*
X193674411Y-40484640D01*
X193540023Y-40537636D01*
X193424921Y-40624921D01*
X193337635Y-40740025D01*
X193293452Y-40852065D01*
X193250546Y-40907208D01*
X193184638Y-40930401D01*
X193116654Y-40914280D01*
X193068178Y-40863963D01*
X193060166Y-40844891D01*
X193059236Y-40842028D01*
X192998116Y-40722076D01*
X192998113Y-40722071D01*
X192902928Y-40626886D01*
X192902923Y-40626883D01*
X192782965Y-40565760D01*
X192782966Y-40565760D01*
X192750001Y-40560539D01*
X192750000Y-40560540D01*
X192750000Y-41076000D01*
X192730315Y-41143039D01*
X192677511Y-41188794D01*
X192626000Y-41200000D01*
X192400000Y-41200000D01*
X192400000Y-41426000D01*
X192380315Y-41493039D01*
X192327511Y-41538794D01*
X192276000Y-41550000D01*
X191739500Y-41550000D01*
X191740762Y-41557970D01*
X191740763Y-41557973D01*
X191801881Y-41677921D01*
X191801886Y-41677928D01*
X191897071Y-41773113D01*
X191897076Y-41773116D01*
X191969164Y-41809848D01*
X192019960Y-41857823D01*
X192036755Y-41925644D01*
X192014217Y-41991779D01*
X191959502Y-42035230D01*
X191958360Y-42035687D01*
X191890025Y-42062635D01*
X191774921Y-42149921D01*
X191687636Y-42265023D01*
X191634640Y-42399411D01*
X191630894Y-42430609D01*
X191624500Y-42483856D01*
X191624500Y-43016144D01*
X191629825Y-43060494D01*
X191634640Y-43100588D01*
X191687636Y-43234976D01*
X191766340Y-43338761D01*
X191774922Y-43350078D01*
X191850426Y-43407335D01*
X191891948Y-43463524D01*
X191899500Y-43506137D01*
X191899500Y-43524008D01*
X191899500Y-43655792D01*
X191906057Y-43680263D01*
X191933608Y-43783087D01*
X191937546Y-43789907D01*
X191999500Y-43897214D01*
X193302786Y-45200500D01*
X193399730Y-45256471D01*
X193407893Y-45261184D01*
X193416914Y-45266392D01*
X193544208Y-45300500D01*
X193585600Y-45300500D01*
X193652639Y-45320185D01*
X193698394Y-45372989D01*
X193709600Y-45424500D01*
X193709600Y-45710757D01*
X193709602Y-45710783D01*
X193712514Y-45735889D01*
X193714299Y-45742451D01*
X193714299Y-45807548D01*
X193712515Y-45814103D01*
X193709600Y-45839231D01*
X193709600Y-46360756D01*
X193709602Y-46360782D01*
X193712514Y-46385889D01*
X193714298Y-46392446D01*
X193714299Y-46457551D01*
X193712515Y-46464106D01*
X193709600Y-46489232D01*
X193709600Y-46965412D01*
X193689915Y-47032451D01*
X193637111Y-47078206D01*
X193567953Y-47088150D01*
X193504397Y-47059125D01*
X193497919Y-47053093D01*
X192001035Y-45556209D01*
X191967550Y-45494886D01*
X191964716Y-45468528D01*
X191964716Y-45406729D01*
X191964716Y-45406727D01*
X191923793Y-45254000D01*
X191907592Y-45225938D01*
X191844740Y-45117074D01*
X191844734Y-45117066D01*
X191732933Y-45005265D01*
X191732925Y-45005259D01*
X191596006Y-44926210D01*
X191596002Y-44926208D01*
X191596000Y-44926207D01*
X191443273Y-44885284D01*
X191443272Y-44885284D01*
X191381471Y-44885284D01*
X191314432Y-44865599D01*
X191293790Y-44848965D01*
X190713041Y-44268216D01*
X190098345Y-43653519D01*
X190029748Y-43613914D01*
X190007021Y-43600792D01*
X189956089Y-43587145D01*
X189905159Y-43573499D01*
X189905158Y-43573499D01*
X188761055Y-43573499D01*
X188694016Y-43553814D01*
X188673374Y-43537180D01*
X187636819Y-42500625D01*
X187603334Y-42439302D01*
X187600500Y-42412944D01*
X187600500Y-40850000D01*
X191739500Y-40850000D01*
X192050000Y-40850000D01*
X192050000Y-40560540D01*
X192049998Y-40560539D01*
X192017034Y-40565760D01*
X191897076Y-40626883D01*
X191897071Y-40626886D01*
X191801886Y-40722071D01*
X191801881Y-40722078D01*
X191740763Y-40842026D01*
X191740762Y-40842029D01*
X191739500Y-40850000D01*
X187600500Y-40850000D01*
X187600500Y-40351849D01*
X187620185Y-40284810D01*
X187672989Y-40239055D01*
X187692400Y-40232076D01*
X187779993Y-40208606D01*
X187944133Y-40140616D01*
X187998040Y-40118288D01*
X187998043Y-40118286D01*
X187998049Y-40118284D01*
X188202450Y-40000273D01*
X188389699Y-39856592D01*
X188556592Y-39689699D01*
X188700273Y-39502450D01*
X188818284Y-39298049D01*
X188908606Y-39079993D01*
X188969693Y-38852014D01*
X189000500Y-38618011D01*
X189000500Y-38598543D01*
X189999499Y-38598543D01*
X190037947Y-38791829D01*
X190037950Y-38791839D01*
X190113364Y-38973907D01*
X190113371Y-38973920D01*
X190222860Y-39137781D01*
X190222863Y-39137785D01*
X190362214Y-39277136D01*
X190362218Y-39277139D01*
X190526079Y-39386628D01*
X190526092Y-39386635D01*
X190654197Y-39439697D01*
X190708165Y-39462051D01*
X190708169Y-39462051D01*
X190708170Y-39462052D01*
X190901456Y-39500500D01*
X190901459Y-39500500D01*
X191098543Y-39500500D01*
X191228582Y-39474632D01*
X191291835Y-39462051D01*
X191473914Y-39386632D01*
X191637782Y-39277139D01*
X191777139Y-39137782D01*
X191886632Y-38973914D01*
X191962051Y-38791835D01*
X191982755Y-38687751D01*
X192000500Y-38598543D01*
X192539499Y-38598543D01*
X192577947Y-38791829D01*
X192577950Y-38791839D01*
X192653364Y-38973907D01*
X192653371Y-38973920D01*
X192762860Y-39137781D01*
X192762863Y-39137785D01*
X192902214Y-39277136D01*
X192902218Y-39277139D01*
X193066079Y-39386628D01*
X193066092Y-39386635D01*
X193194197Y-39439697D01*
X193248165Y-39462051D01*
X193248169Y-39462051D01*
X193248170Y-39462052D01*
X193441456Y-39500500D01*
X193441459Y-39500500D01*
X193638543Y-39500500D01*
X193768582Y-39474632D01*
X193831835Y-39462051D01*
X194013914Y-39386632D01*
X194177782Y-39277139D01*
X194317139Y-39137782D01*
X194426632Y-38973914D01*
X194502051Y-38791835D01*
X194522755Y-38687751D01*
X194540500Y-38598543D01*
X194540500Y-38401456D01*
X194502052Y-38208170D01*
X194502051Y-38208169D01*
X194502051Y-38208165D01*
X194470498Y-38131989D01*
X196699500Y-38131989D01*
X196699500Y-38368011D01*
X196699500Y-38368017D01*
X196699501Y-38368020D01*
X196730306Y-38602010D01*
X196791394Y-38829993D01*
X196881714Y-39048045D01*
X196881719Y-39048056D01*
X196933523Y-39137781D01*
X196999727Y-39252450D01*
X196999729Y-39252453D01*
X196999730Y-39252454D01*
X197143406Y-39439697D01*
X197143412Y-39439704D01*
X197310295Y-39606587D01*
X197310301Y-39606592D01*
X197497550Y-39750273D01*
X197628918Y-39826118D01*
X197701943Y-39868280D01*
X197701948Y-39868282D01*
X197701951Y-39868284D01*
X197920007Y-39958606D01*
X198147986Y-40019693D01*
X198381989Y-40050500D01*
X198381996Y-40050500D01*
X198618004Y-40050500D01*
X198618011Y-40050500D01*
X198852014Y-40019693D01*
X199079993Y-39958606D01*
X199298049Y-39868284D01*
X199502450Y-39750273D01*
X199689699Y-39606592D01*
X199856592Y-39439699D01*
X200000273Y-39252450D01*
X200118284Y-39048049D01*
X200208606Y-38829993D01*
X200269693Y-38602014D01*
X200270150Y-38598543D01*
X202459499Y-38598543D01*
X202497947Y-38791829D01*
X202497950Y-38791839D01*
X202573364Y-38973907D01*
X202573371Y-38973920D01*
X202682860Y-39137781D01*
X202682863Y-39137785D01*
X202822214Y-39277136D01*
X202822218Y-39277139D01*
X202986079Y-39386628D01*
X202986092Y-39386635D01*
X203114197Y-39439697D01*
X203168165Y-39462051D01*
X203168169Y-39462051D01*
X203168170Y-39462052D01*
X203361456Y-39500500D01*
X203361459Y-39500500D01*
X203558543Y-39500500D01*
X203688582Y-39474632D01*
X203751835Y-39462051D01*
X203933914Y-39386632D01*
X204097782Y-39277139D01*
X204237139Y-39137782D01*
X204346632Y-38973914D01*
X204422051Y-38791835D01*
X204442755Y-38687751D01*
X204460500Y-38598543D01*
X204999499Y-38598543D01*
X205037947Y-38791829D01*
X205037950Y-38791839D01*
X205113364Y-38973907D01*
X205113371Y-38973920D01*
X205222860Y-39137781D01*
X205222863Y-39137785D01*
X205362214Y-39277136D01*
X205362218Y-39277139D01*
X205526079Y-39386628D01*
X205526092Y-39386635D01*
X205654197Y-39439697D01*
X205708165Y-39462051D01*
X205708169Y-39462051D01*
X205708170Y-39462052D01*
X205901456Y-39500500D01*
X205901459Y-39500500D01*
X206098543Y-39500500D01*
X206228582Y-39474632D01*
X206291835Y-39462051D01*
X206473914Y-39386632D01*
X206637782Y-39277139D01*
X206777139Y-39137782D01*
X206886632Y-38973914D01*
X206962051Y-38791835D01*
X206982755Y-38687751D01*
X207000500Y-38598543D01*
X207000500Y-38401456D01*
X206962052Y-38208170D01*
X206962051Y-38208169D01*
X206962051Y-38208165D01*
X206962049Y-38208160D01*
X206886635Y-38026092D01*
X206886628Y-38026079D01*
X206777139Y-37862218D01*
X206777136Y-37862214D01*
X206637785Y-37722863D01*
X206637781Y-37722860D01*
X206473920Y-37613371D01*
X206473907Y-37613364D01*
X206291839Y-37537950D01*
X206291829Y-37537947D01*
X206098543Y-37499500D01*
X206098541Y-37499500D01*
X205901459Y-37499500D01*
X205901457Y-37499500D01*
X205708170Y-37537947D01*
X205708160Y-37537950D01*
X205526092Y-37613364D01*
X205526079Y-37613371D01*
X205362218Y-37722860D01*
X205362214Y-37722863D01*
X205222863Y-37862214D01*
X205222860Y-37862218D01*
X205113371Y-38026079D01*
X205113364Y-38026092D01*
X205037950Y-38208160D01*
X205037947Y-38208170D01*
X204999500Y-38401456D01*
X204999500Y-38401459D01*
X204999500Y-38598541D01*
X204999500Y-38598543D01*
X204999499Y-38598543D01*
X204460500Y-38598543D01*
X204460500Y-38401456D01*
X204422052Y-38208170D01*
X204422051Y-38208169D01*
X204422051Y-38208165D01*
X204422049Y-38208160D01*
X204346635Y-38026092D01*
X204346628Y-38026079D01*
X204237139Y-37862218D01*
X204237136Y-37862214D01*
X204097785Y-37722863D01*
X204097781Y-37722860D01*
X203933920Y-37613371D01*
X203933907Y-37613364D01*
X203751839Y-37537950D01*
X203751829Y-37537947D01*
X203558543Y-37499500D01*
X203558541Y-37499500D01*
X203361459Y-37499500D01*
X203361457Y-37499500D01*
X203168170Y-37537947D01*
X203168160Y-37537950D01*
X202986092Y-37613364D01*
X202986079Y-37613371D01*
X202822218Y-37722860D01*
X202822214Y-37722863D01*
X202682863Y-37862214D01*
X202682860Y-37862218D01*
X202573371Y-38026079D01*
X202573364Y-38026092D01*
X202497950Y-38208160D01*
X202497947Y-38208170D01*
X202459500Y-38401456D01*
X202459500Y-38401459D01*
X202459500Y-38598541D01*
X202459500Y-38598543D01*
X202459499Y-38598543D01*
X200270150Y-38598543D01*
X200296053Y-38401793D01*
X200299030Y-38379181D01*
X200299660Y-38374384D01*
X200300500Y-38368011D01*
X200300500Y-38131989D01*
X200269693Y-37897986D01*
X200208606Y-37670007D01*
X200118284Y-37451951D01*
X200118282Y-37451948D01*
X200118280Y-37451943D01*
X200076118Y-37378918D01*
X200000273Y-37247550D01*
X199920361Y-37143406D01*
X199856593Y-37060302D01*
X199856587Y-37060295D01*
X199689704Y-36893412D01*
X199689697Y-36893406D01*
X199502454Y-36749730D01*
X199502453Y-36749729D01*
X199502450Y-36749727D01*
X199415454Y-36699500D01*
X199298056Y-36631719D01*
X199298045Y-36631714D01*
X199079993Y-36541394D01*
X198852010Y-36480306D01*
X198618020Y-36449501D01*
X198618017Y-36449500D01*
X198618011Y-36449500D01*
X198381989Y-36449500D01*
X198381983Y-36449500D01*
X198381979Y-36449501D01*
X198147989Y-36480306D01*
X197920006Y-36541394D01*
X197701954Y-36631714D01*
X197701943Y-36631719D01*
X197497545Y-36749730D01*
X197310302Y-36893406D01*
X197310295Y-36893412D01*
X197143412Y-37060295D01*
X197143406Y-37060302D01*
X196999730Y-37247545D01*
X196881719Y-37451943D01*
X196881714Y-37451954D01*
X196791394Y-37670006D01*
X196730306Y-37897989D01*
X196703913Y-38098469D01*
X196699500Y-38131989D01*
X194470498Y-38131989D01*
X194456611Y-38098462D01*
X194426635Y-38026092D01*
X194426628Y-38026079D01*
X194317139Y-37862218D01*
X194317136Y-37862214D01*
X194177785Y-37722863D01*
X194177781Y-37722860D01*
X194013920Y-37613371D01*
X194013907Y-37613364D01*
X193831839Y-37537950D01*
X193831829Y-37537947D01*
X193638543Y-37499500D01*
X193638541Y-37499500D01*
X193441459Y-37499500D01*
X193441457Y-37499500D01*
X193248170Y-37537947D01*
X193248160Y-37537950D01*
X193066092Y-37613364D01*
X193066079Y-37613371D01*
X192902218Y-37722860D01*
X192902214Y-37722863D01*
X192762863Y-37862214D01*
X192762860Y-37862218D01*
X192653371Y-38026079D01*
X192653364Y-38026092D01*
X192577950Y-38208160D01*
X192577947Y-38208170D01*
X192539500Y-38401456D01*
X192539500Y-38401459D01*
X192539500Y-38598541D01*
X192539500Y-38598543D01*
X192539499Y-38598543D01*
X192000500Y-38598543D01*
X192000500Y-38401456D01*
X191962052Y-38208170D01*
X191962051Y-38208169D01*
X191962051Y-38208165D01*
X191962049Y-38208160D01*
X191886635Y-38026092D01*
X191886628Y-38026079D01*
X191777139Y-37862218D01*
X191777136Y-37862214D01*
X191637785Y-37722863D01*
X191637781Y-37722860D01*
X191473920Y-37613371D01*
X191473907Y-37613364D01*
X191291839Y-37537950D01*
X191291829Y-37537947D01*
X191098543Y-37499500D01*
X191098541Y-37499500D01*
X190901459Y-37499500D01*
X190901457Y-37499500D01*
X190708170Y-37537947D01*
X190708160Y-37537950D01*
X190526092Y-37613364D01*
X190526079Y-37613371D01*
X190362218Y-37722860D01*
X190362214Y-37722863D01*
X190222863Y-37862214D01*
X190222860Y-37862218D01*
X190113371Y-38026079D01*
X190113364Y-38026092D01*
X190037950Y-38208160D01*
X190037947Y-38208170D01*
X189999500Y-38401456D01*
X189999500Y-38401459D01*
X189999500Y-38598541D01*
X189999500Y-38598543D01*
X189999499Y-38598543D01*
X189000500Y-38598543D01*
X189000500Y-38381989D01*
X188969693Y-38147986D01*
X188908606Y-37920007D01*
X188818284Y-37701951D01*
X188818282Y-37701948D01*
X188818280Y-37701943D01*
X188767142Y-37613371D01*
X188700273Y-37497550D01*
X188556592Y-37310301D01*
X188556587Y-37310295D01*
X188389704Y-37143412D01*
X188389697Y-37143406D01*
X188202454Y-36999730D01*
X188202453Y-36999729D01*
X188202450Y-36999727D01*
X188120957Y-36952677D01*
X187998056Y-36881719D01*
X187998045Y-36881714D01*
X187779993Y-36791394D01*
X187552010Y-36730306D01*
X187318020Y-36699501D01*
X187318017Y-36699500D01*
X187318011Y-36699500D01*
X187081989Y-36699500D01*
X187081983Y-36699500D01*
X187081979Y-36699501D01*
X186847989Y-36730306D01*
X186620006Y-36791394D01*
X186401954Y-36881714D01*
X186401943Y-36881719D01*
X186197545Y-36999730D01*
X186010302Y-37143406D01*
X186010295Y-37143412D01*
X185843412Y-37310295D01*
X185843406Y-37310302D01*
X185699730Y-37497545D01*
X185581719Y-37701943D01*
X185581714Y-37701954D01*
X185491394Y-37920006D01*
X185430306Y-38147989D01*
X185399501Y-38381979D01*
X185399500Y-38381995D01*
X185399500Y-38618004D01*
X185399501Y-38618020D01*
X185430306Y-38852010D01*
X185491394Y-39079993D01*
X185581714Y-39298045D01*
X185581719Y-39298056D01*
X185632857Y-39386628D01*
X185699727Y-39502450D01*
X185699729Y-39502453D01*
X185699730Y-39502454D01*
X185843406Y-39689697D01*
X185843412Y-39689704D01*
X186010295Y-39856587D01*
X186010302Y-39856593D01*
X186066675Y-39899849D01*
X186197550Y-40000273D01*
X186284546Y-40050500D01*
X186401943Y-40118280D01*
X186401959Y-40118288D01*
X186537936Y-40174611D01*
X186620007Y-40208606D01*
X186707594Y-40232075D01*
X186767254Y-40268439D01*
X186797783Y-40331285D01*
X186799500Y-40351849D01*
X186799500Y-42682925D01*
X186826793Y-42784788D01*
X186847668Y-42820943D01*
X186879520Y-42876112D01*
X186879522Y-42876114D01*
X187766226Y-43762818D01*
X187799711Y-43824141D01*
X187794727Y-43893833D01*
X187752855Y-43949766D01*
X187687391Y-43974183D01*
X187678546Y-43974499D01*
X187519930Y-43974499D01*
X187519923Y-43974500D01*
X187460316Y-43980907D01*
X187325471Y-44031201D01*
X187325464Y-44031205D01*
X187210255Y-44117451D01*
X187210252Y-44117454D01*
X187124006Y-44232663D01*
X187124003Y-44232668D01*
X187091251Y-44320482D01*
X187049379Y-44376415D01*
X186983915Y-44400832D01*
X186915642Y-44385980D01*
X186875804Y-44351461D01*
X186850346Y-44317453D01*
X186850344Y-44317451D01*
X186850343Y-44317450D01*
X186735135Y-44231205D01*
X186735128Y-44231201D01*
X186600286Y-44180909D01*
X186600285Y-44180908D01*
X186600283Y-44180908D01*
X186540673Y-44174499D01*
X186540663Y-44174499D01*
X185894929Y-44174499D01*
X185894923Y-44174500D01*
X185835316Y-44180907D01*
X185700471Y-44231201D01*
X185700464Y-44231205D01*
X185585255Y-44317451D01*
X185585252Y-44317454D01*
X185517066Y-44408539D01*
X185461132Y-44450410D01*
X185391441Y-44455394D01*
X185330118Y-44421908D01*
X185318534Y-44408539D01*
X185250347Y-44317454D01*
X185250344Y-44317451D01*
X185135135Y-44231205D01*
X185135128Y-44231201D01*
X185000286Y-44180909D01*
X185000285Y-44180908D01*
X185000283Y-44180908D01*
X184940673Y-44174499D01*
X184940663Y-44174499D01*
X184294929Y-44174499D01*
X184294923Y-44174500D01*
X184235316Y-44180907D01*
X184100471Y-44231201D01*
X184100464Y-44231205D01*
X183985255Y-44317451D01*
X183985252Y-44317454D01*
X183917066Y-44408539D01*
X183861132Y-44450410D01*
X183791441Y-44455394D01*
X183730118Y-44421908D01*
X183718534Y-44408539D01*
X183650347Y-44317454D01*
X183650344Y-44317451D01*
X183535135Y-44231205D01*
X183535128Y-44231201D01*
X183400286Y-44180909D01*
X183400285Y-44180908D01*
X183400283Y-44180908D01*
X183340673Y-44174499D01*
X183340663Y-44174499D01*
X182694929Y-44174499D01*
X182694923Y-44174500D01*
X182635316Y-44180907D01*
X182500471Y-44231201D01*
X182500464Y-44231205D01*
X182385255Y-44317451D01*
X182385252Y-44317454D01*
X182299006Y-44432663D01*
X182299002Y-44432670D01*
X182248710Y-44567512D01*
X182248709Y-44567516D01*
X182242300Y-44627126D01*
X182242300Y-44627133D01*
X182242300Y-44627134D01*
X182242300Y-44922256D01*
X182222615Y-44989295D01*
X182169811Y-45035050D01*
X182100653Y-45044994D01*
X182037097Y-45015969D01*
X182030619Y-45009937D01*
X181809875Y-44789193D01*
X181776390Y-44727870D01*
X181775939Y-44677321D01*
X181800499Y-44553846D01*
X181800500Y-44553844D01*
X181800500Y-44396155D01*
X181800499Y-44396153D01*
X181796192Y-44374499D01*
X181769737Y-44241503D01*
X181766078Y-44232669D01*
X181709397Y-44095827D01*
X181709390Y-44095814D01*
X181621789Y-43964711D01*
X181621786Y-43964707D01*
X181510292Y-43853213D01*
X181510288Y-43853210D01*
X181379185Y-43765609D01*
X181379172Y-43765602D01*
X181233501Y-43705264D01*
X181233489Y-43705261D01*
X181078845Y-43674500D01*
X181078842Y-43674500D01*
X180921158Y-43674500D01*
X180921155Y-43674500D01*
X180766510Y-43705261D01*
X180766498Y-43705264D01*
X180620827Y-43765602D01*
X180620814Y-43765609D01*
X180489711Y-43853210D01*
X180489707Y-43853213D01*
X180378212Y-43964708D01*
X180363961Y-43986037D01*
X180324970Y-44044391D01*
X180271360Y-44089196D01*
X180221869Y-44099500D01*
X177297273Y-44099500D01*
X177195409Y-44126793D01*
X177124677Y-44167631D01*
X177056777Y-44184103D01*
X177024361Y-44178174D01*
X176869411Y-44127829D01*
X176869412Y-44127829D01*
X176690551Y-44099500D01*
X176690546Y-44099500D01*
X176509454Y-44099500D01*
X176509449Y-44099500D01*
X176330589Y-44127829D01*
X176158363Y-44183787D01*
X176158360Y-44183788D01*
X175997002Y-44266006D01*
X175850505Y-44372441D01*
X175850500Y-44372445D01*
X175722445Y-44500500D01*
X175722441Y-44500505D01*
X175616006Y-44647002D01*
X175533788Y-44808360D01*
X175533787Y-44808363D01*
X175477829Y-44980589D01*
X175449500Y-45159448D01*
X175449500Y-45340551D01*
X175477829Y-45519410D01*
X175533787Y-45691636D01*
X175533788Y-45691639D01*
X175574572Y-45771680D01*
X175608997Y-45839243D01*
X175616006Y-45852997D01*
X175701532Y-45970715D01*
X175725012Y-46036521D01*
X175709186Y-46104575D01*
X175659080Y-46153270D01*
X175601214Y-46167600D01*
X174285355Y-46167600D01*
X174218316Y-46147915D01*
X174197674Y-46131281D01*
X173855674Y-45789281D01*
X173822189Y-45727958D01*
X173825423Y-45663284D01*
X173872171Y-45519409D01*
X173879117Y-45475556D01*
X173900500Y-45340551D01*
X173900500Y-45159448D01*
X173879303Y-45025621D01*
X173872171Y-44980591D01*
X173835821Y-44868716D01*
X173816212Y-44808363D01*
X173816211Y-44808360D01*
X173777192Y-44731783D01*
X173733996Y-44647006D01*
X173719552Y-44627126D01*
X173627558Y-44500505D01*
X173627554Y-44500500D01*
X173499499Y-44372445D01*
X173499494Y-44372441D01*
X173352997Y-44266006D01*
X173352996Y-44266005D01*
X173352994Y-44266004D01*
X173284690Y-44231201D01*
X173191639Y-44183788D01*
X173191636Y-44183787D01*
X173019410Y-44127829D01*
X172840551Y-44099500D01*
X172840546Y-44099500D01*
X172659454Y-44099500D01*
X172659449Y-44099500D01*
X172480589Y-44127829D01*
X172308363Y-44183787D01*
X172308360Y-44183788D01*
X172147002Y-44266006D01*
X172000505Y-44372441D01*
X172000500Y-44372445D01*
X171872445Y-44500500D01*
X171872441Y-44500505D01*
X171766006Y-44647002D01*
X171683788Y-44808360D01*
X171683787Y-44808363D01*
X171627829Y-44980589D01*
X171599500Y-45159448D01*
X167850500Y-45159448D01*
X167850500Y-38745607D01*
X167870185Y-38678568D01*
X167922989Y-38632813D01*
X167992147Y-38622869D01*
X168055703Y-38651894D01*
X168077602Y-38676717D01*
X168084981Y-38687760D01*
X168084984Y-38687764D01*
X168084985Y-38687765D01*
X168303176Y-38953632D01*
X168546367Y-39196823D01*
X168546372Y-39196827D01*
X168546373Y-39196828D01*
X168812240Y-39415019D01*
X169098213Y-39606100D01*
X169098222Y-39606105D01*
X169098224Y-39606106D01*
X169401530Y-39768227D01*
X169401532Y-39768227D01*
X169401538Y-39768231D01*
X169719295Y-39899850D01*
X170048422Y-39999690D01*
X170385750Y-40066789D01*
X170728031Y-40100500D01*
X170728034Y-40100500D01*
X171071966Y-40100500D01*
X171071969Y-40100500D01*
X171414250Y-40066789D01*
X171751578Y-39999690D01*
X172080705Y-39899850D01*
X172398462Y-39768231D01*
X172701787Y-39606100D01*
X172987760Y-39415019D01*
X173253627Y-39196828D01*
X173496828Y-38953627D01*
X173715019Y-38687760D01*
X173906100Y-38401787D01*
X174068231Y-38098462D01*
X174199850Y-37780705D01*
X174299690Y-37451578D01*
X174366789Y-37114250D01*
X174400500Y-36771969D01*
X174400500Y-36428031D01*
X174366789Y-36085750D01*
X174299690Y-35748422D01*
X174199850Y-35419295D01*
X174068231Y-35101538D01*
X173906100Y-34798213D01*
X173715019Y-34512240D01*
X173496828Y-34246373D01*
X173496827Y-34246372D01*
X173496823Y-34246367D01*
X173253632Y-34003176D01*
X172987765Y-33784985D01*
X172987751Y-33784974D01*
X172976717Y-33777602D01*
X172931912Y-33723989D01*
X172923205Y-33654664D01*
X172953360Y-33591637D01*
X173012803Y-33554918D01*
X173045608Y-33550500D01*
X223754392Y-33550500D01*
X223821431Y-33570185D01*
G37*
%TD.AperFunction*%
%TD*%
M02*
