M48
; DRILL file {KiCad 9.0.6} date 2026-01-10T12:16:04-0600
; FORMAT={-:-/ absolute / inch / decimal}
; #@! TF.CreationDate,2026-01-10T12:16:04-06:00
; #@! TF.GenerationSoftware,Kicad,Pcbnew,9.0.6
; #@! TF.FileFunction,Plated,1,2,PTH
FMAT,2
INCH
; #@! TA.AperFunction,Plated,PTH,ViaDrill
T1C0.0118
; #@! TA.AperFunction,Plated,PTH,ComponentDrill
T2C0.0315
; #@! TA.AperFunction,Plated,PTH,ComponentDrill
T3C0.0394
; #@! TA.AperFunction,Plated,PTH,ComponentDrill
T4C0.0787
; #@! TA.AperFunction,Plated,PTH,ComponentDrill
T5C0.1260
%
G90
G05
T1
X6.6339Y-1.752
X6.6339Y-1.7992
X6.6339Y-1.8465
X6.6339Y-1.8937
X6.6339Y-1.9409
X6.6339Y-1.9843
X6.6339Y-2.0315
X6.6339Y-2.0787
X6.6339Y-2.126
X6.6339Y-2.1732
X6.6339Y-2.2205
X6.6339Y-2.2677
X6.6339Y-2.315
X6.6339Y-2.3583
X6.6339Y-2.4055
X6.6339Y-2.4528
X6.6339Y-2.5
X6.7461Y-2.4193
X6.9094Y-2.4193
X6.9168Y-2.2264
X6.9173Y-1.3425
X6.9646Y-1.3425
X6.9685Y-2.185
X6.998Y-2.0571
X7.0448Y-2.2246
X7.0728Y-1.8334
X7.0768Y-2.4193
X7.0965Y-1.9882
X7.0965Y-2.185
X7.1063Y-2.3326
X7.126Y-1.8445
X7.126Y-1.938
X7.1265Y-1.7515
X7.1358Y-1.9882
X7.1457Y-2.0571
X7.1693Y-2.2262
X7.185Y-2.1752
X7.2539Y-2.2638
X7.2835Y-2.1555
X7.3031Y-2.0571
X7.3258Y-2.2652
X7.3622Y-2.1654
X7.3753Y-2.0997
X7.4449Y-2.7598
X7.4921Y-2.7598
X7.5114Y-2.2043
X7.5118Y-2.3622
X7.534Y-1.7908
X7.5394Y-2.7598
X7.5597Y-2.1561
X7.5866Y-2.7598
X7.6185Y-1.998
X7.6339Y-2.7598
X7.6723Y-1.6899
X7.6811Y-2.7598
X7.6969Y-2.2244
X7.7283Y-2.7598
X7.7549Y-2.1161
X7.7654Y-2.5492
X7.7756Y-2.7598
X7.7854Y-1.7205
X7.7854Y-1.752
X7.7854Y-1.7835
X7.815Y-2.2343
X7.8189Y-2.7598
X7.8445Y-1.689
X7.8445Y-1.7205
X7.8445Y-1.752
X7.8445Y-1.7835
X7.8543Y-2.0768
X7.8661Y-2.7598
X7.874Y-1.6339
X7.9134Y-2.7598
X7.9302Y-1.6338
X7.9606Y-2.7598
X7.9626Y-2.2244
X7.9626Y-2.3622
X8.0079Y-2.7598
X8.0089Y-1.9902
X8.0197Y-1.7362
X8.0197Y-1.7638
X8.0453Y-2.1949
X8.0543Y-2.1486
X8.0551Y-2.7598
X8.0839Y-2.2638
X8.0839Y-2.3327
X8.092Y-2.1639
X8.0942Y-1.7911
X8.1024Y-2.7598
X8.1496Y-2.2736
X8.1496Y-2.7598
X8.1929Y-2.7598
X8.2087Y-1.9587
X8.2087Y-2.0571
X8.2274Y-2.2735
X8.2365Y-1.8652
X8.2402Y-2.7598
X8.2677Y-2.1654
X8.2874Y-2.7598
X8.2972Y-2.2638
X8.3186Y-2.0758
X8.3346Y-2.7598
X8.3602Y-1.8602
X8.376Y-2.2677
X8.3819Y-2.7598
X8.4291Y-2.7598
X8.435Y-2.1555
X8.4572Y-2.2249
X8.4645Y-2.0768
X8.4764Y-2.7598
X8.4843Y-2.2953
X8.5039Y-1.75
X8.5039Y-1.8435
X8.5039Y-1.939
X8.5236Y-2.7598
X8.5256Y-2.6709
X8.5354Y-2.1536
X8.5433Y-2.0276
X8.5512Y-2.4252
X8.5547Y-1.8267
X8.5669Y-2.7598
X8.5827Y-2.2244
X8.6024Y-2.1555
X8.6122Y-2.0768
X8.6142Y-2.7598
X8.6614Y-2.7598
X8.6716Y-2.6432
X8.6929Y-1.3425
X8.7087Y-2.7598
X8.7136Y-2.2244
X8.7146Y-2.4252
X8.7402Y-1.3425
X8.878Y-2.4252
X8.9843Y-1.6142
X8.9843Y-1.6614
X8.9843Y-1.7087
X8.9843Y-1.752
X8.9843Y-1.7992
X8.9843Y-1.8465
X8.9843Y-1.8937
X8.9843Y-1.9409
X8.9843Y-1.9843
X8.9843Y-2.0315
X8.9843Y-2.0787
X8.9843Y-2.126
X8.9843Y-2.1732
X8.9843Y-2.2205
X8.9843Y-2.2677
X8.9843Y-2.315
X8.9843Y-2.3583
X8.9843Y-2.4055
X8.9843Y-2.4528
X8.9843Y-2.5
T2
X7.5197Y-1.5157
X7.6197Y-1.5157
X8.0102Y-1.5157
X8.1102Y-1.5157
T3
X6.7323Y-2.1063
X6.8012Y-1.7815
X6.8012Y-1.8815
X6.8323Y-2.1063
X6.9528Y-1.7815
X6.9528Y-1.8815
X7.2146Y-2.4488
X7.3146Y-2.4488
X7.4146Y-2.4488
X7.7618Y-2.4222
X7.8618Y-2.4222
X7.9618Y-2.4222
X8.2134Y-2.4409
X8.3134Y-2.4409
X8.4134Y-2.4409
X8.6732Y-1.7791
X8.6732Y-1.8791
X8.7976Y-2.1024
X8.8248Y-1.7791
X8.8248Y-1.8791
X8.8976Y-2.1024
T4
X6.6831Y-1.6535
X7.3701Y-1.5059
X7.5Y-2.628
X7.815Y-1.5059
X7.9626Y-2.628
X8.2579Y-1.5059
T5
X6.7283Y-1.4409
X6.7283Y-2.6614
X8.8937Y-1.4409
X8.8937Y-2.6614
M30
