M48
; DRILL file {KiCad 9.0.6} date 2026-01-08T14:37:09-0600
; FORMAT={-:-/ absolute / inch / decimal}
; #@! TF.CreationDate,2026-01-08T14:37:09-06:00
; #@! TF.GenerationSoftware,Kicad,Pcbnew,9.0.6
; #@! TF.FileFunction,Plated,1,2,PTH
FMAT,2
INCH
; #@! TA.AperFunction,Plated,PTH,ViaDrill
T1C0.0118
; #@! TA.AperFunction,Plated,PTH,ComponentDrill
T2C0.0315
; #@! TA.AperFunction,Plated,PTH,ComponentDrill
T3C0.0394
; #@! TA.AperFunction,Plated,PTH,ComponentDrill
T4C0.0787
; #@! TA.AperFunction,Plated,PTH,ComponentDrill
T5C0.1260
%
G90
G05
T1
X6.6339Y-1.752
X6.6339Y-1.7992
X6.6339Y-1.8465
X6.6339Y-1.8937
X6.6339Y-1.9409
X6.6339Y-1.9843
X6.6339Y-2.0315
X6.6339Y-2.0787
X6.6339Y-2.126
X6.6339Y-2.1732
X6.6339Y-2.2205
X6.6339Y-2.2677
X6.6339Y-2.315
X6.6339Y-2.3583
X6.6339Y-2.4055
X6.6339Y-2.4528
X6.6339Y-2.5
X6.7461Y-2.4193
X6.9094Y-2.4193
X6.9168Y-2.2264
X6.9173Y-1.3425
X6.9646Y-1.3425
X7.0448Y-2.2274
X7.0728Y-1.8334
X7.0768Y-2.4193
X7.0965Y-1.9882
X7.0965Y-2.0276
X7.1063Y-2.3326
X7.126Y-1.8445
X7.126Y-1.938
X7.1265Y-1.7515
X7.1358Y-1.9882
X7.1358Y-2.0276
X7.1561Y-2.0706
X7.1693Y-2.2271
X7.1935Y-2.1506
X7.2539Y-2.2638
X7.3031Y-2.0669
X7.3258Y-2.2652
X7.3445Y-2.1502
X7.4449Y-2.7598
X7.4606Y-2.0669
X7.4921Y-2.7598
X7.4961Y-2.1489
X7.5114Y-2.2043
X7.5118Y-2.3622
X7.534Y-1.7908
X7.5394Y-2.7598
X7.5866Y-2.7598
X7.6185Y-1.9902
X7.6339Y-2.7598
X7.6723Y-1.6899
X7.6811Y-2.7598
X7.7283Y-2.7598
X7.7549Y-2.1161
X7.7654Y-2.5492
X7.7756Y-2.7598
X7.7854Y-1.7205
X7.7854Y-1.752
X7.7854Y-1.7835
X7.815Y-2.2343
X7.8189Y-2.7598
X7.8445Y-1.689
X7.8445Y-1.7205
X7.8445Y-1.752
X7.8445Y-1.7835
X7.8543Y-2.0768
X7.8661Y-2.7598
X7.874Y-1.6339
X7.9134Y-2.7598
X7.9302Y-1.6338
X7.9606Y-2.7598
X7.9626Y-2.2244
X8.0079Y-2.7598
X8.0089Y-1.9902
X8.0197Y-1.7362
X8.0197Y-1.7638
X8.0551Y-2.7598
X8.0602Y-2.2097
X8.0839Y-2.3327
X8.0942Y-1.7911
X8.095Y-2.2003
X8.1004Y-2.0669
X8.1024Y-2.7598
X8.1327Y-2.1512
X8.1496Y-2.2736
X8.1496Y-2.7598
X8.1929Y-2.7598
X8.2274Y-2.2735
X8.2365Y-1.8652
X8.2402Y-2.7598
X8.248Y-2.0669
X8.2863Y-2.1503
X8.2874Y-2.7598
X8.2972Y-2.2638
X8.3346Y-2.7598
X8.3602Y-1.8602
X8.376Y-2.2677
X8.3819Y-2.7598
X8.3957Y-2.0669
X8.4291Y-2.7598
X8.4445Y-2.1496
X8.4764Y-2.7598
X8.4843Y-2.2953
X8.4867Y-2.2303
X8.5039Y-1.75
X8.5039Y-1.8435
X8.5039Y-1.939
X8.5236Y-2.7598
X8.5256Y-2.6709
X8.5335Y-2.0669
X8.5335Y-2.1063
X8.5512Y-2.4252
X8.5547Y-1.8267
X8.5669Y-2.7598
X8.5827Y-2.0669
X8.5827Y-2.1063
X8.6088Y-2.2953
X8.6111Y-2.2303
X8.6142Y-2.7598
X8.6319Y-2.0669
X8.6319Y-2.1063
X8.6614Y-2.7598
X8.6716Y-2.6432
X8.6781Y-2.2244
X8.6929Y-1.3425
X8.7087Y-2.7598
X8.7146Y-2.4252
X8.7402Y-1.3425
X8.878Y-2.4252
X8.9843Y-1.6142
X8.9843Y-1.6614
X8.9843Y-1.7087
X8.9843Y-1.752
X8.9843Y-1.7992
X8.9843Y-1.8465
X8.9843Y-1.8937
X8.9843Y-1.9409
X8.9843Y-1.9843
X8.9843Y-2.0315
X8.9843Y-2.0787
X8.9843Y-2.126
X8.9843Y-2.1732
X8.9843Y-2.2205
X8.9843Y-2.2677
X8.9843Y-2.315
X8.9843Y-2.3583
X8.9843Y-2.4055
X8.9843Y-2.4528
X8.9843Y-2.5
T2
X7.5197Y-1.5157
X7.6197Y-1.5157
X8.0102Y-1.5157
X8.1102Y-1.5157
T3
X6.8012Y-1.7815
X6.8012Y-1.8815
X6.802Y-2.1024
X6.902Y-2.1024
X6.9528Y-1.7815
X6.9528Y-1.8815
X7.2146Y-2.4488
X7.3146Y-2.4488
X7.4146Y-2.4488
X7.7618Y-2.4222
X7.8618Y-2.4222
X7.9618Y-2.4222
X8.2134Y-2.4409
X8.3134Y-2.4409
X8.4134Y-2.4409
X8.6732Y-1.7791
X8.6732Y-1.8791
X8.724Y-2.1024
X8.824Y-2.1024
X8.8248Y-1.7791
X8.8248Y-1.8791
T4
X6.6831Y-1.6535
X7.3701Y-1.5059
X7.5Y-2.628
X7.815Y-1.5059
X7.9626Y-2.628
X8.2579Y-1.5059
T5
X6.7283Y-1.4409
X6.7283Y-2.6614
X8.8937Y-1.4409
X8.8937Y-2.6614
M30
