%TF.GenerationSoftware,KiCad,Pcbnew,9.0.6*%
%TF.CreationDate,2026-01-13T22:37:12-06:00*%
%TF.ProjectId,LV Carrier Board,4c562043-6172-4726-9965-7220426f6172,rev?*%
%TF.SameCoordinates,Original*%
%TF.FileFunction,Soldermask,Bot*%
%TF.FilePolarity,Negative*%
%FSLAX46Y46*%
G04 Gerber Fmt 4.6, Leading zero omitted, Abs format (unit mm)*
G04 Created by KiCad (PCBNEW 9.0.6) date 2026-01-13 22:37:12*
%MOMM*%
%LPD*%
G01*
G04 APERTURE LIST*
G04 Aperture macros list*
%AMRoundRect*
0 Rectangle with rounded corners*
0 $1 Rounding radius*
0 $2 $3 $4 $5 $6 $7 $8 $9 X,Y pos of 4 corners*
0 Add a 4 corners polygon primitive as box body*
4,1,4,$2,$3,$4,$5,$6,$7,$8,$9,$2,$3,0*
0 Add four circle primitives for the rounded corners*
1,1,$1+$1,$2,$3*
1,1,$1+$1,$4,$5*
1,1,$1+$1,$6,$7*
1,1,$1+$1,$8,$9*
0 Add four rect primitives between the rounded corners*
20,1,$1+$1,$2,$3,$4,$5,0*
20,1,$1+$1,$4,$5,$6,$7,0*
20,1,$1+$1,$6,$7,$8,$9,0*
20,1,$1+$1,$8,$9,$2,$3,0*%
%AMFreePoly0*
4,1,22,0.945671,0.830970,1.026777,0.776777,1.080970,0.695671,1.100000,0.600000,1.100000,-0.600000,1.080970,-0.695671,1.026777,-0.776777,0.945671,-0.830970,0.850000,-0.850000,-0.450000,-0.850000,-0.545671,-0.830970,-0.626777,-0.776777,-1.026777,-0.376777,-1.080970,-0.295671,-1.100000,-0.200000,-1.100000,0.600000,-1.080970,0.695671,-1.026777,0.776777,-0.945671,0.830970,-0.850000,0.850000,
0.850000,0.850000,0.945671,0.830970,0.945671,0.830970,$1*%
G04 Aperture macros list end*
%ADD10C,2.800000*%
%ADD11C,1.300000*%
%ADD12FreePoly0,180.000000*%
%ADD13O,2.200000X1.700000*%
%ADD14C,3.600000*%
%ADD15C,6.400000*%
%ADD16C,3.000000*%
%ADD17R,1.700000X1.700000*%
%ADD18C,1.700000*%
%ADD19RoundRect,0.102000X-0.765000X0.765000X-0.765000X-0.765000X0.765000X-0.765000X0.765000X0.765000X0*%
%ADD20C,1.734000*%
%ADD21C,8.115000*%
%ADD22O,1.700000X1.700000*%
%ADD23R,3.000000X3.000000*%
%ADD24R,2.400000X2.400000*%
%ADD25C,2.400000*%
%ADD26C,0.850000*%
%ADD27C,2.604000*%
%ADD28RoundRect,1.500000X1.500000X1.500000X-1.500000X1.500000X-1.500000X-1.500000X1.500000X-1.500000X0*%
%ADD29C,6.000000*%
%ADD30C,1.905000*%
%ADD31RoundRect,0.250000X0.850000X0.600000X-0.850000X0.600000X-0.850000X-0.600000X0.850000X-0.600000X0*%
G04 APERTURE END LIST*
D10*
%TO.C,TP23*%
X17550000Y-48100000D03*
%TD*%
%TO.C,TP20*%
X17600000Y-42350000D03*
%TD*%
D11*
%TO.C,J4*%
X18410000Y-72750000D03*
D12*
X17070000Y-74000000D03*
D13*
X17070000Y-71500000D03*
%TD*%
D14*
%TO.C,H5*%
X114700000Y-76800000D03*
D15*
X114700000Y-76800000D03*
%TD*%
D16*
%TO.C,TP26*%
X59100000Y-135400000D03*
%TD*%
%TO.C,TP19*%
X57500000Y-88700000D03*
%TD*%
D17*
%TO.C,J13*%
X29420000Y-140185000D03*
D18*
X31960000Y-140185000D03*
X34500000Y-140185000D03*
%TD*%
D16*
%TO.C,TP9*%
X129500000Y-96500000D03*
%TD*%
%TO.C,TP21*%
X72800000Y-146400000D03*
%TD*%
D19*
%TO.C,U2*%
X163710000Y-112630000D03*
D20*
X163710000Y-110090000D03*
X163710000Y-107550000D03*
X163710000Y-105010000D03*
X163710000Y-102470000D03*
X163710000Y-99930000D03*
X163710000Y-97390000D03*
X163710000Y-94850000D03*
X166250000Y-112630000D03*
X166250000Y-110090000D03*
X166250000Y-107550000D03*
X166250000Y-105010000D03*
X166250000Y-102470000D03*
X166250000Y-99930000D03*
X166250000Y-97390000D03*
X166250000Y-94850000D03*
X168790000Y-112630000D03*
X168790000Y-110090000D03*
X168790000Y-107550000D03*
X168790000Y-105010000D03*
X168790000Y-102470000D03*
X168790000Y-99930000D03*
X168790000Y-97390000D03*
X168790000Y-94850000D03*
X170300000Y-123300000D03*
X167800000Y-123300000D03*
X165300000Y-123300000D03*
X162800000Y-123300000D03*
X170300000Y-126300000D03*
X167800000Y-126300000D03*
X165300000Y-126300000D03*
X162800000Y-126300000D03*
X170300000Y-117800000D03*
X167800000Y-117800000D03*
X165300000Y-117800000D03*
X162800000Y-117800000D03*
X170300000Y-120800000D03*
X167800000Y-120800000D03*
X165300000Y-120800000D03*
X162800000Y-120800000D03*
X170300000Y-87040000D03*
X167800000Y-87040000D03*
X165300000Y-87040000D03*
X162800000Y-87040000D03*
X170300000Y-90040000D03*
X167800000Y-90040000D03*
X165300000Y-90040000D03*
X162800000Y-90040000D03*
X170300000Y-81540000D03*
X167800000Y-81540000D03*
X165300000Y-81540000D03*
X162800000Y-81540000D03*
X170300000Y-84540000D03*
X167800000Y-84540000D03*
X165300000Y-84540000D03*
X162800000Y-84540000D03*
%TD*%
D16*
%TO.C,TP25*%
X64300000Y-135400000D03*
%TD*%
D21*
%TO.C,J16*%
X19390000Y-145350000D03*
%TD*%
D17*
%TO.C,J7*%
X78520000Y-75400000D03*
D22*
X81060000Y-75400000D03*
X83600000Y-75400000D03*
X86140000Y-75400000D03*
%TD*%
D21*
%TO.C,J15*%
X154300000Y-155740000D03*
%TD*%
D23*
%TO.C,J8*%
X112800000Y-169000000D03*
D16*
X107800000Y-169000000D03*
%TD*%
%TO.C,TP11*%
X87450000Y-97400000D03*
%TD*%
D24*
%TO.C,C3*%
X152900000Y-28087246D03*
D25*
X152900000Y-35587246D03*
%TD*%
D21*
%TO.C,J14*%
X151250000Y-127840000D03*
%TD*%
D19*
%TO.C,U4*%
X34420000Y-112580000D03*
D20*
X34420000Y-110040000D03*
X34420000Y-107500000D03*
X34420000Y-104960000D03*
X34420000Y-102420000D03*
X34420000Y-99880000D03*
X34420000Y-97340000D03*
X34420000Y-94800000D03*
X36960000Y-112580000D03*
X36960000Y-110040000D03*
X36960000Y-107500000D03*
X36960000Y-104960000D03*
X36960000Y-102420000D03*
X36960000Y-99880000D03*
X36960000Y-97340000D03*
X36960000Y-94800000D03*
X39500000Y-112580000D03*
X39500000Y-110040000D03*
X39500000Y-107500000D03*
X39500000Y-104960000D03*
X39500000Y-102420000D03*
X39500000Y-99880000D03*
X39500000Y-97340000D03*
X39500000Y-94800000D03*
X41010000Y-123250000D03*
X38510000Y-123250000D03*
X36010000Y-123250000D03*
X33510000Y-123250000D03*
X41010000Y-126250000D03*
X38510000Y-126250000D03*
X36010000Y-126250000D03*
X33510000Y-126250000D03*
X41010000Y-117750000D03*
X38510000Y-117750000D03*
X36010000Y-117750000D03*
X33510000Y-117750000D03*
X41010000Y-120750000D03*
X38510000Y-120750000D03*
X36010000Y-120750000D03*
X33510000Y-120750000D03*
X41010000Y-86990000D03*
X38510000Y-86990000D03*
X36010000Y-86990000D03*
X33510000Y-86990000D03*
X41010000Y-89990000D03*
X38510000Y-89990000D03*
X36010000Y-89990000D03*
X33510000Y-89990000D03*
X41010000Y-81490000D03*
X38510000Y-81490000D03*
X36010000Y-81490000D03*
X33510000Y-81490000D03*
X41010000Y-84490000D03*
X38510000Y-84490000D03*
X36010000Y-84490000D03*
X33510000Y-84490000D03*
%TD*%
D16*
%TO.C,TP14*%
X111000000Y-31500000D03*
%TD*%
D26*
%TO.C,J6*%
X116350000Y-64000000D03*
X116350000Y-53400000D03*
D14*
X142600000Y-69400000D03*
D15*
X142600000Y-69400000D03*
D14*
X142600000Y-38400000D03*
D15*
X142600000Y-38400000D03*
D14*
X87600000Y-69400000D03*
D15*
X87600000Y-69400000D03*
D14*
X87600000Y-38400000D03*
D15*
X87600000Y-38400000D03*
%TD*%
D16*
%TO.C,TP15*%
X169200000Y-171400000D03*
%TD*%
D23*
%TO.C,J12*%
X19000000Y-161400000D03*
D16*
X19000000Y-156400000D03*
%TD*%
D14*
%TO.C,H2*%
X177000000Y-27000000D03*
D15*
X177000000Y-27000000D03*
%TD*%
D14*
%TO.C,H3*%
X177000000Y-170000000D03*
D15*
X177000000Y-170000000D03*
%TD*%
D21*
%TO.C,J11*%
X174350000Y-43500000D03*
%TD*%
D16*
%TO.C,TP18*%
X101300000Y-76500000D03*
%TD*%
D14*
%TO.C,H4*%
X18000000Y-170000000D03*
D15*
X18000000Y-170000000D03*
%TD*%
D23*
%TO.C,J9*%
X123950000Y-27900000D03*
D16*
X118950000Y-27900000D03*
%TD*%
%TO.C,TP17*%
X142000000Y-127200000D03*
%TD*%
D14*
%TO.C,H1*%
X18000000Y-27000000D03*
D15*
X18000000Y-27000000D03*
%TD*%
D16*
%TO.C,TP22*%
X129400000Y-76500000D03*
%TD*%
%TO.C,U5*%
X29550000Y-32150000D03*
X29550000Y-66650000D03*
X79050000Y-32150000D03*
X79050000Y-66650000D03*
%TD*%
D23*
%TO.C,J5*%
X86600000Y-169000000D03*
D16*
X81600000Y-169000000D03*
%TD*%
D27*
%TO.C,F1*%
X78000000Y-157960000D03*
X81400000Y-157960000D03*
X78000000Y-148040000D03*
X81400000Y-148040000D03*
%TD*%
%TO.C,F3*%
X121950000Y-95360000D03*
X125350000Y-95360000D03*
X121950000Y-85440000D03*
X125350000Y-85440000D03*
%TD*%
D21*
%TO.C,J10*%
X55200000Y-79500000D03*
%TD*%
D28*
%TO.C,J3*%
X149400000Y-169000000D03*
D29*
X142200000Y-169000000D03*
%TD*%
D30*
%TO.C,F2*%
X142400000Y-134670000D03*
X142400000Y-158800000D03*
%TD*%
D14*
%TO.C,H6*%
X55600000Y-102635110D03*
D15*
X55600000Y-102635110D03*
%TD*%
D14*
%TO.C,U8*%
X93150000Y-126350000D03*
D15*
X93150000Y-126350000D03*
D14*
X133150000Y-141550000D03*
D15*
X133150000Y-141550000D03*
%TD*%
D11*
%TO.C,J2*%
X18340000Y-87750000D03*
D31*
X17000000Y-91500000D03*
D13*
X17000000Y-89000000D03*
X17000000Y-86500000D03*
X17000000Y-84000000D03*
%TD*%
D26*
%TO.C,J1*%
X74200000Y-96400000D03*
X74200000Y-107000000D03*
D14*
X64010000Y-109229780D03*
D15*
X64010000Y-109229780D03*
D14*
X98719971Y-86159809D03*
D15*
X98719971Y-86159809D03*
%TD*%
M02*
