%TF.GenerationSoftware,KiCad,Pcbnew,9.0.6*%
%TF.CreationDate,2026-01-13T22:37:07-06:00*%
%TF.ProjectId,LV Carrier Board,4c562043-6172-4726-9965-7220426f6172,rev?*%
%TF.SameCoordinates,Original*%
%TF.FileFunction,Soldermask,Top*%
%TF.FilePolarity,Negative*%
%FSLAX46Y46*%
G04 Gerber Fmt 4.6, Leading zero omitted, Abs format (unit mm)*
G04 Created by KiCad (PCBNEW 9.0.6) date 2026-01-13 22:37:07*
%MOMM*%
%LPD*%
G01*
G04 APERTURE LIST*
G04 Aperture macros list*
%AMRoundRect*
0 Rectangle with rounded corners*
0 $1 Rounding radius*
0 $2 $3 $4 $5 $6 $7 $8 $9 X,Y pos of 4 corners*
0 Add a 4 corners polygon primitive as box body*
4,1,4,$2,$3,$4,$5,$6,$7,$8,$9,$2,$3,0*
0 Add four circle primitives for the rounded corners*
1,1,$1+$1,$2,$3*
1,1,$1+$1,$4,$5*
1,1,$1+$1,$6,$7*
1,1,$1+$1,$8,$9*
0 Add four rect primitives between the rounded corners*
20,1,$1+$1,$2,$3,$4,$5,0*
20,1,$1+$1,$4,$5,$6,$7,0*
20,1,$1+$1,$6,$7,$8,$9,0*
20,1,$1+$1,$8,$9,$2,$3,0*%
%AMFreePoly0*
4,1,22,0.945671,0.830970,1.026777,0.776777,1.080970,0.695671,1.100000,0.600000,1.100000,-0.600000,1.080970,-0.695671,1.026777,-0.776777,0.945671,-0.830970,0.850000,-0.850000,-0.450000,-0.850000,-0.545671,-0.830970,-0.626777,-0.776777,-1.026777,-0.376777,-1.080970,-0.295671,-1.100000,-0.200000,-1.100000,0.600000,-1.080970,0.695671,-1.026777,0.776777,-0.945671,0.830970,-0.850000,0.850000,
0.850000,0.850000,0.945671,0.830970,0.945671,0.830970,$1*%
G04 Aperture macros list end*
%ADD10C,0.000000*%
%ADD11C,2.800000*%
%ADD12RoundRect,0.237500X0.237500X-0.300000X0.237500X0.300000X-0.237500X0.300000X-0.237500X-0.300000X0*%
%ADD13R,1.000000X0.750000*%
%ADD14R,0.480000X0.750000*%
%ADD15R,2.720000X4.560000*%
%ADD16R,0.910000X5.560000*%
%ADD17R,0.420000X4.560000*%
%ADD18C,2.500000*%
%ADD19R,4.410000X2.000000*%
%ADD20R,0.600000X2.000000*%
%ADD21FreePoly0,180.000000*%
%ADD22O,2.200000X1.700000*%
%ADD23C,3.600000*%
%ADD24C,6.400000*%
%ADD25RoundRect,0.237500X-0.237500X0.250000X-0.237500X-0.250000X0.237500X-0.250000X0.237500X0.250000X0*%
%ADD26RoundRect,0.163043X-1.036957X0.586957X-1.036957X-0.586957X1.036957X-0.586957X1.036957X0.586957X0*%
%ADD27RoundRect,0.163043X-0.586957X-1.036957X0.586957X-1.036957X0.586957X1.036957X-0.586957X1.036957X0*%
%ADD28R,1.200000X1.200000*%
%ADD29RoundRect,0.237500X0.237500X-0.250000X0.237500X0.250000X-0.237500X0.250000X-0.237500X-0.250000X0*%
%ADD30RoundRect,0.237500X-0.250000X-0.237500X0.250000X-0.237500X0.250000X0.237500X-0.250000X0.237500X0*%
%ADD31RoundRect,0.150000X0.587500X0.150000X-0.587500X0.150000X-0.587500X-0.150000X0.587500X-0.150000X0*%
%ADD32C,3.000000*%
%ADD33R,0.450000X0.900000*%
%ADD34R,1.700000X1.700000*%
%ADD35C,1.700000*%
%ADD36RoundRect,0.237500X0.250000X0.237500X-0.250000X0.237500X-0.250000X-0.237500X0.250000X-0.237500X0*%
%ADD37RoundRect,0.102000X-0.765000X0.765000X-0.765000X-0.765000X0.765000X-0.765000X0.765000X0.765000X0*%
%ADD38C,1.734000*%
%ADD39RoundRect,0.200000X-0.200000X-0.275000X0.200000X-0.275000X0.200000X0.275000X-0.200000X0.275000X0*%
%ADD40RoundRect,0.250000X-0.337500X-0.475000X0.337500X-0.475000X0.337500X0.475000X-0.337500X0.475000X0*%
%ADD41RoundRect,0.237500X-0.237500X0.300000X-0.237500X-0.300000X0.237500X-0.300000X0.237500X0.300000X0*%
%ADD42RoundRect,0.150000X-0.587500X-0.150000X0.587500X-0.150000X0.587500X0.150000X-0.587500X0.150000X0*%
%ADD43RoundRect,0.237500X0.300000X0.237500X-0.300000X0.237500X-0.300000X-0.237500X0.300000X-0.237500X0*%
%ADD44RoundRect,0.150000X0.150000X-0.587500X0.150000X0.587500X-0.150000X0.587500X-0.150000X-0.587500X0*%
%ADD45RoundRect,0.237500X0.287500X0.237500X-0.287500X0.237500X-0.287500X-0.237500X0.287500X-0.237500X0*%
%ADD46RoundRect,0.237500X0.237500X-0.287500X0.237500X0.287500X-0.237500X0.287500X-0.237500X-0.287500X0*%
%ADD47R,2.150000X2.250000*%
%ADD48C,8.115000*%
%ADD49O,1.700000X1.700000*%
%ADD50RoundRect,0.102000X-0.590000X0.765000X-0.590000X-0.765000X0.590000X-0.765000X0.590000X0.765000X0*%
%ADD51RoundRect,0.102000X-3.605000X2.815000X-3.605000X-2.815000X3.605000X-2.815000X3.605000X2.815000X0*%
%ADD52R,3.000000X3.000000*%
%ADD53RoundRect,0.237500X-0.287500X-0.237500X0.287500X-0.237500X0.287500X0.237500X-0.287500X0.237500X0*%
%ADD54R,2.400000X2.400000*%
%ADD55C,2.400000*%
%ADD56R,3.250000X1.550000*%
%ADD57RoundRect,0.237500X-0.300000X-0.237500X0.300000X-0.237500X0.300000X0.237500X-0.300000X0.237500X0*%
%ADD58R,1.500000X0.550000*%
%ADD59RoundRect,0.200000X0.200000X0.275000X-0.200000X0.275000X-0.200000X-0.275000X0.200000X-0.275000X0*%
%ADD60RoundRect,0.150000X-0.200000X0.150000X-0.200000X-0.150000X0.200000X-0.150000X0.200000X0.150000X0*%
%ADD61RoundRect,0.102000X0.590000X-0.765000X0.590000X0.765000X-0.590000X0.765000X-0.590000X-0.765000X0*%
%ADD62RoundRect,0.102000X3.605000X-2.815000X3.605000X2.815000X-3.605000X2.815000X-3.605000X-2.815000X0*%
%ADD63RoundRect,0.237500X-0.237500X0.287500X-0.237500X-0.287500X0.237500X-0.287500X0.237500X0.287500X0*%
%ADD64R,0.550000X1.800000*%
%ADD65C,2.604000*%
%ADD66R,0.750000X1.000000*%
%ADD67R,0.750000X0.480000*%
%ADD68R,4.560000X2.720000*%
%ADD69R,5.560000X0.910000*%
%ADD70R,4.560000X0.420000*%
%ADD71RoundRect,0.150000X0.200000X-0.150000X0.200000X0.150000X-0.200000X0.150000X-0.200000X-0.150000X0*%
%ADD72RoundRect,1.500000X1.500000X1.500000X-1.500000X1.500000X-1.500000X-1.500000X1.500000X-1.500000X0*%
%ADD73C,6.000000*%
%ADD74C,1.905000*%
%ADD75R,1.800000X0.550000*%
%ADD76RoundRect,0.250000X0.337500X0.475000X-0.337500X0.475000X-0.337500X-0.475000X0.337500X-0.475000X0*%
%ADD77RoundRect,0.250000X0.850000X0.600000X-0.850000X0.600000X-0.850000X-0.600000X0.850000X-0.600000X0*%
%ADD78R,0.900000X0.450000*%
G04 APERTURE END LIST*
D10*
%TO.C,LOGO2*%
G36*
X41750794Y-25396905D02*
G01*
X41775993Y-26530833D01*
X42796528Y-26544476D01*
X43817064Y-26558119D01*
X43817064Y-26809059D01*
X43817064Y-27060000D01*
X42480751Y-27060000D01*
X41144438Y-27060000D01*
X41157834Y-25661488D01*
X41171231Y-24262976D01*
X41448413Y-24262976D01*
X41725596Y-24262976D01*
X41750794Y-25396905D01*
G37*
G36*
X54615873Y-24910198D02*
G01*
X54615873Y-25136984D01*
X53834722Y-25136984D01*
X53053571Y-25136984D01*
X53053571Y-25388968D01*
X53053571Y-25640952D01*
X53834722Y-25640952D01*
X54615873Y-25640952D01*
X54615873Y-26346508D01*
X54615873Y-27052063D01*
X53607936Y-27052063D01*
X52600000Y-27052063D01*
X52600000Y-26825278D01*
X52600000Y-26598492D01*
X53381151Y-26598492D01*
X54162301Y-26598492D01*
X54162301Y-26346508D01*
X54162301Y-26094524D01*
X53381151Y-26094524D01*
X52600000Y-26094524D01*
X52600000Y-25388968D01*
X52600000Y-24683413D01*
X53607936Y-24683413D01*
X54615873Y-24683413D01*
X54615873Y-24910198D01*
G37*
G36*
X47626828Y-24246870D02*
G01*
X47823612Y-24262976D01*
X47837008Y-25661488D01*
X47850404Y-27060000D01*
X47523678Y-27060000D01*
X47196952Y-27060000D01*
X47182703Y-26493036D01*
X47168453Y-25926071D01*
X46073982Y-25912494D01*
X44979510Y-25898916D01*
X44965251Y-26466859D01*
X44950993Y-27034801D01*
X44635211Y-27049826D01*
X44319429Y-27064851D01*
X44332830Y-25663914D01*
X44346231Y-24262976D01*
X44602691Y-24248025D01*
X44801790Y-24252861D01*
X44910363Y-24295420D01*
X44915728Y-24301244D01*
X44941275Y-24378573D01*
X44964051Y-24531243D01*
X44980876Y-24733801D01*
X44986847Y-24870561D01*
X45001389Y-25371706D01*
X46084921Y-25371706D01*
X47168453Y-25371706D01*
X47182752Y-24830474D01*
X47192061Y-24572555D01*
X47211771Y-24399779D01*
X47253781Y-24296509D01*
X47329990Y-24247105D01*
X47452298Y-24235930D01*
X47626828Y-24246870D01*
G37*
G36*
X49856389Y-24242880D02*
G01*
X50179517Y-24246724D01*
X50647725Y-24255193D01*
X51025655Y-24267869D01*
X51323823Y-24288856D01*
X51552744Y-24322257D01*
X51722934Y-24372178D01*
X51844908Y-24442721D01*
X51929182Y-24537992D01*
X51986272Y-24662094D01*
X52026693Y-24819132D01*
X52055352Y-24978856D01*
X52065781Y-25181314D01*
X52042188Y-25403805D01*
X51991695Y-25612348D01*
X51921422Y-25772966D01*
X51877371Y-25828160D01*
X51813130Y-25894076D01*
X51813297Y-25946382D01*
X51880288Y-26026572D01*
X51889499Y-26036385D01*
X51945563Y-26111351D01*
X51982230Y-26208775D01*
X52005316Y-26353634D01*
X52020634Y-26570905D01*
X52022438Y-26607429D01*
X52044076Y-27060000D01*
X51710332Y-27060000D01*
X51376588Y-27060000D01*
X51376588Y-26764415D01*
X51364342Y-26557713D01*
X51321898Y-26414351D01*
X51272136Y-26336042D01*
X51167685Y-26203254D01*
X50213803Y-26203254D01*
X49259921Y-26203254D01*
X49259921Y-26631627D01*
X49259921Y-27060000D01*
X48932342Y-27060000D01*
X48604762Y-27060000D01*
X48604762Y-25675047D01*
X48604762Y-25212116D01*
X48604762Y-24792143D01*
X49259921Y-24792143D01*
X49259921Y-25212116D01*
X49264188Y-25409653D01*
X49275542Y-25567374D01*
X49291816Y-25659012D01*
X49297719Y-25670099D01*
X49357819Y-25681199D01*
X49502244Y-25689204D01*
X49714564Y-25693761D01*
X49978345Y-25694519D01*
X50277158Y-25691126D01*
X50278719Y-25691098D01*
X50615482Y-25684007D01*
X50865965Y-25675610D01*
X51044681Y-25664404D01*
X51166141Y-25648885D01*
X51244859Y-25627551D01*
X51295349Y-25598897D01*
X51311853Y-25584093D01*
X51377195Y-25465962D01*
X51401407Y-25274497D01*
X51401786Y-25239462D01*
X51391791Y-25070129D01*
X51353410Y-24963196D01*
X51282810Y-24888484D01*
X51232720Y-24854546D01*
X51168423Y-24829601D01*
X51074814Y-24812287D01*
X50936788Y-24801247D01*
X50739240Y-24795123D01*
X50467064Y-24792554D01*
X50211878Y-24792143D01*
X49259921Y-24792143D01*
X48604762Y-24792143D01*
X48604762Y-24290095D01*
X48730608Y-24258509D01*
X48813764Y-24250726D01*
X48982805Y-24245150D01*
X49222847Y-24241903D01*
X49519004Y-24241106D01*
X49856389Y-24242880D01*
G37*
%TD*%
D11*
%TO.C,TP23*%
X17550000Y-48100000D03*
%TD*%
%TO.C,TP20*%
X17600000Y-42350000D03*
%TD*%
D12*
%TO.C,C12*%
X103400000Y-90662500D03*
X103400000Y-88937500D03*
%TD*%
%TO.C,CMOSFET1*%
X134500000Y-63712500D03*
X134500000Y-61987500D03*
%TD*%
D13*
%TO.C,Q9*%
X101720000Y-93500000D03*
X101720000Y-94770000D03*
X101720000Y-96040000D03*
X101720000Y-97310000D03*
D14*
X107480000Y-97310000D03*
X107480000Y-93500000D03*
D15*
X105880000Y-95405000D03*
D16*
X104065000Y-95405000D03*
D17*
X103400000Y-95405000D03*
%TD*%
D18*
%TO.C,TP4*%
X152500000Y-111500000D03*
%TD*%
%TO.C,TP13*%
X152500000Y-97000000D03*
%TD*%
D19*
%TO.C,IC4*%
X76400000Y-110950000D03*
X71320000Y-110950000D03*
D20*
X69415000Y-120250000D03*
X70685000Y-120250000D03*
X71955000Y-120250000D03*
X73225000Y-120250000D03*
X74495000Y-120250000D03*
X75765000Y-120250000D03*
X77035000Y-120250000D03*
X78305000Y-120250000D03*
%TD*%
D21*
%TO.C,J4*%
X17070000Y-74000000D03*
D22*
X17070000Y-71500000D03*
%TD*%
D23*
%TO.C,H5*%
X114700000Y-76800000D03*
D24*
X114700000Y-76800000D03*
%TD*%
D25*
%TO.C,R12*%
X18550000Y-31562500D03*
X18550000Y-33387500D03*
%TD*%
D26*
%TO.C,D27*%
X87300000Y-88050000D03*
X87300000Y-92350000D03*
%TD*%
D27*
%TO.C,D26*%
X72049999Y-130600000D03*
X76349999Y-130600000D03*
%TD*%
D28*
%TO.C,D5*%
X98400000Y-126800000D03*
X101199998Y-126800000D03*
%TD*%
D29*
%TO.C,R37*%
X129750000Y-93212500D03*
X129750000Y-91387500D03*
%TD*%
D30*
%TO.C,R44*%
X93087500Y-113900000D03*
X94912500Y-113900000D03*
%TD*%
%TO.C,R21*%
X34275000Y-39800000D03*
X36100000Y-39800000D03*
%TD*%
D31*
%TO.C,D1*%
X87187500Y-29000000D03*
X87187500Y-27100000D03*
X85312500Y-28050000D03*
%TD*%
D32*
%TO.C,TP26*%
X59100000Y-135400000D03*
%TD*%
%TO.C,TP19*%
X57500000Y-88700000D03*
%TD*%
D18*
%TO.C,TP12*%
X26000000Y-95600000D03*
%TD*%
D30*
%TO.C,R13*%
X101287500Y-105100000D03*
X103112500Y-105100000D03*
%TD*%
D33*
%TO.C,IC1*%
X91200000Y-120100000D03*
X91850000Y-120100000D03*
X92500000Y-120100000D03*
X93150000Y-120100000D03*
X93150000Y-117900000D03*
X92500000Y-117900000D03*
X91850000Y-117900000D03*
X91200000Y-117900000D03*
%TD*%
D34*
%TO.C,J13*%
X29420000Y-140185000D03*
D35*
X31960000Y-140185000D03*
X34500000Y-140185000D03*
%TD*%
D36*
%TO.C,R1*%
X94912500Y-115500000D03*
X93087500Y-115500000D03*
%TD*%
D32*
%TO.C,TP9*%
X129500000Y-96500000D03*
%TD*%
D29*
%TO.C,R11*%
X41900000Y-47112500D03*
X41900000Y-45287500D03*
%TD*%
D36*
%TO.C,R22*%
X36100000Y-41400000D03*
X34275000Y-41400000D03*
%TD*%
D32*
%TO.C,TP21*%
X72800000Y-146400000D03*
%TD*%
D37*
%TO.C,U2*%
X163710000Y-112630000D03*
D38*
X163710000Y-110090000D03*
X163710000Y-107550000D03*
X163710000Y-105010000D03*
X163710000Y-102470000D03*
X163710000Y-99930000D03*
X163710000Y-97390000D03*
X163710000Y-94850000D03*
X166250000Y-112630000D03*
X166250000Y-110090000D03*
X166250000Y-107550000D03*
X166250000Y-105010000D03*
X166250000Y-102470000D03*
X166250000Y-99930000D03*
X166250000Y-97390000D03*
X166250000Y-94850000D03*
X168790000Y-112630000D03*
X168790000Y-110090000D03*
X168790000Y-107550000D03*
X168790000Y-105010000D03*
X168790000Y-102470000D03*
X168790000Y-99930000D03*
X168790000Y-97390000D03*
X168790000Y-94850000D03*
X170300000Y-123300000D03*
X167800000Y-123300000D03*
X165300000Y-123300000D03*
X162800000Y-123300000D03*
X170300000Y-126300000D03*
X167800000Y-126300000D03*
X165300000Y-126300000D03*
X162800000Y-126300000D03*
X170300000Y-117800000D03*
X167800000Y-117800000D03*
X165300000Y-117800000D03*
X162800000Y-117800000D03*
X170300000Y-120800000D03*
X167800000Y-120800000D03*
X165300000Y-120800000D03*
X162800000Y-120800000D03*
X170300000Y-87040000D03*
X167800000Y-87040000D03*
X165300000Y-87040000D03*
X162800000Y-87040000D03*
X170300000Y-90040000D03*
X167800000Y-90040000D03*
X165300000Y-90040000D03*
X162800000Y-90040000D03*
X170300000Y-81540000D03*
X167800000Y-81540000D03*
X165300000Y-81540000D03*
X162800000Y-81540000D03*
X170300000Y-84540000D03*
X167800000Y-84540000D03*
X165300000Y-84540000D03*
X162800000Y-84540000D03*
%TD*%
D39*
%TO.C,R3*%
X138800000Y-76300000D03*
X140450000Y-76300000D03*
%TD*%
D40*
%TO.C,C1*%
X142162500Y-76300000D03*
X144237500Y-76300000D03*
%TD*%
D41*
%TO.C,C13*%
X46000000Y-37537500D03*
X46000000Y-39262500D03*
%TD*%
D36*
%TO.C,R24*%
X36100000Y-44900000D03*
X34275000Y-44900000D03*
%TD*%
D25*
%TO.C,R18*%
X24200000Y-31487500D03*
X24200000Y-33312500D03*
%TD*%
D42*
%TO.C,Q11*%
X38162500Y-43100000D03*
X38162500Y-45000000D03*
X40037500Y-44050000D03*
%TD*%
D18*
%TO.C,TP2*%
X26000000Y-99200000D03*
%TD*%
D25*
%TO.C,R14*%
X97050000Y-120700000D03*
X97050000Y-122525000D03*
%TD*%
D43*
%TO.C,C8*%
X75262500Y-126400000D03*
X73537500Y-126400000D03*
%TD*%
D44*
%TO.C,Q6*%
X98650000Y-122280000D03*
X100550000Y-122280000D03*
X99600000Y-120404999D03*
%TD*%
D36*
%TO.C,R28*%
X59262500Y-107550000D03*
X57437500Y-107550000D03*
%TD*%
D45*
%TO.C,D2*%
X58987500Y-141600000D03*
X57237500Y-141600000D03*
%TD*%
D46*
%TO.C,D20*%
X117900000Y-86775000D03*
X117900000Y-85025000D03*
%TD*%
D47*
%TO.C,D13*%
X43470000Y-147595000D03*
X43470000Y-151995000D03*
%TD*%
D32*
%TO.C,TP25*%
X64300000Y-135400000D03*
%TD*%
D29*
%TO.C,R31*%
X148200000Y-87712500D03*
X148200000Y-85887500D03*
%TD*%
D18*
%TO.C,TP6*%
X152500000Y-106666667D03*
%TD*%
%TO.C,TP1*%
X26200000Y-107400000D03*
%TD*%
D25*
%TO.C,R29*%
X81100000Y-115537500D03*
X81100000Y-117362500D03*
%TD*%
D30*
%TO.C,R36*%
X91075000Y-59500000D03*
X92900000Y-59500000D03*
%TD*%
D25*
%TO.C,R27*%
X86150000Y-80112500D03*
X86150000Y-81937500D03*
%TD*%
D12*
%TO.C,C9*%
X90400000Y-91962500D03*
X90400000Y-90237500D03*
%TD*%
D48*
%TO.C,J16*%
X19390000Y-145350000D03*
%TD*%
D34*
%TO.C,J7*%
X78520000Y-75400000D03*
D49*
X81060000Y-75400000D03*
X83600000Y-75400000D03*
X86140000Y-75400000D03*
%TD*%
D48*
%TO.C,J15*%
X154300000Y-155740000D03*
%TD*%
D50*
%TO.C,Q1*%
X131800000Y-64100000D03*
X129800000Y-64100000D03*
X127800000Y-64100000D03*
X125800000Y-64100000D03*
D51*
X128800000Y-69350000D03*
%TD*%
D52*
%TO.C,J8*%
X112800000Y-169000000D03*
D32*
X107800000Y-169000000D03*
%TD*%
D53*
%TO.C,D8*%
X103925000Y-25600000D03*
X105675000Y-25600000D03*
%TD*%
D29*
%TO.C,R30*%
X67175000Y-104912500D03*
X67175000Y-103087500D03*
%TD*%
%TO.C,R42*%
X24600000Y-139112500D03*
X24600000Y-137287500D03*
%TD*%
D30*
%TO.C,R15*%
X97487500Y-124100000D03*
X99312500Y-124100000D03*
%TD*%
D53*
%TO.C,D15*%
X53962500Y-107550000D03*
X55712500Y-107550000D03*
%TD*%
D29*
%TO.C,R8*%
X54250000Y-39162500D03*
X54250000Y-37337500D03*
%TD*%
D50*
%TO.C,Q3*%
X104300000Y-64125000D03*
X102300000Y-64125000D03*
X100300000Y-64125000D03*
X98300000Y-64125000D03*
D51*
X101300000Y-69375000D03*
%TD*%
D32*
%TO.C,TP11*%
X87450000Y-97400000D03*
%TD*%
D54*
%TO.C,C3*%
X152900000Y-28087246D03*
D55*
X152900000Y-35587246D03*
%TD*%
D56*
%TO.C,R6*%
X111300000Y-49900000D03*
X111300000Y-44200000D03*
%TD*%
D57*
%TO.C,C5*%
X66837500Y-81050000D03*
X68562500Y-81050000D03*
%TD*%
D29*
%TO.C,R34*%
X67175000Y-101537500D03*
X67175000Y-99712500D03*
%TD*%
D18*
%TO.C,TP27*%
X64050000Y-100050000D03*
%TD*%
D48*
%TO.C,J14*%
X151250000Y-127840000D03*
%TD*%
D37*
%TO.C,U4*%
X34420000Y-112580000D03*
D38*
X34420000Y-110040000D03*
X34420000Y-107500000D03*
X34420000Y-104960000D03*
X34420000Y-102420000D03*
X34420000Y-99880000D03*
X34420000Y-97340000D03*
X34420000Y-94800000D03*
X36960000Y-112580000D03*
X36960000Y-110040000D03*
X36960000Y-107500000D03*
X36960000Y-104960000D03*
X36960000Y-102420000D03*
X36960000Y-99880000D03*
X36960000Y-97340000D03*
X36960000Y-94800000D03*
X39500000Y-112580000D03*
X39500000Y-110040000D03*
X39500000Y-107500000D03*
X39500000Y-104960000D03*
X39500000Y-102420000D03*
X39500000Y-99880000D03*
X39500000Y-97340000D03*
X39500000Y-94800000D03*
X41010000Y-123250000D03*
X38510000Y-123250000D03*
X36010000Y-123250000D03*
X33510000Y-123250000D03*
X41010000Y-126250000D03*
X38510000Y-126250000D03*
X36010000Y-126250000D03*
X33510000Y-126250000D03*
X41010000Y-117750000D03*
X38510000Y-117750000D03*
X36010000Y-117750000D03*
X33510000Y-117750000D03*
X41010000Y-120750000D03*
X38510000Y-120750000D03*
X36010000Y-120750000D03*
X33510000Y-120750000D03*
X41010000Y-86990000D03*
X38510000Y-86990000D03*
X36010000Y-86990000D03*
X33510000Y-86990000D03*
X41010000Y-89990000D03*
X38510000Y-89990000D03*
X36010000Y-89990000D03*
X33510000Y-89990000D03*
X41010000Y-81490000D03*
X38510000Y-81490000D03*
X36010000Y-81490000D03*
X33510000Y-81490000D03*
X41010000Y-84490000D03*
X38510000Y-84490000D03*
X36010000Y-84490000D03*
X33510000Y-84490000D03*
%TD*%
D32*
%TO.C,TP14*%
X111000000Y-31500000D03*
%TD*%
D58*
%TO.C,J6*%
X113150000Y-54300000D03*
X116950000Y-54300000D03*
X113150000Y-55100000D03*
X116950000Y-55100000D03*
X113150000Y-55900000D03*
X116950000Y-55900000D03*
X113150000Y-56700000D03*
X116950000Y-56700000D03*
X113150000Y-57500000D03*
X116950000Y-57500000D03*
X113150000Y-58300000D03*
X116950000Y-58300000D03*
X113150000Y-59100000D03*
X116950000Y-59100000D03*
X113150000Y-59900000D03*
X116950000Y-59900000D03*
X113150000Y-60700000D03*
X116950000Y-60700000D03*
X113150000Y-61500000D03*
X116950000Y-61500000D03*
X113150000Y-62300000D03*
X116950000Y-62300000D03*
X113150000Y-63100000D03*
X116950000Y-63100000D03*
D23*
X142600000Y-69400000D03*
D24*
X142600000Y-69400000D03*
D23*
X142600000Y-38400000D03*
D24*
X142600000Y-38400000D03*
D23*
X87600000Y-69400000D03*
D24*
X87600000Y-69400000D03*
D23*
X87600000Y-38400000D03*
D24*
X87600000Y-38400000D03*
%TD*%
D32*
%TO.C,TP15*%
X169200000Y-171400000D03*
%TD*%
D59*
%TO.C,R4*%
X92425000Y-77500000D03*
X90775000Y-77500000D03*
%TD*%
D18*
%TO.C,TP10*%
X85500000Y-32500000D03*
%TD*%
D52*
%TO.C,J12*%
X19000000Y-161400000D03*
D32*
X19000000Y-156400000D03*
%TD*%
D25*
%TO.C,R41*%
X95500000Y-120700000D03*
X95500000Y-122525000D03*
%TD*%
D46*
%TO.C,D14*%
X86200000Y-85575000D03*
X86200000Y-83825000D03*
%TD*%
D18*
%TO.C,TP8*%
X103100000Y-116800000D03*
%TD*%
D23*
%TO.C,H2*%
X177000000Y-27000000D03*
D24*
X177000000Y-27000000D03*
%TD*%
D23*
%TO.C,H3*%
X177000000Y-170000000D03*
D24*
X177000000Y-170000000D03*
%TD*%
D60*
%TO.C,D9*%
X136100000Y-63575000D03*
X136100000Y-62175000D03*
%TD*%
D48*
%TO.C,J11*%
X174350000Y-43500000D03*
%TD*%
D29*
%TO.C,R7*%
X57500000Y-39162500D03*
X57500000Y-37337500D03*
%TD*%
%TO.C,R10*%
X41900000Y-42712500D03*
X41900000Y-40887500D03*
%TD*%
D41*
%TO.C,C15*%
X49333333Y-37537500D03*
X49333333Y-39262500D03*
%TD*%
%TO.C,CMOSFET3*%
X95300000Y-61712500D03*
X95300000Y-63437500D03*
%TD*%
D61*
%TO.C,Q4*%
X98300000Y-61125000D03*
X100300000Y-61125000D03*
X102300000Y-61125000D03*
X104300000Y-61125000D03*
D62*
X101300000Y-55875000D03*
%TD*%
D63*
%TO.C,D19*%
X148200000Y-82325000D03*
X148200000Y-84075000D03*
%TD*%
D46*
%TO.C,D22*%
X132250000Y-93175000D03*
X132250000Y-91425000D03*
%TD*%
D19*
%TO.C,IC3*%
X69860000Y-93150000D03*
X74940000Y-93150000D03*
D20*
X76845000Y-83850000D03*
X75575000Y-83850000D03*
X74305000Y-83850000D03*
X73035000Y-83850000D03*
X71765000Y-83850000D03*
X70495000Y-83850000D03*
X69225000Y-83850000D03*
X67955000Y-83850000D03*
%TD*%
D32*
%TO.C,TP18*%
X101300000Y-76500000D03*
%TD*%
D45*
%TO.C,D7*%
X58875000Y-139800000D03*
X57125000Y-139800000D03*
%TD*%
D18*
%TO.C,TP7*%
X103200000Y-120500000D03*
%TD*%
D46*
%TO.C,D16*%
X81050000Y-120625000D03*
X81050000Y-118875000D03*
%TD*%
D25*
%TO.C,R32*%
X117900000Y-81387500D03*
X117900000Y-83212500D03*
%TD*%
D29*
%TO.C,R45*%
X49333333Y-42712500D03*
X49333333Y-40887500D03*
%TD*%
D61*
%TO.C,Q2*%
X125800000Y-61100000D03*
X127800000Y-61100000D03*
X129800000Y-61100000D03*
X131800000Y-61100000D03*
D62*
X128800000Y-55850000D03*
%TD*%
D23*
%TO.C,H4*%
X18000000Y-170000000D03*
D24*
X18000000Y-170000000D03*
%TD*%
D30*
%TO.C,R26*%
X88575000Y-33600000D03*
X90400000Y-33600000D03*
%TD*%
D41*
%TO.C,C6*%
X95496828Y-117388207D03*
X95496828Y-119113207D03*
%TD*%
D52*
%TO.C,J9*%
X123950000Y-27900000D03*
D32*
X118950000Y-27900000D03*
%TD*%
%TO.C,TP17*%
X142000000Y-127200000D03*
%TD*%
D23*
%TO.C,H1*%
X18000000Y-27000000D03*
D24*
X18000000Y-27000000D03*
%TD*%
D13*
%TO.C,Q7*%
X98560000Y-97310000D03*
X98560000Y-96040000D03*
X98560000Y-94770000D03*
X98560000Y-93500000D03*
D14*
X92800000Y-93500000D03*
X92800000Y-97310000D03*
D15*
X94400000Y-95405000D03*
D16*
X96215000Y-95405000D03*
D17*
X96880000Y-95405000D03*
%TD*%
D18*
%TO.C,TP16*%
X64050000Y-103700000D03*
%TD*%
D46*
%TO.C,D12*%
X24200000Y-36675000D03*
X24200000Y-34925000D03*
%TD*%
D25*
%TO.C,R33*%
X97050707Y-117338207D03*
X97050707Y-119163207D03*
%TD*%
D26*
%TO.C,D3*%
X142400000Y-83049999D03*
X142400000Y-87349999D03*
%TD*%
D32*
%TO.C,TP22*%
X129400000Y-76500000D03*
%TD*%
D64*
%TO.C,U5*%
X57613911Y-34900002D03*
X57613910Y-30600061D03*
X58413910Y-34900061D03*
X58413910Y-30600000D03*
X59213910Y-34900061D03*
X59213911Y-30600000D03*
X60013910Y-34900061D03*
X60013909Y-30600000D03*
X60813910Y-34900061D03*
X60813910Y-30600000D03*
X61613910Y-34900061D03*
X61613908Y-30600000D03*
X62413910Y-34900061D03*
X62413909Y-30600000D03*
X63213910Y-34900061D03*
X63213910Y-30600000D03*
X64013909Y-34900002D03*
X64013909Y-30600000D03*
X64813909Y-34900002D03*
X64813909Y-30600000D03*
X65613908Y-34900002D03*
X65613908Y-30600000D03*
X66413909Y-34900002D03*
X66413909Y-30600000D03*
X41859933Y-34850002D03*
X41859933Y-30550000D03*
X42659932Y-34850002D03*
X42659932Y-30550000D03*
X43459933Y-34850002D03*
X43459933Y-30550000D03*
X44259931Y-34850002D03*
X44259931Y-30550000D03*
X45059932Y-34850002D03*
X45059932Y-30550000D03*
X45859930Y-34850002D03*
X45859930Y-30550000D03*
X46659931Y-34850002D03*
X46659931Y-30550000D03*
X47459932Y-34850002D03*
X47459932Y-30550000D03*
X48259931Y-34850002D03*
X48259931Y-30550000D03*
X49059931Y-34850002D03*
X49059931Y-30550000D03*
X49859930Y-34850002D03*
X49859930Y-30550000D03*
X50659931Y-34850002D03*
X50659931Y-30550000D03*
%TD*%
D18*
%TO.C,TP5*%
X152500000Y-101833333D03*
%TD*%
D52*
%TO.C,J5*%
X86600000Y-169000000D03*
D32*
X81600000Y-169000000D03*
%TD*%
D30*
%TO.C,R19*%
X53687500Y-139800000D03*
X55512500Y-139800000D03*
%TD*%
D29*
%TO.C,R38*%
X50280000Y-150762500D03*
X50280000Y-148937500D03*
%TD*%
D65*
%TO.C,F1*%
X78000000Y-157960000D03*
X81400000Y-157960000D03*
X78000000Y-148040000D03*
X81400000Y-148040000D03*
%TD*%
D66*
%TO.C,Q8*%
X83840000Y-117080000D03*
X85110000Y-117080000D03*
X86380000Y-117080000D03*
X87650000Y-117080000D03*
D67*
X87650000Y-111320000D03*
X83840000Y-111320000D03*
D68*
X85745000Y-112920000D03*
D69*
X85745000Y-114735000D03*
D70*
X85745000Y-115400000D03*
%TD*%
D18*
%TO.C,TP28*%
X103100000Y-113075000D03*
%TD*%
D30*
%TO.C,R16*%
X53687500Y-141600000D03*
X55512500Y-141600000D03*
%TD*%
D29*
%TO.C,R43*%
X22999491Y-139108827D03*
X22999491Y-137283827D03*
%TD*%
D65*
%TO.C,F3*%
X121950000Y-95360000D03*
X125350000Y-95360000D03*
X121950000Y-85440000D03*
X125350000Y-85440000D03*
%TD*%
D53*
%TO.C,D10*%
X88657500Y-31800000D03*
X90407500Y-31800000D03*
%TD*%
D71*
%TO.C,D11*%
X93700000Y-61900000D03*
X93700000Y-63300000D03*
%TD*%
D36*
%TO.C,R39*%
X103112500Y-106700000D03*
X101287500Y-106700000D03*
%TD*%
D56*
%TO.C,R5*%
X118818020Y-49900000D03*
X118818020Y-44200000D03*
%TD*%
D48*
%TO.C,J10*%
X55200000Y-79500000D03*
%TD*%
D12*
%TO.C,C10*%
X81000000Y-109925000D03*
X81000000Y-108200000D03*
%TD*%
D42*
%TO.C,Q10*%
X38162500Y-39600000D03*
X38162500Y-41500000D03*
X40037500Y-40550000D03*
%TD*%
D72*
%TO.C,J3*%
X149400000Y-169000000D03*
D73*
X142200000Y-169000000D03*
%TD*%
D74*
%TO.C,F2*%
X142400000Y-134670000D03*
X142400000Y-158800000D03*
%TD*%
D46*
%TO.C,D6*%
X18525000Y-36875000D03*
X18525000Y-35125000D03*
%TD*%
D57*
%TO.C,C4*%
X73075000Y-123000000D03*
X74800000Y-123000000D03*
%TD*%
D29*
%TO.C,R35*%
X44333333Y-42712500D03*
X44333333Y-40887500D03*
%TD*%
D30*
%TO.C,R23*%
X34275000Y-43300000D03*
X36100000Y-43300000D03*
%TD*%
D41*
%TO.C,C14*%
X47666666Y-37537500D03*
X47666666Y-39262500D03*
%TD*%
D18*
%TO.C,TP3*%
X26000000Y-103000000D03*
%TD*%
D66*
%TO.C,Q5*%
X87650000Y-120240000D03*
X86380000Y-120240000D03*
X85110000Y-120240000D03*
X83840000Y-120240000D03*
D67*
X83840000Y-126000000D03*
X87650000Y-126000000D03*
D68*
X85745000Y-124400000D03*
D69*
X85745000Y-122585000D03*
D70*
X85745000Y-121920000D03*
%TD*%
D23*
%TO.C,H6*%
X55600000Y-102635110D03*
D24*
X55600000Y-102635110D03*
%TD*%
D41*
%TO.C,C11*%
X44333333Y-37537500D03*
X44333333Y-39262500D03*
%TD*%
D75*
%TO.C,U8*%
X86550000Y-138450000D03*
X82250000Y-138450000D03*
X86550000Y-137650000D03*
X82250000Y-137650000D03*
X86550000Y-136850000D03*
X82250000Y-136850000D03*
X86550000Y-136050000D03*
X82250000Y-136050000D03*
X86550000Y-135250000D03*
X82250000Y-135250000D03*
X86550000Y-134450000D03*
X82250000Y-134450000D03*
X86550000Y-133650000D03*
X82250000Y-133650000D03*
X86550000Y-132850000D03*
X82250000Y-132850000D03*
X86550000Y-132050000D03*
X82250000Y-132050000D03*
X86550000Y-131250000D03*
X82250000Y-131250000D03*
X86550000Y-130450000D03*
X82250000Y-130450000D03*
X86550000Y-129650000D03*
X82250000Y-129650000D03*
D64*
X131950000Y-104200000D03*
X131950000Y-108500000D03*
X131150000Y-104200000D03*
X131150000Y-108500000D03*
X130350000Y-104200000D03*
X130350000Y-108500000D03*
X129550000Y-104200000D03*
X129550000Y-108500000D03*
X128750000Y-104200000D03*
X128750000Y-108500000D03*
X127950000Y-104200000D03*
X127950000Y-108500000D03*
X127150000Y-104200000D03*
X127150000Y-108500000D03*
X126350000Y-104200000D03*
X126350000Y-108500000D03*
X125550000Y-104200000D03*
X125550000Y-108500000D03*
X124750000Y-104200000D03*
X124750000Y-108500000D03*
X123950000Y-104200000D03*
X123950000Y-108500000D03*
X123150000Y-104200000D03*
X123150000Y-108500000D03*
D23*
X93150000Y-126350000D03*
D24*
X93150000Y-126350000D03*
D23*
X133150000Y-141550000D03*
D24*
X133150000Y-141550000D03*
%TD*%
D76*
%TO.C,C2*%
X90912500Y-75225000D03*
X88837500Y-75225000D03*
%TD*%
D29*
%TO.C,R9*%
X47666666Y-42712500D03*
X47666666Y-40887500D03*
%TD*%
D77*
%TO.C,J2*%
X17000000Y-91500000D03*
D22*
X17000000Y-89000000D03*
X17000000Y-86500000D03*
X17000000Y-84000000D03*
%TD*%
D29*
%TO.C,R40*%
X46000000Y-42712500D03*
X46000000Y-40887500D03*
%TD*%
D58*
%TO.C,J1*%
X71000000Y-97300000D03*
X74800000Y-97300000D03*
X71000000Y-98100000D03*
X74800000Y-98100000D03*
X71000000Y-98900000D03*
X74800000Y-98900000D03*
X71000000Y-99700000D03*
X74800000Y-99700000D03*
X71000000Y-100500000D03*
X74800000Y-100500000D03*
X71000000Y-101300000D03*
X74800000Y-101300000D03*
X71000000Y-102100000D03*
X74800000Y-102100000D03*
X71000000Y-102900000D03*
X74800000Y-102900000D03*
X71000000Y-103700000D03*
X74800000Y-103700000D03*
X71000000Y-104500000D03*
X74800000Y-104500000D03*
X71000000Y-105300000D03*
X74800000Y-105300000D03*
X71000000Y-106100000D03*
X74800000Y-106100000D03*
D23*
X64010000Y-109229780D03*
D24*
X64010000Y-109229780D03*
D23*
X98719971Y-86159809D03*
D24*
X98719971Y-86159809D03*
%TD*%
D27*
%TO.C,D4*%
X89050000Y-80700000D03*
X93350000Y-80700000D03*
%TD*%
D78*
%TO.C,IC2*%
X102500000Y-100700000D03*
X102500000Y-101350000D03*
X102500000Y-102000000D03*
X102500000Y-102650000D03*
X104700000Y-102650000D03*
X104700000Y-102000000D03*
X104700000Y-101350000D03*
X104700000Y-100700000D03*
%TD*%
D36*
%TO.C,R25*%
X109400000Y-25600000D03*
X107575000Y-25600000D03*
%TD*%
D12*
%TO.C,C7*%
X99700000Y-106762500D03*
X99700000Y-105037500D03*
%TD*%
M02*
