M48
; DRILL file {KiCad 9.0.6} date 2026-01-13T22:37:12-0600
; FORMAT={-:-/ absolute / inch / decimal}
; #@! TF.CreationDate,2026-01-13T22:37:12-06:00
; #@! TF.GenerationSoftware,Kicad,Pcbnew,9.0.6
; #@! TF.FileFunction,Plated,1,2,PTH
FMAT,2
INCH
; #@! TA.AperFunction,Plated,PTH,ViaDrill
T1C0.0118
; #@! TA.AperFunction,Plated,PTH,ComponentDrill
T2C0.0394
; #@! TA.AperFunction,Plated,PTH,ComponentDrill
T3C0.0402
; #@! TA.AperFunction,Plated,PTH,ComponentDrill
T4C0.0472
; #@! TA.AperFunction,Plated,PTH,ComponentDrill
T5C0.0550
; #@! TA.AperFunction,Plated,PTH,ComponentDrill
T6C0.0591
; #@! TA.AperFunction,Plated,PTH,ComponentDrill
T7C0.0630
; #@! TA.AperFunction,Plated,PTH,ComponentDrill
T8C0.0709
; #@! TA.AperFunction,Plated,PTH,ComponentDrill
T9C0.1260
; #@! TA.AperFunction,Plated,PTH,ComponentDrill
T10C0.1772
; #@! TA.AperFunction,Plated,PTH,ComponentDrill
T11C0.2130
%
G90
G05
T1
X0.6378Y-4.8898
X0.6378Y-4.9606
X0.6378Y-5.2756
X0.6378Y-5.3543
X0.685Y-4.8898
X0.685Y-4.9606
X0.685Y-5.2756
X0.685Y-5.3543
X0.7323Y-4.8898
X0.7323Y-4.9606
X0.7323Y-5.2756
X0.7323Y-5.3543
X0.7795Y-4.8898
X0.7795Y-4.9606
X0.7795Y-5.2756
X0.7795Y-5.3543
X0.8268Y-3.1201
X0.8268Y-4.8898
X0.8268Y-4.9606
X0.8268Y-5.2756
X0.8268Y-5.3543
X0.9124Y-3.3858
X0.9232Y-1.1447
X0.9616Y-3.3858
X1.1161Y-0.9498
X1.1171Y-1.0128
X1.1949Y-0.9498
X1.1959Y-1.0128
X1.2736Y-0.9498
X1.2746Y-1.0128
X1.2992Y-1.6358
X1.315Y-5.4173
X1.3189Y-3.1122
X1.3209Y-3.0335
X1.3219Y-2.9606
X1.4173Y-3.1122
X1.4193Y-3.0335
X1.4203Y-2.9606
X1.5148Y-3.1122
X1.5167Y-3.0335
X1.5177Y-2.9606
X1.5758Y-1.6575
X1.6142Y-1.2047
X1.6152Y-3.1122
X1.6171Y-3.0335
X1.6181Y-2.9606
X1.648Y-1.1457
X1.648Y-1.4291
X1.6496Y-1.5591
X1.6514Y-1.6486
X1.6693Y-1.4646
X1.6693Y-1.5118
X1.6791Y-1.5787
X1.6795Y-1.1457
X1.6795Y-1.4291
X1.685Y-1.8543
X1.7008Y-1.2776
X1.711Y-1.4291
X1.711Y-1.1457
X1.7483Y-1.5554
X1.811Y-1.5458
X1.8366Y-1.2805
X1.837Y-1.1457
X1.8583Y-4.8425
X1.8611Y-4.9685
X1.8766Y-1.5458
X1.9117Y-4.8425
X1.9145Y-4.9685
X1.9449Y-1.5472
X1.9651Y-4.8425
X1.9672Y-1.3119
X1.9679Y-4.9685
X1.9935Y-1.3355
X2.0186Y-4.8425
X2.0214Y-4.9685
X2.072Y-4.8425
X2.0723Y-4.2343
X2.0748Y-4.9685
X2.0881Y-1.2991
X2.1063Y-1.3287
X2.1254Y-4.8425
X2.127Y-1.7352
X2.1282Y-4.9685
X2.1299Y-2.0522
X2.1358Y-1.6142
X2.1789Y-4.8425
X2.1817Y-4.9685
X2.1895Y-1.7352
X2.1924Y-2.0522
X2.2303Y-4.8435
X2.2351Y-4.9685
X2.2417Y-1.2899
X2.252Y-1.7352
X2.2539Y-1.6142
X2.2549Y-2.0522
X2.2857Y-4.8425
X2.2885Y-4.9685
X2.2948Y-1.3189
X2.3071Y-1.2899
X2.3145Y-1.7352
X2.3174Y-2.0522
X2.3179Y-5.4488
X2.3329Y-1.4291
X2.3391Y-4.8425
X2.342Y-4.9685
X2.3701Y-5.4646
X2.377Y-1.7352
X2.3799Y-2.0522
X2.3819Y-1.4384
X2.3917Y-1.2598
X2.3926Y-4.8425
X2.3954Y-4.9685
X2.4173Y-5.4173
X2.4213Y-1.5551
X2.4232Y-1.2598
X2.446Y-4.8425
X2.4488Y-4.9685
X2.4528Y-1.6339
X2.4843Y-1.6732
X2.4887Y-1.1417
X2.4994Y-4.8425
X2.5022Y-4.9685
X2.5197Y-1.6732
X2.5202Y-1.1417
X2.5217Y-3.939
X2.5217Y-4.0827
X2.5473Y-1.3189
X2.5529Y-4.8425
X2.5557Y-4.9685
X2.5591Y-1.1417
X2.6063Y-4.8425
X2.6091Y-4.9685
X2.6102Y-1.4331
X2.6315Y-3.1268
X2.6782Y-3.1486
X2.6821Y-3.9695
X2.7244Y-4.8346
X2.7254Y-3.3642
X2.7323Y-4.6535
X2.7329Y-4.8031
X2.7362Y-3.8307
X2.7382Y-3.8622
X2.7402Y-3.9124
X2.7461Y-4.0591
X2.7577Y-3.2361
X2.7854Y-0.9567
X2.7864Y-1.0197
X2.7953Y-1.2205
X2.7953Y-1.2992
X2.7953Y-1.378
X2.7953Y-1.4567
X2.7953Y-1.5354
X2.7953Y-3.7933
X2.8287Y-3.3957
X2.8392Y-4.0124
X2.8642Y-0.9567
X2.8652Y-1.0197
X2.874Y-1.2205
X2.874Y-1.2992
X2.874Y-1.378
X2.874Y-1.4567
X2.874Y-1.5354
X2.874Y-1.6142
X2.878Y-3.3622
X2.8799Y-4.2865
X2.8858Y-4.6654
X2.8927Y-3.9961
X2.8928Y-3.8437
X2.8937Y-3.9252
X2.8957Y-3.8938
X2.8966Y-4.066
X2.8976Y-3.0689
X2.9055Y-5.0236
X2.9213Y-4.9213
X2.937Y-5.0236
X2.9429Y-0.9567
X2.9439Y-1.0197
X2.9449Y-3.0108
X2.9528Y-1.2205
X2.9528Y-1.2992
X2.9528Y-1.378
X2.9528Y-1.4567
X2.9528Y-1.5354
X2.9528Y-1.6142
X2.9528Y-1.6929
X2.9528Y-4.9311
X2.9751Y-3.0196
X3.0Y-3.0433
X3.0079Y-3.9508
X3.0153Y-4.8282
X3.0219Y-3.5473
X3.0236Y-3.373
X3.0315Y-1.4567
X3.0315Y-1.5354
X3.0315Y-1.6142
X3.0315Y-1.6929
X3.0315Y-1.7717
X3.0315Y-3.0591
X3.036Y-3.9649
X3.0534Y-3.5468
X3.0673Y-3.9688
X3.0849Y-3.5473
X3.0925Y-4.1969
X3.0945Y-4.1516
X3.0988Y-3.9685
X3.1077Y-3.5832
X3.1102Y-1.4567
X3.1102Y-1.5354
X3.1102Y-1.6142
X3.1102Y-1.6929
X3.1102Y-1.7717
X3.1102Y-1.8504
X3.1367Y-3.315
X3.1367Y-3.5709
X3.1367Y-4.7669
X3.1658Y-3.5829
X3.1693Y-4.813
X3.187Y-4.1516
X3.187Y-4.2047
X3.189Y-1.4567
X3.189Y-1.5354
X3.189Y-1.6142
X3.189Y-1.6929
X3.189Y-1.7717
X3.189Y-1.8504
X3.189Y-1.9291
X3.189Y-5.1378
X3.189Y-5.1772
X3.1929Y-4.0591
X3.197Y-3.5787
X3.2204Y-4.0433
X3.2283Y-5.0591
X3.2283Y-3.5827
X3.2362Y-4.0136
X3.2402Y-4.7717
X3.2598Y-3.5787
X3.2677Y-4.0234
X3.2677Y-1.6929
X3.2677Y-1.7717
X3.2677Y-1.8504
X3.2677Y-1.9291
X3.2677Y-2.0079
X3.2677Y-5.0591
X3.2913Y-3.5945
X3.2917Y-4.0438
X3.3008Y-4.7339
X3.3071Y-5.0591
X3.3071Y-5.0984
X3.3071Y-5.1378
X3.3071Y-5.1772
X3.3228Y-4.0394
X3.3228Y-3.5945
X3.3465Y-1.7717
X3.3465Y-1.8504
X3.3465Y-1.9291
X3.3465Y-2.0079
X3.3465Y-2.0866
X3.3465Y-5.0591
X3.3465Y-5.0984
X3.3465Y-5.1378
X3.3465Y-5.1772
X3.3661Y-1.2795
X3.3858Y-5.0591
X3.3898Y-4.0738
X3.4252Y-1.7717
X3.4252Y-1.8504
X3.4252Y-1.9291
X3.4252Y-2.0079
X3.4252Y-2.0866
X3.4252Y-5.0591
X3.439Y-3.3612
X3.4508Y-4.6094
X3.4567Y-5.1673
X3.4567Y-5.1988
X3.4567Y-5.2303
X3.4567Y-5.2618
X3.4567Y-5.2933
X3.4567Y-5.3248
X3.4646Y-5.0591
X3.4646Y-5.0984
X3.4882Y-1.1969
X3.5031Y-3.0201
X3.5039Y-1.7717
X3.5039Y-1.8504
X3.5039Y-1.9291
X3.5039Y-2.0079
X3.5039Y-2.0866
X3.5039Y-3.9882
X3.5039Y-4.1339
X3.5039Y-4.4114
X3.5354Y-4.4488
X3.5394Y-4.7835
X3.5551Y-4.7244
X3.5591Y-4.4841
X3.5699Y-3.3612
X3.5827Y-1.7717
X3.5827Y-1.8504
X3.5827Y-1.9291
X3.5827Y-2.0079
X3.5827Y-2.0866
X3.5906Y-4.4843
X3.5906Y-3.9882
X3.5906Y-4.1339
X3.5906Y-4.2008
X3.6142Y-4.4488
X3.6161Y-4.7598
X3.6456Y-4.4466
X3.6654Y-4.6732
X3.677Y-4.4445
X3.6772Y-3.9882
X3.6772Y-4.1339
X3.6772Y-4.2008
X3.6772Y-4.2677
X3.6939Y-3.3612
X3.7205Y-2.0276
X3.7205Y-2.5984
X3.7372Y-4.436
X3.7598Y-2.142
X3.7598Y-2.0463
X3.7598Y-2.0778
X3.7598Y-2.1093
X3.7598Y-2.1787
X3.7598Y-2.2126
X3.7598Y-2.2441
X3.7598Y-2.2756
X3.7598Y-2.3071
X3.7598Y-2.3425
X3.7638Y-3.9882
X3.7638Y-4.1339
X3.7638Y-4.2008
X3.7638Y-4.2677
X3.7638Y-4.3346
X3.7795Y-1.1417
X3.7795Y-1.2205
X3.7795Y-1.2992
X3.7795Y-1.378
X3.7795Y-1.4567
X3.7795Y-1.5354
X3.7795Y-1.6142
X3.7795Y-1.6929
X3.7795Y-1.7717
X3.7795Y-1.8504
X3.8504Y-3.9882
X3.8504Y-4.1339
X3.8504Y-4.2008
X3.8504Y-4.2677
X3.8504Y-4.3346
X3.8583Y-1.1417
X3.8583Y-1.2205
X3.8583Y-1.2992
X3.8583Y-1.378
X3.8583Y-1.4567
X3.8583Y-1.5354
X3.8583Y-1.6142
X3.8583Y-1.6929
X3.8583Y-1.7717
X3.8583Y-1.8504
X3.8701Y-2.4065
X3.8803Y-3.6811
X3.937Y-1.1417
X3.937Y-1.2205
X3.937Y-1.2992
X3.937Y-1.378
X3.937Y-1.4567
X3.937Y-1.5354
X3.937Y-1.6142
X3.937Y-1.6929
X3.937Y-1.7717
X3.937Y-1.8504
X3.9843Y-4.8858
X3.9843Y-4.9449
X4.001Y-3.9891
X4.0047Y-3.8311
X4.0157Y-1.1417
X4.0157Y-1.2205
X4.0157Y-1.2992
X4.0157Y-1.378
X4.0157Y-1.4567
X4.0157Y-1.5354
X4.0157Y-1.6142
X4.0157Y-1.6929
X4.0157Y-1.7717
X4.0157Y-1.8504
X4.0236Y-1.0079
X4.0591Y-4.4508
X4.0591Y-4.5984
X4.063Y-4.7441
X4.0709Y-3.4488
X4.0945Y-1.1417
X4.0945Y-1.2205
X4.0945Y-1.2992
X4.0945Y-1.378
X4.0945Y-1.4567
X4.0945Y-1.5354
X4.0945Y-1.6142
X4.0945Y-1.6929
X4.0945Y-1.7717
X4.0945Y-1.8504
X4.1063Y-2.5246
X4.1732Y-1.1417
X4.1732Y-1.2205
X4.1732Y-1.2992
X4.1732Y-1.378
X4.1732Y-1.4567
X4.1732Y-1.5354
X4.1732Y-1.6142
X4.1732Y-1.6929
X4.1732Y-1.7717
X4.1732Y-1.8504
X4.2047Y-2.4213
X4.2323Y-2.1693
X4.2323Y-2.2008
X4.2323Y-2.2323
X4.2323Y-2.2638
X4.2323Y-2.2953
X4.2323Y-2.3268
X4.252Y-1.1417
X4.252Y-1.2205
X4.252Y-1.2992
X4.252Y-1.378
X4.252Y-1.4567
X4.252Y-1.5354
X4.252Y-1.6142
X4.252Y-1.6929
X4.252Y-1.7717
X4.252Y-1.8504
X4.252Y-2.4961
X4.252Y-2.5354
X4.2913Y-2.4409
X4.2992Y-2.4961
X4.2992Y-2.5354
X4.3504Y-2.4606
X4.3622Y-2.3543
X4.3898Y-2.3268
X4.3937Y-2.1102
X4.4173Y-2.5354
X4.4547Y-2.1083
X4.5197Y-2.5354
X4.6417Y-3.4606
X4.6575Y-2.3268
X4.6614Y-2.1378
X4.6614Y-2.1693
X4.6614Y-2.2008
X4.6614Y-2.2323
X4.6614Y-2.2638
X4.6614Y-2.2953
X4.7008Y-2.3583
X4.7303Y-2.4508
X4.7402Y-2.1024
X4.7402Y-2.1811
X4.7402Y-2.2598
X4.7402Y-2.3386
X4.8189Y-2.1024
X4.8189Y-2.1811
X4.8189Y-2.2598
X4.8189Y-2.3386
X4.8189Y-2.5197
X4.9528Y-2.4055
X5.189Y-2.5236
X5.2165Y-3.878
X5.2165Y-3.937
X5.2165Y-3.9961
X5.2165Y-4.4055
X5.2953Y-2.5394
X5.315Y-3.878
X5.315Y-3.937
X5.315Y-3.9961
X5.315Y-4.0551
X5.315Y-4.1142
X5.315Y-4.1732
X5.315Y-4.2323
X5.315Y-4.2913
X5.315Y-4.3504
X5.315Y-4.4055
X6.2098Y-2.5193
X6.2098Y-2.5854
X6.2098Y-2.6516
X6.2098Y-2.7177
X6.2752Y-2.6528
X6.2753Y-2.7177
X6.2764Y-2.5858
X6.2772Y-2.5185
X6.3406Y-2.6528
X6.3407Y-2.7177
X6.3418Y-2.5858
X6.3426Y-2.5185
X6.4061Y-2.6528
X6.4061Y-2.7177
X6.4072Y-2.5858
X6.408Y-2.5185
X6.4715Y-2.6528
X6.4716Y-2.7177
X6.4727Y-2.5858
X6.4735Y-2.5185
X6.5369Y-2.6528
X6.537Y-2.7177
X6.5381Y-2.5858
X6.5389Y-2.5185
X6.6024Y-2.6528
X6.6024Y-2.7177
X6.6035Y-2.5858
X6.6043Y-2.5185
X6.6678Y-2.6528
X6.6679Y-2.7177
X6.669Y-2.5858
X6.6698Y-2.5185
X6.7332Y-2.6528
X6.7333Y-2.7177
X6.7344Y-2.5858
X6.7352Y-2.5185
X6.7987Y-2.6528
X6.7987Y-2.7177
X6.7998Y-2.5858
X6.8006Y-2.5185
X6.8641Y-2.6528
X6.8642Y-2.7177
X6.8653Y-2.5858
X6.8661Y-2.5185
X7.064Y-3.8179
X7.064Y-3.877
X7.064Y-3.936
X7.064Y-3.9951
X7.064Y-4.0541
X7.064Y-4.1132
X7.064Y-4.1722
X7.064Y-4.2313
X7.064Y-4.2904
X7.064Y-4.3494
X7.064Y-4.4085
X7.064Y-4.4675
T2
X1.1583Y-5.5191
X1.2583Y-5.5191
X1.3583Y-5.5191
X3.0913Y-2.9685
X3.1913Y-2.9685
X3.2913Y-2.9685
X3.3913Y-2.9685
T3
X1.3193Y-3.2083
X1.3193Y-3.3264
X1.3193Y-3.4248
X1.3193Y-3.5429
X1.3193Y-4.6358
X1.3193Y-4.7539
X1.3193Y-4.8524
X1.3193Y-4.9705
X1.3551Y-3.7323
X1.3551Y-3.8323
X1.3551Y-3.9323
X1.3551Y-4.0323
X1.3551Y-4.1323
X1.3551Y-4.2323
X1.3551Y-4.3323
X1.3551Y-4.4323
X1.4177Y-3.2083
X1.4177Y-3.3264
X1.4177Y-3.4248
X1.4177Y-3.5429
X1.4177Y-4.6358
X1.4177Y-4.7539
X1.4177Y-4.8524
X1.4177Y-4.9705
X1.4551Y-3.7323
X1.4551Y-3.8323
X1.4551Y-3.9323
X1.4551Y-4.0323
X1.4551Y-4.1323
X1.4551Y-4.2323
X1.4551Y-4.3323
X1.4551Y-4.4323
X1.5161Y-3.2083
X1.5161Y-3.3264
X1.5161Y-3.4248
X1.5161Y-3.5429
X1.5161Y-4.6358
X1.5161Y-4.7539
X1.5161Y-4.8524
X1.5161Y-4.9705
X1.5551Y-3.7323
X1.5551Y-3.8323
X1.5551Y-3.9323
X1.5551Y-4.0323
X1.5551Y-4.1323
X1.5551Y-4.2323
X1.5551Y-4.3323
X1.5551Y-4.4323
X1.6146Y-3.2083
X1.6146Y-3.3264
X1.6146Y-3.4248
X1.6146Y-3.5429
X1.6146Y-4.6358
X1.6146Y-4.7539
X1.6146Y-4.8524
X1.6146Y-4.9705
X6.4094Y-3.2102
X6.4094Y-3.3283
X6.4094Y-3.4268
X6.4094Y-3.5449
X6.4094Y-4.6378
X6.4094Y-4.7559
X6.4094Y-4.8543
X6.4094Y-4.9724
X6.4453Y-3.7343
X6.4453Y-3.8343
X6.4453Y-3.9343
X6.4453Y-4.0343
X6.4453Y-4.1343
X6.4453Y-4.2343
X6.4453Y-4.3343
X6.4453Y-4.4343
X6.5079Y-3.2102
X6.5079Y-3.3283
X6.5079Y-3.4268
X6.5079Y-3.5449
X6.5079Y-4.6378
X6.5079Y-4.7559
X6.5079Y-4.8543
X6.5079Y-4.9724
X6.5453Y-3.7343
X6.5453Y-3.8343
X6.5453Y-3.9343
X6.5453Y-4.0343
X6.5453Y-4.1343
X6.5453Y-4.2343
X6.5453Y-4.3343
X6.5453Y-4.4343
X6.6063Y-3.2102
X6.6063Y-3.3283
X6.6063Y-3.4268
X6.6063Y-3.5449
X6.6063Y-4.6378
X6.6063Y-4.7559
X6.6063Y-4.8543
X6.6063Y-4.9724
X6.6453Y-3.7343
X6.6453Y-3.8343
X6.6453Y-3.9343
X6.6453Y-4.0343
X6.6453Y-4.1343
X6.6453Y-4.2343
X6.6453Y-4.3343
X6.6453Y-4.4343
X6.7047Y-3.2102
X6.7047Y-3.3283
X6.7047Y-3.4268
X6.7047Y-3.5449
X6.7047Y-4.6378
X6.7047Y-4.7559
X6.7047Y-4.8543
X6.7047Y-4.9724
T4
X0.6693Y-3.3071
X0.6693Y-3.4055
X0.6693Y-3.5039
X0.6693Y-3.6024
X0.672Y-2.815
X0.672Y-2.9134
X6.0197Y-1.1058
X6.0197Y-1.4011
T5
X5.6063Y-5.302
X5.6063Y-6.252
T6
X2.2638Y-3.4921
X2.3268Y-5.3307
X2.5315Y-5.3307
X2.8661Y-5.7638
X3.4429Y-3.8346
X3.9882Y-3.0118
X4.3701Y-1.2402
X5.0945Y-3.0118
X5.0984Y-3.7992
X5.5906Y-5.0079
X6.6614Y-6.748
T7
X0.6909Y-1.8937
X0.6929Y-1.6673
X3.0709Y-5.8283
X3.0709Y-6.2189
X3.2047Y-5.8283
X3.2047Y-6.2189
X4.8012Y-3.3638
X4.8012Y-3.7543
X4.935Y-3.3638
X4.935Y-3.7543
T8
X0.748Y-6.1575
X0.748Y-6.3543
X3.2126Y-6.6535
X3.4094Y-6.6535
X4.2441Y-6.6535
X4.4409Y-6.6535
X4.6831Y-1.0984
X4.8799Y-1.0984
T9
X0.7087Y-1.063
X0.7087Y-6.6929
X2.189Y-4.0408
X2.5201Y-4.3004
X3.4488Y-1.5118
X3.4488Y-2.7323
X3.6673Y-4.9744
X3.8866Y-3.3921
X4.5157Y-3.0236
X5.2421Y-5.5728
X5.6142Y-1.5118
X5.6142Y-2.7323
X6.9685Y-1.063
X6.9685Y-6.6929
T10
X5.5984Y-6.6535
X5.8819Y-6.6535
T11
X0.7634Y-5.7224
X2.1732Y-3.1299
X5.9547Y-5.0331
X6.0748Y-6.1315
X6.8642Y-1.7126
M30
