%TF.GenerationSoftware,KiCad,Pcbnew,9.0.0*%
%TF.CreationDate,2026-01-14T19:04:19-06:00*%
%TF.ProjectId,SuppChargerTester,53757070-4368-4617-9267-657254657374,rev?*%
%TF.SameCoordinates,Original*%
%TF.FileFunction,Soldermask,Top*%
%TF.FilePolarity,Negative*%
%FSLAX46Y46*%
G04 Gerber Fmt 4.6, Leading zero omitted, Abs format (unit mm)*
G04 Created by KiCad (PCBNEW 9.0.0) date 2026-01-14 19:04:19*
%MOMM*%
%LPD*%
G01*
G04 APERTURE LIST*
G04 Aperture macros list*
%AMRoundRect*
0 Rectangle with rounded corners*
0 $1 Rounding radius*
0 $2 $3 $4 $5 $6 $7 $8 $9 X,Y pos of 4 corners*
0 Add a 4 corners polygon primitive as box body*
4,1,4,$2,$3,$4,$5,$6,$7,$8,$9,$2,$3,0*
0 Add four circle primitives for the rounded corners*
1,1,$1+$1,$2,$3*
1,1,$1+$1,$4,$5*
1,1,$1+$1,$6,$7*
1,1,$1+$1,$8,$9*
0 Add four rect primitives between the rounded corners*
20,1,$1+$1,$2,$3,$4,$5,0*
20,1,$1+$1,$4,$5,$6,$7,0*
20,1,$1+$1,$6,$7,$8,$9,0*
20,1,$1+$1,$8,$9,$2,$3,0*%
G04 Aperture macros list end*
%ADD10C,0.000000*%
%ADD11C,0.010000*%
%ADD12C,8.115000*%
%ADD13R,0.550000X1.800000*%
%ADD14C,3.600000*%
%ADD15C,6.400000*%
%ADD16RoundRect,0.102000X2.115000X1.200000X-2.115000X1.200000X-2.115000X-1.200000X2.115000X-1.200000X0*%
%ADD17R,1.700000X1.700000*%
%ADD18O,1.700000X1.700000*%
%ADD19C,1.524000*%
%ADD20R,3.000000X3.000000*%
%ADD21C,3.000000*%
%ADD22R,1.800000X0.550000*%
G04 APERTURE END LIST*
D10*
%TO.C,LOGO2*%
G36*
X172469610Y-84189405D02*
G01*
X172469610Y-85525718D01*
X171071098Y-85512322D01*
X169672586Y-85498925D01*
X169672586Y-85221743D01*
X169672586Y-84944560D01*
X170806515Y-84919362D01*
X171940443Y-84894163D01*
X171954086Y-83873628D01*
X171967729Y-82853092D01*
X172218669Y-82853092D01*
X172469610Y-82853092D01*
X172469610Y-84189405D01*
G37*
G36*
X170546594Y-72835434D02*
G01*
X170546594Y-73616585D01*
X170798578Y-73616585D01*
X171050562Y-73616585D01*
X171050562Y-72835434D01*
X171050562Y-72054283D01*
X171756118Y-72054283D01*
X172461673Y-72054283D01*
X172461673Y-73062220D01*
X172461673Y-74070156D01*
X172234888Y-74070156D01*
X172008102Y-74070156D01*
X172008102Y-73289005D01*
X172008102Y-72507855D01*
X171756118Y-72507855D01*
X171504134Y-72507855D01*
X171504134Y-73289005D01*
X171504134Y-74070156D01*
X170798578Y-74070156D01*
X170093023Y-74070156D01*
X170093023Y-73062220D01*
X170093023Y-72054283D01*
X170319808Y-72054283D01*
X170546594Y-72054283D01*
X170546594Y-72835434D01*
G37*
G36*
X172469610Y-79146478D02*
G01*
X172469610Y-79473204D01*
X171902646Y-79487453D01*
X171335681Y-79501703D01*
X171322104Y-80596174D01*
X171308526Y-81690646D01*
X171876469Y-81704905D01*
X172444411Y-81719163D01*
X172459436Y-82034945D01*
X172474461Y-82350727D01*
X171073524Y-82337326D01*
X169672586Y-82323925D01*
X169657635Y-82067465D01*
X169662471Y-81868366D01*
X169705030Y-81759793D01*
X169710854Y-81754428D01*
X169788183Y-81728881D01*
X169940853Y-81706105D01*
X170143411Y-81689280D01*
X170280171Y-81683309D01*
X170781316Y-81668767D01*
X170781316Y-80585235D01*
X170781316Y-79501703D01*
X170240084Y-79487404D01*
X169982165Y-79478095D01*
X169809389Y-79458385D01*
X169706119Y-79416375D01*
X169656715Y-79340166D01*
X169645540Y-79217858D01*
X169656480Y-79043328D01*
X169672586Y-78846544D01*
X171071098Y-78833148D01*
X172469610Y-78819752D01*
X172469610Y-79146478D01*
G37*
G36*
X170813415Y-74627968D02*
G01*
X171021958Y-74678461D01*
X171182576Y-74748734D01*
X171237770Y-74792785D01*
X171303686Y-74857026D01*
X171355992Y-74856859D01*
X171436182Y-74789868D01*
X171445995Y-74780657D01*
X171520961Y-74724593D01*
X171618385Y-74687926D01*
X171763244Y-74664840D01*
X171980515Y-74649522D01*
X172017039Y-74647718D01*
X172469610Y-74626080D01*
X172469610Y-74959824D01*
X172469610Y-75293568D01*
X172174025Y-75293568D01*
X171967323Y-75305814D01*
X171823961Y-75348258D01*
X171745652Y-75398020D01*
X171612864Y-75502471D01*
X171612864Y-76456353D01*
X171612864Y-77410235D01*
X172041237Y-77410235D01*
X172469610Y-77410235D01*
X172469610Y-77737814D01*
X172469610Y-78065394D01*
X171084657Y-78065394D01*
X170621726Y-78065394D01*
X169699705Y-78065394D01*
X169668119Y-77939548D01*
X169660336Y-77856392D01*
X169654760Y-77687351D01*
X169651513Y-77447309D01*
X169650716Y-77151152D01*
X169652490Y-76813767D01*
X169656334Y-76490639D01*
X169656919Y-76458278D01*
X170201753Y-76458278D01*
X170201753Y-77410235D01*
X170621726Y-77410235D01*
X170819263Y-77405968D01*
X170976984Y-77394614D01*
X171068622Y-77378340D01*
X171079709Y-77372437D01*
X171090809Y-77312337D01*
X171098814Y-77167912D01*
X171103371Y-76955592D01*
X171104129Y-76691811D01*
X171100736Y-76392998D01*
X171100708Y-76391437D01*
X171093617Y-76054674D01*
X171085220Y-75804191D01*
X171074014Y-75625475D01*
X171058495Y-75504015D01*
X171037161Y-75425297D01*
X171008507Y-75374807D01*
X170993703Y-75358303D01*
X170875572Y-75292961D01*
X170684107Y-75268749D01*
X170649072Y-75268370D01*
X170479739Y-75278365D01*
X170372806Y-75316746D01*
X170298094Y-75387346D01*
X170264156Y-75437436D01*
X170239211Y-75501733D01*
X170221897Y-75595342D01*
X170210857Y-75733368D01*
X170204733Y-75930916D01*
X170202164Y-76203092D01*
X170201753Y-76458278D01*
X169656919Y-76458278D01*
X169664803Y-76022431D01*
X169677479Y-75644501D01*
X169698466Y-75346333D01*
X169731867Y-75117412D01*
X169781788Y-74947222D01*
X169852331Y-74825248D01*
X169947602Y-74740974D01*
X170071704Y-74683884D01*
X170228742Y-74643463D01*
X170388466Y-74614804D01*
X170590924Y-74604375D01*
X170813415Y-74627968D01*
G37*
D11*
%TO.C,R1*%
X179630000Y-127190000D02*
X186130000Y-127190000D01*
X186130000Y-135390000D01*
X179630000Y-135390000D01*
X179630000Y-136890000D01*
X175410000Y-136890000D01*
X175410000Y-125690000D01*
X179630000Y-125690000D01*
X179630000Y-127190000D01*
G36*
X179630000Y-127190000D02*
G01*
X186130000Y-127190000D01*
X186130000Y-135390000D01*
X179630000Y-135390000D01*
X179630000Y-136890000D01*
X175410000Y-136890000D01*
X175410000Y-125690000D01*
X179630000Y-125690000D01*
X179630000Y-127190000D01*
G37*
%TD*%
D12*
%TO.C,J1*%
X240800000Y-89650000D03*
%TD*%
D13*
%TO.C,U3*%
X208433911Y-74760002D03*
X208433910Y-70460061D03*
X209233910Y-74760061D03*
X209233910Y-70460000D03*
X210033910Y-74760061D03*
X210033911Y-70460000D03*
X210833910Y-74760061D03*
X210833909Y-70460000D03*
X211633910Y-74760061D03*
X211633910Y-70460000D03*
X212433910Y-74760061D03*
X212433908Y-70460000D03*
X213233910Y-74760061D03*
X213233909Y-70460000D03*
X214033910Y-74760061D03*
X214033910Y-70460000D03*
X214833909Y-74760002D03*
X214833909Y-70460000D03*
X215633909Y-74760002D03*
X215633909Y-70460000D03*
X216433908Y-74760002D03*
X216433908Y-70460000D03*
X217233909Y-74760002D03*
X217233909Y-70460000D03*
X192679933Y-74710002D03*
X192679933Y-70410000D03*
X193479932Y-74710002D03*
X193479932Y-70410000D03*
X194279933Y-74710002D03*
X194279933Y-70410000D03*
X195079931Y-74710002D03*
X195079931Y-70410000D03*
X195879932Y-74710002D03*
X195879932Y-70410000D03*
X196679930Y-74710002D03*
X196679930Y-70410000D03*
X197479931Y-74710002D03*
X197479931Y-70410000D03*
X198279932Y-74710002D03*
X198279932Y-70410000D03*
X199079931Y-74710002D03*
X199079931Y-70410000D03*
X199879931Y-74710002D03*
X199879931Y-70410000D03*
X200679930Y-74710002D03*
X200679930Y-70410000D03*
X201479931Y-74710002D03*
X201479931Y-70410000D03*
%TD*%
D14*
%TO.C,H1*%
X165780000Y-140350000D03*
D15*
X165780000Y-140350000D03*
%TD*%
D14*
%TO.C,H2*%
X253050000Y-68610000D03*
D15*
X253050000Y-68610000D03*
%TD*%
D16*
%TO.C,R1*%
X190395000Y-133830000D03*
X190395000Y-128750000D03*
%TD*%
D17*
%TO.C,J4*%
X211750000Y-113440000D03*
D18*
X214290000Y-113440000D03*
%TD*%
D19*
%TO.C,J3*%
X171620000Y-91180000D03*
X169080000Y-91180000D03*
X171620000Y-93720000D03*
X169080000Y-93720000D03*
X171620000Y-96260000D03*
X169080000Y-96260000D03*
X171620000Y-98800000D03*
X169080000Y-98800000D03*
X171620000Y-101340000D03*
X169080000Y-101340000D03*
%TD*%
D17*
%TO.C,J5*%
X170930000Y-120010000D03*
D18*
X170930000Y-122550000D03*
%TD*%
D12*
%TO.C,J2*%
X168483809Y-112500000D03*
%TD*%
D20*
%TO.C,J6*%
X188900000Y-140400000D03*
D21*
X183900000Y-140400000D03*
%TD*%
D22*
%TO.C,U1*%
X204230000Y-135580000D03*
X199930000Y-135580000D03*
X204230000Y-134780000D03*
X199930000Y-134780000D03*
X204230000Y-133980000D03*
X199930000Y-133980000D03*
X204230000Y-133180000D03*
X199930000Y-133180000D03*
X204230000Y-132380000D03*
X199930000Y-132380000D03*
X204230000Y-131580000D03*
X199930000Y-131580000D03*
X204230000Y-130780000D03*
X199930000Y-130780000D03*
X204230000Y-129980000D03*
X199930000Y-129980000D03*
X204230000Y-129180000D03*
X199930000Y-129180000D03*
X204230000Y-128380000D03*
X199930000Y-128380000D03*
X204230000Y-127580000D03*
X199930000Y-127580000D03*
X204230000Y-126780000D03*
X199930000Y-126780000D03*
D13*
X249630000Y-101330000D03*
X249630000Y-105630000D03*
X248830000Y-101330000D03*
X248830000Y-105630000D03*
X248030000Y-101330000D03*
X248030000Y-105630000D03*
X247230000Y-101330000D03*
X247230000Y-105630000D03*
X246430000Y-101330000D03*
X246430000Y-105630000D03*
X245630000Y-101330000D03*
X245630000Y-105630000D03*
X244830000Y-101330000D03*
X244830000Y-105630000D03*
X244030000Y-101330000D03*
X244030000Y-105630000D03*
X243230000Y-101330000D03*
X243230000Y-105630000D03*
X242430000Y-101330000D03*
X242430000Y-105630000D03*
X241630000Y-101330000D03*
X241630000Y-105630000D03*
X240830000Y-101330000D03*
X240830000Y-105630000D03*
D14*
X210830000Y-123480000D03*
D15*
X210830000Y-123480000D03*
D14*
X250830000Y-138680000D03*
D15*
X250830000Y-138680000D03*
%TD*%
M02*
