%TF.GenerationSoftware,KiCad,Pcbnew,9.0.0*%
%TF.CreationDate,2026-01-14T19:04:19-06:00*%
%TF.ProjectId,SuppChargerTester,53757070-4368-4617-9267-657254657374,rev?*%
%TF.SameCoordinates,Original*%
%TF.FileFunction,Copper,L1,Top*%
%TF.FilePolarity,Positive*%
%FSLAX46Y46*%
G04 Gerber Fmt 4.6, Leading zero omitted, Abs format (unit mm)*
G04 Created by KiCad (PCBNEW 9.0.0) date 2026-01-14 19:04:19*
%MOMM*%
%LPD*%
G01*
G04 APERTURE LIST*
G04 Aperture macros list*
%AMFreePoly0*
4,1,21,5.263536,5.503536,5.265000,5.500000,5.265000,-5.500000,5.263536,-5.503536,5.260000,-5.505000,1.240000,-5.505000,1.236464,-5.503536,1.235000,-5.500000,1.235000,-4.005000,-5.260000,-4.005000,-5.263536,-4.003536,-5.265000,-4.000000,-5.265000,4.000000,-5.263536,4.003536,-5.260000,4.005000,1.235000,4.005000,1.235000,5.500000,1.236464,5.503536,1.240000,5.505000,5.260000,5.505000,
5.263536,5.503536,5.263536,5.503536,$1*%
G04 Aperture macros list end*
%TA.AperFunction,ComponentPad*%
%ADD10C,8.115000*%
%TD*%
%TA.AperFunction,SMDPad,CuDef*%
%ADD11R,0.550000X1.800000*%
%TD*%
%TA.AperFunction,ComponentPad*%
%ADD12C,3.600000*%
%TD*%
%TA.AperFunction,ConnectorPad*%
%ADD13C,6.400000*%
%TD*%
%TA.AperFunction,SMDPad,CuDef*%
%ADD14R,4.230000X2.400000*%
%TD*%
%TA.AperFunction,SMDPad,CuDef*%
%ADD15FreePoly0,180.000000*%
%TD*%
%TA.AperFunction,ComponentPad*%
%ADD16R,1.700000X1.700000*%
%TD*%
%TA.AperFunction,ComponentPad*%
%ADD17O,1.700000X1.700000*%
%TD*%
%TA.AperFunction,ComponentPad*%
%ADD18C,1.524000*%
%TD*%
%TA.AperFunction,ComponentPad*%
%ADD19R,3.000000X3.000000*%
%TD*%
%TA.AperFunction,ComponentPad*%
%ADD20C,3.000000*%
%TD*%
%TA.AperFunction,SMDPad,CuDef*%
%ADD21R,1.800000X0.550000*%
%TD*%
%TA.AperFunction,ViaPad*%
%ADD22C,0.600000*%
%TD*%
%TA.AperFunction,Conductor*%
%ADD23C,0.400000*%
%TD*%
%TA.AperFunction,Conductor*%
%ADD24C,0.250000*%
%TD*%
%TA.AperFunction,Conductor*%
%ADD25C,0.200000*%
%TD*%
G04 APERTURE END LIST*
D10*
%TO.P,J1,1,Pin_1*%
%TO.N,+24V*%
X240800000Y-89650000D03*
%TD*%
D11*
%TO.P,U3,1,+3.3V*%
%TO.N,+3V3*%
X208433911Y-74760002D03*
%TO.P,U3,2,+3.3V*%
X208433910Y-70460061D03*
%TO.P,U3,3,+3.3V*%
X209233910Y-74760061D03*
%TO.P,U3,4,+3.3V*%
X209233910Y-70460000D03*
%TO.P,U3,5,I2C4_SDA*%
%TO.N,/SDA*%
X210033910Y-74760061D03*
%TO.P,U3,6,IntCAN_H*%
%TO.N,unconnected-(U3A-IntCAN_H-Pad6)*%
X210033911Y-70460000D03*
%TO.P,U3,7,I2C4_SCL*%
%TO.N,/SCL*%
X210833910Y-74760061D03*
%TO.P,U3,8,IntCAN_L*%
%TO.N,unconnected-(U3A-IntCAN_L-Pad8)*%
X210833909Y-70460000D03*
%TO.P,U3,9,I2C3_SDA*%
%TO.N,unconnected-(U3A-I2C3_SDA-Pad9)*%
X211633910Y-74760061D03*
%TO.P,U3,10,ADC2_IN12*%
%TO.N,unconnected-(U3A-ADC2_IN12-Pad10)*%
X211633910Y-70460000D03*
%TO.P,U3,11,I2C3_SCL*%
%TO.N,unconnected-(U3A-I2C3_SCL-Pad11)*%
X212433910Y-74760061D03*
%TO.P,U3,12,ADC1_IN11*%
%TO.N,unconnected-(U3A-ADC1_IN11-Pad12)*%
X212433908Y-70460000D03*
%TO.P,U3,13,UART5_TX*%
%TO.N,unconnected-(U3A-UART5_TX-Pad13)*%
X213233910Y-74760061D03*
%TO.P,U3,14,SPI2_MISO*%
%TO.N,unconnected-(U3A-SPI2_MISO-Pad14)*%
X213233909Y-70460000D03*
%TO.P,U3,15,UART5_RX*%
%TO.N,unconnected-(U3A-UART5_RX-Pad15)*%
X214033910Y-74760061D03*
%TO.P,U3,16,SPI2_NSS*%
%TO.N,unconnected-(U3A-SPI2_NSS-Pad16)*%
X214033910Y-70460000D03*
%TO.P,U3,17,USART1_TX*%
%TO.N,unconnected-(U3A-USART1_TX-Pad17)*%
X214833909Y-74760002D03*
%TO.P,U3,18,SPI2_MOSI*%
%TO.N,unconnected-(U3A-SPI2_MOSI-Pad18)*%
X214833909Y-70460000D03*
%TO.P,U3,19,USART1_RX*%
%TO.N,unconnected-(U3A-USART1_RX-Pad19)*%
X215633909Y-74760002D03*
%TO.P,U3,20,SPI2_SCK*%
%TO.N,unconnected-(U3A-SPI2_SCK-Pad20)*%
X215633909Y-70460000D03*
%TO.P,U3,21,24VExt*%
%TO.N,+24V*%
X216433908Y-74760002D03*
%TO.P,U3,22,24VExt*%
X216433908Y-70460000D03*
%TO.P,U3,23,24VExt*%
X217233909Y-74760002D03*
%TO.P,U3,24,24VExt*%
X217233909Y-70460000D03*
%TO.P,U3,25,GND*%
%TO.N,PGND*%
X192679933Y-74710002D03*
%TO.P,U3,26,GND*%
X192679933Y-70410000D03*
%TO.P,U3,27,GND*%
X193479932Y-74710002D03*
%TO.P,U3,28,GND*%
X193479932Y-70410000D03*
%TO.P,U3,29,GND*%
X194279933Y-74710002D03*
%TO.P,U3,30,CarCAN_H*%
%TO.N,unconnected-(U3B-CarCAN_H-Pad30)*%
X194279933Y-70410000D03*
%TO.P,U3,31,ADC1_IN12*%
%TO.N,unconnected-(U3B-ADC1_IN12-Pad31)*%
X195079931Y-74710002D03*
%TO.P,U3,32,CarCAN_L*%
%TO.N,unconnected-(U3B-CarCAN_L-Pad32)*%
X195079931Y-70410000D03*
%TO.P,U3,33,ADC1_IN15*%
%TO.N,unconnected-(U3B-ADC1_IN15-Pad33)*%
X195879932Y-74710002D03*
%TO.P,U3,34,UART4_TX*%
%TO.N,unconnected-(U3B-UART4_TX-Pad34)*%
X195879932Y-70410000D03*
%TO.P,U3,35,OPAMP5_VINM*%
%TO.N,unconnected-(U3B-OPAMP5_VINM-Pad35)*%
X196679930Y-74710002D03*
%TO.P,U3,36,UART4_RX*%
%TO.N,unconnected-(U3B-UART4_RX-Pad36)*%
X196679930Y-70410000D03*
%TO.P,U3,37,+3.3VA*%
%TO.N,unconnected-(U3B-+3.3VA-Pad37)*%
X197479931Y-74710002D03*
%TO.P,U3,38,GNDA*%
%TO.N,PGND*%
X197479931Y-70410000D03*
%TO.P,U3,39,ADC1_IN3*%
%TO.N,unconnected-(U3B-ADC1_IN3-Pad39)*%
X198279932Y-74710002D03*
%TO.P,U3,40,ADC1_IN7*%
%TO.N,unconnected-(U3B-ADC1_IN7-Pad40)*%
X198279932Y-70410000D03*
%TO.P,U3,41,ADC1_IN2*%
%TO.N,unconnected-(U3B-ADC1_IN2-Pad41)*%
X199079931Y-74710002D03*
%TO.P,U3,42,SPI3_MISO*%
%TO.N,/\u002ACE*%
X199079931Y-70410000D03*
%TO.P,U3,43,ADC1_IN1*%
%TO.N,unconnected-(U3B-ADC1_IN1-Pad43)*%
X199879931Y-74710002D03*
%TO.P,U3,44,SPI3_NSS*%
%TO.N,/STAT2*%
X199879931Y-70410000D03*
%TO.P,U3,45,ADC1_IN8*%
%TO.N,unconnected-(U3B-ADC1_IN8-Pad45)*%
X200679930Y-74710002D03*
%TO.P,U3,46,SPI3_MOSI*%
%TO.N,/STAT1*%
X200679930Y-70410000D03*
%TO.P,U3,47,ADC1_IN6*%
%TO.N,unconnected-(U3B-ADC1_IN6-Pad47)*%
X201479931Y-74710002D03*
%TO.P,U3,48,SPI3_SCK*%
%TO.N,/\u002AINT*%
X201479931Y-70410000D03*
%TD*%
D12*
%TO.P,H1,1*%
%TO.N,N/C*%
X165780000Y-140350000D03*
D13*
X165780000Y-140350000D03*
%TD*%
D12*
%TO.P,H2,1*%
%TO.N,N/C*%
X253050000Y-68610000D03*
D13*
X253050000Y-68610000D03*
%TD*%
D14*
%TO.P,R1,1,1*%
%TO.N,+BATT*%
X190395000Y-133830000D03*
%TO.P,R1,2,2*%
%TO.N,PGND*%
X190395000Y-128750000D03*
D15*
%TO.P,R1,3,3*%
%TO.N,/ThermalPad*%
X180770000Y-131290000D03*
%TD*%
D16*
%TO.P,J4,1,Pin_1*%
%TO.N,/SCL*%
X211750000Y-113440000D03*
D17*
%TO.P,J4,2,Pin_2*%
%TO.N,/SDA*%
X214290000Y-113440000D03*
%TD*%
D18*
%TO.P,J3,1,GND*%
%TO.N,PGND*%
X171620000Y-91180000D03*
%TO.P,J3,2,GND*%
X169080000Y-91180000D03*
%TO.P,J3,3,CH7*%
%TO.N,/SDA*%
X171620000Y-93720000D03*
%TO.P,J3,4,CH6*%
%TO.N,/SCL*%
X169080000Y-93720000D03*
%TO.P,J3,5,CH5*%
%TO.N,unconnected-(J3-CH5-Pad5)*%
X171620000Y-96260000D03*
%TO.P,J3,6,CH4*%
%TO.N,unconnected-(J3-CH4-Pad6)*%
X169080000Y-96260000D03*
%TO.P,J3,7,CH3*%
%TO.N,/\u002AINT*%
X171620000Y-98800000D03*
%TO.P,J3,8,CH2*%
%TO.N,/STAT1*%
X169080000Y-98800000D03*
%TO.P,J3,9,CH1*%
%TO.N,/STAT2*%
X171620000Y-101340000D03*
%TO.P,J3,10,CH0*%
%TO.N,/\u002ACE*%
X169080000Y-101340000D03*
%TD*%
D16*
%TO.P,J5,1,Pin_1*%
%TO.N,+3V3*%
X170930000Y-120010000D03*
D17*
%TO.P,J5,2,Pin_2*%
%TO.N,PGND*%
X170930000Y-122550000D03*
%TD*%
D10*
%TO.P,J2,1,Pin_1*%
%TO.N,PGND*%
X168483809Y-112500000D03*
%TD*%
D19*
%TO.P,J6,1,Pin_1*%
%TO.N,+BATT*%
X188900000Y-140400000D03*
D20*
%TO.P,J6,2,Pin_2*%
%TO.N,PGND*%
X183900000Y-140400000D03*
%TD*%
D21*
%TO.P,U1,1,Power_Out*%
%TO.N,+BATT*%
X204230000Y-135580000D03*
%TO.P,U1,2,Power_Out*%
X199930000Y-135580000D03*
%TO.P,U1,3,Power_Out*%
X204230000Y-134780000D03*
%TO.P,U1,4,Power_Out*%
X199930000Y-134780000D03*
%TO.P,U1,5,Power_Out*%
X204230000Y-133980000D03*
%TO.P,U1,6,Power_Out*%
X199930000Y-133980000D03*
%TO.P,U1,7,Power_Out*%
X204230000Y-133180000D03*
%TO.P,U1,8,Power_Out*%
X199930000Y-133180000D03*
%TO.P,U1,9,BQ25756E_SDA*%
%TO.N,/SDA*%
X204230000Y-132380000D03*
%TO.P,U1,10,Power_Out*%
%TO.N,+BATT*%
X199930000Y-132380000D03*
%TO.P,U1,11,BQ25756E_SCL*%
%TO.N,/SCL*%
X204230000Y-131580000D03*
%TO.P,U1,12,Power_Out*%
%TO.N,+BATT*%
X199930000Y-131580000D03*
%TO.P,U1,13,BQ25756E_~{INT}*%
%TO.N,/\u002AINT*%
X204230000Y-130780000D03*
%TO.P,U1,14,Power_Out*%
%TO.N,+BATT*%
X199930000Y-130780000D03*
%TO.P,U1,15,BQ25756E_Stat1*%
%TO.N,/STAT1*%
X204230000Y-129980000D03*
%TO.P,U1,16,Power_Out*%
%TO.N,+BATT*%
X199930000Y-129980000D03*
%TO.P,U1,17,BQ25756E_Stat2*%
%TO.N,/STAT2*%
X204230000Y-129180000D03*
%TO.P,U1,18,GND*%
%TO.N,PGND*%
X199930000Y-129180000D03*
%TO.P,U1,19,BQ25756E_~{CE}*%
%TO.N,/\u002ACE*%
X204230000Y-128380000D03*
%TO.P,U1,20,GND*%
%TO.N,PGND*%
X199930000Y-128380000D03*
%TO.P,U1,21,GND*%
X204230000Y-127580000D03*
%TO.P,U1,22,GND*%
X199930000Y-127580000D03*
%TO.P,U1,23,GND*%
X204230000Y-126780000D03*
%TO.P,U1,24,Logic_PWR*%
%TO.N,+3V3*%
X199930000Y-126780000D03*
D11*
%TO.P,U1,25,GND*%
%TO.N,PGND*%
X249630000Y-101330000D03*
%TO.P,U1,26,GND*%
X249630000Y-105630000D03*
%TO.P,U1,27,GND*%
X248830000Y-101330000D03*
%TO.P,U1,28,GND*%
X248830000Y-105630000D03*
%TO.P,U1,29,GND*%
X248030000Y-101330000D03*
%TO.P,U1,30,GND*%
X248030000Y-105630000D03*
%TO.P,U1,31,GND*%
X247230000Y-101330000D03*
%TO.P,U1,32,GND*%
X247230000Y-105630000D03*
%TO.P,U1,33,GND*%
X246430000Y-101330000D03*
%TO.P,U1,34,GND*%
X246430000Y-105630000D03*
%TO.P,U1,35,Power_In*%
%TO.N,+24V*%
X245630000Y-101330000D03*
%TO.P,U1,36,Power_In*%
X245630000Y-105630000D03*
%TO.P,U1,37,Power_In*%
X244830000Y-101330000D03*
%TO.P,U1,38,Power_In*%
X244830000Y-105630000D03*
%TO.P,U1,39,Power_In*%
X244030000Y-101330000D03*
%TO.P,U1,40,Power_In*%
X244030000Y-105630000D03*
%TO.P,U1,41,Power_In*%
X243230000Y-101330000D03*
%TO.P,U1,42,Power_In*%
X243230000Y-105630000D03*
%TO.P,U1,43,Power_In*%
X242430000Y-101330000D03*
%TO.P,U1,44,Power_In*%
X242430000Y-105630000D03*
%TO.P,U1,45,Power_In*%
X241630000Y-101330000D03*
%TO.P,U1,46,Power_In*%
X241630000Y-105630000D03*
%TO.P,U1,47,Power_In*%
X240830000Y-101330000D03*
%TO.P,U1,48,Power_In*%
X240830000Y-105630000D03*
D12*
%TO.P,U1,49,MP*%
%TO.N,unconnected-(U1-MP-Pad49)*%
X210830000Y-123480000D03*
D13*
%TO.N,unconnected-(U1-MP-Pad49)_2*%
X210830000Y-123480000D03*
D12*
%TO.P,U1,50,MP*%
%TO.N,unconnected-(U1-MP-Pad50)*%
X250830000Y-138680000D03*
D13*
%TO.N,unconnected-(U1-MP-Pad50)_2*%
X250830000Y-138680000D03*
%TD*%
D22*
%TO.N,PGND*%
X176760000Y-141310000D03*
X172910000Y-141300000D03*
X170980000Y-139190000D03*
X172910000Y-139190000D03*
X174970000Y-139190000D03*
X170990000Y-141310000D03*
X176760000Y-139200000D03*
X174980000Y-141310000D03*
X164940000Y-133320000D03*
X164950000Y-129470000D03*
X167060000Y-127540000D03*
X167060000Y-129470000D03*
X167060000Y-131530000D03*
X164940000Y-127550000D03*
X167050000Y-133320000D03*
X164940000Y-131540000D03*
X171000000Y-129460000D03*
X170990000Y-133310000D03*
X168880000Y-131530000D03*
X171000000Y-127530000D03*
X168890000Y-129460000D03*
X171000000Y-131520000D03*
X168880000Y-133310000D03*
X168880000Y-127540000D03*
X251240000Y-111330000D03*
X218320000Y-96740000D03*
X224820000Y-94920000D03*
X201010000Y-98790000D03*
X216330000Y-81540000D03*
X220440000Y-85300000D03*
X251230000Y-89820000D03*
X220450000Y-89100000D03*
X253740000Y-87760000D03*
X239630000Y-113440000D03*
X253740000Y-91540000D03*
X222220000Y-113790000D03*
X220430000Y-98800000D03*
X201020000Y-94940000D03*
X218320000Y-91180000D03*
X253710000Y-78150000D03*
X246050000Y-70490000D03*
X243410000Y-113440000D03*
X249320000Y-111340000D03*
X253740000Y-93600000D03*
X201030000Y-92870000D03*
X249320000Y-113450000D03*
X249330000Y-121630000D03*
X185850000Y-119750000D03*
X245480000Y-117590000D03*
X247250000Y-111330000D03*
X253750000Y-83910000D03*
X214210000Y-98820000D03*
X220150000Y-113780000D03*
X189700000Y-119760000D03*
X243420000Y-121620000D03*
X214210000Y-81550000D03*
X239630000Y-119500000D03*
X194800000Y-89120000D03*
X243620000Y-72550000D03*
X245470000Y-111330000D03*
X251240000Y-91530000D03*
X227010000Y-98770000D03*
X216330000Y-96750000D03*
X249330000Y-119520000D03*
X227020000Y-81490000D03*
X222700000Y-85280000D03*
X214220000Y-89130000D03*
X227010000Y-87340000D03*
X222690000Y-87350000D03*
X216340000Y-89120000D03*
X229130000Y-83550000D03*
X224810000Y-83560000D03*
X239640000Y-117590000D03*
X220440000Y-96730000D03*
X222700000Y-100700000D03*
X196920000Y-89110000D03*
X251200000Y-80210000D03*
X218330000Y-92890000D03*
X246040000Y-72560000D03*
X227020000Y-85270000D03*
X206160000Y-89080000D03*
X201020000Y-96720000D03*
X229130000Y-98760000D03*
X241690000Y-113440000D03*
X201020000Y-100710000D03*
X198890000Y-98800000D03*
X251250000Y-115480000D03*
X214210000Y-83610000D03*
X198900000Y-96730000D03*
X198900000Y-91170000D03*
X203660000Y-92860000D03*
X251270000Y-125780000D03*
X227020000Y-100690000D03*
X247260000Y-115480000D03*
X220430000Y-83590000D03*
X203640000Y-98780000D03*
X198910000Y-92880000D03*
X216320000Y-87390000D03*
X223940000Y-115900000D03*
X218310000Y-98810000D03*
X194790000Y-96750000D03*
X224810000Y-98770000D03*
X216340000Y-92900000D03*
X251240000Y-81980000D03*
X241000000Y-72560000D03*
X245490000Y-123660000D03*
X206160000Y-92860000D03*
X196910000Y-96740000D03*
X253750000Y-85970000D03*
X198910000Y-89100000D03*
X246040000Y-68570000D03*
X247270000Y-123660000D03*
X206150000Y-91150000D03*
X239640000Y-123650000D03*
X216320000Y-98820000D03*
X196910000Y-94960000D03*
X183790000Y-119750000D03*
X224820000Y-85270000D03*
X220440000Y-94950000D03*
X241710000Y-123660000D03*
X243420000Y-117590000D03*
X243400000Y-111320000D03*
X227020000Y-91140000D03*
X214210000Y-87390000D03*
X224820000Y-91140000D03*
X216330000Y-91190000D03*
X239630000Y-115470000D03*
X214220000Y-92910000D03*
X222690000Y-83570000D03*
X220440000Y-100720000D03*
X245490000Y-125770000D03*
X251250000Y-113450000D03*
X251260000Y-117600000D03*
X216320000Y-83610000D03*
X227780000Y-113790000D03*
X245480000Y-121620000D03*
X241700000Y-117590000D03*
X224820000Y-100690000D03*
X196900000Y-98810000D03*
X218320000Y-94960000D03*
X194800000Y-94960000D03*
X243620000Y-70490000D03*
X180010000Y-119750000D03*
X203660000Y-89080000D03*
X222700000Y-81500000D03*
X224830000Y-89070000D03*
X229130000Y-87330000D03*
X214210000Y-85330000D03*
X247270000Y-121630000D03*
X251260000Y-121630000D03*
X203650000Y-94930000D03*
X222700000Y-94930000D03*
X251260000Y-123660000D03*
X222700000Y-96710000D03*
X198900000Y-100720000D03*
X243410000Y-119500000D03*
X241010000Y-70490000D03*
X243430000Y-125770000D03*
X247280000Y-125780000D03*
X251250000Y-119510000D03*
X206150000Y-100700000D03*
X229150000Y-89060000D03*
X239650000Y-125770000D03*
X220160000Y-115900000D03*
X241700000Y-119510000D03*
X196910000Y-91180000D03*
X227030000Y-89070000D03*
X187640000Y-119760000D03*
X222690000Y-98780000D03*
X253710000Y-80210000D03*
X251210000Y-78140000D03*
X218320000Y-85310000D03*
X198900000Y-94950000D03*
X229140000Y-91130000D03*
X251230000Y-93600000D03*
X206150000Y-96710000D03*
X214210000Y-96760000D03*
X243410000Y-115470000D03*
X231770000Y-113790000D03*
X227020000Y-94920000D03*
X220440000Y-81520000D03*
X227010000Y-83560000D03*
X218320000Y-81530000D03*
X220450000Y-92880000D03*
X229140000Y-81480000D03*
X247260000Y-119510000D03*
X241710000Y-125770000D03*
X214220000Y-94970000D03*
X203650000Y-91150000D03*
X227020000Y-96700000D03*
X247260000Y-113450000D03*
X249340000Y-123670000D03*
X231780000Y-115910000D03*
X203650000Y-100700000D03*
X216330000Y-94970000D03*
X196910000Y-100730000D03*
X241000000Y-68570000D03*
X241690000Y-111330000D03*
X222710000Y-92860000D03*
X229140000Y-96690000D03*
X251240000Y-87750000D03*
X239640000Y-121620000D03*
X214210000Y-100750000D03*
X222700000Y-91150000D03*
X218310000Y-87380000D03*
X223930000Y-113780000D03*
X194800000Y-91180000D03*
X229850000Y-113800000D03*
X241700000Y-115480000D03*
X214220000Y-91190000D03*
X249330000Y-117600000D03*
X253750000Y-81980000D03*
X194790000Y-98810000D03*
X194790000Y-100740000D03*
X245470000Y-113440000D03*
X239620000Y-111320000D03*
X222220000Y-115900000D03*
X206140000Y-98780000D03*
X251200000Y-76430000D03*
X201030000Y-89090000D03*
X218310000Y-83600000D03*
X243620000Y-68560000D03*
X182070000Y-119750000D03*
X229850000Y-115910000D03*
X201020000Y-91160000D03*
X224810000Y-87340000D03*
X227030000Y-92850000D03*
X227790000Y-115910000D03*
X224820000Y-81490000D03*
X251240000Y-85970000D03*
X222710000Y-89080000D03*
X191630000Y-119760000D03*
X224830000Y-92850000D03*
X206150000Y-94930000D03*
X243420000Y-123650000D03*
X245480000Y-115480000D03*
X249340000Y-125780000D03*
X229150000Y-92840000D03*
X216330000Y-100740000D03*
X229140000Y-85260000D03*
X247270000Y-117600000D03*
X253740000Y-89820000D03*
X194800000Y-92900000D03*
X241700000Y-121620000D03*
X229140000Y-100680000D03*
X229140000Y-94910000D03*
X251250000Y-83900000D03*
X220440000Y-91170000D03*
X218320000Y-100730000D03*
X218330000Y-89110000D03*
X226000000Y-113790000D03*
X220430000Y-87370000D03*
X216330000Y-85320000D03*
X253710000Y-76430000D03*
X245480000Y-119510000D03*
X196920000Y-92890000D03*
X249330000Y-115490000D03*
X226000000Y-115900000D03*
X224820000Y-96700000D03*
X203650000Y-96710000D03*
%TO.N,/SCL*%
X210830000Y-76200000D03*
%TO.N,/STAT1*%
X200669463Y-71840000D03*
%TO.N,/STAT2*%
X199870000Y-71850000D03*
%TO.N,/\u002AINT*%
X201470000Y-71850000D03*
%TO.N,/SDA*%
X210800000Y-77070000D03*
%TO.N,/\u002ACE*%
X199070000Y-71860000D03*
%TO.N,+3V3*%
X201000000Y-125730000D03*
X208890000Y-76210000D03*
%TO.N,/ThermalPad*%
X180760000Y-132830000D03*
X184020000Y-132830000D03*
X177710000Y-129790000D03*
X184010000Y-129790000D03*
X177710000Y-132840000D03*
X180760000Y-129790000D03*
X180760000Y-131340000D03*
X184010000Y-131290000D03*
X177710000Y-131340000D03*
%TO.N,PGND*%
X211660000Y-116780000D03*
%TD*%
D23*
%TO.N,+24V*%
X216433908Y-70460000D02*
X216900000Y-70460000D01*
X216900000Y-70460000D02*
X216900000Y-74720002D01*
X216900000Y-74720002D02*
X216860000Y-74760002D01*
X216900000Y-70460000D02*
X217233909Y-70460000D01*
X240800000Y-89650000D02*
X225910002Y-74760002D01*
X216860000Y-74760002D02*
X216433908Y-74760002D01*
X225910002Y-74760002D02*
X216860000Y-74760002D01*
D24*
%TO.N,/SCL*%
X169080000Y-93720000D02*
X170532000Y-95172000D01*
X214356000Y-116046000D02*
X211750000Y-113440000D01*
X173670000Y-108030000D02*
X179080000Y-113440000D01*
X214356000Y-125364000D02*
X208140000Y-131580000D01*
X179080000Y-113440000D02*
X211750000Y-113440000D01*
X210833910Y-76196090D02*
X210830000Y-76200000D01*
X173670000Y-96600000D02*
X173670000Y-108030000D01*
X214356000Y-125364000D02*
X214356000Y-116046000D01*
X170532000Y-95172000D02*
X172242000Y-95172000D01*
X172242000Y-95172000D02*
X173670000Y-96600000D01*
X210833910Y-74760061D02*
X210833910Y-76196090D01*
X204230000Y-131580000D02*
X208140000Y-131580000D01*
D25*
%TO.N,/STAT1*%
X178216100Y-114609000D02*
X202189000Y-114609000D01*
X205330000Y-129980000D02*
X206691000Y-128619000D01*
X170300000Y-100020000D02*
X169080000Y-98800000D01*
X206691000Y-128619000D02*
X206691000Y-119111000D01*
X172780000Y-101831000D02*
X172780000Y-100640000D01*
D24*
X200679930Y-70410000D02*
X200679930Y-71840106D01*
X200679930Y-71829533D02*
X200669463Y-71840000D01*
D25*
X172021000Y-102590000D02*
X172780000Y-101831000D01*
X172780000Y-100640000D02*
X172160000Y-100020000D01*
D24*
X200679930Y-71840106D02*
X200669463Y-71850573D01*
D25*
X206691000Y-119111000D02*
X202235000Y-114655000D01*
X204230000Y-129980000D02*
X205330000Y-129980000D01*
X178216100Y-114609000D02*
X172021000Y-108413900D01*
X202189000Y-114609000D02*
X202235000Y-114655000D01*
X172021000Y-108413900D02*
X172021000Y-102590000D01*
X172160000Y-100020000D02*
X170300000Y-100020000D01*
%TO.N,/STAT2*%
X206290000Y-119443900D02*
X201856100Y-115010000D01*
X204230000Y-129180000D02*
X205040000Y-129180000D01*
D24*
X199870030Y-71880754D02*
X199870030Y-71834595D01*
D25*
X171620000Y-108580000D02*
X171620000Y-101340000D01*
X206290000Y-127930000D02*
X206290000Y-119443900D01*
D24*
X199879931Y-71840069D02*
X199870000Y-71850000D01*
X199870030Y-71834595D02*
X199879931Y-71824694D01*
D25*
X201856100Y-115010000D02*
X178050000Y-115010000D01*
X178050000Y-115010000D02*
X171620000Y-108580000D01*
X205040000Y-129180000D02*
X206290000Y-127930000D01*
D24*
X199879931Y-71824694D02*
X199879931Y-70410000D01*
D25*
%TO.N,/\u002AINT*%
X178382200Y-114208000D02*
X202592200Y-114208000D01*
X202592200Y-114208000D02*
X207092000Y-118707800D01*
X171620000Y-98800000D02*
X173181000Y-100361000D01*
D24*
X201479931Y-71830069D02*
X201470000Y-71840000D01*
D25*
X172422000Y-102760000D02*
X172422000Y-108247800D01*
X207092000Y-118707800D02*
X207092000Y-129018000D01*
X173181000Y-102001000D02*
X172422000Y-102760000D01*
D24*
X201479931Y-70410000D02*
X201479931Y-71830069D01*
D25*
X207092000Y-129018000D02*
X205330000Y-130780000D01*
X172422000Y-108247800D02*
X178382200Y-114208000D01*
X173181000Y-100361000D02*
X173181000Y-102001000D01*
X205330000Y-130780000D02*
X204230000Y-130780000D01*
D24*
%TO.N,/SDA*%
X174121000Y-107843190D02*
X179266810Y-112989000D01*
X214807000Y-125550810D02*
X207977810Y-132380000D01*
X174121000Y-96221000D02*
X174121000Y-107843190D01*
X210033910Y-76303910D02*
X210800000Y-77070000D01*
X171620000Y-93720000D02*
X174121000Y-96221000D01*
X209975000Y-112264000D02*
X213114000Y-112264000D01*
X214807000Y-125550810D02*
X214807000Y-113957000D01*
X209250000Y-112989000D02*
X209975000Y-112264000D01*
X179266810Y-112989000D02*
X209250000Y-112989000D01*
X210033910Y-74760061D02*
X210033910Y-76303910D01*
X214807000Y-113957000D02*
X214290000Y-113440000D01*
X204230000Y-132380000D02*
X207977810Y-132380000D01*
X213114000Y-112264000D02*
X214290000Y-113440000D01*
D25*
%TO.N,/\u002ACE*%
X171741450Y-109268550D02*
X171816450Y-109343550D01*
X205889000Y-127698000D02*
X205889000Y-119610000D01*
X171219000Y-103479000D02*
X171219000Y-104340000D01*
X205889000Y-119610000D02*
X201749000Y-115470000D01*
X171219000Y-108746100D02*
X171741450Y-109268550D01*
X171219000Y-104340000D02*
X171219000Y-105240000D01*
X171741450Y-109268550D02*
X177883900Y-115411000D01*
X204230000Y-128380000D02*
X205207000Y-128380000D01*
X177883900Y-115411000D02*
X180090000Y-115411000D01*
X171219000Y-105240000D02*
X171219000Y-108746100D01*
X201749000Y-115470000D02*
X178260000Y-115470000D01*
X205207000Y-128380000D02*
X205889000Y-127698000D01*
X178260000Y-115470000D02*
X177942900Y-115470000D01*
D24*
X199079931Y-71850069D02*
X199070000Y-71860000D01*
D25*
X169080000Y-101340000D02*
X171219000Y-103479000D01*
X178260000Y-115470000D02*
X178020000Y-115470000D01*
X177942900Y-115470000D02*
X177649000Y-115176100D01*
D24*
X199079931Y-70410000D02*
X199079931Y-71850069D01*
D23*
%TO.N,+3V3*%
X172280000Y-121360000D02*
X194510000Y-121360000D01*
X199950000Y-126780000D02*
X201000000Y-125730000D01*
X208433911Y-74760002D02*
X208840000Y-74760002D01*
X170930000Y-120010000D02*
X172280000Y-121360000D01*
X194510000Y-121360000D02*
X199930000Y-126780000D01*
X208890000Y-76210000D02*
X208890000Y-74810002D01*
X208850000Y-70460000D02*
X208850000Y-74750002D01*
X209233851Y-74760002D02*
X209233910Y-74760061D01*
X208850000Y-70460000D02*
X208433971Y-70460000D01*
X208850000Y-74750002D02*
X208840000Y-74760002D01*
X208840000Y-74760002D02*
X209233851Y-74760002D01*
X199930000Y-126780000D02*
X199950000Y-126780000D01*
X209233910Y-70460000D02*
X208850000Y-70460000D01*
X208890000Y-74810002D02*
X208840000Y-74760002D01*
X208433971Y-70460000D02*
X208433910Y-70460061D01*
%TD*%
%TA.AperFunction,Conductor*%
%TO.N,+24V*%
G36*
X245963039Y-83799685D02*
G01*
X246008794Y-83852489D01*
X246020000Y-83904000D01*
X246020000Y-99860076D01*
X246000315Y-99927115D01*
X245947511Y-99972870D01*
X245939335Y-99976257D01*
X245912673Y-99986201D01*
X245912664Y-99986206D01*
X245797455Y-100072452D01*
X245797452Y-100072455D01*
X245711206Y-100187664D01*
X245711202Y-100187671D01*
X245660908Y-100322517D01*
X245654501Y-100382116D01*
X245654500Y-100382135D01*
X245654500Y-102277870D01*
X245654501Y-102277876D01*
X245660908Y-102337483D01*
X245711202Y-102472328D01*
X245711206Y-102472335D01*
X245797452Y-102587544D01*
X245797455Y-102587547D01*
X245912666Y-102673794D01*
X245912666Y-102673795D01*
X245912669Y-102673796D01*
X245939332Y-102683740D01*
X245995265Y-102725608D01*
X246019684Y-102791072D01*
X246020000Y-102799922D01*
X246020000Y-104160076D01*
X246000315Y-104227115D01*
X245947511Y-104272870D01*
X245939335Y-104276257D01*
X245912673Y-104286201D01*
X245912664Y-104286206D01*
X245797455Y-104372452D01*
X245797452Y-104372455D01*
X245711206Y-104487664D01*
X245711202Y-104487671D01*
X245660908Y-104622517D01*
X245654501Y-104682116D01*
X245654500Y-104682135D01*
X245654500Y-106577870D01*
X245654501Y-106577876D01*
X245660908Y-106637483D01*
X245711202Y-106772328D01*
X245715454Y-106780114D01*
X245714135Y-106780834D01*
X245735140Y-106837159D01*
X245720286Y-106905431D01*
X245670879Y-106954835D01*
X245611456Y-106970000D01*
X235694000Y-106970000D01*
X235626961Y-106950315D01*
X235581206Y-106897511D01*
X235570000Y-106846000D01*
X235570000Y-83904000D01*
X235589685Y-83836961D01*
X235642489Y-83791206D01*
X235694000Y-83780000D01*
X245896000Y-83780000D01*
X245963039Y-83799685D01*
G37*
%TD.AperFunction*%
%TD*%
%TA.AperFunction,Conductor*%
%TO.N,+BATT*%
G36*
X187722539Y-127489685D02*
G01*
X187768294Y-127542489D01*
X187779500Y-127594000D01*
X187779500Y-129997870D01*
X187779501Y-129997876D01*
X187785908Y-130057483D01*
X187836202Y-130192328D01*
X187836206Y-130192335D01*
X187922452Y-130307544D01*
X187922455Y-130307547D01*
X188037664Y-130393793D01*
X188037671Y-130393797D01*
X188172517Y-130444091D01*
X188172516Y-130444091D01*
X188179444Y-130444835D01*
X188232127Y-130450500D01*
X192557872Y-130450499D01*
X192617483Y-130444091D01*
X192752331Y-130393796D01*
X192867546Y-130307546D01*
X192953796Y-130192331D01*
X193004091Y-130057483D01*
X193010500Y-129997873D01*
X193010499Y-127593999D01*
X193030184Y-127526961D01*
X193082987Y-127481206D01*
X193134499Y-127470000D01*
X198090500Y-127470000D01*
X198157539Y-127489685D01*
X198203294Y-127542489D01*
X198214500Y-127594000D01*
X198214500Y-129311868D01*
X198226053Y-129419315D01*
X198226054Y-129419321D01*
X198276333Y-129554119D01*
X198276336Y-129554126D01*
X198362562Y-129669307D01*
X198477745Y-129755530D01*
X198534404Y-129776661D01*
X198612550Y-129805808D01*
X198612553Y-129805808D01*
X198612555Y-129805809D01*
X198621074Y-129806418D01*
X198632509Y-129807236D01*
X198697974Y-129831650D01*
X198697978Y-129831653D01*
X198787669Y-129898796D01*
X198787671Y-129898797D01*
X198922517Y-129949091D01*
X198922516Y-129949091D01*
X198929444Y-129949835D01*
X198982127Y-129955500D01*
X200877872Y-129955499D01*
X200877874Y-129955498D01*
X200877887Y-129955498D01*
X200897354Y-129953405D01*
X200966113Y-129965809D01*
X200991814Y-129982981D01*
X201052139Y-130035254D01*
X201092607Y-130053735D01*
X201183013Y-130095023D01*
X201183016Y-130095023D01*
X201183017Y-130095024D01*
X201325433Y-130115500D01*
X202102625Y-130115500D01*
X202169664Y-130135185D01*
X202215419Y-130187989D01*
X202226624Y-130239202D01*
X202230000Y-131650000D01*
X202704765Y-131647182D01*
X202711643Y-131649157D01*
X202718685Y-131647883D01*
X202744781Y-131658675D01*
X202771919Y-131666469D01*
X202776636Y-131671848D01*
X202783251Y-131674584D01*
X202799368Y-131697769D01*
X202817987Y-131719000D01*
X202820018Y-131727475D01*
X202823132Y-131731954D01*
X202827411Y-131758312D01*
X202829418Y-131766684D01*
X202829500Y-131768965D01*
X202829501Y-131902872D01*
X202835909Y-131962483D01*
X202836588Y-131964305D01*
X202836995Y-131975507D01*
X202836367Y-131977973D01*
X202836367Y-131993257D01*
X202835909Y-131997516D01*
X202835909Y-131997517D01*
X202829500Y-132057127D01*
X202829500Y-132057132D01*
X202829500Y-132057133D01*
X202829500Y-132702870D01*
X202829501Y-132702876D01*
X202835908Y-132762483D01*
X202886202Y-132897328D01*
X202886206Y-132897335D01*
X202972452Y-133012544D01*
X202972455Y-133012547D01*
X203087664Y-133098793D01*
X203087671Y-133098797D01*
X203222517Y-133149091D01*
X203222516Y-133149091D01*
X203229444Y-133149835D01*
X203282127Y-133155500D01*
X205177872Y-133155499D01*
X205237483Y-133149091D01*
X205372331Y-133098796D01*
X205401688Y-133076818D01*
X205467152Y-133052401D01*
X205535425Y-133067252D01*
X205584831Y-133116656D01*
X205600000Y-133176085D01*
X205600000Y-143235500D01*
X205580315Y-143302539D01*
X205527511Y-143348294D01*
X205476000Y-143359500D01*
X187054000Y-143359500D01*
X186986961Y-143339815D01*
X186941206Y-143287011D01*
X186930000Y-143235500D01*
X186930000Y-127594000D01*
X186949685Y-127526961D01*
X187002489Y-127481206D01*
X187054000Y-127470000D01*
X187655500Y-127470000D01*
X187722539Y-127489685D01*
G37*
%TD.AperFunction*%
%TD*%
%TA.AperFunction,Conductor*%
%TO.N,PGND*%
G36*
X205288500Y-127397902D02*
G01*
X205279855Y-127427339D01*
X205273332Y-127457330D01*
X205269576Y-127462346D01*
X205268815Y-127464941D01*
X205252185Y-127485578D01*
X205188673Y-127549091D01*
X205169582Y-127568182D01*
X205108258Y-127601666D01*
X205081901Y-127604500D01*
X203282129Y-127604500D01*
X203282123Y-127604501D01*
X203222516Y-127610908D01*
X203087671Y-127661202D01*
X203087664Y-127661206D01*
X202972455Y-127747452D01*
X202972452Y-127747455D01*
X202886206Y-127862664D01*
X202886202Y-127862671D01*
X202835910Y-127997513D01*
X202835909Y-127997517D01*
X202829500Y-128057127D01*
X202829500Y-128057134D01*
X202829500Y-128057135D01*
X202829500Y-128702870D01*
X202829501Y-128702879D01*
X202836367Y-128766751D01*
X202836367Y-128793257D01*
X202835909Y-128797516D01*
X202835909Y-128797517D01*
X202829500Y-128857127D01*
X202829500Y-128857132D01*
X202829500Y-128857133D01*
X202829500Y-129502870D01*
X202829501Y-129502879D01*
X202836367Y-129566751D01*
X202836931Y-129586019D01*
X202836441Y-129596088D01*
X202835909Y-129597517D01*
X202834567Y-129610000D01*
X201325433Y-129610000D01*
X201324091Y-129597516D01*
X201273797Y-129462671D01*
X201273793Y-129462664D01*
X201187547Y-129347455D01*
X201187544Y-129347452D01*
X201072335Y-129261206D01*
X201072328Y-129261202D01*
X200937482Y-129210908D01*
X200937483Y-129210908D01*
X200877883Y-129204501D01*
X200877881Y-129204500D01*
X200877873Y-129204500D01*
X200877864Y-129204500D01*
X198982129Y-129204500D01*
X198982123Y-129204501D01*
X198922516Y-129210908D01*
X198787671Y-129261202D01*
X198787664Y-129261206D01*
X198720000Y-129311860D01*
X198720000Y-127448138D01*
X198787665Y-127498793D01*
X198787668Y-127498795D01*
X198787671Y-127498797D01*
X198922517Y-127549091D01*
X198922516Y-127549091D01*
X198929444Y-127549835D01*
X198982127Y-127555500D01*
X200877872Y-127555499D01*
X200937483Y-127549091D01*
X201072331Y-127498796D01*
X201187546Y-127412546D01*
X201273796Y-127297331D01*
X201324091Y-127162483D01*
X201330500Y-127102873D01*
X201330499Y-126538199D01*
X201350183Y-126471161D01*
X201385609Y-126435098D01*
X201464690Y-126382257D01*
X201510289Y-126351789D01*
X201612078Y-126250000D01*
X205288500Y-126250000D01*
X205288500Y-127397902D01*
G37*
%TD.AperFunction*%
%TD*%
%TA.AperFunction,Conductor*%
%TO.N,PGND*%
G36*
X250907513Y-65630185D02*
G01*
X250953268Y-65682989D01*
X250963212Y-65752147D01*
X250934187Y-65815703D01*
X250919139Y-65830353D01*
X250696367Y-66013176D01*
X250453176Y-66256367D01*
X250234985Y-66522234D01*
X250234975Y-66522248D01*
X250043904Y-66808206D01*
X250043893Y-66808224D01*
X249881772Y-67111530D01*
X249881770Y-67111535D01*
X249750150Y-67429293D01*
X249650308Y-67758427D01*
X249583210Y-68095750D01*
X249549500Y-68438034D01*
X249549500Y-68781965D01*
X249583210Y-69124249D01*
X249650308Y-69461572D01*
X249750150Y-69790706D01*
X249881770Y-70108464D01*
X249881772Y-70108469D01*
X250043893Y-70411775D01*
X250043904Y-70411793D01*
X250234975Y-70697751D01*
X250234985Y-70697765D01*
X250453176Y-70963632D01*
X250696367Y-71206823D01*
X250696372Y-71206827D01*
X250696373Y-71206828D01*
X250962240Y-71425019D01*
X251248213Y-71616100D01*
X251248222Y-71616105D01*
X251248224Y-71616106D01*
X251551530Y-71778227D01*
X251551532Y-71778227D01*
X251551538Y-71778231D01*
X251869295Y-71909850D01*
X252198422Y-72009690D01*
X252535750Y-72076789D01*
X252878031Y-72110500D01*
X252878034Y-72110500D01*
X253221966Y-72110500D01*
X253221969Y-72110500D01*
X253564250Y-72076789D01*
X253901578Y-72009690D01*
X254230705Y-71909850D01*
X254548462Y-71778231D01*
X254851787Y-71616100D01*
X255137760Y-71425019D01*
X255403627Y-71206828D01*
X255646828Y-70963627D01*
X255849649Y-70716487D01*
X255907392Y-70677156D01*
X255977237Y-70675285D01*
X256037005Y-70711472D01*
X256067721Y-70774228D01*
X256069500Y-70795155D01*
X256069500Y-140856249D01*
X256069274Y-140863736D01*
X256051728Y-141153794D01*
X256049923Y-141168659D01*
X255998219Y-141450798D01*
X255994635Y-141465336D01*
X255909306Y-141739167D01*
X255903997Y-141753168D01*
X255786275Y-142014736D01*
X255779316Y-142027995D01*
X255630928Y-142273459D01*
X255622422Y-142285782D01*
X255445526Y-142511573D01*
X255435596Y-142522781D01*
X255232781Y-142725596D01*
X255221573Y-142735526D01*
X254995782Y-142912422D01*
X254983459Y-142920928D01*
X254737995Y-143069316D01*
X254724736Y-143076275D01*
X254463168Y-143193997D01*
X254449167Y-143199306D01*
X254175336Y-143284635D01*
X254160798Y-143288219D01*
X253878659Y-143339923D01*
X253863794Y-143341728D01*
X253573736Y-143359274D01*
X253566249Y-143359500D01*
X206229500Y-143359500D01*
X206162461Y-143339815D01*
X206116706Y-143287011D01*
X206105500Y-143235500D01*
X206105500Y-138508034D01*
X247329500Y-138508034D01*
X247329500Y-138851965D01*
X247363210Y-139194249D01*
X247430308Y-139531572D01*
X247430310Y-139531578D01*
X247530150Y-139860705D01*
X247661590Y-140178031D01*
X247661770Y-140178464D01*
X247661772Y-140178469D01*
X247823893Y-140481775D01*
X247823904Y-140481793D01*
X248014975Y-140767751D01*
X248014985Y-140767765D01*
X248233176Y-141033632D01*
X248476367Y-141276823D01*
X248476372Y-141276827D01*
X248476373Y-141276828D01*
X248742240Y-141495019D01*
X249028213Y-141686100D01*
X249028222Y-141686105D01*
X249028224Y-141686106D01*
X249331530Y-141848227D01*
X249331532Y-141848227D01*
X249331538Y-141848231D01*
X249649295Y-141979850D01*
X249978422Y-142079690D01*
X250315750Y-142146789D01*
X250658031Y-142180500D01*
X250658034Y-142180500D01*
X251001966Y-142180500D01*
X251001969Y-142180500D01*
X251344250Y-142146789D01*
X251681578Y-142079690D01*
X252010705Y-141979850D01*
X252328462Y-141848231D01*
X252631787Y-141686100D01*
X252917760Y-141495019D01*
X253183627Y-141276828D01*
X253426828Y-141033627D01*
X253645019Y-140767760D01*
X253836100Y-140481787D01*
X253998231Y-140178462D01*
X254129850Y-139860705D01*
X254229690Y-139531578D01*
X254296789Y-139194250D01*
X254330500Y-138851969D01*
X254330500Y-138508031D01*
X254296789Y-138165750D01*
X254229690Y-137828422D01*
X254129850Y-137499295D01*
X253998231Y-137181538D01*
X253957543Y-137105417D01*
X253836106Y-136878224D01*
X253836105Y-136878222D01*
X253836100Y-136878213D01*
X253645019Y-136592240D01*
X253426828Y-136326373D01*
X253426827Y-136326372D01*
X253426823Y-136326367D01*
X253183632Y-136083176D01*
X252917765Y-135864985D01*
X252917764Y-135864984D01*
X252917760Y-135864981D01*
X252631787Y-135673900D01*
X252631782Y-135673897D01*
X252631775Y-135673893D01*
X252328469Y-135511772D01*
X252328464Y-135511770D01*
X252010706Y-135380150D01*
X251681572Y-135280308D01*
X251344248Y-135213210D01*
X251344249Y-135213210D01*
X251086456Y-135187821D01*
X251001969Y-135179500D01*
X250658031Y-135179500D01*
X250579966Y-135187188D01*
X250315750Y-135213210D01*
X249978427Y-135280308D01*
X249649293Y-135380150D01*
X249331535Y-135511770D01*
X249331530Y-135511772D01*
X249028224Y-135673893D01*
X249028206Y-135673904D01*
X248742248Y-135864975D01*
X248742234Y-135864985D01*
X248476367Y-136083176D01*
X248233176Y-136326367D01*
X248014985Y-136592234D01*
X248014975Y-136592248D01*
X247823904Y-136878206D01*
X247823893Y-136878224D01*
X247661772Y-137181530D01*
X247661770Y-137181535D01*
X247530150Y-137499293D01*
X247430308Y-137828427D01*
X247363210Y-138165750D01*
X247329500Y-138508034D01*
X206105500Y-138508034D01*
X206105500Y-133176088D01*
X206105499Y-133176081D01*
X206089797Y-133051069D01*
X206089795Y-133051060D01*
X206074629Y-132991640D01*
X206074627Y-132991635D01*
X206068044Y-132974904D01*
X206061814Y-132905313D01*
X206094197Y-132843401D01*
X206154911Y-132808825D01*
X206183432Y-132805500D01*
X208033826Y-132805500D01*
X208033828Y-132805500D01*
X208142047Y-132776503D01*
X208239073Y-132720485D01*
X215147485Y-125812073D01*
X215203503Y-125715047D01*
X215232500Y-125606828D01*
X215232500Y-125494792D01*
X215232500Y-114140398D01*
X215252185Y-114073359D01*
X215256183Y-114067511D01*
X215266832Y-114052854D01*
X215273996Y-114042994D01*
X215356211Y-113881639D01*
X215412171Y-113709409D01*
X215429955Y-113597124D01*
X215440500Y-113530551D01*
X215440500Y-113349448D01*
X215424019Y-113245397D01*
X215412171Y-113170591D01*
X215356211Y-112998361D01*
X215356211Y-112998360D01*
X215305760Y-112899346D01*
X215273996Y-112837006D01*
X215249158Y-112802819D01*
X215167558Y-112690505D01*
X215167554Y-112690500D01*
X215039499Y-112562445D01*
X215039494Y-112562441D01*
X214892997Y-112456006D01*
X214892996Y-112456005D01*
X214892994Y-112456004D01*
X214841300Y-112429664D01*
X214731639Y-112373788D01*
X214731636Y-112373787D01*
X214559410Y-112317829D01*
X214380551Y-112289500D01*
X214380546Y-112289500D01*
X214199454Y-112289500D01*
X214199449Y-112289500D01*
X214020589Y-112317829D01*
X213903402Y-112355905D01*
X213833560Y-112357900D01*
X213777403Y-112325655D01*
X213375265Y-111923517D01*
X213375263Y-111923515D01*
X213278237Y-111867497D01*
X213170018Y-111838500D01*
X210031019Y-111838500D01*
X209918982Y-111838500D01*
X209810763Y-111867497D01*
X209810760Y-111867498D01*
X209713740Y-111923513D01*
X209713734Y-111923517D01*
X209110071Y-112527181D01*
X209048748Y-112560666D01*
X209022390Y-112563500D01*
X179494419Y-112563500D01*
X179427380Y-112543815D01*
X179406738Y-112527181D01*
X174582819Y-107703261D01*
X174549334Y-107641938D01*
X174546500Y-107615580D01*
X174546500Y-106395258D01*
X178619500Y-106395258D01*
X178619500Y-106624741D01*
X178624212Y-106660528D01*
X178649452Y-106852238D01*
X178692501Y-107012900D01*
X178708842Y-107073887D01*
X178796650Y-107285876D01*
X178796657Y-107285890D01*
X178911392Y-107484617D01*
X179051081Y-107666661D01*
X179051089Y-107666670D01*
X179213330Y-107828911D01*
X179213338Y-107828918D01*
X179395382Y-107968607D01*
X179395385Y-107968608D01*
X179395388Y-107968611D01*
X179594112Y-108083344D01*
X179594117Y-108083346D01*
X179594123Y-108083349D01*
X179678324Y-108118226D01*
X179806113Y-108171158D01*
X180027762Y-108230548D01*
X180255266Y-108260500D01*
X180255273Y-108260500D01*
X180484727Y-108260500D01*
X180484734Y-108260500D01*
X180712238Y-108230548D01*
X180933887Y-108171158D01*
X181145888Y-108083344D01*
X181344612Y-107968611D01*
X181526661Y-107828919D01*
X181526665Y-107828914D01*
X181526670Y-107828911D01*
X181688911Y-107666670D01*
X181688914Y-107666665D01*
X181688919Y-107666661D01*
X181828611Y-107484612D01*
X181943344Y-107285888D01*
X182031158Y-107073887D01*
X182090548Y-106852238D01*
X182120500Y-106624734D01*
X182120500Y-106395266D01*
X182120499Y-106395258D01*
X228119500Y-106395258D01*
X228119500Y-106624741D01*
X228124212Y-106660528D01*
X228149452Y-106852238D01*
X228192501Y-107012900D01*
X228208842Y-107073887D01*
X228296650Y-107285876D01*
X228296657Y-107285890D01*
X228411392Y-107484617D01*
X228551081Y-107666661D01*
X228551089Y-107666670D01*
X228713330Y-107828911D01*
X228713338Y-107828918D01*
X228895382Y-107968607D01*
X228895385Y-107968608D01*
X228895388Y-107968611D01*
X229094112Y-108083344D01*
X229094117Y-108083346D01*
X229094123Y-108083349D01*
X229178324Y-108118226D01*
X229306113Y-108171158D01*
X229527762Y-108230548D01*
X229755266Y-108260500D01*
X229755273Y-108260500D01*
X229984727Y-108260500D01*
X229984734Y-108260500D01*
X230212238Y-108230548D01*
X230433887Y-108171158D01*
X230645888Y-108083344D01*
X230844612Y-107968611D01*
X231026661Y-107828919D01*
X231026665Y-107828914D01*
X231026670Y-107828911D01*
X231188911Y-107666670D01*
X231188914Y-107666665D01*
X231188919Y-107666661D01*
X231328611Y-107484612D01*
X231443344Y-107285888D01*
X231531158Y-107073887D01*
X231590548Y-106852238D01*
X231620500Y-106624734D01*
X231620500Y-106395266D01*
X231590548Y-106167762D01*
X231531158Y-105946113D01*
X231443344Y-105734112D01*
X231328611Y-105535388D01*
X231328608Y-105535385D01*
X231328607Y-105535382D01*
X231188918Y-105353338D01*
X231188911Y-105353330D01*
X231026670Y-105191089D01*
X231026661Y-105191081D01*
X230844617Y-105051392D01*
X230645890Y-104936657D01*
X230645876Y-104936650D01*
X230433887Y-104848842D01*
X230212238Y-104789452D01*
X230174215Y-104784446D01*
X229984741Y-104759500D01*
X229984734Y-104759500D01*
X229755266Y-104759500D01*
X229755258Y-104759500D01*
X229538715Y-104788009D01*
X229527762Y-104789452D01*
X229434076Y-104814554D01*
X229306112Y-104848842D01*
X229094123Y-104936650D01*
X229094109Y-104936657D01*
X228895382Y-105051392D01*
X228713338Y-105191081D01*
X228551081Y-105353338D01*
X228411392Y-105535382D01*
X228296657Y-105734109D01*
X228296650Y-105734123D01*
X228208842Y-105946112D01*
X228149453Y-106167759D01*
X228149451Y-106167770D01*
X228119500Y-106395258D01*
X182120499Y-106395258D01*
X182090548Y-106167762D01*
X182031158Y-105946113D01*
X181943344Y-105734112D01*
X181828611Y-105535388D01*
X181828608Y-105535385D01*
X181828607Y-105535382D01*
X181688918Y-105353338D01*
X181688911Y-105353330D01*
X181526670Y-105191089D01*
X181526661Y-105191081D01*
X181344617Y-105051392D01*
X181145890Y-104936657D01*
X181145876Y-104936650D01*
X180933887Y-104848842D01*
X180712238Y-104789452D01*
X180674215Y-104784446D01*
X180484741Y-104759500D01*
X180484734Y-104759500D01*
X180255266Y-104759500D01*
X180255258Y-104759500D01*
X180038715Y-104788009D01*
X180027762Y-104789452D01*
X179934076Y-104814554D01*
X179806112Y-104848842D01*
X179594123Y-104936650D01*
X179594109Y-104936657D01*
X179395382Y-105051392D01*
X179213338Y-105191081D01*
X179051081Y-105353338D01*
X178911392Y-105535382D01*
X178796657Y-105734109D01*
X178796650Y-105734123D01*
X178708842Y-105946112D01*
X178649453Y-106167759D01*
X178649451Y-106167770D01*
X178619500Y-106395258D01*
X174546500Y-106395258D01*
X174546500Y-96164984D01*
X174546500Y-96164982D01*
X174517503Y-96056763D01*
X174461485Y-95959737D01*
X174382263Y-95880515D01*
X172668037Y-94166289D01*
X172634552Y-94104966D01*
X172639536Y-94035274D01*
X172641145Y-94031184D01*
X172641669Y-94029920D01*
X172682500Y-93824647D01*
X172682500Y-93615353D01*
X172641669Y-93410080D01*
X172601622Y-93313399D01*
X172561576Y-93216719D01*
X172445296Y-93042693D01*
X172297306Y-92894703D01*
X172123280Y-92778423D01*
X171929920Y-92698331D01*
X171929912Y-92698329D01*
X171724651Y-92657500D01*
X171724647Y-92657500D01*
X171515353Y-92657500D01*
X171515348Y-92657500D01*
X171310087Y-92698329D01*
X171310079Y-92698331D01*
X171116719Y-92778423D01*
X170942693Y-92894703D01*
X170794703Y-93042693D01*
X170678423Y-93216719D01*
X170598331Y-93410079D01*
X170598329Y-93410087D01*
X170557500Y-93615348D01*
X170557500Y-93824651D01*
X170598329Y-94029912D01*
X170598331Y-94029920D01*
X170678423Y-94223280D01*
X170794703Y-94397306D01*
X170932216Y-94534819D01*
X170942828Y-94554255D01*
X170957329Y-94570989D01*
X170959245Y-94584320D01*
X170965701Y-94596142D01*
X170964121Y-94618228D01*
X170967273Y-94640147D01*
X170961677Y-94652398D01*
X170960717Y-94665834D01*
X170947446Y-94683560D01*
X170938248Y-94703703D01*
X170926916Y-94710985D01*
X170918845Y-94721767D01*
X170898099Y-94729504D01*
X170879470Y-94741477D01*
X170857551Y-94744628D01*
X170853381Y-94746184D01*
X170844535Y-94746500D01*
X170759610Y-94746500D01*
X170692571Y-94726815D01*
X170671929Y-94710181D01*
X170128037Y-94166289D01*
X170094552Y-94104966D01*
X170099536Y-94035274D01*
X170101145Y-94031184D01*
X170101669Y-94029920D01*
X170142500Y-93824647D01*
X170142500Y-93615353D01*
X170101669Y-93410080D01*
X170061622Y-93313399D01*
X170021576Y-93216719D01*
X169905296Y-93042693D01*
X169757306Y-92894703D01*
X169583280Y-92778423D01*
X169389920Y-92698331D01*
X169389912Y-92698329D01*
X169184651Y-92657500D01*
X169184647Y-92657500D01*
X168975353Y-92657500D01*
X168975348Y-92657500D01*
X168770087Y-92698329D01*
X168770079Y-92698331D01*
X168576719Y-92778423D01*
X168402693Y-92894703D01*
X168254703Y-93042693D01*
X168138423Y-93216719D01*
X168058331Y-93410079D01*
X168058329Y-93410087D01*
X168017500Y-93615348D01*
X168017500Y-93824651D01*
X168058329Y-94029912D01*
X168058331Y-94029920D01*
X168138423Y-94223280D01*
X168254703Y-94397306D01*
X168402693Y-94545296D01*
X168576719Y-94661576D01*
X168673399Y-94701622D01*
X168770080Y-94741669D01*
X168975348Y-94782499D01*
X168975352Y-94782500D01*
X168975353Y-94782500D01*
X169184648Y-94782500D01*
X169184649Y-94782499D01*
X169389920Y-94741669D01*
X169391154Y-94741157D01*
X169391851Y-94741082D01*
X169395747Y-94739901D01*
X169395971Y-94740639D01*
X169460621Y-94733688D01*
X169523101Y-94764960D01*
X169526289Y-94768037D01*
X170191515Y-95433263D01*
X170270737Y-95512485D01*
X170367763Y-95568503D01*
X170475982Y-95597500D01*
X170558796Y-95597500D01*
X170625835Y-95617185D01*
X170671590Y-95669989D01*
X170681534Y-95739147D01*
X170673357Y-95768953D01*
X170598331Y-95950079D01*
X170598329Y-95950087D01*
X170557500Y-96155348D01*
X170557500Y-96364651D01*
X170598329Y-96569912D01*
X170598331Y-96569920D01*
X170678423Y-96763280D01*
X170794703Y-96937306D01*
X170942693Y-97085296D01*
X171116719Y-97201576D01*
X171213399Y-97241622D01*
X171310080Y-97281669D01*
X171515348Y-97322499D01*
X171515352Y-97322500D01*
X171515353Y-97322500D01*
X171724648Y-97322500D01*
X171724649Y-97322499D01*
X171929920Y-97281669D01*
X172123282Y-97201575D01*
X172297304Y-97085298D01*
X172445298Y-96937304D01*
X172561575Y-96763282D01*
X172641669Y-96569920D01*
X172662195Y-96466726D01*
X172694578Y-96404820D01*
X172755293Y-96370245D01*
X172825063Y-96373984D01*
X172871492Y-96403240D01*
X173208181Y-96739929D01*
X173241666Y-96801252D01*
X173244500Y-96827610D01*
X173244500Y-99558745D01*
X173224815Y-99625784D01*
X173172011Y-99671539D01*
X173102853Y-99681483D01*
X173039297Y-99652458D01*
X173032819Y-99646426D01*
X172657681Y-99271288D01*
X172624196Y-99209965D01*
X172629180Y-99140273D01*
X172630781Y-99136204D01*
X172641669Y-99109920D01*
X172682500Y-98904647D01*
X172682500Y-98695353D01*
X172641669Y-98490080D01*
X172601622Y-98393399D01*
X172561576Y-98296719D01*
X172445296Y-98122693D01*
X172297306Y-97974703D01*
X172123280Y-97858423D01*
X171929920Y-97778331D01*
X171929912Y-97778329D01*
X171724651Y-97737500D01*
X171724647Y-97737500D01*
X171515353Y-97737500D01*
X171515348Y-97737500D01*
X171310087Y-97778329D01*
X171310079Y-97778331D01*
X171116719Y-97858423D01*
X170942693Y-97974703D01*
X170794703Y-98122693D01*
X170678423Y-98296719D01*
X170598331Y-98490079D01*
X170598329Y-98490087D01*
X170557500Y-98695348D01*
X170557500Y-98904651D01*
X170598329Y-99109912D01*
X170598331Y-99109920D01*
X170678425Y-99303283D01*
X170760829Y-99426610D01*
X170763865Y-99436308D01*
X170770521Y-99443989D01*
X170774130Y-99469088D01*
X170781707Y-99493287D01*
X170779018Y-99503086D01*
X170780465Y-99513147D01*
X170769930Y-99536215D01*
X170763222Y-99560667D01*
X170755662Y-99567457D01*
X170751440Y-99576703D01*
X170730105Y-99590413D01*
X170711243Y-99607357D01*
X170699646Y-99609988D01*
X170692662Y-99614477D01*
X170657727Y-99619500D01*
X170517254Y-99619500D01*
X170450215Y-99599815D01*
X170429573Y-99583181D01*
X170117681Y-99271289D01*
X170084196Y-99209966D01*
X170089180Y-99140274D01*
X170090803Y-99136151D01*
X170101667Y-99109924D01*
X170101669Y-99109920D01*
X170142500Y-98904647D01*
X170142500Y-98695353D01*
X170101669Y-98490080D01*
X170061622Y-98393399D01*
X170021576Y-98296719D01*
X169905296Y-98122693D01*
X169757306Y-97974703D01*
X169583280Y-97858423D01*
X169389920Y-97778331D01*
X169389912Y-97778329D01*
X169184651Y-97737500D01*
X169184647Y-97737500D01*
X168975353Y-97737500D01*
X168975348Y-97737500D01*
X168770087Y-97778329D01*
X168770079Y-97778331D01*
X168576719Y-97858423D01*
X168402693Y-97974703D01*
X168254703Y-98122693D01*
X168138423Y-98296719D01*
X168058331Y-98490079D01*
X168058329Y-98490087D01*
X168017500Y-98695348D01*
X168017500Y-98904651D01*
X168058329Y-99109912D01*
X168058331Y-99109920D01*
X168138423Y-99303280D01*
X168254703Y-99477306D01*
X168402693Y-99625296D01*
X168576719Y-99741576D01*
X168667296Y-99779094D01*
X168770080Y-99821669D01*
X168953268Y-99858107D01*
X168975348Y-99862499D01*
X168975352Y-99862500D01*
X168975353Y-99862500D01*
X169184648Y-99862500D01*
X169184649Y-99862499D01*
X169389920Y-99821669D01*
X169416152Y-99810802D01*
X169485620Y-99803331D01*
X169548101Y-99834604D01*
X169551289Y-99837681D01*
X169979518Y-100265910D01*
X169979520Y-100265913D01*
X170054087Y-100340480D01*
X170131432Y-100385135D01*
X170145413Y-100393207D01*
X170247273Y-100420501D01*
X170247275Y-100420501D01*
X170360323Y-100420501D01*
X170360339Y-100420500D01*
X170737535Y-100420500D01*
X170804574Y-100440185D01*
X170850329Y-100492989D01*
X170860273Y-100562147D01*
X170831248Y-100625703D01*
X170825216Y-100632181D01*
X170794704Y-100662692D01*
X170794703Y-100662693D01*
X170678423Y-100836719D01*
X170598331Y-101030079D01*
X170598329Y-101030087D01*
X170557500Y-101235348D01*
X170557500Y-101444651D01*
X170598329Y-101649912D01*
X170598331Y-101649920D01*
X170678423Y-101843280D01*
X170794703Y-102017306D01*
X170942693Y-102165296D01*
X171116721Y-102281577D01*
X171142952Y-102292442D01*
X171197356Y-102336283D01*
X171219421Y-102402577D01*
X171219500Y-102407003D01*
X171219500Y-102613745D01*
X171199815Y-102680784D01*
X171147011Y-102726539D01*
X171077853Y-102736483D01*
X171014297Y-102707458D01*
X171007819Y-102701426D01*
X170117681Y-101811288D01*
X170084196Y-101749965D01*
X170089180Y-101680273D01*
X170090781Y-101676204D01*
X170101669Y-101649920D01*
X170142500Y-101444647D01*
X170142500Y-101235353D01*
X170101669Y-101030080D01*
X170061622Y-100933399D01*
X170021576Y-100836719D01*
X169905296Y-100662693D01*
X169757306Y-100514703D01*
X169583280Y-100398423D01*
X169389920Y-100318331D01*
X169389912Y-100318329D01*
X169184651Y-100277500D01*
X169184647Y-100277500D01*
X168975353Y-100277500D01*
X168975348Y-100277500D01*
X168770087Y-100318329D01*
X168770079Y-100318331D01*
X168576719Y-100398423D01*
X168402693Y-100514703D01*
X168254703Y-100662693D01*
X168138423Y-100836719D01*
X168058331Y-101030079D01*
X168058329Y-101030087D01*
X168017500Y-101235348D01*
X168017500Y-101444651D01*
X168058329Y-101649912D01*
X168058331Y-101649920D01*
X168138423Y-101843280D01*
X168254703Y-102017306D01*
X168402693Y-102165296D01*
X168576719Y-102281576D01*
X168667296Y-102319094D01*
X168770080Y-102361669D01*
X168975348Y-102402499D01*
X168975352Y-102402500D01*
X168975353Y-102402500D01*
X169184648Y-102402500D01*
X169184649Y-102402499D01*
X169389920Y-102361669D01*
X169416152Y-102350802D01*
X169485618Y-102343331D01*
X169548099Y-102374603D01*
X169551288Y-102377681D01*
X170782181Y-103608574D01*
X170815666Y-103669897D01*
X170818500Y-103696255D01*
X170818500Y-108798826D01*
X170845793Y-108900689D01*
X170872156Y-108946350D01*
X170898520Y-108992013D01*
X171420970Y-109514463D01*
X177328520Y-115422013D01*
X177622419Y-115715912D01*
X177622420Y-115715913D01*
X177696987Y-115790480D01*
X177788313Y-115843207D01*
X177890173Y-115870500D01*
X177967273Y-115870500D01*
X178207273Y-115870500D01*
X201531745Y-115870500D01*
X201598784Y-115890185D01*
X201619426Y-115906819D01*
X205452181Y-119739574D01*
X205485666Y-119800897D01*
X205488500Y-119827255D01*
X205488500Y-127480744D01*
X205468815Y-127547783D01*
X205452181Y-127568425D01*
X205360000Y-127660606D01*
X205360000Y-126250000D01*
X201300334Y-126250000D01*
X201368709Y-126210524D01*
X201368708Y-126210524D01*
X201368716Y-126210520D01*
X201480520Y-126098716D01*
X201559577Y-125961784D01*
X201600500Y-125809057D01*
X201600500Y-125650943D01*
X201559577Y-125498216D01*
X201545885Y-125474500D01*
X201480524Y-125361290D01*
X201480518Y-125361282D01*
X201368717Y-125249481D01*
X201368709Y-125249475D01*
X201231790Y-125170426D01*
X201231786Y-125170424D01*
X201231784Y-125170423D01*
X201079057Y-125129500D01*
X200920943Y-125129500D01*
X200768216Y-125170423D01*
X200768209Y-125170426D01*
X200631290Y-125249475D01*
X200631282Y-125249481D01*
X200519481Y-125361282D01*
X200519475Y-125361290D01*
X200440426Y-125498209D01*
X200440421Y-125498220D01*
X200418440Y-125580252D01*
X200386347Y-125635838D01*
X200027681Y-125994505D01*
X199966358Y-126027990D01*
X199896667Y-126023006D01*
X199852319Y-125994505D01*
X194817316Y-120959502D01*
X194817314Y-120959500D01*
X194760250Y-120926554D01*
X194703187Y-120893608D01*
X194639539Y-120876554D01*
X194575892Y-120859500D01*
X194575891Y-120859500D01*
X172538675Y-120859500D01*
X172471636Y-120839815D01*
X172450994Y-120823181D01*
X172116818Y-120489005D01*
X172083333Y-120427682D01*
X172080499Y-120401324D01*
X172080499Y-119115143D01*
X172080499Y-119115136D01*
X172080497Y-119115117D01*
X172077586Y-119090012D01*
X172077585Y-119090010D01*
X172077585Y-119090009D01*
X172032206Y-118987235D01*
X171952765Y-118907794D01*
X171952763Y-118907793D01*
X171849992Y-118862415D01*
X171824865Y-118859500D01*
X170035143Y-118859500D01*
X170035117Y-118859502D01*
X170010012Y-118862413D01*
X170010008Y-118862415D01*
X169907235Y-118907793D01*
X169827794Y-118987234D01*
X169782415Y-119090006D01*
X169782415Y-119090008D01*
X169779500Y-119115131D01*
X169779500Y-120904856D01*
X169779502Y-120904882D01*
X169782413Y-120929987D01*
X169782415Y-120929991D01*
X169827793Y-121032764D01*
X169827794Y-121032765D01*
X169907235Y-121112206D01*
X170010009Y-121157585D01*
X170035135Y-121160500D01*
X171321323Y-121160499D01*
X171388362Y-121180184D01*
X171409004Y-121196818D01*
X171875159Y-121662972D01*
X171875169Y-121662983D01*
X171879499Y-121667313D01*
X171879500Y-121667314D01*
X171972686Y-121760500D01*
X172086814Y-121826392D01*
X172214107Y-121860500D01*
X172214108Y-121860500D01*
X194251324Y-121860500D01*
X194318363Y-121880185D01*
X194339005Y-121896819D01*
X198716697Y-126274511D01*
X198720000Y-126280559D01*
X198720000Y-127084060D01*
X198709815Y-127118746D01*
X198657011Y-127164501D01*
X198587853Y-127174445D01*
X198524300Y-127145421D01*
X198430836Y-127064433D01*
X198430833Y-127064431D01*
X198430831Y-127064430D01*
X198299965Y-127004664D01*
X198299960Y-127004662D01*
X198299959Y-127004662D01*
X198240692Y-126987259D01*
X198232917Y-126984976D01*
X198170847Y-126976052D01*
X198090500Y-126964500D01*
X193134499Y-126964500D01*
X193134490Y-126964500D01*
X193027048Y-126976052D01*
X193027038Y-126976054D01*
X192975527Y-126987260D01*
X192872991Y-127021387D01*
X192872989Y-127021388D01*
X192751954Y-127099175D01*
X192751950Y-127099179D01*
X192699148Y-127144933D01*
X192604935Y-127253660D01*
X192545159Y-127384545D01*
X192545158Y-127384548D01*
X192526106Y-127449431D01*
X192525607Y-127451022D01*
X192525474Y-127451584D01*
X192504999Y-127593998D01*
X192504999Y-129820999D01*
X192485314Y-129888038D01*
X192432510Y-129933793D01*
X192380999Y-129944999D01*
X188409000Y-129944999D01*
X188341961Y-129925314D01*
X188296206Y-129872510D01*
X188285000Y-129820999D01*
X188285000Y-127594010D01*
X188285000Y-127594000D01*
X188273447Y-127486544D01*
X188262241Y-127435033D01*
X188245437Y-127384545D01*
X188228116Y-127332502D01*
X188228113Y-127332496D01*
X188196265Y-127282940D01*
X188150325Y-127211457D01*
X188118254Y-127174445D01*
X188104576Y-127158659D01*
X188104572Y-127158656D01*
X188104570Y-127158653D01*
X187995836Y-127064433D01*
X187995833Y-127064431D01*
X187995831Y-127064430D01*
X187864965Y-127004664D01*
X187864960Y-127004662D01*
X187864959Y-127004662D01*
X187805692Y-126987259D01*
X187797917Y-126984976D01*
X187735847Y-126976052D01*
X187655500Y-126964500D01*
X187054000Y-126964500D01*
X187053991Y-126964500D01*
X187053990Y-126964501D01*
X186946549Y-126976052D01*
X186946537Y-126976054D01*
X186895027Y-126987260D01*
X186792502Y-127021383D01*
X186792496Y-127021386D01*
X186671462Y-127099171D01*
X186671451Y-127099179D01*
X186618659Y-127144923D01*
X186539005Y-127236847D01*
X186480226Y-127274621D01*
X186410357Y-127274620D01*
X186351579Y-127236845D01*
X186323964Y-127181241D01*
X186322244Y-127173087D01*
X186319315Y-127166016D01*
X186313617Y-127153112D01*
X186248047Y-127061978D01*
X186153984Y-127000685D01*
X186146913Y-126997756D01*
X186140359Y-126995130D01*
X186030000Y-126974500D01*
X186029998Y-126974500D01*
X179969500Y-126974500D01*
X179902461Y-126954815D01*
X179856706Y-126902011D01*
X179845500Y-126850500D01*
X179845500Y-125790029D01*
X179845500Y-125790000D01*
X179845418Y-125782940D01*
X179822244Y-125673087D01*
X179822230Y-125673054D01*
X179819325Y-125666040D01*
X179819315Y-125666017D01*
X179819315Y-125666016D01*
X179813617Y-125653112D01*
X179748047Y-125561978D01*
X179653984Y-125500685D01*
X179653957Y-125500674D01*
X179652664Y-125500138D01*
X179646913Y-125497756D01*
X179640359Y-125495130D01*
X179530000Y-125474500D01*
X175510000Y-125474500D01*
X175502940Y-125474582D01*
X175393081Y-125497757D01*
X175386040Y-125500674D01*
X175373114Y-125506382D01*
X175373112Y-125506383D01*
X175373111Y-125506384D01*
X175281978Y-125571952D01*
X175281978Y-125571953D01*
X175220684Y-125666017D01*
X175218821Y-125670515D01*
X175217756Y-125673087D01*
X175215130Y-125679641D01*
X175215129Y-125679643D01*
X175215129Y-125679645D01*
X175208511Y-125715047D01*
X175194500Y-125790000D01*
X175194500Y-136790000D01*
X175194582Y-136797060D01*
X175211700Y-136878206D01*
X175217757Y-136906918D01*
X175220674Y-136913959D01*
X175220684Y-136913982D01*
X175220685Y-136913984D01*
X175226383Y-136926888D01*
X175291953Y-137018022D01*
X175386016Y-137079315D01*
X175393087Y-137082244D01*
X175399641Y-137084870D01*
X175510000Y-137105500D01*
X175510002Y-137105500D01*
X179529970Y-137105500D01*
X179530000Y-137105500D01*
X179537060Y-137105418D01*
X179646913Y-137082244D01*
X179653984Y-137079315D01*
X179666888Y-137073617D01*
X179758022Y-137008047D01*
X179819315Y-136913984D01*
X179822244Y-136906913D01*
X179824870Y-136900359D01*
X179845500Y-136790000D01*
X179845500Y-135729500D01*
X179865185Y-135662461D01*
X179917989Y-135616706D01*
X179969500Y-135605500D01*
X186029970Y-135605500D01*
X186030000Y-135605500D01*
X186037060Y-135605418D01*
X186146913Y-135582244D01*
X186153984Y-135579315D01*
X186166888Y-135573617D01*
X186228080Y-135529590D01*
X186293994Y-135506415D01*
X186361974Y-135522555D01*
X186410436Y-135572885D01*
X186424500Y-135630244D01*
X186424500Y-143235500D01*
X186404815Y-143302539D01*
X186352011Y-143348294D01*
X186300500Y-143359500D01*
X167977341Y-143359500D01*
X167910302Y-143339815D01*
X167864547Y-143287011D01*
X167854603Y-143217853D01*
X167883628Y-143154297D01*
X167898676Y-143139647D01*
X167975895Y-143076275D01*
X168133627Y-142946828D01*
X168376828Y-142703627D01*
X168595019Y-142437760D01*
X168786100Y-142151787D01*
X168948231Y-141848462D01*
X169079850Y-141530705D01*
X169179690Y-141201578D01*
X169246789Y-140864250D01*
X169280500Y-140521969D01*
X169280500Y-140178031D01*
X169246789Y-139835750D01*
X169179690Y-139498422D01*
X169079850Y-139169295D01*
X168948231Y-138851538D01*
X168789499Y-138554573D01*
X168786106Y-138548224D01*
X168786105Y-138548222D01*
X168786100Y-138548213D01*
X168595019Y-138262240D01*
X168376828Y-137996373D01*
X168376827Y-137996372D01*
X168376823Y-137996367D01*
X168133632Y-137753176D01*
X167867765Y-137534985D01*
X167867764Y-137534984D01*
X167867760Y-137534981D01*
X167581787Y-137343900D01*
X167581782Y-137343897D01*
X167581775Y-137343893D01*
X167278469Y-137181772D01*
X167278464Y-137181770D01*
X166960706Y-137050150D01*
X166631572Y-136950308D01*
X166294248Y-136883210D01*
X166294249Y-136883210D01*
X166036456Y-136857821D01*
X165951969Y-136849500D01*
X165608031Y-136849500D01*
X165529966Y-136857188D01*
X165265750Y-136883210D01*
X164928427Y-136950308D01*
X164599293Y-137050150D01*
X164281535Y-137181770D01*
X164281530Y-137181772D01*
X163978224Y-137343893D01*
X163978206Y-137343904D01*
X163692248Y-137534975D01*
X163692234Y-137534985D01*
X163426367Y-137753176D01*
X163183176Y-137996367D01*
X162990353Y-138231324D01*
X162932608Y-138270658D01*
X162862763Y-138272529D01*
X162802995Y-138236342D01*
X162772279Y-138173586D01*
X162770500Y-138152659D01*
X162770500Y-96155348D01*
X168017500Y-96155348D01*
X168017500Y-96364651D01*
X168058329Y-96569912D01*
X168058331Y-96569920D01*
X168138423Y-96763280D01*
X168254703Y-96937306D01*
X168402693Y-97085296D01*
X168576719Y-97201576D01*
X168673399Y-97241622D01*
X168770080Y-97281669D01*
X168975348Y-97322499D01*
X168975352Y-97322500D01*
X168975353Y-97322500D01*
X169184648Y-97322500D01*
X169184649Y-97322499D01*
X169389920Y-97281669D01*
X169583282Y-97201575D01*
X169757304Y-97085298D01*
X169905298Y-96937304D01*
X170021575Y-96763282D01*
X170101669Y-96569920D01*
X170142500Y-96364647D01*
X170142500Y-96155353D01*
X170101669Y-95950080D01*
X170026643Y-95768953D01*
X170021576Y-95756719D01*
X169905296Y-95582693D01*
X169757306Y-95434703D01*
X169583280Y-95318423D01*
X169389920Y-95238331D01*
X169389912Y-95238329D01*
X169184651Y-95197500D01*
X169184647Y-95197500D01*
X168975353Y-95197500D01*
X168975348Y-95197500D01*
X168770087Y-95238329D01*
X168770079Y-95238331D01*
X168576719Y-95318423D01*
X168402693Y-95434703D01*
X168254703Y-95582693D01*
X168138423Y-95756719D01*
X168058331Y-95950079D01*
X168058329Y-95950087D01*
X168017500Y-96155348D01*
X162770500Y-96155348D01*
X162770500Y-73765133D01*
X194504431Y-73765133D01*
X194504431Y-75654858D01*
X194504433Y-75654884D01*
X194507344Y-75679989D01*
X194507346Y-75679993D01*
X194552724Y-75782766D01*
X194552725Y-75782767D01*
X194632166Y-75862208D01*
X194734940Y-75907587D01*
X194760066Y-75910502D01*
X195399795Y-75910501D01*
X195399810Y-75910499D01*
X195399813Y-75910499D01*
X195424917Y-75907588D01*
X195424918Y-75907587D01*
X195424922Y-75907587D01*
X195429840Y-75905415D01*
X195499114Y-75896340D01*
X195530017Y-75905413D01*
X195530022Y-75905415D01*
X195534941Y-75907587D01*
X195560067Y-75910502D01*
X196199796Y-75910501D01*
X196199811Y-75910499D01*
X196199814Y-75910499D01*
X196224917Y-75907588D01*
X196224919Y-75907587D01*
X196224923Y-75907587D01*
X196229842Y-75905414D01*
X196299119Y-75896342D01*
X196330012Y-75905411D01*
X196334939Y-75907587D01*
X196360065Y-75910502D01*
X196999794Y-75910501D01*
X196999809Y-75910499D01*
X196999812Y-75910499D01*
X197024916Y-75907588D01*
X197024917Y-75907587D01*
X197024921Y-75907587D01*
X197029839Y-75905415D01*
X197099113Y-75896340D01*
X197130016Y-75905413D01*
X197130021Y-75905415D01*
X197134940Y-75907587D01*
X197160066Y-75910502D01*
X197799795Y-75910501D01*
X197799810Y-75910499D01*
X197799813Y-75910499D01*
X197824917Y-75907588D01*
X197824918Y-75907587D01*
X197824922Y-75907587D01*
X197829840Y-75905415D01*
X197899114Y-75896340D01*
X197930017Y-75905413D01*
X197930022Y-75905415D01*
X197934941Y-75907587D01*
X197960067Y-75910502D01*
X198599796Y-75910501D01*
X198599811Y-75910499D01*
X198599814Y-75910499D01*
X198624917Y-75907588D01*
X198624919Y-75907587D01*
X198624923Y-75907587D01*
X198629842Y-75905414D01*
X198699119Y-75896342D01*
X198730017Y-75905414D01*
X198734935Y-75907585D01*
X198734940Y-75907587D01*
X198760066Y-75910502D01*
X199399795Y-75910501D01*
X199399810Y-75910499D01*
X199399813Y-75910499D01*
X199424917Y-75907588D01*
X199424918Y-75907587D01*
X199424922Y-75907587D01*
X199429840Y-75905415D01*
X199499114Y-75896340D01*
X199530015Y-75905412D01*
X199534940Y-75907587D01*
X199560066Y-75910502D01*
X200199795Y-75910501D01*
X200199810Y-75910499D01*
X200199813Y-75910499D01*
X200224916Y-75907588D01*
X200224918Y-75907587D01*
X200224922Y-75907587D01*
X200229841Y-75905414D01*
X200299118Y-75896342D01*
X200330016Y-75905414D01*
X200334934Y-75907585D01*
X200334939Y-75907587D01*
X200360065Y-75910502D01*
X200999794Y-75910501D01*
X200999809Y-75910499D01*
X200999812Y-75910499D01*
X201024916Y-75907588D01*
X201024917Y-75907587D01*
X201024921Y-75907587D01*
X201029839Y-75905415D01*
X201099113Y-75896340D01*
X201130016Y-75905413D01*
X201130021Y-75905415D01*
X201134940Y-75907587D01*
X201160066Y-75910502D01*
X201799795Y-75910501D01*
X201799810Y-75910499D01*
X201799813Y-75910499D01*
X201824918Y-75907588D01*
X201824919Y-75907587D01*
X201824922Y-75907587D01*
X201927696Y-75862208D01*
X202007137Y-75782767D01*
X202052516Y-75679993D01*
X202055431Y-75654867D01*
X202055430Y-73765138D01*
X202054892Y-73760499D01*
X202052517Y-73740014D01*
X202052516Y-73740012D01*
X202052516Y-73740011D01*
X202007137Y-73637237D01*
X201927696Y-73557796D01*
X201927694Y-73557795D01*
X201824923Y-73512417D01*
X201799796Y-73509502D01*
X201160074Y-73509502D01*
X201160050Y-73509504D01*
X201134945Y-73512415D01*
X201134937Y-73512418D01*
X201130011Y-73514593D01*
X201060732Y-73523661D01*
X201029847Y-73514592D01*
X201024921Y-73512417D01*
X200999795Y-73509502D01*
X200360073Y-73509502D01*
X200360049Y-73509504D01*
X200334940Y-73512416D01*
X200334934Y-73512417D01*
X200330010Y-73514592D01*
X200260731Y-73523660D01*
X200229847Y-73514591D01*
X200224923Y-73512417D01*
X200199796Y-73509502D01*
X199560074Y-73509502D01*
X199560050Y-73509504D01*
X199534941Y-73512416D01*
X199534932Y-73512418D01*
X199530007Y-73514593D01*
X199460728Y-73523659D01*
X199429851Y-73514592D01*
X199424930Y-73512419D01*
X199424923Y-73512417D01*
X199424922Y-73512417D01*
X199399796Y-73509502D01*
X198760074Y-73509502D01*
X198760050Y-73509504D01*
X198734941Y-73512416D01*
X198734935Y-73512417D01*
X198730011Y-73514592D01*
X198660732Y-73523660D01*
X198629848Y-73514591D01*
X198624924Y-73512417D01*
X198599797Y-73509502D01*
X197960075Y-73509502D01*
X197960051Y-73509504D01*
X197934946Y-73512415D01*
X197934938Y-73512418D01*
X197930012Y-73514593D01*
X197860733Y-73523661D01*
X197829848Y-73514592D01*
X197824922Y-73512417D01*
X197799796Y-73509502D01*
X197160074Y-73509502D01*
X197160050Y-73509504D01*
X197134945Y-73512415D01*
X197134937Y-73512418D01*
X197130011Y-73514593D01*
X197060732Y-73523661D01*
X197029847Y-73514592D01*
X197024921Y-73512417D01*
X196999795Y-73509502D01*
X196360073Y-73509502D01*
X196360047Y-73509504D01*
X196334944Y-73512415D01*
X196334936Y-73512417D01*
X196330007Y-73514594D01*
X196260728Y-73523659D01*
X196229848Y-73514591D01*
X196224924Y-73512417D01*
X196199797Y-73509502D01*
X195560075Y-73509502D01*
X195560051Y-73509504D01*
X195534946Y-73512415D01*
X195534938Y-73512418D01*
X195530012Y-73514593D01*
X195460733Y-73523661D01*
X195429848Y-73514592D01*
X195424922Y-73512417D01*
X195399796Y-73509502D01*
X194760074Y-73509502D01*
X194760048Y-73509504D01*
X194734943Y-73512415D01*
X194734939Y-73512417D01*
X194632166Y-73557795D01*
X194552725Y-73637236D01*
X194507346Y-73740008D01*
X194507346Y-73740010D01*
X194504431Y-73765133D01*
X162770500Y-73765133D01*
X162770500Y-71895258D01*
X178619500Y-71895258D01*
X178619500Y-72124741D01*
X178641780Y-72293967D01*
X178649452Y-72352238D01*
X178708842Y-72573887D01*
X178796650Y-72785876D01*
X178796657Y-72785890D01*
X178911392Y-72984617D01*
X179051081Y-73166661D01*
X179051089Y-73166670D01*
X179213330Y-73328911D01*
X179213338Y-73328918D01*
X179395382Y-73468607D01*
X179395385Y-73468608D01*
X179395388Y-73468611D01*
X179594112Y-73583344D01*
X179594117Y-73583346D01*
X179594123Y-73583349D01*
X179653144Y-73607796D01*
X179806113Y-73671158D01*
X180027762Y-73730548D01*
X180255266Y-73760500D01*
X180255273Y-73760500D01*
X180484727Y-73760500D01*
X180484734Y-73760500D01*
X180712238Y-73730548D01*
X180933887Y-73671158D01*
X181145888Y-73583344D01*
X181344612Y-73468611D01*
X181526661Y-73328919D01*
X181526665Y-73328914D01*
X181526670Y-73328911D01*
X181688911Y-73166670D01*
X181688914Y-73166665D01*
X181688919Y-73166661D01*
X181828611Y-72984612D01*
X181943344Y-72785888D01*
X182031158Y-72573887D01*
X182090548Y-72352238D01*
X182120500Y-72124734D01*
X182120500Y-71895266D01*
X182090548Y-71667762D01*
X182031158Y-71446113D01*
X181943344Y-71234112D01*
X181828611Y-71035388D01*
X181828608Y-71035385D01*
X181828607Y-71035382D01*
X181688918Y-70853338D01*
X181688911Y-70853330D01*
X181526670Y-70691089D01*
X181526661Y-70691081D01*
X181344617Y-70551392D01*
X181145890Y-70436657D01*
X181145876Y-70436650D01*
X180933887Y-70348842D01*
X180712238Y-70289452D01*
X180674215Y-70284446D01*
X180484741Y-70259500D01*
X180484734Y-70259500D01*
X180255266Y-70259500D01*
X180255258Y-70259500D01*
X180038715Y-70288009D01*
X180027762Y-70289452D01*
X179934076Y-70314554D01*
X179806112Y-70348842D01*
X179594123Y-70436650D01*
X179594109Y-70436657D01*
X179395382Y-70551392D01*
X179213338Y-70691081D01*
X179051081Y-70853338D01*
X178911392Y-71035382D01*
X178796657Y-71234109D01*
X178796650Y-71234123D01*
X178708842Y-71446112D01*
X178677736Y-71562205D01*
X178651382Y-71660561D01*
X178649453Y-71667759D01*
X178649451Y-71667770D01*
X178619500Y-71895258D01*
X162770500Y-71895258D01*
X162770500Y-69465131D01*
X193704433Y-69465131D01*
X193704433Y-71354856D01*
X193704435Y-71354882D01*
X193707346Y-71379987D01*
X193707348Y-71379991D01*
X193752726Y-71482764D01*
X193752727Y-71482765D01*
X193832168Y-71562206D01*
X193934942Y-71607585D01*
X193960068Y-71610500D01*
X194599797Y-71610499D01*
X194599812Y-71610497D01*
X194599815Y-71610497D01*
X194624918Y-71607586D01*
X194624920Y-71607585D01*
X194624924Y-71607585D01*
X194629843Y-71605412D01*
X194699120Y-71596340D01*
X194730013Y-71605409D01*
X194734940Y-71607585D01*
X194760066Y-71610500D01*
X195399795Y-71610499D01*
X195399810Y-71610497D01*
X195399813Y-71610497D01*
X195424917Y-71607586D01*
X195424918Y-71607585D01*
X195424922Y-71607585D01*
X195429840Y-71605413D01*
X195499114Y-71596338D01*
X195530017Y-71605411D01*
X195534941Y-71607585D01*
X195560067Y-71610500D01*
X196199796Y-71610499D01*
X196199811Y-71610497D01*
X196199814Y-71610497D01*
X196224917Y-71607586D01*
X196224919Y-71607585D01*
X196224923Y-71607585D01*
X196229842Y-71605412D01*
X196299119Y-71596340D01*
X196330012Y-71605409D01*
X196334939Y-71607585D01*
X196360065Y-71610500D01*
X196999794Y-71610499D01*
X196999809Y-71610497D01*
X196999812Y-71610497D01*
X197024917Y-71607586D01*
X197024918Y-71607585D01*
X197024921Y-71607585D01*
X197127695Y-71562206D01*
X197207136Y-71482765D01*
X197252515Y-71379991D01*
X197255430Y-71354865D01*
X197255429Y-69465136D01*
X197255429Y-69465135D01*
X197255429Y-69465131D01*
X197704432Y-69465131D01*
X197704432Y-71354856D01*
X197704434Y-71354882D01*
X197707345Y-71379987D01*
X197707347Y-71379991D01*
X197752725Y-71482764D01*
X197752726Y-71482765D01*
X197832167Y-71562206D01*
X197934941Y-71607585D01*
X197960067Y-71610500D01*
X198353571Y-71610499D01*
X198420609Y-71630183D01*
X198466364Y-71682987D01*
X198476308Y-71752146D01*
X198473346Y-71766589D01*
X198469500Y-71780943D01*
X198469500Y-71939057D01*
X198507744Y-72081783D01*
X198510423Y-72091783D01*
X198510426Y-72091790D01*
X198589475Y-72228709D01*
X198589479Y-72228714D01*
X198589480Y-72228716D01*
X198701284Y-72340520D01*
X198701286Y-72340521D01*
X198701290Y-72340524D01*
X198820895Y-72409577D01*
X198838216Y-72419577D01*
X198990943Y-72460500D01*
X198990945Y-72460500D01*
X199149055Y-72460500D01*
X199149057Y-72460500D01*
X199301784Y-72419577D01*
X199416660Y-72353254D01*
X199484561Y-72336781D01*
X199540659Y-72353253D01*
X199638216Y-72409577D01*
X199790943Y-72450500D01*
X199790945Y-72450500D01*
X199949055Y-72450500D01*
X199949057Y-72450500D01*
X200101784Y-72409577D01*
X200216394Y-72343407D01*
X200284291Y-72326935D01*
X200340390Y-72343407D01*
X200437679Y-72399577D01*
X200590406Y-72440500D01*
X200590408Y-72440500D01*
X200748518Y-72440500D01*
X200748520Y-72440500D01*
X200901247Y-72399577D01*
X200999074Y-72343096D01*
X201066969Y-72326625D01*
X201123069Y-72343097D01*
X201238216Y-72409577D01*
X201390943Y-72450500D01*
X201390945Y-72450500D01*
X201549055Y-72450500D01*
X201549057Y-72450500D01*
X201701784Y-72409577D01*
X201838716Y-72330520D01*
X201950520Y-72218716D01*
X202029577Y-72081784D01*
X202070500Y-71929057D01*
X202070500Y-71770943D01*
X202029577Y-71618216D01*
X202014442Y-71592001D01*
X201997969Y-71524100D01*
X202008394Y-71479918D01*
X202052516Y-71379991D01*
X202055431Y-71354865D01*
X202055430Y-69515192D01*
X207858410Y-69515192D01*
X207858410Y-71404917D01*
X207858412Y-71404943D01*
X207861323Y-71430048D01*
X207861325Y-71430052D01*
X207906703Y-71532825D01*
X207906704Y-71532826D01*
X207986145Y-71612267D01*
X208088919Y-71657646D01*
X208114045Y-71660561D01*
X208225500Y-71660560D01*
X208292539Y-71680244D01*
X208338294Y-71733048D01*
X208349500Y-71784560D01*
X208349500Y-73435502D01*
X208329815Y-73502541D01*
X208277011Y-73548296D01*
X208225501Y-73559502D01*
X208114053Y-73559502D01*
X208114030Y-73559504D01*
X208088922Y-73562416D01*
X208088919Y-73562417D01*
X207986146Y-73607795D01*
X207906705Y-73687236D01*
X207861326Y-73790008D01*
X207861326Y-73790010D01*
X207858411Y-73815133D01*
X207858411Y-75704858D01*
X207858413Y-75704884D01*
X207861324Y-75729989D01*
X207861326Y-75729993D01*
X207906704Y-75832766D01*
X207906705Y-75832767D01*
X207986146Y-75912208D01*
X208088920Y-75957587D01*
X208114046Y-75960502D01*
X208173569Y-75960501D01*
X208240607Y-75980184D01*
X208286363Y-76032988D01*
X208296307Y-76102146D01*
X208293345Y-76116588D01*
X208289501Y-76130936D01*
X208289500Y-76130941D01*
X208289500Y-76130943D01*
X208289500Y-76289057D01*
X208327744Y-76431783D01*
X208330423Y-76441783D01*
X208330426Y-76441790D01*
X208409475Y-76578709D01*
X208409479Y-76578714D01*
X208409480Y-76578716D01*
X208521284Y-76690520D01*
X208521286Y-76690521D01*
X208521290Y-76690524D01*
X208658209Y-76769573D01*
X208658216Y-76769577D01*
X208810943Y-76810500D01*
X208810945Y-76810500D01*
X208969055Y-76810500D01*
X208969057Y-76810500D01*
X209121784Y-76769577D01*
X209258716Y-76690520D01*
X209370520Y-76578716D01*
X209428495Y-76478298D01*
X209479060Y-76430085D01*
X209547667Y-76416861D01*
X209612532Y-76442829D01*
X209643268Y-76478299D01*
X209693425Y-76565173D01*
X209693427Y-76565175D01*
X210163181Y-77034929D01*
X210196666Y-77096252D01*
X210199500Y-77122610D01*
X210199500Y-77149056D01*
X210240423Y-77301783D01*
X210240426Y-77301790D01*
X210319475Y-77438709D01*
X210319479Y-77438714D01*
X210319480Y-77438716D01*
X210431284Y-77550520D01*
X210431286Y-77550521D01*
X210431290Y-77550524D01*
X210568209Y-77629573D01*
X210568216Y-77629577D01*
X210720943Y-77670500D01*
X210720945Y-77670500D01*
X210879055Y-77670500D01*
X210879057Y-77670500D01*
X211031784Y-77629577D01*
X211168716Y-77550520D01*
X211280520Y-77438716D01*
X211359577Y-77301784D01*
X211400500Y-77149057D01*
X211400500Y-76990943D01*
X211359577Y-76838216D01*
X211290550Y-76718657D01*
X211274078Y-76650759D01*
X211296931Y-76584732D01*
X211310253Y-76568982D01*
X211310520Y-76568716D01*
X211389577Y-76431784D01*
X211430500Y-76279057D01*
X211430500Y-76120943D01*
X211429350Y-76116651D01*
X211429439Y-76112891D01*
X211429439Y-76112886D01*
X211431013Y-76046805D01*
X211470175Y-75988942D01*
X211534403Y-75961437D01*
X211549125Y-75960560D01*
X211953766Y-75960560D01*
X211953774Y-75960560D01*
X211953789Y-75960558D01*
X211953792Y-75960558D01*
X211978896Y-75957647D01*
X211978897Y-75957646D01*
X211978901Y-75957646D01*
X211983819Y-75955474D01*
X212053093Y-75946399D01*
X212083994Y-75955471D01*
X212088919Y-75957646D01*
X212114045Y-75960561D01*
X212753774Y-75960560D01*
X212753789Y-75960558D01*
X212753792Y-75960558D01*
X212778896Y-75957647D01*
X212778897Y-75957646D01*
X212778901Y-75957646D01*
X212783819Y-75955474D01*
X212853093Y-75946399D01*
X212883994Y-75955471D01*
X212888919Y-75957646D01*
X212914045Y-75960561D01*
X213553774Y-75960560D01*
X213553789Y-75960558D01*
X213553792Y-75960558D01*
X213578896Y-75957647D01*
X213578897Y-75957646D01*
X213578901Y-75957646D01*
X213583819Y-75955474D01*
X213653093Y-75946399D01*
X213683994Y-75955471D01*
X213688919Y-75957646D01*
X213714045Y-75960561D01*
X214353774Y-75960560D01*
X214353789Y-75960558D01*
X214353792Y-75960558D01*
X214378895Y-75957647D01*
X214378897Y-75957646D01*
X214378901Y-75957646D01*
X214383886Y-75955444D01*
X214453161Y-75946370D01*
X214484061Y-75955442D01*
X214488918Y-75957587D01*
X214514044Y-75960502D01*
X215153773Y-75960501D01*
X215153788Y-75960499D01*
X215153791Y-75960499D01*
X215178895Y-75957588D01*
X215178896Y-75957587D01*
X215178900Y-75957587D01*
X215183818Y-75955415D01*
X215253092Y-75946340D01*
X215283993Y-75955412D01*
X215288918Y-75957587D01*
X215314044Y-75960502D01*
X215953773Y-75960501D01*
X215953788Y-75960499D01*
X215953791Y-75960499D01*
X215978894Y-75957588D01*
X215978896Y-75957587D01*
X215978900Y-75957587D01*
X215983819Y-75955414D01*
X216053096Y-75946342D01*
X216083994Y-75955414D01*
X216088912Y-75957585D01*
X216088917Y-75957587D01*
X216114043Y-75960502D01*
X216753772Y-75960501D01*
X216753787Y-75960499D01*
X216753790Y-75960499D01*
X216778894Y-75957588D01*
X216778895Y-75957587D01*
X216778899Y-75957587D01*
X216783817Y-75955415D01*
X216853091Y-75946340D01*
X216883994Y-75955413D01*
X216886609Y-75956567D01*
X216888918Y-75957587D01*
X216914044Y-75960502D01*
X217553773Y-75960501D01*
X217553788Y-75960499D01*
X217553791Y-75960499D01*
X217578896Y-75957588D01*
X217578897Y-75957587D01*
X217578900Y-75957587D01*
X217681674Y-75912208D01*
X217761115Y-75832767D01*
X217806494Y-75729993D01*
X217809409Y-75704867D01*
X217809409Y-75384502D01*
X217829094Y-75317463D01*
X217881898Y-75271708D01*
X217933409Y-75260502D01*
X225651326Y-75260502D01*
X225718365Y-75280187D01*
X225739007Y-75296821D01*
X235028181Y-84585995D01*
X235061666Y-84647318D01*
X235064500Y-84673676D01*
X235064500Y-106846000D01*
X235064501Y-106846009D01*
X235076052Y-106953450D01*
X235076054Y-106953462D01*
X235087260Y-107004972D01*
X235121383Y-107107497D01*
X235121386Y-107107503D01*
X235199171Y-107228537D01*
X235199179Y-107228548D01*
X235244923Y-107281340D01*
X235244926Y-107281343D01*
X235244930Y-107281347D01*
X235353664Y-107375567D01*
X235353667Y-107375568D01*
X235353668Y-107375569D01*
X235403898Y-107398509D01*
X235484541Y-107435338D01*
X235551580Y-107455023D01*
X235551584Y-107455024D01*
X235694000Y-107475500D01*
X235694003Y-107475500D01*
X245611450Y-107475500D01*
X245611456Y-107475500D01*
X245736455Y-107459801D01*
X245795878Y-107444636D01*
X245913126Y-107398509D01*
X246028311Y-107312288D01*
X246077718Y-107262884D01*
X246163945Y-107147706D01*
X246214230Y-107012899D01*
X246229084Y-106944627D01*
X246239354Y-106801122D01*
X246208777Y-106660528D01*
X246208774Y-106660520D01*
X246208773Y-106660515D01*
X246207528Y-106656272D01*
X246208465Y-106655996D01*
X246202137Y-106603847D01*
X246202584Y-106599993D01*
X246202585Y-106599991D01*
X246205500Y-106574865D01*
X246205499Y-104769551D01*
X246225184Y-104702513D01*
X246262457Y-104665238D01*
X246278543Y-104654901D01*
X246331347Y-104609146D01*
X246425567Y-104500412D01*
X246485338Y-104369535D01*
X246505023Y-104302496D01*
X246505024Y-104302492D01*
X246525500Y-104160076D01*
X246525500Y-102799922D01*
X246525402Y-102794409D01*
X246525179Y-102781898D01*
X246524862Y-102773041D01*
X246524862Y-102773034D01*
X246523895Y-102754995D01*
X246523894Y-102754990D01*
X246523894Y-102754988D01*
X246493307Y-102614405D01*
X246493306Y-102614402D01*
X246468893Y-102548952D01*
X246468891Y-102548949D01*
X246468888Y-102548940D01*
X246468887Y-102548938D01*
X246468880Y-102548925D01*
X246399931Y-102422665D01*
X246399930Y-102422663D01*
X246399928Y-102422660D01*
X246298186Y-102320924D01*
X246298183Y-102320922D01*
X246298179Y-102320918D01*
X246255192Y-102288741D01*
X246213319Y-102232808D01*
X246205499Y-102189471D01*
X246205499Y-100469552D01*
X246225184Y-100402513D01*
X246262457Y-100365238D01*
X246278543Y-100354901D01*
X246331347Y-100309146D01*
X246425567Y-100200412D01*
X246485338Y-100069535D01*
X246505023Y-100002496D01*
X246505024Y-100002492D01*
X246525500Y-99860076D01*
X246525500Y-83904000D01*
X246513947Y-83796544D01*
X246502741Y-83745033D01*
X246502637Y-83744722D01*
X246468616Y-83642502D01*
X246468613Y-83642496D01*
X246390828Y-83521462D01*
X246390825Y-83521457D01*
X246390820Y-83521451D01*
X246345076Y-83468659D01*
X246345072Y-83468656D01*
X246345070Y-83468653D01*
X246236336Y-83374433D01*
X246236333Y-83374431D01*
X246236331Y-83374430D01*
X246105465Y-83314664D01*
X246105460Y-83314662D01*
X246105459Y-83314662D01*
X246038420Y-83294977D01*
X246038422Y-83294977D01*
X246038417Y-83294976D01*
X245976347Y-83286052D01*
X245896000Y-83274500D01*
X235694000Y-83274500D01*
X235693991Y-83274500D01*
X235693990Y-83274501D01*
X235586549Y-83286052D01*
X235586537Y-83286054D01*
X235535027Y-83297260D01*
X235432502Y-83331383D01*
X235432496Y-83331386D01*
X235368449Y-83372548D01*
X235301410Y-83392233D01*
X235234370Y-83372549D01*
X235213728Y-83355914D01*
X226217318Y-74359504D01*
X226217316Y-74359502D01*
X226160252Y-74326556D01*
X226103189Y-74293610D01*
X226039541Y-74276556D01*
X225975894Y-74259502D01*
X225975893Y-74259502D01*
X217933408Y-74259502D01*
X217866369Y-74239817D01*
X217820614Y-74187013D01*
X217809408Y-74135502D01*
X217809408Y-73815145D01*
X217809408Y-73815138D01*
X217809406Y-73815119D01*
X217806495Y-73790014D01*
X217806494Y-73790012D01*
X217806494Y-73790011D01*
X217761115Y-73687237D01*
X217681674Y-73607796D01*
X217634041Y-73586764D01*
X217578901Y-73562417D01*
X217553777Y-73559502D01*
X217553774Y-73559502D01*
X217524500Y-73559502D01*
X217457461Y-73539817D01*
X217411706Y-73487013D01*
X217400500Y-73435502D01*
X217400500Y-71895258D01*
X228119500Y-71895258D01*
X228119500Y-72124741D01*
X228141780Y-72293967D01*
X228149452Y-72352238D01*
X228208842Y-72573887D01*
X228296650Y-72785876D01*
X228296657Y-72785890D01*
X228411392Y-72984617D01*
X228551081Y-73166661D01*
X228551089Y-73166670D01*
X228713330Y-73328911D01*
X228713338Y-73328918D01*
X228895382Y-73468607D01*
X228895385Y-73468608D01*
X228895388Y-73468611D01*
X229094112Y-73583344D01*
X229094117Y-73583346D01*
X229094123Y-73583349D01*
X229153144Y-73607796D01*
X229306113Y-73671158D01*
X229527762Y-73730548D01*
X229755266Y-73760500D01*
X229755273Y-73760500D01*
X229984727Y-73760500D01*
X229984734Y-73760500D01*
X230212238Y-73730548D01*
X230433887Y-73671158D01*
X230645888Y-73583344D01*
X230844612Y-73468611D01*
X231026661Y-73328919D01*
X231026665Y-73328914D01*
X231026670Y-73328911D01*
X231188911Y-73166670D01*
X231188914Y-73166665D01*
X231188919Y-73166661D01*
X231328611Y-72984612D01*
X231443344Y-72785888D01*
X231531158Y-72573887D01*
X231590548Y-72352238D01*
X231620500Y-72124734D01*
X231620500Y-71895266D01*
X231590548Y-71667762D01*
X231531158Y-71446113D01*
X231443344Y-71234112D01*
X231328611Y-71035388D01*
X231328608Y-71035385D01*
X231328607Y-71035382D01*
X231188918Y-70853338D01*
X231188911Y-70853330D01*
X231026670Y-70691089D01*
X231026661Y-70691081D01*
X230844617Y-70551392D01*
X230645890Y-70436657D01*
X230645876Y-70436650D01*
X230433887Y-70348842D01*
X230212238Y-70289452D01*
X230174215Y-70284446D01*
X229984741Y-70259500D01*
X229984734Y-70259500D01*
X229755266Y-70259500D01*
X229755258Y-70259500D01*
X229538715Y-70288009D01*
X229527762Y-70289452D01*
X229434076Y-70314554D01*
X229306112Y-70348842D01*
X229094123Y-70436650D01*
X229094109Y-70436657D01*
X228895382Y-70551392D01*
X228713338Y-70691081D01*
X228551081Y-70853338D01*
X228411392Y-71035382D01*
X228296657Y-71234109D01*
X228296650Y-71234123D01*
X228208842Y-71446112D01*
X228177736Y-71562205D01*
X228151382Y-71660561D01*
X228149453Y-71667759D01*
X228149451Y-71667770D01*
X228119500Y-71895258D01*
X217400500Y-71895258D01*
X217400500Y-71784499D01*
X217420185Y-71717460D01*
X217472989Y-71671705D01*
X217524500Y-71660499D01*
X217553765Y-71660499D01*
X217553773Y-71660499D01*
X217553788Y-71660497D01*
X217553791Y-71660497D01*
X217578896Y-71657586D01*
X217578897Y-71657585D01*
X217578900Y-71657585D01*
X217681674Y-71612206D01*
X217761115Y-71532765D01*
X217806494Y-71429991D01*
X217809409Y-71404865D01*
X217809408Y-69515136D01*
X217809406Y-69515117D01*
X217806495Y-69490012D01*
X217806494Y-69490010D01*
X217806494Y-69490009D01*
X217761115Y-69387235D01*
X217681674Y-69307794D01*
X217578901Y-69262415D01*
X217553774Y-69259500D01*
X216914052Y-69259500D01*
X216914028Y-69259502D01*
X216888923Y-69262413D01*
X216888915Y-69262416D01*
X216883989Y-69264591D01*
X216814710Y-69273659D01*
X216783825Y-69264590D01*
X216778899Y-69262415D01*
X216753773Y-69259500D01*
X216114051Y-69259500D01*
X216114027Y-69259502D01*
X216088918Y-69262414D01*
X216088912Y-69262415D01*
X216083988Y-69264590D01*
X216014709Y-69273658D01*
X215983825Y-69264589D01*
X215978901Y-69262415D01*
X215953774Y-69259500D01*
X215314052Y-69259500D01*
X215314028Y-69259502D01*
X215288919Y-69262414D01*
X215288910Y-69262416D01*
X215283985Y-69264591D01*
X215214706Y-69273657D01*
X215183829Y-69264590D01*
X215178908Y-69262417D01*
X215178901Y-69262415D01*
X215178900Y-69262415D01*
X215153774Y-69259500D01*
X214514052Y-69259500D01*
X214514028Y-69259502D01*
X214488919Y-69262414D01*
X214488913Y-69262415D01*
X214483989Y-69264590D01*
X214414710Y-69273658D01*
X214383826Y-69264589D01*
X214378902Y-69262415D01*
X214353775Y-69259500D01*
X213714053Y-69259500D01*
X213714029Y-69259502D01*
X213688924Y-69262413D01*
X213688916Y-69262416D01*
X213683990Y-69264591D01*
X213614711Y-69273659D01*
X213583826Y-69264590D01*
X213578900Y-69262415D01*
X213553774Y-69259500D01*
X212914052Y-69259500D01*
X212914028Y-69259502D01*
X212888923Y-69262413D01*
X212888915Y-69262416D01*
X212883989Y-69264591D01*
X212814710Y-69273659D01*
X212783825Y-69264590D01*
X212778899Y-69262415D01*
X212753773Y-69259500D01*
X212114051Y-69259500D01*
X212114025Y-69259502D01*
X212088922Y-69262413D01*
X212088914Y-69262415D01*
X212083985Y-69264592D01*
X212014706Y-69273657D01*
X211983826Y-69264589D01*
X211978902Y-69262415D01*
X211953775Y-69259500D01*
X211314053Y-69259500D01*
X211314029Y-69259502D01*
X211288924Y-69262413D01*
X211288916Y-69262416D01*
X211283990Y-69264591D01*
X211214711Y-69273659D01*
X211183826Y-69264590D01*
X211178900Y-69262415D01*
X211153774Y-69259500D01*
X210514052Y-69259500D01*
X210514026Y-69259502D01*
X210488923Y-69262413D01*
X210488915Y-69262415D01*
X210483986Y-69264592D01*
X210414707Y-69273657D01*
X210383827Y-69264589D01*
X210378903Y-69262415D01*
X210353776Y-69259500D01*
X209714054Y-69259500D01*
X209714030Y-69259502D01*
X209688925Y-69262413D01*
X209688917Y-69262416D01*
X209683991Y-69264591D01*
X209614712Y-69273659D01*
X209583827Y-69264590D01*
X209578901Y-69262415D01*
X209553775Y-69259500D01*
X208914053Y-69259500D01*
X208914029Y-69259502D01*
X208888920Y-69262414D01*
X208888917Y-69262415D01*
X208883921Y-69264621D01*
X208814642Y-69273689D01*
X208783754Y-69264619D01*
X208783691Y-69264591D01*
X208778901Y-69262476D01*
X208753775Y-69259561D01*
X208114053Y-69259561D01*
X208114027Y-69259563D01*
X208088922Y-69262474D01*
X208088918Y-69262476D01*
X207986145Y-69307854D01*
X207906704Y-69387295D01*
X207861325Y-69490067D01*
X207861325Y-69490069D01*
X207858410Y-69515192D01*
X202055430Y-69515192D01*
X202055430Y-69465136D01*
X202055428Y-69465117D01*
X202052517Y-69440012D01*
X202052516Y-69440010D01*
X202052516Y-69440009D01*
X202007137Y-69337235D01*
X201927696Y-69257794D01*
X201927694Y-69257793D01*
X201824923Y-69212415D01*
X201799796Y-69209500D01*
X201160074Y-69209500D01*
X201160050Y-69209502D01*
X201134945Y-69212413D01*
X201134937Y-69212416D01*
X201130011Y-69214591D01*
X201060732Y-69223659D01*
X201029847Y-69214590D01*
X201024921Y-69212415D01*
X200999795Y-69209500D01*
X200360073Y-69209500D01*
X200360049Y-69209502D01*
X200334940Y-69212414D01*
X200334934Y-69212415D01*
X200330010Y-69214590D01*
X200260731Y-69223658D01*
X200229847Y-69214589D01*
X200224923Y-69212415D01*
X200199796Y-69209500D01*
X199560074Y-69209500D01*
X199560050Y-69209502D01*
X199534941Y-69212414D01*
X199534932Y-69212416D01*
X199530007Y-69214591D01*
X199460728Y-69223657D01*
X199429851Y-69214590D01*
X199424930Y-69212417D01*
X199424923Y-69212415D01*
X199424922Y-69212415D01*
X199399796Y-69209500D01*
X198760074Y-69209500D01*
X198760050Y-69209502D01*
X198734941Y-69212414D01*
X198734935Y-69212415D01*
X198730011Y-69214590D01*
X198660732Y-69223658D01*
X198629848Y-69214589D01*
X198624924Y-69212415D01*
X198599797Y-69209500D01*
X197960075Y-69209500D01*
X197960049Y-69209502D01*
X197934944Y-69212413D01*
X197934940Y-69212415D01*
X197832167Y-69257793D01*
X197752726Y-69337234D01*
X197707347Y-69440006D01*
X197707347Y-69440008D01*
X197704432Y-69465131D01*
X197255429Y-69465131D01*
X197255429Y-69465130D01*
X197252516Y-69440012D01*
X197252515Y-69440010D01*
X197252515Y-69440009D01*
X197207136Y-69337235D01*
X197127695Y-69257794D01*
X197127693Y-69257793D01*
X197024922Y-69212415D01*
X196999795Y-69209500D01*
X196360073Y-69209500D01*
X196360047Y-69209502D01*
X196334944Y-69212413D01*
X196334936Y-69212415D01*
X196330007Y-69214592D01*
X196260728Y-69223657D01*
X196229848Y-69214589D01*
X196224924Y-69212415D01*
X196199797Y-69209500D01*
X195560075Y-69209500D01*
X195560051Y-69209502D01*
X195534946Y-69212413D01*
X195534938Y-69212416D01*
X195530012Y-69214591D01*
X195460733Y-69223659D01*
X195429848Y-69214590D01*
X195424922Y-69212415D01*
X195399796Y-69209500D01*
X194760074Y-69209500D01*
X194760048Y-69209502D01*
X194734945Y-69212413D01*
X194734937Y-69212415D01*
X194730008Y-69214592D01*
X194660729Y-69223657D01*
X194629849Y-69214589D01*
X194624925Y-69212415D01*
X194599798Y-69209500D01*
X193960076Y-69209500D01*
X193960050Y-69209502D01*
X193934945Y-69212413D01*
X193934941Y-69212415D01*
X193832168Y-69257793D01*
X193752727Y-69337234D01*
X193707348Y-69440006D01*
X193707348Y-69440008D01*
X193704433Y-69465131D01*
X162770500Y-69465131D01*
X162770500Y-68113750D01*
X162770726Y-68106263D01*
X162788271Y-67816205D01*
X162790076Y-67801340D01*
X162841780Y-67519201D01*
X162845364Y-67504663D01*
X162868850Y-67429295D01*
X162930696Y-67230822D01*
X162935998Y-67216841D01*
X163053731Y-66955249D01*
X163060676Y-66942016D01*
X163209080Y-66696526D01*
X163217567Y-66684230D01*
X163394480Y-66458417D01*
X163404395Y-66447226D01*
X163607226Y-66244395D01*
X163618417Y-66234480D01*
X163844230Y-66057567D01*
X163856526Y-66049080D01*
X164102016Y-65900676D01*
X164115249Y-65893731D01*
X164376841Y-65775998D01*
X164390822Y-65770696D01*
X164664668Y-65685362D01*
X164679197Y-65681780D01*
X164961344Y-65630075D01*
X164976201Y-65628271D01*
X165266264Y-65610726D01*
X165273751Y-65610500D01*
X165335892Y-65610500D01*
X250840474Y-65610500D01*
X250907513Y-65630185D01*
G37*
%TD.AperFunction*%
%TA.AperFunction,Conductor*%
G36*
X203034592Y-129630076D02*
G01*
X203032416Y-129635003D01*
X203032415Y-129635009D01*
X203029500Y-129660131D01*
X203029500Y-130299856D01*
X203029502Y-130299880D01*
X203032414Y-130324989D01*
X203032415Y-130324995D01*
X203034590Y-130329920D01*
X203043658Y-130399199D01*
X203034592Y-130430076D01*
X203032416Y-130435003D01*
X203032415Y-130435009D01*
X203029500Y-130460131D01*
X203029500Y-131049884D01*
X203022155Y-131074896D01*
X203018600Y-131100720D01*
X203012470Y-131107880D01*
X203009815Y-131116923D01*
X202990117Y-131133991D01*
X202973162Y-131153797D01*
X202964132Y-131156506D01*
X202957011Y-131162678D01*
X202931211Y-131166387D01*
X202906241Y-131173882D01*
X202892371Y-131171972D01*
X202887853Y-131172622D01*
X202871278Y-131169068D01*
X202871276Y-131169068D01*
X202844272Y-131161313D01*
X202841109Y-131160878D01*
X202840134Y-131160439D01*
X202839970Y-131160405D01*
X202839977Y-131160369D01*
X202838201Y-131159570D01*
X202834998Y-131158651D01*
X202835130Y-131158189D01*
X202777385Y-131132226D01*
X202739267Y-131073670D01*
X202734038Y-131038342D01*
X202732123Y-130237992D01*
X202720443Y-130131158D01*
X202709238Y-130079945D01*
X202675238Y-129977996D01*
X202675238Y-129977995D01*
X202597454Y-129856962D01*
X202597445Y-129856951D01*
X202551701Y-129804159D01*
X202551697Y-129804156D01*
X202551695Y-129804153D01*
X202442961Y-129709933D01*
X202442958Y-129709931D01*
X202442956Y-129709930D01*
X202312090Y-129650164D01*
X202312085Y-129650162D01*
X202312084Y-129650162D01*
X202245045Y-129630477D01*
X202245047Y-129630477D01*
X202245042Y-129630476D01*
X202197569Y-129623650D01*
X202102625Y-129610000D01*
X203040487Y-129610000D01*
X203034592Y-129630076D01*
G37*
%TD.AperFunction*%
%TA.AperFunction,Conductor*%
G36*
X198720000Y-127593998D02*
G01*
X198708447Y-127486544D01*
X198701317Y-127453769D01*
X198706301Y-127384077D01*
X198720000Y-127365777D01*
X198720000Y-127593998D01*
G37*
%TD.AperFunction*%
%TA.AperFunction,Conductor*%
G36*
X210542540Y-113885185D02*
G01*
X210588295Y-113937989D01*
X210599501Y-113989500D01*
X210599501Y-114334856D01*
X210599502Y-114334882D01*
X210602413Y-114359987D01*
X210602415Y-114359991D01*
X210647793Y-114462764D01*
X210647794Y-114462765D01*
X210727235Y-114542206D01*
X210830009Y-114587585D01*
X210855135Y-114590500D01*
X212247389Y-114590499D01*
X212314428Y-114610184D01*
X212335070Y-114626818D01*
X213894181Y-116185929D01*
X213927666Y-116247252D01*
X213930500Y-116273610D01*
X213930500Y-121410719D01*
X213910815Y-121477758D01*
X213858011Y-121523513D01*
X213788853Y-121533457D01*
X213725297Y-121504432D01*
X213703398Y-121479610D01*
X213645024Y-121392248D01*
X213645019Y-121392240D01*
X213426828Y-121126373D01*
X213426827Y-121126372D01*
X213426823Y-121126367D01*
X213183632Y-120883176D01*
X212917765Y-120664985D01*
X212917764Y-120664984D01*
X212917760Y-120664981D01*
X212631787Y-120473900D01*
X212631782Y-120473897D01*
X212631775Y-120473893D01*
X212328469Y-120311772D01*
X212328464Y-120311770D01*
X212010706Y-120180150D01*
X211681572Y-120080308D01*
X211344248Y-120013210D01*
X211344249Y-120013210D01*
X211086456Y-119987821D01*
X211001969Y-119979500D01*
X210658031Y-119979500D01*
X210579966Y-119987188D01*
X210315750Y-120013210D01*
X209978427Y-120080308D01*
X209649293Y-120180150D01*
X209331535Y-120311770D01*
X209331530Y-120311772D01*
X209028224Y-120473893D01*
X209028206Y-120473904D01*
X208742248Y-120664975D01*
X208742234Y-120664985D01*
X208476367Y-120883176D01*
X208233176Y-121126367D01*
X208014985Y-121392234D01*
X208014975Y-121392248D01*
X207823904Y-121678206D01*
X207823898Y-121678216D01*
X207725858Y-121861636D01*
X207676895Y-121911480D01*
X207608758Y-121926940D01*
X207543078Y-121903108D01*
X207500709Y-121847550D01*
X207492500Y-121803182D01*
X207492500Y-118655075D01*
X207492500Y-118655073D01*
X207465207Y-118553213D01*
X207465207Y-118553212D01*
X207412480Y-118461887D01*
X203027774Y-114077181D01*
X202994289Y-114015858D01*
X202999273Y-113946166D01*
X203041145Y-113890233D01*
X203106609Y-113865816D01*
X203115455Y-113865500D01*
X210475501Y-113865500D01*
X210542540Y-113885185D01*
G37*
%TD.AperFunction*%
%TD*%
M02*
