M48
; DRILL file {KiCad 9.0.0} date 2026-01-14T19:04:19-0600
; FORMAT={-:-/ absolute / inch / decimal}
; #@! TF.CreationDate,2026-01-14T19:04:19-06:00
; #@! TF.GenerationSoftware,Kicad,Pcbnew,9.0.0
; #@! TF.FileFunction,Plated,1,2,PTH
FMAT,2
INCH
; #@! TA.AperFunction,Plated,PTH,ViaDrill
T1C0.0118
; #@! TA.AperFunction,Plated,PTH,ComponentDrill
T2C0.0394
; #@! TA.AperFunction,Plated,PTH,ComponentDrill
T3C0.0400
; #@! TA.AperFunction,Plated,PTH,ComponentDrill
T4C0.0709
; #@! TA.AperFunction,Plated,PTH,ComponentDrill
T5C0.1260
; #@! TA.AperFunction,Plated,PTH,ComponentDrill
T6C0.2130
%
G90
G05
T1
X6.4937Y-5.0217
X6.4937Y-5.1787
X6.4937Y-5.2488
X6.4941Y-5.0972
X6.5768Y-5.2488
X6.5772Y-5.0213
X6.5772Y-5.0972
X6.5772Y-5.1783
X6.6488Y-5.0213
X6.6488Y-5.1783
X6.6488Y-5.2484
X6.6492Y-5.0969
X6.7315Y-5.4799
X6.7319Y-5.2484
X6.7319Y-5.5634
X6.7323Y-5.0209
X6.7323Y-5.0969
X6.7323Y-5.178
X6.8075Y-5.4799
X6.8075Y-5.563
X6.8886Y-5.4799
X6.889Y-5.5634
X6.9591Y-5.4803
X6.9591Y-5.5634
X6.9965Y-5.1098
X6.9965Y-5.1709
X6.9965Y-5.2299
X7.087Y-4.7146
X7.1165Y-5.1098
X7.1165Y-5.1709
X7.1165Y-5.2295
X7.1681Y-4.7146
X7.2358Y-4.7146
X7.2445Y-5.1098
X7.2445Y-5.1689
X7.2449Y-5.2295
X7.3169Y-4.7146
X7.3874Y-4.715
X7.4685Y-4.715
X7.5445Y-4.715
X7.6689Y-3.8091
X7.6689Y-3.8902
X7.6689Y-3.9661
X7.6693Y-3.5087
X7.6693Y-3.5898
X7.6693Y-3.6575
X7.6693Y-3.7386
X7.752Y-3.8902
X7.7524Y-3.5898
X7.7524Y-3.7386
X7.7524Y-3.8087
X7.7524Y-3.9657
X7.7528Y-3.5083
X7.7528Y-3.6571
X7.8303Y-3.8898
X7.8307Y-3.5894
X7.8307Y-3.7382
X7.8307Y-3.8083
X7.8307Y-3.9654
X7.8311Y-3.5079
X7.8311Y-3.6567
X7.8374Y-2.8291
X7.8689Y-2.8287
X7.9004Y-2.8283
X7.9134Y-4.95
X7.9138Y-3.8894
X7.9142Y-3.589
X7.9142Y-3.7378
X7.9142Y-3.8079
X7.9142Y-3.965
X7.9146Y-3.5075
X7.9146Y-3.6563
X7.9319Y-2.8287
X8.0173Y-3.889
X8.0177Y-3.5886
X8.0177Y-3.7374
X8.0177Y-3.8075
X8.0177Y-3.9646
X8.0181Y-3.5071
X8.0181Y-3.6559
X8.1157Y-3.889
X8.1161Y-3.5886
X8.1161Y-3.7374
X8.1161Y-3.8075
X8.1161Y-3.9646
X8.1165Y-3.5071
X8.1165Y-3.6559
X8.224Y-3.0004
X8.2992Y-3.0343
X8.3004Y-3.0
X8.3331Y-4.5976
X8.4335Y-3.2106
X8.4335Y-3.2917
X8.4335Y-3.3594
X8.4335Y-3.4406
X8.4335Y-3.8094
X8.4335Y-3.8906
X8.4335Y-3.9665
X8.4339Y-3.5091
X8.4339Y-3.5902
X8.4339Y-3.6579
X8.4339Y-3.739
X8.5165Y-3.2917
X8.5165Y-3.4406
X8.5165Y-3.8906
X8.5169Y-3.2102
X8.5169Y-3.3591
X8.5169Y-3.5902
X8.5169Y-3.739
X8.5169Y-3.8091
X8.5169Y-3.9661
X8.5173Y-3.5087
X8.5173Y-3.6575
X8.5949Y-3.2913
X8.5949Y-3.4402
X8.5949Y-3.8902
X8.5953Y-3.2098
X8.5953Y-3.3587
X8.5953Y-3.5898
X8.5953Y-3.7386
X8.5953Y-3.8087
X8.5953Y-3.9657
X8.5957Y-3.5083
X8.5957Y-3.6571
X8.6673Y-4.4795
X8.6677Y-4.563
X8.6783Y-3.2909
X8.6783Y-3.4398
X8.6783Y-3.8898
X8.6787Y-3.2094
X8.6787Y-3.3583
X8.6787Y-3.5894
X8.6787Y-3.7382
X8.6787Y-3.8083
X8.6787Y-3.9654
X8.6791Y-3.5079
X8.6791Y-3.6567
X8.7488Y-4.4799
X8.7488Y-4.563
X8.7673Y-3.2902
X8.7673Y-3.439
X8.7673Y-3.889
X8.7677Y-3.2087
X8.7677Y-3.3575
X8.7677Y-3.5886
X8.7677Y-3.7374
X8.7677Y-3.8075
X8.7677Y-3.9646
X8.7681Y-3.5071
X8.7681Y-3.6559
X8.8161Y-4.4795
X8.8165Y-4.563
X8.8508Y-3.2898
X8.8508Y-3.4386
X8.8508Y-3.8886
X8.8512Y-3.2083
X8.8512Y-3.3571
X8.8512Y-3.5882
X8.8512Y-3.737
X8.8512Y-3.8071
X8.8512Y-3.9642
X8.8516Y-3.5067
X8.8516Y-3.6555
X8.8976Y-4.4799
X8.8976Y-4.563
X8.9374Y-3.2898
X8.9374Y-3.4386
X8.9374Y-3.8886
X8.9378Y-3.2083
X8.9378Y-3.3571
X8.9378Y-3.5882
X8.9378Y-3.737
X8.9378Y-3.8071
X8.9378Y-3.9642
X8.9382Y-3.5067
X8.9382Y-3.6555
X8.9677Y-4.4799
X8.9681Y-4.5634
X9.0209Y-3.2894
X9.0209Y-3.4382
X9.0209Y-3.8882
X9.0213Y-3.2079
X9.0213Y-3.3567
X9.0213Y-3.5878
X9.0213Y-3.7366
X9.0213Y-3.8067
X9.0213Y-3.9638
X9.0217Y-3.5063
X9.0217Y-3.6551
X9.0492Y-4.4803
X9.0492Y-4.5634
X9.1248Y-4.4799
X9.1252Y-4.5634
X9.4339Y-4.3827
X9.4343Y-4.4661
X9.4343Y-4.5461
X9.4343Y-4.7047
X9.4346Y-4.6295
X9.4346Y-4.7882
X9.4346Y-4.8681
X9.435Y-4.9516
X9.4882Y-2.6996
X9.4882Y-2.8567
X9.4886Y-2.7752
X9.5154Y-4.3831
X9.5154Y-4.4661
X9.5157Y-4.5465
X9.5157Y-4.6295
X9.5157Y-4.7051
X9.5157Y-4.7882
X9.5161Y-4.8685
X9.5161Y-4.9516
X9.5827Y-4.3827
X9.5831Y-4.4661
X9.5831Y-4.5461
X9.5831Y-4.7047
X9.5835Y-4.6295
X9.5835Y-4.7882
X9.5835Y-4.8681
X9.5839Y-4.9516
X9.5913Y-2.6992
X9.5913Y-2.7752
X9.5913Y-2.8563
X9.6642Y-4.3831
X9.6642Y-4.4661
X9.6646Y-4.5465
X9.6646Y-4.6295
X9.6646Y-4.7051
X9.6646Y-4.7882
X9.665Y-4.8685
X9.665Y-4.9516
X9.6866Y-2.6996
X9.6866Y-2.8567
X9.687Y-2.7752
X9.7343Y-4.3831
X9.7346Y-4.4665
X9.7346Y-4.5465
X9.7346Y-4.7051
X9.735Y-4.6299
X9.735Y-4.7886
X9.735Y-4.8685
X9.7354Y-4.952
X9.8157Y-4.3835
X9.8157Y-4.4665
X9.8161Y-4.5469
X9.8161Y-4.6299
X9.8161Y-4.7055
X9.8161Y-4.7886
X9.8165Y-4.8689
X9.8165Y-4.952
X9.8898Y-3.0091
X9.8898Y-3.1579
X9.8902Y-3.0764
X9.8909Y-3.5362
X9.8909Y-3.685
X9.8913Y-3.2276
X9.8913Y-3.3846
X9.8913Y-3.4547
X9.8913Y-3.6035
X9.8913Y-4.3831
X9.8917Y-3.3031
X9.8917Y-4.4665
X9.8917Y-4.5465
X9.8917Y-4.7051
X9.8921Y-4.6299
X9.8921Y-4.7886
X9.8921Y-4.8685
X9.8925Y-4.952
X9.9886Y-3.0091
X9.9886Y-3.0768
X9.9886Y-3.1579
X9.9898Y-3.4551
X9.9898Y-3.5362
X9.9898Y-3.6039
X9.9898Y-3.685
X9.9902Y-3.2276
X9.9902Y-3.3035
X9.9902Y-3.3846
T2
X6.7295Y-4.7248
X6.7295Y-4.8248
X8.3366Y-4.4661
X8.4366Y-4.4661
T3
X6.6567Y-3.5898
X6.6567Y-3.6898
X6.6567Y-3.7898
X6.6567Y-3.8898
X6.6567Y-3.9898
X6.7567Y-3.5898
X6.7567Y-3.6898
X6.7567Y-3.7898
X6.7567Y-3.8898
X6.7567Y-3.9898
T4
X7.2402Y-5.5276
X7.437Y-5.5276
T5
X6.5268Y-5.5256
X8.3004Y-4.8614
X9.8752Y-5.4598
X9.9626Y-2.7012
T6
X6.6332Y-4.4291
X9.4803Y-3.5295
M30
