M48
; DRILL file {KiCad 9.0.1} date 2025-10-25T17:54:36-0500
; FORMAT={-:-/ absolute / inch / decimal}
; #@! TF.CreationDate,2025-10-25T17:54:36-05:00
; #@! TF.GenerationSoftware,Kicad,Pcbnew,9.0.1
; #@! TF.FileFunction,Plated,1,2,PTH
FMAT,2
INCH
; #@! TA.AperFunction,Plated,PTH,ViaDrill
T1C0.0118
; #@! TA.AperFunction,Plated,PTH,ComponentDrill
T2C0.0402
; #@! TA.AperFunction,Plated,PTH,ComponentDrill
T3C0.0972
; #@! TA.AperFunction,Plated,PTH,ComponentDrill
T4C0.1000
; #@! TA.AperFunction,Plated,PTH,ComponentDrill
T5C0.1260
; #@! TA.AperFunction,Plated,PTH,ComponentDrill
T6C0.1331
; #@! TA.AperFunction,Plated,PTH,ComponentDrill
T7C0.1972
; #@! TA.AperFunction,Plated,PTH,ComponentDrill
T8C0.2031
; #@! TA.AperFunction,Plated,PTH,ComponentDrill
T9C0.2862
%
G90
G05
T1
X1.104Y-1.828
X6.7913Y-2.4311
X6.7913Y-3.0315
X6.8799Y-2.5
X6.8799Y-2.9528
X6.9488Y-2.8642
X7.08Y-1.96
T2
X2.9327Y-4.0748
X2.9327Y-4.1732
X2.9327Y-4.2717
X2.9327Y-4.3701
X2.9327Y-4.4685
X3.0508Y-4.0748
X3.0508Y-4.1732
X3.0508Y-4.2717
X3.0508Y-4.3701
X3.0508Y-4.4685
X3.1492Y-4.0748
X3.1492Y-4.1732
X3.1492Y-4.2717
X3.1492Y-4.3701
X3.1492Y-4.4685
X3.2673Y-4.0748
X3.2673Y-4.1732
X3.2673Y-4.2717
X3.2673Y-4.3701
X3.2673Y-4.4685
X3.4709Y-4.2094
X3.4709Y-4.3094
X3.4709Y-4.4094
X3.5709Y-4.2094
X3.5709Y-4.3094
X3.5709Y-4.4094
X3.6709Y-4.2094
X3.6709Y-4.3094
X3.6709Y-4.4094
X3.7709Y-4.2094
X3.7709Y-4.3094
X3.7709Y-4.4094
X3.8709Y-4.2094
X3.8709Y-4.3094
X3.8709Y-4.4094
X3.9709Y-4.2094
X3.9709Y-4.3094
X3.9709Y-4.4094
X4.0709Y-4.2094
X4.0709Y-4.3094
X4.0709Y-4.4094
X4.1709Y-4.2094
X4.1709Y-4.3094
X4.1709Y-4.4094
X4.3602Y-4.0748
X4.3602Y-4.1732
X4.3602Y-4.2717
X4.3602Y-4.3701
X4.3602Y-4.4685
X4.4783Y-4.0748
X4.4783Y-4.1732
X4.4783Y-4.2717
X4.4783Y-4.3701
X4.4783Y-4.4685
X4.5768Y-4.0748
X4.5768Y-4.1732
X4.5768Y-4.2717
X4.5768Y-4.3701
X4.5768Y-4.4685
X4.6949Y-4.0748
X4.6949Y-4.1732
X4.6949Y-4.2717
X4.6949Y-4.3701
X4.6949Y-4.4685
T3
X1.6066Y-2.0276
X1.6066Y-2.4276
X1.6066Y-3.0276
X1.6066Y-3.4276
X5.8066Y-2.4276
X5.8066Y-2.7276
X5.8066Y-3.0276
T4
X1.7872Y-1.3091
X2.0872Y-1.3091
X2.8341Y-1.3091
X3.1341Y-1.3091
T5
X5.9646Y-1.2303
T6
X1.9065Y-1.7276
X1.9066Y-3.7276
X2.4555Y-1.735
X2.4555Y-3.735
X3.7065Y-3.7276
X3.7066Y-1.7276
X4.2555Y-3.735
X4.2555Y-1.735
X5.5065Y-3.7276
X5.5065Y-1.7276
X6.0555Y-3.735
X6.0555Y-1.735
T7
X5.8066Y-2.0276
X5.8066Y-3.4276
T8
X2.1555Y-2.0318
X2.1555Y-2.4318
X2.1555Y-3.0318
X2.1555Y-3.4318
X6.3539Y-2.4326
X6.3539Y-3.0326
X6.3543Y-2.7326
T9
X6.35Y-3.4326
X6.3555Y-2.0326
M30
