%TF.GenerationSoftware,KiCad,Pcbnew,9.0.1*%
%TF.CreationDate,2025-10-25T17:54:32-05:00*%
%TF.ProjectId,MaxiCarrier,4d617869-4361-4727-9269-65722e6b6963,rev?*%
%TF.SameCoordinates,Original*%
%TF.FileFunction,Copper,L2,Bot*%
%TF.FilePolarity,Positive*%
%FSLAX46Y46*%
G04 Gerber Fmt 4.6, Leading zero omitted, Abs format (unit mm)*
G04 Created by KiCad (PCBNEW 9.0.1) date 2025-10-25 17:54:32*
%MOMM*%
%LPD*%
G01*
G04 APERTURE LIST*
G04 Aperture macros list*
%AMRoundRect*
0 Rectangle with rounded corners*
0 $1 Rounding radius*
0 $2 $3 $4 $5 $6 $7 $8 $9 X,Y pos of 4 corners*
0 Add a 4 corners polygon primitive as box body*
4,1,4,$2,$3,$4,$5,$6,$7,$8,$9,$2,$3,0*
0 Add four circle primitives for the rounded corners*
1,1,$1+$1,$2,$3*
1,1,$1+$1,$4,$5*
1,1,$1+$1,$6,$7*
1,1,$1+$1,$8,$9*
0 Add four rect primitives between the rounded corners*
20,1,$1+$1,$2,$3,$4,$5,0*
20,1,$1+$1,$4,$5,$6,$7,0*
20,1,$1+$1,$6,$7,$8,$9,0*
20,1,$1+$1,$8,$9,$2,$3,0*%
%AMOutline5P*
0 Free polygon, 5 corners , with rotation*
0 The origin of the aperture is its center*
0 number of corners: always 5*
0 $1 to $10 corner X, Y*
0 $11 Rotation angle, in degrees counterclockwise*
0 create outline with 5 corners*
4,1,5,$1,$2,$3,$4,$5,$6,$7,$8,$9,$10,$1,$2,$11*%
%AMOutline6P*
0 Free polygon, 6 corners , with rotation*
0 The origin of the aperture is its center*
0 number of corners: always 6*
0 $1 to $12 corner X, Y*
0 $13 Rotation angle, in degrees counterclockwise*
0 create outline with 6 corners*
4,1,6,$1,$2,$3,$4,$5,$6,$7,$8,$9,$10,$11,$12,$1,$2,$13*%
%AMOutline7P*
0 Free polygon, 7 corners , with rotation*
0 The origin of the aperture is its center*
0 number of corners: always 7*
0 $1 to $14 corner X, Y*
0 $15 Rotation angle, in degrees counterclockwise*
0 create outline with 7 corners*
4,1,7,$1,$2,$3,$4,$5,$6,$7,$8,$9,$10,$11,$12,$13,$14,$1,$2,$15*%
%AMOutline8P*
0 Free polygon, 8 corners , with rotation*
0 The origin of the aperture is its center*
0 number of corners: always 8*
0 $1 to $16 corner X, Y*
0 $17 Rotation angle, in degrees counterclockwise*
0 create outline with 8 corners*
4,1,8,$1,$2,$3,$4,$5,$6,$7,$8,$9,$10,$11,$12,$13,$14,$15,$16,$1,$2,$17*%
G04 Aperture macros list end*
%TA.AperFunction,ComponentPad*%
%ADD10C,3.600000*%
%TD*%
%TA.AperFunction,ConnectorPad*%
%ADD11C,6.400000*%
%TD*%
%TA.AperFunction,ComponentPad*%
%ADD12C,6.500000*%
%TD*%
%TA.AperFunction,ComponentPad*%
%ADD13Outline5P,-2.500000X1.500000X-1.500000X2.500000X2.500000X2.500000X2.500000X-2.500000X-2.500000X-2.500000X0.000000*%
%TD*%
%TA.AperFunction,ComponentPad*%
%ADD14R,6.500000X5.000000*%
%TD*%
%TA.AperFunction,ComponentPad*%
%ADD15Outline5P,-2.500000X1.500000X-1.500000X2.500000X2.500000X2.500000X2.500000X-2.500000X-2.500000X-2.500000X90.000000*%
%TD*%
%TA.AperFunction,ComponentPad*%
%ADD16C,9.000000*%
%TD*%
%TA.AperFunction,ComponentPad*%
%ADD17Outline5P,-4.000000X2.400000X-2.400000X4.000000X4.000000X4.000000X4.000000X-4.000000X-4.000000X-4.000000X180.000000*%
%TD*%
%TA.AperFunction,ComponentPad*%
%ADD18Outline5P,-4.000000X2.400000X-2.400000X4.000000X4.000000X4.000000X4.000000X-4.000000X-4.000000X-4.000000X270.000000*%
%TD*%
%TA.AperFunction,ComponentPad*%
%ADD19C,4.500000*%
%TD*%
%TA.AperFunction,ComponentPad*%
%ADD20RoundRect,0.875000X0.875000X0.875000X-0.875000X0.875000X-0.875000X-0.875000X0.875000X-0.875000X0*%
%TD*%
%TA.AperFunction,ComponentPad*%
%ADD21C,3.500000*%
%TD*%
%TA.AperFunction,ComponentPad*%
%ADD22R,1.530000X1.530000*%
%TD*%
%TA.AperFunction,ComponentPad*%
%ADD23C,1.530000*%
%TD*%
%TA.AperFunction,SMDPad,CuDef*%
%ADD24RoundRect,0.250000X1.450000X-0.537500X1.450000X0.537500X-1.450000X0.537500X-1.450000X-0.537500X0*%
%TD*%
%TA.AperFunction,SMDPad,CuDef*%
%ADD25RoundRect,0.237500X0.237500X-0.250000X0.237500X0.250000X-0.237500X0.250000X-0.237500X-0.250000X0*%
%TD*%
%TA.AperFunction,SMDPad,CuDef*%
%ADD26RoundRect,0.237500X-0.237500X0.250000X-0.237500X-0.250000X0.237500X-0.250000X0.237500X0.250000X0*%
%TD*%
%TA.AperFunction,SMDPad,CuDef*%
%ADD27RoundRect,0.250000X-0.900000X1.500000X-0.900000X-1.500000X0.900000X-1.500000X0.900000X1.500000X0*%
%TD*%
%TA.AperFunction,SMDPad,CuDef*%
%ADD28RoundRect,0.250000X-1.450000X0.537500X-1.450000X-0.537500X1.450000X-0.537500X1.450000X0.537500X0*%
%TD*%
%TA.AperFunction,ViaPad*%
%ADD29C,0.600000*%
%TD*%
%TA.AperFunction,Conductor*%
%ADD30C,2.000000*%
%TD*%
%TA.AperFunction,Conductor*%
%ADD31C,0.250000*%
%TD*%
%TA.AperFunction,Conductor*%
%ADD32C,1.500000*%
%TD*%
%TA.AperFunction,Conductor*%
%ADD33C,0.200000*%
%TD*%
G04 APERTURE END LIST*
D10*
%TO.P,H1,1,1*%
%TO.N,PLATE*%
X151500000Y-31250000D03*
D11*
X151500000Y-31250000D03*
%TD*%
D12*
%TO.P,U1,1,IN+*%
%TO.N,IN+*%
X54750000Y-51608192D03*
D13*
X40806392Y-51501587D03*
D12*
%TO.P,U1,2,PC*%
%TO.N,/PC*%
X54750000Y-61768192D03*
D14*
X41306392Y-61661587D03*
D12*
%TO.P,U1,3,PR*%
%TO.N,unconnected-(U1-PR-Pad3)*%
X54750000Y-77008192D03*
D14*
%TO.N,unconnected-(U1-PR-Pad3)_1*%
X41306392Y-76901587D03*
D12*
%TO.P,U1,4,IN-*%
%TO.N,IN-*%
X54750000Y-87168192D03*
D15*
X40806392Y-87061587D03*
D16*
%TO.P,U1,5,OUT-*%
%TO.N,OUT-*%
X161290000Y-87188192D03*
D17*
X147486392Y-87061587D03*
D12*
%TO.P,U1,6,SENSE-*%
%TO.N,/SNS-*%
X161390000Y-77028192D03*
D14*
X146986392Y-76901587D03*
D12*
%TO.P,U1,7,SC*%
%TO.N,/SC*%
X161400000Y-69408192D03*
D14*
X146986392Y-69281587D03*
D12*
%TO.P,U1,8,SENSE+*%
%TO.N,/SNS+*%
X161390000Y-61788192D03*
D14*
X146986392Y-61661587D03*
D16*
%TO.P,U1,9,OUT+*%
%TO.N,OUT+*%
X161430000Y-51628192D03*
D18*
X147486392Y-51501587D03*
D19*
%TO.P,U1,10,PLATE*%
%TO.N,PLATE*%
X108089955Y-94868187D03*
X62370000Y-94868168D03*
X153809955Y-94868168D03*
X94146347Y-94681827D03*
X48426392Y-94681808D03*
X139866347Y-94681808D03*
X62369958Y-44068192D03*
X153809958Y-44068192D03*
X108090000Y-44068168D03*
X48426350Y-43881832D03*
X139866350Y-43881832D03*
X94146392Y-43881808D03*
%TD*%
D20*
%TO.P,F1,1*%
%TO.N,Unfused_IN+*%
X79605000Y-33250000D03*
X71985000Y-33250000D03*
D21*
%TO.P,F1,2*%
%TO.N,IN+*%
X53015000Y-33250000D03*
X45395000Y-33250000D03*
%TD*%
D22*
%TO.P,J1,01,01*%
%TO.N,/PC*%
X88160000Y-112000000D03*
D23*
%TO.P,J1,02,02*%
%TO.N,unconnected-(J1-Pad02)*%
X90700000Y-112000000D03*
%TO.P,J1,03,03*%
%TO.N,/SNS+*%
X93240000Y-112000000D03*
%TO.P,J1,04,04*%
%TO.N,unconnected-(J1-Pad04)*%
X95780000Y-112000000D03*
%TO.P,J1,05,05*%
%TO.N,/SC*%
X98320000Y-112000000D03*
%TO.P,J1,06,06*%
%TO.N,unconnected-(J1-Pad06)*%
X100860000Y-112000000D03*
%TO.P,J1,07,07*%
%TO.N,/SNS-*%
X103400000Y-112000000D03*
%TO.P,J1,08,08*%
%TO.N,unconnected-(J1-Pad08)*%
X105940000Y-112000000D03*
%TO.P,J1,09,09*%
%TO.N,unconnected-(J1-Pad09)*%
X88160000Y-109460000D03*
%TO.P,J1,10,10*%
%TO.N,unconnected-(J1-Pad10)*%
X90700000Y-109460000D03*
%TO.P,J1,11,11*%
%TO.N,unconnected-(J1-Pad11)*%
X93240000Y-109460000D03*
%TO.P,J1,12,12*%
%TO.N,unconnected-(J1-Pad12)*%
X95780000Y-109460000D03*
%TO.P,J1,13,13*%
%TO.N,unconnected-(J1-Pad13)*%
X98320000Y-109460000D03*
%TO.P,J1,14,14*%
%TO.N,unconnected-(J1-Pad14)*%
X100860000Y-109460000D03*
%TO.P,J1,15,15*%
%TO.N,unconnected-(J1-Pad15)*%
X103400000Y-109460000D03*
%TO.P,J1,16,16*%
%TO.N,unconnected-(J1-Pad16)*%
X105940000Y-109460000D03*
%TO.P,J1,17,17*%
%TO.N,unconnected-(J1-Pad17)*%
X88160000Y-106920000D03*
%TO.P,J1,18,18*%
%TO.N,unconnected-(J1-Pad18)*%
X90700000Y-106920000D03*
%TO.P,J1,19,19*%
%TO.N,unconnected-(J1-Pad19)*%
X93240000Y-106920000D03*
%TO.P,J1,20,20*%
%TO.N,unconnected-(J1-Pad20)*%
X95780000Y-106920000D03*
%TO.P,J1,21,21*%
%TO.N,unconnected-(J1-Pad21)*%
X98320000Y-106920000D03*
%TO.P,J1,22,22*%
%TO.N,unconnected-(J1-Pad22)*%
X100860000Y-106920000D03*
%TO.P,J1,23,23*%
%TO.N,unconnected-(J1-Pad23)*%
X103400000Y-106920000D03*
%TO.P,J1,24,24*%
%TO.N,unconnected-(J1-Pad24)*%
X105940000Y-106920000D03*
%TO.P,J1,P01,P01*%
%TO.N,IN-*%
X74490000Y-103500000D03*
X74490000Y-106000000D03*
X74490000Y-108500000D03*
X74490000Y-111000000D03*
X74490000Y-113500000D03*
X77490000Y-103500000D03*
X77490000Y-106000000D03*
X77490000Y-108500000D03*
X77490000Y-111000000D03*
X77490000Y-113500000D03*
%TO.P,J1,P02,P02*%
%TO.N,Unfused_IN+*%
X79990000Y-103500000D03*
X79990000Y-106000000D03*
X79990000Y-108500000D03*
X79990000Y-111000000D03*
X79990000Y-113500000D03*
X82990000Y-103500000D03*
X82990000Y-106000000D03*
X82990000Y-108500000D03*
X82990000Y-111000000D03*
X82990000Y-113500000D03*
%TO.P,J1,P03,P03*%
%TO.N,OUT+*%
X110750000Y-103500000D03*
X110750000Y-106000000D03*
X110750000Y-108500000D03*
X110750000Y-111000000D03*
X110750000Y-113500000D03*
X113750000Y-103500000D03*
X113750000Y-106000000D03*
X113750000Y-108500000D03*
X113750000Y-111000000D03*
X113750000Y-113500000D03*
%TO.P,J1,P04,P04*%
%TO.N,OUT-*%
X116250000Y-103500000D03*
X116250000Y-106000000D03*
X116250000Y-108500000D03*
X116250000Y-111000000D03*
X116250000Y-113500000D03*
X119250000Y-103500000D03*
X119250000Y-106000000D03*
X119250000Y-108500000D03*
X119250000Y-111000000D03*
X119250000Y-113500000D03*
%TD*%
D24*
%TO.P,C5,1*%
%TO.N,PLATE*%
X147500000Y-97750000D03*
%TO.P,C5,2*%
%TO.N,OUT-*%
X147500000Y-93475000D03*
%TD*%
D25*
%TO.P,R3,1*%
%TO.N,/SC*%
X174750000Y-66412500D03*
%TO.P,R3,2*%
%TO.N,/SNS+*%
X174750000Y-64587500D03*
%TD*%
D26*
%TO.P,R4,1*%
%TO.N,/SC*%
X174750000Y-72087500D03*
%TO.P,R4,2*%
%TO.N,/SNS-*%
X174750000Y-73912500D03*
%TD*%
D27*
%TO.P,D3,1,K*%
%TO.N,IN+*%
X74750000Y-67800000D03*
%TO.P,D3,2,A*%
%TO.N,IN-*%
X74750000Y-73200000D03*
%TD*%
D24*
%TO.P,C2,1*%
%TO.N,IN+*%
X47750000Y-53137500D03*
%TO.P,C2,2*%
%TO.N,PLATE*%
X47750000Y-48862500D03*
%TD*%
D28*
%TO.P,C4,1*%
%TO.N,PLATE*%
X147500000Y-40862500D03*
%TO.P,C4,2*%
%TO.N,OUT+*%
X147500000Y-45137500D03*
%TD*%
%TO.P,C3,1*%
%TO.N,IN-*%
X47750000Y-85612500D03*
%TO.P,C3,2*%
%TO.N,PLATE*%
X47750000Y-89887500D03*
%TD*%
%TO.P,C1,1*%
%TO.N,IN+*%
X67290452Y-68112500D03*
%TO.P,C1,2*%
%TO.N,IN-*%
X67290452Y-72387500D03*
%TD*%
D29*
%TO.N,OUT-*%
X179832000Y-49784000D03*
%TO.N,IN-*%
X28041600Y-46431200D03*
%TO.N,/SC*%
X176500000Y-72750000D03*
%TO.N,/SNS-*%
X174750000Y-75000000D03*
X172500000Y-77000000D03*
%TO.N,/SNS+*%
X174750000Y-63500000D03*
X172500000Y-61750000D03*
%TD*%
D30*
%TO.N,PLATE*%
X151500000Y-39966766D02*
X151500000Y-31250000D01*
X150604266Y-40862500D02*
X151500000Y-39966766D01*
X59525966Y-41224200D02*
X51083982Y-41224200D01*
X51083982Y-41224200D02*
X48426350Y-43881832D01*
X62369958Y-44068192D02*
X59525966Y-41224200D01*
X150604266Y-40862500D02*
X153809958Y-44068192D01*
X147500000Y-40862500D02*
X150604266Y-40862500D01*
X51661584Y-97917000D02*
X48426392Y-94681808D01*
X59321168Y-97917000D02*
X51661584Y-97917000D01*
X62370000Y-94868168D02*
X59321168Y-97917000D01*
D31*
%TO.N,OUT-*%
X179832000Y-49784000D02*
X179832000Y-75010153D01*
%TO.N,IN-*%
X40020787Y-87061587D02*
X40806392Y-87061587D01*
X27990800Y-46482000D02*
X27990800Y-75031600D01*
X28041600Y-46431200D02*
X27990800Y-46482000D01*
X27990800Y-75031600D02*
X40020787Y-87061587D01*
D32*
%TO.N,Unfused_IN+*%
X71985000Y-33250000D02*
X79605000Y-33250000D01*
D33*
%TO.N,/SC*%
X174750000Y-72087500D02*
X175837500Y-72087500D01*
X175837500Y-72087500D02*
X176500000Y-72750000D01*
%TO.N,/SNS-*%
X147609013Y-76901587D02*
X147735618Y-77028192D01*
D31*
X172500000Y-77000000D02*
X172750000Y-77000000D01*
X174750000Y-75000000D02*
X174750000Y-73862500D01*
X172750000Y-77000000D02*
X174750000Y-75000000D01*
D33*
X172471808Y-77028192D02*
X172500000Y-77000000D01*
X147735618Y-77028192D02*
X161390000Y-77028192D01*
X161390000Y-77028192D02*
X172471808Y-77028192D01*
X147486392Y-76901587D02*
X147609013Y-76901587D01*
D30*
%TO.N,PLATE*%
X142885682Y-40862500D02*
X139866350Y-43881832D01*
X47750000Y-48862500D02*
X47750000Y-44558182D01*
X93960008Y-44068192D02*
X94146392Y-43881808D01*
X93960006Y-94868168D02*
X94146347Y-94681827D01*
X108939787Y-94868187D02*
X109126166Y-94681808D01*
X108276336Y-43881832D02*
X108090000Y-44068168D01*
X108089955Y-94868187D02*
X108939787Y-94868187D01*
X47750000Y-44558182D02*
X48426350Y-43881832D01*
X62556342Y-43881808D02*
X62369958Y-44068192D01*
X94332752Y-44068168D02*
X94146392Y-43881808D01*
X62556341Y-94681827D02*
X62370000Y-94868168D01*
X94146347Y-94681827D02*
X94021427Y-94681827D01*
X142934539Y-97750000D02*
X139866347Y-94681808D01*
X94021427Y-94681827D02*
X93835086Y-94868168D01*
X107903595Y-94681827D02*
X108089955Y-94868187D01*
X150928123Y-97750000D02*
X153809955Y-94868168D01*
X147500000Y-40862500D02*
X142885682Y-40862500D01*
X147500000Y-97750000D02*
X150928123Y-97750000D01*
X94146392Y-94681782D02*
X94146347Y-94681827D01*
X94332707Y-94868187D02*
X94146347Y-94681827D01*
X147500000Y-97750000D02*
X142934539Y-97750000D01*
D32*
X139679968Y-94868187D02*
X139866347Y-94681808D01*
D30*
X47750000Y-94005416D02*
X48426392Y-94681808D01*
X94146347Y-43881853D02*
X94146392Y-43881808D01*
X47750000Y-89887500D02*
X47750000Y-94005416D01*
D31*
%TO.N,/SC*%
X174750000Y-72137500D02*
X174750000Y-71000000D01*
X173158192Y-69408192D02*
X161400000Y-69408192D01*
D33*
X147612997Y-69408192D02*
X161400000Y-69408192D01*
D31*
X174750000Y-68000000D02*
X174750000Y-66362500D01*
D33*
X147486392Y-69281587D02*
X147612997Y-69408192D01*
D31*
X173250000Y-69500000D02*
X173158192Y-69408192D01*
X173250000Y-69500000D02*
X174750000Y-68000000D01*
X174750000Y-71000000D02*
X173250000Y-69500000D01*
D33*
%TO.N,/SNS+*%
X147486392Y-61661587D02*
X147612997Y-61788192D01*
X172461808Y-61788192D02*
X172500000Y-61750000D01*
X147612997Y-61788192D02*
X161390000Y-61788192D01*
D31*
X174750000Y-63500000D02*
X173000000Y-61750000D01*
X173000000Y-61750000D02*
X172500000Y-61750000D01*
D33*
X161390000Y-61788192D02*
X172461808Y-61788192D01*
D31*
X174750000Y-64637500D02*
X174750000Y-63500000D01*
%TD*%
%TA.AperFunction,Conductor*%
%TO.N,IN-*%
G36*
X28200531Y-70734744D02*
G01*
X28246041Y-70786104D01*
X28297100Y-70893243D01*
X28297107Y-70893255D01*
X28428660Y-71075885D01*
X28474439Y-71128717D01*
X28501743Y-71159209D01*
X28501750Y-71159215D01*
X28668811Y-71310052D01*
X28860125Y-71428638D01*
X29069530Y-71511154D01*
X29069533Y-71511155D01*
X29069536Y-71511156D01*
X29136575Y-71530841D01*
X29266122Y-71561524D01*
X29490300Y-71581700D01*
X29490307Y-71581700D01*
X73219680Y-71581700D01*
X73227284Y-71581674D01*
X73227742Y-71581673D01*
X73451785Y-71560040D01*
X73496860Y-71551557D01*
X73504874Y-71550022D01*
X73504883Y-71550019D01*
X73504885Y-71550019D01*
X73571009Y-71530841D01*
X73721050Y-71487325D01*
X73770293Y-71468109D01*
X73789903Y-71462271D01*
X73812000Y-71457637D01*
X73837442Y-71455000D01*
X75662556Y-71455000D01*
X75688000Y-71457639D01*
X75710084Y-71462269D01*
X75729710Y-71468111D01*
X75778952Y-71487326D01*
X75786562Y-71490267D01*
X76003140Y-71551557D01*
X76048215Y-71560040D01*
X76054165Y-71561139D01*
X76056236Y-71561523D01*
X76056239Y-71561523D01*
X76056243Y-71561524D01*
X76280421Y-71581700D01*
X76280428Y-71581700D01*
X77876000Y-71581700D01*
X77943039Y-71601385D01*
X77988794Y-71654189D01*
X78000000Y-71705700D01*
X78000000Y-103166075D01*
X77998939Y-103182260D01*
X77974500Y-103367896D01*
X77974500Y-103632103D01*
X77998939Y-103817738D01*
X78000000Y-103833923D01*
X78000000Y-105666075D01*
X77998939Y-105682260D01*
X77974500Y-105867896D01*
X77974500Y-106132103D01*
X77998939Y-106317738D01*
X78000000Y-106333923D01*
X78000000Y-108166075D01*
X77998939Y-108182260D01*
X77974500Y-108367896D01*
X77974500Y-108632103D01*
X77998939Y-108817738D01*
X78000000Y-108833923D01*
X78000000Y-110666075D01*
X77998939Y-110682260D01*
X77974500Y-110867896D01*
X77974500Y-111132103D01*
X77998939Y-111317738D01*
X78000000Y-111333923D01*
X78000000Y-113166075D01*
X77998939Y-113182260D01*
X77974500Y-113367896D01*
X77974500Y-113632103D01*
X77998939Y-113817738D01*
X78000000Y-113833923D01*
X78000000Y-117575500D01*
X77980315Y-117642539D01*
X77927511Y-117688294D01*
X77876000Y-117699500D01*
X30675833Y-117699500D01*
X30608794Y-117679815D01*
X30588152Y-117663181D01*
X27336819Y-114411848D01*
X27303334Y-114350525D01*
X27300500Y-114324167D01*
X27300500Y-108378456D01*
X67135500Y-108378456D01*
X67135500Y-108621543D01*
X67135501Y-108621559D01*
X67167230Y-108862569D01*
X67230149Y-109097386D01*
X67323175Y-109321972D01*
X67323182Y-109321987D01*
X67444730Y-109532516D01*
X67592722Y-109725380D01*
X67592730Y-109725389D01*
X67764611Y-109897270D01*
X67764619Y-109897277D01*
X67957483Y-110045269D01*
X68168012Y-110166817D01*
X68168027Y-110166824D01*
X68284171Y-110214932D01*
X68392612Y-110259850D01*
X68627429Y-110322769D01*
X68868450Y-110354500D01*
X68868457Y-110354500D01*
X69111543Y-110354500D01*
X69111550Y-110354500D01*
X69352571Y-110322769D01*
X69587388Y-110259850D01*
X69811984Y-110166819D01*
X70022516Y-110045269D01*
X70215380Y-109897278D01*
X70215384Y-109897273D01*
X70215389Y-109897270D01*
X70387270Y-109725389D01*
X70387273Y-109725384D01*
X70387278Y-109725380D01*
X70535269Y-109532516D01*
X70656819Y-109321984D01*
X70749850Y-109097388D01*
X70812769Y-108862571D01*
X70844500Y-108621550D01*
X70844500Y-108378450D01*
X70812769Y-108137429D01*
X70749850Y-107902612D01*
X70656819Y-107678016D01*
X70656817Y-107678012D01*
X70535269Y-107467483D01*
X70387277Y-107274619D01*
X70387270Y-107274611D01*
X70215389Y-107102730D01*
X70215380Y-107102722D01*
X70022516Y-106954730D01*
X69811987Y-106833182D01*
X69811972Y-106833175D01*
X69587386Y-106740149D01*
X69352569Y-106677230D01*
X69111559Y-106645501D01*
X69111556Y-106645500D01*
X69111550Y-106645500D01*
X68868450Y-106645500D01*
X68868444Y-106645500D01*
X68868440Y-106645501D01*
X68627430Y-106677230D01*
X68392613Y-106740149D01*
X68168027Y-106833175D01*
X68168012Y-106833182D01*
X67957483Y-106954730D01*
X67764619Y-107102722D01*
X67592722Y-107274619D01*
X67444730Y-107467483D01*
X67323182Y-107678012D01*
X67323175Y-107678027D01*
X67230149Y-107902613D01*
X67167230Y-108137430D01*
X67135501Y-108378440D01*
X67135500Y-108378456D01*
X27300500Y-108378456D01*
X27300500Y-89267149D01*
X44799500Y-89267149D01*
X44799500Y-90507850D01*
X44805918Y-90611235D01*
X44805919Y-90611238D01*
X44856950Y-90854615D01*
X44856953Y-90854625D01*
X44947342Y-91086269D01*
X45074639Y-91299902D01*
X45235348Y-91489649D01*
X45235350Y-91489651D01*
X45425098Y-91650360D01*
X45425101Y-91650361D01*
X45425106Y-91650366D01*
X45438974Y-91658629D01*
X45486487Y-91709853D01*
X45499500Y-91765151D01*
X45499500Y-92723862D01*
X45479815Y-92790901D01*
X45478602Y-92792752D01*
X45420297Y-92880011D01*
X45420292Y-92880020D01*
X45258164Y-93183338D01*
X45258162Y-93183343D01*
X45126542Y-93501101D01*
X45026700Y-93830235D01*
X44959602Y-94167558D01*
X44925892Y-94509842D01*
X44925892Y-94853773D01*
X44959602Y-95196057D01*
X45026700Y-95533380D01*
X45126542Y-95862514D01*
X45258162Y-96180272D01*
X45258164Y-96180277D01*
X45420285Y-96483583D01*
X45420296Y-96483601D01*
X45611367Y-96769559D01*
X45611377Y-96769573D01*
X45829568Y-97035440D01*
X46072759Y-97278631D01*
X46072764Y-97278635D01*
X46072765Y-97278636D01*
X46338632Y-97496827D01*
X46624605Y-97687908D01*
X46624614Y-97687913D01*
X46624616Y-97687914D01*
X46927922Y-97850035D01*
X46927924Y-97850035D01*
X46927930Y-97850039D01*
X47245687Y-97981658D01*
X47574814Y-98081498D01*
X47912142Y-98148597D01*
X48254423Y-98182308D01*
X48254426Y-98182308D01*
X48598356Y-98182308D01*
X48598361Y-98182308D01*
X48672764Y-98174979D01*
X48741408Y-98187997D01*
X48772598Y-98210701D01*
X49965937Y-99404041D01*
X49965938Y-99404042D01*
X50174537Y-99612642D01*
X50174543Y-99612647D01*
X50408590Y-99792238D01*
X50664073Y-99939741D01*
X50664088Y-99939748D01*
X50781544Y-99988399D01*
X50936632Y-100052639D01*
X51221591Y-100128994D01*
X51440956Y-100157873D01*
X51514077Y-100167500D01*
X51514078Y-100167500D01*
X59468668Y-100167500D01*
X59468673Y-100167500D01*
X59468674Y-100167500D01*
X59502700Y-100163020D01*
X59761161Y-100128994D01*
X59985900Y-100068774D01*
X60046120Y-100052639D01*
X60318675Y-99939743D01*
X60574162Y-99792238D01*
X60808210Y-99612646D01*
X61016814Y-99404042D01*
X61016815Y-99404041D01*
X61022178Y-99398678D01*
X61022193Y-99398660D01*
X62023794Y-98397059D01*
X62085115Y-98363576D01*
X62123623Y-98361339D01*
X62198031Y-98368668D01*
X62198036Y-98368668D01*
X62541966Y-98368668D01*
X62541969Y-98368668D01*
X62884250Y-98334957D01*
X63221578Y-98267858D01*
X63550705Y-98168018D01*
X63868462Y-98036399D01*
X64171787Y-97874268D01*
X64457760Y-97683187D01*
X64723627Y-97464996D01*
X64966828Y-97221795D01*
X65185019Y-96955928D01*
X65376100Y-96669955D01*
X65538231Y-96366630D01*
X65669850Y-96048873D01*
X65769690Y-95719746D01*
X65836789Y-95382418D01*
X65870500Y-95040137D01*
X65870500Y-94696199D01*
X65836789Y-94353918D01*
X65769690Y-94016590D01*
X65669850Y-93687463D01*
X65538231Y-93369706D01*
X65376100Y-93066381D01*
X65185019Y-92780408D01*
X64966828Y-92514541D01*
X64966827Y-92514540D01*
X64966823Y-92514535D01*
X64723632Y-92271344D01*
X64457765Y-92053153D01*
X64457764Y-92053152D01*
X64457760Y-92053149D01*
X64178852Y-91866789D01*
X64171793Y-91862072D01*
X64171792Y-91862071D01*
X64171787Y-91862068D01*
X64171782Y-91862065D01*
X64171775Y-91862061D01*
X63868469Y-91699940D01*
X63868464Y-91699938D01*
X63855806Y-91694695D01*
X63735989Y-91645065D01*
X63550706Y-91568318D01*
X63221572Y-91468476D01*
X62884248Y-91401378D01*
X62884249Y-91401378D01*
X62626456Y-91375989D01*
X62541969Y-91367668D01*
X62198031Y-91367668D01*
X62119966Y-91375356D01*
X61855750Y-91401378D01*
X61518427Y-91468476D01*
X61189293Y-91568318D01*
X60871535Y-91699938D01*
X60871530Y-91699940D01*
X60568224Y-91862061D01*
X60568206Y-91862072D01*
X60282248Y-92053143D01*
X60282234Y-92053153D01*
X60016367Y-92271344D01*
X59773176Y-92514535D01*
X59554985Y-92780402D01*
X59554975Y-92780416D01*
X59363904Y-93066374D01*
X59363893Y-93066392D01*
X59201772Y-93369698D01*
X59201770Y-93369703D01*
X59070150Y-93687461D01*
X58970308Y-94016595D01*
X58903210Y-94353918D01*
X58869500Y-94696202D01*
X58869500Y-95040135D01*
X58876827Y-95114541D01*
X58863807Y-95183187D01*
X58841105Y-95214374D01*
X58425300Y-95630181D01*
X58363977Y-95663666D01*
X58337619Y-95666500D01*
X52645134Y-95666500D01*
X52578095Y-95646815D01*
X52557453Y-95630181D01*
X51955285Y-95028014D01*
X51921800Y-94966691D01*
X51919563Y-94928183D01*
X51926892Y-94853777D01*
X51926892Y-94509839D01*
X51893181Y-94167558D01*
X51826082Y-93830230D01*
X51726242Y-93501103D01*
X51684723Y-93400866D01*
X55210500Y-93400866D01*
X55210500Y-93575517D01*
X55228231Y-93687463D01*
X55237819Y-93748001D01*
X55291786Y-93914092D01*
X55371070Y-94069697D01*
X55473721Y-94210983D01*
X55597209Y-94334471D01*
X55738495Y-94437122D01*
X55894100Y-94516406D01*
X56060191Y-94570373D01*
X56146435Y-94584032D01*
X56232675Y-94597692D01*
X56232680Y-94597692D01*
X56407325Y-94597692D01*
X56485724Y-94585274D01*
X56579809Y-94570373D01*
X56745900Y-94516406D01*
X56901505Y-94437122D01*
X57042791Y-94334471D01*
X57166279Y-94210983D01*
X57268930Y-94069697D01*
X57348214Y-93914092D01*
X57402181Y-93748001D01*
X57417082Y-93653916D01*
X57429500Y-93575517D01*
X57429500Y-93400866D01*
X57414598Y-93306787D01*
X57402181Y-93228383D01*
X57348214Y-93062292D01*
X57268930Y-92906687D01*
X57166279Y-92765401D01*
X57042791Y-92641913D01*
X56901505Y-92539262D01*
X56745900Y-92459978D01*
X56579809Y-92406011D01*
X56579803Y-92406010D01*
X56407325Y-92378692D01*
X56407320Y-92378692D01*
X56232680Y-92378692D01*
X56232675Y-92378692D01*
X56060196Y-92406010D01*
X56060194Y-92406010D01*
X56060191Y-92406011D01*
X55894100Y-92459978D01*
X55894097Y-92459979D01*
X55894095Y-92459980D01*
X55738494Y-92539262D01*
X55597207Y-92641914D01*
X55473722Y-92765399D01*
X55371070Y-92906686D01*
X55291788Y-93062287D01*
X55291787Y-93062289D01*
X55291786Y-93062292D01*
X55237819Y-93228383D01*
X55237818Y-93228386D01*
X55237818Y-93228388D01*
X55210500Y-93400866D01*
X51684723Y-93400866D01*
X51594623Y-93183346D01*
X51529915Y-93062287D01*
X51432498Y-92880032D01*
X51432497Y-92880030D01*
X51432492Y-92880021D01*
X51241411Y-92594048D01*
X51023220Y-92328181D01*
X51023219Y-92328180D01*
X51023215Y-92328175D01*
X50780024Y-92084984D01*
X50514157Y-91866793D01*
X50514156Y-91866792D01*
X50514152Y-91866789D01*
X50264442Y-91699938D01*
X50262555Y-91698677D01*
X50217750Y-91645065D01*
X50209043Y-91575740D01*
X50239197Y-91512712D01*
X50251307Y-91500951D01*
X50251321Y-91500938D01*
X50264650Y-91489650D01*
X50367964Y-91367668D01*
X50425360Y-91299902D01*
X50425361Y-91299898D01*
X50425366Y-91299894D01*
X50552656Y-91086273D01*
X50643050Y-90854614D01*
X50694081Y-90611237D01*
X50700500Y-90507842D01*
X50700500Y-89267158D01*
X50694081Y-89163763D01*
X50643050Y-88920386D01*
X50643048Y-88920381D01*
X50643046Y-88920374D01*
X50552657Y-88688730D01*
X50552656Y-88688727D01*
X50425366Y-88475106D01*
X50425363Y-88475103D01*
X50425360Y-88475097D01*
X50264651Y-88285350D01*
X50264649Y-88285348D01*
X50074902Y-88124639D01*
X50074894Y-88124634D01*
X49861273Y-87997344D01*
X49861271Y-87997343D01*
X49861269Y-87997342D01*
X49629625Y-87906953D01*
X49629615Y-87906950D01*
X49386238Y-87855919D01*
X49386235Y-87855918D01*
X49282850Y-87849500D01*
X49282842Y-87849500D01*
X48735338Y-87849500D01*
X48687885Y-87840061D01*
X48474961Y-87751864D01*
X48474954Y-87751862D01*
X48474952Y-87751861D01*
X48189993Y-87675507D01*
X48141113Y-87669071D01*
X47897513Y-87637000D01*
X47897506Y-87637000D01*
X47602494Y-87637000D01*
X47602486Y-87637000D01*
X47324085Y-87673653D01*
X47310007Y-87675507D01*
X47025048Y-87751861D01*
X47025038Y-87751864D01*
X46812115Y-87840061D01*
X46764662Y-87849500D01*
X46217149Y-87849500D01*
X46113764Y-87855918D01*
X46113761Y-87855919D01*
X45870384Y-87906950D01*
X45870374Y-87906953D01*
X45638730Y-87997342D01*
X45425097Y-88124639D01*
X45235350Y-88285348D01*
X45235348Y-88285350D01*
X45074639Y-88475097D01*
X44947342Y-88688730D01*
X44856953Y-88920374D01*
X44856950Y-88920384D01*
X44805919Y-89163761D01*
X44805918Y-89163764D01*
X44799500Y-89267149D01*
X27300500Y-89267149D01*
X27300500Y-74337364D01*
X36805892Y-74337364D01*
X36805892Y-79465795D01*
X36805893Y-79465810D01*
X36816296Y-79598000D01*
X36816297Y-79598007D01*
X36871294Y-79816265D01*
X36871295Y-79816268D01*
X36964383Y-80021209D01*
X36964389Y-80021219D01*
X37092566Y-80206232D01*
X37092570Y-80206237D01*
X37092573Y-80206241D01*
X37251738Y-80365406D01*
X37251742Y-80365409D01*
X37251746Y-80365412D01*
X37390995Y-80461884D01*
X37436766Y-80493594D01*
X37641709Y-80586683D01*
X37641713Y-80586684D01*
X37859971Y-80641681D01*
X37859973Y-80641681D01*
X37859980Y-80641683D01*
X37992175Y-80652087D01*
X44620608Y-80652086D01*
X44752804Y-80641683D01*
X44971075Y-80586683D01*
X45176018Y-80493594D01*
X45361046Y-80365406D01*
X45520211Y-80206241D01*
X45648399Y-80021213D01*
X45741488Y-79816270D01*
X45796488Y-79597999D01*
X45806892Y-79465804D01*
X45806891Y-76811691D01*
X50249500Y-76811691D01*
X50249500Y-77204692D01*
X50283751Y-77596187D01*
X50283751Y-77596191D01*
X50351991Y-77983197D01*
X50351993Y-77983207D01*
X50453707Y-78362808D01*
X50453708Y-78362810D01*
X50453708Y-78362811D01*
X50588124Y-78732113D01*
X50754195Y-79088254D01*
X50754207Y-79088278D01*
X50950695Y-79428604D01*
X50950704Y-79428619D01*
X51176115Y-79750539D01*
X51368793Y-79980163D01*
X51428722Y-80051583D01*
X51706609Y-80329470D01*
X51749431Y-80365402D01*
X52007652Y-80582076D01*
X52007658Y-80582080D01*
X52007659Y-80582081D01*
X52329579Y-80807492D01*
X52669920Y-81003988D01*
X52669934Y-81003994D01*
X52669937Y-81003996D01*
X53026078Y-81170067D01*
X53026083Y-81170068D01*
X53026092Y-81170073D01*
X53395384Y-81304485D01*
X53774985Y-81406199D01*
X54162007Y-81474441D01*
X54553502Y-81508691D01*
X54553503Y-81508692D01*
X54553504Y-81508692D01*
X54946497Y-81508692D01*
X54946497Y-81508691D01*
X55337993Y-81474441D01*
X55725015Y-81406199D01*
X56104616Y-81304485D01*
X56473908Y-81170073D01*
X56830080Y-81003988D01*
X57170421Y-80807492D01*
X57492341Y-80582081D01*
X57793391Y-80329470D01*
X58071278Y-80051583D01*
X58323889Y-79750533D01*
X58549300Y-79428613D01*
X58745796Y-79088272D01*
X58911881Y-78732100D01*
X59046293Y-78362808D01*
X59148007Y-77983207D01*
X59216249Y-77596185D01*
X59250500Y-77204688D01*
X59250500Y-76811696D01*
X59216249Y-76420199D01*
X59148007Y-76033177D01*
X59046293Y-75653576D01*
X58911881Y-75284284D01*
X58911876Y-75284275D01*
X58911875Y-75284270D01*
X58745804Y-74928129D01*
X58745792Y-74928105D01*
X58733455Y-74906738D01*
X58549300Y-74587771D01*
X58323889Y-74265851D01*
X58323888Y-74265850D01*
X58323884Y-74265844D01*
X58089825Y-73986905D01*
X58071278Y-73964801D01*
X57793391Y-73686914D01*
X57721971Y-73626985D01*
X57492347Y-73434307D01*
X57170427Y-73208896D01*
X57170424Y-73208894D01*
X57170421Y-73208892D01*
X57069305Y-73150512D01*
X56830086Y-73012399D01*
X56830062Y-73012387D01*
X56473921Y-72846316D01*
X56473910Y-72846312D01*
X56473908Y-72846311D01*
X56104616Y-72711899D01*
X55863960Y-72647415D01*
X55725016Y-72610185D01*
X55725005Y-72610183D01*
X55337997Y-72541943D01*
X54946500Y-72507692D01*
X54946496Y-72507692D01*
X54553504Y-72507692D01*
X54553499Y-72507692D01*
X54162004Y-72541943D01*
X54162000Y-72541943D01*
X53774994Y-72610183D01*
X53774983Y-72610185D01*
X53571555Y-72664694D01*
X53395384Y-72711899D01*
X53395381Y-72711900D01*
X53395380Y-72711900D01*
X53026078Y-72846316D01*
X52669937Y-73012387D01*
X52669913Y-73012399D01*
X52329587Y-73208887D01*
X52329572Y-73208896D01*
X52007652Y-73434307D01*
X51706606Y-73686916D01*
X51428724Y-73964798D01*
X51176115Y-74265844D01*
X50950704Y-74587764D01*
X50950695Y-74587779D01*
X50754207Y-74928105D01*
X50754195Y-74928129D01*
X50588124Y-75284270D01*
X50453708Y-75653572D01*
X50453708Y-75653574D01*
X50351993Y-76033175D01*
X50351991Y-76033186D01*
X50283751Y-76420192D01*
X50283751Y-76420196D01*
X50249500Y-76811691D01*
X45806891Y-76811691D01*
X45806891Y-74337371D01*
X45796488Y-74205175D01*
X45741488Y-73986904D01*
X45648399Y-73781961D01*
X45520211Y-73596933D01*
X45361046Y-73437768D01*
X45361042Y-73437765D01*
X45361037Y-73437761D01*
X45176024Y-73309584D01*
X45176022Y-73309582D01*
X45176018Y-73309580D01*
X44971075Y-73216491D01*
X44971073Y-73216490D01*
X44971070Y-73216489D01*
X44752812Y-73161492D01*
X44752805Y-73161491D01*
X44708739Y-73158023D01*
X44620609Y-73151087D01*
X44620607Y-73151087D01*
X37992183Y-73151087D01*
X37992168Y-73151088D01*
X37859978Y-73161491D01*
X37859971Y-73161492D01*
X37641713Y-73216489D01*
X37641710Y-73216490D01*
X37436769Y-73309578D01*
X37436759Y-73309584D01*
X37251746Y-73437761D01*
X37251734Y-73437771D01*
X37092576Y-73596929D01*
X37092566Y-73596941D01*
X36964389Y-73781954D01*
X36964383Y-73781964D01*
X36871295Y-73986905D01*
X36871294Y-73986908D01*
X36816297Y-74205166D01*
X36816296Y-74205173D01*
X36805892Y-74337364D01*
X27300500Y-74337364D01*
X27300500Y-70843600D01*
X27320185Y-70776561D01*
X27372989Y-70730806D01*
X27423771Y-70719602D01*
X28133381Y-70715453D01*
X28200531Y-70734744D01*
G37*
%TD.AperFunction*%
%TD*%
%TA.AperFunction,Conductor*%
%TO.N,IN+*%
G36*
X65693039Y-27070185D02*
G01*
X65738794Y-27122989D01*
X65750000Y-27174500D01*
X65750000Y-39000000D01*
X77876000Y-39000000D01*
X77943039Y-39019685D01*
X77988794Y-39072489D01*
X78000000Y-39124000D01*
X78000000Y-70202200D01*
X77980315Y-70269239D01*
X77927511Y-70314994D01*
X77876000Y-70326200D01*
X76280421Y-70326200D01*
X76235346Y-70317717D01*
X76079625Y-70256953D01*
X76079615Y-70256950D01*
X75836238Y-70205919D01*
X75836235Y-70205918D01*
X75732850Y-70199500D01*
X75732842Y-70199500D01*
X73767158Y-70199500D01*
X73767149Y-70199500D01*
X73663764Y-70205918D01*
X73663761Y-70205919D01*
X73420384Y-70256950D01*
X73420374Y-70256953D01*
X73264654Y-70317717D01*
X73219579Y-70326200D01*
X29490300Y-70326200D01*
X29423261Y-70306515D01*
X29377506Y-70253711D01*
X29366300Y-70202200D01*
X29366300Y-59097364D01*
X36805892Y-59097364D01*
X36805892Y-64225795D01*
X36805893Y-64225810D01*
X36816296Y-64358000D01*
X36816297Y-64358007D01*
X36871294Y-64576265D01*
X36871295Y-64576268D01*
X36964383Y-64781209D01*
X36964389Y-64781219D01*
X37092566Y-64966232D01*
X37092570Y-64966237D01*
X37092573Y-64966241D01*
X37251738Y-65125406D01*
X37251742Y-65125409D01*
X37251746Y-65125412D01*
X37390995Y-65221884D01*
X37436766Y-65253594D01*
X37641709Y-65346683D01*
X37641713Y-65346684D01*
X37859971Y-65401681D01*
X37859973Y-65401681D01*
X37859980Y-65401683D01*
X37992175Y-65412087D01*
X44620608Y-65412086D01*
X44752804Y-65401683D01*
X44971075Y-65346683D01*
X45176018Y-65253594D01*
X45361046Y-65125406D01*
X45520211Y-64966241D01*
X45648399Y-64781213D01*
X45741488Y-64576270D01*
X45796488Y-64357999D01*
X45806892Y-64225804D01*
X45806891Y-61571691D01*
X50249500Y-61571691D01*
X50249500Y-61964692D01*
X50283751Y-62356187D01*
X50283751Y-62356191D01*
X50351991Y-62743197D01*
X50351993Y-62743207D01*
X50453707Y-63122808D01*
X50453708Y-63122810D01*
X50453708Y-63122811D01*
X50588124Y-63492113D01*
X50754195Y-63848254D01*
X50754207Y-63848278D01*
X50950695Y-64188604D01*
X50950704Y-64188619D01*
X51176115Y-64510539D01*
X51368793Y-64740163D01*
X51428722Y-64811583D01*
X51706609Y-65089470D01*
X51749431Y-65125402D01*
X52007652Y-65342076D01*
X52007658Y-65342080D01*
X52007659Y-65342081D01*
X52329579Y-65567492D01*
X52669920Y-65763988D01*
X52669934Y-65763994D01*
X52669937Y-65763996D01*
X53026078Y-65930067D01*
X53026083Y-65930068D01*
X53026092Y-65930073D01*
X53395384Y-66064485D01*
X53774985Y-66166199D01*
X54162007Y-66234441D01*
X54553502Y-66268691D01*
X54553503Y-66268692D01*
X54553504Y-66268692D01*
X54946497Y-66268692D01*
X54946497Y-66268691D01*
X55337993Y-66234441D01*
X55725015Y-66166199D01*
X56104616Y-66064485D01*
X56473908Y-65930073D01*
X56830080Y-65763988D01*
X57170421Y-65567492D01*
X57492341Y-65342081D01*
X57793391Y-65089470D01*
X58071278Y-64811583D01*
X58323889Y-64510533D01*
X58549300Y-64188613D01*
X58745796Y-63848272D01*
X58911881Y-63492100D01*
X59046293Y-63122808D01*
X59148007Y-62743207D01*
X59216249Y-62356185D01*
X59250500Y-61964688D01*
X59250500Y-61571696D01*
X59216249Y-61180199D01*
X59148007Y-60793177D01*
X59046293Y-60413576D01*
X58911881Y-60044284D01*
X58911876Y-60044275D01*
X58911875Y-60044270D01*
X58745804Y-59688129D01*
X58745792Y-59688105D01*
X58733455Y-59666738D01*
X58549300Y-59347771D01*
X58323889Y-59025851D01*
X58323888Y-59025850D01*
X58323884Y-59025844D01*
X58089825Y-58746905D01*
X58071278Y-58724801D01*
X57793391Y-58446914D01*
X57721971Y-58386985D01*
X57492347Y-58194307D01*
X57170427Y-57968896D01*
X57170424Y-57968894D01*
X57170421Y-57968892D01*
X57069305Y-57910512D01*
X56830086Y-57772399D01*
X56830062Y-57772387D01*
X56473921Y-57606316D01*
X56473910Y-57606312D01*
X56473908Y-57606311D01*
X56104616Y-57471899D01*
X55863960Y-57407415D01*
X55725016Y-57370185D01*
X55725005Y-57370183D01*
X55337997Y-57301943D01*
X54946500Y-57267692D01*
X54946496Y-57267692D01*
X54553504Y-57267692D01*
X54553499Y-57267692D01*
X54162004Y-57301943D01*
X54162000Y-57301943D01*
X53774994Y-57370183D01*
X53774983Y-57370185D01*
X53571555Y-57424694D01*
X53395384Y-57471899D01*
X53395381Y-57471900D01*
X53395380Y-57471900D01*
X53026078Y-57606316D01*
X52669937Y-57772387D01*
X52669913Y-57772399D01*
X52329587Y-57968887D01*
X52329572Y-57968896D01*
X52007652Y-58194307D01*
X51706606Y-58446916D01*
X51428724Y-58724798D01*
X51176115Y-59025844D01*
X50950704Y-59347764D01*
X50950695Y-59347779D01*
X50754207Y-59688105D01*
X50754195Y-59688129D01*
X50588124Y-60044270D01*
X50453708Y-60413572D01*
X50453708Y-60413574D01*
X50351993Y-60793175D01*
X50351991Y-60793186D01*
X50283751Y-61180192D01*
X50283751Y-61180196D01*
X50249500Y-61571691D01*
X45806891Y-61571691D01*
X45806891Y-59097371D01*
X45796488Y-58965175D01*
X45741488Y-58746904D01*
X45648399Y-58541961D01*
X45520211Y-58356933D01*
X45361046Y-58197768D01*
X45361042Y-58197765D01*
X45361037Y-58197761D01*
X45176024Y-58069584D01*
X45176022Y-58069582D01*
X45176018Y-58069580D01*
X44971075Y-57976491D01*
X44971073Y-57976490D01*
X44971070Y-57976489D01*
X44752812Y-57921492D01*
X44752805Y-57921491D01*
X44708739Y-57918023D01*
X44620609Y-57911087D01*
X44620607Y-57911087D01*
X37992183Y-57911087D01*
X37992168Y-57911088D01*
X37859978Y-57921491D01*
X37859971Y-57921492D01*
X37641713Y-57976489D01*
X37641710Y-57976490D01*
X37436769Y-58069578D01*
X37436759Y-58069584D01*
X37251746Y-58197761D01*
X37251734Y-58197771D01*
X37092576Y-58356929D01*
X37092566Y-58356941D01*
X36964389Y-58541954D01*
X36964383Y-58541964D01*
X36871295Y-58746905D01*
X36871294Y-58746908D01*
X36816297Y-58965166D01*
X36816296Y-58965173D01*
X36805892Y-59097364D01*
X29366300Y-59097364D01*
X29366300Y-48242149D01*
X44799500Y-48242149D01*
X44799500Y-49482850D01*
X44805918Y-49586235D01*
X44805919Y-49586238D01*
X44856950Y-49829615D01*
X44856953Y-49829625D01*
X44947342Y-50061269D01*
X45074639Y-50274902D01*
X45235348Y-50464649D01*
X45235350Y-50464651D01*
X45425097Y-50625360D01*
X45425103Y-50625363D01*
X45425106Y-50625366D01*
X45638727Y-50752656D01*
X45638730Y-50752657D01*
X45870374Y-50843046D01*
X45870381Y-50843048D01*
X45870386Y-50843050D01*
X46113763Y-50894081D01*
X46217158Y-50900500D01*
X46764662Y-50900500D01*
X46812114Y-50909938D01*
X47025048Y-50998139D01*
X47310007Y-51074493D01*
X47602494Y-51113000D01*
X47602501Y-51113000D01*
X47897499Y-51113000D01*
X47897506Y-51113000D01*
X48189993Y-51074493D01*
X48474952Y-50998139D01*
X48687885Y-50909938D01*
X48735338Y-50900500D01*
X49282831Y-50900500D01*
X49282842Y-50900500D01*
X49386237Y-50894081D01*
X49629614Y-50843050D01*
X49629621Y-50843046D01*
X49629625Y-50843046D01*
X49708980Y-50812080D01*
X49861273Y-50752656D01*
X50074894Y-50625366D01*
X50074898Y-50625361D01*
X50074902Y-50625360D01*
X50264649Y-50464651D01*
X50264651Y-50464649D01*
X50425360Y-50274902D01*
X50425361Y-50274898D01*
X50425366Y-50274894D01*
X50552656Y-50061273D01*
X50643050Y-49829614D01*
X50694081Y-49586237D01*
X50700500Y-49482842D01*
X50700500Y-48242158D01*
X50694081Y-48138763D01*
X50643050Y-47895386D01*
X50643048Y-47895381D01*
X50643046Y-47895374D01*
X50552657Y-47663730D01*
X50552656Y-47663727D01*
X50425366Y-47450106D01*
X50425363Y-47450103D01*
X50425360Y-47450097D01*
X50264651Y-47260350D01*
X50264650Y-47260349D01*
X50120205Y-47138010D01*
X50081770Y-47079662D01*
X50080983Y-47009797D01*
X50118092Y-46950596D01*
X50141885Y-46934034D01*
X50228137Y-46887932D01*
X50514110Y-46696851D01*
X50779977Y-46478660D01*
X51023178Y-46235459D01*
X51241369Y-45969592D01*
X51432450Y-45683619D01*
X51594581Y-45380294D01*
X51702039Y-45120866D01*
X52050500Y-45120866D01*
X52050500Y-45295517D01*
X52070394Y-45421123D01*
X52077819Y-45468001D01*
X52131786Y-45634092D01*
X52211070Y-45789697D01*
X52313721Y-45930983D01*
X52437209Y-46054471D01*
X52578495Y-46157122D01*
X52734100Y-46236406D01*
X52900191Y-46290373D01*
X52986435Y-46304032D01*
X53072675Y-46317692D01*
X53072680Y-46317692D01*
X53247325Y-46317692D01*
X53325724Y-46305274D01*
X53419809Y-46290373D01*
X53585900Y-46236406D01*
X53741505Y-46157122D01*
X53882791Y-46054471D01*
X54006279Y-45930983D01*
X54108930Y-45789697D01*
X54188214Y-45634092D01*
X54242181Y-45468001D01*
X54257082Y-45373916D01*
X54269500Y-45295517D01*
X54269500Y-45120866D01*
X54249453Y-44994297D01*
X54242181Y-44948383D01*
X54188214Y-44782292D01*
X54108930Y-44626687D01*
X54006279Y-44485401D01*
X53882791Y-44361913D01*
X53741505Y-44259262D01*
X53585900Y-44179978D01*
X53419809Y-44126011D01*
X53419803Y-44126010D01*
X53247325Y-44098692D01*
X53247320Y-44098692D01*
X53072680Y-44098692D01*
X53072675Y-44098692D01*
X52900196Y-44126010D01*
X52900194Y-44126010D01*
X52900191Y-44126011D01*
X52734100Y-44179978D01*
X52734097Y-44179979D01*
X52734095Y-44179980D01*
X52578494Y-44259262D01*
X52437207Y-44361914D01*
X52313722Y-44485399D01*
X52211070Y-44626686D01*
X52131788Y-44782287D01*
X52131787Y-44782289D01*
X52131786Y-44782292D01*
X52077819Y-44948383D01*
X52077818Y-44948386D01*
X52077818Y-44948388D01*
X52050500Y-45120866D01*
X51702039Y-45120866D01*
X51726200Y-45062537D01*
X51826040Y-44733410D01*
X51893139Y-44396082D01*
X51926850Y-44053801D01*
X51926850Y-43709863D01*
X51919521Y-43635458D01*
X51919842Y-43633763D01*
X51919240Y-43632147D01*
X51926324Y-43599586D01*
X51932539Y-43566815D01*
X51933844Y-43565021D01*
X51934094Y-43563875D01*
X51955241Y-43535626D01*
X51979854Y-43511015D01*
X52041179Y-43477533D01*
X52067532Y-43474700D01*
X58542417Y-43474700D01*
X58609456Y-43494385D01*
X58630098Y-43511019D01*
X58841063Y-43721984D01*
X58874548Y-43783307D01*
X58876785Y-43821817D01*
X58870076Y-43889938D01*
X58869458Y-43896223D01*
X58869458Y-44240161D01*
X58879709Y-44344246D01*
X58903168Y-44582441D01*
X58970266Y-44919764D01*
X59070108Y-45248898D01*
X59201728Y-45566656D01*
X59201730Y-45566661D01*
X59363851Y-45869967D01*
X59363862Y-45869985D01*
X59554933Y-46155943D01*
X59554943Y-46155957D01*
X59773134Y-46421824D01*
X60016325Y-46665015D01*
X60016330Y-46665019D01*
X60016331Y-46665020D01*
X60282198Y-46883211D01*
X60568171Y-47074292D01*
X60568180Y-47074297D01*
X60568182Y-47074298D01*
X60871488Y-47236419D01*
X60871490Y-47236419D01*
X60871496Y-47236423D01*
X61189253Y-47368042D01*
X61518380Y-47467882D01*
X61855708Y-47534981D01*
X62197989Y-47568692D01*
X62197992Y-47568692D01*
X62541924Y-47568692D01*
X62541927Y-47568692D01*
X62884208Y-47534981D01*
X63221536Y-47467882D01*
X63550663Y-47368042D01*
X63868420Y-47236423D01*
X64171745Y-47074292D01*
X64457718Y-46883211D01*
X64723585Y-46665020D01*
X64966786Y-46421819D01*
X65184977Y-46155952D01*
X65376058Y-45869979D01*
X65538189Y-45566654D01*
X65669808Y-45248897D01*
X65769648Y-44919770D01*
X65836747Y-44582442D01*
X65870458Y-44240161D01*
X65870458Y-43896223D01*
X65836747Y-43553942D01*
X65769648Y-43216614D01*
X65669808Y-42887487D01*
X65538189Y-42569730D01*
X65376058Y-42266405D01*
X65184977Y-41980432D01*
X64966786Y-41714565D01*
X64966785Y-41714564D01*
X64966781Y-41714559D01*
X64723590Y-41471368D01*
X64457723Y-41253177D01*
X64457722Y-41253176D01*
X64457718Y-41253173D01*
X64178810Y-41066813D01*
X64171751Y-41062096D01*
X64171750Y-41062095D01*
X64171745Y-41062092D01*
X64171740Y-41062089D01*
X64171733Y-41062085D01*
X63868427Y-40899964D01*
X63868422Y-40899962D01*
X63809935Y-40875736D01*
X63775352Y-40861411D01*
X63550664Y-40768342D01*
X63221530Y-40668500D01*
X62884206Y-40601402D01*
X62884207Y-40601402D01*
X62616321Y-40575019D01*
X62541927Y-40567692D01*
X62197989Y-40567692D01*
X62186399Y-40568833D01*
X62123583Y-40575019D01*
X62054937Y-40561999D01*
X62023750Y-40539297D01*
X61224737Y-39740284D01*
X61224709Y-39740254D01*
X61013013Y-39528558D01*
X61013006Y-39528552D01*
X60778959Y-39348961D01*
X60523476Y-39201458D01*
X60523461Y-39201451D01*
X60250918Y-39088561D01*
X60190698Y-39072425D01*
X60190698Y-39072424D01*
X59965957Y-39012205D01*
X59746682Y-38983337D01*
X59707498Y-38978179D01*
X59707497Y-38978178D01*
X59673473Y-38973700D01*
X59673472Y-38973700D01*
X50936476Y-38973700D01*
X50936474Y-38973700D01*
X50902449Y-38978178D01*
X50902449Y-38978179D01*
X50868423Y-38982658D01*
X50643990Y-39012205D01*
X50419248Y-39072425D01*
X50419247Y-39072424D01*
X50359035Y-39088559D01*
X50359033Y-39088559D01*
X50086481Y-39201454D01*
X50086471Y-39201458D01*
X49830988Y-39348961D01*
X49596941Y-39528552D01*
X49596935Y-39528557D01*
X49388336Y-39737158D01*
X49388332Y-39737162D01*
X48772556Y-40352937D01*
X48711233Y-40386422D01*
X48672723Y-40388659D01*
X48611372Y-40382617D01*
X48598319Y-40381332D01*
X48254381Y-40381332D01*
X48179987Y-40388659D01*
X47912100Y-40415042D01*
X47574777Y-40482140D01*
X47245643Y-40581982D01*
X46927885Y-40713602D01*
X46927880Y-40713604D01*
X46624574Y-40875725D01*
X46624556Y-40875736D01*
X46338598Y-41066807D01*
X46338584Y-41066817D01*
X46072717Y-41285008D01*
X45829526Y-41528199D01*
X45611335Y-41794066D01*
X45611325Y-41794080D01*
X45420254Y-42080038D01*
X45420243Y-42080056D01*
X45258122Y-42383362D01*
X45258120Y-42383367D01*
X45126500Y-42701125D01*
X45026658Y-43030259D01*
X44959560Y-43367582D01*
X44938926Y-43577095D01*
X44925850Y-43709863D01*
X44925850Y-44053801D01*
X44932962Y-44126010D01*
X44959560Y-44396081D01*
X45026658Y-44733404D01*
X45126500Y-45062538D01*
X45258120Y-45380296D01*
X45258122Y-45380301D01*
X45420243Y-45683607D01*
X45420247Y-45683614D01*
X45420250Y-45683619D01*
X45478602Y-45770949D01*
X45499480Y-45837625D01*
X45499500Y-45839839D01*
X45499500Y-46984847D01*
X45479815Y-47051886D01*
X45438978Y-47091367D01*
X45425107Y-47099633D01*
X45425100Y-47099637D01*
X45235350Y-47260348D01*
X45235348Y-47260350D01*
X45074639Y-47450097D01*
X44947342Y-47663730D01*
X44856953Y-47895374D01*
X44856950Y-47895384D01*
X44805919Y-48138761D01*
X44805918Y-48138764D01*
X44799500Y-48242149D01*
X29366300Y-48242149D01*
X29366300Y-47309879D01*
X29367873Y-47301905D01*
X29366972Y-47296991D01*
X29375598Y-47262767D01*
X29376592Y-47260348D01*
X29446593Y-47089916D01*
X29450808Y-47080741D01*
X29478502Y-47026389D01*
X29478503Y-47026387D01*
X29478504Y-47026385D01*
X29512526Y-46921675D01*
X29531831Y-46867483D01*
X29532476Y-46865358D01*
X29536753Y-46847111D01*
X29553921Y-46794276D01*
X29563877Y-46731412D01*
X29569366Y-46708002D01*
X29571019Y-46686324D01*
X29592100Y-46553227D01*
X29592100Y-46309173D01*
X29553921Y-46068124D01*
X29478504Y-45836015D01*
X29367706Y-45618561D01*
X29329995Y-45566656D01*
X29224260Y-45421123D01*
X29224256Y-45421118D01*
X29051681Y-45248543D01*
X29051676Y-45248539D01*
X28854242Y-45105096D01*
X28854241Y-45105095D01*
X28854239Y-45105094D01*
X28636785Y-44994296D01*
X28404676Y-44918879D01*
X28404674Y-44918878D01*
X28404672Y-44918878D01*
X28236108Y-44892180D01*
X28163627Y-44880700D01*
X27919573Y-44880700D01*
X27863693Y-44889550D01*
X27678527Y-44918878D01*
X27678526Y-44918878D01*
X27462818Y-44988966D01*
X27392977Y-44990961D01*
X27333144Y-44954881D01*
X27302316Y-44892180D01*
X27300500Y-44871035D01*
X27300500Y-30878456D01*
X29395500Y-30878456D01*
X29395500Y-31121543D01*
X29395501Y-31121559D01*
X29427230Y-31362569D01*
X29490149Y-31597386D01*
X29583175Y-31821972D01*
X29583182Y-31821987D01*
X29704730Y-32032516D01*
X29852722Y-32225380D01*
X29852730Y-32225389D01*
X30024611Y-32397270D01*
X30024619Y-32397277D01*
X30217483Y-32545269D01*
X30428012Y-32666817D01*
X30428027Y-32666824D01*
X30544171Y-32714932D01*
X30652612Y-32759850D01*
X30887429Y-32822769D01*
X31128450Y-32854500D01*
X31128457Y-32854500D01*
X31371543Y-32854500D01*
X31371550Y-32854500D01*
X31612571Y-32822769D01*
X31847388Y-32759850D01*
X32071984Y-32666819D01*
X32282516Y-32545269D01*
X32475380Y-32397278D01*
X32475384Y-32397273D01*
X32475389Y-32397270D01*
X32647270Y-32225389D01*
X32647273Y-32225384D01*
X32647278Y-32225380D01*
X32795269Y-32032516D01*
X32916819Y-31821984D01*
X33009850Y-31597388D01*
X33072769Y-31362571D01*
X33104500Y-31121550D01*
X33104500Y-30878450D01*
X33072769Y-30637429D01*
X33009850Y-30402612D01*
X32916819Y-30178016D01*
X32819550Y-30009540D01*
X32795269Y-29967483D01*
X32647277Y-29774619D01*
X32647270Y-29774611D01*
X32475389Y-29602730D01*
X32475380Y-29602722D01*
X32282516Y-29454730D01*
X32071987Y-29333182D01*
X32071972Y-29333175D01*
X31847386Y-29240149D01*
X31612569Y-29177230D01*
X31371559Y-29145501D01*
X31371556Y-29145500D01*
X31371550Y-29145500D01*
X31128450Y-29145500D01*
X31128444Y-29145500D01*
X31128440Y-29145501D01*
X30887430Y-29177230D01*
X30652613Y-29240149D01*
X30428027Y-29333175D01*
X30428012Y-29333182D01*
X30217483Y-29454730D01*
X30024619Y-29602722D01*
X29852722Y-29774619D01*
X29704730Y-29967483D01*
X29583182Y-30178012D01*
X29583175Y-30178027D01*
X29490149Y-30402613D01*
X29427230Y-30637430D01*
X29395501Y-30878440D01*
X29395500Y-30878456D01*
X27300500Y-30878456D01*
X27300500Y-30425833D01*
X27320185Y-30358794D01*
X27336819Y-30338152D01*
X30588152Y-27086819D01*
X30649475Y-27053334D01*
X30675833Y-27050500D01*
X65626000Y-27050500D01*
X65693039Y-27070185D01*
G37*
%TD.AperFunction*%
%TD*%
%TA.AperFunction,Conductor*%
%TO.N,OUT-*%
G36*
X180142166Y-71128111D02*
G01*
X180188110Y-71180751D01*
X180199500Y-71232665D01*
X180199500Y-114324167D01*
X180179815Y-114391206D01*
X180163181Y-114411848D01*
X176911848Y-117663181D01*
X176850525Y-117696666D01*
X176824167Y-117699500D01*
X115374000Y-117699500D01*
X115306961Y-117679815D01*
X115261206Y-117627011D01*
X115250000Y-117575500D01*
X115250000Y-114898076D01*
X115269685Y-114831037D01*
X115275624Y-114822590D01*
X115315750Y-114770296D01*
X115429423Y-114622155D01*
X115561526Y-114393346D01*
X115662633Y-114149251D01*
X115731015Y-113894048D01*
X115765500Y-113632103D01*
X115765500Y-113367897D01*
X115731015Y-113105952D01*
X115662633Y-112850749D01*
X115561526Y-112606654D01*
X115429423Y-112377845D01*
X115389246Y-112325486D01*
X115364052Y-112260318D01*
X115378090Y-112191873D01*
X115389247Y-112174513D01*
X115429415Y-112122165D01*
X115429423Y-112122155D01*
X115561526Y-111893346D01*
X115662633Y-111649251D01*
X115731015Y-111394048D01*
X115765500Y-111132103D01*
X115765500Y-110867897D01*
X115731015Y-110605952D01*
X115662633Y-110350749D01*
X115561526Y-110106654D01*
X115429423Y-109877845D01*
X115389246Y-109825486D01*
X115364052Y-109760318D01*
X115378090Y-109691873D01*
X115389247Y-109674513D01*
X115429415Y-109622165D01*
X115429423Y-109622155D01*
X115561526Y-109393346D01*
X115662633Y-109149251D01*
X115731015Y-108894048D01*
X115765500Y-108632103D01*
X115765500Y-108378456D01*
X122895500Y-108378456D01*
X122895500Y-108621543D01*
X122895501Y-108621559D01*
X122927230Y-108862569D01*
X122990149Y-109097386D01*
X123083175Y-109321972D01*
X123083182Y-109321987D01*
X123204730Y-109532516D01*
X123352722Y-109725380D01*
X123352730Y-109725389D01*
X123524611Y-109897270D01*
X123524619Y-109897277D01*
X123717483Y-110045269D01*
X123928012Y-110166817D01*
X123928027Y-110166824D01*
X124044171Y-110214932D01*
X124152612Y-110259850D01*
X124387429Y-110322769D01*
X124628450Y-110354500D01*
X124628457Y-110354500D01*
X124871543Y-110354500D01*
X124871550Y-110354500D01*
X125112571Y-110322769D01*
X125347388Y-110259850D01*
X125571984Y-110166819D01*
X125782516Y-110045269D01*
X125975380Y-109897278D01*
X125975384Y-109897273D01*
X125975389Y-109897270D01*
X126147270Y-109725389D01*
X126147273Y-109725384D01*
X126147278Y-109725380D01*
X126295269Y-109532516D01*
X126416819Y-109321984D01*
X126509850Y-109097388D01*
X126572769Y-108862571D01*
X126604500Y-108621550D01*
X126604500Y-108378450D01*
X126572769Y-108137429D01*
X126509850Y-107902612D01*
X126416819Y-107678016D01*
X126375622Y-107606660D01*
X126295269Y-107467483D01*
X126147277Y-107274619D01*
X126147270Y-107274611D01*
X125975389Y-107102730D01*
X125975380Y-107102722D01*
X125782516Y-106954730D01*
X125571987Y-106833182D01*
X125571972Y-106833175D01*
X125347386Y-106740149D01*
X125112569Y-106677230D01*
X124871559Y-106645501D01*
X124871556Y-106645500D01*
X124871550Y-106645500D01*
X124628450Y-106645500D01*
X124628444Y-106645500D01*
X124628440Y-106645501D01*
X124387430Y-106677230D01*
X124152613Y-106740149D01*
X123928027Y-106833175D01*
X123928012Y-106833182D01*
X123717483Y-106954730D01*
X123524619Y-107102722D01*
X123352722Y-107274619D01*
X123204730Y-107467483D01*
X123083182Y-107678012D01*
X123083175Y-107678027D01*
X122990149Y-107902613D01*
X122927230Y-108137430D01*
X122895501Y-108378440D01*
X122895500Y-108378456D01*
X115765500Y-108378456D01*
X115765500Y-108367897D01*
X115731015Y-108105952D01*
X115662633Y-107850749D01*
X115561526Y-107606654D01*
X115429423Y-107377845D01*
X115389246Y-107325486D01*
X115364052Y-107260318D01*
X115378090Y-107191873D01*
X115389247Y-107174513D01*
X115429415Y-107122165D01*
X115429423Y-107122155D01*
X115561526Y-106893346D01*
X115662633Y-106649251D01*
X115731015Y-106394048D01*
X115765500Y-106132103D01*
X115765500Y-105867897D01*
X115731015Y-105605952D01*
X115662633Y-105350749D01*
X115561526Y-105106654D01*
X115429423Y-104877845D01*
X115389246Y-104825486D01*
X115364052Y-104760318D01*
X115378090Y-104691873D01*
X115389247Y-104674513D01*
X115429415Y-104622165D01*
X115429423Y-104622155D01*
X115561526Y-104393346D01*
X115662633Y-104149251D01*
X115731015Y-103894048D01*
X115765500Y-103632103D01*
X115765500Y-103367897D01*
X115731015Y-103105952D01*
X115662633Y-102850749D01*
X115561526Y-102606654D01*
X115429423Y-102377845D01*
X115417005Y-102361661D01*
X115275624Y-102177409D01*
X115250430Y-102112240D01*
X115250000Y-102101923D01*
X115250000Y-94509842D01*
X136365847Y-94509842D01*
X136365847Y-94853773D01*
X136399557Y-95196057D01*
X136466655Y-95533380D01*
X136566497Y-95862514D01*
X136698117Y-96180272D01*
X136698119Y-96180277D01*
X136860240Y-96483583D01*
X136860251Y-96483601D01*
X137051322Y-96769559D01*
X137051332Y-96769573D01*
X137269523Y-97035440D01*
X137512714Y-97278631D01*
X137512719Y-97278635D01*
X137512720Y-97278636D01*
X137778587Y-97496827D01*
X138064560Y-97687908D01*
X138064569Y-97687913D01*
X138064571Y-97687914D01*
X138367877Y-97850035D01*
X138367879Y-97850035D01*
X138367885Y-97850039D01*
X138685642Y-97981658D01*
X139014769Y-98081498D01*
X139352097Y-98148597D01*
X139694378Y-98182308D01*
X139694381Y-98182308D01*
X140038311Y-98182308D01*
X140038316Y-98182308D01*
X140112719Y-98174979D01*
X140181363Y-98187997D01*
X140212553Y-98210701D01*
X141236448Y-99234596D01*
X141236485Y-99234635D01*
X141447491Y-99445641D01*
X141447498Y-99445647D01*
X141681545Y-99625238D01*
X141937028Y-99772741D01*
X141937029Y-99772741D01*
X141937032Y-99772743D01*
X142209587Y-99885639D01*
X142269806Y-99901774D01*
X142494546Y-99961994D01*
X142753006Y-99996020D01*
X142787033Y-100000500D01*
X151075623Y-100000500D01*
X151075628Y-100000500D01*
X151075629Y-100000500D01*
X151109655Y-99996020D01*
X151368116Y-99961994D01*
X151592855Y-99901774D01*
X151653075Y-99885639D01*
X151925630Y-99772743D01*
X152181117Y-99625238D01*
X152415165Y-99445646D01*
X152623769Y-99237042D01*
X152629133Y-99231678D01*
X152629148Y-99231660D01*
X153463749Y-98397059D01*
X153525070Y-98363576D01*
X153563578Y-98361339D01*
X153637986Y-98368668D01*
X153637991Y-98368668D01*
X153981921Y-98368668D01*
X153981924Y-98368668D01*
X154324205Y-98334957D01*
X154661533Y-98267858D01*
X154990660Y-98168018D01*
X155308417Y-98036399D01*
X155611742Y-97874268D01*
X155897715Y-97683187D01*
X156163582Y-97464996D01*
X156406783Y-97221795D01*
X156624974Y-96955928D01*
X156816055Y-96669955D01*
X156978186Y-96366630D01*
X157109805Y-96048873D01*
X157209645Y-95719746D01*
X157276744Y-95382418D01*
X157310455Y-95040137D01*
X157310455Y-94696199D01*
X157276744Y-94353918D01*
X157209645Y-94016590D01*
X157109805Y-93687463D01*
X157028372Y-93490866D01*
X161810500Y-93490866D01*
X161810500Y-93665517D01*
X161836588Y-93830230D01*
X161837819Y-93838001D01*
X161891786Y-94004092D01*
X161971070Y-94159697D01*
X162073721Y-94300983D01*
X162197209Y-94424471D01*
X162338495Y-94527122D01*
X162494100Y-94606406D01*
X162660191Y-94660373D01*
X162746435Y-94674032D01*
X162832675Y-94687692D01*
X162832680Y-94687692D01*
X163007325Y-94687692D01*
X163085724Y-94675274D01*
X163179809Y-94660373D01*
X163345900Y-94606406D01*
X163501505Y-94527122D01*
X163642791Y-94424471D01*
X163766279Y-94300983D01*
X163868930Y-94159697D01*
X163948214Y-94004092D01*
X164002181Y-93838001D01*
X164017082Y-93743916D01*
X164029500Y-93665517D01*
X164029500Y-93490866D01*
X164014598Y-93396787D01*
X164002181Y-93318383D01*
X163948214Y-93152292D01*
X163868930Y-92996687D01*
X163766279Y-92855401D01*
X163642791Y-92731913D01*
X163501505Y-92629262D01*
X163345900Y-92549978D01*
X163179809Y-92496011D01*
X163179803Y-92496010D01*
X163007325Y-92468692D01*
X163007320Y-92468692D01*
X162832680Y-92468692D01*
X162832675Y-92468692D01*
X162660196Y-92496010D01*
X162660194Y-92496010D01*
X162660191Y-92496011D01*
X162494100Y-92549978D01*
X162494097Y-92549979D01*
X162494095Y-92549980D01*
X162338494Y-92629262D01*
X162197207Y-92731914D01*
X162073722Y-92855399D01*
X161971070Y-92996686D01*
X161891788Y-93152287D01*
X161891787Y-93152289D01*
X161891786Y-93152292D01*
X161837819Y-93318383D01*
X161837818Y-93318386D01*
X161837818Y-93318388D01*
X161810500Y-93490866D01*
X157028372Y-93490866D01*
X156978186Y-93369706D01*
X156816055Y-93066381D01*
X156624974Y-92780408D01*
X156406783Y-92514541D01*
X156406782Y-92514540D01*
X156406778Y-92514535D01*
X156163587Y-92271344D01*
X155897720Y-92053153D01*
X155897719Y-92053152D01*
X155897715Y-92053149D01*
X155618807Y-91866789D01*
X155611748Y-91862072D01*
X155611747Y-91862071D01*
X155611742Y-91862068D01*
X155611737Y-91862065D01*
X155611730Y-91862061D01*
X155308424Y-91699940D01*
X155308419Y-91699938D01*
X155249932Y-91675712D01*
X155215349Y-91661387D01*
X154990661Y-91568318D01*
X154661527Y-91468476D01*
X154324203Y-91401378D01*
X154324204Y-91401378D01*
X154066411Y-91375989D01*
X153981924Y-91367668D01*
X153637986Y-91367668D01*
X153559921Y-91375356D01*
X153295705Y-91401378D01*
X152958382Y-91468476D01*
X152629248Y-91568318D01*
X152311490Y-91699938D01*
X152311485Y-91699940D01*
X152008179Y-91862061D01*
X152008161Y-91862072D01*
X151722203Y-92053143D01*
X151722189Y-92053153D01*
X151456322Y-92271344D01*
X151213131Y-92514535D01*
X150994940Y-92780402D01*
X150994930Y-92780416D01*
X150803859Y-93066374D01*
X150803848Y-93066392D01*
X150641727Y-93369698D01*
X150641725Y-93369703D01*
X150510105Y-93687461D01*
X150410263Y-94016595D01*
X150343165Y-94353918D01*
X150336217Y-94424469D01*
X150312984Y-94660373D01*
X150309455Y-94696202D01*
X150309455Y-95040135D01*
X150316782Y-95114541D01*
X150303762Y-95183187D01*
X150281060Y-95214374D01*
X150032253Y-95463182D01*
X149970933Y-95496666D01*
X149944574Y-95499500D01*
X143918088Y-95499500D01*
X143851049Y-95479815D01*
X143830407Y-95463181D01*
X143395240Y-95028014D01*
X143361755Y-94966691D01*
X143359518Y-94928183D01*
X143366847Y-94853777D01*
X143366847Y-94509839D01*
X143333136Y-94167558D01*
X143266037Y-93830230D01*
X143166197Y-93501103D01*
X143034578Y-93183346D01*
X143017979Y-93152292D01*
X142872453Y-92880032D01*
X142872452Y-92880030D01*
X142872447Y-92880021D01*
X142681366Y-92594048D01*
X142463175Y-92328181D01*
X142463174Y-92328180D01*
X142463170Y-92328175D01*
X142219979Y-92084984D01*
X141954112Y-91866793D01*
X141954111Y-91866792D01*
X141954107Y-91866789D01*
X141668134Y-91675708D01*
X141668129Y-91675705D01*
X141668122Y-91675701D01*
X141364816Y-91513580D01*
X141364811Y-91513578D01*
X141047053Y-91381958D01*
X140717919Y-91282116D01*
X140380595Y-91215018D01*
X140380596Y-91215018D01*
X140122803Y-91189629D01*
X140038316Y-91181308D01*
X139694378Y-91181308D01*
X139616313Y-91188996D01*
X139352097Y-91215018D01*
X139014774Y-91282116D01*
X138685640Y-91381958D01*
X138367882Y-91513578D01*
X138367877Y-91513580D01*
X138064571Y-91675701D01*
X138064553Y-91675712D01*
X137778595Y-91866783D01*
X137778581Y-91866793D01*
X137512714Y-92084984D01*
X137269523Y-92328175D01*
X137051332Y-92594042D01*
X137051322Y-92594056D01*
X136860251Y-92880014D01*
X136860240Y-92880032D01*
X136698119Y-93183338D01*
X136698117Y-93183343D01*
X136566497Y-93501101D01*
X136466655Y-93830235D01*
X136399557Y-94167558D01*
X136365847Y-94509842D01*
X115250000Y-94509842D01*
X115250000Y-71463742D01*
X115269685Y-71396703D01*
X115322489Y-71350948D01*
X115373553Y-71339743D01*
X142361453Y-71243358D01*
X142428558Y-71262802D01*
X142474502Y-71315442D01*
X142485892Y-71367356D01*
X142485892Y-71845795D01*
X142485893Y-71845810D01*
X142496296Y-71978000D01*
X142496297Y-71978007D01*
X142551294Y-72196265D01*
X142551295Y-72196268D01*
X142644383Y-72401209D01*
X142644389Y-72401219D01*
X142772566Y-72586232D01*
X142772570Y-72586237D01*
X142772573Y-72586241D01*
X142931738Y-72745406D01*
X142931742Y-72745409D01*
X142931746Y-72745412D01*
X143070995Y-72841884D01*
X143116766Y-72873594D01*
X143321709Y-72966683D01*
X143321710Y-72966683D01*
X143321711Y-72966684D01*
X143340212Y-72971346D01*
X143400410Y-73006815D01*
X143431875Y-73069198D01*
X143424618Y-73138690D01*
X143380943Y-73193227D01*
X143340212Y-73211828D01*
X143321711Y-73216489D01*
X143321710Y-73216490D01*
X143116769Y-73309578D01*
X143116759Y-73309584D01*
X142931746Y-73437761D01*
X142931734Y-73437771D01*
X142772576Y-73596929D01*
X142772566Y-73596941D01*
X142644389Y-73781954D01*
X142644383Y-73781964D01*
X142551295Y-73986905D01*
X142551294Y-73986908D01*
X142496297Y-74205166D01*
X142496296Y-74205173D01*
X142485892Y-74337364D01*
X142485892Y-79465795D01*
X142485893Y-79465810D01*
X142496296Y-79598000D01*
X142496297Y-79598007D01*
X142551294Y-79816265D01*
X142551295Y-79816268D01*
X142644383Y-80021209D01*
X142644389Y-80021219D01*
X142772566Y-80206232D01*
X142772570Y-80206237D01*
X142772573Y-80206241D01*
X142931738Y-80365406D01*
X142931742Y-80365409D01*
X142931746Y-80365412D01*
X143070995Y-80461884D01*
X143116766Y-80493594D01*
X143321709Y-80586683D01*
X143321713Y-80586684D01*
X143539971Y-80641681D01*
X143539973Y-80641681D01*
X143539980Y-80641683D01*
X143672175Y-80652087D01*
X150300608Y-80652086D01*
X150432804Y-80641683D01*
X150651075Y-80586683D01*
X150856018Y-80493594D01*
X151041046Y-80365406D01*
X151200211Y-80206241D01*
X151328399Y-80021213D01*
X151421488Y-79816270D01*
X151476488Y-79597999D01*
X151486892Y-79465804D01*
X151486891Y-78629189D01*
X151496854Y-78595255D01*
X151506564Y-78562168D01*
X151506573Y-78562157D01*
X151506575Y-78562151D01*
X151529668Y-78535494D01*
X151675608Y-78408992D01*
X151739159Y-78379957D01*
X151756827Y-78378692D01*
X156672899Y-78378692D01*
X156739938Y-78398377D01*
X156749415Y-78405115D01*
X157225656Y-78778563D01*
X157261522Y-78823735D01*
X157394199Y-79108263D01*
X157394207Y-79108278D01*
X157590695Y-79448604D01*
X157590704Y-79448619D01*
X157816115Y-79770539D01*
X158008793Y-80000163D01*
X158068722Y-80071583D01*
X158346609Y-80349470D01*
X158365596Y-80365402D01*
X158647652Y-80602076D01*
X158647658Y-80602080D01*
X158647659Y-80602081D01*
X158969579Y-80827492D01*
X159309920Y-81023988D01*
X159309934Y-81023994D01*
X159309937Y-81023996D01*
X159666078Y-81190067D01*
X159666083Y-81190068D01*
X159666092Y-81190073D01*
X160035384Y-81324485D01*
X160414985Y-81426199D01*
X160802007Y-81494441D01*
X161193502Y-81528691D01*
X161193503Y-81528692D01*
X161193504Y-81528692D01*
X161586497Y-81528692D01*
X161586497Y-81528691D01*
X161977993Y-81494441D01*
X162365015Y-81426199D01*
X162744616Y-81324485D01*
X163113908Y-81190073D01*
X163470080Y-81023988D01*
X163810421Y-80827492D01*
X164132341Y-80602081D01*
X164433391Y-80349470D01*
X164711278Y-80071583D01*
X164963889Y-79770533D01*
X165189300Y-79448613D01*
X165385796Y-79108272D01*
X165518479Y-78823728D01*
X165554338Y-78778565D01*
X165994512Y-78433400D01*
X166030584Y-78405115D01*
X166095485Y-78379237D01*
X166107100Y-78378692D01*
X171680747Y-78378692D01*
X171717457Y-78384250D01*
X172057406Y-78489619D01*
X172117604Y-78506646D01*
X172118748Y-78506939D01*
X172123360Y-78507913D01*
X172136924Y-78512321D01*
X172166001Y-78516926D01*
X172222954Y-78528964D01*
X172254697Y-78531384D01*
X172264628Y-78532547D01*
X172377973Y-78550500D01*
X172377975Y-78550500D01*
X172622026Y-78550500D01*
X172622027Y-78550500D01*
X172863076Y-78512321D01*
X173095185Y-78436904D01*
X173312639Y-78326106D01*
X173364714Y-78288270D01*
X173378629Y-78280606D01*
X173406681Y-78257780D01*
X173510083Y-78182655D01*
X173591765Y-78100971D01*
X173592727Y-78100020D01*
X173634933Y-78058865D01*
X173642488Y-78052498D01*
X173642360Y-78052348D01*
X173646069Y-78049179D01*
X173646078Y-78049173D01*
X173692682Y-78002567D01*
X173693559Y-78001700D01*
X173962777Y-77739191D01*
X173962820Y-77739147D01*
X173962951Y-77739021D01*
X173969730Y-77732358D01*
X173969893Y-77732197D01*
X173970797Y-77731266D01*
X174003505Y-77697601D01*
X174019480Y-77677101D01*
X174029590Y-77665659D01*
X175195500Y-76499749D01*
X175244862Y-76469501D01*
X175345180Y-76436906D01*
X175345182Y-76436904D01*
X175345185Y-76436904D01*
X175562639Y-76326106D01*
X175760083Y-76182655D01*
X175932655Y-76010083D01*
X176076106Y-75812639D01*
X176186904Y-75595185D01*
X176262321Y-75363076D01*
X176300500Y-75122027D01*
X176300500Y-74900646D01*
X176302660Y-74890550D01*
X176301647Y-74883821D01*
X176311363Y-74849891D01*
X176312454Y-74847460D01*
X176319065Y-74834748D01*
X176328888Y-74818264D01*
X176349947Y-74764293D01*
X176352317Y-74758637D01*
X176380161Y-74696600D01*
X176386918Y-74671547D01*
X176391112Y-74658793D01*
X176418528Y-74588536D01*
X176458258Y-74399051D01*
X176491281Y-74337480D01*
X176552351Y-74303535D01*
X176579619Y-74300500D01*
X176622026Y-74300500D01*
X176622027Y-74300500D01*
X176863076Y-74262321D01*
X177095185Y-74186904D01*
X177312639Y-74076106D01*
X177510083Y-73932655D01*
X177682655Y-73760083D01*
X177826106Y-73562639D01*
X177936904Y-73345185D01*
X178012321Y-73113076D01*
X178050500Y-72872027D01*
X178050500Y-72627973D01*
X178012321Y-72386924D01*
X177936904Y-72154815D01*
X177826106Y-71937361D01*
X177759586Y-71845804D01*
X177682660Y-71739923D01*
X177682656Y-71739918D01*
X177510081Y-71567343D01*
X177510076Y-71567339D01*
X177312642Y-71423896D01*
X177312641Y-71423895D01*
X177312639Y-71423894D01*
X177174112Y-71353311D01*
X177123316Y-71305336D01*
X177106521Y-71237515D01*
X177129058Y-71171380D01*
X177183773Y-71127929D01*
X177229960Y-71118827D01*
X180075059Y-71108666D01*
X180142166Y-71128111D01*
G37*
%TD.AperFunction*%
%TD*%
%TA.AperFunction,Conductor*%
%TO.N,Unfused_IN+*%
G36*
X95690139Y-27070185D02*
G01*
X95735894Y-27122989D01*
X95747100Y-27174500D01*
X95747100Y-40570349D01*
X95727415Y-40637388D01*
X95674611Y-40683143D01*
X95605453Y-40693087D01*
X95575648Y-40684910D01*
X95327102Y-40581959D01*
X94997964Y-40482116D01*
X94660640Y-40415018D01*
X94660641Y-40415018D01*
X94402848Y-40389629D01*
X94318361Y-40381308D01*
X93974423Y-40381308D01*
X93896358Y-40388996D01*
X93632142Y-40415018D01*
X93294819Y-40482116D01*
X92965685Y-40581958D01*
X92647927Y-40713578D01*
X92647922Y-40713580D01*
X92344616Y-40875701D01*
X92344598Y-40875712D01*
X92058640Y-41066783D01*
X92058626Y-41066793D01*
X91792759Y-41284984D01*
X91549568Y-41528175D01*
X91331377Y-41794042D01*
X91331367Y-41794056D01*
X91140296Y-42080014D01*
X91140285Y-42080032D01*
X91068250Y-42214800D01*
X79255500Y-42214800D01*
X79255500Y-39123977D01*
X79254745Y-39080470D01*
X79254745Y-39080457D01*
X79226806Y-38857114D01*
X79215600Y-38805603D01*
X79166027Y-38636136D01*
X79069194Y-38432946D01*
X78937637Y-38250311D01*
X78891882Y-38197507D01*
X78891860Y-38197482D01*
X78864556Y-38166990D01*
X78864549Y-38166984D01*
X78697493Y-38016152D01*
X78697488Y-38016147D01*
X78506174Y-37897561D01*
X78296769Y-37815045D01*
X78229724Y-37795358D01*
X78100179Y-37764676D01*
X78055342Y-37760640D01*
X77876000Y-37744500D01*
X77875996Y-37744500D01*
X67129500Y-37744500D01*
X67062461Y-37724815D01*
X67016706Y-37672011D01*
X67005500Y-37620500D01*
X67005500Y-27174500D01*
X67025185Y-27107461D01*
X67077989Y-27061706D01*
X67129500Y-27050500D01*
X95623100Y-27050500D01*
X95690139Y-27070185D01*
G37*
%TD.AperFunction*%
%TD*%
%TA.AperFunction,Conductor*%
%TO.N,OUT+*%
G36*
X149482786Y-27070185D02*
G01*
X149528541Y-27122989D01*
X149538485Y-27192147D01*
X149509460Y-27255703D01*
X149468152Y-27286882D01*
X149443039Y-27298592D01*
X149443023Y-27298600D01*
X149106478Y-27492905D01*
X149106463Y-27492914D01*
X148788119Y-27715821D01*
X148490418Y-27965623D01*
X148215623Y-28240418D01*
X147965821Y-28538119D01*
X147742914Y-28856463D01*
X147742905Y-28856478D01*
X147548600Y-29193023D01*
X147548587Y-29193047D01*
X147384362Y-29545231D01*
X147251435Y-29910444D01*
X147150857Y-30285810D01*
X147150853Y-30285827D01*
X147083371Y-30668533D01*
X147083371Y-30668537D01*
X147049500Y-31055683D01*
X147049500Y-31444316D01*
X147083371Y-31831462D01*
X147083371Y-31831466D01*
X147118822Y-32032516D01*
X147150855Y-32214182D01*
X147153858Y-32225389D01*
X147251435Y-32589555D01*
X147251438Y-32589565D01*
X147251439Y-32589566D01*
X147347866Y-32854498D01*
X147384362Y-32954768D01*
X147548587Y-33306952D01*
X147548600Y-33306976D01*
X147742905Y-33643521D01*
X147742914Y-33643536D01*
X147965821Y-33961880D01*
X148156358Y-34188952D01*
X148215621Y-34259579D01*
X148490421Y-34534379D01*
X148596361Y-34623273D01*
X148788119Y-34784178D01*
X148788125Y-34784182D01*
X148788126Y-34784183D01*
X149106470Y-35007090D01*
X149187500Y-35053873D01*
X149235715Y-35104438D01*
X149249500Y-35161259D01*
X149249500Y-38488000D01*
X149229815Y-38555039D01*
X149177011Y-38600794D01*
X149125500Y-38612000D01*
X142738174Y-38612000D01*
X142704149Y-38616478D01*
X142704149Y-38616479D01*
X142670123Y-38620958D01*
X142445690Y-38650505D01*
X142209574Y-38713772D01*
X142209575Y-38713773D01*
X142160729Y-38726861D01*
X141888186Y-38839751D01*
X141888171Y-38839758D01*
X141632688Y-38987261D01*
X141398641Y-39166852D01*
X141398634Y-39166858D01*
X140212556Y-40352937D01*
X140151233Y-40386422D01*
X140112723Y-40388659D01*
X140051372Y-40382617D01*
X140038319Y-40381332D01*
X139694381Y-40381332D01*
X139619987Y-40388659D01*
X139352100Y-40415042D01*
X139014777Y-40482140D01*
X138685643Y-40581982D01*
X138367885Y-40713602D01*
X138367880Y-40713604D01*
X138064574Y-40875725D01*
X138064556Y-40875736D01*
X137778598Y-41066807D01*
X137778584Y-41066817D01*
X137512717Y-41285008D01*
X137269526Y-41528199D01*
X137051335Y-41794066D01*
X137051325Y-41794080D01*
X136860254Y-42080038D01*
X136860243Y-42080056D01*
X136698122Y-42383362D01*
X136698120Y-42383367D01*
X136566500Y-42701125D01*
X136466658Y-43030259D01*
X136399560Y-43367582D01*
X136365850Y-43709866D01*
X136365850Y-44053797D01*
X136399560Y-44396081D01*
X136466658Y-44733404D01*
X136566500Y-45062538D01*
X136698120Y-45380296D01*
X136698122Y-45380301D01*
X136860243Y-45683607D01*
X136860254Y-45683625D01*
X137051325Y-45969583D01*
X137051335Y-45969597D01*
X137269526Y-46235464D01*
X137512717Y-46478655D01*
X137512722Y-46478659D01*
X137512723Y-46478660D01*
X137778590Y-46696851D01*
X138064563Y-46887932D01*
X138064572Y-46887937D01*
X138064574Y-46887938D01*
X138367880Y-47050059D01*
X138367882Y-47050059D01*
X138367888Y-47050063D01*
X138685645Y-47181682D01*
X139014772Y-47281522D01*
X139352100Y-47348621D01*
X139694381Y-47382332D01*
X139694384Y-47382332D01*
X140038316Y-47382332D01*
X140038319Y-47382332D01*
X140380600Y-47348621D01*
X140717928Y-47281522D01*
X141047055Y-47181682D01*
X141364812Y-47050063D01*
X141668137Y-46887932D01*
X141954110Y-46696851D01*
X142219977Y-46478660D01*
X142463178Y-46235459D01*
X142681369Y-45969592D01*
X142872450Y-45683619D01*
X143034581Y-45380294D01*
X143166200Y-45062537D01*
X143266040Y-44733410D01*
X143333139Y-44396082D01*
X143366850Y-44053801D01*
X143366850Y-43709863D01*
X143359521Y-43635457D01*
X143372539Y-43566814D01*
X143395237Y-43535631D01*
X143781552Y-43149316D01*
X143842874Y-43115834D01*
X143869232Y-43113000D01*
X147352494Y-43113000D01*
X149620717Y-43113000D01*
X149687756Y-43132685D01*
X149708398Y-43149319D01*
X150281063Y-43721984D01*
X150314548Y-43783307D01*
X150316785Y-43821817D01*
X150310076Y-43889938D01*
X150309458Y-43896223D01*
X150309458Y-44240161D01*
X150314365Y-44289980D01*
X150343168Y-44582441D01*
X150410266Y-44919764D01*
X150510108Y-45248898D01*
X150641728Y-45566656D01*
X150641730Y-45566661D01*
X150803851Y-45869967D01*
X150803862Y-45869985D01*
X150994933Y-46155943D01*
X150994943Y-46155957D01*
X151213134Y-46421824D01*
X151456325Y-46665015D01*
X151456330Y-46665019D01*
X151456331Y-46665020D01*
X151722198Y-46883211D01*
X152008171Y-47074292D01*
X152008180Y-47074297D01*
X152008182Y-47074298D01*
X152311488Y-47236419D01*
X152311490Y-47236419D01*
X152311496Y-47236423D01*
X152629253Y-47368042D01*
X152958380Y-47467882D01*
X153295708Y-47534981D01*
X153637989Y-47568692D01*
X153637992Y-47568692D01*
X153981924Y-47568692D01*
X153981927Y-47568692D01*
X154324208Y-47534981D01*
X154661536Y-47467882D01*
X154990663Y-47368042D01*
X155308420Y-47236423D01*
X155611745Y-47074292D01*
X155897718Y-46883211D01*
X156163585Y-46665020D01*
X156406786Y-46421819D01*
X156624977Y-46155952D01*
X156816058Y-45869979D01*
X156978189Y-45566654D01*
X157109808Y-45248897D01*
X157115278Y-45230866D01*
X158630500Y-45230866D01*
X158630500Y-45405517D01*
X158656022Y-45566654D01*
X158657819Y-45578001D01*
X158711786Y-45744092D01*
X158791070Y-45899697D01*
X158893721Y-46040983D01*
X159017209Y-46164471D01*
X159158495Y-46267122D01*
X159314100Y-46346406D01*
X159480191Y-46400373D01*
X159566435Y-46414032D01*
X159652675Y-46427692D01*
X159652680Y-46427692D01*
X159827325Y-46427692D01*
X159905724Y-46415274D01*
X159999809Y-46400373D01*
X160165900Y-46346406D01*
X160321505Y-46267122D01*
X160462791Y-46164471D01*
X160586279Y-46040983D01*
X160688930Y-45899697D01*
X160768214Y-45744092D01*
X160822181Y-45578001D01*
X160837082Y-45483916D01*
X160849500Y-45405517D01*
X160849500Y-45230866D01*
X160834598Y-45136787D01*
X160822181Y-45058383D01*
X160768214Y-44892292D01*
X160688930Y-44736687D01*
X160586279Y-44595401D01*
X160462791Y-44471913D01*
X160321505Y-44369262D01*
X160165900Y-44289978D01*
X159999809Y-44236011D01*
X159999803Y-44236010D01*
X159827325Y-44208692D01*
X159827320Y-44208692D01*
X159652680Y-44208692D01*
X159652675Y-44208692D01*
X159480196Y-44236010D01*
X159480194Y-44236010D01*
X159480191Y-44236011D01*
X159314100Y-44289978D01*
X159314097Y-44289979D01*
X159314095Y-44289980D01*
X159158494Y-44369262D01*
X159017207Y-44471914D01*
X158893722Y-44595399D01*
X158791070Y-44736686D01*
X158711788Y-44892287D01*
X158711787Y-44892289D01*
X158711786Y-44892292D01*
X158657819Y-45058383D01*
X158657818Y-45058386D01*
X158657818Y-45058388D01*
X158630500Y-45230866D01*
X157115278Y-45230866D01*
X157209648Y-44919770D01*
X157276747Y-44582442D01*
X157310458Y-44240161D01*
X157310458Y-43896223D01*
X157276747Y-43553942D01*
X157209648Y-43216614D01*
X157109808Y-42887487D01*
X156978189Y-42569730D01*
X156816058Y-42266405D01*
X156624977Y-41980432D01*
X156406786Y-41714565D01*
X156406785Y-41714564D01*
X156406781Y-41714559D01*
X156163590Y-41471368D01*
X155897723Y-41253177D01*
X155897722Y-41253176D01*
X155897718Y-41253173D01*
X155618810Y-41066813D01*
X155611751Y-41062096D01*
X155611750Y-41062095D01*
X155611745Y-41062092D01*
X155611740Y-41062089D01*
X155611733Y-41062085D01*
X155308427Y-40899964D01*
X155308422Y-40899962D01*
X155249935Y-40875736D01*
X155215352Y-40861411D01*
X154990664Y-40768342D01*
X154661530Y-40668500D01*
X154324206Y-40601402D01*
X154324207Y-40601402D01*
X154066414Y-40576013D01*
X153981927Y-40567692D01*
X153981924Y-40567692D01*
X153830472Y-40567692D01*
X153763433Y-40548007D01*
X153717678Y-40495203D01*
X153707734Y-40426045D01*
X153710694Y-40411610D01*
X153711994Y-40406759D01*
X153750500Y-40114271D01*
X153750500Y-39819261D01*
X153750500Y-35161259D01*
X153770185Y-35094220D01*
X153812498Y-35053873D01*
X153893530Y-35007090D01*
X154211874Y-34784183D01*
X154509579Y-34534379D01*
X154784379Y-34259579D01*
X155034183Y-33961874D01*
X155257090Y-33643530D01*
X155451403Y-33306970D01*
X155451407Y-33306960D01*
X155451412Y-33306952D01*
X155615637Y-32954768D01*
X155615637Y-32954767D01*
X155615643Y-32954755D01*
X155748561Y-32589566D01*
X155849145Y-32214182D01*
X155916629Y-31831460D01*
X155950500Y-31444313D01*
X155950500Y-31055687D01*
X155934994Y-30878456D01*
X174395500Y-30878456D01*
X174395500Y-31121543D01*
X174395501Y-31121559D01*
X174427230Y-31362569D01*
X174490149Y-31597386D01*
X174583175Y-31821972D01*
X174583182Y-31821987D01*
X174704730Y-32032516D01*
X174852722Y-32225380D01*
X174852730Y-32225389D01*
X175024611Y-32397270D01*
X175024619Y-32397277D01*
X175217483Y-32545269D01*
X175428012Y-32666817D01*
X175428027Y-32666824D01*
X175544171Y-32714932D01*
X175652612Y-32759850D01*
X175887429Y-32822769D01*
X176128450Y-32854500D01*
X176128457Y-32854500D01*
X176371543Y-32854500D01*
X176371550Y-32854500D01*
X176612571Y-32822769D01*
X176847388Y-32759850D01*
X177071984Y-32666819D01*
X177282516Y-32545269D01*
X177475380Y-32397278D01*
X177475384Y-32397273D01*
X177475389Y-32397270D01*
X177647270Y-32225389D01*
X177647273Y-32225384D01*
X177647278Y-32225380D01*
X177795269Y-32032516D01*
X177916819Y-31821984D01*
X178009850Y-31597388D01*
X178072769Y-31362571D01*
X178104500Y-31121550D01*
X178104500Y-30878450D01*
X178072769Y-30637429D01*
X178009850Y-30402612D01*
X177916819Y-30178016D01*
X177819550Y-30009540D01*
X177795269Y-29967483D01*
X177647277Y-29774619D01*
X177647270Y-29774611D01*
X177475389Y-29602730D01*
X177475380Y-29602722D01*
X177282516Y-29454730D01*
X177071987Y-29333182D01*
X177071972Y-29333175D01*
X176847386Y-29240149D01*
X176612569Y-29177230D01*
X176371559Y-29145501D01*
X176371556Y-29145500D01*
X176371550Y-29145500D01*
X176128450Y-29145500D01*
X176128444Y-29145500D01*
X176128440Y-29145501D01*
X175887430Y-29177230D01*
X175652613Y-29240149D01*
X175428027Y-29333175D01*
X175428012Y-29333182D01*
X175217483Y-29454730D01*
X175024619Y-29602722D01*
X174852722Y-29774619D01*
X174704730Y-29967483D01*
X174583182Y-30178012D01*
X174583175Y-30178027D01*
X174490149Y-30402613D01*
X174427230Y-30637430D01*
X174395501Y-30878440D01*
X174395500Y-30878456D01*
X155934994Y-30878456D01*
X155916629Y-30668540D01*
X155911143Y-30637430D01*
X155869739Y-30402612D01*
X155849145Y-30285818D01*
X155748561Y-29910434D01*
X155615643Y-29545245D01*
X155615638Y-29545236D01*
X155615637Y-29545231D01*
X155451412Y-29193047D01*
X155451399Y-29193023D01*
X155423962Y-29145501D01*
X155257090Y-28856470D01*
X155034183Y-28538126D01*
X155034182Y-28538125D01*
X155034178Y-28538119D01*
X154784376Y-28240418D01*
X154509581Y-27965623D01*
X154211880Y-27715821D01*
X153893536Y-27492914D01*
X153893533Y-27492912D01*
X153893530Y-27492910D01*
X153793538Y-27435179D01*
X153556976Y-27298600D01*
X153556960Y-27298592D01*
X153531848Y-27286882D01*
X153479409Y-27240710D01*
X153460257Y-27173516D01*
X153480473Y-27106635D01*
X153533638Y-27061300D01*
X153584253Y-27050500D01*
X176824167Y-27050500D01*
X176891206Y-27070185D01*
X176911848Y-27086819D01*
X180163181Y-30338152D01*
X180196666Y-30399475D01*
X180199500Y-30425833D01*
X180199500Y-48127194D01*
X180179815Y-48194233D01*
X180127011Y-48239988D01*
X180057853Y-48249932D01*
X180056102Y-48249667D01*
X179986388Y-48238625D01*
X179954027Y-48233500D01*
X179709973Y-48233500D01*
X179669010Y-48239988D01*
X179468927Y-48271678D01*
X179236812Y-48347097D01*
X179019357Y-48457896D01*
X178821923Y-48601339D01*
X178821918Y-48601343D01*
X178649343Y-48773918D01*
X178649339Y-48773923D01*
X178505896Y-48971357D01*
X178395097Y-49188812D01*
X178319678Y-49420927D01*
X178281500Y-49661973D01*
X178281500Y-49906027D01*
X178294353Y-49987187D01*
X178295522Y-49994567D01*
X178296211Y-50013297D01*
X178304379Y-50050485D01*
X178304954Y-50054109D01*
X178304954Y-50054111D01*
X178319679Y-50147077D01*
X178336070Y-50197524D01*
X178339250Y-50209233D01*
X178344500Y-50233131D01*
X178344501Y-50233135D01*
X178450740Y-50569427D01*
X178456500Y-50606780D01*
X178456500Y-69735380D01*
X178436815Y-69802419D01*
X178384011Y-69848174D01*
X178332943Y-69859379D01*
X177225577Y-69863334D01*
X177211053Y-69863469D01*
X177211049Y-69863469D01*
X176987225Y-69887016D01*
X176987215Y-69887017D01*
X176987209Y-69887018D01*
X176987205Y-69887018D01*
X176987196Y-69887020D01*
X176941039Y-69896116D01*
X176941028Y-69896118D01*
X176941022Y-69896120D01*
X176878671Y-69912263D01*
X176798243Y-69933087D01*
X176591096Y-70021125D01*
X176591086Y-70021130D01*
X176495989Y-70083626D01*
X176429154Y-70103994D01*
X176427889Y-70104000D01*
X175850613Y-70104000D01*
X175821169Y-70095354D01*
X175791187Y-70088832D01*
X175786171Y-70085077D01*
X175783574Y-70084315D01*
X175762932Y-70067682D01*
X175716375Y-70021125D01*
X175646078Y-69950828D01*
X175282931Y-69587681D01*
X175249446Y-69526358D01*
X175254430Y-69456666D01*
X175282931Y-69412319D01*
X175799172Y-68896078D01*
X175807067Y-68885210D01*
X175816132Y-68872735D01*
X175816132Y-68872734D01*
X175926433Y-68720919D01*
X176024726Y-68528009D01*
X176091630Y-68322097D01*
X176125500Y-68108254D01*
X176125500Y-67729598D01*
X176140117Y-67671191D01*
X176147258Y-67657818D01*
X176309692Y-67353615D01*
X176315394Y-67340909D01*
X176328888Y-67318264D01*
X176351062Y-67261436D01*
X176380161Y-67196600D01*
X176386918Y-67171547D01*
X176391112Y-67158793D01*
X176418528Y-67088536D01*
X176469134Y-66847185D01*
X176475500Y-66744647D01*
X176475499Y-66080354D01*
X176469134Y-65977815D01*
X176469133Y-65977812D01*
X176455707Y-65913781D01*
X176418528Y-65736464D01*
X176418526Y-65736459D01*
X176418524Y-65736452D01*
X176343848Y-65545075D01*
X176337816Y-65475466D01*
X176343848Y-65454925D01*
X176418524Y-65263547D01*
X176418524Y-65263543D01*
X176418528Y-65263536D01*
X176469134Y-65022185D01*
X176475500Y-64919647D01*
X176475499Y-64255354D01*
X176469134Y-64152815D01*
X176469133Y-64152812D01*
X176455707Y-64088781D01*
X176418528Y-63911464D01*
X176418524Y-63911455D01*
X176402964Y-63871577D01*
X176399557Y-63862845D01*
X176397487Y-63853639D01*
X176378182Y-63808067D01*
X176328888Y-63681736D01*
X176318635Y-63664530D01*
X176310960Y-63649376D01*
X176310299Y-63647816D01*
X176300500Y-63599503D01*
X176300500Y-63377973D01*
X176293982Y-63336819D01*
X176262321Y-63136924D01*
X176186904Y-62904815D01*
X176076106Y-62687361D01*
X176057779Y-62662136D01*
X175932660Y-62489923D01*
X175932656Y-62489918D01*
X175760082Y-62317344D01*
X175693591Y-62269035D01*
X175687549Y-62264645D01*
X175673829Y-62251898D01*
X175641783Y-62231394D01*
X175638814Y-62229237D01*
X175638813Y-62229235D01*
X175562639Y-62173894D01*
X175562632Y-62173890D01*
X175515360Y-62149803D01*
X175504829Y-62143771D01*
X175484235Y-62130595D01*
X175484233Y-62130594D01*
X175484230Y-62130592D01*
X175316801Y-62043552D01*
X175171315Y-61967919D01*
X175140830Y-61945579D01*
X173896076Y-60700825D01*
X173896071Y-60700821D01*
X173720922Y-60573569D01*
X173720921Y-60573568D01*
X173720919Y-60573567D01*
X173659115Y-60542076D01*
X173528009Y-60475273D01*
X173528003Y-60475271D01*
X173322097Y-60408370D01*
X173298633Y-60404653D01*
X173267482Y-60395407D01*
X173266524Y-60394979D01*
X173206268Y-60366886D01*
X173186429Y-60359219D01*
X173183525Y-60357923D01*
X173183085Y-60357549D01*
X173177783Y-60355181D01*
X173095182Y-60313094D01*
X172863073Y-60237678D01*
X172677906Y-60208350D01*
X172622027Y-60199500D01*
X172377973Y-60199500D01*
X172322093Y-60208350D01*
X172136927Y-60237678D01*
X172136926Y-60237678D01*
X171904815Y-60313095D01*
X171904810Y-60313097D01*
X171837021Y-60347637D01*
X171830243Y-60350837D01*
X171825299Y-60352990D01*
X171819851Y-60354819D01*
X171654785Y-60427256D01*
X171654509Y-60427377D01*
X171653661Y-60427483D01*
X171604994Y-60437692D01*
X166107100Y-60437692D01*
X166040061Y-60418007D01*
X166030584Y-60411269D01*
X166010356Y-60395407D01*
X165554340Y-60037818D01*
X165518477Y-59992650D01*
X165385796Y-59708112D01*
X165189300Y-59367771D01*
X164963889Y-59045851D01*
X164963888Y-59045850D01*
X164963884Y-59045844D01*
X164713043Y-58746905D01*
X164711278Y-58744801D01*
X164433391Y-58466914D01*
X164361971Y-58406985D01*
X164132347Y-58214307D01*
X163810427Y-57988896D01*
X163810424Y-57988894D01*
X163810421Y-57988892D01*
X163675659Y-57911087D01*
X163470086Y-57792399D01*
X163470062Y-57792387D01*
X163113921Y-57626316D01*
X163113910Y-57626312D01*
X163113908Y-57626311D01*
X162744616Y-57491899D01*
X162503960Y-57427415D01*
X162365016Y-57390185D01*
X162365005Y-57390183D01*
X161977997Y-57321943D01*
X161586500Y-57287692D01*
X161586496Y-57287692D01*
X161193504Y-57287692D01*
X161193499Y-57287692D01*
X160802004Y-57321943D01*
X160802000Y-57321943D01*
X160414994Y-57390183D01*
X160414983Y-57390185D01*
X160211555Y-57444694D01*
X160035384Y-57491899D01*
X160035381Y-57491900D01*
X160035380Y-57491900D01*
X159666078Y-57626316D01*
X159309937Y-57792387D01*
X159309913Y-57792399D01*
X158969587Y-57988887D01*
X158969572Y-57988896D01*
X158647652Y-58214307D01*
X158346606Y-58466916D01*
X158068724Y-58744798D01*
X157816115Y-59045844D01*
X157590704Y-59367764D01*
X157590695Y-59367779D01*
X157394207Y-59708105D01*
X157394199Y-59708121D01*
X157261522Y-59992646D01*
X157225656Y-60037818D01*
X156749415Y-60411269D01*
X156684515Y-60437147D01*
X156672899Y-60437692D01*
X151785913Y-60437692D01*
X151758414Y-60429617D01*
X151730213Y-60424478D01*
X151722423Y-60419049D01*
X151718874Y-60418007D01*
X151701258Y-60404298D01*
X151526236Y-60240771D01*
X151490689Y-60180620D01*
X151486891Y-60150165D01*
X151486891Y-59097378D01*
X151486890Y-59097370D01*
X151476488Y-58965175D01*
X151421488Y-58746904D01*
X151328399Y-58541961D01*
X151200211Y-58356933D01*
X151041046Y-58197768D01*
X151041042Y-58197765D01*
X151041037Y-58197761D01*
X150856024Y-58069584D01*
X150856022Y-58069582D01*
X150856018Y-58069580D01*
X150651075Y-57976491D01*
X150651073Y-57976490D01*
X150651070Y-57976489D01*
X150432812Y-57921492D01*
X150432805Y-57921491D01*
X150388739Y-57918023D01*
X150300609Y-57911087D01*
X150300607Y-57911087D01*
X143672183Y-57911087D01*
X143672168Y-57911088D01*
X143539978Y-57921491D01*
X143539971Y-57921492D01*
X143321713Y-57976489D01*
X143321710Y-57976490D01*
X143116769Y-58069578D01*
X143116759Y-58069584D01*
X142931746Y-58197761D01*
X142931734Y-58197771D01*
X142772576Y-58356929D01*
X142772566Y-58356941D01*
X142644389Y-58541954D01*
X142644383Y-58541964D01*
X142551295Y-58746905D01*
X142551294Y-58746908D01*
X142496297Y-58965166D01*
X142496296Y-58965173D01*
X142485892Y-59097364D01*
X142485892Y-64225795D01*
X142485893Y-64225810D01*
X142496296Y-64358000D01*
X142496297Y-64358007D01*
X142551294Y-64576265D01*
X142551295Y-64576268D01*
X142644383Y-64781209D01*
X142644389Y-64781219D01*
X142772566Y-64966232D01*
X142772570Y-64966237D01*
X142772573Y-64966241D01*
X142931738Y-65125406D01*
X142931742Y-65125409D01*
X142931746Y-65125412D01*
X143070995Y-65221884D01*
X143116766Y-65253594D01*
X143321709Y-65346683D01*
X143321710Y-65346683D01*
X143321711Y-65346684D01*
X143340212Y-65351346D01*
X143400410Y-65386815D01*
X143431875Y-65449198D01*
X143424618Y-65518690D01*
X143380943Y-65573227D01*
X143340212Y-65591828D01*
X143321711Y-65596489D01*
X143321710Y-65596490D01*
X143116769Y-65689578D01*
X143116759Y-65689584D01*
X142931746Y-65817761D01*
X142931734Y-65817771D01*
X142772576Y-65976929D01*
X142772566Y-65976941D01*
X142644389Y-66161954D01*
X142644383Y-66161964D01*
X142551295Y-66366905D01*
X142551294Y-66366908D01*
X142496297Y-66585166D01*
X142496296Y-66585173D01*
X142485892Y-66717364D01*
X142485892Y-69863963D01*
X142466207Y-69931002D01*
X142413403Y-69976757D01*
X142359749Y-69987281D01*
X142359752Y-69987856D01*
X115369077Y-70084250D01*
X115327753Y-70085078D01*
X115327746Y-70085079D01*
X115188289Y-70102780D01*
X115188283Y-70102780D01*
X115178678Y-70104000D01*
X115112800Y-70104000D01*
X115112800Y-27050500D01*
X149415747Y-27050500D01*
X149482786Y-27070185D01*
G37*
%TD.AperFunction*%
%TD*%
%TA.AperFunction,Conductor*%
%TO.N,Unfused_IN+*%
G36*
X90978164Y-42383338D02*
G01*
X90978162Y-42383343D01*
X90846542Y-42701101D01*
X90746700Y-43030235D01*
X90679602Y-43367558D01*
X90645892Y-43709842D01*
X90645892Y-44053773D01*
X90679602Y-44396057D01*
X90746700Y-44733380D01*
X90846542Y-45062514D01*
X90978162Y-45380272D01*
X90978164Y-45380277D01*
X91140285Y-45683583D01*
X91140296Y-45683601D01*
X91331367Y-45969559D01*
X91331377Y-45969573D01*
X91549568Y-46235440D01*
X91792759Y-46478631D01*
X91792764Y-46478635D01*
X91792765Y-46478636D01*
X92058632Y-46696827D01*
X92344605Y-46887908D01*
X92344614Y-46887913D01*
X92344616Y-46887914D01*
X92647922Y-47050035D01*
X92647924Y-47050035D01*
X92647930Y-47050039D01*
X92965687Y-47181658D01*
X93294814Y-47281498D01*
X93632142Y-47348597D01*
X93974423Y-47382308D01*
X93974426Y-47382308D01*
X94318358Y-47382308D01*
X94318361Y-47382308D01*
X94660642Y-47348597D01*
X94997970Y-47281498D01*
X95327097Y-47181658D01*
X95575648Y-47078704D01*
X95645117Y-47071236D01*
X95707596Y-47102511D01*
X95743248Y-47162600D01*
X95747100Y-47193266D01*
X95747100Y-91370387D01*
X95727415Y-91437426D01*
X95674611Y-91483181D01*
X95605453Y-91493125D01*
X95575647Y-91484948D01*
X95327053Y-91381977D01*
X94997919Y-91282135D01*
X94660595Y-91215037D01*
X94660596Y-91215037D01*
X94402803Y-91189648D01*
X94318316Y-91181327D01*
X93974378Y-91181327D01*
X93896313Y-91189015D01*
X93632097Y-91215037D01*
X93294774Y-91282135D01*
X92965640Y-91381977D01*
X92647882Y-91513597D01*
X92647877Y-91513599D01*
X92344571Y-91675720D01*
X92344553Y-91675731D01*
X92058595Y-91866802D01*
X92058581Y-91866812D01*
X91792714Y-92085003D01*
X91549523Y-92328194D01*
X91331332Y-92594061D01*
X91331322Y-92594075D01*
X91140251Y-92880033D01*
X91140240Y-92880051D01*
X90978119Y-93183357D01*
X90978117Y-93183362D01*
X90846497Y-93501120D01*
X90746655Y-93830254D01*
X90679557Y-94167577D01*
X90645847Y-94509861D01*
X90645847Y-94853792D01*
X90679557Y-95196076D01*
X90746655Y-95533399D01*
X90846497Y-95862533D01*
X90978117Y-96180291D01*
X90978119Y-96180296D01*
X91140240Y-96483602D01*
X91140251Y-96483620D01*
X91331322Y-96769578D01*
X91331332Y-96769592D01*
X91549523Y-97035459D01*
X91792714Y-97278650D01*
X91792719Y-97278654D01*
X91792720Y-97278655D01*
X92058587Y-97496846D01*
X92344560Y-97687927D01*
X92344569Y-97687932D01*
X92344571Y-97687933D01*
X92647877Y-97850054D01*
X92647879Y-97850054D01*
X92647885Y-97850058D01*
X92965642Y-97981677D01*
X93294769Y-98081517D01*
X93632097Y-98148616D01*
X93974378Y-98182327D01*
X93974381Y-98182327D01*
X94318313Y-98182327D01*
X94318316Y-98182327D01*
X94660597Y-98148616D01*
X94997925Y-98081517D01*
X95327052Y-97981677D01*
X95575649Y-97878704D01*
X95645116Y-97871236D01*
X95707596Y-97902511D01*
X95743248Y-97962600D01*
X95747100Y-97993266D01*
X95747100Y-104782694D01*
X95727415Y-104849733D01*
X95674611Y-104895488D01*
X95639285Y-104905633D01*
X95385955Y-104938984D01*
X95130744Y-105007368D01*
X94886660Y-105108471D01*
X94886650Y-105108475D01*
X94657845Y-105240576D01*
X94585486Y-105296099D01*
X94520316Y-105321293D01*
X94451872Y-105307254D01*
X94434514Y-105296099D01*
X94362154Y-105240576D01*
X94133349Y-105108475D01*
X94133339Y-105108471D01*
X93889255Y-105007368D01*
X93634044Y-104938984D01*
X93372104Y-104904500D01*
X93372103Y-104904500D01*
X93107897Y-104904500D01*
X93107896Y-104904500D01*
X92845955Y-104938984D01*
X92590744Y-105007368D01*
X92346660Y-105108471D01*
X92346650Y-105108475D01*
X92117845Y-105240576D01*
X92045486Y-105296099D01*
X91980316Y-105321293D01*
X91911872Y-105307254D01*
X91894514Y-105296099D01*
X91822154Y-105240576D01*
X91593349Y-105108475D01*
X91593339Y-105108471D01*
X91349255Y-105007368D01*
X91094044Y-104938984D01*
X90832104Y-104904500D01*
X90832103Y-104904500D01*
X90567897Y-104904500D01*
X90567896Y-104904500D01*
X90305955Y-104938984D01*
X90050744Y-105007368D01*
X89806660Y-105108471D01*
X89806650Y-105108475D01*
X89577845Y-105240576D01*
X89505486Y-105296099D01*
X89440316Y-105321293D01*
X89371872Y-105307254D01*
X89354514Y-105296099D01*
X89282154Y-105240576D01*
X89053349Y-105108475D01*
X89053339Y-105108471D01*
X88809255Y-105007368D01*
X88554044Y-104938984D01*
X88292104Y-104904500D01*
X88292103Y-104904500D01*
X88027897Y-104904500D01*
X88027896Y-104904500D01*
X87765955Y-104938984D01*
X87510744Y-105007368D01*
X87266660Y-105108471D01*
X87266651Y-105108475D01*
X87037851Y-105240573D01*
X87037836Y-105240583D01*
X86828238Y-105401413D01*
X86828231Y-105401419D01*
X86641419Y-105588231D01*
X86641413Y-105588238D01*
X86480583Y-105797836D01*
X86480573Y-105797851D01*
X86348475Y-106026651D01*
X86348471Y-106026660D01*
X86247368Y-106270744D01*
X86178984Y-106525955D01*
X86144500Y-106787896D01*
X86144500Y-107052103D01*
X86178984Y-107314044D01*
X86247368Y-107569255D01*
X86348471Y-107813339D01*
X86348475Y-107813349D01*
X86480576Y-108042154D01*
X86536099Y-108114514D01*
X86561293Y-108179684D01*
X86547254Y-108248128D01*
X86536099Y-108265486D01*
X86480576Y-108337845D01*
X86348475Y-108566650D01*
X86348471Y-108566660D01*
X86247368Y-108810744D01*
X86178984Y-109065955D01*
X86144500Y-109327896D01*
X86144500Y-109592103D01*
X86178984Y-109854044D01*
X86247368Y-110109255D01*
X86348472Y-110353342D01*
X86348477Y-110353353D01*
X86371035Y-110392424D01*
X86387508Y-110460324D01*
X86365576Y-110525040D01*
X86302997Y-110615367D01*
X86302991Y-110615377D01*
X86209903Y-110820318D01*
X86209902Y-110820321D01*
X86154905Y-111038579D01*
X86154904Y-111038586D01*
X86144500Y-111170777D01*
X86144500Y-112829208D01*
X86144501Y-112829223D01*
X86154904Y-112961413D01*
X86154905Y-112961420D01*
X86209902Y-113179678D01*
X86209903Y-113179681D01*
X86302991Y-113384622D01*
X86302997Y-113384632D01*
X86431174Y-113569645D01*
X86431178Y-113569650D01*
X86431181Y-113569654D01*
X86590346Y-113728819D01*
X86590350Y-113728822D01*
X86590354Y-113728825D01*
X86709723Y-113811524D01*
X86775374Y-113857007D01*
X86980317Y-113950096D01*
X86980321Y-113950097D01*
X87198579Y-114005094D01*
X87198581Y-114005094D01*
X87198588Y-114005096D01*
X87330783Y-114015500D01*
X88989216Y-114015499D01*
X89121412Y-114005096D01*
X89339683Y-113950096D01*
X89544626Y-113857007D01*
X89634960Y-113794422D01*
X89701275Y-113772426D01*
X89767575Y-113788963D01*
X89806654Y-113811526D01*
X90050749Y-113912633D01*
X90305952Y-113981015D01*
X90488854Y-114005094D01*
X90567896Y-114015500D01*
X90567897Y-114015500D01*
X90832104Y-114015500D01*
X90884492Y-114008603D01*
X91094048Y-113981015D01*
X91349251Y-113912633D01*
X91593346Y-113811526D01*
X91822155Y-113679423D01*
X91894514Y-113623899D01*
X91959683Y-113598706D01*
X92028127Y-113612744D01*
X92045483Y-113623897D01*
X92117845Y-113679423D01*
X92346654Y-113811526D01*
X92590749Y-113912633D01*
X92845952Y-113981015D01*
X93028854Y-114005094D01*
X93107896Y-114015500D01*
X93107897Y-114015500D01*
X93372104Y-114015500D01*
X93424492Y-114008603D01*
X93634048Y-113981015D01*
X93889251Y-113912633D01*
X94133346Y-113811526D01*
X94362155Y-113679423D01*
X94434514Y-113623899D01*
X94499683Y-113598706D01*
X94568127Y-113612744D01*
X94585483Y-113623897D01*
X94657845Y-113679423D01*
X94886654Y-113811526D01*
X95130749Y-113912633D01*
X95385952Y-113981015D01*
X95639285Y-114014366D01*
X95703182Y-114042632D01*
X95741653Y-114100956D01*
X95747100Y-114137305D01*
X95747100Y-117575500D01*
X95727415Y-117642539D01*
X95674611Y-117688294D01*
X95623100Y-117699500D01*
X79379500Y-117699500D01*
X79312461Y-117679815D01*
X79266706Y-117627011D01*
X79255500Y-117575500D01*
X79255500Y-114506290D01*
X79272114Y-114444288D01*
X79301526Y-114393346D01*
X79402633Y-114149251D01*
X79471015Y-113894048D01*
X79505500Y-113632103D01*
X79505500Y-113367897D01*
X79471015Y-113105952D01*
X79402633Y-112850749D01*
X79301526Y-112606654D01*
X79272112Y-112555707D01*
X79255500Y-112493708D01*
X79255500Y-112006290D01*
X79272114Y-111944288D01*
X79301526Y-111893346D01*
X79402633Y-111649251D01*
X79471015Y-111394048D01*
X79505500Y-111132103D01*
X79505500Y-110867897D01*
X79471015Y-110605952D01*
X79402633Y-110350749D01*
X79301526Y-110106654D01*
X79272112Y-110055707D01*
X79255500Y-109993708D01*
X79255500Y-109506290D01*
X79272114Y-109444288D01*
X79291806Y-109410181D01*
X79301526Y-109393346D01*
X79402633Y-109149251D01*
X79471015Y-108894048D01*
X79505500Y-108632103D01*
X79505500Y-108367897D01*
X79471015Y-108105952D01*
X79402633Y-107850749D01*
X79301526Y-107606654D01*
X79272112Y-107555707D01*
X79255500Y-107493708D01*
X79255500Y-107006290D01*
X79272114Y-106944288D01*
X79301526Y-106893346D01*
X79402633Y-106649251D01*
X79471015Y-106394048D01*
X79505500Y-106132103D01*
X79505500Y-105867897D01*
X79471015Y-105605952D01*
X79402633Y-105350749D01*
X79301526Y-105106654D01*
X79272112Y-105055707D01*
X79255500Y-104993708D01*
X79255500Y-104506290D01*
X79272114Y-104444288D01*
X79301526Y-104393346D01*
X79402633Y-104149251D01*
X79471015Y-103894048D01*
X79505500Y-103632103D01*
X79505500Y-103367897D01*
X79502707Y-103346685D01*
X79471015Y-103105955D01*
X79471015Y-103105952D01*
X79402633Y-102850749D01*
X79301526Y-102606654D01*
X79272112Y-102555707D01*
X79255500Y-102493708D01*
X79255500Y-71705677D01*
X79254745Y-71662170D01*
X79254745Y-71662157D01*
X79234419Y-71499673D01*
X79226807Y-71438819D01*
X79226807Y-71438818D01*
X79225212Y-71431487D01*
X79215600Y-71387303D01*
X79166027Y-71217836D01*
X79069194Y-71014646D01*
X79069192Y-71014643D01*
X79069190Y-71014639D01*
X79068513Y-71013495D01*
X79068361Y-71012900D01*
X79066798Y-71009619D01*
X79067448Y-71009308D01*
X79051298Y-70945779D01*
X79069820Y-70884996D01*
X79102437Y-70832376D01*
X79184956Y-70622964D01*
X79204641Y-70555925D01*
X79235324Y-70426378D01*
X79255500Y-70202200D01*
X79255500Y-42214800D01*
X91068250Y-42214800D01*
X90978164Y-42383338D01*
G37*
%TD.AperFunction*%
%TD*%
%TA.AperFunction,Conductor*%
%TO.N,OUT+*%
G36*
X115112800Y-70104000D02*
G01*
X115099615Y-70104000D01*
X115067636Y-70121500D01*
X115053389Y-70124626D01*
X114886140Y-70173713D01*
X114682947Y-70270547D01*
X114682944Y-70270549D01*
X114500314Y-70402102D01*
X114447482Y-70447881D01*
X114416990Y-70475185D01*
X114416984Y-70475192D01*
X114266152Y-70642248D01*
X114266147Y-70642253D01*
X114147561Y-70833567D01*
X114065045Y-71042972D01*
X114045358Y-71110017D01*
X114027149Y-71186900D01*
X114014676Y-71239564D01*
X113999505Y-71408137D01*
X113994500Y-71463745D01*
X113994500Y-102101927D01*
X113995588Y-102154177D01*
X113996019Y-102164530D01*
X114017376Y-102348588D01*
X114017377Y-102348592D01*
X114079382Y-102564925D01*
X114079395Y-102564963D01*
X114104583Y-102630118D01*
X114104585Y-102630122D01*
X114159102Y-102751570D01*
X114159107Y-102751579D01*
X114273956Y-102932851D01*
X114293207Y-103000016D01*
X114288985Y-103031307D01*
X114268987Y-103105944D01*
X114268983Y-103105962D01*
X114234500Y-103367896D01*
X114234500Y-103632103D01*
X114268983Y-103894037D01*
X114268984Y-103894042D01*
X114268985Y-103894048D01*
X114268987Y-103894054D01*
X114295343Y-103992420D01*
X114293680Y-104062269D01*
X114286034Y-104080843D01*
X114213000Y-104224063D01*
X114212995Y-104224076D01*
X114148196Y-104439608D01*
X114148188Y-104439638D01*
X114134159Y-104508037D01*
X114126575Y-104548341D01*
X114126575Y-104548342D01*
X114108612Y-104772694D01*
X114108613Y-104772702D01*
X114131000Y-104996672D01*
X114131000Y-104996674D01*
X114193006Y-105213009D01*
X114193019Y-105213047D01*
X114218205Y-105278196D01*
X114272730Y-105399658D01*
X114272731Y-105399661D01*
X114279842Y-105410884D01*
X114299093Y-105478049D01*
X114294871Y-105509341D01*
X114268985Y-105605947D01*
X114234500Y-105867896D01*
X114234500Y-106132103D01*
X114268983Y-106394037D01*
X114268984Y-106394042D01*
X114268985Y-106394048D01*
X114268987Y-106394054D01*
X114295343Y-106492420D01*
X114293680Y-106562269D01*
X114286034Y-106580843D01*
X114213000Y-106724063D01*
X114212995Y-106724076D01*
X114148196Y-106939608D01*
X114148188Y-106939638D01*
X114134159Y-107008037D01*
X114126575Y-107048341D01*
X114126575Y-107048342D01*
X114108612Y-107272694D01*
X114108613Y-107272702D01*
X114131000Y-107496672D01*
X114131000Y-107496674D01*
X114193006Y-107713009D01*
X114193019Y-107713047D01*
X114218205Y-107778196D01*
X114272730Y-107899658D01*
X114272731Y-107899661D01*
X114279842Y-107910884D01*
X114299093Y-107978049D01*
X114294871Y-108009341D01*
X114268985Y-108105947D01*
X114234500Y-108367896D01*
X114234500Y-108632103D01*
X114268983Y-108894037D01*
X114268984Y-108894042D01*
X114268985Y-108894048D01*
X114268987Y-108894054D01*
X114295343Y-108992420D01*
X114293680Y-109062269D01*
X114286034Y-109080843D01*
X114213000Y-109224063D01*
X114212995Y-109224076D01*
X114148196Y-109439608D01*
X114148188Y-109439638D01*
X114134159Y-109508037D01*
X114126575Y-109548341D01*
X114126575Y-109548342D01*
X114108612Y-109772694D01*
X114108613Y-109772702D01*
X114131000Y-109996672D01*
X114131000Y-109996674D01*
X114193006Y-110213009D01*
X114193019Y-110213047D01*
X114218205Y-110278196D01*
X114272730Y-110399658D01*
X114272731Y-110399661D01*
X114279842Y-110410884D01*
X114299093Y-110478049D01*
X114294871Y-110509341D01*
X114268985Y-110605947D01*
X114234500Y-110867896D01*
X114234500Y-111132103D01*
X114268983Y-111394037D01*
X114268984Y-111394042D01*
X114268985Y-111394048D01*
X114268987Y-111394054D01*
X114295343Y-111492420D01*
X114293680Y-111562269D01*
X114286034Y-111580843D01*
X114213000Y-111724063D01*
X114212995Y-111724076D01*
X114148196Y-111939608D01*
X114148188Y-111939638D01*
X114134159Y-112008037D01*
X114126575Y-112048341D01*
X114126575Y-112048342D01*
X114108612Y-112272694D01*
X114108613Y-112272702D01*
X114131000Y-112496672D01*
X114131000Y-112496674D01*
X114193006Y-112713009D01*
X114193019Y-112713047D01*
X114218205Y-112778196D01*
X114272730Y-112899658D01*
X114272731Y-112899661D01*
X114279842Y-112910884D01*
X114299093Y-112978049D01*
X114294871Y-113009341D01*
X114268985Y-113105947D01*
X114234500Y-113367896D01*
X114234500Y-113632103D01*
X114268983Y-113894037D01*
X114268984Y-113894042D01*
X114268985Y-113894048D01*
X114268987Y-113894054D01*
X114288648Y-113967433D01*
X114286985Y-114037282D01*
X114268802Y-114072942D01*
X114248594Y-114100446D01*
X114242634Y-114108924D01*
X114147562Y-114267901D01*
X114147560Y-114267905D01*
X114065045Y-114477306D01*
X114045358Y-114544351D01*
X114014676Y-114673896D01*
X113994500Y-114898079D01*
X113994500Y-117575500D01*
X113974815Y-117642539D01*
X113922011Y-117688294D01*
X113870500Y-117699500D01*
X97126600Y-117699500D01*
X97059561Y-117679815D01*
X97013806Y-117627011D01*
X97002600Y-117575500D01*
X97002600Y-113780952D01*
X97022285Y-113713913D01*
X97075089Y-113668158D01*
X97144247Y-113658214D01*
X97194323Y-113677402D01*
X97194329Y-113677393D01*
X97194389Y-113677427D01*
X97195491Y-113677850D01*
X97197842Y-113679421D01*
X97197845Y-113679423D01*
X97426654Y-113811526D01*
X97670749Y-113912633D01*
X97925952Y-113981015D01*
X98122410Y-114006878D01*
X98187896Y-114015500D01*
X98187897Y-114015500D01*
X98452104Y-114015500D01*
X98504492Y-114008603D01*
X98714048Y-113981015D01*
X98969251Y-113912633D01*
X99213346Y-113811526D01*
X99442155Y-113679423D01*
X99514514Y-113623899D01*
X99579683Y-113598706D01*
X99648127Y-113612744D01*
X99665483Y-113623897D01*
X99737845Y-113679423D01*
X99966654Y-113811526D01*
X100210749Y-113912633D01*
X100465952Y-113981015D01*
X100662410Y-114006878D01*
X100727896Y-114015500D01*
X100727897Y-114015500D01*
X100992104Y-114015500D01*
X101044492Y-114008603D01*
X101254048Y-113981015D01*
X101509251Y-113912633D01*
X101753346Y-113811526D01*
X101982155Y-113679423D01*
X102054514Y-113623899D01*
X102119683Y-113598706D01*
X102188127Y-113612744D01*
X102205483Y-113623897D01*
X102277845Y-113679423D01*
X102506654Y-113811526D01*
X102750749Y-113912633D01*
X103005952Y-113981015D01*
X103202410Y-114006878D01*
X103267896Y-114015500D01*
X103267897Y-114015500D01*
X103532104Y-114015500D01*
X103584492Y-114008603D01*
X103794048Y-113981015D01*
X104049251Y-113912633D01*
X104293346Y-113811526D01*
X104522155Y-113679423D01*
X104594514Y-113623899D01*
X104659683Y-113598706D01*
X104728127Y-113612744D01*
X104745483Y-113623897D01*
X104817845Y-113679423D01*
X105046654Y-113811526D01*
X105290749Y-113912633D01*
X105545952Y-113981015D01*
X105742410Y-114006878D01*
X105807896Y-114015500D01*
X105807897Y-114015500D01*
X106072104Y-114015500D01*
X106124492Y-114008603D01*
X106334048Y-113981015D01*
X106589251Y-113912633D01*
X106833346Y-113811526D01*
X107062155Y-113679423D01*
X107271763Y-113518585D01*
X107458585Y-113331763D01*
X107619423Y-113122155D01*
X107751526Y-112893346D01*
X107852633Y-112649251D01*
X107921015Y-112394048D01*
X107955500Y-112132103D01*
X107955500Y-111867897D01*
X107921015Y-111605952D01*
X107852633Y-111350749D01*
X107751526Y-111106654D01*
X107619423Y-110877845D01*
X107563899Y-110805485D01*
X107538706Y-110740317D01*
X107552744Y-110671873D01*
X107563900Y-110654513D01*
X107619423Y-110582155D01*
X107751526Y-110353346D01*
X107852633Y-110109251D01*
X107921015Y-109854048D01*
X107955500Y-109592103D01*
X107955500Y-109327897D01*
X107921015Y-109065952D01*
X107852633Y-108810749D01*
X107751526Y-108566654D01*
X107619423Y-108337845D01*
X107563899Y-108265485D01*
X107538706Y-108200317D01*
X107552744Y-108131873D01*
X107563900Y-108114513D01*
X107619423Y-108042155D01*
X107751526Y-107813346D01*
X107852633Y-107569251D01*
X107921015Y-107314048D01*
X107955500Y-107052103D01*
X107955500Y-106787897D01*
X107921015Y-106525952D01*
X107852633Y-106270749D01*
X107751526Y-106026654D01*
X107619423Y-105797845D01*
X107472178Y-105605952D01*
X107458586Y-105588238D01*
X107458580Y-105588231D01*
X107271768Y-105401419D01*
X107271761Y-105401413D01*
X107062163Y-105240583D01*
X107062161Y-105240582D01*
X107062155Y-105240577D01*
X107013795Y-105212656D01*
X106833348Y-105108475D01*
X106833339Y-105108471D01*
X106589255Y-105007368D01*
X106334044Y-104938984D01*
X106072104Y-104904500D01*
X106072103Y-104904500D01*
X105807897Y-104904500D01*
X105807896Y-104904500D01*
X105545955Y-104938984D01*
X105290744Y-105007368D01*
X105046660Y-105108471D01*
X105046650Y-105108475D01*
X104817845Y-105240576D01*
X104745486Y-105296099D01*
X104680316Y-105321293D01*
X104611872Y-105307254D01*
X104594514Y-105296099D01*
X104522154Y-105240576D01*
X104293349Y-105108475D01*
X104293339Y-105108471D01*
X104049255Y-105007368D01*
X103794044Y-104938984D01*
X103532104Y-104904500D01*
X103532103Y-104904500D01*
X103267897Y-104904500D01*
X103267896Y-104904500D01*
X103005955Y-104938984D01*
X102750744Y-105007368D01*
X102506660Y-105108471D01*
X102506650Y-105108475D01*
X102277845Y-105240576D01*
X102205486Y-105296099D01*
X102140316Y-105321293D01*
X102071872Y-105307254D01*
X102054514Y-105296099D01*
X101982154Y-105240576D01*
X101753349Y-105108475D01*
X101753339Y-105108471D01*
X101509255Y-105007368D01*
X101254044Y-104938984D01*
X100992104Y-104904500D01*
X100992103Y-104904500D01*
X100727897Y-104904500D01*
X100727896Y-104904500D01*
X100465955Y-104938984D01*
X100210744Y-105007368D01*
X99966660Y-105108471D01*
X99966650Y-105108475D01*
X99737845Y-105240576D01*
X99665486Y-105296099D01*
X99600316Y-105321293D01*
X99531872Y-105307254D01*
X99514514Y-105296099D01*
X99442154Y-105240576D01*
X99213349Y-105108475D01*
X99213339Y-105108471D01*
X98969255Y-105007368D01*
X98714044Y-104938984D01*
X98452104Y-104904500D01*
X98452103Y-104904500D01*
X98187897Y-104904500D01*
X98187896Y-104904500D01*
X97925955Y-104938984D01*
X97670744Y-105007368D01*
X97426660Y-105108471D01*
X97426650Y-105108475D01*
X97197842Y-105240578D01*
X97195482Y-105242155D01*
X97194671Y-105242408D01*
X97194330Y-105242606D01*
X97194285Y-105242529D01*
X97128803Y-105263027D01*
X97061425Y-105244537D01*
X97014739Y-105192555D01*
X97002600Y-105139047D01*
X97002600Y-96745490D01*
X97022285Y-96678451D01*
X97023469Y-96676642D01*
X97152447Y-96483614D01*
X97314578Y-96180289D01*
X97446197Y-95862532D01*
X97546037Y-95533405D01*
X97613136Y-95196077D01*
X97646847Y-94853796D01*
X97646847Y-94696221D01*
X104589455Y-94696221D01*
X104589455Y-95040152D01*
X104623165Y-95382436D01*
X104690263Y-95719759D01*
X104790105Y-96048893D01*
X104921725Y-96366651D01*
X104921727Y-96366656D01*
X105083848Y-96669962D01*
X105083859Y-96669980D01*
X105274930Y-96955938D01*
X105274940Y-96955952D01*
X105493131Y-97221819D01*
X105736322Y-97465010D01*
X105736327Y-97465014D01*
X105736328Y-97465015D01*
X106002195Y-97683206D01*
X106288168Y-97874287D01*
X106288177Y-97874292D01*
X106288179Y-97874293D01*
X106591485Y-98036414D01*
X106591487Y-98036414D01*
X106591493Y-98036418D01*
X106909250Y-98168037D01*
X107238377Y-98267877D01*
X107575705Y-98334976D01*
X107917986Y-98368687D01*
X107917989Y-98368687D01*
X108261921Y-98368687D01*
X108261924Y-98368687D01*
X108604205Y-98334976D01*
X108941533Y-98267877D01*
X109270660Y-98168037D01*
X109588417Y-98036418D01*
X109891742Y-97874287D01*
X110177715Y-97683206D01*
X110443582Y-97465015D01*
X110686783Y-97221814D01*
X110904974Y-96955947D01*
X111096055Y-96669974D01*
X111258186Y-96366649D01*
X111389805Y-96048892D01*
X111489645Y-95719765D01*
X111556744Y-95382437D01*
X111590455Y-95040156D01*
X111590455Y-94696218D01*
X111556744Y-94353937D01*
X111489645Y-94016609D01*
X111389805Y-93687482D01*
X111258186Y-93369725D01*
X111252292Y-93358699D01*
X111096061Y-93066411D01*
X111096060Y-93066409D01*
X111096055Y-93066400D01*
X110904974Y-92780427D01*
X110686783Y-92514560D01*
X110686782Y-92514559D01*
X110686778Y-92514554D01*
X110443587Y-92271363D01*
X110177720Y-92053172D01*
X110177719Y-92053171D01*
X110177715Y-92053168D01*
X109891742Y-91862087D01*
X109891737Y-91862084D01*
X109891730Y-91862080D01*
X109588424Y-91699959D01*
X109588419Y-91699957D01*
X109270661Y-91568337D01*
X108941527Y-91468495D01*
X108604203Y-91401397D01*
X108604204Y-91401397D01*
X108346411Y-91376008D01*
X108261924Y-91367687D01*
X107917986Y-91367687D01*
X107839921Y-91375375D01*
X107575705Y-91401397D01*
X107238382Y-91468495D01*
X106909248Y-91568337D01*
X106591490Y-91699957D01*
X106591485Y-91699959D01*
X106288179Y-91862080D01*
X106288161Y-91862091D01*
X106002203Y-92053162D01*
X106002189Y-92053172D01*
X105736322Y-92271363D01*
X105493131Y-92514554D01*
X105274940Y-92780421D01*
X105274930Y-92780435D01*
X105083859Y-93066393D01*
X105083848Y-93066411D01*
X104921727Y-93369717D01*
X104921725Y-93369722D01*
X104790105Y-93687480D01*
X104690263Y-94016614D01*
X104623165Y-94353937D01*
X104589455Y-94696221D01*
X97646847Y-94696221D01*
X97646847Y-94509858D01*
X97613136Y-94167577D01*
X97546037Y-93830249D01*
X97446197Y-93501122D01*
X97314578Y-93183365D01*
X97308684Y-93172339D01*
X97152453Y-92880051D01*
X97152452Y-92880049D01*
X97152447Y-92880040D01*
X97023498Y-92687054D01*
X97002620Y-92620376D01*
X97002600Y-92618163D01*
X97002600Y-45945538D01*
X97022285Y-45878499D01*
X97023457Y-45876708D01*
X97152492Y-45683595D01*
X97314623Y-45380270D01*
X97446242Y-45062513D01*
X97546082Y-44733386D01*
X97613181Y-44396058D01*
X97646892Y-44053777D01*
X97646892Y-43896202D01*
X104589500Y-43896202D01*
X104589500Y-44240133D01*
X104623210Y-44582417D01*
X104690308Y-44919740D01*
X104790150Y-45248874D01*
X104921770Y-45566632D01*
X104921772Y-45566637D01*
X105083893Y-45869943D01*
X105083904Y-45869961D01*
X105274975Y-46155919D01*
X105274985Y-46155933D01*
X105493176Y-46421800D01*
X105736367Y-46664991D01*
X105736372Y-46664995D01*
X105736373Y-46664996D01*
X106002240Y-46883187D01*
X106288213Y-47074268D01*
X106288222Y-47074273D01*
X106288224Y-47074274D01*
X106591530Y-47236395D01*
X106591532Y-47236395D01*
X106591538Y-47236399D01*
X106909295Y-47368018D01*
X107238422Y-47467858D01*
X107575750Y-47534957D01*
X107918031Y-47568668D01*
X107918034Y-47568668D01*
X108261966Y-47568668D01*
X108261969Y-47568668D01*
X108604250Y-47534957D01*
X108941578Y-47467858D01*
X109270705Y-47368018D01*
X109588462Y-47236399D01*
X109891787Y-47074268D01*
X110177760Y-46883187D01*
X110443627Y-46664996D01*
X110686828Y-46421795D01*
X110905019Y-46155928D01*
X111096100Y-45869955D01*
X111258231Y-45566630D01*
X111389850Y-45248873D01*
X111489690Y-44919746D01*
X111556789Y-44582418D01*
X111590500Y-44240137D01*
X111590500Y-43896199D01*
X111556789Y-43553918D01*
X111489690Y-43216590D01*
X111389850Y-42887463D01*
X111258231Y-42569706D01*
X111096100Y-42266381D01*
X110905019Y-41980408D01*
X110686828Y-41714541D01*
X110686827Y-41714540D01*
X110686823Y-41714535D01*
X110443632Y-41471344D01*
X110177765Y-41253153D01*
X110177764Y-41253152D01*
X110177760Y-41253149D01*
X109891787Y-41062068D01*
X109891782Y-41062065D01*
X109891775Y-41062061D01*
X109588469Y-40899940D01*
X109588464Y-40899938D01*
X109270706Y-40768318D01*
X108941572Y-40668476D01*
X108604248Y-40601378D01*
X108604249Y-40601378D01*
X108346456Y-40575989D01*
X108261969Y-40567668D01*
X107918031Y-40567668D01*
X107839966Y-40575356D01*
X107575750Y-40601378D01*
X107238427Y-40668476D01*
X106909293Y-40768318D01*
X106591535Y-40899938D01*
X106591530Y-40899940D01*
X106288224Y-41062061D01*
X106288206Y-41062072D01*
X106002248Y-41253143D01*
X106002234Y-41253153D01*
X105736367Y-41471344D01*
X105493176Y-41714535D01*
X105274985Y-41980402D01*
X105274975Y-41980416D01*
X105083904Y-42266374D01*
X105083893Y-42266392D01*
X104921772Y-42569698D01*
X104921770Y-42569703D01*
X104790150Y-42887461D01*
X104690308Y-43216595D01*
X104623210Y-43553918D01*
X104589500Y-43896202D01*
X97646892Y-43896202D01*
X97646892Y-43709839D01*
X97613181Y-43367558D01*
X97546082Y-43030230D01*
X97446242Y-42701103D01*
X97314623Y-42383346D01*
X97152492Y-42080021D01*
X97152481Y-42080004D01*
X97023498Y-41886966D01*
X97002620Y-41820289D01*
X97002600Y-41818076D01*
X97002600Y-27174500D01*
X97022285Y-27107461D01*
X97075089Y-27061706D01*
X97126600Y-27050500D01*
X115112800Y-27050500D01*
X115112800Y-70104000D01*
G37*
%TD.AperFunction*%
%TD*%
%TA.AperFunction,Conductor*%
%TO.N,OUT-*%
G36*
X180113479Y-49839946D02*
G01*
X180120907Y-49844945D01*
X180122626Y-49853733D01*
X180122315Y-49854937D01*
X179959583Y-50370060D01*
X179953823Y-50376917D01*
X179948426Y-50378236D01*
X179715574Y-50378236D01*
X179707301Y-50374809D01*
X179704417Y-50370060D01*
X179541684Y-49854937D01*
X179542460Y-49846016D01*
X179549317Y-49840256D01*
X179550500Y-49839950D01*
X179829682Y-49783469D01*
X179834318Y-49783469D01*
X180113479Y-49839946D01*
G37*
%TD.AperFunction*%
%TD*%
%TA.AperFunction,Conductor*%
%TO.N,IN-*%
G36*
X28321951Y-46486918D02*
G01*
X28329379Y-46491917D01*
X28331098Y-46500705D01*
X28330453Y-46502830D01*
X28118780Y-47018181D01*
X28112467Y-47024532D01*
X28107957Y-47025436D01*
X27875196Y-47025436D01*
X27866923Y-47022009D01*
X27863772Y-47016262D01*
X27825062Y-46841173D01*
X27749935Y-46501356D01*
X27751495Y-46492540D01*
X27758833Y-46487408D01*
X27758948Y-46487383D01*
X28039282Y-46430669D01*
X28043918Y-46430669D01*
X28321951Y-46486918D01*
G37*
%TD.AperFunction*%
%TD*%
%TA.AperFunction,Conductor*%
%TO.N,/SC*%
G36*
X175087710Y-71623620D02*
G01*
X175093327Y-71626958D01*
X175694278Y-71984099D01*
X175699639Y-71991271D01*
X175700000Y-71994156D01*
X175700000Y-72180843D01*
X175696573Y-72189116D01*
X175694277Y-72190901D01*
X175087710Y-72551379D01*
X175078848Y-72552660D01*
X175072156Y-72548041D01*
X174821555Y-72190901D01*
X174753714Y-72094219D01*
X174751768Y-72085480D01*
X174753715Y-72080780D01*
X174814498Y-71994156D01*
X175072157Y-71626957D01*
X175079713Y-71622154D01*
X175087710Y-71623620D01*
G37*
%TD.AperFunction*%
%TD*%
%TA.AperFunction,Conductor*%
%TO.N,/SNS-*%
G36*
X174757007Y-73916743D02*
G01*
X175198877Y-74247368D01*
X175203449Y-74255068D01*
X175202189Y-74262247D01*
X174878305Y-74868811D01*
X174871385Y-74874495D01*
X174867984Y-74875000D01*
X174632016Y-74875000D01*
X174623743Y-74871573D01*
X174621695Y-74868811D01*
X174297810Y-74262247D01*
X174296936Y-74253335D01*
X174301120Y-74247369D01*
X174742991Y-73916743D01*
X174751668Y-73914531D01*
X174757007Y-73916743D01*
G37*
%TD.AperFunction*%
%TD*%
%TA.AperFunction,Conductor*%
%TO.N,/SNS-*%
G36*
X172921012Y-76658369D02*
G01*
X172921930Y-76659195D01*
X173086377Y-76823642D01*
X173089804Y-76831915D01*
X173086377Y-76840188D01*
X173086272Y-76840292D01*
X172676714Y-77239647D01*
X172668398Y-77242969D01*
X172660169Y-77239438D01*
X172658839Y-77237802D01*
X172500612Y-77002667D01*
X172498838Y-76998386D01*
X172443931Y-76718302D01*
X172445702Y-76709524D01*
X172453161Y-76704570D01*
X172454156Y-76704419D01*
X172912423Y-76655833D01*
X172921012Y-76658369D01*
G37*
%TD.AperFunction*%
%TD*%
%TA.AperFunction,Conductor*%
%TO.N,/SNS-*%
G36*
X150238735Y-75996705D02*
G01*
X150241459Y-75998605D01*
X150735099Y-76459823D01*
X151232680Y-76924724D01*
X151236385Y-76932875D01*
X151236392Y-76933272D01*
X151236392Y-77122850D01*
X151232965Y-77131123D01*
X151232355Y-77131691D01*
X150241766Y-77990350D01*
X150233270Y-77993179D01*
X150229783Y-77992382D01*
X149548425Y-77721567D01*
X147515316Y-76913480D01*
X147508893Y-76907239D01*
X147508764Y-76898286D01*
X147515005Y-76891863D01*
X147515947Y-76891505D01*
X150229806Y-75996043D01*
X150238735Y-75996705D01*
G37*
%TD.AperFunction*%
%TD*%
%TA.AperFunction,Conductor*%
%TO.N,/SNS-*%
G36*
X158309295Y-76030108D02*
G01*
X160566439Y-76761138D01*
X161356631Y-77017061D01*
X161363446Y-77022870D01*
X161364157Y-77031797D01*
X161358348Y-77038612D01*
X161356631Y-77039323D01*
X158309302Y-78026273D01*
X158300375Y-78025562D01*
X158298477Y-78024349D01*
X157160130Y-77131705D01*
X157155735Y-77123903D01*
X157155650Y-77122498D01*
X157155650Y-76933885D01*
X157159077Y-76925612D01*
X157160120Y-76924686D01*
X158298479Y-76032033D01*
X158307102Y-76029626D01*
X158309295Y-76030108D01*
G37*
%TD.AperFunction*%
%TD*%
%TA.AperFunction,Conductor*%
%TO.N,/SNS-*%
G36*
X164479624Y-76030821D02*
G01*
X164481519Y-76032032D01*
X165619870Y-76924679D01*
X165624265Y-76932480D01*
X165624350Y-76933885D01*
X165624350Y-77122498D01*
X165620923Y-77130771D01*
X165619870Y-77131705D01*
X164481522Y-78024349D01*
X164472897Y-78026757D01*
X164470697Y-78026273D01*
X161423368Y-77039323D01*
X161416553Y-77033514D01*
X161415842Y-77024587D01*
X161421651Y-77017772D01*
X161423368Y-77017061D01*
X161708612Y-76924678D01*
X164470699Y-76030110D01*
X164479624Y-76030821D01*
G37*
%TD.AperFunction*%
%TD*%
%TA.AperFunction,Conductor*%
%TO.N,/SNS-*%
G36*
X172338676Y-76758514D02*
G01*
X172498272Y-76995942D01*
X172500043Y-77004720D01*
X172500030Y-77004789D01*
X172444039Y-77281548D01*
X172439039Y-77288977D01*
X172430251Y-77290696D01*
X172429107Y-77290403D01*
X171914000Y-77130744D01*
X171907112Y-77125022D01*
X171905764Y-77119569D01*
X171905764Y-76936001D01*
X171909191Y-76927728D01*
X171912975Y-76925196D01*
X172324478Y-76754235D01*
X172333432Y-76754227D01*
X172338676Y-76758514D01*
G37*
%TD.AperFunction*%
%TD*%
%TA.AperFunction,Conductor*%
%TO.N,/SC*%
G36*
X174876257Y-71128427D02*
G01*
X174878305Y-71131189D01*
X175202189Y-71737752D01*
X175203063Y-71746664D01*
X175198877Y-71752631D01*
X174757009Y-72083255D01*
X174748332Y-72085468D01*
X174742991Y-72083255D01*
X174301122Y-71752631D01*
X174296550Y-71744931D01*
X174297810Y-71737752D01*
X174621695Y-71131189D01*
X174628615Y-71125505D01*
X174632016Y-71125000D01*
X174867984Y-71125000D01*
X174876257Y-71128427D01*
G37*
%TD.AperFunction*%
%TD*%
%TA.AperFunction,Conductor*%
%TO.N,/SC*%
G36*
X164489722Y-68410790D02*
G01*
X164491493Y-68411906D01*
X164934167Y-68749389D01*
X165629743Y-69279680D01*
X165634245Y-69287420D01*
X165634350Y-69288983D01*
X165634350Y-69527400D01*
X165630923Y-69535673D01*
X165629743Y-69536704D01*
X164491493Y-70404477D01*
X164482837Y-70406768D01*
X164480795Y-70406304D01*
X161433368Y-69419323D01*
X161426553Y-69413514D01*
X161425842Y-69404587D01*
X161431651Y-69397772D01*
X161433368Y-69397061D01*
X161771898Y-69287420D01*
X164480795Y-68410079D01*
X164489722Y-68410790D01*
G37*
%TD.AperFunction*%
%TD*%
%TA.AperFunction,Conductor*%
%TO.N,/SC*%
G36*
X150238735Y-68376705D02*
G01*
X150241459Y-68378605D01*
X150735099Y-68839823D01*
X151232680Y-69304724D01*
X151236385Y-69312875D01*
X151236392Y-69313272D01*
X151236392Y-69502850D01*
X151232965Y-69511123D01*
X151232355Y-69511691D01*
X150241766Y-70370350D01*
X150233270Y-70373179D01*
X150229783Y-70372382D01*
X149548425Y-70101567D01*
X147515316Y-69293480D01*
X147508893Y-69287239D01*
X147508764Y-69278286D01*
X147515005Y-69271863D01*
X147515947Y-69271505D01*
X150229806Y-68376043D01*
X150238735Y-68376705D01*
G37*
%TD.AperFunction*%
%TD*%
%TA.AperFunction,Conductor*%
%TO.N,/SC*%
G36*
X158319295Y-68410108D02*
G01*
X160576439Y-69141138D01*
X161366631Y-69397061D01*
X161373446Y-69402870D01*
X161374157Y-69411797D01*
X161368348Y-69418612D01*
X161366631Y-69419323D01*
X158319302Y-70406273D01*
X158310375Y-70405562D01*
X158308477Y-70404349D01*
X157170130Y-69511705D01*
X157165735Y-69503903D01*
X157165650Y-69502498D01*
X157165650Y-69313885D01*
X157169077Y-69305612D01*
X157170120Y-69304686D01*
X158308479Y-68412033D01*
X158317102Y-68409626D01*
X158319295Y-68410108D01*
G37*
%TD.AperFunction*%
%TD*%
%TA.AperFunction,Conductor*%
%TO.N,/SC*%
G36*
X174757007Y-66416743D02*
G01*
X175198877Y-66747368D01*
X175203449Y-66755068D01*
X175202189Y-66762247D01*
X174878305Y-67368811D01*
X174871385Y-67374495D01*
X174867984Y-67375000D01*
X174632016Y-67375000D01*
X174623743Y-67371573D01*
X174621695Y-67368811D01*
X174297810Y-66762247D01*
X174296936Y-66753335D01*
X174301120Y-66747369D01*
X174742991Y-66416743D01*
X174751668Y-66414531D01*
X174757007Y-66416743D01*
G37*
%TD.AperFunction*%
%TD*%
%TA.AperFunction,Conductor*%
%TO.N,/SNS+*%
G36*
X158309295Y-60790108D02*
G01*
X160566439Y-61521138D01*
X161356631Y-61777061D01*
X161363446Y-61782870D01*
X161364157Y-61791797D01*
X161358348Y-61798612D01*
X161356631Y-61799323D01*
X158309302Y-62786273D01*
X158300375Y-62785562D01*
X158298477Y-62784349D01*
X157160130Y-61891705D01*
X157155735Y-61883903D01*
X157155650Y-61882498D01*
X157155650Y-61693885D01*
X157159077Y-61685612D01*
X157160120Y-61684686D01*
X158298479Y-60792033D01*
X158307102Y-60789626D01*
X158309295Y-60790108D01*
G37*
%TD.AperFunction*%
%TD*%
%TA.AperFunction,Conductor*%
%TO.N,/SNS+*%
G36*
X150238735Y-60756705D02*
G01*
X150241459Y-60758605D01*
X150735099Y-61219823D01*
X151232680Y-61684724D01*
X151236385Y-61692875D01*
X151236392Y-61693272D01*
X151236392Y-61882850D01*
X151232965Y-61891123D01*
X151232355Y-61891691D01*
X150241766Y-62750350D01*
X150233270Y-62753179D01*
X150229783Y-62752382D01*
X149548425Y-62481567D01*
X147515316Y-61673480D01*
X147508893Y-61667239D01*
X147508764Y-61658286D01*
X147515005Y-61651863D01*
X147515947Y-61651505D01*
X150229806Y-60756043D01*
X150238735Y-60756705D01*
G37*
%TD.AperFunction*%
%TD*%
%TA.AperFunction,Conductor*%
%TO.N,/SNS+*%
G36*
X174425805Y-62995377D02*
G01*
X174905123Y-63244556D01*
X174910883Y-63251412D01*
X174910107Y-63260333D01*
X174909475Y-63261404D01*
X174752015Y-63498734D01*
X174748734Y-63502015D01*
X174511404Y-63659475D01*
X174502616Y-63661194D01*
X174495187Y-63656194D01*
X174494560Y-63655132D01*
X174245377Y-63175806D01*
X174244602Y-63166887D01*
X174247484Y-63162140D01*
X174412139Y-62997485D01*
X174420411Y-62994059D01*
X174425805Y-62995377D01*
G37*
%TD.AperFunction*%
%TD*%
%TA.AperFunction,Conductor*%
%TO.N,/SNS+*%
G36*
X172675737Y-61504786D02*
G01*
X173139879Y-61721186D01*
X173145928Y-61727787D01*
X173145538Y-61736733D01*
X173143207Y-61740062D01*
X172980206Y-61903063D01*
X172975616Y-61905895D01*
X172571077Y-62040073D01*
X172562146Y-62039425D01*
X172556289Y-62032651D01*
X172555923Y-62031272D01*
X172530743Y-61905895D01*
X172500254Y-61754078D01*
X172501985Y-61745293D01*
X172502018Y-61745243D01*
X172661086Y-61508857D01*
X172668548Y-61503907D01*
X172675737Y-61504786D01*
G37*
%TD.AperFunction*%
%TD*%
%TA.AperFunction,Conductor*%
%TO.N,/SNS+*%
G36*
X164479624Y-60790821D02*
G01*
X164481519Y-60792032D01*
X165619870Y-61684679D01*
X165624265Y-61692480D01*
X165624350Y-61693885D01*
X165624350Y-61882498D01*
X165620923Y-61890771D01*
X165619870Y-61891705D01*
X164481522Y-62784349D01*
X164472897Y-62786757D01*
X164470697Y-62786273D01*
X161423368Y-61799323D01*
X161416553Y-61793514D01*
X161415842Y-61784587D01*
X161421651Y-61777772D01*
X161423368Y-61777061D01*
X161708612Y-61684678D01*
X164470699Y-60790110D01*
X164479624Y-60790821D01*
G37*
%TD.AperFunction*%
%TD*%
%TA.AperFunction,Conductor*%
%TO.N,/SNS+*%
G36*
X172338785Y-61508676D02*
G01*
X172498272Y-61745942D01*
X172500043Y-61754720D01*
X172500030Y-61754789D01*
X172443996Y-62031764D01*
X172438996Y-62039193D01*
X172430208Y-62040912D01*
X172429256Y-62040677D01*
X171914192Y-61890646D01*
X171907207Y-61885042D01*
X171905764Y-61879413D01*
X171905764Y-61695834D01*
X171909191Y-61687561D01*
X171912757Y-61685122D01*
X172324373Y-61504488D01*
X172333326Y-61504303D01*
X172338785Y-61508676D01*
G37*
%TD.AperFunction*%
%TD*%
%TA.AperFunction,Conductor*%
%TO.N,/SNS+*%
G36*
X174876257Y-63628427D02*
G01*
X174878305Y-63631189D01*
X175202189Y-64237752D01*
X175203063Y-64246664D01*
X175198877Y-64252631D01*
X174757009Y-64583255D01*
X174748332Y-64585468D01*
X174742991Y-64583255D01*
X174301122Y-64252631D01*
X174296550Y-64244931D01*
X174297810Y-64237752D01*
X174621695Y-63631189D01*
X174628615Y-63625505D01*
X174632016Y-63625000D01*
X174867984Y-63625000D01*
X174876257Y-63628427D01*
G37*
%TD.AperFunction*%
%TD*%
%TA.AperFunction,Conductor*%
%TO.N,/SNS+*%
G36*
X175031479Y-63555946D02*
G01*
X175038907Y-63560945D01*
X175040626Y-63569733D01*
X175040315Y-63570937D01*
X174877583Y-64086060D01*
X174871823Y-64092917D01*
X174866426Y-64094236D01*
X174633574Y-64094236D01*
X174625301Y-64090809D01*
X174622417Y-64086060D01*
X174459684Y-63570937D01*
X174460460Y-63562016D01*
X174467317Y-63556256D01*
X174468500Y-63555950D01*
X174747682Y-63499469D01*
X174752318Y-63499469D01*
X175031479Y-63555946D01*
G37*
%TD.AperFunction*%
%TD*%
M02*
