%TF.GenerationSoftware,KiCad,Pcbnew,9.0.1*%
%TF.CreationDate,2025-10-25T17:54:32-05:00*%
%TF.ProjectId,MaxiCarrier,4d617869-4361-4727-9269-65722e6b6963,rev?*%
%TF.SameCoordinates,Original*%
%TF.FileFunction,Copper,L1,Top*%
%TF.FilePolarity,Positive*%
%FSLAX46Y46*%
G04 Gerber Fmt 4.6, Leading zero omitted, Abs format (unit mm)*
G04 Created by KiCad (PCBNEW 9.0.1) date 2025-10-25 17:54:32*
%MOMM*%
%LPD*%
G01*
G04 APERTURE LIST*
G04 Aperture macros list*
%AMRoundRect*
0 Rectangle with rounded corners*
0 $1 Rounding radius*
0 $2 $3 $4 $5 $6 $7 $8 $9 X,Y pos of 4 corners*
0 Add a 4 corners polygon primitive as box body*
4,1,4,$2,$3,$4,$5,$6,$7,$8,$9,$2,$3,0*
0 Add four circle primitives for the rounded corners*
1,1,$1+$1,$2,$3*
1,1,$1+$1,$4,$5*
1,1,$1+$1,$6,$7*
1,1,$1+$1,$8,$9*
0 Add four rect primitives between the rounded corners*
20,1,$1+$1,$2,$3,$4,$5,0*
20,1,$1+$1,$4,$5,$6,$7,0*
20,1,$1+$1,$6,$7,$8,$9,0*
20,1,$1+$1,$8,$9,$2,$3,0*%
%AMOutline5P*
0 Free polygon, 5 corners , with rotation*
0 The origin of the aperture is its center*
0 number of corners: always 5*
0 $1 to $10 corner X, Y*
0 $11 Rotation angle, in degrees counterclockwise*
0 create outline with 5 corners*
4,1,5,$1,$2,$3,$4,$5,$6,$7,$8,$9,$10,$1,$2,$11*%
%AMOutline6P*
0 Free polygon, 6 corners , with rotation*
0 The origin of the aperture is its center*
0 number of corners: always 6*
0 $1 to $12 corner X, Y*
0 $13 Rotation angle, in degrees counterclockwise*
0 create outline with 6 corners*
4,1,6,$1,$2,$3,$4,$5,$6,$7,$8,$9,$10,$11,$12,$1,$2,$13*%
%AMOutline7P*
0 Free polygon, 7 corners , with rotation*
0 The origin of the aperture is its center*
0 number of corners: always 7*
0 $1 to $14 corner X, Y*
0 $15 Rotation angle, in degrees counterclockwise*
0 create outline with 7 corners*
4,1,7,$1,$2,$3,$4,$5,$6,$7,$8,$9,$10,$11,$12,$13,$14,$1,$2,$15*%
%AMOutline8P*
0 Free polygon, 8 corners , with rotation*
0 The origin of the aperture is its center*
0 number of corners: always 8*
0 $1 to $16 corner X, Y*
0 $17 Rotation angle, in degrees counterclockwise*
0 create outline with 8 corners*
4,1,8,$1,$2,$3,$4,$5,$6,$7,$8,$9,$10,$11,$12,$13,$14,$15,$16,$1,$2,$17*%
G04 Aperture macros list end*
%TA.AperFunction,SMDPad,CuDef*%
%ADD10R,1.000000X1.000000*%
%TD*%
%TA.AperFunction,SMDPad,CuDef*%
%ADD11RoundRect,0.237500X-0.287500X-0.237500X0.287500X-0.237500X0.287500X0.237500X-0.287500X0.237500X0*%
%TD*%
%TA.AperFunction,SMDPad,CuDef*%
%ADD12RoundRect,0.250000X0.312500X0.625000X-0.312500X0.625000X-0.312500X-0.625000X0.312500X-0.625000X0*%
%TD*%
%TA.AperFunction,ComponentPad*%
%ADD13C,3.600000*%
%TD*%
%TA.AperFunction,ConnectorPad*%
%ADD14C,6.400000*%
%TD*%
%TA.AperFunction,ComponentPad*%
%ADD15C,6.500000*%
%TD*%
%TA.AperFunction,ComponentPad*%
%ADD16Outline5P,-2.500000X1.500000X-1.500000X2.500000X2.500000X2.500000X2.500000X-2.500000X-2.500000X-2.500000X0.000000*%
%TD*%
%TA.AperFunction,ComponentPad*%
%ADD17R,6.500000X5.000000*%
%TD*%
%TA.AperFunction,ComponentPad*%
%ADD18Outline5P,-2.500000X1.500000X-1.500000X2.500000X2.500000X2.500000X2.500000X-2.500000X-2.500000X-2.500000X90.000000*%
%TD*%
%TA.AperFunction,ComponentPad*%
%ADD19C,9.000000*%
%TD*%
%TA.AperFunction,ComponentPad*%
%ADD20Outline5P,-4.000000X2.400000X-2.400000X4.000000X4.000000X4.000000X4.000000X-4.000000X-4.000000X-4.000000X180.000000*%
%TD*%
%TA.AperFunction,ComponentPad*%
%ADD21Outline5P,-4.000000X2.400000X-2.400000X4.000000X4.000000X4.000000X4.000000X-4.000000X-4.000000X-4.000000X270.000000*%
%TD*%
%TA.AperFunction,ComponentPad*%
%ADD22C,4.500000*%
%TD*%
%TA.AperFunction,SMDPad,CuDef*%
%ADD23RoundRect,0.237500X-0.237500X0.250000X-0.237500X-0.250000X0.237500X-0.250000X0.237500X0.250000X0*%
%TD*%
%TA.AperFunction,SMDPad,CuDef*%
%ADD24RoundRect,0.250000X-0.312500X-0.625000X0.312500X-0.625000X0.312500X0.625000X-0.312500X0.625000X0*%
%TD*%
%TA.AperFunction,ComponentPad*%
%ADD25RoundRect,0.875000X0.875000X0.875000X-0.875000X0.875000X-0.875000X-0.875000X0.875000X-0.875000X0*%
%TD*%
%TA.AperFunction,ComponentPad*%
%ADD26C,3.500000*%
%TD*%
%TA.AperFunction,SMDPad,CuDef*%
%ADD27RoundRect,0.237500X0.237500X-0.250000X0.237500X0.250000X-0.237500X0.250000X-0.237500X-0.250000X0*%
%TD*%
%TA.AperFunction,ComponentPad*%
%ADD28R,1.530000X1.530000*%
%TD*%
%TA.AperFunction,ComponentPad*%
%ADD29C,1.530000*%
%TD*%
%TA.AperFunction,ViaPad*%
%ADD30C,0.600000*%
%TD*%
%TA.AperFunction,Conductor*%
%ADD31C,0.200000*%
%TD*%
%TA.AperFunction,Conductor*%
%ADD32C,0.250000*%
%TD*%
%TA.AperFunction,Conductor*%
%ADD33C,2.000000*%
%TD*%
G04 APERTURE END LIST*
D10*
%TO.P,TP7,1,1*%
%TO.N,IN-*%
X29500000Y-90500000D03*
%TD*%
%TO.P,TP1,1,1*%
%TO.N,/PC*%
X29500000Y-65000000D03*
%TD*%
%TO.P,TP5,1,1*%
%TO.N,Unfused_IN+*%
X88750000Y-33250000D03*
%TD*%
%TO.P,TP8,1,1*%
%TO.N,OUT+*%
X178250000Y-55500000D03*
%TD*%
D11*
%TO.P,D1,1,K*%
%TO.N,IN-*%
X32162500Y-41250000D03*
%TO.P,D1,2,A*%
%TO.N,Net-(D1-A)*%
X33912500Y-41250000D03*
%TD*%
D12*
%TO.P,R1,1*%
%TO.N,IN+*%
X34462500Y-38250000D03*
%TO.P,R1,2*%
%TO.N,Net-(D1-A)*%
X31537500Y-38250000D03*
%TD*%
D10*
%TO.P,TP6,1,1*%
%TO.N,IN+*%
X29500000Y-55250000D03*
%TD*%
D13*
%TO.P,H1,1,1*%
%TO.N,PLATE*%
X151500000Y-31250000D03*
D14*
X151500000Y-31250000D03*
%TD*%
D15*
%TO.P,U1,1,IN+*%
%TO.N,IN+*%
X54750000Y-51608192D03*
D16*
X40806392Y-51501587D03*
D15*
%TO.P,U1,2,PC*%
%TO.N,/PC*%
X54750000Y-61768192D03*
D17*
X41306392Y-61661587D03*
D15*
%TO.P,U1,3,PR*%
%TO.N,unconnected-(U1-PR-Pad3)*%
X54750000Y-77008192D03*
D17*
%TO.N,unconnected-(U1-PR-Pad3)_1*%
X41306392Y-76901587D03*
D15*
%TO.P,U1,4,IN-*%
%TO.N,IN-*%
X54750000Y-87168192D03*
D18*
X40806392Y-87061587D03*
D19*
%TO.P,U1,5,OUT-*%
%TO.N,OUT-*%
X161290000Y-87188192D03*
D20*
X147486392Y-87061587D03*
D15*
%TO.P,U1,6,SENSE-*%
%TO.N,/SNS-*%
X161390000Y-77028192D03*
D17*
X146986392Y-76901587D03*
D15*
%TO.P,U1,7,SC*%
%TO.N,/SC*%
X161400000Y-69408192D03*
D17*
X146986392Y-69281587D03*
D15*
%TO.P,U1,8,SENSE+*%
%TO.N,/SNS+*%
X161390000Y-61788192D03*
D17*
X146986392Y-61661587D03*
D19*
%TO.P,U1,9,OUT+*%
%TO.N,OUT+*%
X161430000Y-51628192D03*
D21*
X147486392Y-51501587D03*
D22*
%TO.P,U1,10,PLATE*%
%TO.N,PLATE*%
X108089955Y-94868187D03*
X62370000Y-94868168D03*
X153809955Y-94868168D03*
X94146347Y-94681827D03*
X48426392Y-94681808D03*
X139866347Y-94681808D03*
X62369958Y-44068192D03*
X153809958Y-44068192D03*
X108090000Y-44068168D03*
X48426350Y-43881832D03*
X139866350Y-43881832D03*
X94146392Y-43881808D03*
%TD*%
D23*
%TO.P,R6,1*%
%TO.N,/SNS-*%
X174750000Y-80837500D03*
%TO.P,R6,2*%
%TO.N,OUT-*%
X174750000Y-82662500D03*
%TD*%
D24*
%TO.P,R2,1*%
%TO.N,OUT+*%
X172140000Y-38250000D03*
%TO.P,R2,2*%
%TO.N,Net-(D2-A)*%
X175065000Y-38250000D03*
%TD*%
D10*
%TO.P,TP9,1,1*%
%TO.N,OUT-*%
X178250000Y-90750000D03*
%TD*%
%TO.P,TP4,1,1*%
%TO.N,/SNS-*%
X174750000Y-75000000D03*
%TD*%
D11*
%TO.P,D2,1,K*%
%TO.N,OUT-*%
X172750000Y-41250000D03*
%TO.P,D2,2,A*%
%TO.N,Net-(D2-A)*%
X174500000Y-41250000D03*
%TD*%
D10*
%TO.P,TP2,1,1*%
%TO.N,/SC*%
X178250000Y-72250000D03*
%TD*%
D25*
%TO.P,F1,1*%
%TO.N,Unfused_IN+*%
X79605000Y-33250000D03*
X71985000Y-33250000D03*
D26*
%TO.P,F1,2*%
%TO.N,IN+*%
X53015000Y-33250000D03*
X45395000Y-33250000D03*
%TD*%
D10*
%TO.P,TP3,1,1*%
%TO.N,/SNS+*%
X174750000Y-63500000D03*
%TD*%
D27*
%TO.P,R5,1*%
%TO.N,/SNS+*%
X174750000Y-56912500D03*
%TO.P,R5,2*%
%TO.N,OUT+*%
X174750000Y-55087500D03*
%TD*%
D28*
%TO.P,J1,01,01*%
%TO.N,/PC*%
X88160000Y-112000000D03*
D29*
%TO.P,J1,02,02*%
%TO.N,unconnected-(J1-Pad02)*%
X90700000Y-112000000D03*
%TO.P,J1,03,03*%
%TO.N,/SNS+*%
X93240000Y-112000000D03*
%TO.P,J1,04,04*%
%TO.N,unconnected-(J1-Pad04)*%
X95780000Y-112000000D03*
%TO.P,J1,05,05*%
%TO.N,/SC*%
X98320000Y-112000000D03*
%TO.P,J1,06,06*%
%TO.N,unconnected-(J1-Pad06)*%
X100860000Y-112000000D03*
%TO.P,J1,07,07*%
%TO.N,/SNS-*%
X103400000Y-112000000D03*
%TO.P,J1,08,08*%
%TO.N,unconnected-(J1-Pad08)*%
X105940000Y-112000000D03*
%TO.P,J1,09,09*%
%TO.N,unconnected-(J1-Pad09)*%
X88160000Y-109460000D03*
%TO.P,J1,10,10*%
%TO.N,unconnected-(J1-Pad10)*%
X90700000Y-109460000D03*
%TO.P,J1,11,11*%
%TO.N,unconnected-(J1-Pad11)*%
X93240000Y-109460000D03*
%TO.P,J1,12,12*%
%TO.N,unconnected-(J1-Pad12)*%
X95780000Y-109460000D03*
%TO.P,J1,13,13*%
%TO.N,unconnected-(J1-Pad13)*%
X98320000Y-109460000D03*
%TO.P,J1,14,14*%
%TO.N,unconnected-(J1-Pad14)*%
X100860000Y-109460000D03*
%TO.P,J1,15,15*%
%TO.N,unconnected-(J1-Pad15)*%
X103400000Y-109460000D03*
%TO.P,J1,16,16*%
%TO.N,unconnected-(J1-Pad16)*%
X105940000Y-109460000D03*
%TO.P,J1,17,17*%
%TO.N,unconnected-(J1-Pad17)*%
X88160000Y-106920000D03*
%TO.P,J1,18,18*%
%TO.N,unconnected-(J1-Pad18)*%
X90700000Y-106920000D03*
%TO.P,J1,19,19*%
%TO.N,unconnected-(J1-Pad19)*%
X93240000Y-106920000D03*
%TO.P,J1,20,20*%
%TO.N,unconnected-(J1-Pad20)*%
X95780000Y-106920000D03*
%TO.P,J1,21,21*%
%TO.N,unconnected-(J1-Pad21)*%
X98320000Y-106920000D03*
%TO.P,J1,22,22*%
%TO.N,unconnected-(J1-Pad22)*%
X100860000Y-106920000D03*
%TO.P,J1,23,23*%
%TO.N,unconnected-(J1-Pad23)*%
X103400000Y-106920000D03*
%TO.P,J1,24,24*%
%TO.N,unconnected-(J1-Pad24)*%
X105940000Y-106920000D03*
%TO.P,J1,P01,P01*%
%TO.N,IN-*%
X74490000Y-103500000D03*
X74490000Y-106000000D03*
X74490000Y-108500000D03*
X74490000Y-111000000D03*
X74490000Y-113500000D03*
X77490000Y-103500000D03*
X77490000Y-106000000D03*
X77490000Y-108500000D03*
X77490000Y-111000000D03*
X77490000Y-113500000D03*
%TO.P,J1,P02,P02*%
%TO.N,Unfused_IN+*%
X79990000Y-103500000D03*
X79990000Y-106000000D03*
X79990000Y-108500000D03*
X79990000Y-111000000D03*
X79990000Y-113500000D03*
X82990000Y-103500000D03*
X82990000Y-106000000D03*
X82990000Y-108500000D03*
X82990000Y-111000000D03*
X82990000Y-113500000D03*
%TO.P,J1,P03,P03*%
%TO.N,OUT+*%
X110750000Y-103500000D03*
X110750000Y-106000000D03*
X110750000Y-108500000D03*
X110750000Y-111000000D03*
X110750000Y-113500000D03*
X113750000Y-103500000D03*
X113750000Y-106000000D03*
X113750000Y-108500000D03*
X113750000Y-111000000D03*
X113750000Y-113500000D03*
%TO.P,J1,P04,P04*%
%TO.N,OUT-*%
X116250000Y-103500000D03*
X116250000Y-106000000D03*
X116250000Y-108500000D03*
X116250000Y-111000000D03*
X116250000Y-113500000D03*
X119250000Y-103500000D03*
X119250000Y-106000000D03*
X119250000Y-108500000D03*
X119250000Y-111000000D03*
X119250000Y-113500000D03*
%TD*%
D30*
%TO.N,OUT-*%
X179832000Y-49784000D03*
%TO.N,IN-*%
X28041600Y-46431200D03*
%TO.N,/SC*%
X176500000Y-72750000D03*
%TO.N,/SNS-*%
X174750000Y-75000000D03*
X172500000Y-77000000D03*
%TO.N,/SNS+*%
X174750000Y-63500000D03*
X172500000Y-61750000D03*
%TD*%
D31*
%TO.N,/SC*%
X179698000Y-73698000D02*
X178250000Y-72250000D01*
X176667800Y-117198000D02*
X179698000Y-114167800D01*
X103518000Y-117198000D02*
X176667800Y-117198000D01*
X179698000Y-114167800D02*
X179698000Y-73698000D01*
X98320000Y-112000000D02*
X103518000Y-117198000D01*
%TO.N,/SNS+*%
X180099000Y-114333900D02*
X180099000Y-68849000D01*
X98839000Y-117599000D02*
X176833900Y-117599000D01*
X176833900Y-117599000D02*
X180099000Y-114333900D01*
X93240000Y-112000000D02*
X98839000Y-117599000D01*
X180099000Y-68849000D02*
X174750000Y-63500000D01*
D32*
%TO.N,OUT-*%
X179832000Y-49784000D02*
X179832000Y-48332000D01*
X179832000Y-48332000D02*
X172750000Y-41250000D01*
%TO.N,IN-*%
X28041600Y-46431200D02*
X28041600Y-45370900D01*
X28041600Y-45370900D02*
X32162500Y-41250000D01*
D31*
%TO.N,/SC*%
X176500000Y-72750000D02*
X177750000Y-72750000D01*
X177750000Y-72750000D02*
X178250000Y-72250000D01*
%TO.N,/PC*%
X78663800Y-116205000D02*
X78663800Y-71272400D01*
X54750000Y-70650400D02*
X54750000Y-61768192D01*
D32*
X29500000Y-65000000D02*
X37467979Y-65000000D01*
X37467979Y-65000000D02*
X40806392Y-61661587D01*
X40806392Y-61661587D02*
X40912997Y-61768192D01*
D31*
X79756000Y-117297200D02*
X78663800Y-116205000D01*
X78333600Y-70942200D02*
X55041800Y-70942200D01*
X88160000Y-115903600D02*
X86766400Y-117297200D01*
D32*
X40912997Y-61768192D02*
X54750000Y-61768192D01*
D31*
X86766400Y-117297200D02*
X79756000Y-117297200D01*
X55041800Y-70942200D02*
X54750000Y-70650400D01*
X78663800Y-71272400D02*
X78333600Y-70942200D01*
X88160000Y-112000000D02*
X88160000Y-115903600D01*
D32*
%TO.N,/SNS-*%
X174750000Y-79250000D02*
X174750000Y-80775000D01*
X172500000Y-77000000D02*
X174750000Y-79250000D01*
D33*
%TO.N,PLATE*%
X153809955Y-44068195D02*
X153809958Y-44068192D01*
X94146392Y-94681782D02*
X94146347Y-94681827D01*
X139679968Y-94868187D02*
X139866347Y-94681808D01*
X94332752Y-44068168D02*
X94146392Y-43881808D01*
D32*
%TO.N,Net-(D1-A)*%
X31537500Y-39037500D02*
X31537500Y-38250000D01*
X33750000Y-41250000D02*
X31537500Y-39037500D01*
X33912500Y-41250000D02*
X33750000Y-41250000D01*
%TO.N,Net-(D2-A)*%
X174500000Y-41250000D02*
X174500000Y-40000000D01*
X175065000Y-39435000D02*
X175065000Y-38250000D01*
X174500000Y-40000000D02*
X175065000Y-39435000D01*
%TO.N,/SNS+*%
X172500000Y-61750000D02*
X174750000Y-59500000D01*
X174750000Y-59500000D02*
X174750000Y-56950000D01*
D31*
%TO.N,/SNS-*%
X179297000Y-85384500D02*
X174750000Y-80837500D01*
X179297000Y-114001700D02*
X179297000Y-85384500D01*
X176501700Y-116797000D02*
X179297000Y-114001700D01*
X103400000Y-112000000D02*
X108197000Y-116797000D01*
X108197000Y-116797000D02*
X176501700Y-116797000D01*
%TD*%
%TA.AperFunction,Conductor*%
%TO.N,Unfused_IN+*%
G36*
X95687539Y-27070185D02*
G01*
X95733294Y-27122989D01*
X95744500Y-27174500D01*
X95744500Y-40569272D01*
X95724815Y-40636311D01*
X95672011Y-40682066D01*
X95602853Y-40692010D01*
X95573048Y-40683833D01*
X95327102Y-40581959D01*
X94997964Y-40482116D01*
X94660640Y-40415018D01*
X94660641Y-40415018D01*
X94402848Y-40389629D01*
X94318361Y-40381308D01*
X93974423Y-40381308D01*
X93896358Y-40388996D01*
X93632142Y-40415018D01*
X93294819Y-40482116D01*
X92965685Y-40581958D01*
X92647927Y-40713578D01*
X92647922Y-40713580D01*
X92344616Y-40875701D01*
X92344598Y-40875712D01*
X92058640Y-41066783D01*
X92058626Y-41066793D01*
X91792759Y-41284984D01*
X91549568Y-41528175D01*
X91331377Y-41794042D01*
X91331367Y-41794056D01*
X91140296Y-42080014D01*
X91140285Y-42080032D01*
X90978164Y-42383338D01*
X90978162Y-42383343D01*
X90846542Y-42701101D01*
X90746700Y-43030235D01*
X90679602Y-43367558D01*
X90645892Y-43709842D01*
X90645892Y-44053773D01*
X90679602Y-44396057D01*
X90746700Y-44733380D01*
X90846542Y-45062514D01*
X90978162Y-45380272D01*
X90978164Y-45380277D01*
X91140285Y-45683583D01*
X91140296Y-45683601D01*
X91331367Y-45969559D01*
X91331377Y-45969573D01*
X91549568Y-46235440D01*
X91792759Y-46478631D01*
X91792764Y-46478635D01*
X91792765Y-46478636D01*
X92058632Y-46696827D01*
X92344605Y-46887908D01*
X92344614Y-46887913D01*
X92344616Y-46887914D01*
X92647922Y-47050035D01*
X92647924Y-47050035D01*
X92647930Y-47050039D01*
X92965687Y-47181658D01*
X93294814Y-47281498D01*
X93632142Y-47348597D01*
X93974423Y-47382308D01*
X93974426Y-47382308D01*
X94318358Y-47382308D01*
X94318361Y-47382308D01*
X94660642Y-47348597D01*
X94997970Y-47281498D01*
X95327097Y-47181658D01*
X95573048Y-47079781D01*
X95642517Y-47072313D01*
X95704996Y-47103588D01*
X95740648Y-47163677D01*
X95744500Y-47194343D01*
X95744500Y-91369310D01*
X95724815Y-91436349D01*
X95672011Y-91482104D01*
X95602853Y-91492048D01*
X95573048Y-91483871D01*
X95327057Y-91381978D01*
X94997919Y-91282135D01*
X94660595Y-91215037D01*
X94660596Y-91215037D01*
X94402803Y-91189648D01*
X94318316Y-91181327D01*
X93974378Y-91181327D01*
X93896313Y-91189015D01*
X93632097Y-91215037D01*
X93294774Y-91282135D01*
X92965640Y-91381977D01*
X92647882Y-91513597D01*
X92647877Y-91513599D01*
X92344571Y-91675720D01*
X92344553Y-91675731D01*
X92058595Y-91866802D01*
X92058581Y-91866812D01*
X91792714Y-92085003D01*
X91549523Y-92328194D01*
X91331332Y-92594061D01*
X91331322Y-92594075D01*
X91140251Y-92880033D01*
X91140240Y-92880051D01*
X90978119Y-93183357D01*
X90978117Y-93183362D01*
X90846497Y-93501120D01*
X90746655Y-93830254D01*
X90679557Y-94167577D01*
X90645847Y-94509861D01*
X90645847Y-94853792D01*
X90679557Y-95196076D01*
X90746655Y-95533399D01*
X90846497Y-95862533D01*
X90978117Y-96180291D01*
X90978119Y-96180296D01*
X91140240Y-96483602D01*
X91140251Y-96483620D01*
X91331322Y-96769578D01*
X91331332Y-96769592D01*
X91549523Y-97035459D01*
X91792714Y-97278650D01*
X91792719Y-97278654D01*
X91792720Y-97278655D01*
X92058587Y-97496846D01*
X92344560Y-97687927D01*
X92344569Y-97687932D01*
X92344571Y-97687933D01*
X92647877Y-97850054D01*
X92647879Y-97850054D01*
X92647885Y-97850058D01*
X92965642Y-97981677D01*
X93294769Y-98081517D01*
X93632097Y-98148616D01*
X93974378Y-98182327D01*
X93974381Y-98182327D01*
X94318313Y-98182327D01*
X94318316Y-98182327D01*
X94660597Y-98148616D01*
X94997925Y-98081517D01*
X95327052Y-97981677D01*
X95573049Y-97879781D01*
X95642516Y-97872313D01*
X95704996Y-97903588D01*
X95740648Y-97963677D01*
X95744500Y-97994343D01*
X95744500Y-104783036D01*
X95724815Y-104850075D01*
X95672011Y-104895830D01*
X95636685Y-104905975D01*
X95385955Y-104938984D01*
X95130744Y-105007368D01*
X94886660Y-105108471D01*
X94886650Y-105108475D01*
X94657845Y-105240576D01*
X94585486Y-105296099D01*
X94520316Y-105321293D01*
X94451872Y-105307254D01*
X94434514Y-105296099D01*
X94362154Y-105240576D01*
X94133349Y-105108475D01*
X94133339Y-105108471D01*
X93889255Y-105007368D01*
X93634044Y-104938984D01*
X93372104Y-104904500D01*
X93372103Y-104904500D01*
X93107897Y-104904500D01*
X93107896Y-104904500D01*
X92845955Y-104938984D01*
X92590744Y-105007368D01*
X92346660Y-105108471D01*
X92346650Y-105108475D01*
X92117845Y-105240576D01*
X92045486Y-105296099D01*
X91980316Y-105321293D01*
X91911872Y-105307254D01*
X91894514Y-105296099D01*
X91822154Y-105240576D01*
X91593349Y-105108475D01*
X91593339Y-105108471D01*
X91349255Y-105007368D01*
X91094044Y-104938984D01*
X90832104Y-104904500D01*
X90832103Y-104904500D01*
X90567897Y-104904500D01*
X90567896Y-104904500D01*
X90305955Y-104938984D01*
X90050744Y-105007368D01*
X89806660Y-105108471D01*
X89806650Y-105108475D01*
X89577845Y-105240576D01*
X89505486Y-105296099D01*
X89440316Y-105321293D01*
X89371872Y-105307254D01*
X89354514Y-105296099D01*
X89282154Y-105240576D01*
X89053349Y-105108475D01*
X89053339Y-105108471D01*
X88809255Y-105007368D01*
X88554044Y-104938984D01*
X88292104Y-104904500D01*
X88292103Y-104904500D01*
X88027897Y-104904500D01*
X88027896Y-104904500D01*
X87765955Y-104938984D01*
X87510744Y-105007368D01*
X87266660Y-105108471D01*
X87266651Y-105108475D01*
X87037851Y-105240573D01*
X87037836Y-105240583D01*
X86828238Y-105401413D01*
X86828231Y-105401419D01*
X86641419Y-105588231D01*
X86641413Y-105588238D01*
X86480583Y-105797836D01*
X86480573Y-105797851D01*
X86348475Y-106026651D01*
X86348471Y-106026660D01*
X86247368Y-106270744D01*
X86178984Y-106525955D01*
X86144500Y-106787896D01*
X86144500Y-107052103D01*
X86177899Y-107305803D01*
X86178985Y-107314048D01*
X86198129Y-107385493D01*
X86247368Y-107569255D01*
X86348471Y-107813339D01*
X86348475Y-107813349D01*
X86480576Y-108042154D01*
X86536099Y-108114514D01*
X86561293Y-108179684D01*
X86547254Y-108248128D01*
X86536099Y-108265486D01*
X86480576Y-108337845D01*
X86348475Y-108566650D01*
X86348471Y-108566660D01*
X86247368Y-108810744D01*
X86178984Y-109065955D01*
X86144500Y-109327896D01*
X86144500Y-109592103D01*
X86178984Y-109854044D01*
X86247368Y-110109255D01*
X86348472Y-110353342D01*
X86348477Y-110353353D01*
X86371035Y-110392424D01*
X86387508Y-110460324D01*
X86365576Y-110525040D01*
X86302997Y-110615367D01*
X86302991Y-110615377D01*
X86209903Y-110820318D01*
X86209902Y-110820321D01*
X86154905Y-111038579D01*
X86154904Y-111038586D01*
X86144500Y-111170777D01*
X86144500Y-112829208D01*
X86144501Y-112829223D01*
X86154904Y-112961413D01*
X86154905Y-112961420D01*
X86209902Y-113179678D01*
X86209903Y-113179681D01*
X86302991Y-113384623D01*
X86315085Y-113402080D01*
X86320732Y-113410231D01*
X86322766Y-113414482D01*
X86344751Y-113444902D01*
X86345469Y-113445938D01*
X86431181Y-113569655D01*
X86437638Y-113576112D01*
X86450456Y-113591158D01*
X86454602Y-113596895D01*
X86454614Y-113596910D01*
X86779084Y-113970171D01*
X86808210Y-114033680D01*
X86809500Y-114051522D01*
X86809500Y-115292843D01*
X86789815Y-115359882D01*
X86773181Y-115380524D01*
X86243324Y-115910381D01*
X86182001Y-115943866D01*
X86155643Y-115946700D01*
X80366757Y-115946700D01*
X80299718Y-115927015D01*
X80279076Y-115910381D01*
X80050619Y-115681924D01*
X80017134Y-115620601D01*
X80014300Y-115594243D01*
X80014300Y-71166113D01*
X80010365Y-71141268D01*
X79981046Y-70956157D01*
X79915357Y-70753988D01*
X79818851Y-70564584D01*
X79818849Y-70564581D01*
X79818848Y-70564579D01*
X79693909Y-70392613D01*
X79536527Y-70235231D01*
X79536520Y-70235225D01*
X79370774Y-70069479D01*
X79370772Y-70069476D01*
X79286319Y-69985023D01*
X79252834Y-69923700D01*
X79250000Y-69897342D01*
X79250000Y-69534381D01*
X79250499Y-69523267D01*
X79251581Y-69511243D01*
X79255500Y-69467700D01*
X79255500Y-39124000D01*
X79254745Y-39080457D01*
X79250959Y-39050191D01*
X79250000Y-39034800D01*
X79250000Y-37500000D01*
X67624000Y-37500000D01*
X67556961Y-37480315D01*
X67511206Y-37427511D01*
X67500000Y-37376000D01*
X67500000Y-27174500D01*
X67519685Y-27107461D01*
X67572489Y-27061706D01*
X67624000Y-27050500D01*
X95620500Y-27050500D01*
X95687539Y-27070185D01*
G37*
%TD.AperFunction*%
%TD*%
%TA.AperFunction,Conductor*%
%TO.N,OUT+*%
G36*
X149482786Y-27070185D02*
G01*
X149528541Y-27122989D01*
X149538485Y-27192147D01*
X149509460Y-27255703D01*
X149468152Y-27286882D01*
X149443039Y-27298592D01*
X149443023Y-27298600D01*
X149106478Y-27492905D01*
X149106463Y-27492914D01*
X148788119Y-27715821D01*
X148490418Y-27965623D01*
X148215623Y-28240418D01*
X147965821Y-28538119D01*
X147742914Y-28856463D01*
X147742905Y-28856478D01*
X147548600Y-29193023D01*
X147548587Y-29193047D01*
X147384362Y-29545231D01*
X147251435Y-29910444D01*
X147150857Y-30285810D01*
X147150853Y-30285827D01*
X147083371Y-30668533D01*
X147083371Y-30668537D01*
X147049500Y-31055683D01*
X147049500Y-31444316D01*
X147083371Y-31831462D01*
X147083371Y-31831466D01*
X147118822Y-32032516D01*
X147150855Y-32214182D01*
X147153858Y-32225389D01*
X147251435Y-32589555D01*
X147251438Y-32589565D01*
X147251439Y-32589566D01*
X147347866Y-32854498D01*
X147384362Y-32954768D01*
X147548587Y-33306952D01*
X147548600Y-33306976D01*
X147742905Y-33643521D01*
X147742914Y-33643536D01*
X147965821Y-33961880D01*
X148156358Y-34188952D01*
X148215621Y-34259579D01*
X148490421Y-34534379D01*
X148596361Y-34623273D01*
X148788119Y-34784178D01*
X148788125Y-34784182D01*
X148788126Y-34784183D01*
X149106470Y-35007090D01*
X149421894Y-35189200D01*
X149443023Y-35201399D01*
X149443047Y-35201412D01*
X149795231Y-35365637D01*
X149795236Y-35365638D01*
X149795245Y-35365643D01*
X150160434Y-35498561D01*
X150160440Y-35498562D01*
X150160444Y-35498564D01*
X150262666Y-35525954D01*
X150535818Y-35599145D01*
X150918540Y-35666629D01*
X151305685Y-35700499D01*
X151305686Y-35700500D01*
X151305687Y-35700500D01*
X151694314Y-35700500D01*
X151694314Y-35700499D01*
X152081460Y-35666629D01*
X152464182Y-35599145D01*
X152839566Y-35498561D01*
X153204755Y-35365643D01*
X153204768Y-35365637D01*
X153556952Y-35201412D01*
X153556960Y-35201407D01*
X153556970Y-35201403D01*
X153893530Y-35007090D01*
X154211874Y-34784183D01*
X154509579Y-34534379D01*
X154784379Y-34259579D01*
X155034183Y-33961874D01*
X155257090Y-33643530D01*
X155451403Y-33306970D01*
X155451407Y-33306960D01*
X155451412Y-33306952D01*
X155615637Y-32954768D01*
X155615637Y-32954767D01*
X155615643Y-32954755D01*
X155748561Y-32589566D01*
X155849145Y-32214182D01*
X155916629Y-31831460D01*
X155950500Y-31444313D01*
X155950500Y-31055687D01*
X155934994Y-30878456D01*
X174395500Y-30878456D01*
X174395500Y-31121543D01*
X174395501Y-31121559D01*
X174427230Y-31362569D01*
X174490149Y-31597386D01*
X174583175Y-31821972D01*
X174583182Y-31821987D01*
X174704730Y-32032516D01*
X174852722Y-32225380D01*
X174852730Y-32225389D01*
X175024611Y-32397270D01*
X175024619Y-32397277D01*
X175217483Y-32545269D01*
X175428012Y-32666817D01*
X175428027Y-32666824D01*
X175544171Y-32714932D01*
X175652612Y-32759850D01*
X175887429Y-32822769D01*
X176128450Y-32854500D01*
X176128457Y-32854500D01*
X176371543Y-32854500D01*
X176371550Y-32854500D01*
X176612571Y-32822769D01*
X176847388Y-32759850D01*
X177071984Y-32666819D01*
X177282516Y-32545269D01*
X177475380Y-32397278D01*
X177475384Y-32397273D01*
X177475389Y-32397270D01*
X177647270Y-32225389D01*
X177647273Y-32225384D01*
X177647278Y-32225380D01*
X177795269Y-32032516D01*
X177916819Y-31821984D01*
X178009850Y-31597388D01*
X178072769Y-31362571D01*
X178104500Y-31121550D01*
X178104500Y-30878450D01*
X178072769Y-30637429D01*
X178009850Y-30402612D01*
X177916819Y-30178016D01*
X177819550Y-30009540D01*
X177795269Y-29967483D01*
X177647277Y-29774619D01*
X177647270Y-29774611D01*
X177475389Y-29602730D01*
X177475380Y-29602722D01*
X177282516Y-29454730D01*
X177071987Y-29333182D01*
X177071972Y-29333175D01*
X176847386Y-29240149D01*
X176612569Y-29177230D01*
X176371559Y-29145501D01*
X176371556Y-29145500D01*
X176371550Y-29145500D01*
X176128450Y-29145500D01*
X176128444Y-29145500D01*
X176128440Y-29145501D01*
X175887430Y-29177230D01*
X175652613Y-29240149D01*
X175428027Y-29333175D01*
X175428012Y-29333182D01*
X175217483Y-29454730D01*
X175024619Y-29602722D01*
X174852722Y-29774619D01*
X174704730Y-29967483D01*
X174583182Y-30178012D01*
X174583175Y-30178027D01*
X174490149Y-30402613D01*
X174427230Y-30637430D01*
X174395501Y-30878440D01*
X174395500Y-30878456D01*
X155934994Y-30878456D01*
X155916629Y-30668540D01*
X155911143Y-30637430D01*
X155869739Y-30402612D01*
X155849145Y-30285818D01*
X155748561Y-29910434D01*
X155615643Y-29545245D01*
X155615638Y-29545236D01*
X155615637Y-29545231D01*
X155451412Y-29193047D01*
X155451399Y-29193023D01*
X155423962Y-29145501D01*
X155257090Y-28856470D01*
X155034183Y-28538126D01*
X155034182Y-28538125D01*
X155034178Y-28538119D01*
X154784376Y-28240418D01*
X154509581Y-27965623D01*
X154211880Y-27715821D01*
X153893536Y-27492914D01*
X153893533Y-27492912D01*
X153893530Y-27492910D01*
X153793538Y-27435179D01*
X153556976Y-27298600D01*
X153556960Y-27298592D01*
X153531848Y-27286882D01*
X153479409Y-27240710D01*
X153460257Y-27173516D01*
X153480473Y-27106635D01*
X153533638Y-27061300D01*
X153584253Y-27050500D01*
X176824167Y-27050500D01*
X176891206Y-27070185D01*
X176911848Y-27086819D01*
X180163181Y-30338152D01*
X180196666Y-30399475D01*
X180199500Y-30425833D01*
X180199500Y-46454887D01*
X180179815Y-46521926D01*
X180127011Y-46567681D01*
X180057853Y-46577625D01*
X179994297Y-46548600D01*
X179987819Y-46542568D01*
X175990605Y-42545354D01*
X175957120Y-42484031D01*
X175962104Y-42414339D01*
X175983665Y-42377530D01*
X176002658Y-42355106D01*
X176128888Y-42143264D01*
X176192425Y-41980432D01*
X176218524Y-41913547D01*
X176218524Y-41913543D01*
X176218528Y-41913536D01*
X176269134Y-41672185D01*
X176275500Y-41569647D01*
X176275499Y-40930354D01*
X176269134Y-40827815D01*
X176269133Y-40827812D01*
X176245181Y-40713577D01*
X176218528Y-40586464D01*
X176218526Y-40586459D01*
X176218524Y-40586452D01*
X176141867Y-40389999D01*
X176141081Y-40380933D01*
X176136607Y-40373010D01*
X176138112Y-40346674D01*
X176135835Y-40320391D01*
X176140181Y-40310492D01*
X176140595Y-40303254D01*
X176157065Y-40272041D01*
X176208805Y-40200827D01*
X176220778Y-40184345D01*
X176227659Y-40175712D01*
X176254552Y-40144888D01*
X176403309Y-39974385D01*
X176416592Y-39961295D01*
X176442150Y-39939650D01*
X176602866Y-39749894D01*
X176730156Y-39536273D01*
X176804750Y-39345106D01*
X176820546Y-39304625D01*
X176820546Y-39304621D01*
X176820550Y-39304614D01*
X176871581Y-39061237D01*
X176878000Y-38957842D01*
X176878000Y-37542158D01*
X176871581Y-37438763D01*
X176820550Y-37195386D01*
X176820548Y-37195381D01*
X176820546Y-37195374D01*
X176730157Y-36963730D01*
X176730156Y-36963727D01*
X176602866Y-36750106D01*
X176602863Y-36750103D01*
X176602860Y-36750097D01*
X176442151Y-36560350D01*
X176442149Y-36560348D01*
X176252402Y-36399639D01*
X176252394Y-36399634D01*
X176038773Y-36272344D01*
X176038771Y-36272343D01*
X176038769Y-36272342D01*
X175807125Y-36181953D01*
X175807115Y-36181950D01*
X175563738Y-36130919D01*
X175563735Y-36130918D01*
X175460350Y-36124500D01*
X175460342Y-36124500D01*
X174669658Y-36124500D01*
X174669649Y-36124500D01*
X174566264Y-36130918D01*
X174566261Y-36130919D01*
X174322884Y-36181950D01*
X174322874Y-36181953D01*
X174091230Y-36272342D01*
X173877597Y-36399639D01*
X173687850Y-36560348D01*
X173687848Y-36560350D01*
X173527139Y-36750097D01*
X173399842Y-36963730D01*
X173309453Y-37195374D01*
X173309450Y-37195384D01*
X173258419Y-37438761D01*
X173258418Y-37438764D01*
X173252000Y-37542149D01*
X173252000Y-38957850D01*
X173258418Y-39061235D01*
X173258419Y-39061239D01*
X173300801Y-39263364D01*
X173298888Y-39287552D01*
X173301310Y-39311698D01*
X173295670Y-39328247D01*
X173295293Y-39333016D01*
X173289925Y-39345106D01*
X173233002Y-39456824D01*
X173185028Y-39507620D01*
X173121569Y-39523748D01*
X173121569Y-39524500D01*
X172380366Y-39524500D01*
X172380343Y-39524501D01*
X172277814Y-39530865D01*
X172036462Y-39581472D01*
X172036452Y-39581475D01*
X171806739Y-39671110D01*
X171806736Y-39671112D01*
X171594894Y-39797342D01*
X171594892Y-39797343D01*
X171594888Y-39797346D01*
X171406719Y-39956717D01*
X171406717Y-39956719D01*
X171247346Y-40144888D01*
X171247343Y-40144892D01*
X171247342Y-40144894D01*
X171171581Y-40272038D01*
X171121110Y-40356739D01*
X171031475Y-40586452D01*
X171031472Y-40586462D01*
X170980866Y-40827812D01*
X170980865Y-40827816D01*
X170974500Y-40930344D01*
X170974500Y-41569633D01*
X170974501Y-41569656D01*
X170980865Y-41672185D01*
X171031472Y-41913537D01*
X171031475Y-41913547D01*
X171096448Y-42080056D01*
X171121112Y-42143264D01*
X171247342Y-42355106D01*
X171247344Y-42355108D01*
X171247346Y-42355111D01*
X171406717Y-42543280D01*
X171406719Y-42543282D01*
X171593056Y-42701101D01*
X171594894Y-42702658D01*
X171806736Y-42828888D01*
X171806739Y-42828889D01*
X172036452Y-42918524D01*
X172036459Y-42918526D01*
X172036464Y-42918528D01*
X172246316Y-42962529D01*
X172269936Y-42970011D01*
X172409709Y-43030235D01*
X172695862Y-43153529D01*
X172734476Y-43179727D01*
X178420181Y-48865432D01*
X178434884Y-48892359D01*
X178451477Y-48918178D01*
X178452368Y-48924378D01*
X178453666Y-48926755D01*
X178456500Y-48953113D01*
X178456500Y-48961218D01*
X178450740Y-48998571D01*
X178344503Y-49334856D01*
X178325922Y-49399687D01*
X178325608Y-49400905D01*
X178324526Y-49406005D01*
X178319679Y-49420924D01*
X178314726Y-49452188D01*
X178314056Y-49455350D01*
X178303106Y-49506960D01*
X178300750Y-49537838D01*
X178299582Y-49547800D01*
X178281500Y-49661967D01*
X178281500Y-49906026D01*
X178319678Y-50147072D01*
X178395097Y-50379187D01*
X178505896Y-50596642D01*
X178649339Y-50794076D01*
X178649343Y-50794081D01*
X178821918Y-50966656D01*
X178821923Y-50966660D01*
X178994136Y-51091779D01*
X179019361Y-51110106D01*
X179236815Y-51220904D01*
X179468924Y-51296321D01*
X179709973Y-51334500D01*
X179709974Y-51334500D01*
X179954025Y-51334500D01*
X179954027Y-51334500D01*
X180056103Y-51318332D01*
X180125395Y-51327286D01*
X180178847Y-51372282D01*
X180199487Y-51439033D01*
X180199500Y-51440805D01*
X180199500Y-66740242D01*
X180179815Y-66807281D01*
X180127011Y-66853036D01*
X180057853Y-66862980D01*
X179994297Y-66833955D01*
X179987819Y-66827923D01*
X176755195Y-63595300D01*
X176728902Y-63556465D01*
X176626435Y-63317375D01*
X176510525Y-63046916D01*
X176500499Y-62998070D01*
X176500499Y-62935791D01*
X176500498Y-62935776D01*
X176500253Y-62932660D01*
X176490096Y-62803588D01*
X176435096Y-62585317D01*
X176342007Y-62380374D01*
X176213819Y-62195346D01*
X176054654Y-62036181D01*
X176054650Y-62036178D01*
X176054645Y-62036174D01*
X175869632Y-61907997D01*
X175869630Y-61907995D01*
X175869626Y-61907993D01*
X175664683Y-61814904D01*
X175664681Y-61814903D01*
X175664678Y-61814902D01*
X175446420Y-61759905D01*
X175446413Y-61759904D01*
X175314222Y-61749500D01*
X175314217Y-61749500D01*
X174745112Y-61749500D01*
X174678073Y-61729815D01*
X174632318Y-61677011D01*
X174622374Y-61607853D01*
X174651399Y-61544297D01*
X174657431Y-61537819D01*
X175040438Y-61154812D01*
X175799173Y-60396078D01*
X175914256Y-60237679D01*
X175926433Y-60220919D01*
X176024726Y-60028009D01*
X176041133Y-59977511D01*
X176091631Y-59822097D01*
X176110105Y-59705454D01*
X176125500Y-59608258D01*
X176125500Y-58229598D01*
X176140117Y-58171191D01*
X176309692Y-57853615D01*
X176315394Y-57840909D01*
X176328888Y-57818264D01*
X176351062Y-57761436D01*
X176380161Y-57696600D01*
X176386918Y-57671547D01*
X176391112Y-57658793D01*
X176418528Y-57588536D01*
X176469134Y-57347185D01*
X176475500Y-57244647D01*
X176475499Y-56580354D01*
X176469134Y-56477815D01*
X176469133Y-56477812D01*
X176455707Y-56413781D01*
X176418528Y-56236464D01*
X176418526Y-56236459D01*
X176418524Y-56236452D01*
X176328889Y-56006739D01*
X176328888Y-56006736D01*
X176202658Y-55794894D01*
X176202653Y-55794888D01*
X176043282Y-55606719D01*
X176043280Y-55606717D01*
X175855111Y-55447345D01*
X175855103Y-55447340D01*
X175785528Y-55405881D01*
X175785528Y-55405882D01*
X175697639Y-55353512D01*
X175643264Y-55321112D01*
X175643259Y-55321110D01*
X175643255Y-55321108D01*
X175413547Y-55231475D01*
X175413537Y-55231472D01*
X175172187Y-55180866D01*
X175172183Y-55180865D01*
X175069655Y-55174500D01*
X174430366Y-55174500D01*
X174430343Y-55174501D01*
X174327814Y-55180865D01*
X174086462Y-55231472D01*
X174086452Y-55231475D01*
X173856744Y-55321108D01*
X173856734Y-55321113D01*
X173714477Y-55405878D01*
X173714477Y-55405879D01*
X173644891Y-55447343D01*
X173644888Y-55447345D01*
X173456719Y-55606717D01*
X173456717Y-55606719D01*
X173297346Y-55794888D01*
X173171110Y-56006739D01*
X173081475Y-56236452D01*
X173081472Y-56236462D01*
X173030866Y-56477812D01*
X173030865Y-56477816D01*
X173024500Y-56580344D01*
X173024500Y-57244633D01*
X173024501Y-57244656D01*
X173030865Y-57347185D01*
X173081471Y-57588533D01*
X173081472Y-57588536D01*
X173100440Y-57637148D01*
X173102512Y-57646361D01*
X173121820Y-57691944D01*
X173122472Y-57693614D01*
X173171111Y-57818262D01*
X173181365Y-57835472D01*
X173189010Y-57850557D01*
X173190301Y-57853605D01*
X173190306Y-57853615D01*
X173190307Y-57853617D01*
X173262539Y-57988892D01*
X173359883Y-58171194D01*
X173374500Y-58229601D01*
X173374500Y-58878886D01*
X173354815Y-58945925D01*
X173338181Y-58966567D01*
X172109170Y-60195577D01*
X172078685Y-60217917D01*
X171765743Y-60380605D01*
X171706012Y-60413750D01*
X171704959Y-60414373D01*
X171701023Y-60416932D01*
X171687361Y-60423894D01*
X171662124Y-60442228D01*
X171659430Y-60443981D01*
X171659428Y-60443981D01*
X171614974Y-60472892D01*
X171614968Y-60472896D01*
X171591440Y-60493083D01*
X171583586Y-60499289D01*
X171489917Y-60567344D01*
X171317343Y-60739918D01*
X171317339Y-60739923D01*
X171173896Y-60937357D01*
X171063097Y-61154812D01*
X170987678Y-61386927D01*
X170963779Y-61537819D01*
X170949500Y-61627973D01*
X170949500Y-61872027D01*
X170987679Y-62113076D01*
X171014410Y-62195346D01*
X171063097Y-62345187D01*
X171173896Y-62562642D01*
X171317339Y-62760076D01*
X171317343Y-62760081D01*
X171489918Y-62932656D01*
X171489923Y-62932660D01*
X171579953Y-62998070D01*
X171687361Y-63076106D01*
X171904815Y-63186904D01*
X172136924Y-63262321D01*
X172377973Y-63300500D01*
X172377974Y-63300500D01*
X172622026Y-63300500D01*
X172622027Y-63300500D01*
X172856104Y-63263425D01*
X172925395Y-63272379D01*
X172978847Y-63317375D01*
X172999487Y-63384127D01*
X172999500Y-63385898D01*
X172999500Y-64064208D01*
X172999501Y-64064223D01*
X173009904Y-64196413D01*
X173009905Y-64196420D01*
X173064902Y-64414678D01*
X173064903Y-64414681D01*
X173157991Y-64619622D01*
X173157997Y-64619632D01*
X173286174Y-64804645D01*
X173286178Y-64804650D01*
X173286181Y-64804654D01*
X173445346Y-64963819D01*
X173445350Y-64963822D01*
X173445354Y-64963825D01*
X173448846Y-64966244D01*
X173630374Y-65092007D01*
X173835317Y-65185096D01*
X173835321Y-65185097D01*
X174053579Y-65240094D01*
X174053581Y-65240094D01*
X174053588Y-65240096D01*
X174185783Y-65250500D01*
X174248071Y-65250499D01*
X174296918Y-65260525D01*
X174806466Y-65478902D01*
X174845300Y-65505195D01*
X178712181Y-69372076D01*
X178745666Y-69433399D01*
X178748500Y-69459757D01*
X178748500Y-70126000D01*
X178728815Y-70193039D01*
X178676011Y-70238794D01*
X178624500Y-70250000D01*
X176749973Y-70250000D01*
X176682934Y-70230315D01*
X176667204Y-70218333D01*
X176638987Y-70193039D01*
X176576808Y-70137300D01*
X176558432Y-70126000D01*
X176385075Y-70019400D01*
X176385068Y-70019397D01*
X176175374Y-69937631D01*
X176175370Y-69937630D01*
X176175368Y-69937629D01*
X176148526Y-69929851D01*
X176108255Y-69918182D01*
X175978612Y-69887965D01*
X175754350Y-69868588D01*
X166010131Y-69903388D01*
X165943022Y-69883943D01*
X165897078Y-69831303D01*
X165886160Y-69768584D01*
X165900500Y-69604688D01*
X165900500Y-69211696D01*
X165866249Y-68820199D01*
X165798007Y-68433177D01*
X165696293Y-68053576D01*
X165561881Y-67684284D01*
X165561876Y-67684275D01*
X165561875Y-67684270D01*
X165395804Y-67328129D01*
X165395792Y-67328105D01*
X165383455Y-67306738D01*
X165199300Y-66987771D01*
X164973889Y-66665851D01*
X164973888Y-66665850D01*
X164973884Y-66665844D01*
X164723043Y-66366905D01*
X164721278Y-66364801D01*
X164443391Y-66086914D01*
X164371971Y-66026985D01*
X164142347Y-65834307D01*
X163945203Y-65696265D01*
X163901578Y-65641688D01*
X163894386Y-65572189D01*
X163925908Y-65509835D01*
X163945198Y-65493119D01*
X164132341Y-65362081D01*
X164433391Y-65109470D01*
X164711278Y-64831583D01*
X164963889Y-64530533D01*
X165189300Y-64208613D01*
X165385796Y-63868272D01*
X165551881Y-63512100D01*
X165686293Y-63142808D01*
X165788007Y-62763207D01*
X165856249Y-62376185D01*
X165890500Y-61984688D01*
X165890500Y-61591696D01*
X165856249Y-61200199D01*
X165788007Y-60813177D01*
X165686293Y-60433576D01*
X165551881Y-60064284D01*
X165551876Y-60064275D01*
X165551875Y-60064270D01*
X165385804Y-59708129D01*
X165385792Y-59708105D01*
X165328142Y-59608253D01*
X165189300Y-59367771D01*
X164963889Y-59045851D01*
X164963888Y-59045850D01*
X164963884Y-59045844D01*
X164713043Y-58746905D01*
X164711278Y-58744801D01*
X164433391Y-58466914D01*
X164361971Y-58406985D01*
X164132347Y-58214307D01*
X163810427Y-57988896D01*
X163810424Y-57988894D01*
X163810421Y-57988892D01*
X163576118Y-57853617D01*
X163470086Y-57792399D01*
X163470062Y-57792387D01*
X163113921Y-57626316D01*
X163113910Y-57626312D01*
X163113908Y-57626311D01*
X162744616Y-57491899D01*
X162503960Y-57427415D01*
X162365016Y-57390185D01*
X162365005Y-57390183D01*
X161977997Y-57321943D01*
X161586500Y-57287692D01*
X161586496Y-57287692D01*
X161193504Y-57287692D01*
X161193499Y-57287692D01*
X160802004Y-57321943D01*
X160802000Y-57321943D01*
X160414994Y-57390183D01*
X160414983Y-57390185D01*
X160211555Y-57444694D01*
X160035384Y-57491899D01*
X160035381Y-57491900D01*
X160035380Y-57491900D01*
X159666078Y-57626316D01*
X159309937Y-57792387D01*
X159309913Y-57792399D01*
X158969587Y-57988887D01*
X158969572Y-57988896D01*
X158647652Y-58214307D01*
X158346606Y-58466916D01*
X158068724Y-58744798D01*
X157816115Y-59045844D01*
X157590704Y-59367764D01*
X157590695Y-59367779D01*
X157394207Y-59708105D01*
X157394195Y-59708129D01*
X157228124Y-60064270D01*
X157100696Y-60414375D01*
X157093707Y-60433576D01*
X157057864Y-60567344D01*
X156991993Y-60813175D01*
X156991991Y-60813186D01*
X156923751Y-61200192D01*
X156923751Y-61200196D01*
X156889500Y-61591691D01*
X156889500Y-61984692D01*
X156923751Y-62376187D01*
X156923751Y-62376191D01*
X156991991Y-62763197D01*
X156991993Y-62763208D01*
X157002813Y-62803588D01*
X157093707Y-63142808D01*
X157181540Y-63384127D01*
X157228124Y-63512113D01*
X157394195Y-63868254D01*
X157394204Y-63868272D01*
X157583660Y-64196420D01*
X157590695Y-64208604D01*
X157590704Y-64208619D01*
X157816115Y-64530539D01*
X158008793Y-64760163D01*
X158068722Y-64831583D01*
X158346609Y-65109470D01*
X158365596Y-65125402D01*
X158647652Y-65362076D01*
X158647658Y-65362080D01*
X158647659Y-65362081D01*
X158719075Y-65412087D01*
X158844796Y-65500118D01*
X158888420Y-65554695D01*
X158895613Y-65624194D01*
X158864091Y-65686548D01*
X158844796Y-65703268D01*
X158657652Y-65834307D01*
X158356606Y-66086916D01*
X158078724Y-66364798D01*
X157826115Y-66665844D01*
X157600704Y-66987764D01*
X157600695Y-66987779D01*
X157404207Y-67328105D01*
X157404195Y-67328129D01*
X157238124Y-67684270D01*
X157134415Y-67969208D01*
X157103707Y-68053576D01*
X157056502Y-68229747D01*
X157001993Y-68433175D01*
X157001991Y-68433186D01*
X156933751Y-68820192D01*
X156933751Y-68820196D01*
X156899500Y-69211691D01*
X156899500Y-69604692D01*
X156916718Y-69801499D01*
X156902951Y-69869999D01*
X156854336Y-69920182D01*
X156793633Y-69936305D01*
X151611334Y-69954814D01*
X151544225Y-69935369D01*
X151498281Y-69882729D01*
X151486891Y-69830815D01*
X151486891Y-66717378D01*
X151486890Y-66717370D01*
X151476488Y-66585175D01*
X151421488Y-66366904D01*
X151328399Y-66161961D01*
X151200211Y-65976933D01*
X151041046Y-65817768D01*
X151041042Y-65817765D01*
X151041037Y-65817761D01*
X150856024Y-65689584D01*
X150856022Y-65689582D01*
X150856018Y-65689580D01*
X150849343Y-65686548D01*
X150651077Y-65596491D01*
X150640670Y-65593869D01*
X150632570Y-65591828D01*
X150572374Y-65556360D01*
X150540908Y-65493977D01*
X150548164Y-65424485D01*
X150591839Y-65369948D01*
X150632570Y-65351345D01*
X150651075Y-65346683D01*
X150856018Y-65253594D01*
X151041046Y-65125406D01*
X151200211Y-64966241D01*
X151328399Y-64781213D01*
X151421488Y-64576270D01*
X151476488Y-64357999D01*
X151486892Y-64225804D01*
X151486891Y-59097371D01*
X151476488Y-58965175D01*
X151471637Y-58945925D01*
X151421489Y-58746908D01*
X151421488Y-58746905D01*
X151420532Y-58744801D01*
X151328399Y-58541961D01*
X151200211Y-58356933D01*
X151041046Y-58197768D01*
X151041042Y-58197765D01*
X151041037Y-58197761D01*
X150856024Y-58069584D01*
X150856022Y-58069582D01*
X150856018Y-58069580D01*
X150651075Y-57976491D01*
X150651073Y-57976490D01*
X150651070Y-57976489D01*
X150432812Y-57921492D01*
X150432805Y-57921491D01*
X150388739Y-57918023D01*
X150300609Y-57911087D01*
X150300607Y-57911087D01*
X143672183Y-57911087D01*
X143672168Y-57911088D01*
X143539978Y-57921491D01*
X143539971Y-57921492D01*
X143321713Y-57976489D01*
X143321710Y-57976490D01*
X143116769Y-58069578D01*
X143116759Y-58069584D01*
X142931746Y-58197761D01*
X142931734Y-58197771D01*
X142772576Y-58356929D01*
X142772566Y-58356941D01*
X142644389Y-58541954D01*
X142644383Y-58541964D01*
X142551295Y-58746905D01*
X142551294Y-58746908D01*
X142496297Y-58965166D01*
X142496296Y-58965173D01*
X142485892Y-59097364D01*
X142485892Y-64225795D01*
X142485893Y-64225810D01*
X142496296Y-64358000D01*
X142496297Y-64358007D01*
X142551294Y-64576265D01*
X142551295Y-64576268D01*
X142644383Y-64781209D01*
X142644389Y-64781219D01*
X142772566Y-64966232D01*
X142772570Y-64966237D01*
X142772573Y-64966241D01*
X142931738Y-65125406D01*
X142931742Y-65125409D01*
X142931746Y-65125412D01*
X143070995Y-65221884D01*
X143116766Y-65253594D01*
X143321709Y-65346683D01*
X143321710Y-65346683D01*
X143321711Y-65346684D01*
X143340212Y-65351346D01*
X143400410Y-65386815D01*
X143431875Y-65449198D01*
X143424618Y-65518690D01*
X143380943Y-65573227D01*
X143340212Y-65591828D01*
X143321711Y-65596489D01*
X143321710Y-65596490D01*
X143116769Y-65689578D01*
X143116759Y-65689584D01*
X142931746Y-65817761D01*
X142931734Y-65817771D01*
X142772576Y-65976929D01*
X142772566Y-65976941D01*
X142644389Y-66161954D01*
X142644383Y-66161964D01*
X142551295Y-66366905D01*
X142551294Y-66366908D01*
X142496297Y-66585166D01*
X142496296Y-66585173D01*
X142485892Y-66717364D01*
X142485892Y-69863963D01*
X142466207Y-69931002D01*
X142413403Y-69976757D01*
X142359749Y-69987281D01*
X142359752Y-69987856D01*
X115369077Y-70084250D01*
X115327753Y-70085078D01*
X115327746Y-70085079D01*
X115104458Y-70113419D01*
X115053405Y-70124622D01*
X115053396Y-70124624D01*
X114886140Y-70173713D01*
X114886136Y-70173715D01*
X114751369Y-70237939D01*
X114698027Y-70250000D01*
X114500000Y-70250000D01*
X114500000Y-70345746D01*
X114480315Y-70412785D01*
X114457206Y-70439455D01*
X114447507Y-70447860D01*
X114437764Y-70456583D01*
X114416981Y-70475194D01*
X114266152Y-70642248D01*
X114266147Y-70642253D01*
X114147561Y-70833567D01*
X114065045Y-71042972D01*
X114045358Y-71110017D01*
X114014676Y-71239562D01*
X113994500Y-71463745D01*
X113994500Y-102101927D01*
X113995588Y-102154177D01*
X113996019Y-102164530D01*
X114017376Y-102348588D01*
X114017377Y-102348592D01*
X114079382Y-102564925D01*
X114079395Y-102564963D01*
X114104583Y-102630118D01*
X114104585Y-102630122D01*
X114159102Y-102751570D01*
X114159107Y-102751579D01*
X114273956Y-102932851D01*
X114293207Y-103000016D01*
X114288985Y-103031307D01*
X114268987Y-103105944D01*
X114268983Y-103105962D01*
X114234500Y-103367896D01*
X114234500Y-103632103D01*
X114268983Y-103894037D01*
X114268984Y-103894042D01*
X114268985Y-103894048D01*
X114268987Y-103894054D01*
X114295343Y-103992420D01*
X114293680Y-104062269D01*
X114286034Y-104080843D01*
X114213000Y-104224063D01*
X114212995Y-104224076D01*
X114148196Y-104439608D01*
X114148188Y-104439638D01*
X114134159Y-104508037D01*
X114126575Y-104548341D01*
X114126575Y-104548342D01*
X114108612Y-104772694D01*
X114108613Y-104772702D01*
X114131000Y-104996672D01*
X114131000Y-104996674D01*
X114193006Y-105213009D01*
X114193019Y-105213047D01*
X114218205Y-105278196D01*
X114272730Y-105399658D01*
X114272731Y-105399661D01*
X114279842Y-105410884D01*
X114299093Y-105478049D01*
X114294871Y-105509341D01*
X114268985Y-105605947D01*
X114234500Y-105867896D01*
X114234500Y-106132103D01*
X114268983Y-106394037D01*
X114268984Y-106394042D01*
X114268985Y-106394048D01*
X114268987Y-106394054D01*
X114295343Y-106492420D01*
X114293680Y-106562269D01*
X114286034Y-106580843D01*
X114213000Y-106724063D01*
X114212995Y-106724076D01*
X114148196Y-106939608D01*
X114148188Y-106939638D01*
X114134159Y-107008037D01*
X114126575Y-107048341D01*
X114126575Y-107048342D01*
X114108612Y-107272694D01*
X114108613Y-107272702D01*
X114131000Y-107496672D01*
X114131000Y-107496674D01*
X114193006Y-107713009D01*
X114193019Y-107713047D01*
X114218205Y-107778196D01*
X114272730Y-107899658D01*
X114272731Y-107899661D01*
X114279842Y-107910884D01*
X114299093Y-107978049D01*
X114294871Y-108009341D01*
X114268985Y-108105947D01*
X114234500Y-108367896D01*
X114234500Y-108632103D01*
X114268983Y-108894037D01*
X114268984Y-108894042D01*
X114268985Y-108894048D01*
X114268987Y-108894054D01*
X114295343Y-108992420D01*
X114293680Y-109062269D01*
X114286034Y-109080843D01*
X114213000Y-109224063D01*
X114212995Y-109224076D01*
X114148196Y-109439608D01*
X114148188Y-109439638D01*
X114134159Y-109508037D01*
X114126575Y-109548341D01*
X114126575Y-109548342D01*
X114108612Y-109772694D01*
X114108613Y-109772702D01*
X114131000Y-109996672D01*
X114131000Y-109996674D01*
X114193006Y-110213009D01*
X114193019Y-110213047D01*
X114218205Y-110278196D01*
X114272730Y-110399658D01*
X114272731Y-110399661D01*
X114279842Y-110410884D01*
X114299093Y-110478049D01*
X114294871Y-110509341D01*
X114268985Y-110605947D01*
X114234500Y-110867896D01*
X114234500Y-111132103D01*
X114268983Y-111394037D01*
X114268984Y-111394042D01*
X114268985Y-111394048D01*
X114268987Y-111394054D01*
X114295343Y-111492420D01*
X114293680Y-111562269D01*
X114286034Y-111580843D01*
X114213000Y-111724063D01*
X114212995Y-111724076D01*
X114148196Y-111939608D01*
X114148188Y-111939638D01*
X114134159Y-112008037D01*
X114126575Y-112048341D01*
X114126575Y-112048342D01*
X114108612Y-112272694D01*
X114108613Y-112272702D01*
X114131000Y-112496672D01*
X114131000Y-112496674D01*
X114193006Y-112713009D01*
X114193019Y-112713047D01*
X114218205Y-112778196D01*
X114272730Y-112899658D01*
X114272731Y-112899661D01*
X114279842Y-112910884D01*
X114299093Y-112978049D01*
X114294871Y-113009341D01*
X114268985Y-113105947D01*
X114234500Y-113367896D01*
X114234500Y-113632103D01*
X114268983Y-113894037D01*
X114268984Y-113894042D01*
X114268985Y-113894048D01*
X114268987Y-113894054D01*
X114288648Y-113967433D01*
X114286985Y-114037282D01*
X114268802Y-114072942D01*
X114248594Y-114100446D01*
X114242634Y-114108924D01*
X114147562Y-114267901D01*
X114147560Y-114267905D01*
X114065045Y-114477306D01*
X114045358Y-114544351D01*
X114014676Y-114673896D01*
X113994500Y-114898079D01*
X113994500Y-115322500D01*
X113974815Y-115389539D01*
X113922011Y-115435294D01*
X113870500Y-115446500D01*
X108807758Y-115446500D01*
X108740719Y-115426815D01*
X108720077Y-115410181D01*
X107120923Y-113811027D01*
X107087438Y-113749704D01*
X107092422Y-113680012D01*
X107133116Y-113624972D01*
X107271763Y-113518585D01*
X107458585Y-113331763D01*
X107619423Y-113122155D01*
X107751526Y-112893346D01*
X107852633Y-112649251D01*
X107921015Y-112394048D01*
X107955500Y-112132103D01*
X107955500Y-111867897D01*
X107921015Y-111605952D01*
X107852633Y-111350749D01*
X107751526Y-111106654D01*
X107619423Y-110877845D01*
X107563899Y-110805485D01*
X107538706Y-110740317D01*
X107552744Y-110671873D01*
X107563900Y-110654513D01*
X107567747Y-110649500D01*
X107619423Y-110582155D01*
X107751526Y-110353346D01*
X107852633Y-110109251D01*
X107921015Y-109854048D01*
X107955500Y-109592103D01*
X107955500Y-109327897D01*
X107921015Y-109065952D01*
X107852633Y-108810749D01*
X107751526Y-108566654D01*
X107619423Y-108337845D01*
X107563899Y-108265485D01*
X107538706Y-108200317D01*
X107552744Y-108131873D01*
X107563900Y-108114513D01*
X107619423Y-108042155D01*
X107751526Y-107813346D01*
X107852633Y-107569251D01*
X107921015Y-107314048D01*
X107955500Y-107052103D01*
X107955500Y-106787897D01*
X107921015Y-106525952D01*
X107852633Y-106270749D01*
X107751526Y-106026654D01*
X107619423Y-105797845D01*
X107472178Y-105605952D01*
X107458586Y-105588238D01*
X107458580Y-105588231D01*
X107271768Y-105401419D01*
X107271761Y-105401413D01*
X107062163Y-105240583D01*
X107062161Y-105240582D01*
X107062155Y-105240577D01*
X106994700Y-105201632D01*
X106833348Y-105108475D01*
X106833339Y-105108471D01*
X106589255Y-105007368D01*
X106334044Y-104938984D01*
X106072104Y-104904500D01*
X106072103Y-104904500D01*
X105807897Y-104904500D01*
X105807896Y-104904500D01*
X105545955Y-104938984D01*
X105290744Y-105007368D01*
X105046660Y-105108471D01*
X105046650Y-105108475D01*
X104817845Y-105240576D01*
X104745486Y-105296099D01*
X104680316Y-105321293D01*
X104611872Y-105307254D01*
X104594514Y-105296099D01*
X104522154Y-105240576D01*
X104293349Y-105108475D01*
X104293339Y-105108471D01*
X104049255Y-105007368D01*
X103794044Y-104938984D01*
X103532104Y-104904500D01*
X103532103Y-104904500D01*
X103267897Y-104904500D01*
X103267896Y-104904500D01*
X103005955Y-104938984D01*
X102750744Y-105007368D01*
X102506660Y-105108471D01*
X102506650Y-105108475D01*
X102277845Y-105240576D01*
X102205486Y-105296099D01*
X102140316Y-105321293D01*
X102071872Y-105307254D01*
X102054514Y-105296099D01*
X101982154Y-105240576D01*
X101753349Y-105108475D01*
X101753339Y-105108471D01*
X101509255Y-105007368D01*
X101254044Y-104938984D01*
X100992104Y-104904500D01*
X100992103Y-104904500D01*
X100727897Y-104904500D01*
X100727896Y-104904500D01*
X100465955Y-104938984D01*
X100210744Y-105007368D01*
X99966660Y-105108471D01*
X99966650Y-105108475D01*
X99737845Y-105240576D01*
X99665486Y-105296099D01*
X99600316Y-105321293D01*
X99531872Y-105307254D01*
X99514514Y-105296099D01*
X99442154Y-105240576D01*
X99213349Y-105108475D01*
X99213339Y-105108471D01*
X98969255Y-105007368D01*
X98714044Y-104938984D01*
X98452104Y-104904500D01*
X98452103Y-104904500D01*
X98187897Y-104904500D01*
X98187896Y-104904500D01*
X97925955Y-104938984D01*
X97670744Y-105007368D01*
X97426660Y-105108471D01*
X97426650Y-105108475D01*
X97197843Y-105240577D01*
X97194471Y-105242831D01*
X97193638Y-105241585D01*
X97134287Y-105264514D01*
X97065846Y-105250459D01*
X97015868Y-105201632D01*
X97000000Y-105140941D01*
X97000000Y-96749381D01*
X97019685Y-96682342D01*
X97020863Y-96680542D01*
X97152447Y-96483614D01*
X97314578Y-96180289D01*
X97446197Y-95862532D01*
X97546037Y-95533405D01*
X97613136Y-95196077D01*
X97646847Y-94853796D01*
X97646847Y-94696221D01*
X104589455Y-94696221D01*
X104589455Y-95040152D01*
X104623165Y-95382436D01*
X104690263Y-95719759D01*
X104790105Y-96048893D01*
X104921725Y-96366651D01*
X104921727Y-96366656D01*
X105083848Y-96669962D01*
X105083859Y-96669980D01*
X105274930Y-96955938D01*
X105274940Y-96955952D01*
X105493131Y-97221819D01*
X105736322Y-97465010D01*
X105736327Y-97465014D01*
X105736328Y-97465015D01*
X106002195Y-97683206D01*
X106288168Y-97874287D01*
X106288177Y-97874292D01*
X106288179Y-97874293D01*
X106591485Y-98036414D01*
X106591487Y-98036414D01*
X106591493Y-98036418D01*
X106909250Y-98168037D01*
X107238377Y-98267877D01*
X107575705Y-98334976D01*
X107917986Y-98368687D01*
X107917989Y-98368687D01*
X108261921Y-98368687D01*
X108261924Y-98368687D01*
X108604205Y-98334976D01*
X108941533Y-98267877D01*
X109270660Y-98168037D01*
X109588417Y-98036418D01*
X109891742Y-97874287D01*
X110177715Y-97683206D01*
X110443582Y-97465015D01*
X110686783Y-97221814D01*
X110904974Y-96955947D01*
X111096055Y-96669974D01*
X111258186Y-96366649D01*
X111389805Y-96048892D01*
X111489645Y-95719765D01*
X111556744Y-95382437D01*
X111590455Y-95040156D01*
X111590455Y-94696218D01*
X111556744Y-94353937D01*
X111489645Y-94016609D01*
X111389805Y-93687482D01*
X111258186Y-93369725D01*
X111096055Y-93066400D01*
X110904974Y-92780427D01*
X110686783Y-92514560D01*
X110686782Y-92514559D01*
X110686778Y-92514554D01*
X110443587Y-92271363D01*
X110177720Y-92053172D01*
X110177719Y-92053171D01*
X110177715Y-92053168D01*
X109891742Y-91862087D01*
X109891737Y-91862084D01*
X109891730Y-91862080D01*
X109588424Y-91699959D01*
X109588419Y-91699957D01*
X109270661Y-91568337D01*
X108941527Y-91468495D01*
X108604203Y-91401397D01*
X108604204Y-91401397D01*
X108346411Y-91376008D01*
X108261924Y-91367687D01*
X107917986Y-91367687D01*
X107839921Y-91375375D01*
X107575705Y-91401397D01*
X107238382Y-91468495D01*
X106909248Y-91568337D01*
X106591490Y-91699957D01*
X106591485Y-91699959D01*
X106288179Y-91862080D01*
X106288161Y-91862091D01*
X106002203Y-92053162D01*
X106002189Y-92053172D01*
X105736322Y-92271363D01*
X105493131Y-92514554D01*
X105274940Y-92780421D01*
X105274930Y-92780435D01*
X105083859Y-93066393D01*
X105083848Y-93066411D01*
X104921727Y-93369717D01*
X104921725Y-93369722D01*
X104790105Y-93687480D01*
X104690263Y-94016614D01*
X104623165Y-94353937D01*
X104589455Y-94696221D01*
X97646847Y-94696221D01*
X97646847Y-94509858D01*
X97613136Y-94167577D01*
X97546037Y-93830249D01*
X97446197Y-93501122D01*
X97314578Y-93183365D01*
X97152447Y-92880040D01*
X97152436Y-92880023D01*
X97020898Y-92683161D01*
X97000020Y-92616484D01*
X97000000Y-92614271D01*
X97000000Y-54788345D01*
X173775000Y-54788345D01*
X173775000Y-54837500D01*
X174500000Y-54837500D01*
X175000000Y-54837500D01*
X175724999Y-54837500D01*
X175724999Y-54788360D01*
X175724998Y-54788345D01*
X175714680Y-54687347D01*
X175660453Y-54523699D01*
X175660448Y-54523688D01*
X175569947Y-54376965D01*
X175569944Y-54376961D01*
X175448038Y-54255055D01*
X175448034Y-54255052D01*
X175301311Y-54164551D01*
X175301300Y-54164546D01*
X175137652Y-54110319D01*
X175036654Y-54100000D01*
X175000000Y-54100000D01*
X175000000Y-54837500D01*
X174500000Y-54837500D01*
X174500000Y-54100000D01*
X174463361Y-54100000D01*
X174463343Y-54100001D01*
X174362347Y-54110319D01*
X174198699Y-54164546D01*
X174198688Y-54164551D01*
X174051965Y-54255052D01*
X174051961Y-54255055D01*
X173930055Y-54376961D01*
X173930052Y-54376965D01*
X173839551Y-54523688D01*
X173839546Y-54523699D01*
X173785319Y-54687347D01*
X173775000Y-54788345D01*
X97000000Y-54788345D01*
X97000000Y-45949429D01*
X97019685Y-45882390D01*
X97020851Y-45880608D01*
X97152492Y-45683595D01*
X97314623Y-45380270D01*
X97446242Y-45062513D01*
X97546082Y-44733386D01*
X97613181Y-44396058D01*
X97646892Y-44053777D01*
X97646892Y-43896199D01*
X104589500Y-43896199D01*
X104589500Y-44240137D01*
X104594409Y-44289978D01*
X104623210Y-44582417D01*
X104690308Y-44919740D01*
X104790150Y-45248874D01*
X104921770Y-45566632D01*
X104921772Y-45566637D01*
X105083893Y-45869943D01*
X105083904Y-45869961D01*
X105274975Y-46155919D01*
X105274985Y-46155933D01*
X105493176Y-46421800D01*
X105736367Y-46664991D01*
X105736372Y-46664995D01*
X105736373Y-46664996D01*
X106002240Y-46883187D01*
X106288213Y-47074268D01*
X106288222Y-47074273D01*
X106288224Y-47074274D01*
X106591530Y-47236395D01*
X106591532Y-47236395D01*
X106591538Y-47236399D01*
X106909295Y-47368018D01*
X107238422Y-47467858D01*
X107575750Y-47534957D01*
X107918031Y-47568668D01*
X107918034Y-47568668D01*
X108261966Y-47568668D01*
X108261969Y-47568668D01*
X108604250Y-47534957D01*
X108941578Y-47467858D01*
X109270705Y-47368018D01*
X109588462Y-47236399D01*
X109891787Y-47074268D01*
X110177760Y-46883187D01*
X110443627Y-46664996D01*
X110686828Y-46421795D01*
X110905019Y-46155928D01*
X111096100Y-45869955D01*
X111258231Y-45566630D01*
X111389850Y-45248873D01*
X111489690Y-44919746D01*
X111556789Y-44582418D01*
X111590500Y-44240137D01*
X111590500Y-43896199D01*
X111572148Y-43709866D01*
X136365850Y-43709866D01*
X136365850Y-44053797D01*
X136399560Y-44396081D01*
X136466658Y-44733404D01*
X136566500Y-45062538D01*
X136698120Y-45380296D01*
X136698122Y-45380301D01*
X136860243Y-45683607D01*
X136860254Y-45683625D01*
X137051325Y-45969583D01*
X137051335Y-45969597D01*
X137269526Y-46235464D01*
X137512717Y-46478655D01*
X137512722Y-46478659D01*
X137512723Y-46478660D01*
X137778590Y-46696851D01*
X138064563Y-46887932D01*
X138064572Y-46887937D01*
X138064574Y-46887938D01*
X138367880Y-47050059D01*
X138367882Y-47050059D01*
X138367888Y-47050063D01*
X138685645Y-47181682D01*
X139014772Y-47281522D01*
X139352100Y-47348621D01*
X139694381Y-47382332D01*
X139694384Y-47382332D01*
X140038316Y-47382332D01*
X140038319Y-47382332D01*
X140380600Y-47348621D01*
X140717928Y-47281522D01*
X141047055Y-47181682D01*
X141364812Y-47050063D01*
X141668137Y-46887932D01*
X141954110Y-46696851D01*
X142219977Y-46478660D01*
X142463178Y-46235459D01*
X142681369Y-45969592D01*
X142872450Y-45683619D01*
X143034581Y-45380294D01*
X143166200Y-45062537D01*
X143266040Y-44733410D01*
X143333139Y-44396082D01*
X143366850Y-44053801D01*
X143366850Y-43896223D01*
X150309458Y-43896223D01*
X150309458Y-44240161D01*
X150314365Y-44289980D01*
X150343168Y-44582441D01*
X150410266Y-44919764D01*
X150510108Y-45248898D01*
X150641728Y-45566656D01*
X150641730Y-45566661D01*
X150803851Y-45869967D01*
X150803862Y-45869985D01*
X150994933Y-46155943D01*
X150994943Y-46155957D01*
X151213134Y-46421824D01*
X151456325Y-46665015D01*
X151456330Y-46665019D01*
X151456331Y-46665020D01*
X151722198Y-46883211D01*
X152008171Y-47074292D01*
X152008180Y-47074297D01*
X152008182Y-47074298D01*
X152311488Y-47236419D01*
X152311490Y-47236419D01*
X152311496Y-47236423D01*
X152629253Y-47368042D01*
X152958380Y-47467882D01*
X153295708Y-47534981D01*
X153637989Y-47568692D01*
X153637992Y-47568692D01*
X153981924Y-47568692D01*
X153981927Y-47568692D01*
X154324208Y-47534981D01*
X154661536Y-47467882D01*
X154990663Y-47368042D01*
X155308420Y-47236423D01*
X155611745Y-47074292D01*
X155897718Y-46883211D01*
X156163585Y-46665020D01*
X156406786Y-46421819D01*
X156624977Y-46155952D01*
X156816058Y-45869979D01*
X156978189Y-45566654D01*
X157109808Y-45248897D01*
X157115278Y-45230866D01*
X158630500Y-45230866D01*
X158630500Y-45405517D01*
X158656018Y-45566630D01*
X158657819Y-45578001D01*
X158711786Y-45744092D01*
X158791070Y-45899697D01*
X158893721Y-46040983D01*
X159017209Y-46164471D01*
X159158495Y-46267122D01*
X159314100Y-46346406D01*
X159480191Y-46400373D01*
X159566435Y-46414032D01*
X159652675Y-46427692D01*
X159652680Y-46427692D01*
X159827325Y-46427692D01*
X159905724Y-46415274D01*
X159999809Y-46400373D01*
X160165900Y-46346406D01*
X160321505Y-46267122D01*
X160462791Y-46164471D01*
X160586279Y-46040983D01*
X160688930Y-45899697D01*
X160768214Y-45744092D01*
X160822181Y-45578001D01*
X160837082Y-45483916D01*
X160849500Y-45405517D01*
X160849500Y-45230866D01*
X160834598Y-45136787D01*
X160822181Y-45058383D01*
X160768214Y-44892292D01*
X160688930Y-44736687D01*
X160586279Y-44595401D01*
X160462791Y-44471913D01*
X160321505Y-44369262D01*
X160165900Y-44289978D01*
X159999809Y-44236011D01*
X159999803Y-44236010D01*
X159827325Y-44208692D01*
X159827320Y-44208692D01*
X159652680Y-44208692D01*
X159652675Y-44208692D01*
X159480196Y-44236010D01*
X159480194Y-44236010D01*
X159480191Y-44236011D01*
X159314100Y-44289978D01*
X159314097Y-44289979D01*
X159314095Y-44289980D01*
X159158494Y-44369262D01*
X159017207Y-44471914D01*
X158893722Y-44595399D01*
X158791070Y-44736686D01*
X158711788Y-44892287D01*
X158711787Y-44892289D01*
X158711786Y-44892292D01*
X158657819Y-45058383D01*
X158657818Y-45058386D01*
X158657818Y-45058388D01*
X158630500Y-45230866D01*
X157115278Y-45230866D01*
X157209648Y-44919770D01*
X157276747Y-44582442D01*
X157310458Y-44240161D01*
X157310458Y-43896223D01*
X157276747Y-43553942D01*
X157209648Y-43216614D01*
X157109808Y-42887487D01*
X156978189Y-42569730D01*
X156922015Y-42464637D01*
X156816064Y-42266416D01*
X156816063Y-42266414D01*
X156816058Y-42266405D01*
X156624977Y-41980432D01*
X156406786Y-41714565D01*
X156406785Y-41714564D01*
X156406781Y-41714559D01*
X156163590Y-41471368D01*
X155897723Y-41253177D01*
X155897722Y-41253176D01*
X155897718Y-41253173D01*
X155618810Y-41066813D01*
X155611751Y-41062096D01*
X155611750Y-41062095D01*
X155611745Y-41062092D01*
X155611740Y-41062089D01*
X155611733Y-41062085D01*
X155308427Y-40899964D01*
X155308422Y-40899962D01*
X155249935Y-40875736D01*
X155215352Y-40861411D01*
X154990664Y-40768342D01*
X154661530Y-40668500D01*
X154324206Y-40601402D01*
X154324207Y-40601402D01*
X154066414Y-40576013D01*
X153981927Y-40567692D01*
X153637989Y-40567692D01*
X153559924Y-40575380D01*
X153295708Y-40601402D01*
X152958385Y-40668500D01*
X152629251Y-40768342D01*
X152311493Y-40899962D01*
X152311488Y-40899964D01*
X152008182Y-41062085D01*
X152008164Y-41062096D01*
X151722206Y-41253167D01*
X151722192Y-41253177D01*
X151456325Y-41471368D01*
X151213134Y-41714559D01*
X150994943Y-41980426D01*
X150994933Y-41980440D01*
X150803862Y-42266398D01*
X150803851Y-42266416D01*
X150641730Y-42569722D01*
X150641728Y-42569727D01*
X150510108Y-42887485D01*
X150410266Y-43216619D01*
X150343168Y-43553942D01*
X150327812Y-43709863D01*
X150309458Y-43896223D01*
X143366850Y-43896223D01*
X143366850Y-43709863D01*
X143333139Y-43367582D01*
X143266040Y-43030254D01*
X143166200Y-42701127D01*
X143034581Y-42383370D01*
X143031459Y-42377530D01*
X142872456Y-42080056D01*
X142872455Y-42080054D01*
X142872450Y-42080045D01*
X142681369Y-41794072D01*
X142463178Y-41528205D01*
X142463177Y-41528204D01*
X142463173Y-41528199D01*
X142219982Y-41285008D01*
X141954115Y-41066817D01*
X141954114Y-41066816D01*
X141954110Y-41066813D01*
X141668137Y-40875732D01*
X141668132Y-40875729D01*
X141668125Y-40875725D01*
X141364819Y-40713604D01*
X141364814Y-40713602D01*
X141047056Y-40581982D01*
X140717922Y-40482140D01*
X140380598Y-40415042D01*
X140380599Y-40415042D01*
X140122806Y-40389653D01*
X140038319Y-40381332D01*
X139694381Y-40381332D01*
X139616316Y-40389020D01*
X139352100Y-40415042D01*
X139014777Y-40482140D01*
X138685643Y-40581982D01*
X138367885Y-40713602D01*
X138367880Y-40713604D01*
X138064574Y-40875725D01*
X138064556Y-40875736D01*
X137778598Y-41066807D01*
X137778584Y-41066817D01*
X137512717Y-41285008D01*
X137269526Y-41528199D01*
X137051335Y-41794066D01*
X137051325Y-41794080D01*
X136860254Y-42080038D01*
X136860243Y-42080056D01*
X136698122Y-42383362D01*
X136698120Y-42383367D01*
X136566500Y-42701125D01*
X136466658Y-43030259D01*
X136399560Y-43367582D01*
X136373538Y-43631798D01*
X136365853Y-43709839D01*
X136365850Y-43709866D01*
X111572148Y-43709866D01*
X111556789Y-43553918D01*
X111489690Y-43216590D01*
X111389850Y-42887463D01*
X111258231Y-42569706D01*
X111202070Y-42464637D01*
X111096106Y-42266392D01*
X111096105Y-42266390D01*
X111096100Y-42266381D01*
X110905019Y-41980408D01*
X110686828Y-41714541D01*
X110686827Y-41714540D01*
X110686823Y-41714535D01*
X110443632Y-41471344D01*
X110177765Y-41253153D01*
X110177764Y-41253152D01*
X110177760Y-41253149D01*
X109891787Y-41062068D01*
X109891782Y-41062065D01*
X109891775Y-41062061D01*
X109588469Y-40899940D01*
X109588464Y-40899938D01*
X109530035Y-40875736D01*
X109495394Y-40861387D01*
X109270706Y-40768318D01*
X108941572Y-40668476D01*
X108604248Y-40601378D01*
X108604249Y-40601378D01*
X108346456Y-40575989D01*
X108261969Y-40567668D01*
X107918031Y-40567668D01*
X107839966Y-40575356D01*
X107575750Y-40601378D01*
X107238427Y-40668476D01*
X106909293Y-40768318D01*
X106591535Y-40899938D01*
X106591530Y-40899940D01*
X106288224Y-41062061D01*
X106288206Y-41062072D01*
X106002248Y-41253143D01*
X106002234Y-41253153D01*
X105736367Y-41471344D01*
X105493176Y-41714535D01*
X105274985Y-41980402D01*
X105274975Y-41980416D01*
X105083904Y-42266374D01*
X105083893Y-42266392D01*
X104921772Y-42569698D01*
X104921770Y-42569703D01*
X104790150Y-42887461D01*
X104690308Y-43216595D01*
X104623210Y-43553918D01*
X104597188Y-43818134D01*
X104589500Y-43896199D01*
X97646892Y-43896199D01*
X97646892Y-43709839D01*
X97613181Y-43367558D01*
X97546082Y-43030230D01*
X97446242Y-42701103D01*
X97314623Y-42383346D01*
X97311514Y-42377530D01*
X97152498Y-42080032D01*
X97152496Y-42080030D01*
X97152492Y-42080021D01*
X97152481Y-42080004D01*
X97020898Y-41883075D01*
X97000020Y-41816398D01*
X97000000Y-41814185D01*
X97000000Y-27174500D01*
X97019685Y-27107461D01*
X97072489Y-27061706D01*
X97124000Y-27050500D01*
X149415747Y-27050500D01*
X149482786Y-27070185D01*
G37*
%TD.AperFunction*%
%TD*%
%TA.AperFunction,Conductor*%
%TO.N,IN-*%
G36*
X53677492Y-71531336D02*
G01*
X53699695Y-71531359D01*
X53712464Y-71538943D01*
X53724068Y-71541468D01*
X53752323Y-71562619D01*
X53870208Y-71680504D01*
X53870211Y-71680506D01*
X53874549Y-71684844D01*
X54008570Y-71818865D01*
X54008584Y-71818880D01*
X54011695Y-71821991D01*
X54011696Y-71821992D01*
X54162008Y-71972304D01*
X54162011Y-71972306D01*
X54162015Y-71972310D01*
X54333979Y-72097248D01*
X54333981Y-72097249D01*
X54333984Y-72097251D01*
X54523388Y-72193757D01*
X54725557Y-72259446D01*
X54734126Y-72260803D01*
X54736750Y-72261219D01*
X54799885Y-72291148D01*
X54836816Y-72350460D01*
X54835818Y-72420323D01*
X54797208Y-72478555D01*
X54733244Y-72506669D01*
X54717352Y-72507692D01*
X54553499Y-72507692D01*
X54162004Y-72541943D01*
X54162000Y-72541943D01*
X53774994Y-72610183D01*
X53774983Y-72610185D01*
X53571555Y-72664694D01*
X53395384Y-72711899D01*
X53395381Y-72711900D01*
X53395380Y-72711900D01*
X53026078Y-72846316D01*
X52669937Y-73012387D01*
X52669913Y-73012399D01*
X52329587Y-73208887D01*
X52329572Y-73208896D01*
X52007652Y-73434307D01*
X51706606Y-73686916D01*
X51428724Y-73964798D01*
X51176115Y-74265844D01*
X50950704Y-74587764D01*
X50950695Y-74587779D01*
X50754207Y-74928105D01*
X50754195Y-74928129D01*
X50588124Y-75284270D01*
X50453708Y-75653572D01*
X50453708Y-75653574D01*
X50351993Y-76033175D01*
X50351991Y-76033186D01*
X50283751Y-76420192D01*
X50283751Y-76420196D01*
X50249500Y-76811691D01*
X50249500Y-77204692D01*
X50283751Y-77596187D01*
X50283751Y-77596191D01*
X50351991Y-77983197D01*
X50351993Y-77983207D01*
X50453707Y-78362808D01*
X50453708Y-78362810D01*
X50453708Y-78362811D01*
X50588124Y-78732113D01*
X50754195Y-79088254D01*
X50754207Y-79088278D01*
X50950695Y-79428604D01*
X50950704Y-79428619D01*
X51176115Y-79750539D01*
X51368793Y-79980163D01*
X51428722Y-80051583D01*
X51706609Y-80329470D01*
X51749431Y-80365402D01*
X52007652Y-80582076D01*
X52007658Y-80582080D01*
X52007659Y-80582081D01*
X52329579Y-80807492D01*
X52669920Y-81003988D01*
X52669934Y-81003994D01*
X52669937Y-81003996D01*
X53026078Y-81170067D01*
X53026083Y-81170068D01*
X53026092Y-81170073D01*
X53395384Y-81304485D01*
X53774985Y-81406199D01*
X54162007Y-81474441D01*
X54553502Y-81508691D01*
X54553503Y-81508692D01*
X54553504Y-81508692D01*
X54946497Y-81508692D01*
X54946497Y-81508691D01*
X55337993Y-81474441D01*
X55725015Y-81406199D01*
X56104616Y-81304485D01*
X56473908Y-81170073D01*
X56830080Y-81003988D01*
X57170421Y-80807492D01*
X57492341Y-80582081D01*
X57793391Y-80329470D01*
X58071278Y-80051583D01*
X58323889Y-79750533D01*
X58549300Y-79428613D01*
X58745796Y-79088272D01*
X58911881Y-78732100D01*
X59046293Y-78362808D01*
X59148007Y-77983207D01*
X59216249Y-77596185D01*
X59250500Y-77204688D01*
X59250500Y-76811696D01*
X59216249Y-76420199D01*
X59148007Y-76033177D01*
X59046293Y-75653576D01*
X58911881Y-75284284D01*
X58911876Y-75284275D01*
X58911875Y-75284270D01*
X58745804Y-74928129D01*
X58745792Y-74928105D01*
X58733455Y-74906738D01*
X58549300Y-74587771D01*
X58323889Y-74265851D01*
X58323888Y-74265850D01*
X58323884Y-74265844D01*
X58089825Y-73986905D01*
X58071278Y-73964801D01*
X57793391Y-73686914D01*
X57721971Y-73626985D01*
X57492347Y-73434307D01*
X57170427Y-73208896D01*
X57170424Y-73208894D01*
X57170421Y-73208892D01*
X57069305Y-73150512D01*
X56830086Y-73012399D01*
X56830062Y-73012387D01*
X56473921Y-72846316D01*
X56473910Y-72846312D01*
X56473908Y-72846311D01*
X56104616Y-72711899D01*
X55863960Y-72647415D01*
X55725016Y-72610185D01*
X55725005Y-72610183D01*
X55337997Y-72541943D01*
X55322755Y-72540609D01*
X55318388Y-72540227D01*
X55253320Y-72514776D01*
X55212341Y-72458185D01*
X55208463Y-72388423D01*
X55242917Y-72327639D01*
X55304764Y-72295131D01*
X55329196Y-72292700D01*
X77189300Y-72292700D01*
X77256339Y-72312385D01*
X77302094Y-72365189D01*
X77313300Y-72416700D01*
X77313300Y-116311287D01*
X77346554Y-116521243D01*
X77368694Y-116589384D01*
X77412244Y-116723414D01*
X77508751Y-116912820D01*
X77633689Y-117084784D01*
X77633693Y-117084788D01*
X77633696Y-117084792D01*
X77739817Y-117190913D01*
X77788338Y-117239434D01*
X77788349Y-117239444D01*
X77963681Y-117414776D01*
X77997166Y-117476099D01*
X78000000Y-117502457D01*
X78000000Y-117575500D01*
X77980315Y-117642539D01*
X77927511Y-117688294D01*
X77876000Y-117699500D01*
X30675833Y-117699500D01*
X30608794Y-117679815D01*
X30588152Y-117663181D01*
X27336819Y-114411848D01*
X27303334Y-114350525D01*
X27300500Y-114324167D01*
X27300500Y-108378456D01*
X67135500Y-108378456D01*
X67135500Y-108621543D01*
X67135501Y-108621559D01*
X67167230Y-108862569D01*
X67230149Y-109097386D01*
X67323175Y-109321972D01*
X67323182Y-109321987D01*
X67444730Y-109532516D01*
X67592722Y-109725380D01*
X67592730Y-109725389D01*
X67764611Y-109897270D01*
X67764619Y-109897277D01*
X67957483Y-110045269D01*
X68168012Y-110166817D01*
X68168027Y-110166824D01*
X68284171Y-110214932D01*
X68392612Y-110259850D01*
X68627429Y-110322769D01*
X68868450Y-110354500D01*
X68868457Y-110354500D01*
X69111543Y-110354500D01*
X69111550Y-110354500D01*
X69352571Y-110322769D01*
X69587388Y-110259850D01*
X69811984Y-110166819D01*
X70022516Y-110045269D01*
X70215380Y-109897278D01*
X70215384Y-109897273D01*
X70215389Y-109897270D01*
X70387270Y-109725389D01*
X70387273Y-109725384D01*
X70387278Y-109725380D01*
X70535269Y-109532516D01*
X70656819Y-109321984D01*
X70749850Y-109097388D01*
X70812769Y-108862571D01*
X70844500Y-108621550D01*
X70844500Y-108378450D01*
X70812769Y-108137429D01*
X70749850Y-107902612D01*
X70656819Y-107678016D01*
X70656817Y-107678012D01*
X70535269Y-107467483D01*
X70387277Y-107274619D01*
X70387270Y-107274611D01*
X70215389Y-107102730D01*
X70215380Y-107102722D01*
X70022516Y-106954730D01*
X69811987Y-106833182D01*
X69811972Y-106833175D01*
X69587386Y-106740149D01*
X69352569Y-106677230D01*
X69111559Y-106645501D01*
X69111556Y-106645500D01*
X69111550Y-106645500D01*
X68868450Y-106645500D01*
X68868444Y-106645500D01*
X68868440Y-106645501D01*
X68627430Y-106677230D01*
X68392613Y-106740149D01*
X68168027Y-106833175D01*
X68168012Y-106833182D01*
X67957483Y-106954730D01*
X67764619Y-107102722D01*
X67592722Y-107274619D01*
X67444730Y-107467483D01*
X67323182Y-107678012D01*
X67323175Y-107678027D01*
X67230149Y-107902613D01*
X67167230Y-108137430D01*
X67135501Y-108378440D01*
X67135500Y-108378456D01*
X27300500Y-108378456D01*
X27300500Y-94509842D01*
X44925892Y-94509842D01*
X44925892Y-94853773D01*
X44959602Y-95196057D01*
X45026700Y-95533380D01*
X45126542Y-95862514D01*
X45258162Y-96180272D01*
X45258164Y-96180277D01*
X45420285Y-96483583D01*
X45420296Y-96483601D01*
X45611367Y-96769559D01*
X45611377Y-96769573D01*
X45829568Y-97035440D01*
X46072759Y-97278631D01*
X46072764Y-97278635D01*
X46072765Y-97278636D01*
X46338632Y-97496827D01*
X46624605Y-97687908D01*
X46624614Y-97687913D01*
X46624616Y-97687914D01*
X46927922Y-97850035D01*
X46927924Y-97850035D01*
X46927930Y-97850039D01*
X47245687Y-97981658D01*
X47574814Y-98081498D01*
X47912142Y-98148597D01*
X48254423Y-98182308D01*
X48254426Y-98182308D01*
X48598358Y-98182308D01*
X48598361Y-98182308D01*
X48940642Y-98148597D01*
X49277970Y-98081498D01*
X49607097Y-97981658D01*
X49924854Y-97850039D01*
X50228179Y-97687908D01*
X50514152Y-97496827D01*
X50780019Y-97278636D01*
X51023220Y-97035435D01*
X51241411Y-96769568D01*
X51432492Y-96483595D01*
X51594623Y-96180270D01*
X51726242Y-95862513D01*
X51826082Y-95533386D01*
X51893181Y-95196058D01*
X51926892Y-94853777D01*
X51926892Y-94696202D01*
X58869500Y-94696202D01*
X58869500Y-95040133D01*
X58903210Y-95382417D01*
X58970308Y-95719740D01*
X59070150Y-96048874D01*
X59201770Y-96366632D01*
X59201772Y-96366637D01*
X59363893Y-96669943D01*
X59363904Y-96669961D01*
X59554975Y-96955919D01*
X59554985Y-96955933D01*
X59773176Y-97221800D01*
X60016367Y-97464991D01*
X60016372Y-97464995D01*
X60016373Y-97464996D01*
X60282240Y-97683187D01*
X60568213Y-97874268D01*
X60568222Y-97874273D01*
X60568224Y-97874274D01*
X60871530Y-98036395D01*
X60871532Y-98036395D01*
X60871538Y-98036399D01*
X61189295Y-98168018D01*
X61518422Y-98267858D01*
X61855750Y-98334957D01*
X62198031Y-98368668D01*
X62198034Y-98368668D01*
X62541966Y-98368668D01*
X62541969Y-98368668D01*
X62884250Y-98334957D01*
X63221578Y-98267858D01*
X63550705Y-98168018D01*
X63868462Y-98036399D01*
X64171787Y-97874268D01*
X64457760Y-97683187D01*
X64723627Y-97464996D01*
X64966828Y-97221795D01*
X65185019Y-96955928D01*
X65376100Y-96669955D01*
X65538231Y-96366630D01*
X65669850Y-96048873D01*
X65769690Y-95719746D01*
X65836789Y-95382418D01*
X65870500Y-95040137D01*
X65870500Y-94696199D01*
X65836789Y-94353918D01*
X65769690Y-94016590D01*
X65669850Y-93687463D01*
X65538231Y-93369706D01*
X65376100Y-93066381D01*
X65185019Y-92780408D01*
X64966828Y-92514541D01*
X64966827Y-92514540D01*
X64966823Y-92514535D01*
X64723632Y-92271344D01*
X64457765Y-92053153D01*
X64457764Y-92053152D01*
X64457760Y-92053149D01*
X64178852Y-91866789D01*
X64171793Y-91862072D01*
X64171792Y-91862071D01*
X64171787Y-91862068D01*
X64171782Y-91862065D01*
X64171775Y-91862061D01*
X63868469Y-91699940D01*
X63868464Y-91699938D01*
X63809977Y-91675712D01*
X63775394Y-91661387D01*
X63550706Y-91568318D01*
X63221572Y-91468476D01*
X62884248Y-91401378D01*
X62884249Y-91401378D01*
X62626456Y-91375989D01*
X62541969Y-91367668D01*
X62198031Y-91367668D01*
X62119966Y-91375356D01*
X61855750Y-91401378D01*
X61518427Y-91468476D01*
X61189293Y-91568318D01*
X60871535Y-91699938D01*
X60871530Y-91699940D01*
X60568224Y-91862061D01*
X60568206Y-91862072D01*
X60282248Y-92053143D01*
X60282234Y-92053153D01*
X60016367Y-92271344D01*
X59773176Y-92514535D01*
X59554985Y-92780402D01*
X59554975Y-92780416D01*
X59363904Y-93066374D01*
X59363893Y-93066392D01*
X59201772Y-93369698D01*
X59201770Y-93369703D01*
X59070150Y-93687461D01*
X58970308Y-94016595D01*
X58903210Y-94353918D01*
X58869500Y-94696202D01*
X51926892Y-94696202D01*
X51926892Y-94509839D01*
X51893181Y-94167558D01*
X51826082Y-93830230D01*
X51726242Y-93501103D01*
X51684723Y-93400866D01*
X55210500Y-93400866D01*
X55210500Y-93575517D01*
X55228231Y-93687463D01*
X55237819Y-93748001D01*
X55291786Y-93914092D01*
X55371070Y-94069697D01*
X55473721Y-94210983D01*
X55597209Y-94334471D01*
X55738495Y-94437122D01*
X55894100Y-94516406D01*
X56060191Y-94570373D01*
X56146435Y-94584032D01*
X56232675Y-94597692D01*
X56232680Y-94597692D01*
X56407325Y-94597692D01*
X56577859Y-94570682D01*
X56578134Y-94570638D01*
X56579809Y-94570373D01*
X56745900Y-94516406D01*
X56901505Y-94437122D01*
X57042791Y-94334471D01*
X57166279Y-94210983D01*
X57268930Y-94069697D01*
X57348214Y-93914092D01*
X57402181Y-93748001D01*
X57417082Y-93653916D01*
X57429500Y-93575517D01*
X57429500Y-93400866D01*
X57414598Y-93306787D01*
X57402181Y-93228383D01*
X57348214Y-93062292D01*
X57268930Y-92906687D01*
X57166279Y-92765401D01*
X57042791Y-92641913D01*
X56901505Y-92539262D01*
X56745900Y-92459978D01*
X56579809Y-92406011D01*
X56579803Y-92406010D01*
X56407325Y-92378692D01*
X56407320Y-92378692D01*
X56232680Y-92378692D01*
X56232675Y-92378692D01*
X56060196Y-92406010D01*
X56060194Y-92406010D01*
X56060191Y-92406011D01*
X55894100Y-92459978D01*
X55894097Y-92459979D01*
X55894095Y-92459980D01*
X55738494Y-92539262D01*
X55597207Y-92641914D01*
X55473722Y-92765399D01*
X55371070Y-92906686D01*
X55291788Y-93062287D01*
X55291787Y-93062289D01*
X55291786Y-93062292D01*
X55237819Y-93228383D01*
X55237818Y-93228386D01*
X55237818Y-93228388D01*
X55210500Y-93400866D01*
X51684723Y-93400866D01*
X51594623Y-93183346D01*
X51529915Y-93062287D01*
X51432498Y-92880032D01*
X51432497Y-92880030D01*
X51432492Y-92880021D01*
X51241411Y-92594048D01*
X51023220Y-92328181D01*
X51023219Y-92328180D01*
X51023215Y-92328175D01*
X50780024Y-92084984D01*
X50514157Y-91866793D01*
X50514156Y-91866792D01*
X50514152Y-91866789D01*
X50228179Y-91675708D01*
X50228174Y-91675705D01*
X50228167Y-91675701D01*
X49924861Y-91513580D01*
X49924856Y-91513578D01*
X49607098Y-91381958D01*
X49277964Y-91282116D01*
X48940640Y-91215018D01*
X48940641Y-91215018D01*
X48682848Y-91189629D01*
X48598361Y-91181308D01*
X48254423Y-91181308D01*
X48176358Y-91188996D01*
X47912142Y-91215018D01*
X47574819Y-91282116D01*
X47245685Y-91381958D01*
X46927927Y-91513578D01*
X46927922Y-91513580D01*
X46624616Y-91675701D01*
X46624598Y-91675712D01*
X46338640Y-91866783D01*
X46338626Y-91866793D01*
X46072759Y-92084984D01*
X45829568Y-92328175D01*
X45611377Y-92594042D01*
X45611367Y-92594056D01*
X45420296Y-92880014D01*
X45420285Y-92880032D01*
X45258164Y-93183338D01*
X45258162Y-93183343D01*
X45126542Y-93501101D01*
X45026700Y-93830235D01*
X44959602Y-94167558D01*
X44925892Y-94509842D01*
X27300500Y-94509842D01*
X27300500Y-74337364D01*
X36805892Y-74337364D01*
X36805892Y-79465795D01*
X36805893Y-79465810D01*
X36816296Y-79598000D01*
X36816297Y-79598007D01*
X36871294Y-79816265D01*
X36871295Y-79816268D01*
X36964383Y-80021209D01*
X36964389Y-80021219D01*
X37092566Y-80206232D01*
X37092570Y-80206237D01*
X37092573Y-80206241D01*
X37251738Y-80365406D01*
X37251742Y-80365409D01*
X37251746Y-80365412D01*
X37390995Y-80461884D01*
X37436766Y-80493594D01*
X37641709Y-80586683D01*
X37641713Y-80586684D01*
X37859971Y-80641681D01*
X37859973Y-80641681D01*
X37859980Y-80641683D01*
X37992175Y-80652087D01*
X44620608Y-80652086D01*
X44752804Y-80641683D01*
X44971075Y-80586683D01*
X45176018Y-80493594D01*
X45361046Y-80365406D01*
X45520211Y-80206241D01*
X45648399Y-80021213D01*
X45741488Y-79816270D01*
X45796488Y-79597999D01*
X45806892Y-79465804D01*
X45806891Y-74337371D01*
X45796488Y-74205175D01*
X45741488Y-73986904D01*
X45648399Y-73781961D01*
X45520211Y-73596933D01*
X45361046Y-73437768D01*
X45361042Y-73437765D01*
X45361037Y-73437761D01*
X45176024Y-73309584D01*
X45176022Y-73309582D01*
X45176018Y-73309580D01*
X44971075Y-73216491D01*
X44971073Y-73216490D01*
X44971070Y-73216489D01*
X44752812Y-73161492D01*
X44752805Y-73161491D01*
X44708739Y-73158023D01*
X44620609Y-73151087D01*
X44620607Y-73151087D01*
X37992183Y-73151087D01*
X37992168Y-73151088D01*
X37859978Y-73161491D01*
X37859971Y-73161492D01*
X37641713Y-73216489D01*
X37641710Y-73216490D01*
X37436769Y-73309578D01*
X37436759Y-73309584D01*
X37251746Y-73437761D01*
X37251734Y-73437771D01*
X37092576Y-73596929D01*
X37092566Y-73596941D01*
X36964389Y-73781954D01*
X36964383Y-73781964D01*
X36871295Y-73986905D01*
X36871294Y-73986908D01*
X36816297Y-74205166D01*
X36816296Y-74205173D01*
X36805892Y-74337364D01*
X27300500Y-74337364D01*
X27300500Y-71705700D01*
X27320185Y-71638661D01*
X27372989Y-71592906D01*
X27424500Y-71581700D01*
X53275522Y-71581700D01*
X53302109Y-71581238D01*
X53319043Y-71580945D01*
X53501851Y-71558076D01*
X53542380Y-71553007D01*
X53542381Y-71553007D01*
X53542386Y-71553006D01*
X53593897Y-71541800D01*
X53629828Y-71531289D01*
X53643232Y-71531302D01*
X53655795Y-71526617D01*
X53677492Y-71531336D01*
G37*
%TD.AperFunction*%
%TD*%
%TA.AperFunction,Conductor*%
%TO.N,IN+*%
G36*
X65693039Y-27070185D02*
G01*
X65738794Y-27122989D01*
X65750000Y-27174500D01*
X65750000Y-39000000D01*
X77876000Y-39000000D01*
X77943039Y-39019685D01*
X77988794Y-39072489D01*
X78000000Y-39124000D01*
X78000000Y-69467700D01*
X77980315Y-69534739D01*
X77927511Y-69580494D01*
X77876000Y-69591700D01*
X56224500Y-69591700D01*
X56157461Y-69572015D01*
X56111706Y-69519211D01*
X56100500Y-69467700D01*
X56100500Y-66485291D01*
X56120185Y-66418252D01*
X56126915Y-66408784D01*
X56500373Y-65932531D01*
X56545536Y-65896671D01*
X56830080Y-65763988D01*
X57170421Y-65567492D01*
X57492341Y-65342081D01*
X57793391Y-65089470D01*
X58071278Y-64811583D01*
X58323889Y-64510533D01*
X58549300Y-64188613D01*
X58745796Y-63848272D01*
X58907410Y-63501689D01*
X58911875Y-63492113D01*
X58911875Y-63492112D01*
X58911881Y-63492100D01*
X59046293Y-63122808D01*
X59148007Y-62743207D01*
X59216249Y-62356185D01*
X59250500Y-61964688D01*
X59250500Y-61571696D01*
X59216249Y-61180199D01*
X59148007Y-60793177D01*
X59046293Y-60413576D01*
X58911881Y-60044284D01*
X58911876Y-60044275D01*
X58911875Y-60044270D01*
X58745804Y-59688129D01*
X58745792Y-59688105D01*
X58733455Y-59666738D01*
X58549300Y-59347771D01*
X58323889Y-59025851D01*
X58323888Y-59025850D01*
X58323884Y-59025844D01*
X58089825Y-58746905D01*
X58071278Y-58724801D01*
X57793391Y-58446914D01*
X57721971Y-58386985D01*
X57492347Y-58194307D01*
X57170427Y-57968896D01*
X57170424Y-57968894D01*
X57170421Y-57968892D01*
X57069305Y-57910512D01*
X56830086Y-57772399D01*
X56830062Y-57772387D01*
X56473921Y-57606316D01*
X56473910Y-57606312D01*
X56473908Y-57606311D01*
X56104616Y-57471899D01*
X55863960Y-57407415D01*
X55725016Y-57370185D01*
X55725005Y-57370183D01*
X55337997Y-57301943D01*
X54946500Y-57267692D01*
X54946496Y-57267692D01*
X54553504Y-57267692D01*
X54553499Y-57267692D01*
X54162004Y-57301943D01*
X54162000Y-57301943D01*
X53774994Y-57370183D01*
X53774983Y-57370185D01*
X53571555Y-57424694D01*
X53395384Y-57471899D01*
X53395381Y-57471900D01*
X53395380Y-57471900D01*
X53026078Y-57606316D01*
X52669937Y-57772387D01*
X52669913Y-57772399D01*
X52329587Y-57968887D01*
X52329572Y-57968896D01*
X52007652Y-58194307D01*
X51706606Y-58446916D01*
X51428724Y-58724798D01*
X51176115Y-59025844D01*
X50950704Y-59347764D01*
X50950695Y-59347779D01*
X50754207Y-59688105D01*
X50754199Y-59688121D01*
X50626415Y-59962154D01*
X50589212Y-60008360D01*
X50118392Y-60367303D01*
X50053144Y-60392294D01*
X50043213Y-60392692D01*
X46090314Y-60392692D01*
X46063954Y-60384951D01*
X46036832Y-60380565D01*
X46027269Y-60374179D01*
X46023275Y-60373007D01*
X46007480Y-60360966D01*
X45848057Y-60217853D01*
X45811319Y-60158422D01*
X45806891Y-60125579D01*
X45806891Y-59097378D01*
X45806890Y-59097370D01*
X45796488Y-58965175D01*
X45741488Y-58746904D01*
X45648399Y-58541961D01*
X45520211Y-58356933D01*
X45361046Y-58197768D01*
X45361042Y-58197765D01*
X45361037Y-58197761D01*
X45176024Y-58069584D01*
X45176022Y-58069582D01*
X45176018Y-58069580D01*
X44971075Y-57976491D01*
X44971073Y-57976490D01*
X44971070Y-57976489D01*
X44752812Y-57921492D01*
X44752805Y-57921491D01*
X44708739Y-57918023D01*
X44620609Y-57911087D01*
X44620607Y-57911087D01*
X37992183Y-57911087D01*
X37992168Y-57911088D01*
X37859978Y-57921491D01*
X37859971Y-57921492D01*
X37641713Y-57976489D01*
X37641710Y-57976490D01*
X37436769Y-58069578D01*
X37436759Y-58069584D01*
X37251746Y-58197761D01*
X37251734Y-58197771D01*
X37092576Y-58356929D01*
X37092566Y-58356941D01*
X36964389Y-58541954D01*
X36964383Y-58541964D01*
X36871295Y-58746905D01*
X36871294Y-58746908D01*
X36816297Y-58965166D01*
X36816296Y-58965173D01*
X36805892Y-59097364D01*
X36805892Y-62774715D01*
X36800466Y-62810993D01*
X36578593Y-63536184D01*
X36578411Y-63536778D01*
X36539975Y-63595125D01*
X36476095Y-63623430D01*
X36459837Y-63624500D01*
X30966499Y-63624500D01*
X30899460Y-63604815D01*
X30892099Y-63599700D01*
X30761419Y-63501689D01*
X30761416Y-63501687D01*
X30761409Y-63501682D01*
X30700669Y-63462523D01*
X30668792Y-63441971D01*
X30665368Y-63439682D01*
X30629173Y-63414607D01*
X30619626Y-63407993D01*
X30571979Y-63386351D01*
X30414681Y-63314903D01*
X30414678Y-63314902D01*
X30196420Y-63259905D01*
X30196413Y-63259904D01*
X30064222Y-63249500D01*
X30064217Y-63249500D01*
X29970464Y-63249500D01*
X29960148Y-63248910D01*
X29955350Y-63249500D01*
X28935791Y-63249500D01*
X28935776Y-63249501D01*
X28803586Y-63259904D01*
X28803579Y-63259905D01*
X28585321Y-63314902D01*
X28585318Y-63314903D01*
X28380377Y-63407991D01*
X28380367Y-63407997D01*
X28195354Y-63536174D01*
X28195342Y-63536184D01*
X28036184Y-63695342D01*
X28036174Y-63695354D01*
X27907997Y-63880367D01*
X27907991Y-63880377D01*
X27814903Y-64085318D01*
X27814902Y-64085321D01*
X27759905Y-64303579D01*
X27759904Y-64303586D01*
X27749500Y-64435777D01*
X27749500Y-65564208D01*
X27749501Y-65564223D01*
X27759904Y-65696413D01*
X27759905Y-65696420D01*
X27814902Y-65914678D01*
X27814903Y-65914681D01*
X27907991Y-66119622D01*
X27907997Y-66119632D01*
X28036174Y-66304645D01*
X28036178Y-66304650D01*
X28036181Y-66304654D01*
X28195346Y-66463819D01*
X28195350Y-66463822D01*
X28195354Y-66463825D01*
X28245142Y-66498318D01*
X28380374Y-66592007D01*
X28585317Y-66685096D01*
X28585321Y-66685097D01*
X28803579Y-66740094D01*
X28803581Y-66740094D01*
X28803588Y-66740096D01*
X28935783Y-66750500D01*
X30064216Y-66750499D01*
X30196412Y-66740096D01*
X30298193Y-66714449D01*
X30310959Y-66712376D01*
X30319634Y-66710154D01*
X30360452Y-66698963D01*
X30361886Y-66698399D01*
X30414683Y-66685096D01*
X30535526Y-66630206D01*
X30569959Y-66616684D01*
X30582865Y-66608704D01*
X30619626Y-66592007D01*
X30697885Y-66537788D01*
X30703255Y-66534270D01*
X30761407Y-66498318D01*
X30892098Y-66400299D01*
X30957541Y-66375824D01*
X30966498Y-66375500D01*
X37576232Y-66375500D01*
X37576233Y-66375500D01*
X37790076Y-66341630D01*
X37995988Y-66274726D01*
X38188898Y-66176433D01*
X38248801Y-66132911D01*
X38364057Y-66049173D01*
X38366839Y-66046390D01*
X38373903Y-66041213D01*
X38379760Y-66039095D01*
X38402019Y-66025752D01*
X39948491Y-65420611D01*
X39993676Y-65412086D01*
X44620600Y-65412086D01*
X44620608Y-65412086D01*
X44752804Y-65401683D01*
X44971075Y-65346683D01*
X45176018Y-65253594D01*
X45361046Y-65125406D01*
X45520211Y-64966241D01*
X45648399Y-64781213D01*
X45741488Y-64576270D01*
X45796488Y-64357999D01*
X45806892Y-64225804D01*
X45806891Y-63386839D01*
X45807034Y-63386351D01*
X45806895Y-63385863D01*
X45816853Y-63352909D01*
X45826575Y-63319801D01*
X45827009Y-63319303D01*
X45827107Y-63318981D01*
X45850427Y-63292492D01*
X45990142Y-63173341D01*
X46053924Y-63144819D01*
X46070604Y-63143692D01*
X50043216Y-63143692D01*
X50110255Y-63163377D01*
X50118395Y-63169081D01*
X50589210Y-63528019D01*
X50626413Y-63574225D01*
X50754199Y-63848262D01*
X50754207Y-63848278D01*
X50950695Y-64188604D01*
X50950704Y-64188619D01*
X51176115Y-64510539D01*
X51368793Y-64740163D01*
X51428722Y-64811583D01*
X51706609Y-65089470D01*
X51749431Y-65125402D01*
X52007652Y-65342076D01*
X52007658Y-65342080D01*
X52007659Y-65342081D01*
X52329579Y-65567492D01*
X52669920Y-65763988D01*
X52954459Y-65896669D01*
X52999627Y-65932532D01*
X53373077Y-66408776D01*
X53398955Y-66473676D01*
X53399500Y-66485291D01*
X53399500Y-70202200D01*
X53379815Y-70269239D01*
X53327011Y-70314994D01*
X53275500Y-70326200D01*
X27424500Y-70326200D01*
X27357461Y-70306515D01*
X27311706Y-70253711D01*
X27300500Y-70202200D01*
X27300500Y-47991364D01*
X27320185Y-47924325D01*
X27372989Y-47878570D01*
X27442147Y-47868626D01*
X27462810Y-47873431D01*
X27678524Y-47943521D01*
X27919573Y-47981700D01*
X27919574Y-47981700D01*
X28163626Y-47981700D01*
X28163627Y-47981700D01*
X28404676Y-47943521D01*
X28636785Y-47868104D01*
X28854239Y-47757306D01*
X29051683Y-47613855D01*
X29224255Y-47441283D01*
X29367706Y-47243839D01*
X29478504Y-47026385D01*
X29553921Y-46794276D01*
X29592100Y-46553227D01*
X29592100Y-46309173D01*
X29578075Y-46220628D01*
X29577388Y-46201904D01*
X29569221Y-46164726D01*
X29553921Y-46068124D01*
X29537524Y-46017661D01*
X29536059Y-46012816D01*
X29535102Y-46009404D01*
X29529097Y-45982061D01*
X29514344Y-45935364D01*
X29513793Y-45933396D01*
X29514197Y-45900415D01*
X29513524Y-45867421D01*
X29514624Y-45865522D01*
X29514649Y-45863531D01*
X29523913Y-45849496D01*
X29545506Y-45812243D01*
X31647886Y-43709863D01*
X44925850Y-43709863D01*
X44925850Y-44053801D01*
X44932962Y-44126010D01*
X44959560Y-44396081D01*
X45026658Y-44733404D01*
X45126500Y-45062538D01*
X45258120Y-45380296D01*
X45258122Y-45380301D01*
X45420243Y-45683607D01*
X45420254Y-45683625D01*
X45611325Y-45969583D01*
X45611335Y-45969597D01*
X45829526Y-46235464D01*
X46072717Y-46478655D01*
X46072722Y-46478659D01*
X46072723Y-46478660D01*
X46338590Y-46696851D01*
X46624563Y-46887932D01*
X46624572Y-46887937D01*
X46624574Y-46887938D01*
X46927880Y-47050059D01*
X46927882Y-47050059D01*
X46927888Y-47050063D01*
X47245645Y-47181682D01*
X47574772Y-47281522D01*
X47912100Y-47348621D01*
X48254381Y-47382332D01*
X48254384Y-47382332D01*
X48598316Y-47382332D01*
X48598319Y-47382332D01*
X48940600Y-47348621D01*
X49277928Y-47281522D01*
X49607055Y-47181682D01*
X49924812Y-47050063D01*
X50228137Y-46887932D01*
X50514110Y-46696851D01*
X50779977Y-46478660D01*
X51023178Y-46235459D01*
X51241369Y-45969592D01*
X51432450Y-45683619D01*
X51594581Y-45380294D01*
X51702039Y-45120866D01*
X52050500Y-45120866D01*
X52050500Y-45295517D01*
X52063928Y-45380296D01*
X52077819Y-45468001D01*
X52131786Y-45634092D01*
X52211070Y-45789697D01*
X52313721Y-45930983D01*
X52437209Y-46054471D01*
X52578495Y-46157122D01*
X52734100Y-46236406D01*
X52900191Y-46290373D01*
X52986435Y-46304032D01*
X53072675Y-46317692D01*
X53072680Y-46317692D01*
X53247325Y-46317692D01*
X53325724Y-46305274D01*
X53419809Y-46290373D01*
X53585900Y-46236406D01*
X53741505Y-46157122D01*
X53882791Y-46054471D01*
X54006279Y-45930983D01*
X54108930Y-45789697D01*
X54188214Y-45634092D01*
X54242181Y-45468001D01*
X54257082Y-45373916D01*
X54269500Y-45295517D01*
X54269500Y-45120866D01*
X54254598Y-45026787D01*
X54242181Y-44948383D01*
X54188214Y-44782292D01*
X54108930Y-44626687D01*
X54006279Y-44485401D01*
X53882791Y-44361913D01*
X53741505Y-44259262D01*
X53585900Y-44179978D01*
X53419809Y-44126011D01*
X53419803Y-44126010D01*
X53247325Y-44098692D01*
X53247320Y-44098692D01*
X53072680Y-44098692D01*
X53072675Y-44098692D01*
X52900196Y-44126010D01*
X52900194Y-44126010D01*
X52900191Y-44126011D01*
X52734100Y-44179978D01*
X52734097Y-44179979D01*
X52734095Y-44179980D01*
X52578494Y-44259262D01*
X52437207Y-44361914D01*
X52313722Y-44485399D01*
X52211070Y-44626686D01*
X52131788Y-44782287D01*
X52131787Y-44782289D01*
X52131786Y-44782292D01*
X52077819Y-44948383D01*
X52077818Y-44948386D01*
X52077818Y-44948388D01*
X52050500Y-45120866D01*
X51702039Y-45120866D01*
X51726200Y-45062537D01*
X51826040Y-44733410D01*
X51893139Y-44396082D01*
X51926850Y-44053801D01*
X51926850Y-43896223D01*
X58869458Y-43896223D01*
X58869458Y-44240161D01*
X58879709Y-44344246D01*
X58903168Y-44582441D01*
X58970266Y-44919764D01*
X59070108Y-45248898D01*
X59201728Y-45566656D01*
X59201730Y-45566661D01*
X59363851Y-45869967D01*
X59363862Y-45869985D01*
X59554933Y-46155943D01*
X59554943Y-46155957D01*
X59773134Y-46421824D01*
X60016325Y-46665015D01*
X60016330Y-46665019D01*
X60016331Y-46665020D01*
X60282198Y-46883211D01*
X60568171Y-47074292D01*
X60568180Y-47074297D01*
X60568182Y-47074298D01*
X60871488Y-47236419D01*
X60871490Y-47236419D01*
X60871496Y-47236423D01*
X61189253Y-47368042D01*
X61518380Y-47467882D01*
X61855708Y-47534981D01*
X62197989Y-47568692D01*
X62197992Y-47568692D01*
X62541924Y-47568692D01*
X62541927Y-47568692D01*
X62884208Y-47534981D01*
X63221536Y-47467882D01*
X63550663Y-47368042D01*
X63868420Y-47236423D01*
X64171745Y-47074292D01*
X64457718Y-46883211D01*
X64723585Y-46665020D01*
X64966786Y-46421819D01*
X65184977Y-46155952D01*
X65376058Y-45869979D01*
X65538189Y-45566654D01*
X65669808Y-45248897D01*
X65769648Y-44919770D01*
X65836747Y-44582442D01*
X65870458Y-44240161D01*
X65870458Y-43896223D01*
X65836747Y-43553942D01*
X65769648Y-43216614D01*
X65669808Y-42887487D01*
X65538189Y-42569730D01*
X65423472Y-42355111D01*
X65376064Y-42266416D01*
X65376063Y-42266414D01*
X65376058Y-42266405D01*
X65184977Y-41980432D01*
X64966786Y-41714565D01*
X64966785Y-41714564D01*
X64966781Y-41714559D01*
X64723590Y-41471368D01*
X64457723Y-41253177D01*
X64457722Y-41253176D01*
X64457718Y-41253173D01*
X64178810Y-41066813D01*
X64171751Y-41062096D01*
X64171750Y-41062095D01*
X64171745Y-41062092D01*
X64171740Y-41062089D01*
X64171733Y-41062085D01*
X63868427Y-40899964D01*
X63868422Y-40899962D01*
X63809935Y-40875736D01*
X63694244Y-40827815D01*
X63550664Y-40768342D01*
X63221530Y-40668500D01*
X62884206Y-40601402D01*
X62884207Y-40601402D01*
X62626414Y-40576013D01*
X62541927Y-40567692D01*
X62197989Y-40567692D01*
X62119924Y-40575380D01*
X61855708Y-40601402D01*
X61518385Y-40668500D01*
X61189251Y-40768342D01*
X60871493Y-40899962D01*
X60871488Y-40899964D01*
X60568182Y-41062085D01*
X60568164Y-41062096D01*
X60282206Y-41253167D01*
X60282192Y-41253177D01*
X60016325Y-41471368D01*
X59773134Y-41714559D01*
X59554943Y-41980426D01*
X59554933Y-41980440D01*
X59363862Y-42266398D01*
X59363851Y-42266416D01*
X59201730Y-42569722D01*
X59201728Y-42569727D01*
X59070108Y-42887485D01*
X58970266Y-43216619D01*
X58903168Y-43553942D01*
X58887812Y-43709863D01*
X58869458Y-43896223D01*
X51926850Y-43896223D01*
X51926850Y-43709863D01*
X51893139Y-43367582D01*
X51826040Y-43030254D01*
X51726200Y-42701127D01*
X51594581Y-42383370D01*
X51432450Y-42080045D01*
X51241369Y-41794072D01*
X51023178Y-41528205D01*
X51023177Y-41528204D01*
X51023173Y-41528199D01*
X50779982Y-41285008D01*
X50514115Y-41066817D01*
X50514114Y-41066816D01*
X50514110Y-41066813D01*
X50228137Y-40875732D01*
X50228132Y-40875729D01*
X50228125Y-40875725D01*
X49924819Y-40713604D01*
X49924814Y-40713602D01*
X49607056Y-40581982D01*
X49277922Y-40482140D01*
X48940598Y-40415042D01*
X48940599Y-40415042D01*
X48682806Y-40389653D01*
X48598319Y-40381332D01*
X48254381Y-40381332D01*
X48176316Y-40389020D01*
X47912100Y-40415042D01*
X47574777Y-40482140D01*
X47245643Y-40581982D01*
X46927885Y-40713602D01*
X46927880Y-40713604D01*
X46624574Y-40875725D01*
X46624556Y-40875736D01*
X46338598Y-41066807D01*
X46338584Y-41066817D01*
X46072717Y-41285008D01*
X45829526Y-41528199D01*
X45611335Y-41794066D01*
X45611325Y-41794080D01*
X45420254Y-42080038D01*
X45420243Y-42080056D01*
X45258122Y-42383362D01*
X45258120Y-42383367D01*
X45126500Y-42701125D01*
X45026658Y-43030259D01*
X44959560Y-43367582D01*
X44933538Y-43631798D01*
X44925850Y-43709863D01*
X31647886Y-43709863D01*
X32178026Y-43179723D01*
X32216634Y-43153529D01*
X32642569Y-42970007D01*
X32666173Y-42962530D01*
X32876036Y-42918528D01*
X32992426Y-42873111D01*
X33062033Y-42867080D01*
X33082567Y-42873109D01*
X33198964Y-42918528D01*
X33440315Y-42969134D01*
X33542853Y-42975500D01*
X34282146Y-42975499D01*
X34384685Y-42969134D01*
X34626036Y-42918528D01*
X34626043Y-42918524D01*
X34626047Y-42918524D01*
X34757886Y-42867080D01*
X34855764Y-42828888D01*
X35067606Y-42702658D01*
X35255781Y-42543281D01*
X35415158Y-42355106D01*
X35541388Y-42143264D01*
X35604925Y-41980432D01*
X35631024Y-41913547D01*
X35631024Y-41913543D01*
X35631028Y-41913536D01*
X35681634Y-41672185D01*
X35688000Y-41569647D01*
X35687999Y-40930354D01*
X35681634Y-40827815D01*
X35631028Y-40586464D01*
X35631026Y-40586459D01*
X35631024Y-40586452D01*
X35541389Y-40356739D01*
X35541388Y-40356737D01*
X35541388Y-40356736D01*
X35415158Y-40144894D01*
X35415153Y-40144888D01*
X35255782Y-39956719D01*
X35255780Y-39956717D01*
X35067611Y-39797346D01*
X35067610Y-39797345D01*
X35067606Y-39797342D01*
X34855764Y-39671112D01*
X34855762Y-39671111D01*
X34855760Y-39671110D01*
X34626047Y-39581475D01*
X34626037Y-39581472D01*
X34384687Y-39530866D01*
X34384684Y-39530865D01*
X34304754Y-39525903D01*
X34275311Y-39520452D01*
X33853143Y-39387969D01*
X33802590Y-39357339D01*
X33398079Y-38952828D01*
X33364594Y-38891505D01*
X33361765Y-38866220D01*
X33355573Y-38150486D01*
X33350664Y-38055042D01*
X33350500Y-38048673D01*
X33350500Y-37542168D01*
X33350500Y-37542158D01*
X33344081Y-37438763D01*
X33293050Y-37195386D01*
X33293048Y-37195381D01*
X33293046Y-37195374D01*
X33202657Y-36963730D01*
X33202656Y-36963727D01*
X33075366Y-36750106D01*
X33075363Y-36750103D01*
X33075360Y-36750097D01*
X32914651Y-36560350D01*
X32914649Y-36560348D01*
X32724902Y-36399639D01*
X32724894Y-36399634D01*
X32511273Y-36272344D01*
X32511271Y-36272343D01*
X32511269Y-36272342D01*
X32279625Y-36181953D01*
X32279615Y-36181950D01*
X32036238Y-36130919D01*
X32036235Y-36130918D01*
X31932850Y-36124500D01*
X31932842Y-36124500D01*
X31142158Y-36124500D01*
X31142149Y-36124500D01*
X31038764Y-36130918D01*
X31038761Y-36130919D01*
X30795384Y-36181950D01*
X30795374Y-36181953D01*
X30563730Y-36272342D01*
X30350097Y-36399639D01*
X30160350Y-36560348D01*
X30160348Y-36560350D01*
X29999639Y-36750097D01*
X29872342Y-36963730D01*
X29781953Y-37195374D01*
X29781950Y-37195384D01*
X29730919Y-37438761D01*
X29730918Y-37438764D01*
X29724500Y-37542149D01*
X29724500Y-38957850D01*
X29730918Y-39061235D01*
X29730919Y-39061238D01*
X29781950Y-39304615D01*
X29781953Y-39304625D01*
X29870234Y-39530866D01*
X29872344Y-39536273D01*
X29999634Y-39749894D01*
X29999639Y-39749902D01*
X30160348Y-39939649D01*
X30160350Y-39939651D01*
X30350097Y-40100359D01*
X30350099Y-40100360D01*
X30350106Y-40100366D01*
X30491742Y-40184762D01*
X30539255Y-40235988D01*
X30551531Y-40304771D01*
X30535699Y-40352048D01*
X30535864Y-40352129D01*
X30535257Y-40353369D01*
X30534797Y-40354745D01*
X30533615Y-40356728D01*
X30533611Y-40356737D01*
X30443975Y-40586452D01*
X30443973Y-40586460D01*
X30443972Y-40586464D01*
X30393366Y-40827815D01*
X30393365Y-40827819D01*
X30392446Y-40832206D01*
X30391752Y-40832060D01*
X30386334Y-40852676D01*
X30246052Y-41206786D01*
X30218450Y-41248797D01*
X27512181Y-43955067D01*
X27450858Y-43988552D01*
X27381166Y-43983568D01*
X27325233Y-43941696D01*
X27300816Y-43876232D01*
X27300500Y-43867386D01*
X27300500Y-30878456D01*
X29395500Y-30878456D01*
X29395500Y-31121543D01*
X29395501Y-31121559D01*
X29427230Y-31362569D01*
X29490149Y-31597386D01*
X29583175Y-31821972D01*
X29583182Y-31821987D01*
X29704730Y-32032516D01*
X29852722Y-32225380D01*
X29852730Y-32225389D01*
X30024611Y-32397270D01*
X30024619Y-32397277D01*
X30217483Y-32545269D01*
X30428012Y-32666817D01*
X30428027Y-32666824D01*
X30544171Y-32714932D01*
X30652612Y-32759850D01*
X30887429Y-32822769D01*
X31128450Y-32854500D01*
X31128457Y-32854500D01*
X31371543Y-32854500D01*
X31371550Y-32854500D01*
X31612571Y-32822769D01*
X31847388Y-32759850D01*
X32071984Y-32666819D01*
X32282516Y-32545269D01*
X32475380Y-32397278D01*
X32475384Y-32397273D01*
X32475389Y-32397270D01*
X32647270Y-32225389D01*
X32647273Y-32225384D01*
X32647278Y-32225380D01*
X32795269Y-32032516D01*
X32916819Y-31821984D01*
X33009850Y-31597388D01*
X33072769Y-31362571D01*
X33104500Y-31121550D01*
X33104500Y-30878450D01*
X33072769Y-30637429D01*
X33009850Y-30402612D01*
X32916819Y-30178016D01*
X32819550Y-30009540D01*
X32795269Y-29967483D01*
X32647277Y-29774619D01*
X32647270Y-29774611D01*
X32475389Y-29602730D01*
X32475380Y-29602722D01*
X32282516Y-29454730D01*
X32071987Y-29333182D01*
X32071972Y-29333175D01*
X31847386Y-29240149D01*
X31612569Y-29177230D01*
X31371559Y-29145501D01*
X31371556Y-29145500D01*
X31371550Y-29145500D01*
X31128450Y-29145500D01*
X31128444Y-29145500D01*
X31128440Y-29145501D01*
X30887430Y-29177230D01*
X30652613Y-29240149D01*
X30428027Y-29333175D01*
X30428012Y-29333182D01*
X30217483Y-29454730D01*
X30024619Y-29602722D01*
X29852722Y-29774619D01*
X29704730Y-29967483D01*
X29583182Y-30178012D01*
X29583175Y-30178027D01*
X29490149Y-30402613D01*
X29427230Y-30637430D01*
X29395501Y-30878440D01*
X29395500Y-30878456D01*
X27300500Y-30878456D01*
X27300500Y-30425833D01*
X27320185Y-30358794D01*
X27336819Y-30338152D01*
X30588152Y-27086819D01*
X30649475Y-27053334D01*
X30675833Y-27050500D01*
X65626000Y-27050500D01*
X65693039Y-27070185D01*
G37*
%TD.AperFunction*%
%TD*%
%TA.AperFunction,Conductor*%
%TO.N,OUT-*%
G36*
X175825948Y-71143525D02*
G01*
X175871892Y-71196165D01*
X175882082Y-71265288D01*
X175853284Y-71328947D01*
X175815577Y-71358564D01*
X175687357Y-71423896D01*
X175489923Y-71567339D01*
X175489918Y-71567343D01*
X175317343Y-71739918D01*
X175317339Y-71739923D01*
X175173896Y-71937357D01*
X175063097Y-72154812D01*
X174987678Y-72386927D01*
X174956111Y-72586232D01*
X174949500Y-72627973D01*
X174949500Y-72872027D01*
X174959833Y-72937268D01*
X174986574Y-73106102D01*
X174977619Y-73175396D01*
X174932623Y-73228848D01*
X174865872Y-73249487D01*
X174864101Y-73249500D01*
X174185791Y-73249500D01*
X174185776Y-73249501D01*
X174053586Y-73259904D01*
X174053579Y-73259905D01*
X173835321Y-73314902D01*
X173835318Y-73314903D01*
X173630377Y-73407991D01*
X173630367Y-73407997D01*
X173445354Y-73536174D01*
X173445342Y-73536184D01*
X173286184Y-73695342D01*
X173286174Y-73695354D01*
X173157997Y-73880367D01*
X173157991Y-73880377D01*
X173064903Y-74085318D01*
X173064902Y-74085321D01*
X173009905Y-74303579D01*
X173009904Y-74303586D01*
X172999500Y-74435777D01*
X172999500Y-75364101D01*
X172979815Y-75431140D01*
X172927011Y-75476895D01*
X172857853Y-75486839D01*
X172856102Y-75486574D01*
X172687268Y-75459833D01*
X172622027Y-75449500D01*
X172377973Y-75449500D01*
X172322093Y-75458350D01*
X172136927Y-75487678D01*
X171904812Y-75563097D01*
X171687357Y-75673896D01*
X171489923Y-75817339D01*
X171489918Y-75817343D01*
X171317343Y-75989918D01*
X171317339Y-75989923D01*
X171173896Y-76187357D01*
X171063097Y-76404812D01*
X170987678Y-76636927D01*
X170949500Y-76877973D01*
X170949500Y-77122026D01*
X170987678Y-77363072D01*
X171063097Y-77595187D01*
X171173896Y-77812642D01*
X171317339Y-78010076D01*
X171317343Y-78010081D01*
X171317345Y-78010083D01*
X171489917Y-78182655D01*
X171562440Y-78235346D01*
X171576170Y-78248103D01*
X171608237Y-78268619D01*
X171687361Y-78326106D01*
X171734636Y-78350193D01*
X171745158Y-78356220D01*
X171765770Y-78369408D01*
X172072914Y-78529080D01*
X172078683Y-78532079D01*
X172109168Y-78554419D01*
X173216098Y-79661349D01*
X173228306Y-79683706D01*
X173243897Y-79703859D01*
X173244772Y-79713861D01*
X173249583Y-79722672D01*
X173247765Y-79748082D01*
X173249986Y-79773463D01*
X173244945Y-79787515D01*
X173244599Y-79792364D01*
X173238178Y-79806723D01*
X173237881Y-79807286D01*
X173190308Y-79896382D01*
X173185966Y-79906054D01*
X173184166Y-79909480D01*
X173183666Y-79909995D01*
X173180931Y-79915255D01*
X173171112Y-79931734D01*
X173150068Y-79985665D01*
X173147680Y-79991360D01*
X173119840Y-80053392D01*
X173119836Y-80053404D01*
X173113076Y-80078463D01*
X173108873Y-80091240D01*
X173081475Y-80161452D01*
X173081472Y-80161462D01*
X173030866Y-80402812D01*
X173030865Y-80402816D01*
X173024500Y-80505344D01*
X173024500Y-81169633D01*
X173024501Y-81169656D01*
X173030865Y-81272185D01*
X173081472Y-81513537D01*
X173081475Y-81513547D01*
X173171110Y-81743260D01*
X173171112Y-81743264D01*
X173297342Y-81955106D01*
X173297345Y-81955110D01*
X173297346Y-81955111D01*
X173456717Y-82143280D01*
X173456719Y-82143282D01*
X173554081Y-82225743D01*
X173644894Y-82302658D01*
X173856736Y-82428888D01*
X173856739Y-82428889D01*
X173856744Y-82428891D01*
X174086452Y-82518524D01*
X174086455Y-82518524D01*
X174086464Y-82518528D01*
X174265004Y-82555963D01*
X174283923Y-82561534D01*
X174713611Y-82726206D01*
X174756918Y-82754313D01*
X174963681Y-82961076D01*
X174997166Y-83022399D01*
X175000000Y-83048757D01*
X175000000Y-83649999D01*
X175036640Y-83649999D01*
X175036654Y-83649998D01*
X175137652Y-83639680D01*
X175301300Y-83585453D01*
X175301306Y-83585450D01*
X175395211Y-83527528D01*
X175462603Y-83509087D01*
X175529267Y-83530009D01*
X175547990Y-83545385D01*
X177910181Y-85907576D01*
X177943666Y-85968899D01*
X177946500Y-85995257D01*
X177946500Y-113390942D01*
X177926815Y-113457981D01*
X177910181Y-113478623D01*
X175978624Y-115410181D01*
X175917301Y-115443666D01*
X175890943Y-115446500D01*
X115374000Y-115446500D01*
X115306961Y-115426815D01*
X115261206Y-115374011D01*
X115250000Y-115322500D01*
X115250000Y-114898076D01*
X115269685Y-114831037D01*
X115275624Y-114822590D01*
X115315750Y-114770296D01*
X115429423Y-114622155D01*
X115561526Y-114393346D01*
X115662633Y-114149251D01*
X115731015Y-113894048D01*
X115765500Y-113632103D01*
X115765500Y-113367897D01*
X115731015Y-113105952D01*
X115662633Y-112850749D01*
X115561526Y-112606654D01*
X115429423Y-112377845D01*
X115389246Y-112325486D01*
X115364052Y-112260318D01*
X115378090Y-112191873D01*
X115389247Y-112174513D01*
X115429415Y-112122165D01*
X115429423Y-112122155D01*
X115561526Y-111893346D01*
X115662633Y-111649251D01*
X115731015Y-111394048D01*
X115765500Y-111132103D01*
X115765500Y-110867897D01*
X115731015Y-110605952D01*
X115662633Y-110350749D01*
X115561526Y-110106654D01*
X115429423Y-109877845D01*
X115389246Y-109825486D01*
X115364052Y-109760318D01*
X115378090Y-109691873D01*
X115389247Y-109674513D01*
X115429415Y-109622165D01*
X115429423Y-109622155D01*
X115561526Y-109393346D01*
X115662633Y-109149251D01*
X115731015Y-108894048D01*
X115765500Y-108632103D01*
X115765500Y-108378456D01*
X122895500Y-108378456D01*
X122895500Y-108621543D01*
X122895501Y-108621559D01*
X122927230Y-108862569D01*
X122990149Y-109097386D01*
X123083175Y-109321972D01*
X123083182Y-109321987D01*
X123204730Y-109532516D01*
X123352722Y-109725380D01*
X123352730Y-109725389D01*
X123524611Y-109897270D01*
X123524619Y-109897277D01*
X123717483Y-110045269D01*
X123928012Y-110166817D01*
X123928027Y-110166824D01*
X124044171Y-110214932D01*
X124152612Y-110259850D01*
X124387429Y-110322769D01*
X124628450Y-110354500D01*
X124628457Y-110354500D01*
X124871543Y-110354500D01*
X124871550Y-110354500D01*
X125112571Y-110322769D01*
X125347388Y-110259850D01*
X125571984Y-110166819D01*
X125782516Y-110045269D01*
X125975380Y-109897278D01*
X125975384Y-109897273D01*
X125975389Y-109897270D01*
X126147270Y-109725389D01*
X126147273Y-109725384D01*
X126147278Y-109725380D01*
X126295269Y-109532516D01*
X126416819Y-109321984D01*
X126509850Y-109097388D01*
X126572769Y-108862571D01*
X126604500Y-108621550D01*
X126604500Y-108378450D01*
X126572769Y-108137429D01*
X126509850Y-107902612D01*
X126416819Y-107678016D01*
X126375622Y-107606660D01*
X126295269Y-107467483D01*
X126147277Y-107274619D01*
X126147270Y-107274611D01*
X125975389Y-107102730D01*
X125975380Y-107102722D01*
X125782516Y-106954730D01*
X125571987Y-106833182D01*
X125571972Y-106833175D01*
X125347386Y-106740149D01*
X125112569Y-106677230D01*
X124871559Y-106645501D01*
X124871556Y-106645500D01*
X124871550Y-106645500D01*
X124628450Y-106645500D01*
X124628444Y-106645500D01*
X124628440Y-106645501D01*
X124387430Y-106677230D01*
X124152613Y-106740149D01*
X123928027Y-106833175D01*
X123928012Y-106833182D01*
X123717483Y-106954730D01*
X123524619Y-107102722D01*
X123352722Y-107274619D01*
X123204730Y-107467483D01*
X123083182Y-107678012D01*
X123083175Y-107678027D01*
X122990149Y-107902613D01*
X122927230Y-108137430D01*
X122895501Y-108378440D01*
X122895500Y-108378456D01*
X115765500Y-108378456D01*
X115765500Y-108367897D01*
X115731015Y-108105952D01*
X115662633Y-107850749D01*
X115561526Y-107606654D01*
X115429423Y-107377845D01*
X115389246Y-107325486D01*
X115364052Y-107260318D01*
X115378090Y-107191873D01*
X115389247Y-107174513D01*
X115429415Y-107122165D01*
X115429423Y-107122155D01*
X115561526Y-106893346D01*
X115662633Y-106649251D01*
X115731015Y-106394048D01*
X115765500Y-106132103D01*
X115765500Y-105867897D01*
X115731015Y-105605952D01*
X115662633Y-105350749D01*
X115561526Y-105106654D01*
X115429423Y-104877845D01*
X115389246Y-104825486D01*
X115364052Y-104760318D01*
X115378090Y-104691873D01*
X115389247Y-104674513D01*
X115429415Y-104622165D01*
X115429423Y-104622155D01*
X115561526Y-104393346D01*
X115662633Y-104149251D01*
X115731015Y-103894048D01*
X115765500Y-103632103D01*
X115765500Y-103367897D01*
X115731015Y-103105952D01*
X115662633Y-102850749D01*
X115561526Y-102606654D01*
X115429423Y-102377845D01*
X115417005Y-102361661D01*
X115275624Y-102177409D01*
X115250430Y-102112240D01*
X115250000Y-102101923D01*
X115250000Y-94509842D01*
X136365847Y-94509842D01*
X136365847Y-94853773D01*
X136399557Y-95196057D01*
X136466655Y-95533380D01*
X136566497Y-95862514D01*
X136698117Y-96180272D01*
X136698119Y-96180277D01*
X136860240Y-96483583D01*
X136860251Y-96483601D01*
X137051322Y-96769559D01*
X137051332Y-96769573D01*
X137269523Y-97035440D01*
X137512714Y-97278631D01*
X137512719Y-97278635D01*
X137512720Y-97278636D01*
X137778587Y-97496827D01*
X138064560Y-97687908D01*
X138064569Y-97687913D01*
X138064571Y-97687914D01*
X138367877Y-97850035D01*
X138367879Y-97850035D01*
X138367885Y-97850039D01*
X138685642Y-97981658D01*
X139014769Y-98081498D01*
X139352097Y-98148597D01*
X139694378Y-98182308D01*
X139694381Y-98182308D01*
X140038313Y-98182308D01*
X140038316Y-98182308D01*
X140380597Y-98148597D01*
X140717925Y-98081498D01*
X141047052Y-97981658D01*
X141364809Y-97850039D01*
X141668134Y-97687908D01*
X141954107Y-97496827D01*
X142219974Y-97278636D01*
X142463175Y-97035435D01*
X142681366Y-96769568D01*
X142872447Y-96483595D01*
X143034578Y-96180270D01*
X143166197Y-95862513D01*
X143266037Y-95533386D01*
X143333136Y-95196058D01*
X143366847Y-94853777D01*
X143366847Y-94696202D01*
X150309455Y-94696202D01*
X150309455Y-95040133D01*
X150343165Y-95382417D01*
X150410263Y-95719740D01*
X150510105Y-96048874D01*
X150641725Y-96366632D01*
X150641727Y-96366637D01*
X150803848Y-96669943D01*
X150803859Y-96669961D01*
X150994930Y-96955919D01*
X150994940Y-96955933D01*
X151213131Y-97221800D01*
X151456322Y-97464991D01*
X151456327Y-97464995D01*
X151456328Y-97464996D01*
X151722195Y-97683187D01*
X152008168Y-97874268D01*
X152008177Y-97874273D01*
X152008179Y-97874274D01*
X152311485Y-98036395D01*
X152311487Y-98036395D01*
X152311493Y-98036399D01*
X152629250Y-98168018D01*
X152958377Y-98267858D01*
X153295705Y-98334957D01*
X153637986Y-98368668D01*
X153637989Y-98368668D01*
X153981921Y-98368668D01*
X153981924Y-98368668D01*
X154324205Y-98334957D01*
X154661533Y-98267858D01*
X154990660Y-98168018D01*
X155308417Y-98036399D01*
X155611742Y-97874268D01*
X155897715Y-97683187D01*
X156163582Y-97464996D01*
X156406783Y-97221795D01*
X156624974Y-96955928D01*
X156816055Y-96669955D01*
X156978186Y-96366630D01*
X157109805Y-96048873D01*
X157209645Y-95719746D01*
X157276744Y-95382418D01*
X157310455Y-95040137D01*
X157310455Y-94696199D01*
X157276744Y-94353918D01*
X157209645Y-94016590D01*
X157109805Y-93687463D01*
X157028372Y-93490866D01*
X161810500Y-93490866D01*
X161810500Y-93665517D01*
X161836588Y-93830230D01*
X161837819Y-93838001D01*
X161891786Y-94004092D01*
X161971070Y-94159697D01*
X162073721Y-94300983D01*
X162197209Y-94424471D01*
X162338495Y-94527122D01*
X162494100Y-94606406D01*
X162660191Y-94660373D01*
X162746435Y-94674032D01*
X162832675Y-94687692D01*
X162832680Y-94687692D01*
X163007325Y-94687692D01*
X163085724Y-94675274D01*
X163179809Y-94660373D01*
X163345900Y-94606406D01*
X163501505Y-94527122D01*
X163642791Y-94424471D01*
X163766279Y-94300983D01*
X163868930Y-94159697D01*
X163948214Y-94004092D01*
X164002181Y-93838001D01*
X164017082Y-93743916D01*
X164029500Y-93665517D01*
X164029500Y-93490866D01*
X164014598Y-93396787D01*
X164002181Y-93318383D01*
X163948214Y-93152292D01*
X163868930Y-92996687D01*
X163766279Y-92855401D01*
X163642791Y-92731913D01*
X163501505Y-92629262D01*
X163345900Y-92549978D01*
X163179809Y-92496011D01*
X163179803Y-92496010D01*
X163007325Y-92468692D01*
X163007320Y-92468692D01*
X162832680Y-92468692D01*
X162832675Y-92468692D01*
X162660196Y-92496010D01*
X162660194Y-92496010D01*
X162660191Y-92496011D01*
X162494100Y-92549978D01*
X162494097Y-92549979D01*
X162494095Y-92549980D01*
X162338494Y-92629262D01*
X162197207Y-92731914D01*
X162073722Y-92855399D01*
X161971070Y-92996686D01*
X161891788Y-93152287D01*
X161891787Y-93152289D01*
X161891786Y-93152292D01*
X161837819Y-93318383D01*
X161837818Y-93318386D01*
X161837818Y-93318388D01*
X161810500Y-93490866D01*
X157028372Y-93490866D01*
X156978186Y-93369706D01*
X156816055Y-93066381D01*
X156624974Y-92780408D01*
X156406783Y-92514541D01*
X156406782Y-92514540D01*
X156406778Y-92514535D01*
X156163587Y-92271344D01*
X155897720Y-92053153D01*
X155897719Y-92053152D01*
X155897715Y-92053149D01*
X155618807Y-91866789D01*
X155611748Y-91862072D01*
X155611747Y-91862071D01*
X155611742Y-91862068D01*
X155611737Y-91862065D01*
X155611730Y-91862061D01*
X155308424Y-91699940D01*
X155308419Y-91699938D01*
X155249932Y-91675712D01*
X155215349Y-91661387D01*
X154990661Y-91568318D01*
X154661527Y-91468476D01*
X154324203Y-91401378D01*
X154324204Y-91401378D01*
X154066411Y-91375989D01*
X153981924Y-91367668D01*
X153637986Y-91367668D01*
X153559921Y-91375356D01*
X153295705Y-91401378D01*
X152958382Y-91468476D01*
X152629248Y-91568318D01*
X152311490Y-91699938D01*
X152311485Y-91699940D01*
X152008179Y-91862061D01*
X152008161Y-91862072D01*
X151722203Y-92053143D01*
X151722189Y-92053153D01*
X151456322Y-92271344D01*
X151213131Y-92514535D01*
X150994940Y-92780402D01*
X150994930Y-92780416D01*
X150803859Y-93066374D01*
X150803848Y-93066392D01*
X150641727Y-93369698D01*
X150641725Y-93369703D01*
X150510105Y-93687461D01*
X150410263Y-94016595D01*
X150343165Y-94353918D01*
X150336217Y-94424469D01*
X150312984Y-94660373D01*
X150309455Y-94696202D01*
X143366847Y-94696202D01*
X143366847Y-94509839D01*
X143333136Y-94167558D01*
X143266037Y-93830230D01*
X143166197Y-93501103D01*
X143034578Y-93183346D01*
X143017979Y-93152292D01*
X142872453Y-92880032D01*
X142872452Y-92880030D01*
X142872447Y-92880021D01*
X142681366Y-92594048D01*
X142463175Y-92328181D01*
X142463174Y-92328180D01*
X142463170Y-92328175D01*
X142219979Y-92084984D01*
X141954112Y-91866793D01*
X141954111Y-91866792D01*
X141954107Y-91866789D01*
X141668134Y-91675708D01*
X141668129Y-91675705D01*
X141668122Y-91675701D01*
X141364816Y-91513580D01*
X141364811Y-91513578D01*
X141047053Y-91381958D01*
X140717919Y-91282116D01*
X140380595Y-91215018D01*
X140380596Y-91215018D01*
X140122803Y-91189629D01*
X140038316Y-91181308D01*
X139694378Y-91181308D01*
X139616313Y-91188996D01*
X139352097Y-91215018D01*
X139014774Y-91282116D01*
X138685640Y-91381958D01*
X138367882Y-91513578D01*
X138367877Y-91513580D01*
X138064571Y-91675701D01*
X138064553Y-91675712D01*
X137778595Y-91866783D01*
X137778581Y-91866793D01*
X137512714Y-92084984D01*
X137269523Y-92328175D01*
X137051332Y-92594042D01*
X137051322Y-92594056D01*
X136860251Y-92880014D01*
X136860240Y-92880032D01*
X136698119Y-93183338D01*
X136698117Y-93183343D01*
X136566497Y-93501101D01*
X136466655Y-93830235D01*
X136399557Y-94167558D01*
X136365847Y-94509842D01*
X115250000Y-94509842D01*
X115250000Y-82961654D01*
X173775001Y-82961654D01*
X173785319Y-83062652D01*
X173839546Y-83226300D01*
X173839551Y-83226311D01*
X173930052Y-83373034D01*
X173930055Y-83373038D01*
X174051961Y-83494944D01*
X174051965Y-83494947D01*
X174198688Y-83585448D01*
X174198699Y-83585453D01*
X174362347Y-83639680D01*
X174463352Y-83649999D01*
X174500000Y-83649999D01*
X174500000Y-82912500D01*
X173775001Y-82912500D01*
X173775001Y-82961654D01*
X115250000Y-82961654D01*
X115250000Y-71463742D01*
X115269685Y-71396703D01*
X115322489Y-71350948D01*
X115373553Y-71339743D01*
X142361453Y-71243358D01*
X142428558Y-71262802D01*
X142474502Y-71315442D01*
X142485892Y-71367356D01*
X142485892Y-71845795D01*
X142485893Y-71845810D01*
X142496296Y-71978000D01*
X142496297Y-71978007D01*
X142551294Y-72196265D01*
X142551295Y-72196268D01*
X142644383Y-72401209D01*
X142644389Y-72401219D01*
X142772566Y-72586232D01*
X142772570Y-72586237D01*
X142772573Y-72586241D01*
X142931738Y-72745406D01*
X142931742Y-72745409D01*
X142931746Y-72745412D01*
X143070995Y-72841884D01*
X143116766Y-72873594D01*
X143321709Y-72966683D01*
X143321710Y-72966683D01*
X143321711Y-72966684D01*
X143340212Y-72971346D01*
X143400410Y-73006815D01*
X143431875Y-73069198D01*
X143424618Y-73138690D01*
X143380943Y-73193227D01*
X143340212Y-73211828D01*
X143321711Y-73216489D01*
X143321710Y-73216490D01*
X143116769Y-73309578D01*
X143116759Y-73309584D01*
X142931746Y-73437761D01*
X142931734Y-73437771D01*
X142772576Y-73596929D01*
X142772566Y-73596941D01*
X142644389Y-73781954D01*
X142644383Y-73781964D01*
X142551295Y-73986905D01*
X142551294Y-73986908D01*
X142496297Y-74205166D01*
X142496296Y-74205173D01*
X142485892Y-74337364D01*
X142485892Y-79465795D01*
X142485893Y-79465810D01*
X142496296Y-79598000D01*
X142496297Y-79598007D01*
X142551294Y-79816265D01*
X142551295Y-79816268D01*
X142644383Y-80021209D01*
X142644389Y-80021219D01*
X142772566Y-80206232D01*
X142772570Y-80206237D01*
X142772573Y-80206241D01*
X142931738Y-80365406D01*
X142931742Y-80365409D01*
X142931746Y-80365412D01*
X142985736Y-80402816D01*
X143116766Y-80493594D01*
X143321709Y-80586683D01*
X143321713Y-80586684D01*
X143539971Y-80641681D01*
X143539973Y-80641681D01*
X143539980Y-80641683D01*
X143672175Y-80652087D01*
X150300608Y-80652086D01*
X150432804Y-80641683D01*
X150651075Y-80586683D01*
X150856018Y-80493594D01*
X151041046Y-80365406D01*
X151200211Y-80206241D01*
X151328399Y-80021213D01*
X151421488Y-79816270D01*
X151476488Y-79597999D01*
X151486892Y-79465804D01*
X151486891Y-74337371D01*
X151476488Y-74205175D01*
X151453517Y-74114015D01*
X151421489Y-73986908D01*
X151421488Y-73986905D01*
X151420532Y-73984801D01*
X151328399Y-73781961D01*
X151276406Y-73706914D01*
X151200217Y-73596941D01*
X151200214Y-73596937D01*
X151200211Y-73596933D01*
X151041046Y-73437768D01*
X151041042Y-73437765D01*
X151041037Y-73437761D01*
X150856024Y-73309584D01*
X150856022Y-73309582D01*
X150856018Y-73309580D01*
X150856014Y-73309578D01*
X150651077Y-73216491D01*
X150640670Y-73213869D01*
X150632570Y-73211828D01*
X150572374Y-73176360D01*
X150540908Y-73113977D01*
X150548164Y-73044485D01*
X150591839Y-72989948D01*
X150632570Y-72971345D01*
X150651075Y-72966683D01*
X150856018Y-72873594D01*
X151041046Y-72745406D01*
X151200211Y-72586241D01*
X151328399Y-72401213D01*
X151421488Y-72196270D01*
X151476488Y-71977999D01*
X151486892Y-71845804D01*
X151486891Y-71334320D01*
X151506575Y-71267285D01*
X151559379Y-71221530D01*
X151610442Y-71210326D01*
X157185871Y-71190413D01*
X157252978Y-71209858D01*
X157298694Y-71262007D01*
X157404199Y-71488262D01*
X157404207Y-71488278D01*
X157600695Y-71828604D01*
X157600704Y-71828619D01*
X157826115Y-72150539D01*
X158018793Y-72380163D01*
X158078722Y-72451583D01*
X158356609Y-72729470D01*
X158375601Y-72745406D01*
X158657657Y-72982080D01*
X158844795Y-73113115D01*
X158888420Y-73167692D01*
X158895614Y-73237190D01*
X158864091Y-73299545D01*
X158844796Y-73316264D01*
X158647659Y-73454301D01*
X158346606Y-73706916D01*
X158068724Y-73984798D01*
X157816115Y-74285844D01*
X157590704Y-74607764D01*
X157590695Y-74607779D01*
X157394207Y-74948105D01*
X157394195Y-74948129D01*
X157228124Y-75304270D01*
X157133509Y-75564222D01*
X157093707Y-75673576D01*
X157087588Y-75696413D01*
X156991993Y-76053175D01*
X156991991Y-76053186D01*
X156923751Y-76440192D01*
X156923751Y-76440196D01*
X156889500Y-76831691D01*
X156889500Y-77224692D01*
X156923751Y-77616187D01*
X156923751Y-77616191D01*
X156991991Y-78003197D01*
X156991993Y-78003208D01*
X156993835Y-78010081D01*
X157093707Y-78382808D01*
X157226667Y-78748112D01*
X157228124Y-78752113D01*
X157394195Y-79108254D01*
X157394207Y-79108278D01*
X157590695Y-79448604D01*
X157590704Y-79448619D01*
X157816115Y-79770539D01*
X157951376Y-79931736D01*
X158068722Y-80071583D01*
X158346609Y-80349470D01*
X158453738Y-80439362D01*
X158647652Y-80602076D01*
X158647658Y-80602080D01*
X158647659Y-80602081D01*
X158969579Y-80827492D01*
X159309920Y-81023988D01*
X159309934Y-81023994D01*
X159309937Y-81023996D01*
X159666078Y-81190067D01*
X159666083Y-81190068D01*
X159666092Y-81190073D01*
X160035384Y-81324485D01*
X160414985Y-81426199D01*
X160802007Y-81494441D01*
X161193502Y-81528691D01*
X161193503Y-81528692D01*
X161193504Y-81528692D01*
X161586497Y-81528692D01*
X161586497Y-81528691D01*
X161977993Y-81494441D01*
X162365015Y-81426199D01*
X162744616Y-81324485D01*
X163113908Y-81190073D01*
X163470080Y-81023988D01*
X163810421Y-80827492D01*
X164132341Y-80602081D01*
X164433391Y-80349470D01*
X164711278Y-80071583D01*
X164963889Y-79770533D01*
X165189300Y-79448613D01*
X165385796Y-79108272D01*
X165551881Y-78752100D01*
X165686293Y-78382808D01*
X165788007Y-78003207D01*
X165856249Y-77616185D01*
X165890500Y-77224688D01*
X165890500Y-76831696D01*
X165856249Y-76440199D01*
X165850009Y-76404812D01*
X165811666Y-76187357D01*
X165788007Y-76053177D01*
X165686293Y-75673576D01*
X165551881Y-75304284D01*
X165551876Y-75304275D01*
X165551875Y-75304270D01*
X165385804Y-74948129D01*
X165385792Y-74948105D01*
X165373455Y-74926738D01*
X165189300Y-74607771D01*
X164963889Y-74285851D01*
X164963888Y-74285850D01*
X164963884Y-74285844D01*
X164713043Y-73986905D01*
X164711278Y-73984801D01*
X164433391Y-73706914D01*
X164349941Y-73636891D01*
X164132342Y-73454303D01*
X163945204Y-73323268D01*
X163901579Y-73268691D01*
X163894385Y-73199193D01*
X163925908Y-73136838D01*
X163945204Y-73120118D01*
X164070925Y-73032087D01*
X164142341Y-72982081D01*
X164443391Y-72729470D01*
X164721278Y-72451583D01*
X164970296Y-72154815D01*
X164973884Y-72150539D01*
X164973884Y-72150538D01*
X164973889Y-72150533D01*
X165199300Y-71828613D01*
X165395796Y-71488272D01*
X165515364Y-71231854D01*
X165561533Y-71179419D01*
X165627294Y-71160265D01*
X175758844Y-71124081D01*
X175825948Y-71143525D01*
G37*
%TD.AperFunction*%
%TD*%
%TA.AperFunction,Conductor*%
%TO.N,/SC*%
G36*
X178748287Y-72047306D02*
G01*
X178754545Y-72053499D01*
X179171143Y-73025561D01*
X179171252Y-73034515D01*
X179168662Y-73038443D01*
X179038443Y-73168662D01*
X179030170Y-73172089D01*
X179025561Y-73171143D01*
X178053499Y-72754545D01*
X178047245Y-72748136D01*
X178047290Y-72739333D01*
X178247437Y-72253794D01*
X178253757Y-72247452D01*
X178739333Y-72047291D01*
X178748287Y-72047306D01*
G37*
%TD.AperFunction*%
%TD*%
%TA.AperFunction,Conductor*%
%TO.N,/SC*%
G36*
X99069039Y-111854499D02*
G01*
X99073603Y-111860446D01*
X99459840Y-112993873D01*
X99459265Y-113002809D01*
X99457038Y-113005920D01*
X99325920Y-113137038D01*
X99317647Y-113140465D01*
X99313873Y-113139840D01*
X98180446Y-112753603D01*
X98173720Y-112747690D01*
X98172742Y-112740258D01*
X98317772Y-112006978D01*
X98322739Y-111999529D01*
X98326977Y-111997773D01*
X99060258Y-111852742D01*
X99069039Y-111854499D01*
G37*
%TD.AperFunction*%
%TD*%
%TA.AperFunction,Conductor*%
%TO.N,/SNS+*%
G36*
X93989039Y-111854499D02*
G01*
X93993603Y-111860446D01*
X94379840Y-112993873D01*
X94379265Y-113002809D01*
X94377038Y-113005920D01*
X94245920Y-113137038D01*
X94237647Y-113140465D01*
X94233873Y-113139840D01*
X93100446Y-112753603D01*
X93093720Y-112747690D01*
X93092742Y-112740258D01*
X93237772Y-112006978D01*
X93242739Y-111999529D01*
X93246977Y-111997773D01*
X93980258Y-111852742D01*
X93989039Y-111854499D01*
G37*
%TD.AperFunction*%
%TD*%
%TA.AperFunction,Conductor*%
%TO.N,/SNS+*%
G36*
X175248287Y-63297306D02*
G01*
X175254545Y-63303499D01*
X175671143Y-64275561D01*
X175671252Y-64284515D01*
X175668662Y-64288443D01*
X175538443Y-64418662D01*
X175530170Y-64422089D01*
X175525561Y-64421143D01*
X174553499Y-64004545D01*
X174547245Y-63998136D01*
X174547290Y-63989333D01*
X174747437Y-63503794D01*
X174753757Y-63497452D01*
X175239333Y-63297291D01*
X175248287Y-63297306D01*
G37*
%TD.AperFunction*%
%TD*%
%TA.AperFunction,Conductor*%
%TO.N,/SNS+*%
G36*
X175004344Y-63344116D02*
G01*
X175005193Y-63345626D01*
X175077080Y-63499293D01*
X175196791Y-63755193D01*
X175237422Y-63842046D01*
X175237823Y-63850992D01*
X175235097Y-63855277D01*
X175105277Y-63985097D01*
X175097004Y-63988524D01*
X175092047Y-63987422D01*
X174941428Y-63916961D01*
X174595626Y-63755193D01*
X174589585Y-63748583D01*
X174589986Y-63739637D01*
X174590835Y-63738127D01*
X174747985Y-63501263D01*
X174751263Y-63497985D01*
X174988127Y-63340834D01*
X174996915Y-63339116D01*
X175004344Y-63344116D01*
G37*
%TD.AperFunction*%
%TD*%
%TA.AperFunction,Conductor*%
%TO.N,OUT-*%
G36*
X179956699Y-49193191D02*
G01*
X179959583Y-49197940D01*
X180122315Y-49713062D01*
X180121539Y-49721983D01*
X180114682Y-49727743D01*
X180113478Y-49728054D01*
X179834320Y-49784530D01*
X179829680Y-49784530D01*
X179596553Y-49737366D01*
X179550520Y-49728053D01*
X179543092Y-49723054D01*
X179541373Y-49714266D01*
X179541680Y-49713075D01*
X179704417Y-49197939D01*
X179710177Y-49191083D01*
X179715574Y-49189764D01*
X179948426Y-49189764D01*
X179956699Y-49193191D01*
G37*
%TD.AperFunction*%
%TD*%
%TA.AperFunction,Conductor*%
%TO.N,OUT-*%
G36*
X173273753Y-41107150D02*
G01*
X173278873Y-41113026D01*
X173523114Y-41729556D01*
X173596898Y-41915805D01*
X173596759Y-41924759D01*
X173594293Y-41928387D01*
X173428565Y-42094115D01*
X173420292Y-42097542D01*
X173415662Y-42096587D01*
X172563823Y-41729556D01*
X172557581Y-41723135D01*
X172557635Y-41714354D01*
X172747115Y-41254576D01*
X172753434Y-41248235D01*
X172754793Y-41247765D01*
X173264866Y-41106063D01*
X173273753Y-41107150D01*
G37*
%TD.AperFunction*%
%TD*%
%TA.AperFunction,Conductor*%
%TO.N,IN-*%
G36*
X28166299Y-45840391D02*
G01*
X28169183Y-45845140D01*
X28331915Y-46360262D01*
X28331139Y-46369183D01*
X28324282Y-46374943D01*
X28323078Y-46375254D01*
X28043920Y-46431730D01*
X28039280Y-46431730D01*
X27806153Y-46384566D01*
X27760120Y-46375253D01*
X27752692Y-46370254D01*
X27750973Y-46361466D01*
X27751280Y-46360275D01*
X27914017Y-45845139D01*
X27919777Y-45838283D01*
X27925174Y-45836964D01*
X28158026Y-45836964D01*
X28166299Y-45840391D01*
G37*
%TD.AperFunction*%
%TD*%
%TA.AperFunction,Conductor*%
%TO.N,IN-*%
G36*
X32157700Y-41247763D02*
G01*
X32164754Y-41253279D01*
X32165385Y-41254578D01*
X32354863Y-41714353D01*
X32354847Y-41723308D01*
X32348676Y-41729556D01*
X31496837Y-42096587D01*
X31487883Y-42096714D01*
X31483934Y-42094115D01*
X31318206Y-41928387D01*
X31314779Y-41920114D01*
X31315599Y-41915811D01*
X31633626Y-41113025D01*
X31639858Y-41106597D01*
X31647633Y-41106063D01*
X32157700Y-41247763D01*
G37*
%TD.AperFunction*%
%TD*%
%TA.AperFunction,Conductor*%
%TO.N,/SC*%
G36*
X177759359Y-71947110D02*
G01*
X178246863Y-72247451D01*
X178252109Y-72254708D01*
X178252114Y-72254726D01*
X178365830Y-72736861D01*
X178364393Y-72745700D01*
X178357128Y-72750935D01*
X178355483Y-72751201D01*
X177262741Y-72848861D01*
X177254196Y-72846184D01*
X177250046Y-72838248D01*
X177250000Y-72837207D01*
X177250000Y-72653711D01*
X177252139Y-72646967D01*
X177743663Y-71950325D01*
X177751232Y-71945542D01*
X177759359Y-71947110D01*
G37*
%TD.AperFunction*%
%TD*%
%TA.AperFunction,Conductor*%
%TO.N,/PC*%
G36*
X54760420Y-61799843D02*
G01*
X54761131Y-61801560D01*
X55748081Y-64848888D01*
X55747370Y-64857815D01*
X55746157Y-64859713D01*
X54853513Y-65998062D01*
X54845711Y-66002457D01*
X54844306Y-66002542D01*
X54655694Y-66002542D01*
X54647421Y-65999115D01*
X54646487Y-65998062D01*
X53753842Y-64859713D01*
X53751434Y-64851088D01*
X53751915Y-64848897D01*
X54738869Y-61801559D01*
X54744678Y-61794745D01*
X54753605Y-61794034D01*
X54760420Y-61799843D01*
G37*
%TD.AperFunction*%
%TD*%
%TA.AperFunction,Conductor*%
%TO.N,/PC*%
G36*
X30008109Y-64506082D02*
G01*
X30495320Y-64871490D01*
X30499882Y-64879195D01*
X30500000Y-64880850D01*
X30500000Y-65119150D01*
X30496573Y-65127423D01*
X30495320Y-65128510D01*
X30008109Y-65493917D01*
X29999434Y-65496139D01*
X29992824Y-65492838D01*
X29618388Y-65119150D01*
X29507296Y-65008280D01*
X29503862Y-65000012D01*
X29507280Y-64991735D01*
X29992825Y-64507160D01*
X30001101Y-64503742D01*
X30008109Y-64506082D01*
G37*
%TD.AperFunction*%
%TD*%
%TA.AperFunction,Conductor*%
%TO.N,/PC*%
G36*
X40794288Y-61680112D02*
G01*
X40794821Y-61689051D01*
X40794495Y-61689887D01*
X39722545Y-64157125D01*
X39716105Y-64163348D01*
X39716077Y-64163359D01*
X37694798Y-64954293D01*
X37685845Y-64954116D01*
X37682262Y-64951670D01*
X37515869Y-64785277D01*
X37512442Y-64777004D01*
X37512954Y-64773581D01*
X37699654Y-64163359D01*
X38054901Y-63002244D01*
X38060597Y-62995338D01*
X38060918Y-62995174D01*
X40778653Y-61674700D01*
X40787590Y-61674168D01*
X40794288Y-61680112D01*
G37*
%TD.AperFunction*%
%TD*%
%TA.AperFunction,Conductor*%
%TO.N,/PC*%
G36*
X51669204Y-60770079D02*
G01*
X54716631Y-61757061D01*
X54723446Y-61762870D01*
X54724157Y-61771797D01*
X54718348Y-61778612D01*
X54716631Y-61779323D01*
X51669204Y-62766304D01*
X51660277Y-62765593D01*
X51658506Y-62764477D01*
X50520257Y-61896704D01*
X50515755Y-61888963D01*
X50515650Y-61887400D01*
X50515650Y-61648983D01*
X50519077Y-61640710D01*
X50520250Y-61639684D01*
X51658506Y-60771905D01*
X51667162Y-60769615D01*
X51669204Y-60770079D01*
G37*
%TD.AperFunction*%
%TD*%
%TA.AperFunction,Conductor*%
%TO.N,/PC*%
G36*
X44559243Y-60748332D02*
G01*
X44560985Y-60749625D01*
X45552508Y-61639705D01*
X45556375Y-61647782D01*
X45556392Y-61648412D01*
X45556392Y-61887793D01*
X45552965Y-61896066D01*
X45552284Y-61896695D01*
X44561184Y-62741917D01*
X44552665Y-62744678D01*
X44550343Y-62744255D01*
X40847562Y-61673778D01*
X40840566Y-61668188D01*
X40839571Y-61659289D01*
X40845161Y-61652293D01*
X40848031Y-61651173D01*
X44550395Y-60746966D01*
X44559243Y-60748332D01*
G37*
%TD.AperFunction*%
%TD*%
%TA.AperFunction,Conductor*%
%TO.N,/PC*%
G36*
X88168266Y-112007277D02*
G01*
X88857067Y-112696978D01*
X88917295Y-112757285D01*
X88920716Y-112765561D01*
X88917846Y-112773229D01*
X88263498Y-113525976D01*
X88255484Y-113529971D01*
X88254668Y-113530000D01*
X88065332Y-113530000D01*
X88057059Y-113526573D01*
X88056502Y-113525976D01*
X87402153Y-112773229D01*
X87399312Y-112764737D01*
X87402703Y-112757286D01*
X88151722Y-112007288D01*
X88159992Y-112003857D01*
X88168266Y-112007277D01*
G37*
%TD.AperFunction*%
%TD*%
%TA.AperFunction,Conductor*%
%TO.N,/SNS-*%
G36*
X174876257Y-79878427D02*
G01*
X174878305Y-79881189D01*
X175202189Y-80487752D01*
X175203063Y-80496664D01*
X175198877Y-80502631D01*
X174757009Y-80833255D01*
X174748332Y-80835468D01*
X174742991Y-80833255D01*
X174301122Y-80502631D01*
X174296550Y-80494931D01*
X174297810Y-80487752D01*
X174621695Y-79881189D01*
X174628615Y-79875505D01*
X174632016Y-79875000D01*
X174867984Y-79875000D01*
X174876257Y-79878427D01*
G37*
%TD.AperFunction*%
%TD*%
%TA.AperFunction,Conductor*%
%TO.N,/SNS-*%
G36*
X172754812Y-76843805D02*
G01*
X172755444Y-76844876D01*
X173004621Y-77324191D01*
X173005397Y-77333112D01*
X173002513Y-77337861D01*
X172837861Y-77502513D01*
X172829588Y-77505940D01*
X172824191Y-77504621D01*
X172344876Y-77255444D01*
X172339116Y-77248587D01*
X172339892Y-77239666D01*
X172340516Y-77238607D01*
X172497985Y-77001263D01*
X172501263Y-76997985D01*
X172738596Y-76840523D01*
X172747383Y-76838805D01*
X172754812Y-76843805D01*
G37*
%TD.AperFunction*%
%TD*%
%TA.AperFunction,Conductor*%
%TO.N,Net-(D1-A)*%
G36*
X33171274Y-40489858D02*
G01*
X34068366Y-40771379D01*
X34075234Y-40777126D01*
X34076026Y-40786045D01*
X34075905Y-40786411D01*
X33915059Y-41245420D01*
X33909089Y-41252095D01*
X33907927Y-41252578D01*
X33397113Y-41433688D01*
X33388170Y-41433223D01*
X33382813Y-41428039D01*
X32991668Y-40672112D01*
X32990910Y-40663190D01*
X32993785Y-40658465D01*
X33159502Y-40492748D01*
X33167774Y-40489322D01*
X33171274Y-40489858D01*
G37*
%TD.AperFunction*%
%TD*%
%TA.AperFunction,Conductor*%
%TO.N,Net-(D1-A)*%
G36*
X32095089Y-38151837D02*
G01*
X32099933Y-38159368D01*
X32100120Y-38161349D01*
X32111092Y-39429454D01*
X32107736Y-39437756D01*
X32107665Y-39437828D01*
X31941443Y-39604050D01*
X31933170Y-39607477D01*
X31926269Y-39605225D01*
X31275621Y-39129909D01*
X31270963Y-39122262D01*
X31271336Y-39117039D01*
X31534707Y-38256111D01*
X31540403Y-38249205D01*
X31543806Y-38248025D01*
X32086338Y-38149937D01*
X32095089Y-38151837D01*
G37*
%TD.AperFunction*%
%TD*%
%TA.AperFunction,Conductor*%
%TO.N,Net-(D2-A)*%
G36*
X174626704Y-40303427D02*
G01*
X174628420Y-40305608D01*
X174969616Y-40865013D01*
X174970998Y-40873860D01*
X174966902Y-40880268D01*
X174507275Y-41245223D01*
X174498665Y-41247684D01*
X174492725Y-41245223D01*
X174033097Y-40880268D01*
X174028748Y-40872440D01*
X174030383Y-40865013D01*
X174371580Y-40305608D01*
X174378814Y-40300329D01*
X174381569Y-40300000D01*
X174618431Y-40300000D01*
X174626704Y-40303427D01*
G37*
%TD.AperFunction*%
%TD*%
%TA.AperFunction,Conductor*%
%TO.N,Net-(D2-A)*%
G36*
X175071289Y-38261320D02*
G01*
X175074457Y-38264953D01*
X175521016Y-39064123D01*
X175522060Y-39073017D01*
X175519618Y-39077522D01*
X174983077Y-39692495D01*
X174975056Y-39696476D01*
X174966569Y-39693619D01*
X174965988Y-39693076D01*
X174799415Y-39526503D01*
X174797218Y-39523452D01*
X174524762Y-38977153D01*
X174524137Y-38968221D01*
X174525890Y-38964890D01*
X175054904Y-38263613D01*
X175062621Y-38259073D01*
X175071289Y-38261320D01*
G37*
%TD.AperFunction*%
%TD*%
%TA.AperFunction,Conductor*%
%TO.N,/SNS+*%
G36*
X172837861Y-61247486D02*
G01*
X173002513Y-61412138D01*
X173005940Y-61420411D01*
X173004621Y-61425808D01*
X172755444Y-61905123D01*
X172748587Y-61910883D01*
X172739666Y-61910107D01*
X172738595Y-61909475D01*
X172501265Y-61752015D01*
X172497984Y-61748734D01*
X172340524Y-61511404D01*
X172338805Y-61502616D01*
X172343805Y-61495187D01*
X172344859Y-61494564D01*
X172824193Y-61245377D01*
X172833112Y-61244602D01*
X172837861Y-61247486D01*
G37*
%TD.AperFunction*%
%TD*%
%TA.AperFunction,Conductor*%
%TO.N,/SNS+*%
G36*
X174757007Y-56916743D02*
G01*
X175198877Y-57247368D01*
X175203449Y-57255068D01*
X175202189Y-57262247D01*
X174878305Y-57868811D01*
X174871385Y-57874495D01*
X174867984Y-57875000D01*
X174632016Y-57875000D01*
X174623743Y-57871573D01*
X174621695Y-57868811D01*
X174297810Y-57262247D01*
X174296936Y-57253335D01*
X174301120Y-57247369D01*
X174742991Y-56916743D01*
X174751668Y-56914531D01*
X174757007Y-56916743D01*
G37*
%TD.AperFunction*%
%TD*%
%TA.AperFunction,Conductor*%
%TO.N,/SNS-*%
G36*
X175222948Y-80645299D02*
G01*
X175229268Y-80651642D01*
X175229344Y-80651829D01*
X175564235Y-81505981D01*
X175564064Y-81514934D01*
X175561615Y-81518525D01*
X175430979Y-81649161D01*
X175422706Y-81652588D01*
X175418519Y-81651813D01*
X174576604Y-81329160D01*
X174570105Y-81323000D01*
X174569839Y-81314118D01*
X174747503Y-80841552D01*
X174753621Y-80835016D01*
X174753954Y-80834872D01*
X175213995Y-80645283D01*
X175222948Y-80645299D01*
G37*
%TD.AperFunction*%
%TD*%
%TA.AperFunction,Conductor*%
%TO.N,/SNS-*%
G36*
X104149039Y-111854499D02*
G01*
X104153603Y-111860446D01*
X104539840Y-112993873D01*
X104539265Y-113002809D01*
X104537038Y-113005920D01*
X104405920Y-113137038D01*
X104397647Y-113140465D01*
X104393873Y-113139840D01*
X103260446Y-112753603D01*
X103253720Y-112747690D01*
X103252742Y-112740258D01*
X103397772Y-112006978D01*
X103402739Y-111999529D01*
X103406977Y-111997773D01*
X104140258Y-111852742D01*
X104149039Y-111854499D01*
G37*
%TD.AperFunction*%
%TD*%
M02*
