%TF.GenerationSoftware,KiCad,Pcbnew,9.0.0*%
%TF.CreationDate,2026-01-13T23:39:09-06:00*%
%TF.ProjectId,SuppChargerPCB,53757070-4368-4617-9267-65725043422e,rev?*%
%TF.SameCoordinates,Original*%
%TF.FileFunction,Soldermask,Bot*%
%TF.FilePolarity,Negative*%
%FSLAX46Y46*%
G04 Gerber Fmt 4.6, Leading zero omitted, Abs format (unit mm)*
G04 Created by KiCad (PCBNEW 9.0.0) date 2026-01-13 23:39:09*
%MOMM*%
%LPD*%
G01*
G04 APERTURE LIST*
G04 Aperture macros list*
%AMRoundRect*
0 Rectangle with rounded corners*
0 $1 Rounding radius*
0 $2 $3 $4 $5 $6 $7 $8 $9 X,Y pos of 4 corners*
0 Add a 4 corners polygon primitive as box body*
4,1,4,$2,$3,$4,$5,$6,$7,$8,$9,$2,$3,0*
0 Add four circle primitives for the rounded corners*
1,1,$1+$1,$2,$3*
1,1,$1+$1,$4,$5*
1,1,$1+$1,$6,$7*
1,1,$1+$1,$8,$9*
0 Add four rect primitives between the rounded corners*
20,1,$1+$1,$2,$3,$4,$5,0*
20,1,$1+$1,$4,$5,$6,$7,0*
20,1,$1+$1,$6,$7,$8,$9,0*
20,1,$1+$1,$8,$9,$2,$3,0*%
G04 Aperture macros list end*
%ADD10RoundRect,0.250000X-0.300000X-0.300000X0.300000X-0.300000X0.300000X0.300000X-0.300000X0.300000X0*%
%ADD11RoundRect,0.250000X0.300000X0.300000X-0.300000X0.300000X-0.300000X-0.300000X0.300000X-0.300000X0*%
%ADD12C,3.600000*%
%ADD13C,6.400000*%
%ADD14C,0.850000*%
%ADD15R,0.550000X1.500000*%
%ADD16R,1.500000X0.550000*%
%ADD17R,1.000000X1.000000*%
%ADD18R,0.600000X1.250000*%
%ADD19RoundRect,0.237500X-0.250000X-0.237500X0.250000X-0.237500X0.250000X0.237500X-0.250000X0.237500X0*%
%ADD20RoundRect,0.237500X0.237500X-0.250000X0.237500X0.250000X-0.237500X0.250000X-0.237500X-0.250000X0*%
%ADD21RoundRect,0.237500X-0.237500X0.300000X-0.237500X-0.300000X0.237500X-0.300000X0.237500X0.300000X0*%
%ADD22RoundRect,0.237500X-0.237500X0.250000X-0.237500X-0.250000X0.237500X-0.250000X0.237500X0.250000X0*%
%ADD23RoundRect,0.237500X-0.300000X-0.237500X0.300000X-0.237500X0.300000X0.237500X-0.300000X0.237500X0*%
%ADD24RoundRect,0.250000X-0.250000X-0.475000X0.250000X-0.475000X0.250000X0.475000X-0.250000X0.475000X0*%
%ADD25R,0.254000X0.812800*%
%ADD26R,0.812800X0.254000*%
%ADD27R,4.699000X3.708400*%
%ADD28RoundRect,0.237500X0.250000X0.237500X-0.250000X0.237500X-0.250000X-0.237500X0.250000X-0.237500X0*%
%ADD29R,1.250000X0.600000*%
%ADD30RoundRect,0.237500X0.237500X-0.300000X0.237500X0.300000X-0.237500X0.300000X-0.237500X-0.300000X0*%
%ADD31RoundRect,0.237500X0.300000X0.237500X-0.300000X0.237500X-0.300000X-0.237500X0.300000X-0.237500X0*%
G04 APERTURE END LIST*
D10*
%TO.C,D12*%
X102186700Y-100771731D03*
X104986700Y-100771731D03*
%TD*%
D11*
%TO.C,D11*%
X111493300Y-100781731D03*
X108693300Y-100781731D03*
%TD*%
D12*
%TO.C,H1*%
X87490000Y-98890000D03*
D13*
X87490000Y-98890000D03*
%TD*%
D12*
%TO.C,H3*%
X127510000Y-114120000D03*
D13*
X127510000Y-114120000D03*
%TD*%
D14*
%TO.C,J1*%
X116570000Y-80170000D03*
X127170000Y-80170000D03*
D15*
X126270000Y-76970000D03*
X126270000Y-80770000D03*
X125470000Y-76970000D03*
X125470000Y-80770000D03*
X124670000Y-76970000D03*
X124670000Y-80770000D03*
X123870000Y-76970000D03*
X123870000Y-80770000D03*
X123070000Y-76970000D03*
X123070000Y-80770000D03*
X122270000Y-76970000D03*
X122270000Y-80770000D03*
X121470000Y-76970000D03*
X121470000Y-80770000D03*
X120670000Y-76970000D03*
X120670000Y-80770000D03*
X119870000Y-76970000D03*
X119870000Y-80770000D03*
X119070000Y-76970000D03*
X119070000Y-80770000D03*
X118270000Y-76970000D03*
X118270000Y-80770000D03*
X117470000Y-76970000D03*
X117470000Y-80770000D03*
%TD*%
D14*
%TO.C,J2*%
X77462500Y-101300000D03*
X77462500Y-111900000D03*
D16*
X80662500Y-111000000D03*
X76862500Y-111000000D03*
X80662500Y-110200000D03*
X76862500Y-110200000D03*
X80662500Y-109400000D03*
X76862500Y-109400000D03*
X80662500Y-108600000D03*
X76862500Y-108600000D03*
X80662500Y-107800000D03*
X76862500Y-107800000D03*
X80662500Y-107000000D03*
X76862500Y-107000000D03*
X80662500Y-106200000D03*
X76862500Y-106200000D03*
X80662500Y-105400000D03*
X76862500Y-105400000D03*
X80662500Y-104600000D03*
X76862500Y-104600000D03*
X80662500Y-103800000D03*
X76862500Y-103800000D03*
X80662500Y-103000000D03*
X76862500Y-103000000D03*
X80662500Y-102200000D03*
X76862500Y-102200000D03*
%TD*%
D17*
%TO.C,OUT4*%
X112810000Y-114970000D03*
%TD*%
%TO.C,OUT2*%
X84930000Y-103790000D03*
%TD*%
%TO.C,+24V2*%
X118740000Y-89860000D03*
%TD*%
%TO.C,PGND3*%
X128310000Y-75510000D03*
%TD*%
D18*
%TO.C,Q4*%
X77980000Y-98900000D03*
X76080000Y-98900000D03*
X77030000Y-96800000D03*
%TD*%
D19*
%TO.C,R41*%
X93635000Y-111890000D03*
X95460000Y-111890000D03*
%TD*%
D20*
%TO.C,R42*%
X106835000Y-102708146D03*
X106835000Y-100883146D03*
%TD*%
%TO.C,R51*%
X100110000Y-115985000D03*
X100110000Y-114160000D03*
%TD*%
D21*
%TO.C,C26*%
X115150000Y-104155000D03*
X115150000Y-105880000D03*
%TD*%
D20*
%TO.C,R48*%
X95490000Y-115985000D03*
X95490000Y-114160000D03*
%TD*%
D19*
%TO.C,R6*%
X83155000Y-115830000D03*
X84980000Y-115830000D03*
%TD*%
D22*
%TO.C,R2*%
X117810000Y-108650000D03*
X117810000Y-110475000D03*
%TD*%
D20*
%TO.C,R7*%
X74470000Y-99055000D03*
X74470000Y-97230000D03*
%TD*%
D23*
%TO.C,C3*%
X115348510Y-102515000D03*
X117073510Y-102515000D03*
%TD*%
D24*
%TO.C,C7*%
X121740000Y-83730000D03*
X123640000Y-83730000D03*
%TD*%
D23*
%TO.C,C30*%
X90235000Y-108270000D03*
X91960000Y-108270000D03*
%TD*%
D18*
%TO.C,Q2*%
X83110000Y-98900000D03*
X81210000Y-98900000D03*
X82160000Y-96800000D03*
%TD*%
D19*
%TO.C,R33*%
X111155000Y-106918000D03*
X112980000Y-106918000D03*
%TD*%
%TO.C,R4*%
X93325000Y-101125000D03*
X95150000Y-101125000D03*
%TD*%
D25*
%TO.C,U1*%
X109120378Y-112338000D03*
X108620252Y-112338000D03*
X108120126Y-112338000D03*
X107620000Y-112338000D03*
X107119874Y-112338000D03*
X106619748Y-112338000D03*
X106119622Y-112338000D03*
X105619496Y-112338000D03*
X105119370Y-112338000D03*
X104619244Y-112338000D03*
D26*
X103923411Y-111637341D03*
X103923411Y-111137215D03*
X103923411Y-110637089D03*
X103923411Y-110136963D03*
X103923411Y-109636837D03*
X103923411Y-109136711D03*
X103923411Y-108636585D03*
X103923411Y-108136459D03*
D25*
X104619244Y-107435800D03*
X105119370Y-107435800D03*
X105619496Y-107435800D03*
X106119622Y-107435800D03*
X106619748Y-107435800D03*
X107119874Y-107435800D03*
X107620000Y-107435800D03*
X108120126Y-107435800D03*
X108620252Y-107435800D03*
X109120378Y-107435800D03*
D26*
X109816211Y-108136459D03*
X109816211Y-108636585D03*
X109816211Y-109136711D03*
X109816211Y-109636837D03*
X109816211Y-110136963D03*
X109816211Y-110637089D03*
X109816211Y-111137215D03*
X109816211Y-111637341D03*
D27*
X106869811Y-109886900D03*
%TD*%
D28*
%TO.C,R29*%
X113145000Y-112430000D03*
X111320000Y-112430000D03*
%TD*%
D22*
%TO.C,R38*%
X92030000Y-104915000D03*
X92030000Y-106740000D03*
%TD*%
%TO.C,R22*%
X116980000Y-99185000D03*
X116980000Y-101010000D03*
%TD*%
%TO.C,R39*%
X90170000Y-104925000D03*
X90170000Y-106750000D03*
%TD*%
%TO.C,R3*%
X116310000Y-110000000D03*
X116310000Y-111825000D03*
%TD*%
D29*
%TO.C,Q3*%
X86890000Y-115790000D03*
X86890000Y-113890000D03*
X88990000Y-114840000D03*
%TD*%
D20*
%TO.C,R45*%
X92410000Y-115995000D03*
X92410000Y-114170000D03*
%TD*%
D21*
%TO.C,C9*%
X120810000Y-106975000D03*
X120810000Y-108700000D03*
%TD*%
D28*
%TO.C,R9*%
X118090000Y-86930000D03*
X116265000Y-86930000D03*
%TD*%
%TO.C,R30*%
X107670000Y-104588000D03*
X105845000Y-104588000D03*
%TD*%
D19*
%TO.C,R40*%
X84285000Y-109725000D03*
X86110000Y-109725000D03*
%TD*%
D18*
%TO.C,Q5*%
X100175000Y-99475000D03*
X98275000Y-99475000D03*
X99225000Y-97375000D03*
%TD*%
D20*
%TO.C,R46*%
X93950000Y-115995000D03*
X93950000Y-114170000D03*
%TD*%
%TO.C,R10*%
X74300000Y-108340000D03*
X74300000Y-106515000D03*
%TD*%
D22*
%TO.C,R1*%
X119310000Y-106925000D03*
X119310000Y-108750000D03*
%TD*%
D19*
%TO.C,R8*%
X98325000Y-101125000D03*
X100150000Y-101125000D03*
%TD*%
%TO.C,R12*%
X105270000Y-115470000D03*
X107095000Y-115470000D03*
%TD*%
D21*
%TO.C,C2*%
X122310000Y-106975000D03*
X122310000Y-108700000D03*
%TD*%
D19*
%TO.C,R35*%
X100785000Y-106948000D03*
X102610000Y-106948000D03*
%TD*%
D20*
%TO.C,R5*%
X79600000Y-98985000D03*
X79600000Y-97160000D03*
%TD*%
D30*
%TO.C,C31*%
X88660000Y-108220000D03*
X88660000Y-106495000D03*
%TD*%
D20*
%TO.C,R49*%
X97030000Y-115985000D03*
X97030000Y-114160000D03*
%TD*%
D28*
%TO.C,R47*%
X103450000Y-114400000D03*
X101625000Y-114400000D03*
%TD*%
D31*
%TO.C,C33*%
X105268789Y-102833146D03*
X103543789Y-102833146D03*
%TD*%
D23*
%TO.C,C32*%
X108405000Y-102831731D03*
X110130000Y-102831731D03*
%TD*%
D30*
%TO.C,C28*%
X93550000Y-108250000D03*
X93550000Y-106525000D03*
%TD*%
D18*
%TO.C,Q1*%
X95170000Y-99470000D03*
X93270000Y-99470000D03*
X94220000Y-97370000D03*
%TD*%
D22*
%TO.C,R31*%
X115450000Y-99195000D03*
X115450000Y-101020000D03*
%TD*%
D21*
%TO.C,C22*%
X117283510Y-104155000D03*
X117283510Y-105880000D03*
%TD*%
D20*
%TO.C,R50*%
X98570000Y-115985000D03*
X98570000Y-114160000D03*
%TD*%
M02*
