%TF.GenerationSoftware,KiCad,Pcbnew,9.0.0*%
%TF.CreationDate,2026-01-13T23:39:09-06:00*%
%TF.ProjectId,SuppChargerPCB,53757070-4368-4617-9267-65725043422e,rev?*%
%TF.SameCoordinates,Original*%
%TF.FileFunction,Copper,L1,Top*%
%TF.FilePolarity,Positive*%
%FSLAX46Y46*%
G04 Gerber Fmt 4.6, Leading zero omitted, Abs format (unit mm)*
G04 Created by KiCad (PCBNEW 9.0.0) date 2026-01-13 23:39:09*
%MOMM*%
%LPD*%
G01*
G04 APERTURE LIST*
G04 Aperture macros list*
%AMRoundRect*
0 Rectangle with rounded corners*
0 $1 Rounding radius*
0 $2 $3 $4 $5 $6 $7 $8 $9 X,Y pos of 4 corners*
0 Add a 4 corners polygon primitive as box body*
4,1,4,$2,$3,$4,$5,$6,$7,$8,$9,$2,$3,0*
0 Add four circle primitives for the rounded corners*
1,1,$1+$1,$2,$3*
1,1,$1+$1,$4,$5*
1,1,$1+$1,$6,$7*
1,1,$1+$1,$8,$9*
0 Add four rect primitives between the rounded corners*
20,1,$1+$1,$2,$3,$4,$5,0*
20,1,$1+$1,$4,$5,$6,$7,0*
20,1,$1+$1,$6,$7,$8,$9,0*
20,1,$1+$1,$8,$9,$2,$3,0*%
G04 Aperture macros list end*
%TA.AperFunction,ComponentPad*%
%ADD10C,3.600000*%
%TD*%
%TA.AperFunction,ConnectorPad*%
%ADD11C,6.400000*%
%TD*%
%TA.AperFunction,SMDPad,CuDef*%
%ADD12RoundRect,0.250000X0.362500X2.125000X-0.362500X2.125000X-0.362500X-2.125000X0.362500X-2.125000X0*%
%TD*%
%TA.AperFunction,SMDPad,CuDef*%
%ADD13R,1.800000X3.150000*%
%TD*%
%TA.AperFunction,SMDPad,CuDef*%
%ADD14R,0.900000X2.900000*%
%TD*%
%TA.AperFunction,SMDPad,CuDef*%
%ADD15R,5.600000X2.900000*%
%TD*%
%TA.AperFunction,SMDPad,CuDef*%
%ADD16R,0.431800X0.304800*%
%TD*%
%TA.AperFunction,SMDPad,CuDef*%
%ADD17R,0.406400X0.304800*%
%TD*%
%TA.AperFunction,SMDPad,CuDef*%
%ADD18R,1.808902X1.978890*%
%TD*%
%TA.AperFunction,SMDPad,CuDef*%
%ADD19R,2.200900X0.304800*%
%TD*%
%TA.AperFunction,SMDPad,CuDef*%
%ADD20R,1.000000X1.000000*%
%TD*%
%TA.AperFunction,SMDPad,CuDef*%
%ADD21RoundRect,0.237500X-0.237500X0.250000X-0.237500X-0.250000X0.237500X-0.250000X0.237500X0.250000X0*%
%TD*%
%TA.AperFunction,SMDPad,CuDef*%
%ADD22RoundRect,0.218750X-0.256250X0.218750X-0.256250X-0.218750X0.256250X-0.218750X0.256250X0.218750X0*%
%TD*%
%TA.AperFunction,SMDPad,CuDef*%
%ADD23R,3.150000X1.800000*%
%TD*%
%TA.AperFunction,ComponentPad*%
%ADD24R,1.000000X1.000000*%
%TD*%
%TA.AperFunction,SMDPad,CuDef*%
%ADD25RoundRect,0.250000X0.250000X0.475000X-0.250000X0.475000X-0.250000X-0.475000X0.250000X-0.475000X0*%
%TD*%
%TA.AperFunction,SMDPad,CuDef*%
%ADD26R,0.304800X0.431800*%
%TD*%
%TA.AperFunction,SMDPad,CuDef*%
%ADD27R,0.304800X0.406400*%
%TD*%
%TA.AperFunction,SMDPad,CuDef*%
%ADD28R,1.978890X1.808902*%
%TD*%
%TA.AperFunction,SMDPad,CuDef*%
%ADD29R,0.304800X2.200900*%
%TD*%
%TA.AperFunction,SMDPad,CuDef*%
%ADD30RoundRect,0.250000X-0.250000X-0.475000X0.250000X-0.475000X0.250000X0.475000X-0.250000X0.475000X0*%
%TD*%
%TA.AperFunction,SMDPad,CuDef*%
%ADD31RoundRect,0.218750X-0.218750X-0.256250X0.218750X-0.256250X0.218750X0.256250X-0.218750X0.256250X0*%
%TD*%
%TA.AperFunction,SMDPad,CuDef*%
%ADD32R,2.350000X3.500000*%
%TD*%
%TA.AperFunction,SMDPad,CuDef*%
%ADD33RoundRect,0.237500X0.237500X-0.250000X0.237500X0.250000X-0.237500X0.250000X-0.237500X-0.250000X0*%
%TD*%
%TA.AperFunction,ViaPad*%
%ADD34C,0.600000*%
%TD*%
%TA.AperFunction,Conductor*%
%ADD35C,0.250000*%
%TD*%
%TA.AperFunction,Conductor*%
%ADD36C,0.200000*%
%TD*%
%TA.AperFunction,Conductor*%
%ADD37C,0.400000*%
%TD*%
%TA.AperFunction,Conductor*%
%ADD38C,0.500000*%
%TD*%
G04 APERTURE END LIST*
D10*
%TO.P,H1,1*%
%TO.N,N/C*%
X87490000Y-98890000D03*
D11*
X87490000Y-98890000D03*
%TD*%
D10*
%TO.P,H3,1*%
%TO.N,N/C*%
X127510000Y-114120000D03*
D11*
X127510000Y-114120000D03*
%TD*%
D12*
%TO.P,R13,1*%
%TO.N,/Converter/BOOST_OUT*%
X92507500Y-104950000D03*
%TO.P,R13,2*%
%TO.N,OUT*%
X89382500Y-104950000D03*
%TD*%
D13*
%TO.P,C15,1*%
%TO.N,/Converter/BOOST_OUT*%
X94730000Y-109590000D03*
%TO.P,C15,2*%
%TO.N,PGND*%
X94730000Y-114690000D03*
%TD*%
D14*
%TO.P,R11,1,1*%
%TO.N,+24V*%
X114370000Y-95200000D03*
%TO.P,R11,2,2*%
%TO.N,/Converter/BUCK_IN*%
X114370000Y-100100000D03*
D15*
%TO.P,R11,3,3*%
X118520000Y-100100000D03*
%TO.P,R11,4,4*%
%TO.N,+24V*%
X118520000Y-95200000D03*
%TD*%
D16*
%TO.P,Q13,1,S*%
%TO.N,/SW2*%
X102081212Y-105516543D03*
%TO.P,Q13,2,S*%
X102081212Y-104866557D03*
%TO.P,Q13,3,S*%
X102081212Y-104216571D03*
%TO.P,Q13,4,G*%
%TO.N,/Converter/BOOST_HIGH*%
X102081212Y-103566585D03*
D17*
%TO.P,Q13,5,D*%
%TO.N,/Converter/BOOST_OUT*%
X99198510Y-103566585D03*
%TO.P,Q13,6,D*%
X99198510Y-104216571D03*
%TO.P,Q13,7,D*%
X99198510Y-104866557D03*
D18*
%TO.P,Q13,8,D*%
X100300662Y-104404519D03*
D19*
X100106211Y-105516564D03*
%TD*%
D20*
%TO.P,OUT3,1,1*%
%TO.N,/REGN*%
X115490000Y-114980000D03*
%TD*%
%TO.P,FBG1,1,1*%
%TO.N,/FBG*%
X84940000Y-106650000D03*
%TD*%
D21*
%TO.P,R34,1*%
%TO.N,/LODRV1*%
X108280000Y-107260000D03*
%TO.P,R34,2*%
%TO.N,/Converter/BUCK_LOW*%
X108280000Y-109085000D03*
%TD*%
D22*
%TO.P,D4,1,K*%
%TO.N,Net-(D4-K)*%
X75920000Y-98552500D03*
%TO.P,D4,2,A*%
%TO.N,Net-(D4-A)*%
X75920000Y-100127500D03*
%TD*%
D23*
%TO.P,C12,1*%
%TO.N,+24V*%
X123670000Y-84530000D03*
%TO.P,C12,2*%
%TO.N,PGND*%
X128770000Y-84530000D03*
%TD*%
D24*
%TO.P,OUT4,1,1*%
%TO.N,+3V3*%
X112810000Y-114970000D03*
%TD*%
D25*
%TO.P,C10,1*%
%TO.N,/DRV_SUP*%
X105810000Y-111110000D03*
%TO.P,C10,2*%
%TO.N,PGND*%
X103910000Y-111110000D03*
%TD*%
D22*
%TO.P,D1,1,K*%
%TO.N,Net-(D1-K)*%
X93770000Y-98560000D03*
%TO.P,D1,2,A*%
%TO.N,Net-(D1-A)*%
X93770000Y-100135000D03*
%TD*%
D26*
%TO.P,Q14,1,S*%
%TO.N,PGND*%
X103666211Y-105976585D03*
%TO.P,Q14,2,S*%
X104316197Y-105976585D03*
%TO.P,Q14,3,S*%
X104966183Y-105976585D03*
%TO.P,Q14,4,G*%
%TO.N,/Converter/BOOST_LOW*%
X105616169Y-105976585D03*
D27*
%TO.P,Q14,5,D*%
%TO.N,/SW2*%
X105616169Y-103093883D03*
%TO.P,Q14,6,D*%
X104966183Y-103093883D03*
%TO.P,Q14,7,D*%
X104316197Y-103093883D03*
D28*
%TO.P,Q14,8,D*%
X104778235Y-104196035D03*
D29*
X103666190Y-104001584D03*
%TD*%
D20*
%TO.P,ACOV3,1,1*%
%TO.N,/HIDRV1*%
X126140000Y-108410000D03*
%TD*%
D30*
%TO.P,C8,1*%
%TO.N,/REGN*%
X107350000Y-111110000D03*
%TO.P,C8,2*%
%TO.N,PGND*%
X109250000Y-111110000D03*
%TD*%
D24*
%TO.P,OUT2,1,1*%
%TO.N,OUT*%
X84930000Y-103790000D03*
%TD*%
D20*
%TO.P,ACOV2,1,1*%
%TO.N,/ACOV*%
X118320000Y-114980000D03*
%TD*%
D13*
%TO.P,C16,1*%
%TO.N,OUT*%
X86875000Y-109600000D03*
%TO.P,C16,2*%
%TO.N,PGND*%
X86875000Y-114700000D03*
%TD*%
D24*
%TO.P,+24V2,1,1*%
%TO.N,+24V*%
X118740000Y-89860000D03*
%TD*%
%TO.P,PGND3,1,1*%
%TO.N,PGND*%
X128310000Y-75510000D03*
%TD*%
D31*
%TO.P,D3,1,K*%
%TO.N,Net-(D3-K)*%
X73372500Y-103010000D03*
%TO.P,D3,2,A*%
%TO.N,Net-(D3-A)*%
X74947500Y-103010000D03*
%TD*%
D16*
%TO.P,Q11,1,S*%
%TO.N,/SW1*%
X112743509Y-103546627D03*
%TO.P,Q11,2,S*%
X112743509Y-104196613D03*
%TO.P,Q11,3,S*%
X112743509Y-104846599D03*
%TO.P,Q11,4,G*%
%TO.N,/Converter/BUCK_HIGH*%
X112743509Y-105496585D03*
D17*
%TO.P,Q11,5,D*%
%TO.N,/Converter/BUCK_IN*%
X115626211Y-105496585D03*
%TO.P,Q11,6,D*%
X115626211Y-104846599D03*
%TO.P,Q11,7,D*%
X115626211Y-104196613D03*
D18*
%TO.P,Q11,8,D*%
X114524059Y-104658651D03*
D19*
X114718510Y-103546606D03*
%TD*%
D20*
%TO.P,FB1,1,1*%
%TO.N,/FB*%
X87130000Y-106650000D03*
%TD*%
%TO.P,ACOV5,1,1*%
%TO.N,/LODRV1*%
X123280000Y-111350000D03*
%TD*%
D13*
%TO.P,C17,1*%
%TO.N,OUT*%
X79030000Y-109590000D03*
%TO.P,C17,2*%
%TO.N,PGND*%
X79030000Y-114690000D03*
%TD*%
D23*
%TO.P,C13,1*%
%TO.N,+24V*%
X123670000Y-92330000D03*
%TO.P,C13,2*%
%TO.N,PGND*%
X128770000Y-92330000D03*
%TD*%
D22*
%TO.P,D7,1,K*%
%TO.N,Net-(D7-K)*%
X98780000Y-98560000D03*
%TO.P,D7,2,A*%
%TO.N,Net-(D7-A)*%
X98780000Y-100135000D03*
%TD*%
D26*
%TO.P,Q12,1,S*%
%TO.N,PGND*%
X109226253Y-105946585D03*
%TO.P,Q12,2,S*%
X109876239Y-105946585D03*
%TO.P,Q12,3,S*%
X110526225Y-105946585D03*
%TO.P,Q12,4,G*%
%TO.N,/Converter/BUCK_LOW*%
X111176211Y-105946585D03*
D27*
%TO.P,Q12,5,D*%
%TO.N,/SW1*%
X111176211Y-103063883D03*
%TO.P,Q12,6,D*%
X110526225Y-103063883D03*
%TO.P,Q12,7,D*%
X109876239Y-103063883D03*
D28*
%TO.P,Q12,8,D*%
X110338277Y-104166035D03*
D29*
X109226232Y-103971584D03*
%TD*%
D31*
%TO.P,D6,1,K*%
%TO.N,PGND*%
X73365000Y-106410000D03*
%TO.P,D6,2,A*%
%TO.N,Net-(D6-A)*%
X74940000Y-106410000D03*
%TD*%
D20*
%TO.P,ACOV6,1,1*%
%TO.N,/LODRV2*%
X97540000Y-101900000D03*
%TD*%
D22*
%TO.P,D2,1,K*%
%TO.N,Net-(D2-K)*%
X80940000Y-98570000D03*
%TO.P,D2,2,A*%
%TO.N,Net-(D2-A)*%
X80940000Y-100145000D03*
%TD*%
D32*
%TO.P,L4,1,1*%
%TO.N,/SW1*%
X110210000Y-98880000D03*
%TO.P,L4,2,2*%
%TO.N,/SW2*%
X104160000Y-98880000D03*
%TD*%
D33*
%TO.P,R36,1*%
%TO.N,/Converter/BOOST_LOW*%
X104630000Y-109205000D03*
%TO.P,R36,2*%
%TO.N,/LODRV2*%
X104630000Y-107380000D03*
%TD*%
D31*
%TO.P,D5,1,K*%
%TO.N,PGND*%
X114715000Y-86940000D03*
%TO.P,D5,2,A*%
%TO.N,Net-(D5-A)*%
X116290000Y-86940000D03*
%TD*%
D20*
%TO.P,ACOV4,1,1*%
%TO.N,/HIDRV2*%
X95450000Y-101900000D03*
%TD*%
%TO.P,ACUV2,1,1*%
%TO.N,/ACUV*%
X121270000Y-114990000D03*
%TD*%
D23*
%TO.P,C14,1*%
%TO.N,/Converter/BUCK_IN*%
X123680000Y-100180000D03*
%TO.P,C14,2*%
%TO.N,PGND*%
X128780000Y-100180000D03*
%TD*%
D34*
%TO.N,+24V*%
X119350000Y-105750000D03*
X115400000Y-96850000D03*
%TO.N,/ACOV*%
X117810000Y-111580000D03*
X117860000Y-112690000D03*
%TO.N,/ACUV*%
X120390000Y-110730000D03*
X121320000Y-112590000D03*
%TO.N,/Converter/BUCK_IN*%
X114920000Y-97950000D03*
%TO.N,PGND*%
X100510000Y-96390000D03*
X112330000Y-116740000D03*
X91210000Y-96390000D03*
X113360000Y-95440000D03*
X108500000Y-116730000D03*
X76270000Y-115640000D03*
X114140000Y-116720000D03*
X113340000Y-77640000D03*
X113360000Y-88790000D03*
X119990000Y-116740000D03*
X113340000Y-84290000D03*
X129560000Y-108440000D03*
X120410000Y-73670000D03*
X116130000Y-116740000D03*
X129540000Y-89630000D03*
X113370000Y-82620000D03*
X113390000Y-93770000D03*
X127970000Y-106790000D03*
X104720000Y-116730000D03*
X127940000Y-101850000D03*
X129550000Y-106770000D03*
X127810000Y-87850000D03*
X73490000Y-112430000D03*
X129530000Y-87850000D03*
X118000000Y-116720000D03*
X113350000Y-79280000D03*
X127820000Y-89630000D03*
X129540000Y-105180000D03*
X98820000Y-96370000D03*
X95030000Y-96390000D03*
X114780000Y-73650000D03*
X127820000Y-86390000D03*
X129580000Y-81020000D03*
X125350000Y-73640000D03*
X127720000Y-97980000D03*
X129530000Y-103610000D03*
X102730000Y-116710000D03*
X106510000Y-116710000D03*
X110340000Y-116720000D03*
X105607599Y-109463000D03*
X129570000Y-79350000D03*
X127960000Y-105200000D03*
X127210000Y-73640000D03*
X73440000Y-115640000D03*
X127750000Y-94480000D03*
X122000000Y-73660000D03*
X74890000Y-113960000D03*
X97150000Y-96370000D03*
X121590000Y-116720000D03*
X73470000Y-113960000D03*
X129570000Y-94460000D03*
X113360000Y-80990000D03*
X113330000Y-74640000D03*
X93000000Y-96370000D03*
X129540000Y-96130000D03*
X129550000Y-82690000D03*
X113330000Y-75960000D03*
X129530000Y-110110000D03*
X129560000Y-77760000D03*
X105626456Y-108643544D03*
X77640000Y-115630000D03*
X123580000Y-116740000D03*
X113370000Y-90430000D03*
X127980000Y-108460000D03*
X76230000Y-113970000D03*
X118740000Y-73680000D03*
X117070000Y-73650000D03*
X129540000Y-97960000D03*
X129520000Y-101830000D03*
X123570000Y-73650000D03*
X127720000Y-96150000D03*
X113380000Y-92140000D03*
X127950000Y-110130000D03*
X113350000Y-85630000D03*
X129540000Y-86390000D03*
X74890000Y-115640000D03*
X127950000Y-103630000D03*
%TO.N,/DRV_SUP*%
X106560000Y-103778000D03*
%TO.N,/Converter/BOOST_OUT*%
X91580000Y-103920000D03*
%TO.N,/Converter/BUCK_HIGH*%
X113300000Y-106038000D03*
%TO.N,OUT*%
X90610000Y-103910000D03*
X82070000Y-110760000D03*
X78430000Y-107290000D03*
X78430000Y-105960000D03*
%TO.N,/SW1*%
X107404902Y-101795645D03*
X112220578Y-107695001D03*
X111694687Y-99615313D03*
%TO.N,/SW2*%
X102011690Y-106057074D03*
X106265098Y-101795647D03*
%TO.N,Net-(D1-A)*%
X94553035Y-100481697D03*
%TO.N,/STAT1*%
X82074065Y-105209911D03*
X107889977Y-113776696D03*
X96635000Y-113095000D03*
X92390000Y-99460000D03*
%TO.N,/STAT2*%
X82068890Y-104409925D03*
X97840000Y-113090000D03*
X107092319Y-113843064D03*
X82120000Y-99010000D03*
%TO.N,Net-(D2-A)*%
X79590322Y-97997500D03*
%TO.N,/\u002APG*%
X105984819Y-113849065D03*
X99170000Y-113160000D03*
X84800523Y-113489001D03*
%TO.N,Net-(D4-A)*%
X75004632Y-98036887D03*
%TO.N,/\u002ACE*%
X100160000Y-113180000D03*
X76970000Y-99060000D03*
X82080000Y-103610000D03*
X105110587Y-113830587D03*
%TO.N,Net-(D5-A)*%
X116270000Y-86100000D03*
%TO.N,/\u002AINT*%
X108687930Y-113837242D03*
X97360000Y-99500000D03*
X82113159Y-106008958D03*
%TO.N,/FB*%
X90920000Y-111985000D03*
X87100000Y-107450000D03*
%TO.N,/FBG*%
X94639882Y-112615000D03*
X84890000Y-107440000D03*
X88870000Y-111985000D03*
%TO.N,+3V3*%
X80274265Y-100955735D03*
X101170000Y-115990000D03*
X91400000Y-116065000D03*
X92080000Y-101110000D03*
X81738058Y-115221942D03*
%TO.N,/SCL*%
X82070000Y-106850000D03*
X93339461Y-113018183D03*
X109950000Y-113100000D03*
%TO.N,/SDA*%
X83040000Y-107800000D03*
X91920002Y-112610000D03*
X110719299Y-113319495D03*
%TO.N,/HIDRV1*%
X124860000Y-107110000D03*
X110310000Y-106810800D03*
%TO.N,/HIDRV2*%
X103210000Y-107511459D03*
X96790000Y-102960000D03*
%TO.N,/LODRV1*%
X121910000Y-110040000D03*
X108000000Y-105598000D03*
%TO.N,/LODRV2*%
X97992110Y-102817890D03*
X105623178Y-106692484D03*
%TO.N,/Converter/BOOST_HIGH*%
X101627314Y-103112686D03*
%TO.N,Net-(U1-ILIM_HIZ)*%
X102620000Y-113590000D03*
X104160000Y-115670000D03*
%TO.N,Net-(D1-K)*%
X94560000Y-98860000D03*
%TO.N,Net-(D2-K)*%
X82006746Y-98218055D03*
%TO.N,Net-(D4-K)*%
X77028029Y-98262104D03*
%TO.N,Net-(D3-A)*%
X84142500Y-115836019D03*
X75320000Y-104010000D03*
%TO.N,Net-(D3-K)*%
X84410000Y-114890000D03*
X74482857Y-104055214D03*
%TO.N,Net-(D6-A)*%
X74165000Y-105390000D03*
%TO.N,Net-(D7-K)*%
X99660000Y-98560000D03*
%TO.N,Net-(D7-A)*%
X99545747Y-100476289D03*
%TO.N,/REGN*%
X107531869Y-103538000D03*
X112232499Y-112999902D03*
X114300000Y-114920000D03*
%TD*%
D35*
%TO.N,+24V*%
X118570000Y-95200000D02*
X114420000Y-95200000D01*
D36*
X114420000Y-95870000D02*
X114420000Y-95200000D01*
D35*
X114420000Y-95200000D02*
X114420000Y-96030000D01*
D36*
X115400000Y-96850000D02*
X114420000Y-95870000D01*
%TO.N,/ACOV*%
X117860000Y-114520000D02*
X118320000Y-114980000D01*
X117860000Y-113650000D02*
X117860000Y-112690000D01*
X117870000Y-113660000D02*
X117860000Y-113650000D01*
X117860000Y-112690000D02*
X117860000Y-114520000D01*
%TO.N,/ACUV*%
X121420000Y-113870000D02*
X121320000Y-113770000D01*
X121320000Y-113770000D02*
X121320000Y-112590000D01*
X121320000Y-112590000D02*
X121320000Y-114850000D01*
X121320000Y-114850000D02*
X121270000Y-114900000D01*
%TO.N,/Converter/BUCK_IN*%
X114420000Y-98450000D02*
X114420000Y-100100000D01*
X114920000Y-97950000D02*
X114420000Y-98450000D01*
D35*
X114420000Y-98790000D02*
X114420000Y-100100000D01*
X118570000Y-100100000D02*
X114420000Y-100100000D01*
D37*
%TO.N,PGND*%
X104966183Y-105976585D02*
X103666211Y-105976585D01*
X110526225Y-105946585D02*
X109226253Y-105946585D01*
D35*
%TO.N,/DRV_SUP*%
X106360000Y-110148000D02*
X105820000Y-110688000D01*
X106360000Y-108060000D02*
X106360000Y-110148000D01*
X106898000Y-107522000D02*
X106360000Y-108060000D01*
X106560000Y-103778000D02*
X106898000Y-104116000D01*
X106898000Y-104116000D02*
X106898000Y-107522000D01*
%TO.N,/Converter/BOOST_OUT*%
X91580000Y-103920000D02*
X91580000Y-104110000D01*
X91580000Y-104110000D02*
X92420000Y-104950000D01*
D38*
%TO.N,/Converter/BUCK_HIGH*%
X113284924Y-106038000D02*
X112743509Y-105496585D01*
X113300000Y-106038000D02*
X113284924Y-106038000D01*
D35*
%TO.N,OUT*%
X90610000Y-103910000D02*
X90510000Y-103910000D01*
X90510000Y-103910000D02*
X89470000Y-104950000D01*
D38*
%TO.N,/SW1*%
X111675191Y-99615313D02*
X111016463Y-98956585D01*
X110210000Y-98880000D02*
X110210000Y-98990547D01*
X112015285Y-99935911D02*
X112015285Y-107489708D01*
X111694687Y-99615313D02*
X112015285Y-99935911D01*
X110210000Y-98990547D02*
X107404902Y-101795645D01*
X111694687Y-99615313D02*
X111675191Y-99615313D01*
X112015285Y-107489708D02*
X112220578Y-107695001D01*
%TO.N,/SW2*%
X104160000Y-99690549D02*
X106265098Y-101795647D01*
X104320000Y-99050000D02*
X104320000Y-103748764D01*
X104160000Y-98880000D02*
X104160000Y-99690549D01*
X103496463Y-98956585D02*
X103476211Y-98976837D01*
X104925411Y-98956585D02*
X103496463Y-98956585D01*
X104320000Y-103748764D02*
X102011690Y-106057074D01*
D35*
%TO.N,Net-(D1-A)*%
X94553035Y-100481697D02*
X94116697Y-100481697D01*
X94116697Y-100481697D02*
X93770000Y-100135000D01*
%TO.N,Net-(D2-A)*%
X80940000Y-100145000D02*
X79590322Y-98795322D01*
X79590322Y-98795322D02*
X79590322Y-97997500D01*
%TO.N,Net-(D4-A)*%
X75920000Y-100127500D02*
X75004632Y-99212132D01*
X75004632Y-99212132D02*
X75004632Y-98036887D01*
D36*
%TO.N,Net-(D5-A)*%
X116270000Y-86100000D02*
X116270000Y-86920000D01*
X116270000Y-86920000D02*
X116290000Y-86940000D01*
%TO.N,/FB*%
X87100000Y-107450000D02*
X87100000Y-106680000D01*
X87100000Y-106680000D02*
X87130000Y-106650000D01*
D35*
%TO.N,/FBG*%
X84890000Y-107440000D02*
X84890000Y-106700000D01*
X84890000Y-106700000D02*
X84940000Y-106650000D01*
%TO.N,/HIDRV1*%
X124860000Y-107130000D02*
X126140000Y-108410000D01*
X124860000Y-107110000D02*
X124860000Y-107130000D01*
%TO.N,/HIDRV2*%
X96790000Y-102960000D02*
X96510000Y-102960000D01*
X96790000Y-102960000D02*
X96790000Y-102900000D01*
X96510000Y-102960000D02*
X95450000Y-101900000D01*
%TO.N,/LODRV1*%
X108000000Y-105598000D02*
X108000000Y-106863000D01*
X121910000Y-110040000D02*
X121970000Y-110040000D01*
X121970000Y-110040000D02*
X123280000Y-111350000D01*
X108000000Y-106863000D02*
X108280000Y-107143000D01*
%TO.N,/LODRV2*%
X105086835Y-106696165D02*
X104630000Y-107153000D01*
X97992110Y-102352110D02*
X97540000Y-101900000D01*
X105619497Y-106696165D02*
X105086835Y-106696165D01*
X97992110Y-102817890D02*
X97992110Y-102352110D01*
X105623178Y-106692484D02*
X105619497Y-106696165D01*
%TO.N,/Converter/BUCK_LOW*%
X108626000Y-106213500D02*
X108742000Y-106329500D01*
X109081000Y-108167000D02*
X108280000Y-108968000D01*
X108626000Y-105526538D02*
X108626000Y-106213500D01*
X109081000Y-106653010D02*
X109081000Y-108167000D01*
X111004625Y-105404685D02*
X108747853Y-105404685D01*
X111176211Y-105946585D02*
X111176211Y-105576271D01*
X108742000Y-106329500D02*
X108757490Y-106329500D01*
X108757490Y-106329500D02*
X109081000Y-106653010D01*
X108747853Y-105404685D02*
X108626000Y-105526538D01*
X111176211Y-105576271D02*
X111004625Y-105404685D01*
D38*
%TO.N,/Converter/BOOST_HIGH*%
X101627314Y-103112686D02*
X102081212Y-103566585D01*
D35*
%TO.N,/Converter/BOOST_LOW*%
X104630000Y-108670990D02*
X104630000Y-109205000D01*
X105616169Y-105976585D02*
X106018569Y-105976585D01*
X106447000Y-106853990D02*
X104630000Y-108670990D01*
X106447000Y-106405016D02*
X106447000Y-106853990D01*
X106018569Y-105976585D02*
X106447000Y-106405016D01*
%TO.N,Net-(D1-K)*%
X94070000Y-98860000D02*
X93770000Y-98560000D01*
X94560000Y-98860000D02*
X94070000Y-98860000D01*
%TO.N,Net-(D2-K)*%
X81291945Y-98218055D02*
X80940000Y-98570000D01*
X82006746Y-98218055D02*
X81291945Y-98218055D01*
%TO.N,Net-(D4-K)*%
X77028029Y-98262104D02*
X76210396Y-98262104D01*
X76210396Y-98262104D02*
X75920000Y-98552500D01*
%TO.N,Net-(D3-A)*%
X75320000Y-104010000D02*
X74950000Y-103640000D01*
X74950000Y-103012500D02*
X74947500Y-103010000D01*
X74950000Y-103640000D02*
X74950000Y-103012500D01*
%TO.N,Net-(D3-K)*%
X74482857Y-104055214D02*
X74417714Y-104055214D01*
X74417714Y-104055214D02*
X73372500Y-103010000D01*
%TO.N,Net-(D6-A)*%
X74165000Y-105635000D02*
X74940000Y-106410000D01*
X74165000Y-105390000D02*
X74165000Y-105635000D01*
%TO.N,Net-(D7-K)*%
X99660000Y-98560000D02*
X98780000Y-98560000D01*
%TO.N,Net-(D7-A)*%
X99545747Y-100476289D02*
X99121289Y-100476289D01*
X99121289Y-100476289D02*
X98780000Y-100135000D01*
%TO.N,/REGN*%
X107350000Y-111110000D02*
X108714000Y-112474000D01*
X111706597Y-112474000D02*
X112232499Y-112999902D01*
X107531869Y-103538000D02*
X107375000Y-103694869D01*
X107375000Y-103694869D02*
X107375000Y-110673000D01*
X114300000Y-114920000D02*
X115490000Y-114920000D01*
X107375000Y-110673000D02*
X107360000Y-110688000D01*
X108714000Y-112474000D02*
X111706597Y-112474000D01*
%TD*%
%TA.AperFunction,Conductor*%
%TO.N,/SW2*%
G36*
X106513039Y-96899685D02*
G01*
X106558794Y-96952489D01*
X106570000Y-97004000D01*
X106570000Y-102858063D01*
X106550315Y-102925102D01*
X106497511Y-102970857D01*
X106470192Y-102979680D01*
X106326508Y-103008261D01*
X106326498Y-103008264D01*
X106180827Y-103068602D01*
X106180814Y-103068609D01*
X106049711Y-103156210D01*
X106049707Y-103156213D01*
X105938213Y-103267707D01*
X105938210Y-103267711D01*
X105850609Y-103398814D01*
X105850602Y-103398827D01*
X105790264Y-103544498D01*
X105790261Y-103544510D01*
X105759500Y-103699153D01*
X105759500Y-103856846D01*
X105790261Y-104011489D01*
X105790264Y-104011501D01*
X105850602Y-104157172D01*
X105850609Y-104157185D01*
X105938210Y-104288288D01*
X105938213Y-104288292D01*
X106049710Y-104399789D01*
X106180815Y-104487390D01*
X106180821Y-104487394D01*
X106195951Y-104493661D01*
X106250354Y-104537499D01*
X106272421Y-104603793D01*
X106272500Y-104608222D01*
X106272500Y-105238245D01*
X106266564Y-105258459D01*
X106265437Y-105279497D01*
X106256917Y-105291310D01*
X106252815Y-105305284D01*
X106236894Y-105319079D01*
X106224571Y-105336169D01*
X106211017Y-105341501D01*
X106200011Y-105351039D01*
X106179157Y-105354037D01*
X106159553Y-105361751D01*
X106134751Y-105360422D01*
X106130853Y-105360983D01*
X106124310Y-105359863D01*
X106075638Y-105350182D01*
X106025518Y-105327831D01*
X106010904Y-105316891D01*
X106010897Y-105316887D01*
X105876055Y-105266595D01*
X105876054Y-105266594D01*
X105876052Y-105266594D01*
X105816442Y-105260185D01*
X105816432Y-105260185D01*
X105415898Y-105260185D01*
X105415892Y-105260186D01*
X105356287Y-105266593D01*
X105344306Y-105271062D01*
X105334510Y-105274716D01*
X105334507Y-105274717D01*
X105264816Y-105279700D01*
X105247843Y-105274716D01*
X105226069Y-105266595D01*
X105226068Y-105266594D01*
X105226066Y-105266594D01*
X105166456Y-105260185D01*
X105166446Y-105260185D01*
X104765912Y-105260185D01*
X104765906Y-105260186D01*
X104706299Y-105266593D01*
X104701814Y-105268267D01*
X104696184Y-105269282D01*
X104693416Y-105271062D01*
X104658481Y-105276085D01*
X104623899Y-105276085D01*
X104580566Y-105268267D01*
X104576083Y-105266595D01*
X104576082Y-105266594D01*
X104576080Y-105266594D01*
X104516470Y-105260185D01*
X104516460Y-105260185D01*
X104115926Y-105260185D01*
X104115920Y-105260186D01*
X104056313Y-105266593D01*
X104051828Y-105268267D01*
X104046198Y-105269282D01*
X104043430Y-105271062D01*
X104008495Y-105276085D01*
X103973913Y-105276085D01*
X103930580Y-105268267D01*
X103926097Y-105266595D01*
X103926096Y-105266594D01*
X103926094Y-105266594D01*
X103866484Y-105260185D01*
X103866474Y-105260185D01*
X103465940Y-105260185D01*
X103465934Y-105260186D01*
X103406327Y-105266593D01*
X103271482Y-105316887D01*
X103271475Y-105316891D01*
X103156266Y-105403137D01*
X103156263Y-105403140D01*
X103070017Y-105518349D01*
X103070012Y-105518358D01*
X103039812Y-105599332D01*
X102997941Y-105655266D01*
X102932477Y-105679684D01*
X102923630Y-105680000D01*
X101969500Y-105680000D01*
X101902461Y-105660315D01*
X101856706Y-105607511D01*
X101845500Y-105556000D01*
X101845500Y-104435996D01*
X101865185Y-104368957D01*
X101917989Y-104323202D01*
X101987147Y-104313258D01*
X101993692Y-104314379D01*
X102007290Y-104317084D01*
X102007293Y-104317084D01*
X102155128Y-104317085D01*
X102300123Y-104288243D01*
X102436705Y-104231669D01*
X102559627Y-104149537D01*
X102560771Y-104148392D01*
X102574134Y-104136809D01*
X102654658Y-104076531D01*
X102740908Y-103961316D01*
X102791203Y-103826468D01*
X102791203Y-103826466D01*
X102791204Y-103826464D01*
X102792988Y-103818917D01*
X102793184Y-103818963D01*
X102799889Y-103792694D01*
X102802868Y-103785502D01*
X102802870Y-103785498D01*
X102831711Y-103640503D01*
X102831712Y-103492668D01*
X102802870Y-103347673D01*
X102799886Y-103340469D01*
X102793183Y-103314204D01*
X102792986Y-103314251D01*
X102791204Y-103306712D01*
X102791203Y-103306702D01*
X102740908Y-103171854D01*
X102740907Y-103171853D01*
X102740905Y-103171849D01*
X102671633Y-103079315D01*
X102654658Y-103056639D01*
X102619652Y-103030433D01*
X102574145Y-102996366D01*
X102560776Y-102984781D01*
X102373387Y-102797392D01*
X102346507Y-102757164D01*
X102343270Y-102749350D01*
X102336708Y-102733507D01*
X102336704Y-102733501D01*
X102249103Y-102602396D01*
X102137606Y-102490899D01*
X102137602Y-102490896D01*
X102006499Y-102403295D01*
X102006486Y-102403288D01*
X101896548Y-102357751D01*
X101842144Y-102313910D01*
X101820079Y-102247616D01*
X101820000Y-102243190D01*
X101820000Y-97004000D01*
X101839685Y-96936961D01*
X101892489Y-96891206D01*
X101944000Y-96880000D01*
X106446000Y-96880000D01*
X106513039Y-96899685D01*
G37*
%TD.AperFunction*%
%TD*%
%TA.AperFunction,Conductor*%
%TO.N,+24V*%
G36*
X125643039Y-76099685D02*
G01*
X125688794Y-76152489D01*
X125700000Y-76204000D01*
X125700000Y-96300500D01*
X125680315Y-96367539D01*
X125627511Y-96413294D01*
X125576000Y-96424500D01*
X121797662Y-96424500D01*
X121707923Y-96432530D01*
X121707921Y-96432530D01*
X121664588Y-96440348D01*
X121664580Y-96440350D01*
X121577688Y-96464185D01*
X121577687Y-96464186D01*
X121451406Y-96533137D01*
X121402355Y-96569855D01*
X121402349Y-96569860D01*
X121395474Y-96575007D01*
X121395456Y-96575020D01*
X121360856Y-96609619D01*
X121359906Y-96610531D01*
X121330016Y-96626033D01*
X121300475Y-96642165D01*
X121298505Y-96642376D01*
X121297882Y-96642700D01*
X121296604Y-96642581D01*
X121274115Y-96644999D01*
X116224829Y-96644999D01*
X116215811Y-96645079D01*
X116211378Y-96645158D01*
X116202354Y-96645400D01*
X116202349Y-96645400D01*
X116202348Y-96645401D01*
X116184832Y-96648561D01*
X116060759Y-96670950D01*
X115994465Y-96693018D01*
X115994450Y-96693024D01*
X115906836Y-96736883D01*
X115851330Y-96750000D01*
X115519000Y-96750000D01*
X115451961Y-96730315D01*
X115406206Y-96677511D01*
X115395000Y-96626000D01*
X115395000Y-87836534D01*
X115414685Y-87769495D01*
X115467489Y-87723740D01*
X115536647Y-87713796D01*
X115600203Y-87742821D01*
X115606681Y-87748853D01*
X115622108Y-87764280D01*
X115622112Y-87764283D01*
X115765204Y-87852544D01*
X115765207Y-87852545D01*
X115765213Y-87852549D01*
X115924815Y-87905436D01*
X116023326Y-87915500D01*
X116023331Y-87915500D01*
X116556669Y-87915500D01*
X116556674Y-87915500D01*
X116655185Y-87905436D01*
X116814787Y-87852549D01*
X116957891Y-87764281D01*
X117076781Y-87645391D01*
X117165049Y-87502287D01*
X117217936Y-87342685D01*
X117228000Y-87244174D01*
X117228000Y-86635826D01*
X117217936Y-86537315D01*
X117165049Y-86377713D01*
X117088593Y-86253759D01*
X117070153Y-86186369D01*
X117070500Y-86180437D01*
X117070500Y-86021155D01*
X117070499Y-86021153D01*
X117039738Y-85866510D01*
X117039737Y-85866503D01*
X117039735Y-85866498D01*
X116979397Y-85720827D01*
X116979390Y-85720814D01*
X116891789Y-85589711D01*
X116891786Y-85589707D01*
X116780292Y-85478213D01*
X116780288Y-85478210D01*
X116649185Y-85390609D01*
X116649172Y-85390602D01*
X116503501Y-85330264D01*
X116503489Y-85330261D01*
X116348845Y-85299500D01*
X116348842Y-85299500D01*
X116191158Y-85299500D01*
X116191155Y-85299500D01*
X116036510Y-85330261D01*
X116036498Y-85330264D01*
X115890827Y-85390602D01*
X115890814Y-85390609D01*
X115759711Y-85478210D01*
X115759707Y-85478213D01*
X115648213Y-85589707D01*
X115648210Y-85589711D01*
X115622102Y-85628785D01*
X115568490Y-85673590D01*
X115499165Y-85682297D01*
X115436137Y-85652142D01*
X115399418Y-85592699D01*
X115395000Y-85559894D01*
X115395000Y-80236533D01*
X115894499Y-80236533D01*
X115920458Y-80367030D01*
X115920461Y-80367040D01*
X115971376Y-80489961D01*
X115971386Y-80489979D01*
X116045301Y-80600601D01*
X116045307Y-80600609D01*
X116139390Y-80694692D01*
X116139398Y-80694698D01*
X116250020Y-80768613D01*
X116250023Y-80768614D01*
X116250031Y-80768620D01*
X116372964Y-80819540D01*
X116372968Y-80819540D01*
X116372969Y-80819541D01*
X116503466Y-80845500D01*
X116503469Y-80845500D01*
X116636533Y-80845500D01*
X116724325Y-80828035D01*
X116767036Y-80819540D01*
X116889969Y-80768620D01*
X117000606Y-80694695D01*
X117094695Y-80600606D01*
X117168620Y-80489969D01*
X117219540Y-80367036D01*
X117245500Y-80236531D01*
X117245500Y-80103469D01*
X117245500Y-80103466D01*
X117219541Y-79972969D01*
X117219540Y-79972968D01*
X117219540Y-79972964D01*
X117168620Y-79850031D01*
X117094695Y-79739394D01*
X117094692Y-79739390D01*
X117000609Y-79645307D01*
X117000601Y-79645301D01*
X116889979Y-79571386D01*
X116889972Y-79571382D01*
X116889969Y-79571380D01*
X116889965Y-79571378D01*
X116889961Y-79571376D01*
X116767040Y-79520461D01*
X116767030Y-79520458D01*
X116636533Y-79494500D01*
X116636531Y-79494500D01*
X116503469Y-79494500D01*
X116503467Y-79494500D01*
X116372969Y-79520458D01*
X116372959Y-79520461D01*
X116250038Y-79571376D01*
X116250020Y-79571386D01*
X116139398Y-79645301D01*
X116139390Y-79645307D01*
X116045307Y-79739390D01*
X116045301Y-79739398D01*
X115971386Y-79850020D01*
X115971376Y-79850038D01*
X115920461Y-79972959D01*
X115920458Y-79972969D01*
X115894500Y-80103466D01*
X115894500Y-80103469D01*
X115894500Y-80236531D01*
X115894500Y-80236533D01*
X115894499Y-80236533D01*
X115395000Y-80236533D01*
X115395000Y-76204000D01*
X115414685Y-76136961D01*
X115467489Y-76091206D01*
X115519000Y-76080000D01*
X125576000Y-76080000D01*
X125643039Y-76099685D01*
G37*
%TD.AperFunction*%
%TD*%
%TA.AperFunction,Conductor*%
%TO.N,/Converter/BUCK_IN*%
G36*
X125653039Y-96949685D02*
G01*
X125698794Y-97002489D01*
X125710000Y-97054000D01*
X125710000Y-105886000D01*
X125690315Y-105953039D01*
X125637511Y-105998794D01*
X125586000Y-106010000D01*
X120265560Y-106010000D01*
X120198521Y-105990315D01*
X120152766Y-105937511D01*
X120142822Y-105868353D01*
X120143943Y-105861808D01*
X120150500Y-105828844D01*
X120150500Y-105671155D01*
X120150499Y-105671153D01*
X120121966Y-105527711D01*
X120119737Y-105516503D01*
X120078195Y-105416211D01*
X120059397Y-105370827D01*
X120059390Y-105370814D01*
X119971789Y-105239711D01*
X119971786Y-105239707D01*
X119860292Y-105128213D01*
X119860288Y-105128210D01*
X119729185Y-105040609D01*
X119729172Y-105040602D01*
X119583501Y-104980264D01*
X119583489Y-104980261D01*
X119428845Y-104949500D01*
X119428842Y-104949500D01*
X119271158Y-104949500D01*
X119271155Y-104949500D01*
X119116510Y-104980261D01*
X119116498Y-104980264D01*
X118970827Y-105040602D01*
X118970814Y-105040609D01*
X118839711Y-105128210D01*
X118839707Y-105128213D01*
X118728213Y-105239707D01*
X118728210Y-105239711D01*
X118640609Y-105370814D01*
X118640602Y-105370827D01*
X118580264Y-105516498D01*
X118580261Y-105516510D01*
X118549500Y-105671153D01*
X118549500Y-105671158D01*
X118549500Y-105828842D01*
X118549500Y-105828844D01*
X118549499Y-105828844D01*
X118556057Y-105861808D01*
X118549830Y-105931400D01*
X118506967Y-105986577D01*
X118441077Y-106009822D01*
X118434440Y-106010000D01*
X114212377Y-106010000D01*
X114145338Y-105990315D01*
X114099583Y-105937511D01*
X114090760Y-105910191D01*
X114081136Y-105861808D01*
X114069737Y-105804503D01*
X114032870Y-105715497D01*
X114009397Y-105658827D01*
X114009390Y-105658814D01*
X113921789Y-105527711D01*
X113921786Y-105527707D01*
X113810292Y-105416213D01*
X113810284Y-105416207D01*
X113679181Y-105328607D01*
X113679173Y-105328603D01*
X113676540Y-105327512D01*
X113675372Y-105326571D01*
X113673801Y-105325731D01*
X113673960Y-105325432D01*
X113622139Y-105283668D01*
X113600079Y-105217372D01*
X113600000Y-105212954D01*
X113600000Y-97243420D01*
X113619685Y-97176381D01*
X113672489Y-97130626D01*
X113741647Y-97120682D01*
X113767334Y-97127239D01*
X113812513Y-97144090D01*
X113812516Y-97144091D01*
X113819444Y-97144835D01*
X113872127Y-97150500D01*
X114575161Y-97150499D01*
X114642200Y-97170183D01*
X114687955Y-97222987D01*
X114689718Y-97227037D01*
X114690604Y-97229176D01*
X114690607Y-97229182D01*
X114778210Y-97360288D01*
X114778213Y-97360292D01*
X114889707Y-97471786D01*
X114889711Y-97471789D01*
X115020814Y-97559390D01*
X115020827Y-97559397D01*
X115166498Y-97619735D01*
X115166503Y-97619737D01*
X115321153Y-97650499D01*
X115321156Y-97650500D01*
X115321158Y-97650500D01*
X115478844Y-97650500D01*
X115478845Y-97650499D01*
X115633497Y-97619737D01*
X115779179Y-97559394D01*
X115910289Y-97471789D01*
X116021789Y-97360289D01*
X116109394Y-97229179D01*
X116110276Y-97227047D01*
X116111035Y-97226105D01*
X116112264Y-97223808D01*
X116112699Y-97224040D01*
X116154115Y-97172645D01*
X116220408Y-97150578D01*
X116224838Y-97150499D01*
X121367871Y-97150499D01*
X121367872Y-97150499D01*
X121427483Y-97144091D01*
X121562331Y-97093796D01*
X121677546Y-97007546D01*
X121698400Y-96979687D01*
X121754333Y-96937818D01*
X121797666Y-96930000D01*
X125586000Y-96930000D01*
X125653039Y-96949685D01*
G37*
%TD.AperFunction*%
%TD*%
%TA.AperFunction,Conductor*%
%TO.N,OUT*%
G36*
X85978814Y-102269439D02*
G01*
X86003550Y-102279685D01*
X86241836Y-102378386D01*
X86589767Y-102483930D01*
X86589773Y-102483931D01*
X86589776Y-102483932D01*
X86589787Y-102483935D01*
X86946369Y-102554862D01*
X87308206Y-102590500D01*
X87308209Y-102590500D01*
X87671791Y-102590500D01*
X87671794Y-102590500D01*
X88033631Y-102554862D01*
X88103045Y-102541054D01*
X88390212Y-102483935D01*
X88390223Y-102483932D01*
X88390223Y-102483931D01*
X88390233Y-102483930D01*
X88738164Y-102378386D01*
X88984423Y-102276382D01*
X89001186Y-102269439D01*
X89048639Y-102260000D01*
X90776000Y-102260000D01*
X90843039Y-102279685D01*
X90888794Y-102332489D01*
X90900000Y-102384000D01*
X90900000Y-103459214D01*
X90880315Y-103526253D01*
X90879104Y-103528102D01*
X90870610Y-103540814D01*
X90870602Y-103540828D01*
X90810264Y-103686498D01*
X90810261Y-103686510D01*
X90779500Y-103841153D01*
X90779500Y-103998846D01*
X90810261Y-104153489D01*
X90810264Y-104153501D01*
X90870602Y-104299172D01*
X90870608Y-104299183D01*
X90879100Y-104311891D01*
X90899980Y-104378568D01*
X90900000Y-104380785D01*
X90900000Y-111071031D01*
X90880315Y-111138070D01*
X90827511Y-111183825D01*
X90800192Y-111192648D01*
X90686508Y-111215261D01*
X90686498Y-111215264D01*
X90540827Y-111275602D01*
X90540814Y-111275609D01*
X90438309Y-111344102D01*
X90371632Y-111364980D01*
X90369418Y-111365000D01*
X89420582Y-111365000D01*
X89353543Y-111345315D01*
X89351691Y-111344102D01*
X89249185Y-111275609D01*
X89249172Y-111275602D01*
X89103501Y-111215264D01*
X89103489Y-111215261D01*
X88948845Y-111184500D01*
X88948842Y-111184500D01*
X88791158Y-111184500D01*
X88791155Y-111184500D01*
X88636510Y-111215261D01*
X88636498Y-111215264D01*
X88490827Y-111275602D01*
X88490814Y-111275609D01*
X88388309Y-111344102D01*
X88321632Y-111364980D01*
X88319418Y-111365000D01*
X77915298Y-111365000D01*
X77848259Y-111345315D01*
X77846407Y-111344102D01*
X77782471Y-111301381D01*
X77782469Y-111301380D01*
X77659540Y-111250461D01*
X77659530Y-111250458D01*
X77529033Y-111224500D01*
X77529031Y-111224500D01*
X77395969Y-111224500D01*
X77395967Y-111224500D01*
X77265469Y-111250458D01*
X77265459Y-111250461D01*
X77142530Y-111301380D01*
X77142528Y-111301381D01*
X77078593Y-111344102D01*
X77011916Y-111364980D01*
X77009702Y-111365000D01*
X75094000Y-111365000D01*
X75026961Y-111345315D01*
X74981206Y-111292511D01*
X74970000Y-111241000D01*
X74970000Y-107509500D01*
X74989685Y-107442461D01*
X75042489Y-107396706D01*
X75094000Y-107385500D01*
X75206669Y-107385500D01*
X75206674Y-107385500D01*
X75305185Y-107375436D01*
X75464787Y-107322549D01*
X75607891Y-107234281D01*
X75726781Y-107115391D01*
X75815049Y-106972287D01*
X75867936Y-106812685D01*
X75878000Y-106714174D01*
X75878000Y-106105826D01*
X75867936Y-106007315D01*
X75815049Y-105847713D01*
X75815045Y-105847707D01*
X75815044Y-105847704D01*
X75726783Y-105704612D01*
X75726780Y-105704608D01*
X75607891Y-105585719D01*
X75607887Y-105585716D01*
X75464795Y-105497455D01*
X75464789Y-105497452D01*
X75464787Y-105497451D01*
X75305185Y-105444564D01*
X75305183Y-105444563D01*
X75206681Y-105434500D01*
X75206674Y-105434500D01*
X75094000Y-105434500D01*
X75026961Y-105414815D01*
X74981206Y-105362011D01*
X74970000Y-105310500D01*
X74970000Y-104907657D01*
X74989685Y-104840618D01*
X75042489Y-104794863D01*
X75111647Y-104784919D01*
X75118178Y-104786037D01*
X75162546Y-104794863D01*
X75241155Y-104810500D01*
X75241158Y-104810500D01*
X75398844Y-104810500D01*
X75398845Y-104810499D01*
X75553497Y-104779737D01*
X75699179Y-104719394D01*
X75830289Y-104631789D01*
X75941789Y-104520289D01*
X76029394Y-104389179D01*
X76053460Y-104331078D01*
X81268390Y-104331078D01*
X81268390Y-104488771D01*
X81299151Y-104643414D01*
X81299154Y-104643426D01*
X81351049Y-104768712D01*
X81358518Y-104838181D01*
X81351049Y-104863616D01*
X81304329Y-104976409D01*
X81304326Y-104976421D01*
X81273565Y-105131064D01*
X81273565Y-105288757D01*
X81304326Y-105443400D01*
X81304329Y-105443412D01*
X81364667Y-105589082D01*
X81367544Y-105594464D01*
X81365485Y-105595564D01*
X81383263Y-105652355D01*
X81373845Y-105702011D01*
X81343421Y-105775464D01*
X81343419Y-105775469D01*
X81312659Y-105930111D01*
X81312659Y-106087804D01*
X81343420Y-106242447D01*
X81343422Y-106242455D01*
X81383027Y-106338070D01*
X81390496Y-106407540D01*
X81371570Y-106454411D01*
X81360610Y-106470814D01*
X81360602Y-106470828D01*
X81300264Y-106616498D01*
X81300261Y-106616510D01*
X81269500Y-106771153D01*
X81269500Y-106928846D01*
X81300261Y-107083489D01*
X81300264Y-107083501D01*
X81360602Y-107229172D01*
X81360609Y-107229185D01*
X81448210Y-107360288D01*
X81448213Y-107360292D01*
X81559707Y-107471786D01*
X81559711Y-107471789D01*
X81690814Y-107559390D01*
X81690827Y-107559397D01*
X81836498Y-107619735D01*
X81836503Y-107619737D01*
X81970169Y-107646325D01*
X81991153Y-107650499D01*
X81991156Y-107650500D01*
X82115500Y-107650500D01*
X82182539Y-107670185D01*
X82228294Y-107722989D01*
X82239500Y-107774500D01*
X82239500Y-107878846D01*
X82270261Y-108033489D01*
X82270264Y-108033501D01*
X82330602Y-108179172D01*
X82330609Y-108179185D01*
X82418210Y-108310288D01*
X82418213Y-108310292D01*
X82529707Y-108421786D01*
X82529711Y-108421789D01*
X82660814Y-108509390D01*
X82660827Y-108509397D01*
X82806498Y-108569735D01*
X82806503Y-108569737D01*
X82961153Y-108600499D01*
X82961156Y-108600500D01*
X82961158Y-108600500D01*
X83118844Y-108600500D01*
X83118845Y-108600499D01*
X83273497Y-108569737D01*
X83419179Y-108509394D01*
X83550289Y-108421789D01*
X83661789Y-108310289D01*
X83749394Y-108179179D01*
X83809737Y-108033497D01*
X83840500Y-107878842D01*
X83840500Y-107721158D01*
X83840500Y-107721155D01*
X83840499Y-107721153D01*
X83809737Y-107566503D01*
X83749394Y-107420821D01*
X83735390Y-107399863D01*
X83735389Y-107399860D01*
X83661789Y-107289711D01*
X83661786Y-107289707D01*
X83550292Y-107178213D01*
X83550288Y-107178210D01*
X83419185Y-107090609D01*
X83419172Y-107090602D01*
X83273501Y-107030264D01*
X83273489Y-107030261D01*
X83118845Y-106999500D01*
X83118842Y-106999500D01*
X82994500Y-106999500D01*
X82927461Y-106979815D01*
X82881706Y-106927011D01*
X82870500Y-106875500D01*
X82870500Y-106771155D01*
X82870499Y-106771153D01*
X82839738Y-106616510D01*
X82839737Y-106616503D01*
X82800130Y-106520884D01*
X82792662Y-106451416D01*
X82811592Y-106404540D01*
X82822553Y-106388137D01*
X82882896Y-106242455D01*
X82910808Y-106102135D01*
X83939500Y-106102135D01*
X83939500Y-107197870D01*
X83939501Y-107197876D01*
X83945908Y-107257483D01*
X83958786Y-107292011D01*
X83958792Y-107292024D01*
X83996204Y-107392331D01*
X84016923Y-107420008D01*
X84016926Y-107420014D01*
X84072127Y-107493752D01*
X84094478Y-107543871D01*
X84120261Y-107673491D01*
X84120264Y-107673501D01*
X84180602Y-107819172D01*
X84180609Y-107819185D01*
X84268210Y-107950288D01*
X84268213Y-107950292D01*
X84379707Y-108061786D01*
X84379711Y-108061789D01*
X84510814Y-108149390D01*
X84510827Y-108149397D01*
X84582743Y-108179185D01*
X84656503Y-108209737D01*
X84811153Y-108240499D01*
X84811156Y-108240500D01*
X84811158Y-108240500D01*
X84968844Y-108240500D01*
X84968845Y-108240499D01*
X85123497Y-108209737D01*
X85236166Y-108163067D01*
X85269172Y-108149397D01*
X85269172Y-108149396D01*
X85269179Y-108149394D01*
X85400289Y-108061789D01*
X85511789Y-107950289D01*
X85599394Y-107819179D01*
X85659737Y-107673497D01*
X85664311Y-107650500D01*
X85665142Y-107646325D01*
X85697526Y-107584414D01*
X85712437Y-107571258D01*
X85797546Y-107507546D01*
X85883796Y-107392331D01*
X85918818Y-107298431D01*
X85960689Y-107242499D01*
X86026153Y-107218081D01*
X86094426Y-107232932D01*
X86143832Y-107282337D01*
X86151182Y-107298432D01*
X86186202Y-107392328D01*
X86186203Y-107392329D01*
X86186204Y-107392331D01*
X86272454Y-107507546D01*
X86272457Y-107507548D01*
X86274324Y-107509415D01*
X86275594Y-107511740D01*
X86277769Y-107514646D01*
X86277351Y-107514958D01*
X86307813Y-107570736D01*
X86308265Y-107572910D01*
X86330261Y-107683491D01*
X86330264Y-107683501D01*
X86390602Y-107829172D01*
X86390609Y-107829185D01*
X86478210Y-107960288D01*
X86478213Y-107960292D01*
X86589707Y-108071786D01*
X86589711Y-108071789D01*
X86720814Y-108159390D01*
X86720827Y-108159397D01*
X86842363Y-108209738D01*
X86866503Y-108219737D01*
X87021153Y-108250499D01*
X87021156Y-108250500D01*
X87021158Y-108250500D01*
X87178844Y-108250500D01*
X87178845Y-108250499D01*
X87333497Y-108219737D01*
X87479179Y-108159394D01*
X87610289Y-108071789D01*
X87721789Y-107960289D01*
X87809394Y-107829179D01*
X87869737Y-107683497D01*
X87880978Y-107626981D01*
X87913362Y-107565073D01*
X87928275Y-107551915D01*
X87987546Y-107507546D01*
X88073796Y-107392331D01*
X88124091Y-107257483D01*
X88130500Y-107197873D01*
X88130499Y-106102128D01*
X88124091Y-106042517D01*
X88114820Y-106017661D01*
X88073797Y-105907671D01*
X88073793Y-105907664D01*
X87987547Y-105792455D01*
X87987544Y-105792452D01*
X87872335Y-105706206D01*
X87872328Y-105706202D01*
X87737482Y-105655908D01*
X87737483Y-105655908D01*
X87677883Y-105649501D01*
X87677881Y-105649500D01*
X87677873Y-105649500D01*
X87677864Y-105649500D01*
X86582129Y-105649500D01*
X86582123Y-105649501D01*
X86522516Y-105655908D01*
X86387671Y-105706202D01*
X86387664Y-105706206D01*
X86272455Y-105792452D01*
X86272452Y-105792455D01*
X86186206Y-105907664D01*
X86186202Y-105907671D01*
X86151182Y-106001567D01*
X86109311Y-106057501D01*
X86043847Y-106081918D01*
X85975574Y-106067067D01*
X85926168Y-106017661D01*
X85918818Y-106001567D01*
X85883797Y-105907671D01*
X85883793Y-105907664D01*
X85797547Y-105792455D01*
X85797544Y-105792452D01*
X85682335Y-105706206D01*
X85682328Y-105706202D01*
X85547482Y-105655908D01*
X85547483Y-105655908D01*
X85487883Y-105649501D01*
X85487881Y-105649500D01*
X85487873Y-105649500D01*
X85487864Y-105649500D01*
X84392129Y-105649500D01*
X84392123Y-105649501D01*
X84332516Y-105655908D01*
X84197671Y-105706202D01*
X84197664Y-105706206D01*
X84082455Y-105792452D01*
X84082452Y-105792455D01*
X83996206Y-105907664D01*
X83996202Y-105907671D01*
X83945908Y-106042517D01*
X83941040Y-106087800D01*
X83939501Y-106102123D01*
X83939500Y-106102135D01*
X82910808Y-106102135D01*
X82913659Y-106087800D01*
X82913659Y-105930116D01*
X82913659Y-105930113D01*
X82913658Y-105930111D01*
X82886276Y-105792454D01*
X82882896Y-105775461D01*
X82822553Y-105629779D01*
X82822549Y-105629773D01*
X82819680Y-105624405D01*
X82821735Y-105623306D01*
X82803959Y-105566495D01*
X82813378Y-105516856D01*
X82843802Y-105443408D01*
X82874565Y-105288753D01*
X82874565Y-105131069D01*
X82874565Y-105131066D01*
X82874564Y-105131064D01*
X82843802Y-104976414D01*
X82791904Y-104851122D01*
X82784436Y-104781654D01*
X82791903Y-104756223D01*
X82838627Y-104643422D01*
X82869390Y-104488767D01*
X82869390Y-104331083D01*
X82869390Y-104331080D01*
X82869389Y-104331078D01*
X82838628Y-104176435D01*
X82838627Y-104176428D01*
X82794884Y-104070823D01*
X82787416Y-104001358D01*
X82794883Y-103975925D01*
X82849737Y-103843497D01*
X82880500Y-103688842D01*
X82880500Y-103531158D01*
X82880500Y-103531155D01*
X82880499Y-103531153D01*
X82866189Y-103459214D01*
X82849737Y-103376503D01*
X82848212Y-103372821D01*
X82789397Y-103230827D01*
X82789390Y-103230814D01*
X82701789Y-103099711D01*
X82701786Y-103099707D01*
X82590292Y-102988213D01*
X82590288Y-102988210D01*
X82459185Y-102900609D01*
X82459172Y-102900602D01*
X82313501Y-102840264D01*
X82313489Y-102840261D01*
X82158845Y-102809500D01*
X82158842Y-102809500D01*
X82001158Y-102809500D01*
X82001155Y-102809500D01*
X81846510Y-102840261D01*
X81846498Y-102840264D01*
X81700827Y-102900602D01*
X81700814Y-102900609D01*
X81569711Y-102988210D01*
X81569707Y-102988213D01*
X81458213Y-103099707D01*
X81458210Y-103099711D01*
X81370609Y-103230814D01*
X81370602Y-103230827D01*
X81310264Y-103376498D01*
X81310261Y-103376510D01*
X81279500Y-103531153D01*
X81279500Y-103688846D01*
X81310261Y-103843489D01*
X81310264Y-103843501D01*
X81354004Y-103949099D01*
X81361473Y-104018568D01*
X81354004Y-104044003D01*
X81299154Y-104176423D01*
X81299151Y-104176435D01*
X81268390Y-104331078D01*
X76053460Y-104331078D01*
X76075634Y-104277546D01*
X76075636Y-104277539D01*
X76089737Y-104243497D01*
X76120500Y-104088842D01*
X76120500Y-103931158D01*
X76120500Y-103931155D01*
X76120499Y-103931153D01*
X76089738Y-103776510D01*
X76089737Y-103776503D01*
X76052456Y-103686498D01*
X76029397Y-103630827D01*
X76029390Y-103630814D01*
X75941789Y-103499711D01*
X75941786Y-103499707D01*
X75915185Y-103473106D01*
X75881700Y-103411783D01*
X75879508Y-103372824D01*
X75885500Y-103314174D01*
X75885500Y-102705826D01*
X75875436Y-102607315D01*
X75822549Y-102447713D01*
X75822545Y-102447706D01*
X75819495Y-102441165D01*
X75821036Y-102440446D01*
X75804962Y-102381707D01*
X75825883Y-102315043D01*
X75879524Y-102270273D01*
X75928941Y-102260000D01*
X85931361Y-102260000D01*
X85978814Y-102269439D01*
G37*
%TD.AperFunction*%
%TD*%
%TA.AperFunction,Conductor*%
%TO.N,PGND*%
G36*
X128123736Y-72770726D02*
G01*
X128413796Y-72788271D01*
X128428659Y-72790076D01*
X128710798Y-72841780D01*
X128725335Y-72845363D01*
X128999172Y-72930695D01*
X129013163Y-72936000D01*
X129274743Y-73053727D01*
X129287989Y-73060680D01*
X129533465Y-73209075D01*
X129545776Y-73217573D01*
X129771573Y-73394473D01*
X129782781Y-73404403D01*
X129985596Y-73607218D01*
X129995526Y-73618426D01*
X130115481Y-73771538D01*
X130172422Y-73844217D01*
X130180928Y-73856540D01*
X130329316Y-74102004D01*
X130336275Y-74115263D01*
X130453997Y-74376831D01*
X130459306Y-74390832D01*
X130544635Y-74664663D01*
X130548219Y-74679201D01*
X130599923Y-74961340D01*
X130601728Y-74976205D01*
X130619274Y-75266263D01*
X130619500Y-75273750D01*
X130619500Y-112154186D01*
X130599815Y-112221225D01*
X130547011Y-112266980D01*
X130477853Y-112276924D01*
X130414297Y-112247899D01*
X130392398Y-112223077D01*
X130326257Y-112124091D01*
X130284810Y-112062061D01*
X130069735Y-111799991D01*
X130069734Y-111799990D01*
X130069730Y-111799985D01*
X129830014Y-111560269D01*
X129744950Y-111490459D01*
X129567939Y-111345190D01*
X129286051Y-111156838D01*
X129286046Y-111156835D01*
X129286039Y-111156831D01*
X128987065Y-110997026D01*
X128987060Y-110997024D01*
X128673841Y-110867284D01*
X128460182Y-110802472D01*
X128349414Y-110768871D01*
X128349411Y-110768870D01*
X128349410Y-110768870D01*
X128016901Y-110702729D01*
X127779199Y-110679318D01*
X127679512Y-110669500D01*
X127340488Y-110669500D01*
X127249738Y-110678437D01*
X127003098Y-110702729D01*
X126670589Y-110768870D01*
X126346158Y-110867284D01*
X126032939Y-110997024D01*
X126032934Y-110997026D01*
X125733960Y-111156831D01*
X125733942Y-111156842D01*
X125452069Y-111345184D01*
X125452064Y-111345187D01*
X125452061Y-111345190D01*
X125426971Y-111365781D01*
X125189985Y-111560269D01*
X124950269Y-111799985D01*
X124735194Y-112062055D01*
X124735184Y-112062069D01*
X124546842Y-112343942D01*
X124546831Y-112343960D01*
X124387026Y-112642934D01*
X124387024Y-112642939D01*
X124257284Y-112956158D01*
X124158870Y-113280589D01*
X124092729Y-113613098D01*
X124071973Y-113823850D01*
X124059500Y-113950488D01*
X124059500Y-114289512D01*
X124068519Y-114381087D01*
X124092729Y-114626901D01*
X124158870Y-114959410D01*
X124257284Y-115283841D01*
X124337300Y-115477016D01*
X124383163Y-115587740D01*
X124387024Y-115597060D01*
X124387026Y-115597065D01*
X124546831Y-115896039D01*
X124546842Y-115896057D01*
X124735184Y-116177930D01*
X124735194Y-116177944D01*
X124950269Y-116440014D01*
X125189985Y-116679730D01*
X125452064Y-116894813D01*
X125453537Y-116895905D01*
X125453768Y-116896211D01*
X125454414Y-116896741D01*
X125454286Y-116896896D01*
X125495656Y-116951652D01*
X125500949Y-117021321D01*
X125467736Y-117082792D01*
X125406561Y-117116548D01*
X125379667Y-117119500D01*
X74743751Y-117119500D01*
X74736264Y-117119274D01*
X74446205Y-117101728D01*
X74431340Y-117099923D01*
X74149201Y-117048219D01*
X74134663Y-117044635D01*
X73860832Y-116959306D01*
X73846831Y-116953997D01*
X73585263Y-116836275D01*
X73572004Y-116829316D01*
X73326540Y-116680928D01*
X73314217Y-116672422D01*
X73241561Y-116615500D01*
X73101168Y-116505509D01*
X73088426Y-116495526D01*
X73077218Y-116485596D01*
X72874403Y-116282781D01*
X72864473Y-116271573D01*
X72824460Y-116220500D01*
X72687573Y-116045776D01*
X72679075Y-116033465D01*
X72530680Y-115787989D01*
X72523727Y-115774743D01*
X72406000Y-115513163D01*
X72400693Y-115499167D01*
X72400559Y-115498738D01*
X72315363Y-115225335D01*
X72311780Y-115210799D01*
X72300541Y-115149467D01*
X81187558Y-115149467D01*
X81187558Y-115294417D01*
X81225074Y-115434427D01*
X81225075Y-115434430D01*
X81297546Y-115559953D01*
X81297548Y-115559955D01*
X81297549Y-115559957D01*
X81400043Y-115662451D01*
X81400044Y-115662452D01*
X81400046Y-115662453D01*
X81525569Y-115734924D01*
X81525570Y-115734924D01*
X81525573Y-115734926D01*
X81665583Y-115772442D01*
X81665586Y-115772442D01*
X81810530Y-115772442D01*
X81810533Y-115772442D01*
X81843740Y-115763544D01*
X83592000Y-115763544D01*
X83592000Y-115908494D01*
X83625485Y-116033459D01*
X83629517Y-116048507D01*
X83701988Y-116174030D01*
X83701990Y-116174032D01*
X83701991Y-116174034D01*
X83804485Y-116276528D01*
X83804486Y-116276529D01*
X83804488Y-116276530D01*
X83930011Y-116349001D01*
X83930012Y-116349001D01*
X83930015Y-116349003D01*
X84070025Y-116386519D01*
X84070028Y-116386519D01*
X84214972Y-116386519D01*
X84214975Y-116386519D01*
X84354985Y-116349003D01*
X84480515Y-116276528D01*
X84583009Y-116174034D01*
X84655484Y-116048504D01*
X84670484Y-115992525D01*
X90849500Y-115992525D01*
X90849500Y-116137475D01*
X90887016Y-116277485D01*
X90887017Y-116277488D01*
X90959488Y-116403011D01*
X90959490Y-116403013D01*
X90959491Y-116403015D01*
X91061985Y-116505509D01*
X91061986Y-116505510D01*
X91061988Y-116505511D01*
X91187511Y-116577982D01*
X91187512Y-116577982D01*
X91187515Y-116577984D01*
X91327525Y-116615500D01*
X91327528Y-116615500D01*
X91472472Y-116615500D01*
X91472475Y-116615500D01*
X91612485Y-116577984D01*
X91738015Y-116505509D01*
X91840509Y-116403015D01*
X91912984Y-116277485D01*
X91950500Y-116137475D01*
X91950500Y-115992525D01*
X91930404Y-115917525D01*
X100619500Y-115917525D01*
X100619500Y-116062475D01*
X100650439Y-116177939D01*
X100657017Y-116202488D01*
X100729488Y-116328011D01*
X100729490Y-116328013D01*
X100729491Y-116328015D01*
X100831985Y-116430509D01*
X100831986Y-116430510D01*
X100831988Y-116430511D01*
X100957511Y-116502982D01*
X100957512Y-116502982D01*
X100957515Y-116502984D01*
X101097525Y-116540500D01*
X101097528Y-116540500D01*
X101242472Y-116540500D01*
X101242475Y-116540500D01*
X101382485Y-116502984D01*
X101508015Y-116430509D01*
X101610509Y-116328015D01*
X101682984Y-116202485D01*
X101720500Y-116062475D01*
X101720500Y-115917525D01*
X101682984Y-115777515D01*
X101610509Y-115651985D01*
X101556049Y-115597525D01*
X103609500Y-115597525D01*
X103609500Y-115742475D01*
X103647016Y-115882485D01*
X103647017Y-115882488D01*
X103719488Y-116008011D01*
X103719490Y-116008013D01*
X103719491Y-116008015D01*
X103821985Y-116110509D01*
X103821986Y-116110510D01*
X103821988Y-116110511D01*
X103947511Y-116182982D01*
X103947512Y-116182982D01*
X103947515Y-116182984D01*
X104087525Y-116220500D01*
X104087528Y-116220500D01*
X104232472Y-116220500D01*
X104232475Y-116220500D01*
X104372485Y-116182984D01*
X104498015Y-116110509D01*
X104600509Y-116008015D01*
X104672984Y-115882485D01*
X104710500Y-115742475D01*
X104710500Y-115597525D01*
X104672984Y-115457515D01*
X104658819Y-115432981D01*
X104600511Y-115331988D01*
X104600506Y-115331982D01*
X104498017Y-115229493D01*
X104498011Y-115229488D01*
X104372488Y-115157017D01*
X104372489Y-115157017D01*
X104361006Y-115153940D01*
X104232475Y-115119500D01*
X104087525Y-115119500D01*
X103958993Y-115153940D01*
X103947511Y-115157017D01*
X103821988Y-115229488D01*
X103821982Y-115229493D01*
X103719493Y-115331982D01*
X103719488Y-115331988D01*
X103647017Y-115457511D01*
X103647016Y-115457515D01*
X103609500Y-115597525D01*
X101556049Y-115597525D01*
X101508015Y-115549491D01*
X101508013Y-115549490D01*
X101508011Y-115549488D01*
X101382488Y-115477017D01*
X101382489Y-115477017D01*
X101357361Y-115470284D01*
X101242475Y-115439500D01*
X101097525Y-115439500D01*
X100982639Y-115470284D01*
X100957511Y-115477017D01*
X100831988Y-115549488D01*
X100831982Y-115549493D01*
X100729493Y-115651982D01*
X100729488Y-115651988D01*
X100657017Y-115777511D01*
X100657016Y-115777515D01*
X100619500Y-115917525D01*
X91930404Y-115917525D01*
X91912984Y-115852515D01*
X91883071Y-115800705D01*
X91840511Y-115726988D01*
X91840506Y-115726982D01*
X91738017Y-115624493D01*
X91738011Y-115624488D01*
X91612488Y-115552017D01*
X91612489Y-115552017D01*
X91601006Y-115548940D01*
X91472475Y-115514500D01*
X91327525Y-115514500D01*
X91198993Y-115548940D01*
X91187511Y-115552017D01*
X91061988Y-115624488D01*
X91061982Y-115624493D01*
X90959493Y-115726982D01*
X90959488Y-115726988D01*
X90887017Y-115852511D01*
X90887016Y-115852515D01*
X90849500Y-115992525D01*
X84670484Y-115992525D01*
X84693000Y-115908494D01*
X84693000Y-115763544D01*
X84655484Y-115623534D01*
X84613732Y-115551218D01*
X84597260Y-115483319D01*
X84620112Y-115417292D01*
X84659117Y-115381833D01*
X84748015Y-115330509D01*
X84850509Y-115228015D01*
X84922984Y-115102485D01*
X84960500Y-114962475D01*
X84960500Y-114817525D01*
X84922984Y-114677515D01*
X84850509Y-114551985D01*
X84748015Y-114449491D01*
X84748013Y-114449490D01*
X84748011Y-114449488D01*
X84740794Y-114445321D01*
X112059500Y-114445321D01*
X112059500Y-115494678D01*
X112074032Y-115567735D01*
X112074033Y-115567739D01*
X112087394Y-115587735D01*
X112129399Y-115650601D01*
X112212260Y-115705966D01*
X112212264Y-115705967D01*
X112285321Y-115720499D01*
X112285324Y-115720500D01*
X112285326Y-115720500D01*
X113334676Y-115720500D01*
X113334677Y-115720499D01*
X113407740Y-115705966D01*
X113490601Y-115650601D01*
X113545966Y-115567740D01*
X113560500Y-115494674D01*
X113560500Y-115202922D01*
X113580185Y-115135883D01*
X113632989Y-115090128D01*
X113702147Y-115080184D01*
X113765703Y-115109209D01*
X113791887Y-115140922D01*
X113859491Y-115258015D01*
X113961985Y-115360509D01*
X113961986Y-115360510D01*
X113961988Y-115360511D01*
X114087511Y-115432982D01*
X114087512Y-115432982D01*
X114087515Y-115432984D01*
X114227525Y-115470500D01*
X114227528Y-115470500D01*
X114372472Y-115470500D01*
X114372475Y-115470500D01*
X114512485Y-115432984D01*
X114512487Y-115432982D01*
X114512489Y-115432982D01*
X114512490Y-115432981D01*
X114554051Y-115408986D01*
X114621950Y-115392512D01*
X114687978Y-115415364D01*
X114731169Y-115470284D01*
X114738116Y-115498738D01*
X114738311Y-115498700D01*
X114739205Y-115503198D01*
X114739455Y-115504219D01*
X114739500Y-115504678D01*
X114754032Y-115577735D01*
X114754033Y-115577739D01*
X114766942Y-115597058D01*
X114809399Y-115660601D01*
X114877294Y-115705966D01*
X114892260Y-115715966D01*
X114892264Y-115715967D01*
X114965321Y-115730499D01*
X114965324Y-115730500D01*
X114965326Y-115730500D01*
X116014676Y-115730500D01*
X116014677Y-115730499D01*
X116087740Y-115715966D01*
X116170601Y-115660601D01*
X116225966Y-115577740D01*
X116240500Y-115504674D01*
X116240500Y-114455326D01*
X116240500Y-114455323D01*
X116240499Y-114455321D01*
X116225967Y-114382264D01*
X116225966Y-114382260D01*
X116217440Y-114369500D01*
X116170601Y-114299399D01*
X116114657Y-114262019D01*
X116087739Y-114244033D01*
X116087735Y-114244032D01*
X116014677Y-114229500D01*
X116014674Y-114229500D01*
X114965326Y-114229500D01*
X114965323Y-114229500D01*
X114892264Y-114244032D01*
X114892260Y-114244033D01*
X114809399Y-114299399D01*
X114754030Y-114382265D01*
X114753247Y-114384157D01*
X114750437Y-114387642D01*
X114747249Y-114392415D01*
X114746821Y-114392129D01*
X114709403Y-114438558D01*
X114643107Y-114460618D01*
X114576689Y-114444084D01*
X114512488Y-114407017D01*
X114512489Y-114407017D01*
X114501006Y-114403940D01*
X114372475Y-114369500D01*
X114227525Y-114369500D01*
X114098993Y-114403940D01*
X114087511Y-114407017D01*
X113961988Y-114479488D01*
X113961982Y-114479493D01*
X113859493Y-114581982D01*
X113859491Y-114581985D01*
X113791887Y-114699078D01*
X113741319Y-114747293D01*
X113672712Y-114760515D01*
X113607848Y-114734547D01*
X113567320Y-114677633D01*
X113560500Y-114637077D01*
X113560500Y-114445323D01*
X113560499Y-114445321D01*
X113545967Y-114372264D01*
X113545966Y-114372260D01*
X113539142Y-114362047D01*
X113490601Y-114289399D01*
X113423482Y-114244552D01*
X113407739Y-114234033D01*
X113407735Y-114234032D01*
X113334677Y-114219500D01*
X113334674Y-114219500D01*
X112285326Y-114219500D01*
X112285323Y-114219500D01*
X112212264Y-114234032D01*
X112212260Y-114234033D01*
X112129399Y-114289399D01*
X112074033Y-114372260D01*
X112074032Y-114372264D01*
X112059500Y-114445321D01*
X84740794Y-114445321D01*
X84622488Y-114377017D01*
X84622489Y-114377017D01*
X84604750Y-114372264D01*
X84482475Y-114339500D01*
X84337525Y-114339500D01*
X84215250Y-114372264D01*
X84197511Y-114377017D01*
X84071988Y-114449488D01*
X84071982Y-114449493D01*
X83969493Y-114551982D01*
X83969488Y-114551988D01*
X83897017Y-114677511D01*
X83897016Y-114677515D01*
X83859500Y-114817525D01*
X83859500Y-114962475D01*
X83893705Y-115090128D01*
X83897017Y-115102488D01*
X83938766Y-115174799D01*
X83955239Y-115242699D01*
X83932386Y-115308726D01*
X83893380Y-115344186D01*
X83804485Y-115395510D01*
X83804482Y-115395512D01*
X83701993Y-115498001D01*
X83701988Y-115498007D01*
X83629517Y-115623530D01*
X83629516Y-115623534D01*
X83592000Y-115763544D01*
X81843740Y-115763544D01*
X81950543Y-115734926D01*
X82076073Y-115662451D01*
X82178567Y-115559957D01*
X82251042Y-115434427D01*
X82288558Y-115294417D01*
X82288558Y-115149467D01*
X82251042Y-115009457D01*
X82241237Y-114992475D01*
X82178569Y-114883930D01*
X82178564Y-114883924D01*
X82076075Y-114781435D01*
X82076069Y-114781430D01*
X81950546Y-114708959D01*
X81950547Y-114708959D01*
X81929304Y-114703267D01*
X81810533Y-114671442D01*
X81665583Y-114671442D01*
X81546812Y-114703267D01*
X81525569Y-114708959D01*
X81400046Y-114781430D01*
X81400040Y-114781435D01*
X81297551Y-114883924D01*
X81297546Y-114883930D01*
X81225075Y-115009453D01*
X81225074Y-115009457D01*
X81187558Y-115149467D01*
X72300541Y-115149467D01*
X72260076Y-114928658D01*
X72258271Y-114913794D01*
X72256464Y-114883927D01*
X72240726Y-114623736D01*
X72240500Y-114616249D01*
X72240500Y-113416526D01*
X84250023Y-113416526D01*
X84250023Y-113561476D01*
X84285261Y-113692984D01*
X84287540Y-113701489D01*
X84360011Y-113827012D01*
X84360013Y-113827014D01*
X84360014Y-113827016D01*
X84462508Y-113929510D01*
X84462509Y-113929511D01*
X84462511Y-113929512D01*
X84588034Y-114001983D01*
X84588035Y-114001983D01*
X84588038Y-114001985D01*
X84728048Y-114039501D01*
X84728051Y-114039501D01*
X84872995Y-114039501D01*
X84872998Y-114039501D01*
X85013008Y-114001985D01*
X85138538Y-113929510D01*
X85241032Y-113827016D01*
X85313507Y-113701486D01*
X85351023Y-113561476D01*
X85351023Y-113416526D01*
X85313507Y-113276516D01*
X85299342Y-113251982D01*
X85241034Y-113150989D01*
X85241029Y-113150983D01*
X85138540Y-113048494D01*
X85138534Y-113048489D01*
X85013011Y-112976018D01*
X85013012Y-112976018D01*
X85001529Y-112972941D01*
X84872998Y-112938501D01*
X84728048Y-112938501D01*
X84599516Y-112972941D01*
X84588034Y-112976018D01*
X84462511Y-113048489D01*
X84462505Y-113048494D01*
X84360016Y-113150983D01*
X84360011Y-113150989D01*
X84287540Y-113276512D01*
X84287539Y-113276516D01*
X84250023Y-113416526D01*
X72240500Y-113416526D01*
X72240500Y-98353750D01*
X72240726Y-98346263D01*
X72247125Y-98240475D01*
X72258271Y-98056201D01*
X72260076Y-98041340D01*
X72266632Y-98005566D01*
X72274174Y-97964412D01*
X74454132Y-97964412D01*
X74454132Y-98109362D01*
X74486145Y-98228833D01*
X74491649Y-98249375D01*
X74564120Y-98374898D01*
X74564125Y-98374904D01*
X74592813Y-98403592D01*
X74626298Y-98464915D01*
X74629132Y-98491273D01*
X74629132Y-99261567D01*
X74654722Y-99357070D01*
X74702313Y-99439500D01*
X74702315Y-99439504D01*
X74704154Y-99442689D01*
X74704159Y-99442696D01*
X75158181Y-99896718D01*
X75191666Y-99958041D01*
X75194500Y-99984399D01*
X75194500Y-100391144D01*
X75200509Y-100447024D01*
X75247662Y-100573447D01*
X75247664Y-100573450D01*
X75328528Y-100681472D01*
X75436549Y-100762335D01*
X75436552Y-100762337D01*
X75483472Y-100779837D01*
X75562978Y-100809491D01*
X75592318Y-100812645D01*
X75618855Y-100815499D01*
X75618870Y-100815500D01*
X76221130Y-100815500D01*
X76221144Y-100815499D01*
X76243023Y-100813146D01*
X76277022Y-100809491D01*
X76403450Y-100762336D01*
X76511472Y-100681472D01*
X76592336Y-100573450D01*
X76639491Y-100447022D01*
X76644136Y-100403816D01*
X76645499Y-100391144D01*
X76645500Y-100391129D01*
X76645500Y-99863870D01*
X76645499Y-99863855D01*
X76643053Y-99841110D01*
X76639491Y-99807978D01*
X76613061Y-99737116D01*
X76608077Y-99667424D01*
X76641562Y-99606101D01*
X76702885Y-99572616D01*
X76761332Y-99574006D01*
X76897525Y-99610500D01*
X76897528Y-99610500D01*
X77042472Y-99610500D01*
X77042475Y-99610500D01*
X77182485Y-99572984D01*
X77308015Y-99500509D01*
X77410509Y-99398015D01*
X77482984Y-99272485D01*
X77520500Y-99132475D01*
X77520500Y-98987525D01*
X77482984Y-98847515D01*
X77434716Y-98763913D01*
X77418244Y-98696016D01*
X77441096Y-98629989D01*
X77454425Y-98614232D01*
X77468537Y-98600120D01*
X77489557Y-98563714D01*
X77541013Y-98474589D01*
X77578529Y-98334579D01*
X77578529Y-98189629D01*
X77541013Y-98049619D01*
X77469078Y-97925025D01*
X79039822Y-97925025D01*
X79039822Y-98069975D01*
X79068776Y-98178031D01*
X79077339Y-98209988D01*
X79149810Y-98335511D01*
X79149815Y-98335517D01*
X79178503Y-98364205D01*
X79211988Y-98425528D01*
X79214822Y-98451886D01*
X79214822Y-98745886D01*
X79214822Y-98844758D01*
X79219502Y-98862222D01*
X79224138Y-98879524D01*
X79240412Y-98940261D01*
X79240413Y-98940262D01*
X79244313Y-98947017D01*
X79286157Y-99019493D01*
X79289848Y-99025885D01*
X80178181Y-99914218D01*
X80211666Y-99975541D01*
X80214500Y-100001899D01*
X80214500Y-100306681D01*
X80194815Y-100373720D01*
X80142011Y-100419475D01*
X80122596Y-100426455D01*
X80075325Y-100439121D01*
X80061776Y-100442752D01*
X79936253Y-100515223D01*
X79936247Y-100515228D01*
X79833758Y-100617717D01*
X79833753Y-100617723D01*
X79761282Y-100743246D01*
X79761281Y-100743250D01*
X79723765Y-100883260D01*
X79723765Y-101028210D01*
X79761281Y-101168220D01*
X79761282Y-101168223D01*
X79833753Y-101293746D01*
X79833755Y-101293748D01*
X79833756Y-101293750D01*
X79936250Y-101396244D01*
X79936251Y-101396245D01*
X79936253Y-101396246D01*
X80061776Y-101468717D01*
X80061777Y-101468717D01*
X80061780Y-101468719D01*
X80201790Y-101506235D01*
X80201793Y-101506235D01*
X80346737Y-101506235D01*
X80346740Y-101506235D01*
X80486750Y-101468719D01*
X80612280Y-101396244D01*
X80714774Y-101293750D01*
X80787249Y-101168220D01*
X80824765Y-101028210D01*
X80824765Y-100957000D01*
X80844450Y-100889961D01*
X80897254Y-100844206D01*
X80948765Y-100833000D01*
X81241130Y-100833000D01*
X81241144Y-100832999D01*
X81263023Y-100830646D01*
X81297022Y-100826991D01*
X81423450Y-100779836D01*
X81531472Y-100698972D01*
X81612336Y-100590950D01*
X81659491Y-100464522D01*
X81664334Y-100419475D01*
X81665499Y-100408644D01*
X81665500Y-100408629D01*
X81665500Y-99881370D01*
X81665499Y-99881355D01*
X81660839Y-99838017D01*
X81659491Y-99825478D01*
X81658574Y-99823020D01*
X81612337Y-99699052D01*
X81612335Y-99699049D01*
X81610091Y-99696051D01*
X81531472Y-99591028D01*
X81423450Y-99510164D01*
X81423447Y-99510162D01*
X81325638Y-99473682D01*
X81307118Y-99459818D01*
X81286234Y-99449862D01*
X81279673Y-99439274D01*
X81269704Y-99431811D01*
X81261619Y-99410135D01*
X81249434Y-99390469D01*
X81249639Y-99378016D01*
X81245287Y-99366347D01*
X81250204Y-99343741D01*
X81250586Y-99320608D01*
X81257492Y-99310241D01*
X81260139Y-99298074D01*
X81276495Y-99281717D01*
X81289324Y-99262461D01*
X81304708Y-99253503D01*
X81309544Y-99248668D01*
X81319326Y-99243872D01*
X81322453Y-99242505D01*
X81423450Y-99204836D01*
X81444164Y-99189329D01*
X81457328Y-99183578D01*
X81478306Y-99180913D01*
X81498122Y-99173522D01*
X81512275Y-99176600D01*
X81526641Y-99174776D01*
X81545728Y-99183876D01*
X81566396Y-99188371D01*
X81577118Y-99198840D01*
X81589710Y-99204844D01*
X81599580Y-99220774D01*
X81614360Y-99235206D01*
X81679488Y-99348011D01*
X81679490Y-99348013D01*
X81679491Y-99348015D01*
X81781985Y-99450509D01*
X81781986Y-99450510D01*
X81781988Y-99450511D01*
X81907511Y-99522982D01*
X81907512Y-99522982D01*
X81907515Y-99522984D01*
X82047525Y-99560500D01*
X82047528Y-99560500D01*
X82192472Y-99560500D01*
X82192475Y-99560500D01*
X82332485Y-99522984D01*
X82458015Y-99450509D01*
X82560509Y-99348015D01*
X82632984Y-99222485D01*
X82670500Y-99082475D01*
X82670500Y-98937525D01*
X82632984Y-98797515D01*
X82627217Y-98787527D01*
X82560511Y-98671988D01*
X82560506Y-98671982D01*
X82513561Y-98625037D01*
X82480076Y-98563714D01*
X82485060Y-98494022D01*
X82493853Y-98475359D01*
X82519730Y-98430540D01*
X82557246Y-98290530D01*
X82557246Y-98145580D01*
X82519730Y-98005570D01*
X82515753Y-97998682D01*
X82447257Y-97880043D01*
X82447252Y-97880037D01*
X82344763Y-97777548D01*
X82344757Y-97777543D01*
X82219234Y-97705072D01*
X82219235Y-97705072D01*
X82196085Y-97698869D01*
X82079221Y-97667555D01*
X81934271Y-97667555D01*
X81817407Y-97698869D01*
X81794257Y-97705072D01*
X81668734Y-97777543D01*
X81668728Y-97777548D01*
X81640041Y-97806236D01*
X81578718Y-97839721D01*
X81552360Y-97842555D01*
X81242506Y-97842555D01*
X81205161Y-97852562D01*
X81205160Y-97852561D01*
X81147011Y-97868143D01*
X81139497Y-97871256D01*
X81138536Y-97868936D01*
X81089784Y-97882000D01*
X80638855Y-97882000D01*
X80582975Y-97888009D01*
X80456552Y-97935162D01*
X80456549Y-97935164D01*
X80417479Y-97964412D01*
X80348528Y-98016028D01*
X80348526Y-98016029D01*
X80341429Y-98021343D01*
X80339705Y-98019040D01*
X80291180Y-98045538D01*
X80221488Y-98040554D01*
X80165555Y-97998682D01*
X80141138Y-97933218D01*
X80140854Y-97925270D01*
X80140822Y-97925028D01*
X80140822Y-97925027D01*
X80140822Y-97925025D01*
X80103306Y-97785015D01*
X80088402Y-97759201D01*
X80030833Y-97659488D01*
X80030828Y-97659482D01*
X79928339Y-97556993D01*
X79928333Y-97556988D01*
X79802810Y-97484517D01*
X79802811Y-97484517D01*
X79791328Y-97481440D01*
X79662797Y-97447000D01*
X79517847Y-97447000D01*
X79389315Y-97481440D01*
X79377833Y-97484517D01*
X79252310Y-97556988D01*
X79252304Y-97556993D01*
X79149815Y-97659482D01*
X79149810Y-97659488D01*
X79077339Y-97785011D01*
X79077338Y-97785015D01*
X79039822Y-97925025D01*
X77469078Y-97925025D01*
X77468538Y-97924089D01*
X77366044Y-97821595D01*
X77366042Y-97821594D01*
X77366040Y-97821592D01*
X77240517Y-97749121D01*
X77240518Y-97749121D01*
X77223880Y-97744663D01*
X77100504Y-97711604D01*
X76955554Y-97711604D01*
X76832178Y-97744663D01*
X76815540Y-97749121D01*
X76690017Y-97821592D01*
X76690011Y-97821597D01*
X76661324Y-97850285D01*
X76634396Y-97864988D01*
X76608578Y-97881581D01*
X76602377Y-97882472D01*
X76600001Y-97883770D01*
X76573643Y-97886604D01*
X76342547Y-97886604D01*
X76299214Y-97878786D01*
X76277022Y-97870509D01*
X76277019Y-97870508D01*
X76221144Y-97864500D01*
X76221130Y-97864500D01*
X75618870Y-97864500D01*
X75615549Y-97864500D01*
X75615549Y-97863660D01*
X75551060Y-97848400D01*
X75505066Y-97802665D01*
X75494876Y-97785015D01*
X75445141Y-97698872D01*
X75342647Y-97596378D01*
X75342645Y-97596377D01*
X75342643Y-97596375D01*
X75217120Y-97523904D01*
X75217121Y-97523904D01*
X75205638Y-97520827D01*
X75077107Y-97486387D01*
X74932157Y-97486387D01*
X74803625Y-97520827D01*
X74792143Y-97523904D01*
X74666620Y-97596375D01*
X74666614Y-97596380D01*
X74564125Y-97698869D01*
X74564120Y-97698875D01*
X74491649Y-97824398D01*
X74491648Y-97824402D01*
X74454132Y-97964412D01*
X72274174Y-97964412D01*
X72311780Y-97759197D01*
X72315364Y-97744663D01*
X72321130Y-97726160D01*
X72400696Y-97470822D01*
X72405998Y-97456841D01*
X72523731Y-97195249D01*
X72530676Y-97182016D01*
X72679080Y-96936526D01*
X72687567Y-96924230D01*
X72864480Y-96698417D01*
X72874395Y-96687226D01*
X73077226Y-96484395D01*
X73088417Y-96474480D01*
X73314230Y-96297567D01*
X73326526Y-96289080D01*
X73572016Y-96140676D01*
X73585249Y-96133731D01*
X73846841Y-96015998D01*
X73860822Y-96010696D01*
X74134668Y-95925362D01*
X74149197Y-95921780D01*
X74431344Y-95870075D01*
X74446201Y-95868271D01*
X74736264Y-95850726D01*
X74743751Y-95850500D01*
X74805892Y-95850500D01*
X85419424Y-95850500D01*
X85486463Y-95870185D01*
X85532218Y-95922989D01*
X85542162Y-95992147D01*
X85513137Y-96055703D01*
X85488315Y-96077602D01*
X85432069Y-96115184D01*
X85432055Y-96115194D01*
X85169985Y-96330269D01*
X84930269Y-96569985D01*
X84715194Y-96832055D01*
X84715184Y-96832069D01*
X84526842Y-97113942D01*
X84526831Y-97113960D01*
X84367026Y-97412934D01*
X84367024Y-97412939D01*
X84237284Y-97726158D01*
X84138870Y-98050589D01*
X84072729Y-98383098D01*
X84054941Y-98563714D01*
X84039500Y-98720488D01*
X84039500Y-99059512D01*
X84045849Y-99123972D01*
X84072729Y-99396901D01*
X84135504Y-99712488D01*
X84138871Y-99729414D01*
X84164978Y-99815478D01*
X84237284Y-100053841D01*
X84367024Y-100367060D01*
X84367026Y-100367065D01*
X84526831Y-100666039D01*
X84526835Y-100666046D01*
X84526838Y-100666051D01*
X84712756Y-100944297D01*
X84715184Y-100947930D01*
X84715194Y-100947944D01*
X84930269Y-101210014D01*
X85169985Y-101449730D01*
X85169990Y-101449734D01*
X85169991Y-101449735D01*
X85271229Y-101532819D01*
X85273457Y-101534647D01*
X85312791Y-101592392D01*
X85314662Y-101662237D01*
X85278475Y-101722005D01*
X85215719Y-101752721D01*
X85194792Y-101754500D01*
X78190974Y-101754500D01*
X78123935Y-101734815D01*
X78078180Y-101682011D01*
X78068236Y-101612853D01*
X78076413Y-101583047D01*
X78112040Y-101497036D01*
X78136251Y-101375323D01*
X78138000Y-101366533D01*
X78138000Y-101233466D01*
X78112041Y-101102969D01*
X78112040Y-101102968D01*
X78112040Y-101102964D01*
X78061120Y-100980031D01*
X78045731Y-100957000D01*
X77987198Y-100869398D01*
X77987192Y-100869390D01*
X77893109Y-100775307D01*
X77893101Y-100775301D01*
X77782479Y-100701386D01*
X77782472Y-100701382D01*
X77782469Y-100701380D01*
X77782465Y-100701378D01*
X77782461Y-100701376D01*
X77659540Y-100650461D01*
X77659530Y-100650458D01*
X77529033Y-100624500D01*
X77529031Y-100624500D01*
X77395969Y-100624500D01*
X77395967Y-100624500D01*
X77265469Y-100650458D01*
X77265459Y-100650461D01*
X77142538Y-100701376D01*
X77142520Y-100701386D01*
X77031898Y-100775301D01*
X77031890Y-100775307D01*
X76937807Y-100869390D01*
X76937801Y-100869398D01*
X76863886Y-100980020D01*
X76863876Y-100980038D01*
X76812961Y-101102959D01*
X76812958Y-101102969D01*
X76787000Y-101233466D01*
X76787000Y-101233469D01*
X76787000Y-101366531D01*
X76787000Y-101366533D01*
X76786999Y-101366533D01*
X76812958Y-101497030D01*
X76812960Y-101497036D01*
X76848587Y-101583047D01*
X76856056Y-101652517D01*
X76824781Y-101714996D01*
X76764692Y-101750648D01*
X76734026Y-101754500D01*
X75928931Y-101754500D01*
X75826060Y-101765080D01*
X75776634Y-101775354D01*
X75678073Y-101806648D01*
X75555616Y-101882182D01*
X75501985Y-101926944D01*
X75501968Y-101926959D01*
X75405756Y-102033930D01*
X75343576Y-102163683D01*
X75343570Y-102163696D01*
X75332918Y-102197639D01*
X75294062Y-102255708D01*
X75229980Y-102283551D01*
X75214451Y-102284121D01*
X75214451Y-102284500D01*
X74683855Y-102284500D01*
X74627975Y-102290509D01*
X74501552Y-102337662D01*
X74501549Y-102337664D01*
X74393528Y-102418528D01*
X74312664Y-102526549D01*
X74312662Y-102526552D01*
X74276182Y-102624361D01*
X74234311Y-102680295D01*
X74168846Y-102704712D01*
X74100573Y-102689860D01*
X74051168Y-102640455D01*
X74043818Y-102624361D01*
X74007337Y-102526552D01*
X74007335Y-102526549D01*
X73961350Y-102465120D01*
X73926472Y-102418528D01*
X73818450Y-102337664D01*
X73818447Y-102337662D01*
X73692024Y-102290509D01*
X73636144Y-102284500D01*
X73636130Y-102284500D01*
X73108870Y-102284500D01*
X73108855Y-102284500D01*
X73052975Y-102290509D01*
X72926552Y-102337662D01*
X72926549Y-102337664D01*
X72818528Y-102418528D01*
X72737664Y-102526549D01*
X72737662Y-102526552D01*
X72690509Y-102652975D01*
X72684500Y-102708855D01*
X72684500Y-103311144D01*
X72690509Y-103367024D01*
X72737662Y-103493447D01*
X72737664Y-103493450D01*
X72818528Y-103601472D01*
X72926549Y-103682335D01*
X72926552Y-103682337D01*
X73052975Y-103729490D01*
X73052978Y-103729491D01*
X73082318Y-103732645D01*
X73108855Y-103735499D01*
X73108870Y-103735500D01*
X73515601Y-103735500D01*
X73582640Y-103755185D01*
X73603282Y-103771819D01*
X73899055Y-104067592D01*
X73931149Y-104123179D01*
X73969874Y-104267702D01*
X74042345Y-104393225D01*
X74042347Y-104393227D01*
X74042348Y-104393229D01*
X74144842Y-104495723D01*
X74270372Y-104568198D01*
X74400302Y-104603013D01*
X74407310Y-104607284D01*
X74415475Y-104608149D01*
X74436706Y-104625202D01*
X74459960Y-104639376D01*
X74463547Y-104646761D01*
X74469949Y-104651903D01*
X74478590Y-104677729D01*
X74490489Y-104702223D01*
X74490085Y-104712083D01*
X74492120Y-104718162D01*
X74488725Y-104745362D01*
X74488403Y-104753260D01*
X74487828Y-104755525D01*
X74484977Y-104765237D01*
X74484976Y-104765241D01*
X74484465Y-104768789D01*
X74482855Y-104775143D01*
X74468181Y-104799964D01*
X74456121Y-104826160D01*
X74450619Y-104829671D01*
X74447299Y-104835289D01*
X74421534Y-104848236D01*
X74397227Y-104863753D01*
X74390522Y-104863822D01*
X74384870Y-104866663D01*
X74360939Y-104864129D01*
X74330566Y-104864443D01*
X74237475Y-104839500D01*
X74092525Y-104839500D01*
X73963993Y-104873940D01*
X73952511Y-104877017D01*
X73826988Y-104949488D01*
X73826982Y-104949493D01*
X73724493Y-105051982D01*
X73724488Y-105051988D01*
X73652017Y-105177511D01*
X73652016Y-105177515D01*
X73614500Y-105317525D01*
X73614500Y-105462475D01*
X73652016Y-105602485D01*
X73652017Y-105602488D01*
X73724488Y-105728011D01*
X73724490Y-105728013D01*
X73724491Y-105728015D01*
X73826985Y-105830509D01*
X73826988Y-105830511D01*
X73833434Y-105835457D01*
X73832798Y-105836284D01*
X73861115Y-105861117D01*
X73864529Y-105865567D01*
X74215681Y-106216718D01*
X74249166Y-106278041D01*
X74252000Y-106304399D01*
X74252000Y-106711144D01*
X74258009Y-106767024D01*
X74305162Y-106893447D01*
X74305164Y-106893450D01*
X74383784Y-106998475D01*
X74386029Y-107001473D01*
X74496056Y-107083838D01*
X74537928Y-107139771D01*
X74542912Y-107209463D01*
X74534540Y-107234617D01*
X74504664Y-107300034D01*
X74484976Y-107367082D01*
X74474638Y-107438986D01*
X74464500Y-107509500D01*
X74464500Y-111241000D01*
X74464501Y-111241009D01*
X74476052Y-111348450D01*
X74476054Y-111348462D01*
X74487260Y-111399972D01*
X74521383Y-111502497D01*
X74521386Y-111502503D01*
X74599171Y-111623537D01*
X74599179Y-111623548D01*
X74644923Y-111676340D01*
X74644926Y-111676343D01*
X74644930Y-111676347D01*
X74753664Y-111770567D01*
X74753667Y-111770568D01*
X74753668Y-111770569D01*
X74877965Y-111827335D01*
X74884541Y-111830338D01*
X74951580Y-111850023D01*
X74951584Y-111850024D01*
X75094000Y-111870500D01*
X76666134Y-111870500D01*
X76733173Y-111890185D01*
X76778928Y-111942989D01*
X76787751Y-111970308D01*
X76812958Y-112097030D01*
X76812961Y-112097040D01*
X76863876Y-112219961D01*
X76863886Y-112219979D01*
X76937801Y-112330601D01*
X76937807Y-112330609D01*
X77031890Y-112424692D01*
X77031898Y-112424698D01*
X77142520Y-112498613D01*
X77142523Y-112498614D01*
X77142531Y-112498620D01*
X77142537Y-112498622D01*
X77142538Y-112498623D01*
X77231568Y-112535500D01*
X77265464Y-112549540D01*
X77265468Y-112549540D01*
X77265469Y-112549541D01*
X77395966Y-112575500D01*
X77395969Y-112575500D01*
X77529033Y-112575500D01*
X77616825Y-112558035D01*
X77659536Y-112549540D01*
X77782469Y-112498620D01*
X77893106Y-112424695D01*
X77987195Y-112330606D01*
X78061120Y-112219969D01*
X78112040Y-112097036D01*
X78125615Y-112028793D01*
X78137249Y-111970308D01*
X78169634Y-111908397D01*
X78230350Y-111873823D01*
X78258866Y-111870500D01*
X88195500Y-111870500D01*
X88262539Y-111890185D01*
X88308294Y-111942989D01*
X88319500Y-111994500D01*
X88319500Y-112057475D01*
X88357016Y-112197485D01*
X88357017Y-112197488D01*
X88429488Y-112323011D01*
X88429490Y-112323013D01*
X88429491Y-112323015D01*
X88531985Y-112425509D01*
X88531986Y-112425510D01*
X88531988Y-112425511D01*
X88657511Y-112497982D01*
X88657512Y-112497982D01*
X88657515Y-112497984D01*
X88797525Y-112535500D01*
X88797528Y-112535500D01*
X88942472Y-112535500D01*
X88942475Y-112535500D01*
X89082485Y-112497984D01*
X89208015Y-112425509D01*
X89310509Y-112323015D01*
X89382984Y-112197485D01*
X89420500Y-112057475D01*
X89420500Y-111994500D01*
X89440185Y-111927461D01*
X89492989Y-111881706D01*
X89544500Y-111870500D01*
X90245500Y-111870500D01*
X90312539Y-111890185D01*
X90358294Y-111942989D01*
X90369500Y-111994500D01*
X90369500Y-112057475D01*
X90407016Y-112197485D01*
X90407017Y-112197488D01*
X90479488Y-112323011D01*
X90479490Y-112323013D01*
X90479491Y-112323015D01*
X90581985Y-112425509D01*
X90581986Y-112425510D01*
X90581988Y-112425511D01*
X90707511Y-112497982D01*
X90707512Y-112497982D01*
X90707515Y-112497984D01*
X90847525Y-112535500D01*
X90847528Y-112535500D01*
X90992472Y-112535500D01*
X90992475Y-112535500D01*
X91132485Y-112497984D01*
X91132487Y-112497982D01*
X91132489Y-112497982D01*
X91132490Y-112497981D01*
X91183501Y-112468530D01*
X91251401Y-112452056D01*
X91317428Y-112474908D01*
X91360619Y-112529828D01*
X91369502Y-112575916D01*
X91369502Y-112682475D01*
X91401659Y-112802485D01*
X91407019Y-112822488D01*
X91479490Y-112948011D01*
X91479492Y-112948013D01*
X91479493Y-112948015D01*
X91581987Y-113050509D01*
X91581988Y-113050510D01*
X91581990Y-113050511D01*
X91707513Y-113122982D01*
X91707514Y-113122982D01*
X91707517Y-113122984D01*
X91847527Y-113160500D01*
X91847530Y-113160500D01*
X91992474Y-113160500D01*
X91992477Y-113160500D01*
X92132487Y-113122984D01*
X92258017Y-113050509D01*
X92360511Y-112948015D01*
X92361843Y-112945708D01*
X92788961Y-112945708D01*
X92788961Y-113090658D01*
X92825241Y-113226056D01*
X92826478Y-113230671D01*
X92898949Y-113356194D01*
X92898951Y-113356196D01*
X92898952Y-113356198D01*
X93001446Y-113458692D01*
X93001447Y-113458693D01*
X93001449Y-113458694D01*
X93126972Y-113531165D01*
X93126973Y-113531165D01*
X93126976Y-113531167D01*
X93266986Y-113568683D01*
X93266989Y-113568683D01*
X93411933Y-113568683D01*
X93411936Y-113568683D01*
X93551946Y-113531167D01*
X93677476Y-113458692D01*
X93779970Y-113356198D01*
X93852445Y-113230668D01*
X93889961Y-113090658D01*
X93889961Y-112945708D01*
X93852445Y-112805698D01*
X93841890Y-112787417D01*
X93779972Y-112680171D01*
X93779967Y-112680165D01*
X93677478Y-112577676D01*
X93677472Y-112577671D01*
X93551949Y-112505200D01*
X93551950Y-112505200D01*
X93527367Y-112498613D01*
X93411936Y-112467683D01*
X93266986Y-112467683D01*
X93151555Y-112498613D01*
X93126972Y-112505200D01*
X93001449Y-112577671D01*
X93001443Y-112577676D01*
X92898954Y-112680165D01*
X92898949Y-112680171D01*
X92826478Y-112805694D01*
X92826477Y-112805698D01*
X92788961Y-112945708D01*
X92361843Y-112945708D01*
X92401217Y-112877511D01*
X92402331Y-112875581D01*
X92402331Y-112875580D01*
X92432986Y-112822485D01*
X92470502Y-112682475D01*
X92470502Y-112537525D01*
X92432986Y-112397515D01*
X92406697Y-112351982D01*
X92360513Y-112271988D01*
X92360508Y-112271982D01*
X92258019Y-112169493D01*
X92258013Y-112169488D01*
X92210206Y-112141887D01*
X92161990Y-112091320D01*
X92148768Y-112022712D01*
X92174736Y-111957848D01*
X92231650Y-111917320D01*
X92272206Y-111910500D01*
X94296338Y-111910500D01*
X94363377Y-111930185D01*
X94409132Y-111982989D01*
X94419076Y-112052147D01*
X94390051Y-112115703D01*
X94358339Y-112141886D01*
X94345168Y-112149491D01*
X94301867Y-112174491D01*
X94301864Y-112174493D01*
X94199375Y-112276982D01*
X94199370Y-112276988D01*
X94126899Y-112402511D01*
X94126898Y-112402515D01*
X94089382Y-112542525D01*
X94089382Y-112687475D01*
X94125424Y-112821985D01*
X94126899Y-112827488D01*
X94199370Y-112953011D01*
X94199372Y-112953013D01*
X94199373Y-112953015D01*
X94301867Y-113055509D01*
X94301868Y-113055510D01*
X94301870Y-113055511D01*
X94427393Y-113127982D01*
X94427394Y-113127982D01*
X94427397Y-113127984D01*
X94567407Y-113165500D01*
X94567410Y-113165500D01*
X94712354Y-113165500D01*
X94712357Y-113165500D01*
X94852367Y-113127984D01*
X94977897Y-113055509D01*
X95010881Y-113022525D01*
X96084500Y-113022525D01*
X96084500Y-113167475D01*
X96114809Y-113280589D01*
X96122017Y-113307488D01*
X96194488Y-113433011D01*
X96194490Y-113433013D01*
X96194491Y-113433015D01*
X96296985Y-113535509D01*
X96296986Y-113535510D01*
X96296988Y-113535511D01*
X96422511Y-113607982D01*
X96422512Y-113607982D01*
X96422515Y-113607984D01*
X96562525Y-113645500D01*
X96562528Y-113645500D01*
X96707472Y-113645500D01*
X96707475Y-113645500D01*
X96847485Y-113607984D01*
X96973015Y-113535509D01*
X97075509Y-113433015D01*
X97131556Y-113335938D01*
X97182123Y-113287723D01*
X97250730Y-113274500D01*
X97315595Y-113300469D01*
X97346330Y-113335938D01*
X97347470Y-113337913D01*
X97399491Y-113428015D01*
X97501985Y-113530509D01*
X97501986Y-113530510D01*
X97501988Y-113530511D01*
X97627511Y-113602982D01*
X97627512Y-113602982D01*
X97627515Y-113602984D01*
X97767525Y-113640500D01*
X97767528Y-113640500D01*
X97912472Y-113640500D01*
X97912475Y-113640500D01*
X98052485Y-113602984D01*
X98178015Y-113530509D01*
X98280509Y-113428015D01*
X98352984Y-113302485D01*
X98390500Y-113162475D01*
X98390500Y-113087525D01*
X98619500Y-113087525D01*
X98619500Y-113232475D01*
X98652652Y-113356200D01*
X98657017Y-113372488D01*
X98729488Y-113498011D01*
X98729490Y-113498013D01*
X98729491Y-113498015D01*
X98831985Y-113600509D01*
X98831986Y-113600510D01*
X98831988Y-113600511D01*
X98957511Y-113672982D01*
X98957512Y-113672982D01*
X98957515Y-113672984D01*
X99097525Y-113710500D01*
X99097528Y-113710500D01*
X99242472Y-113710500D01*
X99242475Y-113710500D01*
X99382485Y-113672984D01*
X99508015Y-113600509D01*
X99567319Y-113541205D01*
X99628642Y-113507720D01*
X99698334Y-113512704D01*
X99742681Y-113541205D01*
X99821985Y-113620509D01*
X99821986Y-113620510D01*
X99821988Y-113620511D01*
X99947511Y-113692982D01*
X99947512Y-113692982D01*
X99947515Y-113692984D01*
X100087525Y-113730500D01*
X100087528Y-113730500D01*
X100232472Y-113730500D01*
X100232475Y-113730500D01*
X100372485Y-113692984D01*
X100498015Y-113620509D01*
X100600509Y-113518015D01*
X100600792Y-113517525D01*
X102069500Y-113517525D01*
X102069500Y-113662475D01*
X102107016Y-113802485D01*
X102107017Y-113802488D01*
X102179488Y-113928011D01*
X102179490Y-113928013D01*
X102179491Y-113928015D01*
X102281985Y-114030509D01*
X102281986Y-114030510D01*
X102281988Y-114030511D01*
X102407511Y-114102982D01*
X102407512Y-114102982D01*
X102407515Y-114102984D01*
X102547525Y-114140500D01*
X102547528Y-114140500D01*
X102692472Y-114140500D01*
X102692475Y-114140500D01*
X102832485Y-114102984D01*
X102958015Y-114030509D01*
X103060509Y-113928015D01*
X103132984Y-113802485D01*
X103144874Y-113758112D01*
X104560087Y-113758112D01*
X104560087Y-113903062D01*
X104596646Y-114039501D01*
X104597604Y-114043075D01*
X104670075Y-114168598D01*
X104670077Y-114168600D01*
X104670078Y-114168602D01*
X104772572Y-114271096D01*
X104772573Y-114271097D01*
X104772575Y-114271098D01*
X104898098Y-114343569D01*
X104898099Y-114343569D01*
X104898102Y-114343571D01*
X105038112Y-114381087D01*
X105038115Y-114381087D01*
X105183059Y-114381087D01*
X105183062Y-114381087D01*
X105323072Y-114343571D01*
X105448602Y-114271096D01*
X105450779Y-114268918D01*
X105453073Y-114267665D01*
X105455053Y-114266147D01*
X105455289Y-114266455D01*
X105512098Y-114235431D01*
X105581790Y-114240412D01*
X105626145Y-114268915D01*
X105646804Y-114289574D01*
X105646805Y-114289575D01*
X105646807Y-114289576D01*
X105772330Y-114362047D01*
X105772331Y-114362047D01*
X105772334Y-114362049D01*
X105912344Y-114399565D01*
X105912347Y-114399565D01*
X106057291Y-114399565D01*
X106057294Y-114399565D01*
X106197304Y-114362049D01*
X106322834Y-114289574D01*
X106425328Y-114187080D01*
X106432916Y-114173938D01*
X106483479Y-114125725D01*
X106552086Y-114112501D01*
X106616951Y-114138468D01*
X106647687Y-114173938D01*
X106651810Y-114181079D01*
X106754304Y-114283573D01*
X106754305Y-114283574D01*
X106754307Y-114283575D01*
X106879830Y-114356046D01*
X106879831Y-114356046D01*
X106879834Y-114356048D01*
X107019844Y-114393564D01*
X107019847Y-114393564D01*
X107164791Y-114393564D01*
X107164794Y-114393564D01*
X107304804Y-114356048D01*
X107430334Y-114283573D01*
X107449648Y-114264258D01*
X107510968Y-114230773D01*
X107580660Y-114235756D01*
X107599320Y-114244547D01*
X107677492Y-114289680D01*
X107817502Y-114327196D01*
X107817505Y-114327196D01*
X107962449Y-114327196D01*
X107962452Y-114327196D01*
X108102462Y-114289680D01*
X108184503Y-114242313D01*
X108252400Y-114225840D01*
X108318428Y-114248691D01*
X108334183Y-114262019D01*
X108349915Y-114277751D01*
X108349916Y-114277752D01*
X108349918Y-114277753D01*
X108475441Y-114350224D01*
X108475442Y-114350224D01*
X108475445Y-114350226D01*
X108615455Y-114387742D01*
X108615458Y-114387742D01*
X108760402Y-114387742D01*
X108760405Y-114387742D01*
X108900415Y-114350226D01*
X108918993Y-114339500D01*
X108932249Y-114331847D01*
X109005287Y-114289678D01*
X109025945Y-114277751D01*
X109128439Y-114175257D01*
X109200914Y-114049727D01*
X109238430Y-113909717D01*
X109238430Y-113764767D01*
X109200914Y-113624757D01*
X109198461Y-113620509D01*
X109128441Y-113499230D01*
X109128436Y-113499224D01*
X109025947Y-113396735D01*
X109025941Y-113396730D01*
X108900418Y-113324259D01*
X108900419Y-113324259D01*
X108856489Y-113312488D01*
X108760405Y-113286742D01*
X108615455Y-113286742D01*
X108519371Y-113312488D01*
X108475441Y-113324259D01*
X108393404Y-113371624D01*
X108325504Y-113388097D01*
X108259477Y-113365245D01*
X108243723Y-113351918D01*
X108227994Y-113336189D01*
X108227988Y-113336184D01*
X108102465Y-113263713D01*
X108102466Y-113263713D01*
X108060514Y-113252472D01*
X107962452Y-113226196D01*
X107817502Y-113226196D01*
X107719440Y-113252472D01*
X107677488Y-113263713D01*
X107551965Y-113336184D01*
X107551958Y-113336190D01*
X107532645Y-113355503D01*
X107471322Y-113388987D01*
X107401630Y-113384001D01*
X107382970Y-113375209D01*
X107304804Y-113330080D01*
X107164794Y-113292564D01*
X107019844Y-113292564D01*
X106926395Y-113317604D01*
X106879830Y-113330081D01*
X106754307Y-113402552D01*
X106754301Y-113402557D01*
X106651812Y-113505046D01*
X106651807Y-113505054D01*
X106644220Y-113518193D01*
X106593651Y-113566406D01*
X106525043Y-113579626D01*
X106460180Y-113553655D01*
X106429449Y-113518187D01*
X106425331Y-113511056D01*
X106425328Y-113511050D01*
X106322834Y-113408556D01*
X106322832Y-113408555D01*
X106322830Y-113408553D01*
X106197307Y-113336082D01*
X106197308Y-113336082D01*
X106174908Y-113330080D01*
X106057294Y-113298565D01*
X105912344Y-113298565D01*
X105772334Y-113336081D01*
X105772332Y-113336081D01*
X105772332Y-113336082D01*
X105752912Y-113347294D01*
X105646804Y-113408556D01*
X105646802Y-113408558D01*
X105644618Y-113410742D01*
X105642319Y-113411996D01*
X105640354Y-113413505D01*
X105640118Y-113413198D01*
X105583292Y-113444223D01*
X105513601Y-113439234D01*
X105469262Y-113410738D01*
X105461076Y-113402552D01*
X105448602Y-113390078D01*
X105448599Y-113390076D01*
X105448598Y-113390075D01*
X105323075Y-113317604D01*
X105323076Y-113317604D01*
X105303983Y-113312488D01*
X105183062Y-113280087D01*
X105038112Y-113280087D01*
X104917191Y-113312488D01*
X104898098Y-113317604D01*
X104772575Y-113390075D01*
X104772569Y-113390080D01*
X104670080Y-113492569D01*
X104670075Y-113492575D01*
X104597604Y-113618098D01*
X104595821Y-113624753D01*
X104560087Y-113758112D01*
X103144874Y-113758112D01*
X103170500Y-113662475D01*
X103170500Y-113517525D01*
X103132984Y-113377515D01*
X103131651Y-113375207D01*
X103060511Y-113251988D01*
X103060506Y-113251982D01*
X102958017Y-113149493D01*
X102958011Y-113149488D01*
X102832488Y-113077017D01*
X102832489Y-113077017D01*
X102815161Y-113072374D01*
X102692475Y-113039500D01*
X102547525Y-113039500D01*
X102424839Y-113072374D01*
X102407511Y-113077017D01*
X102281988Y-113149488D01*
X102281982Y-113149493D01*
X102179493Y-113251982D01*
X102179488Y-113251988D01*
X102107017Y-113377511D01*
X102107016Y-113377515D01*
X102069500Y-113517525D01*
X100600792Y-113517525D01*
X100672984Y-113392485D01*
X100710500Y-113252475D01*
X100710500Y-113107525D01*
X100672984Y-112967515D01*
X100664612Y-112953015D01*
X100600511Y-112841988D01*
X100600506Y-112841982D01*
X100498017Y-112739493D01*
X100498011Y-112739488D01*
X100372488Y-112667017D01*
X100372489Y-112667017D01*
X100353355Y-112661890D01*
X100232475Y-112629500D01*
X100087525Y-112629500D01*
X99966645Y-112661890D01*
X99947511Y-112667017D01*
X99821988Y-112739488D01*
X99821985Y-112739491D01*
X99762679Y-112798796D01*
X99701355Y-112832280D01*
X99631664Y-112827294D01*
X99587318Y-112798794D01*
X99508017Y-112719493D01*
X99508011Y-112719488D01*
X99382488Y-112647017D01*
X99382489Y-112647017D01*
X99367251Y-112642934D01*
X99242475Y-112609500D01*
X99097525Y-112609500D01*
X98972749Y-112642934D01*
X98957511Y-112647017D01*
X98831988Y-112719488D01*
X98831982Y-112719493D01*
X98729493Y-112821982D01*
X98729488Y-112821988D01*
X98657017Y-112947511D01*
X98636536Y-113023944D01*
X98636535Y-113023947D01*
X98619500Y-113087525D01*
X98390500Y-113087525D01*
X98390500Y-113017525D01*
X98352984Y-112877515D01*
X98351867Y-112875581D01*
X98280511Y-112751988D01*
X98280506Y-112751982D01*
X98178017Y-112649493D01*
X98178011Y-112649488D01*
X98052488Y-112577017D01*
X98052489Y-112577017D01*
X98041006Y-112573940D01*
X97912475Y-112539500D01*
X97767525Y-112539500D01*
X97638993Y-112573940D01*
X97627511Y-112577017D01*
X97501988Y-112649488D01*
X97501982Y-112649493D01*
X97399493Y-112751982D01*
X97399486Y-112751991D01*
X97343442Y-112849061D01*
X97292875Y-112897276D01*
X97224267Y-112910498D01*
X97159403Y-112884530D01*
X97128669Y-112849060D01*
X97112780Y-112821540D01*
X97075509Y-112756985D01*
X96973015Y-112654491D01*
X96973013Y-112654490D01*
X96973011Y-112654488D01*
X96847488Y-112582017D01*
X96847489Y-112582017D01*
X96828825Y-112577016D01*
X96707475Y-112544500D01*
X96562525Y-112544500D01*
X96441175Y-112577016D01*
X96422511Y-112582017D01*
X96296988Y-112654488D01*
X96296982Y-112654493D01*
X96194493Y-112756982D01*
X96194488Y-112756988D01*
X96122017Y-112882511D01*
X96122016Y-112882515D01*
X96084500Y-113022525D01*
X95010881Y-113022525D01*
X95080391Y-112953015D01*
X95152866Y-112827485D01*
X95190382Y-112687475D01*
X95190382Y-112542525D01*
X95152866Y-112402515D01*
X95149979Y-112397515D01*
X95080393Y-112276988D01*
X95080388Y-112276982D01*
X94977899Y-112174493D01*
X94977897Y-112174491D01*
X94921424Y-112141886D01*
X94873210Y-112091319D01*
X94859988Y-112022712D01*
X94885956Y-111957848D01*
X94942870Y-111917320D01*
X94983426Y-111910500D01*
X101215990Y-111910500D01*
X101216000Y-111910500D01*
X101323456Y-111898947D01*
X101374967Y-111887741D01*
X101414227Y-111874674D01*
X101477497Y-111853616D01*
X101477501Y-111853613D01*
X101477504Y-111853613D01*
X101598543Y-111775825D01*
X101651347Y-111730070D01*
X101745567Y-111621336D01*
X101805338Y-111490459D01*
X101825023Y-111423420D01*
X101825024Y-111423416D01*
X101845500Y-111281000D01*
X101845500Y-106731574D01*
X101865185Y-106664535D01*
X101917989Y-106618780D01*
X101969500Y-106607574D01*
X102084162Y-106607574D01*
X102084165Y-106607574D01*
X102224175Y-106570058D01*
X102349705Y-106497583D01*
X102452199Y-106395089D01*
X102524674Y-106269559D01*
X102524676Y-106269549D01*
X102527717Y-106262210D01*
X102532485Y-106255097D01*
X102533635Y-106249891D01*
X102554874Y-106221703D01*
X102555034Y-106221544D01*
X102616462Y-106188252D01*
X102642440Y-106185500D01*
X102923649Y-106185500D01*
X102941632Y-106185179D01*
X102941645Y-106185178D01*
X102941674Y-106185178D01*
X102950521Y-106184862D01*
X102968547Y-106183895D01*
X103109139Y-106153309D01*
X103174603Y-106128891D01*
X103300879Y-106059937D01*
X103402617Y-105958198D01*
X103444488Y-105902264D01*
X103444491Y-105902259D01*
X103483803Y-105830260D01*
X103493327Y-105820735D01*
X103498924Y-105808482D01*
X103517552Y-105796510D01*
X103533208Y-105780854D01*
X103547650Y-105777167D01*
X103557702Y-105770708D01*
X103592637Y-105765685D01*
X103829455Y-105765685D01*
X103851472Y-105767655D01*
X103884161Y-105773553D01*
X103884179Y-105773554D01*
X103884182Y-105773555D01*
X103973909Y-105781585D01*
X103973913Y-105781585D01*
X104008495Y-105781585D01*
X104080437Y-105776440D01*
X104115372Y-105771417D01*
X104128665Y-105768522D01*
X104155043Y-105765685D01*
X104479441Y-105765685D01*
X104501458Y-105767655D01*
X104534147Y-105773553D01*
X104534165Y-105773554D01*
X104534168Y-105773555D01*
X104623895Y-105781585D01*
X104623899Y-105781585D01*
X104658481Y-105781585D01*
X104730423Y-105776440D01*
X104765358Y-105771417D01*
X104778651Y-105768522D01*
X104805029Y-105765685D01*
X105089269Y-105765685D01*
X105156308Y-105785370D01*
X105202063Y-105838174D01*
X105213269Y-105889685D01*
X105213269Y-106196665D01*
X105193584Y-106263704D01*
X105140780Y-106309459D01*
X105089269Y-106320665D01*
X105037398Y-106320665D01*
X105004426Y-106329500D01*
X105004425Y-106329499D01*
X104941897Y-106346254D01*
X104882020Y-106380825D01*
X104857311Y-106395091D01*
X104856270Y-106395692D01*
X104646282Y-106605681D01*
X104584959Y-106639166D01*
X104558601Y-106642000D01*
X104345809Y-106642000D01*
X104287700Y-106648248D01*
X104156219Y-106697289D01*
X104043884Y-106781384D01*
X103959789Y-106893719D01*
X103910748Y-107025200D01*
X103904500Y-107083309D01*
X103904500Y-107150594D01*
X103884815Y-107217633D01*
X103832011Y-107263388D01*
X103762853Y-107273332D01*
X103699297Y-107244307D01*
X103673114Y-107212595D01*
X103650513Y-107173450D01*
X103650510Y-107173447D01*
X103650509Y-107173444D01*
X103548015Y-107070950D01*
X103548013Y-107070949D01*
X103548011Y-107070947D01*
X103422488Y-106998476D01*
X103422489Y-106998476D01*
X103411006Y-106995399D01*
X103282475Y-106960959D01*
X103137525Y-106960959D01*
X103008993Y-106995399D01*
X102997511Y-106998476D01*
X102871988Y-107070947D01*
X102871982Y-107070952D01*
X102769493Y-107173441D01*
X102769488Y-107173447D01*
X102697017Y-107298970D01*
X102697016Y-107298974D01*
X102659500Y-107438984D01*
X102659500Y-107583934D01*
X102683643Y-107674034D01*
X102697017Y-107723947D01*
X102769488Y-107849470D01*
X102769490Y-107849472D01*
X102769491Y-107849474D01*
X102871985Y-107951968D01*
X102871986Y-107951969D01*
X102871988Y-107951970D01*
X102997511Y-108024441D01*
X102997512Y-108024441D01*
X102997515Y-108024443D01*
X103137525Y-108061959D01*
X103137528Y-108061959D01*
X103282472Y-108061959D01*
X103282475Y-108061959D01*
X103422485Y-108024443D01*
X103548015Y-107951968D01*
X103650509Y-107849474D01*
X103703002Y-107758552D01*
X103753569Y-107710338D01*
X103822176Y-107697114D01*
X103887041Y-107723082D01*
X103926570Y-107777218D01*
X103953520Y-107849474D01*
X103959789Y-107866280D01*
X103985779Y-107900998D01*
X104043884Y-107978616D01*
X104156222Y-108062712D01*
X104235835Y-108092406D01*
X104287700Y-108111751D01*
X104345809Y-108117999D01*
X104345826Y-108118000D01*
X104352591Y-108118000D01*
X104373836Y-108124238D01*
X104395925Y-108125818D01*
X104406708Y-108133890D01*
X104419630Y-108137685D01*
X104434129Y-108154418D01*
X104451858Y-108167690D01*
X104456565Y-108180310D01*
X104465385Y-108190489D01*
X104468536Y-108212406D01*
X104476275Y-108233154D01*
X104473412Y-108246314D01*
X104475329Y-108259647D01*
X104466129Y-108279790D01*
X104461423Y-108301427D01*
X104448154Y-108319152D01*
X104446304Y-108323203D01*
X104440272Y-108329681D01*
X104399438Y-108370515D01*
X104329525Y-108440428D01*
X104323778Y-108446175D01*
X104321894Y-108444291D01*
X104277647Y-108476999D01*
X104156219Y-108522289D01*
X104043884Y-108606384D01*
X103959789Y-108718719D01*
X103910748Y-108850200D01*
X103904500Y-108908309D01*
X103904500Y-109501690D01*
X103910748Y-109559799D01*
X103949854Y-109664644D01*
X103959788Y-109691278D01*
X104043884Y-109803616D01*
X104156222Y-109887712D01*
X104248594Y-109922165D01*
X104287700Y-109936751D01*
X104345809Y-109942999D01*
X104345826Y-109943000D01*
X104914174Y-109943000D01*
X104914190Y-109942999D01*
X104972299Y-109936751D01*
X105103778Y-109887712D01*
X105216116Y-109803616D01*
X105300212Y-109691278D01*
X105349251Y-109559799D01*
X105355499Y-109501690D01*
X105355500Y-109501673D01*
X105355500Y-108908326D01*
X105355499Y-108908309D01*
X105349251Y-108850200D01*
X105307110Y-108737217D01*
X105300212Y-108718722D01*
X105284585Y-108697847D01*
X105260167Y-108632385D01*
X105275017Y-108564112D01*
X105296166Y-108535859D01*
X105772819Y-108059206D01*
X105834142Y-108025722D01*
X105903834Y-108030706D01*
X105959767Y-108072578D01*
X105984184Y-108138042D01*
X105984500Y-108146888D01*
X105984500Y-109941099D01*
X105975855Y-109970539D01*
X105969332Y-110000526D01*
X105965577Y-110005541D01*
X105964815Y-110008138D01*
X105948181Y-110028780D01*
X105878780Y-110098181D01*
X105817457Y-110131666D01*
X105791099Y-110134500D01*
X105512130Y-110134500D01*
X105512123Y-110134501D01*
X105452516Y-110140908D01*
X105317671Y-110191202D01*
X105317664Y-110191206D01*
X105202455Y-110277452D01*
X105202452Y-110277455D01*
X105116206Y-110392664D01*
X105116202Y-110392671D01*
X105065908Y-110527517D01*
X105060286Y-110579815D01*
X105059501Y-110587123D01*
X105059500Y-110587135D01*
X105059500Y-111632870D01*
X105059501Y-111632876D01*
X105065908Y-111692483D01*
X105116202Y-111827328D01*
X105116206Y-111827335D01*
X105202452Y-111942544D01*
X105202455Y-111942547D01*
X105317664Y-112028793D01*
X105317671Y-112028797D01*
X105322508Y-112030601D01*
X105452517Y-112079091D01*
X105512127Y-112085500D01*
X106107872Y-112085499D01*
X106167483Y-112079091D01*
X106302331Y-112028796D01*
X106417546Y-111942546D01*
X106480734Y-111858136D01*
X106536667Y-111816267D01*
X106606359Y-111811283D01*
X106667682Y-111844768D01*
X106679260Y-111858130D01*
X106742454Y-111942546D01*
X106762895Y-111957848D01*
X106857664Y-112028793D01*
X106857671Y-112028797D01*
X106862508Y-112030601D01*
X106992517Y-112079091D01*
X107052127Y-112085500D01*
X107647872Y-112085499D01*
X107707483Y-112079091D01*
X107707482Y-112079091D01*
X107715196Y-112078262D01*
X107715397Y-112080134D01*
X107775109Y-112083328D01*
X107821552Y-112112589D01*
X108413525Y-112704562D01*
X108483438Y-112774475D01*
X108569062Y-112823910D01*
X108613858Y-112835913D01*
X108664564Y-112849500D01*
X108664565Y-112849500D01*
X109285602Y-112849500D01*
X109352641Y-112869185D01*
X109398396Y-112921989D01*
X109408340Y-112991147D01*
X109405377Y-113005588D01*
X109399500Y-113027525D01*
X109399500Y-113172475D01*
X109435676Y-113307485D01*
X109437017Y-113312488D01*
X109509488Y-113438011D01*
X109509490Y-113438013D01*
X109509491Y-113438015D01*
X109611985Y-113540509D01*
X109611986Y-113540510D01*
X109611988Y-113540511D01*
X109737511Y-113612982D01*
X109737512Y-113612982D01*
X109737515Y-113612984D01*
X109877525Y-113650500D01*
X109877528Y-113650500D01*
X110022472Y-113650500D01*
X110022475Y-113650500D01*
X110150587Y-113616172D01*
X110220434Y-113617835D01*
X110272042Y-113652763D01*
X110273043Y-113651763D01*
X110278235Y-113656955D01*
X110278297Y-113656997D01*
X110278375Y-113657095D01*
X110278790Y-113657510D01*
X110381284Y-113760004D01*
X110381285Y-113760005D01*
X110381287Y-113760006D01*
X110506810Y-113832477D01*
X110506811Y-113832477D01*
X110506814Y-113832479D01*
X110646824Y-113869995D01*
X110646827Y-113869995D01*
X110791771Y-113869995D01*
X110791774Y-113869995D01*
X110931784Y-113832479D01*
X111057314Y-113760004D01*
X111159808Y-113657510D01*
X111232283Y-113531980D01*
X111269799Y-113391970D01*
X111269799Y-113247020D01*
X111232283Y-113107010D01*
X111222842Y-113090658D01*
X111190997Y-113035500D01*
X111189565Y-113029598D01*
X111185590Y-113025011D01*
X111181425Y-112996046D01*
X111174524Y-112967600D01*
X111176509Y-112961861D01*
X111175646Y-112955853D01*
X111187802Y-112929233D01*
X111197376Y-112901573D01*
X111202148Y-112897819D01*
X111204671Y-112892297D01*
X111229295Y-112876472D01*
X111252298Y-112858383D01*
X111259646Y-112856966D01*
X111263449Y-112854523D01*
X111298384Y-112849500D01*
X111499698Y-112849500D01*
X111566737Y-112869185D01*
X111587379Y-112885819D01*
X111645680Y-112944120D01*
X111679165Y-113005443D01*
X111681999Y-113031801D01*
X111681999Y-113072377D01*
X111719515Y-113212387D01*
X111719516Y-113212390D01*
X111791987Y-113337913D01*
X111791989Y-113337915D01*
X111791990Y-113337917D01*
X111894484Y-113440411D01*
X111894485Y-113440412D01*
X111894487Y-113440413D01*
X112020010Y-113512884D01*
X112020011Y-113512884D01*
X112020014Y-113512886D01*
X112160024Y-113550402D01*
X112160027Y-113550402D01*
X112304971Y-113550402D01*
X112304974Y-113550402D01*
X112444984Y-113512886D01*
X112570514Y-113440411D01*
X112673008Y-113337917D01*
X112745483Y-113212387D01*
X112782999Y-113072377D01*
X112782999Y-112927427D01*
X112745483Y-112787417D01*
X112727911Y-112756982D01*
X112673010Y-112661890D01*
X112673005Y-112661884D01*
X112570516Y-112559395D01*
X112570510Y-112559390D01*
X112444987Y-112486919D01*
X112444988Y-112486919D01*
X112433505Y-112483842D01*
X112304974Y-112449402D01*
X112304971Y-112449402D01*
X112264398Y-112449402D01*
X112197359Y-112429717D01*
X112176717Y-112413083D01*
X111937160Y-112173526D01*
X111937159Y-112173525D01*
X111874479Y-112137337D01*
X111851537Y-112124091D01*
X111851536Y-112124090D01*
X111851535Y-112124090D01*
X111778738Y-112104584D01*
X111778735Y-112104583D01*
X111778733Y-112104582D01*
X111756035Y-112098500D01*
X111756033Y-112098500D01*
X111756032Y-112098500D01*
X108920899Y-112098500D01*
X108853860Y-112078815D01*
X108833218Y-112062181D01*
X108278562Y-111507525D01*
X117259500Y-111507525D01*
X117259500Y-111652475D01*
X117291143Y-111770566D01*
X117297017Y-111792488D01*
X117369488Y-111918011D01*
X117369490Y-111918013D01*
X117369491Y-111918015D01*
X117471985Y-112020509D01*
X117471986Y-112020510D01*
X117471988Y-112020511D01*
X117510088Y-112042508D01*
X117558304Y-112093075D01*
X117571526Y-112161682D01*
X117545558Y-112226547D01*
X117523582Y-112248265D01*
X117521986Y-112249489D01*
X117419493Y-112351982D01*
X117419488Y-112351988D01*
X117347017Y-112477511D01*
X117347016Y-112477515D01*
X117309500Y-112617525D01*
X117309500Y-112762475D01*
X117343005Y-112887515D01*
X117347017Y-112902488D01*
X117419488Y-113028011D01*
X117419493Y-113028017D01*
X117473181Y-113081705D01*
X117506666Y-113143028D01*
X117509500Y-113169386D01*
X117509500Y-114566144D01*
X117523931Y-114620000D01*
X117533386Y-114655288D01*
X117556859Y-114695944D01*
X117559918Y-114703267D01*
X117562182Y-114723756D01*
X117569500Y-114751064D01*
X117569500Y-115504678D01*
X117584032Y-115577735D01*
X117584033Y-115577739D01*
X117596942Y-115597058D01*
X117639399Y-115660601D01*
X117707294Y-115705966D01*
X117722260Y-115715966D01*
X117722264Y-115715967D01*
X117795321Y-115730499D01*
X117795324Y-115730500D01*
X117795326Y-115730500D01*
X118844676Y-115730500D01*
X118844677Y-115730499D01*
X118917740Y-115715966D01*
X119000601Y-115660601D01*
X119055966Y-115577740D01*
X119070500Y-115504674D01*
X119070500Y-114465321D01*
X120519500Y-114465321D01*
X120519500Y-115514678D01*
X120534032Y-115587735D01*
X120534033Y-115587739D01*
X120540572Y-115597525D01*
X120589399Y-115670601D01*
X120672260Y-115725966D01*
X120672264Y-115725967D01*
X120745321Y-115740499D01*
X120745324Y-115740500D01*
X120745326Y-115740500D01*
X121794676Y-115740500D01*
X121794677Y-115740499D01*
X121867740Y-115725966D01*
X121950601Y-115670601D01*
X122005966Y-115587740D01*
X122020500Y-115514674D01*
X122020500Y-114465326D01*
X122020500Y-114465323D01*
X122020499Y-114465321D01*
X122005967Y-114392264D01*
X122005966Y-114392260D01*
X121999284Y-114382260D01*
X121950601Y-114309399D01*
X121867740Y-114254034D01*
X121867739Y-114254033D01*
X121867736Y-114254032D01*
X121799987Y-114240556D01*
X121738076Y-114208171D01*
X121703502Y-114147455D01*
X121707243Y-114077685D01*
X121716787Y-114056948D01*
X121746614Y-114005288D01*
X121766918Y-113929510D01*
X121770498Y-113916148D01*
X121770499Y-113916142D01*
X121770499Y-113823856D01*
X121770498Y-113823850D01*
X121746614Y-113734711D01*
X121746614Y-113734710D01*
X121700471Y-113654790D01*
X121696123Y-113649124D01*
X121670930Y-113583954D01*
X121670500Y-113573639D01*
X121670500Y-113069386D01*
X121690185Y-113002347D01*
X121706819Y-112981705D01*
X121732671Y-112955853D01*
X121760509Y-112928015D01*
X121832984Y-112802485D01*
X121870500Y-112662475D01*
X121870500Y-112517525D01*
X121832984Y-112377515D01*
X121818244Y-112351985D01*
X121760511Y-112251988D01*
X121760506Y-112251982D01*
X121658017Y-112149493D01*
X121658011Y-112149488D01*
X121532488Y-112077017D01*
X121532489Y-112077017D01*
X121521006Y-112073940D01*
X121392475Y-112039500D01*
X121247525Y-112039500D01*
X121118993Y-112073940D01*
X121107511Y-112077017D01*
X120981988Y-112149488D01*
X120981982Y-112149493D01*
X120879493Y-112251982D01*
X120879488Y-112251988D01*
X120807017Y-112377511D01*
X120807016Y-112377515D01*
X120769500Y-112517525D01*
X120769500Y-112662475D01*
X120806027Y-112798794D01*
X120807017Y-112802488D01*
X120879488Y-112928011D01*
X120879493Y-112928017D01*
X120933181Y-112981705D01*
X120966666Y-113043028D01*
X120969500Y-113069386D01*
X120969500Y-114115500D01*
X120949815Y-114182539D01*
X120897011Y-114228294D01*
X120845500Y-114239500D01*
X120745323Y-114239500D01*
X120672264Y-114254032D01*
X120672260Y-114254033D01*
X120589399Y-114309399D01*
X120534033Y-114392260D01*
X120534032Y-114392264D01*
X120519500Y-114465321D01*
X119070500Y-114465321D01*
X119070500Y-114455326D01*
X119070500Y-114455323D01*
X119070499Y-114455321D01*
X119055967Y-114382264D01*
X119055966Y-114382260D01*
X119047440Y-114369500D01*
X119000601Y-114299399D01*
X118944657Y-114262019D01*
X118917739Y-114244033D01*
X118917735Y-114244032D01*
X118844677Y-114229500D01*
X118844674Y-114229500D01*
X118334500Y-114229500D01*
X118267461Y-114209815D01*
X118221706Y-114157011D01*
X118210500Y-114105500D01*
X118210500Y-113743462D01*
X118220499Y-113706144D01*
X118220499Y-113613856D01*
X118210500Y-113576537D01*
X118210500Y-113169386D01*
X118230185Y-113102347D01*
X118246819Y-113081705D01*
X118273018Y-113055506D01*
X118300509Y-113028015D01*
X118372984Y-112902485D01*
X118410500Y-112762475D01*
X118410500Y-112617525D01*
X118372984Y-112477515D01*
X118367796Y-112468530D01*
X118300511Y-112351988D01*
X118300506Y-112351982D01*
X118198017Y-112249493D01*
X118198015Y-112249491D01*
X118195258Y-112247899D01*
X118159910Y-112227490D01*
X118111695Y-112176923D01*
X118098473Y-112108316D01*
X118124441Y-112043451D01*
X118146431Y-112021724D01*
X118148008Y-112020512D01*
X118148015Y-112020509D01*
X118250509Y-111918015D01*
X118322984Y-111792485D01*
X118360500Y-111652475D01*
X118360500Y-111507525D01*
X118322984Y-111367515D01*
X118311980Y-111348456D01*
X118250511Y-111241988D01*
X118250506Y-111241982D01*
X118148017Y-111139493D01*
X118148011Y-111139488D01*
X118022488Y-111067017D01*
X118022489Y-111067017D01*
X118011006Y-111063940D01*
X117882475Y-111029500D01*
X117737525Y-111029500D01*
X117608993Y-111063940D01*
X117597511Y-111067017D01*
X117471988Y-111139488D01*
X117471982Y-111139493D01*
X117369493Y-111241982D01*
X117369488Y-111241988D01*
X117297017Y-111367511D01*
X117297016Y-111367515D01*
X117259500Y-111507525D01*
X108278562Y-111507525D01*
X108136818Y-111365781D01*
X108103333Y-111304458D01*
X108100499Y-111278100D01*
X108100499Y-110657525D01*
X119839500Y-110657525D01*
X119839500Y-110802475D01*
X119856866Y-110867284D01*
X119877017Y-110942488D01*
X119949488Y-111068011D01*
X119949490Y-111068013D01*
X119949491Y-111068015D01*
X120051985Y-111170509D01*
X120051986Y-111170510D01*
X120051988Y-111170511D01*
X120177511Y-111242982D01*
X120177512Y-111242982D01*
X120177515Y-111242984D01*
X120317525Y-111280500D01*
X120317528Y-111280500D01*
X120462472Y-111280500D01*
X120462475Y-111280500D01*
X120602485Y-111242984D01*
X120728015Y-111170509D01*
X120830509Y-111068015D01*
X120902984Y-110942485D01*
X120940500Y-110802475D01*
X120940500Y-110657525D01*
X120902984Y-110517515D01*
X120830509Y-110391985D01*
X120728015Y-110289491D01*
X120728013Y-110289490D01*
X120728011Y-110289488D01*
X120602488Y-110217017D01*
X120602489Y-110217017D01*
X120591006Y-110213940D01*
X120462475Y-110179500D01*
X120317525Y-110179500D01*
X120188993Y-110213940D01*
X120177511Y-110217017D01*
X120051988Y-110289488D01*
X120051982Y-110289493D01*
X119949493Y-110391982D01*
X119949488Y-110391988D01*
X119877017Y-110517511D01*
X119877016Y-110517515D01*
X119839500Y-110657525D01*
X108100499Y-110657525D01*
X108100499Y-110587129D01*
X108100498Y-110587123D01*
X108100497Y-110587116D01*
X108094091Y-110527517D01*
X108090360Y-110517515D01*
X108043797Y-110392671D01*
X108043793Y-110392664D01*
X107957547Y-110277455D01*
X107957544Y-110277452D01*
X107842335Y-110191206D01*
X107842332Y-110191205D01*
X107842331Y-110191204D01*
X107831161Y-110187038D01*
X107813437Y-110173768D01*
X107793297Y-110164571D01*
X107786014Y-110153238D01*
X107775231Y-110145166D01*
X107767493Y-110124420D01*
X107755523Y-110105793D01*
X107752370Y-110083870D01*
X107750816Y-110079701D01*
X107750500Y-110070858D01*
X107750500Y-109967525D01*
X121359500Y-109967525D01*
X121359500Y-110112475D01*
X121397016Y-110252485D01*
X121397017Y-110252488D01*
X121469488Y-110378011D01*
X121469490Y-110378013D01*
X121469491Y-110378015D01*
X121571985Y-110480509D01*
X121571986Y-110480510D01*
X121571988Y-110480511D01*
X121697511Y-110552982D01*
X121697512Y-110552982D01*
X121697515Y-110552984D01*
X121837525Y-110590500D01*
X121837528Y-110590500D01*
X121938101Y-110590500D01*
X122005140Y-110610185D01*
X122025782Y-110626819D01*
X122493181Y-111094218D01*
X122526666Y-111155541D01*
X122529500Y-111181899D01*
X122529500Y-111874678D01*
X122544032Y-111947735D01*
X122544033Y-111947739D01*
X122559113Y-111970308D01*
X122599399Y-112030601D01*
X122668865Y-112077016D01*
X122682260Y-112085966D01*
X122682264Y-112085967D01*
X122755321Y-112100499D01*
X122755324Y-112100500D01*
X122755326Y-112100500D01*
X123804676Y-112100500D01*
X123804677Y-112100499D01*
X123877740Y-112085966D01*
X123960601Y-112030601D01*
X124015966Y-111947740D01*
X124030500Y-111874674D01*
X124030500Y-110825326D01*
X124030500Y-110825323D01*
X124030499Y-110825321D01*
X124015967Y-110752264D01*
X124015966Y-110752260D01*
X123960601Y-110669399D01*
X123905235Y-110632405D01*
X123877739Y-110614033D01*
X123877735Y-110614032D01*
X123804677Y-110599500D01*
X123804674Y-110599500D01*
X123111900Y-110599500D01*
X123044861Y-110579815D01*
X123024219Y-110563181D01*
X122495105Y-110034067D01*
X122462999Y-109975269D01*
X122462603Y-109975376D01*
X122462165Y-109973742D01*
X122461620Y-109972744D01*
X122461104Y-109969782D01*
X122460500Y-109967527D01*
X122460500Y-109967525D01*
X122422984Y-109827515D01*
X122420377Y-109823000D01*
X122350511Y-109701988D01*
X122350506Y-109701982D01*
X122248017Y-109599493D01*
X122248011Y-109599488D01*
X122122488Y-109527017D01*
X122122489Y-109527017D01*
X122111006Y-109523940D01*
X121982475Y-109489500D01*
X121837525Y-109489500D01*
X121708993Y-109523940D01*
X121697511Y-109527017D01*
X121571988Y-109599488D01*
X121571982Y-109599493D01*
X121469493Y-109701982D01*
X121469488Y-109701988D01*
X121397017Y-109827511D01*
X121397016Y-109827515D01*
X121359500Y-109967525D01*
X107750500Y-109967525D01*
X107750500Y-109925522D01*
X107770185Y-109858483D01*
X107822989Y-109812728D01*
X107892147Y-109802784D01*
X107917833Y-109809340D01*
X107937701Y-109816751D01*
X107967849Y-109819992D01*
X107995809Y-109822999D01*
X107995826Y-109823000D01*
X108564174Y-109823000D01*
X108564190Y-109822999D01*
X108622299Y-109816751D01*
X108642163Y-109809342D01*
X108753778Y-109767712D01*
X108866116Y-109683616D01*
X108950212Y-109571278D01*
X108999251Y-109439799D01*
X109005499Y-109381690D01*
X109005500Y-109381673D01*
X109005500Y-108824898D01*
X109025185Y-108757859D01*
X109041819Y-108737217D01*
X109172652Y-108606384D01*
X109381474Y-108397563D01*
X109381475Y-108397562D01*
X109430910Y-108311938D01*
X109441925Y-108270831D01*
X109448713Y-108245500D01*
X109452606Y-108230968D01*
X109456500Y-108216436D01*
X109456500Y-108117564D01*
X109456500Y-106603575D01*
X109449456Y-106577288D01*
X109439063Y-106538500D01*
X109430910Y-106508072D01*
X109381475Y-106422448D01*
X109311562Y-106352535D01*
X109037819Y-106078792D01*
X109023115Y-106051864D01*
X109006523Y-106026046D01*
X109005631Y-106019845D01*
X109004334Y-106017469D01*
X109001500Y-105991111D01*
X109001500Y-105904185D01*
X109021185Y-105837146D01*
X109073989Y-105791391D01*
X109125500Y-105780185D01*
X110649311Y-105780185D01*
X110716350Y-105799870D01*
X110762105Y-105852674D01*
X110773311Y-105904185D01*
X110773311Y-106187160D01*
X110777329Y-106207362D01*
X110771100Y-106276954D01*
X110728236Y-106332130D01*
X110662346Y-106355373D01*
X110594349Y-106339304D01*
X110593711Y-106338938D01*
X110522488Y-106297817D01*
X110522489Y-106297817D01*
X110494155Y-106290225D01*
X110382475Y-106260300D01*
X110237525Y-106260300D01*
X110125845Y-106290225D01*
X110097511Y-106297817D01*
X109971988Y-106370288D01*
X109971982Y-106370293D01*
X109869493Y-106472782D01*
X109869488Y-106472788D01*
X109797017Y-106598311D01*
X109797016Y-106598315D01*
X109759500Y-106738325D01*
X109759500Y-106883275D01*
X109797016Y-107023285D01*
X109797017Y-107023288D01*
X109869488Y-107148811D01*
X109869490Y-107148813D01*
X109869491Y-107148815D01*
X109971985Y-107251309D01*
X109971986Y-107251310D01*
X109971988Y-107251311D01*
X110097511Y-107323782D01*
X110097512Y-107323782D01*
X110097515Y-107323784D01*
X110237525Y-107361300D01*
X110237528Y-107361300D01*
X110382472Y-107361300D01*
X110382475Y-107361300D01*
X110522485Y-107323784D01*
X110648015Y-107251309D01*
X110750509Y-107148815D01*
X110822984Y-107023285D01*
X110860500Y-106883275D01*
X110860500Y-106738325D01*
X110822984Y-106598315D01*
X110816083Y-106586363D01*
X110799611Y-106518463D01*
X110822463Y-106452436D01*
X110877384Y-106409246D01*
X110946938Y-106402604D01*
X110947605Y-106402734D01*
X110973093Y-106407804D01*
X110999136Y-106412985D01*
X110999137Y-106412985D01*
X111353286Y-106412985D01*
X111366592Y-106410338D01*
X111436183Y-106416564D01*
X111491361Y-106459426D01*
X111514607Y-106525316D01*
X111514785Y-106531955D01*
X111514785Y-107555599D01*
X111548893Y-107682895D01*
X111572593Y-107723944D01*
X111614785Y-107797022D01*
X111614787Y-107797024D01*
X111677667Y-107859904D01*
X111704543Y-107900122D01*
X111707593Y-107907483D01*
X111707594Y-107907486D01*
X111780069Y-108033016D01*
X111882563Y-108135510D01*
X111882564Y-108135511D01*
X111882566Y-108135512D01*
X112008089Y-108207983D01*
X112008090Y-108207983D01*
X112008093Y-108207985D01*
X112148103Y-108245501D01*
X112148106Y-108245501D01*
X112293050Y-108245501D01*
X112293053Y-108245501D01*
X112433063Y-108207985D01*
X112558593Y-108135510D01*
X112661087Y-108033016D01*
X112733562Y-107907486D01*
X112771078Y-107767476D01*
X112771078Y-107622526D01*
X112733562Y-107482516D01*
X112713640Y-107448011D01*
X112661089Y-107356989D01*
X112661088Y-107356988D01*
X112661087Y-107356986D01*
X112558593Y-107254492D01*
X112558592Y-107254491D01*
X112552846Y-107248745D01*
X112555182Y-107246408D01*
X112523065Y-107202354D01*
X112515785Y-107160493D01*
X112515785Y-106276037D01*
X112522023Y-106254791D01*
X112523603Y-106232703D01*
X112531675Y-106221919D01*
X112535470Y-106208998D01*
X112552203Y-106194498D01*
X112565475Y-106176770D01*
X112578095Y-106172062D01*
X112588274Y-106163243D01*
X112610191Y-106160091D01*
X112630939Y-106152353D01*
X112644099Y-106155215D01*
X112657432Y-106153299D01*
X112677575Y-106162498D01*
X112699212Y-106167205D01*
X112716937Y-106180473D01*
X112720988Y-106182324D01*
X112727466Y-106188356D01*
X112771947Y-106232837D01*
X112791653Y-106258517D01*
X112809960Y-106290225D01*
X112859491Y-106376015D01*
X112961985Y-106478509D01*
X112961986Y-106478510D01*
X112961988Y-106478511D01*
X113087511Y-106550982D01*
X113087512Y-106550982D01*
X113087515Y-106550984D01*
X113227525Y-106588500D01*
X113227528Y-106588500D01*
X113372472Y-106588500D01*
X113372475Y-106588500D01*
X113512485Y-106550984D01*
X113638015Y-106478509D01*
X113698749Y-106417774D01*
X113760068Y-106384292D01*
X113829760Y-106389276D01*
X113867627Y-106411743D01*
X113872037Y-106415564D01*
X113872038Y-106415565D01*
X113872041Y-106415567D01*
X113872043Y-106415568D01*
X113872045Y-106415569D01*
X113997327Y-106472785D01*
X114002918Y-106475338D01*
X114069957Y-106495023D01*
X114069961Y-106495024D01*
X114212377Y-106515500D01*
X114212380Y-106515500D01*
X118434430Y-106515500D01*
X118434440Y-106515500D01*
X118447992Y-106515318D01*
X118454629Y-106515140D01*
X118468136Y-106514597D01*
X118609251Y-106486527D01*
X118675141Y-106463282D01*
X118802630Y-106396594D01*
X118906168Y-106296688D01*
X118929563Y-106266571D01*
X118986232Y-106225706D01*
X119056001Y-106221965D01*
X119089485Y-106235253D01*
X119137515Y-106262984D01*
X119277525Y-106300500D01*
X119277528Y-106300500D01*
X119422472Y-106300500D01*
X119422475Y-106300500D01*
X119562485Y-106262984D01*
X119609671Y-106235740D01*
X119677570Y-106219267D01*
X119743597Y-106242118D01*
X119767516Y-106265472D01*
X119767835Y-106265197D01*
X119816483Y-106321340D01*
X119816486Y-106321343D01*
X119816490Y-106321347D01*
X119925224Y-106415567D01*
X119925227Y-106415568D01*
X119925228Y-106415569D01*
X120050510Y-106472785D01*
X120056101Y-106475338D01*
X120123140Y-106495023D01*
X120123144Y-106495024D01*
X120265560Y-106515500D01*
X120265563Y-106515500D01*
X124376614Y-106515500D01*
X124443653Y-106535185D01*
X124489408Y-106587989D01*
X124499352Y-106657147D01*
X124470327Y-106720703D01*
X124464295Y-106727181D01*
X124419493Y-106771982D01*
X124419488Y-106771988D01*
X124347017Y-106897511D01*
X124347016Y-106897515D01*
X124309500Y-107037525D01*
X124309500Y-107182475D01*
X124340715Y-107298970D01*
X124347017Y-107322488D01*
X124419488Y-107448011D01*
X124419490Y-107448013D01*
X124419491Y-107448015D01*
X124521985Y-107550509D01*
X124521986Y-107550510D01*
X124521988Y-107550511D01*
X124647511Y-107622982D01*
X124647512Y-107622982D01*
X124647515Y-107622984D01*
X124787525Y-107660500D01*
X124808101Y-107660500D01*
X124875140Y-107680185D01*
X124895782Y-107696819D01*
X125353181Y-108154218D01*
X125386666Y-108215541D01*
X125389500Y-108241899D01*
X125389500Y-108934678D01*
X125404032Y-109007735D01*
X125404033Y-109007739D01*
X125404034Y-109007740D01*
X125459399Y-109090601D01*
X125542260Y-109145966D01*
X125542264Y-109145967D01*
X125615321Y-109160499D01*
X125615324Y-109160500D01*
X125615326Y-109160500D01*
X126664676Y-109160500D01*
X126664677Y-109160499D01*
X126737740Y-109145966D01*
X126820601Y-109090601D01*
X126875966Y-109007740D01*
X126890500Y-108934674D01*
X126890500Y-107885326D01*
X126890500Y-107885323D01*
X126890499Y-107885321D01*
X126875967Y-107812264D01*
X126875966Y-107812260D01*
X126865784Y-107797021D01*
X126820601Y-107729399D01*
X126746946Y-107680185D01*
X126737739Y-107674033D01*
X126737735Y-107674032D01*
X126664677Y-107659500D01*
X126664674Y-107659500D01*
X125971899Y-107659500D01*
X125904860Y-107639815D01*
X125884218Y-107623181D01*
X125446819Y-107185782D01*
X125413334Y-107124459D01*
X125410500Y-107098101D01*
X125410500Y-107037527D01*
X125410500Y-107037525D01*
X125372984Y-106897515D01*
X125370792Y-106893719D01*
X125300511Y-106771988D01*
X125300506Y-106771982D01*
X125255705Y-106727181D01*
X125222220Y-106665858D01*
X125227204Y-106596166D01*
X125269076Y-106540233D01*
X125334540Y-106515816D01*
X125343386Y-106515500D01*
X125585990Y-106515500D01*
X125586000Y-106515500D01*
X125693456Y-106503947D01*
X125744967Y-106492741D01*
X125787736Y-106478506D01*
X125847497Y-106458616D01*
X125847501Y-106458613D01*
X125847504Y-106458613D01*
X125968543Y-106380825D01*
X126021347Y-106335070D01*
X126115567Y-106226336D01*
X126175338Y-106095459D01*
X126195023Y-106028420D01*
X126195024Y-106028416D01*
X126215500Y-105886000D01*
X126215500Y-97054000D01*
X126203947Y-96946544D01*
X126192741Y-96895033D01*
X126181608Y-96861584D01*
X126158616Y-96792502D01*
X126158611Y-96792492D01*
X126123721Y-96738202D01*
X126104036Y-96671163D01*
X126115241Y-96619652D01*
X126165338Y-96509959D01*
X126185023Y-96442920D01*
X126185024Y-96442916D01*
X126205500Y-96300500D01*
X126205500Y-80236533D01*
X126494499Y-80236533D01*
X126520458Y-80367030D01*
X126520461Y-80367040D01*
X126571376Y-80489961D01*
X126571386Y-80489979D01*
X126645301Y-80600601D01*
X126645307Y-80600609D01*
X126739390Y-80694692D01*
X126739398Y-80694698D01*
X126850020Y-80768613D01*
X126850023Y-80768614D01*
X126850031Y-80768620D01*
X126972964Y-80819540D01*
X126972968Y-80819540D01*
X126972969Y-80819541D01*
X127103466Y-80845500D01*
X127103469Y-80845500D01*
X127236533Y-80845500D01*
X127324325Y-80828035D01*
X127367036Y-80819540D01*
X127489969Y-80768620D01*
X127600606Y-80694695D01*
X127694695Y-80600606D01*
X127768620Y-80489969D01*
X127819540Y-80367036D01*
X127845500Y-80236531D01*
X127845500Y-80103469D01*
X127845500Y-80103466D01*
X127819541Y-79972969D01*
X127819540Y-79972968D01*
X127819540Y-79972964D01*
X127768620Y-79850031D01*
X127694695Y-79739394D01*
X127694692Y-79739390D01*
X127600609Y-79645307D01*
X127600601Y-79645301D01*
X127489979Y-79571386D01*
X127489972Y-79571382D01*
X127489969Y-79571380D01*
X127489965Y-79571378D01*
X127489961Y-79571376D01*
X127367040Y-79520461D01*
X127367030Y-79520458D01*
X127236533Y-79494500D01*
X127236531Y-79494500D01*
X127103469Y-79494500D01*
X127103467Y-79494500D01*
X126972969Y-79520458D01*
X126972959Y-79520461D01*
X126850038Y-79571376D01*
X126850020Y-79571386D01*
X126739398Y-79645301D01*
X126739390Y-79645307D01*
X126645307Y-79739390D01*
X126645301Y-79739398D01*
X126571386Y-79850020D01*
X126571376Y-79850038D01*
X126520461Y-79972959D01*
X126520458Y-79972969D01*
X126494500Y-80103466D01*
X126494500Y-80103469D01*
X126494500Y-80236531D01*
X126494500Y-80236533D01*
X126494499Y-80236533D01*
X126205500Y-80236533D01*
X126205500Y-76204000D01*
X126193947Y-76096544D01*
X126182741Y-76045033D01*
X126182637Y-76044722D01*
X126148616Y-75942502D01*
X126148613Y-75942496D01*
X126070828Y-75821462D01*
X126070825Y-75821457D01*
X126070820Y-75821451D01*
X126025076Y-75768659D01*
X126025072Y-75768656D01*
X126025070Y-75768653D01*
X125916336Y-75674433D01*
X125916333Y-75674431D01*
X125916331Y-75674430D01*
X125785465Y-75614664D01*
X125785460Y-75614662D01*
X125785459Y-75614662D01*
X125718420Y-75594977D01*
X125718422Y-75594977D01*
X125718417Y-75594976D01*
X125656347Y-75586052D01*
X125576000Y-75574500D01*
X115519000Y-75574500D01*
X115518991Y-75574500D01*
X115518990Y-75574501D01*
X115411549Y-75586052D01*
X115411537Y-75586054D01*
X115360027Y-75597260D01*
X115257502Y-75631383D01*
X115257496Y-75631386D01*
X115136462Y-75709171D01*
X115136451Y-75709179D01*
X115083659Y-75754923D01*
X114989433Y-75863664D01*
X114989430Y-75863668D01*
X114929664Y-75994534D01*
X114909976Y-76061582D01*
X114904949Y-76096549D01*
X114889502Y-76203990D01*
X114889500Y-76204001D01*
X114889500Y-85559897D01*
X114894021Y-85627349D01*
X114898441Y-85660169D01*
X114911928Y-85726431D01*
X114969350Y-85858352D01*
X114969352Y-85858356D01*
X115006073Y-85917804D01*
X115008220Y-85920517D01*
X115009621Y-85922049D01*
X115098334Y-86028200D01*
X115098344Y-86028209D01*
X115217964Y-86108135D01*
X115217971Y-86108140D01*
X115265327Y-86130796D01*
X115280998Y-86138294D01*
X115418302Y-86181287D01*
X115418299Y-86181287D01*
X115425616Y-86181417D01*
X115562159Y-86183857D01*
X115591510Y-86180170D01*
X115600450Y-86179048D01*
X115669420Y-86190225D01*
X115721398Y-86236915D01*
X115739882Y-86304295D01*
X115719004Y-86370973D01*
X115715169Y-86376391D01*
X115655166Y-86456545D01*
X115655162Y-86456552D01*
X115608009Y-86582975D01*
X115602000Y-86638855D01*
X115602000Y-87089441D01*
X115582315Y-87156480D01*
X115529511Y-87202235D01*
X115478007Y-87213441D01*
X115464708Y-87213441D01*
X115445009Y-87216273D01*
X115395545Y-87223386D01*
X115395540Y-87223387D01*
X115395536Y-87223388D01*
X115257498Y-87263920D01*
X115257492Y-87263923D01*
X115136462Y-87341705D01*
X115136451Y-87341713D01*
X115083659Y-87387457D01*
X114989433Y-87496198D01*
X114989430Y-87496202D01*
X114929664Y-87627068D01*
X114909976Y-87694116D01*
X114889500Y-87836535D01*
X114889500Y-93375500D01*
X114869815Y-93442539D01*
X114817011Y-93488294D01*
X114765500Y-93499500D01*
X113895323Y-93499500D01*
X113822264Y-93514032D01*
X113822260Y-93514033D01*
X113739399Y-93569399D01*
X113684033Y-93652260D01*
X113684032Y-93652264D01*
X113669500Y-93725321D01*
X113669500Y-96517199D01*
X113662055Y-96542551D01*
X113658295Y-96568709D01*
X113652365Y-96575552D01*
X113649815Y-96584238D01*
X113629849Y-96601538D01*
X113612541Y-96621514D01*
X113600394Y-96627061D01*
X113597011Y-96629993D01*
X113580436Y-96636176D01*
X113541957Y-96647475D01*
X113472088Y-96647476D01*
X113413309Y-96609702D01*
X113413307Y-96609700D01*
X113395072Y-96588655D01*
X113384656Y-96579629D01*
X113286336Y-96494433D01*
X113286333Y-96494431D01*
X113286331Y-96494430D01*
X113155465Y-96434664D01*
X113155460Y-96434662D01*
X113155459Y-96434662D01*
X113088420Y-96414977D01*
X113088422Y-96414977D01*
X113088417Y-96414976D01*
X113026347Y-96406052D01*
X112946000Y-96394500D01*
X107344000Y-96394500D01*
X107343991Y-96394500D01*
X107343990Y-96394501D01*
X107236549Y-96406052D01*
X107236537Y-96406054D01*
X107185027Y-96417260D01*
X107082502Y-96451383D01*
X107082498Y-96451385D01*
X106975270Y-96520297D01*
X106908231Y-96539981D01*
X106841191Y-96520296D01*
X106827031Y-96509696D01*
X106786336Y-96474433D01*
X106786333Y-96474431D01*
X106786331Y-96474430D01*
X106655465Y-96414664D01*
X106655460Y-96414662D01*
X106655459Y-96414662D01*
X106588420Y-96394977D01*
X106588422Y-96394977D01*
X106588417Y-96394976D01*
X106526347Y-96386052D01*
X106446000Y-96374500D01*
X101944000Y-96374500D01*
X101943991Y-96374500D01*
X101943990Y-96374501D01*
X101836549Y-96386052D01*
X101836537Y-96386054D01*
X101785027Y-96397260D01*
X101682502Y-96431383D01*
X101682496Y-96431386D01*
X101561462Y-96509171D01*
X101561451Y-96509179D01*
X101508659Y-96554923D01*
X101414433Y-96663664D01*
X101414430Y-96663668D01*
X101354664Y-96794534D01*
X101334976Y-96861582D01*
X101314500Y-97004001D01*
X101314500Y-101636725D01*
X101294815Y-101703764D01*
X101242011Y-101749519D01*
X101172854Y-101759463D01*
X101068779Y-101744500D01*
X98807399Y-101744500D01*
X98807396Y-101744500D01*
X98695541Y-101757030D01*
X98695537Y-101757031D01*
X98642030Y-101769172D01*
X98535716Y-101806145D01*
X98483389Y-101841109D01*
X98416712Y-101861986D01*
X98349332Y-101843501D01*
X98302642Y-101791521D01*
X98290500Y-101738006D01*
X98290500Y-101375323D01*
X98290499Y-101375321D01*
X98275967Y-101302264D01*
X98275966Y-101302260D01*
X98270277Y-101293746D01*
X98220601Y-101219399D01*
X98165235Y-101182405D01*
X98137739Y-101164033D01*
X98137735Y-101164032D01*
X98064677Y-101149500D01*
X98064674Y-101149500D01*
X97015326Y-101149500D01*
X97015323Y-101149500D01*
X96942264Y-101164032D01*
X96942260Y-101164033D01*
X96859399Y-101219399D01*
X96804033Y-101302260D01*
X96804032Y-101302264D01*
X96789500Y-101375321D01*
X96789500Y-102295066D01*
X96781654Y-102321785D01*
X96777036Y-102349248D01*
X96771946Y-102354846D01*
X96769815Y-102362105D01*
X96748772Y-102380338D01*
X96730037Y-102400948D01*
X96720054Y-102405222D01*
X96717011Y-102407860D01*
X96697594Y-102414840D01*
X96678518Y-102419951D01*
X96607656Y-102438939D01*
X96537806Y-102437276D01*
X96487882Y-102406845D01*
X96236819Y-102155782D01*
X96203334Y-102094459D01*
X96200500Y-102068101D01*
X96200500Y-101375323D01*
X96200499Y-101375321D01*
X96185967Y-101302264D01*
X96185966Y-101302260D01*
X96180277Y-101293746D01*
X96130601Y-101219399D01*
X96075235Y-101182405D01*
X96047739Y-101164033D01*
X96047735Y-101164032D01*
X95974677Y-101149500D01*
X95974674Y-101149500D01*
X94960127Y-101149500D01*
X94893088Y-101129815D01*
X94847333Y-101077011D01*
X94837389Y-101007853D01*
X94866414Y-100944297D01*
X94884638Y-100927126D01*
X94891043Y-100922209D01*
X94891050Y-100922206D01*
X94993544Y-100819712D01*
X95066019Y-100694182D01*
X95103535Y-100554172D01*
X95103535Y-100409222D01*
X95066019Y-100269212D01*
X95062894Y-100263800D01*
X94993546Y-100143685D01*
X94993541Y-100143679D01*
X94891052Y-100041190D01*
X94891046Y-100041185D01*
X94765523Y-99968714D01*
X94765524Y-99968714D01*
X94745337Y-99963305D01*
X94625510Y-99931197D01*
X94625507Y-99931197D01*
X94613315Y-99931197D01*
X94546276Y-99911512D01*
X94500521Y-99858708D01*
X94490026Y-99820453D01*
X94489915Y-99819426D01*
X94489491Y-99815478D01*
X94486693Y-99807977D01*
X94442337Y-99689052D01*
X94442336Y-99689051D01*
X94442336Y-99689050D01*
X94382267Y-99608808D01*
X94357852Y-99543347D01*
X94372703Y-99475074D01*
X94420251Y-99427525D01*
X96809500Y-99427525D01*
X96809500Y-99572475D01*
X96843416Y-99699049D01*
X96847017Y-99712488D01*
X96919488Y-99838011D01*
X96919490Y-99838013D01*
X96919491Y-99838015D01*
X97021985Y-99940509D01*
X97021986Y-99940510D01*
X97021988Y-99940511D01*
X97147511Y-100012982D01*
X97147512Y-100012982D01*
X97147515Y-100012984D01*
X97287525Y-100050500D01*
X97287528Y-100050500D01*
X97432472Y-100050500D01*
X97432475Y-100050500D01*
X97572485Y-100012984D01*
X97698015Y-99940509D01*
X97800509Y-99838015D01*
X97823622Y-99797981D01*
X97874189Y-99749766D01*
X97942796Y-99736543D01*
X98007661Y-99762511D01*
X98048189Y-99819426D01*
X98053707Y-99867993D01*
X98054678Y-99868045D01*
X98054500Y-99871370D01*
X98054500Y-100398644D01*
X98060509Y-100454524D01*
X98107662Y-100580947D01*
X98107664Y-100580950D01*
X98188528Y-100688972D01*
X98296549Y-100769835D01*
X98296552Y-100769837D01*
X98418980Y-100815500D01*
X98422978Y-100816991D01*
X98452318Y-100820145D01*
X98478855Y-100822999D01*
X98478870Y-100823000D01*
X98948083Y-100823000D01*
X98972510Y-100825430D01*
X98976381Y-100826207D01*
X99071853Y-100851789D01*
X99071854Y-100851789D01*
X99103694Y-100851789D01*
X99115788Y-100854219D01*
X99136236Y-100864966D01*
X99158400Y-100871474D01*
X99176740Y-100886253D01*
X99177636Y-100886724D01*
X99177897Y-100887186D01*
X99179042Y-100888108D01*
X99207732Y-100916798D01*
X99207733Y-100916799D01*
X99207735Y-100916800D01*
X99333258Y-100989271D01*
X99333259Y-100989271D01*
X99333262Y-100989273D01*
X99473272Y-101026789D01*
X99473275Y-101026789D01*
X99618219Y-101026789D01*
X99618222Y-101026789D01*
X99758232Y-100989273D01*
X99883762Y-100916798D01*
X99986256Y-100814304D01*
X100058731Y-100688774D01*
X100096247Y-100548764D01*
X100096247Y-100403814D01*
X100058731Y-100263804D01*
X99989378Y-100143682D01*
X99986258Y-100138277D01*
X99986253Y-100138271D01*
X99883764Y-100035782D01*
X99883758Y-100035777D01*
X99758235Y-99963306D01*
X99758236Y-99963306D01*
X99673146Y-99940506D01*
X99618222Y-99925789D01*
X99618218Y-99925788D01*
X99610162Y-99924728D01*
X99610495Y-99922195D01*
X99555695Y-99906104D01*
X99509940Y-99853300D01*
X99501609Y-99822940D01*
X99501273Y-99823020D01*
X99499490Y-99815475D01*
X99452337Y-99689052D01*
X99452335Y-99689049D01*
X99371472Y-99581028D01*
X99263450Y-99500164D01*
X99263447Y-99500162D01*
X99165638Y-99463682D01*
X99109704Y-99421811D01*
X99085287Y-99356347D01*
X99100139Y-99288074D01*
X99149544Y-99238668D01*
X99165638Y-99231318D01*
X99254921Y-99198017D01*
X99263450Y-99194836D01*
X99371472Y-99113972D01*
X99371473Y-99113970D01*
X99378571Y-99108657D01*
X99379873Y-99110397D01*
X99430553Y-99082716D01*
X99489014Y-99084103D01*
X99587525Y-99110500D01*
X99587529Y-99110500D01*
X99732472Y-99110500D01*
X99732475Y-99110500D01*
X99872485Y-99072984D01*
X99998015Y-99000509D01*
X100100509Y-98898015D01*
X100172984Y-98772485D01*
X100210500Y-98632475D01*
X100210500Y-98487525D01*
X100172984Y-98347515D01*
X100172696Y-98347017D01*
X100100511Y-98221988D01*
X100100506Y-98221982D01*
X99998017Y-98119493D01*
X99998011Y-98119488D01*
X99872488Y-98047017D01*
X99872489Y-98047017D01*
X99851302Y-98041340D01*
X99732475Y-98009500D01*
X99587525Y-98009500D01*
X99489018Y-98035894D01*
X99419170Y-98034232D01*
X99379525Y-98010067D01*
X99378571Y-98011343D01*
X99371473Y-98006029D01*
X99371472Y-98006028D01*
X99263450Y-97925164D01*
X99263447Y-97925162D01*
X99137024Y-97878009D01*
X99081144Y-97872000D01*
X99081130Y-97872000D01*
X98478870Y-97872000D01*
X98478855Y-97872000D01*
X98422975Y-97878009D01*
X98296552Y-97925162D01*
X98296549Y-97925164D01*
X98188528Y-98006028D01*
X98107664Y-98114049D01*
X98107662Y-98114052D01*
X98060509Y-98240475D01*
X98054500Y-98296355D01*
X98054500Y-98823644D01*
X98060509Y-98879524D01*
X98107662Y-99005947D01*
X98107664Y-99005950D01*
X98188528Y-99113972D01*
X98287914Y-99188371D01*
X98296549Y-99194835D01*
X98296552Y-99194837D01*
X98394361Y-99231318D01*
X98450295Y-99273189D01*
X98474712Y-99338654D01*
X98459860Y-99406927D01*
X98410455Y-99456332D01*
X98394361Y-99463682D01*
X98296552Y-99500162D01*
X98296549Y-99500164D01*
X98188528Y-99581028D01*
X98133767Y-99654180D01*
X98077833Y-99696051D01*
X98008141Y-99701035D01*
X97946818Y-99667550D01*
X97913334Y-99606226D01*
X97910500Y-99579869D01*
X97910500Y-99427527D01*
X97910500Y-99427525D01*
X97872984Y-99287515D01*
X97864306Y-99272485D01*
X97800511Y-99161988D01*
X97800506Y-99161982D01*
X97698017Y-99059493D01*
X97698011Y-99059488D01*
X97572488Y-98987017D01*
X97572489Y-98987017D01*
X97561006Y-98983940D01*
X97432475Y-98949500D01*
X97287525Y-98949500D01*
X97158993Y-98983940D01*
X97147511Y-98987017D01*
X97021988Y-99059488D01*
X97021982Y-99059493D01*
X96919493Y-99161982D01*
X96919488Y-99161988D01*
X96847017Y-99287511D01*
X96847016Y-99287515D01*
X96809500Y-99427525D01*
X94420251Y-99427525D01*
X94422108Y-99425668D01*
X94481536Y-99410500D01*
X94632472Y-99410500D01*
X94632475Y-99410500D01*
X94772485Y-99372984D01*
X94898015Y-99300509D01*
X95000509Y-99198015D01*
X95072984Y-99072485D01*
X95110500Y-98932475D01*
X95110500Y-98787525D01*
X95072984Y-98647515D01*
X95062865Y-98629989D01*
X95000511Y-98521988D01*
X95000506Y-98521982D01*
X94898017Y-98419493D01*
X94898011Y-98419488D01*
X94772488Y-98347017D01*
X94772489Y-98347017D01*
X94761006Y-98343940D01*
X94632475Y-98309500D01*
X94632472Y-98309500D01*
X94601330Y-98309500D01*
X94534291Y-98289815D01*
X94488536Y-98237011D01*
X94485148Y-98228833D01*
X94442337Y-98114052D01*
X94442335Y-98114049D01*
X94361472Y-98006028D01*
X94253450Y-97925164D01*
X94253447Y-97925162D01*
X94127024Y-97878009D01*
X94071144Y-97872000D01*
X94071130Y-97872000D01*
X93468870Y-97872000D01*
X93468855Y-97872000D01*
X93412975Y-97878009D01*
X93286552Y-97925162D01*
X93286549Y-97925164D01*
X93178528Y-98006028D01*
X93097664Y-98114049D01*
X93097662Y-98114052D01*
X93050509Y-98240475D01*
X93044500Y-98296355D01*
X93044500Y-98823644D01*
X93050509Y-98879524D01*
X93097662Y-99005947D01*
X93097664Y-99005950D01*
X93178528Y-99113972D01*
X93277914Y-99188371D01*
X93286549Y-99194835D01*
X93286552Y-99194837D01*
X93384361Y-99231318D01*
X93440295Y-99273189D01*
X93464712Y-99338654D01*
X93449860Y-99406927D01*
X93400455Y-99456332D01*
X93384361Y-99463682D01*
X93286552Y-99500162D01*
X93286549Y-99500164D01*
X93178528Y-99581028D01*
X93163767Y-99600747D01*
X93107833Y-99642618D01*
X93038141Y-99647602D01*
X92976818Y-99614117D01*
X92943334Y-99552793D01*
X92940500Y-99526436D01*
X92940500Y-99387527D01*
X92940500Y-99387525D01*
X92902984Y-99247515D01*
X92895877Y-99235206D01*
X92830511Y-99121988D01*
X92830506Y-99121982D01*
X92728017Y-99019493D01*
X92728011Y-99019488D01*
X92602488Y-98947017D01*
X92602489Y-98947017D01*
X92577275Y-98940261D01*
X92462475Y-98909500D01*
X92317525Y-98909500D01*
X92202725Y-98940261D01*
X92177511Y-98947017D01*
X92051988Y-99019488D01*
X92051982Y-99019493D01*
X91949493Y-99121982D01*
X91949488Y-99121988D01*
X91877017Y-99247511D01*
X91873252Y-99261564D01*
X91839500Y-99387525D01*
X91839500Y-99532475D01*
X91869013Y-99642618D01*
X91877017Y-99672488D01*
X91949488Y-99798011D01*
X91949490Y-99798013D01*
X91949491Y-99798015D01*
X92051985Y-99900509D01*
X92051986Y-99900510D01*
X92051988Y-99900511D01*
X92177511Y-99972982D01*
X92177512Y-99972982D01*
X92177515Y-99972984D01*
X92317525Y-100010500D01*
X92317528Y-100010500D01*
X92462472Y-100010500D01*
X92462475Y-100010500D01*
X92602485Y-99972984D01*
X92728015Y-99900509D01*
X92830509Y-99798015D01*
X92830509Y-99798014D01*
X92832819Y-99795705D01*
X92894142Y-99762220D01*
X92963834Y-99767204D01*
X93019767Y-99809076D01*
X93044184Y-99874540D01*
X93044500Y-99883386D01*
X93044500Y-100398644D01*
X93050509Y-100454524D01*
X93097662Y-100580947D01*
X93097664Y-100580950D01*
X93178528Y-100688972D01*
X93286549Y-100769835D01*
X93286552Y-100769837D01*
X93408980Y-100815500D01*
X93412978Y-100816991D01*
X93442318Y-100820145D01*
X93468855Y-100822999D01*
X93468870Y-100823000D01*
X93926314Y-100823000D01*
X93950449Y-100825371D01*
X93966460Y-100828548D01*
X93971760Y-100831608D01*
X94067261Y-100857197D01*
X94067262Y-100857197D01*
X94110835Y-100857197D01*
X94122784Y-100859568D01*
X94143388Y-100870334D01*
X94165688Y-100876882D01*
X94183702Y-100891398D01*
X94184710Y-100891925D01*
X94185011Y-100892453D01*
X94186330Y-100893516D01*
X94215020Y-100922206D01*
X94215021Y-100922207D01*
X94215023Y-100922208D01*
X94340546Y-100994679D01*
X94340547Y-100994679D01*
X94340550Y-100994681D01*
X94480560Y-101032197D01*
X94480563Y-101032197D01*
X94625507Y-101032197D01*
X94625510Y-101032197D01*
X94634910Y-101029678D01*
X94704757Y-101031341D01*
X94762620Y-101070503D01*
X94790125Y-101134731D01*
X94778539Y-101203633D01*
X94770105Y-101218343D01*
X94714033Y-101302260D01*
X94714032Y-101302264D01*
X94699500Y-101375321D01*
X94699500Y-101667438D01*
X94679815Y-101734477D01*
X94627011Y-101780232D01*
X94557853Y-101790176D01*
X94539341Y-101785453D01*
X94539208Y-101785910D01*
X94534963Y-101784663D01*
X94534960Y-101784662D01*
X94479127Y-101768267D01*
X94467918Y-101764976D01*
X94412650Y-101757030D01*
X94325501Y-101744500D01*
X92523386Y-101744500D01*
X92456347Y-101724815D01*
X92410592Y-101672011D01*
X92400648Y-101602853D01*
X92429673Y-101539297D01*
X92435705Y-101532819D01*
X92471494Y-101497030D01*
X92520509Y-101448015D01*
X92592984Y-101322485D01*
X92630500Y-101182475D01*
X92630500Y-101037525D01*
X92592984Y-100897515D01*
X92590061Y-100892453D01*
X92520511Y-100771988D01*
X92520506Y-100771982D01*
X92418017Y-100669493D01*
X92418011Y-100669488D01*
X92292488Y-100597017D01*
X92292489Y-100597017D01*
X92281006Y-100593940D01*
X92152475Y-100559500D01*
X92007525Y-100559500D01*
X91878993Y-100593940D01*
X91867511Y-100597017D01*
X91741988Y-100669488D01*
X91741982Y-100669493D01*
X91639493Y-100771982D01*
X91639488Y-100771988D01*
X91567017Y-100897511D01*
X91567016Y-100897515D01*
X91529500Y-101037525D01*
X91529500Y-101182475D01*
X91559317Y-101293752D01*
X91567017Y-101322488D01*
X91639488Y-101448011D01*
X91639493Y-101448017D01*
X91724295Y-101532819D01*
X91757780Y-101594142D01*
X91752796Y-101663834D01*
X91710924Y-101719767D01*
X91645460Y-101744184D01*
X91636614Y-101744500D01*
X91529131Y-101744500D01*
X91395670Y-101762438D01*
X91332512Y-101779727D01*
X91208530Y-101832262D01*
X91203487Y-101835278D01*
X91135847Y-101852787D01*
X91088339Y-101841646D01*
X90985465Y-101794664D01*
X90985460Y-101794662D01*
X90985459Y-101794662D01*
X90918420Y-101774977D01*
X90918422Y-101774977D01*
X90918417Y-101774976D01*
X90870944Y-101768150D01*
X90776000Y-101754500D01*
X90775998Y-101754500D01*
X89785208Y-101754500D01*
X89718169Y-101734815D01*
X89672414Y-101682011D01*
X89662470Y-101612853D01*
X89691495Y-101549297D01*
X89706543Y-101534647D01*
X89810009Y-101449735D01*
X90049735Y-101210009D01*
X90264810Y-100947939D01*
X90453162Y-100666051D01*
X90612977Y-100367058D01*
X90742716Y-100053840D01*
X90841129Y-99729414D01*
X90907270Y-99396904D01*
X90940500Y-99059512D01*
X90940500Y-98720488D01*
X90907270Y-98383096D01*
X90841129Y-98050586D01*
X90742716Y-97726160D01*
X90612977Y-97412942D01*
X90453162Y-97113949D01*
X90264810Y-96832061D01*
X90049735Y-96569991D01*
X90049734Y-96569990D01*
X90049730Y-96569985D01*
X89810014Y-96330269D01*
X89547944Y-96115194D01*
X89547943Y-96115193D01*
X89547939Y-96115190D01*
X89491685Y-96077602D01*
X89446880Y-96023990D01*
X89438173Y-95954665D01*
X89468327Y-95891637D01*
X89527771Y-95854918D01*
X89560576Y-95850500D01*
X108591966Y-95850500D01*
X108591969Y-95850500D01*
X108934250Y-95816789D01*
X109271578Y-95749690D01*
X109600705Y-95649850D01*
X109918462Y-95518231D01*
X110112263Y-95414642D01*
X110170716Y-95400000D01*
X110400000Y-95400000D01*
X110400000Y-95303300D01*
X110419685Y-95236261D01*
X110455105Y-95200201D01*
X110507760Y-95165019D01*
X110773627Y-94946828D01*
X111016828Y-94703627D01*
X111235019Y-94437760D01*
X111426100Y-94151787D01*
X111588231Y-93848462D01*
X111719850Y-93530705D01*
X111819690Y-93201578D01*
X111886789Y-92864250D01*
X111920500Y-92521969D01*
X111920500Y-92350000D01*
X111920500Y-92284108D01*
X111920500Y-75273750D01*
X111920726Y-75266263D01*
X111938271Y-74976205D01*
X111940076Y-74961340D01*
X111991780Y-74679201D01*
X111995364Y-74664663D01*
X112072096Y-74418422D01*
X112080696Y-74390822D01*
X112085998Y-74376841D01*
X112203731Y-74115249D01*
X112210676Y-74102016D01*
X112359080Y-73856526D01*
X112367567Y-73844230D01*
X112544480Y-73618417D01*
X112554395Y-73607226D01*
X112757226Y-73404395D01*
X112768417Y-73394480D01*
X112994230Y-73217567D01*
X113006526Y-73209080D01*
X113252016Y-73060676D01*
X113265249Y-73053731D01*
X113526841Y-72935998D01*
X113540822Y-72930696D01*
X113814668Y-72845362D01*
X113829197Y-72841780D01*
X114111344Y-72790075D01*
X114126201Y-72788271D01*
X114416264Y-72770726D01*
X114423751Y-72770500D01*
X114485892Y-72770500D01*
X128054108Y-72770500D01*
X128116249Y-72770500D01*
X128123736Y-72770726D01*
G37*
%TD.AperFunction*%
%TD*%
%TA.AperFunction,Conductor*%
%TO.N,/SW1*%
G36*
X113013039Y-96919685D02*
G01*
X113058794Y-96972489D01*
X113070000Y-97024000D01*
X113070000Y-104645231D01*
X113050315Y-104712270D01*
X112997511Y-104758025D01*
X112928353Y-104767969D01*
X112921808Y-104766848D01*
X112817428Y-104746085D01*
X112817426Y-104746085D01*
X112669592Y-104746085D01*
X112669590Y-104746085D01*
X112524602Y-104774925D01*
X112524596Y-104774927D01*
X112388018Y-104831499D01*
X112388011Y-104831503D01*
X112265094Y-104913632D01*
X112265082Y-104913642D01*
X112263926Y-104914798D01*
X112250573Y-104926367D01*
X112170066Y-104986635D01*
X112170060Y-104986642D01*
X112083816Y-105101848D01*
X112081864Y-105105424D01*
X112078981Y-105108306D01*
X112078497Y-105108954D01*
X112078403Y-105108884D01*
X112032460Y-105154831D01*
X111973030Y-105170000D01*
X111705893Y-105170000D01*
X111676456Y-105161356D01*
X111646467Y-105154833D01*
X111641450Y-105151077D01*
X111638854Y-105150315D01*
X111618213Y-105133682D01*
X111574944Y-105090413D01*
X111574940Y-105090410D01*
X111494823Y-105010293D01*
X111494803Y-105010271D01*
X111403358Y-104918826D01*
X111357950Y-104888486D01*
X111357949Y-104888485D01*
X111352134Y-104884600D01*
X111300911Y-104850373D01*
X111220417Y-104817032D01*
X111205082Y-104810680D01*
X111187078Y-104803222D01*
X111177052Y-104801228D01*
X111126654Y-104791203D01*
X111066235Y-104779185D01*
X111066232Y-104779185D01*
X111066231Y-104779185D01*
X108809460Y-104779185D01*
X108686246Y-104779185D01*
X108686242Y-104779185D01*
X108635225Y-104789332D01*
X108635218Y-104789334D01*
X108625824Y-104791203D01*
X108565401Y-104803222D01*
X108451567Y-104850374D01*
X108431303Y-104863913D01*
X108417352Y-104869016D01*
X108396709Y-104870360D01*
X108376970Y-104876540D01*
X108357759Y-104872896D01*
X108347630Y-104873556D01*
X108340553Y-104869633D01*
X108327310Y-104867121D01*
X108233497Y-104828263D01*
X108233491Y-104828261D01*
X108100308Y-104801769D01*
X108038397Y-104769384D01*
X108003823Y-104708668D01*
X108000500Y-104680152D01*
X108000500Y-104252624D01*
X108020185Y-104185585D01*
X108038629Y-104164875D01*
X108037851Y-104164097D01*
X108153655Y-104048292D01*
X108153658Y-104048289D01*
X108241263Y-103917179D01*
X108301606Y-103771497D01*
X108332369Y-103616842D01*
X108332369Y-103459158D01*
X108332369Y-103459155D01*
X108332368Y-103459153D01*
X108301607Y-103304510D01*
X108301606Y-103304503D01*
X108301604Y-103304498D01*
X108241266Y-103158827D01*
X108241259Y-103158814D01*
X108153658Y-103027711D01*
X108153655Y-103027707D01*
X108042161Y-102916213D01*
X108042157Y-102916210D01*
X107911054Y-102828609D01*
X107911041Y-102828602D01*
X107765370Y-102768264D01*
X107765358Y-102768261D01*
X107610714Y-102737500D01*
X107610711Y-102737500D01*
X107453027Y-102737500D01*
X107453022Y-102737500D01*
X107368191Y-102754374D01*
X107298599Y-102748147D01*
X107243422Y-102705284D01*
X107220178Y-102639394D01*
X107220000Y-102632757D01*
X107220000Y-97024000D01*
X107239685Y-96956961D01*
X107292489Y-96911206D01*
X107344000Y-96900000D01*
X112946000Y-96900000D01*
X113013039Y-96919685D01*
G37*
%TD.AperFunction*%
%TD*%
%TA.AperFunction,Conductor*%
%TO.N,/Converter/BOOST_OUT*%
G36*
X94392540Y-102269685D02*
G01*
X94438295Y-102322489D01*
X94449501Y-102374000D01*
X94449501Y-102447876D01*
X94455908Y-102507483D01*
X94506202Y-102642328D01*
X94506206Y-102642335D01*
X94592452Y-102757544D01*
X94592455Y-102757547D01*
X94707664Y-102843793D01*
X94707671Y-102843797D01*
X94752618Y-102860561D01*
X94842517Y-102894091D01*
X94902127Y-102900500D01*
X95514546Y-102900499D01*
X95581585Y-102920183D01*
X95602227Y-102936818D01*
X96024141Y-103358732D01*
X96024142Y-103358733D01*
X96111267Y-103445858D01*
X96199099Y-103504545D01*
X96217881Y-103519959D01*
X96278863Y-103580941D01*
X96279712Y-103581790D01*
X96410814Y-103669390D01*
X96410827Y-103669397D01*
X96521810Y-103715367D01*
X96556503Y-103729737D01*
X96686791Y-103755653D01*
X96711153Y-103760499D01*
X96711156Y-103760500D01*
X96711158Y-103760500D01*
X96868844Y-103760500D01*
X96868845Y-103760499D01*
X97023497Y-103729737D01*
X97156014Y-103674847D01*
X97169172Y-103669397D01*
X97169172Y-103669396D01*
X97169179Y-103669394D01*
X97300289Y-103581789D01*
X97386232Y-103495845D01*
X97447553Y-103462362D01*
X97517245Y-103467346D01*
X97542803Y-103480426D01*
X97565882Y-103495847D01*
X97612931Y-103527284D01*
X97612933Y-103527285D01*
X97612937Y-103527287D01*
X97744521Y-103581790D01*
X97758613Y-103587627D01*
X97913263Y-103618389D01*
X97913266Y-103618390D01*
X97913268Y-103618390D01*
X98070954Y-103618390D01*
X98070955Y-103618389D01*
X98225607Y-103587627D01*
X98371289Y-103527284D01*
X98502399Y-103439679D01*
X98613899Y-103328179D01*
X98701504Y-103197069D01*
X98703798Y-103191532D01*
X98761845Y-103051391D01*
X98761847Y-103051387D01*
X98792610Y-102896732D01*
X98792610Y-102739048D01*
X98792610Y-102739045D01*
X98792609Y-102739043D01*
X98773372Y-102642335D01*
X98761847Y-102584393D01*
X98701504Y-102438711D01*
X98701500Y-102438705D01*
X98698631Y-102433337D01*
X98700921Y-102432112D01*
X98683419Y-102376213D01*
X98701904Y-102308833D01*
X98753883Y-102262143D01*
X98807399Y-102250000D01*
X101068779Y-102250000D01*
X101135818Y-102269685D01*
X101181573Y-102322489D01*
X101191517Y-102391647D01*
X101162492Y-102455203D01*
X101137670Y-102477102D01*
X101117025Y-102490896D01*
X101117021Y-102490899D01*
X101005527Y-102602393D01*
X101005524Y-102602397D01*
X100917923Y-102733500D01*
X100917916Y-102733513D01*
X100857578Y-102879184D01*
X100857575Y-102879196D01*
X100826814Y-103033839D01*
X100826814Y-103191532D01*
X100857575Y-103346175D01*
X100857578Y-103346187D01*
X100917916Y-103491858D01*
X100917923Y-103491871D01*
X101005524Y-103622974D01*
X101005527Y-103622978D01*
X101117024Y-103734475D01*
X101188865Y-103782477D01*
X101248135Y-103822080D01*
X101248141Y-103822082D01*
X101248142Y-103822083D01*
X101263449Y-103828423D01*
X101317854Y-103872262D01*
X101339921Y-103938556D01*
X101340000Y-103942985D01*
X101340000Y-105583851D01*
X101320315Y-105650890D01*
X101319102Y-105652742D01*
X101302299Y-105677888D01*
X101302292Y-105677901D01*
X101241954Y-105823572D01*
X101241951Y-105823584D01*
X101211190Y-105978227D01*
X101211190Y-106135920D01*
X101241951Y-106290563D01*
X101241954Y-106290575D01*
X101302293Y-106436248D01*
X101302294Y-106436249D01*
X101302296Y-106436253D01*
X101319102Y-106461405D01*
X101339980Y-106528081D01*
X101340000Y-106530295D01*
X101340000Y-111281000D01*
X101320315Y-111348039D01*
X101267511Y-111393794D01*
X101216000Y-111405000D01*
X91523441Y-111405000D01*
X91497950Y-111397514D01*
X91471657Y-111393670D01*
X91462028Y-111386967D01*
X91456402Y-111385315D01*
X91442012Y-111374517D01*
X91438785Y-111371707D01*
X91430289Y-111363211D01*
X91424867Y-111359588D01*
X91418903Y-111354395D01*
X91404169Y-111331346D01*
X91386633Y-111310360D01*
X91385625Y-111302337D01*
X91381271Y-111295525D01*
X91381337Y-111268174D01*
X91377930Y-111241034D01*
X91381356Y-111225939D01*
X91385023Y-111213451D01*
X91385024Y-111213447D01*
X91405500Y-111071031D01*
X91405500Y-104380785D01*
X91405479Y-104376225D01*
X91405477Y-104375961D01*
X91405460Y-104374040D01*
X91405399Y-104369531D01*
X91382380Y-104227504D01*
X91379514Y-104218354D01*
X91378267Y-104148497D01*
X91379190Y-104145300D01*
X91379735Y-104143501D01*
X91379737Y-104143497D01*
X91410500Y-103988842D01*
X91410500Y-103831158D01*
X91410500Y-103831155D01*
X91390326Y-103729735D01*
X91379737Y-103676503D01*
X91379736Y-103676501D01*
X91378938Y-103672488D01*
X91381580Y-103613356D01*
X91385023Y-103601634D01*
X91385024Y-103601630D01*
X91405500Y-103459214D01*
X91405500Y-102384000D01*
X91405498Y-102383990D01*
X91405322Y-102380694D01*
X91405500Y-102380684D01*
X91405500Y-102380679D01*
X91405601Y-102380679D01*
X91407017Y-102380602D01*
X91418317Y-102318372D01*
X91465985Y-102267288D01*
X91529139Y-102250000D01*
X94325501Y-102250000D01*
X94392540Y-102269685D01*
G37*
%TD.AperFunction*%
%TD*%
M02*
