%TF.GenerationSoftware,KiCad,Pcbnew,9.0.0*%
%TF.CreationDate,2026-01-13T23:39:09-06:00*%
%TF.ProjectId,SuppChargerPCB,53757070-4368-4617-9267-65725043422e,rev?*%
%TF.SameCoordinates,Original*%
%TF.FileFunction,Soldermask,Top*%
%TF.FilePolarity,Negative*%
%FSLAX46Y46*%
G04 Gerber Fmt 4.6, Leading zero omitted, Abs format (unit mm)*
G04 Created by KiCad (PCBNEW 9.0.0) date 2026-01-13 23:39:09*
%MOMM*%
%LPD*%
G01*
G04 APERTURE LIST*
G04 Aperture macros list*
%AMRoundRect*
0 Rectangle with rounded corners*
0 $1 Rounding radius*
0 $2 $3 $4 $5 $6 $7 $8 $9 X,Y pos of 4 corners*
0 Add a 4 corners polygon primitive as box body*
4,1,4,$2,$3,$4,$5,$6,$7,$8,$9,$2,$3,0*
0 Add four circle primitives for the rounded corners*
1,1,$1+$1,$2,$3*
1,1,$1+$1,$4,$5*
1,1,$1+$1,$6,$7*
1,1,$1+$1,$8,$9*
0 Add four rect primitives between the rounded corners*
20,1,$1+$1,$2,$3,$4,$5,0*
20,1,$1+$1,$4,$5,$6,$7,0*
20,1,$1+$1,$6,$7,$8,$9,0*
20,1,$1+$1,$8,$9,$2,$3,0*%
G04 Aperture macros list end*
%ADD10C,0.000000*%
%ADD11C,3.600000*%
%ADD12C,6.400000*%
%ADD13RoundRect,0.250000X0.362500X2.125000X-0.362500X2.125000X-0.362500X-2.125000X0.362500X-2.125000X0*%
%ADD14R,1.800000X3.150000*%
%ADD15R,0.900000X2.900000*%
%ADD16R,5.600000X2.900000*%
%ADD17R,0.431800X0.304800*%
%ADD18R,0.406400X0.304800*%
%ADD19R,1.808902X1.978890*%
%ADD20R,2.200900X0.304800*%
%ADD21R,1.000000X1.000000*%
%ADD22RoundRect,0.237500X-0.237500X0.250000X-0.237500X-0.250000X0.237500X-0.250000X0.237500X0.250000X0*%
%ADD23RoundRect,0.218750X-0.256250X0.218750X-0.256250X-0.218750X0.256250X-0.218750X0.256250X0.218750X0*%
%ADD24R,3.150000X1.800000*%
%ADD25RoundRect,0.250000X0.250000X0.475000X-0.250000X0.475000X-0.250000X-0.475000X0.250000X-0.475000X0*%
%ADD26R,0.304800X0.431800*%
%ADD27R,0.304800X0.406400*%
%ADD28R,1.978890X1.808902*%
%ADD29R,0.304800X2.200900*%
%ADD30RoundRect,0.250000X-0.250000X-0.475000X0.250000X-0.475000X0.250000X0.475000X-0.250000X0.475000X0*%
%ADD31RoundRect,0.218750X-0.218750X-0.256250X0.218750X-0.256250X0.218750X0.256250X-0.218750X0.256250X0*%
%ADD32R,2.350000X3.500000*%
%ADD33RoundRect,0.237500X0.237500X-0.250000X0.237500X0.250000X-0.237500X0.250000X-0.237500X-0.250000X0*%
G04 APERTURE END LIST*
D10*
%TO.C,Q13*%
G36*
X101205113Y-103415074D02*
G01*
X101205113Y-105668054D01*
X98995310Y-105668943D01*
X98995310Y-105364143D01*
X99401710Y-105364143D01*
X99401710Y-105018957D01*
X98995310Y-105018957D01*
X98995310Y-104714157D01*
X99401710Y-104714157D01*
X99401710Y-104368971D01*
X98995310Y-104368971D01*
X98995310Y-104064171D01*
X99401710Y-104064171D01*
X99401710Y-103718985D01*
X98995310Y-103718985D01*
X98995211Y-103414185D01*
X101205113Y-103415074D01*
G37*
%TO.C,Q14*%
G36*
X105767680Y-105100486D02*
G01*
X103514700Y-105100486D01*
X103513811Y-102890683D01*
X103818611Y-102890683D01*
X103818611Y-103297083D01*
X104163797Y-103297083D01*
X104163797Y-102890683D01*
X104468597Y-102890683D01*
X104468597Y-103297083D01*
X104813783Y-103297083D01*
X104813783Y-102890683D01*
X105118583Y-102890683D01*
X105118583Y-103297083D01*
X105463769Y-103297083D01*
X105463769Y-102890683D01*
X105768569Y-102890584D01*
X105767680Y-105100486D01*
G37*
%TO.C,LOGO2*%
G36*
X111450639Y-107736515D02*
G01*
X111475838Y-108870443D01*
X112496373Y-108884086D01*
X113516909Y-108897729D01*
X113516909Y-109148669D01*
X113516909Y-109399610D01*
X112180596Y-109399610D01*
X110844283Y-109399610D01*
X110857679Y-108001098D01*
X110871076Y-106602586D01*
X111148258Y-106602586D01*
X111425441Y-106602586D01*
X111450639Y-107736515D01*
G37*
G36*
X124315718Y-107249808D02*
G01*
X124315718Y-107476594D01*
X123534567Y-107476594D01*
X122753416Y-107476594D01*
X122753416Y-107728578D01*
X122753416Y-107980562D01*
X123534567Y-107980562D01*
X124315718Y-107980562D01*
X124315718Y-108686118D01*
X124315718Y-109391673D01*
X123307781Y-109391673D01*
X122299845Y-109391673D01*
X122299845Y-109164888D01*
X122299845Y-108938102D01*
X123080996Y-108938102D01*
X123862146Y-108938102D01*
X123862146Y-108686118D01*
X123862146Y-108434134D01*
X123080996Y-108434134D01*
X122299845Y-108434134D01*
X122299845Y-107728578D01*
X122299845Y-107023023D01*
X123307781Y-107023023D01*
X124315718Y-107023023D01*
X124315718Y-107249808D01*
G37*
G36*
X117326673Y-106586480D02*
G01*
X117523457Y-106602586D01*
X117536853Y-108001098D01*
X117550249Y-109399610D01*
X117223523Y-109399610D01*
X116896797Y-109399610D01*
X116882548Y-108832646D01*
X116868298Y-108265681D01*
X115773827Y-108252104D01*
X114679355Y-108238526D01*
X114665096Y-108806469D01*
X114650838Y-109374411D01*
X114335056Y-109389436D01*
X114019274Y-109404461D01*
X114032675Y-108003524D01*
X114046076Y-106602586D01*
X114302536Y-106587635D01*
X114501635Y-106592471D01*
X114610208Y-106635030D01*
X114615573Y-106640854D01*
X114641120Y-106718183D01*
X114663896Y-106870853D01*
X114680721Y-107073411D01*
X114686692Y-107210171D01*
X114701234Y-107711316D01*
X115784766Y-107711316D01*
X116868298Y-107711316D01*
X116882597Y-107170084D01*
X116891906Y-106912165D01*
X116911616Y-106739389D01*
X116953626Y-106636119D01*
X117029835Y-106586715D01*
X117152143Y-106575540D01*
X117326673Y-106586480D01*
G37*
G36*
X119556234Y-106582490D02*
G01*
X119879362Y-106586334D01*
X120347570Y-106594803D01*
X120725500Y-106607479D01*
X121023668Y-106628466D01*
X121252589Y-106661867D01*
X121422779Y-106711788D01*
X121544753Y-106782331D01*
X121629027Y-106877602D01*
X121686117Y-107001704D01*
X121726538Y-107158742D01*
X121755197Y-107318466D01*
X121765626Y-107520924D01*
X121742033Y-107743415D01*
X121691540Y-107951958D01*
X121621267Y-108112576D01*
X121577216Y-108167770D01*
X121512975Y-108233686D01*
X121513142Y-108285992D01*
X121580133Y-108366182D01*
X121589344Y-108375995D01*
X121645408Y-108450961D01*
X121682075Y-108548385D01*
X121705161Y-108693244D01*
X121720479Y-108910515D01*
X121722283Y-108947039D01*
X121743921Y-109399610D01*
X121410177Y-109399610D01*
X121076433Y-109399610D01*
X121076433Y-109104025D01*
X121064187Y-108897323D01*
X121021743Y-108753961D01*
X120971981Y-108675652D01*
X120867530Y-108542864D01*
X119913648Y-108542864D01*
X118959766Y-108542864D01*
X118959766Y-108971237D01*
X118959766Y-109399610D01*
X118632187Y-109399610D01*
X118304607Y-109399610D01*
X118304607Y-108014657D01*
X118304607Y-107551726D01*
X118304607Y-107131753D01*
X118959766Y-107131753D01*
X118959766Y-107551726D01*
X118964033Y-107749263D01*
X118975387Y-107906984D01*
X118991661Y-107998622D01*
X118997564Y-108009709D01*
X119057664Y-108020809D01*
X119202089Y-108028814D01*
X119414409Y-108033371D01*
X119678190Y-108034129D01*
X119977003Y-108030736D01*
X119978564Y-108030708D01*
X120315327Y-108023617D01*
X120565810Y-108015220D01*
X120744526Y-108004014D01*
X120865986Y-107988495D01*
X120944704Y-107967161D01*
X120995194Y-107938507D01*
X121011698Y-107923703D01*
X121077040Y-107805572D01*
X121101252Y-107614107D01*
X121101631Y-107579072D01*
X121091636Y-107409739D01*
X121053255Y-107302806D01*
X120982655Y-107228094D01*
X120932565Y-107194156D01*
X120868268Y-107169211D01*
X120774659Y-107151897D01*
X120636633Y-107140857D01*
X120439085Y-107134733D01*
X120166909Y-107132164D01*
X119911723Y-107131753D01*
X118959766Y-107131753D01*
X118304607Y-107131753D01*
X118304607Y-106629705D01*
X118430453Y-106598119D01*
X118513609Y-106590336D01*
X118682650Y-106584760D01*
X118922692Y-106581513D01*
X119218849Y-106580716D01*
X119556234Y-106582490D01*
G37*
%TO.C,Q11*%
G36*
X115829411Y-103699027D02*
G01*
X115423011Y-103699027D01*
X115423011Y-104044213D01*
X115829411Y-104044213D01*
X115829411Y-104349013D01*
X115423011Y-104349013D01*
X115423011Y-104694199D01*
X115829411Y-104694199D01*
X115829411Y-104998999D01*
X115423011Y-104998999D01*
X115423011Y-105344185D01*
X115829411Y-105344185D01*
X115829510Y-105648985D01*
X113619608Y-105648096D01*
X113619608Y-103395116D01*
X115829411Y-103394227D01*
X115829411Y-103699027D01*
G37*
%TO.C,Q12*%
G36*
X111327722Y-105070486D02*
G01*
X109074742Y-105070486D01*
X109073853Y-102860683D01*
X109378653Y-102860683D01*
X109378653Y-103267083D01*
X109723839Y-103267083D01*
X109723839Y-102860683D01*
X110028639Y-102860683D01*
X110028639Y-103267083D01*
X110373825Y-103267083D01*
X110373825Y-102860683D01*
X110678625Y-102860683D01*
X110678625Y-103267083D01*
X111023811Y-103267083D01*
X111023811Y-102860683D01*
X111328611Y-102860584D01*
X111327722Y-105070486D01*
G37*
%TD*%
D11*
%TO.C,H1*%
X87490000Y-98890000D03*
D12*
X87490000Y-98890000D03*
%TD*%
D11*
%TO.C,H3*%
X127510000Y-114120000D03*
D12*
X127510000Y-114120000D03*
%TD*%
D13*
%TO.C,R13*%
X92507500Y-104950000D03*
X89382500Y-104950000D03*
%TD*%
D14*
%TO.C,C15*%
X94730000Y-109590000D03*
X94730000Y-114690000D03*
%TD*%
D15*
%TO.C,R11*%
X114370000Y-95200000D03*
X114370000Y-100100000D03*
D16*
X118520000Y-100100000D03*
X118520000Y-95200000D03*
%TD*%
D17*
%TO.C,Q13*%
X102081212Y-105516543D03*
X102081212Y-104866557D03*
X102081212Y-104216571D03*
X102081212Y-103566585D03*
D18*
X99198510Y-103566585D03*
X99198510Y-104216571D03*
X99198510Y-104866557D03*
D19*
X100300662Y-104404519D03*
D20*
X100106211Y-105516564D03*
%TD*%
D21*
%TO.C,OUT3*%
X115490000Y-114980000D03*
%TD*%
%TO.C,FBG1*%
X84940000Y-106650000D03*
%TD*%
D22*
%TO.C,R34*%
X108280000Y-107260000D03*
X108280000Y-109085000D03*
%TD*%
D23*
%TO.C,D4*%
X75920000Y-98552500D03*
X75920000Y-100127500D03*
%TD*%
D24*
%TO.C,C12*%
X123670000Y-84530000D03*
X128770000Y-84530000D03*
%TD*%
D21*
%TO.C,OUT4*%
X112810000Y-114970000D03*
%TD*%
D25*
%TO.C,C10*%
X105810000Y-111110000D03*
X103910000Y-111110000D03*
%TD*%
D23*
%TO.C,D1*%
X93770000Y-98560000D03*
X93770000Y-100135000D03*
%TD*%
D26*
%TO.C,Q14*%
X103666211Y-105976585D03*
X104316197Y-105976585D03*
X104966183Y-105976585D03*
X105616169Y-105976585D03*
D27*
X105616169Y-103093883D03*
X104966183Y-103093883D03*
X104316197Y-103093883D03*
D28*
X104778235Y-104196035D03*
D29*
X103666190Y-104001584D03*
%TD*%
D21*
%TO.C,ACOV3*%
X126140000Y-108410000D03*
%TD*%
D30*
%TO.C,C8*%
X107350000Y-111110000D03*
X109250000Y-111110000D03*
%TD*%
D21*
%TO.C,OUT2*%
X84930000Y-103790000D03*
%TD*%
%TO.C,ACOV2*%
X118320000Y-114980000D03*
%TD*%
D14*
%TO.C,C16*%
X86875000Y-109600000D03*
X86875000Y-114700000D03*
%TD*%
D21*
%TO.C,+24V2*%
X118740000Y-89860000D03*
%TD*%
%TO.C,PGND3*%
X128310000Y-75510000D03*
%TD*%
D31*
%TO.C,D3*%
X73372500Y-103010000D03*
X74947500Y-103010000D03*
%TD*%
D17*
%TO.C,Q11*%
X112743509Y-103546627D03*
X112743509Y-104196613D03*
X112743509Y-104846599D03*
X112743509Y-105496585D03*
D18*
X115626211Y-105496585D03*
X115626211Y-104846599D03*
X115626211Y-104196613D03*
D19*
X114524059Y-104658651D03*
D20*
X114718510Y-103546606D03*
%TD*%
D21*
%TO.C,FB1*%
X87130000Y-106650000D03*
%TD*%
%TO.C,ACOV5*%
X123280000Y-111350000D03*
%TD*%
D14*
%TO.C,C17*%
X79030000Y-109590000D03*
X79030000Y-114690000D03*
%TD*%
D24*
%TO.C,C13*%
X123670000Y-92330000D03*
X128770000Y-92330000D03*
%TD*%
D23*
%TO.C,D7*%
X98780000Y-98560000D03*
X98780000Y-100135000D03*
%TD*%
D26*
%TO.C,Q12*%
X109226253Y-105946585D03*
X109876239Y-105946585D03*
X110526225Y-105946585D03*
X111176211Y-105946585D03*
D27*
X111176211Y-103063883D03*
X110526225Y-103063883D03*
X109876239Y-103063883D03*
D28*
X110338277Y-104166035D03*
D29*
X109226232Y-103971584D03*
%TD*%
D31*
%TO.C,D6*%
X73365000Y-106410000D03*
X74940000Y-106410000D03*
%TD*%
D21*
%TO.C,ACOV6*%
X97540000Y-101900000D03*
%TD*%
D23*
%TO.C,D2*%
X80940000Y-98570000D03*
X80940000Y-100145000D03*
%TD*%
D32*
%TO.C,L4*%
X110210000Y-98880000D03*
X104160000Y-98880000D03*
%TD*%
D33*
%TO.C,R36*%
X104630000Y-109205000D03*
X104630000Y-107380000D03*
%TD*%
D31*
%TO.C,D5*%
X114715000Y-86940000D03*
X116290000Y-86940000D03*
%TD*%
D21*
%TO.C,ACOV4*%
X95450000Y-101900000D03*
%TD*%
%TO.C,ACUV2*%
X121270000Y-114990000D03*
%TD*%
D24*
%TO.C,C14*%
X123680000Y-100180000D03*
X128780000Y-100180000D03*
%TD*%
M02*
