%TF.GenerationSoftware,KiCad,Pcbnew,9.0.0*%
%TF.CreationDate,2026-01-13T23:39:09-06:00*%
%TF.ProjectId,SuppChargerPCB,53757070-4368-4617-9267-65725043422e,rev?*%
%TF.SameCoordinates,Original*%
%TF.FileFunction,Copper,L2,Inr*%
%TF.FilePolarity,Positive*%
%FSLAX46Y46*%
G04 Gerber Fmt 4.6, Leading zero omitted, Abs format (unit mm)*
G04 Created by KiCad (PCBNEW 9.0.0) date 2026-01-13 23:39:09*
%MOMM*%
%LPD*%
G01*
G04 APERTURE LIST*
%TA.AperFunction,ComponentPad*%
%ADD10C,3.600000*%
%TD*%
%TA.AperFunction,ComponentPad*%
%ADD11R,1.000000X1.000000*%
%TD*%
%TA.AperFunction,ViaPad*%
%ADD12C,0.600000*%
%TD*%
%TA.AperFunction,Conductor*%
%ADD13C,0.250000*%
%TD*%
%TA.AperFunction,Conductor*%
%ADD14C,0.200000*%
%TD*%
%TA.AperFunction,Conductor*%
%ADD15C,0.400000*%
%TD*%
G04 APERTURE END LIST*
D10*
%TO.N,N/C*%
%TO.C,H1*%
X87490000Y-98890000D03*
%TD*%
%TO.N,N/C*%
%TO.C,H3*%
X127510000Y-114120000D03*
%TD*%
D11*
%TO.N,+3V3*%
%TO.C,OUT4*%
X112810000Y-114970000D03*
%TD*%
%TO.N,OUT*%
%TO.C,OUT2*%
X84930000Y-103790000D03*
%TD*%
%TO.N,+24V*%
%TO.C,+24V2*%
X118740000Y-89860000D03*
%TD*%
%TO.N,PGND*%
%TO.C,PGND3*%
X128310000Y-75510000D03*
%TD*%
D12*
%TO.N,+24V*%
X119350000Y-105750000D03*
X115400000Y-96850000D03*
%TO.N,/ACOV*%
X117810000Y-111580000D03*
X117860000Y-112690000D03*
%TO.N,/ACUV*%
X120390000Y-110730000D03*
X121320000Y-112590000D03*
%TO.N,/Converter/BUCK_IN*%
X114920000Y-97950000D03*
%TO.N,PGND*%
X100510000Y-96390000D03*
X112330000Y-116740000D03*
X91210000Y-96390000D03*
X113360000Y-95440000D03*
X108500000Y-116730000D03*
X76270000Y-115640000D03*
X114140000Y-116720000D03*
X113340000Y-77640000D03*
X113360000Y-88790000D03*
X119990000Y-116740000D03*
X113340000Y-84290000D03*
X129560000Y-108440000D03*
X120410000Y-73670000D03*
X116130000Y-116740000D03*
X129540000Y-89630000D03*
X113370000Y-82620000D03*
X113390000Y-93770000D03*
X127970000Y-106790000D03*
X104720000Y-116730000D03*
X127940000Y-101850000D03*
X129550000Y-106770000D03*
X127810000Y-87850000D03*
X73490000Y-112430000D03*
X129530000Y-87850000D03*
X118000000Y-116720000D03*
X113350000Y-79280000D03*
X127820000Y-89630000D03*
X129540000Y-105180000D03*
X98820000Y-96370000D03*
X95030000Y-96390000D03*
X114780000Y-73650000D03*
X127820000Y-86390000D03*
X129580000Y-81020000D03*
X125350000Y-73640000D03*
X127720000Y-97980000D03*
X129530000Y-103610000D03*
X102730000Y-116710000D03*
X106510000Y-116710000D03*
X110340000Y-116720000D03*
X105607599Y-109463000D03*
X129570000Y-79350000D03*
X127960000Y-105200000D03*
X127210000Y-73640000D03*
X73440000Y-115640000D03*
X127750000Y-94480000D03*
X122000000Y-73660000D03*
X74890000Y-113960000D03*
X97150000Y-96370000D03*
X121590000Y-116720000D03*
X73470000Y-113960000D03*
X129570000Y-94460000D03*
X113360000Y-80990000D03*
X113330000Y-74640000D03*
X93000000Y-96370000D03*
X129540000Y-96130000D03*
X129550000Y-82690000D03*
X113330000Y-75960000D03*
X129530000Y-110110000D03*
X129560000Y-77760000D03*
X105626456Y-108643544D03*
X77640000Y-115630000D03*
X123580000Y-116740000D03*
X113370000Y-90430000D03*
X127980000Y-108460000D03*
X76230000Y-113970000D03*
X118740000Y-73680000D03*
X117070000Y-73650000D03*
X129540000Y-97960000D03*
X129520000Y-101830000D03*
X123570000Y-73650000D03*
X127720000Y-96150000D03*
X113380000Y-92140000D03*
X127950000Y-110130000D03*
X113350000Y-85630000D03*
X129540000Y-86390000D03*
X74890000Y-115640000D03*
X127950000Y-103630000D03*
%TO.N,/DRV_SUP*%
X106560000Y-103778000D03*
%TO.N,/Converter/BOOST_OUT*%
X91580000Y-103920000D03*
%TO.N,/Converter/BUCK_HIGH*%
X113300000Y-106038000D03*
%TO.N,OUT*%
X90610000Y-103910000D03*
X82070000Y-110760000D03*
X78430000Y-107290000D03*
X78430000Y-105960000D03*
%TO.N,/SW1*%
X107404902Y-101795645D03*
X112220578Y-107695001D03*
X111694687Y-99615313D03*
%TO.N,/SW2*%
X102011690Y-106057074D03*
X106265098Y-101795647D03*
%TO.N,Net-(D1-A)*%
X94553035Y-100481697D03*
%TO.N,/STAT1*%
X82074065Y-105209911D03*
X107889977Y-113776696D03*
X96635000Y-113095000D03*
X92390000Y-99460000D03*
%TO.N,/STAT2*%
X82068890Y-104409925D03*
X97840000Y-113090000D03*
X107092319Y-113843064D03*
X82120000Y-99010000D03*
%TO.N,Net-(D2-A)*%
X79590322Y-97997500D03*
%TO.N,/\u002APG*%
X105984819Y-113849065D03*
X99170000Y-113160000D03*
X84800523Y-113489001D03*
%TO.N,Net-(D4-A)*%
X75004632Y-98036887D03*
%TO.N,/\u002ACE*%
X100160000Y-113180000D03*
X76970000Y-99060000D03*
X82080000Y-103610000D03*
X105110587Y-113830587D03*
%TO.N,Net-(D5-A)*%
X116270000Y-86100000D03*
%TO.N,/\u002AINT*%
X108687930Y-113837242D03*
X97360000Y-99500000D03*
X82113159Y-106008958D03*
%TO.N,/FB*%
X90920000Y-111985000D03*
X87100000Y-107450000D03*
%TO.N,/FBG*%
X94639882Y-112615000D03*
X84890000Y-107440000D03*
X88870000Y-111985000D03*
%TO.N,+3V3*%
X80274265Y-100955735D03*
X101170000Y-115990000D03*
X91400000Y-116065000D03*
X92080000Y-101110000D03*
X81738058Y-115221942D03*
%TO.N,/SCL*%
X82070000Y-106850000D03*
X93339461Y-113018183D03*
X109950000Y-113100000D03*
%TO.N,/SDA*%
X83040000Y-107800000D03*
X91920002Y-112610000D03*
X110719299Y-113319495D03*
%TO.N,/HIDRV1*%
X124860000Y-107110000D03*
X110310000Y-106810800D03*
%TO.N,/HIDRV2*%
X103210000Y-107511459D03*
X96790000Y-102960000D03*
%TO.N,/LODRV1*%
X121910000Y-110040000D03*
X108000000Y-105598000D03*
%TO.N,/LODRV2*%
X97992110Y-102817890D03*
X105623178Y-106692484D03*
%TO.N,/Converter/BOOST_HIGH*%
X101627314Y-103112686D03*
%TO.N,Net-(U1-ILIM_HIZ)*%
X102620000Y-113590000D03*
X104160000Y-115670000D03*
%TO.N,Net-(D1-K)*%
X94560000Y-98860000D03*
%TO.N,Net-(D2-K)*%
X82006746Y-98218055D03*
%TO.N,Net-(D4-K)*%
X77028029Y-98262104D03*
%TO.N,Net-(D3-A)*%
X84142500Y-115836019D03*
X75320000Y-104010000D03*
%TO.N,Net-(D3-K)*%
X84410000Y-114890000D03*
X74482857Y-104055214D03*
%TO.N,Net-(D6-A)*%
X74165000Y-105390000D03*
%TO.N,Net-(D7-K)*%
X99660000Y-98560000D03*
%TO.N,Net-(D7-A)*%
X99545747Y-100476289D03*
%TO.N,/REGN*%
X107531869Y-103538000D03*
X112232499Y-112999902D03*
X114300000Y-114920000D03*
%TD*%
D13*
%TO.N,/STAT2*%
X82068965Y-104410000D02*
X82068890Y-104409925D01*
%TO.N,/\u002AINT*%
X108687930Y-113837242D02*
X108687930Y-113865713D01*
D14*
%TO.N,/FB*%
X87100000Y-108165000D02*
X87100000Y-107450000D01*
X90920000Y-111985000D02*
X87100000Y-108165000D01*
D13*
%TO.N,/FBG*%
X84890000Y-108005000D02*
X84890000Y-107440000D01*
X90529183Y-113644183D02*
X88870000Y-111985000D01*
X88870000Y-111985000D02*
X84890000Y-108005000D01*
X94639882Y-112615000D02*
X93610699Y-113644183D01*
X93610699Y-113644183D02*
X90529183Y-113644183D01*
D15*
%TO.N,+3V3*%
X81738058Y-115221942D02*
X82771000Y-114189000D01*
X80428530Y-101110000D02*
X80274265Y-100955735D01*
X89524000Y-114189000D02*
X91400000Y-116065000D01*
X82771000Y-114189000D02*
X89524000Y-114189000D01*
X92080000Y-101110000D02*
X80428530Y-101110000D01*
D13*
%TO.N,Net-(U1-ILIM_HIZ)*%
X102620000Y-114130000D02*
X102620000Y-113590000D01*
X104160000Y-115670000D02*
X102620000Y-114130000D01*
%TD*%
%TA.AperFunction,Conductor*%
%TO.N,PGND*%
G36*
X128123736Y-72770726D02*
G01*
X128413796Y-72788271D01*
X128428659Y-72790076D01*
X128710798Y-72841780D01*
X128725335Y-72845363D01*
X128999172Y-72930695D01*
X129013163Y-72936000D01*
X129274743Y-73053727D01*
X129287989Y-73060680D01*
X129533465Y-73209075D01*
X129545776Y-73217573D01*
X129771573Y-73394473D01*
X129782781Y-73404403D01*
X129985596Y-73607218D01*
X129995526Y-73618426D01*
X130115481Y-73771538D01*
X130172422Y-73844217D01*
X130180928Y-73856540D01*
X130329316Y-74102004D01*
X130336275Y-74115263D01*
X130453997Y-74376831D01*
X130459306Y-74390832D01*
X130544635Y-74664663D01*
X130548219Y-74679201D01*
X130599923Y-74961340D01*
X130601728Y-74976205D01*
X130619274Y-75266263D01*
X130619500Y-75273750D01*
X130619500Y-114616249D01*
X130619274Y-114623736D01*
X130601728Y-114913794D01*
X130599923Y-114928659D01*
X130548219Y-115210798D01*
X130544635Y-115225336D01*
X130459306Y-115499167D01*
X130453997Y-115513168D01*
X130336275Y-115774736D01*
X130329316Y-115787995D01*
X130180928Y-116033459D01*
X130172422Y-116045782D01*
X129995526Y-116271573D01*
X129985596Y-116282781D01*
X129782781Y-116485596D01*
X129771573Y-116495526D01*
X129545782Y-116672422D01*
X129533459Y-116680928D01*
X129287995Y-116829316D01*
X129274736Y-116836275D01*
X129013168Y-116953997D01*
X128999167Y-116959306D01*
X128725336Y-117044635D01*
X128710798Y-117048219D01*
X128428659Y-117099923D01*
X128413794Y-117101728D01*
X128123736Y-117119274D01*
X128116249Y-117119500D01*
X74743751Y-117119500D01*
X74736264Y-117119274D01*
X74446205Y-117101728D01*
X74431340Y-117099923D01*
X74149201Y-117048219D01*
X74134663Y-117044635D01*
X73860832Y-116959306D01*
X73846831Y-116953997D01*
X73585263Y-116836275D01*
X73572004Y-116829316D01*
X73326537Y-116680926D01*
X73314217Y-116672422D01*
X73229125Y-116605757D01*
X73094509Y-116500292D01*
X73088426Y-116495526D01*
X73077218Y-116485596D01*
X72874403Y-116282781D01*
X72864473Y-116271573D01*
X72798751Y-116187685D01*
X72687573Y-116045776D01*
X72679075Y-116033465D01*
X72530680Y-115787989D01*
X72523727Y-115774743D01*
X72406000Y-115513163D01*
X72400693Y-115499167D01*
X72396805Y-115486691D01*
X72315363Y-115225335D01*
X72311780Y-115210797D01*
X72302354Y-115159359D01*
X72299373Y-115143095D01*
X80937558Y-115143095D01*
X80937558Y-115300788D01*
X80968319Y-115455431D01*
X80968322Y-115455443D01*
X81028660Y-115601114D01*
X81028667Y-115601127D01*
X81116268Y-115732230D01*
X81116271Y-115732234D01*
X81227765Y-115843728D01*
X81227769Y-115843731D01*
X81358872Y-115931332D01*
X81358885Y-115931339D01*
X81491225Y-115986155D01*
X81504561Y-115991679D01*
X81659211Y-116022441D01*
X81659214Y-116022442D01*
X81659216Y-116022442D01*
X81816902Y-116022442D01*
X81816903Y-116022441D01*
X81971555Y-115991679D01*
X82117237Y-115931336D01*
X82248347Y-115843731D01*
X82359847Y-115732231D01*
X82447452Y-115601121D01*
X82447453Y-115601118D01*
X82447455Y-115601115D01*
X82507212Y-115456846D01*
X82507250Y-115456752D01*
X82534127Y-115416528D01*
X83024838Y-114925819D01*
X83086161Y-114892334D01*
X83112519Y-114889500D01*
X83491954Y-114889500D01*
X83522411Y-114898443D01*
X83553315Y-114905746D01*
X83555700Y-114908218D01*
X83558993Y-114909185D01*
X83579774Y-114933168D01*
X83601830Y-114956026D01*
X83603374Y-114960403D01*
X83604748Y-114961989D01*
X83613569Y-114989302D01*
X83625288Y-115048211D01*
X83641050Y-115127454D01*
X83634822Y-115197046D01*
X83607114Y-115239326D01*
X83520710Y-115325730D01*
X83433109Y-115456833D01*
X83433102Y-115456846D01*
X83372764Y-115602517D01*
X83372761Y-115602529D01*
X83342000Y-115757172D01*
X83342000Y-115914865D01*
X83372761Y-116069508D01*
X83372764Y-116069520D01*
X83433102Y-116215191D01*
X83433109Y-116215204D01*
X83520710Y-116346307D01*
X83520713Y-116346311D01*
X83632207Y-116457805D01*
X83632211Y-116457808D01*
X83763314Y-116545409D01*
X83763327Y-116545416D01*
X83908998Y-116605754D01*
X83909003Y-116605756D01*
X84063653Y-116636518D01*
X84063656Y-116636519D01*
X84063658Y-116636519D01*
X84221344Y-116636519D01*
X84221345Y-116636518D01*
X84375997Y-116605756D01*
X84521679Y-116545413D01*
X84652789Y-116457808D01*
X84764289Y-116346308D01*
X84851894Y-116215198D01*
X84912237Y-116069516D01*
X84943000Y-115914861D01*
X84943000Y-115757177D01*
X84943000Y-115757174D01*
X84911450Y-115598565D01*
X84917677Y-115528973D01*
X84945384Y-115486693D01*
X85031789Y-115400289D01*
X85119394Y-115269179D01*
X85179737Y-115123497D01*
X85206429Y-114989309D01*
X85238814Y-114927398D01*
X85299529Y-114892824D01*
X85328046Y-114889500D01*
X89182481Y-114889500D01*
X89249520Y-114909185D01*
X89270162Y-114925819D01*
X90603928Y-116259585D01*
X90630808Y-116299814D01*
X90690602Y-116444172D01*
X90690609Y-116444185D01*
X90778210Y-116575288D01*
X90778213Y-116575292D01*
X90889707Y-116686786D01*
X90889711Y-116686789D01*
X91020814Y-116774390D01*
X91020827Y-116774397D01*
X91153415Y-116829316D01*
X91166503Y-116834737D01*
X91321153Y-116865499D01*
X91321156Y-116865500D01*
X91321158Y-116865500D01*
X91478844Y-116865500D01*
X91478845Y-116865499D01*
X91633497Y-116834737D01*
X91779179Y-116774394D01*
X91910289Y-116686789D01*
X92021789Y-116575289D01*
X92109394Y-116444179D01*
X92169737Y-116298497D01*
X92200500Y-116143842D01*
X92200500Y-115986158D01*
X92200500Y-115986155D01*
X92189182Y-115929258D01*
X92189182Y-115929257D01*
X92185581Y-115911153D01*
X100369500Y-115911153D01*
X100369500Y-116068846D01*
X100400261Y-116223489D01*
X100400264Y-116223501D01*
X100460602Y-116369172D01*
X100460609Y-116369185D01*
X100548210Y-116500288D01*
X100548213Y-116500292D01*
X100659707Y-116611786D01*
X100659711Y-116611789D01*
X100790814Y-116699390D01*
X100790827Y-116699397D01*
X100936498Y-116759735D01*
X100936503Y-116759737D01*
X101091153Y-116790499D01*
X101091156Y-116790500D01*
X101091158Y-116790500D01*
X101248844Y-116790500D01*
X101248845Y-116790499D01*
X101403497Y-116759737D01*
X101549179Y-116699394D01*
X101680289Y-116611789D01*
X101791789Y-116500289D01*
X101879394Y-116369179D01*
X101939737Y-116223497D01*
X101970500Y-116068842D01*
X101970500Y-115911158D01*
X101970500Y-115911155D01*
X101970499Y-115911153D01*
X101954657Y-115831510D01*
X101939737Y-115756503D01*
X101921442Y-115712335D01*
X101879397Y-115610827D01*
X101879390Y-115610814D01*
X101791789Y-115479711D01*
X101791786Y-115479707D01*
X101680292Y-115368213D01*
X101680288Y-115368210D01*
X101549185Y-115280609D01*
X101549172Y-115280602D01*
X101403501Y-115220264D01*
X101403489Y-115220261D01*
X101248845Y-115189500D01*
X101248842Y-115189500D01*
X101091158Y-115189500D01*
X101091155Y-115189500D01*
X100936510Y-115220261D01*
X100936498Y-115220264D01*
X100790827Y-115280602D01*
X100790814Y-115280609D01*
X100659711Y-115368210D01*
X100659707Y-115368213D01*
X100548213Y-115479707D01*
X100548210Y-115479711D01*
X100460609Y-115610814D01*
X100460602Y-115610827D01*
X100400264Y-115756498D01*
X100400261Y-115756510D01*
X100369500Y-115911153D01*
X92185581Y-115911153D01*
X92179501Y-115880590D01*
X92169737Y-115831503D01*
X92156980Y-115800705D01*
X92109397Y-115685827D01*
X92109390Y-115685814D01*
X92021789Y-115554711D01*
X92021786Y-115554707D01*
X91910292Y-115443213D01*
X91910288Y-115443210D01*
X91779185Y-115355609D01*
X91779172Y-115355602D01*
X91634814Y-115295808D01*
X91594585Y-115268928D01*
X90807021Y-114481364D01*
X90773536Y-114420041D01*
X90778520Y-114350349D01*
X90820392Y-114294416D01*
X90885856Y-114269999D01*
X90894702Y-114269683D01*
X93672306Y-114269683D01*
X93732728Y-114257664D01*
X93793151Y-114245646D01*
X93836551Y-114227669D01*
X93906985Y-114198495D01*
X93958208Y-114164267D01*
X94009432Y-114130041D01*
X94096557Y-114042916D01*
X94096557Y-114042914D01*
X94106765Y-114032707D01*
X94106767Y-114032704D01*
X94698679Y-113440791D01*
X94760000Y-113407308D01*
X94762010Y-113406889D01*
X94873379Y-113384737D01*
X95009146Y-113328501D01*
X95019054Y-113324397D01*
X95019054Y-113324396D01*
X95019061Y-113324394D01*
X95150171Y-113236789D01*
X95261671Y-113125289D01*
X95334593Y-113016153D01*
X95834500Y-113016153D01*
X95834500Y-113173846D01*
X95865261Y-113328489D01*
X95865264Y-113328501D01*
X95925602Y-113474172D01*
X95925609Y-113474185D01*
X96013210Y-113605288D01*
X96013213Y-113605292D01*
X96124707Y-113716786D01*
X96124711Y-113716789D01*
X96255814Y-113804390D01*
X96255827Y-113804397D01*
X96361185Y-113848037D01*
X96401503Y-113864737D01*
X96556153Y-113895499D01*
X96556156Y-113895500D01*
X96556158Y-113895500D01*
X96713844Y-113895500D01*
X96713845Y-113895499D01*
X96868497Y-113864737D01*
X97014179Y-113804394D01*
X97145289Y-113716789D01*
X97152314Y-113709763D01*
X97213630Y-113676276D01*
X97283322Y-113681254D01*
X97324940Y-113707998D01*
X97325001Y-113707924D01*
X97325638Y-113708446D01*
X97327680Y-113709759D01*
X97329707Y-113711786D01*
X97329711Y-113711789D01*
X97460814Y-113799390D01*
X97460827Y-113799397D01*
X97572474Y-113845642D01*
X97606503Y-113859737D01*
X97695170Y-113877374D01*
X97761153Y-113890499D01*
X97761156Y-113890500D01*
X97761158Y-113890500D01*
X97918844Y-113890500D01*
X97918845Y-113890499D01*
X98073497Y-113859737D01*
X98207108Y-113804394D01*
X98219172Y-113799397D01*
X98219172Y-113799396D01*
X98219179Y-113799394D01*
X98350289Y-113711789D01*
X98382319Y-113679758D01*
X98443638Y-113646275D01*
X98513329Y-113651257D01*
X98557680Y-113679759D01*
X98659707Y-113781786D01*
X98659711Y-113781789D01*
X98790814Y-113869390D01*
X98790827Y-113869397D01*
X98903541Y-113916084D01*
X98936503Y-113929737D01*
X99091153Y-113960499D01*
X99091156Y-113960500D01*
X99091158Y-113960500D01*
X99248844Y-113960500D01*
X99248845Y-113960499D01*
X99403497Y-113929737D01*
X99549179Y-113869394D01*
X99581141Y-113848036D01*
X99647818Y-113827158D01*
X99715199Y-113845642D01*
X99718924Y-113848036D01*
X99780814Y-113889390D01*
X99780827Y-113889397D01*
X99926498Y-113949735D01*
X99926503Y-113949737D01*
X100025858Y-113969500D01*
X100081153Y-113980499D01*
X100081156Y-113980500D01*
X100081158Y-113980500D01*
X100238844Y-113980500D01*
X100238845Y-113980499D01*
X100393497Y-113949737D01*
X100539179Y-113889394D01*
X100670289Y-113801789D01*
X100781789Y-113690289D01*
X100869394Y-113559179D01*
X100889287Y-113511153D01*
X101819500Y-113511153D01*
X101819500Y-113668846D01*
X101850261Y-113823489D01*
X101850264Y-113823501D01*
X101910602Y-113969172D01*
X101910609Y-113969184D01*
X101973602Y-114063459D01*
X101994480Y-114130136D01*
X101994500Y-114132350D01*
X101994500Y-114191607D01*
X101998112Y-114209766D01*
X102004026Y-114239501D01*
X102004025Y-114239501D01*
X102015703Y-114298208D01*
X102018535Y-114312446D01*
X102065688Y-114426287D01*
X102083372Y-114452751D01*
X102093011Y-114467176D01*
X102134142Y-114528733D01*
X102221267Y-114615858D01*
X102221270Y-114615860D01*
X102228873Y-114623463D01*
X103334205Y-115728795D01*
X103367690Y-115790118D01*
X103368141Y-115792285D01*
X103390261Y-115903489D01*
X103390264Y-115903501D01*
X103450602Y-116049172D01*
X103450609Y-116049185D01*
X103538210Y-116180288D01*
X103538213Y-116180292D01*
X103649707Y-116291786D01*
X103649711Y-116291789D01*
X103780814Y-116379390D01*
X103780827Y-116379397D01*
X103926498Y-116439735D01*
X103926503Y-116439737D01*
X104081153Y-116470499D01*
X104081156Y-116470500D01*
X104081158Y-116470500D01*
X104238844Y-116470500D01*
X104238845Y-116470499D01*
X104393497Y-116439737D01*
X104539179Y-116379394D01*
X104670289Y-116291789D01*
X104781789Y-116180289D01*
X104869394Y-116049179D01*
X104929737Y-115903497D01*
X104960500Y-115748842D01*
X104960500Y-115591158D01*
X104960500Y-115591155D01*
X104960499Y-115591153D01*
X104949463Y-115535671D01*
X104929737Y-115436503D01*
X104901450Y-115368211D01*
X104869397Y-115290827D01*
X104869390Y-115290814D01*
X104781789Y-115159711D01*
X104781786Y-115159707D01*
X104670292Y-115048213D01*
X104670288Y-115048210D01*
X104539185Y-114960609D01*
X104539172Y-114960602D01*
X104393501Y-114900264D01*
X104393489Y-114900261D01*
X104282285Y-114878141D01*
X104220374Y-114845756D01*
X104218795Y-114844205D01*
X103392190Y-114017600D01*
X103386079Y-114006408D01*
X103376344Y-113998170D01*
X103369652Y-113976325D01*
X103358705Y-113956277D01*
X103359132Y-113941983D01*
X103355879Y-113931364D01*
X103360103Y-113909460D01*
X103360495Y-113896373D01*
X103362486Y-113889284D01*
X103389737Y-113823497D01*
X103404010Y-113751740D01*
X104310087Y-113751740D01*
X104310087Y-113909433D01*
X104340848Y-114064076D01*
X104340851Y-114064088D01*
X104401189Y-114209759D01*
X104401196Y-114209772D01*
X104488797Y-114340875D01*
X104488800Y-114340879D01*
X104600294Y-114452373D01*
X104600298Y-114452376D01*
X104731401Y-114539977D01*
X104731414Y-114539984D01*
X104876675Y-114600152D01*
X104877090Y-114600324D01*
X105031740Y-114631086D01*
X105031743Y-114631087D01*
X105031745Y-114631087D01*
X105189431Y-114631087D01*
X105189432Y-114631086D01*
X105344084Y-114600324D01*
X105482992Y-114542786D01*
X105552460Y-114535318D01*
X105599334Y-114554245D01*
X105605640Y-114558459D01*
X105605642Y-114558460D01*
X105605646Y-114558462D01*
X105744219Y-114615860D01*
X105751322Y-114618802D01*
X105905972Y-114649564D01*
X105905975Y-114649565D01*
X105905977Y-114649565D01*
X106063663Y-114649565D01*
X106063664Y-114649564D01*
X106218316Y-114618802D01*
X106363998Y-114558459D01*
X106474170Y-114484843D01*
X106540845Y-114463967D01*
X106608225Y-114482451D01*
X106611950Y-114484845D01*
X106713133Y-114552454D01*
X106713146Y-114552461D01*
X106858817Y-114612799D01*
X106858822Y-114612801D01*
X106984203Y-114637741D01*
X107013472Y-114643563D01*
X107013475Y-114643564D01*
X107013477Y-114643564D01*
X107171163Y-114643564D01*
X107171164Y-114643563D01*
X107325816Y-114612801D01*
X107471498Y-114552458D01*
X107492743Y-114538261D01*
X107559417Y-114517383D01*
X107609086Y-114526801D01*
X107656480Y-114546433D01*
X107811130Y-114577195D01*
X107811133Y-114577196D01*
X107811135Y-114577196D01*
X107968821Y-114577196D01*
X107968822Y-114577195D01*
X108123474Y-114546433D01*
X108176427Y-114524498D01*
X108245895Y-114517030D01*
X108292771Y-114535959D01*
X108308743Y-114546631D01*
X108308745Y-114546632D01*
X108308751Y-114546636D01*
X108308753Y-114546637D01*
X108308757Y-114546639D01*
X108454428Y-114606977D01*
X108454433Y-114606979D01*
X108609083Y-114637741D01*
X108609086Y-114637742D01*
X108609088Y-114637742D01*
X108766774Y-114637742D01*
X108766775Y-114637741D01*
X108921427Y-114606979D01*
X109067109Y-114546636D01*
X109198219Y-114459031D01*
X109309719Y-114347531D01*
X109397324Y-114216421D01*
X109400084Y-114209759D01*
X109433104Y-114130040D01*
X109457667Y-114070739D01*
X109484831Y-113934175D01*
X109517215Y-113872265D01*
X109577931Y-113837691D01*
X109647700Y-113841430D01*
X109653881Y-113843798D01*
X109716503Y-113869737D01*
X109851205Y-113896531D01*
X109871153Y-113900499D01*
X109871156Y-113900500D01*
X109871158Y-113900500D01*
X110028843Y-113900500D01*
X110049589Y-113896373D01*
X110080093Y-113890305D01*
X110149683Y-113896531D01*
X110191966Y-113924241D01*
X110209006Y-113941281D01*
X110209010Y-113941284D01*
X110340113Y-114028885D01*
X110340126Y-114028892D01*
X110441165Y-114070743D01*
X110485802Y-114089232D01*
X110640452Y-114119994D01*
X110640455Y-114119995D01*
X110640457Y-114119995D01*
X110798143Y-114119995D01*
X110798144Y-114119994D01*
X110952796Y-114089232D01*
X111065465Y-114042562D01*
X111098471Y-114028892D01*
X111098471Y-114028891D01*
X111098478Y-114028889D01*
X111229588Y-113941284D01*
X111341088Y-113829784D01*
X111428693Y-113698674D01*
X111466192Y-113608142D01*
X111510031Y-113553741D01*
X111576325Y-113531675D01*
X111644024Y-113548953D01*
X111668433Y-113567915D01*
X111722206Y-113621688D01*
X111722210Y-113621691D01*
X111853313Y-113709292D01*
X111853326Y-113709299D01*
X111971868Y-113758400D01*
X111999002Y-113769639D01*
X112026724Y-113775153D01*
X112064113Y-113782591D01*
X112126024Y-113814976D01*
X112160598Y-113875692D01*
X112156859Y-113945461D01*
X112115992Y-114002133D01*
X112083257Y-114020389D01*
X112067673Y-114026201D01*
X112067664Y-114026206D01*
X111952455Y-114112452D01*
X111952452Y-114112455D01*
X111866206Y-114227664D01*
X111866204Y-114227669D01*
X111815908Y-114362517D01*
X111809501Y-114422116D01*
X111809500Y-114422135D01*
X111809500Y-115517870D01*
X111809501Y-115517876D01*
X111815908Y-115577483D01*
X111866202Y-115712328D01*
X111866206Y-115712335D01*
X111952452Y-115827544D01*
X111952455Y-115827547D01*
X112067664Y-115913793D01*
X112067671Y-115913797D01*
X112202517Y-115964091D01*
X112202516Y-115964091D01*
X112209444Y-115964835D01*
X112262127Y-115970500D01*
X113357872Y-115970499D01*
X113417483Y-115964091D01*
X113552331Y-115913796D01*
X113667546Y-115827546D01*
X113753796Y-115712331D01*
X113758031Y-115700974D01*
X113799898Y-115645042D01*
X113865362Y-115620621D01*
X113921665Y-115629743D01*
X114066503Y-115689737D01*
X114221153Y-115720499D01*
X114221156Y-115720500D01*
X114221158Y-115720500D01*
X114378844Y-115720500D01*
X114378845Y-115720499D01*
X114533497Y-115689737D01*
X114679179Y-115629394D01*
X114810289Y-115541789D01*
X114921789Y-115430289D01*
X115009394Y-115299179D01*
X115012854Y-115290827D01*
X115034186Y-115239326D01*
X115069737Y-115153497D01*
X115100500Y-114998842D01*
X115100500Y-114841158D01*
X115100500Y-114841155D01*
X115100499Y-114841153D01*
X115090716Y-114791969D01*
X115069737Y-114686503D01*
X115054437Y-114649565D01*
X115009397Y-114540827D01*
X115009390Y-114540814D01*
X114921789Y-114409711D01*
X114921786Y-114409707D01*
X114810292Y-114298213D01*
X114810288Y-114298210D01*
X114679185Y-114210609D01*
X114679172Y-114210602D01*
X114533501Y-114150264D01*
X114533489Y-114150261D01*
X114378845Y-114119500D01*
X114378842Y-114119500D01*
X114221158Y-114119500D01*
X114221155Y-114119500D01*
X114066510Y-114150261D01*
X114066498Y-114150264D01*
X113920827Y-114210602D01*
X113920813Y-114210610D01*
X113898691Y-114225391D01*
X113867469Y-114235166D01*
X113836639Y-114246098D01*
X113834303Y-114245549D01*
X113832013Y-114246267D01*
X113800452Y-114237608D01*
X113768616Y-114230139D01*
X113766529Y-114228301D01*
X113764633Y-114227781D01*
X113740709Y-114208532D01*
X113735243Y-114202885D01*
X113667546Y-114112454D01*
X113595477Y-114058503D01*
X113595475Y-114058501D01*
X113552335Y-114026206D01*
X113552328Y-114026202D01*
X113417482Y-113975908D01*
X113417483Y-113975908D01*
X113357883Y-113969501D01*
X113357881Y-113969500D01*
X113357873Y-113969500D01*
X113357865Y-113969500D01*
X112606878Y-113969500D01*
X112605935Y-113969223D01*
X125209500Y-113969223D01*
X125209500Y-114270776D01*
X125209501Y-114270793D01*
X125248861Y-114569766D01*
X125326913Y-114861060D01*
X125442314Y-115139661D01*
X125442318Y-115139671D01*
X125593099Y-115400831D01*
X125776679Y-115640078D01*
X125776685Y-115640085D01*
X125989914Y-115853314D01*
X125989921Y-115853320D01*
X126229168Y-116036900D01*
X126490328Y-116187681D01*
X126490329Y-116187681D01*
X126490332Y-116187683D01*
X126663919Y-116259585D01*
X126768939Y-116303086D01*
X126768940Y-116303086D01*
X126768942Y-116303087D01*
X127060232Y-116381138D01*
X127359217Y-116420500D01*
X127359224Y-116420500D01*
X127660776Y-116420500D01*
X127660783Y-116420500D01*
X127959768Y-116381138D01*
X128251058Y-116303087D01*
X128529668Y-116187683D01*
X128790832Y-116036900D01*
X129030080Y-115853319D01*
X129243319Y-115640080D01*
X129426900Y-115400832D01*
X129577683Y-115139668D01*
X129693087Y-114861058D01*
X129771138Y-114569768D01*
X129810500Y-114270783D01*
X129810500Y-113969217D01*
X129771138Y-113670232D01*
X129693087Y-113378942D01*
X129689838Y-113371099D01*
X129623849Y-113211786D01*
X129577683Y-113100332D01*
X129566810Y-113081500D01*
X129426900Y-112839168D01*
X129243320Y-112599921D01*
X129243314Y-112599914D01*
X129030085Y-112386685D01*
X129030078Y-112386679D01*
X128790831Y-112203099D01*
X128529671Y-112052318D01*
X128529661Y-112052314D01*
X128251060Y-111936913D01*
X127959766Y-111858861D01*
X127660793Y-111819501D01*
X127660788Y-111819500D01*
X127660783Y-111819500D01*
X127359217Y-111819500D01*
X127359211Y-111819500D01*
X127359206Y-111819501D01*
X127060233Y-111858861D01*
X126768939Y-111936913D01*
X126490338Y-112052314D01*
X126490328Y-112052318D01*
X126229168Y-112203099D01*
X125989921Y-112386679D01*
X125989914Y-112386685D01*
X125776685Y-112599914D01*
X125776679Y-112599921D01*
X125593099Y-112839168D01*
X125442318Y-113100328D01*
X125442314Y-113100338D01*
X125326913Y-113378939D01*
X125248861Y-113670233D01*
X125209501Y-113969206D01*
X125209500Y-113969223D01*
X112605935Y-113969223D01*
X112539839Y-113949815D01*
X112494084Y-113897011D01*
X112484140Y-113827853D01*
X112513165Y-113764297D01*
X112559424Y-113730940D01*
X112611678Y-113709296D01*
X112742788Y-113621691D01*
X112854288Y-113510191D01*
X112941893Y-113379081D01*
X112949906Y-113359737D01*
X112964547Y-113324390D01*
X113002236Y-113233399D01*
X113032999Y-113078744D01*
X113032999Y-112921060D01*
X113032999Y-112921057D01*
X113032998Y-112921055D01*
X113018565Y-112848497D01*
X113002236Y-112766405D01*
X112981281Y-112715814D01*
X112941896Y-112620729D01*
X112941889Y-112620716D01*
X112854288Y-112489613D01*
X112854285Y-112489609D01*
X112742791Y-112378115D01*
X112742787Y-112378112D01*
X112611684Y-112290511D01*
X112611671Y-112290504D01*
X112466000Y-112230166D01*
X112465988Y-112230163D01*
X112311344Y-112199402D01*
X112311341Y-112199402D01*
X112153657Y-112199402D01*
X112153654Y-112199402D01*
X111999009Y-112230163D01*
X111998997Y-112230166D01*
X111853326Y-112290504D01*
X111853313Y-112290511D01*
X111722210Y-112378112D01*
X111722206Y-112378115D01*
X111610712Y-112489609D01*
X111610709Y-112489613D01*
X111523108Y-112620716D01*
X111523103Y-112620725D01*
X111485606Y-112711253D01*
X111441765Y-112765656D01*
X111375471Y-112787721D01*
X111307771Y-112770442D01*
X111283364Y-112751481D01*
X111229591Y-112697708D01*
X111229587Y-112697705D01*
X111098484Y-112610104D01*
X111098471Y-112610097D01*
X110952800Y-112549759D01*
X110952788Y-112549756D01*
X110798144Y-112518995D01*
X110798141Y-112518995D01*
X110640457Y-112518995D01*
X110589202Y-112529189D01*
X110519612Y-112522962D01*
X110477332Y-112495253D01*
X110460292Y-112478213D01*
X110460288Y-112478210D01*
X110329185Y-112390609D01*
X110329172Y-112390602D01*
X110183501Y-112330264D01*
X110183489Y-112330261D01*
X110028845Y-112299500D01*
X110028842Y-112299500D01*
X109871158Y-112299500D01*
X109871155Y-112299500D01*
X109716510Y-112330261D01*
X109716498Y-112330264D01*
X109570827Y-112390602D01*
X109570814Y-112390609D01*
X109439711Y-112478210D01*
X109439707Y-112478213D01*
X109328213Y-112589707D01*
X109328210Y-112589711D01*
X109240609Y-112720814D01*
X109240602Y-112720827D01*
X109180264Y-112866498D01*
X109180261Y-112866508D01*
X109153098Y-113003066D01*
X109120713Y-113064977D01*
X109059997Y-113099551D01*
X108990228Y-113095811D01*
X108984029Y-113093435D01*
X108921431Y-113067506D01*
X108921419Y-113067503D01*
X108766775Y-113036742D01*
X108766772Y-113036742D01*
X108609088Y-113036742D01*
X108609085Y-113036742D01*
X108454435Y-113067503D01*
X108454432Y-113067505D01*
X108401477Y-113089439D01*
X108332008Y-113096907D01*
X108285135Y-113077979D01*
X108278174Y-113073328D01*
X108269156Y-113067302D01*
X108269155Y-113067301D01*
X108269153Y-113067300D01*
X108123478Y-113006960D01*
X108123466Y-113006957D01*
X107968822Y-112976196D01*
X107968819Y-112976196D01*
X107811135Y-112976196D01*
X107811132Y-112976196D01*
X107656487Y-113006957D01*
X107656475Y-113006960D01*
X107510805Y-113067298D01*
X107510796Y-113067303D01*
X107489549Y-113081500D01*
X107422871Y-113102376D01*
X107373208Y-113092957D01*
X107325820Y-113073328D01*
X107325808Y-113073325D01*
X107171164Y-113042564D01*
X107171161Y-113042564D01*
X107013477Y-113042564D01*
X107013474Y-113042564D01*
X106858829Y-113073325D01*
X106858817Y-113073328D01*
X106713146Y-113133666D01*
X106713133Y-113133673D01*
X106602969Y-113207283D01*
X106536291Y-113228161D01*
X106468911Y-113209676D01*
X106465187Y-113207283D01*
X106364004Y-113139674D01*
X106363991Y-113139667D01*
X106218320Y-113079329D01*
X106218308Y-113079326D01*
X106063664Y-113048565D01*
X106063661Y-113048565D01*
X105905977Y-113048565D01*
X105905974Y-113048565D01*
X105751329Y-113079326D01*
X105751317Y-113079329D01*
X105612414Y-113136864D01*
X105542944Y-113144333D01*
X105496077Y-113125409D01*
X105489774Y-113121198D01*
X105489770Y-113121196D01*
X105489766Y-113121193D01*
X105489762Y-113121191D01*
X105489758Y-113121189D01*
X105344088Y-113060851D01*
X105344076Y-113060848D01*
X105189432Y-113030087D01*
X105189429Y-113030087D01*
X105031745Y-113030087D01*
X105031742Y-113030087D01*
X104877097Y-113060848D01*
X104877085Y-113060851D01*
X104731414Y-113121189D01*
X104731401Y-113121196D01*
X104600298Y-113208797D01*
X104600294Y-113208800D01*
X104488800Y-113320294D01*
X104488797Y-113320298D01*
X104401196Y-113451401D01*
X104401189Y-113451414D01*
X104340851Y-113597085D01*
X104340848Y-113597097D01*
X104310087Y-113751740D01*
X103404010Y-113751740D01*
X103420500Y-113668842D01*
X103420500Y-113511158D01*
X103420500Y-113511155D01*
X103420499Y-113511153D01*
X103415332Y-113485176D01*
X103389737Y-113356503D01*
X103378133Y-113328489D01*
X103329397Y-113210827D01*
X103329390Y-113210814D01*
X103241789Y-113079711D01*
X103241786Y-113079707D01*
X103130292Y-112968213D01*
X103130288Y-112968210D01*
X102999185Y-112880609D01*
X102999172Y-112880602D01*
X102853501Y-112820264D01*
X102853489Y-112820261D01*
X102698845Y-112789500D01*
X102698842Y-112789500D01*
X102541158Y-112789500D01*
X102541155Y-112789500D01*
X102386510Y-112820261D01*
X102386498Y-112820264D01*
X102240827Y-112880602D01*
X102240814Y-112880609D01*
X102109711Y-112968210D01*
X102109707Y-112968213D01*
X101998213Y-113079707D01*
X101998210Y-113079711D01*
X101910609Y-113210814D01*
X101910602Y-113210827D01*
X101850264Y-113356498D01*
X101850261Y-113356510D01*
X101819500Y-113511153D01*
X100889287Y-113511153D01*
X100900047Y-113485176D01*
X100911464Y-113457613D01*
X100914715Y-113449761D01*
X100929737Y-113413497D01*
X100960500Y-113258842D01*
X100960500Y-113101158D01*
X100960500Y-113101155D01*
X100960499Y-113101153D01*
X100956042Y-113078746D01*
X100929737Y-112946503D01*
X100920208Y-112923497D01*
X100869397Y-112800827D01*
X100869390Y-112800814D01*
X100781789Y-112669711D01*
X100781786Y-112669707D01*
X100670292Y-112558213D01*
X100670288Y-112558210D01*
X100539185Y-112470609D01*
X100539172Y-112470602D01*
X100393501Y-112410264D01*
X100393489Y-112410261D01*
X100238845Y-112379500D01*
X100238842Y-112379500D01*
X100081158Y-112379500D01*
X100081155Y-112379500D01*
X99926510Y-112410261D01*
X99926498Y-112410264D01*
X99780822Y-112470604D01*
X99780820Y-112470605D01*
X99748855Y-112491964D01*
X99682178Y-112512841D01*
X99614798Y-112494356D01*
X99611075Y-112491963D01*
X99549185Y-112450609D01*
X99549172Y-112450602D01*
X99403501Y-112390264D01*
X99403489Y-112390261D01*
X99248845Y-112359500D01*
X99248842Y-112359500D01*
X99091158Y-112359500D01*
X99091155Y-112359500D01*
X98936510Y-112390261D01*
X98936498Y-112390264D01*
X98790827Y-112450602D01*
X98790814Y-112450609D01*
X98659711Y-112538210D01*
X98659707Y-112538213D01*
X98627681Y-112570240D01*
X98566358Y-112603725D01*
X98496666Y-112598741D01*
X98452319Y-112570240D01*
X98350292Y-112468213D01*
X98350288Y-112468210D01*
X98219185Y-112380609D01*
X98219172Y-112380602D01*
X98073501Y-112320264D01*
X98073489Y-112320261D01*
X97918845Y-112289500D01*
X97918842Y-112289500D01*
X97761158Y-112289500D01*
X97761155Y-112289500D01*
X97606510Y-112320261D01*
X97606498Y-112320264D01*
X97460827Y-112380602D01*
X97460814Y-112380609D01*
X97329711Y-112468210D01*
X97329707Y-112468213D01*
X97322681Y-112475240D01*
X97261358Y-112508725D01*
X97191666Y-112503741D01*
X97150060Y-112477001D01*
X97149999Y-112477076D01*
X97149360Y-112476552D01*
X97147319Y-112475240D01*
X97145292Y-112473213D01*
X97145288Y-112473210D01*
X97014185Y-112385609D01*
X97014172Y-112385602D01*
X96868501Y-112325264D01*
X96868489Y-112325261D01*
X96713845Y-112294500D01*
X96713842Y-112294500D01*
X96556158Y-112294500D01*
X96556155Y-112294500D01*
X96401510Y-112325261D01*
X96401498Y-112325264D01*
X96255827Y-112385602D01*
X96255814Y-112385609D01*
X96124711Y-112473210D01*
X96124707Y-112473213D01*
X96013213Y-112584707D01*
X96013210Y-112584711D01*
X95925609Y-112715814D01*
X95925602Y-112715827D01*
X95865264Y-112861498D01*
X95865261Y-112861510D01*
X95834500Y-113016153D01*
X95334593Y-113016153D01*
X95349276Y-112994179D01*
X95355683Y-112978712D01*
X95362351Y-112962614D01*
X95401867Y-112867211D01*
X95409619Y-112848497D01*
X95440382Y-112693842D01*
X95440382Y-112536158D01*
X95440382Y-112536155D01*
X95440381Y-112536153D01*
X95435409Y-112511158D01*
X95409619Y-112381503D01*
X95409249Y-112380609D01*
X95349279Y-112235827D01*
X95349272Y-112235814D01*
X95261671Y-112104711D01*
X95261668Y-112104707D01*
X95150174Y-111993213D01*
X95150170Y-111993210D01*
X95019067Y-111905609D01*
X95019054Y-111905602D01*
X94873383Y-111845264D01*
X94873371Y-111845261D01*
X94718727Y-111814500D01*
X94718724Y-111814500D01*
X94561040Y-111814500D01*
X94561037Y-111814500D01*
X94406392Y-111845261D01*
X94406380Y-111845264D01*
X94260709Y-111905602D01*
X94260696Y-111905609D01*
X94129593Y-111993210D01*
X94129589Y-111993213D01*
X94018095Y-112104707D01*
X94018092Y-112104711D01*
X93930491Y-112235814D01*
X93930486Y-112235824D01*
X93918714Y-112264245D01*
X93874872Y-112318649D01*
X93808578Y-112340713D01*
X93740879Y-112323433D01*
X93735265Y-112319896D01*
X93718647Y-112308793D01*
X93718633Y-112308785D01*
X93572962Y-112248447D01*
X93572950Y-112248444D01*
X93418306Y-112217683D01*
X93418303Y-112217683D01*
X93260619Y-112217683D01*
X93260616Y-112217683D01*
X93105971Y-112248444D01*
X93105959Y-112248447D01*
X92960288Y-112308785D01*
X92960277Y-112308791D01*
X92852046Y-112381109D01*
X92785369Y-112401986D01*
X92717989Y-112383501D01*
X92671299Y-112331522D01*
X92668611Y-112325495D01*
X92629396Y-112230821D01*
X92629392Y-112230814D01*
X92541791Y-112099711D01*
X92541788Y-112099707D01*
X92430294Y-111988213D01*
X92430290Y-111988210D01*
X92299187Y-111900609D01*
X92299174Y-111900602D01*
X92153503Y-111840264D01*
X92153491Y-111840261D01*
X91998847Y-111809500D01*
X91998844Y-111809500D01*
X91841160Y-111809500D01*
X91841155Y-111809500D01*
X91823262Y-111813059D01*
X91794973Y-111810526D01*
X91766565Y-111811104D01*
X91760618Y-111807450D01*
X91753671Y-111806829D01*
X91731242Y-111789405D01*
X91707032Y-111774532D01*
X91702147Y-111766801D01*
X91698495Y-111763964D01*
X91687351Y-111745234D01*
X91685843Y-111742102D01*
X91629394Y-111605821D01*
X91596582Y-111556715D01*
X91596581Y-111556712D01*
X91559457Y-111501153D01*
X117009500Y-111501153D01*
X117009500Y-111658846D01*
X117040261Y-111813489D01*
X117040264Y-111813501D01*
X117100602Y-111959172D01*
X117100609Y-111959185D01*
X117188210Y-112090288D01*
X117190365Y-112092914D01*
X117191063Y-112094558D01*
X117191595Y-112095354D01*
X117191444Y-112095454D01*
X117217677Y-112157224D01*
X117205886Y-112226091D01*
X117197613Y-112240469D01*
X117150609Y-112310814D01*
X117150602Y-112310827D01*
X117090264Y-112456498D01*
X117090261Y-112456510D01*
X117059500Y-112611153D01*
X117059500Y-112768846D01*
X117090261Y-112923489D01*
X117090264Y-112923501D01*
X117150602Y-113069172D01*
X117150609Y-113069185D01*
X117238210Y-113200288D01*
X117238213Y-113200292D01*
X117349707Y-113311786D01*
X117349711Y-113311789D01*
X117480814Y-113399390D01*
X117480827Y-113399397D01*
X117604449Y-113450602D01*
X117626503Y-113459737D01*
X117781153Y-113490499D01*
X117781156Y-113490500D01*
X117781158Y-113490500D01*
X117938844Y-113490500D01*
X117938845Y-113490499D01*
X118093497Y-113459737D01*
X118239179Y-113399394D01*
X118370289Y-113311789D01*
X118481789Y-113200289D01*
X118569394Y-113069179D01*
X118570172Y-113067302D01*
X118606868Y-112978708D01*
X118629737Y-112923497D01*
X118660500Y-112768842D01*
X118660500Y-112611158D01*
X118660500Y-112611155D01*
X118644209Y-112529258D01*
X118644209Y-112529257D01*
X118640608Y-112511153D01*
X120519500Y-112511153D01*
X120519500Y-112668846D01*
X120550261Y-112823489D01*
X120550264Y-112823501D01*
X120610602Y-112969172D01*
X120610609Y-112969185D01*
X120698210Y-113100288D01*
X120698213Y-113100292D01*
X120809707Y-113211786D01*
X120809711Y-113211789D01*
X120940814Y-113299390D01*
X120940827Y-113299397D01*
X121078683Y-113356498D01*
X121086503Y-113359737D01*
X121212176Y-113384735D01*
X121241153Y-113390499D01*
X121241156Y-113390500D01*
X121241158Y-113390500D01*
X121398844Y-113390500D01*
X121398845Y-113390499D01*
X121553497Y-113359737D01*
X121699179Y-113299394D01*
X121830289Y-113211789D01*
X121941789Y-113100289D01*
X122029394Y-112969179D01*
X122089737Y-112823497D01*
X122120500Y-112668842D01*
X122120500Y-112511158D01*
X122120500Y-112511155D01*
X122120499Y-112511153D01*
X122108455Y-112450606D01*
X122089737Y-112356503D01*
X122079390Y-112331522D01*
X122029397Y-112210827D01*
X122029390Y-112210814D01*
X121941789Y-112079711D01*
X121941786Y-112079707D01*
X121830292Y-111968213D01*
X121830288Y-111968210D01*
X121699185Y-111880609D01*
X121699172Y-111880602D01*
X121553501Y-111820264D01*
X121553489Y-111820261D01*
X121398845Y-111789500D01*
X121398842Y-111789500D01*
X121241158Y-111789500D01*
X121241155Y-111789500D01*
X121086510Y-111820261D01*
X121086498Y-111820264D01*
X120940827Y-111880602D01*
X120940814Y-111880609D01*
X120809711Y-111968210D01*
X120809707Y-111968213D01*
X120698213Y-112079707D01*
X120698210Y-112079711D01*
X120610609Y-112210814D01*
X120610602Y-112210827D01*
X120550264Y-112356498D01*
X120550261Y-112356510D01*
X120519500Y-112511153D01*
X118640608Y-112511153D01*
X118632066Y-112468211D01*
X118629737Y-112456503D01*
X118610862Y-112410934D01*
X118569397Y-112310827D01*
X118569390Y-112310814D01*
X118481788Y-112179709D01*
X118479636Y-112177087D01*
X118478938Y-112175443D01*
X118478405Y-112174646D01*
X118478556Y-112174544D01*
X118452322Y-112112777D01*
X118464112Y-112043910D01*
X118472383Y-112029535D01*
X118519394Y-111959179D01*
X118579737Y-111813497D01*
X118610500Y-111658842D01*
X118610500Y-111501158D01*
X118610500Y-111501155D01*
X118610499Y-111501153D01*
X118605239Y-111474711D01*
X118579737Y-111346503D01*
X118548170Y-111270292D01*
X118519397Y-111200827D01*
X118519390Y-111200814D01*
X118431789Y-111069711D01*
X118431786Y-111069707D01*
X118320292Y-110958213D01*
X118320288Y-110958210D01*
X118189185Y-110870609D01*
X118189172Y-110870602D01*
X118043501Y-110810264D01*
X118043489Y-110810261D01*
X117888845Y-110779500D01*
X117888842Y-110779500D01*
X117731158Y-110779500D01*
X117731155Y-110779500D01*
X117576510Y-110810261D01*
X117576498Y-110810264D01*
X117430827Y-110870602D01*
X117430814Y-110870609D01*
X117299711Y-110958210D01*
X117299707Y-110958213D01*
X117188213Y-111069707D01*
X117188210Y-111069711D01*
X117100609Y-111200814D01*
X117100602Y-111200827D01*
X117040264Y-111346498D01*
X117040261Y-111346510D01*
X117009500Y-111501153D01*
X91559457Y-111501153D01*
X91541789Y-111474711D01*
X91541786Y-111474707D01*
X91430292Y-111363213D01*
X91430288Y-111363210D01*
X91299185Y-111275609D01*
X91299172Y-111275602D01*
X91153501Y-111215264D01*
X91153491Y-111215261D01*
X90998149Y-111184361D01*
X90936238Y-111151976D01*
X90934660Y-111150425D01*
X90435388Y-110651153D01*
X119589500Y-110651153D01*
X119589500Y-110808846D01*
X119620261Y-110963489D01*
X119620264Y-110963501D01*
X119680602Y-111109172D01*
X119680609Y-111109185D01*
X119768210Y-111240288D01*
X119768213Y-111240292D01*
X119879707Y-111351786D01*
X119879711Y-111351789D01*
X120010814Y-111439390D01*
X120010827Y-111439397D01*
X120096084Y-111474711D01*
X120156503Y-111499737D01*
X120307312Y-111529735D01*
X120311153Y-111530499D01*
X120311156Y-111530500D01*
X120311158Y-111530500D01*
X120468844Y-111530500D01*
X120468845Y-111530499D01*
X120623497Y-111499737D01*
X120769179Y-111439394D01*
X120900289Y-111351789D01*
X121011789Y-111240289D01*
X121099394Y-111109179D01*
X121159737Y-110963497D01*
X121190500Y-110808842D01*
X121190500Y-110751941D01*
X121210185Y-110684902D01*
X121262989Y-110639147D01*
X121332147Y-110629203D01*
X121395703Y-110658228D01*
X121398165Y-110660521D01*
X121399711Y-110661789D01*
X121530814Y-110749390D01*
X121530827Y-110749397D01*
X121674342Y-110808842D01*
X121676503Y-110809737D01*
X121822823Y-110838842D01*
X121831153Y-110840499D01*
X121831156Y-110840500D01*
X121831158Y-110840500D01*
X121988844Y-110840500D01*
X121988845Y-110840499D01*
X122143497Y-110809737D01*
X122289179Y-110749394D01*
X122420289Y-110661789D01*
X122531789Y-110550289D01*
X122619394Y-110419179D01*
X122679737Y-110273497D01*
X122710500Y-110118842D01*
X122710500Y-109961158D01*
X122710500Y-109961155D01*
X122710499Y-109961153D01*
X122679738Y-109806510D01*
X122679737Y-109806503D01*
X122679735Y-109806498D01*
X122619397Y-109660827D01*
X122619390Y-109660814D01*
X122531789Y-109529711D01*
X122531786Y-109529707D01*
X122420292Y-109418213D01*
X122420288Y-109418210D01*
X122289185Y-109330609D01*
X122289172Y-109330602D01*
X122143501Y-109270264D01*
X122143489Y-109270261D01*
X121988845Y-109239500D01*
X121988842Y-109239500D01*
X121831158Y-109239500D01*
X121831155Y-109239500D01*
X121676510Y-109270261D01*
X121676498Y-109270264D01*
X121530827Y-109330602D01*
X121530814Y-109330609D01*
X121399711Y-109418210D01*
X121399707Y-109418213D01*
X121288213Y-109529707D01*
X121288210Y-109529711D01*
X121200609Y-109660814D01*
X121200602Y-109660827D01*
X121140264Y-109806498D01*
X121140261Y-109806510D01*
X121109500Y-109961153D01*
X121109500Y-110018059D01*
X121089815Y-110085098D01*
X121037011Y-110130853D01*
X120967853Y-110140797D01*
X120904297Y-110111772D01*
X120901834Y-110109478D01*
X120900288Y-110108210D01*
X120769185Y-110020609D01*
X120769172Y-110020602D01*
X120623501Y-109960264D01*
X120623489Y-109960261D01*
X120468845Y-109929500D01*
X120468842Y-109929500D01*
X120311158Y-109929500D01*
X120311155Y-109929500D01*
X120156510Y-109960261D01*
X120156498Y-109960264D01*
X120010827Y-110020602D01*
X120010814Y-110020609D01*
X119879711Y-110108210D01*
X119879707Y-110108213D01*
X119768213Y-110219707D01*
X119768210Y-110219711D01*
X119680609Y-110350814D01*
X119680602Y-110350827D01*
X119620264Y-110496498D01*
X119620261Y-110496510D01*
X119589500Y-110651153D01*
X90435388Y-110651153D01*
X87802853Y-108018618D01*
X87769368Y-107957295D01*
X87774352Y-107887603D01*
X87787433Y-107862045D01*
X87809394Y-107829179D01*
X87869737Y-107683497D01*
X87900500Y-107528842D01*
X87900500Y-107432612D01*
X102409500Y-107432612D01*
X102409500Y-107590305D01*
X102440261Y-107744948D01*
X102440264Y-107744960D01*
X102500602Y-107890631D01*
X102500609Y-107890644D01*
X102588210Y-108021747D01*
X102588213Y-108021751D01*
X102699707Y-108133245D01*
X102699711Y-108133248D01*
X102830814Y-108220849D01*
X102830827Y-108220856D01*
X102976498Y-108281194D01*
X102976503Y-108281196D01*
X103131153Y-108311958D01*
X103131156Y-108311959D01*
X103131158Y-108311959D01*
X103288844Y-108311959D01*
X103288845Y-108311958D01*
X103443497Y-108281196D01*
X103589179Y-108220853D01*
X103720289Y-108133248D01*
X103831789Y-108021748D01*
X103919394Y-107890638D01*
X103979737Y-107744956D01*
X104005357Y-107616154D01*
X111420078Y-107616154D01*
X111420078Y-107773847D01*
X111450839Y-107928490D01*
X111450842Y-107928502D01*
X111511180Y-108074173D01*
X111511187Y-108074186D01*
X111598788Y-108205289D01*
X111598791Y-108205293D01*
X111710285Y-108316787D01*
X111710289Y-108316790D01*
X111841392Y-108404391D01*
X111841405Y-108404398D01*
X111944030Y-108446906D01*
X111987081Y-108464738D01*
X112140112Y-108495178D01*
X112141731Y-108495500D01*
X112141734Y-108495501D01*
X112141736Y-108495501D01*
X112299422Y-108495501D01*
X112299423Y-108495500D01*
X112454075Y-108464738D01*
X112599757Y-108404395D01*
X112730867Y-108316790D01*
X112842367Y-108205290D01*
X112929972Y-108074180D01*
X112990315Y-107928498D01*
X113021078Y-107773843D01*
X113021078Y-107616159D01*
X113021078Y-107616156D01*
X113021077Y-107616154D01*
X113002646Y-107523497D01*
X112990315Y-107461504D01*
X112978350Y-107432617D01*
X112929975Y-107315828D01*
X112929968Y-107315815D01*
X112842367Y-107184712D01*
X112842364Y-107184708D01*
X112730870Y-107073214D01*
X112730866Y-107073211D01*
X112667922Y-107031153D01*
X124059500Y-107031153D01*
X124059500Y-107188846D01*
X124090261Y-107343489D01*
X124090264Y-107343501D01*
X124150602Y-107489172D01*
X124150609Y-107489185D01*
X124238210Y-107620288D01*
X124238213Y-107620292D01*
X124349707Y-107731786D01*
X124349711Y-107731789D01*
X124480814Y-107819390D01*
X124480827Y-107819397D01*
X124583790Y-107862045D01*
X124626503Y-107879737D01*
X124781153Y-107910499D01*
X124781156Y-107910500D01*
X124781158Y-107910500D01*
X124938844Y-107910500D01*
X124938845Y-107910499D01*
X125093497Y-107879737D01*
X125239179Y-107819394D01*
X125370289Y-107731789D01*
X125481789Y-107620289D01*
X125569394Y-107489179D01*
X125629737Y-107343497D01*
X125660500Y-107188842D01*
X125660500Y-107031158D01*
X125660500Y-107031155D01*
X125660499Y-107031153D01*
X125640320Y-106929707D01*
X125629737Y-106876503D01*
X125629322Y-106875500D01*
X125569397Y-106730827D01*
X125569390Y-106730814D01*
X125481789Y-106599711D01*
X125481786Y-106599707D01*
X125370292Y-106488213D01*
X125370288Y-106488210D01*
X125239185Y-106400609D01*
X125239172Y-106400602D01*
X125093501Y-106340264D01*
X125093489Y-106340261D01*
X124938845Y-106309500D01*
X124938842Y-106309500D01*
X124781158Y-106309500D01*
X124781155Y-106309500D01*
X124626510Y-106340261D01*
X124626498Y-106340264D01*
X124480827Y-106400602D01*
X124480814Y-106400609D01*
X124349711Y-106488210D01*
X124349707Y-106488213D01*
X124238213Y-106599707D01*
X124238210Y-106599711D01*
X124150609Y-106730814D01*
X124150602Y-106730827D01*
X124090264Y-106876498D01*
X124090261Y-106876510D01*
X124059500Y-107031153D01*
X112667922Y-107031153D01*
X112599763Y-106985610D01*
X112599750Y-106985603D01*
X112454079Y-106925265D01*
X112454067Y-106925262D01*
X112299423Y-106894501D01*
X112299420Y-106894501D01*
X112141736Y-106894501D01*
X112141733Y-106894501D01*
X111987088Y-106925262D01*
X111987076Y-106925265D01*
X111841405Y-106985603D01*
X111841392Y-106985610D01*
X111710289Y-107073211D01*
X111710285Y-107073214D01*
X111598791Y-107184708D01*
X111598788Y-107184712D01*
X111511187Y-107315815D01*
X111511180Y-107315828D01*
X111450842Y-107461499D01*
X111450839Y-107461511D01*
X111420078Y-107616154D01*
X104005357Y-107616154D01*
X104010500Y-107590301D01*
X104010500Y-107432617D01*
X104010500Y-107432614D01*
X104010499Y-107432612D01*
X103996285Y-107361153D01*
X103979737Y-107277962D01*
X103943291Y-107189972D01*
X103919397Y-107132286D01*
X103919390Y-107132273D01*
X103831789Y-107001170D01*
X103831786Y-107001166D01*
X103720292Y-106889672D01*
X103720288Y-106889669D01*
X103589185Y-106802068D01*
X103589172Y-106802061D01*
X103443501Y-106741723D01*
X103443489Y-106741720D01*
X103380382Y-106729167D01*
X103380381Y-106729167D01*
X103288844Y-106710959D01*
X103288842Y-106710959D01*
X103131158Y-106710959D01*
X103131155Y-106710959D01*
X102976510Y-106741720D01*
X102976498Y-106741723D01*
X102830827Y-106802061D01*
X102830814Y-106802068D01*
X102699711Y-106889669D01*
X102699707Y-106889672D01*
X102588213Y-107001166D01*
X102588210Y-107001170D01*
X102500609Y-107132273D01*
X102500602Y-107132286D01*
X102440264Y-107277957D01*
X102440261Y-107277969D01*
X102409500Y-107432612D01*
X87900500Y-107432612D01*
X87900500Y-107371158D01*
X87900500Y-107371155D01*
X87900499Y-107371153D01*
X87890541Y-107321092D01*
X87869737Y-107216503D01*
X87864050Y-107202773D01*
X87809397Y-107070827D01*
X87809390Y-107070814D01*
X87721789Y-106939711D01*
X87721786Y-106939707D01*
X87610292Y-106828213D01*
X87610288Y-106828210D01*
X87479185Y-106740609D01*
X87479172Y-106740602D01*
X87333501Y-106680264D01*
X87333489Y-106680261D01*
X87178845Y-106649500D01*
X87178842Y-106649500D01*
X87021158Y-106649500D01*
X87021155Y-106649500D01*
X86866510Y-106680261D01*
X86866498Y-106680264D01*
X86720827Y-106740602D01*
X86720814Y-106740609D01*
X86589711Y-106828210D01*
X86589707Y-106828213D01*
X86478213Y-106939707D01*
X86478210Y-106939711D01*
X86390609Y-107070814D01*
X86390602Y-107070827D01*
X86330264Y-107216498D01*
X86330261Y-107216510D01*
X86299500Y-107371153D01*
X86299500Y-107528846D01*
X86330261Y-107683489D01*
X86330264Y-107683501D01*
X86390602Y-107829172D01*
X86390609Y-107829185D01*
X86467818Y-107944735D01*
X86476210Y-107957295D01*
X86478602Y-107960874D01*
X86484252Y-107978920D01*
X86494477Y-107994830D01*
X86498928Y-108025789D01*
X86499480Y-108027551D01*
X86499500Y-108029765D01*
X86499500Y-108078330D01*
X86499499Y-108078348D01*
X86499499Y-108244054D01*
X86499498Y-108244054D01*
X86518987Y-108316787D01*
X86540423Y-108396785D01*
X86569360Y-108446904D01*
X86579655Y-108464736D01*
X86580449Y-108466111D01*
X86590250Y-108506521D01*
X86596918Y-108534009D01*
X86596917Y-108534010D01*
X86596918Y-108534012D01*
X86574064Y-108600038D01*
X86536750Y-108629379D01*
X86519143Y-108643225D01*
X86519142Y-108643225D01*
X86519141Y-108643226D01*
X86492287Y-108645789D01*
X86449590Y-108649866D01*
X86449587Y-108649864D01*
X86449587Y-108649865D01*
X86427186Y-108638316D01*
X86387488Y-108617849D01*
X86385378Y-108615788D01*
X85654868Y-107885278D01*
X85621383Y-107823955D01*
X85626367Y-107754263D01*
X85627968Y-107750193D01*
X85659737Y-107673497D01*
X85690500Y-107518842D01*
X85690500Y-107361158D01*
X85690500Y-107361155D01*
X85690499Y-107361153D01*
X85682530Y-107321089D01*
X85659737Y-107206503D01*
X85652423Y-107188846D01*
X85599397Y-107060827D01*
X85599390Y-107060814D01*
X85511789Y-106929711D01*
X85511786Y-106929707D01*
X85400292Y-106818213D01*
X85400288Y-106818210D01*
X85269185Y-106730609D01*
X85269172Y-106730602D01*
X85123501Y-106670264D01*
X85123489Y-106670261D01*
X84968845Y-106639500D01*
X84968842Y-106639500D01*
X84811158Y-106639500D01*
X84811155Y-106639500D01*
X84656510Y-106670261D01*
X84656498Y-106670264D01*
X84510827Y-106730602D01*
X84510814Y-106730609D01*
X84379711Y-106818210D01*
X84379707Y-106818213D01*
X84268213Y-106929707D01*
X84268210Y-106929711D01*
X84180609Y-107060814D01*
X84180602Y-107060827D01*
X84120264Y-107206498D01*
X84120261Y-107206510D01*
X84089500Y-107361153D01*
X84089500Y-107518846D01*
X84120261Y-107673489D01*
X84120264Y-107673501D01*
X84180602Y-107819172D01*
X84180609Y-107819184D01*
X84243602Y-107913459D01*
X84264480Y-107980136D01*
X84264500Y-107982350D01*
X84264500Y-108066612D01*
X84266268Y-108075500D01*
X84288535Y-108187445D01*
X84288537Y-108187452D01*
X84295926Y-108205290D01*
X84335688Y-108301286D01*
X84369915Y-108352509D01*
X84374058Y-108358710D01*
X84374060Y-108358713D01*
X84404141Y-108403733D01*
X84495586Y-108495178D01*
X84495608Y-108495198D01*
X88044205Y-112043795D01*
X88077690Y-112105118D01*
X88078141Y-112107285D01*
X88100261Y-112218489D01*
X88100264Y-112218501D01*
X88160602Y-112364172D01*
X88160609Y-112364185D01*
X88248210Y-112495288D01*
X88248213Y-112495292D01*
X88359707Y-112606786D01*
X88359711Y-112606789D01*
X88490814Y-112694390D01*
X88490827Y-112694397D01*
X88542565Y-112715827D01*
X88636503Y-112754737D01*
X88747716Y-112776858D01*
X88809623Y-112809241D01*
X88811203Y-112810793D01*
X89277229Y-113276819D01*
X89310714Y-113338142D01*
X89305730Y-113407834D01*
X89263858Y-113463767D01*
X89198394Y-113488184D01*
X89189548Y-113488500D01*
X85718370Y-113488500D01*
X85651331Y-113468815D01*
X85605576Y-113416011D01*
X85596753Y-113388691D01*
X85578990Y-113299394D01*
X85570260Y-113255504D01*
X85552152Y-113211786D01*
X85509920Y-113109828D01*
X85509913Y-113109815D01*
X85422312Y-112978712D01*
X85422309Y-112978708D01*
X85310815Y-112867214D01*
X85310811Y-112867211D01*
X85179708Y-112779610D01*
X85179695Y-112779603D01*
X85034024Y-112719265D01*
X85034012Y-112719262D01*
X84879368Y-112688501D01*
X84879365Y-112688501D01*
X84721681Y-112688501D01*
X84721678Y-112688501D01*
X84567033Y-112719262D01*
X84567021Y-112719265D01*
X84421350Y-112779603D01*
X84421337Y-112779610D01*
X84290234Y-112867211D01*
X84290230Y-112867214D01*
X84178736Y-112978708D01*
X84178733Y-112978712D01*
X84091132Y-113109815D01*
X84091125Y-113109828D01*
X84030787Y-113255499D01*
X84030784Y-113255511D01*
X84004293Y-113388691D01*
X83971908Y-113450602D01*
X83911193Y-113485176D01*
X83882676Y-113488500D01*
X82702004Y-113488500D01*
X82566677Y-113515418D01*
X82566667Y-113515421D01*
X82439192Y-113568222D01*
X82324454Y-113644887D01*
X81543470Y-114425871D01*
X81503242Y-114452751D01*
X81358881Y-114512546D01*
X81358872Y-114512551D01*
X81227769Y-114600152D01*
X81227765Y-114600155D01*
X81116271Y-114711649D01*
X81116268Y-114711653D01*
X81028667Y-114842756D01*
X81028660Y-114842769D01*
X80968322Y-114988440D01*
X80968319Y-114988452D01*
X80937558Y-115143095D01*
X72299373Y-115143095D01*
X72260076Y-114928659D01*
X72258271Y-114913794D01*
X72257452Y-114900261D01*
X72240726Y-114623736D01*
X72240500Y-114616249D01*
X72240500Y-111966533D01*
X76786999Y-111966533D01*
X76812958Y-112097030D01*
X76812961Y-112097040D01*
X76863876Y-112219961D01*
X76863886Y-112219979D01*
X76937801Y-112330601D01*
X76937807Y-112330609D01*
X77031890Y-112424692D01*
X77031898Y-112424698D01*
X77142520Y-112498613D01*
X77142523Y-112498614D01*
X77142531Y-112498620D01*
X77142537Y-112498622D01*
X77142538Y-112498623D01*
X77238113Y-112538211D01*
X77265464Y-112549540D01*
X77265468Y-112549540D01*
X77265469Y-112549541D01*
X77395966Y-112575500D01*
X77395969Y-112575500D01*
X77529033Y-112575500D01*
X77616825Y-112558035D01*
X77659536Y-112549540D01*
X77782469Y-112498620D01*
X77893106Y-112424695D01*
X77987195Y-112330606D01*
X78061120Y-112219969D01*
X78112040Y-112097036D01*
X78124632Y-112033735D01*
X78138000Y-111966533D01*
X78138000Y-111833466D01*
X78112041Y-111702969D01*
X78112040Y-111702968D01*
X78112040Y-111702964D01*
X78093764Y-111658842D01*
X78061123Y-111580038D01*
X78061122Y-111580037D01*
X78061120Y-111580031D01*
X78048069Y-111560499D01*
X77987198Y-111469398D01*
X77987192Y-111469390D01*
X77893109Y-111375307D01*
X77893101Y-111375301D01*
X77782479Y-111301386D01*
X77782472Y-111301382D01*
X77782469Y-111301380D01*
X77782465Y-111301378D01*
X77782461Y-111301376D01*
X77659540Y-111250461D01*
X77659530Y-111250458D01*
X77529033Y-111224500D01*
X77529031Y-111224500D01*
X77395969Y-111224500D01*
X77395967Y-111224500D01*
X77265469Y-111250458D01*
X77265459Y-111250461D01*
X77142538Y-111301376D01*
X77142520Y-111301386D01*
X77031898Y-111375301D01*
X77031890Y-111375307D01*
X76937807Y-111469390D01*
X76937801Y-111469398D01*
X76863886Y-111580020D01*
X76863876Y-111580038D01*
X76812961Y-111702959D01*
X76812958Y-111702969D01*
X76787000Y-111833466D01*
X76787000Y-111833469D01*
X76787000Y-111966531D01*
X76787000Y-111966533D01*
X76786999Y-111966533D01*
X72240500Y-111966533D01*
X72240500Y-110681153D01*
X81269500Y-110681153D01*
X81269500Y-110838846D01*
X81300261Y-110993489D01*
X81300264Y-110993501D01*
X81360602Y-111139172D01*
X81360609Y-111139185D01*
X81448210Y-111270288D01*
X81448213Y-111270292D01*
X81559707Y-111381786D01*
X81559711Y-111381789D01*
X81690814Y-111469390D01*
X81690827Y-111469397D01*
X81836498Y-111529735D01*
X81836503Y-111529737D01*
X81972115Y-111556712D01*
X81991153Y-111560499D01*
X81991156Y-111560500D01*
X81991158Y-111560500D01*
X82148844Y-111560500D01*
X82148845Y-111560499D01*
X82303497Y-111529737D01*
X82436352Y-111474707D01*
X82449172Y-111469397D01*
X82449172Y-111469396D01*
X82449179Y-111469394D01*
X82580289Y-111381789D01*
X82691789Y-111270289D01*
X82779394Y-111139179D01*
X82839737Y-110993497D01*
X82870500Y-110838842D01*
X82870500Y-110681158D01*
X82870500Y-110681155D01*
X82870499Y-110681153D01*
X82839738Y-110526510D01*
X82839737Y-110526503D01*
X82795285Y-110419185D01*
X82779397Y-110380827D01*
X82779390Y-110380814D01*
X82691789Y-110249711D01*
X82691786Y-110249707D01*
X82580292Y-110138213D01*
X82580288Y-110138210D01*
X82449185Y-110050609D01*
X82449172Y-110050602D01*
X82303501Y-109990264D01*
X82303489Y-109990261D01*
X82148845Y-109959500D01*
X82148842Y-109959500D01*
X81991158Y-109959500D01*
X81991155Y-109959500D01*
X81836510Y-109990261D01*
X81836498Y-109990264D01*
X81690827Y-110050602D01*
X81690814Y-110050609D01*
X81559711Y-110138210D01*
X81559707Y-110138213D01*
X81448213Y-110249707D01*
X81448210Y-110249711D01*
X81360609Y-110380814D01*
X81360602Y-110380827D01*
X81300264Y-110526498D01*
X81300261Y-110526510D01*
X81269500Y-110681153D01*
X72240500Y-110681153D01*
X72240500Y-105311153D01*
X73364500Y-105311153D01*
X73364500Y-105468846D01*
X73395261Y-105623489D01*
X73395264Y-105623501D01*
X73455602Y-105769172D01*
X73455609Y-105769185D01*
X73543210Y-105900288D01*
X73543213Y-105900292D01*
X73654707Y-106011786D01*
X73654711Y-106011789D01*
X73785814Y-106099390D01*
X73785827Y-106099397D01*
X73873998Y-106135918D01*
X73931503Y-106159737D01*
X74086153Y-106190499D01*
X74086156Y-106190500D01*
X74086158Y-106190500D01*
X74243844Y-106190500D01*
X74243845Y-106190499D01*
X74398497Y-106159737D01*
X74522707Y-106108288D01*
X74544172Y-106099397D01*
X74544172Y-106099396D01*
X74544179Y-106099394D01*
X74675289Y-106011789D01*
X74786789Y-105900289D01*
X74799575Y-105881153D01*
X77629500Y-105881153D01*
X77629500Y-106038846D01*
X77660261Y-106193489D01*
X77660264Y-106193501D01*
X77720602Y-106339172D01*
X77720609Y-106339185D01*
X77808210Y-106470288D01*
X77808213Y-106470292D01*
X77875240Y-106537319D01*
X77908725Y-106598642D01*
X77903741Y-106668334D01*
X77875240Y-106712681D01*
X77808213Y-106779707D01*
X77808210Y-106779711D01*
X77720609Y-106910814D01*
X77720602Y-106910827D01*
X77660264Y-107056498D01*
X77660261Y-107056510D01*
X77629500Y-107211153D01*
X77629500Y-107368846D01*
X77660261Y-107523489D01*
X77660264Y-107523501D01*
X77720602Y-107669172D01*
X77720609Y-107669185D01*
X77808210Y-107800288D01*
X77808213Y-107800292D01*
X77919707Y-107911786D01*
X77919711Y-107911789D01*
X78050814Y-107999390D01*
X78050827Y-107999397D01*
X78133163Y-108033501D01*
X78196503Y-108059737D01*
X78328249Y-108085943D01*
X78351153Y-108090499D01*
X78351156Y-108090500D01*
X78351158Y-108090500D01*
X78508844Y-108090500D01*
X78508845Y-108090499D01*
X78663497Y-108059737D01*
X78809179Y-107999394D01*
X78940289Y-107911789D01*
X79051789Y-107800289D01*
X79139394Y-107669179D01*
X79199737Y-107523497D01*
X79230500Y-107368842D01*
X79230500Y-107211158D01*
X79230500Y-107211155D01*
X79230499Y-107211153D01*
X79226061Y-107188842D01*
X79199737Y-107056503D01*
X79188867Y-107030261D01*
X79139397Y-106910827D01*
X79139390Y-106910814D01*
X79051789Y-106779711D01*
X79051786Y-106779707D01*
X78984760Y-106712681D01*
X78951275Y-106651358D01*
X78956259Y-106581666D01*
X78984760Y-106537319D01*
X79051786Y-106470292D01*
X79051789Y-106470289D01*
X79139394Y-106339179D01*
X79199737Y-106193497D01*
X79230500Y-106038842D01*
X79230500Y-105881158D01*
X79230500Y-105881155D01*
X79230499Y-105881153D01*
X79199737Y-105726503D01*
X79176813Y-105671158D01*
X79139397Y-105580827D01*
X79139390Y-105580814D01*
X79051789Y-105449711D01*
X79051786Y-105449707D01*
X78940292Y-105338213D01*
X78940288Y-105338210D01*
X78809185Y-105250609D01*
X78809172Y-105250602D01*
X78663501Y-105190264D01*
X78663489Y-105190261D01*
X78508845Y-105159500D01*
X78508842Y-105159500D01*
X78351158Y-105159500D01*
X78351155Y-105159500D01*
X78196510Y-105190261D01*
X78196498Y-105190264D01*
X78050827Y-105250602D01*
X78050814Y-105250609D01*
X77919711Y-105338210D01*
X77919707Y-105338213D01*
X77808213Y-105449707D01*
X77808210Y-105449711D01*
X77720609Y-105580814D01*
X77720602Y-105580827D01*
X77660264Y-105726498D01*
X77660261Y-105726510D01*
X77629500Y-105881153D01*
X74799575Y-105881153D01*
X74832752Y-105831501D01*
X74849675Y-105806175D01*
X74874391Y-105769183D01*
X74874394Y-105769179D01*
X74934737Y-105623497D01*
X74965500Y-105468842D01*
X74965500Y-105311158D01*
X74965500Y-105311155D01*
X74965499Y-105311153D01*
X74956968Y-105268264D01*
X74934737Y-105156503D01*
X74906241Y-105087707D01*
X74874397Y-105010827D01*
X74874390Y-105010814D01*
X74825735Y-104937997D01*
X74823030Y-104929358D01*
X74816980Y-104922623D01*
X74812752Y-104896537D01*
X74804857Y-104871320D01*
X74807252Y-104862589D01*
X74805804Y-104853653D01*
X74816349Y-104829425D01*
X74823341Y-104803939D01*
X74830813Y-104796194D01*
X74833689Y-104789589D01*
X74859946Y-104766004D01*
X74862034Y-104764608D01*
X74862036Y-104764608D01*
X74878849Y-104753373D01*
X74945525Y-104732496D01*
X74995191Y-104741915D01*
X75058681Y-104768213D01*
X75086503Y-104779737D01*
X75241153Y-104810499D01*
X75241156Y-104810500D01*
X75241158Y-104810500D01*
X75398844Y-104810500D01*
X75398845Y-104810499D01*
X75553497Y-104779737D01*
X75699179Y-104719394D01*
X75830289Y-104631789D01*
X75941789Y-104520289D01*
X76029394Y-104389179D01*
X76050386Y-104338499D01*
X76053460Y-104331078D01*
X81268390Y-104331078D01*
X81268390Y-104488771D01*
X81299151Y-104643414D01*
X81299154Y-104643426D01*
X81351049Y-104768712D01*
X81358518Y-104838181D01*
X81351049Y-104863616D01*
X81304329Y-104976409D01*
X81304326Y-104976421D01*
X81273565Y-105131064D01*
X81273565Y-105288757D01*
X81304326Y-105443400D01*
X81304329Y-105443412D01*
X81364667Y-105589082D01*
X81367544Y-105594464D01*
X81365485Y-105595564D01*
X81383263Y-105652355D01*
X81373845Y-105702011D01*
X81363698Y-105726510D01*
X81346023Y-105769183D01*
X81343421Y-105775464D01*
X81343419Y-105775469D01*
X81312659Y-105930111D01*
X81312659Y-106087804D01*
X81338913Y-106219789D01*
X81343422Y-106242455D01*
X81370320Y-106307394D01*
X81383027Y-106338070D01*
X81390496Y-106407540D01*
X81371570Y-106454411D01*
X81360610Y-106470814D01*
X81360602Y-106470828D01*
X81300264Y-106616498D01*
X81300261Y-106616510D01*
X81269500Y-106771153D01*
X81269500Y-106928846D01*
X81300261Y-107083489D01*
X81300264Y-107083501D01*
X81360602Y-107229172D01*
X81360609Y-107229185D01*
X81448210Y-107360288D01*
X81448213Y-107360292D01*
X81559707Y-107471786D01*
X81559711Y-107471789D01*
X81690814Y-107559390D01*
X81690827Y-107559397D01*
X81827865Y-107616159D01*
X81836503Y-107619737D01*
X81991153Y-107650499D01*
X81991156Y-107650500D01*
X82115500Y-107650500D01*
X82182539Y-107670185D01*
X82228294Y-107722989D01*
X82239500Y-107774500D01*
X82239500Y-107878846D01*
X82270261Y-108033489D01*
X82270264Y-108033501D01*
X82330602Y-108179172D01*
X82330609Y-108179185D01*
X82418210Y-108310288D01*
X82418213Y-108310292D01*
X82529707Y-108421786D01*
X82529711Y-108421789D01*
X82660814Y-108509390D01*
X82660827Y-108509397D01*
X82806498Y-108569735D01*
X82806503Y-108569737D01*
X82958835Y-108600038D01*
X82961153Y-108600499D01*
X82961156Y-108600500D01*
X82961158Y-108600500D01*
X83118844Y-108600500D01*
X83118845Y-108600499D01*
X83273497Y-108569737D01*
X83419179Y-108509394D01*
X83550289Y-108421789D01*
X83661789Y-108310289D01*
X83749394Y-108179179D01*
X83809737Y-108033497D01*
X83840500Y-107878842D01*
X83840500Y-107721158D01*
X83840500Y-107721155D01*
X83840499Y-107721153D01*
X83809737Y-107566503D01*
X83794138Y-107528844D01*
X83749397Y-107420827D01*
X83749390Y-107420814D01*
X83661789Y-107289711D01*
X83661786Y-107289707D01*
X83550292Y-107178213D01*
X83550288Y-107178210D01*
X83419185Y-107090609D01*
X83419172Y-107090602D01*
X83273501Y-107030264D01*
X83273489Y-107030261D01*
X83118845Y-106999500D01*
X83118842Y-106999500D01*
X82994500Y-106999500D01*
X82927461Y-106979815D01*
X82881706Y-106927011D01*
X82870500Y-106875500D01*
X82870500Y-106771155D01*
X82870499Y-106771153D01*
X82864422Y-106740602D01*
X82839737Y-106616503D01*
X82800130Y-106520884D01*
X82792662Y-106451416D01*
X82811592Y-106404540D01*
X82822553Y-106388137D01*
X82882896Y-106242455D01*
X82913659Y-106087800D01*
X82913659Y-105978227D01*
X101211190Y-105978227D01*
X101211190Y-106135920D01*
X101241951Y-106290563D01*
X101241954Y-106290575D01*
X101302292Y-106436246D01*
X101302299Y-106436259D01*
X101389900Y-106567362D01*
X101389903Y-106567366D01*
X101501397Y-106678860D01*
X101501401Y-106678863D01*
X101632504Y-106766464D01*
X101632517Y-106766471D01*
X101757435Y-106818213D01*
X101778193Y-106826811D01*
X101932843Y-106857573D01*
X101932846Y-106857574D01*
X101932848Y-106857574D01*
X102090534Y-106857574D01*
X102090535Y-106857573D01*
X102245187Y-106826811D01*
X102379546Y-106771158D01*
X102390862Y-106766471D01*
X102390862Y-106766470D01*
X102390869Y-106766468D01*
X102521979Y-106678863D01*
X102587205Y-106613637D01*
X104822678Y-106613637D01*
X104822678Y-106771330D01*
X104853439Y-106925973D01*
X104853442Y-106925985D01*
X104913780Y-107071656D01*
X104913787Y-107071669D01*
X105001388Y-107202772D01*
X105001391Y-107202776D01*
X105112885Y-107314270D01*
X105112889Y-107314273D01*
X105243992Y-107401874D01*
X105244005Y-107401881D01*
X105387938Y-107461499D01*
X105389681Y-107462221D01*
X105544331Y-107492983D01*
X105544334Y-107492984D01*
X105544336Y-107492984D01*
X105702022Y-107492984D01*
X105702023Y-107492983D01*
X105856675Y-107462221D01*
X106002357Y-107401878D01*
X106133467Y-107314273D01*
X106244967Y-107202773D01*
X106332572Y-107071663D01*
X106392915Y-106925981D01*
X106423678Y-106771326D01*
X106423678Y-106731953D01*
X109509500Y-106731953D01*
X109509500Y-106889646D01*
X109540261Y-107044289D01*
X109540264Y-107044301D01*
X109600602Y-107189972D01*
X109600609Y-107189985D01*
X109688210Y-107321088D01*
X109688213Y-107321092D01*
X109799707Y-107432586D01*
X109799711Y-107432589D01*
X109930814Y-107520190D01*
X109930827Y-107520197D01*
X110076498Y-107580535D01*
X110076503Y-107580537D01*
X110231153Y-107611299D01*
X110231156Y-107611300D01*
X110231158Y-107611300D01*
X110388844Y-107611300D01*
X110388845Y-107611299D01*
X110543497Y-107580537D01*
X110689179Y-107520194D01*
X110689184Y-107520190D01*
X110689187Y-107520189D01*
X110708977Y-107506966D01*
X110708978Y-107506965D01*
X110761622Y-107471789D01*
X110820289Y-107432589D01*
X110931789Y-107321089D01*
X111019394Y-107189979D01*
X111079737Y-107044297D01*
X111110500Y-106889642D01*
X111110500Y-106731958D01*
X111110500Y-106731955D01*
X111110499Y-106731953D01*
X111109945Y-106729167D01*
X111079737Y-106577303D01*
X111068635Y-106550499D01*
X111019397Y-106431627D01*
X111019390Y-106431614D01*
X110931789Y-106300511D01*
X110931786Y-106300507D01*
X110820292Y-106189013D01*
X110820288Y-106189010D01*
X110689185Y-106101409D01*
X110689172Y-106101402D01*
X110607630Y-106067627D01*
X110543501Y-106041064D01*
X110543489Y-106041061D01*
X110388845Y-106010300D01*
X110388842Y-106010300D01*
X110231158Y-106010300D01*
X110231155Y-106010300D01*
X110076510Y-106041061D01*
X110076498Y-106041064D01*
X109930827Y-106101402D01*
X109930814Y-106101409D01*
X109799711Y-106189010D01*
X109799707Y-106189013D01*
X109688213Y-106300507D01*
X109688210Y-106300511D01*
X109600609Y-106431614D01*
X109600602Y-106431627D01*
X109540264Y-106577298D01*
X109540261Y-106577310D01*
X109509500Y-106731953D01*
X106423678Y-106731953D01*
X106423678Y-106613642D01*
X106423678Y-106613639D01*
X106423677Y-106613637D01*
X106417342Y-106581789D01*
X106392915Y-106458987D01*
X106383498Y-106436253D01*
X106332575Y-106313311D01*
X106332568Y-106313298D01*
X106244967Y-106182195D01*
X106244964Y-106182191D01*
X106133470Y-106070697D01*
X106133466Y-106070694D01*
X106002363Y-105983093D01*
X106002350Y-105983086D01*
X105856679Y-105922748D01*
X105856667Y-105922745D01*
X105702023Y-105891984D01*
X105702020Y-105891984D01*
X105544336Y-105891984D01*
X105544333Y-105891984D01*
X105389688Y-105922745D01*
X105389676Y-105922748D01*
X105244005Y-105983086D01*
X105243992Y-105983093D01*
X105112889Y-106070694D01*
X105112885Y-106070697D01*
X105001391Y-106182191D01*
X105001388Y-106182195D01*
X104913787Y-106313298D01*
X104913780Y-106313311D01*
X104853442Y-106458982D01*
X104853439Y-106458994D01*
X104822678Y-106613637D01*
X102587205Y-106613637D01*
X102633479Y-106567363D01*
X102721084Y-106436253D01*
X102781427Y-106290571D01*
X102812190Y-106135916D01*
X102812190Y-105978232D01*
X102812190Y-105978229D01*
X102812189Y-105978227D01*
X102801153Y-105922745D01*
X102781427Y-105823577D01*
X102761495Y-105775456D01*
X102721087Y-105677901D01*
X102721080Y-105677888D01*
X102656982Y-105581959D01*
X102656981Y-105581958D01*
X102633476Y-105546781D01*
X102605848Y-105519153D01*
X107199500Y-105519153D01*
X107199500Y-105676846D01*
X107230261Y-105831489D01*
X107230264Y-105831501D01*
X107290602Y-105977172D01*
X107290609Y-105977185D01*
X107378210Y-106108288D01*
X107378213Y-106108292D01*
X107489707Y-106219786D01*
X107489711Y-106219789D01*
X107620814Y-106307390D01*
X107620827Y-106307397D01*
X107766498Y-106367735D01*
X107766503Y-106367737D01*
X107914537Y-106397183D01*
X107921153Y-106398499D01*
X107921156Y-106398500D01*
X107921158Y-106398500D01*
X108078844Y-106398500D01*
X108078845Y-106398499D01*
X108233497Y-106367737D01*
X108364894Y-106313311D01*
X108379172Y-106307397D01*
X108379172Y-106307396D01*
X108379179Y-106307394D01*
X108510289Y-106219789D01*
X108621789Y-106108289D01*
X108709394Y-105977179D01*
X108716859Y-105959158D01*
X108716861Y-105959153D01*
X112499500Y-105959153D01*
X112499500Y-106116846D01*
X112530261Y-106271489D01*
X112530264Y-106271501D01*
X112590602Y-106417172D01*
X112590609Y-106417185D01*
X112678210Y-106548288D01*
X112678213Y-106548292D01*
X112789707Y-106659786D01*
X112789711Y-106659789D01*
X112920814Y-106747390D01*
X112920827Y-106747397D01*
X113066498Y-106807735D01*
X113066503Y-106807737D01*
X113221153Y-106838499D01*
X113221156Y-106838500D01*
X113221158Y-106838500D01*
X113378844Y-106838500D01*
X113378845Y-106838499D01*
X113533497Y-106807737D01*
X113679179Y-106747394D01*
X113810289Y-106659789D01*
X113921789Y-106548289D01*
X114009394Y-106417179D01*
X114016258Y-106400609D01*
X114052417Y-106313311D01*
X114069737Y-106271497D01*
X114100500Y-106116842D01*
X114100500Y-105959158D01*
X114100500Y-105959155D01*
X114100499Y-105959153D01*
X114094723Y-105930116D01*
X114069737Y-105804503D01*
X114014502Y-105671153D01*
X118549500Y-105671153D01*
X118549500Y-105828846D01*
X118580261Y-105983489D01*
X118580264Y-105983501D01*
X118640602Y-106129172D01*
X118640609Y-106129185D01*
X118728210Y-106260288D01*
X118728213Y-106260292D01*
X118839707Y-106371786D01*
X118839711Y-106371789D01*
X118970814Y-106459390D01*
X118970827Y-106459397D01*
X119116498Y-106519735D01*
X119116503Y-106519737D01*
X119260038Y-106548288D01*
X119271153Y-106550499D01*
X119271156Y-106550500D01*
X119271158Y-106550500D01*
X119428844Y-106550500D01*
X119428845Y-106550499D01*
X119583497Y-106519737D01*
X119701592Y-106470821D01*
X119729172Y-106459397D01*
X119729172Y-106459396D01*
X119729179Y-106459394D01*
X119860289Y-106371789D01*
X119971789Y-106260289D01*
X120059394Y-106129179D01*
X120064503Y-106116846D01*
X120095892Y-106041064D01*
X120119737Y-105983497D01*
X120150500Y-105828842D01*
X120150500Y-105671158D01*
X120150500Y-105671155D01*
X120150499Y-105671153D01*
X120144457Y-105640779D01*
X120119737Y-105516503D01*
X120099996Y-105468844D01*
X120059397Y-105370827D01*
X120059390Y-105370814D01*
X119971789Y-105239711D01*
X119971786Y-105239707D01*
X119860292Y-105128213D01*
X119860288Y-105128210D01*
X119729185Y-105040609D01*
X119729172Y-105040602D01*
X119583501Y-104980264D01*
X119583489Y-104980261D01*
X119428845Y-104949500D01*
X119428842Y-104949500D01*
X119271158Y-104949500D01*
X119271155Y-104949500D01*
X119116510Y-104980261D01*
X119116498Y-104980264D01*
X118970827Y-105040602D01*
X118970814Y-105040609D01*
X118839711Y-105128210D01*
X118839707Y-105128213D01*
X118728213Y-105239707D01*
X118728210Y-105239711D01*
X118640609Y-105370814D01*
X118640602Y-105370827D01*
X118580264Y-105516498D01*
X118580261Y-105516510D01*
X118549500Y-105671153D01*
X114014502Y-105671153D01*
X114009394Y-105658821D01*
X114009392Y-105658818D01*
X114009390Y-105658814D01*
X113921789Y-105527711D01*
X113921786Y-105527707D01*
X113810292Y-105416213D01*
X113810288Y-105416210D01*
X113679185Y-105328609D01*
X113679172Y-105328602D01*
X113533501Y-105268264D01*
X113533489Y-105268261D01*
X113378845Y-105237500D01*
X113378842Y-105237500D01*
X113221158Y-105237500D01*
X113221155Y-105237500D01*
X113066510Y-105268261D01*
X113066498Y-105268264D01*
X112920827Y-105328602D01*
X112920814Y-105328609D01*
X112789711Y-105416210D01*
X112789707Y-105416213D01*
X112678213Y-105527707D01*
X112678210Y-105527711D01*
X112590609Y-105658814D01*
X112590602Y-105658827D01*
X112530264Y-105804498D01*
X112530261Y-105804510D01*
X112499500Y-105959153D01*
X108716861Y-105959153D01*
X108741243Y-105900288D01*
X108769737Y-105831497D01*
X108800500Y-105676842D01*
X108800500Y-105519158D01*
X108800500Y-105519155D01*
X108800499Y-105519153D01*
X108783817Y-105435287D01*
X108769737Y-105364503D01*
X108762767Y-105347676D01*
X108709397Y-105218827D01*
X108709390Y-105218814D01*
X108621789Y-105087711D01*
X108621786Y-105087707D01*
X108510292Y-104976213D01*
X108510288Y-104976210D01*
X108379185Y-104888609D01*
X108379172Y-104888602D01*
X108233501Y-104828264D01*
X108233489Y-104828261D01*
X108078845Y-104797500D01*
X108078842Y-104797500D01*
X107921158Y-104797500D01*
X107921155Y-104797500D01*
X107766510Y-104828261D01*
X107766498Y-104828264D01*
X107620827Y-104888602D01*
X107620814Y-104888609D01*
X107489711Y-104976210D01*
X107489707Y-104976213D01*
X107378213Y-105087707D01*
X107378210Y-105087711D01*
X107290609Y-105218814D01*
X107290602Y-105218827D01*
X107230264Y-105364498D01*
X107230261Y-105364510D01*
X107199500Y-105519153D01*
X102605848Y-105519153D01*
X102521982Y-105435287D01*
X102521978Y-105435284D01*
X102390875Y-105347683D01*
X102390862Y-105347676D01*
X102245191Y-105287338D01*
X102245179Y-105287335D01*
X102090535Y-105256574D01*
X102090532Y-105256574D01*
X101932848Y-105256574D01*
X101932845Y-105256574D01*
X101778200Y-105287335D01*
X101778188Y-105287338D01*
X101632517Y-105347676D01*
X101632504Y-105347683D01*
X101501401Y-105435284D01*
X101501397Y-105435287D01*
X101389903Y-105546781D01*
X101389900Y-105546785D01*
X101302299Y-105677888D01*
X101302292Y-105677901D01*
X101241954Y-105823572D01*
X101241951Y-105823584D01*
X101211190Y-105978227D01*
X82913659Y-105978227D01*
X82913659Y-105930116D01*
X82913659Y-105930113D01*
X82913658Y-105930111D01*
X82906074Y-105891984D01*
X82882896Y-105775461D01*
X82834585Y-105658826D01*
X82822556Y-105629786D01*
X82822555Y-105629785D01*
X82822553Y-105629779D01*
X82822549Y-105629773D01*
X82819680Y-105624405D01*
X82821735Y-105623306D01*
X82803959Y-105566495D01*
X82813378Y-105516856D01*
X82843802Y-105443408D01*
X82874565Y-105288753D01*
X82874565Y-105131069D01*
X82874565Y-105131066D01*
X82874564Y-105131064D01*
X82873997Y-105128213D01*
X82843802Y-104976414D01*
X82791904Y-104851122D01*
X82784436Y-104781654D01*
X82791903Y-104756223D01*
X82838627Y-104643422D01*
X82869390Y-104488767D01*
X82869390Y-104331083D01*
X82869390Y-104331080D01*
X82869389Y-104331078D01*
X82856384Y-104265699D01*
X82838627Y-104176428D01*
X82794884Y-104070823D01*
X82787416Y-104001358D01*
X82794883Y-103975925D01*
X82849737Y-103843497D01*
X82880500Y-103688842D01*
X82880500Y-103531158D01*
X82880500Y-103531155D01*
X82880499Y-103531153D01*
X82867807Y-103467346D01*
X82849737Y-103376503D01*
X82837026Y-103345816D01*
X82812357Y-103286258D01*
X82794081Y-103242135D01*
X83929500Y-103242135D01*
X83929500Y-104337870D01*
X83929501Y-104337876D01*
X83935908Y-104397483D01*
X83986202Y-104532328D01*
X83986206Y-104532335D01*
X84072452Y-104647544D01*
X84072455Y-104647547D01*
X84187664Y-104733793D01*
X84187671Y-104733797D01*
X84322517Y-104784091D01*
X84322516Y-104784091D01*
X84329444Y-104784835D01*
X84382127Y-104790500D01*
X85477872Y-104790499D01*
X85537483Y-104784091D01*
X85672331Y-104733796D01*
X85787546Y-104647546D01*
X85873796Y-104532331D01*
X85924091Y-104397483D01*
X85930500Y-104337873D01*
X85930499Y-103831153D01*
X89809500Y-103831153D01*
X89809500Y-103988846D01*
X89840261Y-104143489D01*
X89840264Y-104143501D01*
X89900602Y-104289172D01*
X89900609Y-104289185D01*
X89988210Y-104420288D01*
X89988213Y-104420292D01*
X90099707Y-104531786D01*
X90099711Y-104531789D01*
X90230814Y-104619390D01*
X90230827Y-104619397D01*
X90375228Y-104679209D01*
X90376503Y-104679737D01*
X90531153Y-104710499D01*
X90531156Y-104710500D01*
X90531158Y-104710500D01*
X90688844Y-104710500D01*
X90688845Y-104710499D01*
X90843497Y-104679737D01*
X90959262Y-104631786D01*
X90989172Y-104619397D01*
X90989172Y-104619396D01*
X90989179Y-104619394D01*
X91018627Y-104599717D01*
X91085302Y-104578840D01*
X91152682Y-104597324D01*
X91156407Y-104599718D01*
X91200814Y-104629390D01*
X91200827Y-104629397D01*
X91346498Y-104689735D01*
X91346503Y-104689737D01*
X91495578Y-104719390D01*
X91501153Y-104720499D01*
X91501156Y-104720500D01*
X91501158Y-104720500D01*
X91658844Y-104720500D01*
X91658845Y-104720499D01*
X91813497Y-104689737D01*
X91959179Y-104629394D01*
X92090289Y-104541789D01*
X92201789Y-104430289D01*
X92289394Y-104299179D01*
X92349737Y-104153497D01*
X92380500Y-103998842D01*
X92380500Y-103841158D01*
X92380500Y-103841155D01*
X92380499Y-103841153D01*
X92376632Y-103821712D01*
X92349737Y-103686503D01*
X92342649Y-103669390D01*
X92289397Y-103540827D01*
X92289390Y-103540814D01*
X92201789Y-103409711D01*
X92201786Y-103409707D01*
X92090292Y-103298213D01*
X92090288Y-103298210D01*
X91959185Y-103210609D01*
X91959172Y-103210602D01*
X91813501Y-103150264D01*
X91813489Y-103150261D01*
X91658845Y-103119500D01*
X91658842Y-103119500D01*
X91501158Y-103119500D01*
X91501155Y-103119500D01*
X91346510Y-103150261D01*
X91346498Y-103150264D01*
X91200828Y-103210602D01*
X91200812Y-103210611D01*
X91171372Y-103230282D01*
X91104694Y-103251159D01*
X91037314Y-103232673D01*
X91033593Y-103230282D01*
X90989182Y-103200608D01*
X90989181Y-103200607D01*
X90989179Y-103200606D01*
X90989176Y-103200604D01*
X90989171Y-103200602D01*
X90843501Y-103140264D01*
X90843489Y-103140261D01*
X90688845Y-103109500D01*
X90688842Y-103109500D01*
X90531158Y-103109500D01*
X90531155Y-103109500D01*
X90376510Y-103140261D01*
X90376498Y-103140264D01*
X90230827Y-103200602D01*
X90230814Y-103200609D01*
X90099711Y-103288210D01*
X90099707Y-103288213D01*
X89988213Y-103399707D01*
X89988210Y-103399711D01*
X89900609Y-103530814D01*
X89900602Y-103530827D01*
X89840264Y-103676498D01*
X89840261Y-103676510D01*
X89809500Y-103831153D01*
X85930499Y-103831153D01*
X85930499Y-103776510D01*
X85930499Y-103242129D01*
X85930498Y-103242123D01*
X85930497Y-103242116D01*
X85924091Y-103182517D01*
X85915255Y-103158827D01*
X85873797Y-103047671D01*
X85873793Y-103047664D01*
X85800215Y-102949377D01*
X85787547Y-102932455D01*
X85787544Y-102932452D01*
X85719018Y-102881153D01*
X95989500Y-102881153D01*
X95989500Y-103038846D01*
X96020261Y-103193489D01*
X96020264Y-103193501D01*
X96080602Y-103339172D01*
X96080609Y-103339185D01*
X96168210Y-103470288D01*
X96168213Y-103470292D01*
X96279707Y-103581786D01*
X96279711Y-103581789D01*
X96410814Y-103669390D01*
X96410827Y-103669397D01*
X96556498Y-103729735D01*
X96556503Y-103729737D01*
X96711153Y-103760499D01*
X96711156Y-103760500D01*
X96711158Y-103760500D01*
X96868844Y-103760500D01*
X96868845Y-103760499D01*
X97023497Y-103729737D01*
X97169179Y-103669394D01*
X97300289Y-103581789D01*
X97386232Y-103495845D01*
X97447553Y-103462362D01*
X97517245Y-103467346D01*
X97542803Y-103480426D01*
X97612931Y-103527284D01*
X97612933Y-103527285D01*
X97612937Y-103527287D01*
X97744521Y-103581790D01*
X97758613Y-103587627D01*
X97905486Y-103616842D01*
X97913263Y-103618389D01*
X97913266Y-103618390D01*
X97913268Y-103618390D01*
X98070954Y-103618390D01*
X98070955Y-103618389D01*
X98225607Y-103587627D01*
X98361944Y-103531155D01*
X98371282Y-103527287D01*
X98371282Y-103527286D01*
X98371289Y-103527284D01*
X98502399Y-103439679D01*
X98613899Y-103328179D01*
X98701504Y-103197069D01*
X98703798Y-103191532D01*
X98720891Y-103150264D01*
X98761847Y-103051387D01*
X98765338Y-103033839D01*
X100826814Y-103033839D01*
X100826814Y-103191532D01*
X100857575Y-103346175D01*
X100857578Y-103346187D01*
X100917916Y-103491858D01*
X100917923Y-103491871D01*
X101005524Y-103622974D01*
X101005527Y-103622978D01*
X101117021Y-103734472D01*
X101117025Y-103734475D01*
X101248128Y-103822076D01*
X101248141Y-103822083D01*
X101332068Y-103856846D01*
X101393817Y-103882423D01*
X101548467Y-103913185D01*
X101548470Y-103913186D01*
X101548472Y-103913186D01*
X101706158Y-103913186D01*
X101706159Y-103913185D01*
X101860811Y-103882423D01*
X102006493Y-103822080D01*
X102137603Y-103734475D01*
X102249103Y-103622975D01*
X102336708Y-103491865D01*
X102397051Y-103346183D01*
X102427814Y-103191528D01*
X102427814Y-103033844D01*
X102427814Y-103033841D01*
X102427813Y-103033839D01*
X102407646Y-102932454D01*
X102397051Y-102879189D01*
X102383388Y-102846204D01*
X102336711Y-102733513D01*
X102336704Y-102733500D01*
X102249103Y-102602397D01*
X102249100Y-102602393D01*
X102137606Y-102490899D01*
X102137602Y-102490896D01*
X102006499Y-102403295D01*
X102006486Y-102403288D01*
X101860815Y-102342950D01*
X101860803Y-102342947D01*
X101706159Y-102312186D01*
X101706156Y-102312186D01*
X101548472Y-102312186D01*
X101548469Y-102312186D01*
X101393824Y-102342947D01*
X101393812Y-102342950D01*
X101248141Y-102403288D01*
X101248128Y-102403295D01*
X101117025Y-102490896D01*
X101117021Y-102490899D01*
X101005527Y-102602393D01*
X101005524Y-102602397D01*
X100917923Y-102733500D01*
X100917916Y-102733513D01*
X100857578Y-102879184D01*
X100857575Y-102879196D01*
X100826814Y-103033839D01*
X98765338Y-103033839D01*
X98771361Y-103003560D01*
X98771361Y-103003559D01*
X98788735Y-102916211D01*
X98792610Y-102896732D01*
X98792610Y-102739048D01*
X98792610Y-102739045D01*
X98792609Y-102739043D01*
X98765427Y-102602393D01*
X98761847Y-102584393D01*
X98760370Y-102580827D01*
X98701507Y-102438717D01*
X98701500Y-102438704D01*
X98613899Y-102307601D01*
X98613896Y-102307597D01*
X98502402Y-102196103D01*
X98502398Y-102196100D01*
X98371295Y-102108499D01*
X98371282Y-102108492D01*
X98225611Y-102048154D01*
X98225599Y-102048151D01*
X98070955Y-102017390D01*
X98070952Y-102017390D01*
X97913268Y-102017390D01*
X97913265Y-102017390D01*
X97758620Y-102048151D01*
X97758608Y-102048154D01*
X97612937Y-102108492D01*
X97612924Y-102108499D01*
X97481821Y-102196100D01*
X97395878Y-102282043D01*
X97334554Y-102315527D01*
X97264863Y-102310543D01*
X97239306Y-102297463D01*
X97169185Y-102250609D01*
X97169172Y-102250602D01*
X97023501Y-102190264D01*
X97023489Y-102190261D01*
X96868845Y-102159500D01*
X96868842Y-102159500D01*
X96711158Y-102159500D01*
X96711155Y-102159500D01*
X96556510Y-102190261D01*
X96556498Y-102190264D01*
X96410827Y-102250602D01*
X96410814Y-102250609D01*
X96279711Y-102338210D01*
X96279707Y-102338213D01*
X96168213Y-102449707D01*
X96168210Y-102449711D01*
X96080609Y-102580814D01*
X96080602Y-102580827D01*
X96020264Y-102726498D01*
X96020261Y-102726510D01*
X95989500Y-102881153D01*
X85719018Y-102881153D01*
X85672335Y-102846206D01*
X85672328Y-102846202D01*
X85537482Y-102795908D01*
X85537483Y-102795908D01*
X85477883Y-102789501D01*
X85477881Y-102789500D01*
X85477873Y-102789500D01*
X85477864Y-102789500D01*
X84382129Y-102789500D01*
X84382123Y-102789501D01*
X84322516Y-102795908D01*
X84187671Y-102846202D01*
X84187664Y-102846206D01*
X84072455Y-102932452D01*
X84072452Y-102932455D01*
X83986206Y-103047664D01*
X83986202Y-103047671D01*
X83935908Y-103182517D01*
X83929700Y-103240263D01*
X83929501Y-103242123D01*
X83929500Y-103242135D01*
X82794081Y-103242135D01*
X82789397Y-103230827D01*
X82789390Y-103230814D01*
X82701789Y-103099711D01*
X82701786Y-103099707D01*
X82590292Y-102988213D01*
X82590288Y-102988210D01*
X82459185Y-102900609D01*
X82459172Y-102900602D01*
X82313501Y-102840264D01*
X82313489Y-102840261D01*
X82158845Y-102809500D01*
X82158842Y-102809500D01*
X82001158Y-102809500D01*
X82001155Y-102809500D01*
X81846510Y-102840261D01*
X81846498Y-102840264D01*
X81700827Y-102900602D01*
X81700814Y-102900609D01*
X81569711Y-102988210D01*
X81569707Y-102988213D01*
X81458213Y-103099707D01*
X81458210Y-103099711D01*
X81370609Y-103230814D01*
X81370602Y-103230827D01*
X81310264Y-103376498D01*
X81310261Y-103376510D01*
X81279500Y-103531153D01*
X81279500Y-103688846D01*
X81310261Y-103843489D01*
X81310264Y-103843501D01*
X81354004Y-103949099D01*
X81361473Y-104018568D01*
X81354004Y-104044003D01*
X81299154Y-104176423D01*
X81299151Y-104176435D01*
X81268390Y-104331078D01*
X76053460Y-104331078D01*
X76075634Y-104277546D01*
X76075636Y-104277539D01*
X76089737Y-104243497D01*
X76120500Y-104088842D01*
X76120500Y-103931158D01*
X76120500Y-103931155D01*
X76120499Y-103931153D01*
X76110806Y-103882423D01*
X76089737Y-103776503D01*
X76087665Y-103771501D01*
X76029397Y-103630827D01*
X76029390Y-103630814D01*
X75941789Y-103499711D01*
X75941786Y-103499707D01*
X75830292Y-103388213D01*
X75830288Y-103388210D01*
X75699185Y-103300609D01*
X75699172Y-103300602D01*
X75553501Y-103240264D01*
X75553489Y-103240261D01*
X75398845Y-103209500D01*
X75398842Y-103209500D01*
X75241158Y-103209500D01*
X75241155Y-103209500D01*
X75086510Y-103240261D01*
X75086498Y-103240264D01*
X74940828Y-103300602D01*
X74940816Y-103300609D01*
X74924004Y-103311842D01*
X74857326Y-103332717D01*
X74807665Y-103323298D01*
X74716358Y-103285478D01*
X74716346Y-103285475D01*
X74561702Y-103254714D01*
X74561699Y-103254714D01*
X74404015Y-103254714D01*
X74404012Y-103254714D01*
X74249367Y-103285475D01*
X74249355Y-103285478D01*
X74103684Y-103345816D01*
X74103671Y-103345823D01*
X73972568Y-103433424D01*
X73972564Y-103433427D01*
X73861070Y-103544921D01*
X73861067Y-103544925D01*
X73773466Y-103676028D01*
X73773459Y-103676041D01*
X73713121Y-103821712D01*
X73713118Y-103821724D01*
X73682357Y-103976367D01*
X73682357Y-104134060D01*
X73713118Y-104288703D01*
X73713121Y-104288715D01*
X73773459Y-104434386D01*
X73773466Y-104434399D01*
X73822121Y-104507216D01*
X73842999Y-104573894D01*
X73824514Y-104641274D01*
X73787910Y-104679209D01*
X73654711Y-104768210D01*
X73654707Y-104768213D01*
X73543213Y-104879707D01*
X73543210Y-104879711D01*
X73455609Y-105010814D01*
X73455602Y-105010827D01*
X73395264Y-105156498D01*
X73395261Y-105156510D01*
X73364500Y-105311153D01*
X72240500Y-105311153D01*
X72240500Y-101366533D01*
X76786999Y-101366533D01*
X76812958Y-101497030D01*
X76812961Y-101497040D01*
X76863876Y-101619961D01*
X76863886Y-101619979D01*
X76937801Y-101730601D01*
X76937807Y-101730609D01*
X77031890Y-101824692D01*
X77031898Y-101824698D01*
X77142520Y-101898613D01*
X77142523Y-101898614D01*
X77142531Y-101898620D01*
X77265464Y-101949540D01*
X77265468Y-101949540D01*
X77265469Y-101949541D01*
X77395966Y-101975500D01*
X77395969Y-101975500D01*
X77529033Y-101975500D01*
X77616825Y-101958035D01*
X77659536Y-101949540D01*
X77782469Y-101898620D01*
X77893106Y-101824695D01*
X77987195Y-101730606D01*
X78061120Y-101619969D01*
X78112040Y-101497036D01*
X78120535Y-101454325D01*
X78138000Y-101366533D01*
X78138000Y-101233466D01*
X78112041Y-101102969D01*
X78112040Y-101102968D01*
X78112040Y-101102964D01*
X78105117Y-101086251D01*
X78061123Y-100980038D01*
X78061122Y-100980037D01*
X78061120Y-100980031D01*
X77992202Y-100876888D01*
X79473765Y-100876888D01*
X79473765Y-101034581D01*
X79504526Y-101189224D01*
X79504529Y-101189236D01*
X79564867Y-101334907D01*
X79564874Y-101334920D01*
X79652475Y-101466023D01*
X79652478Y-101466027D01*
X79763972Y-101577521D01*
X79763976Y-101577524D01*
X79895079Y-101665125D01*
X79895092Y-101665132D01*
X79954036Y-101689546D01*
X80040768Y-101725472D01*
X80111808Y-101739602D01*
X80135062Y-101746657D01*
X80160005Y-101756988D01*
X80224202Y-101783580D01*
X80224206Y-101783580D01*
X80224207Y-101783581D01*
X80359533Y-101810500D01*
X80359536Y-101810500D01*
X80359537Y-101810500D01*
X91654684Y-101810500D01*
X91702136Y-101819939D01*
X91833828Y-101874487D01*
X91846503Y-101879737D01*
X91941434Y-101898620D01*
X92001153Y-101910499D01*
X92001156Y-101910500D01*
X92001158Y-101910500D01*
X92158844Y-101910500D01*
X92158845Y-101910499D01*
X92313497Y-101879737D01*
X92446381Y-101824695D01*
X92459172Y-101819397D01*
X92459172Y-101819396D01*
X92459179Y-101819394D01*
X92590289Y-101731789D01*
X92605278Y-101716800D01*
X105464598Y-101716800D01*
X105464598Y-101874493D01*
X105495359Y-102029136D01*
X105495362Y-102029148D01*
X105555700Y-102174819D01*
X105555707Y-102174832D01*
X105643308Y-102305935D01*
X105643311Y-102305939D01*
X105754805Y-102417433D01*
X105754809Y-102417436D01*
X105885912Y-102505037D01*
X105885925Y-102505044D01*
X105983806Y-102545587D01*
X106031601Y-102565384D01*
X106186246Y-102596145D01*
X106186251Y-102596146D01*
X106186254Y-102596147D01*
X106186256Y-102596147D01*
X106343942Y-102596147D01*
X106343943Y-102596146D01*
X106498595Y-102565384D01*
X106644277Y-102505041D01*
X106766112Y-102423632D01*
X106832787Y-102402756D01*
X106900167Y-102421240D01*
X106903892Y-102423634D01*
X107025716Y-102505035D01*
X107025729Y-102505042D01*
X107123615Y-102545587D01*
X107171405Y-102565382D01*
X107187154Y-102568514D01*
X107249065Y-102600897D01*
X107283641Y-102661611D01*
X107279904Y-102731381D01*
X107239040Y-102788054D01*
X107210420Y-102804693D01*
X107152690Y-102828606D01*
X107152683Y-102828609D01*
X107021580Y-102916210D01*
X106948271Y-102989519D01*
X106886947Y-103023003D01*
X106817256Y-103018018D01*
X106813140Y-103016399D01*
X106793498Y-103008263D01*
X106793488Y-103008260D01*
X106638845Y-102977500D01*
X106638842Y-102977500D01*
X106481158Y-102977500D01*
X106481155Y-102977500D01*
X106326510Y-103008261D01*
X106326498Y-103008264D01*
X106180827Y-103068602D01*
X106180814Y-103068609D01*
X106049711Y-103156210D01*
X106049707Y-103156213D01*
X105938213Y-103267707D01*
X105938210Y-103267711D01*
X105850609Y-103398814D01*
X105850602Y-103398827D01*
X105790264Y-103544498D01*
X105790261Y-103544510D01*
X105759500Y-103699153D01*
X105759500Y-103856846D01*
X105790261Y-104011489D01*
X105790264Y-104011501D01*
X105850602Y-104157172D01*
X105850609Y-104157185D01*
X105938210Y-104288288D01*
X105938213Y-104288292D01*
X106049707Y-104399786D01*
X106049711Y-104399789D01*
X106180814Y-104487390D01*
X106180827Y-104487397D01*
X106289302Y-104532328D01*
X106326503Y-104547737D01*
X106481153Y-104578499D01*
X106481156Y-104578500D01*
X106481158Y-104578500D01*
X106638844Y-104578500D01*
X106638845Y-104578499D01*
X106793497Y-104547737D01*
X106935855Y-104488771D01*
X106939172Y-104487397D01*
X106939172Y-104487396D01*
X106939179Y-104487394D01*
X107070289Y-104399789D01*
X107143598Y-104326479D01*
X107204919Y-104292996D01*
X107274611Y-104297980D01*
X107278690Y-104299584D01*
X107298372Y-104307737D01*
X107449830Y-104337864D01*
X107453022Y-104338499D01*
X107453025Y-104338500D01*
X107453027Y-104338500D01*
X107610713Y-104338500D01*
X107610714Y-104338499D01*
X107765366Y-104307737D01*
X107911048Y-104247394D01*
X108042158Y-104159789D01*
X108153658Y-104048289D01*
X108241263Y-103917179D01*
X108301606Y-103771497D01*
X108332369Y-103616842D01*
X108332369Y-103459158D01*
X108332369Y-103459155D01*
X108332368Y-103459153D01*
X108322533Y-103409711D01*
X108301606Y-103304503D01*
X108293725Y-103285477D01*
X108241266Y-103158827D01*
X108241259Y-103158814D01*
X108153658Y-103027711D01*
X108153655Y-103027707D01*
X108042161Y-102916213D01*
X108042157Y-102916210D01*
X107911054Y-102828609D01*
X107911041Y-102828602D01*
X107765370Y-102768264D01*
X107765358Y-102768261D01*
X107749613Y-102765129D01*
X107687702Y-102732744D01*
X107653128Y-102672028D01*
X107656867Y-102602259D01*
X107697734Y-102545587D01*
X107726346Y-102528953D01*
X107784081Y-102505039D01*
X107915191Y-102417434D01*
X108026691Y-102305934D01*
X108114296Y-102174824D01*
X108174639Y-102029142D01*
X108205402Y-101874487D01*
X108205402Y-101716803D01*
X108205402Y-101716800D01*
X108205401Y-101716798D01*
X108195123Y-101665129D01*
X108174639Y-101562148D01*
X108147669Y-101497036D01*
X108114299Y-101416472D01*
X108114292Y-101416459D01*
X108026691Y-101285356D01*
X108026688Y-101285352D01*
X107915194Y-101173858D01*
X107915190Y-101173855D01*
X107784087Y-101086254D01*
X107784074Y-101086247D01*
X107638403Y-101025909D01*
X107638391Y-101025906D01*
X107483747Y-100995145D01*
X107483744Y-100995145D01*
X107326060Y-100995145D01*
X107326057Y-100995145D01*
X107171412Y-101025906D01*
X107171400Y-101025909D01*
X107025729Y-101086247D01*
X107025716Y-101086254D01*
X106903889Y-101167657D01*
X106837211Y-101188535D01*
X106769831Y-101170050D01*
X106766107Y-101167657D01*
X106644283Y-101086256D01*
X106644270Y-101086249D01*
X106498599Y-101025911D01*
X106498587Y-101025908D01*
X106343943Y-100995147D01*
X106343940Y-100995147D01*
X106186256Y-100995147D01*
X106186253Y-100995147D01*
X106031608Y-101025908D01*
X106031596Y-101025911D01*
X105885925Y-101086249D01*
X105885912Y-101086256D01*
X105754809Y-101173857D01*
X105754805Y-101173860D01*
X105643311Y-101285354D01*
X105643308Y-101285358D01*
X105555707Y-101416461D01*
X105555700Y-101416474D01*
X105495362Y-101562145D01*
X105495359Y-101562157D01*
X105464598Y-101716800D01*
X92605278Y-101716800D01*
X92605280Y-101716798D01*
X92699047Y-101623032D01*
X92701786Y-101620292D01*
X92701789Y-101620289D01*
X92789394Y-101489179D01*
X92849737Y-101343497D01*
X92880500Y-101188842D01*
X92880500Y-101031158D01*
X92880500Y-101031155D01*
X92880499Y-101031153D01*
X92873337Y-100995147D01*
X92849737Y-100876503D01*
X92807818Y-100775301D01*
X92789397Y-100730827D01*
X92789390Y-100730814D01*
X92701789Y-100599711D01*
X92701786Y-100599707D01*
X92594299Y-100492220D01*
X92594295Y-100492217D01*
X92590289Y-100488211D01*
X92547713Y-100459763D01*
X92546729Y-100459077D01*
X92525569Y-100432731D01*
X92503919Y-100406826D01*
X92503762Y-100405580D01*
X92502977Y-100404602D01*
X92502791Y-100402850D01*
X93752535Y-100402850D01*
X93752535Y-100560543D01*
X93783296Y-100715186D01*
X93783299Y-100715198D01*
X93843637Y-100860869D01*
X93843644Y-100860882D01*
X93931245Y-100991985D01*
X93931248Y-100991989D01*
X94042742Y-101103483D01*
X94042746Y-101103486D01*
X94173849Y-101191087D01*
X94173862Y-101191094D01*
X94306477Y-101246024D01*
X94319538Y-101251434D01*
X94474188Y-101282196D01*
X94474191Y-101282197D01*
X94474193Y-101282197D01*
X94631879Y-101282197D01*
X94631880Y-101282196D01*
X94786532Y-101251434D01*
X94932214Y-101191091D01*
X95063324Y-101103486D01*
X95174824Y-100991986D01*
X95262429Y-100860876D01*
X95322772Y-100715194D01*
X95353535Y-100560539D01*
X95353535Y-100402855D01*
X95353535Y-100402852D01*
X95353534Y-100402850D01*
X95352458Y-100397442D01*
X98745247Y-100397442D01*
X98745247Y-100555135D01*
X98776008Y-100709778D01*
X98776011Y-100709790D01*
X98836349Y-100855461D01*
X98836356Y-100855474D01*
X98923957Y-100986577D01*
X98923960Y-100986581D01*
X99035454Y-101098075D01*
X99035458Y-101098078D01*
X99166561Y-101185679D01*
X99166574Y-101185686D01*
X99281927Y-101233466D01*
X99312250Y-101246026D01*
X99466900Y-101276788D01*
X99466903Y-101276789D01*
X99466905Y-101276789D01*
X99624591Y-101276789D01*
X99624592Y-101276788D01*
X99779244Y-101246026D01*
X99911870Y-101191091D01*
X99924919Y-101185686D01*
X99924919Y-101185685D01*
X99924926Y-101185683D01*
X100056036Y-101098078D01*
X100167536Y-100986578D01*
X100255141Y-100855468D01*
X100315484Y-100709786D01*
X100346247Y-100555131D01*
X100346247Y-100397447D01*
X100346247Y-100397444D01*
X100346246Y-100397442D01*
X100334098Y-100336369D01*
X100315484Y-100242792D01*
X100311220Y-100232497D01*
X100255144Y-100097116D01*
X100255137Y-100097103D01*
X100167536Y-99966000D01*
X100167533Y-99965996D01*
X100056039Y-99854502D01*
X100056035Y-99854499D01*
X99924932Y-99766898D01*
X99924919Y-99766891D01*
X99779248Y-99706553D01*
X99779236Y-99706550D01*
X99624592Y-99675789D01*
X99624589Y-99675789D01*
X99466905Y-99675789D01*
X99466902Y-99675789D01*
X99312257Y-99706550D01*
X99312245Y-99706553D01*
X99166574Y-99766891D01*
X99166561Y-99766898D01*
X99035458Y-99854499D01*
X99035454Y-99854502D01*
X98923960Y-99965996D01*
X98923957Y-99966000D01*
X98836356Y-100097103D01*
X98836349Y-100097116D01*
X98776011Y-100242787D01*
X98776008Y-100242799D01*
X98745247Y-100397442D01*
X95352458Y-100397442D01*
X95350941Y-100389815D01*
X95322772Y-100248200D01*
X95316268Y-100232497D01*
X95262432Y-100102524D01*
X95262425Y-100102511D01*
X95174824Y-99971408D01*
X95174821Y-99971404D01*
X95063327Y-99859910D01*
X95063323Y-99859907D01*
X94938163Y-99776277D01*
X94893358Y-99722665D01*
X94884651Y-99653340D01*
X94914806Y-99590312D01*
X94938163Y-99570073D01*
X94984903Y-99538842D01*
X95070289Y-99481789D01*
X95130925Y-99421153D01*
X96559500Y-99421153D01*
X96559500Y-99578846D01*
X96590261Y-99733489D01*
X96590264Y-99733501D01*
X96650602Y-99879172D01*
X96650609Y-99879185D01*
X96738210Y-100010288D01*
X96738213Y-100010292D01*
X96849707Y-100121786D01*
X96849711Y-100121789D01*
X96980814Y-100209390D01*
X96980827Y-100209397D01*
X97126498Y-100269735D01*
X97126503Y-100269737D01*
X97256147Y-100295525D01*
X97281153Y-100300499D01*
X97281156Y-100300500D01*
X97281158Y-100300500D01*
X97438844Y-100300500D01*
X97438845Y-100300499D01*
X97489939Y-100290336D01*
X97593484Y-100269740D01*
X97593493Y-100269738D01*
X97593494Y-100269737D01*
X97593497Y-100269737D01*
X97739179Y-100209394D01*
X97870289Y-100121789D01*
X97981789Y-100010289D01*
X98069394Y-99879179D01*
X98081972Y-99848814D01*
X98089874Y-99829735D01*
X98129737Y-99733497D01*
X98160500Y-99578842D01*
X98160500Y-99536466D01*
X110894187Y-99536466D01*
X110894187Y-99694159D01*
X110924948Y-99848802D01*
X110924951Y-99848814D01*
X110985289Y-99994485D01*
X110985296Y-99994498D01*
X111072897Y-100125601D01*
X111072900Y-100125605D01*
X111184394Y-100237099D01*
X111184398Y-100237102D01*
X111315501Y-100324703D01*
X111315514Y-100324710D01*
X111427289Y-100371008D01*
X111461190Y-100385050D01*
X111564401Y-100405580D01*
X111615840Y-100415812D01*
X111615843Y-100415813D01*
X111615845Y-100415813D01*
X111773531Y-100415813D01*
X111773532Y-100415812D01*
X111928184Y-100385050D01*
X112073866Y-100324707D01*
X112204976Y-100237102D01*
X112316476Y-100125602D01*
X112404081Y-99994492D01*
X112464424Y-99848810D01*
X112495187Y-99694155D01*
X112495187Y-99536471D01*
X112495187Y-99536468D01*
X112495186Y-99536466D01*
X112475833Y-99439172D01*
X112464424Y-99381816D01*
X112464422Y-99381811D01*
X112404084Y-99236140D01*
X112404077Y-99236127D01*
X112316476Y-99105024D01*
X112316473Y-99105020D01*
X112204979Y-98993526D01*
X112204975Y-98993523D01*
X112073872Y-98905922D01*
X112073859Y-98905915D01*
X111928188Y-98845577D01*
X111928176Y-98845574D01*
X111773532Y-98814813D01*
X111773529Y-98814813D01*
X111615845Y-98814813D01*
X111615842Y-98814813D01*
X111461197Y-98845574D01*
X111461185Y-98845577D01*
X111315514Y-98905915D01*
X111315501Y-98905922D01*
X111184398Y-98993523D01*
X111184394Y-98993526D01*
X111072900Y-99105020D01*
X111072897Y-99105024D01*
X110985296Y-99236127D01*
X110985289Y-99236140D01*
X110924951Y-99381811D01*
X110924948Y-99381823D01*
X110894187Y-99536466D01*
X98160500Y-99536466D01*
X98160500Y-99421158D01*
X98160500Y-99421155D01*
X98160499Y-99421153D01*
X98154139Y-99389179D01*
X98129737Y-99266503D01*
X98120208Y-99243497D01*
X98069397Y-99120827D01*
X98069390Y-99120814D01*
X97981789Y-98989711D01*
X97981786Y-98989707D01*
X97870292Y-98878213D01*
X97870288Y-98878210D01*
X97739185Y-98790609D01*
X97739172Y-98790602D01*
X97593501Y-98730264D01*
X97593489Y-98730261D01*
X97438845Y-98699500D01*
X97438842Y-98699500D01*
X97281158Y-98699500D01*
X97281155Y-98699500D01*
X97126510Y-98730261D01*
X97126498Y-98730264D01*
X96980827Y-98790602D01*
X96980814Y-98790609D01*
X96849711Y-98878210D01*
X96849707Y-98878213D01*
X96738213Y-98989707D01*
X96738210Y-98989711D01*
X96650609Y-99120814D01*
X96650602Y-99120827D01*
X96590264Y-99266498D01*
X96590261Y-99266510D01*
X96559500Y-99421153D01*
X95130925Y-99421153D01*
X95181789Y-99370289D01*
X95190833Y-99356752D01*
X95197902Y-99346175D01*
X95269390Y-99239185D01*
X95269390Y-99239184D01*
X95269394Y-99239179D01*
X95329737Y-99093497D01*
X95360500Y-98938842D01*
X95360500Y-98781158D01*
X95360500Y-98781155D01*
X95360499Y-98781153D01*
X95357731Y-98767237D01*
X95329737Y-98626503D01*
X95317618Y-98597244D01*
X95286666Y-98522518D01*
X95269532Y-98481153D01*
X98859500Y-98481153D01*
X98859500Y-98638846D01*
X98890261Y-98793489D01*
X98890264Y-98793501D01*
X98950602Y-98939172D01*
X98950609Y-98939185D01*
X99038210Y-99070288D01*
X99038213Y-99070292D01*
X99149707Y-99181786D01*
X99149711Y-99181789D01*
X99280814Y-99269390D01*
X99280827Y-99269397D01*
X99426498Y-99329735D01*
X99426503Y-99329737D01*
X99581153Y-99360499D01*
X99581156Y-99360500D01*
X99581158Y-99360500D01*
X99738844Y-99360500D01*
X99738845Y-99360499D01*
X99893497Y-99329737D01*
X100039179Y-99269394D01*
X100170289Y-99181789D01*
X100281789Y-99070289D01*
X100369394Y-98939179D01*
X100372719Y-98931153D01*
X100394647Y-98878213D01*
X100429737Y-98793497D01*
X100460500Y-98638842D01*
X100460500Y-98481158D01*
X100460500Y-98481155D01*
X100460499Y-98481153D01*
X100452359Y-98440232D01*
X100429737Y-98326503D01*
X100406489Y-98270376D01*
X100369397Y-98180827D01*
X100369390Y-98180814D01*
X100281789Y-98049711D01*
X100281786Y-98049707D01*
X100170292Y-97938213D01*
X100170288Y-97938210D01*
X100069931Y-97871153D01*
X114119500Y-97871153D01*
X114119500Y-98028846D01*
X114150261Y-98183489D01*
X114150264Y-98183501D01*
X114210602Y-98329172D01*
X114210609Y-98329185D01*
X114298210Y-98460288D01*
X114298213Y-98460292D01*
X114409707Y-98571786D01*
X114409711Y-98571789D01*
X114540814Y-98659390D01*
X114540827Y-98659397D01*
X114615348Y-98690264D01*
X114686503Y-98719737D01*
X114819928Y-98746277D01*
X114841153Y-98750499D01*
X114841156Y-98750500D01*
X114841158Y-98750500D01*
X114998844Y-98750500D01*
X114998845Y-98750499D01*
X115153497Y-98719737D01*
X115299179Y-98659394D01*
X115430289Y-98571789D01*
X115541789Y-98460289D01*
X115629394Y-98329179D01*
X115630503Y-98326503D01*
X115653746Y-98270388D01*
X115689737Y-98183497D01*
X115720500Y-98028842D01*
X115720500Y-97871158D01*
X115720500Y-97871155D01*
X115720499Y-97871153D01*
X115688549Y-97710528D01*
X115689941Y-97710251D01*
X115689384Y-97647520D01*
X115726634Y-97588408D01*
X115761213Y-97566835D01*
X115779179Y-97559394D01*
X115910289Y-97471789D01*
X116021789Y-97360289D01*
X116109394Y-97229179D01*
X116169737Y-97083497D01*
X116200500Y-96928842D01*
X116200500Y-96771158D01*
X116200500Y-96771155D01*
X116200499Y-96771153D01*
X116187721Y-96706913D01*
X116169737Y-96616503D01*
X116169735Y-96616498D01*
X116109397Y-96470827D01*
X116109390Y-96470814D01*
X116021789Y-96339711D01*
X116021786Y-96339707D01*
X115910292Y-96228213D01*
X115910288Y-96228210D01*
X115779185Y-96140609D01*
X115779172Y-96140602D01*
X115633501Y-96080264D01*
X115633489Y-96080261D01*
X115478845Y-96049500D01*
X115478842Y-96049500D01*
X115321158Y-96049500D01*
X115321155Y-96049500D01*
X115166510Y-96080261D01*
X115166498Y-96080264D01*
X115020827Y-96140602D01*
X115020814Y-96140609D01*
X114889711Y-96228210D01*
X114889707Y-96228213D01*
X114778213Y-96339707D01*
X114778210Y-96339711D01*
X114690609Y-96470814D01*
X114690602Y-96470827D01*
X114630264Y-96616498D01*
X114630261Y-96616510D01*
X114599500Y-96771153D01*
X114599500Y-96928846D01*
X114631451Y-97089472D01*
X114630058Y-97089748D01*
X114630613Y-97152486D01*
X114593359Y-97211596D01*
X114558788Y-97233163D01*
X114540823Y-97240604D01*
X114540814Y-97240609D01*
X114409711Y-97328210D01*
X114409707Y-97328213D01*
X114298213Y-97439707D01*
X114298210Y-97439711D01*
X114210609Y-97570814D01*
X114210602Y-97570827D01*
X114150264Y-97716498D01*
X114150261Y-97716510D01*
X114119500Y-97871153D01*
X100069931Y-97871153D01*
X100039185Y-97850609D01*
X100039172Y-97850602D01*
X99893501Y-97790264D01*
X99893489Y-97790261D01*
X99738845Y-97759500D01*
X99738842Y-97759500D01*
X99581158Y-97759500D01*
X99581155Y-97759500D01*
X99426510Y-97790261D01*
X99426498Y-97790264D01*
X99280827Y-97850602D01*
X99280814Y-97850609D01*
X99149711Y-97938210D01*
X99149707Y-97938213D01*
X99038213Y-98049707D01*
X99038210Y-98049711D01*
X98950609Y-98180814D01*
X98950602Y-98180827D01*
X98890264Y-98326498D01*
X98890261Y-98326510D01*
X98859500Y-98481153D01*
X95269532Y-98481153D01*
X95269395Y-98480823D01*
X95269390Y-98480814D01*
X95181789Y-98349711D01*
X95181786Y-98349707D01*
X95070292Y-98238213D01*
X95070288Y-98238210D01*
X94939185Y-98150609D01*
X94939172Y-98150602D01*
X94793501Y-98090264D01*
X94793489Y-98090261D01*
X94638845Y-98059500D01*
X94638842Y-98059500D01*
X94481158Y-98059500D01*
X94481155Y-98059500D01*
X94326510Y-98090261D01*
X94326498Y-98090264D01*
X94180827Y-98150602D01*
X94180814Y-98150609D01*
X94049711Y-98238210D01*
X94049707Y-98238213D01*
X93938213Y-98349707D01*
X93938210Y-98349711D01*
X93850609Y-98480814D01*
X93850602Y-98480827D01*
X93790264Y-98626498D01*
X93790261Y-98626510D01*
X93759500Y-98781153D01*
X93759500Y-98938846D01*
X93790261Y-99093489D01*
X93790264Y-99093501D01*
X93850602Y-99239172D01*
X93850609Y-99239185D01*
X93938210Y-99370288D01*
X93938213Y-99370292D01*
X94049707Y-99481786D01*
X94049711Y-99481789D01*
X94174871Y-99565419D01*
X94219676Y-99619031D01*
X94228383Y-99688356D01*
X94198228Y-99751384D01*
X94174872Y-99771623D01*
X94042742Y-99859910D01*
X93931248Y-99971404D01*
X93931245Y-99971408D01*
X93843644Y-100102511D01*
X93843637Y-100102524D01*
X93783299Y-100248195D01*
X93783296Y-100248207D01*
X93752535Y-100402850D01*
X92502791Y-100402850D01*
X92499420Y-100371008D01*
X92495212Y-100337501D01*
X92495753Y-100336369D01*
X92495621Y-100335121D01*
X92510787Y-100304946D01*
X92525366Y-100274474D01*
X92526434Y-100273813D01*
X92526998Y-100272693D01*
X92556063Y-100255510D01*
X92584809Y-100237754D01*
X92586962Y-100237245D01*
X92587144Y-100237138D01*
X92587378Y-100237146D01*
X92593405Y-100235722D01*
X92623497Y-100229737D01*
X92736166Y-100183067D01*
X92769172Y-100169397D01*
X92769172Y-100169396D01*
X92769179Y-100169394D01*
X92900289Y-100081789D01*
X93011789Y-99970289D01*
X93099394Y-99839179D01*
X93159737Y-99693497D01*
X93190500Y-99538842D01*
X93190500Y-99381158D01*
X93190500Y-99381155D01*
X93190499Y-99381153D01*
X93182267Y-99339768D01*
X93159737Y-99226503D01*
X93115965Y-99120827D01*
X93099397Y-99080827D01*
X93099390Y-99080814D01*
X93011789Y-98949711D01*
X93011786Y-98949707D01*
X92900292Y-98838213D01*
X92900288Y-98838210D01*
X92769185Y-98750609D01*
X92769172Y-98750602D01*
X92623501Y-98690264D01*
X92623489Y-98690261D01*
X92468845Y-98659500D01*
X92468842Y-98659500D01*
X92311158Y-98659500D01*
X92311155Y-98659500D01*
X92156510Y-98690261D01*
X92156498Y-98690264D01*
X92010827Y-98750602D01*
X92010814Y-98750609D01*
X91879711Y-98838210D01*
X91879707Y-98838213D01*
X91768213Y-98949707D01*
X91768210Y-98949711D01*
X91680609Y-99080814D01*
X91680602Y-99080827D01*
X91620264Y-99226498D01*
X91620261Y-99226510D01*
X91589500Y-99381153D01*
X91589500Y-99538846D01*
X91620261Y-99693489D01*
X91620264Y-99693501D01*
X91680602Y-99839172D01*
X91680609Y-99839185D01*
X91768210Y-99970288D01*
X91768213Y-99970292D01*
X91879708Y-100081787D01*
X91879711Y-100081789D01*
X91921275Y-100109561D01*
X91966079Y-100163172D01*
X91974787Y-100232497D01*
X91944633Y-100295525D01*
X91895252Y-100329018D01*
X91886118Y-100332382D01*
X91846503Y-100340263D01*
X91700821Y-100400606D01*
X91700672Y-100400705D01*
X91697552Y-100401855D01*
X91690839Y-100402308D01*
X91654684Y-100409500D01*
X89475211Y-100409500D01*
X89408172Y-100389815D01*
X89362417Y-100337011D01*
X89352473Y-100267853D01*
X89376835Y-100210014D01*
X89395262Y-100185999D01*
X89406900Y-100170832D01*
X89557683Y-99909668D01*
X89673087Y-99631058D01*
X89751138Y-99339768D01*
X89790500Y-99040783D01*
X89790500Y-98739217D01*
X89751138Y-98440232D01*
X89673087Y-98148942D01*
X89659331Y-98115733D01*
X89623340Y-98028842D01*
X89557683Y-97870332D01*
X89539525Y-97838882D01*
X89406900Y-97609168D01*
X89223320Y-97369921D01*
X89223314Y-97369914D01*
X89010085Y-97156685D01*
X89010078Y-97156679D01*
X88770831Y-96973099D01*
X88509671Y-96822318D01*
X88509661Y-96822314D01*
X88231060Y-96706913D01*
X87939766Y-96628861D01*
X87640793Y-96589501D01*
X87640788Y-96589500D01*
X87640783Y-96589500D01*
X87339217Y-96589500D01*
X87339211Y-96589500D01*
X87339206Y-96589501D01*
X87040233Y-96628861D01*
X86748939Y-96706913D01*
X86470338Y-96822314D01*
X86470328Y-96822318D01*
X86209168Y-96973099D01*
X85969921Y-97156679D01*
X85969914Y-97156685D01*
X85756685Y-97369914D01*
X85756679Y-97369921D01*
X85573099Y-97609168D01*
X85422318Y-97870328D01*
X85422314Y-97870338D01*
X85306913Y-98148939D01*
X85228861Y-98440233D01*
X85189501Y-98739206D01*
X85189500Y-98739223D01*
X85189500Y-99040776D01*
X85189501Y-99040793D01*
X85228861Y-99339766D01*
X85306913Y-99631060D01*
X85422314Y-99909661D01*
X85422318Y-99909671D01*
X85573099Y-100170831D01*
X85603165Y-100210014D01*
X85628359Y-100275183D01*
X85614320Y-100343628D01*
X85565506Y-100393618D01*
X85504789Y-100409500D01*
X80911470Y-100409500D01*
X80844431Y-100389815D01*
X80823788Y-100373180D01*
X80784557Y-100333948D01*
X80784553Y-100333945D01*
X80653450Y-100246344D01*
X80653437Y-100246337D01*
X80507766Y-100185999D01*
X80507754Y-100185996D01*
X80353110Y-100155235D01*
X80353107Y-100155235D01*
X80195423Y-100155235D01*
X80195420Y-100155235D01*
X80040775Y-100185996D01*
X80040763Y-100185999D01*
X79895092Y-100246337D01*
X79895079Y-100246344D01*
X79763976Y-100333945D01*
X79763972Y-100333948D01*
X79652478Y-100445442D01*
X79652475Y-100445446D01*
X79564874Y-100576549D01*
X79564867Y-100576562D01*
X79504529Y-100722233D01*
X79504526Y-100722245D01*
X79473765Y-100876888D01*
X77992202Y-100876888D01*
X77987195Y-100869394D01*
X77987192Y-100869390D01*
X77893109Y-100775307D01*
X77893101Y-100775301D01*
X77782479Y-100701386D01*
X77782472Y-100701382D01*
X77782469Y-100701380D01*
X77782465Y-100701378D01*
X77782461Y-100701376D01*
X77659540Y-100650461D01*
X77659530Y-100650458D01*
X77529033Y-100624500D01*
X77529031Y-100624500D01*
X77395969Y-100624500D01*
X77395967Y-100624500D01*
X77265469Y-100650458D01*
X77265459Y-100650461D01*
X77142538Y-100701376D01*
X77142520Y-100701386D01*
X77031898Y-100775301D01*
X77031890Y-100775307D01*
X76937807Y-100869390D01*
X76937801Y-100869398D01*
X76863886Y-100980020D01*
X76863876Y-100980038D01*
X76812961Y-101102959D01*
X76812958Y-101102969D01*
X76787000Y-101233466D01*
X76787000Y-101233469D01*
X76787000Y-101366531D01*
X76787000Y-101366533D01*
X76786999Y-101366533D01*
X72240500Y-101366533D01*
X72240500Y-98981153D01*
X76169500Y-98981153D01*
X76169500Y-99138846D01*
X76200261Y-99293489D01*
X76200264Y-99293501D01*
X76260602Y-99439172D01*
X76260609Y-99439185D01*
X76348210Y-99570288D01*
X76348213Y-99570292D01*
X76459707Y-99681786D01*
X76459711Y-99681789D01*
X76590814Y-99769390D01*
X76590827Y-99769397D01*
X76690060Y-99810500D01*
X76736503Y-99829737D01*
X76888177Y-99859907D01*
X76891153Y-99860499D01*
X76891156Y-99860500D01*
X76891158Y-99860500D01*
X77048844Y-99860500D01*
X77048845Y-99860499D01*
X77203497Y-99829737D01*
X77349179Y-99769394D01*
X77480289Y-99681789D01*
X77591789Y-99570289D01*
X77679394Y-99439179D01*
X77686859Y-99421158D01*
X77700102Y-99389185D01*
X77739737Y-99293497D01*
X77770500Y-99138842D01*
X77770500Y-98981158D01*
X77770500Y-98981155D01*
X77770499Y-98981153D01*
X77762148Y-98939172D01*
X77739737Y-98826503D01*
X77716853Y-98771258D01*
X77709385Y-98701789D01*
X77728312Y-98654917D01*
X77737423Y-98641283D01*
X77797766Y-98495601D01*
X77828529Y-98340946D01*
X77828529Y-98183262D01*
X77828529Y-98183259D01*
X77828528Y-98183257D01*
X77819766Y-98139208D01*
X77797766Y-98028607D01*
X77797764Y-98028602D01*
X77769356Y-97960018D01*
X77752222Y-97918653D01*
X78789822Y-97918653D01*
X78789822Y-98076346D01*
X78820583Y-98230989D01*
X78820586Y-98231001D01*
X78880924Y-98376672D01*
X78880931Y-98376685D01*
X78968532Y-98507788D01*
X78968535Y-98507792D01*
X79080029Y-98619286D01*
X79080033Y-98619289D01*
X79211136Y-98706890D01*
X79211149Y-98706897D01*
X79316681Y-98750609D01*
X79356825Y-98767237D01*
X79488802Y-98793489D01*
X79511475Y-98797999D01*
X79511478Y-98798000D01*
X79511480Y-98798000D01*
X79669166Y-98798000D01*
X79669167Y-98797999D01*
X79823819Y-98767237D01*
X79969501Y-98706894D01*
X80100611Y-98619289D01*
X80212111Y-98507789D01*
X80299716Y-98376679D01*
X80360059Y-98230997D01*
X80378317Y-98139208D01*
X81206246Y-98139208D01*
X81206246Y-98296901D01*
X81237007Y-98451544D01*
X81237010Y-98451556D01*
X81297348Y-98597226D01*
X81297358Y-98597244D01*
X81339030Y-98659611D01*
X81359908Y-98726288D01*
X81351524Y-98770516D01*
X81352032Y-98770671D01*
X81350600Y-98775391D01*
X81350498Y-98775931D01*
X81350268Y-98776485D01*
X81350262Y-98776505D01*
X81319500Y-98931155D01*
X81319500Y-99088846D01*
X81350261Y-99243489D01*
X81350264Y-99243501D01*
X81410602Y-99389172D01*
X81410609Y-99389185D01*
X81498210Y-99520288D01*
X81498213Y-99520292D01*
X81609707Y-99631786D01*
X81609711Y-99631789D01*
X81740814Y-99719390D01*
X81740827Y-99719397D01*
X81878150Y-99776277D01*
X81886503Y-99779737D01*
X82041153Y-99810499D01*
X82041156Y-99810500D01*
X82041158Y-99810500D01*
X82198844Y-99810500D01*
X82198845Y-99810499D01*
X82353497Y-99779737D01*
X82499179Y-99719394D01*
X82630289Y-99631789D01*
X82741789Y-99520289D01*
X82829394Y-99389179D01*
X82832719Y-99381153D01*
X82880205Y-99266510D01*
X82889737Y-99243497D01*
X82920500Y-99088842D01*
X82920500Y-98931158D01*
X82920500Y-98931155D01*
X82920499Y-98931153D01*
X82915479Y-98905915D01*
X82889737Y-98776503D01*
X82885898Y-98767235D01*
X82829397Y-98630828D01*
X82829396Y-98630827D01*
X82829394Y-98630821D01*
X82787713Y-98568441D01*
X82766836Y-98501766D01*
X82775228Y-98457534D01*
X82774715Y-98457379D01*
X82776163Y-98452604D01*
X82776261Y-98452085D01*
X82776483Y-98451552D01*
X82783541Y-98416072D01*
X82800826Y-98329172D01*
X82807246Y-98296897D01*
X82807246Y-98139213D01*
X82807246Y-98139210D01*
X82807245Y-98139208D01*
X82776483Y-97984558D01*
X82765499Y-97958040D01*
X82716143Y-97838882D01*
X82716136Y-97838869D01*
X82628535Y-97707766D01*
X82628532Y-97707762D01*
X82517038Y-97596268D01*
X82517034Y-97596265D01*
X82385931Y-97508664D01*
X82385918Y-97508657D01*
X82240247Y-97448319D01*
X82240235Y-97448316D01*
X82085591Y-97417555D01*
X82085588Y-97417555D01*
X81927904Y-97417555D01*
X81927901Y-97417555D01*
X81773256Y-97448316D01*
X81773244Y-97448319D01*
X81627573Y-97508657D01*
X81627560Y-97508664D01*
X81496457Y-97596265D01*
X81496453Y-97596268D01*
X81384959Y-97707762D01*
X81384956Y-97707766D01*
X81297355Y-97838869D01*
X81297348Y-97838882D01*
X81237010Y-97984553D01*
X81237007Y-97984565D01*
X81206246Y-98139208D01*
X80378317Y-98139208D01*
X80382987Y-98115731D01*
X80384340Y-98108930D01*
X80384340Y-98108928D01*
X80390822Y-98076343D01*
X80390822Y-97918655D01*
X80390821Y-97918653D01*
X80383713Y-97882918D01*
X80360059Y-97764003D01*
X80337909Y-97710528D01*
X80299719Y-97618327D01*
X80299712Y-97618314D01*
X80212111Y-97487211D01*
X80212108Y-97487207D01*
X80100614Y-97375713D01*
X80100610Y-97375710D01*
X79969507Y-97288109D01*
X79969494Y-97288102D01*
X79823823Y-97227764D01*
X79823811Y-97227761D01*
X79669167Y-97197000D01*
X79669164Y-97197000D01*
X79511480Y-97197000D01*
X79511477Y-97197000D01*
X79356832Y-97227761D01*
X79356820Y-97227764D01*
X79211149Y-97288102D01*
X79211136Y-97288109D01*
X79080033Y-97375710D01*
X79080029Y-97375713D01*
X78968535Y-97487207D01*
X78968532Y-97487211D01*
X78880931Y-97618314D01*
X78880924Y-97618327D01*
X78820586Y-97763998D01*
X78820583Y-97764010D01*
X78789822Y-97918653D01*
X77752222Y-97918653D01*
X77737426Y-97882931D01*
X77737419Y-97882918D01*
X77649818Y-97751815D01*
X77649815Y-97751811D01*
X77538321Y-97640317D01*
X77538317Y-97640314D01*
X77407214Y-97552713D01*
X77407201Y-97552706D01*
X77261530Y-97492368D01*
X77261518Y-97492365D01*
X77106874Y-97461604D01*
X77106871Y-97461604D01*
X76949187Y-97461604D01*
X76949184Y-97461604D01*
X76794539Y-97492365D01*
X76794527Y-97492368D01*
X76648856Y-97552706D01*
X76648843Y-97552713D01*
X76517740Y-97640314D01*
X76517736Y-97640317D01*
X76406242Y-97751811D01*
X76406239Y-97751815D01*
X76318638Y-97882918D01*
X76318631Y-97882931D01*
X76258293Y-98028602D01*
X76258290Y-98028614D01*
X76227529Y-98183257D01*
X76227529Y-98340950D01*
X76258290Y-98495593D01*
X76258293Y-98495605D01*
X76281174Y-98550844D01*
X76288643Y-98620313D01*
X76269718Y-98667183D01*
X76260609Y-98680816D01*
X76260602Y-98680828D01*
X76200264Y-98826498D01*
X76200261Y-98826510D01*
X76169500Y-98981153D01*
X72240500Y-98981153D01*
X72240500Y-98353750D01*
X72240726Y-98346263D01*
X72241047Y-98340950D01*
X72258271Y-98056201D01*
X72260076Y-98041340D01*
X72262367Y-98028842D01*
X72275342Y-97958040D01*
X74204132Y-97958040D01*
X74204132Y-98115733D01*
X74234893Y-98270376D01*
X74234896Y-98270388D01*
X74295234Y-98416059D01*
X74295241Y-98416072D01*
X74382842Y-98547175D01*
X74382845Y-98547179D01*
X74494339Y-98658673D01*
X74494343Y-98658676D01*
X74625446Y-98746277D01*
X74625459Y-98746284D01*
X74771130Y-98806622D01*
X74771135Y-98806624D01*
X74925785Y-98837386D01*
X74925788Y-98837387D01*
X74925790Y-98837387D01*
X75083476Y-98837387D01*
X75083477Y-98837386D01*
X75238129Y-98806624D01*
X75373362Y-98750609D01*
X75383804Y-98746284D01*
X75383804Y-98746283D01*
X75383811Y-98746281D01*
X75514921Y-98658676D01*
X75626421Y-98547176D01*
X75714026Y-98416066D01*
X75774369Y-98270384D01*
X75805132Y-98115729D01*
X75805132Y-97958045D01*
X75805132Y-97958042D01*
X75805131Y-97958040D01*
X75801187Y-97938211D01*
X75774369Y-97803390D01*
X75768931Y-97790261D01*
X75714029Y-97657714D01*
X75714022Y-97657701D01*
X75626421Y-97526598D01*
X75626418Y-97526594D01*
X75514924Y-97415100D01*
X75514920Y-97415097D01*
X75383817Y-97327496D01*
X75383804Y-97327489D01*
X75238133Y-97267151D01*
X75238121Y-97267148D01*
X75083477Y-97236387D01*
X75083474Y-97236387D01*
X74925790Y-97236387D01*
X74925787Y-97236387D01*
X74771142Y-97267148D01*
X74771130Y-97267151D01*
X74625459Y-97327489D01*
X74625446Y-97327496D01*
X74494343Y-97415097D01*
X74494339Y-97415100D01*
X74382845Y-97526594D01*
X74382842Y-97526598D01*
X74295241Y-97657701D01*
X74295234Y-97657714D01*
X74234896Y-97803385D01*
X74234893Y-97803397D01*
X74204132Y-97958040D01*
X72275342Y-97958040D01*
X72311780Y-97759197D01*
X72315364Y-97744663D01*
X72326001Y-97710528D01*
X72400696Y-97470822D01*
X72405998Y-97456841D01*
X72523731Y-97195249D01*
X72530676Y-97182016D01*
X72679080Y-96936526D01*
X72687567Y-96924230D01*
X72864480Y-96698417D01*
X72874395Y-96687226D01*
X73077226Y-96484395D01*
X73088417Y-96474480D01*
X73314230Y-96297567D01*
X73326526Y-96289080D01*
X73572016Y-96140676D01*
X73585249Y-96133731D01*
X73846841Y-96015998D01*
X73860822Y-96010696D01*
X74134668Y-95925362D01*
X74149197Y-95921780D01*
X74431344Y-95870075D01*
X74446201Y-95868271D01*
X74736264Y-95850726D01*
X74743751Y-95850500D01*
X108591966Y-95850500D01*
X108591969Y-95850500D01*
X108934250Y-95816789D01*
X109271578Y-95749690D01*
X109600705Y-95649850D01*
X109918462Y-95518231D01*
X110112263Y-95414642D01*
X110170716Y-95400000D01*
X110400000Y-95400000D01*
X110400000Y-95303300D01*
X110419685Y-95236261D01*
X110455105Y-95200201D01*
X110507760Y-95165019D01*
X110773627Y-94946828D01*
X111016828Y-94703627D01*
X111235019Y-94437760D01*
X111426100Y-94151787D01*
X111588231Y-93848462D01*
X111719850Y-93530705D01*
X111819690Y-93201578D01*
X111886789Y-92864250D01*
X111920500Y-92521969D01*
X111920500Y-92350000D01*
X111920500Y-92284108D01*
X111920500Y-89312135D01*
X117739500Y-89312135D01*
X117739500Y-90407870D01*
X117739501Y-90407876D01*
X117745908Y-90467483D01*
X117796202Y-90602328D01*
X117796206Y-90602335D01*
X117882452Y-90717544D01*
X117882455Y-90717547D01*
X117997664Y-90803793D01*
X117997671Y-90803797D01*
X118132517Y-90854091D01*
X118132516Y-90854091D01*
X118139444Y-90854835D01*
X118192127Y-90860500D01*
X119287872Y-90860499D01*
X119347483Y-90854091D01*
X119482331Y-90803796D01*
X119597546Y-90717546D01*
X119683796Y-90602331D01*
X119734091Y-90467483D01*
X119740500Y-90407873D01*
X119740499Y-89312128D01*
X119734091Y-89252517D01*
X119683796Y-89117669D01*
X119683795Y-89117668D01*
X119683793Y-89117664D01*
X119597547Y-89002455D01*
X119597544Y-89002452D01*
X119482335Y-88916206D01*
X119482328Y-88916202D01*
X119347482Y-88865908D01*
X119347483Y-88865908D01*
X119287883Y-88859501D01*
X119287881Y-88859500D01*
X119287873Y-88859500D01*
X119287864Y-88859500D01*
X118192129Y-88859500D01*
X118192123Y-88859501D01*
X118132516Y-88865908D01*
X117997671Y-88916202D01*
X117997664Y-88916206D01*
X117882455Y-89002452D01*
X117882452Y-89002455D01*
X117796206Y-89117664D01*
X117796202Y-89117671D01*
X117745908Y-89252517D01*
X117739501Y-89312116D01*
X117739501Y-89312123D01*
X117739500Y-89312135D01*
X111920500Y-89312135D01*
X111920500Y-86021153D01*
X115469500Y-86021153D01*
X115469500Y-86178846D01*
X115500261Y-86333489D01*
X115500264Y-86333501D01*
X115560602Y-86479172D01*
X115560609Y-86479185D01*
X115648210Y-86610288D01*
X115648213Y-86610292D01*
X115759707Y-86721786D01*
X115759711Y-86721789D01*
X115890814Y-86809390D01*
X115890827Y-86809397D01*
X116036498Y-86869735D01*
X116036503Y-86869737D01*
X116191153Y-86900499D01*
X116191156Y-86900500D01*
X116191158Y-86900500D01*
X116348844Y-86900500D01*
X116348845Y-86900499D01*
X116503497Y-86869737D01*
X116649179Y-86809394D01*
X116780289Y-86721789D01*
X116891789Y-86610289D01*
X116979394Y-86479179D01*
X117039737Y-86333497D01*
X117070500Y-86178842D01*
X117070500Y-86021158D01*
X117070500Y-86021155D01*
X117070499Y-86021153D01*
X117039738Y-85866510D01*
X117039737Y-85866503D01*
X117039735Y-85866498D01*
X116979397Y-85720827D01*
X116979390Y-85720814D01*
X116891789Y-85589711D01*
X116891786Y-85589707D01*
X116780292Y-85478213D01*
X116780288Y-85478210D01*
X116649185Y-85390609D01*
X116649172Y-85390602D01*
X116503501Y-85330264D01*
X116503489Y-85330261D01*
X116348845Y-85299500D01*
X116348842Y-85299500D01*
X116191158Y-85299500D01*
X116191155Y-85299500D01*
X116036510Y-85330261D01*
X116036498Y-85330264D01*
X115890827Y-85390602D01*
X115890814Y-85390609D01*
X115759711Y-85478210D01*
X115759707Y-85478213D01*
X115648213Y-85589707D01*
X115648210Y-85589711D01*
X115560609Y-85720814D01*
X115560602Y-85720827D01*
X115500264Y-85866498D01*
X115500261Y-85866510D01*
X115469500Y-86021153D01*
X111920500Y-86021153D01*
X111920500Y-80236533D01*
X115894499Y-80236533D01*
X115920458Y-80367030D01*
X115920461Y-80367040D01*
X115971376Y-80489961D01*
X115971386Y-80489979D01*
X116045301Y-80600601D01*
X116045307Y-80600609D01*
X116139390Y-80694692D01*
X116139398Y-80694698D01*
X116250020Y-80768613D01*
X116250023Y-80768614D01*
X116250031Y-80768620D01*
X116372964Y-80819540D01*
X116372968Y-80819540D01*
X116372969Y-80819541D01*
X116503466Y-80845500D01*
X116503469Y-80845500D01*
X116636533Y-80845500D01*
X116724325Y-80828035D01*
X116767036Y-80819540D01*
X116889969Y-80768620D01*
X117000606Y-80694695D01*
X117094695Y-80600606D01*
X117168620Y-80489969D01*
X117219540Y-80367036D01*
X117245500Y-80236533D01*
X126494499Y-80236533D01*
X126520458Y-80367030D01*
X126520461Y-80367040D01*
X126571376Y-80489961D01*
X126571386Y-80489979D01*
X126645301Y-80600601D01*
X126645307Y-80600609D01*
X126739390Y-80694692D01*
X126739398Y-80694698D01*
X126850020Y-80768613D01*
X126850023Y-80768614D01*
X126850031Y-80768620D01*
X126972964Y-80819540D01*
X126972968Y-80819540D01*
X126972969Y-80819541D01*
X127103466Y-80845500D01*
X127103469Y-80845500D01*
X127236533Y-80845500D01*
X127324325Y-80828035D01*
X127367036Y-80819540D01*
X127489969Y-80768620D01*
X127600606Y-80694695D01*
X127694695Y-80600606D01*
X127768620Y-80489969D01*
X127819540Y-80367036D01*
X127845500Y-80236531D01*
X127845500Y-80103469D01*
X127845500Y-80103466D01*
X127819541Y-79972969D01*
X127819540Y-79972968D01*
X127819540Y-79972964D01*
X127768620Y-79850031D01*
X127694695Y-79739394D01*
X127694692Y-79739390D01*
X127600609Y-79645307D01*
X127600601Y-79645301D01*
X127489979Y-79571386D01*
X127489972Y-79571382D01*
X127489969Y-79571380D01*
X127489965Y-79571378D01*
X127489961Y-79571376D01*
X127367040Y-79520461D01*
X127367030Y-79520458D01*
X127236533Y-79494500D01*
X127236531Y-79494500D01*
X127103469Y-79494500D01*
X127103467Y-79494500D01*
X126972969Y-79520458D01*
X126972959Y-79520461D01*
X126850038Y-79571376D01*
X126850020Y-79571386D01*
X126739398Y-79645301D01*
X126739390Y-79645307D01*
X126645307Y-79739390D01*
X126645301Y-79739398D01*
X126571386Y-79850020D01*
X126571376Y-79850038D01*
X126520461Y-79972959D01*
X126520458Y-79972969D01*
X126494500Y-80103466D01*
X126494500Y-80103469D01*
X126494500Y-80236531D01*
X126494500Y-80236533D01*
X126494499Y-80236533D01*
X117245500Y-80236533D01*
X117245500Y-80236531D01*
X117245500Y-80103469D01*
X117245500Y-80103466D01*
X117219541Y-79972969D01*
X117219540Y-79972968D01*
X117219540Y-79972964D01*
X117168620Y-79850031D01*
X117094695Y-79739394D01*
X117094692Y-79739390D01*
X117000609Y-79645307D01*
X117000601Y-79645301D01*
X116889979Y-79571386D01*
X116889972Y-79571382D01*
X116889969Y-79571380D01*
X116889965Y-79571378D01*
X116889961Y-79571376D01*
X116767040Y-79520461D01*
X116767030Y-79520458D01*
X116636533Y-79494500D01*
X116636531Y-79494500D01*
X116503469Y-79494500D01*
X116503467Y-79494500D01*
X116372969Y-79520458D01*
X116372959Y-79520461D01*
X116250038Y-79571376D01*
X116250020Y-79571386D01*
X116139398Y-79645301D01*
X116139390Y-79645307D01*
X116045307Y-79739390D01*
X116045301Y-79739398D01*
X115971386Y-79850020D01*
X115971376Y-79850038D01*
X115920461Y-79972959D01*
X115920458Y-79972969D01*
X115894500Y-80103466D01*
X115894500Y-80103469D01*
X115894500Y-80236531D01*
X115894500Y-80236533D01*
X115894499Y-80236533D01*
X111920500Y-80236533D01*
X111920500Y-75273750D01*
X111920726Y-75266263D01*
X111938271Y-74976205D01*
X111940076Y-74961340D01*
X111991780Y-74679201D01*
X111995364Y-74664663D01*
X112072096Y-74418422D01*
X112080696Y-74390822D01*
X112085998Y-74376841D01*
X112203731Y-74115249D01*
X112210676Y-74102016D01*
X112359080Y-73856526D01*
X112367567Y-73844230D01*
X112544480Y-73618417D01*
X112554395Y-73607226D01*
X112757226Y-73404395D01*
X112768417Y-73394480D01*
X112994230Y-73217567D01*
X113006526Y-73209080D01*
X113252016Y-73060676D01*
X113265249Y-73053731D01*
X113526841Y-72935998D01*
X113540822Y-72930696D01*
X113814668Y-72845362D01*
X113829197Y-72841780D01*
X114111344Y-72790075D01*
X114126201Y-72788271D01*
X114416264Y-72770726D01*
X114423751Y-72770500D01*
X114485892Y-72770500D01*
X128054108Y-72770500D01*
X128116249Y-72770500D01*
X128123736Y-72770726D01*
G37*
%TD.AperFunction*%
%TD*%
M02*
