M48
; DRILL file {KiCad 9.0.0} date 2026-01-13T23:39:09-0600
; FORMAT={-:-/ absolute / inch / decimal}
; #@! TF.CreationDate,2026-01-13T23:39:09-06:00
; #@! TF.GenerationSoftware,Kicad,Pcbnew,9.0.0
; #@! TF.FileFunction,Plated,1,4,PTH
FMAT,2
INCH
; #@! TA.AperFunction,Plated,PTH,ViaDrill
T1C0.0118
; #@! TA.AperFunction,Plated,PTH,ComponentDrill
T2C0.0197
; #@! TA.AperFunction,Plated,PTH,ComponentDrill
T3C0.1260
%
G90
G05
T1
X2.8913Y-4.5528
X2.8925Y-4.4866
X2.8933Y-4.4264
X2.9199Y-4.1492
X2.9324Y-4.0967
X2.9484Y-4.4866
X2.9484Y-4.5528
X2.9529Y-3.8597
X2.9654Y-4.0949
X3.0012Y-4.487
X3.0028Y-4.5528
X3.0303Y-3.9
X3.0326Y-3.8686
X3.0567Y-4.5524
X3.0878Y-4.1717
X3.0878Y-4.224
X3.1335Y-3.8582
X3.1604Y-3.9746
X3.218Y-4.5363
X3.2286Y-3.8669
X3.2311Y-4.1106
X3.2311Y-4.2067
X3.2311Y-4.3606
X3.2313Y-4.1421
X3.2315Y-4.0791
X3.2328Y-4.1736
X3.2331Y-3.898
X3.2693Y-4.2441
X3.3127Y-4.5605
X3.3232Y-4.5232
X3.3386Y-4.4681
X3.3421Y-4.2299
X3.4291Y-4.2303
X3.4988Y-4.4089
X3.5673Y-4.0909
X3.5795Y-4.4089
X3.5909Y-3.7949
X3.5984Y-4.5695
X3.6055Y-4.0913
X3.6189Y-4.4335
X3.6252Y-3.9807
X3.6374Y-3.9157
X3.6614Y-3.7941
X3.6748Y-4.4495
X3.7226Y-3.956
X3.7228Y-3.8921
X3.726Y-4.4337
X3.7413Y-3.7949
X3.8045Y-4.4526
X3.8106Y-4.0535
X3.8248Y-3.7941
X3.8331Y-3.9173
X3.852Y-4.4524
X3.858Y-4.0479
X3.8906Y-3.7941
X3.9043Y-4.4551
X3.9191Y-3.9558
X3.9236Y-3.8803
X3.9433Y-4.4559
X3.9571Y-3.7949
X3.9831Y-4.5665
X4.0011Y-4.0596
X4.0162Y-4.1755
X4.0402Y-4.472
X4.0445Y-4.5949
X4.0634Y-4.2327
X4.1008Y-4.5539
X4.1228Y-4.5957
X4.1382Y-4.4815
X4.1578Y-4.3096
X4.1584Y-4.2005
X4.1585Y-4.2773
X4.1726Y-4.4822
X4.1837Y-4.0077
X4.1933Y-4.5949
X4.1953Y-4.0857
X4.2162Y-4.482
X4.2285Y-4.0077
X4.2335Y-4.0763
X4.2476Y-4.4794
X4.252Y-4.1574
X4.2717Y-4.5957
X4.2791Y-4.4818
X4.3287Y-4.4528
X4.3429Y-4.2051
X4.3441Y-4.5953
X4.359Y-4.4614
X4.3974Y-3.9219
X4.4181Y-4.24
X4.4186Y-4.4488
X4.4224Y-4.5961
X4.4606Y-4.1747
X4.4618Y-2.9386
X4.4618Y-2.9906
X4.4622Y-3.0567
X4.4622Y-3.3185
X4.4626Y-3.1213
X4.4626Y-3.3713
X4.463Y-3.1886
X4.463Y-3.4957
X4.463Y-3.7575
X4.4634Y-3.2528
X4.4634Y-3.5602
X4.4638Y-3.6276
X4.4642Y-3.6917
X4.4937Y-4.5953
X4.5Y-4.5244
X4.5189Y-2.8996
X4.5244Y-3.8563
X4.5433Y-3.813
X4.572Y-4.5961
X4.5776Y-3.3898
X4.6091Y-2.8996
X4.6382Y-4.3929
X4.6402Y-4.4366
X4.6457Y-4.5953
X4.6748Y-2.9008
X4.6988Y-4.1634
X4.724Y-4.5961
X4.7398Y-4.3594
X4.7406Y-2.9004
X4.7764Y-4.4327
X4.787Y-4.5953
X4.7996Y-4.3323
X4.8031Y-2.9
X4.865Y-2.8996
X4.8654Y-4.5961
X4.9157Y-4.2169
X4.935Y-2.8992
X5.0083Y-2.8992
X5.0283Y-3.7854
X5.0283Y-3.8575
X5.0295Y-3.7197
X5.0319Y-3.4587
X5.0323Y-3.4012
X5.0323Y-3.5287
X5.037Y-4.0098
X5.0374Y-4.0799
X5.0374Y-4.3358
X5.0378Y-4.1417
X5.0382Y-4.2043
X5.0386Y-4.2701
X5.0992Y-4.0091
X5.0996Y-3.4587
X5.0996Y-4.0791
X5.0996Y-4.335
X5.1Y-3.4012
X5.1Y-3.5287
X5.1Y-3.7846
X5.1Y-3.8567
X5.1Y-4.1409
X5.1004Y-3.2555
X5.1004Y-4.2035
X5.1008Y-3.0614
X5.1008Y-4.2693
X5.1012Y-3.124
X5.1012Y-3.7189
X5.1016Y-3.1898
T2
X3.3437Y-4.0862
X4.4413Y-4.5264
X4.6748Y-3.5378
X5.0516Y-2.9728
T3
X3.4445Y-3.8933
X5.0201Y-4.4929
M30
