M48
; DRILL file {KiCad 9.0.3} date 2025-10-13T23:01:42-0500
; FORMAT={-:-/ absolute / inch / decimal}
; #@! TF.CreationDate,2025-10-13T23:01:42-05:00
; #@! TF.GenerationSoftware,Kicad,Pcbnew,9.0.3
; #@! TF.FileFunction,Plated,1,2,PTH
FMAT,2
INCH
; #@! TA.AperFunction,Plated,PTH,ViaDrill
T1C0.0118
; #@! TA.AperFunction,Plated,PTH,ComponentDrill
T2C0.0394
; #@! TA.AperFunction,Plated,PTH,ComponentDrill
T3C0.1260
; #@! TA.AperFunction,Plated,PTH,ComponentDrill
T4C0.2130
%
G90
G05
T1
X1.7323Y-2.3622
X1.7323Y-2.4213
X1.7323Y-2.4803
X1.7323Y-2.5394
X1.7323Y-3.9862
X1.7323Y-4.0453
X1.7323Y-4.1043
X1.7323Y-4.1634
X1.811Y-2.3622
X1.811Y-2.4213
X1.811Y-2.4803
X1.811Y-2.5394
X1.811Y-3.9862
X1.811Y-4.0453
X1.811Y-4.1043
X1.811Y-4.1634
X1.8898Y-2.3622
X1.8898Y-2.4213
X1.8898Y-2.4803
X1.8898Y-2.5394
X1.8898Y-3.9862
X1.8898Y-4.0453
X1.8898Y-4.1043
X1.8898Y-4.1634
X4.4882Y-3.1299
X4.813Y-3.1398
X4.813Y-3.2776
X4.872Y-3.1398
X4.872Y-3.2776
X4.9114Y-3.1791
X4.9114Y-3.2382
T2
X5.2346Y-4.8524
X5.3346Y-4.8524
X5.4346Y-4.8524
X5.5346Y-4.8524
T3
X1.1713Y-5.0197
X1.1811Y-1.5945
X6.0827Y-2.3327
X6.0827Y-4.2717
T4
X2.372Y-3.2825
X2.4705Y-2.4705
X2.4705Y-4.0945
X3.4843Y-1.752
X3.4843Y-4.8228
X6.0925Y-1.7913
X6.0925Y-4.8524
M30
