%TF.GenerationSoftware,KiCad,Pcbnew,9.0.0*%
%TF.CreationDate,2025-10-14T01:09:05-05:00*%
%TF.ProjectId,TestBoard_PowerMuxPCB,54657374-426f-4617-9264-5f506f776572,rev?*%
%TF.SameCoordinates,Original*%
%TF.FileFunction,Copper,L1,Top*%
%TF.FilePolarity,Positive*%
%FSLAX46Y46*%
G04 Gerber Fmt 4.6, Leading zero omitted, Abs format (unit mm)*
G04 Created by KiCad (PCBNEW 9.0.0) date 2025-10-14 01:09:05*
%MOMM*%
%LPD*%
G01*
G04 APERTURE LIST*
G04 Aperture macros list*
%AMRoundRect*
0 Rectangle with rounded corners*
0 $1 Rounding radius*
0 $2 $3 $4 $5 $6 $7 $8 $9 X,Y pos of 4 corners*
0 Add a 4 corners polygon primitive as box body*
4,1,4,$2,$3,$4,$5,$6,$7,$8,$9,$2,$3,0*
0 Add four circle primitives for the rounded corners*
1,1,$1+$1,$2,$3*
1,1,$1+$1,$4,$5*
1,1,$1+$1,$6,$7*
1,1,$1+$1,$8,$9*
0 Add four rect primitives between the rounded corners*
20,1,$1+$1,$2,$3,$4,$5,0*
20,1,$1+$1,$4,$5,$6,$7,0*
20,1,$1+$1,$6,$7,$8,$9,0*
20,1,$1+$1,$8,$9,$2,$3,0*%
G04 Aperture macros list end*
%TA.AperFunction,SMDPad,CuDef*%
%ADD10R,0.550000X1.500000*%
%TD*%
%TA.AperFunction,ComponentPad*%
%ADD11C,3.600000*%
%TD*%
%TA.AperFunction,ConnectorPad*%
%ADD12C,6.400000*%
%TD*%
%TA.AperFunction,SMDPad,CuDef*%
%ADD13RoundRect,0.218750X-0.256250X0.218750X-0.256250X-0.218750X0.256250X-0.218750X0.256250X0.218750X0*%
%TD*%
%TA.AperFunction,SMDPad,CuDef*%
%ADD14RoundRect,0.237500X0.237500X-0.250000X0.237500X0.250000X-0.237500X0.250000X-0.237500X-0.250000X0*%
%TD*%
%TA.AperFunction,SMDPad,CuDef*%
%ADD15RoundRect,0.237500X-0.237500X0.250000X-0.237500X-0.250000X0.237500X-0.250000X0.237500X0.250000X0*%
%TD*%
%TA.AperFunction,SMDPad,CuDef*%
%ADD16RoundRect,0.250000X-0.475000X0.250000X-0.475000X-0.250000X0.475000X-0.250000X0.475000X0.250000X0*%
%TD*%
%TA.AperFunction,ComponentPad*%
%ADD17C,8.115000*%
%TD*%
%TA.AperFunction,SMDPad,CuDef*%
%ADD18R,1.180000X1.530000*%
%TD*%
%TA.AperFunction,SMDPad,CuDef*%
%ADD19R,7.210000X5.630000*%
%TD*%
%TA.AperFunction,ComponentPad*%
%ADD20C,6.400000*%
%TD*%
%TA.AperFunction,ComponentPad*%
%ADD21C,2.800000*%
%TD*%
%TA.AperFunction,SMDPad,CuDef*%
%ADD22R,1.450000X3.450000*%
%TD*%
%TA.AperFunction,SMDPad,CuDef*%
%ADD23RoundRect,0.163043X0.586957X1.036957X-0.586957X1.036957X-0.586957X-1.036957X0.586957X-1.036957X0*%
%TD*%
%TA.AperFunction,SMDPad,CuDef*%
%ADD24RoundRect,0.218750X0.256250X-0.218750X0.256250X0.218750X-0.256250X0.218750X-0.256250X-0.218750X0*%
%TD*%
%TA.AperFunction,SMDPad,CuDef*%
%ADD25RoundRect,0.150000X0.200000X-0.150000X0.200000X0.150000X-0.200000X0.150000X-0.200000X-0.150000X0*%
%TD*%
%TA.AperFunction,ComponentPad*%
%ADD26R,1.700000X1.700000*%
%TD*%
%TA.AperFunction,ComponentPad*%
%ADD27O,1.700000X1.700000*%
%TD*%
%TA.AperFunction,SMDPad,CuDef*%
%ADD28RoundRect,0.250000X0.262500X0.450000X-0.262500X0.450000X-0.262500X-0.450000X0.262500X-0.450000X0*%
%TD*%
%TA.AperFunction,SMDPad,CuDef*%
%ADD29RoundRect,0.250000X-0.450000X0.262500X-0.450000X-0.262500X0.450000X-0.262500X0.450000X0.262500X0*%
%TD*%
%TA.AperFunction,SMDPad,CuDef*%
%ADD30RoundRect,0.250000X0.250000X0.475000X-0.250000X0.475000X-0.250000X-0.475000X0.250000X-0.475000X0*%
%TD*%
%TA.AperFunction,ComponentPad*%
%ADD31RoundRect,0.750000X0.750000X-0.750000X0.750000X0.750000X-0.750000X0.750000X-0.750000X-0.750000X0*%
%TD*%
%TA.AperFunction,ComponentPad*%
%ADD32C,3.000000*%
%TD*%
%TA.AperFunction,SMDPad,CuDef*%
%ADD33RoundRect,0.250000X0.475000X-0.250000X0.475000X0.250000X-0.475000X0.250000X-0.475000X-0.250000X0*%
%TD*%
%TA.AperFunction,ViaPad*%
%ADD34C,0.600000*%
%TD*%
%TA.AperFunction,Conductor*%
%ADD35C,0.200000*%
%TD*%
%TA.AperFunction,Conductor*%
%ADD36C,0.500000*%
%TD*%
%TA.AperFunction,Conductor*%
%ADD37C,3.000000*%
%TD*%
G04 APERTURE END LIST*
D10*
%TO.P,J6,1,1*%
%TO.N,GND*%
X154350000Y-96950000D03*
%TO.P,J6,2,2*%
X154350000Y-100750000D03*
%TO.P,J6,3,3*%
%TO.N,/SHDN*%
X153550000Y-96950000D03*
%TO.P,J6,4,4*%
%TO.N,GND*%
X153550000Y-100750000D03*
%TO.P,J6,5,5*%
%TO.N,/DISABLE2*%
X152750000Y-96950000D03*
%TO.P,J6,6,6*%
%TO.N,/DISABLE1*%
X152750000Y-100750000D03*
%TO.P,J6,7,7*%
%TO.N,/FTL2*%
X151950000Y-96950000D03*
%TO.P,J6,8,8*%
%TO.N,/FTL1*%
X151950000Y-100750000D03*
%TO.P,J6,9,9*%
%TO.N,/VDL2*%
X151150000Y-96950000D03*
%TO.P,J6,10,10*%
%TO.N,/VDL1*%
X151150000Y-100750000D03*
%TO.P,J6,11,11*%
%TO.N,/CHL2*%
X150350000Y-96950000D03*
%TO.P,J6,12,12*%
%TO.N,/CHL1*%
X150350000Y-100750000D03*
%TO.P,J6,13,13*%
%TO.N,+3.3V*%
X149550000Y-96950000D03*
%TO.P,J6,14,14*%
X149550000Y-100750000D03*
%TO.P,J6,15,15*%
%TO.N,/V2*%
X148750000Y-96950000D03*
%TO.P,J6,16,16*%
%TO.N,/V1*%
X148750000Y-100750000D03*
%TO.P,J6,17,17*%
%TO.N,/GATE2*%
X147950000Y-96950000D03*
%TO.P,J6,18,18*%
%TO.N,/GATE1*%
X147950000Y-100750000D03*
%TO.P,J6,19,19*%
%TO.N,/SOURCE2*%
X147150000Y-96950000D03*
%TO.P,J6,20,20*%
%TO.N,/SOURCE1*%
X147150000Y-100750000D03*
%TO.P,J6,21,21*%
%TO.N,/SENSE2*%
X146350000Y-96950000D03*
%TO.P,J6,22,22*%
%TO.N,/SENSE1*%
X146350000Y-100750000D03*
%TO.P,J6,23,23*%
%TO.N,/Out*%
X145550000Y-96950000D03*
%TO.P,J6,24,24*%
X145550000Y-100750000D03*
D11*
%TO.P,J6,X*%
%TO.N,N/C*%
X139250000Y-126400000D03*
D12*
X139250000Y-126400000D03*
D11*
X170250000Y-126400000D03*
D12*
X170250000Y-126400000D03*
D11*
X139250000Y-71400000D03*
D12*
X139250000Y-71400000D03*
D11*
X170250000Y-71400000D03*
D12*
X170250000Y-71400000D03*
%TD*%
D13*
%TO.P,D2,1,K*%
%TO.N,GND*%
X118830000Y-93685000D03*
%TO.P,D2,2,A*%
%TO.N,Net-(D2-A)*%
X118830000Y-95260000D03*
%TD*%
D14*
%TO.P,R8,1*%
%TO.N,/V2*%
X115650000Y-83912500D03*
%TO.P,R8,2*%
%TO.N,Net-(D6-A)*%
X115650000Y-82087500D03*
%TD*%
D15*
%TO.P,R7,1*%
%TO.N,/V1*%
X114620000Y-121407500D03*
%TO.P,R7,2*%
%TO.N,Net-(D5-A)*%
X114620000Y-123232500D03*
%TD*%
D16*
%TO.P,CMOSFET3,1*%
%TO.N,/GATE2*%
X124000000Y-90050000D03*
%TO.P,CMOSFET3,2*%
%TO.N,/SOURCE2*%
X124000000Y-91950000D03*
%TD*%
D17*
%TO.P,J5,1,Pin_1*%
%TO.N,+3.3V*%
X180310000Y-114000000D03*
%TD*%
D18*
%TO.P,Q4,1*%
%TO.N,/GATE2*%
X132300000Y-92700000D03*
%TO.P,Q4,2*%
%TO.N,/SOURCE2*%
X130300000Y-92700000D03*
%TO.P,Q4,3*%
X128300000Y-92700000D03*
%TO.P,Q4,4*%
X126300000Y-92700000D03*
D19*
%TO.P,Q4,5*%
%TO.N,/SENSE2*%
X129300000Y-97950000D03*
%TD*%
D13*
%TO.P,D5,1,K*%
%TO.N,GND*%
X112990000Y-121692500D03*
%TO.P,D5,2,A*%
%TO.N,Net-(D5-A)*%
X112990000Y-123267500D03*
%TD*%
D20*
%TO.P,H2,1,1*%
%TO.N,unconnected-(H2-Pad1)*%
X107500000Y-133500000D03*
%TD*%
D21*
%TO.P,TP18,1,1*%
%TO.N,GND*%
X144263333Y-135000000D03*
%TD*%
D18*
%TO.P,Q3,1*%
%TO.N,/GATE2*%
X126300000Y-89714500D03*
%TO.P,Q3,2*%
%TO.N,/SOURCE2*%
X128300000Y-89714500D03*
%TO.P,Q3,3*%
X130300000Y-89714500D03*
%TO.P,Q3,4*%
X132300000Y-89714500D03*
D19*
%TO.P,Q3,5*%
%TO.N,/V2*%
X129300000Y-84464500D03*
%TD*%
D20*
%TO.P,H1,1,1*%
%TO.N,unconnected-(H1-Pad1)*%
X182500000Y-70750000D03*
%TD*%
D22*
%TO.P,R5,1*%
%TO.N,/SENSE1*%
X123900000Y-106810000D03*
%TO.P,R5,2*%
%TO.N,/Out*%
X118100000Y-106810000D03*
%TD*%
D20*
%TO.P,H4,1,1*%
%TO.N,unconnected-(H4-Pad1)*%
X107500000Y-70750000D03*
%TD*%
D17*
%TO.P,J2,1,Pin_1*%
%TO.N,GND*%
X117300000Y-74350000D03*
%TD*%
D23*
%TO.P,D4,1,K*%
%TO.N,/V2*%
X123300000Y-83300000D03*
%TO.P,D4,2,A*%
%TO.N,GND*%
X119000000Y-83300000D03*
%TD*%
D24*
%TO.P,D7,1,K*%
%TO.N,GND*%
X185250000Y-103037500D03*
%TO.P,D7,2,A*%
%TO.N,Net-(D7-A)*%
X185250000Y-101462500D03*
%TD*%
D17*
%TO.P,J7,1,Pin_1*%
%TO.N,GND*%
X180250000Y-124750000D03*
%TD*%
D25*
%TO.P,D11,1,K*%
%TO.N,/GATE2*%
X122100000Y-90750000D03*
%TO.P,D11,2,A*%
%TO.N,/SOURCE2*%
X122100000Y-92150000D03*
%TD*%
D26*
%TO.P,J8,1,Pin_1*%
%TO.N,+3.3V*%
X170540000Y-135000000D03*
D27*
%TO.P,J8,2,Pin_2*%
%TO.N,/SHDN*%
X168000000Y-135000000D03*
%TO.P,J8,3,Pin_3*%
%TO.N,GND*%
X165460000Y-135000000D03*
%TD*%
D18*
%TO.P,Q2,1*%
%TO.N,/GATE1*%
X126250000Y-113114500D03*
%TO.P,Q2,2*%
%TO.N,/SOURCE1*%
X128250000Y-113114500D03*
%TO.P,Q2,3*%
X130250000Y-113114500D03*
%TO.P,Q2,4*%
X132250000Y-113114500D03*
D19*
%TO.P,Q2,5*%
%TO.N,/SENSE1*%
X129250000Y-107864500D03*
%TD*%
D21*
%TO.P,TP19,1,1*%
%TO.N,GND*%
X151526667Y-135000000D03*
%TD*%
%TO.P,TP2,1,1*%
%TO.N,/VDL1*%
X176750000Y-102250000D03*
%TD*%
D18*
%TO.P,Q1,1*%
%TO.N,/GATE1*%
X132350000Y-115325000D03*
%TO.P,Q1,2*%
%TO.N,/SOURCE1*%
X130350000Y-115325000D03*
%TO.P,Q1,3*%
X128350000Y-115325000D03*
%TO.P,Q1,4*%
X126350000Y-115325000D03*
D19*
%TO.P,Q1,5*%
%TO.N,/V1*%
X129350000Y-120575000D03*
%TD*%
D21*
%TO.P,TP16,1,1*%
%TO.N,GND*%
X158790000Y-135000000D03*
%TD*%
D16*
%TO.P,CMOSFET1,1*%
%TO.N,/GATE1*%
X123980000Y-113200000D03*
%TO.P,CMOSFET1,2*%
%TO.N,/SOURCE1*%
X123980000Y-115100000D03*
%TD*%
D17*
%TO.P,J3,1,Pin_1*%
%TO.N,GND*%
X117350000Y-130725000D03*
%TD*%
D21*
%TO.P,TP4,1,1*%
%TO.N,/DISABLE1*%
X176750000Y-93750000D03*
%TD*%
%TO.P,TP15,1,1*%
%TO.N,/Out*%
X111210000Y-93440000D03*
%TD*%
D24*
%TO.P,D6,1,K*%
%TO.N,GND*%
X114050000Y-83837500D03*
%TO.P,D6,2,A*%
%TO.N,Net-(D6-A)*%
X114050000Y-82262500D03*
%TD*%
D28*
%TO.P,R3,1*%
%TO.N,/V1*%
X122632500Y-118610000D03*
%TO.P,R3,2*%
%TO.N,Net-(C1-Pad1)*%
X120807500Y-118610000D03*
%TD*%
D21*
%TO.P,TP5,1,1*%
%TO.N,/CHL2*%
X176750000Y-76500000D03*
%TD*%
D29*
%TO.P,R4,1*%
%TO.N,/V2*%
X122650000Y-86487500D03*
%TO.P,R4,2*%
%TO.N,Net-(C2-Pad1)*%
X122650000Y-88312500D03*
%TD*%
D21*
%TO.P,TP14,1,1*%
%TO.N,/V1*%
X115680000Y-115630000D03*
%TD*%
%TO.P,TP8,1,1*%
%TO.N,/DISABLE2*%
X176750000Y-89500000D03*
%TD*%
%TO.P,TP3,1,1*%
%TO.N,/FTL1*%
X176750000Y-98000000D03*
%TD*%
%TO.P,TP17,1,1*%
%TO.N,GND*%
X137000000Y-135000000D03*
%TD*%
D17*
%TO.P,J1,1,Pin_1*%
%TO.N,/V1*%
X128500000Y-130725000D03*
%TD*%
%TO.P,J4,1,Pin_1*%
%TO.N,/V2*%
X128300000Y-74350000D03*
%TD*%
D25*
%TO.P,D9,1,K*%
%TO.N,/GATE1*%
X122180000Y-113480000D03*
%TO.P,D9,2,A*%
%TO.N,/SOURCE1*%
X122180000Y-114880000D03*
%TD*%
D15*
%TO.P,R2,1*%
%TO.N,/Out*%
X115790000Y-93417500D03*
%TO.P,R2,2*%
%TO.N,Net-(D2-A)*%
X115790000Y-95242500D03*
%TD*%
D20*
%TO.P,H3,1,1*%
%TO.N,unconnected-(H3-Pad1)*%
X182500000Y-133500000D03*
%TD*%
D23*
%TO.P,D3,1,K*%
%TO.N,/V1*%
X122350000Y-121910000D03*
%TO.P,D3,2,A*%
%TO.N,GND*%
X118050000Y-121910000D03*
%TD*%
D21*
%TO.P,TP6,1,1*%
%TO.N,/VDL2*%
X176750000Y-81000000D03*
%TD*%
%TO.P,TP12,1,1*%
%TO.N,+3.3V*%
X182500000Y-106500000D03*
%TD*%
%TO.P,TP7,1,1*%
%TO.N,/FTL2*%
X176750000Y-85250000D03*
%TD*%
D30*
%TO.P,C1,1*%
%TO.N,Net-(C1-Pad1)*%
X120710000Y-116560000D03*
%TO.P,C1,2*%
%TO.N,GND*%
X118810000Y-116560000D03*
%TD*%
D22*
%TO.P,R6,1*%
%TO.N,/SENSE2*%
X123960000Y-99060000D03*
%TO.P,R6,2*%
%TO.N,/Out*%
X118160000Y-99060000D03*
%TD*%
D31*
%TO.P,J9,1,Pin_1*%
%TO.N,GND*%
X112930000Y-104910000D03*
D32*
%TO.P,J9,2,Pin_2*%
%TO.N,/Out*%
X112930000Y-99910000D03*
%TD*%
D14*
%TO.P,R9,1*%
%TO.N,+3.3V*%
X183250000Y-103162500D03*
%TO.P,R9,2*%
%TO.N,Net-(D7-A)*%
X183250000Y-101337500D03*
%TD*%
D33*
%TO.P,C2,1*%
%TO.N,Net-(C2-Pad1)*%
X120150000Y-88400000D03*
%TO.P,C2,2*%
%TO.N,GND*%
X120150000Y-86500000D03*
%TD*%
D21*
%TO.P,TP13,1,1*%
%TO.N,/V2*%
X115325000Y-87125000D03*
%TD*%
%TO.P,TP1,1,1*%
%TO.N,/CHL1*%
X176750000Y-106500000D03*
%TD*%
D34*
%TO.N,GND*%
X136840000Y-101650000D03*
X154400000Y-98825000D03*
X136610000Y-117920000D03*
X147500000Y-98750000D03*
X156000000Y-97000000D03*
X147120000Y-106220000D03*
X140380000Y-101650000D03*
X134725000Y-89300000D03*
X138470000Y-117920000D03*
X136560000Y-104790000D03*
X138250000Y-96840000D03*
X136620000Y-107250000D03*
X147120000Y-108770000D03*
X140240000Y-107130000D03*
X137175000Y-89275000D03*
X140210000Y-104780000D03*
X145260000Y-106220000D03*
X136610000Y-115370000D03*
X134990000Y-96830000D03*
X156000000Y-98750000D03*
X136680000Y-96830000D03*
X134725000Y-91825000D03*
X134890000Y-101670000D03*
X140330000Y-96820000D03*
X134740000Y-93550000D03*
X154500000Y-95500000D03*
X154500000Y-102500000D03*
X137175000Y-91825000D03*
X138130000Y-104800000D03*
X134990000Y-107280000D03*
X144570000Y-110270000D03*
X137180000Y-93440000D03*
X156000000Y-102500000D03*
X138130000Y-107210000D03*
X156000000Y-95500000D03*
X156000000Y-101000000D03*
X145260000Y-108770000D03*
X140840000Y-113980000D03*
X138470000Y-115370000D03*
X142710000Y-112160000D03*
X134870000Y-104790000D03*
X138380000Y-101620000D03*
%TO.N,/GATE1*%
X133750000Y-114910000D03*
X123930000Y-112310000D03*
%TO.N,/SOURCE2*%
X143600000Y-92000000D03*
X147174998Y-96250000D03*
%TO.N,/GATE2*%
X133400000Y-92700000D03*
X124700000Y-89075000D03*
%TO.N,/SHDN*%
X153550000Y-98000000D03*
%TD*%
D35*
%TO.N,/SHDN*%
X153550000Y-98000000D02*
X153550000Y-96950000D01*
D36*
%TO.N,/SOURCE2*%
X147174998Y-96250000D02*
X147174998Y-96925002D01*
X147174998Y-96925002D02*
X147150000Y-96950000D01*
%TO.N,GND*%
X154350000Y-98775000D02*
X154400000Y-98825000D01*
X140330000Y-101600000D02*
X140380000Y-101650000D01*
X136870000Y-101620000D02*
X136840000Y-101650000D01*
%TO.N,Net-(C1-Pad1)*%
X120710000Y-116560000D02*
X120710000Y-118512500D01*
X120710000Y-118512500D02*
X120807500Y-118610000D01*
D35*
%TO.N,Net-(C2-Pad1)*%
X122650000Y-88312500D02*
X120237500Y-88312500D01*
X120237500Y-88312500D02*
X120150000Y-88400000D01*
%TO.N,/GATE1*%
X123980000Y-113200000D02*
X123980000Y-112360000D01*
X147950000Y-101700000D02*
X134740000Y-114910000D01*
X134740000Y-114910000D02*
X133750000Y-114910000D01*
X125884500Y-113480000D02*
X126250000Y-113114500D01*
X132765000Y-114910000D02*
X132350000Y-115325000D01*
X147950000Y-100750000D02*
X147950000Y-101700000D01*
X122180000Y-113480000D02*
X125884500Y-113480000D01*
X123980000Y-112360000D02*
X123930000Y-112310000D01*
X133750000Y-114910000D02*
X132765000Y-114910000D01*
%TO.N,/SOURCE1*%
X147150000Y-101700000D02*
X135735500Y-113114500D01*
X147150000Y-100750000D02*
X147150000Y-101700000D01*
X135735500Y-113114500D02*
X132250000Y-113114500D01*
D36*
%TO.N,/SOURCE2*%
X140001000Y-88401000D02*
X143600000Y-92000000D01*
X133613500Y-88401000D02*
X140001000Y-88401000D01*
X132300000Y-89714500D02*
X133613500Y-88401000D01*
D35*
%TO.N,/GATE2*%
X124000000Y-90050000D02*
X125964500Y-90050000D01*
X124000000Y-89775000D02*
X124700000Y-89075000D01*
X147950000Y-96123000D02*
X147950000Y-96950000D01*
X124000000Y-90050000D02*
X122800000Y-90050000D01*
X133400000Y-92700000D02*
X144527000Y-92700000D01*
X125964500Y-90050000D02*
X126300000Y-89714500D01*
X132300000Y-92700000D02*
X133400000Y-92700000D01*
X124000000Y-90050000D02*
X124000000Y-89775000D01*
X144527000Y-92700000D02*
X147950000Y-96123000D01*
X122800000Y-90050000D02*
X122100000Y-90750000D01*
D36*
%TO.N,Net-(D2-A)*%
X115790000Y-95242500D02*
X118812500Y-95242500D01*
X118812500Y-95242500D02*
X118830000Y-95260000D01*
%TO.N,Net-(D5-A)*%
X114585000Y-123267500D02*
X114620000Y-123232500D01*
X112990000Y-123267500D02*
X114585000Y-123267500D01*
%TO.N,Net-(D6-A)*%
X114050000Y-82262500D02*
X115475000Y-82262500D01*
X115475000Y-82262500D02*
X115650000Y-82087500D01*
%TO.N,Net-(D7-A)*%
X183375000Y-101462500D02*
X183250000Y-101337500D01*
X185250000Y-101462500D02*
X183375000Y-101462500D01*
%TO.N,/V2*%
X115650000Y-83912500D02*
X116962500Y-83912500D01*
X123300000Y-81175000D02*
X122775000Y-80650000D01*
X116962500Y-83912500D02*
X117050000Y-83825000D01*
X122775000Y-80650000D02*
X117650000Y-80650000D01*
X117100000Y-81200000D02*
X117100000Y-83975000D01*
X132535500Y-87700000D02*
X140400000Y-87700000D01*
X117050000Y-84025000D02*
X117050000Y-85400000D01*
X117050000Y-83825000D02*
X117050000Y-84025000D01*
X129300000Y-84464500D02*
X132535500Y-87700000D01*
X117050000Y-85400000D02*
X115325000Y-87125000D01*
X123300000Y-83300000D02*
X123300000Y-81175000D01*
X117100000Y-83975000D02*
X117050000Y-84025000D01*
X140400000Y-87700000D02*
X148750000Y-96050000D01*
X148750000Y-96050000D02*
X148750000Y-96950000D01*
X117650000Y-80650000D02*
X117100000Y-81200000D01*
%TO.N,/Out*%
X114672500Y-93417500D02*
X112930000Y-95160000D01*
X145550000Y-101810768D02*
X145550000Y-100750000D01*
D37*
X112930000Y-99910000D02*
X112930000Y-95160000D01*
D36*
X118160000Y-99060000D02*
X118160000Y-101200000D01*
X143950768Y-103410000D02*
X145550000Y-101810768D01*
X118160000Y-101200000D02*
X120370000Y-103410000D01*
X115790000Y-93417500D02*
X114672500Y-93417500D01*
X120370000Y-103410000D02*
X143950768Y-103410000D01*
D37*
X112930000Y-95160000D02*
X111210000Y-93440000D01*
D35*
%TO.N,/DISABLE2*%
X152750000Y-96950000D02*
X152750000Y-95000000D01*
X152750000Y-95000000D02*
X156500000Y-91250000D01*
X176250000Y-91250000D02*
X156500000Y-91250000D01*
X177500000Y-90000000D02*
X176250000Y-91250000D01*
%TO.N,/CHL1*%
X150350000Y-100750000D02*
X150350000Y-101700000D01*
X155150000Y-106500000D02*
X176750000Y-106500000D01*
X150350000Y-101700000D02*
X155150000Y-106500000D01*
D36*
%TO.N,+3.3V*%
X149550000Y-100750000D02*
X149550000Y-96950000D01*
X178750000Y-114000000D02*
X180310000Y-114000000D01*
X182500000Y-111810000D02*
X182500000Y-103912500D01*
X174750000Y-118000000D02*
X165673000Y-118000000D01*
X172000000Y-135000000D02*
X174750000Y-132250000D01*
X149624000Y-101951000D02*
X149624000Y-101250000D01*
X182500000Y-103912500D02*
X183250000Y-103162500D01*
X180310000Y-114000000D02*
X182500000Y-111810000D01*
X174750000Y-118000000D02*
X178750000Y-114000000D01*
X174750000Y-132250000D02*
X174750000Y-118000000D01*
X165673000Y-118000000D02*
X149624000Y-101951000D01*
X170540000Y-135000000D02*
X172000000Y-135000000D01*
%TO.N,/V1*%
X129350000Y-120575000D02*
X140305000Y-120575000D01*
X115680000Y-119092500D02*
X115680000Y-115630000D01*
X116307500Y-119720000D02*
X120160000Y-119720000D01*
X116307500Y-119720000D02*
X115680000Y-119092500D01*
X148750000Y-112130000D02*
X148750000Y-100750000D01*
X120160000Y-119720000D02*
X122350000Y-121910000D01*
X114620000Y-121407500D02*
X116307500Y-119720000D01*
X140305000Y-120575000D02*
X148750000Y-112130000D01*
D35*
%TO.N,/SENSE1*%
X144020000Y-104120000D02*
X146350000Y-101790000D01*
X124430000Y-104120000D02*
X144020000Y-104120000D01*
X123900000Y-104650000D02*
X124430000Y-104120000D01*
X123900000Y-106810000D02*
X123900000Y-104650000D01*
X146350000Y-101790000D02*
X146350000Y-100750000D01*
%TO.N,/DISABLE1*%
X174182900Y-96317100D02*
X176750000Y-93750000D01*
X172568800Y-105297000D02*
X174182900Y-103682900D01*
X174182900Y-103682900D02*
X174182900Y-96317100D01*
X152750000Y-102165800D02*
X155881200Y-105297000D01*
X155881200Y-105297000D02*
X172568800Y-105297000D01*
X152750000Y-100750000D02*
X152750000Y-102165800D01*
%TO.N,/FTL1*%
X174750000Y-103682900D02*
X174750000Y-100000000D01*
X174750000Y-100000000D02*
X176750000Y-98000000D01*
X172734900Y-105698000D02*
X174750000Y-103682900D01*
X151950000Y-101932900D02*
X155715100Y-105698000D01*
X151950000Y-100750000D02*
X151950000Y-101932900D01*
X155715100Y-105698000D02*
X172734900Y-105698000D01*
%TO.N,/VDL1*%
X151150000Y-101700000D02*
X151150000Y-100750000D01*
X176750000Y-102250000D02*
X172901000Y-106099000D01*
X155549000Y-106099000D02*
X151150000Y-101700000D01*
X172901000Y-106099000D02*
X155549000Y-106099000D01*
%TO.N,/CHL2*%
X173000000Y-89750000D02*
X173000000Y-80750000D01*
X156298700Y-89750000D02*
X173000000Y-89750000D01*
X173000000Y-80750000D02*
X176750000Y-77000000D01*
X150350000Y-95698700D02*
X156298700Y-89750000D01*
X150350000Y-96950000D02*
X150350000Y-95698700D01*
%TO.N,/VDL2*%
X176750000Y-81250000D02*
X173750000Y-84250000D01*
X156266800Y-90349000D02*
X151150000Y-95465800D01*
X173750000Y-90000000D02*
X173401000Y-90349000D01*
X151150000Y-95465800D02*
X151150000Y-96950000D01*
X173750000Y-84250000D02*
X173750000Y-90000000D01*
X173401000Y-90349000D02*
X156266800Y-90349000D01*
%TO.N,/SENSE2*%
X146350000Y-95810000D02*
X146350000Y-96950000D01*
X145290000Y-94750000D02*
X146350000Y-95810000D01*
X124690000Y-94750000D02*
X145290000Y-94750000D01*
X123960000Y-99060000D02*
X123960000Y-95480000D01*
X123960000Y-95480000D02*
X124690000Y-94750000D01*
%TO.N,/FTL2*%
X156432900Y-90750000D02*
X151950000Y-95232900D01*
X174500000Y-85500000D02*
X174250000Y-85750000D01*
X176750000Y-85500000D02*
X174500000Y-85500000D01*
X151950000Y-95232900D02*
X151950000Y-96950000D01*
X174250000Y-90500000D02*
X174000000Y-90750000D01*
X174000000Y-90750000D02*
X156432900Y-90750000D01*
X174250000Y-85750000D02*
X174250000Y-90500000D01*
D36*
%TO.N,/Out*%
X145550000Y-100750000D02*
X145576000Y-100724000D01*
X145576000Y-100724000D02*
X145576000Y-96976000D01*
X145576000Y-96976000D02*
X145550000Y-96950000D01*
%TD*%
%TA.AperFunction,Conductor*%
%TO.N,/SENSE2*%
G36*
X133275677Y-94919685D02*
G01*
X133296319Y-94936319D01*
X133453681Y-95093681D01*
X133487166Y-95155004D01*
X133490000Y-95181362D01*
X133490000Y-100946000D01*
X133470315Y-101013039D01*
X133417511Y-101058794D01*
X133366000Y-101070000D01*
X123154000Y-101070000D01*
X123086961Y-101050315D01*
X123041206Y-100997511D01*
X123030000Y-100946000D01*
X123030000Y-97154000D01*
X123049685Y-97086961D01*
X123102489Y-97041206D01*
X123154000Y-97030000D01*
X125100000Y-97030000D01*
X125140000Y-96990000D01*
X125140000Y-95024000D01*
X125159685Y-94956961D01*
X125212489Y-94911206D01*
X125264000Y-94900000D01*
X133208638Y-94900000D01*
X133275677Y-94919685D01*
G37*
%TD.AperFunction*%
%TD*%
%TA.AperFunction,Conductor*%
%TO.N,/SOURCE2*%
G36*
X133543039Y-88569685D02*
G01*
X133588794Y-88622489D01*
X133600000Y-88674000D01*
X133600000Y-91719103D01*
X133580315Y-91786142D01*
X133527511Y-91831897D01*
X133458353Y-91841841D01*
X133394797Y-91812816D01*
X133359818Y-91762436D01*
X133333797Y-91692671D01*
X133333793Y-91692664D01*
X133247547Y-91577455D01*
X133247544Y-91577452D01*
X133132335Y-91491206D01*
X133132328Y-91491202D01*
X132997482Y-91440908D01*
X132997483Y-91440908D01*
X132937883Y-91434501D01*
X132937881Y-91434500D01*
X132937873Y-91434500D01*
X132937864Y-91434500D01*
X131662129Y-91434500D01*
X131662123Y-91434501D01*
X131602516Y-91440908D01*
X131467671Y-91491202D01*
X131467664Y-91491206D01*
X131352455Y-91577452D01*
X131352452Y-91577455D01*
X131266206Y-91692664D01*
X131266202Y-91692671D01*
X131215908Y-91827517D01*
X131209501Y-91887116D01*
X131209500Y-91887135D01*
X131209500Y-93512870D01*
X131209501Y-93512876D01*
X131215908Y-93572483D01*
X131238356Y-93632667D01*
X131243340Y-93702359D01*
X131209855Y-93763682D01*
X131148532Y-93797166D01*
X131122174Y-93800000D01*
X121374000Y-93800000D01*
X121306961Y-93780315D01*
X121261206Y-93727511D01*
X121250000Y-93676000D01*
X121250000Y-91601362D01*
X121258643Y-91571925D01*
X121265167Y-91541936D01*
X121268922Y-91536918D01*
X121269685Y-91534323D01*
X121286313Y-91513686D01*
X121357097Y-91442902D01*
X121418416Y-91409420D01*
X121488108Y-91414404D01*
X121507896Y-91423854D01*
X121536735Y-91440909D01*
X121639602Y-91501744D01*
X121680706Y-91513686D01*
X121797426Y-91547597D01*
X121797429Y-91547597D01*
X121797431Y-91547598D01*
X121834306Y-91550500D01*
X121834314Y-91550500D01*
X122365686Y-91550500D01*
X122365694Y-91550500D01*
X122402569Y-91547598D01*
X122402571Y-91547597D01*
X122402573Y-91547597D01*
X122448261Y-91534323D01*
X122560398Y-91501744D01*
X122701865Y-91418081D01*
X122818081Y-91301865D01*
X122842320Y-91260879D01*
X122893389Y-91213196D01*
X122949052Y-91200000D01*
X125000000Y-91200000D01*
X125000000Y-90887730D01*
X125007233Y-90863096D01*
X125010570Y-90837633D01*
X125017815Y-90827056D01*
X125019685Y-90820691D01*
X125029279Y-90807706D01*
X125032638Y-90803729D01*
X125067712Y-90768656D01*
X125082431Y-90744792D01*
X125088396Y-90737732D01*
X125110144Y-90723367D01*
X125129524Y-90705936D01*
X125138829Y-90704421D01*
X125146697Y-90699225D01*
X125172761Y-90698898D01*
X125198487Y-90694712D01*
X125207134Y-90698468D01*
X125216561Y-90698351D01*
X125238661Y-90712166D01*
X125262569Y-90722554D01*
X125273190Y-90733752D01*
X125275807Y-90735388D01*
X125276861Y-90737622D01*
X125282383Y-90743444D01*
X125301257Y-90768656D01*
X125344975Y-90827056D01*
X125352455Y-90837047D01*
X125467664Y-90923293D01*
X125467671Y-90923297D01*
X125602517Y-90973591D01*
X125602516Y-90973591D01*
X125609444Y-90974335D01*
X125662127Y-90980000D01*
X126937872Y-90979999D01*
X126997483Y-90973591D01*
X127132331Y-90923296D01*
X127247546Y-90837046D01*
X127333796Y-90721831D01*
X127384091Y-90586983D01*
X127390500Y-90527373D01*
X127390499Y-88901628D01*
X127384091Y-88842017D01*
X127383899Y-88841503D01*
X127337587Y-88717333D01*
X127332603Y-88647641D01*
X127366088Y-88586318D01*
X127427411Y-88552834D01*
X127453769Y-88550000D01*
X133476000Y-88550000D01*
X133543039Y-88569685D01*
G37*
%TD.AperFunction*%
%TD*%
%TA.AperFunction,Conductor*%
%TO.N,/V1*%
G36*
X133743039Y-116999685D02*
G01*
X133788794Y-117052489D01*
X133800000Y-117104000D01*
X133800000Y-135886000D01*
X133780315Y-135953039D01*
X133727511Y-135998794D01*
X133676000Y-136010000D01*
X123334000Y-136010000D01*
X123266961Y-135990315D01*
X123221206Y-135937511D01*
X123210000Y-135886000D01*
X123210000Y-124160000D01*
X123200000Y-124150000D01*
X121104000Y-124150000D01*
X121036961Y-124130315D01*
X120991206Y-124077511D01*
X120980000Y-124026000D01*
X120980000Y-120454000D01*
X120999685Y-120386961D01*
X121052489Y-120341206D01*
X121104000Y-120330000D01*
X121870000Y-120330000D01*
X121890000Y-120310000D01*
X121890000Y-119570000D01*
X121889439Y-119568646D01*
X121880000Y-119521193D01*
X121880000Y-117104000D01*
X121899685Y-117036961D01*
X121952489Y-116991206D01*
X122004000Y-116980000D01*
X133676000Y-116980000D01*
X133743039Y-116999685D01*
G37*
%TD.AperFunction*%
%TD*%
%TA.AperFunction,Conductor*%
%TO.N,/SOURCE1*%
G36*
X133504501Y-111445185D02*
G01*
X133550256Y-111497989D01*
X133561451Y-111551153D01*
X133560000Y-111660000D01*
X133560000Y-114039391D01*
X133554367Y-114058572D01*
X133553654Y-114078550D01*
X133544725Y-114091409D01*
X133540315Y-114106430D01*
X133525208Y-114119519D01*
X133513806Y-114135943D01*
X133489856Y-114150152D01*
X133487511Y-114152185D01*
X133483453Y-114153952D01*
X133387295Y-114193782D01*
X133317825Y-114201251D01*
X133265531Y-114178487D01*
X133182335Y-114116206D01*
X133182328Y-114116202D01*
X133047482Y-114065908D01*
X133047483Y-114065908D01*
X132987883Y-114059501D01*
X132987881Y-114059500D01*
X132987873Y-114059500D01*
X132987864Y-114059500D01*
X131712129Y-114059500D01*
X131712123Y-114059501D01*
X131652516Y-114065908D01*
X131517671Y-114116202D01*
X131517664Y-114116206D01*
X131402455Y-114202452D01*
X131402452Y-114202455D01*
X131316206Y-114317664D01*
X131316202Y-114317671D01*
X131265908Y-114452517D01*
X131259501Y-114512116D01*
X131259500Y-114512135D01*
X131259500Y-116137870D01*
X131259501Y-116137874D01*
X131266475Y-116202746D01*
X131254068Y-116271506D01*
X131206457Y-116322642D01*
X131143185Y-116340000D01*
X125504000Y-116340000D01*
X125436961Y-116320315D01*
X125391206Y-116267511D01*
X125380000Y-116216000D01*
X125380000Y-115810000D01*
X121741366Y-115810000D01*
X121674327Y-115790315D01*
X121635827Y-115751096D01*
X121610787Y-115710500D01*
X121552712Y-115616344D01*
X121456319Y-115519951D01*
X121422834Y-115458628D01*
X121420000Y-115432270D01*
X121420000Y-114471362D01*
X121428645Y-114441918D01*
X121435168Y-114411936D01*
X121438922Y-114406920D01*
X121439685Y-114404323D01*
X121456313Y-114383686D01*
X121582301Y-114257698D01*
X121643620Y-114224216D01*
X121713312Y-114229200D01*
X121719237Y-114231585D01*
X121719591Y-114231737D01*
X121719602Y-114231744D01*
X121737855Y-114237047D01*
X121877426Y-114277597D01*
X121877429Y-114277597D01*
X121877431Y-114277598D01*
X121914306Y-114280500D01*
X121914314Y-114280500D01*
X122445686Y-114280500D01*
X122445694Y-114280500D01*
X122482569Y-114277598D01*
X122482571Y-114277597D01*
X122482573Y-114277597D01*
X122539098Y-114261174D01*
X122640398Y-114231744D01*
X122640400Y-114231742D01*
X122643967Y-114230200D01*
X122693216Y-114220000D01*
X125238412Y-114220000D01*
X125305451Y-114239685D01*
X125312716Y-114244728D01*
X125360500Y-114280499D01*
X125417669Y-114323296D01*
X125417671Y-114323297D01*
X125552517Y-114373591D01*
X125552516Y-114373591D01*
X125559444Y-114374335D01*
X125612127Y-114380000D01*
X126887872Y-114379999D01*
X126947483Y-114373591D01*
X127082331Y-114323296D01*
X127197546Y-114237046D01*
X127283796Y-114121831D01*
X127334091Y-113986983D01*
X127340500Y-113927373D01*
X127340499Y-112301628D01*
X127334091Y-112242017D01*
X127283796Y-112107169D01*
X127283795Y-112107168D01*
X127283793Y-112107164D01*
X127197547Y-111991955D01*
X127197544Y-111991952D01*
X127082335Y-111905706D01*
X127082328Y-111905702D01*
X126947482Y-111855408D01*
X126947483Y-111855408D01*
X126887883Y-111849001D01*
X126887881Y-111849000D01*
X126887873Y-111849000D01*
X126887864Y-111849000D01*
X125612129Y-111849000D01*
X125612123Y-111849001D01*
X125552516Y-111855408D01*
X125467333Y-111887180D01*
X125397641Y-111892164D01*
X125336318Y-111858679D01*
X125302834Y-111797355D01*
X125300000Y-111770998D01*
X125300000Y-111549500D01*
X125319685Y-111482461D01*
X125372489Y-111436706D01*
X125424000Y-111425500D01*
X133437462Y-111425500D01*
X133504501Y-111445185D01*
G37*
%TD.AperFunction*%
%TD*%
%TA.AperFunction,Conductor*%
%TO.N,/Out*%
G36*
X119813039Y-97069685D02*
G01*
X119858794Y-97122489D01*
X119870000Y-97174000D01*
X119870000Y-108706000D01*
X119850315Y-108773039D01*
X119797511Y-108818794D01*
X119746000Y-108830000D01*
X116564000Y-108830000D01*
X116496961Y-108810315D01*
X116451206Y-108757511D01*
X116440000Y-108706000D01*
X116440000Y-102160000D01*
X110154000Y-102160000D01*
X110086961Y-102140315D01*
X110041206Y-102087511D01*
X110030000Y-102036000D01*
X110030000Y-97174000D01*
X110049685Y-97106961D01*
X110102489Y-97061206D01*
X110154000Y-97050000D01*
X119746000Y-97050000D01*
X119813039Y-97069685D01*
G37*
%TD.AperFunction*%
%TD*%
%TA.AperFunction,Conductor*%
%TO.N,/SENSE1*%
G36*
X133513039Y-104809685D02*
G01*
X133558794Y-104862489D01*
X133570000Y-104914000D01*
X133570000Y-110796000D01*
X133550315Y-110863039D01*
X133497511Y-110908794D01*
X133446000Y-110920000D01*
X125424000Y-110920000D01*
X125356961Y-110900315D01*
X125311206Y-110847511D01*
X125300000Y-110796000D01*
X125300000Y-109050000D01*
X125060000Y-108810000D01*
X122994000Y-108810000D01*
X122926961Y-108790315D01*
X122881206Y-108737511D01*
X122870000Y-108686000D01*
X122870000Y-104914000D01*
X122889685Y-104846961D01*
X122942489Y-104801206D01*
X122994000Y-104790000D01*
X133446000Y-104790000D01*
X133513039Y-104809685D01*
G37*
%TD.AperFunction*%
%TD*%
%TA.AperFunction,Conductor*%
%TO.N,/V2*%
G36*
X133543039Y-69069685D02*
G01*
X133588794Y-69122489D01*
X133600000Y-69174000D01*
X133600000Y-87536716D01*
X133592536Y-87562133D01*
X133588734Y-87588361D01*
X133582844Y-87595141D01*
X133580315Y-87603755D01*
X133560293Y-87621103D01*
X133542916Y-87641110D01*
X133530882Y-87646588D01*
X133527511Y-87649510D01*
X133517029Y-87652895D01*
X133510794Y-87655734D01*
X133505533Y-87657271D01*
X133394588Y-87679341D01*
X133315743Y-87712000D01*
X133309542Y-87714568D01*
X133309537Y-87714570D01*
X133258006Y-87735915D01*
X133175872Y-87790795D01*
X133135085Y-87818047D01*
X133135081Y-87818050D01*
X133089453Y-87863680D01*
X133028130Y-87897166D01*
X133001771Y-87900000D01*
X125401362Y-87900000D01*
X125371921Y-87891355D01*
X125341935Y-87884832D01*
X125336919Y-87881077D01*
X125334323Y-87880315D01*
X125313681Y-87863681D01*
X125186319Y-87736319D01*
X125152834Y-87674996D01*
X125150000Y-87648638D01*
X125150000Y-87150000D01*
X121600000Y-87150000D01*
X121599999Y-87150000D01*
X121587681Y-87162319D01*
X121579735Y-87166657D01*
X121574310Y-87173905D01*
X121549550Y-87183139D01*
X121526358Y-87195804D01*
X121517328Y-87195158D01*
X121508846Y-87198322D01*
X121483025Y-87192705D01*
X121456666Y-87190820D01*
X121447612Y-87185001D01*
X121440573Y-87183470D01*
X121412319Y-87162319D01*
X121366266Y-87116266D01*
X121332781Y-87054943D01*
X121336240Y-86989583D01*
X121364999Y-86902797D01*
X121375500Y-86800009D01*
X121375499Y-86199992D01*
X121364999Y-86097203D01*
X121309814Y-85930666D01*
X121268461Y-85863621D01*
X121250000Y-85798525D01*
X121250000Y-81101362D01*
X121258644Y-81071921D01*
X121265168Y-81041935D01*
X121268922Y-81036919D01*
X121269685Y-81034323D01*
X121286319Y-81013681D01*
X121313681Y-80986319D01*
X121375004Y-80952834D01*
X121401362Y-80950000D01*
X122950000Y-80950000D01*
X123000000Y-80900000D01*
X123000000Y-69174000D01*
X123019685Y-69106961D01*
X123072489Y-69061206D01*
X123124000Y-69050000D01*
X133476000Y-69050000D01*
X133543039Y-69069685D01*
G37*
%TD.AperFunction*%
%TD*%
%TA.AperFunction,Conductor*%
%TO.N,GND*%
G36*
X138694020Y-67520185D02*
G01*
X138739775Y-67572989D01*
X138749719Y-67642147D01*
X138720694Y-67705703D01*
X138661916Y-67743477D01*
X138651172Y-67746117D01*
X138349787Y-67806064D01*
X138349776Y-67806067D01*
X138001834Y-67911614D01*
X137665921Y-68050754D01*
X137665916Y-68050756D01*
X137345279Y-68222140D01*
X137345261Y-68222151D01*
X137042964Y-68424140D01*
X137042950Y-68424150D01*
X136761893Y-68654807D01*
X136504807Y-68911893D01*
X136274150Y-69192950D01*
X136274140Y-69192964D01*
X136072151Y-69495261D01*
X136072140Y-69495279D01*
X135900756Y-69815916D01*
X135900754Y-69815921D01*
X135761614Y-70151834D01*
X135656067Y-70499776D01*
X135656064Y-70499787D01*
X135585137Y-70856369D01*
X135549500Y-71218209D01*
X135549500Y-71581790D01*
X135585137Y-71943630D01*
X135656064Y-72300212D01*
X135656067Y-72300223D01*
X135761614Y-72648165D01*
X135900754Y-72984078D01*
X135900756Y-72984083D01*
X136072140Y-73304720D01*
X136072151Y-73304738D01*
X136274140Y-73607035D01*
X136274150Y-73607049D01*
X136504807Y-73888106D01*
X136761893Y-74145192D01*
X136761898Y-74145196D01*
X136761899Y-74145197D01*
X137042956Y-74375854D01*
X137345268Y-74577853D01*
X137345277Y-74577858D01*
X137345279Y-74577859D01*
X137665916Y-74749243D01*
X137665918Y-74749243D01*
X137665924Y-74749247D01*
X138001836Y-74888386D01*
X138349767Y-74993930D01*
X138349773Y-74993931D01*
X138349776Y-74993932D01*
X138349787Y-74993935D01*
X138706369Y-75064862D01*
X139068206Y-75100500D01*
X139068209Y-75100500D01*
X139431791Y-75100500D01*
X139431794Y-75100500D01*
X139793631Y-75064862D01*
X139863045Y-75051054D01*
X140150212Y-74993935D01*
X140150223Y-74993932D01*
X140150223Y-74993931D01*
X140150233Y-74993930D01*
X140498164Y-74888386D01*
X140834076Y-74749247D01*
X141154732Y-74577853D01*
X141457044Y-74375854D01*
X141738101Y-74145197D01*
X141995197Y-73888101D01*
X142225854Y-73607044D01*
X142427853Y-73304732D01*
X142599247Y-72984076D01*
X142738386Y-72648164D01*
X142843930Y-72300233D01*
X142843932Y-72300223D01*
X142843935Y-72300212D01*
X142914862Y-71943630D01*
X142950500Y-71581790D01*
X142950500Y-71218209D01*
X142914862Y-70856369D01*
X142843935Y-70499787D01*
X142843932Y-70499776D01*
X142843931Y-70499773D01*
X142843930Y-70499767D01*
X142738386Y-70151836D01*
X142599247Y-69815924D01*
X142427853Y-69495268D01*
X142225854Y-69192956D01*
X141995197Y-68911899D01*
X141995196Y-68911898D01*
X141995192Y-68911893D01*
X141738106Y-68654807D01*
X141457049Y-68424150D01*
X141457048Y-68424149D01*
X141457044Y-68424146D01*
X141154732Y-68222147D01*
X141154727Y-68222144D01*
X141154720Y-68222140D01*
X140834083Y-68050756D01*
X140834078Y-68050754D01*
X140498165Y-67911614D01*
X140150223Y-67806067D01*
X140150212Y-67806064D01*
X139848828Y-67746117D01*
X139786917Y-67713733D01*
X139752343Y-67653017D01*
X139756082Y-67583247D01*
X139796948Y-67526575D01*
X139861966Y-67500994D01*
X139873019Y-67500500D01*
X169626981Y-67500500D01*
X169694020Y-67520185D01*
X169739775Y-67572989D01*
X169749719Y-67642147D01*
X169720694Y-67705703D01*
X169661916Y-67743477D01*
X169651172Y-67746117D01*
X169349787Y-67806064D01*
X169349776Y-67806067D01*
X169001834Y-67911614D01*
X168665921Y-68050754D01*
X168665916Y-68050756D01*
X168345279Y-68222140D01*
X168345261Y-68222151D01*
X168042964Y-68424140D01*
X168042950Y-68424150D01*
X167761893Y-68654807D01*
X167504807Y-68911893D01*
X167274150Y-69192950D01*
X167274140Y-69192964D01*
X167072151Y-69495261D01*
X167072140Y-69495279D01*
X166900756Y-69815916D01*
X166900754Y-69815921D01*
X166761614Y-70151834D01*
X166656067Y-70499776D01*
X166656064Y-70499787D01*
X166585137Y-70856369D01*
X166549500Y-71218209D01*
X166549500Y-71581790D01*
X166585137Y-71943630D01*
X166656064Y-72300212D01*
X166656067Y-72300223D01*
X166761614Y-72648165D01*
X166900754Y-72984078D01*
X166900756Y-72984083D01*
X167072140Y-73304720D01*
X167072151Y-73304738D01*
X167274140Y-73607035D01*
X167274150Y-73607049D01*
X167504807Y-73888106D01*
X167761893Y-74145192D01*
X167761898Y-74145196D01*
X167761899Y-74145197D01*
X168042956Y-74375854D01*
X168345268Y-74577853D01*
X168345277Y-74577858D01*
X168345279Y-74577859D01*
X168665916Y-74749243D01*
X168665918Y-74749243D01*
X168665924Y-74749247D01*
X169001836Y-74888386D01*
X169349767Y-74993930D01*
X169349773Y-74993931D01*
X169349776Y-74993932D01*
X169349787Y-74993935D01*
X169706369Y-75064862D01*
X170068206Y-75100500D01*
X170068209Y-75100500D01*
X170431791Y-75100500D01*
X170431794Y-75100500D01*
X170793631Y-75064862D01*
X170863045Y-75051054D01*
X171150212Y-74993935D01*
X171150223Y-74993932D01*
X171150223Y-74993931D01*
X171150233Y-74993930D01*
X171498164Y-74888386D01*
X171834076Y-74749247D01*
X172154732Y-74577853D01*
X172457044Y-74375854D01*
X172738101Y-74145197D01*
X172995197Y-73888101D01*
X173225854Y-73607044D01*
X173427853Y-73304732D01*
X173599247Y-72984076D01*
X173738386Y-72648164D01*
X173843930Y-72300233D01*
X173843932Y-72300223D01*
X173843935Y-72300212D01*
X173914862Y-71943630D01*
X173950500Y-71581790D01*
X173950500Y-71218209D01*
X173914862Y-70856369D01*
X173843935Y-70499787D01*
X173843932Y-70499776D01*
X173843931Y-70499773D01*
X173843930Y-70499767D01*
X173738386Y-70151836D01*
X173599247Y-69815924D01*
X173427853Y-69495268D01*
X173225854Y-69192956D01*
X172995197Y-68911899D01*
X172995196Y-68911898D01*
X172995192Y-68911893D01*
X172738106Y-68654807D01*
X172457049Y-68424150D01*
X172457048Y-68424149D01*
X172457044Y-68424146D01*
X172154732Y-68222147D01*
X172154727Y-68222144D01*
X172154720Y-68222140D01*
X171834083Y-68050756D01*
X171834078Y-68050754D01*
X171498165Y-67911614D01*
X171150223Y-67806067D01*
X171150212Y-67806064D01*
X170848828Y-67746117D01*
X170786917Y-67713733D01*
X170752343Y-67653017D01*
X170756082Y-67583247D01*
X170796948Y-67526575D01*
X170861966Y-67500994D01*
X170873019Y-67500500D01*
X180293723Y-67500500D01*
X180360762Y-67520185D01*
X180406517Y-67572989D01*
X180416461Y-67642147D01*
X180387436Y-67705703D01*
X180362614Y-67727602D01*
X180292964Y-67774140D01*
X180292950Y-67774150D01*
X180011893Y-68004807D01*
X179754807Y-68261893D01*
X179524150Y-68542950D01*
X179524140Y-68542964D01*
X179322151Y-68845261D01*
X179322140Y-68845279D01*
X179150756Y-69165916D01*
X179150754Y-69165921D01*
X179011614Y-69501834D01*
X178906067Y-69849776D01*
X178906064Y-69849787D01*
X178835137Y-70206369D01*
X178799500Y-70568209D01*
X178799500Y-70931790D01*
X178835137Y-71293630D01*
X178906064Y-71650212D01*
X178906067Y-71650223D01*
X179011614Y-71998165D01*
X179150754Y-72334078D01*
X179150756Y-72334083D01*
X179322140Y-72654720D01*
X179322151Y-72654738D01*
X179524140Y-72957035D01*
X179524150Y-72957049D01*
X179754807Y-73238106D01*
X180011893Y-73495192D01*
X180011898Y-73495196D01*
X180011899Y-73495197D01*
X180292956Y-73725854D01*
X180595268Y-73927853D01*
X180595277Y-73927858D01*
X180595279Y-73927859D01*
X180915916Y-74099243D01*
X180915918Y-74099243D01*
X180915924Y-74099247D01*
X181251836Y-74238386D01*
X181599767Y-74343930D01*
X181599773Y-74343931D01*
X181599776Y-74343932D01*
X181599787Y-74343935D01*
X181956369Y-74414862D01*
X182318206Y-74450500D01*
X182318209Y-74450500D01*
X182681791Y-74450500D01*
X182681794Y-74450500D01*
X183043631Y-74414862D01*
X183113045Y-74401054D01*
X183400212Y-74343935D01*
X183400223Y-74343932D01*
X183400223Y-74343931D01*
X183400233Y-74343930D01*
X183748164Y-74238386D01*
X184084076Y-74099247D01*
X184404732Y-73927853D01*
X184707044Y-73725854D01*
X184988101Y-73495197D01*
X185245197Y-73238101D01*
X185475854Y-72957044D01*
X185522398Y-72887385D01*
X185576010Y-72842581D01*
X185645335Y-72833874D01*
X185708362Y-72864028D01*
X185745082Y-72923471D01*
X185749500Y-72956277D01*
X185749500Y-100407141D01*
X185729815Y-100474180D01*
X185677011Y-100519935D01*
X185612898Y-100530499D01*
X185554183Y-100524500D01*
X185554174Y-100524500D01*
X184945826Y-100524500D01*
X184945818Y-100524500D01*
X184847316Y-100534563D01*
X184847315Y-100534564D01*
X184825388Y-100541830D01*
X184687715Y-100587450D01*
X184687704Y-100587455D01*
X184544612Y-100675716D01*
X184538946Y-100680197D01*
X184538171Y-100679217D01*
X184483324Y-100709166D01*
X184456966Y-100712000D01*
X184192191Y-100712000D01*
X184125152Y-100692315D01*
X184086652Y-100653096D01*
X184070340Y-100626650D01*
X183948351Y-100504661D01*
X183948350Y-100504660D01*
X183801516Y-100414092D01*
X183637753Y-100359826D01*
X183637751Y-100359825D01*
X183536678Y-100349500D01*
X182963330Y-100349500D01*
X182963312Y-100349501D01*
X182862247Y-100359825D01*
X182698484Y-100414092D01*
X182698481Y-100414093D01*
X182551648Y-100504661D01*
X182429661Y-100626648D01*
X182339093Y-100773481D01*
X182339091Y-100773486D01*
X182311719Y-100856088D01*
X182284826Y-100937247D01*
X182284826Y-100937248D01*
X182284825Y-100937248D01*
X182274500Y-101038315D01*
X182274500Y-101636669D01*
X182274501Y-101636687D01*
X182284825Y-101737752D01*
X182313371Y-101823895D01*
X182339092Y-101901516D01*
X182422042Y-102036000D01*
X182429661Y-102048351D01*
X182543629Y-102162319D01*
X182577114Y-102223642D01*
X182572130Y-102293334D01*
X182543629Y-102337681D01*
X182429661Y-102451648D01*
X182339093Y-102598481D01*
X182339091Y-102598486D01*
X182330908Y-102623181D01*
X182284826Y-102762247D01*
X182284826Y-102762248D01*
X182284825Y-102762248D01*
X182274500Y-102863315D01*
X182274500Y-103025270D01*
X182254815Y-103092309D01*
X182238181Y-103112951D01*
X181917048Y-103434083D01*
X181906519Y-103449842D01*
X181883751Y-103483918D01*
X181834914Y-103557007D01*
X181778343Y-103693582D01*
X181778340Y-103693592D01*
X181749500Y-103838579D01*
X181749500Y-104670926D01*
X181729815Y-104737965D01*
X181677011Y-104783720D01*
X181672958Y-104785485D01*
X181657628Y-104791835D01*
X181657616Y-104791841D01*
X181441873Y-104916400D01*
X181244225Y-105068060D01*
X181244218Y-105068066D01*
X181068066Y-105244218D01*
X181068060Y-105244225D01*
X180916400Y-105441873D01*
X180791837Y-105657623D01*
X180791830Y-105657638D01*
X180696498Y-105887792D01*
X180632017Y-106128438D01*
X180599501Y-106375424D01*
X180599500Y-106375441D01*
X180599500Y-106624558D01*
X180599501Y-106624575D01*
X180632017Y-106871561D01*
X180696498Y-107112207D01*
X180791830Y-107342361D01*
X180791837Y-107342376D01*
X180916400Y-107558126D01*
X181068060Y-107755774D01*
X181068066Y-107755781D01*
X181244218Y-107931933D01*
X181244225Y-107931939D01*
X181441873Y-108083599D01*
X181657623Y-108208162D01*
X181657624Y-108208162D01*
X181657627Y-108208164D01*
X181672354Y-108214264D01*
X181672950Y-108214511D01*
X181727354Y-108258351D01*
X181749421Y-108324644D01*
X181749500Y-108329073D01*
X181749500Y-109505324D01*
X181729815Y-109572363D01*
X181677011Y-109618118D01*
X181607853Y-109628062D01*
X181593407Y-109625099D01*
X181297479Y-109545806D01*
X181297482Y-109545806D01*
X181297472Y-109545804D01*
X181242130Y-109536045D01*
X180905507Y-109476689D01*
X180509010Y-109442000D01*
X180509007Y-109442000D01*
X180110993Y-109442000D01*
X180110989Y-109442000D01*
X179714492Y-109476689D01*
X179322533Y-109545803D01*
X179322530Y-109545803D01*
X179322528Y-109545804D01*
X179322523Y-109545805D01*
X179322520Y-109545806D01*
X178938087Y-109648813D01*
X178564053Y-109784951D01*
X178203362Y-109953143D01*
X178203338Y-109953156D01*
X177858663Y-110152155D01*
X177858648Y-110152164D01*
X177532615Y-110380455D01*
X177227723Y-110636291D01*
X176946291Y-110917723D01*
X176690455Y-111222615D01*
X176462164Y-111548648D01*
X176462155Y-111548663D01*
X176263156Y-111893338D01*
X176263143Y-111893362D01*
X176094951Y-112254053D01*
X175958813Y-112628087D01*
X175855806Y-113012520D01*
X175855803Y-113012533D01*
X175786689Y-113404492D01*
X175752000Y-113800989D01*
X175752000Y-114199010D01*
X175786689Y-114595507D01*
X175855803Y-114987466D01*
X175855806Y-114987479D01*
X175958814Y-115371916D01*
X176027300Y-115560080D01*
X176031731Y-115629809D01*
X175998459Y-115690171D01*
X174475451Y-117213181D01*
X174414128Y-117246666D01*
X174387770Y-117249500D01*
X166035229Y-117249500D01*
X165968190Y-117229815D01*
X165947548Y-117213181D01*
X156046549Y-107312181D01*
X156013064Y-107250858D01*
X156018048Y-107181166D01*
X156059920Y-107125233D01*
X156125384Y-107100816D01*
X156134230Y-107100500D01*
X174858795Y-107100500D01*
X174925834Y-107120185D01*
X174971589Y-107172989D01*
X174973356Y-107177048D01*
X175041830Y-107342361D01*
X175041837Y-107342376D01*
X175166400Y-107558126D01*
X175318060Y-107755774D01*
X175318066Y-107755781D01*
X175494218Y-107931933D01*
X175494225Y-107931939D01*
X175691873Y-108083599D01*
X175907623Y-108208162D01*
X175907638Y-108208169D01*
X175999500Y-108246219D01*
X176137793Y-108303502D01*
X176378435Y-108367982D01*
X176625435Y-108400500D01*
X176625442Y-108400500D01*
X176874558Y-108400500D01*
X176874565Y-108400500D01*
X177121565Y-108367982D01*
X177362207Y-108303502D01*
X177592373Y-108208164D01*
X177808127Y-108083599D01*
X178005776Y-107931938D01*
X178181938Y-107755776D01*
X178333599Y-107558127D01*
X178458164Y-107342373D01*
X178553502Y-107112207D01*
X178617982Y-106871565D01*
X178650500Y-106624565D01*
X178650500Y-106375435D01*
X178617982Y-106128435D01*
X178553502Y-105887793D01*
X178499253Y-105756825D01*
X178458169Y-105657638D01*
X178458162Y-105657623D01*
X178333599Y-105441873D01*
X178181939Y-105244225D01*
X178181933Y-105244218D01*
X178005781Y-105068066D01*
X178005774Y-105068060D01*
X177808126Y-104916400D01*
X177592376Y-104791837D01*
X177592361Y-104791830D01*
X177362207Y-104696498D01*
X177121561Y-104632017D01*
X176874575Y-104599501D01*
X176874570Y-104599500D01*
X176874565Y-104599500D01*
X176625435Y-104599500D01*
X176625429Y-104599500D01*
X176625424Y-104599501D01*
X176378438Y-104632017D01*
X176137792Y-104696498D01*
X175907638Y-104791830D01*
X175907623Y-104791837D01*
X175691873Y-104916400D01*
X175494225Y-105068060D01*
X175494218Y-105068066D01*
X175318066Y-105244218D01*
X175318060Y-105244225D01*
X175166400Y-105441873D01*
X175041837Y-105657623D01*
X175041830Y-105657638D01*
X174973356Y-105822952D01*
X174929515Y-105877356D01*
X174863221Y-105899421D01*
X174858795Y-105899500D01*
X174249097Y-105899500D01*
X174182058Y-105879815D01*
X174136303Y-105827011D01*
X174126359Y-105757853D01*
X174155384Y-105694297D01*
X174161416Y-105687819D01*
X174407362Y-105441873D01*
X175837334Y-104011899D01*
X175898655Y-103978416D01*
X175968346Y-103983400D01*
X175972455Y-103985016D01*
X176137793Y-104053502D01*
X176378435Y-104117982D01*
X176625435Y-104150500D01*
X176625442Y-104150500D01*
X176874558Y-104150500D01*
X176874565Y-104150500D01*
X177121565Y-104117982D01*
X177362207Y-104053502D01*
X177592373Y-103958164D01*
X177808127Y-103833599D01*
X178005776Y-103681938D01*
X178181938Y-103505776D01*
X178333599Y-103308127D01*
X178458164Y-103092373D01*
X178553502Y-102862207D01*
X178617982Y-102621565D01*
X178650500Y-102374565D01*
X178650500Y-102125435D01*
X178617982Y-101878435D01*
X178553502Y-101637793D01*
X178485465Y-101473537D01*
X178458169Y-101407638D01*
X178458162Y-101407623D01*
X178333599Y-101191873D01*
X178181939Y-100994225D01*
X178181933Y-100994218D01*
X178005781Y-100818066D01*
X178005774Y-100818060D01*
X177808126Y-100666400D01*
X177592376Y-100541837D01*
X177592361Y-100541830D01*
X177362207Y-100446498D01*
X177121561Y-100382017D01*
X176874575Y-100349501D01*
X176874570Y-100349500D01*
X176874565Y-100349500D01*
X176625435Y-100349500D01*
X176625429Y-100349500D01*
X176625424Y-100349501D01*
X176378438Y-100382017D01*
X176137792Y-100446498D01*
X175907638Y-100541830D01*
X175907623Y-100541837D01*
X175691873Y-100666400D01*
X175549986Y-100775273D01*
X175484816Y-100800467D01*
X175416372Y-100786428D01*
X175366382Y-100737614D01*
X175350500Y-100676897D01*
X175350500Y-100300096D01*
X175370185Y-100233057D01*
X175386815Y-100212419D01*
X175837334Y-99761899D01*
X175898655Y-99728416D01*
X175968346Y-99733400D01*
X175972455Y-99735016D01*
X176137793Y-99803502D01*
X176378435Y-99867982D01*
X176625435Y-99900500D01*
X176625442Y-99900500D01*
X176874558Y-99900500D01*
X176874565Y-99900500D01*
X177121565Y-99867982D01*
X177362207Y-99803502D01*
X177592373Y-99708164D01*
X177808127Y-99583599D01*
X178005776Y-99431938D01*
X178181938Y-99255776D01*
X178333599Y-99058127D01*
X178458164Y-98842373D01*
X178553502Y-98612207D01*
X178617982Y-98371565D01*
X178650500Y-98124565D01*
X178650500Y-97875435D01*
X178617982Y-97628435D01*
X178553502Y-97387793D01*
X178464950Y-97174010D01*
X178458169Y-97157638D01*
X178458162Y-97157623D01*
X178333599Y-96941873D01*
X178181939Y-96744225D01*
X178181933Y-96744218D01*
X178005781Y-96568066D01*
X178005774Y-96568060D01*
X177808126Y-96416400D01*
X177592376Y-96291837D01*
X177592361Y-96291830D01*
X177362207Y-96196498D01*
X177330253Y-96187936D01*
X177121565Y-96132018D01*
X177121564Y-96132017D01*
X177121561Y-96132017D01*
X176874575Y-96099501D01*
X176874570Y-96099500D01*
X176874565Y-96099500D01*
X176625435Y-96099500D01*
X176625429Y-96099500D01*
X176625424Y-96099501D01*
X176378438Y-96132017D01*
X176137792Y-96196498D01*
X175907638Y-96291830D01*
X175907623Y-96291837D01*
X175691873Y-96416400D01*
X175494225Y-96568060D01*
X175494218Y-96568066D01*
X175318066Y-96744218D01*
X175318060Y-96744225D01*
X175166400Y-96941873D01*
X175041837Y-97157623D01*
X175041833Y-97157633D01*
X175021961Y-97205609D01*
X174978120Y-97260012D01*
X174911826Y-97282077D01*
X174844127Y-97264798D01*
X174796516Y-97213661D01*
X174783400Y-97158156D01*
X174783400Y-96617197D01*
X174803085Y-96550158D01*
X174819719Y-96529516D01*
X175319916Y-96029319D01*
X175837335Y-95511899D01*
X175898656Y-95478416D01*
X175968348Y-95483400D01*
X175972435Y-95485008D01*
X176137793Y-95553502D01*
X176378435Y-95617982D01*
X176625435Y-95650500D01*
X176625442Y-95650500D01*
X176874558Y-95650500D01*
X176874565Y-95650500D01*
X177121565Y-95617982D01*
X177362207Y-95553502D01*
X177592373Y-95458164D01*
X177808127Y-95333599D01*
X178005776Y-95181938D01*
X178181938Y-95005776D01*
X178333599Y-94808127D01*
X178458164Y-94592373D01*
X178553502Y-94362207D01*
X178617982Y-94121565D01*
X178650500Y-93874565D01*
X178650500Y-93625435D01*
X178617982Y-93378435D01*
X178553502Y-93137793D01*
X178458164Y-92907627D01*
X178406465Y-92818082D01*
X178333599Y-92691873D01*
X178181939Y-92494225D01*
X178181933Y-92494218D01*
X178005781Y-92318066D01*
X178005774Y-92318060D01*
X177808126Y-92166400D01*
X177592376Y-92041837D01*
X177592361Y-92041830D01*
X177362207Y-91946498D01*
X177274470Y-91922989D01*
X177121565Y-91882018D01*
X177121564Y-91882017D01*
X177121561Y-91882017D01*
X176874575Y-91849501D01*
X176874570Y-91849500D01*
X176874565Y-91849500D01*
X176799098Y-91849500D01*
X176777855Y-91843262D01*
X176755770Y-91841684D01*
X176744983Y-91833610D01*
X176732059Y-91829815D01*
X176717562Y-91813085D01*
X176699835Y-91799816D01*
X176695125Y-91787191D01*
X176686304Y-91777011D01*
X176683153Y-91755098D01*
X176675414Y-91734352D01*
X176678277Y-91721187D01*
X176676360Y-91707853D01*
X176685557Y-91687712D01*
X176690263Y-91666079D01*
X176703534Y-91648349D01*
X176705385Y-91644297D01*
X176711398Y-91637837D01*
X176730520Y-91618716D01*
X176730521Y-91618713D01*
X176930218Y-91419015D01*
X176991539Y-91385532D01*
X177001689Y-91383763D01*
X177121565Y-91367982D01*
X177362207Y-91303502D01*
X177592373Y-91208164D01*
X177808127Y-91083599D01*
X178005776Y-90931938D01*
X178181938Y-90755776D01*
X178333599Y-90558127D01*
X178458164Y-90342373D01*
X178553502Y-90112207D01*
X178617982Y-89871565D01*
X178650500Y-89624565D01*
X178650500Y-89375435D01*
X178617982Y-89128435D01*
X178553502Y-88887793D01*
X178499253Y-88756825D01*
X178458169Y-88657638D01*
X178458162Y-88657623D01*
X178333599Y-88441873D01*
X178181939Y-88244225D01*
X178181933Y-88244218D01*
X178005781Y-88068066D01*
X178005774Y-88068060D01*
X177808126Y-87916400D01*
X177592376Y-87791837D01*
X177592361Y-87791830D01*
X177362207Y-87696498D01*
X177278329Y-87674023D01*
X177121565Y-87632018D01*
X177121564Y-87632017D01*
X177121561Y-87632017D01*
X176874575Y-87599501D01*
X176874570Y-87599500D01*
X176874565Y-87599500D01*
X176625435Y-87599500D01*
X176625429Y-87599500D01*
X176625424Y-87599501D01*
X176378438Y-87632017D01*
X176137792Y-87696498D01*
X175907638Y-87791830D01*
X175907623Y-87791837D01*
X175691873Y-87916400D01*
X175494225Y-88068060D01*
X175494218Y-88068066D01*
X175318066Y-88244218D01*
X175318060Y-88244225D01*
X175166400Y-88441873D01*
X175081887Y-88588256D01*
X175031320Y-88636471D01*
X174962713Y-88649695D01*
X174897849Y-88623727D01*
X174857320Y-88566813D01*
X174850500Y-88526256D01*
X174850500Y-86224500D01*
X174853050Y-86215814D01*
X174851762Y-86206853D01*
X174862740Y-86182812D01*
X174870185Y-86157461D01*
X174877025Y-86151533D01*
X174880787Y-86143297D01*
X174903021Y-86129007D01*
X174922989Y-86111706D01*
X174933503Y-86109418D01*
X174939565Y-86105523D01*
X174974500Y-86100500D01*
X174974936Y-86100500D01*
X175041975Y-86120185D01*
X175082323Y-86162500D01*
X175166400Y-86308126D01*
X175318060Y-86505774D01*
X175318066Y-86505781D01*
X175494218Y-86681933D01*
X175494225Y-86681939D01*
X175691873Y-86833599D01*
X175907623Y-86958162D01*
X175907638Y-86958169D01*
X175956343Y-86978343D01*
X176137793Y-87053502D01*
X176378435Y-87117982D01*
X176625435Y-87150500D01*
X176625442Y-87150500D01*
X176874558Y-87150500D01*
X176874565Y-87150500D01*
X177121565Y-87117982D01*
X177362207Y-87053502D01*
X177592373Y-86958164D01*
X177808127Y-86833599D01*
X178005776Y-86681938D01*
X178181938Y-86505776D01*
X178333599Y-86308127D01*
X178458164Y-86092373D01*
X178553502Y-85862207D01*
X178617982Y-85621565D01*
X178650500Y-85374565D01*
X178650500Y-85125435D01*
X178617982Y-84878435D01*
X178553502Y-84637793D01*
X178486699Y-84476516D01*
X178458169Y-84407638D01*
X178458162Y-84407623D01*
X178333599Y-84191873D01*
X178181939Y-83994225D01*
X178181933Y-83994218D01*
X178005781Y-83818066D01*
X178005774Y-83818060D01*
X177808126Y-83666400D01*
X177592376Y-83541837D01*
X177592361Y-83541830D01*
X177362207Y-83446498D01*
X177121561Y-83382017D01*
X176874575Y-83349501D01*
X176874570Y-83349500D01*
X176874565Y-83349500D01*
X176625435Y-83349500D01*
X176625429Y-83349500D01*
X176625424Y-83349501D01*
X176378438Y-83382017D01*
X176137792Y-83446498D01*
X175907638Y-83541830D01*
X175907623Y-83541837D01*
X175691873Y-83666400D01*
X175494225Y-83818060D01*
X175494218Y-83818066D01*
X175318066Y-83994218D01*
X175318060Y-83994225D01*
X175166400Y-84191873D01*
X175041837Y-84407623D01*
X175041830Y-84407638D01*
X174952480Y-84623350D01*
X174946498Y-84637793D01*
X174909600Y-84775500D01*
X174901000Y-84807594D01*
X174864635Y-84867254D01*
X174801788Y-84897783D01*
X174781225Y-84899500D01*
X174474500Y-84899500D01*
X174407461Y-84879815D01*
X174361706Y-84827011D01*
X174350500Y-84775500D01*
X174350500Y-84550097D01*
X174370185Y-84483058D01*
X174386819Y-84462416D01*
X175182835Y-83666400D01*
X176014566Y-82834668D01*
X176075887Y-82801185D01*
X176134339Y-82802576D01*
X176137789Y-82803500D01*
X176137793Y-82803502D01*
X176378435Y-82867982D01*
X176625435Y-82900500D01*
X176625442Y-82900500D01*
X176874558Y-82900500D01*
X176874565Y-82900500D01*
X177121565Y-82867982D01*
X177362207Y-82803502D01*
X177592373Y-82708164D01*
X177808127Y-82583599D01*
X178005776Y-82431938D01*
X178181938Y-82255776D01*
X178333599Y-82058127D01*
X178458164Y-81842373D01*
X178553502Y-81612207D01*
X178617982Y-81371565D01*
X178650500Y-81124565D01*
X178650500Y-80875435D01*
X178617982Y-80628435D01*
X178553502Y-80387793D01*
X178458164Y-80157627D01*
X178405868Y-80067048D01*
X178333599Y-79941873D01*
X178181939Y-79744225D01*
X178181933Y-79744218D01*
X178005781Y-79568066D01*
X178005774Y-79568060D01*
X177808126Y-79416400D01*
X177592376Y-79291837D01*
X177592361Y-79291830D01*
X177362207Y-79196498D01*
X177121561Y-79132017D01*
X176874575Y-79099501D01*
X176874570Y-79099500D01*
X176874565Y-79099500D01*
X176625435Y-79099500D01*
X176625429Y-79099500D01*
X176625424Y-79099501D01*
X176378438Y-79132017D01*
X176137792Y-79196498D01*
X175907638Y-79291830D01*
X175907623Y-79291837D01*
X175691873Y-79416400D01*
X175494225Y-79568060D01*
X175494218Y-79568066D01*
X175318066Y-79744218D01*
X175318060Y-79744225D01*
X175166400Y-79941873D01*
X175041837Y-80157623D01*
X175041830Y-80157638D01*
X174946498Y-80387792D01*
X174882017Y-80628438D01*
X174849501Y-80875424D01*
X174849500Y-80875441D01*
X174849500Y-81124558D01*
X174849501Y-81124575D01*
X174882017Y-81371561D01*
X174946498Y-81612207D01*
X175041830Y-81842361D01*
X175041837Y-81842375D01*
X175091827Y-81928960D01*
X175108300Y-81996860D01*
X175085447Y-82062887D01*
X175072121Y-82078641D01*
X173812181Y-83338582D01*
X173750858Y-83372067D01*
X173681166Y-83367083D01*
X173625233Y-83325211D01*
X173600816Y-83259747D01*
X173600500Y-83250901D01*
X173600500Y-81050096D01*
X173620185Y-80983057D01*
X173636814Y-80962420D01*
X176211734Y-78387499D01*
X176273055Y-78354016D01*
X176331505Y-78355406D01*
X176378435Y-78367982D01*
X176625435Y-78400500D01*
X176625442Y-78400500D01*
X176874558Y-78400500D01*
X176874565Y-78400500D01*
X177121565Y-78367982D01*
X177362207Y-78303502D01*
X177592373Y-78208164D01*
X177808127Y-78083599D01*
X178005776Y-77931938D01*
X178181938Y-77755776D01*
X178333599Y-77558127D01*
X178458164Y-77342373D01*
X178553502Y-77112207D01*
X178617982Y-76871565D01*
X178650500Y-76624565D01*
X178650500Y-76375435D01*
X178617982Y-76128435D01*
X178553502Y-75887793D01*
X178458164Y-75657627D01*
X178333599Y-75441873D01*
X178181938Y-75244224D01*
X178181933Y-75244218D01*
X178005781Y-75068066D01*
X178005774Y-75068060D01*
X177808126Y-74916400D01*
X177592376Y-74791837D01*
X177592361Y-74791830D01*
X177362207Y-74696498D01*
X177121561Y-74632017D01*
X176874575Y-74599501D01*
X176874570Y-74599500D01*
X176874565Y-74599500D01*
X176625435Y-74599500D01*
X176625429Y-74599500D01*
X176625424Y-74599501D01*
X176378438Y-74632017D01*
X176137792Y-74696498D01*
X175907638Y-74791830D01*
X175907623Y-74791837D01*
X175691873Y-74916400D01*
X175494225Y-75068060D01*
X175494218Y-75068066D01*
X175318066Y-75244218D01*
X175318060Y-75244225D01*
X175166400Y-75441873D01*
X175041837Y-75657623D01*
X175041830Y-75657638D01*
X174946498Y-75887792D01*
X174882017Y-76128438D01*
X174849501Y-76375424D01*
X174849500Y-76375441D01*
X174849500Y-76624558D01*
X174849501Y-76624575D01*
X174882017Y-76871561D01*
X174946498Y-77112207D01*
X175041830Y-77342361D01*
X175041837Y-77342376D01*
X175166399Y-77558125D01*
X175176719Y-77571574D01*
X175201912Y-77636743D01*
X175187873Y-77705188D01*
X175166023Y-77734740D01*
X172634694Y-80266069D01*
X172634688Y-80266075D01*
X172631286Y-80269478D01*
X172631284Y-80269480D01*
X172519480Y-80381284D01*
X172490726Y-80431088D01*
X172440423Y-80518215D01*
X172399499Y-80670943D01*
X172399499Y-80670945D01*
X172399499Y-80839046D01*
X172399500Y-80839059D01*
X172399500Y-89025500D01*
X172379815Y-89092539D01*
X172327011Y-89138294D01*
X172275500Y-89149500D01*
X156377757Y-89149500D01*
X156219642Y-89149500D01*
X156066915Y-89190423D01*
X156066914Y-89190423D01*
X156066912Y-89190424D01*
X156066909Y-89190425D01*
X156023615Y-89215422D01*
X156023613Y-89215423D01*
X155929990Y-89269475D01*
X155929982Y-89269481D01*
X149869481Y-95329982D01*
X149869479Y-95329985D01*
X149851165Y-95361706D01*
X149828512Y-95400943D01*
X149824749Y-95407461D01*
X149795473Y-95458169D01*
X149790423Y-95466915D01*
X149752728Y-95607594D01*
X149738234Y-95631370D01*
X149726666Y-95656703D01*
X149720299Y-95660794D01*
X149716362Y-95667254D01*
X149691318Y-95679419D01*
X149667888Y-95694477D01*
X149657139Y-95696022D01*
X149653515Y-95697783D01*
X149632953Y-95699500D01*
X149484702Y-95699500D01*
X149417663Y-95679815D01*
X149381600Y-95644391D01*
X149332952Y-95571585D01*
X149288035Y-95526668D01*
X149228416Y-95467049D01*
X147170757Y-93409390D01*
X140878421Y-87117052D01*
X140878414Y-87117046D01*
X140783311Y-87053501D01*
X140783311Y-87053502D01*
X140755495Y-87034916D01*
X140755492Y-87034914D01*
X140755491Y-87034914D01*
X140618917Y-86978343D01*
X140618907Y-86978340D01*
X140473920Y-86949500D01*
X140473918Y-86949500D01*
X134229500Y-86949500D01*
X134162461Y-86929815D01*
X134116706Y-86877011D01*
X134105500Y-86825500D01*
X134105500Y-69174010D01*
X134105500Y-69174000D01*
X134093947Y-69066544D01*
X134082741Y-69015033D01*
X134082637Y-69014722D01*
X134048616Y-68912502D01*
X134048613Y-68912496D01*
X133970828Y-68791462D01*
X133970825Y-68791457D01*
X133970820Y-68791451D01*
X133925076Y-68738659D01*
X133925072Y-68738656D01*
X133925070Y-68738653D01*
X133816336Y-68644433D01*
X133816333Y-68644431D01*
X133816331Y-68644430D01*
X133685465Y-68584664D01*
X133685460Y-68584662D01*
X133685459Y-68584662D01*
X133618420Y-68564977D01*
X133618422Y-68564977D01*
X133618417Y-68564976D01*
X133556347Y-68556052D01*
X133476000Y-68544500D01*
X123124000Y-68544500D01*
X123123991Y-68544500D01*
X123123990Y-68544501D01*
X123016549Y-68556052D01*
X123016537Y-68556054D01*
X122965027Y-68567260D01*
X122862502Y-68601383D01*
X122862496Y-68601386D01*
X122741462Y-68679171D01*
X122741451Y-68679179D01*
X122688659Y-68724923D01*
X122594433Y-68833664D01*
X122594430Y-68833668D01*
X122534664Y-68964534D01*
X122514976Y-69031582D01*
X122509949Y-69066549D01*
X122494502Y-69173990D01*
X122494500Y-69174001D01*
X122494500Y-79775500D01*
X122474815Y-79842539D01*
X122422011Y-79888294D01*
X122370500Y-79899500D01*
X117576080Y-79899500D01*
X117431092Y-79928340D01*
X117431082Y-79928343D01*
X117294511Y-79984912D01*
X117294498Y-79984919D01*
X117171584Y-80067048D01*
X117171580Y-80067051D01*
X116517045Y-80721586D01*
X116485048Y-80769477D01*
X116485046Y-80769480D01*
X116434919Y-80844498D01*
X116434912Y-80844511D01*
X116378343Y-80981082D01*
X116378340Y-80981091D01*
X116360638Y-81070083D01*
X116328252Y-81131994D01*
X116267536Y-81166567D01*
X116200019Y-81163596D01*
X116082211Y-81124558D01*
X116037751Y-81109825D01*
X115936678Y-81099500D01*
X115363330Y-81099500D01*
X115363312Y-81099501D01*
X115262247Y-81109825D01*
X115098484Y-81164092D01*
X115098481Y-81164093D01*
X114951648Y-81254661D01*
X114829660Y-81376649D01*
X114825179Y-81382317D01*
X114824057Y-81381430D01*
X114778063Y-81422791D01*
X114709099Y-81434006D01*
X114659387Y-81416503D01*
X114612289Y-81387452D01*
X114612284Y-81387450D01*
X114610876Y-81386983D01*
X114452685Y-81334564D01*
X114452683Y-81334563D01*
X114354181Y-81324500D01*
X114354174Y-81324500D01*
X113745826Y-81324500D01*
X113745818Y-81324500D01*
X113647316Y-81334563D01*
X113647315Y-81334564D01*
X113568219Y-81360773D01*
X113487715Y-81387450D01*
X113487704Y-81387455D01*
X113344612Y-81475716D01*
X113344608Y-81475719D01*
X113225719Y-81594608D01*
X113225716Y-81594612D01*
X113137455Y-81737704D01*
X113137451Y-81737713D01*
X113084564Y-81897315D01*
X113084564Y-81897316D01*
X113084563Y-81897316D01*
X113074500Y-81995818D01*
X113074500Y-82529181D01*
X113084563Y-82627683D01*
X113137450Y-82787284D01*
X113137455Y-82787295D01*
X113225716Y-82930387D01*
X113225719Y-82930391D01*
X113344608Y-83049280D01*
X113344612Y-83049283D01*
X113487704Y-83137544D01*
X113487707Y-83137545D01*
X113487713Y-83137549D01*
X113647315Y-83190436D01*
X113745826Y-83200500D01*
X113745831Y-83200500D01*
X114354169Y-83200500D01*
X114354174Y-83200500D01*
X114452685Y-83190436D01*
X114611807Y-83137707D01*
X114681630Y-83135306D01*
X114741672Y-83171037D01*
X114772865Y-83233557D01*
X114765305Y-83303017D01*
X114756347Y-83320508D01*
X114741972Y-83343814D01*
X114739092Y-83348484D01*
X114684826Y-83512247D01*
X114684826Y-83512248D01*
X114684825Y-83512248D01*
X114674500Y-83613315D01*
X114674500Y-84211669D01*
X114674501Y-84211687D01*
X114684825Y-84312752D01*
X114716263Y-84407623D01*
X114739092Y-84476516D01*
X114829660Y-84623350D01*
X114951650Y-84745340D01*
X115098484Y-84835908D01*
X115262247Y-84890174D01*
X115363323Y-84900500D01*
X115936676Y-84900499D01*
X115936684Y-84900498D01*
X115936687Y-84900498D01*
X115992030Y-84894844D01*
X116037753Y-84890174D01*
X116136498Y-84857452D01*
X116164960Y-84856473D01*
X116193147Y-84852421D01*
X116199425Y-84855288D01*
X116206323Y-84855051D01*
X116230796Y-84869614D01*
X116256703Y-84881446D01*
X116260434Y-84887252D01*
X116266366Y-84890782D01*
X116279082Y-84916268D01*
X116294477Y-84940224D01*
X116295870Y-84949918D01*
X116297559Y-84953302D01*
X116299500Y-84975159D01*
X116299500Y-85037769D01*
X116279815Y-85104808D01*
X116263181Y-85125450D01*
X116087665Y-85300965D01*
X116026342Y-85334450D01*
X115956650Y-85329466D01*
X115952532Y-85327845D01*
X115937222Y-85321503D01*
X115937209Y-85321499D01*
X115937210Y-85321499D01*
X115937207Y-85321498D01*
X115696565Y-85257018D01*
X115696564Y-85257017D01*
X115696561Y-85257017D01*
X115449575Y-85224501D01*
X115449570Y-85224500D01*
X115449565Y-85224500D01*
X115200435Y-85224500D01*
X115200429Y-85224500D01*
X115200424Y-85224501D01*
X114953438Y-85257017D01*
X114712792Y-85321498D01*
X114482638Y-85416830D01*
X114482623Y-85416837D01*
X114266873Y-85541400D01*
X114069225Y-85693060D01*
X114069218Y-85693066D01*
X113893066Y-85869218D01*
X113893060Y-85869225D01*
X113741400Y-86066873D01*
X113616837Y-86282623D01*
X113616830Y-86282638D01*
X113521498Y-86512792D01*
X113457017Y-86753438D01*
X113424501Y-87000424D01*
X113424500Y-87000441D01*
X113424500Y-87249558D01*
X113424501Y-87249575D01*
X113457017Y-87496561D01*
X113521498Y-87737207D01*
X113616830Y-87967361D01*
X113616837Y-87967376D01*
X113741400Y-88183126D01*
X113893060Y-88380774D01*
X113893066Y-88380781D01*
X114069218Y-88556933D01*
X114069225Y-88556939D01*
X114266873Y-88708599D01*
X114482623Y-88833162D01*
X114482638Y-88833169D01*
X114581825Y-88874253D01*
X114712793Y-88928502D01*
X114953435Y-88992982D01*
X115200435Y-89025500D01*
X115200442Y-89025500D01*
X115449558Y-89025500D01*
X115449565Y-89025500D01*
X115696565Y-88992982D01*
X115937207Y-88928502D01*
X116167373Y-88833164D01*
X116383127Y-88708599D01*
X116580776Y-88556938D01*
X116756938Y-88380776D01*
X116908599Y-88183127D01*
X117033164Y-87967373D01*
X117128502Y-87737207D01*
X117192982Y-87496565D01*
X117225500Y-87249565D01*
X117225500Y-87000435D01*
X117192982Y-86753435D01*
X117128502Y-86512793D01*
X117125598Y-86505781D01*
X117122154Y-86497467D01*
X117114685Y-86427998D01*
X117145960Y-86365518D01*
X117149034Y-86362333D01*
X117632948Y-85878419D01*
X117632951Y-85878416D01*
X117715084Y-85755495D01*
X117771658Y-85618913D01*
X117781096Y-85571462D01*
X117800500Y-85473920D01*
X117800500Y-84269659D01*
X117809939Y-84222206D01*
X117814296Y-84211687D01*
X117821659Y-84193912D01*
X117850500Y-84048917D01*
X117850500Y-83901082D01*
X117850500Y-81562229D01*
X117859144Y-81532788D01*
X117865668Y-81502802D01*
X117869422Y-81497786D01*
X117870185Y-81495190D01*
X117886819Y-81474548D01*
X117924548Y-81436819D01*
X117985871Y-81403334D01*
X118012229Y-81400500D01*
X120620500Y-81400500D01*
X120687539Y-81420185D01*
X120733294Y-81472989D01*
X120744500Y-81524500D01*
X120744500Y-85798527D01*
X120763679Y-85936445D01*
X120782141Y-86001543D01*
X120838218Y-86128992D01*
X120840950Y-86133421D01*
X120853110Y-86159501D01*
X120863469Y-86190760D01*
X120869120Y-86217141D01*
X120869355Y-86219437D01*
X120869999Y-86232063D01*
X120869999Y-86767932D01*
X120869357Y-86780536D01*
X120869122Y-86782836D01*
X120863471Y-86809232D01*
X120856399Y-86830573D01*
X120856398Y-86830578D01*
X120831446Y-86962864D01*
X120829458Y-87000441D01*
X120827987Y-87028228D01*
X120835243Y-87117982D01*
X120838833Y-87162396D01*
X120867524Y-87239319D01*
X120872508Y-87309010D01*
X120839023Y-87370333D01*
X120777700Y-87403818D01*
X120738741Y-87406010D01*
X120675012Y-87399500D01*
X119624998Y-87399500D01*
X119624980Y-87399501D01*
X119522203Y-87410000D01*
X119522200Y-87410001D01*
X119355668Y-87465185D01*
X119355663Y-87465187D01*
X119206342Y-87557289D01*
X119082289Y-87681342D01*
X118990187Y-87830663D01*
X118990186Y-87830666D01*
X118935001Y-87997203D01*
X118935001Y-87997204D01*
X118935000Y-87997204D01*
X118924500Y-88099983D01*
X118924500Y-88700001D01*
X118924501Y-88700019D01*
X118935000Y-88802796D01*
X118935001Y-88802799D01*
X118990185Y-88969331D01*
X118990187Y-88969336D01*
X119004772Y-88992982D01*
X119082288Y-89118656D01*
X119206344Y-89242712D01*
X119355666Y-89334814D01*
X119522203Y-89389999D01*
X119624991Y-89400500D01*
X120675008Y-89400499D01*
X120675016Y-89400498D01*
X120675019Y-89400498D01*
X120731302Y-89394748D01*
X120777797Y-89389999D01*
X120944334Y-89334814D01*
X121093656Y-89242712D01*
X121217712Y-89118656D01*
X121308229Y-88971902D01*
X121315816Y-88965078D01*
X121320055Y-88955797D01*
X121341354Y-88942108D01*
X121360177Y-88925179D01*
X121371812Y-88922534D01*
X121378833Y-88918023D01*
X121413768Y-88913000D01*
X121457492Y-88913000D01*
X121524531Y-88932685D01*
X121563029Y-88971901D01*
X121607288Y-89043656D01*
X121731344Y-89167712D01*
X121880666Y-89259814D01*
X122047203Y-89314999D01*
X122149991Y-89325500D01*
X122391096Y-89325499D01*
X122458134Y-89345183D01*
X122503889Y-89397987D01*
X122513833Y-89467146D01*
X122484808Y-89530701D01*
X122453098Y-89556885D01*
X122431285Y-89569479D01*
X122431282Y-89569481D01*
X122319478Y-89681286D01*
X122087584Y-89913181D01*
X122026261Y-89946666D01*
X121999903Y-89949500D01*
X121834298Y-89949500D01*
X121797432Y-89952401D01*
X121797426Y-89952402D01*
X121639606Y-89998254D01*
X121639603Y-89998255D01*
X121498137Y-90081917D01*
X121498129Y-90081923D01*
X121381923Y-90198129D01*
X121381917Y-90198137D01*
X121298255Y-90339603D01*
X121298254Y-90339606D01*
X121252402Y-90497426D01*
X121252401Y-90497432D01*
X121249500Y-90534298D01*
X121249500Y-90852568D01*
X121245619Y-90865783D01*
X121246534Y-90879527D01*
X121235969Y-90898648D01*
X121229815Y-90919607D01*
X121218700Y-90929903D01*
X121212745Y-90940683D01*
X121190431Y-90956093D01*
X121184386Y-90961694D01*
X121178451Y-90964896D01*
X121176160Y-90965751D01*
X121116625Y-90998258D01*
X121116256Y-90998458D01*
X121116220Y-90998465D01*
X121115321Y-90998935D01*
X121114838Y-90999233D01*
X120999656Y-91085458D01*
X120999644Y-91085469D01*
X120928865Y-91156248D01*
X120892708Y-91196504D01*
X120892673Y-91196545D01*
X120876058Y-91217167D01*
X120844531Y-91260874D01*
X120844527Y-91260880D01*
X120843509Y-91263107D01*
X120843508Y-91263106D01*
X120839838Y-91271134D01*
X120821503Y-91299672D01*
X120798050Y-91362547D01*
X120796196Y-91366604D01*
X120796190Y-91366621D01*
X120784714Y-91391728D01*
X120776824Y-91418559D01*
X120776823Y-91418558D01*
X120775587Y-91422769D01*
X120771220Y-91434480D01*
X120768538Y-91446804D01*
X120767292Y-91451055D01*
X120767290Y-91451057D01*
X120767284Y-91451082D01*
X120764974Y-91458949D01*
X120744500Y-91601361D01*
X120744500Y-91601362D01*
X120744500Y-93676000D01*
X120744501Y-93676009D01*
X120756052Y-93783450D01*
X120756054Y-93783462D01*
X120767260Y-93834972D01*
X120801383Y-93937497D01*
X120801386Y-93937503D01*
X120879171Y-94058537D01*
X120879179Y-94058548D01*
X120924923Y-94111340D01*
X120924926Y-94111343D01*
X120924930Y-94111347D01*
X121033664Y-94205567D01*
X121033667Y-94205568D01*
X121033668Y-94205569D01*
X121131700Y-94250340D01*
X121164541Y-94265338D01*
X121231580Y-94285023D01*
X121231584Y-94285024D01*
X121374000Y-94305500D01*
X123985902Y-94305500D01*
X124052941Y-94325185D01*
X124098696Y-94377989D01*
X124108640Y-94447147D01*
X124079615Y-94510703D01*
X124073583Y-94517181D01*
X123479481Y-95111282D01*
X123479479Y-95111284D01*
X123456227Y-95151559D01*
X123446399Y-95168583D01*
X123400423Y-95248215D01*
X123359499Y-95400943D01*
X123359499Y-95400944D01*
X123359499Y-95569046D01*
X123359500Y-95569059D01*
X123359500Y-96400500D01*
X123339815Y-96467539D01*
X123287011Y-96513294D01*
X123235500Y-96524500D01*
X123154000Y-96524500D01*
X123153991Y-96524500D01*
X123153990Y-96524501D01*
X123046549Y-96536052D01*
X123046537Y-96536054D01*
X122995027Y-96547260D01*
X122892502Y-96581383D01*
X122892496Y-96581386D01*
X122771462Y-96659171D01*
X122771451Y-96659179D01*
X122718659Y-96704923D01*
X122624433Y-96813664D01*
X122624430Y-96813668D01*
X122564664Y-96944534D01*
X122544976Y-97011582D01*
X122542100Y-97031584D01*
X122524500Y-97154000D01*
X122524500Y-100946000D01*
X122524501Y-100946009D01*
X122536052Y-101053450D01*
X122536054Y-101053462D01*
X122547260Y-101104972D01*
X122581383Y-101207497D01*
X122581386Y-101207503D01*
X122659171Y-101328537D01*
X122659179Y-101328548D01*
X122704923Y-101381340D01*
X122704926Y-101381343D01*
X122704930Y-101381347D01*
X122813664Y-101475567D01*
X122813667Y-101475568D01*
X122813668Y-101475569D01*
X122907925Y-101518616D01*
X122944541Y-101535338D01*
X123011580Y-101555023D01*
X123011584Y-101555024D01*
X123154000Y-101575500D01*
X123154003Y-101575500D01*
X133365990Y-101575500D01*
X133366000Y-101575500D01*
X133473456Y-101563947D01*
X133524967Y-101552741D01*
X133561517Y-101540576D01*
X133627497Y-101518616D01*
X133627501Y-101518613D01*
X133627504Y-101518613D01*
X133748543Y-101440825D01*
X133801347Y-101395070D01*
X133895567Y-101286336D01*
X133955338Y-101155459D01*
X133975023Y-101088420D01*
X133975024Y-101088416D01*
X133995500Y-100946000D01*
X133995500Y-95474500D01*
X134015185Y-95407461D01*
X134067989Y-95361706D01*
X134119500Y-95350500D01*
X144989903Y-95350500D01*
X145019343Y-95359144D01*
X145049330Y-95365668D01*
X145054345Y-95369422D01*
X145056942Y-95370185D01*
X145077584Y-95386819D01*
X145197986Y-95507221D01*
X145231471Y-95568544D01*
X145226487Y-95638236D01*
X145184615Y-95694169D01*
X145153639Y-95711084D01*
X145032669Y-95756203D01*
X145032664Y-95756206D01*
X144917455Y-95842452D01*
X144917452Y-95842455D01*
X144831206Y-95957664D01*
X144831202Y-95957671D01*
X144780908Y-96092517D01*
X144776336Y-96135049D01*
X144774501Y-96152123D01*
X144774500Y-96152135D01*
X144774500Y-97747870D01*
X144774501Y-97747876D01*
X144780908Y-97807483D01*
X144817682Y-97906076D01*
X144825500Y-97949409D01*
X144825500Y-99350500D01*
X144805815Y-99417539D01*
X144753011Y-99463294D01*
X144701500Y-99474500D01*
X144583467Y-99474500D01*
X144452969Y-99500458D01*
X144452959Y-99500461D01*
X144330038Y-99551376D01*
X144330020Y-99551386D01*
X144219398Y-99625301D01*
X144219390Y-99625307D01*
X144125307Y-99719390D01*
X144125301Y-99719398D01*
X144051386Y-99830020D01*
X144051376Y-99830038D01*
X144000461Y-99952959D01*
X144000458Y-99952969D01*
X143974500Y-100083466D01*
X143974500Y-100083469D01*
X143974500Y-100216531D01*
X143974500Y-100216533D01*
X143974499Y-100216533D01*
X144000458Y-100347030D01*
X144000461Y-100347040D01*
X144051376Y-100469961D01*
X144051386Y-100469979D01*
X144125301Y-100580601D01*
X144125307Y-100580609D01*
X144219390Y-100674692D01*
X144219398Y-100674698D01*
X144330020Y-100748613D01*
X144330023Y-100748614D01*
X144330031Y-100748620D01*
X144330037Y-100748622D01*
X144330038Y-100748623D01*
X144452959Y-100799538D01*
X144452964Y-100799540D01*
X144452968Y-100799540D01*
X144452969Y-100799541D01*
X144583466Y-100825500D01*
X144650500Y-100825500D01*
X144717539Y-100845185D01*
X144763294Y-100897989D01*
X144774500Y-100949500D01*
X144774500Y-101473537D01*
X144754815Y-101540576D01*
X144738181Y-101561218D01*
X143676219Y-102623181D01*
X143614896Y-102656666D01*
X143588538Y-102659500D01*
X120732230Y-102659500D01*
X120665191Y-102639815D01*
X120644549Y-102623181D01*
X120411819Y-102390451D01*
X120378334Y-102329128D01*
X120375500Y-102302770D01*
X120375500Y-97174010D01*
X120375500Y-97174000D01*
X120363947Y-97066544D01*
X120352741Y-97015033D01*
X120351592Y-97011580D01*
X120318616Y-96912502D01*
X120318613Y-96912496D01*
X120240828Y-96791462D01*
X120240825Y-96791457D01*
X120240820Y-96791451D01*
X120195076Y-96738659D01*
X120195072Y-96738656D01*
X120195070Y-96738653D01*
X120086336Y-96644433D01*
X120086333Y-96644431D01*
X120086331Y-96644430D01*
X119955465Y-96584664D01*
X119955460Y-96584662D01*
X119955459Y-96584662D01*
X119898926Y-96568062D01*
X119888417Y-96564976D01*
X119826347Y-96556052D01*
X119746000Y-96544500D01*
X119745998Y-96544500D01*
X115054500Y-96544500D01*
X114987461Y-96524815D01*
X114941706Y-96472011D01*
X114930500Y-96420500D01*
X114930500Y-96198116D01*
X114950185Y-96131077D01*
X115002989Y-96085322D01*
X115072147Y-96075378D01*
X115119593Y-96092575D01*
X115238484Y-96165908D01*
X115402247Y-96220174D01*
X115503323Y-96230500D01*
X116076676Y-96230499D01*
X116076684Y-96230498D01*
X116076687Y-96230498D01*
X116132030Y-96224844D01*
X116177753Y-96220174D01*
X116341516Y-96165908D01*
X116488350Y-96075340D01*
X116534371Y-96029319D01*
X116595694Y-95995834D01*
X116622052Y-95993000D01*
X118019466Y-95993000D01*
X118086505Y-96012685D01*
X118107147Y-96029319D01*
X118124608Y-96046780D01*
X118124612Y-96046783D01*
X118267704Y-96135044D01*
X118267707Y-96135045D01*
X118267713Y-96135049D01*
X118427315Y-96187936D01*
X118525826Y-96198000D01*
X118525831Y-96198000D01*
X119134169Y-96198000D01*
X119134174Y-96198000D01*
X119232685Y-96187936D01*
X119392287Y-96135049D01*
X119535391Y-96046781D01*
X119654281Y-95927891D01*
X119742549Y-95784787D01*
X119795436Y-95625185D01*
X119805500Y-95526674D01*
X119805500Y-94993326D01*
X119795436Y-94894815D01*
X119742549Y-94735213D01*
X119742545Y-94735207D01*
X119742544Y-94735204D01*
X119654283Y-94592112D01*
X119654280Y-94592108D01*
X119535391Y-94473219D01*
X119535387Y-94473216D01*
X119392295Y-94384955D01*
X119392289Y-94384952D01*
X119392287Y-94384951D01*
X119232685Y-94332064D01*
X119232683Y-94332063D01*
X119134181Y-94322000D01*
X119134174Y-94322000D01*
X118525826Y-94322000D01*
X118525818Y-94322000D01*
X118427316Y-94332063D01*
X118427315Y-94332064D01*
X118354001Y-94356358D01*
X118267715Y-94384950D01*
X118267704Y-94384955D01*
X118124091Y-94473538D01*
X118058994Y-94492000D01*
X116622052Y-94492000D01*
X116592611Y-94483355D01*
X116562625Y-94476832D01*
X116557609Y-94473077D01*
X116555013Y-94472315D01*
X116534371Y-94455681D01*
X116496371Y-94417681D01*
X116462886Y-94356358D01*
X116467870Y-94286666D01*
X116496371Y-94242319D01*
X116533124Y-94205566D01*
X116610340Y-94128350D01*
X116700908Y-93981516D01*
X116755174Y-93817753D01*
X116765500Y-93716677D01*
X116765499Y-93118324D01*
X116755174Y-93017247D01*
X116700908Y-92853484D01*
X116610340Y-92706650D01*
X116488350Y-92584660D01*
X116341730Y-92494224D01*
X116341518Y-92494093D01*
X116341513Y-92494091D01*
X116340069Y-92493612D01*
X116177753Y-92439826D01*
X116177751Y-92439825D01*
X116076678Y-92429500D01*
X115503330Y-92429500D01*
X115503312Y-92429501D01*
X115402247Y-92439825D01*
X115238484Y-92494092D01*
X115238481Y-92494093D01*
X115091648Y-92584661D01*
X115045629Y-92630681D01*
X114984306Y-92664166D01*
X114957948Y-92667000D01*
X114598580Y-92667000D01*
X114453592Y-92695840D01*
X114453582Y-92695843D01*
X114317007Y-92752414D01*
X114218730Y-92818081D01*
X114218729Y-92818082D01*
X114194081Y-92834550D01*
X113901564Y-93127067D01*
X113840241Y-93160552D01*
X113770549Y-93155568D01*
X113726202Y-93127067D01*
X112531856Y-91932721D01*
X112531849Y-91932715D01*
X112323801Y-91773075D01*
X112096700Y-91641958D01*
X112096690Y-91641954D01*
X111854419Y-91541602D01*
X111601112Y-91473728D01*
X111341121Y-91439501D01*
X111341120Y-91439501D01*
X111078880Y-91439501D01*
X111078879Y-91439501D01*
X110818887Y-91473728D01*
X110565580Y-91541602D01*
X110323309Y-91641954D01*
X110323299Y-91641958D01*
X110096198Y-91773075D01*
X109888150Y-91932715D01*
X109888143Y-91932721D01*
X109702721Y-92118143D01*
X109702715Y-92118150D01*
X109543075Y-92326198D01*
X109411958Y-92553299D01*
X109411954Y-92553309D01*
X109311602Y-92795580D01*
X109243728Y-93048887D01*
X109209501Y-93308879D01*
X109209501Y-93571120D01*
X109242600Y-93822547D01*
X109243729Y-93831116D01*
X109288752Y-93999142D01*
X109311602Y-94084419D01*
X109411954Y-94326690D01*
X109411958Y-94326700D01*
X109543075Y-94553801D01*
X109702715Y-94761849D01*
X109702721Y-94761856D01*
X110893181Y-95952315D01*
X110926666Y-96013638D01*
X110929500Y-96039996D01*
X110929500Y-96420500D01*
X110909815Y-96487539D01*
X110857011Y-96533294D01*
X110805500Y-96544500D01*
X110154000Y-96544500D01*
X110153991Y-96544500D01*
X110153990Y-96544501D01*
X110046549Y-96556052D01*
X110046537Y-96556054D01*
X109995027Y-96567260D01*
X109892502Y-96601383D01*
X109892496Y-96601386D01*
X109771462Y-96679171D01*
X109771451Y-96679179D01*
X109718659Y-96724923D01*
X109624433Y-96833664D01*
X109624430Y-96833668D01*
X109564664Y-96964534D01*
X109544976Y-97031582D01*
X109539949Y-97066549D01*
X109524500Y-97174000D01*
X109524500Y-102036000D01*
X109524501Y-102036009D01*
X109536052Y-102143450D01*
X109536054Y-102143462D01*
X109547260Y-102194972D01*
X109581383Y-102297497D01*
X109581386Y-102297503D01*
X109659171Y-102418537D01*
X109659179Y-102418548D01*
X109704923Y-102471340D01*
X109704926Y-102471343D01*
X109704930Y-102471347D01*
X109813664Y-102565567D01*
X109813667Y-102565568D01*
X109813668Y-102565569D01*
X109936270Y-102621561D01*
X109944541Y-102625338D01*
X110011580Y-102645023D01*
X110011584Y-102645024D01*
X110154000Y-102665500D01*
X115810500Y-102665500D01*
X115877539Y-102685185D01*
X115923294Y-102737989D01*
X115934500Y-102789500D01*
X115934500Y-108706000D01*
X115934501Y-108706009D01*
X115946052Y-108813450D01*
X115946054Y-108813462D01*
X115957260Y-108864972D01*
X115991383Y-108967497D01*
X115991386Y-108967503D01*
X116069171Y-109088537D01*
X116069179Y-109088548D01*
X116114923Y-109141340D01*
X116114926Y-109141343D01*
X116114930Y-109141347D01*
X116223664Y-109235567D01*
X116223667Y-109235568D01*
X116223668Y-109235569D01*
X116317925Y-109278616D01*
X116354541Y-109295338D01*
X116421580Y-109315023D01*
X116421584Y-109315024D01*
X116564000Y-109335500D01*
X116564003Y-109335500D01*
X119745990Y-109335500D01*
X119746000Y-109335500D01*
X119853456Y-109323947D01*
X119904967Y-109312741D01*
X119939197Y-109301347D01*
X120007497Y-109278616D01*
X120007501Y-109278613D01*
X120007504Y-109278613D01*
X120128543Y-109200825D01*
X120181347Y-109155070D01*
X120275567Y-109046336D01*
X120335338Y-108915459D01*
X120355023Y-108848420D01*
X120355024Y-108848416D01*
X120375500Y-108706000D01*
X120375500Y-104284500D01*
X120395185Y-104217461D01*
X120447989Y-104171706D01*
X120499500Y-104160500D01*
X122591657Y-104160500D01*
X122658696Y-104180185D01*
X122704451Y-104232989D01*
X122714395Y-104302147D01*
X122685370Y-104365703D01*
X122658697Y-104388815D01*
X122611462Y-104419171D01*
X122611451Y-104419179D01*
X122558659Y-104464923D01*
X122464433Y-104573664D01*
X122464430Y-104573668D01*
X122404664Y-104704534D01*
X122384976Y-104771582D01*
X122372587Y-104857755D01*
X122364500Y-104914000D01*
X122364500Y-108686000D01*
X122364501Y-108686009D01*
X122376052Y-108793450D01*
X122376054Y-108793462D01*
X122387260Y-108844972D01*
X122421383Y-108947497D01*
X122421386Y-108947503D01*
X122499171Y-109068537D01*
X122499179Y-109068548D01*
X122544923Y-109121340D01*
X122544926Y-109121343D01*
X122544930Y-109121347D01*
X122653664Y-109215567D01*
X122653667Y-109215568D01*
X122653668Y-109215569D01*
X122697456Y-109235567D01*
X122784541Y-109275338D01*
X122851580Y-109295023D01*
X122851584Y-109295024D01*
X122994000Y-109315500D01*
X124670500Y-109315500D01*
X124737539Y-109335185D01*
X124783294Y-109387989D01*
X124794500Y-109439500D01*
X124794500Y-110796000D01*
X124794501Y-110796009D01*
X124806052Y-110903450D01*
X124806054Y-110903462D01*
X124817260Y-110954972D01*
X124851383Y-111057497D01*
X124851386Y-111057503D01*
X124880433Y-111102700D01*
X124900118Y-111169740D01*
X124888912Y-111221252D01*
X124834664Y-111340034D01*
X124818874Y-111393810D01*
X124814977Y-111407080D01*
X124814976Y-111407084D01*
X124794622Y-111548655D01*
X124794500Y-111549501D01*
X124794500Y-111754179D01*
X124774815Y-111821218D01*
X124722011Y-111866973D01*
X124652853Y-111876917D01*
X124589297Y-111847892D01*
X124567399Y-111823071D01*
X124551791Y-111799714D01*
X124551786Y-111799707D01*
X124440292Y-111688213D01*
X124440288Y-111688210D01*
X124309185Y-111600609D01*
X124309172Y-111600602D01*
X124163501Y-111540264D01*
X124163489Y-111540261D01*
X124008845Y-111509500D01*
X124008842Y-111509500D01*
X123851158Y-111509500D01*
X123851155Y-111509500D01*
X123696510Y-111540261D01*
X123696498Y-111540264D01*
X123550827Y-111600602D01*
X123550814Y-111600609D01*
X123419711Y-111688210D01*
X123419707Y-111688213D01*
X123308213Y-111799707D01*
X123308210Y-111799711D01*
X123220609Y-111930814D01*
X123220602Y-111930827D01*
X123160264Y-112076498D01*
X123160261Y-112076510D01*
X123129500Y-112231153D01*
X123128903Y-112237218D01*
X123127600Y-112237089D01*
X123109815Y-112297660D01*
X123070599Y-112336158D01*
X123036346Y-112357285D01*
X122912289Y-112481342D01*
X122820187Y-112630663D01*
X122820186Y-112630666D01*
X122811969Y-112655460D01*
X122772198Y-112712903D01*
X122707682Y-112739726D01*
X122645016Y-112730254D01*
X122640397Y-112728255D01*
X122482573Y-112682402D01*
X122482567Y-112682401D01*
X122445701Y-112679500D01*
X122445694Y-112679500D01*
X121914306Y-112679500D01*
X121914298Y-112679500D01*
X121877432Y-112682401D01*
X121877426Y-112682402D01*
X121719606Y-112728254D01*
X121719603Y-112728255D01*
X121578137Y-112811917D01*
X121578129Y-112811923D01*
X121461923Y-112928129D01*
X121461917Y-112928137D01*
X121378255Y-113069603D01*
X121378254Y-113069606D01*
X121332402Y-113227426D01*
X121332401Y-113227432D01*
X121329500Y-113264298D01*
X121329500Y-113695701D01*
X121332401Y-113732565D01*
X121332614Y-113733728D01*
X121332544Y-113734385D01*
X121332899Y-113738886D01*
X121332063Y-113738951D01*
X121325296Y-113803213D01*
X121284943Y-113855276D01*
X121224869Y-113900247D01*
X121224848Y-113900265D01*
X121098865Y-114026248D01*
X121062708Y-114066504D01*
X121062669Y-114066549D01*
X121046064Y-114087159D01*
X121046057Y-114087167D01*
X121014476Y-114130958D01*
X121014474Y-114130962D01*
X121013469Y-114133162D01*
X121009793Y-114141207D01*
X120991508Y-114169664D01*
X120968008Y-114232661D01*
X120966164Y-114236699D01*
X120954686Y-114261822D01*
X120946860Y-114288458D01*
X120945619Y-114292683D01*
X120941223Y-114304471D01*
X120938537Y-114316811D01*
X120937291Y-114321059D01*
X120934974Y-114328952D01*
X120914500Y-114471361D01*
X120914500Y-115210500D01*
X120894815Y-115277539D01*
X120842011Y-115323294D01*
X120790500Y-115334500D01*
X120409998Y-115334500D01*
X120409980Y-115334501D01*
X120307203Y-115345000D01*
X120307200Y-115345001D01*
X120140668Y-115400185D01*
X120140663Y-115400187D01*
X119991342Y-115492289D01*
X119867289Y-115616342D01*
X119775187Y-115765663D01*
X119775186Y-115765666D01*
X119720001Y-115932203D01*
X119720001Y-115932204D01*
X119720000Y-115932204D01*
X119709500Y-116034983D01*
X119709500Y-117085001D01*
X119709501Y-117085019D01*
X119720000Y-117187796D01*
X119720001Y-117187799D01*
X119733924Y-117229815D01*
X119775186Y-117354334D01*
X119837057Y-117454644D01*
X119867289Y-117503657D01*
X119922133Y-117558501D01*
X119955618Y-117619824D01*
X119950634Y-117689516D01*
X119939991Y-117711278D01*
X119860190Y-117840659D01*
X119860185Y-117840668D01*
X119857807Y-117847844D01*
X119805001Y-118007203D01*
X119805001Y-118007204D01*
X119805000Y-118007204D01*
X119794500Y-118109983D01*
X119794500Y-118109991D01*
X119794500Y-118523311D01*
X119794501Y-118845500D01*
X119774817Y-118912539D01*
X119722013Y-118958294D01*
X119670501Y-118969500D01*
X116669730Y-118969500D01*
X116640289Y-118960855D01*
X116610303Y-118954332D01*
X116605287Y-118950577D01*
X116602691Y-118949815D01*
X116582049Y-118933181D01*
X116466819Y-118817951D01*
X116433334Y-118756628D01*
X116430500Y-118730270D01*
X116430500Y-117459073D01*
X116450185Y-117392034D01*
X116502989Y-117346279D01*
X116507050Y-117344511D01*
X116507312Y-117344402D01*
X116522373Y-117338164D01*
X116738127Y-117213599D01*
X116935776Y-117061938D01*
X117111938Y-116885776D01*
X117263599Y-116688127D01*
X117388164Y-116472373D01*
X117483502Y-116242207D01*
X117547982Y-116001565D01*
X117580500Y-115754565D01*
X117580500Y-115505435D01*
X117547982Y-115258435D01*
X117483502Y-115017793D01*
X117388164Y-114787627D01*
X117263599Y-114571873D01*
X117111939Y-114374225D01*
X117111933Y-114374218D01*
X116935781Y-114198066D01*
X116935774Y-114198060D01*
X116738126Y-114046400D01*
X116522376Y-113921837D01*
X116522361Y-113921830D01*
X116292207Y-113826498D01*
X116197021Y-113800993D01*
X116051565Y-113762018D01*
X116051564Y-113762017D01*
X116051561Y-113762017D01*
X115804575Y-113729501D01*
X115804570Y-113729500D01*
X115804565Y-113729500D01*
X115555435Y-113729500D01*
X115555429Y-113729500D01*
X115555424Y-113729501D01*
X115308438Y-113762017D01*
X115067792Y-113826498D01*
X114837638Y-113921830D01*
X114837623Y-113921837D01*
X114621873Y-114046400D01*
X114424225Y-114198060D01*
X114424218Y-114198066D01*
X114248066Y-114374218D01*
X114248060Y-114374225D01*
X114096400Y-114571873D01*
X113971837Y-114787623D01*
X113971830Y-114787638D01*
X113876498Y-115017792D01*
X113812017Y-115258438D01*
X113779501Y-115505424D01*
X113779500Y-115505441D01*
X113779500Y-115754558D01*
X113779501Y-115754575D01*
X113780961Y-115765668D01*
X113812018Y-116001565D01*
X113848539Y-116137864D01*
X113876498Y-116242207D01*
X113971830Y-116472361D01*
X113971837Y-116472376D01*
X114096400Y-116688126D01*
X114248060Y-116885774D01*
X114248066Y-116885781D01*
X114424218Y-117061933D01*
X114424225Y-117061939D01*
X114621873Y-117213599D01*
X114837623Y-117338162D01*
X114837624Y-117338162D01*
X114837627Y-117338164D01*
X114852354Y-117344264D01*
X114852950Y-117344511D01*
X114907354Y-117388351D01*
X114929421Y-117454644D01*
X114929500Y-117459073D01*
X114929500Y-119166418D01*
X114929500Y-119166420D01*
X114929499Y-119166420D01*
X114958340Y-119311407D01*
X114958343Y-119311417D01*
X115014914Y-119447992D01*
X115014915Y-119447994D01*
X115014916Y-119447995D01*
X115047813Y-119497229D01*
X115097048Y-119570916D01*
X115162795Y-119636663D01*
X115166692Y-119641420D01*
X115178020Y-119668158D01*
X115191935Y-119693642D01*
X115191484Y-119699940D01*
X115193948Y-119705755D01*
X115189022Y-119734368D01*
X115186951Y-119763334D01*
X115182970Y-119769528D01*
X115182095Y-119774612D01*
X115174080Y-119783359D01*
X115158450Y-119807681D01*
X114582949Y-120383181D01*
X114521626Y-120416666D01*
X114495269Y-120419500D01*
X114333331Y-120419500D01*
X114333312Y-120419501D01*
X114232247Y-120429825D01*
X114068484Y-120484092D01*
X114068481Y-120484093D01*
X113921648Y-120574661D01*
X113799661Y-120696648D01*
X113709093Y-120843481D01*
X113709092Y-120843484D01*
X113654826Y-121007247D01*
X113654826Y-121007248D01*
X113654825Y-121007248D01*
X113644500Y-121108315D01*
X113644500Y-121706669D01*
X113644501Y-121706687D01*
X113654825Y-121807752D01*
X113709092Y-121971515D01*
X113709093Y-121971518D01*
X113799661Y-122118351D01*
X113913629Y-122232319D01*
X113917967Y-122240263D01*
X113925216Y-122245690D01*
X113934451Y-122270452D01*
X113947114Y-122293642D01*
X113946468Y-122302672D01*
X113949632Y-122311155D01*
X113944015Y-122336975D01*
X113942130Y-122363334D01*
X113936311Y-122372387D01*
X113934780Y-122379428D01*
X113913628Y-122407682D01*
X113854505Y-122466804D01*
X113793182Y-122500288D01*
X113723490Y-122495303D01*
X113702253Y-122483350D01*
X113701538Y-122484510D01*
X113552295Y-122392455D01*
X113552289Y-122392452D01*
X113552287Y-122392451D01*
X113392685Y-122339564D01*
X113392683Y-122339563D01*
X113294181Y-122329500D01*
X113294174Y-122329500D01*
X112685826Y-122329500D01*
X112685818Y-122329500D01*
X112587316Y-122339563D01*
X112587315Y-122339564D01*
X112515582Y-122363334D01*
X112427715Y-122392450D01*
X112427704Y-122392455D01*
X112284612Y-122480716D01*
X112284608Y-122480719D01*
X112165719Y-122599608D01*
X112165716Y-122599612D01*
X112077455Y-122742704D01*
X112077450Y-122742715D01*
X112050773Y-122823219D01*
X112024564Y-122902315D01*
X112024564Y-122902316D01*
X112024563Y-122902316D01*
X112014500Y-123000818D01*
X112014500Y-123534181D01*
X112024563Y-123632683D01*
X112077450Y-123792284D01*
X112077455Y-123792295D01*
X112165716Y-123935387D01*
X112165719Y-123935391D01*
X112284608Y-124054280D01*
X112284612Y-124054283D01*
X112427704Y-124142544D01*
X112427707Y-124142545D01*
X112427713Y-124142549D01*
X112587315Y-124195436D01*
X112685826Y-124205500D01*
X112685831Y-124205500D01*
X113294169Y-124205500D01*
X113294174Y-124205500D01*
X113392685Y-124195436D01*
X113552287Y-124142549D01*
X113695391Y-124054281D01*
X113695396Y-124054275D01*
X113701054Y-124049803D01*
X113701828Y-124050782D01*
X113722280Y-124039615D01*
X113748099Y-124023023D01*
X113754299Y-124022131D01*
X113756676Y-124020834D01*
X113783034Y-124018000D01*
X113822948Y-124018000D01*
X113889987Y-124037685D01*
X113910629Y-124054319D01*
X113921650Y-124065340D01*
X114068484Y-124155908D01*
X114232247Y-124210174D01*
X114333323Y-124220500D01*
X114906676Y-124220499D01*
X114906684Y-124220498D01*
X114906687Y-124220498D01*
X114962030Y-124214844D01*
X115007753Y-124210174D01*
X115171516Y-124155908D01*
X115318350Y-124065340D01*
X115440340Y-123943350D01*
X115530908Y-123796516D01*
X115585174Y-123632753D01*
X115595500Y-123531677D01*
X115595499Y-122933324D01*
X115593281Y-122911614D01*
X115585174Y-122832247D01*
X115576498Y-122806064D01*
X115530908Y-122668484D01*
X115440340Y-122521650D01*
X115326371Y-122407681D01*
X115292886Y-122346358D01*
X115297870Y-122276666D01*
X115326371Y-122232319D01*
X115440340Y-122118350D01*
X115530908Y-121971516D01*
X115585174Y-121807753D01*
X115595500Y-121706677D01*
X115595499Y-121544729D01*
X115615183Y-121477690D01*
X115631813Y-121457053D01*
X116582048Y-120506819D01*
X116643371Y-120473334D01*
X116669729Y-120470500D01*
X119797770Y-120470500D01*
X119864809Y-120490185D01*
X119885451Y-120506819D01*
X120438181Y-121059549D01*
X120471666Y-121120872D01*
X120474500Y-121147230D01*
X120474500Y-124026000D01*
X120474501Y-124026009D01*
X120486052Y-124133450D01*
X120486054Y-124133462D01*
X120497260Y-124184972D01*
X120531383Y-124287497D01*
X120531386Y-124287503D01*
X120609171Y-124408537D01*
X120609179Y-124408548D01*
X120654923Y-124461340D01*
X120654926Y-124461343D01*
X120654930Y-124461347D01*
X120763664Y-124555567D01*
X120894541Y-124615338D01*
X120961580Y-124635023D01*
X120961584Y-124635024D01*
X121104000Y-124655500D01*
X122580500Y-124655500D01*
X122647539Y-124675185D01*
X122693294Y-124727989D01*
X122704500Y-124779500D01*
X122704500Y-135886000D01*
X122704501Y-135886009D01*
X122716052Y-135993450D01*
X122716054Y-135993462D01*
X122727260Y-136044972D01*
X122761383Y-136147497D01*
X122761386Y-136147503D01*
X122839171Y-136268537D01*
X122839179Y-136268548D01*
X122884923Y-136321340D01*
X122884926Y-136321343D01*
X122884930Y-136321347D01*
X122993664Y-136415567D01*
X122993667Y-136415568D01*
X122993668Y-136415569D01*
X123087925Y-136458616D01*
X123124541Y-136475338D01*
X123191580Y-136495023D01*
X123191584Y-136495024D01*
X123245405Y-136502762D01*
X123308960Y-136531787D01*
X123346735Y-136590565D01*
X123346735Y-136660434D01*
X123308961Y-136719213D01*
X123245405Y-136748238D01*
X123227758Y-136749500D01*
X109706277Y-136749500D01*
X109639238Y-136729815D01*
X109593483Y-136677011D01*
X109583539Y-136607853D01*
X109612564Y-136544297D01*
X109637386Y-136522398D01*
X109707044Y-136475854D01*
X109988101Y-136245197D01*
X110245197Y-135988101D01*
X110475854Y-135707044D01*
X110677853Y-135404732D01*
X110849247Y-135084076D01*
X110988386Y-134748164D01*
X111093930Y-134400233D01*
X111093932Y-134400223D01*
X111093935Y-134400212D01*
X111152738Y-134104581D01*
X111164862Y-134043631D01*
X111200500Y-133681794D01*
X111200500Y-133318206D01*
X111164862Y-132956369D01*
X111093935Y-132599787D01*
X111093932Y-132599776D01*
X111093931Y-132599773D01*
X111093930Y-132599767D01*
X110988386Y-132251836D01*
X110849247Y-131915924D01*
X110834198Y-131887770D01*
X110677859Y-131595279D01*
X110677858Y-131595277D01*
X110677853Y-131595268D01*
X110475854Y-131292956D01*
X110245197Y-131011899D01*
X110245196Y-131011898D01*
X110245192Y-131011893D01*
X109988106Y-130754807D01*
X109707049Y-130524150D01*
X109707048Y-130524149D01*
X109707044Y-130524146D01*
X109404732Y-130322147D01*
X109404727Y-130322144D01*
X109404720Y-130322140D01*
X109084083Y-130150756D01*
X109084078Y-130150754D01*
X108748165Y-130011614D01*
X108400223Y-129906067D01*
X108400212Y-129906064D01*
X108043630Y-129835137D01*
X107771111Y-129808296D01*
X107681794Y-129799500D01*
X107318206Y-129799500D01*
X107235679Y-129807628D01*
X106956369Y-129835137D01*
X106599787Y-129906064D01*
X106599776Y-129906067D01*
X106251834Y-130011614D01*
X105915921Y-130150754D01*
X105915916Y-130150756D01*
X105595279Y-130322140D01*
X105595261Y-130322151D01*
X105292964Y-130524140D01*
X105292950Y-130524150D01*
X105011893Y-130754807D01*
X104754807Y-131011893D01*
X104524150Y-131292950D01*
X104524139Y-131292964D01*
X104477602Y-131362613D01*
X104423989Y-131407418D01*
X104354664Y-131416125D01*
X104291637Y-131385970D01*
X104254918Y-131326527D01*
X104250500Y-131293722D01*
X104250500Y-72956277D01*
X104270185Y-72889238D01*
X104322989Y-72843483D01*
X104392147Y-72833539D01*
X104455703Y-72862564D01*
X104477602Y-72887386D01*
X104524140Y-72957035D01*
X104524150Y-72957049D01*
X104754807Y-73238106D01*
X105011893Y-73495192D01*
X105011898Y-73495196D01*
X105011899Y-73495197D01*
X105292956Y-73725854D01*
X105595268Y-73927853D01*
X105595277Y-73927858D01*
X105595279Y-73927859D01*
X105915916Y-74099243D01*
X105915918Y-74099243D01*
X105915924Y-74099247D01*
X106251836Y-74238386D01*
X106599767Y-74343930D01*
X106599773Y-74343931D01*
X106599776Y-74343932D01*
X106599787Y-74343935D01*
X106956369Y-74414862D01*
X107318206Y-74450500D01*
X107318209Y-74450500D01*
X107681791Y-74450500D01*
X107681794Y-74450500D01*
X108043631Y-74414862D01*
X108113045Y-74401054D01*
X108400212Y-74343935D01*
X108400223Y-74343932D01*
X108400223Y-74343931D01*
X108400233Y-74343930D01*
X108748164Y-74238386D01*
X109084076Y-74099247D01*
X109404732Y-73927853D01*
X109707044Y-73725854D01*
X109988101Y-73495197D01*
X110245197Y-73238101D01*
X110475854Y-72957044D01*
X110677853Y-72654732D01*
X110849247Y-72334076D01*
X110988386Y-71998164D01*
X111093930Y-71650233D01*
X111093932Y-71650223D01*
X111093935Y-71650212D01*
X111164862Y-71293630D01*
X111200500Y-70931790D01*
X111200500Y-70568209D01*
X111164862Y-70206369D01*
X111093935Y-69849787D01*
X111093932Y-69849776D01*
X111093931Y-69849773D01*
X111093930Y-69849767D01*
X110988386Y-69501836D01*
X110849247Y-69165924D01*
X110796127Y-69066544D01*
X110677859Y-68845279D01*
X110677858Y-68845277D01*
X110677853Y-68845268D01*
X110475854Y-68542956D01*
X110245197Y-68261899D01*
X110245196Y-68261898D01*
X110245192Y-68261893D01*
X109988106Y-68004807D01*
X109707049Y-67774150D01*
X109707048Y-67774149D01*
X109707044Y-67774146D01*
X109637385Y-67727601D01*
X109592581Y-67673990D01*
X109583874Y-67604665D01*
X109614028Y-67541638D01*
X109673471Y-67504918D01*
X109706277Y-67500500D01*
X138626981Y-67500500D01*
X138694020Y-67520185D01*
G37*
%TD.AperFunction*%
%TA.AperFunction,Conductor*%
G36*
X184486406Y-102221644D02*
G01*
X184516393Y-102228168D01*
X184521408Y-102231922D01*
X184524005Y-102232685D01*
X184544114Y-102248890D01*
X184544612Y-102249283D01*
X184687704Y-102337544D01*
X184687707Y-102337545D01*
X184687713Y-102337549D01*
X184847315Y-102390436D01*
X184945826Y-102400500D01*
X184945831Y-102400500D01*
X185554169Y-102400500D01*
X185554174Y-102400500D01*
X185612899Y-102394500D01*
X185681589Y-102407269D01*
X185732474Y-102455148D01*
X185749500Y-102517858D01*
X185749500Y-131293722D01*
X185729815Y-131360761D01*
X185677011Y-131406516D01*
X185607853Y-131416460D01*
X185544297Y-131387435D01*
X185522398Y-131362613D01*
X185475860Y-131292964D01*
X185475849Y-131292950D01*
X185245192Y-131011893D01*
X184988106Y-130754807D01*
X184707049Y-130524150D01*
X184707048Y-130524149D01*
X184707044Y-130524146D01*
X184404732Y-130322147D01*
X184404727Y-130322144D01*
X184404720Y-130322140D01*
X184084083Y-130150756D01*
X184084078Y-130150754D01*
X183748165Y-130011614D01*
X183400223Y-129906067D01*
X183400212Y-129906064D01*
X183043630Y-129835137D01*
X182771111Y-129808296D01*
X182681794Y-129799500D01*
X182318206Y-129799500D01*
X182235679Y-129807628D01*
X181956369Y-129835137D01*
X181599787Y-129906064D01*
X181599776Y-129906067D01*
X181251834Y-130011614D01*
X180915921Y-130150754D01*
X180915916Y-130150756D01*
X180595279Y-130322140D01*
X180595261Y-130322151D01*
X180292964Y-130524140D01*
X180292950Y-130524150D01*
X180011893Y-130754807D01*
X179754807Y-131011893D01*
X179524150Y-131292950D01*
X179524140Y-131292964D01*
X179322151Y-131595261D01*
X179322140Y-131595279D01*
X179150756Y-131915916D01*
X179150754Y-131915921D01*
X179011614Y-132251834D01*
X178906067Y-132599776D01*
X178906064Y-132599787D01*
X178835137Y-132956369D01*
X178807628Y-133235679D01*
X178799500Y-133318206D01*
X178799500Y-133681794D01*
X178810337Y-133791829D01*
X178835137Y-134043630D01*
X178906064Y-134400212D01*
X178906067Y-134400223D01*
X179011614Y-134748165D01*
X179150754Y-135084078D01*
X179150756Y-135084083D01*
X179322140Y-135404720D01*
X179322151Y-135404738D01*
X179524140Y-135707035D01*
X179524150Y-135707049D01*
X179754807Y-135988106D01*
X180011893Y-136245192D01*
X180011898Y-136245196D01*
X180011899Y-136245197D01*
X180292956Y-136475854D01*
X180342215Y-136508768D01*
X180362614Y-136522398D01*
X180407419Y-136576010D01*
X180416126Y-136645335D01*
X180385972Y-136708362D01*
X180326529Y-136745082D01*
X180293723Y-136749500D01*
X133808036Y-136749500D01*
X133740997Y-136729815D01*
X133695242Y-136677011D01*
X133685298Y-136607853D01*
X133714323Y-136544297D01*
X133773101Y-136506523D01*
X133781677Y-136504334D01*
X133788903Y-136502762D01*
X133834967Y-136492741D01*
X133885719Y-136475849D01*
X133937497Y-136458616D01*
X133937501Y-136458613D01*
X133937504Y-136458613D01*
X134058543Y-136380825D01*
X134111347Y-136335070D01*
X134205567Y-136226336D01*
X134265338Y-136095459D01*
X134285023Y-136028420D01*
X134285024Y-136028416D01*
X134305500Y-135886000D01*
X134305500Y-126218209D01*
X135549500Y-126218209D01*
X135549500Y-126581790D01*
X135585137Y-126943630D01*
X135656064Y-127300212D01*
X135656067Y-127300223D01*
X135761614Y-127648165D01*
X135900754Y-127984078D01*
X135900756Y-127984083D01*
X136072140Y-128304720D01*
X136072151Y-128304738D01*
X136274140Y-128607035D01*
X136274150Y-128607049D01*
X136504807Y-128888106D01*
X136761893Y-129145192D01*
X136761898Y-129145196D01*
X136761899Y-129145197D01*
X137042956Y-129375854D01*
X137345268Y-129577853D01*
X137345277Y-129577858D01*
X137345279Y-129577859D01*
X137665916Y-129749243D01*
X137665918Y-129749243D01*
X137665924Y-129749247D01*
X138001836Y-129888386D01*
X138349767Y-129993930D01*
X138349773Y-129993931D01*
X138349776Y-129993932D01*
X138349787Y-129993935D01*
X138706369Y-130064862D01*
X139068206Y-130100500D01*
X139068209Y-130100500D01*
X139431791Y-130100500D01*
X139431794Y-130100500D01*
X139793631Y-130064862D01*
X139863045Y-130051054D01*
X140150212Y-129993935D01*
X140150223Y-129993932D01*
X140150223Y-129993931D01*
X140150233Y-129993930D01*
X140498164Y-129888386D01*
X140834076Y-129749247D01*
X141154732Y-129577853D01*
X141457044Y-129375854D01*
X141738101Y-129145197D01*
X141995197Y-128888101D01*
X142225854Y-128607044D01*
X142427853Y-128304732D01*
X142599247Y-127984076D01*
X142738386Y-127648164D01*
X142843930Y-127300233D01*
X142843932Y-127300223D01*
X142843935Y-127300212D01*
X142914862Y-126943630D01*
X142950500Y-126581790D01*
X142950500Y-126218209D01*
X142914862Y-125856369D01*
X142843935Y-125499787D01*
X142843932Y-125499776D01*
X142843931Y-125499773D01*
X142843930Y-125499767D01*
X142738386Y-125151836D01*
X142599247Y-124815924D01*
X142460083Y-124555567D01*
X142427859Y-124495279D01*
X142427858Y-124495277D01*
X142427853Y-124495268D01*
X142225854Y-124192956D01*
X141995197Y-123911899D01*
X141995196Y-123911898D01*
X141995192Y-123911893D01*
X141738106Y-123654807D01*
X141457049Y-123424150D01*
X141457048Y-123424149D01*
X141457044Y-123424146D01*
X141154732Y-123222147D01*
X141154727Y-123222144D01*
X141154720Y-123222140D01*
X140834083Y-123050756D01*
X140834078Y-123050754D01*
X140498165Y-122911614D01*
X140150223Y-122806067D01*
X140150212Y-122806064D01*
X139793630Y-122735137D01*
X139521111Y-122708296D01*
X139431794Y-122699500D01*
X139068206Y-122699500D01*
X138985679Y-122707628D01*
X138706369Y-122735137D01*
X138349787Y-122806064D01*
X138349776Y-122806067D01*
X138001834Y-122911614D01*
X137665921Y-123050754D01*
X137665916Y-123050756D01*
X137345279Y-123222140D01*
X137345261Y-123222151D01*
X137042964Y-123424140D01*
X137042950Y-123424150D01*
X136761893Y-123654807D01*
X136504807Y-123911893D01*
X136274150Y-124192950D01*
X136274140Y-124192964D01*
X136072151Y-124495261D01*
X136072140Y-124495279D01*
X135900756Y-124815916D01*
X135900754Y-124815921D01*
X135761614Y-125151834D01*
X135656067Y-125499776D01*
X135656064Y-125499787D01*
X135585137Y-125856369D01*
X135549500Y-126218209D01*
X134305500Y-126218209D01*
X134305500Y-121449500D01*
X134325185Y-121382461D01*
X134377989Y-121336706D01*
X134429500Y-121325500D01*
X140378920Y-121325500D01*
X140476462Y-121306096D01*
X140523913Y-121296658D01*
X140660495Y-121240084D01*
X140709729Y-121207186D01*
X140783416Y-121157952D01*
X149332952Y-112608415D01*
X149384239Y-112531658D01*
X149415084Y-112485495D01*
X149461238Y-112374069D01*
X149471659Y-112348912D01*
X149488313Y-112265186D01*
X149495124Y-112230945D01*
X149495124Y-112230942D01*
X149500500Y-112203918D01*
X149500500Y-103188229D01*
X149520185Y-103121190D01*
X149572989Y-103075435D01*
X149642147Y-103065491D01*
X149705703Y-103094516D01*
X149712181Y-103100548D01*
X165090048Y-118478415D01*
X165090049Y-118478416D01*
X165169632Y-118557999D01*
X165194585Y-118582952D01*
X165317498Y-118665080D01*
X165317511Y-118665087D01*
X165454082Y-118721656D01*
X165454087Y-118721658D01*
X165454091Y-118721658D01*
X165454092Y-118721659D01*
X165599079Y-118750500D01*
X165599082Y-118750500D01*
X173875500Y-118750500D01*
X173942539Y-118770185D01*
X173988294Y-118822989D01*
X173999500Y-118874500D01*
X173999500Y-125176673D01*
X173979815Y-125243712D01*
X173927011Y-125289467D01*
X173857853Y-125299411D01*
X173794297Y-125270386D01*
X173756840Y-125212670D01*
X173738386Y-125151836D01*
X173599247Y-124815924D01*
X173460083Y-124555567D01*
X173427859Y-124495279D01*
X173427858Y-124495277D01*
X173427853Y-124495268D01*
X173225854Y-124192956D01*
X172995197Y-123911899D01*
X172995196Y-123911898D01*
X172995192Y-123911893D01*
X172738106Y-123654807D01*
X172457049Y-123424150D01*
X172457048Y-123424149D01*
X172457044Y-123424146D01*
X172154732Y-123222147D01*
X172154727Y-123222144D01*
X172154720Y-123222140D01*
X171834083Y-123050756D01*
X171834078Y-123050754D01*
X171498165Y-122911614D01*
X171150223Y-122806067D01*
X171150212Y-122806064D01*
X170793630Y-122735137D01*
X170521111Y-122708296D01*
X170431794Y-122699500D01*
X170068206Y-122699500D01*
X169985679Y-122707628D01*
X169706369Y-122735137D01*
X169349787Y-122806064D01*
X169349776Y-122806067D01*
X169001834Y-122911614D01*
X168665921Y-123050754D01*
X168665916Y-123050756D01*
X168345279Y-123222140D01*
X168345261Y-123222151D01*
X168042964Y-123424140D01*
X168042950Y-123424150D01*
X167761893Y-123654807D01*
X167504807Y-123911893D01*
X167274150Y-124192950D01*
X167274140Y-124192964D01*
X167072151Y-124495261D01*
X167072140Y-124495279D01*
X166900756Y-124815916D01*
X166900754Y-124815921D01*
X166761614Y-125151834D01*
X166656067Y-125499776D01*
X166656064Y-125499787D01*
X166585137Y-125856369D01*
X166549500Y-126218209D01*
X166549500Y-126581790D01*
X166585137Y-126943630D01*
X166656064Y-127300212D01*
X166656067Y-127300223D01*
X166761614Y-127648165D01*
X166900754Y-127984078D01*
X166900756Y-127984083D01*
X167072140Y-128304720D01*
X167072151Y-128304738D01*
X167274140Y-128607035D01*
X167274150Y-128607049D01*
X167504807Y-128888106D01*
X167761893Y-129145192D01*
X167761898Y-129145196D01*
X167761899Y-129145197D01*
X168042956Y-129375854D01*
X168345268Y-129577853D01*
X168345277Y-129577858D01*
X168345279Y-129577859D01*
X168665916Y-129749243D01*
X168665918Y-129749243D01*
X168665924Y-129749247D01*
X169001836Y-129888386D01*
X169349767Y-129993930D01*
X169349773Y-129993931D01*
X169349776Y-129993932D01*
X169349787Y-129993935D01*
X169706369Y-130064862D01*
X170068206Y-130100500D01*
X170068209Y-130100500D01*
X170431791Y-130100500D01*
X170431794Y-130100500D01*
X170793631Y-130064862D01*
X170863045Y-130051054D01*
X171150212Y-129993935D01*
X171150223Y-129993932D01*
X171150223Y-129993931D01*
X171150233Y-129993930D01*
X171498164Y-129888386D01*
X171834076Y-129749247D01*
X172154732Y-129577853D01*
X172457044Y-129375854D01*
X172738101Y-129145197D01*
X172995197Y-128888101D01*
X173225854Y-128607044D01*
X173427853Y-128304732D01*
X173599247Y-127984076D01*
X173738386Y-127648164D01*
X173756840Y-127587329D01*
X173795137Y-127528892D01*
X173858949Y-127500436D01*
X173928016Y-127510996D01*
X173980409Y-127557220D01*
X173999500Y-127623326D01*
X173999500Y-131887770D01*
X173979815Y-131954809D01*
X173963181Y-131975451D01*
X172019394Y-133919237D01*
X171958071Y-133952722D01*
X171888379Y-133947738D01*
X171832448Y-133905868D01*
X171747546Y-133792454D01*
X171724709Y-133775358D01*
X171632335Y-133706206D01*
X171632328Y-133706202D01*
X171497482Y-133655908D01*
X171497483Y-133655908D01*
X171437883Y-133649501D01*
X171437881Y-133649500D01*
X171437873Y-133649500D01*
X171437864Y-133649500D01*
X169642129Y-133649500D01*
X169642123Y-133649501D01*
X169582516Y-133655908D01*
X169447671Y-133706202D01*
X169447664Y-133706206D01*
X169332455Y-133792452D01*
X169332452Y-133792455D01*
X169246206Y-133907664D01*
X169246203Y-133907669D01*
X169197189Y-134039083D01*
X169155317Y-134095016D01*
X169089853Y-134119433D01*
X169021580Y-134104581D01*
X168993326Y-134083430D01*
X168879786Y-133969890D01*
X168707820Y-133844951D01*
X168518414Y-133748444D01*
X168518413Y-133748443D01*
X168518412Y-133748443D01*
X168316243Y-133682754D01*
X168316241Y-133682753D01*
X168316240Y-133682753D01*
X168154957Y-133657208D01*
X168106287Y-133649500D01*
X167893713Y-133649500D01*
X167845042Y-133657208D01*
X167683760Y-133682753D01*
X167481585Y-133748444D01*
X167292179Y-133844951D01*
X167120213Y-133969890D01*
X166969890Y-134120213D01*
X166844951Y-134292179D01*
X166748444Y-134481585D01*
X166682753Y-134683760D01*
X166649500Y-134893713D01*
X166649500Y-135106286D01*
X166682753Y-135316239D01*
X166748444Y-135518414D01*
X166844951Y-135707820D01*
X166969890Y-135879786D01*
X167120213Y-136030109D01*
X167292179Y-136155048D01*
X167292181Y-136155049D01*
X167292184Y-136155051D01*
X167481588Y-136251557D01*
X167683757Y-136317246D01*
X167893713Y-136350500D01*
X167893714Y-136350500D01*
X168106286Y-136350500D01*
X168106287Y-136350500D01*
X168316243Y-136317246D01*
X168518412Y-136251557D01*
X168707816Y-136155051D01*
X168879792Y-136030104D01*
X168993329Y-135916566D01*
X169054648Y-135883084D01*
X169124340Y-135888068D01*
X169180274Y-135929939D01*
X169197189Y-135960917D01*
X169246202Y-136092328D01*
X169246206Y-136092335D01*
X169332452Y-136207544D01*
X169332455Y-136207547D01*
X169447664Y-136293793D01*
X169447671Y-136293797D01*
X169582517Y-136344091D01*
X169582516Y-136344091D01*
X169589444Y-136344835D01*
X169642127Y-136350500D01*
X171437872Y-136350499D01*
X171497483Y-136344091D01*
X171632331Y-136293796D01*
X171747546Y-136207546D01*
X171833796Y-136092331D01*
X171884091Y-135957483D01*
X171890500Y-135897873D01*
X171890500Y-135874500D01*
X171910185Y-135807461D01*
X171962989Y-135761706D01*
X172014500Y-135750500D01*
X172073920Y-135750500D01*
X172171462Y-135731096D01*
X172218913Y-135721658D01*
X172355495Y-135665084D01*
X172404729Y-135632186D01*
X172478416Y-135582952D01*
X175332951Y-132728416D01*
X175415084Y-132605495D01*
X175471658Y-132468913D01*
X175500500Y-132323918D01*
X175500500Y-132176083D01*
X175500500Y-118362229D01*
X175520185Y-118295190D01*
X175536819Y-118274548D01*
X176127235Y-117684132D01*
X176751507Y-117059859D01*
X176812828Y-117026376D01*
X176882520Y-117031360D01*
X176934173Y-117067835D01*
X176946289Y-117082274D01*
X177227726Y-117363711D01*
X177257091Y-117388351D01*
X177532615Y-117619544D01*
X177532621Y-117619548D01*
X177532622Y-117619549D01*
X177858655Y-117847840D01*
X178181697Y-118034348D01*
X178203338Y-118046843D01*
X178203362Y-118046856D01*
X178564053Y-118215048D01*
X178564058Y-118215049D01*
X178564067Y-118215054D01*
X178938077Y-118351183D01*
X178938083Y-118351184D01*
X178938087Y-118351186D01*
X178979301Y-118362229D01*
X179322528Y-118454196D01*
X179714495Y-118523311D01*
X180110991Y-118557999D01*
X180110992Y-118558000D01*
X180110993Y-118558000D01*
X180509008Y-118558000D01*
X180509008Y-118557999D01*
X180905505Y-118523311D01*
X181297472Y-118454196D01*
X181681923Y-118351183D01*
X182055933Y-118215054D01*
X182055946Y-118215048D01*
X182416637Y-118046856D01*
X182416645Y-118046851D01*
X182416655Y-118046847D01*
X182761345Y-117847840D01*
X183087378Y-117619549D01*
X183392274Y-117363711D01*
X183673711Y-117082274D01*
X183929549Y-116777378D01*
X184157840Y-116451345D01*
X184356847Y-116106655D01*
X184356851Y-116106645D01*
X184356856Y-116106637D01*
X184525048Y-115745946D01*
X184525048Y-115745945D01*
X184525054Y-115745933D01*
X184661183Y-115371923D01*
X184764196Y-114987472D01*
X184833311Y-114595505D01*
X184868000Y-114199007D01*
X184868000Y-113800993D01*
X184833311Y-113404495D01*
X184764196Y-113012528D01*
X184661183Y-112628077D01*
X184525054Y-112254067D01*
X184525049Y-112254058D01*
X184525048Y-112254053D01*
X184356856Y-111893362D01*
X184356843Y-111893338D01*
X184238414Y-111688213D01*
X184157840Y-111548655D01*
X183929549Y-111222622D01*
X183929548Y-111222621D01*
X183929544Y-111222615D01*
X183691075Y-110938420D01*
X183673711Y-110917726D01*
X183392274Y-110636289D01*
X183294794Y-110554493D01*
X183256092Y-110496321D01*
X183250500Y-110459504D01*
X183250500Y-108329073D01*
X183270185Y-108262034D01*
X183322989Y-108216279D01*
X183327050Y-108214511D01*
X183327312Y-108214402D01*
X183342373Y-108208164D01*
X183558127Y-108083599D01*
X183755776Y-107931938D01*
X183931938Y-107755776D01*
X184083599Y-107558127D01*
X184208164Y-107342373D01*
X184303502Y-107112207D01*
X184367982Y-106871565D01*
X184400500Y-106624565D01*
X184400500Y-106375435D01*
X184367982Y-106128435D01*
X184303502Y-105887793D01*
X184249253Y-105756825D01*
X184208169Y-105657638D01*
X184208162Y-105657623D01*
X184083599Y-105441873D01*
X183931939Y-105244225D01*
X183931933Y-105244218D01*
X183755781Y-105068066D01*
X183755774Y-105068060D01*
X183558126Y-104916400D01*
X183342383Y-104791841D01*
X183342371Y-104791835D01*
X183327042Y-104785485D01*
X183272641Y-104741641D01*
X183250579Y-104675346D01*
X183250500Y-104670926D01*
X183250500Y-104274729D01*
X183259144Y-104245288D01*
X183265668Y-104215302D01*
X183269422Y-104210286D01*
X183270185Y-104207690D01*
X183286819Y-104187048D01*
X183287049Y-104186818D01*
X183348372Y-104153333D01*
X183374730Y-104150499D01*
X183536670Y-104150499D01*
X183536676Y-104150499D01*
X183637753Y-104140174D01*
X183801516Y-104085908D01*
X183948350Y-103995340D01*
X184070340Y-103873350D01*
X184160908Y-103726516D01*
X184215174Y-103562753D01*
X184225500Y-103461677D01*
X184225499Y-102863324D01*
X184215174Y-102762247D01*
X184160908Y-102598484D01*
X184070340Y-102451650D01*
X184043371Y-102424681D01*
X184009886Y-102363358D01*
X184014870Y-102293666D01*
X184056742Y-102237733D01*
X184122206Y-102213316D01*
X184131052Y-102213000D01*
X184456966Y-102213000D01*
X184486406Y-102221644D01*
G37*
%TD.AperFunction*%
%TA.AperFunction,Conductor*%
G36*
X147918834Y-102682914D02*
G01*
X147974767Y-102724786D01*
X147999184Y-102790250D01*
X147999500Y-102799096D01*
X147999500Y-111767770D01*
X147979815Y-111834809D01*
X147963181Y-111855451D01*
X140030451Y-119788181D01*
X139969128Y-119821666D01*
X139942770Y-119824500D01*
X134429500Y-119824500D01*
X134362461Y-119804815D01*
X134316706Y-119752011D01*
X134305500Y-119700500D01*
X134305500Y-117104010D01*
X134305500Y-117104000D01*
X134293947Y-116996544D01*
X134282741Y-116945033D01*
X134263020Y-116885781D01*
X134248616Y-116842502D01*
X134248613Y-116842496D01*
X134170825Y-116721457D01*
X134170820Y-116721451D01*
X134125076Y-116668659D01*
X134125072Y-116668656D01*
X134125070Y-116668653D01*
X134016336Y-116574433D01*
X134016333Y-116574431D01*
X134016331Y-116574430D01*
X133885465Y-116514664D01*
X133885460Y-116514662D01*
X133885459Y-116514662D01*
X133818420Y-116494977D01*
X133818422Y-116494977D01*
X133818417Y-116494976D01*
X133756354Y-116486053D01*
X133676000Y-116474500D01*
X133675998Y-116474500D01*
X133509364Y-116474500D01*
X133442325Y-116454815D01*
X133396570Y-116402011D01*
X133386626Y-116332853D01*
X133393182Y-116307167D01*
X133417410Y-116242207D01*
X133434091Y-116197483D01*
X133440500Y-116137873D01*
X133440499Y-115815711D01*
X133460183Y-115748674D01*
X133512987Y-115702919D01*
X133582146Y-115692975D01*
X133588684Y-115694094D01*
X133614671Y-115699264D01*
X133671156Y-115710500D01*
X133671158Y-115710500D01*
X133828844Y-115710500D01*
X133828845Y-115710499D01*
X133983497Y-115679737D01*
X134129179Y-115619394D01*
X134217949Y-115560080D01*
X134260875Y-115531398D01*
X134327553Y-115510520D01*
X134329766Y-115510500D01*
X134653331Y-115510500D01*
X134653347Y-115510501D01*
X134660943Y-115510501D01*
X134819054Y-115510501D01*
X134819057Y-115510501D01*
X134971785Y-115469577D01*
X135036402Y-115432270D01*
X135108716Y-115390520D01*
X135220520Y-115278716D01*
X135220520Y-115278714D01*
X135230724Y-115268511D01*
X135230727Y-115268506D01*
X147787821Y-102711413D01*
X147849142Y-102677930D01*
X147918834Y-102682914D01*
G37*
%TD.AperFunction*%
%TA.AperFunction,Conductor*%
G36*
X143047941Y-104740185D02*
G01*
X143093696Y-104792989D01*
X143103640Y-104862147D01*
X143074615Y-104925703D01*
X143068583Y-104932181D01*
X135523084Y-112477681D01*
X135461761Y-112511166D01*
X135435403Y-112514000D01*
X134189500Y-112514000D01*
X134122461Y-112494315D01*
X134076706Y-112441511D01*
X134065500Y-112390000D01*
X134065500Y-111664190D01*
X134065511Y-111662537D01*
X134066906Y-111557893D01*
X134066089Y-111549501D01*
X134056103Y-111446992D01*
X134044908Y-111393828D01*
X134010076Y-111287998D01*
X134010076Y-111287997D01*
X133986020Y-111250566D01*
X133966335Y-111183527D01*
X133977541Y-111132013D01*
X134011569Y-111057504D01*
X134035338Y-111005459D01*
X134055023Y-110938420D01*
X134055024Y-110938416D01*
X134075500Y-110796000D01*
X134075500Y-104914000D01*
X134069452Y-104857751D01*
X134081858Y-104788996D01*
X134129468Y-104737858D01*
X134192742Y-104720500D01*
X142980902Y-104720500D01*
X143047941Y-104740185D01*
G37*
%TD.AperFunction*%
%TA.AperFunction,Conductor*%
G36*
X175779186Y-91851360D02*
G01*
X175782157Y-91850640D01*
X175812502Y-91861143D01*
X175843295Y-91870185D01*
X175845295Y-91872493D01*
X175848183Y-91873493D01*
X175868034Y-91898735D01*
X175889050Y-91922989D01*
X175889484Y-91926011D01*
X175891374Y-91928414D01*
X175894425Y-91960375D01*
X175898994Y-91992147D01*
X175897724Y-91994926D01*
X175898015Y-91997968D01*
X175883304Y-92026501D01*
X175869969Y-92055703D01*
X175866976Y-92058173D01*
X175865999Y-92060070D01*
X175838256Y-92081887D01*
X175691873Y-92166400D01*
X175494225Y-92318060D01*
X175494218Y-92318066D01*
X175318066Y-92494218D01*
X175318060Y-92494225D01*
X175166400Y-92691873D01*
X175041837Y-92907623D01*
X175041830Y-92907638D01*
X174946498Y-93137792D01*
X174882017Y-93378438D01*
X174849501Y-93625424D01*
X174849500Y-93625441D01*
X174849500Y-93874558D01*
X174849501Y-93874575D01*
X174882017Y-94121561D01*
X174946498Y-94362207D01*
X175014977Y-94527532D01*
X175022446Y-94597001D01*
X174991170Y-94659480D01*
X174988097Y-94662665D01*
X173814186Y-95836578D01*
X173702381Y-95948382D01*
X173702377Y-95948387D01*
X173654632Y-96031086D01*
X173654632Y-96031087D01*
X173623323Y-96085314D01*
X173623323Y-96085315D01*
X173582399Y-96238043D01*
X173582399Y-96238045D01*
X173582399Y-96406146D01*
X173582400Y-96406159D01*
X173582400Y-103382803D01*
X173562715Y-103449842D01*
X173546081Y-103470484D01*
X172356384Y-104660181D01*
X172295061Y-104693666D01*
X172268703Y-104696500D01*
X156181298Y-104696500D01*
X156114259Y-104676815D01*
X156093617Y-104660181D01*
X153419323Y-101985887D01*
X153385838Y-101924564D01*
X153390822Y-101854872D01*
X153407737Y-101823895D01*
X153468796Y-101742331D01*
X153519091Y-101607483D01*
X153525500Y-101547873D01*
X153525499Y-100216533D01*
X154574499Y-100216533D01*
X154600458Y-100347030D01*
X154600461Y-100347040D01*
X154651376Y-100469961D01*
X154651386Y-100469979D01*
X154725301Y-100580601D01*
X154725307Y-100580609D01*
X154819390Y-100674692D01*
X154819398Y-100674698D01*
X154930020Y-100748613D01*
X154930023Y-100748614D01*
X154930031Y-100748620D01*
X154930037Y-100748622D01*
X154930038Y-100748623D01*
X155052959Y-100799538D01*
X155052964Y-100799540D01*
X155052968Y-100799540D01*
X155052969Y-100799541D01*
X155183466Y-100825500D01*
X155183469Y-100825500D01*
X155316533Y-100825500D01*
X155404325Y-100808035D01*
X155447036Y-100799540D01*
X155569969Y-100748620D01*
X155680606Y-100674695D01*
X155774695Y-100580606D01*
X155848620Y-100469969D01*
X155899540Y-100347036D01*
X155925500Y-100216531D01*
X155925500Y-100083469D01*
X155925500Y-100083466D01*
X155899541Y-99952969D01*
X155899540Y-99952968D01*
X155899540Y-99952964D01*
X155848620Y-99830031D01*
X155830893Y-99803501D01*
X155774698Y-99719398D01*
X155774692Y-99719390D01*
X155680609Y-99625307D01*
X155680601Y-99625301D01*
X155569979Y-99551386D01*
X155569972Y-99551382D01*
X155569969Y-99551380D01*
X155569965Y-99551378D01*
X155569961Y-99551376D01*
X155447040Y-99500461D01*
X155447030Y-99500458D01*
X155316533Y-99474500D01*
X155316531Y-99474500D01*
X155183469Y-99474500D01*
X155183467Y-99474500D01*
X155052969Y-99500458D01*
X155052959Y-99500461D01*
X154930038Y-99551376D01*
X154930020Y-99551386D01*
X154819398Y-99625301D01*
X154819390Y-99625307D01*
X154725307Y-99719390D01*
X154725301Y-99719398D01*
X154651386Y-99830020D01*
X154651376Y-99830038D01*
X154600461Y-99952959D01*
X154600458Y-99952969D01*
X154574500Y-100083466D01*
X154574500Y-100083469D01*
X154574500Y-100216531D01*
X154574500Y-100216533D01*
X154574499Y-100216533D01*
X153525499Y-100216533D01*
X153525499Y-99952128D01*
X153519091Y-99892517D01*
X153495785Y-99830031D01*
X153468797Y-99757671D01*
X153468793Y-99757664D01*
X153382547Y-99642455D01*
X153382544Y-99642452D01*
X153267335Y-99556206D01*
X153267328Y-99556202D01*
X153132486Y-99505910D01*
X153132485Y-99505909D01*
X153132483Y-99505909D01*
X153072873Y-99499500D01*
X153072863Y-99499500D01*
X152427129Y-99499500D01*
X152427120Y-99499501D01*
X152363248Y-99506367D01*
X152336742Y-99506367D01*
X152332483Y-99505909D01*
X152272873Y-99499500D01*
X152272864Y-99499500D01*
X151627129Y-99499500D01*
X151627120Y-99499501D01*
X151563248Y-99506367D01*
X151536742Y-99506367D01*
X151532483Y-99505909D01*
X151472873Y-99499500D01*
X151472864Y-99499500D01*
X150827129Y-99499500D01*
X150827120Y-99499501D01*
X150763248Y-99506367D01*
X150736742Y-99506367D01*
X150732483Y-99505909D01*
X150672873Y-99499500D01*
X150672867Y-99499500D01*
X150424500Y-99499500D01*
X150357461Y-99479815D01*
X150311706Y-99427011D01*
X150300500Y-99375500D01*
X150300500Y-98324499D01*
X150320185Y-98257460D01*
X150372989Y-98211705D01*
X150424500Y-98200499D01*
X150672871Y-98200499D01*
X150672872Y-98200499D01*
X150732483Y-98194091D01*
X150732486Y-98194089D01*
X150736744Y-98193632D01*
X150763254Y-98193632D01*
X150767514Y-98194089D01*
X150767517Y-98194091D01*
X150827127Y-98200500D01*
X151472872Y-98200499D01*
X151532483Y-98194091D01*
X151532486Y-98194089D01*
X151536744Y-98193632D01*
X151563254Y-98193632D01*
X151567514Y-98194089D01*
X151567517Y-98194091D01*
X151627127Y-98200500D01*
X152272872Y-98200499D01*
X152332483Y-98194091D01*
X152332486Y-98194089D01*
X152336744Y-98193632D01*
X152363254Y-98193632D01*
X152367514Y-98194089D01*
X152367517Y-98194091D01*
X152427127Y-98200500D01*
X152683740Y-98200499D01*
X152750779Y-98220183D01*
X152796534Y-98272987D01*
X152798301Y-98277046D01*
X152840604Y-98379176D01*
X152840609Y-98379185D01*
X152928210Y-98510288D01*
X152928213Y-98510292D01*
X153039707Y-98621786D01*
X153039711Y-98621789D01*
X153170814Y-98709390D01*
X153170827Y-98709397D01*
X153316498Y-98769735D01*
X153316503Y-98769737D01*
X153471153Y-98800499D01*
X153471156Y-98800500D01*
X153471158Y-98800500D01*
X153628844Y-98800500D01*
X153628845Y-98800499D01*
X153783497Y-98769737D01*
X153929179Y-98709394D01*
X154060289Y-98621789D01*
X154171789Y-98510289D01*
X154259394Y-98379179D01*
X154262550Y-98371561D01*
X154282043Y-98324499D01*
X154319737Y-98233497D01*
X154350500Y-98078842D01*
X154350500Y-97921158D01*
X154325875Y-97797367D01*
X154324204Y-97759922D01*
X154325500Y-97747873D01*
X154325499Y-96152128D01*
X154319842Y-96099500D01*
X154319091Y-96092516D01*
X154268797Y-95957671D01*
X154268793Y-95957664D01*
X154182547Y-95842455D01*
X154182544Y-95842452D01*
X154067335Y-95756206D01*
X154067328Y-95756202D01*
X153932482Y-95705908D01*
X153932483Y-95705908D01*
X153872883Y-95699501D01*
X153872881Y-95699500D01*
X153872873Y-95699500D01*
X153872865Y-95699500D01*
X153474500Y-95699500D01*
X153407461Y-95679815D01*
X153361706Y-95627011D01*
X153350500Y-95575500D01*
X153350500Y-95300097D01*
X153370185Y-95233058D01*
X153386819Y-95212416D01*
X156712416Y-91886819D01*
X156773739Y-91853334D01*
X156800097Y-91850500D01*
X175776256Y-91850500D01*
X175779186Y-91851360D01*
G37*
%TD.AperFunction*%
%TA.AperFunction,Conductor*%
G36*
X146767514Y-98194089D02*
G01*
X146767517Y-98194091D01*
X146827127Y-98200500D01*
X147472872Y-98200499D01*
X147532483Y-98194091D01*
X147532486Y-98194089D01*
X147536744Y-98193632D01*
X147563254Y-98193632D01*
X147567514Y-98194089D01*
X147567517Y-98194091D01*
X147627127Y-98200500D01*
X148272872Y-98200499D01*
X148332483Y-98194091D01*
X148332486Y-98194089D01*
X148336744Y-98193632D01*
X148363254Y-98193632D01*
X148367514Y-98194089D01*
X148367517Y-98194091D01*
X148427127Y-98200500D01*
X148675501Y-98200499D01*
X148742539Y-98220183D01*
X148788294Y-98272987D01*
X148799500Y-98324499D01*
X148799500Y-99375500D01*
X148779815Y-99442539D01*
X148727011Y-99488294D01*
X148675500Y-99499500D01*
X148427130Y-99499500D01*
X148427120Y-99499501D01*
X148363248Y-99506367D01*
X148336742Y-99506367D01*
X148332483Y-99505909D01*
X148272873Y-99499500D01*
X148272864Y-99499500D01*
X147627129Y-99499500D01*
X147627120Y-99499501D01*
X147563248Y-99506367D01*
X147536742Y-99506367D01*
X147532483Y-99505909D01*
X147472873Y-99499500D01*
X147472864Y-99499500D01*
X146827129Y-99499500D01*
X146827120Y-99499501D01*
X146763248Y-99506367D01*
X146736742Y-99506367D01*
X146732483Y-99505909D01*
X146672873Y-99499500D01*
X146672867Y-99499500D01*
X146450500Y-99499500D01*
X146383461Y-99479815D01*
X146337706Y-99427011D01*
X146326500Y-99375500D01*
X146326500Y-98324499D01*
X146346185Y-98257460D01*
X146398989Y-98211705D01*
X146450500Y-98200499D01*
X146672871Y-98200499D01*
X146672872Y-98200499D01*
X146732483Y-98194091D01*
X146732486Y-98194089D01*
X146736744Y-98193632D01*
X146763254Y-98193632D01*
X146767514Y-98194089D01*
G37*
%TD.AperFunction*%
%TA.AperFunction,Conductor*%
G36*
X144293942Y-93320185D02*
G01*
X144314584Y-93336819D01*
X144915584Y-93937819D01*
X144949069Y-93999142D01*
X144944085Y-94068834D01*
X144902213Y-94124767D01*
X144836749Y-94149184D01*
X144827903Y-94149500D01*
X133174266Y-94149500D01*
X133107227Y-94129815D01*
X133061472Y-94077011D01*
X133051528Y-94007853D01*
X133080553Y-93944297D01*
X133124825Y-93913558D01*
X133124546Y-93913047D01*
X133129302Y-93910449D01*
X133130931Y-93909319D01*
X133132326Y-93908798D01*
X133132326Y-93908797D01*
X133132331Y-93908796D01*
X133247546Y-93822546D01*
X133333796Y-93707331D01*
X133345486Y-93675990D01*
X133381331Y-93579883D01*
X133423202Y-93523949D01*
X133473322Y-93501598D01*
X133478842Y-93500500D01*
X133633497Y-93469737D01*
X133779179Y-93409394D01*
X133825508Y-93378438D01*
X133910875Y-93321398D01*
X133977553Y-93300520D01*
X133979766Y-93300500D01*
X144226903Y-93300500D01*
X144293942Y-93320185D01*
G37*
%TD.AperFunction*%
%TA.AperFunction,Conductor*%
G36*
X139705809Y-89171185D02*
G01*
X139726451Y-89187819D01*
X141148209Y-90609577D01*
X142426452Y-91887819D01*
X142459937Y-91949142D01*
X142454953Y-92018834D01*
X142413081Y-92074767D01*
X142347617Y-92099184D01*
X142338771Y-92099500D01*
X134180176Y-92099500D01*
X134113137Y-92079815D01*
X134067382Y-92027011D01*
X134057438Y-91957853D01*
X134063991Y-91932176D01*
X134065332Y-91928577D01*
X134065333Y-91928571D01*
X134065338Y-91928562D01*
X134085023Y-91861523D01*
X134085024Y-91861519D01*
X134105500Y-91719103D01*
X134105500Y-89275500D01*
X134125185Y-89208461D01*
X134177989Y-89162706D01*
X134229500Y-89151500D01*
X139638770Y-89151500D01*
X139705809Y-89171185D01*
G37*
%TD.AperFunction*%
%TD*%
M02*
