M48
; DRILL file {KiCad 9.0.6} date 2026-01-10T12:25:54-0600
; FORMAT={-:-/ absolute / inch / decimal}
; #@! TF.CreationDate,2026-01-10T12:25:54-06:00
; #@! TF.GenerationSoftware,Kicad,Pcbnew,9.0.6
; #@! TF.FileFunction,Plated,1,2,PTH
FMAT,2
INCH
; #@! TA.AperFunction,Plated,PTH,ViaDrill
T1C0.0118
; #@! TA.AperFunction,Plated,PTH,ComponentDrill
T2C0.0394
; #@! TA.AperFunction,Plated,PTH,ComponentDrill
T3C0.0551
; #@! TA.AperFunction,Plated,PTH,ComponentDrill
T4C0.0709
; #@! TA.AperFunction,Plated,PTH,ComponentDrill
T5C0.1260
; #@! TA.AperFunction,Plated,PTH,ComponentDrill
T6C0.2130
%
G90
G05
T1
X4.8791Y-4.4217
X4.9094Y-3.5069
X5.252Y-3.6496
X5.2657Y-4.524
X5.3041Y-3.5157
X5.3041Y-3.6152
X5.3047Y-3.6831
X5.3098Y-4.1256
X5.3106Y-4.0028
X5.3146Y-3.8122
X5.3146Y-4.2236
X5.3764Y-4.1256
X5.3783Y-4.5421
X5.3783Y-4.6425
X5.3787Y-4.2224
X5.3811Y-3.8122
X5.3874Y-4.002
X5.4006Y-3.5148
X5.4006Y-3.6152
X5.4008Y-3.6787
X5.4382Y-4.126
X5.4382Y-4.2209
X5.4429Y-3.8126
X5.448Y-4.0008
X5.4516Y-4.5421
X5.4516Y-4.6425
X5.5201Y-4.1252
X5.5213Y-4.2177
X5.5248Y-3.8118
X5.5268Y-4.002
X5.5449Y-4.4874
X5.6185Y-4.4157
X5.6535Y-3.622
X5.6917Y-4.3413
X5.7189Y-4.1819
X5.7189Y-4.2823
X5.7921Y-4.1819
X5.7921Y-4.2823
X5.7943Y-3.7894
X6.0453Y-3.8583
X6.0827Y-3.7598
X6.0827Y-4.0354
X6.1417Y-3.7598
X6.1417Y-3.8189
X6.1417Y-3.8878
X6.1417Y-3.9764
X6.1417Y-4.0354
T2
X6.5142Y-5.315
X6.6142Y-5.315
X6.7142Y-5.315
T3
X4.3783Y-3.6787
X4.5404Y-3.4301
X4.5543Y-4.5524
X5.3937Y-5.315
X5.6797Y-5.315
X5.9656Y-5.315
X6.2516Y-5.315
X6.9587Y-3.0118
X6.9587Y-3.189
X6.9587Y-3.3563
X6.9587Y-3.5236
X6.9587Y-3.6909
X6.9587Y-3.8583
X6.9587Y-4.0256
X6.9587Y-4.1929
X7.185Y-4.1929
T4
X4.4461Y-3.9335
X4.4461Y-4.1303
T5
X4.2323Y-2.7854
X4.2323Y-5.2559
X5.4823Y-2.811
X5.4823Y-4.9764
X6.7028Y-2.811
X6.7028Y-4.9764
X7.185Y-2.7854
X7.185Y-5.2559
T6
X4.6181Y-2.9272
X4.6201Y-5.1467
X5.0512Y-2.9272
X5.0591Y-5.1467
X7.0965Y-4.9114
X7.0988Y-4.4882
M30
