%TF.GenerationSoftware,KiCad,Pcbnew,9.0.0*%
%TF.CreationDate,2025-10-14T01:09:05-05:00*%
%TF.ProjectId,TestBoard_PowerMuxPCB,54657374-426f-4617-9264-5f506f776572,rev?*%
%TF.SameCoordinates,Original*%
%TF.FileFunction,Legend,Top*%
%TF.FilePolarity,Positive*%
%FSLAX46Y46*%
G04 Gerber Fmt 4.6, Leading zero omitted, Abs format (unit mm)*
G04 Created by KiCad (PCBNEW 9.0.0) date 2025-10-14 01:09:05*
%MOMM*%
%LPD*%
G01*
G04 APERTURE LIST*
G04 Aperture macros list*
%AMRoundRect*
0 Rectangle with rounded corners*
0 $1 Rounding radius*
0 $2 $3 $4 $5 $6 $7 $8 $9 X,Y pos of 4 corners*
0 Add a 4 corners polygon primitive as box body*
4,1,4,$2,$3,$4,$5,$6,$7,$8,$9,$2,$3,0*
0 Add four circle primitives for the rounded corners*
1,1,$1+$1,$2,$3*
1,1,$1+$1,$4,$5*
1,1,$1+$1,$6,$7*
1,1,$1+$1,$8,$9*
0 Add four rect primitives between the rounded corners*
20,1,$1+$1,$2,$3,$4,$5,0*
20,1,$1+$1,$4,$5,$6,$7,0*
20,1,$1+$1,$6,$7,$8,$9,0*
20,1,$1+$1,$8,$9,$2,$3,0*%
G04 Aperture macros list end*
%ADD10C,0.300000*%
%ADD11C,0.100000*%
%ADD12C,0.150000*%
%ADD13C,0.250000*%
%ADD14C,0.254000*%
%ADD15C,0.050000*%
%ADD16C,0.120000*%
%ADD17C,0.127000*%
%ADD18C,0.200000*%
%ADD19C,0.850000*%
%ADD20R,0.550000X1.500000*%
%ADD21C,3.600000*%
%ADD22C,6.400000*%
%ADD23RoundRect,0.218750X-0.256250X0.218750X-0.256250X-0.218750X0.256250X-0.218750X0.256250X0.218750X0*%
%ADD24RoundRect,0.237500X0.237500X-0.250000X0.237500X0.250000X-0.237500X0.250000X-0.237500X-0.250000X0*%
%ADD25RoundRect,0.237500X-0.237500X0.250000X-0.237500X-0.250000X0.237500X-0.250000X0.237500X0.250000X0*%
%ADD26RoundRect,0.250000X-0.475000X0.250000X-0.475000X-0.250000X0.475000X-0.250000X0.475000X0.250000X0*%
%ADD27C,8.115000*%
%ADD28RoundRect,0.102000X-0.590000X0.765000X-0.590000X-0.765000X0.590000X-0.765000X0.590000X0.765000X0*%
%ADD29RoundRect,0.102000X-3.605000X2.815000X-3.605000X-2.815000X3.605000X-2.815000X3.605000X2.815000X0*%
%ADD30C,2.800000*%
%ADD31RoundRect,0.102000X0.590000X-0.765000X0.590000X0.765000X-0.590000X0.765000X-0.590000X-0.765000X0*%
%ADD32RoundRect,0.102000X3.605000X-2.815000X3.605000X2.815000X-3.605000X2.815000X-3.605000X-2.815000X0*%
%ADD33R,1.450000X3.450000*%
%ADD34RoundRect,0.163043X0.586957X1.036957X-0.586957X1.036957X-0.586957X-1.036957X0.586957X-1.036957X0*%
%ADD35RoundRect,0.218750X0.256250X-0.218750X0.256250X0.218750X-0.256250X0.218750X-0.256250X-0.218750X0*%
%ADD36RoundRect,0.150000X0.200000X-0.150000X0.200000X0.150000X-0.200000X0.150000X-0.200000X-0.150000X0*%
%ADD37R,1.700000X1.700000*%
%ADD38O,1.700000X1.700000*%
%ADD39RoundRect,0.250000X0.262500X0.450000X-0.262500X0.450000X-0.262500X-0.450000X0.262500X-0.450000X0*%
%ADD40RoundRect,0.250000X-0.450000X0.262500X-0.450000X-0.262500X0.450000X-0.262500X0.450000X0.262500X0*%
%ADD41RoundRect,0.250000X0.250000X0.475000X-0.250000X0.475000X-0.250000X-0.475000X0.250000X-0.475000X0*%
%ADD42RoundRect,0.750000X0.750000X-0.750000X0.750000X0.750000X-0.750000X0.750000X-0.750000X-0.750000X0*%
%ADD43C,3.000000*%
%ADD44RoundRect,0.250000X0.475000X-0.250000X0.475000X0.250000X-0.475000X0.250000X-0.475000X-0.250000X0*%
G04 APERTURE END LIST*
D10*
X173340225Y-135050828D02*
X173625939Y-135050828D01*
X173625939Y-135050828D02*
X173768796Y-135122257D01*
X173768796Y-135122257D02*
X173911653Y-135265114D01*
X173911653Y-135265114D02*
X173983082Y-135550828D01*
X173983082Y-135550828D02*
X173983082Y-136050828D01*
X173983082Y-136050828D02*
X173911653Y-136336542D01*
X173911653Y-136336542D02*
X173768796Y-136479400D01*
X173768796Y-136479400D02*
X173625939Y-136550828D01*
X173625939Y-136550828D02*
X173340225Y-136550828D01*
X173340225Y-136550828D02*
X173197368Y-136479400D01*
X173197368Y-136479400D02*
X173054510Y-136336542D01*
X173054510Y-136336542D02*
X172983082Y-136050828D01*
X172983082Y-136050828D02*
X172983082Y-135550828D01*
X172983082Y-135550828D02*
X173054510Y-135265114D01*
X173054510Y-135265114D02*
X173197368Y-135122257D01*
X173197368Y-135122257D02*
X173340225Y-135050828D01*
X175125939Y-135765114D02*
X174625939Y-135765114D01*
X174625939Y-136550828D02*
X174625939Y-135050828D01*
X174625939Y-135050828D02*
X175340225Y-135050828D01*
X176411653Y-135765114D02*
X175911653Y-135765114D01*
X175911653Y-136550828D02*
X175911653Y-135050828D01*
X175911653Y-135050828D02*
X176625939Y-135050828D01*
D11*
X135577693Y-131420038D02*
X135482455Y-131372419D01*
X135482455Y-131372419D02*
X135339598Y-131372419D01*
X135339598Y-131372419D02*
X135196741Y-131420038D01*
X135196741Y-131420038D02*
X135101503Y-131515276D01*
X135101503Y-131515276D02*
X135053884Y-131610514D01*
X135053884Y-131610514D02*
X135006265Y-131800990D01*
X135006265Y-131800990D02*
X135006265Y-131943847D01*
X135006265Y-131943847D02*
X135053884Y-132134323D01*
X135053884Y-132134323D02*
X135101503Y-132229561D01*
X135101503Y-132229561D02*
X135196741Y-132324800D01*
X135196741Y-132324800D02*
X135339598Y-132372419D01*
X135339598Y-132372419D02*
X135434836Y-132372419D01*
X135434836Y-132372419D02*
X135577693Y-132324800D01*
X135577693Y-132324800D02*
X135625312Y-132277180D01*
X135625312Y-132277180D02*
X135625312Y-131943847D01*
X135625312Y-131943847D02*
X135434836Y-131943847D01*
X136053884Y-132372419D02*
X136053884Y-131372419D01*
X136053884Y-131372419D02*
X136625312Y-132372419D01*
X136625312Y-132372419D02*
X136625312Y-131372419D01*
X137101503Y-132372419D02*
X137101503Y-131372419D01*
X137101503Y-131372419D02*
X137339598Y-131372419D01*
X137339598Y-131372419D02*
X137482455Y-131420038D01*
X137482455Y-131420038D02*
X137577693Y-131515276D01*
X137577693Y-131515276D02*
X137625312Y-131610514D01*
X137625312Y-131610514D02*
X137672931Y-131800990D01*
X137672931Y-131800990D02*
X137672931Y-131943847D01*
X137672931Y-131943847D02*
X137625312Y-132134323D01*
X137625312Y-132134323D02*
X137577693Y-132229561D01*
X137577693Y-132229561D02*
X137482455Y-132324800D01*
X137482455Y-132324800D02*
X137339598Y-132372419D01*
X137339598Y-132372419D02*
X137101503Y-132372419D01*
X134750000Y-132750000D02*
X161500000Y-132750000D01*
X161500000Y-137000000D01*
X134750000Y-137000000D01*
X134750000Y-132750000D01*
D10*
X106050828Y-94481203D02*
X106050828Y-95195489D01*
X106050828Y-95195489D02*
X104550828Y-95195489D01*
X104550828Y-94195488D02*
X106050828Y-93695488D01*
X106050828Y-93695488D02*
X104550828Y-93195488D01*
X106050828Y-91552632D02*
X104550828Y-91552632D01*
X104550828Y-91552632D02*
X105622257Y-91052632D01*
X105622257Y-91052632D02*
X104550828Y-90552632D01*
X104550828Y-90552632D02*
X106050828Y-90552632D01*
X105050828Y-89195489D02*
X106050828Y-89195489D01*
X105050828Y-89838346D02*
X105836542Y-89838346D01*
X105836542Y-89838346D02*
X105979400Y-89766917D01*
X105979400Y-89766917D02*
X106050828Y-89624060D01*
X106050828Y-89624060D02*
X106050828Y-89409774D01*
X106050828Y-89409774D02*
X105979400Y-89266917D01*
X105979400Y-89266917D02*
X105907971Y-89195489D01*
X106050828Y-88624060D02*
X105050828Y-87838346D01*
X105050828Y-88624060D02*
X106050828Y-87838346D01*
X104550828Y-86338345D02*
X104550828Y-85481203D01*
X106050828Y-85909774D02*
X104550828Y-85909774D01*
X105979400Y-84409774D02*
X106050828Y-84552631D01*
X106050828Y-84552631D02*
X106050828Y-84838346D01*
X106050828Y-84838346D02*
X105979400Y-84981203D01*
X105979400Y-84981203D02*
X105836542Y-85052631D01*
X105836542Y-85052631D02*
X105265114Y-85052631D01*
X105265114Y-85052631D02*
X105122257Y-84981203D01*
X105122257Y-84981203D02*
X105050828Y-84838346D01*
X105050828Y-84838346D02*
X105050828Y-84552631D01*
X105050828Y-84552631D02*
X105122257Y-84409774D01*
X105122257Y-84409774D02*
X105265114Y-84338346D01*
X105265114Y-84338346D02*
X105407971Y-84338346D01*
X105407971Y-84338346D02*
X105550828Y-85052631D01*
X105979400Y-83766917D02*
X106050828Y-83624060D01*
X106050828Y-83624060D02*
X106050828Y-83338346D01*
X106050828Y-83338346D02*
X105979400Y-83195489D01*
X105979400Y-83195489D02*
X105836542Y-83124060D01*
X105836542Y-83124060D02*
X105765114Y-83124060D01*
X105765114Y-83124060D02*
X105622257Y-83195489D01*
X105622257Y-83195489D02*
X105550828Y-83338346D01*
X105550828Y-83338346D02*
X105550828Y-83552632D01*
X105550828Y-83552632D02*
X105479400Y-83695489D01*
X105479400Y-83695489D02*
X105336542Y-83766917D01*
X105336542Y-83766917D02*
X105265114Y-83766917D01*
X105265114Y-83766917D02*
X105122257Y-83695489D01*
X105122257Y-83695489D02*
X105050828Y-83552632D01*
X105050828Y-83552632D02*
X105050828Y-83338346D01*
X105050828Y-83338346D02*
X105122257Y-83195489D01*
X105050828Y-82695488D02*
X105050828Y-82124060D01*
X104550828Y-82481203D02*
X105836542Y-82481203D01*
X105836542Y-82481203D02*
X105979400Y-82409774D01*
X105979400Y-82409774D02*
X106050828Y-82266917D01*
X106050828Y-82266917D02*
X106050828Y-82124060D01*
X106050828Y-81624060D02*
X104550828Y-81624060D01*
X105122257Y-81624060D02*
X105050828Y-81481203D01*
X105050828Y-81481203D02*
X105050828Y-81195488D01*
X105050828Y-81195488D02*
X105122257Y-81052631D01*
X105122257Y-81052631D02*
X105193685Y-80981203D01*
X105193685Y-80981203D02*
X105336542Y-80909774D01*
X105336542Y-80909774D02*
X105765114Y-80909774D01*
X105765114Y-80909774D02*
X105907971Y-80981203D01*
X105907971Y-80981203D02*
X105979400Y-81052631D01*
X105979400Y-81052631D02*
X106050828Y-81195488D01*
X106050828Y-81195488D02*
X106050828Y-81481203D01*
X106050828Y-81481203D02*
X105979400Y-81624060D01*
X106050828Y-80052631D02*
X105979400Y-80195488D01*
X105979400Y-80195488D02*
X105907971Y-80266917D01*
X105907971Y-80266917D02*
X105765114Y-80338345D01*
X105765114Y-80338345D02*
X105336542Y-80338345D01*
X105336542Y-80338345D02*
X105193685Y-80266917D01*
X105193685Y-80266917D02*
X105122257Y-80195488D01*
X105122257Y-80195488D02*
X105050828Y-80052631D01*
X105050828Y-80052631D02*
X105050828Y-79838345D01*
X105050828Y-79838345D02*
X105122257Y-79695488D01*
X105122257Y-79695488D02*
X105193685Y-79624060D01*
X105193685Y-79624060D02*
X105336542Y-79552631D01*
X105336542Y-79552631D02*
X105765114Y-79552631D01*
X105765114Y-79552631D02*
X105907971Y-79624060D01*
X105907971Y-79624060D02*
X105979400Y-79695488D01*
X105979400Y-79695488D02*
X106050828Y-79838345D01*
X106050828Y-79838345D02*
X106050828Y-80052631D01*
X106050828Y-78266917D02*
X105265114Y-78266917D01*
X105265114Y-78266917D02*
X105122257Y-78338345D01*
X105122257Y-78338345D02*
X105050828Y-78481202D01*
X105050828Y-78481202D02*
X105050828Y-78766917D01*
X105050828Y-78766917D02*
X105122257Y-78909774D01*
X105979400Y-78266917D02*
X106050828Y-78409774D01*
X106050828Y-78409774D02*
X106050828Y-78766917D01*
X106050828Y-78766917D02*
X105979400Y-78909774D01*
X105979400Y-78909774D02*
X105836542Y-78981202D01*
X105836542Y-78981202D02*
X105693685Y-78981202D01*
X105693685Y-78981202D02*
X105550828Y-78909774D01*
X105550828Y-78909774D02*
X105479400Y-78766917D01*
X105479400Y-78766917D02*
X105479400Y-78409774D01*
X105479400Y-78409774D02*
X105407971Y-78266917D01*
X106050828Y-77552631D02*
X105050828Y-77552631D01*
X105336542Y-77552631D02*
X105193685Y-77481202D01*
X105193685Y-77481202D02*
X105122257Y-77409774D01*
X105122257Y-77409774D02*
X105050828Y-77266916D01*
X105050828Y-77266916D02*
X105050828Y-77124059D01*
X106050828Y-75981203D02*
X104550828Y-75981203D01*
X105979400Y-75981203D02*
X106050828Y-76124060D01*
X106050828Y-76124060D02*
X106050828Y-76409774D01*
X106050828Y-76409774D02*
X105979400Y-76552631D01*
X105979400Y-76552631D02*
X105907971Y-76624060D01*
X105907971Y-76624060D02*
X105765114Y-76695488D01*
X105765114Y-76695488D02*
X105336542Y-76695488D01*
X105336542Y-76695488D02*
X105193685Y-76624060D01*
X105193685Y-76624060D02*
X105122257Y-76552631D01*
X105122257Y-76552631D02*
X105050828Y-76409774D01*
X105050828Y-76409774D02*
X105050828Y-76124060D01*
X105050828Y-76124060D02*
X105122257Y-75981203D01*
D12*
X108417438Y-104889411D02*
X108369819Y-104984649D01*
X108369819Y-104984649D02*
X108369819Y-105127506D01*
X108369819Y-105127506D02*
X108417438Y-105270363D01*
X108417438Y-105270363D02*
X108512676Y-105365601D01*
X108512676Y-105365601D02*
X108607914Y-105413220D01*
X108607914Y-105413220D02*
X108798390Y-105460839D01*
X108798390Y-105460839D02*
X108941247Y-105460839D01*
X108941247Y-105460839D02*
X109131723Y-105413220D01*
X109131723Y-105413220D02*
X109226961Y-105365601D01*
X109226961Y-105365601D02*
X109322200Y-105270363D01*
X109322200Y-105270363D02*
X109369819Y-105127506D01*
X109369819Y-105127506D02*
X109369819Y-105032268D01*
X109369819Y-105032268D02*
X109322200Y-104889411D01*
X109322200Y-104889411D02*
X109274580Y-104841792D01*
X109274580Y-104841792D02*
X108941247Y-104841792D01*
X108941247Y-104841792D02*
X108941247Y-105032268D01*
X109369819Y-104413220D02*
X108369819Y-104413220D01*
X108369819Y-104413220D02*
X109369819Y-103841792D01*
X109369819Y-103841792D02*
X108369819Y-103841792D01*
X109369819Y-103365601D02*
X108369819Y-103365601D01*
X108369819Y-103365601D02*
X108369819Y-103127506D01*
X108369819Y-103127506D02*
X108417438Y-102984649D01*
X108417438Y-102984649D02*
X108512676Y-102889411D01*
X108512676Y-102889411D02*
X108607914Y-102841792D01*
X108607914Y-102841792D02*
X108798390Y-102794173D01*
X108798390Y-102794173D02*
X108941247Y-102794173D01*
X108941247Y-102794173D02*
X109131723Y-102841792D01*
X109131723Y-102841792D02*
X109226961Y-102889411D01*
X109226961Y-102889411D02*
X109322200Y-102984649D01*
X109322200Y-102984649D02*
X109369819Y-103127506D01*
X109369819Y-103127506D02*
X109369819Y-103365601D01*
D11*
G36*
X129612141Y-125323530D02*
G01*
X127770042Y-125323530D01*
X127770042Y-124158875D01*
X127881153Y-124158875D01*
X127883593Y-124178230D01*
X128216926Y-125178230D01*
X128226587Y-125195178D01*
X128229928Y-125196848D01*
X128231600Y-125200192D01*
X128246642Y-125205205D01*
X128260816Y-125212293D01*
X128264359Y-125211111D01*
X128267904Y-125212293D01*
X128282083Y-125205203D01*
X128297120Y-125200191D01*
X128298790Y-125196850D01*
X128302133Y-125195179D01*
X128311794Y-125178230D01*
X128553978Y-124451678D01*
X128833534Y-124451678D01*
X128850648Y-124485906D01*
X128886953Y-124498007D01*
X128905769Y-124492854D01*
X129001006Y-124445236D01*
X129007339Y-124440320D01*
X129014001Y-124435869D01*
X129109239Y-124340631D01*
X129111987Y-124336517D01*
X129115487Y-124333011D01*
X129119122Y-124327558D01*
X129119122Y-125112419D01*
X128883408Y-125112419D01*
X128864274Y-125116225D01*
X128837214Y-125143285D01*
X128837214Y-125181553D01*
X128864274Y-125208613D01*
X128883408Y-125212419D01*
X129454836Y-125212419D01*
X129473970Y-125208613D01*
X129501030Y-125181553D01*
X129501030Y-125143285D01*
X129473970Y-125116225D01*
X129454836Y-125112419D01*
X129219122Y-125112419D01*
X129219122Y-124162419D01*
X129215316Y-124143285D01*
X129211675Y-124139644D01*
X129210666Y-124134597D01*
X129198550Y-124126519D01*
X129188256Y-124116225D01*
X129183110Y-124116225D01*
X129178826Y-124113369D01*
X129164548Y-124116225D01*
X129149988Y-124116225D01*
X129146347Y-124119865D01*
X129141300Y-124120875D01*
X129127520Y-124134684D01*
X129035025Y-124273424D01*
X128949029Y-124359421D01*
X128861047Y-124403412D01*
X128845635Y-124415373D01*
X128833534Y-124451678D01*
X128553978Y-124451678D01*
X128645127Y-124178231D01*
X128647567Y-124158875D01*
X128630453Y-124124647D01*
X128594149Y-124112545D01*
X128559920Y-124129660D01*
X128550259Y-124146608D01*
X128264360Y-125004305D01*
X127978461Y-124146608D01*
X127968800Y-124129659D01*
X127934571Y-124112545D01*
X127898267Y-124124646D01*
X127881153Y-124158875D01*
X127770042Y-124158875D01*
X127770042Y-124001434D01*
X129612141Y-124001434D01*
X129612141Y-125323530D01*
G37*
D13*
X180019380Y-107026003D02*
X180067000Y-107073622D01*
X180067000Y-107073622D02*
X180114619Y-107216479D01*
X180114619Y-107216479D02*
X180114619Y-107311717D01*
X180114619Y-107311717D02*
X180067000Y-107454574D01*
X180067000Y-107454574D02*
X179971761Y-107549812D01*
X179971761Y-107549812D02*
X179876523Y-107597431D01*
X179876523Y-107597431D02*
X179686047Y-107645050D01*
X179686047Y-107645050D02*
X179543190Y-107645050D01*
X179543190Y-107645050D02*
X179352714Y-107597431D01*
X179352714Y-107597431D02*
X179257476Y-107549812D01*
X179257476Y-107549812D02*
X179162238Y-107454574D01*
X179162238Y-107454574D02*
X179114619Y-107311717D01*
X179114619Y-107311717D02*
X179114619Y-107216479D01*
X179114619Y-107216479D02*
X179162238Y-107073622D01*
X179162238Y-107073622D02*
X179209857Y-107026003D01*
X180114619Y-106597431D02*
X179114619Y-106597431D01*
X179590809Y-106597431D02*
X179590809Y-106026003D01*
X180114619Y-106026003D02*
X179114619Y-106026003D01*
X180114619Y-105026003D02*
X180114619Y-105597431D01*
X180114619Y-105311717D02*
X179114619Y-105311717D01*
X179114619Y-105311717D02*
X179257476Y-105406955D01*
X179257476Y-105406955D02*
X179352714Y-105502193D01*
X179352714Y-105502193D02*
X179400333Y-105597431D01*
X179590809Y-99014098D02*
X179590809Y-99347431D01*
X180114619Y-99347431D02*
X179114619Y-99347431D01*
X179114619Y-99347431D02*
X179114619Y-98871241D01*
X179114619Y-98633145D02*
X179114619Y-98061717D01*
X180114619Y-98347431D02*
X179114619Y-98347431D01*
X180114619Y-97252193D02*
X180114619Y-97728383D01*
X180114619Y-97728383D02*
X179114619Y-97728383D01*
X180114619Y-96395050D02*
X180114619Y-96966478D01*
X180114619Y-96680764D02*
X179114619Y-96680764D01*
X179114619Y-96680764D02*
X179257476Y-96776002D01*
X179257476Y-96776002D02*
X179352714Y-96871240D01*
X179352714Y-96871240D02*
X179400333Y-96966478D01*
D11*
G36*
X175033530Y-112948658D02*
G01*
X173711308Y-112948658D01*
X173711308Y-112172306D01*
X173822419Y-112172306D01*
X173822419Y-112791353D01*
X173826225Y-112810487D01*
X173853285Y-112837547D01*
X173891553Y-112837547D01*
X173918613Y-112810487D01*
X173922419Y-112791353D01*
X173922419Y-112282494D01*
X174220446Y-112543268D01*
X174232766Y-112550362D01*
X174234237Y-112551833D01*
X174235320Y-112551833D01*
X174237352Y-112553003D01*
X174254906Y-112551833D01*
X174272505Y-112551833D01*
X174273761Y-112550576D01*
X174275536Y-112550458D01*
X174287124Y-112537213D01*
X174299565Y-112524773D01*
X174300022Y-112522472D01*
X174300735Y-112521658D01*
X174300596Y-112519585D01*
X174303371Y-112505639D01*
X174303371Y-112374585D01*
X174342082Y-112297161D01*
X174378227Y-112261017D01*
X174455651Y-112222306D01*
X174670139Y-112222306D01*
X174747561Y-112261017D01*
X174783708Y-112297163D01*
X174822419Y-112374585D01*
X174822419Y-112636692D01*
X174783708Y-112714114D01*
X174741825Y-112755997D01*
X174730986Y-112772218D01*
X174730986Y-112810487D01*
X174758045Y-112837547D01*
X174796314Y-112837547D01*
X174812535Y-112826709D01*
X174860155Y-112779090D01*
X174864609Y-112772423D01*
X174869521Y-112766095D01*
X174917140Y-112670857D01*
X174917801Y-112668441D01*
X174918613Y-112667630D01*
X174920176Y-112659768D01*
X174922293Y-112652041D01*
X174921930Y-112650952D01*
X174922419Y-112648496D01*
X174922419Y-112362782D01*
X174921930Y-112360325D01*
X174922293Y-112359237D01*
X174920176Y-112351509D01*
X174918613Y-112343648D01*
X174917801Y-112342836D01*
X174917140Y-112340421D01*
X174869521Y-112245183D01*
X174864609Y-112238854D01*
X174860155Y-112232188D01*
X174812535Y-112184569D01*
X174805868Y-112180114D01*
X174799540Y-112175203D01*
X174704303Y-112127585D01*
X174701887Y-112126923D01*
X174701076Y-112126112D01*
X174693214Y-112124548D01*
X174685487Y-112122432D01*
X174684398Y-112122794D01*
X174681942Y-112122306D01*
X174443847Y-112122306D01*
X174441390Y-112122794D01*
X174440302Y-112122432D01*
X174432574Y-112124548D01*
X174424713Y-112126112D01*
X174423901Y-112126923D01*
X174421486Y-112127585D01*
X174326248Y-112175204D01*
X174319919Y-112180115D01*
X174313253Y-112184570D01*
X174265635Y-112232189D01*
X174261183Y-112238850D01*
X174256268Y-112245184D01*
X174208650Y-112340421D01*
X174207988Y-112342836D01*
X174207177Y-112343648D01*
X174205613Y-112351509D01*
X174203497Y-112359237D01*
X174203859Y-112360325D01*
X174203371Y-112362782D01*
X174203371Y-112395450D01*
X173905344Y-112134677D01*
X173893023Y-112127582D01*
X173891553Y-112126112D01*
X173890470Y-112126112D01*
X173888438Y-112124942D01*
X173870884Y-112126112D01*
X173853285Y-112126112D01*
X173852028Y-112127368D01*
X173850254Y-112127487D01*
X173838665Y-112140731D01*
X173826225Y-112153172D01*
X173825767Y-112155472D01*
X173825055Y-112156287D01*
X173825193Y-112158359D01*
X173822419Y-112172306D01*
X173711308Y-112172306D01*
X173711308Y-111223469D01*
X173822545Y-111223469D01*
X173839659Y-111257698D01*
X173856608Y-111267359D01*
X174714305Y-111553258D01*
X173856608Y-111839157D01*
X173839659Y-111848818D01*
X173822545Y-111883047D01*
X173834646Y-111919351D01*
X173868875Y-111936465D01*
X173888230Y-111934025D01*
X174888230Y-111600692D01*
X174905178Y-111591031D01*
X174906849Y-111587688D01*
X174910191Y-111586018D01*
X174915204Y-111570979D01*
X174922293Y-111556802D01*
X174921111Y-111553258D01*
X174922293Y-111549714D01*
X174915204Y-111535536D01*
X174910191Y-111520498D01*
X174906849Y-111518827D01*
X174905178Y-111515485D01*
X174888230Y-111505824D01*
X173888230Y-111172491D01*
X173868875Y-111170051D01*
X173834646Y-111187165D01*
X173822545Y-111223469D01*
X173711308Y-111223469D01*
X173711308Y-110362782D01*
X173822419Y-110362782D01*
X173822419Y-110981829D01*
X173826225Y-111000963D01*
X173853285Y-111028023D01*
X173891553Y-111028023D01*
X173918613Y-111000963D01*
X173922419Y-110981829D01*
X173922419Y-110472970D01*
X174220446Y-110733744D01*
X174232766Y-110740838D01*
X174234237Y-110742309D01*
X174235320Y-110742309D01*
X174237352Y-110743479D01*
X174254906Y-110742309D01*
X174272505Y-110742309D01*
X174273761Y-110741052D01*
X174275536Y-110740934D01*
X174287124Y-110727689D01*
X174299565Y-110715249D01*
X174300022Y-110712948D01*
X174300735Y-110712134D01*
X174300596Y-110710061D01*
X174303371Y-110696115D01*
X174303371Y-110565061D01*
X174342082Y-110487637D01*
X174378227Y-110451493D01*
X174455651Y-110412782D01*
X174670139Y-110412782D01*
X174747561Y-110451493D01*
X174783708Y-110487639D01*
X174822419Y-110565061D01*
X174822419Y-110827168D01*
X174783708Y-110904590D01*
X174741825Y-110946473D01*
X174730986Y-110962694D01*
X174730986Y-111000963D01*
X174758045Y-111028023D01*
X174796314Y-111028023D01*
X174812535Y-111017185D01*
X174860155Y-110969566D01*
X174864609Y-110962899D01*
X174869521Y-110956571D01*
X174917140Y-110861333D01*
X174917801Y-110858917D01*
X174918613Y-110858106D01*
X174920176Y-110850244D01*
X174922293Y-110842517D01*
X174921930Y-110841428D01*
X174922419Y-110838972D01*
X174922419Y-110553258D01*
X174921930Y-110550801D01*
X174922293Y-110549713D01*
X174920176Y-110541985D01*
X174918613Y-110534124D01*
X174917801Y-110533312D01*
X174917140Y-110530897D01*
X174869521Y-110435659D01*
X174864609Y-110429330D01*
X174860155Y-110422664D01*
X174812535Y-110375045D01*
X174805868Y-110370590D01*
X174799540Y-110365679D01*
X174704303Y-110318061D01*
X174701887Y-110317399D01*
X174701076Y-110316588D01*
X174693214Y-110315024D01*
X174685487Y-110312908D01*
X174684398Y-110313270D01*
X174681942Y-110312782D01*
X174443847Y-110312782D01*
X174441390Y-110313270D01*
X174440302Y-110312908D01*
X174432574Y-110315024D01*
X174424713Y-110316588D01*
X174423901Y-110317399D01*
X174421486Y-110318061D01*
X174326248Y-110365680D01*
X174319919Y-110370591D01*
X174313253Y-110375046D01*
X174265635Y-110422665D01*
X174261183Y-110429326D01*
X174256268Y-110435660D01*
X174208650Y-110530897D01*
X174207988Y-110533312D01*
X174207177Y-110534124D01*
X174205613Y-110541985D01*
X174203497Y-110549713D01*
X174203859Y-110550801D01*
X174203371Y-110553258D01*
X174203371Y-110585926D01*
X173905344Y-110325153D01*
X173893023Y-110318058D01*
X173891553Y-110316588D01*
X173890470Y-110316588D01*
X173888438Y-110315418D01*
X173870884Y-110316588D01*
X173853285Y-110316588D01*
X173852028Y-110317844D01*
X173850254Y-110317963D01*
X173838665Y-110331207D01*
X173826225Y-110343648D01*
X173825767Y-110345948D01*
X173825055Y-110346763D01*
X173825193Y-110348835D01*
X173822419Y-110362782D01*
X173711308Y-110362782D01*
X173711308Y-110201671D01*
X175033530Y-110201671D01*
X175033530Y-112948658D01*
G37*
D13*
X179114619Y-103740288D02*
X180114619Y-103406955D01*
X180114619Y-103406955D02*
X179114619Y-103073622D01*
X180114619Y-102740288D02*
X179114619Y-102740288D01*
X179114619Y-102740288D02*
X179114619Y-102502193D01*
X179114619Y-102502193D02*
X179162238Y-102359336D01*
X179162238Y-102359336D02*
X179257476Y-102264098D01*
X179257476Y-102264098D02*
X179352714Y-102216479D01*
X179352714Y-102216479D02*
X179543190Y-102168860D01*
X179543190Y-102168860D02*
X179686047Y-102168860D01*
X179686047Y-102168860D02*
X179876523Y-102216479D01*
X179876523Y-102216479D02*
X179971761Y-102264098D01*
X179971761Y-102264098D02*
X180067000Y-102359336D01*
X180067000Y-102359336D02*
X180114619Y-102502193D01*
X180114619Y-102502193D02*
X180114619Y-102740288D01*
X180114619Y-101264098D02*
X180114619Y-101740288D01*
X180114619Y-101740288D02*
X179114619Y-101740288D01*
X180114619Y-100406955D02*
X180114619Y-100978383D01*
X180114619Y-100692669D02*
X179114619Y-100692669D01*
X179114619Y-100692669D02*
X179257476Y-100787907D01*
X179257476Y-100787907D02*
X179352714Y-100883145D01*
X179352714Y-100883145D02*
X179400333Y-100978383D01*
X180114619Y-95097431D02*
X179114619Y-95097431D01*
X179114619Y-95097431D02*
X179114619Y-94859336D01*
X179114619Y-94859336D02*
X179162238Y-94716479D01*
X179162238Y-94716479D02*
X179257476Y-94621241D01*
X179257476Y-94621241D02*
X179352714Y-94573622D01*
X179352714Y-94573622D02*
X179543190Y-94526003D01*
X179543190Y-94526003D02*
X179686047Y-94526003D01*
X179686047Y-94526003D02*
X179876523Y-94573622D01*
X179876523Y-94573622D02*
X179971761Y-94621241D01*
X179971761Y-94621241D02*
X180067000Y-94716479D01*
X180067000Y-94716479D02*
X180114619Y-94859336D01*
X180114619Y-94859336D02*
X180114619Y-95097431D01*
X180114619Y-94097431D02*
X179114619Y-94097431D01*
X180067000Y-93668860D02*
X180114619Y-93526003D01*
X180114619Y-93526003D02*
X180114619Y-93287908D01*
X180114619Y-93287908D02*
X180067000Y-93192670D01*
X180067000Y-93192670D02*
X180019380Y-93145051D01*
X180019380Y-93145051D02*
X179924142Y-93097432D01*
X179924142Y-93097432D02*
X179828904Y-93097432D01*
X179828904Y-93097432D02*
X179733666Y-93145051D01*
X179733666Y-93145051D02*
X179686047Y-93192670D01*
X179686047Y-93192670D02*
X179638428Y-93287908D01*
X179638428Y-93287908D02*
X179590809Y-93478384D01*
X179590809Y-93478384D02*
X179543190Y-93573622D01*
X179543190Y-93573622D02*
X179495571Y-93621241D01*
X179495571Y-93621241D02*
X179400333Y-93668860D01*
X179400333Y-93668860D02*
X179305095Y-93668860D01*
X179305095Y-93668860D02*
X179209857Y-93621241D01*
X179209857Y-93621241D02*
X179162238Y-93573622D01*
X179162238Y-93573622D02*
X179114619Y-93478384D01*
X179114619Y-93478384D02*
X179114619Y-93240289D01*
X179114619Y-93240289D02*
X179162238Y-93097432D01*
X180114619Y-92145051D02*
X180114619Y-92716479D01*
X180114619Y-92430765D02*
X179114619Y-92430765D01*
X179114619Y-92430765D02*
X179257476Y-92526003D01*
X179257476Y-92526003D02*
X179352714Y-92621241D01*
X179352714Y-92621241D02*
X179400333Y-92716479D01*
D10*
X161733082Y-132229400D02*
X161947368Y-132300828D01*
X161947368Y-132300828D02*
X162304510Y-132300828D01*
X162304510Y-132300828D02*
X162447368Y-132229400D01*
X162447368Y-132229400D02*
X162518796Y-132157971D01*
X162518796Y-132157971D02*
X162590225Y-132015114D01*
X162590225Y-132015114D02*
X162590225Y-131872257D01*
X162590225Y-131872257D02*
X162518796Y-131729400D01*
X162518796Y-131729400D02*
X162447368Y-131657971D01*
X162447368Y-131657971D02*
X162304510Y-131586542D01*
X162304510Y-131586542D02*
X162018796Y-131515114D01*
X162018796Y-131515114D02*
X161875939Y-131443685D01*
X161875939Y-131443685D02*
X161804510Y-131372257D01*
X161804510Y-131372257D02*
X161733082Y-131229400D01*
X161733082Y-131229400D02*
X161733082Y-131086542D01*
X161733082Y-131086542D02*
X161804510Y-130943685D01*
X161804510Y-130943685D02*
X161875939Y-130872257D01*
X161875939Y-130872257D02*
X162018796Y-130800828D01*
X162018796Y-130800828D02*
X162375939Y-130800828D01*
X162375939Y-130800828D02*
X162590225Y-130872257D01*
X163233081Y-132300828D02*
X163233081Y-130800828D01*
X163233081Y-131515114D02*
X164090224Y-131515114D01*
X164090224Y-132300828D02*
X164090224Y-130800828D01*
X164804510Y-132300828D02*
X164804510Y-130800828D01*
X164804510Y-130800828D02*
X165161653Y-130800828D01*
X165161653Y-130800828D02*
X165375939Y-130872257D01*
X165375939Y-130872257D02*
X165518796Y-131015114D01*
X165518796Y-131015114D02*
X165590225Y-131157971D01*
X165590225Y-131157971D02*
X165661653Y-131443685D01*
X165661653Y-131443685D02*
X165661653Y-131657971D01*
X165661653Y-131657971D02*
X165590225Y-131943685D01*
X165590225Y-131943685D02*
X165518796Y-132086542D01*
X165518796Y-132086542D02*
X165375939Y-132229400D01*
X165375939Y-132229400D02*
X165161653Y-132300828D01*
X165161653Y-132300828D02*
X164804510Y-132300828D01*
X166304510Y-132300828D02*
X166304510Y-130800828D01*
X166304510Y-130800828D02*
X167161653Y-132300828D01*
X167161653Y-132300828D02*
X167161653Y-130800828D01*
X169875939Y-132157971D02*
X169804511Y-132229400D01*
X169804511Y-132229400D02*
X169590225Y-132300828D01*
X169590225Y-132300828D02*
X169447368Y-132300828D01*
X169447368Y-132300828D02*
X169233082Y-132229400D01*
X169233082Y-132229400D02*
X169090225Y-132086542D01*
X169090225Y-132086542D02*
X169018796Y-131943685D01*
X169018796Y-131943685D02*
X168947368Y-131657971D01*
X168947368Y-131657971D02*
X168947368Y-131443685D01*
X168947368Y-131443685D02*
X169018796Y-131157971D01*
X169018796Y-131157971D02*
X169090225Y-131015114D01*
X169090225Y-131015114D02*
X169233082Y-130872257D01*
X169233082Y-130872257D02*
X169447368Y-130800828D01*
X169447368Y-130800828D02*
X169590225Y-130800828D01*
X169590225Y-130800828D02*
X169804511Y-130872257D01*
X169804511Y-130872257D02*
X169875939Y-130943685D01*
X170304511Y-130800828D02*
X171161654Y-130800828D01*
X170733082Y-132300828D02*
X170733082Y-130800828D01*
X172518796Y-132300828D02*
X172018796Y-131586542D01*
X171661653Y-132300828D02*
X171661653Y-130800828D01*
X171661653Y-130800828D02*
X172233082Y-130800828D01*
X172233082Y-130800828D02*
X172375939Y-130872257D01*
X172375939Y-130872257D02*
X172447368Y-130943685D01*
X172447368Y-130943685D02*
X172518796Y-131086542D01*
X172518796Y-131086542D02*
X172518796Y-131300828D01*
X172518796Y-131300828D02*
X172447368Y-131443685D01*
X172447368Y-131443685D02*
X172375939Y-131515114D01*
X172375939Y-131515114D02*
X172233082Y-131586542D01*
X172233082Y-131586542D02*
X171661653Y-131586542D01*
X173875939Y-132300828D02*
X173161653Y-132300828D01*
X173161653Y-132300828D02*
X173161653Y-130800828D01*
D11*
X117437693Y-124300038D02*
X117342455Y-124252419D01*
X117342455Y-124252419D02*
X117199598Y-124252419D01*
X117199598Y-124252419D02*
X117056741Y-124300038D01*
X117056741Y-124300038D02*
X116961503Y-124395276D01*
X116961503Y-124395276D02*
X116913884Y-124490514D01*
X116913884Y-124490514D02*
X116866265Y-124680990D01*
X116866265Y-124680990D02*
X116866265Y-124823847D01*
X116866265Y-124823847D02*
X116913884Y-125014323D01*
X116913884Y-125014323D02*
X116961503Y-125109561D01*
X116961503Y-125109561D02*
X117056741Y-125204800D01*
X117056741Y-125204800D02*
X117199598Y-125252419D01*
X117199598Y-125252419D02*
X117294836Y-125252419D01*
X117294836Y-125252419D02*
X117437693Y-125204800D01*
X117437693Y-125204800D02*
X117485312Y-125157180D01*
X117485312Y-125157180D02*
X117485312Y-124823847D01*
X117485312Y-124823847D02*
X117294836Y-124823847D01*
X117913884Y-125252419D02*
X117913884Y-124252419D01*
X117913884Y-124252419D02*
X118485312Y-125252419D01*
X118485312Y-125252419D02*
X118485312Y-124252419D01*
X118961503Y-125252419D02*
X118961503Y-124252419D01*
X118961503Y-124252419D02*
X119199598Y-124252419D01*
X119199598Y-124252419D02*
X119342455Y-124300038D01*
X119342455Y-124300038D02*
X119437693Y-124395276D01*
X119437693Y-124395276D02*
X119485312Y-124490514D01*
X119485312Y-124490514D02*
X119532931Y-124680990D01*
X119532931Y-124680990D02*
X119532931Y-124823847D01*
X119532931Y-124823847D02*
X119485312Y-125014323D01*
X119485312Y-125014323D02*
X119437693Y-125109561D01*
X119437693Y-125109561D02*
X119342455Y-125204800D01*
X119342455Y-125204800D02*
X119199598Y-125252419D01*
X119199598Y-125252419D02*
X118961503Y-125252419D01*
D13*
X179114619Y-87240288D02*
X180114619Y-86906955D01*
X180114619Y-86906955D02*
X179114619Y-86573622D01*
X180114619Y-86240288D02*
X179114619Y-86240288D01*
X179114619Y-86240288D02*
X179114619Y-86002193D01*
X179114619Y-86002193D02*
X179162238Y-85859336D01*
X179162238Y-85859336D02*
X179257476Y-85764098D01*
X179257476Y-85764098D02*
X179352714Y-85716479D01*
X179352714Y-85716479D02*
X179543190Y-85668860D01*
X179543190Y-85668860D02*
X179686047Y-85668860D01*
X179686047Y-85668860D02*
X179876523Y-85716479D01*
X179876523Y-85716479D02*
X179971761Y-85764098D01*
X179971761Y-85764098D02*
X180067000Y-85859336D01*
X180067000Y-85859336D02*
X180114619Y-86002193D01*
X180114619Y-86002193D02*
X180114619Y-86240288D01*
X180114619Y-84764098D02*
X180114619Y-85240288D01*
X180114619Y-85240288D02*
X179114619Y-85240288D01*
X180114619Y-83906955D02*
X180114619Y-84478383D01*
X180114619Y-84192669D02*
X179114619Y-84192669D01*
X179114619Y-84192669D02*
X179257476Y-84287907D01*
X179257476Y-84287907D02*
X179352714Y-84383145D01*
X179352714Y-84383145D02*
X179400333Y-84478383D01*
X180019380Y-90526003D02*
X180067000Y-90573622D01*
X180067000Y-90573622D02*
X180114619Y-90716479D01*
X180114619Y-90716479D02*
X180114619Y-90811717D01*
X180114619Y-90811717D02*
X180067000Y-90954574D01*
X180067000Y-90954574D02*
X179971761Y-91049812D01*
X179971761Y-91049812D02*
X179876523Y-91097431D01*
X179876523Y-91097431D02*
X179686047Y-91145050D01*
X179686047Y-91145050D02*
X179543190Y-91145050D01*
X179543190Y-91145050D02*
X179352714Y-91097431D01*
X179352714Y-91097431D02*
X179257476Y-91049812D01*
X179257476Y-91049812D02*
X179162238Y-90954574D01*
X179162238Y-90954574D02*
X179114619Y-90811717D01*
X179114619Y-90811717D02*
X179114619Y-90716479D01*
X179114619Y-90716479D02*
X179162238Y-90573622D01*
X179162238Y-90573622D02*
X179209857Y-90526003D01*
X180114619Y-90097431D02*
X179114619Y-90097431D01*
X179590809Y-90097431D02*
X179590809Y-89526003D01*
X180114619Y-89526003D02*
X179114619Y-89526003D01*
X180114619Y-88526003D02*
X180114619Y-89097431D01*
X180114619Y-88811717D02*
X179114619Y-88811717D01*
X179114619Y-88811717D02*
X179257476Y-88906955D01*
X179257476Y-88906955D02*
X179352714Y-89002193D01*
X179352714Y-89002193D02*
X179400333Y-89097431D01*
D11*
G36*
X186283530Y-108198658D02*
G01*
X184961308Y-108198658D01*
X184961308Y-107422306D01*
X185072419Y-107422306D01*
X185072419Y-108041353D01*
X185076225Y-108060487D01*
X185103285Y-108087547D01*
X185141553Y-108087547D01*
X185168613Y-108060487D01*
X185172419Y-108041353D01*
X185172419Y-107532494D01*
X185470446Y-107793268D01*
X185482766Y-107800362D01*
X185484237Y-107801833D01*
X185485320Y-107801833D01*
X185487352Y-107803003D01*
X185504906Y-107801833D01*
X185522505Y-107801833D01*
X185523761Y-107800576D01*
X185525536Y-107800458D01*
X185537124Y-107787213D01*
X185549565Y-107774773D01*
X185550022Y-107772472D01*
X185550735Y-107771658D01*
X185550596Y-107769585D01*
X185553371Y-107755639D01*
X185553371Y-107624585D01*
X185592082Y-107547161D01*
X185628227Y-107511017D01*
X185705651Y-107472306D01*
X185920139Y-107472306D01*
X185997561Y-107511017D01*
X186033708Y-107547163D01*
X186072419Y-107624585D01*
X186072419Y-107886692D01*
X186033708Y-107964114D01*
X185991825Y-108005997D01*
X185980986Y-108022218D01*
X185980986Y-108060487D01*
X186008045Y-108087547D01*
X186046314Y-108087547D01*
X186062535Y-108076709D01*
X186110155Y-108029090D01*
X186114609Y-108022423D01*
X186119521Y-108016095D01*
X186167140Y-107920857D01*
X186167801Y-107918441D01*
X186168613Y-107917630D01*
X186170176Y-107909768D01*
X186172293Y-107902041D01*
X186171930Y-107900952D01*
X186172419Y-107898496D01*
X186172419Y-107612782D01*
X186171930Y-107610325D01*
X186172293Y-107609237D01*
X186170176Y-107601509D01*
X186168613Y-107593648D01*
X186167801Y-107592836D01*
X186167140Y-107590421D01*
X186119521Y-107495183D01*
X186114609Y-107488854D01*
X186110155Y-107482188D01*
X186062535Y-107434569D01*
X186055868Y-107430114D01*
X186049540Y-107425203D01*
X185954303Y-107377585D01*
X185951887Y-107376923D01*
X185951076Y-107376112D01*
X185943214Y-107374548D01*
X185935487Y-107372432D01*
X185934398Y-107372794D01*
X185931942Y-107372306D01*
X185693847Y-107372306D01*
X185691390Y-107372794D01*
X185690302Y-107372432D01*
X185682574Y-107374548D01*
X185674713Y-107376112D01*
X185673901Y-107376923D01*
X185671486Y-107377585D01*
X185576248Y-107425204D01*
X185569919Y-107430115D01*
X185563253Y-107434570D01*
X185515635Y-107482189D01*
X185511183Y-107488850D01*
X185506268Y-107495184D01*
X185458650Y-107590421D01*
X185457988Y-107592836D01*
X185457177Y-107593648D01*
X185455613Y-107601509D01*
X185453497Y-107609237D01*
X185453859Y-107610325D01*
X185453371Y-107612782D01*
X185453371Y-107645450D01*
X185155344Y-107384677D01*
X185143023Y-107377582D01*
X185141553Y-107376112D01*
X185140470Y-107376112D01*
X185138438Y-107374942D01*
X185120884Y-107376112D01*
X185103285Y-107376112D01*
X185102028Y-107377368D01*
X185100254Y-107377487D01*
X185088665Y-107390731D01*
X185076225Y-107403172D01*
X185075767Y-107405472D01*
X185075055Y-107406287D01*
X185075193Y-107408359D01*
X185072419Y-107422306D01*
X184961308Y-107422306D01*
X184961308Y-106473469D01*
X185072545Y-106473469D01*
X185089659Y-106507698D01*
X185106608Y-106517359D01*
X185964305Y-106803258D01*
X185106608Y-107089157D01*
X185089659Y-107098818D01*
X185072545Y-107133047D01*
X185084646Y-107169351D01*
X185118875Y-107186465D01*
X185138230Y-107184025D01*
X186138230Y-106850692D01*
X186155178Y-106841031D01*
X186156849Y-106837688D01*
X186160191Y-106836018D01*
X186165204Y-106820979D01*
X186172293Y-106806802D01*
X186171111Y-106803258D01*
X186172293Y-106799714D01*
X186165204Y-106785536D01*
X186160191Y-106770498D01*
X186156849Y-106768827D01*
X186155178Y-106765485D01*
X186138230Y-106755824D01*
X185138230Y-106422491D01*
X185118875Y-106420051D01*
X185084646Y-106437165D01*
X185072545Y-106473469D01*
X184961308Y-106473469D01*
X184961308Y-105612782D01*
X185072419Y-105612782D01*
X185072419Y-106231829D01*
X185076225Y-106250963D01*
X185103285Y-106278023D01*
X185141553Y-106278023D01*
X185168613Y-106250963D01*
X185172419Y-106231829D01*
X185172419Y-105722970D01*
X185470446Y-105983744D01*
X185482766Y-105990838D01*
X185484237Y-105992309D01*
X185485320Y-105992309D01*
X185487352Y-105993479D01*
X185504906Y-105992309D01*
X185522505Y-105992309D01*
X185523761Y-105991052D01*
X185525536Y-105990934D01*
X185537124Y-105977689D01*
X185549565Y-105965249D01*
X185550022Y-105962948D01*
X185550735Y-105962134D01*
X185550596Y-105960061D01*
X185553371Y-105946115D01*
X185553371Y-105815061D01*
X185592082Y-105737637D01*
X185628227Y-105701493D01*
X185705651Y-105662782D01*
X185920139Y-105662782D01*
X185997561Y-105701493D01*
X186033708Y-105737639D01*
X186072419Y-105815061D01*
X186072419Y-106077168D01*
X186033708Y-106154590D01*
X185991825Y-106196473D01*
X185980986Y-106212694D01*
X185980986Y-106250963D01*
X186008045Y-106278023D01*
X186046314Y-106278023D01*
X186062535Y-106267185D01*
X186110155Y-106219566D01*
X186114609Y-106212899D01*
X186119521Y-106206571D01*
X186167140Y-106111333D01*
X186167801Y-106108917D01*
X186168613Y-106108106D01*
X186170176Y-106100244D01*
X186172293Y-106092517D01*
X186171930Y-106091428D01*
X186172419Y-106088972D01*
X186172419Y-105803258D01*
X186171930Y-105800801D01*
X186172293Y-105799713D01*
X186170176Y-105791985D01*
X186168613Y-105784124D01*
X186167801Y-105783312D01*
X186167140Y-105780897D01*
X186119521Y-105685659D01*
X186114609Y-105679330D01*
X186110155Y-105672664D01*
X186062535Y-105625045D01*
X186055868Y-105620590D01*
X186049540Y-105615679D01*
X185954303Y-105568061D01*
X185951887Y-105567399D01*
X185951076Y-105566588D01*
X185943214Y-105565024D01*
X185935487Y-105562908D01*
X185934398Y-105563270D01*
X185931942Y-105562782D01*
X185693847Y-105562782D01*
X185691390Y-105563270D01*
X185690302Y-105562908D01*
X185682574Y-105565024D01*
X185674713Y-105566588D01*
X185673901Y-105567399D01*
X185671486Y-105568061D01*
X185576248Y-105615680D01*
X185569919Y-105620591D01*
X185563253Y-105625046D01*
X185515635Y-105672665D01*
X185511183Y-105679326D01*
X185506268Y-105685660D01*
X185458650Y-105780897D01*
X185457988Y-105783312D01*
X185457177Y-105784124D01*
X185455613Y-105791985D01*
X185453497Y-105799713D01*
X185453859Y-105800801D01*
X185453371Y-105803258D01*
X185453371Y-105835926D01*
X185155344Y-105575153D01*
X185143023Y-105568058D01*
X185141553Y-105566588D01*
X185140470Y-105566588D01*
X185138438Y-105565418D01*
X185120884Y-105566588D01*
X185103285Y-105566588D01*
X185102028Y-105567844D01*
X185100254Y-105567963D01*
X185088665Y-105581207D01*
X185076225Y-105593648D01*
X185075767Y-105595948D01*
X185075055Y-105596763D01*
X185075193Y-105598835D01*
X185072419Y-105612782D01*
X184961308Y-105612782D01*
X184961308Y-105451671D01*
X186283530Y-105451671D01*
X186283530Y-108198658D01*
G37*
D13*
X180114619Y-78597431D02*
X179114619Y-78597431D01*
X179114619Y-78597431D02*
X179114619Y-78359336D01*
X179114619Y-78359336D02*
X179162238Y-78216479D01*
X179162238Y-78216479D02*
X179257476Y-78121241D01*
X179257476Y-78121241D02*
X179352714Y-78073622D01*
X179352714Y-78073622D02*
X179543190Y-78026003D01*
X179543190Y-78026003D02*
X179686047Y-78026003D01*
X179686047Y-78026003D02*
X179876523Y-78073622D01*
X179876523Y-78073622D02*
X179971761Y-78121241D01*
X179971761Y-78121241D02*
X180067000Y-78216479D01*
X180067000Y-78216479D02*
X180114619Y-78359336D01*
X180114619Y-78359336D02*
X180114619Y-78597431D01*
X180114619Y-77597431D02*
X179114619Y-77597431D01*
X180067000Y-77168860D02*
X180114619Y-77026003D01*
X180114619Y-77026003D02*
X180114619Y-76787908D01*
X180114619Y-76787908D02*
X180067000Y-76692670D01*
X180067000Y-76692670D02*
X180019380Y-76645051D01*
X180019380Y-76645051D02*
X179924142Y-76597432D01*
X179924142Y-76597432D02*
X179828904Y-76597432D01*
X179828904Y-76597432D02*
X179733666Y-76645051D01*
X179733666Y-76645051D02*
X179686047Y-76692670D01*
X179686047Y-76692670D02*
X179638428Y-76787908D01*
X179638428Y-76787908D02*
X179590809Y-76978384D01*
X179590809Y-76978384D02*
X179543190Y-77073622D01*
X179543190Y-77073622D02*
X179495571Y-77121241D01*
X179495571Y-77121241D02*
X179400333Y-77168860D01*
X179400333Y-77168860D02*
X179305095Y-77168860D01*
X179305095Y-77168860D02*
X179209857Y-77121241D01*
X179209857Y-77121241D02*
X179162238Y-77073622D01*
X179162238Y-77073622D02*
X179114619Y-76978384D01*
X179114619Y-76978384D02*
X179114619Y-76740289D01*
X179114619Y-76740289D02*
X179162238Y-76597432D01*
X180114619Y-75645051D02*
X180114619Y-76216479D01*
X180114619Y-75930765D02*
X179114619Y-75930765D01*
X179114619Y-75930765D02*
X179257476Y-76026003D01*
X179257476Y-76026003D02*
X179352714Y-76121241D01*
X179352714Y-76121241D02*
X179400333Y-76216479D01*
D12*
X108369819Y-100222744D02*
X108369819Y-100032268D01*
X108369819Y-100032268D02*
X108417438Y-99937030D01*
X108417438Y-99937030D02*
X108512676Y-99841792D01*
X108512676Y-99841792D02*
X108703152Y-99794173D01*
X108703152Y-99794173D02*
X109036485Y-99794173D01*
X109036485Y-99794173D02*
X109226961Y-99841792D01*
X109226961Y-99841792D02*
X109322200Y-99937030D01*
X109322200Y-99937030D02*
X109369819Y-100032268D01*
X109369819Y-100032268D02*
X109369819Y-100222744D01*
X109369819Y-100222744D02*
X109322200Y-100317982D01*
X109322200Y-100317982D02*
X109226961Y-100413220D01*
X109226961Y-100413220D02*
X109036485Y-100460839D01*
X109036485Y-100460839D02*
X108703152Y-100460839D01*
X108703152Y-100460839D02*
X108512676Y-100413220D01*
X108512676Y-100413220D02*
X108417438Y-100317982D01*
X108417438Y-100317982D02*
X108369819Y-100222744D01*
X108703152Y-98937030D02*
X109369819Y-98937030D01*
X108703152Y-99365601D02*
X109226961Y-99365601D01*
X109226961Y-99365601D02*
X109322200Y-99317982D01*
X109322200Y-99317982D02*
X109369819Y-99222744D01*
X109369819Y-99222744D02*
X109369819Y-99079887D01*
X109369819Y-99079887D02*
X109322200Y-98984649D01*
X109322200Y-98984649D02*
X109274580Y-98937030D01*
X108703152Y-98603696D02*
X108703152Y-98222744D01*
X108369819Y-98460839D02*
X109226961Y-98460839D01*
X109226961Y-98460839D02*
X109322200Y-98413220D01*
X109322200Y-98413220D02*
X109369819Y-98317982D01*
X109369819Y-98317982D02*
X109369819Y-98222744D01*
D11*
G36*
X129095947Y-81033530D02*
G01*
X127250042Y-81033530D01*
X127250042Y-79868875D01*
X127361153Y-79868875D01*
X127363593Y-79888230D01*
X127696926Y-80888230D01*
X127706587Y-80905178D01*
X127709928Y-80906848D01*
X127711600Y-80910192D01*
X127726642Y-80915205D01*
X127740816Y-80922293D01*
X127744359Y-80921111D01*
X127747904Y-80922293D01*
X127762083Y-80915203D01*
X127777120Y-80910191D01*
X127778790Y-80906850D01*
X127782133Y-80905179D01*
X127791794Y-80888230D01*
X127803442Y-80853285D01*
X128269595Y-80853285D01*
X128269595Y-80891553D01*
X128296655Y-80918613D01*
X128315789Y-80922419D01*
X128934836Y-80922419D01*
X128953970Y-80918613D01*
X128981030Y-80891553D01*
X128981030Y-80853285D01*
X128953970Y-80826225D01*
X128934836Y-80822419D01*
X128436499Y-80822419D01*
X128922572Y-80336345D01*
X128923962Y-80334263D01*
X128924990Y-80333750D01*
X128928960Y-80326784D01*
X128933411Y-80320124D01*
X128933411Y-80318976D01*
X128934651Y-80316801D01*
X128982270Y-80173945D01*
X128983272Y-80165994D01*
X128984836Y-80158133D01*
X128984836Y-80062895D01*
X128984347Y-80060438D01*
X128984710Y-80059350D01*
X128982593Y-80051622D01*
X128981030Y-80043761D01*
X128980218Y-80042949D01*
X128979557Y-80040534D01*
X128931938Y-79945296D01*
X128927026Y-79938967D01*
X128922572Y-79932301D01*
X128874953Y-79884683D01*
X128868291Y-79880231D01*
X128861958Y-79875316D01*
X128766721Y-79827698D01*
X128764305Y-79827036D01*
X128763494Y-79826225D01*
X128755632Y-79824661D01*
X128747905Y-79822545D01*
X128746816Y-79822907D01*
X128744360Y-79822419D01*
X128506265Y-79822419D01*
X128503808Y-79822907D01*
X128502720Y-79822545D01*
X128494992Y-79824661D01*
X128487131Y-79826225D01*
X128486319Y-79827036D01*
X128483904Y-79827698D01*
X128388666Y-79875317D01*
X128382337Y-79880228D01*
X128375671Y-79884683D01*
X128328053Y-79932302D01*
X128317214Y-79948523D01*
X128317214Y-79986791D01*
X128344274Y-80013851D01*
X128382542Y-80013851D01*
X128398763Y-80003012D01*
X128440645Y-79961130D01*
X128518069Y-79922419D01*
X128732557Y-79922419D01*
X128809980Y-79961130D01*
X128846124Y-79997275D01*
X128884836Y-80074698D01*
X128884836Y-80150020D01*
X128843515Y-80273981D01*
X128280434Y-80837064D01*
X128269595Y-80853285D01*
X127803442Y-80853285D01*
X128125127Y-79888231D01*
X128127567Y-79868875D01*
X128110453Y-79834647D01*
X128074149Y-79822545D01*
X128039920Y-79839660D01*
X128030259Y-79856608D01*
X127744360Y-80714305D01*
X127458461Y-79856608D01*
X127448800Y-79839659D01*
X127414571Y-79822545D01*
X127378267Y-79834646D01*
X127361153Y-79868875D01*
X127250042Y-79868875D01*
X127250042Y-79711308D01*
X129095947Y-79711308D01*
X129095947Y-81033530D01*
G37*
D13*
X179590809Y-82514098D02*
X179590809Y-82847431D01*
X180114619Y-82847431D02*
X179114619Y-82847431D01*
X179114619Y-82847431D02*
X179114619Y-82371241D01*
X179114619Y-82133145D02*
X179114619Y-81561717D01*
X180114619Y-81847431D02*
X179114619Y-81847431D01*
X180114619Y-80752193D02*
X180114619Y-81228383D01*
X180114619Y-81228383D02*
X179114619Y-81228383D01*
X180114619Y-79895050D02*
X180114619Y-80466478D01*
X180114619Y-80180764D02*
X179114619Y-80180764D01*
X179114619Y-80180764D02*
X179257476Y-80276002D01*
X179257476Y-80276002D02*
X179352714Y-80371240D01*
X179352714Y-80371240D02*
X179400333Y-80466478D01*
D11*
X117177693Y-79920038D02*
X117082455Y-79872419D01*
X117082455Y-79872419D02*
X116939598Y-79872419D01*
X116939598Y-79872419D02*
X116796741Y-79920038D01*
X116796741Y-79920038D02*
X116701503Y-80015276D01*
X116701503Y-80015276D02*
X116653884Y-80110514D01*
X116653884Y-80110514D02*
X116606265Y-80300990D01*
X116606265Y-80300990D02*
X116606265Y-80443847D01*
X116606265Y-80443847D02*
X116653884Y-80634323D01*
X116653884Y-80634323D02*
X116701503Y-80729561D01*
X116701503Y-80729561D02*
X116796741Y-80824800D01*
X116796741Y-80824800D02*
X116939598Y-80872419D01*
X116939598Y-80872419D02*
X117034836Y-80872419D01*
X117034836Y-80872419D02*
X117177693Y-80824800D01*
X117177693Y-80824800D02*
X117225312Y-80777180D01*
X117225312Y-80777180D02*
X117225312Y-80443847D01*
X117225312Y-80443847D02*
X117034836Y-80443847D01*
X117653884Y-80872419D02*
X117653884Y-79872419D01*
X117653884Y-79872419D02*
X118225312Y-80872419D01*
X118225312Y-80872419D02*
X118225312Y-79872419D01*
X118701503Y-80872419D02*
X118701503Y-79872419D01*
X118701503Y-79872419D02*
X118939598Y-79872419D01*
X118939598Y-79872419D02*
X119082455Y-79920038D01*
X119082455Y-79920038D02*
X119177693Y-80015276D01*
X119177693Y-80015276D02*
X119225312Y-80110514D01*
X119225312Y-80110514D02*
X119272931Y-80300990D01*
X119272931Y-80300990D02*
X119272931Y-80443847D01*
X119272931Y-80443847D02*
X119225312Y-80634323D01*
X119225312Y-80634323D02*
X119177693Y-80729561D01*
X119177693Y-80729561D02*
X119082455Y-80824800D01*
X119082455Y-80824800D02*
X118939598Y-80872419D01*
X118939598Y-80872419D02*
X118701503Y-80872419D01*
X149116666Y-94807419D02*
X149116666Y-95521704D01*
X149116666Y-95521704D02*
X149069047Y-95664561D01*
X149069047Y-95664561D02*
X148973809Y-95759800D01*
X148973809Y-95759800D02*
X148830952Y-95807419D01*
X148830952Y-95807419D02*
X148735714Y-95807419D01*
X150021428Y-94807419D02*
X149830952Y-94807419D01*
X149830952Y-94807419D02*
X149735714Y-94855038D01*
X149735714Y-94855038D02*
X149688095Y-94902657D01*
X149688095Y-94902657D02*
X149592857Y-95045514D01*
X149592857Y-95045514D02*
X149545238Y-95235990D01*
X149545238Y-95235990D02*
X149545238Y-95616942D01*
X149545238Y-95616942D02*
X149592857Y-95712180D01*
X149592857Y-95712180D02*
X149640476Y-95759800D01*
X149640476Y-95759800D02*
X149735714Y-95807419D01*
X149735714Y-95807419D02*
X149926190Y-95807419D01*
X149926190Y-95807419D02*
X150021428Y-95759800D01*
X150021428Y-95759800D02*
X150069047Y-95712180D01*
X150069047Y-95712180D02*
X150116666Y-95616942D01*
X150116666Y-95616942D02*
X150116666Y-95378847D01*
X150116666Y-95378847D02*
X150069047Y-95283609D01*
X150069047Y-95283609D02*
X150021428Y-95235990D01*
X150021428Y-95235990D02*
X149926190Y-95188371D01*
X149926190Y-95188371D02*
X149735714Y-95188371D01*
X149735714Y-95188371D02*
X149640476Y-95235990D01*
X149640476Y-95235990D02*
X149592857Y-95283609D01*
X149592857Y-95283609D02*
X149545238Y-95378847D01*
X158572419Y-104419925D02*
X158572419Y-104896115D01*
X158572419Y-104896115D02*
X157572419Y-104896115D01*
X157572419Y-104229448D02*
X157572419Y-103658020D01*
X158572419Y-103943734D02*
X157572419Y-103943734D01*
X158477180Y-102753258D02*
X158524800Y-102800877D01*
X158524800Y-102800877D02*
X158572419Y-102943734D01*
X158572419Y-102943734D02*
X158572419Y-103038972D01*
X158572419Y-103038972D02*
X158524800Y-103181829D01*
X158524800Y-103181829D02*
X158429561Y-103277067D01*
X158429561Y-103277067D02*
X158334323Y-103324686D01*
X158334323Y-103324686D02*
X158143847Y-103372305D01*
X158143847Y-103372305D02*
X158000990Y-103372305D01*
X158000990Y-103372305D02*
X157810514Y-103324686D01*
X157810514Y-103324686D02*
X157715276Y-103277067D01*
X157715276Y-103277067D02*
X157620038Y-103181829D01*
X157620038Y-103181829D02*
X157572419Y-103038972D01*
X157572419Y-103038972D02*
X157572419Y-102943734D01*
X157572419Y-102943734D02*
X157620038Y-102800877D01*
X157620038Y-102800877D02*
X157667657Y-102753258D01*
X157905752Y-101134210D02*
X158715276Y-101134210D01*
X158715276Y-101134210D02*
X158810514Y-101181829D01*
X158810514Y-101181829D02*
X158858133Y-101229448D01*
X158858133Y-101229448D02*
X158905752Y-101324686D01*
X158905752Y-101324686D02*
X158905752Y-101467543D01*
X158905752Y-101467543D02*
X158858133Y-101562781D01*
X158524800Y-101134210D02*
X158572419Y-101229448D01*
X158572419Y-101229448D02*
X158572419Y-101419924D01*
X158572419Y-101419924D02*
X158524800Y-101515162D01*
X158524800Y-101515162D02*
X158477180Y-101562781D01*
X158477180Y-101562781D02*
X158381942Y-101610400D01*
X158381942Y-101610400D02*
X158096228Y-101610400D01*
X158096228Y-101610400D02*
X158000990Y-101562781D01*
X158000990Y-101562781D02*
X157953371Y-101515162D01*
X157953371Y-101515162D02*
X157905752Y-101419924D01*
X157905752Y-101419924D02*
X157905752Y-101229448D01*
X157905752Y-101229448D02*
X157953371Y-101134210D01*
X158572419Y-100515162D02*
X158524800Y-100610400D01*
X158524800Y-100610400D02*
X158477180Y-100658019D01*
X158477180Y-100658019D02*
X158381942Y-100705638D01*
X158381942Y-100705638D02*
X158096228Y-100705638D01*
X158096228Y-100705638D02*
X158000990Y-100658019D01*
X158000990Y-100658019D02*
X157953371Y-100610400D01*
X157953371Y-100610400D02*
X157905752Y-100515162D01*
X157905752Y-100515162D02*
X157905752Y-100372305D01*
X157905752Y-100372305D02*
X157953371Y-100277067D01*
X157953371Y-100277067D02*
X158000990Y-100229448D01*
X158000990Y-100229448D02*
X158096228Y-100181829D01*
X158096228Y-100181829D02*
X158381942Y-100181829D01*
X158381942Y-100181829D02*
X158477180Y-100229448D01*
X158477180Y-100229448D02*
X158524800Y-100277067D01*
X158524800Y-100277067D02*
X158572419Y-100372305D01*
X158572419Y-100372305D02*
X158572419Y-100515162D01*
X158572419Y-98991352D02*
X157572419Y-98991352D01*
X158572419Y-98562781D02*
X158048609Y-98562781D01*
X158048609Y-98562781D02*
X157953371Y-98610400D01*
X157953371Y-98610400D02*
X157905752Y-98705638D01*
X157905752Y-98705638D02*
X157905752Y-98848495D01*
X157905752Y-98848495D02*
X157953371Y-98943733D01*
X157953371Y-98943733D02*
X158000990Y-98991352D01*
X158524800Y-97705638D02*
X158572419Y-97800876D01*
X158572419Y-97800876D02*
X158572419Y-97991352D01*
X158572419Y-97991352D02*
X158524800Y-98086590D01*
X158524800Y-98086590D02*
X158429561Y-98134209D01*
X158429561Y-98134209D02*
X158048609Y-98134209D01*
X158048609Y-98134209D02*
X157953371Y-98086590D01*
X157953371Y-98086590D02*
X157905752Y-97991352D01*
X157905752Y-97991352D02*
X157905752Y-97800876D01*
X157905752Y-97800876D02*
X157953371Y-97705638D01*
X157953371Y-97705638D02*
X158048609Y-97658019D01*
X158048609Y-97658019D02*
X158143847Y-97658019D01*
X158143847Y-97658019D02*
X158239085Y-98134209D01*
X158572419Y-97229447D02*
X157905752Y-97229447D01*
X158096228Y-97229447D02*
X158000990Y-97181828D01*
X158000990Y-97181828D02*
X157953371Y-97134209D01*
X157953371Y-97134209D02*
X157905752Y-97038971D01*
X157905752Y-97038971D02*
X157905752Y-96943733D01*
X158524800Y-96229447D02*
X158572419Y-96324685D01*
X158572419Y-96324685D02*
X158572419Y-96515161D01*
X158572419Y-96515161D02*
X158524800Y-96610399D01*
X158524800Y-96610399D02*
X158429561Y-96658018D01*
X158429561Y-96658018D02*
X158048609Y-96658018D01*
X158048609Y-96658018D02*
X157953371Y-96610399D01*
X157953371Y-96610399D02*
X157905752Y-96515161D01*
X157905752Y-96515161D02*
X157905752Y-96324685D01*
X157905752Y-96324685D02*
X157953371Y-96229447D01*
X157953371Y-96229447D02*
X158048609Y-96181828D01*
X158048609Y-96181828D02*
X158143847Y-96181828D01*
X158143847Y-96181828D02*
X158239085Y-96658018D01*
X157667657Y-95134208D02*
X157524800Y-94943732D01*
X157524800Y-94943732D02*
X157667657Y-94753256D01*
X157667657Y-94562779D02*
X157524800Y-94372303D01*
X157524800Y-94372303D02*
X157667657Y-94181827D01*
X157667657Y-93991350D02*
X157524800Y-93800874D01*
X157524800Y-93800874D02*
X157667657Y-93610398D01*
X157667657Y-93419921D02*
X157524800Y-93229445D01*
X157524800Y-93229445D02*
X157667657Y-93038969D01*
X157667657Y-92848492D02*
X157524800Y-92658016D01*
X157524800Y-92658016D02*
X157667657Y-92467540D01*
D12*
X120714819Y-95210594D02*
X119714819Y-95210594D01*
X119714819Y-95210594D02*
X119714819Y-94972499D01*
X119714819Y-94972499D02*
X119762438Y-94829642D01*
X119762438Y-94829642D02*
X119857676Y-94734404D01*
X119857676Y-94734404D02*
X119952914Y-94686785D01*
X119952914Y-94686785D02*
X120143390Y-94639166D01*
X120143390Y-94639166D02*
X120286247Y-94639166D01*
X120286247Y-94639166D02*
X120476723Y-94686785D01*
X120476723Y-94686785D02*
X120571961Y-94734404D01*
X120571961Y-94734404D02*
X120667200Y-94829642D01*
X120667200Y-94829642D02*
X120714819Y-94972499D01*
X120714819Y-94972499D02*
X120714819Y-95210594D01*
X119810057Y-94258213D02*
X119762438Y-94210594D01*
X119762438Y-94210594D02*
X119714819Y-94115356D01*
X119714819Y-94115356D02*
X119714819Y-93877261D01*
X119714819Y-93877261D02*
X119762438Y-93782023D01*
X119762438Y-93782023D02*
X119810057Y-93734404D01*
X119810057Y-93734404D02*
X119905295Y-93686785D01*
X119905295Y-93686785D02*
X120000533Y-93686785D01*
X120000533Y-93686785D02*
X120143390Y-93734404D01*
X120143390Y-93734404D02*
X120714819Y-94305832D01*
X120714819Y-94305832D02*
X120714819Y-93686785D01*
X117604819Y-83191666D02*
X117128628Y-83524999D01*
X117604819Y-83763094D02*
X116604819Y-83763094D01*
X116604819Y-83763094D02*
X116604819Y-83382142D01*
X116604819Y-83382142D02*
X116652438Y-83286904D01*
X116652438Y-83286904D02*
X116700057Y-83239285D01*
X116700057Y-83239285D02*
X116795295Y-83191666D01*
X116795295Y-83191666D02*
X116938152Y-83191666D01*
X116938152Y-83191666D02*
X117033390Y-83239285D01*
X117033390Y-83239285D02*
X117081009Y-83286904D01*
X117081009Y-83286904D02*
X117128628Y-83382142D01*
X117128628Y-83382142D02*
X117128628Y-83763094D01*
X117033390Y-82620237D02*
X116985771Y-82715475D01*
X116985771Y-82715475D02*
X116938152Y-82763094D01*
X116938152Y-82763094D02*
X116842914Y-82810713D01*
X116842914Y-82810713D02*
X116795295Y-82810713D01*
X116795295Y-82810713D02*
X116700057Y-82763094D01*
X116700057Y-82763094D02*
X116652438Y-82715475D01*
X116652438Y-82715475D02*
X116604819Y-82620237D01*
X116604819Y-82620237D02*
X116604819Y-82429761D01*
X116604819Y-82429761D02*
X116652438Y-82334523D01*
X116652438Y-82334523D02*
X116700057Y-82286904D01*
X116700057Y-82286904D02*
X116795295Y-82239285D01*
X116795295Y-82239285D02*
X116842914Y-82239285D01*
X116842914Y-82239285D02*
X116938152Y-82286904D01*
X116938152Y-82286904D02*
X116985771Y-82334523D01*
X116985771Y-82334523D02*
X117033390Y-82429761D01*
X117033390Y-82429761D02*
X117033390Y-82620237D01*
X117033390Y-82620237D02*
X117081009Y-82715475D01*
X117081009Y-82715475D02*
X117128628Y-82763094D01*
X117128628Y-82763094D02*
X117223866Y-82810713D01*
X117223866Y-82810713D02*
X117414342Y-82810713D01*
X117414342Y-82810713D02*
X117509580Y-82763094D01*
X117509580Y-82763094D02*
X117557200Y-82715475D01*
X117557200Y-82715475D02*
X117604819Y-82620237D01*
X117604819Y-82620237D02*
X117604819Y-82429761D01*
X117604819Y-82429761D02*
X117557200Y-82334523D01*
X117557200Y-82334523D02*
X117509580Y-82286904D01*
X117509580Y-82286904D02*
X117414342Y-82239285D01*
X117414342Y-82239285D02*
X117223866Y-82239285D01*
X117223866Y-82239285D02*
X117128628Y-82286904D01*
X117128628Y-82286904D02*
X117081009Y-82334523D01*
X117081009Y-82334523D02*
X117033390Y-82429761D01*
X115174819Y-119886666D02*
X114698628Y-120219999D01*
X115174819Y-120458094D02*
X114174819Y-120458094D01*
X114174819Y-120458094D02*
X114174819Y-120077142D01*
X114174819Y-120077142D02*
X114222438Y-119981904D01*
X114222438Y-119981904D02*
X114270057Y-119934285D01*
X114270057Y-119934285D02*
X114365295Y-119886666D01*
X114365295Y-119886666D02*
X114508152Y-119886666D01*
X114508152Y-119886666D02*
X114603390Y-119934285D01*
X114603390Y-119934285D02*
X114651009Y-119981904D01*
X114651009Y-119981904D02*
X114698628Y-120077142D01*
X114698628Y-120077142D02*
X114698628Y-120458094D01*
X114174819Y-119553332D02*
X114174819Y-118886666D01*
X114174819Y-118886666D02*
X115174819Y-119315237D01*
X135685057Y-94955238D02*
X135637438Y-95050476D01*
X135637438Y-95050476D02*
X135542200Y-95145714D01*
X135542200Y-95145714D02*
X135399342Y-95288571D01*
X135399342Y-95288571D02*
X135351723Y-95383809D01*
X135351723Y-95383809D02*
X135351723Y-95479047D01*
X135589819Y-95431428D02*
X135542200Y-95526666D01*
X135542200Y-95526666D02*
X135446961Y-95621904D01*
X135446961Y-95621904D02*
X135256485Y-95669523D01*
X135256485Y-95669523D02*
X134923152Y-95669523D01*
X134923152Y-95669523D02*
X134732676Y-95621904D01*
X134732676Y-95621904D02*
X134637438Y-95526666D01*
X134637438Y-95526666D02*
X134589819Y-95431428D01*
X134589819Y-95431428D02*
X134589819Y-95240952D01*
X134589819Y-95240952D02*
X134637438Y-95145714D01*
X134637438Y-95145714D02*
X134732676Y-95050476D01*
X134732676Y-95050476D02*
X134923152Y-95002857D01*
X134923152Y-95002857D02*
X135256485Y-95002857D01*
X135256485Y-95002857D02*
X135446961Y-95050476D01*
X135446961Y-95050476D02*
X135542200Y-95145714D01*
X135542200Y-95145714D02*
X135589819Y-95240952D01*
X135589819Y-95240952D02*
X135589819Y-95431428D01*
X134923152Y-94145714D02*
X135589819Y-94145714D01*
X134542200Y-94383809D02*
X135256485Y-94621904D01*
X135256485Y-94621904D02*
X135256485Y-94002857D01*
X113374819Y-120758094D02*
X112374819Y-120758094D01*
X112374819Y-120758094D02*
X112374819Y-120519999D01*
X112374819Y-120519999D02*
X112422438Y-120377142D01*
X112422438Y-120377142D02*
X112517676Y-120281904D01*
X112517676Y-120281904D02*
X112612914Y-120234285D01*
X112612914Y-120234285D02*
X112803390Y-120186666D01*
X112803390Y-120186666D02*
X112946247Y-120186666D01*
X112946247Y-120186666D02*
X113136723Y-120234285D01*
X113136723Y-120234285D02*
X113231961Y-120281904D01*
X113231961Y-120281904D02*
X113327200Y-120377142D01*
X113327200Y-120377142D02*
X113374819Y-120519999D01*
X113374819Y-120519999D02*
X113374819Y-120758094D01*
X112374819Y-119281904D02*
X112374819Y-119758094D01*
X112374819Y-119758094D02*
X112851009Y-119805713D01*
X112851009Y-119805713D02*
X112803390Y-119758094D01*
X112803390Y-119758094D02*
X112755771Y-119662856D01*
X112755771Y-119662856D02*
X112755771Y-119424761D01*
X112755771Y-119424761D02*
X112803390Y-119329523D01*
X112803390Y-119329523D02*
X112851009Y-119281904D01*
X112851009Y-119281904D02*
X112946247Y-119234285D01*
X112946247Y-119234285D02*
X113184342Y-119234285D01*
X113184342Y-119234285D02*
X113279580Y-119281904D01*
X113279580Y-119281904D02*
X113327200Y-119329523D01*
X113327200Y-119329523D02*
X113374819Y-119424761D01*
X113374819Y-119424761D02*
X113374819Y-119662856D01*
X113374819Y-119662856D02*
X113327200Y-119758094D01*
X113327200Y-119758094D02*
X113279580Y-119805713D01*
X124015057Y-87649738D02*
X123967438Y-87744976D01*
X123967438Y-87744976D02*
X123872200Y-87840214D01*
X123872200Y-87840214D02*
X123729342Y-87983071D01*
X123729342Y-87983071D02*
X123681723Y-88078309D01*
X123681723Y-88078309D02*
X123681723Y-88173547D01*
X123919819Y-88125928D02*
X123872200Y-88221166D01*
X123872200Y-88221166D02*
X123776961Y-88316404D01*
X123776961Y-88316404D02*
X123586485Y-88364023D01*
X123586485Y-88364023D02*
X123253152Y-88364023D01*
X123253152Y-88364023D02*
X123062676Y-88316404D01*
X123062676Y-88316404D02*
X122967438Y-88221166D01*
X122967438Y-88221166D02*
X122919819Y-88125928D01*
X122919819Y-88125928D02*
X122919819Y-87935452D01*
X122919819Y-87935452D02*
X122967438Y-87840214D01*
X122967438Y-87840214D02*
X123062676Y-87744976D01*
X123062676Y-87744976D02*
X123253152Y-87697357D01*
X123253152Y-87697357D02*
X123586485Y-87697357D01*
X123586485Y-87697357D02*
X123776961Y-87744976D01*
X123776961Y-87744976D02*
X123872200Y-87840214D01*
X123872200Y-87840214D02*
X123919819Y-87935452D01*
X123919819Y-87935452D02*
X123919819Y-88125928D01*
X122919819Y-87364023D02*
X122919819Y-86744976D01*
X122919819Y-86744976D02*
X123300771Y-87078309D01*
X123300771Y-87078309D02*
X123300771Y-86935452D01*
X123300771Y-86935452D02*
X123348390Y-86840214D01*
X123348390Y-86840214D02*
X123396009Y-86792595D01*
X123396009Y-86792595D02*
X123491247Y-86744976D01*
X123491247Y-86744976D02*
X123729342Y-86744976D01*
X123729342Y-86744976D02*
X123824580Y-86792595D01*
X123824580Y-86792595D02*
X123872200Y-86840214D01*
X123872200Y-86840214D02*
X123919819Y-86935452D01*
X123919819Y-86935452D02*
X123919819Y-87221166D01*
X123919819Y-87221166D02*
X123872200Y-87316404D01*
X123872200Y-87316404D02*
X123824580Y-87364023D01*
D14*
X120788333Y-107384318D02*
X120364999Y-106779556D01*
X120062618Y-107384318D02*
X120062618Y-106114318D01*
X120062618Y-106114318D02*
X120546428Y-106114318D01*
X120546428Y-106114318D02*
X120667380Y-106174794D01*
X120667380Y-106174794D02*
X120727857Y-106235270D01*
X120727857Y-106235270D02*
X120788333Y-106356222D01*
X120788333Y-106356222D02*
X120788333Y-106537651D01*
X120788333Y-106537651D02*
X120727857Y-106658603D01*
X120727857Y-106658603D02*
X120667380Y-106719080D01*
X120667380Y-106719080D02*
X120546428Y-106779556D01*
X120546428Y-106779556D02*
X120062618Y-106779556D01*
X121937380Y-106114318D02*
X121332618Y-106114318D01*
X121332618Y-106114318D02*
X121272142Y-106719080D01*
X121272142Y-106719080D02*
X121332618Y-106658603D01*
X121332618Y-106658603D02*
X121453571Y-106598127D01*
X121453571Y-106598127D02*
X121755952Y-106598127D01*
X121755952Y-106598127D02*
X121876904Y-106658603D01*
X121876904Y-106658603D02*
X121937380Y-106719080D01*
X121937380Y-106719080D02*
X121997857Y-106840032D01*
X121997857Y-106840032D02*
X121997857Y-107142413D01*
X121997857Y-107142413D02*
X121937380Y-107263365D01*
X121937380Y-107263365D02*
X121876904Y-107323842D01*
X121876904Y-107323842D02*
X121755952Y-107384318D01*
X121755952Y-107384318D02*
X121453571Y-107384318D01*
X121453571Y-107384318D02*
X121332618Y-107323842D01*
X121332618Y-107323842D02*
X121272142Y-107263365D01*
D12*
X120561905Y-86754819D02*
X120561905Y-85754819D01*
X120561905Y-85754819D02*
X120800000Y-85754819D01*
X120800000Y-85754819D02*
X120942857Y-85802438D01*
X120942857Y-85802438D02*
X121038095Y-85897676D01*
X121038095Y-85897676D02*
X121085714Y-85992914D01*
X121085714Y-85992914D02*
X121133333Y-86183390D01*
X121133333Y-86183390D02*
X121133333Y-86326247D01*
X121133333Y-86326247D02*
X121085714Y-86516723D01*
X121085714Y-86516723D02*
X121038095Y-86611961D01*
X121038095Y-86611961D02*
X120942857Y-86707200D01*
X120942857Y-86707200D02*
X120800000Y-86754819D01*
X120800000Y-86754819D02*
X120561905Y-86754819D01*
X121990476Y-86088152D02*
X121990476Y-86754819D01*
X121752381Y-85707200D02*
X121514286Y-86421485D01*
X121514286Y-86421485D02*
X122133333Y-86421485D01*
X185704819Y-100150594D02*
X184704819Y-100150594D01*
X184704819Y-100150594D02*
X184704819Y-99912499D01*
X184704819Y-99912499D02*
X184752438Y-99769642D01*
X184752438Y-99769642D02*
X184847676Y-99674404D01*
X184847676Y-99674404D02*
X184942914Y-99626785D01*
X184942914Y-99626785D02*
X185133390Y-99579166D01*
X185133390Y-99579166D02*
X185276247Y-99579166D01*
X185276247Y-99579166D02*
X185466723Y-99626785D01*
X185466723Y-99626785D02*
X185561961Y-99674404D01*
X185561961Y-99674404D02*
X185657200Y-99769642D01*
X185657200Y-99769642D02*
X185704819Y-99912499D01*
X185704819Y-99912499D02*
X185704819Y-100150594D01*
X184704819Y-99245832D02*
X184704819Y-98579166D01*
X184704819Y-98579166D02*
X185704819Y-99007737D01*
X134770057Y-108915238D02*
X134722438Y-109010476D01*
X134722438Y-109010476D02*
X134627200Y-109105714D01*
X134627200Y-109105714D02*
X134484342Y-109248571D01*
X134484342Y-109248571D02*
X134436723Y-109343809D01*
X134436723Y-109343809D02*
X134436723Y-109439047D01*
X134674819Y-109391428D02*
X134627200Y-109486666D01*
X134627200Y-109486666D02*
X134531961Y-109581904D01*
X134531961Y-109581904D02*
X134341485Y-109629523D01*
X134341485Y-109629523D02*
X134008152Y-109629523D01*
X134008152Y-109629523D02*
X133817676Y-109581904D01*
X133817676Y-109581904D02*
X133722438Y-109486666D01*
X133722438Y-109486666D02*
X133674819Y-109391428D01*
X133674819Y-109391428D02*
X133674819Y-109200952D01*
X133674819Y-109200952D02*
X133722438Y-109105714D01*
X133722438Y-109105714D02*
X133817676Y-109010476D01*
X133817676Y-109010476D02*
X134008152Y-108962857D01*
X134008152Y-108962857D02*
X134341485Y-108962857D01*
X134341485Y-108962857D02*
X134531961Y-109010476D01*
X134531961Y-109010476D02*
X134627200Y-109105714D01*
X134627200Y-109105714D02*
X134674819Y-109200952D01*
X134674819Y-109200952D02*
X134674819Y-109391428D01*
X133770057Y-108581904D02*
X133722438Y-108534285D01*
X133722438Y-108534285D02*
X133674819Y-108439047D01*
X133674819Y-108439047D02*
X133674819Y-108200952D01*
X133674819Y-108200952D02*
X133722438Y-108105714D01*
X133722438Y-108105714D02*
X133770057Y-108058095D01*
X133770057Y-108058095D02*
X133865295Y-108010476D01*
X133865295Y-108010476D02*
X133960533Y-108010476D01*
X133960533Y-108010476D02*
X134103390Y-108058095D01*
X134103390Y-108058095D02*
X134674819Y-108629523D01*
X134674819Y-108629523D02*
X134674819Y-108010476D01*
X134900057Y-120005238D02*
X134852438Y-120100476D01*
X134852438Y-120100476D02*
X134757200Y-120195714D01*
X134757200Y-120195714D02*
X134614342Y-120338571D01*
X134614342Y-120338571D02*
X134566723Y-120433809D01*
X134566723Y-120433809D02*
X134566723Y-120529047D01*
X134804819Y-120481428D02*
X134757200Y-120576666D01*
X134757200Y-120576666D02*
X134661961Y-120671904D01*
X134661961Y-120671904D02*
X134471485Y-120719523D01*
X134471485Y-120719523D02*
X134138152Y-120719523D01*
X134138152Y-120719523D02*
X133947676Y-120671904D01*
X133947676Y-120671904D02*
X133852438Y-120576666D01*
X133852438Y-120576666D02*
X133804819Y-120481428D01*
X133804819Y-120481428D02*
X133804819Y-120290952D01*
X133804819Y-120290952D02*
X133852438Y-120195714D01*
X133852438Y-120195714D02*
X133947676Y-120100476D01*
X133947676Y-120100476D02*
X134138152Y-120052857D01*
X134138152Y-120052857D02*
X134471485Y-120052857D01*
X134471485Y-120052857D02*
X134661961Y-120100476D01*
X134661961Y-120100476D02*
X134757200Y-120195714D01*
X134757200Y-120195714D02*
X134804819Y-120290952D01*
X134804819Y-120290952D02*
X134804819Y-120481428D01*
X134804819Y-119100476D02*
X134804819Y-119671904D01*
X134804819Y-119386190D02*
X133804819Y-119386190D01*
X133804819Y-119386190D02*
X133947676Y-119481428D01*
X133947676Y-119481428D02*
X134042914Y-119576666D01*
X134042914Y-119576666D02*
X134090533Y-119671904D01*
X124769580Y-122610000D02*
X124817200Y-122657619D01*
X124817200Y-122657619D02*
X124864819Y-122800476D01*
X124864819Y-122800476D02*
X124864819Y-122895714D01*
X124864819Y-122895714D02*
X124817200Y-123038571D01*
X124817200Y-123038571D02*
X124721961Y-123133809D01*
X124721961Y-123133809D02*
X124626723Y-123181428D01*
X124626723Y-123181428D02*
X124436247Y-123229047D01*
X124436247Y-123229047D02*
X124293390Y-123229047D01*
X124293390Y-123229047D02*
X124102914Y-123181428D01*
X124102914Y-123181428D02*
X124007676Y-123133809D01*
X124007676Y-123133809D02*
X123912438Y-123038571D01*
X123912438Y-123038571D02*
X123864819Y-122895714D01*
X123864819Y-122895714D02*
X123864819Y-122800476D01*
X123864819Y-122800476D02*
X123912438Y-122657619D01*
X123912438Y-122657619D02*
X123960057Y-122610000D01*
X124864819Y-122181428D02*
X123864819Y-122181428D01*
X123864819Y-122181428D02*
X124579104Y-121848095D01*
X124579104Y-121848095D02*
X123864819Y-121514762D01*
X123864819Y-121514762D02*
X124864819Y-121514762D01*
X123864819Y-120848095D02*
X123864819Y-120657619D01*
X123864819Y-120657619D02*
X123912438Y-120562381D01*
X123912438Y-120562381D02*
X124007676Y-120467143D01*
X124007676Y-120467143D02*
X124198152Y-120419524D01*
X124198152Y-120419524D02*
X124531485Y-120419524D01*
X124531485Y-120419524D02*
X124721961Y-120467143D01*
X124721961Y-120467143D02*
X124817200Y-120562381D01*
X124817200Y-120562381D02*
X124864819Y-120657619D01*
X124864819Y-120657619D02*
X124864819Y-120848095D01*
X124864819Y-120848095D02*
X124817200Y-120943333D01*
X124817200Y-120943333D02*
X124721961Y-121038571D01*
X124721961Y-121038571D02*
X124531485Y-121086190D01*
X124531485Y-121086190D02*
X124198152Y-121086190D01*
X124198152Y-121086190D02*
X124007676Y-121038571D01*
X124007676Y-121038571D02*
X123912438Y-120943333D01*
X123912438Y-120943333D02*
X123864819Y-120848095D01*
X124817200Y-120038571D02*
X124864819Y-119895714D01*
X124864819Y-119895714D02*
X124864819Y-119657619D01*
X124864819Y-119657619D02*
X124817200Y-119562381D01*
X124817200Y-119562381D02*
X124769580Y-119514762D01*
X124769580Y-119514762D02*
X124674342Y-119467143D01*
X124674342Y-119467143D02*
X124579104Y-119467143D01*
X124579104Y-119467143D02*
X124483866Y-119514762D01*
X124483866Y-119514762D02*
X124436247Y-119562381D01*
X124436247Y-119562381D02*
X124388628Y-119657619D01*
X124388628Y-119657619D02*
X124341009Y-119848095D01*
X124341009Y-119848095D02*
X124293390Y-119943333D01*
X124293390Y-119943333D02*
X124245771Y-119990952D01*
X124245771Y-119990952D02*
X124150533Y-120038571D01*
X124150533Y-120038571D02*
X124055295Y-120038571D01*
X124055295Y-120038571D02*
X123960057Y-119990952D01*
X123960057Y-119990952D02*
X123912438Y-119943333D01*
X123912438Y-119943333D02*
X123864819Y-119848095D01*
X123864819Y-119848095D02*
X123864819Y-119610000D01*
X123864819Y-119610000D02*
X123912438Y-119467143D01*
X124341009Y-118705238D02*
X124341009Y-119038571D01*
X124864819Y-119038571D02*
X123864819Y-119038571D01*
X123864819Y-119038571D02*
X123864819Y-118562381D01*
X124341009Y-118181428D02*
X124341009Y-117848095D01*
X124864819Y-117705238D02*
X124864819Y-118181428D01*
X124864819Y-118181428D02*
X123864819Y-118181428D01*
X123864819Y-118181428D02*
X123864819Y-117705238D01*
X123864819Y-117419523D02*
X123864819Y-116848095D01*
X124864819Y-117133809D02*
X123864819Y-117133809D01*
X124864819Y-115990952D02*
X124864819Y-116562380D01*
X124864819Y-116276666D02*
X123864819Y-116276666D01*
X123864819Y-116276666D02*
X124007676Y-116371904D01*
X124007676Y-116371904D02*
X124102914Y-116467142D01*
X124102914Y-116467142D02*
X124150533Y-116562380D01*
X113129819Y-83863094D02*
X112129819Y-83863094D01*
X112129819Y-83863094D02*
X112129819Y-83624999D01*
X112129819Y-83624999D02*
X112177438Y-83482142D01*
X112177438Y-83482142D02*
X112272676Y-83386904D01*
X112272676Y-83386904D02*
X112367914Y-83339285D01*
X112367914Y-83339285D02*
X112558390Y-83291666D01*
X112558390Y-83291666D02*
X112701247Y-83291666D01*
X112701247Y-83291666D02*
X112891723Y-83339285D01*
X112891723Y-83339285D02*
X112986961Y-83386904D01*
X112986961Y-83386904D02*
X113082200Y-83482142D01*
X113082200Y-83482142D02*
X113129819Y-83624999D01*
X113129819Y-83624999D02*
X113129819Y-83863094D01*
X112129819Y-82434523D02*
X112129819Y-82624999D01*
X112129819Y-82624999D02*
X112177438Y-82720237D01*
X112177438Y-82720237D02*
X112225057Y-82767856D01*
X112225057Y-82767856D02*
X112367914Y-82863094D01*
X112367914Y-82863094D02*
X112558390Y-82910713D01*
X112558390Y-82910713D02*
X112939342Y-82910713D01*
X112939342Y-82910713D02*
X113034580Y-82863094D01*
X113034580Y-82863094D02*
X113082200Y-82815475D01*
X113082200Y-82815475D02*
X113129819Y-82720237D01*
X113129819Y-82720237D02*
X113129819Y-82529761D01*
X113129819Y-82529761D02*
X113082200Y-82434523D01*
X113082200Y-82434523D02*
X113034580Y-82386904D01*
X113034580Y-82386904D02*
X112939342Y-82339285D01*
X112939342Y-82339285D02*
X112701247Y-82339285D01*
X112701247Y-82339285D02*
X112606009Y-82386904D01*
X112606009Y-82386904D02*
X112558390Y-82434523D01*
X112558390Y-82434523D02*
X112510771Y-82529761D01*
X112510771Y-82529761D02*
X112510771Y-82720237D01*
X112510771Y-82720237D02*
X112558390Y-82815475D01*
X112558390Y-82815475D02*
X112606009Y-82863094D01*
X112606009Y-82863094D02*
X112701247Y-82910713D01*
X118843333Y-119484819D02*
X118510000Y-119008628D01*
X118271905Y-119484819D02*
X118271905Y-118484819D01*
X118271905Y-118484819D02*
X118652857Y-118484819D01*
X118652857Y-118484819D02*
X118748095Y-118532438D01*
X118748095Y-118532438D02*
X118795714Y-118580057D01*
X118795714Y-118580057D02*
X118843333Y-118675295D01*
X118843333Y-118675295D02*
X118843333Y-118818152D01*
X118843333Y-118818152D02*
X118795714Y-118913390D01*
X118795714Y-118913390D02*
X118748095Y-118961009D01*
X118748095Y-118961009D02*
X118652857Y-119008628D01*
X118652857Y-119008628D02*
X118271905Y-119008628D01*
X119176667Y-118484819D02*
X119795714Y-118484819D01*
X119795714Y-118484819D02*
X119462381Y-118865771D01*
X119462381Y-118865771D02*
X119605238Y-118865771D01*
X119605238Y-118865771D02*
X119700476Y-118913390D01*
X119700476Y-118913390D02*
X119748095Y-118961009D01*
X119748095Y-118961009D02*
X119795714Y-119056247D01*
X119795714Y-119056247D02*
X119795714Y-119294342D01*
X119795714Y-119294342D02*
X119748095Y-119389580D01*
X119748095Y-119389580D02*
X119700476Y-119437200D01*
X119700476Y-119437200D02*
X119605238Y-119484819D01*
X119605238Y-119484819D02*
X119319524Y-119484819D01*
X119319524Y-119484819D02*
X119224286Y-119437200D01*
X119224286Y-119437200D02*
X119176667Y-119389580D01*
X124754819Y-87566666D02*
X124278628Y-87899999D01*
X124754819Y-88138094D02*
X123754819Y-88138094D01*
X123754819Y-88138094D02*
X123754819Y-87757142D01*
X123754819Y-87757142D02*
X123802438Y-87661904D01*
X123802438Y-87661904D02*
X123850057Y-87614285D01*
X123850057Y-87614285D02*
X123945295Y-87566666D01*
X123945295Y-87566666D02*
X124088152Y-87566666D01*
X124088152Y-87566666D02*
X124183390Y-87614285D01*
X124183390Y-87614285D02*
X124231009Y-87661904D01*
X124231009Y-87661904D02*
X124278628Y-87757142D01*
X124278628Y-87757142D02*
X124278628Y-88138094D01*
X124088152Y-86709523D02*
X124754819Y-86709523D01*
X123707200Y-86947618D02*
X124421485Y-87185713D01*
X124421485Y-87185713D02*
X124421485Y-86566666D01*
X122584819Y-117098094D02*
X121584819Y-117098094D01*
X121584819Y-117098094D02*
X121584819Y-116859999D01*
X121584819Y-116859999D02*
X121632438Y-116717142D01*
X121632438Y-116717142D02*
X121727676Y-116621904D01*
X121727676Y-116621904D02*
X121822914Y-116574285D01*
X121822914Y-116574285D02*
X122013390Y-116526666D01*
X122013390Y-116526666D02*
X122156247Y-116526666D01*
X122156247Y-116526666D02*
X122346723Y-116574285D01*
X122346723Y-116574285D02*
X122441961Y-116621904D01*
X122441961Y-116621904D02*
X122537200Y-116717142D01*
X122537200Y-116717142D02*
X122584819Y-116859999D01*
X122584819Y-116859999D02*
X122584819Y-117098094D01*
X122584819Y-116050475D02*
X122584819Y-115859999D01*
X122584819Y-115859999D02*
X122537200Y-115764761D01*
X122537200Y-115764761D02*
X122489580Y-115717142D01*
X122489580Y-115717142D02*
X122346723Y-115621904D01*
X122346723Y-115621904D02*
X122156247Y-115574285D01*
X122156247Y-115574285D02*
X121775295Y-115574285D01*
X121775295Y-115574285D02*
X121680057Y-115621904D01*
X121680057Y-115621904D02*
X121632438Y-115669523D01*
X121632438Y-115669523D02*
X121584819Y-115764761D01*
X121584819Y-115764761D02*
X121584819Y-115955237D01*
X121584819Y-115955237D02*
X121632438Y-116050475D01*
X121632438Y-116050475D02*
X121680057Y-116098094D01*
X121680057Y-116098094D02*
X121775295Y-116145713D01*
X121775295Y-116145713D02*
X122013390Y-116145713D01*
X122013390Y-116145713D02*
X122108628Y-116098094D01*
X122108628Y-116098094D02*
X122156247Y-116050475D01*
X122156247Y-116050475D02*
X122203866Y-115955237D01*
X122203866Y-115955237D02*
X122203866Y-115764761D01*
X122203866Y-115764761D02*
X122156247Y-115669523D01*
X122156247Y-115669523D02*
X122108628Y-115621904D01*
X122108628Y-115621904D02*
X122013390Y-115574285D01*
X117674819Y-94496666D02*
X117198628Y-94829999D01*
X117674819Y-95068094D02*
X116674819Y-95068094D01*
X116674819Y-95068094D02*
X116674819Y-94687142D01*
X116674819Y-94687142D02*
X116722438Y-94591904D01*
X116722438Y-94591904D02*
X116770057Y-94544285D01*
X116770057Y-94544285D02*
X116865295Y-94496666D01*
X116865295Y-94496666D02*
X117008152Y-94496666D01*
X117008152Y-94496666D02*
X117103390Y-94544285D01*
X117103390Y-94544285D02*
X117151009Y-94591904D01*
X117151009Y-94591904D02*
X117198628Y-94687142D01*
X117198628Y-94687142D02*
X117198628Y-95068094D01*
X116770057Y-94115713D02*
X116722438Y-94068094D01*
X116722438Y-94068094D02*
X116674819Y-93972856D01*
X116674819Y-93972856D02*
X116674819Y-93734761D01*
X116674819Y-93734761D02*
X116722438Y-93639523D01*
X116722438Y-93639523D02*
X116770057Y-93591904D01*
X116770057Y-93591904D02*
X116865295Y-93544285D01*
X116865295Y-93544285D02*
X116960533Y-93544285D01*
X116960533Y-93544285D02*
X117103390Y-93591904D01*
X117103390Y-93591904D02*
X117674819Y-94163332D01*
X117674819Y-94163332D02*
X117674819Y-93544285D01*
X115981905Y-119544819D02*
X115981905Y-118544819D01*
X115981905Y-118544819D02*
X116220000Y-118544819D01*
X116220000Y-118544819D02*
X116362857Y-118592438D01*
X116362857Y-118592438D02*
X116458095Y-118687676D01*
X116458095Y-118687676D02*
X116505714Y-118782914D01*
X116505714Y-118782914D02*
X116553333Y-118973390D01*
X116553333Y-118973390D02*
X116553333Y-119116247D01*
X116553333Y-119116247D02*
X116505714Y-119306723D01*
X116505714Y-119306723D02*
X116458095Y-119401961D01*
X116458095Y-119401961D02*
X116362857Y-119497200D01*
X116362857Y-119497200D02*
X116220000Y-119544819D01*
X116220000Y-119544819D02*
X115981905Y-119544819D01*
X116886667Y-118544819D02*
X117505714Y-118544819D01*
X117505714Y-118544819D02*
X117172381Y-118925771D01*
X117172381Y-118925771D02*
X117315238Y-118925771D01*
X117315238Y-118925771D02*
X117410476Y-118973390D01*
X117410476Y-118973390D02*
X117458095Y-119021009D01*
X117458095Y-119021009D02*
X117505714Y-119116247D01*
X117505714Y-119116247D02*
X117505714Y-119354342D01*
X117505714Y-119354342D02*
X117458095Y-119449580D01*
X117458095Y-119449580D02*
X117410476Y-119497200D01*
X117410476Y-119497200D02*
X117315238Y-119544819D01*
X117315238Y-119544819D02*
X117029524Y-119544819D01*
X117029524Y-119544819D02*
X116934286Y-119497200D01*
X116934286Y-119497200D02*
X116886667Y-119449580D01*
X119263333Y-115259580D02*
X119215714Y-115307200D01*
X119215714Y-115307200D02*
X119072857Y-115354819D01*
X119072857Y-115354819D02*
X118977619Y-115354819D01*
X118977619Y-115354819D02*
X118834762Y-115307200D01*
X118834762Y-115307200D02*
X118739524Y-115211961D01*
X118739524Y-115211961D02*
X118691905Y-115116723D01*
X118691905Y-115116723D02*
X118644286Y-114926247D01*
X118644286Y-114926247D02*
X118644286Y-114783390D01*
X118644286Y-114783390D02*
X118691905Y-114592914D01*
X118691905Y-114592914D02*
X118739524Y-114497676D01*
X118739524Y-114497676D02*
X118834762Y-114402438D01*
X118834762Y-114402438D02*
X118977619Y-114354819D01*
X118977619Y-114354819D02*
X119072857Y-114354819D01*
X119072857Y-114354819D02*
X119215714Y-114402438D01*
X119215714Y-114402438D02*
X119263333Y-114450057D01*
X120215714Y-115354819D02*
X119644286Y-115354819D01*
X119930000Y-115354819D02*
X119930000Y-114354819D01*
X119930000Y-114354819D02*
X119834762Y-114497676D01*
X119834762Y-114497676D02*
X119739524Y-114592914D01*
X119739524Y-114592914D02*
X119644286Y-114640533D01*
D14*
X120848333Y-99634318D02*
X120424999Y-99029556D01*
X120122618Y-99634318D02*
X120122618Y-98364318D01*
X120122618Y-98364318D02*
X120606428Y-98364318D01*
X120606428Y-98364318D02*
X120727380Y-98424794D01*
X120727380Y-98424794D02*
X120787857Y-98485270D01*
X120787857Y-98485270D02*
X120848333Y-98606222D01*
X120848333Y-98606222D02*
X120848333Y-98787651D01*
X120848333Y-98787651D02*
X120787857Y-98908603D01*
X120787857Y-98908603D02*
X120727380Y-98969080D01*
X120727380Y-98969080D02*
X120606428Y-99029556D01*
X120606428Y-99029556D02*
X120122618Y-99029556D01*
X121936904Y-98364318D02*
X121694999Y-98364318D01*
X121694999Y-98364318D02*
X121574047Y-98424794D01*
X121574047Y-98424794D02*
X121513571Y-98485270D01*
X121513571Y-98485270D02*
X121392618Y-98666699D01*
X121392618Y-98666699D02*
X121332142Y-98908603D01*
X121332142Y-98908603D02*
X121332142Y-99392413D01*
X121332142Y-99392413D02*
X121392618Y-99513365D01*
X121392618Y-99513365D02*
X121453095Y-99573842D01*
X121453095Y-99573842D02*
X121574047Y-99634318D01*
X121574047Y-99634318D02*
X121815952Y-99634318D01*
X121815952Y-99634318D02*
X121936904Y-99573842D01*
X121936904Y-99573842D02*
X121997380Y-99513365D01*
X121997380Y-99513365D02*
X122057857Y-99392413D01*
X122057857Y-99392413D02*
X122057857Y-99090032D01*
X122057857Y-99090032D02*
X121997380Y-98969080D01*
X121997380Y-98969080D02*
X121936904Y-98908603D01*
X121936904Y-98908603D02*
X121815952Y-98848127D01*
X121815952Y-98848127D02*
X121574047Y-98848127D01*
X121574047Y-98848127D02*
X121453095Y-98908603D01*
X121453095Y-98908603D02*
X121392618Y-98969080D01*
X121392618Y-98969080D02*
X121332142Y-99090032D01*
D12*
X113044700Y-96481428D02*
X113044700Y-95338571D01*
X113616128Y-95909999D02*
X112473271Y-95909999D01*
X113044700Y-109481428D02*
X113044700Y-108338571D01*
X183704819Y-99579166D02*
X183228628Y-99912499D01*
X183704819Y-100150594D02*
X182704819Y-100150594D01*
X182704819Y-100150594D02*
X182704819Y-99769642D01*
X182704819Y-99769642D02*
X182752438Y-99674404D01*
X182752438Y-99674404D02*
X182800057Y-99626785D01*
X182800057Y-99626785D02*
X182895295Y-99579166D01*
X182895295Y-99579166D02*
X183038152Y-99579166D01*
X183038152Y-99579166D02*
X183133390Y-99626785D01*
X183133390Y-99626785D02*
X183181009Y-99674404D01*
X183181009Y-99674404D02*
X183228628Y-99769642D01*
X183228628Y-99769642D02*
X183228628Y-100150594D01*
X183704819Y-99102975D02*
X183704819Y-98912499D01*
X183704819Y-98912499D02*
X183657200Y-98817261D01*
X183657200Y-98817261D02*
X183609580Y-98769642D01*
X183609580Y-98769642D02*
X183466723Y-98674404D01*
X183466723Y-98674404D02*
X183276247Y-98626785D01*
X183276247Y-98626785D02*
X182895295Y-98626785D01*
X182895295Y-98626785D02*
X182800057Y-98674404D01*
X182800057Y-98674404D02*
X182752438Y-98722023D01*
X182752438Y-98722023D02*
X182704819Y-98817261D01*
X182704819Y-98817261D02*
X182704819Y-99007737D01*
X182704819Y-99007737D02*
X182752438Y-99102975D01*
X182752438Y-99102975D02*
X182800057Y-99150594D01*
X182800057Y-99150594D02*
X182895295Y-99198213D01*
X182895295Y-99198213D02*
X183133390Y-99198213D01*
X183133390Y-99198213D02*
X183228628Y-99150594D01*
X183228628Y-99150594D02*
X183276247Y-99102975D01*
X183276247Y-99102975D02*
X183323866Y-99007737D01*
X183323866Y-99007737D02*
X183323866Y-98817261D01*
X183323866Y-98817261D02*
X183276247Y-98722023D01*
X183276247Y-98722023D02*
X183228628Y-98674404D01*
X183228628Y-98674404D02*
X183133390Y-98626785D01*
X118829580Y-87616666D02*
X118877200Y-87664285D01*
X118877200Y-87664285D02*
X118924819Y-87807142D01*
X118924819Y-87807142D02*
X118924819Y-87902380D01*
X118924819Y-87902380D02*
X118877200Y-88045237D01*
X118877200Y-88045237D02*
X118781961Y-88140475D01*
X118781961Y-88140475D02*
X118686723Y-88188094D01*
X118686723Y-88188094D02*
X118496247Y-88235713D01*
X118496247Y-88235713D02*
X118353390Y-88235713D01*
X118353390Y-88235713D02*
X118162914Y-88188094D01*
X118162914Y-88188094D02*
X118067676Y-88140475D01*
X118067676Y-88140475D02*
X117972438Y-88045237D01*
X117972438Y-88045237D02*
X117924819Y-87902380D01*
X117924819Y-87902380D02*
X117924819Y-87807142D01*
X117924819Y-87807142D02*
X117972438Y-87664285D01*
X117972438Y-87664285D02*
X118020057Y-87616666D01*
X118020057Y-87235713D02*
X117972438Y-87188094D01*
X117972438Y-87188094D02*
X117924819Y-87092856D01*
X117924819Y-87092856D02*
X117924819Y-86854761D01*
X117924819Y-86854761D02*
X117972438Y-86759523D01*
X117972438Y-86759523D02*
X118020057Y-86711904D01*
X118020057Y-86711904D02*
X118115295Y-86664285D01*
X118115295Y-86664285D02*
X118210533Y-86664285D01*
X118210533Y-86664285D02*
X118353390Y-86711904D01*
X118353390Y-86711904D02*
X118924819Y-87283332D01*
X118924819Y-87283332D02*
X118924819Y-86664285D01*
D15*
%TO.C,J6*%
X170050000Y-130250000D02*
X139050000Y-130250000D01*
X135500000Y-126700000D02*
X135500000Y-71700000D01*
X173600000Y-126700000D02*
X173600000Y-71700000D01*
X170050000Y-68150000D02*
X139050000Y-68150000D01*
X139050000Y-130250000D02*
G75*
G02*
X135500000Y-126700000I0J3550000D01*
G01*
X173600000Y-126700000D02*
G75*
G02*
X170050000Y-130250000I-3550000J0D01*
G01*
X135500000Y-71700000D02*
G75*
G02*
X139050000Y-68150000I3550030J-30D01*
G01*
X170050000Y-68150000D02*
G75*
G02*
X173600000Y-71700000I0J-3550000D01*
G01*
D16*
%TO.C,D2*%
X118095000Y-92987500D02*
X118095000Y-95272500D01*
X119565000Y-92987500D02*
X118095000Y-92987500D01*
X119565000Y-95272500D02*
X119565000Y-92987500D01*
%TO.C,R8*%
X115127500Y-83254724D02*
X115127500Y-82745276D01*
X116172500Y-83254724D02*
X116172500Y-82745276D01*
%TO.C,R7*%
X114097500Y-122065276D02*
X114097500Y-122574724D01*
X115142500Y-122065276D02*
X115142500Y-122574724D01*
%TO.C,CMOSFET3*%
X123265000Y-90738748D02*
X123265000Y-91261252D01*
X124735000Y-90738748D02*
X124735000Y-91261252D01*
D11*
%TO.C,J5*%
X180310000Y-109100000D02*
X180310000Y-109100000D01*
X180310000Y-109200000D02*
X180310000Y-109200000D01*
X180310000Y-109100000D02*
G75*
G02*
X180310000Y-109200000I0J-50000D01*
G01*
X180310000Y-109200000D02*
G75*
G02*
X180310000Y-109100000I0J50000D01*
G01*
D17*
%TO.C,Q4*%
X125350000Y-93420000D02*
X125390000Y-93420000D01*
X125350000Y-99640000D02*
X125350000Y-93420000D01*
X125350000Y-99640000D02*
X125375000Y-99640000D01*
X133210000Y-93420000D02*
X133250000Y-93420000D01*
X133250000Y-93420000D02*
X133250000Y-99640000D01*
X133250000Y-99640000D02*
X133225000Y-99640000D01*
D18*
X132400000Y-91189000D02*
G75*
G02*
X132200000Y-91189000I-100000J0D01*
G01*
X132200000Y-91189000D02*
G75*
G02*
X132400000Y-91189000I100000J0D01*
G01*
D16*
%TO.C,D5*%
X112255000Y-120995000D02*
X112255000Y-123280000D01*
X113725000Y-120995000D02*
X112255000Y-120995000D01*
X113725000Y-123280000D02*
X113725000Y-120995000D01*
%TO.C,TP18*%
X146063333Y-135000000D02*
G75*
G02*
X142463333Y-135000000I-1800000J0D01*
G01*
X142463333Y-135000000D02*
G75*
G02*
X146063333Y-135000000I1800000J0D01*
G01*
D17*
%TO.C,Q3*%
X125350000Y-82774500D02*
X125375000Y-82774500D01*
X125350000Y-88994500D02*
X125350000Y-82774500D01*
X125390000Y-88994500D02*
X125350000Y-88994500D01*
X133250000Y-82774500D02*
X133225000Y-82774500D01*
X133250000Y-82774500D02*
X133250000Y-88994500D01*
X133250000Y-88994500D02*
X133210000Y-88994500D01*
D18*
X126400000Y-91225500D02*
G75*
G02*
X126200000Y-91225500I-100000J0D01*
G01*
X126200000Y-91225500D02*
G75*
G02*
X126400000Y-91225500I100000J0D01*
G01*
%TO.C,R5*%
X121000000Y-108300000D02*
X121000000Y-105320000D01*
D11*
%TO.C,J2*%
X117300000Y-69450000D02*
X117300000Y-69450000D01*
X117300000Y-69550000D02*
X117300000Y-69550000D01*
X117300000Y-69450000D02*
G75*
G02*
X117300000Y-69550000I0J-50000D01*
G01*
X117300000Y-69550000D02*
G75*
G02*
X117300000Y-69450000I0J50000D01*
G01*
D16*
%TO.C,D4*%
X124750000Y-81150000D02*
X119000000Y-81150000D01*
X124750000Y-85450000D02*
X119000000Y-85450000D01*
X124750000Y-85450000D02*
X124750000Y-81150000D01*
%TO.C,D7*%
X184515000Y-101450000D02*
X184515000Y-103735000D01*
X184515000Y-103735000D02*
X185985000Y-103735000D01*
X185985000Y-103735000D02*
X185985000Y-101450000D01*
D11*
%TO.C,J7*%
X180250000Y-119850000D02*
X180250000Y-119850000D01*
X180250000Y-119950000D02*
X180250000Y-119950000D01*
X180250000Y-119850000D02*
G75*
G02*
X180250000Y-119950000I0J-50000D01*
G01*
X180250000Y-119950000D02*
G75*
G02*
X180250000Y-119850000I0J50000D01*
G01*
D16*
%TO.C,D11*%
X121500000Y-92150000D02*
X121500000Y-90190000D01*
X122700000Y-90190000D02*
X121500000Y-90190000D01*
X122700000Y-92150000D02*
X122700000Y-90190000D01*
%TO.C,J8*%
X164130000Y-133670000D02*
X164130000Y-136330000D01*
X169270000Y-133670000D02*
X164130000Y-133670000D01*
X169270000Y-133670000D02*
X169270000Y-136330000D01*
X169270000Y-136330000D02*
X164130000Y-136330000D01*
X170540000Y-133670000D02*
X171870000Y-133670000D01*
X171870000Y-133670000D02*
X171870000Y-135000000D01*
D17*
%TO.C,Q2*%
X125300000Y-106174500D02*
X125325000Y-106174500D01*
X125300000Y-112394500D02*
X125300000Y-106174500D01*
X125340000Y-112394500D02*
X125300000Y-112394500D01*
X133200000Y-106174500D02*
X133175000Y-106174500D01*
X133200000Y-106174500D02*
X133200000Y-112394500D01*
X133200000Y-112394500D02*
X133160000Y-112394500D01*
D18*
X126350000Y-114625500D02*
G75*
G02*
X126150000Y-114625500I-100000J0D01*
G01*
X126150000Y-114625500D02*
G75*
G02*
X126350000Y-114625500I100000J0D01*
G01*
D16*
%TO.C,TP19*%
X153326667Y-135000000D02*
G75*
G02*
X149726667Y-135000000I-1800000J0D01*
G01*
X149726667Y-135000000D02*
G75*
G02*
X153326667Y-135000000I1800000J0D01*
G01*
%TO.C,TP2*%
X178550000Y-102250000D02*
G75*
G02*
X174950000Y-102250000I-1800000J0D01*
G01*
X174950000Y-102250000D02*
G75*
G02*
X178550000Y-102250000I1800000J0D01*
G01*
D17*
%TO.C,Q1*%
X125400000Y-116045000D02*
X125440000Y-116045000D01*
X125400000Y-122265000D02*
X125400000Y-116045000D01*
X125400000Y-122265000D02*
X125425000Y-122265000D01*
X133260000Y-116045000D02*
X133300000Y-116045000D01*
X133300000Y-116045000D02*
X133300000Y-122265000D01*
X133300000Y-122265000D02*
X133275000Y-122265000D01*
D18*
X132450000Y-113814000D02*
G75*
G02*
X132250000Y-113814000I-100000J0D01*
G01*
X132250000Y-113814000D02*
G75*
G02*
X132450000Y-113814000I100000J0D01*
G01*
D16*
%TO.C,TP16*%
X160590000Y-135000000D02*
G75*
G02*
X156990000Y-135000000I-1800000J0D01*
G01*
X156990000Y-135000000D02*
G75*
G02*
X160590000Y-135000000I1800000J0D01*
G01*
%TO.C,CMOSFET1*%
X123245000Y-113888748D02*
X123245000Y-114411252D01*
X124715000Y-113888748D02*
X124715000Y-114411252D01*
D11*
%TO.C,J3*%
X112450000Y-130725000D02*
X112450000Y-130725000D01*
X112550000Y-130725000D02*
X112550000Y-130725000D01*
X112450000Y-130725000D02*
G75*
G02*
X112550000Y-130725000I50000J0D01*
G01*
X112550000Y-130725000D02*
G75*
G02*
X112450000Y-130725000I-50000J0D01*
G01*
D16*
%TO.C,TP4*%
X178550000Y-93750000D02*
G75*
G02*
X174950000Y-93750000I-1800000J0D01*
G01*
X174950000Y-93750000D02*
G75*
G02*
X178550000Y-93750000I1800000J0D01*
G01*
%TO.C,TP15*%
X113010000Y-93440000D02*
G75*
G02*
X109410000Y-93440000I-1800000J0D01*
G01*
X109410000Y-93440000D02*
G75*
G02*
X113010000Y-93440000I1800000J0D01*
G01*
%TO.C,D6*%
X113315000Y-82250000D02*
X113315000Y-84535000D01*
X113315000Y-84535000D02*
X114785000Y-84535000D01*
X114785000Y-84535000D02*
X114785000Y-82250000D01*
%TO.C,R3*%
X121947064Y-117875000D02*
X121492936Y-117875000D01*
X121947064Y-119345000D02*
X121492936Y-119345000D01*
%TO.C,TP5*%
X178550000Y-76500000D02*
G75*
G02*
X174950000Y-76500000I-1800000J0D01*
G01*
X174950000Y-76500000D02*
G75*
G02*
X178550000Y-76500000I1800000J0D01*
G01*
%TO.C,R4*%
X121915000Y-87172936D02*
X121915000Y-87627064D01*
X123385000Y-87172936D02*
X123385000Y-87627064D01*
%TO.C,TP14*%
X117480000Y-115630000D02*
G75*
G02*
X113880000Y-115630000I-1800000J0D01*
G01*
X113880000Y-115630000D02*
G75*
G02*
X117480000Y-115630000I1800000J0D01*
G01*
%TO.C,TP8*%
X178550000Y-89500000D02*
G75*
G02*
X174950000Y-89500000I-1800000J0D01*
G01*
X174950000Y-89500000D02*
G75*
G02*
X178550000Y-89500000I1800000J0D01*
G01*
%TO.C,TP3*%
X178550000Y-98000000D02*
G75*
G02*
X174950000Y-98000000I-1800000J0D01*
G01*
X174950000Y-98000000D02*
G75*
G02*
X178550000Y-98000000I1800000J0D01*
G01*
%TO.C,TP17*%
X138800000Y-135000000D02*
G75*
G02*
X135200000Y-135000000I-1800000J0D01*
G01*
X135200000Y-135000000D02*
G75*
G02*
X138800000Y-135000000I1800000J0D01*
G01*
D11*
%TO.C,J1*%
X123600000Y-130725000D02*
X123600000Y-130725000D01*
X123700000Y-130725000D02*
X123700000Y-130725000D01*
X123600000Y-130725000D02*
G75*
G02*
X123700000Y-130725000I50000J0D01*
G01*
X123700000Y-130725000D02*
G75*
G02*
X123600000Y-130725000I-50000J0D01*
G01*
%TO.C,J4*%
X128300000Y-69450000D02*
X128300000Y-69450000D01*
X128300000Y-69550000D02*
X128300000Y-69550000D01*
X128300000Y-69450000D02*
G75*
G02*
X128300000Y-69550000I0J-50000D01*
G01*
X128300000Y-69550000D02*
G75*
G02*
X128300000Y-69450000I0J50000D01*
G01*
D16*
%TO.C,D9*%
X121580000Y-114880000D02*
X121580000Y-112920000D01*
X122780000Y-112920000D02*
X121580000Y-112920000D01*
X122780000Y-114880000D02*
X122780000Y-112920000D01*
%TO.C,R2*%
X115267500Y-94075276D02*
X115267500Y-94584724D01*
X116312500Y-94075276D02*
X116312500Y-94584724D01*
%TO.C,D3*%
X123800000Y-119760000D02*
X118050000Y-119760000D01*
X123800000Y-124060000D02*
X118050000Y-124060000D01*
X123800000Y-124060000D02*
X123800000Y-119760000D01*
%TO.C,TP6*%
X178550000Y-81000000D02*
G75*
G02*
X174950000Y-81000000I-1800000J0D01*
G01*
X174950000Y-81000000D02*
G75*
G02*
X178550000Y-81000000I1800000J0D01*
G01*
%TO.C,TP12*%
X184300000Y-106500000D02*
G75*
G02*
X180700000Y-106500000I-1800000J0D01*
G01*
X180700000Y-106500000D02*
G75*
G02*
X184300000Y-106500000I1800000J0D01*
G01*
%TO.C,TP7*%
X178550000Y-85250000D02*
G75*
G02*
X174950000Y-85250000I-1800000J0D01*
G01*
X174950000Y-85250000D02*
G75*
G02*
X178550000Y-85250000I1800000J0D01*
G01*
%TO.C,C1*%
X120021252Y-115825000D02*
X119498748Y-115825000D01*
X120021252Y-117295000D02*
X119498748Y-117295000D01*
D18*
%TO.C,R6*%
X121060000Y-100550000D02*
X121060000Y-97570000D01*
D16*
%TO.C,J9*%
X110220000Y-97200000D02*
X115640000Y-97200000D01*
X110220000Y-105920000D02*
X110220000Y-97200000D01*
X111520000Y-107620000D02*
X110220000Y-105920000D01*
X111520000Y-107620000D02*
X114340000Y-107620000D01*
X114340000Y-107620000D02*
X115640000Y-105920000D01*
X115640000Y-105920000D02*
X115640000Y-97200000D01*
%TO.C,R9*%
X182727500Y-102504724D02*
X182727500Y-101995276D01*
X183772500Y-102504724D02*
X183772500Y-101995276D01*
%TO.C,C2*%
X119415000Y-87711252D02*
X119415000Y-87188748D01*
X120885000Y-87711252D02*
X120885000Y-87188748D01*
%TO.C,TP13*%
X117125000Y-87125000D02*
G75*
G02*
X113525000Y-87125000I-1800000J0D01*
G01*
X113525000Y-87125000D02*
G75*
G02*
X117125000Y-87125000I1800000J0D01*
G01*
%TO.C,TP1*%
X178550000Y-106500000D02*
G75*
G02*
X174950000Y-106500000I-1800000J0D01*
G01*
X174950000Y-106500000D02*
G75*
G02*
X178550000Y-106500000I1800000J0D01*
G01*
%TD*%
%LPC*%
D19*
%TO.C,J6*%
X144650000Y-100150000D03*
X155250000Y-100150000D03*
D20*
X154350000Y-96950000D03*
X154350000Y-100750000D03*
X153550000Y-96950000D03*
X153550000Y-100750000D03*
X152750000Y-96950000D03*
X152750000Y-100750000D03*
X151950000Y-96950000D03*
X151950000Y-100750000D03*
X151150000Y-96950000D03*
X151150000Y-100750000D03*
X150350000Y-96950000D03*
X150350000Y-100750000D03*
X149550000Y-96950000D03*
X149550000Y-100750000D03*
X148750000Y-96950000D03*
X148750000Y-100750000D03*
X147950000Y-96950000D03*
X147950000Y-100750000D03*
X147150000Y-96950000D03*
X147150000Y-100750000D03*
X146350000Y-96950000D03*
X146350000Y-100750000D03*
X145550000Y-96950000D03*
X145550000Y-100750000D03*
D21*
X139250000Y-126400000D03*
D22*
X139250000Y-126400000D03*
D21*
X170250000Y-126400000D03*
D22*
X170250000Y-126400000D03*
D21*
X139250000Y-71400000D03*
D22*
X139250000Y-71400000D03*
D21*
X170250000Y-71400000D03*
D22*
X170250000Y-71400000D03*
%TD*%
D23*
%TO.C,D2*%
X118830000Y-93685000D03*
X118830000Y-95260000D03*
%TD*%
D24*
%TO.C,R8*%
X115650000Y-83912500D03*
X115650000Y-82087500D03*
%TD*%
D25*
%TO.C,R7*%
X114620000Y-121407500D03*
X114620000Y-123232500D03*
%TD*%
D26*
%TO.C,CMOSFET3*%
X124000000Y-90050000D03*
X124000000Y-91950000D03*
%TD*%
D27*
%TO.C,J5*%
X180310000Y-114000000D03*
%TD*%
D28*
%TO.C,Q4*%
X132300000Y-92700000D03*
X130300000Y-92700000D03*
X128300000Y-92700000D03*
X126300000Y-92700000D03*
D29*
X129300000Y-97950000D03*
%TD*%
D23*
%TO.C,D5*%
X112990000Y-121692500D03*
X112990000Y-123267500D03*
%TD*%
D22*
%TO.C,H2*%
X107500000Y-133500000D03*
%TD*%
D30*
%TO.C,TP18*%
X144263333Y-135000000D03*
%TD*%
D31*
%TO.C,Q3*%
X126300000Y-89714500D03*
X128300000Y-89714500D03*
X130300000Y-89714500D03*
X132300000Y-89714500D03*
D32*
X129300000Y-84464500D03*
%TD*%
D22*
%TO.C,H1*%
X182500000Y-70750000D03*
%TD*%
D33*
%TO.C,R5*%
X123900000Y-106810000D03*
X118100000Y-106810000D03*
%TD*%
D22*
%TO.C,H4*%
X107500000Y-70750000D03*
%TD*%
D27*
%TO.C,J2*%
X117300000Y-74350000D03*
%TD*%
D34*
%TO.C,D4*%
X123300000Y-83300000D03*
X119000000Y-83300000D03*
%TD*%
D35*
%TO.C,D7*%
X185250000Y-103037500D03*
X185250000Y-101462500D03*
%TD*%
D27*
%TO.C,J7*%
X180250000Y-124750000D03*
%TD*%
D36*
%TO.C,D11*%
X122100000Y-90750000D03*
X122100000Y-92150000D03*
%TD*%
D37*
%TO.C,J8*%
X170540000Y-135000000D03*
D38*
X168000000Y-135000000D03*
X165460000Y-135000000D03*
%TD*%
D31*
%TO.C,Q2*%
X126250000Y-113114500D03*
X128250000Y-113114500D03*
X130250000Y-113114500D03*
X132250000Y-113114500D03*
D32*
X129250000Y-107864500D03*
%TD*%
D30*
%TO.C,TP19*%
X151526667Y-135000000D03*
%TD*%
%TO.C,TP2*%
X176750000Y-102250000D03*
%TD*%
D28*
%TO.C,Q1*%
X132350000Y-115325000D03*
X130350000Y-115325000D03*
X128350000Y-115325000D03*
X126350000Y-115325000D03*
D29*
X129350000Y-120575000D03*
%TD*%
D30*
%TO.C,TP16*%
X158790000Y-135000000D03*
%TD*%
D26*
%TO.C,CMOSFET1*%
X123980000Y-113200000D03*
X123980000Y-115100000D03*
%TD*%
D27*
%TO.C,J3*%
X117350000Y-130725000D03*
%TD*%
D30*
%TO.C,TP4*%
X176750000Y-93750000D03*
%TD*%
%TO.C,TP15*%
X111210000Y-93440000D03*
%TD*%
D35*
%TO.C,D6*%
X114050000Y-83837500D03*
X114050000Y-82262500D03*
%TD*%
D39*
%TO.C,R3*%
X122632500Y-118610000D03*
X120807500Y-118610000D03*
%TD*%
D30*
%TO.C,TP5*%
X176750000Y-76500000D03*
%TD*%
D40*
%TO.C,R4*%
X122650000Y-86487500D03*
X122650000Y-88312500D03*
%TD*%
D30*
%TO.C,TP14*%
X115680000Y-115630000D03*
%TD*%
%TO.C,TP8*%
X176750000Y-89500000D03*
%TD*%
%TO.C,TP3*%
X176750000Y-98000000D03*
%TD*%
%TO.C,TP17*%
X137000000Y-135000000D03*
%TD*%
D27*
%TO.C,J1*%
X128500000Y-130725000D03*
%TD*%
%TO.C,J4*%
X128300000Y-74350000D03*
%TD*%
D36*
%TO.C,D9*%
X122180000Y-113480000D03*
X122180000Y-114880000D03*
%TD*%
D25*
%TO.C,R2*%
X115790000Y-93417500D03*
X115790000Y-95242500D03*
%TD*%
D22*
%TO.C,H3*%
X182500000Y-133500000D03*
%TD*%
D34*
%TO.C,D3*%
X122350000Y-121910000D03*
X118050000Y-121910000D03*
%TD*%
D30*
%TO.C,TP6*%
X176750000Y-81000000D03*
%TD*%
%TO.C,TP12*%
X182500000Y-106500000D03*
%TD*%
%TO.C,TP7*%
X176750000Y-85250000D03*
%TD*%
D41*
%TO.C,C1*%
X120710000Y-116560000D03*
X118810000Y-116560000D03*
%TD*%
D33*
%TO.C,R6*%
X123960000Y-99060000D03*
X118160000Y-99060000D03*
%TD*%
D42*
%TO.C,J9*%
X112930000Y-104910000D03*
D43*
X112930000Y-99910000D03*
%TD*%
D24*
%TO.C,R9*%
X183250000Y-103162500D03*
X183250000Y-101337500D03*
%TD*%
D44*
%TO.C,C2*%
X120150000Y-88400000D03*
X120150000Y-86500000D03*
%TD*%
D30*
%TO.C,TP13*%
X115325000Y-87125000D03*
%TD*%
%TO.C,TP1*%
X176750000Y-106500000D03*
%TD*%
%LPD*%
M02*
