%TF.GenerationSoftware,KiCad,Pcbnew,9.0.6*%
%TF.CreationDate,2026-01-10T12:25:54-06:00*%
%TF.ProjectId,TestBoard_PowerMuxPCB,54657374-426f-4617-9264-5f506f776572,rev?*%
%TF.SameCoordinates,Original*%
%TF.FileFunction,Copper,L2,Bot*%
%TF.FilePolarity,Positive*%
%FSLAX46Y46*%
G04 Gerber Fmt 4.6, Leading zero omitted, Abs format (unit mm)*
G04 Created by KiCad (PCBNEW 9.0.6) date 2026-01-10 12:25:54*
%MOMM*%
%LPD*%
G01*
G04 APERTURE LIST*
G04 Aperture macros list*
%AMRoundRect*
0 Rectangle with rounded corners*
0 $1 Rounding radius*
0 $2 $3 $4 $5 $6 $7 $8 $9 X,Y pos of 4 corners*
0 Add a 4 corners polygon primitive as box body*
4,1,4,$2,$3,$4,$5,$6,$7,$8,$9,$2,$3,0*
0 Add four circle primitives for the rounded corners*
1,1,$1+$1,$2,$3*
1,1,$1+$1,$4,$5*
1,1,$1+$1,$6,$7*
1,1,$1+$1,$8,$9*
0 Add four rect primitives between the rounded corners*
20,1,$1+$1,$2,$3,$4,$5,0*
20,1,$1+$1,$4,$5,$6,$7,0*
20,1,$1+$1,$6,$7,$8,$9,0*
20,1,$1+$1,$8,$9,$2,$3,0*%
G04 Aperture macros list end*
%TA.AperFunction,ComponentPad*%
%ADD10C,8.115000*%
%TD*%
%TA.AperFunction,ComponentPad*%
%ADD11C,6.400000*%
%TD*%
%TA.AperFunction,ComponentPad*%
%ADD12C,2.800000*%
%TD*%
%TA.AperFunction,ComponentPad*%
%ADD13R,1.700000X1.700000*%
%TD*%
%TA.AperFunction,ComponentPad*%
%ADD14O,1.700000X1.700000*%
%TD*%
%TA.AperFunction,ComponentPad*%
%ADD15C,3.600000*%
%TD*%
%TA.AperFunction,ConnectorPad*%
%ADD16C,6.400000*%
%TD*%
%TA.AperFunction,ComponentPad*%
%ADD17RoundRect,0.750000X0.750000X-0.750000X0.750000X0.750000X-0.750000X0.750000X-0.750000X-0.750000X0*%
%TD*%
%TA.AperFunction,ComponentPad*%
%ADD18C,3.000000*%
%TD*%
%TA.AperFunction,ViaPad*%
%ADD19C,0.600000*%
%TD*%
%TA.AperFunction,Conductor*%
%ADD20C,0.500000*%
%TD*%
%TA.AperFunction,Conductor*%
%ADD21C,0.200000*%
%TD*%
G04 APERTURE END LIST*
D10*
%TO.P,J5,1,Pin_1*%
%TO.N,+3.3V*%
X180310000Y-114000000D03*
%TD*%
D11*
%TO.P,H2,1,1*%
%TO.N,unconnected-(H2-Pad1)*%
X107500000Y-133500000D03*
%TD*%
D12*
%TO.P,TP18,1,1*%
%TO.N,GND*%
X144263333Y-135000000D03*
%TD*%
D11*
%TO.P,H1,1,1*%
%TO.N,unconnected-(H1-Pad1)*%
X182500000Y-70750000D03*
%TD*%
%TO.P,H4,1,1*%
%TO.N,unconnected-(H4-Pad1)*%
X107500000Y-70750000D03*
%TD*%
D10*
%TO.P,J2,1,Pin_1*%
%TO.N,GND*%
X117300000Y-74350000D03*
%TD*%
%TO.P,J7,1,Pin_1*%
%TO.N,GND*%
X180250000Y-124750000D03*
%TD*%
D13*
%TO.P,J8,1,Pin_1*%
%TO.N,+3.3V*%
X170540000Y-135000000D03*
D14*
%TO.P,J8,2,Pin_2*%
%TO.N,/SHDN*%
X168000000Y-135000000D03*
%TO.P,J8,3,Pin_3*%
%TO.N,GND*%
X165460000Y-135000000D03*
%TD*%
D12*
%TO.P,TP19,1,1*%
%TO.N,GND*%
X151526667Y-135000000D03*
%TD*%
%TO.P,TP2,1,1*%
%TO.N,/VDL1*%
X176750000Y-102250000D03*
%TD*%
%TO.P,TP16,1,1*%
%TO.N,GND*%
X158790000Y-135000000D03*
%TD*%
D10*
%TO.P,J3,1,Pin_1*%
%TO.N,GND*%
X117350000Y-130725000D03*
%TD*%
D12*
%TO.P,TP4,1,1*%
%TO.N,/DISABLE1*%
X176750000Y-93750000D03*
%TD*%
%TO.P,TP15,1,1*%
%TO.N,/Out*%
X111210000Y-93440000D03*
%TD*%
%TO.P,TP5,1,1*%
%TO.N,/CHL2*%
X176750000Y-76500000D03*
%TD*%
%TO.P,TP14,1,1*%
%TO.N,/V1*%
X115680000Y-115630000D03*
%TD*%
%TO.P,TP8,1,1*%
%TO.N,/DISABLE2*%
X176750000Y-89500000D03*
%TD*%
%TO.P,TP3,1,1*%
%TO.N,/FTL1*%
X176750000Y-98000000D03*
%TD*%
%TO.P,TP17,1,1*%
%TO.N,GND*%
X137000000Y-135000000D03*
%TD*%
D10*
%TO.P,J1,1,Pin_1*%
%TO.N,/V1*%
X128500000Y-130725000D03*
%TD*%
%TO.P,J4,1,Pin_1*%
%TO.N,/V2*%
X128300000Y-74350000D03*
%TD*%
D11*
%TO.P,H3,1,1*%
%TO.N,unconnected-(H3-Pad1)*%
X182500000Y-133500000D03*
%TD*%
D15*
%TO.P,J6,X*%
%TO.N,N/C*%
X139250000Y-126400000D03*
D16*
X139250000Y-126400000D03*
D15*
X170250000Y-126400000D03*
D16*
X170250000Y-126400000D03*
D15*
X139250000Y-71400000D03*
D16*
X139250000Y-71400000D03*
D15*
X170250000Y-71400000D03*
D16*
X170250000Y-71400000D03*
%TD*%
D12*
%TO.P,TP6,1,1*%
%TO.N,/VDL2*%
X176750000Y-81000000D03*
%TD*%
%TO.P,TP12,1,1*%
%TO.N,+3.3V*%
X182500000Y-106500000D03*
%TD*%
%TO.P,TP7,1,1*%
%TO.N,/FTL2*%
X176750000Y-85250000D03*
%TD*%
D17*
%TO.P,J9,1,Pin_1*%
%TO.N,GND*%
X112930000Y-104910000D03*
D18*
%TO.P,J9,2,Pin_2*%
%TO.N,/Out*%
X112930000Y-99910000D03*
%TD*%
D12*
%TO.P,TP13,1,1*%
%TO.N,/V2*%
X115325000Y-87125000D03*
%TD*%
%TO.P,TP1,1,1*%
%TO.N,/CHL1*%
X176750000Y-106500000D03*
%TD*%
D19*
%TO.N,GND*%
X136840000Y-101650000D03*
X136610000Y-117920000D03*
X156000000Y-97000000D03*
X147120000Y-106220000D03*
X140380000Y-101650000D03*
X134725000Y-89300000D03*
X138470000Y-117920000D03*
X136560000Y-104790000D03*
X138250000Y-96840000D03*
X136620000Y-107250000D03*
X147120000Y-108770000D03*
X140240000Y-107130000D03*
X137175000Y-89275000D03*
X140210000Y-104780000D03*
X145260000Y-106220000D03*
X136610000Y-115370000D03*
X134990000Y-96830000D03*
X156000000Y-98750000D03*
X136680000Y-96830000D03*
X134725000Y-91825000D03*
X134890000Y-101670000D03*
X140330000Y-96820000D03*
X134740000Y-93550000D03*
X154500000Y-95500000D03*
X154500000Y-102500000D03*
X137175000Y-91825000D03*
X138130000Y-104800000D03*
X134990000Y-107280000D03*
X144570000Y-110270000D03*
X137180000Y-93440000D03*
X156000000Y-102500000D03*
X138130000Y-107210000D03*
X156000000Y-95500000D03*
X156000000Y-101000000D03*
X145260000Y-108770000D03*
X140840000Y-113980000D03*
X138470000Y-115370000D03*
X142710000Y-112160000D03*
X134870000Y-104790000D03*
X138380000Y-101620000D03*
%TO.N,/GATE1*%
X133750000Y-114910000D03*
X123930000Y-112310000D03*
%TO.N,/SOURCE2*%
X143600000Y-92000000D03*
X147174998Y-96250000D03*
%TO.N,/GATE2*%
X133400000Y-92700000D03*
X124700000Y-89075000D03*
%TO.N,/SHDN*%
X153550000Y-98000000D03*
%TD*%
D20*
%TO.N,GND*%
X138410000Y-101650000D02*
X138380000Y-101620000D01*
X134910000Y-101650000D02*
X134890000Y-101670000D01*
D21*
%TO.N,/GATE1*%
X126530000Y-114910000D02*
X133750000Y-114910000D01*
X123930000Y-112310000D02*
X126530000Y-114910000D01*
D20*
%TO.N,/SOURCE2*%
X147174998Y-96250000D02*
X147250000Y-96174998D01*
X147250000Y-95550000D02*
X143700000Y-92000000D01*
X147250000Y-96174998D02*
X147250000Y-95550000D01*
X143700000Y-92000000D02*
X143600000Y-92000000D01*
D21*
%TO.N,/GATE2*%
X128325000Y-92700000D02*
X133400000Y-92700000D01*
X124700000Y-89075000D02*
X128325000Y-92700000D01*
%TO.N,/SHDN*%
X153550000Y-98000000D02*
X153500000Y-98050000D01*
X153500000Y-98050000D02*
X153500000Y-120500000D01*
X153500000Y-120500000D02*
X168000000Y-135000000D01*
%TD*%
%TA.AperFunction,Conductor*%
%TO.N,GND*%
G36*
X138694020Y-67520185D02*
G01*
X138739775Y-67572989D01*
X138749719Y-67642147D01*
X138720694Y-67705703D01*
X138661916Y-67743477D01*
X138651172Y-67746117D01*
X138349787Y-67806064D01*
X138349776Y-67806067D01*
X138001834Y-67911614D01*
X137665921Y-68050754D01*
X137665916Y-68050756D01*
X137345279Y-68222140D01*
X137345261Y-68222151D01*
X137042964Y-68424140D01*
X137042950Y-68424150D01*
X136761893Y-68654807D01*
X136504807Y-68911893D01*
X136274150Y-69192950D01*
X136274140Y-69192964D01*
X136072151Y-69495261D01*
X136072140Y-69495279D01*
X135900756Y-69815916D01*
X135900754Y-69815921D01*
X135761614Y-70151834D01*
X135656067Y-70499776D01*
X135656064Y-70499787D01*
X135585137Y-70856369D01*
X135549500Y-71218209D01*
X135549500Y-71581790D01*
X135585137Y-71943630D01*
X135656064Y-72300212D01*
X135656067Y-72300223D01*
X135761614Y-72648165D01*
X135900754Y-72984078D01*
X135900756Y-72984083D01*
X136072140Y-73304720D01*
X136072151Y-73304738D01*
X136274140Y-73607035D01*
X136274150Y-73607049D01*
X136504807Y-73888106D01*
X136761893Y-74145192D01*
X136761898Y-74145196D01*
X136761899Y-74145197D01*
X137042956Y-74375854D01*
X137345268Y-74577853D01*
X137345277Y-74577858D01*
X137345279Y-74577859D01*
X137665916Y-74749243D01*
X137665918Y-74749243D01*
X137665924Y-74749247D01*
X138001836Y-74888386D01*
X138349767Y-74993930D01*
X138349773Y-74993931D01*
X138349776Y-74993932D01*
X138349787Y-74993935D01*
X138706369Y-75064862D01*
X139068206Y-75100500D01*
X139068209Y-75100500D01*
X139431791Y-75100500D01*
X139431794Y-75100500D01*
X139793631Y-75064862D01*
X139863045Y-75051054D01*
X140150212Y-74993935D01*
X140150223Y-74993932D01*
X140150223Y-74993931D01*
X140150233Y-74993930D01*
X140498164Y-74888386D01*
X140834076Y-74749247D01*
X141154732Y-74577853D01*
X141457044Y-74375854D01*
X141738101Y-74145197D01*
X141995197Y-73888101D01*
X142225854Y-73607044D01*
X142427853Y-73304732D01*
X142599247Y-72984076D01*
X142738386Y-72648164D01*
X142843930Y-72300233D01*
X142843932Y-72300223D01*
X142843935Y-72300212D01*
X142914862Y-71943630D01*
X142950500Y-71581790D01*
X142950500Y-71218209D01*
X142914862Y-70856369D01*
X142843935Y-70499787D01*
X142843932Y-70499776D01*
X142843931Y-70499773D01*
X142843930Y-70499767D01*
X142738386Y-70151836D01*
X142599247Y-69815924D01*
X142586459Y-69792000D01*
X142427859Y-69495279D01*
X142427858Y-69495277D01*
X142427853Y-69495268D01*
X142225854Y-69192956D01*
X141995197Y-68911899D01*
X141995196Y-68911898D01*
X141995192Y-68911893D01*
X141738106Y-68654807D01*
X141457049Y-68424150D01*
X141457048Y-68424149D01*
X141457044Y-68424146D01*
X141154732Y-68222147D01*
X141154727Y-68222144D01*
X141154720Y-68222140D01*
X140834083Y-68050756D01*
X140834078Y-68050754D01*
X140498165Y-67911614D01*
X140150223Y-67806067D01*
X140150212Y-67806064D01*
X139848828Y-67746117D01*
X139786917Y-67713733D01*
X139752343Y-67653017D01*
X139756082Y-67583247D01*
X139796948Y-67526575D01*
X139861966Y-67500994D01*
X139873019Y-67500500D01*
X169626981Y-67500500D01*
X169694020Y-67520185D01*
X169739775Y-67572989D01*
X169749719Y-67642147D01*
X169720694Y-67705703D01*
X169661916Y-67743477D01*
X169651172Y-67746117D01*
X169349787Y-67806064D01*
X169349776Y-67806067D01*
X169001834Y-67911614D01*
X168665921Y-68050754D01*
X168665916Y-68050756D01*
X168345279Y-68222140D01*
X168345261Y-68222151D01*
X168042964Y-68424140D01*
X168042950Y-68424150D01*
X167761893Y-68654807D01*
X167504807Y-68911893D01*
X167274150Y-69192950D01*
X167274140Y-69192964D01*
X167072151Y-69495261D01*
X167072140Y-69495279D01*
X166900756Y-69815916D01*
X166900754Y-69815921D01*
X166761614Y-70151834D01*
X166656067Y-70499776D01*
X166656064Y-70499787D01*
X166585137Y-70856369D01*
X166549500Y-71218209D01*
X166549500Y-71581790D01*
X166585137Y-71943630D01*
X166656064Y-72300212D01*
X166656067Y-72300223D01*
X166761614Y-72648165D01*
X166900754Y-72984078D01*
X166900756Y-72984083D01*
X167072140Y-73304720D01*
X167072151Y-73304738D01*
X167274140Y-73607035D01*
X167274150Y-73607049D01*
X167504807Y-73888106D01*
X167761893Y-74145192D01*
X167761898Y-74145196D01*
X167761899Y-74145197D01*
X168042956Y-74375854D01*
X168345268Y-74577853D01*
X168345277Y-74577858D01*
X168345279Y-74577859D01*
X168665916Y-74749243D01*
X168665918Y-74749243D01*
X168665924Y-74749247D01*
X169001836Y-74888386D01*
X169349767Y-74993930D01*
X169349773Y-74993931D01*
X169349776Y-74993932D01*
X169349787Y-74993935D01*
X169706369Y-75064862D01*
X170068206Y-75100500D01*
X170068209Y-75100500D01*
X170431791Y-75100500D01*
X170431794Y-75100500D01*
X170793631Y-75064862D01*
X170863045Y-75051054D01*
X171150212Y-74993935D01*
X171150223Y-74993932D01*
X171150223Y-74993931D01*
X171150233Y-74993930D01*
X171498164Y-74888386D01*
X171834076Y-74749247D01*
X172154732Y-74577853D01*
X172457044Y-74375854D01*
X172738101Y-74145197D01*
X172995197Y-73888101D01*
X173225854Y-73607044D01*
X173427853Y-73304732D01*
X173599247Y-72984076D01*
X173738386Y-72648164D01*
X173843930Y-72300233D01*
X173843932Y-72300223D01*
X173843935Y-72300212D01*
X173914862Y-71943630D01*
X173950500Y-71581790D01*
X173950500Y-71218209D01*
X173914862Y-70856369D01*
X173843935Y-70499787D01*
X173843932Y-70499776D01*
X173843931Y-70499773D01*
X173843930Y-70499767D01*
X173738386Y-70151836D01*
X173599247Y-69815924D01*
X173586459Y-69792000D01*
X173427859Y-69495279D01*
X173427858Y-69495277D01*
X173427853Y-69495268D01*
X173225854Y-69192956D01*
X172995197Y-68911899D01*
X172995196Y-68911898D01*
X172995192Y-68911893D01*
X172738106Y-68654807D01*
X172457049Y-68424150D01*
X172457048Y-68424149D01*
X172457044Y-68424146D01*
X172154732Y-68222147D01*
X172154727Y-68222144D01*
X172154720Y-68222140D01*
X171834083Y-68050756D01*
X171834078Y-68050754D01*
X171498165Y-67911614D01*
X171150223Y-67806067D01*
X171150212Y-67806064D01*
X170848828Y-67746117D01*
X170786917Y-67713733D01*
X170752343Y-67653017D01*
X170756082Y-67583247D01*
X170796948Y-67526575D01*
X170861966Y-67500994D01*
X170873019Y-67500500D01*
X180293723Y-67500500D01*
X180360762Y-67520185D01*
X180406517Y-67572989D01*
X180416461Y-67642147D01*
X180387436Y-67705703D01*
X180362614Y-67727602D01*
X180292964Y-67774140D01*
X180292950Y-67774150D01*
X180011893Y-68004807D01*
X179754807Y-68261893D01*
X179524150Y-68542950D01*
X179524140Y-68542964D01*
X179322151Y-68845261D01*
X179322140Y-68845279D01*
X179150756Y-69165916D01*
X179150754Y-69165921D01*
X179011614Y-69501834D01*
X178906067Y-69849776D01*
X178906064Y-69849787D01*
X178835137Y-70206369D01*
X178825605Y-70303156D01*
X178799500Y-70568206D01*
X178799500Y-70931794D01*
X178804868Y-70986291D01*
X178835137Y-71293630D01*
X178906064Y-71650212D01*
X178906067Y-71650223D01*
X179011614Y-71998165D01*
X179150754Y-72334078D01*
X179150756Y-72334083D01*
X179322140Y-72654720D01*
X179322151Y-72654738D01*
X179524140Y-72957035D01*
X179524150Y-72957049D01*
X179754807Y-73238106D01*
X180011893Y-73495192D01*
X180011898Y-73495196D01*
X180011899Y-73495197D01*
X180292956Y-73725854D01*
X180595268Y-73927853D01*
X180595277Y-73927858D01*
X180595279Y-73927859D01*
X180915916Y-74099243D01*
X180915918Y-74099243D01*
X180915924Y-74099247D01*
X181251836Y-74238386D01*
X181599767Y-74343930D01*
X181599773Y-74343931D01*
X181599776Y-74343932D01*
X181599787Y-74343935D01*
X181956369Y-74414862D01*
X182318206Y-74450500D01*
X182318209Y-74450500D01*
X182681791Y-74450500D01*
X182681794Y-74450500D01*
X183043631Y-74414862D01*
X183113045Y-74401054D01*
X183400212Y-74343935D01*
X183400223Y-74343932D01*
X183400223Y-74343931D01*
X183400233Y-74343930D01*
X183748164Y-74238386D01*
X184084076Y-74099247D01*
X184404732Y-73927853D01*
X184707044Y-73725854D01*
X184988101Y-73495197D01*
X185245197Y-73238101D01*
X185475854Y-72957044D01*
X185522398Y-72887385D01*
X185576010Y-72842581D01*
X185645335Y-72833874D01*
X185708362Y-72864028D01*
X185745082Y-72923471D01*
X185749500Y-72956277D01*
X185749500Y-131293722D01*
X185729815Y-131360761D01*
X185677011Y-131406516D01*
X185607853Y-131416460D01*
X185544297Y-131387435D01*
X185522398Y-131362613D01*
X185475860Y-131292964D01*
X185475849Y-131292950D01*
X185245192Y-131011893D01*
X184988106Y-130754807D01*
X184707049Y-130524150D01*
X184707048Y-130524149D01*
X184707044Y-130524146D01*
X184404732Y-130322147D01*
X184404727Y-130322144D01*
X184404720Y-130322140D01*
X184084083Y-130150756D01*
X184084078Y-130150754D01*
X184032754Y-130129495D01*
X183962754Y-130100500D01*
X183748165Y-130011614D01*
X183400223Y-129906067D01*
X183400212Y-129906064D01*
X183043630Y-129835137D01*
X182771111Y-129808296D01*
X182681794Y-129799500D01*
X182318206Y-129799500D01*
X182235679Y-129807628D01*
X181956369Y-129835137D01*
X181599787Y-129906064D01*
X181599776Y-129906067D01*
X181251834Y-130011614D01*
X180915921Y-130150754D01*
X180915916Y-130150756D01*
X180595279Y-130322140D01*
X180595261Y-130322151D01*
X180292964Y-130524140D01*
X180292950Y-130524150D01*
X180011893Y-130754807D01*
X179754807Y-131011893D01*
X179524150Y-131292950D01*
X179524140Y-131292964D01*
X179322151Y-131595261D01*
X179322140Y-131595279D01*
X179150756Y-131915916D01*
X179150754Y-131915921D01*
X179011614Y-132251834D01*
X178906067Y-132599776D01*
X178906064Y-132599787D01*
X178835137Y-132956369D01*
X178807628Y-133235679D01*
X178799500Y-133318206D01*
X178799500Y-133681794D01*
X178810337Y-133791829D01*
X178835137Y-134043630D01*
X178906064Y-134400212D01*
X178906067Y-134400223D01*
X179011614Y-134748165D01*
X179150754Y-135084078D01*
X179150756Y-135084083D01*
X179322140Y-135404720D01*
X179322151Y-135404738D01*
X179524140Y-135707035D01*
X179524150Y-135707049D01*
X179754807Y-135988106D01*
X180011893Y-136245192D01*
X180011898Y-136245196D01*
X180011899Y-136245197D01*
X180292956Y-136475854D01*
X180342215Y-136508768D01*
X180362614Y-136522398D01*
X180407419Y-136576010D01*
X180416126Y-136645335D01*
X180385972Y-136708362D01*
X180326529Y-136745082D01*
X180293723Y-136749500D01*
X109706277Y-136749500D01*
X109639238Y-136729815D01*
X109593483Y-136677011D01*
X109583539Y-136607853D01*
X109612564Y-136544297D01*
X109637386Y-136522398D01*
X109707044Y-136475854D01*
X109988101Y-136245197D01*
X110245197Y-135988101D01*
X110475854Y-135707044D01*
X110677853Y-135404732D01*
X110849247Y-135084076D01*
X110988386Y-134748164D01*
X111093930Y-134400233D01*
X111093932Y-134400223D01*
X111093935Y-134400212D01*
X111153226Y-134102128D01*
X111164862Y-134043631D01*
X111200500Y-133681794D01*
X111200500Y-133318206D01*
X111164862Y-132956369D01*
X111093935Y-132599787D01*
X111093932Y-132599776D01*
X111093931Y-132599773D01*
X111093930Y-132599767D01*
X110988386Y-132251836D01*
X110849247Y-131915924D01*
X110677853Y-131595268D01*
X110475854Y-131292956D01*
X110245197Y-131011899D01*
X110245196Y-131011898D01*
X110245192Y-131011893D01*
X109988106Y-130754807D01*
X109822795Y-130619140D01*
X109709290Y-130525989D01*
X123942000Y-130525989D01*
X123942000Y-130924010D01*
X123976689Y-131320507D01*
X124045803Y-131712466D01*
X124045806Y-131712479D01*
X124148813Y-132096912D01*
X124284951Y-132470946D01*
X124453143Y-132831637D01*
X124453156Y-132831661D01*
X124652155Y-133176336D01*
X124652164Y-133176351D01*
X124880455Y-133502384D01*
X125051481Y-133706204D01*
X125136289Y-133807274D01*
X125417726Y-134088711D01*
X125454339Y-134119433D01*
X125722615Y-134344544D01*
X125722621Y-134344548D01*
X125722622Y-134344549D01*
X126048655Y-134572840D01*
X126240769Y-134683757D01*
X126393338Y-134771843D01*
X126393362Y-134771856D01*
X126754053Y-134940048D01*
X126754058Y-134940049D01*
X126754067Y-134940054D01*
X127128077Y-135076183D01*
X127128083Y-135076184D01*
X127128087Y-135076186D01*
X127232780Y-135104238D01*
X127512528Y-135179196D01*
X127904495Y-135248311D01*
X128300991Y-135282999D01*
X128300992Y-135283000D01*
X128300993Y-135283000D01*
X128699008Y-135283000D01*
X128699008Y-135282999D01*
X129095505Y-135248311D01*
X129487472Y-135179196D01*
X129871923Y-135076183D01*
X130245933Y-134940054D01*
X130345312Y-134893713D01*
X130606637Y-134771856D01*
X130606645Y-134771851D01*
X130606655Y-134771847D01*
X130951345Y-134572840D01*
X131277378Y-134344549D01*
X131582274Y-134088711D01*
X131863711Y-133807274D01*
X132119549Y-133502378D01*
X132347840Y-133176345D01*
X132546847Y-132831655D01*
X132546851Y-132831645D01*
X132546856Y-132831637D01*
X132715048Y-132470946D01*
X132715048Y-132470945D01*
X132715054Y-132470933D01*
X132851183Y-132096923D01*
X132954196Y-131712472D01*
X133023311Y-131320505D01*
X133058000Y-130924007D01*
X133058000Y-130525993D01*
X133023311Y-130129495D01*
X132954196Y-129737528D01*
X132879238Y-129457780D01*
X132851186Y-129353087D01*
X132851184Y-129353083D01*
X132851183Y-129353077D01*
X132715054Y-128979067D01*
X132715049Y-128979058D01*
X132715048Y-128979053D01*
X132546856Y-128618362D01*
X132546843Y-128618338D01*
X132534348Y-128596697D01*
X132347840Y-128273655D01*
X132119549Y-127947622D01*
X132119548Y-127947621D01*
X132119544Y-127947615D01*
X131954752Y-127751225D01*
X131863711Y-127642726D01*
X131582274Y-127361289D01*
X131509485Y-127300212D01*
X131277384Y-127105455D01*
X130951351Y-126877164D01*
X130951348Y-126877162D01*
X130951345Y-126877160D01*
X130848936Y-126818034D01*
X130606661Y-126678156D01*
X130606637Y-126678143D01*
X130245946Y-126509951D01*
X130245935Y-126509947D01*
X130245933Y-126509946D01*
X129871923Y-126373817D01*
X129871922Y-126373816D01*
X129871912Y-126373813D01*
X129726821Y-126334937D01*
X129487479Y-126270806D01*
X129487482Y-126270806D01*
X129487472Y-126270804D01*
X129432130Y-126261045D01*
X129189196Y-126218209D01*
X135549500Y-126218209D01*
X135549500Y-126581790D01*
X135585137Y-126943630D01*
X135656064Y-127300212D01*
X135656067Y-127300223D01*
X135656069Y-127300232D01*
X135656070Y-127300233D01*
X135761614Y-127648164D01*
X135885650Y-127947615D01*
X135900754Y-127984078D01*
X135900756Y-127984083D01*
X136072140Y-128304720D01*
X136072151Y-128304738D01*
X136274140Y-128607035D01*
X136274150Y-128607049D01*
X136504807Y-128888106D01*
X136761893Y-129145192D01*
X136761898Y-129145196D01*
X136761899Y-129145197D01*
X137042956Y-129375854D01*
X137345268Y-129577853D01*
X137345277Y-129577858D01*
X137345279Y-129577859D01*
X137665916Y-129749243D01*
X137665918Y-129749243D01*
X137665924Y-129749247D01*
X138001836Y-129888386D01*
X138349767Y-129993930D01*
X138349773Y-129993931D01*
X138349776Y-129993932D01*
X138349787Y-129993935D01*
X138706369Y-130064862D01*
X139068206Y-130100500D01*
X139068209Y-130100500D01*
X139431791Y-130100500D01*
X139431794Y-130100500D01*
X139793631Y-130064862D01*
X139863045Y-130051054D01*
X140150212Y-129993935D01*
X140150223Y-129993932D01*
X140150223Y-129993931D01*
X140150233Y-129993930D01*
X140498164Y-129888386D01*
X140834076Y-129749247D01*
X141154732Y-129577853D01*
X141457044Y-129375854D01*
X141738101Y-129145197D01*
X141995197Y-128888101D01*
X142225854Y-128607044D01*
X142427853Y-128304732D01*
X142599247Y-127984076D01*
X142738386Y-127648164D01*
X142843930Y-127300233D01*
X142843932Y-127300223D01*
X142843935Y-127300212D01*
X142914862Y-126943630D01*
X142950500Y-126581790D01*
X142950500Y-126218209D01*
X142945456Y-126167000D01*
X142914862Y-125856369D01*
X142843935Y-125499787D01*
X142843932Y-125499776D01*
X142843931Y-125499773D01*
X142843930Y-125499767D01*
X142738386Y-125151836D01*
X142599247Y-124815924D01*
X142427853Y-124495268D01*
X142225854Y-124192956D01*
X141995197Y-123911899D01*
X141995196Y-123911898D01*
X141995192Y-123911893D01*
X141738106Y-123654807D01*
X141457049Y-123424150D01*
X141457048Y-123424149D01*
X141457044Y-123424146D01*
X141154732Y-123222147D01*
X141154727Y-123222144D01*
X141154720Y-123222140D01*
X140834083Y-123050756D01*
X140834078Y-123050754D01*
X140498165Y-122911614D01*
X140150223Y-122806067D01*
X140150212Y-122806064D01*
X139793630Y-122735137D01*
X139521111Y-122708296D01*
X139431794Y-122699500D01*
X139068206Y-122699500D01*
X138985679Y-122707628D01*
X138706369Y-122735137D01*
X138349787Y-122806064D01*
X138349776Y-122806067D01*
X138001834Y-122911614D01*
X137665921Y-123050754D01*
X137665916Y-123050756D01*
X137345279Y-123222140D01*
X137345261Y-123222151D01*
X137042964Y-123424140D01*
X137042950Y-123424150D01*
X136761893Y-123654807D01*
X136504807Y-123911893D01*
X136274150Y-124192950D01*
X136274140Y-124192964D01*
X136072151Y-124495261D01*
X136072140Y-124495279D01*
X135900756Y-124815916D01*
X135900754Y-124815921D01*
X135761614Y-125151834D01*
X135656067Y-125499776D01*
X135656064Y-125499787D01*
X135585137Y-125856369D01*
X135549500Y-126218209D01*
X129189196Y-126218209D01*
X129095507Y-126201689D01*
X128699010Y-126167000D01*
X128699007Y-126167000D01*
X128300993Y-126167000D01*
X128300989Y-126167000D01*
X127904492Y-126201689D01*
X127512533Y-126270803D01*
X127512530Y-126270803D01*
X127512528Y-126270804D01*
X127512523Y-126270805D01*
X127512520Y-126270806D01*
X127128087Y-126373813D01*
X126754053Y-126509951D01*
X126393362Y-126678143D01*
X126393338Y-126678156D01*
X126048663Y-126877155D01*
X126048648Y-126877164D01*
X125722615Y-127105455D01*
X125417723Y-127361291D01*
X125136291Y-127642723D01*
X124880455Y-127947615D01*
X124652164Y-128273648D01*
X124652155Y-128273663D01*
X124453156Y-128618338D01*
X124453143Y-128618362D01*
X124284951Y-128979053D01*
X124148813Y-129353087D01*
X124045806Y-129737520D01*
X124045803Y-129737533D01*
X123976689Y-130129492D01*
X123942000Y-130525989D01*
X109709290Y-130525989D01*
X109707049Y-130524150D01*
X109707048Y-130524149D01*
X109707044Y-130524146D01*
X109404732Y-130322147D01*
X109404727Y-130322144D01*
X109404720Y-130322140D01*
X109084083Y-130150756D01*
X109084078Y-130150754D01*
X109032754Y-130129495D01*
X108962754Y-130100500D01*
X108748165Y-130011614D01*
X108400223Y-129906067D01*
X108400212Y-129906064D01*
X108043630Y-129835137D01*
X107771111Y-129808296D01*
X107681794Y-129799500D01*
X107318206Y-129799500D01*
X107235679Y-129807628D01*
X106956369Y-129835137D01*
X106599787Y-129906064D01*
X106599776Y-129906067D01*
X106251834Y-130011614D01*
X105915921Y-130150754D01*
X105915916Y-130150756D01*
X105595279Y-130322140D01*
X105595261Y-130322151D01*
X105292964Y-130524140D01*
X105292950Y-130524150D01*
X105011893Y-130754807D01*
X104754807Y-131011893D01*
X104524150Y-131292950D01*
X104524139Y-131292964D01*
X104477602Y-131362613D01*
X104423989Y-131407418D01*
X104354664Y-131416125D01*
X104291637Y-131385970D01*
X104254918Y-131326527D01*
X104250500Y-131293722D01*
X104250500Y-115505435D01*
X113779500Y-115505435D01*
X113779500Y-115754565D01*
X113812018Y-116001565D01*
X113876498Y-116242207D01*
X113971830Y-116472361D01*
X113971837Y-116472376D01*
X114096400Y-116688126D01*
X114248060Y-116885774D01*
X114248066Y-116885781D01*
X114424218Y-117061933D01*
X114424225Y-117061939D01*
X114621873Y-117213599D01*
X114837623Y-117338162D01*
X114837638Y-117338169D01*
X114936825Y-117379253D01*
X115067793Y-117433502D01*
X115308435Y-117497982D01*
X115555435Y-117530500D01*
X115555442Y-117530500D01*
X115804558Y-117530500D01*
X115804565Y-117530500D01*
X116051565Y-117497982D01*
X116292207Y-117433502D01*
X116522373Y-117338164D01*
X116738127Y-117213599D01*
X116935776Y-117061938D01*
X117111938Y-116885776D01*
X117263599Y-116688127D01*
X117388164Y-116472373D01*
X117483502Y-116242207D01*
X117547982Y-116001565D01*
X117580500Y-115754565D01*
X117580500Y-115505435D01*
X117547982Y-115258435D01*
X117483502Y-115017793D01*
X117388164Y-114787627D01*
X117263599Y-114571873D01*
X117111938Y-114374224D01*
X117111933Y-114374218D01*
X116935781Y-114198066D01*
X116935774Y-114198060D01*
X116738126Y-114046400D01*
X116522376Y-113921837D01*
X116522361Y-113921830D01*
X116292207Y-113826498D01*
X116197021Y-113800993D01*
X116051565Y-113762018D01*
X116051564Y-113762017D01*
X116051561Y-113762017D01*
X115804575Y-113729501D01*
X115804570Y-113729500D01*
X115804565Y-113729500D01*
X115555435Y-113729500D01*
X115555429Y-113729500D01*
X115555424Y-113729501D01*
X115308438Y-113762017D01*
X115067792Y-113826498D01*
X114837638Y-113921830D01*
X114837623Y-113921837D01*
X114621873Y-114046400D01*
X114424225Y-114198060D01*
X114424218Y-114198066D01*
X114248066Y-114374218D01*
X114248060Y-114374225D01*
X114096400Y-114571873D01*
X113971837Y-114787623D01*
X113971830Y-114787638D01*
X113876498Y-115017792D01*
X113812017Y-115258438D01*
X113779501Y-115505424D01*
X113779500Y-115505435D01*
X104250500Y-115505435D01*
X104250500Y-112231153D01*
X123129500Y-112231153D01*
X123129500Y-112388846D01*
X123160261Y-112543489D01*
X123160264Y-112543501D01*
X123220602Y-112689172D01*
X123220609Y-112689185D01*
X123308210Y-112820288D01*
X123308213Y-112820292D01*
X123419707Y-112931786D01*
X123419711Y-112931789D01*
X123550814Y-113019390D01*
X123550827Y-113019397D01*
X123696498Y-113079735D01*
X123696503Y-113079737D01*
X123761147Y-113092595D01*
X123851849Y-113110638D01*
X123913760Y-113143023D01*
X123915339Y-113144574D01*
X126045139Y-115274374D01*
X126045149Y-115274385D01*
X126049479Y-115278715D01*
X126049480Y-115278716D01*
X126161284Y-115390520D01*
X126212845Y-115420288D01*
X126248095Y-115440639D01*
X126248097Y-115440641D01*
X126298213Y-115469576D01*
X126298215Y-115469577D01*
X126450942Y-115510500D01*
X126450943Y-115510500D01*
X133170234Y-115510500D01*
X133237273Y-115530185D01*
X133239125Y-115531398D01*
X133370814Y-115619390D01*
X133370827Y-115619397D01*
X133516498Y-115679735D01*
X133516503Y-115679737D01*
X133671153Y-115710499D01*
X133671156Y-115710500D01*
X133671158Y-115710500D01*
X133828844Y-115710500D01*
X133828845Y-115710499D01*
X133983497Y-115679737D01*
X134129179Y-115619394D01*
X134260289Y-115531789D01*
X134371789Y-115420289D01*
X134459394Y-115289179D01*
X134519737Y-115143497D01*
X134550500Y-114988842D01*
X134550500Y-114831158D01*
X134550500Y-114831155D01*
X134550499Y-114831153D01*
X134519738Y-114676510D01*
X134519737Y-114676503D01*
X134486187Y-114595505D01*
X134459397Y-114530827D01*
X134459390Y-114530814D01*
X134371789Y-114399711D01*
X134371786Y-114399707D01*
X134260292Y-114288213D01*
X134260288Y-114288210D01*
X134129185Y-114200609D01*
X134129172Y-114200602D01*
X133983501Y-114140264D01*
X133983489Y-114140261D01*
X133828845Y-114109500D01*
X133828842Y-114109500D01*
X133671158Y-114109500D01*
X133671155Y-114109500D01*
X133516510Y-114140261D01*
X133516498Y-114140264D01*
X133370827Y-114200602D01*
X133370814Y-114200609D01*
X133239125Y-114288602D01*
X133172447Y-114309480D01*
X133170234Y-114309500D01*
X126830097Y-114309500D01*
X126763058Y-114289815D01*
X126742416Y-114273181D01*
X124764574Y-112295339D01*
X124731089Y-112234016D01*
X124730638Y-112231849D01*
X124699738Y-112076510D01*
X124699737Y-112076503D01*
X124699735Y-112076498D01*
X124639397Y-111930827D01*
X124639390Y-111930814D01*
X124551789Y-111799711D01*
X124551786Y-111799707D01*
X124440292Y-111688213D01*
X124440288Y-111688210D01*
X124309185Y-111600609D01*
X124309172Y-111600602D01*
X124163501Y-111540264D01*
X124163489Y-111540261D01*
X124008845Y-111509500D01*
X124008842Y-111509500D01*
X123851158Y-111509500D01*
X123851155Y-111509500D01*
X123696510Y-111540261D01*
X123696498Y-111540264D01*
X123550827Y-111600602D01*
X123550814Y-111600609D01*
X123419711Y-111688210D01*
X123419707Y-111688213D01*
X123308213Y-111799707D01*
X123308210Y-111799711D01*
X123220609Y-111930814D01*
X123220602Y-111930827D01*
X123160264Y-112076498D01*
X123160261Y-112076510D01*
X123129500Y-112231153D01*
X104250500Y-112231153D01*
X104250500Y-99778872D01*
X110929500Y-99778872D01*
X110929500Y-100041127D01*
X110935075Y-100083469D01*
X110963730Y-100301116D01*
X111028231Y-100541837D01*
X111031602Y-100554418D01*
X111031605Y-100554428D01*
X111131953Y-100796690D01*
X111131958Y-100796700D01*
X111263075Y-101023803D01*
X111422718Y-101231851D01*
X111422726Y-101231860D01*
X111608140Y-101417274D01*
X111608148Y-101417281D01*
X111816196Y-101576924D01*
X112043299Y-101708041D01*
X112043309Y-101708046D01*
X112285571Y-101808394D01*
X112285581Y-101808398D01*
X112538884Y-101876270D01*
X112798880Y-101910500D01*
X112798887Y-101910500D01*
X113061113Y-101910500D01*
X113061120Y-101910500D01*
X113321116Y-101876270D01*
X113574419Y-101808398D01*
X113816697Y-101708043D01*
X114043803Y-101576924D01*
X114251851Y-101417282D01*
X114251855Y-101417277D01*
X114251860Y-101417274D01*
X114437274Y-101231860D01*
X114437277Y-101231855D01*
X114437282Y-101231851D01*
X114596924Y-101023803D01*
X114728043Y-100796697D01*
X114828398Y-100554419D01*
X114896270Y-100301116D01*
X114907406Y-100216533D01*
X143974499Y-100216533D01*
X144000458Y-100347030D01*
X144000461Y-100347040D01*
X144051376Y-100469961D01*
X144051386Y-100469979D01*
X144125301Y-100580601D01*
X144125307Y-100580609D01*
X144219390Y-100674692D01*
X144219398Y-100674698D01*
X144330020Y-100748613D01*
X144330023Y-100748614D01*
X144330031Y-100748620D01*
X144330037Y-100748622D01*
X144330038Y-100748623D01*
X144452959Y-100799538D01*
X144452964Y-100799540D01*
X144452968Y-100799540D01*
X144452969Y-100799541D01*
X144583466Y-100825500D01*
X144583469Y-100825500D01*
X144716533Y-100825500D01*
X144804325Y-100808035D01*
X144847036Y-100799540D01*
X144969969Y-100748620D01*
X145080606Y-100674695D01*
X145174695Y-100580606D01*
X145248620Y-100469969D01*
X145299540Y-100347036D01*
X145325500Y-100216531D01*
X145325500Y-100083469D01*
X145325500Y-100083466D01*
X145299541Y-99952969D01*
X145299540Y-99952968D01*
X145299540Y-99952964D01*
X145248620Y-99830031D01*
X145230893Y-99803501D01*
X145174698Y-99719398D01*
X145174692Y-99719390D01*
X145080609Y-99625307D01*
X145080601Y-99625301D01*
X144969979Y-99551386D01*
X144969972Y-99551382D01*
X144969969Y-99551380D01*
X144969965Y-99551378D01*
X144969961Y-99551376D01*
X144847040Y-99500461D01*
X144847030Y-99500458D01*
X144716533Y-99474500D01*
X144716531Y-99474500D01*
X144583469Y-99474500D01*
X144583467Y-99474500D01*
X144452969Y-99500458D01*
X144452959Y-99500461D01*
X144330038Y-99551376D01*
X144330020Y-99551386D01*
X144219398Y-99625301D01*
X144219390Y-99625307D01*
X144125307Y-99719390D01*
X144125301Y-99719398D01*
X144051386Y-99830020D01*
X144051376Y-99830038D01*
X144000461Y-99952959D01*
X144000458Y-99952969D01*
X143974500Y-100083466D01*
X143974500Y-100083469D01*
X143974500Y-100216531D01*
X143974500Y-100216533D01*
X143974499Y-100216533D01*
X114907406Y-100216533D01*
X114930500Y-100041120D01*
X114930500Y-99778880D01*
X114896270Y-99518884D01*
X114828398Y-99265581D01*
X114742468Y-99058127D01*
X114728046Y-99023309D01*
X114728041Y-99023299D01*
X114596924Y-98796196D01*
X114437281Y-98588148D01*
X114437274Y-98588140D01*
X114251860Y-98402726D01*
X114251851Y-98402718D01*
X114043803Y-98243075D01*
X113816700Y-98111958D01*
X113816690Y-98111953D01*
X113617936Y-98029627D01*
X113574428Y-98011605D01*
X113574421Y-98011603D01*
X113574419Y-98011602D01*
X113321116Y-97943730D01*
X113263339Y-97936123D01*
X113149636Y-97921153D01*
X152749500Y-97921153D01*
X152749500Y-98078846D01*
X152780261Y-98233489D01*
X152780264Y-98233501D01*
X152840602Y-98379172D01*
X152840606Y-98379179D01*
X152878602Y-98436044D01*
X152899480Y-98502721D01*
X152899500Y-98504935D01*
X152899500Y-120413330D01*
X152899499Y-120413348D01*
X152899499Y-120579054D01*
X152899498Y-120579054D01*
X152940423Y-120731785D01*
X152969358Y-120781900D01*
X152969359Y-120781904D01*
X152969360Y-120781904D01*
X153019479Y-120868714D01*
X153019481Y-120868717D01*
X153138349Y-120987585D01*
X153138355Y-120987590D01*
X166666241Y-134515477D01*
X166699726Y-134576800D01*
X166696491Y-134641475D01*
X166682755Y-134683748D01*
X166682754Y-134683755D01*
X166649500Y-134893713D01*
X166649500Y-135106286D01*
X166682753Y-135316239D01*
X166748444Y-135518414D01*
X166844951Y-135707820D01*
X166969890Y-135879786D01*
X167120213Y-136030109D01*
X167292179Y-136155048D01*
X167292181Y-136155049D01*
X167292184Y-136155051D01*
X167481588Y-136251557D01*
X167683757Y-136317246D01*
X167893713Y-136350500D01*
X167893714Y-136350500D01*
X168106286Y-136350500D01*
X168106287Y-136350500D01*
X168316243Y-136317246D01*
X168518412Y-136251557D01*
X168707816Y-136155051D01*
X168879792Y-136030104D01*
X168993329Y-135916566D01*
X169054648Y-135883084D01*
X169124340Y-135888068D01*
X169180274Y-135929939D01*
X169197189Y-135960917D01*
X169246202Y-136092328D01*
X169246206Y-136092335D01*
X169332452Y-136207544D01*
X169332455Y-136207547D01*
X169447664Y-136293793D01*
X169447671Y-136293797D01*
X169582517Y-136344091D01*
X169582516Y-136344091D01*
X169589444Y-136344835D01*
X169642127Y-136350500D01*
X171437872Y-136350499D01*
X171497483Y-136344091D01*
X171632331Y-136293796D01*
X171747546Y-136207546D01*
X171833796Y-136092331D01*
X171884091Y-135957483D01*
X171890500Y-135897873D01*
X171890499Y-134102128D01*
X171884091Y-134042517D01*
X171882810Y-134039083D01*
X171833797Y-133907671D01*
X171833793Y-133907664D01*
X171747547Y-133792455D01*
X171747544Y-133792452D01*
X171632335Y-133706206D01*
X171632328Y-133706202D01*
X171497482Y-133655908D01*
X171497483Y-133655908D01*
X171437883Y-133649501D01*
X171437881Y-133649500D01*
X171437873Y-133649500D01*
X171437864Y-133649500D01*
X169642129Y-133649500D01*
X169642123Y-133649501D01*
X169582516Y-133655908D01*
X169447671Y-133706202D01*
X169447664Y-133706206D01*
X169332455Y-133792452D01*
X169332452Y-133792455D01*
X169246206Y-133907664D01*
X169246203Y-133907669D01*
X169197189Y-134039083D01*
X169155317Y-134095016D01*
X169089853Y-134119433D01*
X169021580Y-134104581D01*
X168993326Y-134083430D01*
X168879786Y-133969890D01*
X168707820Y-133844951D01*
X168518414Y-133748444D01*
X168518413Y-133748443D01*
X168518412Y-133748443D01*
X168316243Y-133682754D01*
X168316241Y-133682753D01*
X168316240Y-133682753D01*
X168154957Y-133657208D01*
X168106287Y-133649500D01*
X167893713Y-133649500D01*
X167823727Y-133660584D01*
X167683755Y-133682754D01*
X167683748Y-133682755D01*
X167641475Y-133696491D01*
X167571634Y-133698486D01*
X167515477Y-133666241D01*
X160067445Y-126218209D01*
X166549500Y-126218209D01*
X166549500Y-126581790D01*
X166585137Y-126943630D01*
X166656064Y-127300212D01*
X166656067Y-127300223D01*
X166656069Y-127300232D01*
X166656070Y-127300233D01*
X166761614Y-127648164D01*
X166885650Y-127947615D01*
X166900754Y-127984078D01*
X166900756Y-127984083D01*
X167072140Y-128304720D01*
X167072151Y-128304738D01*
X167274140Y-128607035D01*
X167274150Y-128607049D01*
X167504807Y-128888106D01*
X167761893Y-129145192D01*
X167761898Y-129145196D01*
X167761899Y-129145197D01*
X168042956Y-129375854D01*
X168345268Y-129577853D01*
X168345277Y-129577858D01*
X168345279Y-129577859D01*
X168665916Y-129749243D01*
X168665918Y-129749243D01*
X168665924Y-129749247D01*
X169001836Y-129888386D01*
X169349767Y-129993930D01*
X169349773Y-129993931D01*
X169349776Y-129993932D01*
X169349787Y-129993935D01*
X169706369Y-130064862D01*
X170068206Y-130100500D01*
X170068209Y-130100500D01*
X170431791Y-130100500D01*
X170431794Y-130100500D01*
X170793631Y-130064862D01*
X170863045Y-130051054D01*
X171150212Y-129993935D01*
X171150223Y-129993932D01*
X171150223Y-129993931D01*
X171150233Y-129993930D01*
X171498164Y-129888386D01*
X171834076Y-129749247D01*
X172154732Y-129577853D01*
X172457044Y-129375854D01*
X172738101Y-129145197D01*
X172995197Y-128888101D01*
X173225854Y-128607044D01*
X173427853Y-128304732D01*
X173599247Y-127984076D01*
X173738386Y-127648164D01*
X173843930Y-127300233D01*
X173843932Y-127300223D01*
X173843935Y-127300212D01*
X173914862Y-126943630D01*
X173950500Y-126581790D01*
X173950500Y-126218209D01*
X173945456Y-126167000D01*
X173914862Y-125856369D01*
X173843935Y-125499787D01*
X173843932Y-125499776D01*
X173843931Y-125499773D01*
X173843930Y-125499767D01*
X173738386Y-125151836D01*
X173599247Y-124815924D01*
X173427853Y-124495268D01*
X173225854Y-124192956D01*
X172995197Y-123911899D01*
X172995196Y-123911898D01*
X172995192Y-123911893D01*
X172738106Y-123654807D01*
X172457049Y-123424150D01*
X172457048Y-123424149D01*
X172457044Y-123424146D01*
X172154732Y-123222147D01*
X172154727Y-123222144D01*
X172154720Y-123222140D01*
X171834083Y-123050756D01*
X171834078Y-123050754D01*
X171498165Y-122911614D01*
X171150223Y-122806067D01*
X171150212Y-122806064D01*
X170793630Y-122735137D01*
X170521111Y-122708296D01*
X170431794Y-122699500D01*
X170068206Y-122699500D01*
X169985679Y-122707628D01*
X169706369Y-122735137D01*
X169349787Y-122806064D01*
X169349776Y-122806067D01*
X169001834Y-122911614D01*
X168665921Y-123050754D01*
X168665916Y-123050756D01*
X168345279Y-123222140D01*
X168345261Y-123222151D01*
X168042964Y-123424140D01*
X168042950Y-123424150D01*
X167761893Y-123654807D01*
X167504807Y-123911893D01*
X167274150Y-124192950D01*
X167274140Y-124192964D01*
X167072151Y-124495261D01*
X167072140Y-124495279D01*
X166900756Y-124815916D01*
X166900754Y-124815921D01*
X166761614Y-125151834D01*
X166656067Y-125499776D01*
X166656064Y-125499787D01*
X166585137Y-125856369D01*
X166549500Y-126218209D01*
X160067445Y-126218209D01*
X154136819Y-120287583D01*
X154103334Y-120226260D01*
X154100500Y-120199902D01*
X154100500Y-113800989D01*
X175752000Y-113800989D01*
X175752000Y-114199010D01*
X175786689Y-114595507D01*
X175855803Y-114987466D01*
X175855806Y-114987479D01*
X175958813Y-115371912D01*
X175958816Y-115371922D01*
X175958817Y-115371923D01*
X176082049Y-115710500D01*
X176094951Y-115745946D01*
X176263143Y-116106637D01*
X176263156Y-116106661D01*
X176462155Y-116451336D01*
X176462164Y-116451351D01*
X176690455Y-116777384D01*
X176885594Y-117009941D01*
X176946289Y-117082274D01*
X177227726Y-117363711D01*
X177310899Y-117433501D01*
X177532615Y-117619544D01*
X177532621Y-117619548D01*
X177532622Y-117619549D01*
X177858655Y-117847840D01*
X178181697Y-118034348D01*
X178203338Y-118046843D01*
X178203362Y-118046856D01*
X178564053Y-118215048D01*
X178564058Y-118215049D01*
X178564067Y-118215054D01*
X178938077Y-118351183D01*
X178938083Y-118351184D01*
X178938087Y-118351186D01*
X179042780Y-118379238D01*
X179322528Y-118454196D01*
X179714495Y-118523311D01*
X180110991Y-118557999D01*
X180110992Y-118558000D01*
X180110993Y-118558000D01*
X180509008Y-118558000D01*
X180509008Y-118557999D01*
X180905505Y-118523311D01*
X181297472Y-118454196D01*
X181681923Y-118351183D01*
X182055933Y-118215054D01*
X182055946Y-118215048D01*
X182416637Y-118046856D01*
X182416645Y-118046851D01*
X182416655Y-118046847D01*
X182761345Y-117847840D01*
X183087378Y-117619549D01*
X183392274Y-117363711D01*
X183673711Y-117082274D01*
X183929549Y-116777378D01*
X184157840Y-116451345D01*
X184356847Y-116106655D01*
X184356851Y-116106645D01*
X184356856Y-116106637D01*
X184525048Y-115745946D01*
X184525048Y-115745945D01*
X184525054Y-115745933D01*
X184661183Y-115371923D01*
X184764196Y-114987472D01*
X184833311Y-114595505D01*
X184868000Y-114199007D01*
X184868000Y-113800993D01*
X184833311Y-113404495D01*
X184764196Y-113012528D01*
X184661183Y-112628077D01*
X184525054Y-112254067D01*
X184525049Y-112254058D01*
X184525048Y-112254053D01*
X184356856Y-111893362D01*
X184356843Y-111893338D01*
X184238414Y-111688213D01*
X184157840Y-111548655D01*
X183929549Y-111222622D01*
X183929548Y-111222621D01*
X183929544Y-111222615D01*
X183673708Y-110917723D01*
X183392276Y-110636291D01*
X183087384Y-110380455D01*
X182761351Y-110152164D01*
X182761348Y-110152162D01*
X182761345Y-110152160D01*
X182658936Y-110093034D01*
X182416661Y-109953156D01*
X182416637Y-109953143D01*
X182055946Y-109784951D01*
X182055935Y-109784947D01*
X182055933Y-109784946D01*
X181681923Y-109648817D01*
X181681922Y-109648816D01*
X181681912Y-109648813D01*
X181297479Y-109545806D01*
X181297482Y-109545806D01*
X181297472Y-109545804D01*
X181242130Y-109536045D01*
X180905507Y-109476689D01*
X180509010Y-109442000D01*
X180509007Y-109442000D01*
X180110993Y-109442000D01*
X180110989Y-109442000D01*
X179714492Y-109476689D01*
X179322533Y-109545803D01*
X179322530Y-109545803D01*
X179322528Y-109545804D01*
X179322523Y-109545805D01*
X179322520Y-109545806D01*
X178938087Y-109648813D01*
X178564053Y-109784951D01*
X178203362Y-109953143D01*
X178203338Y-109953156D01*
X177858663Y-110152155D01*
X177858648Y-110152164D01*
X177532615Y-110380455D01*
X177227723Y-110636291D01*
X176946291Y-110917723D01*
X176690455Y-111222615D01*
X176462164Y-111548648D01*
X176462155Y-111548663D01*
X176263156Y-111893338D01*
X176263143Y-111893362D01*
X176094951Y-112254053D01*
X175958813Y-112628087D01*
X175855806Y-113012520D01*
X175855803Y-113012533D01*
X175786689Y-113404492D01*
X175752000Y-113800989D01*
X154100500Y-113800989D01*
X154100500Y-106375441D01*
X174849500Y-106375441D01*
X174849500Y-106624558D01*
X174849501Y-106624575D01*
X174882017Y-106871561D01*
X174946498Y-107112207D01*
X175041830Y-107342361D01*
X175041837Y-107342376D01*
X175166400Y-107558126D01*
X175318060Y-107755774D01*
X175318066Y-107755781D01*
X175494218Y-107931933D01*
X175494225Y-107931939D01*
X175691873Y-108083599D01*
X175907623Y-108208162D01*
X175907638Y-108208169D01*
X176006825Y-108249253D01*
X176137793Y-108303502D01*
X176378435Y-108367982D01*
X176625435Y-108400500D01*
X176625442Y-108400500D01*
X176874558Y-108400500D01*
X176874565Y-108400500D01*
X177121565Y-108367982D01*
X177362207Y-108303502D01*
X177592373Y-108208164D01*
X177808127Y-108083599D01*
X178005776Y-107931938D01*
X178181938Y-107755776D01*
X178333599Y-107558127D01*
X178458164Y-107342373D01*
X178553502Y-107112207D01*
X178617982Y-106871565D01*
X178650500Y-106624565D01*
X178650500Y-106375441D01*
X180599500Y-106375441D01*
X180599500Y-106624558D01*
X180599501Y-106624575D01*
X180632017Y-106871561D01*
X180696498Y-107112207D01*
X180791830Y-107342361D01*
X180791837Y-107342376D01*
X180916400Y-107558126D01*
X181068060Y-107755774D01*
X181068066Y-107755781D01*
X181244218Y-107931933D01*
X181244225Y-107931939D01*
X181441873Y-108083599D01*
X181657623Y-108208162D01*
X181657638Y-108208169D01*
X181756825Y-108249253D01*
X181887793Y-108303502D01*
X182128435Y-108367982D01*
X182375435Y-108400500D01*
X182375442Y-108400500D01*
X182624558Y-108400500D01*
X182624565Y-108400500D01*
X182871565Y-108367982D01*
X183112207Y-108303502D01*
X183342373Y-108208164D01*
X183558127Y-108083599D01*
X183755776Y-107931938D01*
X183931938Y-107755776D01*
X184083599Y-107558127D01*
X184208164Y-107342373D01*
X184303502Y-107112207D01*
X184367982Y-106871565D01*
X184400500Y-106624565D01*
X184400500Y-106375435D01*
X184367982Y-106128435D01*
X184303502Y-105887793D01*
X184208164Y-105657627D01*
X184083599Y-105441873D01*
X183931938Y-105244224D01*
X183931933Y-105244218D01*
X183755781Y-105068066D01*
X183755774Y-105068060D01*
X183558126Y-104916400D01*
X183342376Y-104791837D01*
X183342361Y-104791830D01*
X183112207Y-104696498D01*
X182871561Y-104632017D01*
X182624575Y-104599501D01*
X182624570Y-104599500D01*
X182624565Y-104599500D01*
X182375435Y-104599500D01*
X182375429Y-104599500D01*
X182375424Y-104599501D01*
X182128438Y-104632017D01*
X181887792Y-104696498D01*
X181657638Y-104791830D01*
X181657623Y-104791837D01*
X181441873Y-104916400D01*
X181244225Y-105068060D01*
X181244218Y-105068066D01*
X181068066Y-105244218D01*
X181068060Y-105244225D01*
X180916400Y-105441873D01*
X180791837Y-105657623D01*
X180791830Y-105657638D01*
X180696498Y-105887792D01*
X180632017Y-106128438D01*
X180599501Y-106375424D01*
X180599500Y-106375441D01*
X178650500Y-106375441D01*
X178650500Y-106375435D01*
X178617982Y-106128435D01*
X178553502Y-105887793D01*
X178458164Y-105657627D01*
X178333599Y-105441873D01*
X178181938Y-105244224D01*
X178181933Y-105244218D01*
X178005781Y-105068066D01*
X178005774Y-105068060D01*
X177808126Y-104916400D01*
X177592376Y-104791837D01*
X177592361Y-104791830D01*
X177362207Y-104696498D01*
X177121561Y-104632017D01*
X176874575Y-104599501D01*
X176874570Y-104599500D01*
X176874565Y-104599500D01*
X176625435Y-104599500D01*
X176625429Y-104599500D01*
X176625424Y-104599501D01*
X176378438Y-104632017D01*
X176137792Y-104696498D01*
X175907638Y-104791830D01*
X175907623Y-104791837D01*
X175691873Y-104916400D01*
X175494225Y-105068060D01*
X175494218Y-105068066D01*
X175318066Y-105244218D01*
X175318060Y-105244225D01*
X175166400Y-105441873D01*
X175041837Y-105657623D01*
X175041830Y-105657638D01*
X174946498Y-105887792D01*
X174882017Y-106128438D01*
X174849501Y-106375424D01*
X174849500Y-106375441D01*
X154100500Y-106375441D01*
X154100500Y-102125441D01*
X174849500Y-102125441D01*
X174849500Y-102374558D01*
X174849501Y-102374575D01*
X174882017Y-102621561D01*
X174946498Y-102862207D01*
X175041830Y-103092361D01*
X175041837Y-103092376D01*
X175166400Y-103308126D01*
X175318060Y-103505774D01*
X175318066Y-103505781D01*
X175494218Y-103681933D01*
X175494225Y-103681939D01*
X175691873Y-103833599D01*
X175907623Y-103958162D01*
X175907638Y-103958169D01*
X176006825Y-103999253D01*
X176137793Y-104053502D01*
X176378435Y-104117982D01*
X176625435Y-104150500D01*
X176625442Y-104150500D01*
X176874558Y-104150500D01*
X176874565Y-104150500D01*
X177121565Y-104117982D01*
X177362207Y-104053502D01*
X177592373Y-103958164D01*
X177808127Y-103833599D01*
X178005776Y-103681938D01*
X178181938Y-103505776D01*
X178333599Y-103308127D01*
X178458164Y-103092373D01*
X178553502Y-102862207D01*
X178617982Y-102621565D01*
X178650500Y-102374565D01*
X178650500Y-102125435D01*
X178617982Y-101878435D01*
X178553502Y-101637793D01*
X178499253Y-101506825D01*
X178458169Y-101407638D01*
X178458162Y-101407623D01*
X178333599Y-101191873D01*
X178181939Y-100994225D01*
X178181933Y-100994218D01*
X178005781Y-100818066D01*
X178005774Y-100818060D01*
X177808126Y-100666400D01*
X177592376Y-100541837D01*
X177592361Y-100541830D01*
X177362207Y-100446498D01*
X177121561Y-100382017D01*
X176874575Y-100349501D01*
X176874570Y-100349500D01*
X176874565Y-100349500D01*
X176625435Y-100349500D01*
X176625429Y-100349500D01*
X176625424Y-100349501D01*
X176378438Y-100382017D01*
X176137792Y-100446498D01*
X175907638Y-100541830D01*
X175907623Y-100541837D01*
X175691873Y-100666400D01*
X175494225Y-100818060D01*
X175494218Y-100818066D01*
X175318066Y-100994218D01*
X175318060Y-100994225D01*
X175166400Y-101191873D01*
X175041837Y-101407623D01*
X175041830Y-101407638D01*
X174946498Y-101637792D01*
X174882017Y-101878438D01*
X174849501Y-102125424D01*
X174849500Y-102125441D01*
X154100500Y-102125441D01*
X154100500Y-100216533D01*
X154574499Y-100216533D01*
X154600458Y-100347030D01*
X154600461Y-100347040D01*
X154651376Y-100469961D01*
X154651386Y-100469979D01*
X154725301Y-100580601D01*
X154725307Y-100580609D01*
X154819390Y-100674692D01*
X154819398Y-100674698D01*
X154930020Y-100748613D01*
X154930023Y-100748614D01*
X154930031Y-100748620D01*
X154930037Y-100748622D01*
X154930038Y-100748623D01*
X155052959Y-100799538D01*
X155052964Y-100799540D01*
X155052968Y-100799540D01*
X155052969Y-100799541D01*
X155183466Y-100825500D01*
X155183469Y-100825500D01*
X155316533Y-100825500D01*
X155404325Y-100808035D01*
X155447036Y-100799540D01*
X155569969Y-100748620D01*
X155680606Y-100674695D01*
X155774695Y-100580606D01*
X155848620Y-100469969D01*
X155899540Y-100347036D01*
X155925500Y-100216531D01*
X155925500Y-100083469D01*
X155925500Y-100083466D01*
X155899541Y-99952969D01*
X155899540Y-99952968D01*
X155899540Y-99952964D01*
X155848620Y-99830031D01*
X155830893Y-99803501D01*
X155774698Y-99719398D01*
X155774692Y-99719390D01*
X155680609Y-99625307D01*
X155680601Y-99625301D01*
X155569979Y-99551386D01*
X155569972Y-99551382D01*
X155569969Y-99551380D01*
X155569965Y-99551378D01*
X155569961Y-99551376D01*
X155447040Y-99500461D01*
X155447030Y-99500458D01*
X155316533Y-99474500D01*
X155316531Y-99474500D01*
X155183469Y-99474500D01*
X155183467Y-99474500D01*
X155052969Y-99500458D01*
X155052959Y-99500461D01*
X154930038Y-99551376D01*
X154930020Y-99551386D01*
X154819398Y-99625301D01*
X154819390Y-99625307D01*
X154725307Y-99719390D01*
X154725301Y-99719398D01*
X154651386Y-99830020D01*
X154651376Y-99830038D01*
X154600461Y-99952959D01*
X154600458Y-99952969D01*
X154574500Y-100083466D01*
X154574500Y-100083469D01*
X154574500Y-100216531D01*
X154574500Y-100216533D01*
X154574499Y-100216533D01*
X154100500Y-100216533D01*
X154100500Y-98632940D01*
X154120185Y-98565901D01*
X154136820Y-98545258D01*
X154171786Y-98510292D01*
X154171789Y-98510289D01*
X154259394Y-98379179D01*
X154262550Y-98371561D01*
X154315769Y-98243076D01*
X154319737Y-98233497D01*
X154350500Y-98078842D01*
X154350500Y-97921158D01*
X154350500Y-97921155D01*
X154345410Y-97895568D01*
X154345410Y-97895567D01*
X154341407Y-97875441D01*
X174849500Y-97875441D01*
X174849500Y-98124558D01*
X174849501Y-98124575D01*
X174863841Y-98233501D01*
X174882018Y-98371565D01*
X174919189Y-98510288D01*
X174946498Y-98612207D01*
X175041830Y-98842361D01*
X175041837Y-98842376D01*
X175166400Y-99058126D01*
X175318060Y-99255774D01*
X175318066Y-99255781D01*
X175494218Y-99431933D01*
X175494225Y-99431939D01*
X175691873Y-99583599D01*
X175907623Y-99708162D01*
X175907638Y-99708169D01*
X176006825Y-99749253D01*
X176137793Y-99803502D01*
X176378435Y-99867982D01*
X176625435Y-99900500D01*
X176625442Y-99900500D01*
X176874558Y-99900500D01*
X176874565Y-99900500D01*
X177121565Y-99867982D01*
X177362207Y-99803502D01*
X177592373Y-99708164D01*
X177808127Y-99583599D01*
X178005776Y-99431938D01*
X178181938Y-99255776D01*
X178333599Y-99058127D01*
X178458164Y-98842373D01*
X178553502Y-98612207D01*
X178617982Y-98371565D01*
X178650500Y-98124565D01*
X178650500Y-97875435D01*
X178617982Y-97628435D01*
X178553502Y-97387793D01*
X178488250Y-97230261D01*
X178458169Y-97157638D01*
X178458162Y-97157623D01*
X178333599Y-96941873D01*
X178181939Y-96744225D01*
X178181933Y-96744218D01*
X178005781Y-96568066D01*
X178005774Y-96568060D01*
X177808126Y-96416400D01*
X177592376Y-96291837D01*
X177592361Y-96291830D01*
X177362207Y-96196498D01*
X177121561Y-96132017D01*
X176874575Y-96099501D01*
X176874570Y-96099500D01*
X176874565Y-96099500D01*
X176625435Y-96099500D01*
X176625429Y-96099500D01*
X176625424Y-96099501D01*
X176378438Y-96132017D01*
X176137792Y-96196498D01*
X175907638Y-96291830D01*
X175907623Y-96291837D01*
X175691873Y-96416400D01*
X175494225Y-96568060D01*
X175494218Y-96568066D01*
X175318066Y-96744218D01*
X175318060Y-96744225D01*
X175166400Y-96941873D01*
X175041837Y-97157623D01*
X175041830Y-97157638D01*
X174946498Y-97387792D01*
X174882017Y-97628438D01*
X174849501Y-97875424D01*
X174849500Y-97875441D01*
X154341407Y-97875441D01*
X154319738Y-97766510D01*
X154319737Y-97766503D01*
X154319735Y-97766498D01*
X154259397Y-97620827D01*
X154259390Y-97620814D01*
X154171789Y-97489711D01*
X154171786Y-97489707D01*
X154060292Y-97378213D01*
X154060288Y-97378210D01*
X153929185Y-97290609D01*
X153929172Y-97290602D01*
X153783501Y-97230264D01*
X153783489Y-97230261D01*
X153628845Y-97199500D01*
X153628842Y-97199500D01*
X153471158Y-97199500D01*
X153471155Y-97199500D01*
X153316510Y-97230261D01*
X153316498Y-97230264D01*
X153170827Y-97290602D01*
X153170814Y-97290609D01*
X153039711Y-97378210D01*
X153039707Y-97378213D01*
X152928213Y-97489707D01*
X152928210Y-97489711D01*
X152840609Y-97620814D01*
X152840602Y-97620827D01*
X152780264Y-97766498D01*
X152780261Y-97766510D01*
X152749500Y-97921153D01*
X113149636Y-97921153D01*
X113061127Y-97909500D01*
X113061120Y-97909500D01*
X112798880Y-97909500D01*
X112798872Y-97909500D01*
X112567772Y-97939926D01*
X112538884Y-97943730D01*
X112285581Y-98011602D01*
X112285571Y-98011605D01*
X112043309Y-98111953D01*
X112043299Y-98111958D01*
X111816196Y-98243075D01*
X111608148Y-98402718D01*
X111422718Y-98588148D01*
X111263075Y-98796196D01*
X111131958Y-99023299D01*
X111131953Y-99023309D01*
X111031605Y-99265571D01*
X111031602Y-99265581D01*
X110968667Y-99500461D01*
X110963730Y-99518885D01*
X110929500Y-99778872D01*
X104250500Y-99778872D01*
X104250500Y-93315441D01*
X109309500Y-93315441D01*
X109309500Y-93564558D01*
X109309501Y-93564575D01*
X109342017Y-93811561D01*
X109406498Y-94052207D01*
X109501830Y-94282361D01*
X109501837Y-94282376D01*
X109626400Y-94498126D01*
X109778060Y-94695774D01*
X109778066Y-94695781D01*
X109954218Y-94871933D01*
X109954225Y-94871939D01*
X110151873Y-95023599D01*
X110367623Y-95148162D01*
X110367638Y-95148169D01*
X110449167Y-95181939D01*
X110597793Y-95243502D01*
X110838435Y-95307982D01*
X111085435Y-95340500D01*
X111085442Y-95340500D01*
X111334558Y-95340500D01*
X111334565Y-95340500D01*
X111581565Y-95307982D01*
X111822207Y-95243502D01*
X112052373Y-95148164D01*
X112268127Y-95023599D01*
X112465776Y-94871938D01*
X112641938Y-94695776D01*
X112793599Y-94498127D01*
X112918164Y-94282373D01*
X113013502Y-94052207D01*
X113077982Y-93811565D01*
X113110500Y-93564565D01*
X113110500Y-93315435D01*
X113077982Y-93068435D01*
X113013502Y-92827793D01*
X112957202Y-92691873D01*
X112918169Y-92597638D01*
X112918162Y-92597623D01*
X112793599Y-92381873D01*
X112641939Y-92184225D01*
X112641933Y-92184218D01*
X112465781Y-92008066D01*
X112465774Y-92008060D01*
X112268126Y-91856400D01*
X112052376Y-91731837D01*
X112052361Y-91731830D01*
X111822207Y-91636498D01*
X111581561Y-91572017D01*
X111334575Y-91539501D01*
X111334570Y-91539500D01*
X111334565Y-91539500D01*
X111085435Y-91539500D01*
X111085429Y-91539500D01*
X111085424Y-91539501D01*
X110838438Y-91572017D01*
X110597792Y-91636498D01*
X110367638Y-91731830D01*
X110367623Y-91731837D01*
X110151873Y-91856400D01*
X109954225Y-92008060D01*
X109954218Y-92008066D01*
X109778066Y-92184218D01*
X109778060Y-92184225D01*
X109626400Y-92381873D01*
X109501837Y-92597623D01*
X109501830Y-92597638D01*
X109406498Y-92827792D01*
X109342017Y-93068438D01*
X109309501Y-93315424D01*
X109309500Y-93315441D01*
X104250500Y-93315441D01*
X104250500Y-87000441D01*
X113424500Y-87000441D01*
X113424500Y-87249558D01*
X113424501Y-87249575D01*
X113457017Y-87496561D01*
X113521498Y-87737207D01*
X113616830Y-87967361D01*
X113616837Y-87967376D01*
X113741400Y-88183126D01*
X113893060Y-88380774D01*
X113893066Y-88380781D01*
X114069218Y-88556933D01*
X114069225Y-88556939D01*
X114266873Y-88708599D01*
X114482623Y-88833162D01*
X114482638Y-88833169D01*
X114581825Y-88874253D01*
X114712793Y-88928502D01*
X114953435Y-88992982D01*
X115200435Y-89025500D01*
X115200442Y-89025500D01*
X115449558Y-89025500D01*
X115449565Y-89025500D01*
X115672479Y-88996153D01*
X123899500Y-88996153D01*
X123899500Y-89153846D01*
X123930261Y-89308489D01*
X123930264Y-89308501D01*
X123990602Y-89454172D01*
X123990609Y-89454185D01*
X124078210Y-89585288D01*
X124078213Y-89585292D01*
X124189707Y-89696786D01*
X124189711Y-89696789D01*
X124320814Y-89784390D01*
X124320827Y-89784397D01*
X124466498Y-89844735D01*
X124466503Y-89844737D01*
X124531147Y-89857595D01*
X124621849Y-89875638D01*
X124683760Y-89908023D01*
X124685339Y-89909574D01*
X127840139Y-93064374D01*
X127840149Y-93064385D01*
X127844479Y-93068715D01*
X127844480Y-93068716D01*
X127956284Y-93180520D01*
X128007845Y-93210288D01*
X128043095Y-93230639D01*
X128043097Y-93230641D01*
X128081151Y-93252611D01*
X128093215Y-93259577D01*
X128245943Y-93300500D01*
X128404057Y-93300500D01*
X132820234Y-93300500D01*
X132887273Y-93320185D01*
X132889125Y-93321398D01*
X133020814Y-93409390D01*
X133020827Y-93409397D01*
X133166498Y-93469735D01*
X133166503Y-93469737D01*
X133321153Y-93500499D01*
X133321156Y-93500500D01*
X133321158Y-93500500D01*
X133478844Y-93500500D01*
X133478845Y-93500499D01*
X133633497Y-93469737D01*
X133779179Y-93409394D01*
X133910289Y-93321789D01*
X134021789Y-93210289D01*
X134109394Y-93079179D01*
X134169737Y-92933497D01*
X134200500Y-92778842D01*
X134200500Y-92621158D01*
X134200500Y-92621155D01*
X134200499Y-92621153D01*
X134169737Y-92466503D01*
X134169735Y-92466498D01*
X134109397Y-92320827D01*
X134109390Y-92320814D01*
X134021789Y-92189711D01*
X134021786Y-92189707D01*
X133910292Y-92078213D01*
X133910288Y-92078210D01*
X133820429Y-92018168D01*
X133779185Y-91990609D01*
X133779172Y-91990602D01*
X133633501Y-91930264D01*
X133633489Y-91930261D01*
X133587701Y-91921153D01*
X142799500Y-91921153D01*
X142799500Y-92078846D01*
X142830261Y-92233489D01*
X142830264Y-92233501D01*
X142890602Y-92379172D01*
X142890609Y-92379185D01*
X142978210Y-92510288D01*
X142978213Y-92510292D01*
X143089707Y-92621786D01*
X143089711Y-92621789D01*
X143220814Y-92709390D01*
X143220827Y-92709397D01*
X143308230Y-92745599D01*
X143366503Y-92769737D01*
X143381871Y-92772793D01*
X143443782Y-92805177D01*
X143445362Y-92806730D01*
X146419860Y-95781227D01*
X146453345Y-95842550D01*
X146448361Y-95912242D01*
X146446741Y-95916359D01*
X146405261Y-96016503D01*
X146405259Y-96016510D01*
X146374498Y-96171153D01*
X146374498Y-96328846D01*
X146405259Y-96483489D01*
X146405262Y-96483501D01*
X146465600Y-96629172D01*
X146465607Y-96629185D01*
X146553208Y-96760288D01*
X146553211Y-96760292D01*
X146664705Y-96871786D01*
X146664709Y-96871789D01*
X146795812Y-96959390D01*
X146795825Y-96959397D01*
X146941496Y-97019735D01*
X146941501Y-97019737D01*
X147096151Y-97050499D01*
X147096154Y-97050500D01*
X147096156Y-97050500D01*
X147253842Y-97050500D01*
X147253843Y-97050499D01*
X147408495Y-97019737D01*
X147554177Y-96959394D01*
X147685287Y-96871789D01*
X147796787Y-96760289D01*
X147884392Y-96629179D01*
X147944735Y-96483497D01*
X147951763Y-96448161D01*
X147958815Y-96424913D01*
X147971658Y-96393911D01*
X147984601Y-96328846D01*
X148000500Y-96248918D01*
X148000500Y-95476079D01*
X147971659Y-95331092D01*
X147971658Y-95331091D01*
X147971658Y-95331087D01*
X147962088Y-95307982D01*
X147915087Y-95194511D01*
X147915080Y-95194498D01*
X147832952Y-95071585D01*
X147784966Y-95023599D01*
X147728416Y-94967049D01*
X147123574Y-94362207D01*
X146470425Y-93709057D01*
X146386809Y-93625441D01*
X174849500Y-93625441D01*
X174849500Y-93874558D01*
X174849501Y-93874575D01*
X174872886Y-94052207D01*
X174882018Y-94121565D01*
X174925107Y-94282376D01*
X174946498Y-94362207D01*
X175041830Y-94592361D01*
X175041837Y-94592376D01*
X175166400Y-94808126D01*
X175318060Y-95005774D01*
X175318066Y-95005781D01*
X175494218Y-95181933D01*
X175494225Y-95181939D01*
X175691873Y-95333599D01*
X175907623Y-95458162D01*
X175907638Y-95458169D01*
X176006825Y-95499253D01*
X176137793Y-95553502D01*
X176378435Y-95617982D01*
X176625435Y-95650500D01*
X176625442Y-95650500D01*
X176874558Y-95650500D01*
X176874565Y-95650500D01*
X177121565Y-95617982D01*
X177362207Y-95553502D01*
X177592373Y-95458164D01*
X177808127Y-95333599D01*
X178005776Y-95181938D01*
X178181938Y-95005776D01*
X178333599Y-94808127D01*
X178458164Y-94592373D01*
X178553502Y-94362207D01*
X178617982Y-94121565D01*
X178650500Y-93874565D01*
X178650500Y-93625435D01*
X178617982Y-93378435D01*
X178553502Y-93137793D01*
X178499253Y-93006825D01*
X178458169Y-92907638D01*
X178458162Y-92907623D01*
X178333599Y-92691873D01*
X178181939Y-92494225D01*
X178181933Y-92494218D01*
X178005781Y-92318066D01*
X178005774Y-92318060D01*
X177808126Y-92166400D01*
X177592376Y-92041837D01*
X177592361Y-92041830D01*
X177362207Y-91946498D01*
X177267618Y-91921153D01*
X177121565Y-91882018D01*
X177121564Y-91882017D01*
X177121561Y-91882017D01*
X176874575Y-91849501D01*
X176874570Y-91849500D01*
X176874565Y-91849500D01*
X176625435Y-91849500D01*
X176625429Y-91849500D01*
X176625424Y-91849501D01*
X176378438Y-91882017D01*
X176137792Y-91946498D01*
X175907638Y-92041830D01*
X175907623Y-92041837D01*
X175691873Y-92166400D01*
X175494225Y-92318060D01*
X175494218Y-92318066D01*
X175318066Y-92494218D01*
X175318060Y-92494225D01*
X175166400Y-92691873D01*
X175041837Y-92907623D01*
X175041830Y-92907638D01*
X174946498Y-93137792D01*
X174882017Y-93378438D01*
X174849501Y-93625424D01*
X174849500Y-93625441D01*
X146386809Y-93625441D01*
X144178421Y-91417052D01*
X144178414Y-91417046D01*
X144104729Y-91367812D01*
X144104729Y-91367813D01*
X144055495Y-91334916D01*
X144040461Y-91328688D01*
X144019028Y-91317232D01*
X143998478Y-91303501D01*
X143979186Y-91290610D01*
X143979180Y-91290607D01*
X143979179Y-91290606D01*
X143979176Y-91290605D01*
X143979171Y-91290602D01*
X143833501Y-91230264D01*
X143833489Y-91230261D01*
X143678845Y-91199500D01*
X143678842Y-91199500D01*
X143521158Y-91199500D01*
X143521155Y-91199500D01*
X143366510Y-91230261D01*
X143366498Y-91230264D01*
X143220827Y-91290602D01*
X143220814Y-91290609D01*
X143089711Y-91378210D01*
X143089707Y-91378213D01*
X142978213Y-91489707D01*
X142978210Y-91489711D01*
X142890609Y-91620814D01*
X142890602Y-91620827D01*
X142830264Y-91766498D01*
X142830261Y-91766510D01*
X142799500Y-91921153D01*
X133587701Y-91921153D01*
X133478845Y-91899500D01*
X133478842Y-91899500D01*
X133321158Y-91899500D01*
X133321155Y-91899500D01*
X133166510Y-91930261D01*
X133166498Y-91930264D01*
X133020827Y-91990602D01*
X133020814Y-91990609D01*
X132889125Y-92078602D01*
X132822447Y-92099480D01*
X132820234Y-92099500D01*
X128625097Y-92099500D01*
X128558058Y-92079815D01*
X128537416Y-92063181D01*
X125849676Y-89375441D01*
X174849500Y-89375441D01*
X174849500Y-89624558D01*
X174849501Y-89624575D01*
X174882017Y-89871561D01*
X174946498Y-90112207D01*
X175041830Y-90342361D01*
X175041837Y-90342376D01*
X175166400Y-90558126D01*
X175318060Y-90755774D01*
X175318066Y-90755781D01*
X175494218Y-90931933D01*
X175494225Y-90931939D01*
X175691873Y-91083599D01*
X175907623Y-91208162D01*
X175907638Y-91208169D01*
X175960981Y-91230264D01*
X176137793Y-91303502D01*
X176378435Y-91367982D01*
X176625435Y-91400500D01*
X176625442Y-91400500D01*
X176874558Y-91400500D01*
X176874565Y-91400500D01*
X177121565Y-91367982D01*
X177362207Y-91303502D01*
X177592373Y-91208164D01*
X177808127Y-91083599D01*
X178005776Y-90931938D01*
X178181938Y-90755776D01*
X178333599Y-90558127D01*
X178458164Y-90342373D01*
X178553502Y-90112207D01*
X178617982Y-89871565D01*
X178650500Y-89624565D01*
X178650500Y-89375435D01*
X178617982Y-89128435D01*
X178553502Y-88887793D01*
X178499253Y-88756825D01*
X178458169Y-88657638D01*
X178458162Y-88657623D01*
X178333599Y-88441873D01*
X178181939Y-88244225D01*
X178181933Y-88244218D01*
X178005781Y-88068066D01*
X178005774Y-88068060D01*
X177808126Y-87916400D01*
X177592376Y-87791837D01*
X177592361Y-87791830D01*
X177362207Y-87696498D01*
X177121561Y-87632017D01*
X176874575Y-87599501D01*
X176874570Y-87599500D01*
X176874565Y-87599500D01*
X176625435Y-87599500D01*
X176625429Y-87599500D01*
X176625424Y-87599501D01*
X176378438Y-87632017D01*
X176137792Y-87696498D01*
X175907638Y-87791830D01*
X175907623Y-87791837D01*
X175691873Y-87916400D01*
X175494225Y-88068060D01*
X175494218Y-88068066D01*
X175318066Y-88244218D01*
X175318060Y-88244225D01*
X175166400Y-88441873D01*
X175041837Y-88657623D01*
X175041830Y-88657638D01*
X174946498Y-88887792D01*
X174882017Y-89128438D01*
X174849501Y-89375424D01*
X174849500Y-89375441D01*
X125849676Y-89375441D01*
X125534574Y-89060339D01*
X125501089Y-88999016D01*
X125500638Y-88996849D01*
X125478945Y-88887793D01*
X125469737Y-88841503D01*
X125414687Y-88708599D01*
X125409397Y-88695827D01*
X125409390Y-88695814D01*
X125321789Y-88564711D01*
X125321786Y-88564707D01*
X125210292Y-88453213D01*
X125210288Y-88453210D01*
X125079185Y-88365609D01*
X125079172Y-88365602D01*
X124933501Y-88305264D01*
X124933489Y-88305261D01*
X124778845Y-88274500D01*
X124778842Y-88274500D01*
X124621158Y-88274500D01*
X124621155Y-88274500D01*
X124466510Y-88305261D01*
X124466498Y-88305264D01*
X124320827Y-88365602D01*
X124320814Y-88365609D01*
X124189711Y-88453210D01*
X124189707Y-88453213D01*
X124078213Y-88564707D01*
X124078210Y-88564711D01*
X123990609Y-88695814D01*
X123990602Y-88695827D01*
X123930264Y-88841498D01*
X123930261Y-88841510D01*
X123899500Y-88996153D01*
X115672479Y-88996153D01*
X115696565Y-88992982D01*
X115937207Y-88928502D01*
X116167373Y-88833164D01*
X116383127Y-88708599D01*
X116580776Y-88556938D01*
X116756938Y-88380776D01*
X116908599Y-88183127D01*
X117033164Y-87967373D01*
X117128502Y-87737207D01*
X117192982Y-87496565D01*
X117225500Y-87249565D01*
X117225500Y-87000435D01*
X117192982Y-86753435D01*
X117128502Y-86512793D01*
X117074253Y-86381825D01*
X117033169Y-86282638D01*
X117033162Y-86282623D01*
X116908599Y-86066873D01*
X116756939Y-85869225D01*
X116756933Y-85869218D01*
X116580781Y-85693066D01*
X116580774Y-85693060D01*
X116383126Y-85541400D01*
X116167376Y-85416837D01*
X116167361Y-85416830D01*
X115937207Y-85321498D01*
X115696561Y-85257017D01*
X115600076Y-85244315D01*
X115449575Y-85224501D01*
X115449570Y-85224500D01*
X115449565Y-85224500D01*
X115200435Y-85224500D01*
X115200429Y-85224500D01*
X115200424Y-85224501D01*
X114953438Y-85257017D01*
X114712792Y-85321498D01*
X114482638Y-85416830D01*
X114482623Y-85416837D01*
X114266873Y-85541400D01*
X114069225Y-85693060D01*
X114069218Y-85693066D01*
X113893066Y-85869218D01*
X113893060Y-85869225D01*
X113741400Y-86066873D01*
X113616837Y-86282623D01*
X113616830Y-86282638D01*
X113521498Y-86512792D01*
X113457017Y-86753438D01*
X113424501Y-87000424D01*
X113424500Y-87000441D01*
X104250500Y-87000441D01*
X104250500Y-85125441D01*
X174849500Y-85125441D01*
X174849500Y-85374558D01*
X174849501Y-85374575D01*
X174882017Y-85621561D01*
X174946498Y-85862207D01*
X175041830Y-86092361D01*
X175041837Y-86092376D01*
X175166400Y-86308126D01*
X175318060Y-86505774D01*
X175318066Y-86505781D01*
X175494218Y-86681933D01*
X175494225Y-86681939D01*
X175691873Y-86833599D01*
X175907623Y-86958162D01*
X175907638Y-86958169D01*
X176006825Y-86999253D01*
X176137793Y-87053502D01*
X176378435Y-87117982D01*
X176625435Y-87150500D01*
X176625442Y-87150500D01*
X176874558Y-87150500D01*
X176874565Y-87150500D01*
X177121565Y-87117982D01*
X177362207Y-87053502D01*
X177592373Y-86958164D01*
X177808127Y-86833599D01*
X178005776Y-86681938D01*
X178181938Y-86505776D01*
X178333599Y-86308127D01*
X178458164Y-86092373D01*
X178553502Y-85862207D01*
X178617982Y-85621565D01*
X178650500Y-85374565D01*
X178650500Y-85125435D01*
X178617982Y-84878435D01*
X178553502Y-84637793D01*
X178458164Y-84407627D01*
X178333599Y-84191873D01*
X178181938Y-83994224D01*
X178181933Y-83994218D01*
X178005781Y-83818066D01*
X178005774Y-83818060D01*
X177808126Y-83666400D01*
X177592376Y-83541837D01*
X177592361Y-83541830D01*
X177362207Y-83446498D01*
X177121561Y-83382017D01*
X176874575Y-83349501D01*
X176874570Y-83349500D01*
X176874565Y-83349500D01*
X176625435Y-83349500D01*
X176625429Y-83349500D01*
X176625424Y-83349501D01*
X176378438Y-83382017D01*
X176137792Y-83446498D01*
X175907638Y-83541830D01*
X175907623Y-83541837D01*
X175691873Y-83666400D01*
X175494225Y-83818060D01*
X175494218Y-83818066D01*
X175318066Y-83994218D01*
X175318060Y-83994225D01*
X175166400Y-84191873D01*
X175041837Y-84407623D01*
X175041830Y-84407638D01*
X174946498Y-84637792D01*
X174882017Y-84878438D01*
X174849501Y-85125424D01*
X174849500Y-85125441D01*
X104250500Y-85125441D01*
X104250500Y-80875441D01*
X174849500Y-80875441D01*
X174849500Y-81124558D01*
X174849501Y-81124575D01*
X174882017Y-81371561D01*
X174946498Y-81612207D01*
X175041830Y-81842361D01*
X175041837Y-81842376D01*
X175166400Y-82058126D01*
X175318060Y-82255774D01*
X175318066Y-82255781D01*
X175494218Y-82431933D01*
X175494225Y-82431939D01*
X175691873Y-82583599D01*
X175907623Y-82708162D01*
X175907638Y-82708169D01*
X176006825Y-82749253D01*
X176137793Y-82803502D01*
X176378435Y-82867982D01*
X176625435Y-82900500D01*
X176625442Y-82900500D01*
X176874558Y-82900500D01*
X176874565Y-82900500D01*
X177121565Y-82867982D01*
X177362207Y-82803502D01*
X177592373Y-82708164D01*
X177808127Y-82583599D01*
X178005776Y-82431938D01*
X178181938Y-82255776D01*
X178333599Y-82058127D01*
X178458164Y-81842373D01*
X178553502Y-81612207D01*
X178617982Y-81371565D01*
X178650500Y-81124565D01*
X178650500Y-80875435D01*
X178617982Y-80628435D01*
X178553502Y-80387793D01*
X178458164Y-80157627D01*
X178333599Y-79941873D01*
X178181938Y-79744224D01*
X178181933Y-79744218D01*
X178005781Y-79568066D01*
X178005774Y-79568060D01*
X177808126Y-79416400D01*
X177592376Y-79291837D01*
X177592361Y-79291830D01*
X177362207Y-79196498D01*
X177121561Y-79132017D01*
X176874575Y-79099501D01*
X176874570Y-79099500D01*
X176874565Y-79099500D01*
X176625435Y-79099500D01*
X176625429Y-79099500D01*
X176625424Y-79099501D01*
X176378438Y-79132017D01*
X176137792Y-79196498D01*
X175907638Y-79291830D01*
X175907623Y-79291837D01*
X175691873Y-79416400D01*
X175494225Y-79568060D01*
X175494218Y-79568066D01*
X175318066Y-79744218D01*
X175318060Y-79744225D01*
X175166400Y-79941873D01*
X175041837Y-80157623D01*
X175041830Y-80157638D01*
X174946498Y-80387792D01*
X174882017Y-80628438D01*
X174849501Y-80875424D01*
X174849500Y-80875441D01*
X104250500Y-80875441D01*
X104250500Y-72956277D01*
X104270185Y-72889238D01*
X104322989Y-72843483D01*
X104392147Y-72833539D01*
X104455703Y-72862564D01*
X104477602Y-72887386D01*
X104524140Y-72957035D01*
X104524150Y-72957049D01*
X104754807Y-73238106D01*
X105011893Y-73495192D01*
X105011898Y-73495196D01*
X105011899Y-73495197D01*
X105292956Y-73725854D01*
X105595268Y-73927853D01*
X105595277Y-73927858D01*
X105595279Y-73927859D01*
X105915916Y-74099243D01*
X105915918Y-74099243D01*
X105915924Y-74099247D01*
X106251836Y-74238386D01*
X106599767Y-74343930D01*
X106599773Y-74343931D01*
X106599776Y-74343932D01*
X106599787Y-74343935D01*
X106956369Y-74414862D01*
X107318206Y-74450500D01*
X107318209Y-74450500D01*
X107681791Y-74450500D01*
X107681794Y-74450500D01*
X108043631Y-74414862D01*
X108113045Y-74401054D01*
X108400212Y-74343935D01*
X108400223Y-74343932D01*
X108400223Y-74343931D01*
X108400233Y-74343930D01*
X108748164Y-74238386D01*
X108959159Y-74150989D01*
X123742000Y-74150989D01*
X123742000Y-74549010D01*
X123776689Y-74945507D01*
X123845803Y-75337466D01*
X123845806Y-75337479D01*
X123948813Y-75721912D01*
X124084951Y-76095946D01*
X124253143Y-76456637D01*
X124253156Y-76456661D01*
X124452155Y-76801336D01*
X124452164Y-76801351D01*
X124680455Y-77127384D01*
X124860843Y-77342361D01*
X124936289Y-77432274D01*
X125217726Y-77713711D01*
X125267855Y-77755774D01*
X125522615Y-77969544D01*
X125522621Y-77969548D01*
X125522622Y-77969549D01*
X125848655Y-78197840D01*
X126031667Y-78303502D01*
X126193338Y-78396843D01*
X126193362Y-78396856D01*
X126554053Y-78565048D01*
X126554058Y-78565049D01*
X126554067Y-78565054D01*
X126928077Y-78701183D01*
X126928083Y-78701184D01*
X126928087Y-78701186D01*
X127032780Y-78729238D01*
X127312528Y-78804196D01*
X127704495Y-78873311D01*
X128100991Y-78907999D01*
X128100992Y-78908000D01*
X128100993Y-78908000D01*
X128499008Y-78908000D01*
X128499008Y-78907999D01*
X128895505Y-78873311D01*
X129287472Y-78804196D01*
X129671923Y-78701183D01*
X130045933Y-78565054D01*
X130045946Y-78565048D01*
X130406637Y-78396856D01*
X130406645Y-78396851D01*
X130406655Y-78396847D01*
X130751345Y-78197840D01*
X131077378Y-77969549D01*
X131382274Y-77713711D01*
X131663711Y-77432274D01*
X131919549Y-77127378D01*
X132147840Y-76801345D01*
X132346847Y-76456655D01*
X132384718Y-76375441D01*
X174849500Y-76375441D01*
X174849500Y-76624558D01*
X174849501Y-76624575D01*
X174882017Y-76871561D01*
X174946498Y-77112207D01*
X175041830Y-77342361D01*
X175041837Y-77342376D01*
X175166400Y-77558126D01*
X175318060Y-77755774D01*
X175318066Y-77755781D01*
X175494218Y-77931933D01*
X175494225Y-77931939D01*
X175691873Y-78083599D01*
X175907623Y-78208162D01*
X175907638Y-78208169D01*
X176006825Y-78249253D01*
X176137793Y-78303502D01*
X176378435Y-78367982D01*
X176625435Y-78400500D01*
X176625442Y-78400500D01*
X176874558Y-78400500D01*
X176874565Y-78400500D01*
X177121565Y-78367982D01*
X177362207Y-78303502D01*
X177592373Y-78208164D01*
X177808127Y-78083599D01*
X178005776Y-77931938D01*
X178181938Y-77755776D01*
X178333599Y-77558127D01*
X178458164Y-77342373D01*
X178553502Y-77112207D01*
X178617982Y-76871565D01*
X178650500Y-76624565D01*
X178650500Y-76375435D01*
X178617982Y-76128435D01*
X178553502Y-75887793D01*
X178458164Y-75657627D01*
X178333599Y-75441873D01*
X178181938Y-75244224D01*
X178181933Y-75244218D01*
X178005781Y-75068066D01*
X178005774Y-75068060D01*
X177808126Y-74916400D01*
X177592376Y-74791837D01*
X177592361Y-74791830D01*
X177362207Y-74696498D01*
X177121561Y-74632017D01*
X176874575Y-74599501D01*
X176874570Y-74599500D01*
X176874565Y-74599500D01*
X176625435Y-74599500D01*
X176625429Y-74599500D01*
X176625424Y-74599501D01*
X176378438Y-74632017D01*
X176137792Y-74696498D01*
X175907638Y-74791830D01*
X175907623Y-74791837D01*
X175691873Y-74916400D01*
X175494225Y-75068060D01*
X175494218Y-75068066D01*
X175318066Y-75244218D01*
X175318060Y-75244225D01*
X175166400Y-75441873D01*
X175041837Y-75657623D01*
X175041830Y-75657638D01*
X174946498Y-75887792D01*
X174882017Y-76128438D01*
X174849501Y-76375424D01*
X174849500Y-76375441D01*
X132384718Y-76375441D01*
X132411050Y-76318972D01*
X132411050Y-76318971D01*
X132418382Y-76303246D01*
X132515054Y-76095933D01*
X132651183Y-75721923D01*
X132754196Y-75337472D01*
X132823311Y-74945505D01*
X132858000Y-74549007D01*
X132858000Y-74150993D01*
X132823311Y-73754495D01*
X132754196Y-73362528D01*
X132679238Y-73082780D01*
X132651186Y-72978087D01*
X132651184Y-72978083D01*
X132651183Y-72978077D01*
X132515054Y-72604067D01*
X132515049Y-72604058D01*
X132515048Y-72604053D01*
X132346856Y-72243362D01*
X132346843Y-72243338D01*
X132205292Y-71998165D01*
X132147840Y-71898655D01*
X131919549Y-71572622D01*
X131919548Y-71572621D01*
X131919544Y-71572615D01*
X131754752Y-71376225D01*
X131663711Y-71267726D01*
X131382274Y-70986289D01*
X131309941Y-70925594D01*
X131077384Y-70730455D01*
X130751351Y-70502164D01*
X130751348Y-70502162D01*
X130751345Y-70502160D01*
X130648936Y-70443034D01*
X130406661Y-70303156D01*
X130406637Y-70303143D01*
X130045946Y-70134951D01*
X130045935Y-70134947D01*
X130045933Y-70134946D01*
X129671923Y-69998817D01*
X129671922Y-69998816D01*
X129671912Y-69998813D01*
X129287479Y-69895806D01*
X129287482Y-69895806D01*
X129287472Y-69895804D01*
X129232130Y-69886045D01*
X128895507Y-69826689D01*
X128499010Y-69792000D01*
X128499007Y-69792000D01*
X128100993Y-69792000D01*
X128100989Y-69792000D01*
X127704492Y-69826689D01*
X127312533Y-69895803D01*
X127312530Y-69895803D01*
X127312528Y-69895804D01*
X127312523Y-69895805D01*
X127312520Y-69895806D01*
X126928087Y-69998813D01*
X126554053Y-70134951D01*
X126193362Y-70303143D01*
X126193338Y-70303156D01*
X125848663Y-70502155D01*
X125848648Y-70502164D01*
X125522615Y-70730455D01*
X125217723Y-70986291D01*
X124936291Y-71267723D01*
X124680455Y-71572615D01*
X124452164Y-71898648D01*
X124452155Y-71898663D01*
X124253156Y-72243338D01*
X124253143Y-72243362D01*
X124084951Y-72604053D01*
X123948813Y-72978087D01*
X123845806Y-73362520D01*
X123845803Y-73362533D01*
X123776689Y-73754492D01*
X123742000Y-74150989D01*
X108959159Y-74150989D01*
X109084076Y-74099247D01*
X109125758Y-74076967D01*
X109196924Y-74038929D01*
X109304121Y-73981630D01*
X109404732Y-73927853D01*
X109707044Y-73725854D01*
X109988101Y-73495197D01*
X110245197Y-73238101D01*
X110475854Y-72957044D01*
X110677853Y-72654732D01*
X110849247Y-72334076D01*
X110988386Y-71998164D01*
X111093930Y-71650233D01*
X111093932Y-71650223D01*
X111093935Y-71650212D01*
X111164862Y-71293630D01*
X111195132Y-70986291D01*
X111200500Y-70931794D01*
X111200500Y-70568206D01*
X111164862Y-70206369D01*
X111154015Y-70151836D01*
X111093935Y-69849787D01*
X111093932Y-69849776D01*
X111093931Y-69849773D01*
X111093930Y-69849767D01*
X110988386Y-69501836D01*
X110849247Y-69165924D01*
X110677853Y-68845268D01*
X110475854Y-68542956D01*
X110245197Y-68261899D01*
X110245196Y-68261898D01*
X110245192Y-68261893D01*
X109988106Y-68004807D01*
X109707049Y-67774150D01*
X109707048Y-67774149D01*
X109707044Y-67774146D01*
X109637385Y-67727601D01*
X109592581Y-67673990D01*
X109583874Y-67604665D01*
X109614028Y-67541638D01*
X109673471Y-67504918D01*
X109706277Y-67500500D01*
X138626981Y-67500500D01*
X138694020Y-67520185D01*
G37*
%TD.AperFunction*%
%TD*%
M02*
