%TF.GenerationSoftware,KiCad,Pcbnew,10.0.3*%
%TF.CreationDate,2026-09-19T18:40:01-05:00*%
%TF.ProjectId,PS-LVCarrier,50532d4c-5643-4617-9272-6965722e6b69,rev?*%
%TF.SameCoordinates,Original*%
%TF.FileFunction,Soldermask,Top*%
%TF.FilePolarity,Negative*%
%FSLAX46Y46*%
G04 Gerber Fmt 4.6, Leading zero omitted, Abs format (unit mm)*
G04 Created by KiCad (PCBNEW 10.0.3) date 2026-09-19 18:40:01*
%MOMM*%
%LPD*%
G01*
G04 APERTURE LIST*
G04 Aperture macros list*
%AMRoundRect*
0 Rectangle with rounded corners*
0 $1 Rounding radius*
0 $2 $3 $4 $5 $6 $7 $8 $9 X,Y pos of 4 corners*
0 Add a 4 corners polygon primitive as box body*
4,1,4,$2,$3,$4,$5,$6,$7,$8,$9,$2,$3,0*
0 Add four circle primitives for the rounded corners*
1,1,$1+$1,$2,$3*
1,1,$1+$1,$4,$5*
1,1,$1+$1,$6,$7*
1,1,$1+$1,$8,$9*
0 Add four rect primitives between the rounded corners*
20,1,$1+$1,$2,$3,$4,$5,0*
20,1,$1+$1,$4,$5,$6,$7,0*
20,1,$1+$1,$6,$7,$8,$9,0*
20,1,$1+$1,$8,$9,$2,$3,0*%
%AMOutline4P*
0 Free polygon, 4 corners , with rotation*
0 The origin of the aperture is its center*
0 number of corners: always 4*
0 $1 to $8 corner X, Y*
0 $9 Rotation angle, in degrees counterclockwise*
0 create outline with 4 corners*
4,1,4,$1,$2,$3,$4,$5,$6,$7,$8,$1,$2,$9*%
%AMFreePoly0*
4,1,22,0.945671,0.830970,1.026777,0.776777,1.080970,0.695671,1.100000,0.600000,1.100000,-0.600000,1.080970,-0.695671,1.026777,-0.776777,0.945671,-0.830970,0.850000,-0.850000,-0.850000,-0.850000,-0.945671,-0.830970,-1.026777,-0.776777,-1.080970,-0.695671,-1.100000,-0.600000,-1.100000,0.346447,-1.080970,0.442118,-1.026777,0.523224,-0.773224,0.776777,-0.692118,0.830970,-0.596447,0.850000,
0.850000,0.850000,0.945671,0.830970,0.945671,0.830970,$1*%
%AMFreePoly1*
4,1,22,0.945671,0.830970,1.026777,0.776777,1.080970,0.695671,1.100000,0.600000,1.100000,-0.600000,1.080970,-0.695671,1.026777,-0.776777,0.945671,-0.830970,0.850000,-0.850000,-0.850000,-0.850000,-0.945671,-0.830970,-1.026777,-0.776777,-1.080970,-0.695671,-1.100000,-0.600000,-1.100000,0.200000,-1.080970,0.295671,-1.026777,0.376777,-0.626777,0.776777,-0.545671,0.830970,-0.450000,0.850000,
0.850000,0.850000,0.945671,0.830970,0.945671,0.830970,$1*%
G04 Aperture macros list end*
%ADD10C,0.010000*%
%ADD11RoundRect,0.237500X-0.237500X0.287500X-0.237500X-0.287500X0.237500X-0.287500X0.237500X0.287500X0*%
%ADD12RoundRect,0.237500X-0.237500X0.300000X-0.237500X-0.300000X0.237500X-0.300000X0.237500X0.300000X0*%
%ADD13RoundRect,0.237500X0.287500X0.237500X-0.287500X0.237500X-0.287500X-0.237500X0.287500X-0.237500X0*%
%ADD14C,2.400000*%
%ADD15C,2.000000*%
%ADD16RoundRect,0.237500X0.237500X-0.250000X0.237500X0.250000X-0.237500X0.250000X-0.237500X-0.250000X0*%
%ADD17R,3.000000X3.000000*%
%ADD18C,3.000000*%
%ADD19R,0.850000X0.850000*%
%ADD20C,0.850000*%
%ADD21RoundRect,0.237500X0.237500X-0.300000X0.237500X0.300000X-0.237500X0.300000X-0.237500X-0.300000X0*%
%ADD22RoundRect,0.237500X0.300000X0.237500X-0.300000X0.237500X-0.300000X-0.237500X0.300000X-0.237500X0*%
%ADD23RoundRect,0.237500X0.250000X0.237500X-0.250000X0.237500X-0.250000X-0.237500X0.250000X-0.237500X0*%
%ADD24R,2.469157X0.622132*%
%ADD25RoundRect,0.237500X-0.250000X-0.237500X0.250000X-0.237500X0.250000X0.237500X-0.250000X0.237500X0*%
%ADD26R,1.000000X0.750000*%
%ADD27R,0.480000X0.750000*%
%ADD28R,2.720000X4.560000*%
%ADD29R,0.910000X5.560000*%
%ADD30R,0.420000X4.560000*%
%ADD31RoundRect,0.250000X-1.000000X1.950000X-1.000000X-1.950000X1.000000X-1.950000X1.000000X1.950000X0*%
%ADD32RoundRect,0.163043X1.036957X-0.586957X1.036957X0.586957X-1.036957X0.586957X-1.036957X-0.586957X0*%
%ADD33RoundRect,0.237500X-0.300000X-0.237500X0.300000X-0.237500X0.300000X0.237500X-0.300000X0.237500X0*%
%ADD34C,2.700000*%
%ADD35C,6.000000*%
%ADD36RoundRect,0.237500X-0.287500X-0.237500X0.287500X-0.237500X0.287500X0.237500X-0.287500X0.237500X0*%
%ADD37RoundRect,0.237500X0.237500X-0.287500X0.237500X0.287500X-0.237500X0.287500X-0.237500X-0.287500X0*%
%ADD38RoundRect,0.250000X0.475000X-0.337500X0.475000X0.337500X-0.475000X0.337500X-0.475000X-0.337500X0*%
%ADD39RoundRect,0.250000X0.337500X0.475000X-0.337500X0.475000X-0.337500X-0.475000X0.337500X-0.475000X0*%
%ADD40RoundRect,0.250000X1.950000X1.000000X-1.950000X1.000000X-1.950000X-1.000000X1.950000X-1.000000X0*%
%ADD41R,0.254000X0.609600*%
%ADD42R,0.660400X0.254000*%
%ADD43R,0.609600X0.254000*%
%ADD44R,3.403600X0.254000*%
%ADD45RoundRect,0.237500X-0.237500X0.250000X-0.237500X-0.250000X0.237500X-0.250000X0.237500X0.250000X0*%
%ADD46R,0.304800X1.473200*%
%ADD47R,3.302000X2.768600*%
%ADD48FreePoly0,90.000000*%
%ADD49O,1.700000X2.200000*%
%ADD50RoundRect,0.225000X0.375000X-0.225000X0.375000X0.225000X-0.375000X0.225000X-0.375000X-0.225000X0*%
%ADD51RoundRect,0.250000X0.412500X1.100000X-0.412500X1.100000X-0.412500X-1.100000X0.412500X-1.100000X0*%
%ADD52RoundRect,0.150000X0.150000X0.425000X-0.150000X0.425000X-0.150000X-0.425000X0.150000X-0.425000X0*%
%ADD53RoundRect,0.075000X0.075000X0.500000X-0.075000X0.500000X-0.075000X-0.500000X0.075000X-0.500000X0*%
%ADD54O,1.000000X2.100000*%
%ADD55O,1.000000X1.800000*%
%ADD56RoundRect,0.375000X0.625000X0.375000X-0.625000X0.375000X-0.625000X-0.375000X0.625000X-0.375000X0*%
%ADD57RoundRect,0.500000X0.500000X1.400000X-0.500000X1.400000X-0.500000X-1.400000X0.500000X-1.400000X0*%
%ADD58RoundRect,0.250000X0.900000X-1.000000X0.900000X1.000000X-0.900000X1.000000X-0.900000X-1.000000X0*%
%ADD59R,1.700000X1.700000*%
%ADD60C,1.700000*%
%ADD61RoundRect,0.163043X-1.036957X0.586957X-1.036957X-0.586957X1.036957X-0.586957X1.036957X0.586957X0*%
%ADD62R,0.550000X0.400000*%
%ADD63R,0.700000X0.500000*%
%ADD64RoundRect,0.250000X-0.625000X0.400000X-0.625000X-0.400000X0.625000X-0.400000X0.625000X0.400000X0*%
%ADD65R,0.450000X0.900000*%
%ADD66RoundRect,0.250000X0.600000X-0.850000X0.600000X0.850000X-0.600000X0.850000X-0.600000X-0.850000X0*%
%ADD67R,0.330000X0.360000*%
%ADD68RoundRect,0.250000X-0.475000X0.337500X-0.475000X-0.337500X0.475000X-0.337500X0.475000X0.337500X0*%
%ADD69RoundRect,0.087500X0.425000X0.087500X-0.425000X0.087500X-0.425000X-0.087500X0.425000X-0.087500X0*%
%ADD70RoundRect,0.087500X0.087500X0.425000X-0.087500X0.425000X-0.087500X-0.425000X0.087500X-0.425000X0*%
%ADD71R,2.100000X2.100000*%
%ADD72RoundRect,0.250000X-0.337500X-0.475000X0.337500X-0.475000X0.337500X0.475000X-0.337500X0.475000X0*%
%ADD73RoundRect,0.087500X-0.425000X-0.087500X0.425000X-0.087500X0.425000X0.087500X-0.425000X0.087500X0*%
%ADD74FreePoly1,90.000000*%
%ADD75RoundRect,0.250000X0.250000X-0.250000X0.250000X0.250000X-0.250000X0.250000X-0.250000X-0.250000X0*%
%ADD76Outline4P,-2.150000X-1.800000X2.150000X-0.800000X2.150000X0.800000X-2.150000X1.800000X90.000000*%
%ADD77Outline4P,-2.150000X-1.800000X2.150000X-0.800000X2.150000X0.800000X-2.150000X1.800000X270.000000*%
%ADD78RoundRect,0.150000X-0.875000X-0.150000X0.875000X-0.150000X0.875000X0.150000X-0.875000X0.150000X0*%
%ADD79R,0.750000X1.000000*%
%ADD80R,0.549999X0.800001*%
%ADD81R,1.528000X0.650000*%
%ADD82R,1.100000X0.599999*%
%ADD83RoundRect,0.249998X-4.550002X3.650002X-4.550002X-3.650002X4.550002X-3.650002X4.550002X3.650002X0*%
%ADD84C,3.600000*%
%ADD85C,5.600000*%
%ADD86R,2.400000X1.900000*%
%ADD87RoundRect,0.249999X1.425001X-0.450001X1.425001X0.450001X-1.425001X0.450001X-1.425001X-0.450001X0*%
%ADD88R,0.600000X1.250000*%
%ADD89R,1.200000X2.500000*%
%ADD90RoundRect,0.250000X2.500000X-0.465000X2.500000X0.465000X-2.500000X0.465000X-2.500000X-0.465000X0*%
%ADD91RoundRect,0.250000X0.550000X0.550000X-0.550000X0.550000X-0.550000X-0.550000X0.550000X-0.550000X0*%
%ADD92C,1.600000*%
%ADD93RoundRect,0.250000X-1.000000X-0.900000X1.000000X-0.900000X1.000000X0.900000X-1.000000X0.900000X0*%
%ADD94R,2.743200X0.990600*%
%ADD95RoundRect,0.112500X0.187500X0.112500X-0.187500X0.112500X-0.187500X-0.112500X0.187500X-0.112500X0*%
%ADD96R,2.500000X9.000000*%
%ADD97C,1.905000*%
%ADD98RoundRect,0.250000X-1.950000X-1.000000X1.950000X-1.000000X1.950000X1.000000X-1.950000X1.000000X0*%
%ADD99RoundRect,0.250000X-1.000000X-0.650000X1.000000X-0.650000X1.000000X0.650000X-1.000000X0.650000X0*%
%ADD100R,1.193800X0.304800*%
%ADD101R,0.304800X1.193800*%
%ADD102RoundRect,0.150000X-0.587500X-0.150000X0.587500X-0.150000X0.587500X0.150000X-0.587500X0.150000X0*%
G04 APERTURE END LIST*
D10*
%TO.C,D44*%
X105989492Y-75196600D02*
X105389400Y-75196600D01*
X105389400Y-73596353D01*
X105989492Y-73596353D01*
X105989492Y-75196600D01*
G36*
X105989492Y-75196600D02*
G01*
X105389400Y-75196600D01*
X105389400Y-73596353D01*
X105989492Y-73596353D01*
X105989492Y-75196600D01*
G37*
%TO.C,U15*%
X167284973Y-54798352D02*
X168044973Y-54798352D01*
X168044973Y-55218352D01*
X167284973Y-55218352D01*
X167284973Y-54798352D01*
G36*
X168044973Y-55218352D02*
G01*
X167284973Y-55218352D01*
X167284973Y-54798352D01*
X168044973Y-54798352D01*
X168044973Y-55218352D01*
G37*
X167284973Y-55298352D02*
X168044973Y-55298352D01*
X168044973Y-55718352D01*
X167284973Y-55718352D01*
X167284973Y-55298352D01*
G36*
X168044973Y-55718352D02*
G01*
X167284973Y-55718352D01*
X167284973Y-55298352D01*
X168044973Y-55298352D01*
X168044973Y-55718352D01*
G37*
X167284973Y-55798352D02*
X168044973Y-55798352D01*
X168044973Y-56218352D01*
X167284973Y-56218352D01*
X167284973Y-55798352D01*
G36*
X168044973Y-56218352D02*
G01*
X167284973Y-56218352D01*
X167284973Y-55798352D01*
X168044973Y-55798352D01*
X168044973Y-56218352D01*
G37*
X167284973Y-56298352D02*
X168044973Y-56298352D01*
X168044973Y-56718352D01*
X167284973Y-56718352D01*
X167284973Y-56298352D01*
G36*
X168044973Y-56718352D02*
G01*
X167284973Y-56718352D01*
X167284973Y-56298352D01*
X168044973Y-56298352D01*
X168044973Y-56718352D01*
G37*
X168754973Y-54798352D02*
X169514973Y-54798352D01*
X169514973Y-55218352D01*
X168754973Y-55218352D01*
X168754973Y-54798352D01*
G36*
X169514973Y-55218352D02*
G01*
X168754973Y-55218352D01*
X168754973Y-54798352D01*
X169514973Y-54798352D01*
X169514973Y-55218352D01*
G37*
X168754973Y-55298352D02*
X169514973Y-55298352D01*
X169514973Y-55718352D01*
X168754973Y-55718352D01*
X168754973Y-55298352D01*
G36*
X169514973Y-55718352D02*
G01*
X168754973Y-55718352D01*
X168754973Y-55298352D01*
X169514973Y-55298352D01*
X169514973Y-55718352D01*
G37*
X168754973Y-55798352D02*
X169514973Y-55798352D01*
X169514973Y-56218352D01*
X168754973Y-56218352D01*
X168754973Y-55798352D01*
G36*
X169514973Y-56218352D02*
G01*
X168754973Y-56218352D01*
X168754973Y-55798352D01*
X169514973Y-55798352D01*
X169514973Y-56218352D01*
G37*
X168754973Y-56298352D02*
X169514973Y-56298352D01*
X169514973Y-56718352D01*
X168754973Y-56718352D01*
X168754973Y-56298352D01*
G36*
X169514973Y-56718352D02*
G01*
X168754973Y-56718352D01*
X168754973Y-56298352D01*
X169514973Y-56298352D01*
X169514973Y-56718352D01*
G37*
%TD*%
D11*
%TO.C,D28*%
X210769200Y-58806800D03*
X210769200Y-60556800D03*
%TD*%
D12*
%TO.C,C33*%
X88670798Y-81035782D03*
X88670798Y-82760782D03*
%TD*%
D13*
%TO.C,D45*%
X144915436Y-68400025D03*
X143165436Y-68400025D03*
%TD*%
D14*
%TO.C,F3*%
X128951800Y-88165200D03*
X128951800Y-91565200D03*
X142421800Y-88165200D03*
X142421800Y-91565200D03*
%TD*%
D15*
%TO.C,TP15*%
X182575600Y-141575000D03*
%TD*%
%TO.C,TP44*%
X156300000Y-70675000D03*
%TD*%
D16*
%TO.C,R107*%
X198831200Y-99972500D03*
X198831200Y-98147500D03*
%TD*%
D17*
%TO.C,J3*%
X192013200Y-135958000D03*
D18*
X197013200Y-135958000D03*
%TD*%
D19*
%TO.C,J16*%
X174414800Y-115977600D03*
D20*
X174414800Y-114977600D03*
%TD*%
D21*
%TO.C,C77*%
X185135600Y-63639300D03*
X185135600Y-61914300D03*
%TD*%
D22*
%TO.C,C112*%
X126973500Y-76436800D03*
X125248500Y-76436800D03*
%TD*%
D21*
%TO.C,C76*%
X183135600Y-63599300D03*
X183135600Y-61874300D03*
%TD*%
D22*
%TO.C,C56*%
X115536500Y-90238000D03*
X113811500Y-90238000D03*
%TD*%
D11*
%TO.C,D21*%
X160550600Y-105761800D03*
X160550600Y-107511800D03*
%TD*%
D15*
%TO.C,TP16*%
X195300000Y-141625000D03*
%TD*%
%TO.C,TP6*%
X148425000Y-107625000D03*
%TD*%
D23*
%TO.C,R58*%
X120260100Y-90238000D03*
X118435100Y-90238000D03*
%TD*%
D17*
%TO.C,J10*%
X191657600Y-76454000D03*
D18*
X196657600Y-76454000D03*
%TD*%
D15*
%TO.C,TP29*%
X149800000Y-88050000D03*
%TD*%
D24*
%TO.C,U9*%
X119451100Y-88587000D03*
X119451100Y-87317000D03*
X119451100Y-86047000D03*
X119451100Y-84777000D03*
X114623902Y-84777000D03*
X114623902Y-86047000D03*
X114623902Y-87317000D03*
X114623902Y-88587000D03*
%TD*%
D12*
%TO.C,C23*%
X162527600Y-114674300D03*
X162527600Y-116399300D03*
%TD*%
D21*
%TO.C,C7*%
X157225600Y-130294300D03*
X157225600Y-128569300D03*
%TD*%
D25*
%TO.C,R119*%
X197026850Y-52440200D03*
X198851850Y-52440200D03*
%TD*%
D16*
%TO.C,R98*%
X166725000Y-67762500D03*
X166725000Y-65937500D03*
%TD*%
D23*
%TO.C,R135*%
X144992936Y-70150025D03*
X143167936Y-70150025D03*
%TD*%
D15*
%TO.C,TP43*%
X194325000Y-44475000D03*
%TD*%
D26*
%TO.C,Q19*%
X183946600Y-70476800D03*
X183946600Y-69206800D03*
X183946600Y-67936800D03*
X183946600Y-66666800D03*
D27*
X178186600Y-66666800D03*
X178186600Y-70476800D03*
D28*
X179786600Y-68571800D03*
D29*
X181601600Y-68571800D03*
D30*
X182266600Y-68571800D03*
%TD*%
D15*
%TO.C,TP3*%
X134282800Y-108576800D03*
%TD*%
D21*
%TO.C,C12*%
X160952800Y-119812700D03*
X160952800Y-118087700D03*
%TD*%
D15*
%TO.C,TP45*%
X159775000Y-48326800D03*
%TD*%
D23*
%TO.C,R96*%
X172878100Y-71650000D03*
X171053100Y-71650000D03*
%TD*%
D14*
%TO.C,F7*%
X206830400Y-50313400D03*
X203430400Y-50313400D03*
X206830400Y-63783400D03*
X203430400Y-63783400D03*
%TD*%
D31*
%TO.C,C53*%
X134536800Y-113216000D03*
X134536800Y-121616000D03*
%TD*%
D32*
%TO.C,D20*%
X143833200Y-107306800D03*
X143833200Y-103006800D03*
%TD*%
D33*
%TO.C,C111*%
X129393100Y-59226800D03*
X131118100Y-59226800D03*
%TD*%
D26*
%TO.C,Q16*%
X135350601Y-99453078D03*
X135350601Y-98183078D03*
X135350601Y-96913078D03*
X135350601Y-95643078D03*
D27*
X129590601Y-95643078D03*
X129590601Y-99453078D03*
D28*
X131190601Y-97548078D03*
D29*
X133005601Y-97548078D03*
D30*
X133670601Y-97548078D03*
%TD*%
D15*
%TO.C,U7*%
X70526855Y-119036010D03*
X70526855Y-128531010D03*
X70526855Y-132371010D03*
D34*
X120226855Y-129831010D03*
D15*
X120226855Y-126021010D03*
X120226855Y-122211010D03*
X120226855Y-118401010D03*
D34*
X120226855Y-114591010D03*
D35*
X70526855Y-108211010D03*
%TD*%
D24*
%TO.C,U4*%
X93743801Y-74185200D03*
X93743801Y-75455200D03*
X93743801Y-76725200D03*
X93743801Y-77995200D03*
X98570999Y-77995200D03*
X98570999Y-76725200D03*
X98570999Y-75455200D03*
X98570999Y-74185200D03*
%TD*%
D23*
%TO.C,R134*%
X144982936Y-66620025D03*
X143157936Y-66620025D03*
%TD*%
D16*
%TO.C,R25*%
X158305839Y-113185486D03*
X158305839Y-111360486D03*
%TD*%
D21*
%TO.C,C100*%
X107180191Y-65721953D03*
X107180191Y-63996953D03*
%TD*%
D12*
%TO.C,C15*%
X156685600Y-111422700D03*
X156685600Y-113147700D03*
%TD*%
D36*
%TO.C,D33*%
X177464350Y-44536800D03*
X179214350Y-44536800D03*
%TD*%
D12*
%TO.C,C65*%
X128975600Y-102324300D03*
X128975600Y-104049300D03*
%TD*%
D16*
%TO.C,R104*%
X192678374Y-87842489D03*
X192678374Y-86017489D03*
%TD*%
D21*
%TO.C,C11*%
X164305600Y-119853300D03*
X164305600Y-118128300D03*
%TD*%
D15*
%TO.C,TP2*%
X157625300Y-141575000D03*
%TD*%
D22*
%TO.C,C107*%
X111015300Y-62044000D03*
X109290300Y-62044000D03*
%TD*%
D36*
%TO.C,D40*%
X120125600Y-55136800D03*
X121875600Y-55136800D03*
%TD*%
D11*
%TO.C,D17*%
X180104400Y-105771400D03*
X180104400Y-107521400D03*
%TD*%
D37*
%TO.C,D6*%
X154025600Y-126906800D03*
X154025600Y-125156800D03*
%TD*%
D38*
%TO.C,C94*%
X163742834Y-59799785D03*
X163742834Y-57724785D03*
%TD*%
D39*
%TO.C,C93*%
X179376850Y-46536800D03*
X177301850Y-46536800D03*
%TD*%
D15*
%TO.C,TP7*%
X142240000Y-121310400D03*
%TD*%
D40*
%TO.C,C71*%
X163220860Y-79239796D03*
X154820860Y-79239796D03*
%TD*%
D41*
%TO.C,U1*%
X157053011Y-119917646D03*
X157553137Y-119917646D03*
X158053263Y-119917646D03*
X158553389Y-119917646D03*
D42*
X159177800Y-119557600D03*
D43*
X159203200Y-119077978D03*
D44*
X157800200Y-118597852D03*
X157800200Y-118057726D03*
X157800200Y-117517600D03*
X157800200Y-116977474D03*
X157800200Y-116437348D03*
D43*
X159203200Y-115958222D03*
D42*
X159177800Y-115478096D03*
D41*
X158553389Y-115117554D03*
X158053263Y-115117554D03*
X157553137Y-115117554D03*
X157053011Y-115117554D03*
D42*
X156428600Y-115477600D03*
D43*
X156403200Y-115957222D03*
X156403200Y-119077978D03*
D42*
X156428600Y-119557104D03*
%TD*%
D16*
%TO.C,R77*%
X136975600Y-107649300D03*
X136975600Y-105824300D03*
%TD*%
D45*
%TO.C,R103*%
X196137054Y-82564489D03*
X196137054Y-84389489D03*
%TD*%
D21*
%TO.C,C18*%
X154945538Y-119773553D03*
X154945538Y-118048553D03*
%TD*%
D45*
%TO.C,R92*%
X185844800Y-58337500D03*
X185844800Y-60162500D03*
%TD*%
D26*
%TO.C,Q17*%
X159320400Y-95648200D03*
X159320400Y-96918200D03*
X159320400Y-98188200D03*
X159320400Y-99458200D03*
D27*
X165080400Y-99458200D03*
X165080400Y-95648200D03*
D28*
X163480400Y-97553200D03*
D29*
X161665400Y-97553200D03*
D30*
X161000400Y-97553200D03*
%TD*%
D21*
%TO.C,C10*%
X165829600Y-119853300D03*
X165829600Y-118128300D03*
%TD*%
D26*
%TO.C,Q15*%
X138600601Y-95644912D03*
X138600601Y-96914912D03*
X138600601Y-98184912D03*
X138600601Y-99454912D03*
D27*
X144360601Y-99454912D03*
X144360601Y-95644912D03*
D28*
X142760601Y-97549912D03*
D29*
X140945601Y-97549912D03*
D30*
X140280601Y-97549912D03*
%TD*%
D36*
%TO.C,D2*%
X148775000Y-122100000D03*
X150525000Y-122100000D03*
%TD*%
D45*
%TO.C,R48*%
X110880600Y-86753969D03*
X110880600Y-88578969D03*
%TD*%
D21*
%TO.C,C116*%
X170952834Y-59589300D03*
X170952834Y-57864300D03*
%TD*%
D46*
%TO.C,IC8*%
X195510337Y-95922760D03*
X195982338Y-95922760D03*
X196454338Y-95922760D03*
X196926336Y-95922760D03*
X197398337Y-95922760D03*
X197870338Y-95922760D03*
X198342338Y-95922760D03*
X198814339Y-95922760D03*
X198814339Y-90080760D03*
X198342338Y-90080760D03*
X197870338Y-90080760D03*
X197398340Y-90080760D03*
X196926339Y-90080760D03*
X196454338Y-90080760D03*
X195982338Y-90080760D03*
X195510337Y-90080760D03*
D47*
X197162338Y-93001760D03*
%TD*%
D48*
%TO.C,J18*%
X168675600Y-43913396D03*
D49*
X166175600Y-43913396D03*
X163675600Y-43913396D03*
%TD*%
D23*
%TO.C,R71*%
X169238100Y-57876800D03*
X167413100Y-57876800D03*
%TD*%
D25*
%TO.C,R123*%
X163493413Y-111498676D03*
X165318413Y-111498676D03*
%TD*%
D50*
%TO.C,D47*%
X144849200Y-50943200D03*
X144849200Y-47643200D03*
%TD*%
D51*
%TO.C,C92*%
X179439350Y-49336800D03*
X176314350Y-49336800D03*
%TD*%
D21*
%TO.C,C106*%
X146730436Y-66102525D03*
X146730436Y-64377525D03*
%TD*%
D16*
%TO.C,R36*%
X194875600Y-124824301D03*
X194875600Y-122999301D03*
%TD*%
D45*
%TO.C,R10*%
X157187748Y-125124300D03*
X157187748Y-126949300D03*
%TD*%
D16*
%TO.C,R8*%
X133775600Y-126849300D03*
X133775600Y-125024300D03*
%TD*%
D52*
%TO.C,J17*%
X144400000Y-45655000D03*
X143600000Y-45655000D03*
D53*
X142450000Y-45655000D03*
X141450000Y-45655000D03*
X140950000Y-45655000D03*
X139950000Y-45655000D03*
D52*
X138800000Y-45655000D03*
X138000000Y-45655000D03*
X138000000Y-45655000D03*
X138800000Y-45655000D03*
D53*
X139450000Y-45655000D03*
X140450000Y-45655000D03*
X141950000Y-45655000D03*
X142950000Y-45655000D03*
D52*
X143600000Y-45655000D03*
X144400000Y-45655000D03*
D54*
X145520000Y-45080000D03*
X136880000Y-45080000D03*
D55*
X136880000Y-40900000D03*
X145520000Y-40900000D03*
%TD*%
D36*
%TO.C,D34*%
X124023793Y-55127763D03*
X125773793Y-55127763D03*
%TD*%
D14*
%TO.C,F2*%
X203430400Y-133328600D03*
X206830400Y-133328600D03*
X203430400Y-119858600D03*
X206830400Y-119858600D03*
%TD*%
D11*
%TO.C,D25*%
X210718400Y-83097400D03*
X210718400Y-84847400D03*
%TD*%
D26*
%TO.C,Q6*%
X158875600Y-133228634D03*
X158875600Y-134498634D03*
X158875600Y-135768634D03*
X158875600Y-137038634D03*
D27*
X164635600Y-137038634D03*
X164635600Y-133228634D03*
D28*
X163035600Y-135133634D03*
D29*
X161220600Y-135133634D03*
D30*
X160555600Y-135133634D03*
%TD*%
D23*
%TO.C,R118*%
X197882500Y-54017600D03*
X196057500Y-54017600D03*
%TD*%
D12*
%TO.C,C55*%
X115207400Y-76600400D03*
X115207400Y-78325400D03*
%TD*%
D15*
%TO.C,TP13*%
X78181200Y-72085200D03*
%TD*%
D45*
%TO.C,R67*%
X181303434Y-114437602D03*
X181303434Y-116262602D03*
%TD*%
D21*
%TO.C,C2*%
X135375600Y-130199300D03*
X135375600Y-128474300D03*
%TD*%
D22*
%TO.C,C113*%
X120078100Y-78028800D03*
X118353100Y-78028800D03*
%TD*%
D12*
%TO.C,C69*%
X150375000Y-102412500D03*
X150375000Y-104137500D03*
%TD*%
D14*
%TO.C,F1*%
X171548600Y-91480800D03*
X171548600Y-88080800D03*
X158078600Y-91480800D03*
X158078600Y-88080800D03*
%TD*%
D56*
%TO.C,U12*%
X161322834Y-58942285D03*
X161322834Y-56642285D03*
D57*
X155022834Y-56642285D03*
D56*
X161322834Y-54342285D03*
%TD*%
D58*
%TO.C,D32*%
X190350400Y-95191303D03*
X190350400Y-90891303D03*
%TD*%
D19*
%TO.C,TP52*%
X117449600Y-47396400D03*
%TD*%
D11*
%TO.C,D1*%
X167125000Y-96875000D03*
X167125000Y-98625000D03*
%TD*%
D14*
%TO.C,F10*%
X206825600Y-91711800D03*
X203425600Y-91711800D03*
X206825600Y-105181800D03*
X203425600Y-105181800D03*
%TD*%
D15*
%TO.C,TP39*%
X210736800Y-63906400D03*
%TD*%
D36*
%TO.C,D38*%
X163540600Y-113046800D03*
X165290600Y-113046800D03*
%TD*%
D13*
%TO.C,D14*%
X132075000Y-111000000D03*
X130325000Y-111000000D03*
%TD*%
D12*
%TO.C,C74*%
X165780860Y-81877296D03*
X165780860Y-83602296D03*
%TD*%
D21*
%TO.C,C27*%
X187216400Y-134516200D03*
X187216400Y-132791200D03*
%TD*%
D26*
%TO.C,Q14*%
X175900601Y-99439966D03*
X175900601Y-98169966D03*
X175900601Y-96899966D03*
X175900601Y-95629966D03*
D27*
X170140601Y-95629966D03*
X170140601Y-99439966D03*
D28*
X171740601Y-97534966D03*
D29*
X173555601Y-97534966D03*
D30*
X174220601Y-97534966D03*
%TD*%
D16*
%TO.C,R15*%
X176396000Y-127167700D03*
X176396000Y-125342700D03*
%TD*%
D33*
%TO.C,C16*%
X160064967Y-111463917D03*
X161789967Y-111463917D03*
%TD*%
D59*
%TO.C,JP1*%
X99720400Y-54627200D03*
D60*
X99720400Y-52087200D03*
%TD*%
D61*
%TO.C,D11*%
X171163600Y-125493200D03*
X171163600Y-129793200D03*
%TD*%
D12*
%TO.C,C21*%
X164305600Y-114674300D03*
X164305600Y-116399300D03*
%TD*%
D15*
%TO.C,TP33*%
X138600800Y-66616000D03*
%TD*%
D12*
%TO.C,C54*%
X116756800Y-76600400D03*
X116756800Y-78325400D03*
%TD*%
D36*
%TO.C,D26*%
X194926600Y-101896600D03*
X196676600Y-101896600D03*
%TD*%
D24*
%TO.C,U2*%
X191179047Y-110514411D03*
X191179047Y-111784411D03*
X191179047Y-113054411D03*
X191179047Y-114324411D03*
X196006245Y-114324411D03*
X196006245Y-113054411D03*
X196006245Y-111784411D03*
X196006245Y-110514411D03*
%TD*%
D16*
%TO.C,R54*%
X102170600Y-97149300D03*
X102170600Y-95324300D03*
%TD*%
D15*
%TO.C,TP37*%
X191275000Y-103150000D03*
%TD*%
D24*
%TO.C,U10*%
X173988599Y-69905000D03*
X173988599Y-68635000D03*
X173988599Y-67365000D03*
X173988599Y-66095000D03*
X169161401Y-66095000D03*
X169161401Y-67365000D03*
X169161401Y-68635000D03*
X169161401Y-69905000D03*
%TD*%
D25*
%TO.C,R72*%
X167483100Y-59546800D03*
X169308100Y-59546800D03*
%TD*%
D45*
%TO.C,R105*%
X190871644Y-86007135D03*
X190871644Y-87832135D03*
%TD*%
D36*
%TO.C,D16*%
X178400600Y-112691600D03*
X180150600Y-112691600D03*
%TD*%
D62*
%TO.C,D44*%
X106364400Y-75121600D03*
X105014400Y-75121600D03*
D63*
X106439400Y-74396600D03*
X104939400Y-74396600D03*
D62*
X106364400Y-73671600D03*
X105014400Y-73671600D03*
%TD*%
D64*
%TO.C,R39*%
X84355151Y-84250883D03*
X84355151Y-87350883D03*
%TD*%
D65*
%TO.C,IC5*%
X131334207Y-105141321D03*
X131984207Y-105141321D03*
X132634207Y-105141321D03*
X133284207Y-105141321D03*
X133284207Y-102941321D03*
X132634207Y-102941321D03*
X131984207Y-102941321D03*
X131334207Y-102941321D03*
%TD*%
D13*
%TO.C,D9*%
X161490600Y-122076800D03*
X159740600Y-122076800D03*
%TD*%
D65*
%TO.C,IC6*%
X153018200Y-105257200D03*
X153668200Y-105257200D03*
X154318200Y-105257200D03*
X154968200Y-105257200D03*
X154968200Y-103057200D03*
X154318200Y-103057200D03*
X153668200Y-103057200D03*
X153018200Y-103057200D03*
%TD*%
D61*
%TO.C,D29*%
X179494800Y-58691200D03*
X179494800Y-62991200D03*
%TD*%
D19*
%TO.C,J4*%
X147938600Y-112322200D03*
D20*
X148938600Y-112322200D03*
X149938600Y-112322200D03*
%TD*%
D61*
%TO.C,D5*%
X130625600Y-125286800D03*
X130625600Y-129586800D03*
%TD*%
D59*
%TO.C,J13*%
X139185600Y-49706800D03*
D60*
X139185600Y-52246800D03*
X139185600Y-54786800D03*
X139185600Y-57326800D03*
%TD*%
D12*
%TO.C,C63*%
X138600600Y-102387412D03*
X138600600Y-104112412D03*
%TD*%
D16*
%TO.C,R91*%
X182593600Y-60162500D03*
X182593600Y-58337500D03*
%TD*%
D45*
%TO.C,R9*%
X136975600Y-125024300D03*
X136975600Y-126849300D03*
%TD*%
D38*
%TO.C,C36*%
X88671200Y-89958969D03*
X88671200Y-87883969D03*
%TD*%
D15*
%TO.C,TP32*%
X145150150Y-141575000D03*
%TD*%
D45*
%TO.C,R35*%
X196475600Y-122999301D03*
X196475600Y-124824301D03*
%TD*%
D61*
%TO.C,D7*%
X150875600Y-125381800D03*
X150875600Y-129681800D03*
%TD*%
D25*
%TO.C,R29*%
X160014967Y-113038717D03*
X161839967Y-113038717D03*
%TD*%
D33*
%TO.C,C89*%
X197076850Y-50836800D03*
X198801850Y-50836800D03*
%TD*%
D45*
%TO.C,R109*%
X194430000Y-86023500D03*
X194430000Y-87848500D03*
%TD*%
D11*
%TO.C,D19*%
X140200600Y-105861800D03*
X140200600Y-107611800D03*
%TD*%
D66*
%TO.C,J14*%
X116596400Y-43783600D03*
D49*
X114096400Y-43783600D03*
X111596400Y-43783600D03*
X109096400Y-43783600D03*
%TD*%
D17*
%TO.C,J1*%
X182372000Y-82804000D03*
D18*
X182372000Y-87804000D03*
%TD*%
D21*
%TO.C,C26*%
X178072400Y-130521300D03*
X178072400Y-128796300D03*
%TD*%
D67*
%TO.C,D48*%
X141785600Y-50496800D03*
X142485600Y-50496800D03*
X142135600Y-49336800D03*
%TD*%
D64*
%TO.C,R41*%
X84393025Y-94405077D03*
X84393025Y-97505077D03*
%TD*%
D37*
%TO.C,D4*%
X135375600Y-126811800D03*
X135375600Y-125061800D03*
%TD*%
D26*
%TO.C,Q8*%
X175875600Y-137102466D03*
X175875600Y-135832466D03*
X175875600Y-134562466D03*
X175875600Y-133292466D03*
D27*
X170115600Y-133292466D03*
X170115600Y-137102466D03*
D28*
X171715600Y-135197466D03*
D29*
X173530600Y-135197466D03*
D30*
X174195600Y-135197466D03*
%TD*%
D12*
%TO.C,C67*%
X158950600Y-102374300D03*
X158950600Y-104099300D03*
%TD*%
D17*
%TO.C,J5*%
X88900000Y-49445600D03*
D18*
X83900000Y-49445600D03*
%TD*%
D16*
%TO.C,R111*%
X194430000Y-84394100D03*
X194430000Y-82569100D03*
%TD*%
D37*
%TO.C,D30*%
X200456800Y-99935000D03*
X200456800Y-98185000D03*
%TD*%
D15*
%TO.C,TP4*%
X142240000Y-113157000D03*
%TD*%
D21*
%TO.C,C13*%
X162527600Y-119853300D03*
X162527600Y-118128300D03*
%TD*%
%TO.C,C25*%
X176421400Y-130521300D03*
X176421400Y-128796300D03*
%TD*%
D11*
%TO.C,D24*%
X210769200Y-49625000D03*
X210769200Y-51375000D03*
%TD*%
D25*
%TO.C,R46*%
X103356795Y-87836800D03*
X105181795Y-87836800D03*
%TD*%
D21*
%TO.C,C49*%
X90490882Y-96439161D03*
X90490882Y-94714161D03*
%TD*%
D15*
%TO.C,TP8*%
X142240000Y-117246400D03*
%TD*%
D12*
%TO.C,C101*%
X107175600Y-67395239D03*
X107175600Y-69120239D03*
%TD*%
D33*
%TO.C,C40*%
X103420658Y-86286800D03*
X105145658Y-86286800D03*
%TD*%
D12*
%TO.C,C84*%
X193465600Y-93834300D03*
X193465600Y-95559300D03*
%TD*%
D68*
%TO.C,C72*%
X147135200Y-48814500D03*
X147135200Y-50889500D03*
%TD*%
D16*
%TO.C,R101*%
X195580000Y-99972500D03*
X195580000Y-98147500D03*
%TD*%
D33*
%TO.C,C83*%
X198495100Y-101896600D03*
X200220100Y-101896600D03*
%TD*%
D66*
%TO.C,J15*%
X131887200Y-43783600D03*
D49*
X129387200Y-43783600D03*
X126887200Y-43783600D03*
X124387200Y-43783600D03*
%TD*%
D21*
%TO.C,C6*%
X155625600Y-130294300D03*
X155625600Y-128569300D03*
%TD*%
D64*
%TO.C,R38*%
X84375600Y-79198969D03*
X84375600Y-82298969D03*
%TD*%
D69*
%TO.C,U14*%
X104068100Y-63071800D03*
X104068100Y-62421800D03*
X104068100Y-61771800D03*
X104068100Y-61121800D03*
D70*
X103180600Y-60234300D03*
X102530600Y-60234300D03*
X101880600Y-60234300D03*
X101230600Y-60234300D03*
D69*
X100343100Y-61121800D03*
X100343100Y-61771800D03*
X100343100Y-62421800D03*
X100343100Y-63071800D03*
D70*
X101230600Y-63959300D03*
X101880600Y-63959300D03*
X102530600Y-63959300D03*
X103180600Y-63959300D03*
D71*
X102205600Y-62096800D03*
%TD*%
D33*
%TO.C,C110*%
X121803100Y-76446800D03*
X123528100Y-76446800D03*
%TD*%
D22*
%TO.C,C108*%
X120090100Y-76454000D03*
X118365100Y-76454000D03*
%TD*%
D23*
%TO.C,R66*%
X184750700Y-114647400D03*
X182925700Y-114647400D03*
%TD*%
D72*
%TO.C,C88*%
X197108324Y-49036800D03*
X199183324Y-49036800D03*
%TD*%
D15*
%TO.C,TP25*%
X190275000Y-125200000D03*
%TD*%
D45*
%TO.C,R76*%
X178377200Y-105733900D03*
X178377200Y-107558900D03*
%TD*%
D21*
%TO.C,C4*%
X143775600Y-130199300D03*
X143775600Y-128474300D03*
%TD*%
D45*
%TO.C,R110*%
X197819809Y-82606973D03*
X197819809Y-84431973D03*
%TD*%
D15*
%TO.C,TP36*%
X168550000Y-63400000D03*
%TD*%
D36*
%TO.C,D8*%
X167250000Y-122075000D03*
X169000000Y-122075000D03*
%TD*%
D48*
%TO.C,J11*%
X155875600Y-43913396D03*
D49*
X153375600Y-43913396D03*
X150875600Y-43913396D03*
%TD*%
D73*
%TO.C,U6*%
X107225184Y-86197091D03*
X107225184Y-86847091D03*
X107225184Y-87497091D03*
X108900184Y-87497091D03*
X108900184Y-86197091D03*
%TD*%
D15*
%TO.C,TP26*%
X172230400Y-110304000D03*
%TD*%
D16*
%TO.C,R108*%
X197198310Y-99980731D03*
X197198310Y-98155731D03*
%TD*%
D33*
%TO.C,FB2*%
X118353100Y-79576800D03*
X120078100Y-79576800D03*
%TD*%
D13*
%TO.C,D39*%
X103845600Y-93736800D03*
X102095600Y-93736800D03*
%TD*%
D74*
%TO.C,J9*%
X205300183Y-111158739D03*
D49*
X202800183Y-111158739D03*
%TD*%
D33*
%TO.C,C37*%
X103408100Y-81598969D03*
X105133100Y-81598969D03*
%TD*%
D75*
%TO.C,D35*%
X163692834Y-55992285D03*
X163692834Y-53492285D03*
%TD*%
D33*
%TO.C,FB1*%
X125240842Y-78045006D03*
X126965842Y-78045006D03*
%TD*%
D21*
%TO.C,C85*%
X193465600Y-92069300D03*
X193465600Y-90344300D03*
%TD*%
D26*
%TO.C,Q20*%
X189495600Y-66666800D03*
X189495600Y-67936800D03*
X189495600Y-69206800D03*
X189495600Y-70476800D03*
D27*
X195255600Y-70476800D03*
X195255600Y-66666800D03*
D28*
X193655600Y-68571800D03*
D29*
X191840600Y-68571800D03*
D30*
X191175600Y-68571800D03*
%TD*%
D15*
%TO.C,TP21*%
X81229200Y-97586800D03*
%TD*%
%TO.C,TP14*%
X210736800Y-99425000D03*
%TD*%
D16*
%TO.C,R112*%
X197833600Y-87848500D03*
X197833600Y-86023500D03*
%TD*%
D23*
%TO.C,R68*%
X185000634Y-119862602D03*
X183175634Y-119862602D03*
%TD*%
D15*
%TO.C,TP19*%
X87870600Y-95636800D03*
%TD*%
%TO.C,TP42*%
X210736800Y-87585467D03*
%TD*%
D11*
%TO.C,D27*%
X210769200Y-70125000D03*
X210769200Y-71875000D03*
%TD*%
D22*
%TO.C,C99*%
X108162500Y-57600000D03*
X106437500Y-57600000D03*
%TD*%
D23*
%TO.C,R44*%
X105193515Y-83144225D03*
X103368515Y-83144225D03*
%TD*%
D64*
%TO.C,R40*%
X84368414Y-89293090D03*
X84368414Y-92393090D03*
%TD*%
D11*
%TO.C,D37*%
X184219200Y-58425800D03*
X184219200Y-60175800D03*
%TD*%
D33*
%TO.C,C103*%
X121794100Y-78028800D03*
X123519100Y-78028800D03*
%TD*%
D16*
%TO.C,R45*%
X110870600Y-85098969D03*
X110870600Y-83273969D03*
%TD*%
D32*
%TO.C,D18*%
X183900600Y-107286800D03*
X183900600Y-102986800D03*
%TD*%
D76*
%TO.C,D12*%
X74600000Y-52290000D03*
D77*
X74600000Y-45890000D03*
%TD*%
D21*
%TO.C,C78*%
X197800000Y-68787500D03*
X197800000Y-67062500D03*
%TD*%
D37*
%TO.C,D10*%
X174719600Y-127130200D03*
X174719600Y-125380200D03*
%TD*%
D25*
%TO.C,R60*%
X113761500Y-83126000D03*
X115586500Y-83126000D03*
%TD*%
D37*
%TO.C,D13*%
X127355600Y-98665000D03*
X127355600Y-96915000D03*
%TD*%
D78*
%TO.C,U5*%
X91620600Y-81053969D03*
X91620600Y-82323969D03*
X91620600Y-83593969D03*
X91620600Y-84863969D03*
X91620600Y-86133969D03*
X91620600Y-87403969D03*
X91620600Y-88673969D03*
X91620600Y-89943969D03*
X100920600Y-89943969D03*
X100920600Y-88673969D03*
X100920600Y-87403969D03*
X100920600Y-86133969D03*
X100920600Y-84863969D03*
X100920600Y-83593969D03*
X100920600Y-82323969D03*
X100920600Y-81053969D03*
%TD*%
D79*
%TO.C,Reset1*%
X149135436Y-65120025D03*
X149135436Y-69620025D03*
X151285436Y-65120025D03*
X151285436Y-69620025D03*
%TD*%
D12*
%TO.C,C117*%
X165582834Y-53889785D03*
X165582834Y-55614785D03*
%TD*%
D45*
%TO.C,R78*%
X138575600Y-105824300D03*
X138575600Y-107649300D03*
%TD*%
D80*
%TO.C,U3*%
X196625601Y-126236800D03*
X195675600Y-126236800D03*
X194725602Y-126236800D03*
X194725602Y-128786800D03*
X196625601Y-128786800D03*
%TD*%
D12*
%TO.C,C59*%
X178377200Y-102329500D03*
X178377200Y-104054500D03*
%TD*%
D81*
%TO.C,IC9*%
X112621797Y-55886038D03*
X112621797Y-54616038D03*
X112621797Y-53346038D03*
X112621797Y-52076038D03*
X107199797Y-52076038D03*
X107199797Y-53346038D03*
X107199797Y-54616038D03*
X107199797Y-55886038D03*
%TD*%
D26*
%TO.C,Q5*%
X155625600Y-137036800D03*
X155625600Y-135766800D03*
X155625600Y-134496800D03*
X155625600Y-133226800D03*
D27*
X149865600Y-133226800D03*
X149865600Y-137036800D03*
D28*
X151465600Y-135131800D03*
D29*
X153280600Y-135131800D03*
D30*
X153945600Y-135131800D03*
%TD*%
D82*
%TO.C,U11*%
X195275584Y-52103952D03*
X195275584Y-51153951D03*
X195275584Y-50203950D03*
X192575600Y-50203950D03*
X192575600Y-51153951D03*
X192575600Y-52103952D03*
%TD*%
D12*
%TO.C,C82*%
X193954400Y-98197500D03*
X193954400Y-99922500D03*
%TD*%
D22*
%TO.C,C41*%
X113287645Y-76644555D03*
X111562645Y-76644555D03*
%TD*%
D11*
%TO.C,D23*%
X176050000Y-91000000D03*
X176050000Y-92750000D03*
%TD*%
D45*
%TO.C,R83*%
X179675634Y-114450102D03*
X179675634Y-116275102D03*
%TD*%
%TO.C,R99*%
X196157200Y-85972700D03*
X196157200Y-87797700D03*
%TD*%
D72*
%TO.C,C96*%
X114583300Y-52171600D03*
X116658300Y-52171600D03*
%TD*%
D51*
%TO.C,C91*%
X179501850Y-52736800D03*
X176376850Y-52736800D03*
%TD*%
D45*
%TO.C,R42*%
X86861500Y-88124300D03*
X86861500Y-89949300D03*
%TD*%
D11*
%TO.C,D42*%
X176475634Y-114487502D03*
X176475634Y-116237502D03*
%TD*%
D21*
%TO.C,C8*%
X163950000Y-130419700D03*
X163950000Y-128694700D03*
%TD*%
D83*
%TO.C,C46*%
X74066400Y-80618000D03*
X74066400Y-93118000D03*
%TD*%
D12*
%TO.C,C68*%
X157350600Y-102374300D03*
X157350600Y-104099300D03*
%TD*%
D84*
%TO.C,H1*%
X208584800Y-43586400D03*
D85*
X208584800Y-43586400D03*
%TD*%
D39*
%TO.C,C42*%
X108963355Y-88983796D03*
X106888355Y-88983796D03*
%TD*%
D15*
%TO.C,TP31*%
X132675000Y-141575000D03*
%TD*%
D86*
%TO.C,Y1*%
X109925600Y-68310400D03*
X109925600Y-64210400D03*
%TD*%
D15*
%TO.C,TP34*%
X156325000Y-66650000D03*
%TD*%
D21*
%TO.C,C87*%
X192328800Y-99922500D03*
X192328800Y-98197500D03*
%TD*%
D12*
%TO.C,C114*%
X165622834Y-57719785D03*
X165622834Y-59444785D03*
%TD*%
D22*
%TO.C,C44*%
X113301300Y-75074200D03*
X111576300Y-75074200D03*
%TD*%
D23*
%TO.C,R49*%
X108895600Y-82543969D03*
X107070600Y-82543969D03*
%TD*%
D26*
%TO.C,Q18*%
X156184400Y-99458200D03*
X156184400Y-98188200D03*
X156184400Y-96918200D03*
X156184400Y-95648200D03*
D27*
X150424400Y-95648200D03*
X150424400Y-99458200D03*
D28*
X152024400Y-97553200D03*
D29*
X153839400Y-97553200D03*
D30*
X154504400Y-97553200D03*
%TD*%
D26*
%TO.C,Q9*%
X179125600Y-133294300D03*
X179125600Y-134564300D03*
X179125600Y-135834300D03*
X179125600Y-137104300D03*
D27*
X184885600Y-137104300D03*
X184885600Y-133294300D03*
D28*
X183285600Y-135199300D03*
D29*
X181470600Y-135199300D03*
D30*
X180805600Y-135199300D03*
%TD*%
D15*
%TO.C,TP20*%
X123240800Y-92202000D03*
%TD*%
D26*
%TO.C,Q4*%
X138625600Y-133133634D03*
X138625600Y-134403634D03*
X138625600Y-135673634D03*
X138625600Y-136943634D03*
D27*
X144385600Y-136943634D03*
X144385600Y-133133634D03*
D28*
X142785600Y-135038634D03*
D29*
X140970600Y-135038634D03*
D30*
X140305600Y-135038634D03*
%TD*%
D45*
%TO.C,R106*%
X190893651Y-82574181D03*
X190893651Y-84399181D03*
%TD*%
D74*
%TO.C,J8*%
X101513437Y-43777784D03*
D49*
X99013437Y-43777784D03*
%TD*%
D33*
%TO.C,C105*%
X121794100Y-79578200D03*
X123519100Y-79578200D03*
%TD*%
%TO.C,C39*%
X97504700Y-72483400D03*
X99229700Y-72483400D03*
%TD*%
D15*
%TO.C,TP9*%
X170100450Y-141575000D03*
%TD*%
D17*
%TO.C,J6*%
X112148600Y-95978400D03*
D18*
X117148600Y-95978400D03*
%TD*%
D87*
%TO.C,R28*%
X168877600Y-119686800D03*
X168877600Y-113586800D03*
%TD*%
D45*
%TO.C,R14*%
X178072400Y-125342700D03*
X178072400Y-127167700D03*
%TD*%
D25*
%TO.C,R61*%
X174873900Y-112691600D03*
X176698900Y-112691600D03*
%TD*%
D65*
%TO.C,IC3*%
X183822600Y-127593600D03*
X183172600Y-127593600D03*
X182522600Y-127593600D03*
X181872600Y-127593600D03*
X181872600Y-129793600D03*
X182522600Y-129793600D03*
X183172600Y-129793600D03*
X183822600Y-129793600D03*
%TD*%
D19*
%TO.C,TP51*%
X123596400Y-47396400D03*
%TD*%
D65*
%TO.C,IC4*%
X172240697Y-105180720D03*
X172890697Y-105180720D03*
X173540697Y-105180720D03*
X174190697Y-105180720D03*
X174190697Y-102980720D03*
X173540697Y-102980720D03*
X172890697Y-102980720D03*
X172240697Y-102980720D03*
%TD*%
D15*
%TO.C,TP12*%
X190275000Y-129500000D03*
%TD*%
D88*
%TO.C,D36*%
X105425200Y-50225200D03*
X107325200Y-50225200D03*
X106375200Y-48225200D03*
%TD*%
D45*
%TO.C,R80*%
X158943323Y-105716991D03*
X158943323Y-107541991D03*
%TD*%
D65*
%TO.C,IC7*%
X190934600Y-59115200D03*
X190284600Y-59115200D03*
X189634600Y-59115200D03*
X188984600Y-59115200D03*
X188984600Y-61315200D03*
X189634600Y-61315200D03*
X190284600Y-61315200D03*
X190934600Y-61315200D03*
%TD*%
D89*
%TO.C,SW1*%
X150278470Y-55415896D03*
X147778470Y-60915896D03*
X145278470Y-55415896D03*
%TD*%
D90*
%TO.C,L1*%
X150489299Y-119148557D03*
X150489299Y-115108557D03*
%TD*%
D12*
%TO.C,C22*%
X160952800Y-114674300D03*
X160952800Y-116399300D03*
%TD*%
D65*
%TO.C,IC1*%
X141350600Y-127436800D03*
X140700600Y-127436800D03*
X140050600Y-127436800D03*
X139400600Y-127436800D03*
X139400600Y-129636800D03*
X140050600Y-129636800D03*
X140700600Y-129636800D03*
X141350600Y-129636800D03*
%TD*%
D45*
%TO.C,R120*%
X105250600Y-53790900D03*
X105250600Y-55615900D03*
%TD*%
D84*
%TO.C,H2*%
X208584800Y-140055600D03*
D85*
X208584800Y-140055600D03*
%TD*%
D33*
%TO.C,C97*%
X109119500Y-50393600D03*
X110844500Y-50393600D03*
%TD*%
D12*
%TO.C,C20*%
X165854881Y-114690065D03*
X165854881Y-116415065D03*
%TD*%
D91*
%TO.C,U8*%
X100075600Y-96711800D03*
D92*
X100075600Y-94171800D03*
X92455600Y-94171800D03*
X92455600Y-96711800D03*
%TD*%
D14*
%TO.C,F9*%
X203448800Y-84527000D03*
X206848800Y-84527000D03*
X203448800Y-71057000D03*
X206848800Y-71057000D03*
%TD*%
D17*
%TO.C,J2*%
X191500000Y-118482800D03*
D18*
X196500000Y-118482800D03*
%TD*%
D45*
%TO.C,R114*%
X189077600Y-98147500D03*
X189077600Y-99972500D03*
%TD*%
D93*
%TO.C,D31*%
X195404200Y-105351000D03*
X199704200Y-105351000D03*
%TD*%
D26*
%TO.C,Q3*%
X135375600Y-136941800D03*
X135375600Y-135671800D03*
X135375600Y-134401800D03*
X135375600Y-133131800D03*
D27*
X129615600Y-133131800D03*
X129615600Y-136941800D03*
D28*
X131215600Y-135036800D03*
D29*
X133030600Y-135036800D03*
D30*
X133695600Y-135036800D03*
%TD*%
D94*
%TO.C,J12*%
X131420202Y-53266799D03*
X135670201Y-53266799D03*
X131420202Y-55266801D03*
X135670201Y-55266801D03*
%TD*%
D21*
%TO.C,C31*%
X198275600Y-128461801D03*
X198275600Y-126736801D03*
%TD*%
D45*
%TO.C,R84*%
X178075634Y-114450102D03*
X178075634Y-116275102D03*
%TD*%
D12*
%TO.C,C32*%
X87070600Y-81021469D03*
X87070600Y-82746469D03*
%TD*%
D21*
%TO.C,C34*%
X87061500Y-86124547D03*
X87061500Y-84399547D03*
%TD*%
D26*
%TO.C,Q13*%
X179150601Y-95631800D03*
X179150601Y-96901800D03*
X179150601Y-98171800D03*
X179150601Y-99441800D03*
D27*
X184910601Y-99441800D03*
X184910601Y-95631800D03*
D28*
X183310601Y-97536800D03*
D29*
X181495601Y-97536800D03*
D30*
X180830601Y-97536800D03*
%TD*%
D33*
%TO.C,C104*%
X130793100Y-66006800D03*
X132518100Y-66006800D03*
%TD*%
D72*
%TO.C,C43*%
X107112684Y-84396905D03*
X109187684Y-84396905D03*
%TD*%
D37*
%TO.C,D49*%
X171285600Y-55431800D03*
X171285600Y-53681800D03*
%TD*%
D25*
%TO.C,R144*%
X179363134Y-118162602D03*
X181188134Y-118162602D03*
%TD*%
D22*
%TO.C,C86*%
X132528100Y-69986800D03*
X130803100Y-69986800D03*
%TD*%
D45*
%TO.C,R37*%
X198075600Y-122999301D03*
X198075600Y-124824301D03*
%TD*%
D95*
%TO.C,D43*%
X145130436Y-64590025D03*
X143030436Y-64590025D03*
%TD*%
D15*
%TO.C,TP30*%
X185700000Y-111350000D03*
%TD*%
D96*
%TO.C,L2*%
X189248000Y-49242400D03*
X182848000Y-49242400D03*
%TD*%
D97*
%TO.C,F4*%
X68400000Y-62907600D03*
X92530000Y-62907600D03*
%TD*%
D84*
%TO.C,H3*%
X64719200Y-43586400D03*
D85*
X64719200Y-43586400D03*
%TD*%
D98*
%TO.C,C70*%
X168320860Y-79239796D03*
X176720860Y-79239796D03*
%TD*%
D36*
%TO.C,D41*%
X116250600Y-55136800D03*
X118000600Y-55136800D03*
%TD*%
D45*
%TO.C,R55*%
X103870600Y-95326800D03*
X103870600Y-97151800D03*
%TD*%
D12*
%TO.C,C98*%
X114597800Y-54704500D03*
X114597800Y-56429500D03*
%TD*%
D21*
%TO.C,C3*%
X136975600Y-130199300D03*
X136975600Y-128474300D03*
%TD*%
D39*
%TO.C,C102*%
X110682300Y-72762800D03*
X108607300Y-72762800D03*
%TD*%
%TO.C,C17*%
X154013100Y-112236800D03*
X151938100Y-112236800D03*
%TD*%
D99*
%TO.C,D3*%
X181762000Y-123207200D03*
X185762000Y-123207200D03*
%TD*%
D65*
%TO.C,IC2*%
X161600600Y-127531800D03*
X160950600Y-127531800D03*
X160300600Y-127531800D03*
X159650600Y-127531800D03*
X159650600Y-129731800D03*
X160300600Y-129731800D03*
X160950600Y-129731800D03*
X161600600Y-129731800D03*
%TD*%
D32*
%TO.C,D22*%
X163700600Y-107286800D03*
X163700600Y-102986800D03*
%TD*%
D21*
%TO.C,C35*%
X88647384Y-86124547D03*
X88647384Y-84399547D03*
%TD*%
D23*
%TO.C,R47*%
X105176294Y-89396660D03*
X103351294Y-89396660D03*
%TD*%
D45*
%TO.C,R115*%
X190703200Y-98147500D03*
X190703200Y-99972500D03*
%TD*%
D22*
%TO.C,C115*%
X169098100Y-53646800D03*
X167373100Y-53646800D03*
%TD*%
D100*
%TO.C,U13*%
X113225600Y-60536799D03*
X113225600Y-61036801D03*
X113225600Y-61536800D03*
X113225600Y-62036799D03*
X113225600Y-62536800D03*
X113225600Y-63036799D03*
X113225600Y-63536801D03*
X113225600Y-64036800D03*
X113225600Y-64536799D03*
X113225600Y-65036800D03*
X113225600Y-65536799D03*
X113225600Y-66036798D03*
X113225600Y-66536800D03*
X113225600Y-67036799D03*
X113225600Y-67536801D03*
X113225600Y-68036800D03*
X113225600Y-68536799D03*
X113225600Y-69036800D03*
X113225600Y-69536799D03*
X113225600Y-70036801D03*
X113225600Y-70536800D03*
X113225600Y-71036799D03*
X113225600Y-71536800D03*
X113225600Y-72036799D03*
X113225600Y-72536801D03*
D101*
X114975599Y-74286800D03*
X115475601Y-74286800D03*
X115975600Y-74286800D03*
X116475599Y-74286800D03*
X116975600Y-74286800D03*
X117475599Y-74286800D03*
X117975601Y-74286800D03*
X118475600Y-74286800D03*
X118975599Y-74286800D03*
X119475600Y-74286800D03*
X119975599Y-74286800D03*
X120475601Y-74286800D03*
X120975600Y-74286800D03*
X121475599Y-74286800D03*
X121975601Y-74286800D03*
X122475600Y-74286800D03*
X122975601Y-74286800D03*
X123475600Y-74286800D03*
X123975599Y-74286800D03*
X124475601Y-74286800D03*
X124975600Y-74286800D03*
X125475601Y-74286800D03*
X125975600Y-74286800D03*
X126475599Y-74286800D03*
X126975601Y-74286800D03*
D100*
X128725600Y-72536801D03*
X128725600Y-72036799D03*
X128725600Y-71536800D03*
X128725600Y-71036801D03*
X128725600Y-70536800D03*
X128725600Y-70036801D03*
X128725600Y-69536799D03*
X128725600Y-69036800D03*
X128725600Y-68536801D03*
X128725600Y-68036800D03*
X128725600Y-67536801D03*
X128725600Y-67036799D03*
X128725600Y-66536800D03*
X128725600Y-66036801D03*
X128725600Y-65536799D03*
X128725600Y-65036800D03*
X128725600Y-64536799D03*
X128725600Y-64036800D03*
X128725600Y-63536801D03*
X128725600Y-63036799D03*
X128725600Y-62536800D03*
X128725600Y-62036799D03*
X128725600Y-61536800D03*
X128725600Y-61036801D03*
X128725600Y-60536799D03*
D101*
X126975601Y-58786800D03*
X126475599Y-58786800D03*
X125975600Y-58786800D03*
X125475601Y-58786800D03*
X124975600Y-58786800D03*
X124475601Y-58786800D03*
X123975599Y-58786800D03*
X123475600Y-58786800D03*
X122975601Y-58786800D03*
X122475600Y-58786800D03*
X121975601Y-58786800D03*
X121475599Y-58786800D03*
X120975600Y-58786800D03*
X120475601Y-58786800D03*
X119975599Y-58786800D03*
X119475600Y-58786800D03*
X118975599Y-58786800D03*
X118475600Y-58786800D03*
X117975601Y-58786800D03*
X117475599Y-58786800D03*
X116975600Y-58786800D03*
X116475599Y-58786800D03*
X115975600Y-58786800D03*
X115475601Y-58786800D03*
X114975599Y-58786800D03*
%TD*%
D33*
%TO.C,C38*%
X103420658Y-84736800D03*
X105145658Y-84736800D03*
%TD*%
D102*
%TO.C,Q10*%
X183150634Y-116200102D03*
X183150634Y-118100102D03*
X185025634Y-117150102D03*
%TD*%
D36*
%TO.C,D15*%
X172850600Y-64186800D03*
X174600600Y-64186800D03*
%TD*%
D12*
%TO.C,C61*%
X169842800Y-102329500D03*
X169842800Y-104054500D03*
%TD*%
D15*
%TO.C,TP38*%
X210736800Y-75745933D03*
%TD*%
D21*
%TO.C,C73*%
X165780860Y-76586993D03*
X165780860Y-74861993D03*
%TD*%
D15*
%TO.C,TP35*%
X196621400Y-60045600D03*
%TD*%
D16*
%TO.C,R128*%
X146720436Y-70252525D03*
X146720436Y-68427525D03*
%TD*%
D22*
%TO.C,C90*%
X194327300Y-54017600D03*
X192602300Y-54017600D03*
%TD*%
D45*
%TO.C,R102*%
X192652000Y-82569100D03*
X192652000Y-84394100D03*
%TD*%
D12*
%TO.C,C60*%
X176650000Y-102329500D03*
X176650000Y-104054500D03*
%TD*%
D22*
%TO.C,C109*%
X113479100Y-58411800D03*
X111754100Y-58411800D03*
%TD*%
D25*
%TO.C,R59*%
X118487800Y-83126000D03*
X120312800Y-83126000D03*
%TD*%
D12*
%TO.C,C19*%
X154934535Y-114659611D03*
X154934535Y-116384611D03*
%TD*%
D16*
%TO.C,R75*%
X176650000Y-107558900D03*
X176650000Y-105733900D03*
%TD*%
%TO.C,R79*%
X157331295Y-107558267D03*
X157331295Y-105733267D03*
%TD*%
%TO.C,R11*%
X155587748Y-126949300D03*
X155587748Y-125124300D03*
%TD*%
M02*
