%TF.GenerationSoftware,KiCad,Pcbnew,10.0.3*%
%TF.CreationDate,2026-09-19T16:40:12-05:00*%
%TF.ProjectId,PS-LVCarrier,50532d4c-5643-4617-9272-6965722e6b69,rev?*%
%TF.SameCoordinates,Original*%
%TF.FileFunction,Soldermask,Bot*%
%TF.FilePolarity,Negative*%
%FSLAX46Y46*%
G04 Gerber Fmt 4.6, Leading zero omitted, Abs format (unit mm)*
G04 Created by KiCad (PCBNEW 10.0.3) date 2026-09-19 16:40:12*
%MOMM*%
%LPD*%
G01*
G04 APERTURE LIST*
G04 Aperture macros list*
%AMRoundRect*
0 Rectangle with rounded corners*
0 $1 Rounding radius*
0 $2 $3 $4 $5 $6 $7 $8 $9 X,Y pos of 4 corners*
0 Add a 4 corners polygon primitive as box body*
4,1,4,$2,$3,$4,$5,$6,$7,$8,$9,$2,$3,0*
0 Add four circle primitives for the rounded corners*
1,1,$1+$1,$2,$3*
1,1,$1+$1,$4,$5*
1,1,$1+$1,$6,$7*
1,1,$1+$1,$8,$9*
0 Add four rect primitives between the rounded corners*
20,1,$1+$1,$2,$3,$4,$5,0*
20,1,$1+$1,$4,$5,$6,$7,0*
20,1,$1+$1,$6,$7,$8,$9,0*
20,1,$1+$1,$8,$9,$2,$3,0*%
%AMFreePoly0*
4,1,22,0.945671,0.830970,1.026777,0.776777,1.080970,0.695671,1.100000,0.600000,1.100000,-0.600000,1.080970,-0.695671,1.026777,-0.776777,0.945671,-0.830970,0.850000,-0.850000,-0.850000,-0.850000,-0.945671,-0.830970,-1.026777,-0.776777,-1.080970,-0.695671,-1.100000,-0.600000,-1.100000,0.346447,-1.080970,0.442118,-1.026777,0.523224,-0.773224,0.776777,-0.692118,0.830970,-0.596447,0.850000,
0.850000,0.850000,0.945671,0.830970,0.945671,0.830970,$1*%
%AMFreePoly1*
4,1,22,0.945671,0.830970,1.026777,0.776777,1.080970,0.695671,1.100000,0.600000,1.100000,-0.600000,1.080970,-0.695671,1.026777,-0.776777,0.945671,-0.830970,0.850000,-0.850000,-0.850000,-0.850000,-0.945671,-0.830970,-1.026777,-0.776777,-1.080970,-0.695671,-1.100000,-0.600000,-1.100000,0.200000,-1.080970,0.295671,-1.026777,0.376777,-0.626777,0.776777,-0.545671,0.830970,-0.450000,0.850000,
0.850000,0.850000,0.945671,0.830970,0.945671,0.830970,$1*%
G04 Aperture macros list end*
%ADD10C,2.400000*%
%ADD11C,2.000000*%
%ADD12R,3.000000X3.000000*%
%ADD13C,3.000000*%
%ADD14R,0.850000X0.850000*%
%ADD15C,0.850000*%
%ADD16C,2.700000*%
%ADD17C,6.000000*%
%ADD18C,1.300000*%
%ADD19FreePoly0,90.000000*%
%ADD20O,1.700000X2.200000*%
%ADD21C,0.650000*%
%ADD22O,1.000000X2.100000*%
%ADD23O,1.000000X1.800000*%
%ADD24R,1.700000X1.700000*%
%ADD25C,1.700000*%
%ADD26RoundRect,0.250000X0.600000X-0.850000X0.600000X0.850000X-0.600000X0.850000X-0.600000X-0.850000X0*%
%ADD27FreePoly1,90.000000*%
%ADD28C,3.600000*%
%ADD29C,5.600000*%
%ADD30RoundRect,0.250000X0.550000X0.550000X-0.550000X0.550000X-0.550000X-0.550000X0.550000X-0.550000X0*%
%ADD31C,1.600000*%
%ADD32C,1.905000*%
%ADD33RoundRect,0.237500X0.250000X0.237500X-0.250000X0.237500X-0.250000X-0.237500X0.250000X-0.237500X0*%
%ADD34RoundRect,0.250000X-0.650000X0.412500X-0.650000X-0.412500X0.650000X-0.412500X0.650000X0.412500X0*%
%ADD35RoundRect,0.237500X0.237500X-0.250000X0.237500X0.250000X-0.237500X0.250000X-0.237500X-0.250000X0*%
%ADD36RoundRect,0.237500X-0.300000X-0.237500X0.300000X-0.237500X0.300000X0.237500X-0.300000X0.237500X0*%
%ADD37RoundRect,0.250000X0.650000X-0.412500X0.650000X0.412500X-0.650000X0.412500X-0.650000X-0.412500X0*%
%ADD38RoundRect,0.237500X-0.237500X0.250000X-0.237500X-0.250000X0.237500X-0.250000X0.237500X0.250000X0*%
%ADD39RoundRect,0.237500X-0.250000X-0.237500X0.250000X-0.237500X0.250000X0.237500X-0.250000X0.237500X0*%
%ADD40RoundRect,0.237500X-0.237500X0.300000X-0.237500X-0.300000X0.237500X-0.300000X0.237500X0.300000X0*%
%ADD41R,1.670000X1.970000*%
%ADD42RoundRect,0.237500X0.300000X0.237500X-0.300000X0.237500X-0.300000X-0.237500X0.300000X-0.237500X0*%
%ADD43RoundRect,0.237500X0.237500X-0.300000X0.237500X0.300000X-0.237500X0.300000X-0.237500X-0.300000X0*%
%ADD44RoundRect,0.150000X0.587500X0.150000X-0.587500X0.150000X-0.587500X-0.150000X0.587500X-0.150000X0*%
%ADD45RoundRect,0.250000X-0.475000X0.337500X-0.475000X-0.337500X0.475000X-0.337500X0.475000X0.337500X0*%
%ADD46RoundRect,0.250000X0.475000X-0.337500X0.475000X0.337500X-0.475000X0.337500X-0.475000X-0.337500X0*%
%ADD47RoundRect,0.150000X-0.150000X0.587500X-0.150000X-0.587500X0.150000X-0.587500X0.150000X0.587500X0*%
G04 APERTURE END LIST*
D10*
%TO.C,F3*%
X128951800Y-88165200D03*
X128951800Y-91565200D03*
X142421800Y-88165200D03*
X142421800Y-91565200D03*
%TD*%
D11*
%TO.C,TP15*%
X182575600Y-141575000D03*
%TD*%
%TO.C,TP44*%
X156300000Y-70675000D03*
%TD*%
D12*
%TO.C,J3*%
X192013200Y-135958000D03*
D13*
X197013200Y-135958000D03*
%TD*%
D14*
%TO.C,J16*%
X174414800Y-115977600D03*
D15*
X174414800Y-114977600D03*
%TD*%
D11*
%TO.C,TP16*%
X195300000Y-141625000D03*
%TD*%
%TO.C,TP6*%
X148425000Y-107625000D03*
%TD*%
D12*
%TO.C,J10*%
X191657600Y-76454000D03*
D13*
X196657600Y-76454000D03*
%TD*%
D11*
%TO.C,TP29*%
X149800000Y-88050000D03*
%TD*%
%TO.C,TP43*%
X194325000Y-44475000D03*
%TD*%
%TO.C,TP3*%
X134282800Y-108576800D03*
%TD*%
%TO.C,TP45*%
X159775000Y-48326800D03*
%TD*%
D10*
%TO.C,F7*%
X206830400Y-50313400D03*
X203430400Y-50313400D03*
X206830400Y-63783400D03*
X203430400Y-63783400D03*
%TD*%
D11*
%TO.C,U7*%
X70526855Y-119036010D03*
X70526855Y-128531010D03*
X70526855Y-132371010D03*
D16*
X120226855Y-129831010D03*
D11*
X120226855Y-126021010D03*
X120226855Y-122211010D03*
X120226855Y-118401010D03*
D16*
X120226855Y-114591010D03*
D17*
X70526855Y-108211010D03*
%TD*%
D11*
%TO.C,TP2*%
X157625300Y-141575000D03*
%TD*%
%TO.C,TP7*%
X142240000Y-121310400D03*
%TD*%
D18*
%TO.C,J18*%
X164925600Y-45253396D03*
D19*
X168675600Y-43913396D03*
D20*
X166175600Y-43913396D03*
X163675600Y-43913396D03*
%TD*%
D21*
%TO.C,J17*%
X144090000Y-44580000D03*
X138310000Y-44580000D03*
D22*
X145520000Y-45080000D03*
X136880000Y-45080000D03*
D23*
X136880000Y-40900000D03*
X145520000Y-40900000D03*
%TD*%
D10*
%TO.C,F2*%
X203430400Y-133328600D03*
X206830400Y-133328600D03*
X203430400Y-119858600D03*
X206830400Y-119858600D03*
%TD*%
D11*
%TO.C,TP13*%
X78181200Y-72085200D03*
%TD*%
D10*
%TO.C,F1*%
X171548600Y-91480800D03*
X171548600Y-88080800D03*
X158078600Y-91480800D03*
X158078600Y-88080800D03*
%TD*%
D14*
%TO.C,TP52*%
X117449600Y-47396400D03*
%TD*%
D10*
%TO.C,F10*%
X206825600Y-91711800D03*
X203425600Y-91711800D03*
X206825600Y-105181800D03*
X203425600Y-105181800D03*
%TD*%
D11*
%TO.C,TP39*%
X210736800Y-63906400D03*
%TD*%
D24*
%TO.C,JP1*%
X99720400Y-54627200D03*
D25*
X99720400Y-52087200D03*
%TD*%
D11*
%TO.C,TP33*%
X138600800Y-66616000D03*
%TD*%
%TO.C,TP37*%
X191275000Y-103150000D03*
%TD*%
D14*
%TO.C,J4*%
X147938600Y-112322200D03*
D15*
X148938600Y-112322200D03*
X149938600Y-112322200D03*
%TD*%
D24*
%TO.C,J13*%
X139185600Y-49706800D03*
D25*
X139185600Y-52246800D03*
X139185600Y-54786800D03*
X139185600Y-57326800D03*
%TD*%
D11*
%TO.C,TP32*%
X145150150Y-141575000D03*
%TD*%
D18*
%TO.C,J14*%
X112846400Y-45123600D03*
D26*
X116596400Y-43783600D03*
D20*
X114096400Y-43783600D03*
X111596400Y-43783600D03*
X109096400Y-43783600D03*
%TD*%
D12*
%TO.C,J1*%
X182372000Y-82804000D03*
D13*
X182372000Y-87804000D03*
%TD*%
D12*
%TO.C,J5*%
X88900000Y-49445600D03*
D13*
X83900000Y-49445600D03*
%TD*%
D11*
%TO.C,TP4*%
X142240000Y-113157000D03*
%TD*%
%TO.C,TP8*%
X142240000Y-117246400D03*
%TD*%
D18*
%TO.C,J15*%
X128137200Y-45123600D03*
D26*
X131887200Y-43783600D03*
D20*
X129387200Y-43783600D03*
X126887200Y-43783600D03*
X124387200Y-43783600D03*
%TD*%
D11*
%TO.C,TP25*%
X190275000Y-125200000D03*
%TD*%
%TO.C,TP36*%
X168550000Y-63400000D03*
%TD*%
D18*
%TO.C,J11*%
X152125600Y-45253396D03*
D19*
X155875600Y-43913396D03*
D20*
X153375600Y-43913396D03*
X150875600Y-43913396D03*
%TD*%
D11*
%TO.C,TP26*%
X172230400Y-110304000D03*
%TD*%
D18*
%TO.C,J9*%
X204050183Y-112498739D03*
D27*
X205300183Y-111158739D03*
D20*
X202800183Y-111158739D03*
%TD*%
D11*
%TO.C,TP21*%
X81229200Y-97586800D03*
%TD*%
%TO.C,TP14*%
X210736800Y-99425000D03*
%TD*%
%TO.C,TP19*%
X87870600Y-95636800D03*
%TD*%
%TO.C,TP42*%
X210736800Y-87585467D03*
%TD*%
D28*
%TO.C,H1*%
X208584800Y-43586400D03*
D29*
X208584800Y-43586400D03*
%TD*%
D11*
%TO.C,TP31*%
X132675000Y-141575000D03*
%TD*%
%TO.C,TP34*%
X156325000Y-66650000D03*
%TD*%
%TO.C,TP20*%
X123240800Y-92202000D03*
%TD*%
D18*
%TO.C,J8*%
X100263437Y-45117784D03*
D27*
X101513437Y-43777784D03*
D20*
X99013437Y-43777784D03*
%TD*%
D11*
%TO.C,TP9*%
X170100450Y-141575000D03*
%TD*%
D12*
%TO.C,J6*%
X112148600Y-95978400D03*
D13*
X117148600Y-95978400D03*
%TD*%
D14*
%TO.C,TP51*%
X123596400Y-47396400D03*
%TD*%
D11*
%TO.C,TP12*%
X190275000Y-129500000D03*
%TD*%
D28*
%TO.C,H2*%
X208584800Y-140055600D03*
D29*
X208584800Y-140055600D03*
%TD*%
D30*
%TO.C,U8*%
X100075600Y-96711800D03*
D31*
X100075600Y-94171800D03*
X92455600Y-94171800D03*
X92455600Y-96711800D03*
%TD*%
D10*
%TO.C,F9*%
X203448800Y-84527000D03*
X206848800Y-84527000D03*
X203448800Y-71057000D03*
X206848800Y-71057000D03*
%TD*%
D12*
%TO.C,J2*%
X196556000Y-118482800D03*
D13*
X191556000Y-118482800D03*
%TD*%
D11*
%TO.C,TP30*%
X185700000Y-111350000D03*
%TD*%
D32*
%TO.C,F4*%
X68400000Y-62907600D03*
X92530000Y-62907600D03*
%TD*%
D28*
%TO.C,H3*%
X64719200Y-43586400D03*
D29*
X64719200Y-43586400D03*
%TD*%
D11*
%TO.C,TP38*%
X210736800Y-75745933D03*
%TD*%
%TO.C,TP35*%
X196621400Y-60045600D03*
%TD*%
D33*
%TO.C,R131*%
X102634400Y-76268000D03*
X100809400Y-76268000D03*
%TD*%
%TO.C,R132*%
X102634400Y-74701052D03*
X100809400Y-74701052D03*
%TD*%
D34*
%TO.C,C66*%
X160550600Y-101674300D03*
X160550600Y-104799300D03*
%TD*%
D35*
%TO.C,R34*%
X193849622Y-109118979D03*
X193849622Y-107293979D03*
%TD*%
%TO.C,R140*%
X100615600Y-67479300D03*
X100615600Y-65654300D03*
%TD*%
D33*
%TO.C,R12*%
X153412500Y-121125000D03*
X151587500Y-121125000D03*
%TD*%
D36*
%TO.C,C30*%
X191346466Y-80865400D03*
X193071466Y-80865400D03*
%TD*%
D35*
%TO.C,R4*%
X170605600Y-56709300D03*
X170605600Y-54884300D03*
%TD*%
%TO.C,R142*%
X98945600Y-67459300D03*
X98945600Y-65634300D03*
%TD*%
D37*
%TO.C,C5*%
X154025600Y-130994300D03*
X154025600Y-127869300D03*
%TD*%
D38*
%TO.C,R136*%
X126475600Y-47500896D03*
X126475600Y-49325896D03*
%TD*%
D35*
%TO.C,R1*%
X166345600Y-104919300D03*
X166345600Y-103094300D03*
%TD*%
D33*
%TO.C,R87*%
X164613100Y-105136800D03*
X162788100Y-105136800D03*
%TD*%
%TO.C,R137*%
X108100500Y-45669200D03*
X106275500Y-45669200D03*
%TD*%
D39*
%TO.C,R88*%
X172892700Y-93692400D03*
X174717700Y-93692400D03*
%TD*%
D33*
%TO.C,R122*%
X189468100Y-58006800D03*
X187643100Y-58006800D03*
%TD*%
D39*
%TO.C,R33*%
X190418700Y-107433800D03*
X192243700Y-107433800D03*
%TD*%
D35*
%TO.C,R56*%
X125925000Y-98651700D03*
X125925000Y-96826700D03*
%TD*%
D33*
%TO.C,R13*%
X162932100Y-109846800D03*
X161107100Y-109846800D03*
%TD*%
D39*
%TO.C,R95*%
X204763100Y-61256600D03*
X206588100Y-61256600D03*
%TD*%
%TO.C,R31*%
X170173100Y-127599300D03*
X171998100Y-127599300D03*
%TD*%
%TO.C,R129*%
X128814875Y-55847861D03*
X130639875Y-55847861D03*
%TD*%
D35*
%TO.C,R138*%
X128975600Y-49290621D03*
X128975600Y-47465621D03*
%TD*%
D40*
%TO.C,C119*%
X155415600Y-122090700D03*
X155415600Y-123815700D03*
%TD*%
D41*
%TO.C,D50*%
X132029200Y-46184200D03*
X132029200Y-50234200D03*
%TD*%
D39*
%TO.C,R126*%
X116213100Y-56708200D03*
X118038100Y-56708200D03*
%TD*%
D42*
%TO.C,C50*%
X117194500Y-113995200D03*
X115469500Y-113995200D03*
%TD*%
D33*
%TO.C,R148*%
X162627300Y-123664400D03*
X160802300Y-123664400D03*
%TD*%
D40*
%TO.C,C64*%
X137000600Y-102387412D03*
X137000600Y-104112412D03*
%TD*%
D39*
%TO.C,R90*%
X205741900Y-86918800D03*
X207566900Y-86918800D03*
%TD*%
D35*
%TO.C,R23*%
X126455600Y-78269300D03*
X126455600Y-76444300D03*
%TD*%
D43*
%TO.C,C57*%
X123259200Y-72507700D03*
X123259200Y-70782700D03*
%TD*%
%TO.C,C14*%
X154958400Y-119700900D03*
X154958400Y-117975900D03*
%TD*%
D34*
%TO.C,C62*%
X140200600Y-101687412D03*
X140200600Y-104812412D03*
%TD*%
D33*
%TO.C,R97*%
X169438100Y-71476800D03*
X167613100Y-71476800D03*
%TD*%
D43*
%TO.C,C52*%
X122200000Y-115099300D03*
X122200000Y-113374300D03*
%TD*%
D35*
%TO.C,R146*%
X105445600Y-67499300D03*
X105445600Y-65674300D03*
%TD*%
D33*
%TO.C,R124*%
X103788100Y-92136800D03*
X101963100Y-92136800D03*
%TD*%
%TO.C,R133*%
X102633917Y-73112069D03*
X100808917Y-73112069D03*
%TD*%
%TO.C,R85*%
X183506100Y-104919200D03*
X181681100Y-104919200D03*
%TD*%
D39*
%TO.C,R27*%
X158516300Y-122038800D03*
X160341300Y-122038800D03*
%TD*%
%TO.C,R50*%
X100937500Y-77825000D03*
X102762500Y-77825000D03*
%TD*%
D44*
%TO.C,Q22*%
X165497100Y-116313600D03*
X165497100Y-118213600D03*
X163622100Y-117263600D03*
%TD*%
D36*
%TO.C,C51*%
X115469500Y-115671600D03*
X117194500Y-115671600D03*
%TD*%
D39*
%TO.C,R82*%
X178328300Y-111218400D03*
X180153300Y-111218400D03*
%TD*%
D35*
%TO.C,R3*%
X140970000Y-49274100D03*
X140970000Y-47449100D03*
%TD*%
D37*
%TO.C,C75*%
X181515131Y-63628710D03*
X181515131Y-60503710D03*
%TD*%
D39*
%TO.C,R20*%
X159991946Y-118536800D03*
X161816946Y-118536800D03*
%TD*%
D33*
%TO.C,R130*%
X134189875Y-55827861D03*
X132364875Y-55827861D03*
%TD*%
%TO.C,R32*%
X192243700Y-109084800D03*
X190418700Y-109084800D03*
%TD*%
D39*
%TO.C,R89*%
X204587500Y-52750000D03*
X206412500Y-52750000D03*
%TD*%
D36*
%TO.C,C81*%
X165153100Y-69976800D03*
X166878100Y-69976800D03*
%TD*%
D39*
%TO.C,R156*%
X163443900Y-114520400D03*
X165268900Y-114520400D03*
%TD*%
%TO.C,R155*%
X165882300Y-123207200D03*
X167707300Y-123207200D03*
%TD*%
D35*
%TO.C,R145*%
X172135600Y-55839300D03*
X172135600Y-54014300D03*
%TD*%
D38*
%TO.C,R100*%
X202405600Y-96444300D03*
X202405600Y-98269300D03*
%TD*%
D39*
%TO.C,R86*%
X138399500Y-106748000D03*
X140224500Y-106748000D03*
%TD*%
D33*
%TO.C,R93*%
X200092300Y-102938000D03*
X198267300Y-102938000D03*
%TD*%
D37*
%TO.C,C24*%
X174719600Y-131271000D03*
X174719600Y-128146000D03*
%TD*%
D38*
%TO.C,R26*%
X168877600Y-118332300D03*
X168877600Y-120157300D03*
%TD*%
D39*
%TO.C,R17*%
X149963100Y-127531800D03*
X151788100Y-127531800D03*
%TD*%
D35*
%TO.C,R139*%
X113944400Y-48308900D03*
X113944400Y-46483900D03*
%TD*%
D39*
%TO.C,R16*%
X129713100Y-127436800D03*
X131538100Y-127436800D03*
%TD*%
D33*
%TO.C,R157*%
X165317800Y-112742400D03*
X163492800Y-112742400D03*
%TD*%
D45*
%TO.C,C95*%
X157705600Y-52609300D03*
X157705600Y-54684300D03*
%TD*%
D39*
%TO.C,R30*%
X160014967Y-113038717D03*
X161839967Y-113038717D03*
%TD*%
%TO.C,R117*%
X123981293Y-56677763D03*
X125806293Y-56677763D03*
%TD*%
D42*
%TO.C,C28*%
X126618100Y-72436800D03*
X124893100Y-72436800D03*
%TD*%
D39*
%TO.C,R125*%
X120088100Y-56711600D03*
X121913100Y-56711600D03*
%TD*%
D35*
%TO.C,R2*%
X142595600Y-49274100D03*
X142595600Y-47449100D03*
%TD*%
D42*
%TO.C,C79*%
X126788700Y-64050600D03*
X125063700Y-64050600D03*
%TD*%
%TO.C,C80*%
X126788700Y-62526600D03*
X125063700Y-62526600D03*
%TD*%
D39*
%TO.C,R113*%
X195549500Y-101337800D03*
X197374500Y-101337800D03*
%TD*%
D33*
%TO.C,R51*%
X102078500Y-47487087D03*
X100253500Y-47487087D03*
%TD*%
D39*
%TO.C,R57*%
X130276951Y-110031496D03*
X132101951Y-110031496D03*
%TD*%
D46*
%TO.C,C47*%
X70561200Y-114930000D03*
X70561200Y-112855000D03*
%TD*%
D42*
%TO.C,C29*%
X126638100Y-70876800D03*
X124913100Y-70876800D03*
%TD*%
D41*
%TO.C,D46*%
X120446800Y-45879400D03*
X120446800Y-49929400D03*
%TD*%
D35*
%TO.C,R81*%
X176450600Y-66949300D03*
X176450600Y-65124300D03*
%TD*%
D45*
%TO.C,C48*%
X67919600Y-130482600D03*
X67919600Y-132557600D03*
%TD*%
D33*
%TO.C,R141*%
X107048100Y-60076800D03*
X105223100Y-60076800D03*
%TD*%
%TO.C,R127*%
X177968900Y-117822400D03*
X176143900Y-117822400D03*
%TD*%
D34*
%TO.C,C58*%
X179596400Y-101674300D03*
X179596400Y-104799300D03*
%TD*%
D42*
%TO.C,C45*%
X117416100Y-67225600D03*
X115691100Y-67225600D03*
%TD*%
D39*
%TO.C,R94*%
X207944700Y-73626400D03*
X209769700Y-73626400D03*
%TD*%
D47*
%TO.C,Q1*%
X163406400Y-120390100D03*
X165306400Y-120390100D03*
X164356400Y-122265100D03*
%TD*%
D35*
%TO.C,R147*%
X103795600Y-67499300D03*
X103795600Y-65674300D03*
%TD*%
D38*
%TO.C,R149*%
X156985050Y-122039300D03*
X156985050Y-123864300D03*
%TD*%
D35*
%TO.C,R24*%
X124915600Y-78269300D03*
X124915600Y-76444300D03*
%TD*%
%TO.C,R116*%
X175439350Y-46449300D03*
X175439350Y-44624300D03*
%TD*%
D37*
%TO.C,C1*%
X133775600Y-130899300D03*
X133775600Y-127774300D03*
%TD*%
D33*
%TO.C,R121*%
X103775500Y-54347800D03*
X101950500Y-54347800D03*
%TD*%
M02*
