M48
; DRILL file KiCad 10.0.3 date 2026-09-19T18:40:21
; FORMAT={-:-/ absolute / inch / decimal}
; #@! TF.CreationDate,2026-09-19T18:40:21-05:00
; #@! TF.GenerationSoftware,Kicad,Pcbnew,10.0.3
; #@! TF.FileFunction,Plated,1,4,PTH
FMAT,2
INCH
; #@! TA.AperFunction,Plated,PTH,ComponentDrill
T1C0.0079
; #@! TA.AperFunction,Plated,PTH,ViaDrill
T2C0.0118
; #@! TA.AperFunction,Plated,PTH,ComponentDrill
T3C0.0197
; #@! TA.AperFunction,Plated,PTH,ComponentDrill
T4C0.0236
; #@! TA.AperFunction,Plated,PTH,ComponentDrill
T5C0.0315
; #@! TA.AperFunction,Plated,PTH,ComponentDrill
T6C0.0394
; #@! TA.AperFunction,Plated,PTH,ComponentDrill
T7C0.0472
; #@! TA.AperFunction,Plated,PTH,ComponentDrill
T8C0.0550
; #@! TA.AperFunction,Plated,PTH,ComponentDrill
T9C0.0551
; #@! TA.AperFunction,Plated,PTH,ComponentDrill
T10C0.0630
; #@! TA.AperFunction,Plated,PTH,ComponentDrill
T11C0.0709
; #@! TA.AperFunction,Plated,PTH,ComponentDrill
T12C0.0748
; #@! TA.AperFunction,Plated,PTH,ComponentDrill
T13C0.1260
; #@! TA.AperFunction,Plated,PTH,ComponentDrill
T14C0.1378
%
G90
G05
T1
X3.9923Y-2.4133
X3.9923Y-2.4448
X3.9923Y-2.4763
X4.0238Y-2.4133
X4.0238Y-2.4448
X4.0238Y-2.4763
X4.0553Y-2.4133
X4.0553Y-2.4448
X4.0553Y-2.4763
T2
X2.4724Y-1.9685
X2.4724Y-2.1654
X2.4724Y-2.3622
X2.4724Y-2.5591
X2.4724Y-2.7559
X2.4724Y-2.9528
X2.4724Y-3.1496
X2.4724Y-3.3465
X2.5197Y-5.5906
X2.6969Y-1.6339
X2.7559Y-5.5906
X2.8937Y-1.6339
X2.9921Y-5.5906
X3.0906Y-1.6339
X3.2283Y-5.5906
X3.2874Y-1.6339
X3.3211Y-3.378
X3.4349Y-3.592
X3.4587Y-3.2947
X3.4646Y-3.6614
X3.4646Y-5.5906
X3.4843Y-1.6339
X3.4843Y-1.8504
X3.4843Y-2.0472
X3.4843Y-2.2441
X3.5039Y-3.622
X3.5368Y-3.5408
X3.5433Y-3.2677
X3.5433Y-3.3465
X3.5433Y-3.6614
X3.6811Y-1.6339
X3.6811Y-1.8504
X3.6811Y-2.0472
X3.6811Y-2.2441
X3.6929Y-3.4252
X3.6929Y-3.622
X3.6929Y-3.8189
X3.6929Y-4.0157
X3.6929Y-4.2126
X3.6929Y-4.6063
X3.6929Y-4.8031
X3.6929Y-5.0
X3.6929Y-5.1969
X3.6929Y-5.3937
X3.6929Y-5.5906
X3.8386Y-1.5748
X3.8396Y-2.816
X3.8817Y-3.0444
X3.8967Y-2.69
X3.9047Y-3.5287
X3.915Y-2.462
X3.9303Y-2.9888
X3.9307Y-3.2608
X3.937Y-4.0157
X3.937Y-4.2126
X3.937Y-4.4094
X3.937Y-4.6063
X3.937Y-4.8031
X3.937Y-5.0
X3.937Y-5.1969
X3.937Y-5.3937
X3.937Y-5.5906
X3.9538Y-2.5066
X3.9609Y-2.6904
X3.9699Y-2.3345
X4.0038Y-2.3322
X4.0163Y-3.6565
X4.0188Y-1.9007
X4.0354Y-1.5748
X4.0366Y-2.3345
X4.0399Y-2.2978
X4.0522Y-3.2501
X4.0532Y-3.6258
X4.0644Y-2.9766
X4.067Y-2.9347
X4.0758Y-3.063
X4.076Y-2.89
X4.0868Y-2.6916
X4.0975Y-2.3794
X4.1181Y-3.7553
X4.1231Y-2.1597
X4.1234Y-2.431
X4.1297Y-2.4831
X4.15Y-1.9053
X4.1648Y-3.3684
X4.1692Y-2.0837
X4.1707Y-2.4479
X4.1732Y-3.8583
X4.1732Y-4.0157
X4.1732Y-4.2126
X4.1732Y-4.4094
X4.1732Y-4.6063
X4.1732Y-4.8031
X4.1732Y-5.0
X4.1732Y-5.1969
X4.1732Y-5.3937
X4.1732Y-5.5906
X4.1742Y-2.6932
X4.1774Y-2.5519
X4.1801Y-3.4479
X4.1813Y-3.1936
X4.186Y-1.86
X4.2147Y-2.8986
X4.2152Y-2.9301
X4.2157Y-2.9628
X4.2218Y-1.8596
X4.2323Y-1.5748
X4.2454Y-1.9053
X4.258Y-2.4469
X4.2598Y-2.2002
X4.2756Y-2.8156
X4.29Y-2.2638
X4.2979Y-3.2837
X4.3282Y-3.4391
X4.3405Y-3.3497
X4.3607Y-2.9567
X4.361Y-2.997
X4.363Y-2.2997
X4.3637Y-3.2397
X4.3648Y-2.1333
X4.3732Y-2.7514
X4.3867Y-2.0347
X4.3887Y-2.1847
X4.404Y-1.984
X4.4087Y-2.7487
X4.4087Y-2.8167
X4.4094Y-2.7819
X4.4094Y-3.8583
X4.4094Y-4.0157
X4.4094Y-4.2126
X4.4094Y-4.4094
X4.4094Y-4.6063
X4.4094Y-4.8031
X4.4094Y-5.0
X4.4094Y-5.1969
X4.4094Y-5.3937
X4.4094Y-5.5906
X4.4111Y-2.3839
X4.4336Y-2.9574
X4.4354Y-2.9909
X4.4813Y-2.2224
X4.4857Y-3.0837
X4.4996Y-2.6852
X4.5007Y-2.8057
X4.5056Y-2.6181
X4.5093Y-2.6552
X4.5152Y-3.3664
X4.518Y-1.9
X4.5429Y-3.0428
X4.5472Y-3.5197
X4.5506Y-3.2428
X4.5677Y-2.2753
X4.5719Y-2.3759
X4.5741Y-3.0387
X4.6053Y-2.3762
X4.632Y-2.054
X4.6457Y-5.5906
X4.6593Y-2.2732
X4.6619Y-3.2416
X4.662Y-3.5196
X4.6767Y-2.1747
X4.6908Y-2.2725
X4.7167Y-2.4469
X4.7279Y-2.2514
X4.7294Y-2.137
X4.774Y-3.2727
X4.7931Y-1.7152
X4.8002Y-2.2007
X4.8496Y-2.9713
X4.85Y-2.1704
X4.8506Y-2.755
X4.8811Y-2.972
X4.8819Y-5.5906
X4.8823Y-2.8792
X4.8904Y-2.8219
X4.9171Y-2.9707
X4.9191Y-2.755
X4.9232Y-2.172
X4.9522Y-2.8815
X4.9597Y-2.3601
X4.9776Y-2.2745
X4.9902Y-3.9272
X4.9902Y-4.0256
X4.9902Y-4.1339
X5.0089Y-2.6203
X5.014Y-3.7816
X5.018Y-3.104
X5.0187Y-2.9192
X5.0234Y-2.3928
X5.0242Y-2.4829
X5.0248Y-2.4287
X5.0248Y-2.5157
X5.028Y-1.942
X5.03Y-2.2736
X5.0322Y-2.8575
X5.0423Y-2.3026
X5.046Y-2.985
X5.0787Y-4.1339
X5.1004Y-4.3327
X5.1024Y-4.3701
X5.1093Y-5.0566
X5.1105Y-2.7878
X5.1111Y-2.8534
X5.1116Y-2.7563
X5.1124Y-2.6896
X5.1125Y-2.6581
X5.1126Y-2.6235
X5.1132Y-2.8192
X5.1139Y-2.7219
X5.1181Y-5.5906
X5.1412Y-4.8833
X5.1648Y-4.1731
X5.1679Y-2.14
X5.1833Y-4.0975
X5.1939Y-2.3322
X5.1969Y-4.4016
X5.2077Y-4.1761
X5.2207Y-4.0192
X5.2207Y-4.7849
X5.2345Y-4.0975
X5.2487Y-2.5987
X5.2507Y-2.7567
X5.2734Y-5.1046
X5.3022Y-4.9581
X5.3227Y-2.1455
X5.3278Y-5.0278
X5.3435Y-2.0656
X5.3581Y-3.7692
X5.3612Y-5.2416
X5.3652Y-4.9999
X5.3918Y-4.1944
X5.395Y-4.1274
X5.4134Y-1.6732
X5.4168Y-4.2135
X5.4242Y-5.0585
X5.425Y-3.9155
X5.4262Y-4.9247
X5.4282Y-5.3912
X5.4624Y-3.9845
X5.464Y-4.2727
X5.4864Y-4.0989
X5.4872Y-5.0467
X5.494Y-1.842
X5.5118Y-1.6732
X5.5142Y-5.1324
X5.5168Y-4.9798
X5.5384Y-5.0723
X5.566Y-4.2357
X5.566Y-4.9837
X5.6083Y-1.836
X5.6102Y-1.6732
X5.6286Y-1.9499
X5.6616Y-5.0851
X5.6654Y-4.1772
X5.6656Y-2.6538
X5.6687Y-2.7607
X5.675Y-2.6224
X5.6887Y-2.5447
X5.7087Y-1.6732
X5.734Y-3.027
X5.7647Y-2.1827
X5.7781Y-2.5616
X5.7927Y-1.8827
X5.8248Y-4.8091
X5.8607Y-4.4897
X5.8613Y-4.4574
X5.8627Y-4.7277
X5.8661Y-3.0709
X5.8747Y-2.5967
X5.8786Y-4.0944
X5.9022Y-4.9806
X5.9046Y-5.0605
X5.9449Y-3.0709
X5.9537Y-4.9997
X5.9606Y-1.8898
X5.9624Y-5.4243
X5.9646Y-4.8081
X5.9827Y-2.5647
X5.9907Y-2.7427
X5.9958Y-4.0751
X6.0203Y-4.4168
X6.0485Y-4.0875
X6.064Y-5.0342
X6.0661Y-4.956
X6.0664Y-5.1133
X6.0675Y-4.7857
X6.0687Y-4.016
X6.0735Y-4.1066
X6.1024Y-1.5748
X6.103Y-3.049
X6.1108Y-3.8413
X6.1181Y-1.8898
X6.1187Y-4.7685
X6.1247Y-4.0947
X6.1252Y-4.3887
X6.1252Y-4.4387
X6.1284Y-4.9591
X6.1569Y-5.0326
X6.1605Y-5.2455
X6.1625Y-4.767
X6.1844Y-4.8436
X6.1853Y-2.2293
X6.1987Y-4.1947
X6.1987Y-4.6835
X6.2008Y-4.1238
X6.209Y-4.7728
X6.2151Y-3.9363
X6.2215Y-5.0034
X6.2234Y-5.3951
X6.2254Y-5.0625
X6.2311Y-4.6838
X6.2398Y-4.7663
X6.2523Y-4.8431
X6.26Y-4.201
X6.2647Y-4.4122
X6.2656Y-3.9951
X6.2724Y-4.4987
X6.2799Y-4.532
X6.2825Y-4.1259
X6.2874Y-1.7501
X6.2887Y-5.0597
X6.2903Y-2.1395
X6.2981Y-2.2308
X6.2987Y-4.6962
X6.2992Y-1.5748
X6.2992Y-4.626
X6.3035Y-4.5095
X6.3087Y-5.1547
X6.3127Y-4.7547
X6.3242Y-4.2042
X6.3287Y-4.6161
X6.3386Y-5.1426
X6.3389Y-4.423
X6.3681Y-4.6161
X6.371Y-4.1225
X6.3868Y-5.0211
X6.3887Y-4.8062
X6.3989Y-4.3725
X6.4332Y-4.1739
X6.4431Y-2.1408
X6.4526Y-5.0247
X6.4646Y-1.8898
X6.4687Y-4.3907
X6.4875Y-4.0973
X6.4896Y-2.3416
X6.4961Y-1.5748
X6.5059Y-4.626
X6.5183Y-2.2196
X6.527Y-2.5932
X6.542Y-4.7638
X6.5453Y-4.626
X6.5472Y-3.812
X6.5472Y-3.9055
X6.5591Y-2.0748
X6.5644Y-3.2617
X6.566Y-4.2818
X6.5672Y-4.7449
X6.5687Y-2.9672
X6.5722Y-4.7138
X6.5737Y-4.4723
X6.5748Y-4.6063
X6.5951Y-2.1487
X6.5998Y-2.7389
X6.622Y-1.8898
X6.625Y-4.8061
X6.6267Y-2.3147
X6.6279Y-2.1454
X6.629Y-4.2215
X6.6589Y-2.6231
X6.6868Y-4.1416
X6.6885Y-2.1496
X6.6929Y-1.5748
X6.6934Y-2.3672
X6.6998Y-2.8248
X6.7042Y-5.0629
X6.7116Y-2.1059
X6.7412Y-4.892
X6.7547Y-2.2391
X6.7601Y-4.1424
X6.7673Y-2.2933
X6.7983Y-4.1774
X6.8118Y-4.0987
X6.8246Y-2.1944
X6.8369Y-4.0211
X6.8406Y-2.4986
X6.8447Y-3.7207
X6.8547Y-4.0977
X6.8754Y-4.9778
X6.8774Y-5.1081
X6.8898Y-1.5748
X6.8947Y-3.5827
X6.9063Y-4.9404
X6.9073Y-4.5688
X6.9101Y-2.6991
X6.9134Y-3.694
X6.9187Y-2.5471
X6.924Y-4.438
X6.9431Y-4.9018
X6.9464Y-1.7563
X6.9507Y-4.1375
X6.9526Y-4.0696
X6.9547Y-5.2487
X6.9557Y-3.7652
X6.9703Y-5.0511
X6.9738Y-4.5967
X6.9829Y-4.4881
X6.9853Y-4.5576
X7.0109Y-4.9736
X7.0227Y-3.9148
X7.0227Y-5.3967
X7.0232Y-1.8327
X7.0258Y-4.2038
X7.0387Y-5.0687
X7.0475Y-4.6195
X7.0538Y-4.3792
X7.0553Y-4.0455
X7.0667Y-2.3487
X7.0687Y-5.2207
X7.0849Y-4.0814
X7.0866Y-1.5748
X7.1247Y-4.4367
X7.1358Y-2.9823
X7.1358Y-3.0709
X7.1358Y-3.3563
X7.1358Y-3.5531
X7.1358Y-3.6417
X7.1387Y-4.2267
X7.1471Y-4.7191
X7.1597Y-4.6326
X7.16Y-4.9955
X7.1727Y-5.0692
X7.2049Y-2.5314
X7.2112Y-5.0739
X7.2116Y-4.9877
X7.2313Y-4.6181
X7.2348Y-4.5153
X7.2387Y-5.1427
X7.2416Y-2.4192
X7.2416Y-4.1774
X7.2527Y-2.2688
X7.2761Y-4.1053
X7.2785Y-2.3551
X7.2835Y-1.5748
X7.2904Y-2.6274
X7.316Y-4.7877
X7.3164Y-2.2672
X7.3168Y-2.4373
X7.3183Y-4.7211
X7.3463Y-2.3389
X7.3622Y-4.685
X7.3622Y-5.0
X7.3622Y-5.1181
X7.3707Y-5.194
X7.404Y-3.9
X7.4391Y-2.3532
X7.4587Y-2.8047
X7.4659Y-2.4421
X7.4767Y-3.249
X7.4803Y-1.5748
X7.4807Y-3.312
X7.4915Y-2.3859
X7.4927Y-2.6267
X7.5073Y-3.6743
X7.5176Y-2.3002
X7.5298Y-4.1849
X7.5317Y-2.4144
X7.5321Y-3.114
X7.5329Y-2.3644
X7.5357Y-4.2967
X7.5539Y-3.3126
X7.5695Y-3.5601
X7.5867Y-3.2187
X7.6181Y-4.1378
X7.6227Y-1.9767
X7.6231Y-4.1912
X7.6247Y-3.3284
X7.6337Y-3.9979
X7.6486Y-4.3538
X7.6644Y-4.9975
X7.6648Y-3.794
X7.6664Y-5.0369
X7.6772Y-1.5748
X7.6929Y-3.3065
X7.6929Y-4.3233
X7.6939Y-4.8137
X7.6995Y-3.903
X7.7207Y-3.2147
X7.7475Y-3.9644
X7.7626Y-3.9033
X7.7641Y-3.2887
X7.7766Y-4.0337
X7.778Y-4.501
X7.7797Y-4.401
X7.7887Y-3.2167
X7.7923Y-2.5935
X7.7983Y-4.866
X7.8175Y-3.977
X7.826Y-3.838
X7.8267Y-2.0347
X7.8337Y-4.9845
X7.874Y-1.5748
X7.93Y-3.8
X7.9333Y-3.8664
X7.966Y-4.314
X7.9724Y-4.0354
X8.0709Y-1.5748
X8.1693Y-3.8386
X8.1693Y-4.0354
X8.1693Y-4.4291
X8.262Y-3.342
X8.296Y-2.066
X8.296Y-2.426
X8.296Y-2.722
X8.296Y-2.876
X8.298Y-2.282
X8.3661Y-1.7717
X8.3661Y-1.9685
X8.3661Y-2.8543
X8.3661Y-3.0512
X8.3661Y-3.248
X8.3661Y-3.4449
X8.3661Y-3.6417
X8.3661Y-3.8386
X8.3661Y-4.0354
X8.3661Y-4.2323
X8.3661Y-4.4291
T3
X4.624Y-1.866
X4.866Y-1.866
X5.8244Y-4.4221
X5.8637Y-4.4221
X5.9031Y-4.4221
X6.8667Y-4.5267
X6.8667Y-4.566
T5
X3.64Y-3.7076
X3.64Y-3.8076
X3.94Y-3.7076
X3.94Y-3.8076
T6
X3.078Y-2.838
X3.198Y-3.842
X3.4595Y-3.7652
X3.926Y-2.0507
X3.926Y-2.1507
X4.852Y-3.63
X5.2234Y-5.5738
X5.2867Y-4.2747
X5.4567Y-2.6227
X5.4797Y-1.957
X5.4797Y-2.057
X5.4797Y-2.157
X5.4797Y-2.257
X5.6Y-4.455
X5.6Y-4.616
X5.6Y-4.776
X5.7146Y-5.5738
X5.8435Y-4.2372
X5.8976Y-3.4665
X6.1535Y-2.7825
X6.1545Y-2.624
X6.2057Y-5.5738
X6.2904Y-1.9026
X6.6358Y-2.4961
X6.6969Y-5.5738
X6.7807Y-4.3427
X7.188Y-5.5738
X7.311Y-4.3839
X7.4911Y-4.9291
X7.4911Y-5.0984
X7.5305Y-4.061
X7.6506Y-1.751
X7.689Y-5.5758
X7.741Y-2.364
X8.2967Y-2.516
X8.2967Y-2.9821
X8.2967Y-3.4482
X8.2967Y-3.9144
T7
X3.8982Y-1.7235
X3.9966Y-1.7235
X4.2951Y-1.7238
X4.3936Y-1.7238
X4.492Y-1.7238
X4.5904Y-1.7238
X4.8971Y-1.7238
X4.9956Y-1.7238
X5.094Y-1.7238
X5.1924Y-1.7238
X5.94Y-1.7289
X6.0384Y-1.7289
X6.1368Y-1.7289
X6.4439Y-1.7289
X6.5423Y-1.7289
X6.6408Y-1.7289
X7.9843Y-4.3763
X8.0827Y-4.3763
T8
X2.6929Y-2.4767
X3.6429Y-2.4767
T9
X2.7766Y-4.6865
X2.7766Y-5.0603
X2.7766Y-5.2115
X4.7333Y-4.6615
X4.7333Y-4.8115
X4.7333Y-4.9615
T10
X5.0768Y-3.4711
X5.0768Y-3.6049
X5.6072Y-3.4711
X5.6072Y-3.6049
X6.2236Y-3.4677
X6.2236Y-3.6016
X6.7539Y-3.4677
X6.7539Y-3.6016
X8.0089Y-3.6107
X8.0089Y-4.141
X8.0091Y-1.9808
X8.0091Y-2.5112
X8.0091Y-4.7188
X8.0091Y-5.2492
X8.0098Y-2.7975
X8.0098Y-3.3278
X8.1427Y-3.6107
X8.1427Y-4.141
X8.1429Y-1.9808
X8.1429Y-2.5112
X8.1429Y-4.7188
X8.1429Y-5.2492
X8.1437Y-2.7975
X8.1437Y-3.3278
T11
X3.3031Y-1.9467
X3.5Y-1.9467
X4.4153Y-3.7787
X4.6121Y-3.7787
X7.18Y-3.26
X7.18Y-3.4569
X7.5394Y-4.6647
X7.5456Y-3.01
X7.5596Y-5.3527
X7.7362Y-4.6647
X7.7424Y-3.01
X7.7564Y-5.3527
T12
X4.7333Y-4.5115
X4.7333Y-5.1115
T13
X2.548Y-1.716
X8.212Y-1.716
X8.212Y-5.514
T14
X2.7766Y-4.2603
T4
G00X5.389Y-1.626
M15
G01X5.389Y-1.5945
M16
G05
G00X5.389Y-1.7965
M15
G01X5.389Y-1.7531
M16
G05
G00X5.7291Y-1.626
M15
G01X5.7291Y-1.5945
M16
G05
G00X5.7291Y-1.7965
M15
G01X5.7291Y-1.7531
M16
G05
M30
